<?xml version="1.0" standalone="no"?>
<!DOCTYPE svg PUBLIC "-//W3C//DTD SVG 1.1//EN" "http://www.w3.org/Graphics/SVG/1.1/DTD/svg11.dtd">
<svg width="180mm" height="86mm" viewBox="-90 -79 180 86" xmlns="http://www.w3.org/2000/svg" version="1.1">
<title>OpenSCAD Model</title>
<path d="
M 87.4684,-65.0443 L 87.7725,-65.1224 L 88.0644,-65.2379 L 88.3396,-65.3892 L 88.5936,-65.5737 L 88.8224,-65.7886
 L 89.0225,-66.0305 L 89.1908,-66.2956 L 89.3244,-66.5797 L 89.4214,-66.8783 L 89.4803,-67.1867 L 89.5,-67.5
 L 89.5,-76.5 L 89.4803,-76.8133 L 89.4214,-77.1217 L 89.3244,-77.4203 L 89.1908,-77.7044 L 89.0225,-77.9695
 L 88.8224,-78.2114 L 88.5936,-78.4263 L 88.3396,-78.6108 L 88.0644,-78.7621 L 87.7725,-78.8776 L 87.4684,-78.9557
 L 87.157,-78.9951 L -87.157,-78.9951 L -87.4684,-78.9557 L -87.7725,-78.8776 L -88.0644,-78.7621 L -88.3396,-78.6108
 L -88.5936,-78.4263 L -88.8224,-78.2114 L -89.0225,-77.9695 L -89.1908,-77.7044 L -89.3244,-77.4203 L -89.4214,-77.1217
 L -89.4803,-76.8133 L -89.5,-76.5 L -89.5,-67.5 L -89.4803,-67.1867 L -89.4214,-66.8783 L -89.3244,-66.5797
 L -89.1908,-66.2956 L -89.0225,-66.0305 L -88.8224,-65.7886 L -88.5936,-65.5737 L -88.3396,-65.3892 L -88.0644,-65.2379
 L -87.7725,-65.1224 L -87.4684,-65.0443 L -87.157,-65.0049 L 87.157,-65.0049 z
M -67.6884,-69.0059 L -68.0621,-69.0531 L -68.427,-69.1468 L -68.7773,-69.2855 L -69.1075,-69.467 L -69.4123,-69.6885
 L -69.6869,-69.9464 L -69.927,-70.2366 L -70.1289,-70.5547 L -70.2893,-70.8956 L -70.4057,-71.2539 L -70.4763,-71.624
 L -70.5,-72 L -70.4763,-72.376 L -70.4057,-72.7461 L -70.2893,-73.1044 L -70.1289,-73.4453 L -69.927,-73.7634
 L -69.6869,-74.0536 L -69.4123,-74.3115 L -69.1075,-74.533 L -68.7773,-74.7145 L -68.427,-74.8532 L -68.0621,-74.9469
 L -67.6884,-74.9941 L -67.3116,-74.9941 L -66.9379,-74.9469 L -66.573,-74.8532 L -66.2227,-74.7145 L -65.8925,-74.533
 L -65.5877,-74.3115 L -65.3131,-74.0536 L -65.073,-73.7634 L -64.8711,-73.4453 L -64.7107,-73.1044 L -64.5943,-72.7461
 L -64.5237,-72.376 L -64.5,-72 L -64.5237,-71.624 L -64.5943,-71.2539 L -64.7107,-70.8956 L -64.8711,-70.5547
 L -65.073,-70.2366 L -65.3131,-69.9464 L -65.5877,-69.6885 L -65.8925,-69.467 L -66.2227,-69.2855 L -66.573,-69.1468
 L -66.9379,-69.0531 L -67.3116,-69.0059 z
M 82.3116,-69.0059 L 81.9379,-69.0531 L 81.573,-69.1468 L 81.2227,-69.2855 L 80.8925,-69.467 L 80.5877,-69.6885
 L 80.3131,-69.9464 L 80.073,-70.2366 L 79.8711,-70.5547 L 79.7107,-70.8956 L 79.5943,-71.2539 L 79.5237,-71.624
 L 79.5,-72 L 79.5237,-72.376 L 79.5943,-72.7461 L 79.7107,-73.1044 L 79.8711,-73.4453 L 80.073,-73.7634
 L 80.3131,-74.0536 L 80.5877,-74.3115 L 80.8925,-74.533 L 81.2227,-74.7145 L 81.573,-74.8532 L 81.9379,-74.9469
 L 82.3116,-74.9941 L 82.6884,-74.9941 L 83.0621,-74.9469 L 83.427,-74.8532 L 83.7773,-74.7145 L 84.1075,-74.533
 L 84.4123,-74.3115 L 84.6869,-74.0536 L 84.927,-73.7634 L 85.1289,-73.4453 L 85.2893,-73.1044 L 85.4057,-72.7461
 L 85.4763,-72.376 L 85.5,-72 L 85.4763,-71.624 L 85.4057,-71.2539 L 85.2893,-70.8956 L 85.1289,-70.5547
 L 84.927,-70.2366 L 84.6869,-69.9464 L 84.4123,-69.6885 L 84.1075,-69.467 L 83.7773,-69.2855 L 83.427,-69.1468
 L 83.0621,-69.0531 L 82.6884,-69.0059 z
M -37.6884,-69.0059 L -38.0621,-69.0531 L -38.427,-69.1468 L -38.7773,-69.2855 L -39.1075,-69.467 L -39.4123,-69.6885
 L -39.6869,-69.9464 L -39.927,-70.2366 L -40.1289,-70.5547 L -40.2893,-70.8956 L -40.4057,-71.2539 L -40.4763,-71.624
 L -40.5,-72 L -40.4763,-72.376 L -40.4057,-72.7461 L -40.2893,-73.1044 L -40.1289,-73.4453 L -39.927,-73.7634
 L -39.6869,-74.0536 L -39.4123,-74.3115 L -39.1075,-74.533 L -38.7773,-74.7145 L -38.427,-74.8532 L -38.0621,-74.9469
 L -37.6884,-74.9941 L -37.3116,-74.9941 L -36.9379,-74.9469 L -36.5729,-74.8532 L -36.2227,-74.7145 L -35.8925,-74.533
 L -35.5877,-74.3115 L -35.3131,-74.0536 L -35.0729,-73.7634 L -34.8711,-73.4453 L -34.7107,-73.1044 L -34.5942,-72.7461
 L -34.5237,-72.376 L -34.5,-72 L -34.5237,-71.624 L -34.5942,-71.2539 L -34.7107,-70.8956 L -34.8711,-70.5547
 L -35.0729,-70.2366 L -35.3131,-69.9464 L -35.5877,-69.6885 L -35.8925,-69.467 L -36.2227,-69.2855 L -36.5729,-69.1468
 L -36.9379,-69.0531 L -37.3116,-69.0059 z
M -7.68837,-69.0059 L -8.06213,-69.0531 L -8.42705,-69.1468 L -8.77733,-69.2855 L -9.10747,-69.467 L -9.41226,-69.6885
 L -9.6869,-69.9464 L -9.92705,-70.2366 L -10.1289,-70.5547 L -10.2893,-70.8956 L -10.4057,-71.2539 L -10.4763,-71.624
 L -10.5,-72 L -10.4763,-72.376 L -10.4057,-72.7461 L -10.2893,-73.1044 L -10.1289,-73.4453 L -9.92705,-73.7634
 L -9.6869,-74.0536 L -9.41226,-74.3115 L -9.10747,-74.533 L -8.77733,-74.7145 L -8.42705,-74.8532 L -8.06213,-74.9469
 L -7.68837,-74.9941 L -7.31161,-74.9941 L -6.93785,-74.9469 L -6.57294,-74.8532 L -6.22266,-74.7145 L -5.89252,-74.533
 L -5.58772,-74.3115 L -5.31308,-74.0536 L -5.07294,-73.7634 L -4.87108,-73.4453 L -4.71066,-73.1044 L -4.59424,-72.7461
 L -4.52365,-72.376 L -4.5,-72 L -4.52365,-71.624 L -4.59424,-71.2539 L -4.71066,-70.8956 L -4.87108,-70.5547
 L -5.07294,-70.2366 L -5.31308,-69.9464 L -5.58772,-69.6885 L -5.89252,-69.467 L -6.22266,-69.2855 L -6.57294,-69.1468
 L -6.93785,-69.0531 L -7.31161,-69.0059 z
M 22.3116,-69.0059 L 21.9379,-69.0531 L 21.5729,-69.1468 L 21.2227,-69.2855 L 20.8925,-69.467 L 20.5877,-69.6885
 L 20.3131,-69.9464 L 20.0729,-70.2366 L 19.8711,-70.5547 L 19.7107,-70.8956 L 19.5942,-71.2539 L 19.5237,-71.624
 L 19.5,-72 L 19.5237,-72.376 L 19.5942,-72.7461 L 19.7107,-73.1044 L 19.8711,-73.4453 L 20.0729,-73.7634
 L 20.3131,-74.0536 L 20.5877,-74.3115 L 20.8925,-74.533 L 21.2227,-74.7145 L 21.5729,-74.8532 L 21.9379,-74.9469
 L 22.3116,-74.9941 L 22.6884,-74.9941 L 23.0621,-74.9469 L 23.427,-74.8532 L 23.7773,-74.7145 L 24.1075,-74.533
 L 24.4123,-74.3115 L 24.6869,-74.0536 L 24.927,-73.7634 L 25.1289,-73.4453 L 25.2893,-73.1044 L 25.4057,-72.7461
 L 25.4763,-72.376 L 25.5,-72 L 25.4763,-71.624 L 25.4057,-71.2539 L 25.2893,-70.8956 L 25.1289,-70.5547
 L 24.927,-70.2366 L 24.6869,-69.9464 L 24.4123,-69.6885 L 24.1075,-69.467 L 23.7773,-69.2855 L 23.427,-69.1468
 L 23.0621,-69.0531 L 22.6884,-69.0059 z
M 52.3116,-69.0059 L 51.9379,-69.0531 L 51.5729,-69.1468 L 51.2227,-69.2855 L 50.8925,-69.467 L 50.5877,-69.6885
 L 50.3131,-69.9464 L 50.0729,-70.2366 L 49.8711,-70.5547 L 49.7107,-70.8956 L 49.5942,-71.2539 L 49.5237,-71.624
 L 49.5,-72 L 49.5237,-72.376 L 49.5942,-72.7461 L 49.7107,-73.1044 L 49.8711,-73.4453 L 50.0729,-73.7634
 L 50.3131,-74.0536 L 50.5877,-74.3115 L 50.8925,-74.533 L 51.2227,-74.7145 L 51.5729,-74.8532 L 51.9379,-74.9469
 L 52.3116,-74.9941 L 52.6884,-74.9941 L 53.0621,-74.9469 L 53.427,-74.8532 L 53.7773,-74.7145 L 54.1075,-74.533
 L 54.4123,-74.3115 L 54.6869,-74.0536 L 54.927,-73.7634 L 55.1289,-73.4453 L 55.2893,-73.1044 L 55.4057,-72.7461
 L 55.4763,-72.376 L 55.5,-72 L 55.4763,-71.624 L 55.4057,-71.2539 L 55.2893,-70.8956 L 55.1289,-70.5547
 L 54.927,-70.2366 L 54.6869,-69.9464 L 54.4123,-69.6885 L 54.1075,-69.467 L 53.7773,-69.2855 L 53.427,-69.1468
 L 53.0621,-69.0531 L 52.6884,-69.0059 z
M -45.0942,-70.503 L -45.2811,-70.5266 L -45.4635,-70.5734 L -45.6387,-70.6428 L -45.8037,-70.7335 L -45.9561,-70.8442
 L -46.0934,-70.9732 L -46.2135,-71.1183 L -46.3145,-71.2774 L -46.3947,-71.4478 L -46.4529,-71.627 L -46.4882,-71.812
 L -46.5,-72 L -46.4882,-72.188 L -46.4529,-72.373 L -46.3947,-72.5522 L -46.3145,-72.7226 L -46.2135,-72.8817
 L -46.0934,-73.0268 L -45.9561,-73.1558 L -45.8037,-73.2665 L -45.6387,-73.3572 L -45.4635,-73.4266 L -45.2811,-73.4734
 L -45.0942,-73.497 L -44.9058,-73.497 L -44.7189,-73.4734 L -44.5365,-73.4266 L -44.3613,-73.3572 L -44.1963,-73.2665
 L -44.0439,-73.1558 L -43.9065,-73.0268 L -43.7865,-72.8817 L -43.6855,-72.7226 L -43.6053,-72.5522 L -43.5471,-72.373
 L -43.5118,-72.188 L -43.5,-72 L -43.5118,-71.812 L -43.5471,-71.627 L -43.6053,-71.4478 L -43.6855,-71.2774
 L -43.7865,-71.1183 L -43.9065,-70.9732 L -44.0439,-70.8442 L -44.1963,-70.7335 L -44.3613,-70.6428 L -44.5365,-70.5734
 L -44.7189,-70.5266 L -44.9058,-70.503 z
M -30.0942,-70.503 L -30.2811,-70.5266 L -30.4635,-70.5734 L -30.6387,-70.6428 L -30.8037,-70.7335 L -30.9561,-70.8442
 L -31.0934,-70.9732 L -31.2135,-71.1183 L -31.3145,-71.2774 L -31.3947,-71.4478 L -31.4529,-71.627 L -31.4882,-71.812
 L -31.5,-72 L -31.4882,-72.188 L -31.4529,-72.373 L -31.3947,-72.5522 L -31.3145,-72.7226 L -31.2135,-72.8817
 L -31.0934,-73.0268 L -30.9561,-73.1558 L -30.8037,-73.2665 L -30.6387,-73.3572 L -30.4635,-73.4266 L -30.2811,-73.4734
 L -30.0942,-73.497 L -29.9058,-73.497 L -29.7189,-73.4734 L -29.5365,-73.4266 L -29.3613,-73.3572 L -29.1963,-73.2665
 L -29.0439,-73.1558 L -28.9065,-73.0268 L -28.7865,-72.8817 L -28.6855,-72.7226 L -28.6053,-72.5522 L -28.5471,-72.373
 L -28.5118,-72.188 L -28.5,-72 L -28.5118,-71.812 L -28.5471,-71.627 L -28.6053,-71.4478 L -28.6855,-71.2774
 L -28.7865,-71.1183 L -28.9065,-70.9732 L -29.0439,-70.8442 L -29.1963,-70.7335 L -29.3613,-70.6428 L -29.5365,-70.5734
 L -29.7189,-70.5266 L -29.9058,-70.503 z
M -15.0942,-70.503 L -15.2811,-70.5266 L -15.4635,-70.5734 L -15.6387,-70.6428 L -15.8037,-70.7335 L -15.9561,-70.8442
 L -16.0934,-70.9732 L -16.2135,-71.1183 L -16.3145,-71.2774 L -16.3947,-71.4478 L -16.4529,-71.627 L -16.4882,-71.812
 L -16.5,-72 L -16.4882,-72.188 L -16.4529,-72.373 L -16.3947,-72.5522 L -16.3145,-72.7226 L -16.2135,-72.8817
 L -16.0934,-73.0268 L -15.9561,-73.1558 L -15.8037,-73.2665 L -15.6387,-73.3572 L -15.4635,-73.4266 L -15.2811,-73.4734
 L -15.0942,-73.497 L -14.9058,-73.497 L -14.7189,-73.4734 L -14.5365,-73.4266 L -14.3613,-73.3572 L -14.1963,-73.2665
 L -14.0439,-73.1558 L -13.9065,-73.0268 L -13.7865,-72.8817 L -13.6855,-72.7226 L -13.6053,-72.5522 L -13.5471,-72.373
 L -13.5118,-72.188 L -13.5,-72 L -13.5118,-71.812 L -13.5471,-71.627 L -13.6053,-71.4478 L -13.6855,-71.2774
 L -13.7865,-71.1183 L -13.9065,-70.9732 L -14.0439,-70.8442 L -14.1963,-70.7335 L -14.3613,-70.6428 L -14.5365,-70.5734
 L -14.7189,-70.5266 L -14.9058,-70.503 z
M -60.0942,-70.503 L -60.2811,-70.5266 L -60.4635,-70.5734 L -60.6387,-70.6428 L -60.8037,-70.7335 L -60.9561,-70.8442
 L -61.0934,-70.9732 L -61.2135,-71.1183 L -61.3145,-71.2774 L -61.3947,-71.4478 L -61.4529,-71.627 L -61.4882,-71.812
 L -61.5,-72 L -61.4882,-72.188 L -61.4529,-72.373 L -61.3947,-72.5522 L -61.3145,-72.7226 L -61.2135,-72.8817
 L -61.0934,-73.0268 L -60.9561,-73.1558 L -60.8037,-73.2665 L -60.6387,-73.3572 L -60.4635,-73.4266 L -60.2811,-73.4734
 L -60.0942,-73.497 L -59.9058,-73.497 L -59.7189,-73.4734 L -59.5365,-73.4266 L -59.3613,-73.3572 L -59.1963,-73.2665
 L -59.0439,-73.1558 L -58.9065,-73.0268 L -58.7865,-72.8817 L -58.6855,-72.7226 L -58.6053,-72.5522 L -58.5471,-72.373
 L -58.5118,-72.188 L -58.5,-72 L -58.5118,-71.812 L -58.5471,-71.627 L -58.6053,-71.4478 L -58.6855,-71.2774
 L -58.7865,-71.1183 L -58.9065,-70.9732 L -59.0439,-70.8442 L -59.1963,-70.7335 L -59.3613,-70.6428 L -59.5365,-70.5734
 L -59.7189,-70.5266 L -59.9058,-70.503 z
M -75.0942,-70.503 L -75.2811,-70.5266 L -75.4635,-70.5734 L -75.6387,-70.6428 L -75.8037,-70.7335 L -75.9561,-70.8442
 L -76.0934,-70.9732 L -76.2135,-71.1183 L -76.3145,-71.2774 L -76.3947,-71.4478 L -76.4529,-71.627 L -76.4882,-71.812
 L -76.5,-72 L -76.4882,-72.188 L -76.4529,-72.373 L -76.3947,-72.5522 L -76.3145,-72.7226 L -76.2135,-72.8817
 L -76.0934,-73.0268 L -75.9561,-73.1558 L -75.8037,-73.2665 L -75.6387,-73.3572 L -75.4635,-73.4266 L -75.2811,-73.4734
 L -75.0942,-73.497 L -74.9058,-73.497 L -74.7189,-73.4734 L -74.5365,-73.4266 L -74.3613,-73.3572 L -74.1963,-73.2665
 L -74.0439,-73.1558 L -73.9065,-73.0268 L -73.7865,-72.8817 L -73.6855,-72.7226 L -73.6053,-72.5522 L -73.5471,-72.373
 L -73.5118,-72.188 L -73.5,-72 L -73.5118,-71.812 L -73.5471,-71.627 L -73.6053,-71.4478 L -73.6855,-71.2774
 L -73.7865,-71.1183 L -73.9065,-70.9732 L -74.0439,-70.8442 L -74.1963,-70.7335 L -74.3613,-70.6428 L -74.5365,-70.5734
 L -74.7189,-70.5266 L -74.9058,-70.503 z
M 29.9058,-70.503 L 29.7189,-70.5266 L 29.5365,-70.5734 L 29.3613,-70.6428 L 29.1963,-70.7335 L 29.0439,-70.8442
 L 28.9065,-70.9732 L 28.7865,-71.1183 L 28.6855,-71.2774 L 28.6053,-71.4478 L 28.5471,-71.627 L 28.5118,-71.812
 L 28.5,-72 L 28.5118,-72.188 L 28.5471,-72.373 L 28.6053,-72.5522 L 28.6855,-72.7226 L 28.7865,-72.8817
 L 28.9065,-73.0268 L 29.0439,-73.1558 L 29.1963,-73.2665 L 29.3613,-73.3572 L 29.5365,-73.4266 L 29.7189,-73.4734
 L 29.9058,-73.497 L 30.0942,-73.497 L 30.2811,-73.4734 L 30.4635,-73.4266 L 30.6387,-73.3572 L 30.8037,-73.2665
 L 30.9561,-73.1558 L 31.0934,-73.0268 L 31.2135,-72.8817 L 31.3145,-72.7226 L 31.3947,-72.5522 L 31.4529,-72.373
 L 31.4882,-72.188 L 31.5,-72 L 31.4882,-71.812 L 31.4529,-71.627 L 31.3947,-71.4478 L 31.3145,-71.2774
 L 31.2135,-71.1183 L 31.0934,-70.9732 L 30.9561,-70.8442 L 30.8037,-70.7335 L 30.6387,-70.6428 L 30.4635,-70.5734
 L 30.2811,-70.5266 L 30.0942,-70.503 z
M -0.0941772,-70.503 L -0.281067,-70.5266 L -0.463516,-70.5734 L -0.638657,-70.6428 L -0.803726,-70.7335 L -0.956131,-70.8442
 L -1.09344,-70.9732 L -1.21352,-71.1183 L -1.31445,-71.2774 L -1.39465,-71.4478 L -1.45287,-71.627 L -1.48816,-71.812
 L -1.5,-72 L -1.48816,-72.188 L -1.45287,-72.373 L -1.39465,-72.5522 L -1.31445,-72.7226 L -1.21352,-72.8817
 L -1.09344,-73.0268 L -0.956131,-73.1558 L -0.803726,-73.2665 L -0.638657,-73.3572 L -0.463516,-73.4266 L -0.281067,-73.4734
 L -0.0941772,-73.497 L 0.0941772,-73.497 L 0.281067,-73.4734 L 0.463516,-73.4266 L 0.638657,-73.3572 L 0.803726,-73.2665
 L 0.956131,-73.1558 L 1.09344,-73.0268 L 1.21352,-72.8817 L 1.31445,-72.7226 L 1.39465,-72.5522 L 1.45287,-72.373
 L 1.48816,-72.188 L 1.5,-72 L 1.48816,-71.812 L 1.45287,-71.627 L 1.39465,-71.4478 L 1.31445,-71.2774
 L 1.21352,-71.1183 L 1.09344,-70.9732 L 0.956131,-70.8442 L 0.803726,-70.7335 L 0.638657,-70.6428 L 0.463516,-70.5734
 L 0.281067,-70.5266 L 0.0941772,-70.503 z
M 44.9058,-70.503 L 44.7189,-70.5266 L 44.5365,-70.5734 L 44.3613,-70.6428 L 44.1963,-70.7335 L 44.0439,-70.8442
 L 43.9065,-70.9732 L 43.7865,-71.1183 L 43.6855,-71.2774 L 43.6053,-71.4478 L 43.5471,-71.627 L 43.5118,-71.812
 L 43.5,-72 L 43.5118,-72.188 L 43.5471,-72.373 L 43.6053,-72.5522 L 43.6855,-72.7226 L 43.7865,-72.8817
 L 43.9065,-73.0268 L 44.0439,-73.1558 L 44.1963,-73.2665 L 44.3613,-73.3572 L 44.5365,-73.4266 L 44.7189,-73.4734
 L 44.9058,-73.497 L 45.0942,-73.497 L 45.2811,-73.4734 L 45.4635,-73.4266 L 45.6387,-73.3572 L 45.8037,-73.2665
 L 45.9561,-73.1558 L 46.0934,-73.0268 L 46.2135,-72.8817 L 46.3145,-72.7226 L 46.3947,-72.5522 L 46.4529,-72.373
 L 46.4882,-72.188 L 46.5,-72 L 46.4882,-71.812 L 46.4529,-71.627 L 46.3947,-71.4478 L 46.3145,-71.2774
 L 46.2135,-71.1183 L 46.0934,-70.9732 L 45.9561,-70.8442 L 45.8037,-70.7335 L 45.6387,-70.6428 L 45.4635,-70.5734
 L 45.2811,-70.5266 L 45.0942,-70.503 z
M 74.9058,-70.503 L 74.7189,-70.5266 L 74.5365,-70.5734 L 74.3613,-70.6428 L 74.1963,-70.7335 L 74.0439,-70.8442
 L 73.9065,-70.9732 L 73.7865,-71.1183 L 73.6855,-71.2774 L 73.6053,-71.4478 L 73.5471,-71.627 L 73.5118,-71.812
 L 73.5,-72 L 73.5118,-72.188 L 73.5471,-72.373 L 73.6053,-72.5522 L 73.6855,-72.7226 L 73.7865,-72.8817
 L 73.9065,-73.0268 L 74.0439,-73.1558 L 74.1963,-73.2665 L 74.3613,-73.3572 L 74.5365,-73.4266 L 74.7189,-73.4734
 L 74.9058,-73.497 L 75.0942,-73.497 L 75.2811,-73.4734 L 75.4635,-73.4266 L 75.6387,-73.3572 L 75.8037,-73.2665
 L 75.9561,-73.1558 L 76.0934,-73.0268 L 76.2135,-72.8817 L 76.3145,-72.7226 L 76.3947,-72.5522 L 76.4529,-72.373
 L 76.4882,-72.188 L 76.5,-72 L 76.4882,-71.812 L 76.4529,-71.627 L 76.3947,-71.4478 L 76.3145,-71.2774
 L 76.2135,-71.1183 L 76.0934,-70.9732 L 75.9561,-70.8442 L 75.8037,-70.7335 L 75.6387,-70.6428 L 75.4635,-70.5734
 L 75.2811,-70.5266 L 75.0942,-70.503 z
M 14.9058,-70.503 L 14.7189,-70.5266 L 14.5365,-70.5734 L 14.3613,-70.6428 L 14.1963,-70.7335 L 14.0439,-70.8442
 L 13.9065,-70.9732 L 13.7865,-71.1183 L 13.6855,-71.2774 L 13.6053,-71.4478 L 13.5471,-71.627 L 13.5118,-71.812
 L 13.5,-72 L 13.5118,-72.188 L 13.5471,-72.373 L 13.6053,-72.5522 L 13.6855,-72.7226 L 13.7865,-72.8817
 L 13.9065,-73.0268 L 14.0439,-73.1558 L 14.1963,-73.2665 L 14.3613,-73.3572 L 14.5365,-73.4266 L 14.7189,-73.4734
 L 14.9058,-73.497 L 15.0942,-73.497 L 15.2811,-73.4734 L 15.4635,-73.4266 L 15.6387,-73.3572 L 15.8037,-73.2665
 L 15.9561,-73.1558 L 16.0934,-73.0268 L 16.2135,-72.8817 L 16.3145,-72.7226 L 16.3947,-72.5522 L 16.4529,-72.373
 L 16.4882,-72.188 L 16.5,-72 L 16.4882,-71.812 L 16.4529,-71.627 L 16.3947,-71.4478 L 16.3145,-71.2774
 L 16.2135,-71.1183 L 16.0934,-70.9732 L 15.9561,-70.8442 L 15.8037,-70.7335 L 15.6387,-70.6428 L 15.4635,-70.5734
 L 15.2811,-70.5266 L 15.0942,-70.503 z
M 59.9058,-70.503 L 59.7189,-70.5266 L 59.5365,-70.5734 L 59.3613,-70.6428 L 59.1963,-70.7335 L 59.0439,-70.8442
 L 58.9065,-70.9732 L 58.7865,-71.1183 L 58.6855,-71.2774 L 58.6053,-71.4478 L 58.5471,-71.627 L 58.5118,-71.812
 L 58.5,-72 L 58.5118,-72.188 L 58.5471,-72.373 L 58.6053,-72.5522 L 58.6855,-72.7226 L 58.7865,-72.8817
 L 58.9065,-73.0268 L 59.0439,-73.1558 L 59.1963,-73.2665 L 59.3613,-73.3572 L 59.5365,-73.4266 L 59.7189,-73.4734
 L 59.9058,-73.497 L 60.0942,-73.497 L 60.2811,-73.4734 L 60.4635,-73.4266 L 60.6387,-73.3572 L 60.8037,-73.2665
 L 60.9561,-73.1558 L 61.0934,-73.0268 L 61.2135,-72.8817 L 61.3145,-72.7226 L 61.3947,-72.5522 L 61.4529,-72.373
 L 61.4882,-72.188 L 61.5,-72 L 61.4882,-71.812 L 61.4529,-71.627 L 61.3947,-71.4478 L 61.3145,-71.2774
 L 61.2135,-71.1183 L 61.0934,-70.9732 L 60.9561,-70.8442 L 60.8037,-70.7335 L 60.6387,-70.6428 L 60.4635,-70.5734
 L 60.2811,-70.5266 L 60.0942,-70.503 z
M -31.3722,-47.4 L -31.3947,-47.4478 L -31.4529,-47.627 L -31.4882,-47.812 L -31.5,-48 L -31.4882,-48.188
 L -31.4529,-48.373 L -31.3947,-48.5522 L -31.3722,-48.6 L -31.3722,-54.9951 L -43.6278,-54.9951 L -43.6278,-48.6
 L -43.6053,-48.5522 L -43.5471,-48.373 L -43.5118,-48.188 L -43.5,-48 L -43.5118,-47.812 L -43.5471,-47.627
 L -43.6053,-47.4478 L -43.6278,-47.4 L -43.6278,-41.0049 L -31.3722,-41.0049 z
M -37.6884,-45.0059 L -38.0621,-45.0531 L -38.427,-45.1468 L -38.7773,-45.2855 L -39.1075,-45.467 L -39.4123,-45.6885
 L -39.6869,-45.9464 L -39.927,-46.2366 L -40.1289,-46.5547 L -40.2893,-46.8956 L -40.4057,-47.2539 L -40.4763,-47.624
 L -40.5,-48 L -40.4763,-48.376 L -40.4057,-48.7461 L -40.2893,-49.1044 L -40.1289,-49.4453 L -39.927,-49.7634
 L -39.6869,-50.0536 L -39.4123,-50.3115 L -39.1075,-50.533 L -38.7773,-50.7145 L -38.427,-50.8532 L -38.0621,-50.9469
 L -37.6884,-50.9941 L -37.3116,-50.9941 L -36.9379,-50.9469 L -36.5729,-50.8532 L -36.2227,-50.7145 L -35.8925,-50.533
 L -35.5877,-50.3115 L -35.3131,-50.0536 L -35.0729,-49.7634 L -34.8711,-49.4453 L -34.7107,-49.1044 L -34.5942,-48.7461
 L -34.5237,-48.376 L -34.5,-48 L -34.5237,-47.624 L -34.5942,-47.2539 L -34.7107,-46.8956 L -34.8711,-46.5547
 L -35.0729,-46.2366 L -35.3131,-45.9464 L -35.5877,-45.6885 L -35.8925,-45.467 L -36.2227,-45.2855 L -36.5729,-45.1468
 L -36.9379,-45.0531 L -37.3116,-45.0059 z
M 58.6278,-47.4 L 58.6053,-47.4478 L 58.5471,-47.627 L 58.5118,-47.812 L 58.5,-48 L 58.5118,-48.188
 L 58.5471,-48.373 L 58.6053,-48.5522 L 58.6278,-48.6 L 58.6278,-54.9951 L 46.3722,-54.9951 L 46.3722,-48.6
 L 46.3947,-48.5522 L 46.4529,-48.373 L 46.4882,-48.188 L 46.5,-48 L 46.4882,-47.812 L 46.4529,-47.627
 L 46.3947,-47.4478 L 46.3722,-47.4 L 46.3722,-41.0049 L 58.6278,-41.0049 z
M 52.3116,-45.0059 L 51.9379,-45.0531 L 51.5729,-45.1468 L 51.2227,-45.2855 L 50.8925,-45.467 L 50.5877,-45.6885
 L 50.3131,-45.9464 L 50.0729,-46.2366 L 49.8711,-46.5547 L 49.7107,-46.8956 L 49.5942,-47.2539 L 49.5237,-47.624
 L 49.5,-48 L 49.5237,-48.376 L 49.5942,-48.7461 L 49.7107,-49.1044 L 49.8711,-49.4453 L 50.0729,-49.7634
 L 50.3131,-50.0536 L 50.5877,-50.3115 L 50.8925,-50.533 L 51.2227,-50.7145 L 51.5729,-50.8532 L 51.9379,-50.9469
 L 52.3116,-50.9941 L 52.6884,-50.9941 L 53.0621,-50.9469 L 53.427,-50.8532 L 53.7773,-50.7145 L 54.1075,-50.533
 L 54.4123,-50.3115 L 54.6869,-50.0536 L 54.927,-49.7634 L 55.1289,-49.4453 L 55.2893,-49.1044 L 55.4057,-48.7461
 L 55.4763,-48.376 L 55.5,-48 L 55.4763,-47.624 L 55.4057,-47.2539 L 55.2893,-46.8956 L 55.1289,-46.5547
 L 54.927,-46.2366 L 54.6869,-45.9464 L 54.4123,-45.6885 L 54.1075,-45.467 L 53.7773,-45.2855 L 53.427,-45.1468
 L 53.0621,-45.0531 L 52.6884,-45.0059 z
M 28.6278,-47.4 L 28.6053,-47.4478 L 28.5471,-47.627 L 28.5118,-47.812 L 28.5,-48 L 28.5118,-48.188
 L 28.5471,-48.373 L 28.6053,-48.5522 L 28.6278,-48.6 L 28.6278,-54.9951 L 16.3722,-54.9951 L 16.3722,-48.6
 L 16.3947,-48.5522 L 16.4529,-48.373 L 16.4882,-48.188 L 16.5,-48 L 16.4882,-47.812 L 16.4529,-47.627
 L 16.3947,-47.4478 L 16.3722,-47.4 L 16.3722,-41.0049 L 28.6278,-41.0049 z
M 22.3116,-45.0059 L 21.9379,-45.0531 L 21.5729,-45.1468 L 21.2227,-45.2855 L 20.8925,-45.467 L 20.5877,-45.6885
 L 20.3131,-45.9464 L 20.0729,-46.2366 L 19.8711,-46.5547 L 19.7107,-46.8956 L 19.5942,-47.2539 L 19.5237,-47.624
 L 19.5,-48 L 19.5237,-48.376 L 19.5942,-48.7461 L 19.7107,-49.1044 L 19.8711,-49.4453 L 20.0729,-49.7634
 L 20.3131,-50.0536 L 20.5877,-50.3115 L 20.8925,-50.533 L 21.2227,-50.7145 L 21.5729,-50.8532 L 21.9379,-50.9469
 L 22.3116,-50.9941 L 22.6884,-50.9941 L 23.0621,-50.9469 L 23.427,-50.8532 L 23.7773,-50.7145 L 24.1075,-50.533
 L 24.4123,-50.3115 L 24.6869,-50.0536 L 24.927,-49.7634 L 25.1289,-49.4453 L 25.2893,-49.1044 L 25.4057,-48.7461
 L 25.4763,-48.376 L 25.5,-48 L 25.4763,-47.624 L 25.4057,-47.2539 L 25.2893,-46.8956 L 25.1289,-46.5547
 L 24.927,-46.2366 L 24.6869,-45.9464 L 24.4123,-45.6885 L 24.1075,-45.467 L 23.7773,-45.2855 L 23.427,-45.1468
 L 23.0621,-45.0531 L 22.6884,-45.0059 z
M -61.3722,-47.4 L -61.3947,-47.4478 L -61.4529,-47.627 L -61.4882,-47.812 L -61.5,-48 L -61.4882,-48.188
 L -61.4529,-48.373 L -61.3947,-48.5522 L -61.3722,-48.6 L -61.3722,-54.9951 L -73.6278,-54.9951 L -73.6278,-48.6
 L -73.6053,-48.5522 L -73.5471,-48.373 L -73.5118,-48.188 L -73.5,-48 L -73.5118,-47.812 L -73.5471,-47.627
 L -73.6053,-47.4478 L -73.6278,-47.4 L -73.6278,-41.0049 L -61.3722,-41.0049 z
M -67.6884,-45.0059 L -68.0621,-45.0531 L -68.427,-45.1468 L -68.7773,-45.2855 L -69.1075,-45.467 L -69.4123,-45.6885
 L -69.6869,-45.9464 L -69.927,-46.2366 L -70.1289,-46.5547 L -70.2893,-46.8956 L -70.4057,-47.2539 L -70.4763,-47.624
 L -70.5,-48 L -70.4763,-48.376 L -70.4057,-48.7461 L -70.2893,-49.1044 L -70.1289,-49.4453 L -69.927,-49.7634
 L -69.6869,-50.0536 L -69.4123,-50.3115 L -69.1075,-50.533 L -68.7773,-50.7145 L -68.427,-50.8532 L -68.0621,-50.9469
 L -67.6884,-50.9941 L -67.3116,-50.9941 L -66.9379,-50.9469 L -66.573,-50.8532 L -66.2227,-50.7145 L -65.8925,-50.533
 L -65.5877,-50.3115 L -65.3131,-50.0536 L -65.073,-49.7634 L -64.8711,-49.4453 L -64.7107,-49.1044 L -64.5943,-48.7461
 L -64.5237,-48.376 L -64.5,-48 L -64.5237,-47.624 L -64.5943,-47.2539 L -64.7107,-46.8956 L -64.8711,-46.5547
 L -65.073,-46.2366 L -65.3131,-45.9464 L -65.5877,-45.6885 L -65.8925,-45.467 L -66.2227,-45.2855 L -66.573,-45.1468
 L -66.9379,-45.0531 L -67.3116,-45.0059 z
M -1.37216,-47.4 L -1.39465,-47.4478 L -1.45287,-47.627 L -1.48816,-47.812 L -1.5,-48 L -1.48816,-48.188
 L -1.45287,-48.373 L -1.39465,-48.5522 L -1.37216,-48.6 L -1.37216,-54.9951 L -13.6278,-54.9951 L -13.6278,-48.6
 L -13.6053,-48.5522 L -13.5471,-48.373 L -13.5118,-48.188 L -13.5,-48 L -13.5118,-47.812 L -13.5471,-47.627
 L -13.6053,-47.4478 L -13.6278,-47.4 L -13.6278,-41.0049 L -1.37216,-41.0049 z
M -7.68837,-45.0059 L -8.06213,-45.0531 L -8.42705,-45.1468 L -8.77733,-45.2855 L -9.10747,-45.467 L -9.41226,-45.6885
 L -9.6869,-45.9464 L -9.92705,-46.2366 L -10.1289,-46.5547 L -10.2893,-46.8956 L -10.4057,-47.2539 L -10.4763,-47.624
 L -10.5,-48 L -10.4763,-48.376 L -10.4057,-48.7461 L -10.2893,-49.1044 L -10.1289,-49.4453 L -9.92705,-49.7634
 L -9.6869,-50.0536 L -9.41226,-50.3115 L -9.10747,-50.533 L -8.77733,-50.7145 L -8.42705,-50.8532 L -8.06213,-50.9469
 L -7.68837,-50.9941 L -7.31161,-50.9941 L -6.93785,-50.9469 L -6.57294,-50.8532 L -6.22266,-50.7145 L -5.89252,-50.533
 L -5.58772,-50.3115 L -5.31308,-50.0536 L -5.07294,-49.7634 L -4.87108,-49.4453 L -4.71066,-49.1044 L -4.59424,-48.7461
 L -4.52365,-48.376 L -4.5,-48 L -4.52365,-47.624 L -4.59424,-47.2539 L -4.71066,-46.8956 L -4.87108,-46.5547
 L -5.07294,-46.2366 L -5.31308,-45.9464 L -5.58772,-45.6885 L -5.89252,-45.467 L -6.22266,-45.2855 L -6.57294,-45.1468
 L -6.93785,-45.0531 L -7.31161,-45.0059 z
M 87.4684,-41.0443 L 87.7725,-41.1224 L 88.0644,-41.2379 L 88.3396,-41.3892 L 88.5936,-41.5737 L 88.8224,-41.7886
 L 89.0225,-42.0305 L 89.1908,-42.2956 L 89.3244,-42.5797 L 89.4214,-42.8783 L 89.4803,-43.1867 L 89.5,-43.5
 L 89.5,-52.5 L 89.4803,-52.8133 L 89.4214,-53.1217 L 89.3244,-53.4203 L 89.1908,-53.7044 L 89.0225,-53.9695
 L 88.8224,-54.2114 L 88.5936,-54.4263 L 88.3396,-54.6108 L 88.0644,-54.7621 L 87.7725,-54.8776 L 87.4684,-54.9557
 L 87.157,-54.9951 L 76.3722,-54.9951 L 76.3722,-48.6 L 76.3947,-48.5522 L 76.4529,-48.373 L 76.4882,-48.188
 L 76.5,-48 L 76.4882,-47.812 L 76.4529,-47.627 L 76.3947,-47.4478 L 76.3722,-47.4 L 76.3722,-41.0049
 L 87.157,-41.0049 z
M 82.3116,-45.0059 L 81.9379,-45.0531 L 81.573,-45.1468 L 81.2227,-45.2855 L 80.8925,-45.467 L 80.5877,-45.6885
 L 80.3131,-45.9464 L 80.073,-46.2366 L 79.8711,-46.5547 L 79.7107,-46.8956 L 79.5943,-47.2539 L 79.5237,-47.624
 L 79.5,-48 L 79.5237,-48.376 L 79.5943,-48.7461 L 79.7107,-49.1044 L 79.8711,-49.4453 L 80.073,-49.7634
 L 80.3131,-50.0536 L 80.5877,-50.3115 L 80.8925,-50.533 L 81.2227,-50.7145 L 81.573,-50.8532 L 81.9379,-50.9469
 L 82.3116,-50.9941 L 82.6884,-50.9941 L 83.0621,-50.9469 L 83.427,-50.8532 L 83.7773,-50.7145 L 84.1075,-50.533
 L 84.4123,-50.3115 L 84.6869,-50.0536 L 84.927,-49.7634 L 85.1289,-49.4453 L 85.2893,-49.1044 L 85.4057,-48.7461
 L 85.4763,-48.376 L 85.5,-48 L 85.4763,-47.624 L 85.4057,-47.2539 L 85.2893,-46.8956 L 85.1289,-46.5547
 L 84.927,-46.2366 L 84.6869,-45.9464 L 84.4123,-45.6885 L 84.1075,-45.467 L 83.7773,-45.2855 L 83.427,-45.1468
 L 83.0621,-45.0531 L 82.6884,-45.0059 z
M 64.5664,-54.9951 L 61.3722,-54.9951 L 61.3722,-48.6 L 61.3947,-48.5522 L 61.4529,-48.373 L 61.4882,-48.188
 L 61.5,-48 L 61.4882,-47.812 L 61.4529,-47.627 L 61.3947,-47.4478 L 61.3722,-47.4 L 61.3722,-41.0049
 L 64.5664,-41.0049 z
M 4.56638,-54.9951 L 1.37216,-54.9951 L 1.37216,-48.6 L 1.39465,-48.5522 L 1.45287,-48.373 L 1.48816,-48.188
 L 1.5,-48 L 1.48816,-47.812 L 1.45287,-47.627 L 1.39465,-47.4478 L 1.37216,-47.4 L 1.37216,-41.0049
 L 4.56638,-41.0049 z
M -55.4336,-54.9951 L -58.6278,-54.9951 L -58.6278,-48.6 L -58.6053,-48.5522 L -58.5471,-48.373 L -58.5118,-48.188
 L -58.5,-48 L -58.5118,-47.812 L -58.5471,-47.627 L -58.6053,-47.4478 L -58.6278,-47.4 L -58.6278,-41.0049
 L -55.4336,-41.0049 z
M -46.3722,-47.4 L -46.3947,-47.4478 L -46.4529,-47.627 L -46.4882,-47.812 L -46.5,-48 L -46.4882,-48.188
 L -46.4529,-48.373 L -46.3947,-48.5522 L -46.3722,-48.6 L -46.3722,-54.9951 L -49.5664,-54.9951 L -49.5664,-41.0049
 L -46.3722,-41.0049 z
M -16.3722,-47.4 L -16.3947,-47.4478 L -16.4529,-47.627 L -16.4882,-47.812 L -16.5,-48 L -16.4882,-48.188
 L -16.4529,-48.373 L -16.3947,-48.5522 L -16.3722,-48.6 L -16.3722,-54.9951 L -19.5664,-54.9951 L -19.5664,-41.0049
 L -16.3722,-41.0049 z
M -25.4336,-54.9951 L -28.6278,-54.9951 L -28.6278,-48.6 L -28.6053,-48.5522 L -28.5471,-48.373 L -28.5118,-48.188
 L -28.5,-48 L -28.5118,-47.812 L -28.5471,-47.627 L -28.6053,-47.4478 L -28.6278,-47.4 L -28.6278,-41.0049
 L -25.4336,-41.0049 z
M -76.3722,-47.4 L -76.3947,-47.4478 L -76.4529,-47.627 L -76.4882,-47.812 L -76.5,-48 L -76.4882,-48.188
 L -76.4529,-48.373 L -76.3947,-48.5522 L -76.3722,-48.6 L -76.3722,-54.9951 L -79.5664,-54.9951 L -79.5664,-41.0049
 L -76.3722,-41.0049 z
M -85.4336,-54.9951 L -87.157,-54.9951 L -87.4684,-54.9557 L -87.7725,-54.8776 L -88.0644,-54.7621 L -88.3396,-54.6108
 L -88.5936,-54.4263 L -88.8224,-54.2114 L -89.0225,-53.9695 L -89.1908,-53.7044 L -89.3244,-53.4203 L -89.4214,-53.1217
 L -89.4803,-52.8133 L -89.5,-52.5 L -89.5,-43.5 L -89.4803,-43.1867 L -89.4214,-42.8783 L -89.3244,-42.5797
 L -89.1908,-42.2956 L -89.0225,-42.0305 L -88.8224,-41.7886 L -88.5936,-41.5737 L -88.3396,-41.3892 L -88.0644,-41.2379
 L -87.7725,-41.1224 L -87.4684,-41.0443 L -87.157,-41.0049 L -85.4336,-41.0049 z
M 43.6278,-47.4 L 43.6053,-47.4478 L 43.5471,-47.627 L 43.5118,-47.812 L 43.5,-48 L 43.5118,-48.188
 L 43.5471,-48.373 L 43.6053,-48.5522 L 43.6278,-48.6 L 43.6278,-54.9951 L 40.4336,-54.9951 L 40.4336,-41.0049
 L 43.6278,-41.0049 z
M 73.6278,-47.4 L 73.6053,-47.4478 L 73.5471,-47.627 L 73.5118,-47.812 L 73.5,-48 L 73.5118,-48.188
 L 73.5471,-48.373 L 73.6053,-48.5522 L 73.6278,-48.6 L 73.6278,-54.9951 L 70.4336,-54.9951 L 70.4336,-41.0049
 L 73.6278,-41.0049 z
M 34.5664,-54.9951 L 31.3722,-54.9951 L 31.3722,-48.6 L 31.3947,-48.5522 L 31.4529,-48.373 L 31.4882,-48.188
 L 31.5,-48 L 31.4882,-47.812 L 31.4529,-47.627 L 31.3947,-47.4478 L 31.3722,-47.4 L 31.3722,-41.0049
 L 34.5664,-41.0049 z
M 13.6278,-47.4 L 13.6053,-47.4478 L 13.5471,-47.627 L 13.5118,-47.812 L 13.5,-48 L 13.5118,-48.188
 L 13.5471,-48.373 L 13.6053,-48.5522 L 13.6278,-48.6 L 13.6278,-54.9951 L 10.4336,-54.9951 L 10.4336,-41.0049
 L 13.6278,-41.0049 z
M 65.8471,-30.9951 L 39.1529,-30.9951 L 39.1529,-17.0049 L 65.8471,-17.0049 z
M 52.3116,-21.0059 L 51.9379,-21.0531 L 51.5729,-21.1468 L 51.2227,-21.2855 L 50.8925,-21.467 L 50.5877,-21.6885
 L 50.3131,-21.9464 L 50.0729,-22.2366 L 49.8711,-22.5547 L 49.7107,-22.8956 L 49.5942,-23.2539 L 49.5237,-23.624
 L 49.5,-24 L 49.5237,-24.376 L 49.5942,-24.7461 L 49.7107,-25.1044 L 49.8711,-25.4453 L 50.0729,-25.7634
 L 50.3131,-26.0536 L 50.5877,-26.3115 L 50.8925,-26.533 L 51.2227,-26.7145 L 51.5729,-26.8532 L 51.9379,-26.9469
 L 52.3116,-26.9941 L 52.6884,-26.9941 L 53.0621,-26.9469 L 53.427,-26.8532 L 53.7773,-26.7145 L 54.1075,-26.533
 L 54.4123,-26.3115 L 54.6869,-26.0536 L 54.927,-25.7634 L 55.1289,-25.4453 L 55.2893,-25.1044 L 55.4057,-24.7461
 L 55.4763,-24.376 L 55.5,-24 L 55.4763,-23.624 L 55.4057,-23.2539 L 55.2893,-22.8956 L 55.1289,-22.5547
 L 54.927,-22.2366 L 54.6869,-21.9464 L 54.4123,-21.6885 L 54.1075,-21.467 L 53.7773,-21.2855 L 53.427,-21.1468
 L 53.0621,-21.0531 L 52.6884,-21.0059 z
M 44.9058,-22.503 L 44.7189,-22.5266 L 44.5365,-22.5734 L 44.3613,-22.6428 L 44.1963,-22.7335 L 44.0439,-22.8442
 L 43.9065,-22.9732 L 43.7865,-23.1183 L 43.6855,-23.2774 L 43.6053,-23.4478 L 43.5471,-23.627 L 43.5118,-23.812
 L 43.5,-24 L 43.5118,-24.188 L 43.5471,-24.373 L 43.6053,-24.5522 L 43.6855,-24.7226 L 43.7865,-24.8817
 L 43.9065,-25.0268 L 44.0439,-25.1558 L 44.1963,-25.2665 L 44.3613,-25.3572 L 44.5365,-25.4266 L 44.7189,-25.4734
 L 44.9058,-25.497 L 45.0942,-25.497 L 45.2811,-25.4734 L 45.4635,-25.4266 L 45.6387,-25.3572 L 45.8037,-25.2665
 L 45.9561,-25.1558 L 46.0934,-25.0268 L 46.2135,-24.8817 L 46.3145,-24.7226 L 46.3947,-24.5522 L 46.4529,-24.373
 L 46.4882,-24.188 L 46.5,-24 L 46.4882,-23.812 L 46.4529,-23.627 L 46.3947,-23.4478 L 46.3145,-23.2774
 L 46.2135,-23.1183 L 46.0934,-22.9732 L 45.9561,-22.8442 L 45.8037,-22.7335 L 45.6387,-22.6428 L 45.4635,-22.5734
 L 45.2811,-22.5266 L 45.0942,-22.503 z
M 59.9058,-22.503 L 59.7189,-22.5266 L 59.5365,-22.5734 L 59.3613,-22.6428 L 59.1963,-22.7335 L 59.0439,-22.8442
 L 58.9065,-22.9732 L 58.7865,-23.1183 L 58.6855,-23.2774 L 58.6053,-23.4478 L 58.5471,-23.627 L 58.5118,-23.812
 L 58.5,-24 L 58.5118,-24.188 L 58.5471,-24.373 L 58.6053,-24.5522 L 58.6855,-24.7226 L 58.7865,-24.8817
 L 58.9065,-25.0268 L 59.0439,-25.1558 L 59.1963,-25.2665 L 59.3613,-25.3572 L 59.5365,-25.4266 L 59.7189,-25.4734
 L 59.9058,-25.497 L 60.0942,-25.497 L 60.2811,-25.4734 L 60.4635,-25.4266 L 60.6387,-25.3572 L 60.8037,-25.2665
 L 60.9561,-25.1558 L 61.0934,-25.0268 L 61.2135,-24.8817 L 61.3145,-24.7226 L 61.3947,-24.5522 L 61.4529,-24.373
 L 61.4882,-24.188 L 61.5,-24 L 61.4882,-23.812 L 61.4529,-23.627 L 61.3947,-23.4478 L 61.3145,-23.2774
 L 61.2135,-23.1183 L 61.0934,-22.9732 L 60.9561,-22.8442 L 60.8037,-22.7335 L 60.6387,-22.6428 L 60.4635,-22.5734
 L 60.2811,-22.5266 L 60.0942,-22.503 z
M -24.1529,-30.9951 L -50.8471,-30.9951 L -50.8471,-17.0049 L -24.1529,-17.0049 z
M -37.6884,-21.0059 L -38.0621,-21.0531 L -38.427,-21.1468 L -38.7773,-21.2855 L -39.1075,-21.467 L -39.4123,-21.6885
 L -39.6869,-21.9464 L -39.927,-22.2366 L -40.1289,-22.5547 L -40.2893,-22.8956 L -40.4057,-23.2539 L -40.4763,-23.624
 L -40.5,-24 L -40.4763,-24.376 L -40.4057,-24.7461 L -40.2893,-25.1044 L -40.1289,-25.4453 L -39.927,-25.7634
 L -39.6869,-26.0536 L -39.4123,-26.3115 L -39.1075,-26.533 L -38.7773,-26.7145 L -38.427,-26.8532 L -38.0621,-26.9469
 L -37.6884,-26.9941 L -37.3116,-26.9941 L -36.9379,-26.9469 L -36.5729,-26.8532 L -36.2227,-26.7145 L -35.8925,-26.533
 L -35.5877,-26.3115 L -35.3131,-26.0536 L -35.0729,-25.7634 L -34.8711,-25.4453 L -34.7107,-25.1044 L -34.5942,-24.7461
 L -34.5237,-24.376 L -34.5,-24 L -34.5237,-23.624 L -34.5942,-23.2539 L -34.7107,-22.8956 L -34.8711,-22.5547
 L -35.0729,-22.2366 L -35.3131,-21.9464 L -35.5877,-21.6885 L -35.8925,-21.467 L -36.2227,-21.2855 L -36.5729,-21.1468
 L -36.9379,-21.0531 L -37.3116,-21.0059 z
M -30.0942,-22.503 L -30.2811,-22.5266 L -30.4635,-22.5734 L -30.6387,-22.6428 L -30.8037,-22.7335 L -30.9561,-22.8442
 L -31.0934,-22.9732 L -31.2135,-23.1183 L -31.3145,-23.2774 L -31.3947,-23.4478 L -31.4529,-23.627 L -31.4882,-23.812
 L -31.5,-24 L -31.4882,-24.188 L -31.4529,-24.373 L -31.3947,-24.5522 L -31.3145,-24.7226 L -31.2135,-24.8817
 L -31.0934,-25.0268 L -30.9561,-25.1558 L -30.8037,-25.2665 L -30.6387,-25.3572 L -30.4635,-25.4266 L -30.2811,-25.4734
 L -30.0942,-25.497 L -29.9058,-25.497 L -29.7189,-25.4734 L -29.5365,-25.4266 L -29.3613,-25.3572 L -29.1963,-25.2665
 L -29.0439,-25.1558 L -28.9065,-25.0268 L -28.7865,-24.8817 L -28.6855,-24.7226 L -28.6053,-24.5522 L -28.5471,-24.373
 L -28.5118,-24.188 L -28.5,-24 L -28.5118,-23.812 L -28.5471,-23.627 L -28.6053,-23.4478 L -28.6855,-23.2774
 L -28.7865,-23.1183 L -28.9065,-22.9732 L -29.0439,-22.8442 L -29.1963,-22.7335 L -29.3613,-22.6428 L -29.5365,-22.5734
 L -29.7189,-22.5266 L -29.9058,-22.503 z
M -45.0942,-22.503 L -45.2811,-22.5266 L -45.4635,-22.5734 L -45.6387,-22.6428 L -45.8037,-22.7335 L -45.9561,-22.8442
 L -46.0934,-22.9732 L -46.2135,-23.1183 L -46.3145,-23.2774 L -46.3947,-23.4478 L -46.4529,-23.627 L -46.4882,-23.812
 L -46.5,-24 L -46.4882,-24.188 L -46.4529,-24.373 L -46.3947,-24.5522 L -46.3145,-24.7226 L -46.2135,-24.8817
 L -46.0934,-25.0268 L -45.9561,-25.1558 L -45.8037,-25.2665 L -45.6387,-25.3572 L -45.4635,-25.4266 L -45.2811,-25.4734
 L -45.0942,-25.497 L -44.9058,-25.497 L -44.7189,-25.4734 L -44.5365,-25.4266 L -44.3613,-25.3572 L -44.1963,-25.2665
 L -44.0439,-25.1558 L -43.9065,-25.0268 L -43.7865,-24.8817 L -43.6855,-24.7226 L -43.6053,-24.5522 L -43.5471,-24.373
 L -43.5118,-24.188 L -43.5,-24 L -43.5118,-23.812 L -43.5471,-23.627 L -43.6053,-23.4478 L -43.6855,-23.2774
 L -43.7865,-23.1183 L -43.9065,-22.9732 L -44.0439,-22.8442 L -44.1963,-22.7335 L -44.3613,-22.6428 L -44.5365,-22.5734
 L -44.7189,-22.5266 L -44.9058,-22.503 z
M 35.8471,-30.9951 L 9.15286,-30.9951 L 9.15286,-17.0049 L 35.8471,-17.0049 z
M 22.3116,-21.0059 L 21.9379,-21.0531 L 21.5729,-21.1468 L 21.2227,-21.2855 L 20.8925,-21.467 L 20.5877,-21.6885
 L 20.3131,-21.9464 L 20.0729,-22.2366 L 19.8711,-22.5547 L 19.7107,-22.8956 L 19.5942,-23.2539 L 19.5237,-23.624
 L 19.5,-24 L 19.5237,-24.376 L 19.5942,-24.7461 L 19.7107,-25.1044 L 19.8711,-25.4453 L 20.0729,-25.7634
 L 20.3131,-26.0536 L 20.5877,-26.3115 L 20.8925,-26.533 L 21.2227,-26.7145 L 21.5729,-26.8532 L 21.9379,-26.9469
 L 22.3116,-26.9941 L 22.6884,-26.9941 L 23.0621,-26.9469 L 23.427,-26.8532 L 23.7773,-26.7145 L 24.1075,-26.533
 L 24.4123,-26.3115 L 24.6869,-26.0536 L 24.927,-25.7634 L 25.1289,-25.4453 L 25.2893,-25.1044 L 25.4057,-24.7461
 L 25.4763,-24.376 L 25.5,-24 L 25.4763,-23.624 L 25.4057,-23.2539 L 25.2893,-22.8956 L 25.1289,-22.5547
 L 24.927,-22.2366 L 24.6869,-21.9464 L 24.4123,-21.6885 L 24.1075,-21.467 L 23.7773,-21.2855 L 23.427,-21.1468
 L 23.0621,-21.0531 L 22.6884,-21.0059 z
M 29.9058,-22.503 L 29.7189,-22.5266 L 29.5365,-22.5734 L 29.3613,-22.6428 L 29.1963,-22.7335 L 29.0439,-22.8442
 L 28.9065,-22.9732 L 28.7865,-23.1183 L 28.6855,-23.2774 L 28.6053,-23.4478 L 28.5471,-23.627 L 28.5118,-23.812
 L 28.5,-24 L 28.5118,-24.188 L 28.5471,-24.373 L 28.6053,-24.5522 L 28.6855,-24.7226 L 28.7865,-24.8817
 L 28.9065,-25.0268 L 29.0439,-25.1558 L 29.1963,-25.2665 L 29.3613,-25.3572 L 29.5365,-25.4266 L 29.7189,-25.4734
 L 29.9058,-25.497 L 30.0942,-25.497 L 30.2811,-25.4734 L 30.4635,-25.4266 L 30.6387,-25.3572 L 30.8037,-25.2665
 L 30.9561,-25.1558 L 31.0934,-25.0268 L 31.2135,-24.8817 L 31.3145,-24.7226 L 31.3947,-24.5522 L 31.4529,-24.373
 L 31.4882,-24.188 L 31.5,-24 L 31.4882,-23.812 L 31.4529,-23.627 L 31.3947,-23.4478 L 31.3145,-23.2774
 L 31.2135,-23.1183 L 31.0934,-22.9732 L 30.9561,-22.8442 L 30.8037,-22.7335 L 30.6387,-22.6428 L 30.4635,-22.5734
 L 30.2811,-22.5266 L 30.0942,-22.503 z
M 14.9058,-22.503 L 14.7189,-22.5266 L 14.5365,-22.5734 L 14.3613,-22.6428 L 14.1963,-22.7335 L 14.0439,-22.8442
 L 13.9065,-22.9732 L 13.7865,-23.1183 L 13.6855,-23.2774 L 13.6053,-23.4478 L 13.5471,-23.627 L 13.5118,-23.812
 L 13.5,-24 L 13.5118,-24.188 L 13.5471,-24.373 L 13.6053,-24.5522 L 13.6855,-24.7226 L 13.7865,-24.8817
 L 13.9065,-25.0268 L 14.0439,-25.1558 L 14.1963,-25.2665 L 14.3613,-25.3572 L 14.5365,-25.4266 L 14.7189,-25.4734
 L 14.9058,-25.497 L 15.0942,-25.497 L 15.2811,-25.4734 L 15.4635,-25.4266 L 15.6387,-25.3572 L 15.8037,-25.2665
 L 15.9561,-25.1558 L 16.0934,-25.0268 L 16.2135,-24.8817 L 16.3145,-24.7226 L 16.3947,-24.5522 L 16.4529,-24.373
 L 16.4882,-24.188 L 16.5,-24 L 16.4882,-23.812 L 16.4529,-23.627 L 16.3947,-23.4478 L 16.3145,-23.2774
 L 16.2135,-23.1183 L 16.0934,-22.9732 L 15.9561,-22.8442 L 15.8037,-22.7335 L 15.6387,-22.6428 L 15.4635,-22.5734
 L 15.2811,-22.5266 L 15.0942,-22.503 z
M -54.1529,-30.9951 L -80.8471,-30.9951 L -80.8471,-17.0049 L -54.1529,-17.0049 z
M -67.6884,-21.0059 L -68.0621,-21.0531 L -68.427,-21.1468 L -68.7773,-21.2855 L -69.1075,-21.467 L -69.4123,-21.6885
 L -69.6869,-21.9464 L -69.927,-22.2366 L -70.1289,-22.5547 L -70.2893,-22.8956 L -70.4057,-23.2539 L -70.4763,-23.624
 L -70.5,-24 L -70.4763,-24.376 L -70.4057,-24.7461 L -70.2893,-25.1044 L -70.1289,-25.4453 L -69.927,-25.7634
 L -69.6869,-26.0536 L -69.4123,-26.3115 L -69.1075,-26.533 L -68.7773,-26.7145 L -68.427,-26.8532 L -68.0621,-26.9469
 L -67.6884,-26.9941 L -67.3116,-26.9941 L -66.9379,-26.9469 L -66.573,-26.8532 L -66.2227,-26.7145 L -65.8925,-26.533
 L -65.5877,-26.3115 L -65.3131,-26.0536 L -65.073,-25.7634 L -64.8711,-25.4453 L -64.7107,-25.1044 L -64.5943,-24.7461
 L -64.5237,-24.376 L -64.5,-24 L -64.5237,-23.624 L -64.5943,-23.2539 L -64.7107,-22.8956 L -64.8711,-22.5547
 L -65.073,-22.2366 L -65.3131,-21.9464 L -65.5877,-21.6885 L -65.8925,-21.467 L -66.2227,-21.2855 L -66.573,-21.1468
 L -66.9379,-21.0531 L -67.3116,-21.0059 z
M -60.0942,-22.503 L -60.2811,-22.5266 L -60.4635,-22.5734 L -60.6387,-22.6428 L -60.8037,-22.7335 L -60.9561,-22.8442
 L -61.0934,-22.9732 L -61.2135,-23.1183 L -61.3145,-23.2774 L -61.3947,-23.4478 L -61.4529,-23.627 L -61.4882,-23.812
 L -61.5,-24 L -61.4882,-24.188 L -61.4529,-24.373 L -61.3947,-24.5522 L -61.3145,-24.7226 L -61.2135,-24.8817
 L -61.0934,-25.0268 L -60.9561,-25.1558 L -60.8037,-25.2665 L -60.6387,-25.3572 L -60.4635,-25.4266 L -60.2811,-25.4734
 L -60.0942,-25.497 L -59.9058,-25.497 L -59.7189,-25.4734 L -59.5365,-25.4266 L -59.3613,-25.3572 L -59.1963,-25.2665
 L -59.0439,-25.1558 L -58.9065,-25.0268 L -58.7865,-24.8817 L -58.6855,-24.7226 L -58.6053,-24.5522 L -58.5471,-24.373
 L -58.5118,-24.188 L -58.5,-24 L -58.5118,-23.812 L -58.5471,-23.627 L -58.6053,-23.4478 L -58.6855,-23.2774
 L -58.7865,-23.1183 L -58.9065,-22.9732 L -59.0439,-22.8442 L -59.1963,-22.7335 L -59.3613,-22.6428 L -59.5365,-22.5734
 L -59.7189,-22.5266 L -59.9058,-22.503 z
M -75.0942,-22.503 L -75.2811,-22.5266 L -75.4635,-22.5734 L -75.6387,-22.6428 L -75.8037,-22.7335 L -75.9561,-22.8442
 L -76.0934,-22.9732 L -76.2135,-23.1183 L -76.3145,-23.2774 L -76.3947,-23.4478 L -76.4529,-23.627 L -76.4882,-23.812
 L -76.5,-24 L -76.4882,-24.188 L -76.4529,-24.373 L -76.3947,-24.5522 L -76.3145,-24.7226 L -76.2135,-24.8817
 L -76.0934,-25.0268 L -75.9561,-25.1558 L -75.8037,-25.2665 L -75.6387,-25.3572 L -75.4635,-25.4266 L -75.2811,-25.4734
 L -75.0942,-25.497 L -74.9058,-25.497 L -74.7189,-25.4734 L -74.5365,-25.4266 L -74.3613,-25.3572 L -74.1963,-25.2665
 L -74.0439,-25.1558 L -73.9065,-25.0268 L -73.7865,-24.8817 L -73.6855,-24.7226 L -73.6053,-24.5522 L -73.5471,-24.373
 L -73.5118,-24.188 L -73.5,-24 L -73.5118,-23.812 L -73.5471,-23.627 L -73.6053,-23.4478 L -73.6855,-23.2774
 L -73.7865,-23.1183 L -73.9065,-22.9732 L -74.0439,-22.8442 L -74.1963,-22.7335 L -74.3613,-22.6428 L -74.5365,-22.5734
 L -74.7189,-22.5266 L -74.9058,-22.503 z
M 5.84712,-30.9951 L -20.8471,-30.9951 L -20.8471,-17.0049 L 5.84712,-17.0049 z
M -7.68837,-21.0059 L -8.06213,-21.0531 L -8.42705,-21.1468 L -8.77733,-21.2855 L -9.10747,-21.467 L -9.41226,-21.6885
 L -9.6869,-21.9464 L -9.92705,-22.2366 L -10.1289,-22.5547 L -10.2893,-22.8956 L -10.4057,-23.2539 L -10.4763,-23.624
 L -10.5,-24 L -10.4763,-24.376 L -10.4057,-24.7461 L -10.2893,-25.1044 L -10.1289,-25.4453 L -9.92705,-25.7634
 L -9.6869,-26.0536 L -9.41226,-26.3115 L -9.10747,-26.533 L -8.77733,-26.7145 L -8.42705,-26.8532 L -8.06213,-26.9469
 L -7.68837,-26.9941 L -7.31161,-26.9941 L -6.93785,-26.9469 L -6.57294,-26.8532 L -6.22266,-26.7145 L -5.89252,-26.533
 L -5.58772,-26.3115 L -5.31308,-26.0536 L -5.07294,-25.7634 L -4.87108,-25.4453 L -4.71066,-25.1044 L -4.59424,-24.7461
 L -4.52365,-24.376 L -4.5,-24 L -4.52365,-23.624 L -4.59424,-23.2539 L -4.71066,-22.8956 L -4.87108,-22.5547
 L -5.07294,-22.2366 L -5.31308,-21.9464 L -5.58772,-21.6885 L -5.89252,-21.467 L -6.22266,-21.2855 L -6.57294,-21.1468
 L -6.93785,-21.0531 L -7.31161,-21.0059 z
M -0.0941772,-22.503 L -0.281067,-22.5266 L -0.463516,-22.5734 L -0.638657,-22.6428 L -0.803726,-22.7335 L -0.956131,-22.8442
 L -1.09344,-22.9732 L -1.21352,-23.1183 L -1.31445,-23.2774 L -1.39465,-23.4478 L -1.45287,-23.627 L -1.48816,-23.812
 L -1.5,-24 L -1.48816,-24.188 L -1.45287,-24.373 L -1.39465,-24.5522 L -1.31445,-24.7226 L -1.21352,-24.8817
 L -1.09344,-25.0268 L -0.956131,-25.1558 L -0.803726,-25.2665 L -0.638657,-25.3572 L -0.463516,-25.4266 L -0.281067,-25.4734
 L -0.0941772,-25.497 L 0.0941772,-25.497 L 0.281067,-25.4734 L 0.463516,-25.4266 L 0.638657,-25.3572 L 0.803726,-25.2665
 L 0.956131,-25.1558 L 1.09344,-25.0268 L 1.21352,-24.8817 L 1.31445,-24.7226 L 1.39465,-24.5522 L 1.45287,-24.373
 L 1.48816,-24.188 L 1.5,-24 L 1.48816,-23.812 L 1.45287,-23.627 L 1.39465,-23.4478 L 1.31445,-23.2774
 L 1.21352,-23.1183 L 1.09344,-22.9732 L 0.956131,-22.8442 L 0.803726,-22.7335 L 0.638657,-22.6428 L 0.463516,-22.5734
 L 0.281067,-22.5266 L 0.0941772,-22.503 z
M -15.0942,-22.503 L -15.2811,-22.5266 L -15.4635,-22.5734 L -15.6387,-22.6428 L -15.8037,-22.7335 L -15.9561,-22.8442
 L -16.0934,-22.9732 L -16.2135,-23.1183 L -16.3145,-23.2774 L -16.3947,-23.4478 L -16.4529,-23.627 L -16.4882,-23.812
 L -16.5,-24 L -16.4882,-24.188 L -16.4529,-24.373 L -16.3947,-24.5522 L -16.3145,-24.7226 L -16.2135,-24.8817
 L -16.0934,-25.0268 L -15.9561,-25.1558 L -15.8037,-25.2665 L -15.6387,-25.3572 L -15.4635,-25.4266 L -15.2811,-25.4734
 L -15.0942,-25.497 L -14.9058,-25.497 L -14.7189,-25.4734 L -14.5365,-25.4266 L -14.3613,-25.3572 L -14.1963,-25.2665
 L -14.0439,-25.1558 L -13.9065,-25.0268 L -13.7865,-24.8817 L -13.6855,-24.7226 L -13.6053,-24.5522 L -13.5471,-24.373
 L -13.5118,-24.188 L -13.5,-24 L -13.5118,-23.812 L -13.5471,-23.627 L -13.6053,-23.4478 L -13.6855,-23.2774
 L -13.7865,-23.1183 L -13.9065,-22.9732 L -14.0439,-22.8442 L -14.1963,-22.7335 L -14.3613,-22.6428 L -14.5365,-22.5734
 L -14.7189,-22.5266 L -14.9058,-22.503 z
M 87.4684,-17.0443 L 87.7725,-17.1224 L 88.0644,-17.2379 L 88.3396,-17.3892 L 88.5936,-17.5737 L 88.8224,-17.7886
 L 89.0225,-18.0305 L 89.1908,-18.2956 L 89.3244,-18.5797 L 89.4214,-18.8783 L 89.4803,-19.1867 L 89.5,-19.5
 L 89.5,-28.5 L 89.4803,-28.8133 L 89.4214,-29.1217 L 89.3244,-29.4203 L 89.1908,-29.7044 L 89.0225,-29.9695
 L 88.8224,-30.2114 L 88.5936,-30.4263 L 88.3396,-30.6108 L 88.0644,-30.7621 L 87.7725,-30.8776 L 87.4684,-30.9557
 L 87.157,-30.9951 L 69.1529,-30.9951 L 69.1529,-17.0049 L 87.157,-17.0049 z
M 82.3116,-21.0059 L 81.9379,-21.0531 L 81.573,-21.1468 L 81.2227,-21.2855 L 80.8925,-21.467 L 80.5877,-21.6885
 L 80.3131,-21.9464 L 80.073,-22.2366 L 79.8711,-22.5547 L 79.7107,-22.8956 L 79.5943,-23.2539 L 79.5237,-23.624
 L 79.5,-24 L 79.5237,-24.376 L 79.5943,-24.7461 L 79.7107,-25.1044 L 79.8711,-25.4453 L 80.073,-25.7634
 L 80.3131,-26.0536 L 80.5877,-26.3115 L 80.8925,-26.533 L 81.2227,-26.7145 L 81.573,-26.8532 L 81.9379,-26.9469
 L 82.3116,-26.9941 L 82.6884,-26.9941 L 83.0621,-26.9469 L 83.427,-26.8532 L 83.7773,-26.7145 L 84.1075,-26.533
 L 84.4123,-26.3115 L 84.6869,-26.0536 L 84.927,-25.7634 L 85.1289,-25.4453 L 85.2893,-25.1044 L 85.4057,-24.7461
 L 85.4763,-24.376 L 85.5,-24 L 85.4763,-23.624 L 85.4057,-23.2539 L 85.2893,-22.8956 L 85.1289,-22.5547
 L 84.927,-22.2366 L 84.6869,-21.9464 L 84.4123,-21.6885 L 84.1075,-21.467 L 83.7773,-21.2855 L 83.427,-21.1468
 L 83.0621,-21.0531 L 82.6884,-21.0059 z
M 74.9058,-22.503 L 74.7189,-22.5266 L 74.5365,-22.5734 L 74.3613,-22.6428 L 74.1963,-22.7335 L 74.0439,-22.8442
 L 73.9065,-22.9732 L 73.7865,-23.1183 L 73.6855,-23.2774 L 73.6053,-23.4478 L 73.5471,-23.627 L 73.5118,-23.812
 L 73.5,-24 L 73.5118,-24.188 L 73.5471,-24.373 L 73.6053,-24.5522 L 73.6855,-24.7226 L 73.7865,-24.8817
 L 73.9065,-25.0268 L 74.0439,-25.1558 L 74.1963,-25.2665 L 74.3613,-25.3572 L 74.5365,-25.4266 L 74.7189,-25.4734
 L 74.9058,-25.497 L 75.0942,-25.497 L 75.2811,-25.4734 L 75.4635,-25.4266 L 75.6387,-25.3572 L 75.8037,-25.2665
 L 75.9561,-25.1558 L 76.0934,-25.0268 L 76.2135,-24.8817 L 76.3145,-24.7226 L 76.3947,-24.5522 L 76.4529,-24.373
 L 76.4882,-24.188 L 76.5,-24 L 76.4882,-23.812 L 76.4529,-23.627 L 76.3947,-23.4478 L 76.3145,-23.2774
 L 76.2135,-23.1183 L 76.0934,-22.9732 L 75.9561,-22.8442 L 75.8037,-22.7335 L 75.6387,-22.6428 L 75.4635,-22.5734
 L 75.2811,-22.5266 L 75.0942,-22.503 z
M -84.1529,-30.9951 L -87.157,-30.9951 L -87.4684,-30.9557 L -87.7725,-30.8776 L -88.0644,-30.7621 L -88.3396,-30.6108
 L -88.5936,-30.4263 L -88.8224,-30.2114 L -89.0225,-29.9695 L -89.1908,-29.7044 L -89.3244,-29.4203 L -89.4214,-29.1217
 L -89.4803,-28.8133 L -89.5,-28.5 L -89.5,-19.5 L -89.4803,-19.1867 L -89.4214,-18.8783 L -89.3244,-18.5797
 L -89.1908,-18.2956 L -89.0225,-18.0305 L -88.8224,-17.7886 L -88.5936,-17.5737 L -88.3396,-17.3892 L -88.0644,-17.2379
 L -87.7725,-17.1224 L -87.4684,-17.0443 L -87.157,-17.0049 L -84.1529,-17.0049 z
M 87.4684,6.9557 L 87.7725,6.87764 L 88.0644,6.76205 L 88.3396,6.61081 L 88.5936,6.42627 L 88.8224,6.21136
 L 89.0225,5.96945 L 89.1908,5.70438 L 89.3244,5.4203 L 89.4214,5.12172 L 89.4803,4.81332 L 89.5,4.5
 L 89.5,-4.5 L 89.4803,-4.81332 L 89.4214,-5.12172 L 89.3244,-5.4203 L 89.1908,-5.70438 L 89.0225,-5.96945
 L 88.8224,-6.21136 L 88.5936,-6.42627 L 88.3396,-6.61081 L 88.0644,-6.76205 L 87.7725,-6.87764 L 87.4684,-6.9557
 L 87.157,-6.99506 L -87.157,-6.99506 L -87.4684,-6.9557 L -87.7725,-6.87764 L -88.0644,-6.76205 L -88.3396,-6.61081
 L -88.5936,-6.42627 L -88.8224,-6.21136 L -89.0225,-5.96945 L -89.1908,-5.70438 L -89.3244,-5.4203 L -89.4214,-5.12172
 L -89.4803,-4.81332 L -89.5,-4.5 L -89.5,4.5 L -89.4803,4.81332 L -89.4214,5.12172 L -89.3244,5.4203
 L -89.1908,5.70438 L -89.0225,5.96945 L -88.8224,6.21136 L -88.5936,6.42627 L -88.3396,6.61081 L -88.0644,6.76205
 L -87.7725,6.87764 L -87.4684,6.9557 L -87.157,6.99506 L 87.157,6.99506 z
M -67.6884,2.99408 L -68.0621,2.94685 L -68.427,2.85316 L -68.7773,2.71448 L -69.1075,2.53297 L -69.4123,2.31154
 L -69.6869,2.05363 L -69.927,1.76335 L -70.1289,1.44525 L -70.2893,1.10437 L -70.4057,0.746063 L -70.4763,0.375992
 L -70.5,-0 L -70.4763,-0.375992 L -70.4057,-0.746063 L -70.2893,-1.10437 L -70.1289,-1.44525 L -69.927,-1.76335
 L -69.6869,-2.05363 L -69.4123,-2.31154 L -69.1075,-2.53297 L -68.7773,-2.71448 L -68.427,-2.85316 L -68.0621,-2.94685
 L -67.6884,-2.99408 L -67.3116,-2.99408 L -66.9379,-2.94685 L -66.573,-2.85316 L -66.2227,-2.71448 L -65.8925,-2.53297
 L -65.5877,-2.31154 L -65.3131,-2.05363 L -65.073,-1.76335 L -64.8711,-1.44525 L -64.7107,-1.10437 L -64.5943,-0.746063
 L -64.5237,-0.375992 L -64.5,-0 L -64.5237,0.375992 L -64.5943,0.746063 L -64.7107,1.10437 L -64.8711,1.44525
 L -65.073,1.76335 L -65.3131,2.05363 L -65.5877,2.31154 L -65.8925,2.53297 L -66.2227,2.71448 L -66.573,2.85316
 L -66.9379,2.94685 L -67.3116,2.99408 z
M 82.3116,2.99408 L 81.9379,2.94685 L 81.573,2.85316 L 81.2227,2.71448 L 80.8925,2.53297 L 80.5877,2.31154
 L 80.3131,2.05363 L 80.073,1.76335 L 79.8711,1.44525 L 79.7107,1.10437 L 79.5943,0.746063 L 79.5237,0.375992
 L 79.5,-0 L 79.5237,-0.375992 L 79.5943,-0.746063 L 79.7107,-1.10437 L 79.8711,-1.44525 L 80.073,-1.76335
 L 80.3131,-2.05363 L 80.5877,-2.31154 L 80.8925,-2.53297 L 81.2227,-2.71448 L 81.573,-2.85316 L 81.9379,-2.94685
 L 82.3116,-2.99408 L 82.6884,-2.99408 L 83.0621,-2.94685 L 83.427,-2.85316 L 83.7773,-2.71448 L 84.1075,-2.53297
 L 84.4123,-2.31154 L 84.6869,-2.05363 L 84.927,-1.76335 L 85.1289,-1.44525 L 85.2893,-1.10437 L 85.4057,-0.746063
 L 85.4763,-0.375992 L 85.5,-0 L 85.4763,0.375992 L 85.4057,0.746063 L 85.2893,1.10437 L 85.1289,1.44525
 L 84.927,1.76335 L 84.6869,2.05363 L 84.4123,2.31154 L 84.1075,2.53297 L 83.7773,2.71448 L 83.427,2.85316
 L 83.0621,2.94685 L 82.6884,2.99408 z
M -37.6884,2.99408 L -38.0621,2.94685 L -38.427,2.85316 L -38.7773,2.71448 L -39.1075,2.53297 L -39.4123,2.31154
 L -39.6869,2.05363 L -39.927,1.76335 L -40.1289,1.44525 L -40.2893,1.10437 L -40.4057,0.746063 L -40.4763,0.375992
 L -40.5,-0 L -40.4763,-0.375992 L -40.4057,-0.746063 L -40.2893,-1.10437 L -40.1289,-1.44525 L -39.927,-1.76335
 L -39.6869,-2.05363 L -39.4123,-2.31154 L -39.1075,-2.53297 L -38.7773,-2.71448 L -38.427,-2.85316 L -38.0621,-2.94685
 L -37.6884,-2.99408 L -37.3116,-2.99408 L -36.9379,-2.94685 L -36.5729,-2.85316 L -36.2227,-2.71448 L -35.8925,-2.53297
 L -35.5877,-2.31154 L -35.3131,-2.05363 L -35.0729,-1.76335 L -34.8711,-1.44525 L -34.7107,-1.10437 L -34.5942,-0.746063
 L -34.5237,-0.375992 L -34.5,-0 L -34.5237,0.375992 L -34.5942,0.746063 L -34.7107,1.10437 L -34.8711,1.44525
 L -35.0729,1.76335 L -35.3131,2.05363 L -35.5877,2.31154 L -35.8925,2.53297 L -36.2227,2.71448 L -36.5729,2.85316
 L -36.9379,2.94685 L -37.3116,2.99408 z
M -7.68837,2.99408 L -8.06213,2.94685 L -8.42705,2.85316 L -8.77733,2.71448 L -9.10747,2.53297 L -9.41226,2.31154
 L -9.6869,2.05363 L -9.92705,1.76335 L -10.1289,1.44525 L -10.2893,1.10437 L -10.4057,0.746063 L -10.4763,0.375992
 L -10.5,-0 L -10.4763,-0.375992 L -10.4057,-0.746063 L -10.2893,-1.10437 L -10.1289,-1.44525 L -9.92705,-1.76335
 L -9.6869,-2.05363 L -9.41226,-2.31154 L -9.10747,-2.53297 L -8.77733,-2.71448 L -8.42705,-2.85316 L -8.06213,-2.94685
 L -7.68837,-2.99408 L -7.31161,-2.99408 L -6.93785,-2.94685 L -6.57294,-2.85316 L -6.22266,-2.71448 L -5.89252,-2.53297
 L -5.58772,-2.31154 L -5.31308,-2.05363 L -5.07294,-1.76335 L -4.87108,-1.44525 L -4.71066,-1.10437 L -4.59424,-0.746063
 L -4.52365,-0.375992 L -4.5,-0 L -4.52365,0.375992 L -4.59424,0.746063 L -4.71066,1.10437 L -4.87108,1.44525
 L -5.07294,1.76335 L -5.31308,2.05363 L -5.58772,2.31154 L -5.89252,2.53297 L -6.22266,2.71448 L -6.57294,2.85316
 L -6.93785,2.94685 L -7.31161,2.99408 z
M 22.3116,2.99408 L 21.9379,2.94685 L 21.5729,2.85316 L 21.2227,2.71448 L 20.8925,2.53297 L 20.5877,2.31154
 L 20.3131,2.05363 L 20.0729,1.76335 L 19.8711,1.44525 L 19.7107,1.10437 L 19.5942,0.746063 L 19.5237,0.375992
 L 19.5,-0 L 19.5237,-0.375992 L 19.5942,-0.746063 L 19.7107,-1.10437 L 19.8711,-1.44525 L 20.0729,-1.76335
 L 20.3131,-2.05363 L 20.5877,-2.31154 L 20.8925,-2.53297 L 21.2227,-2.71448 L 21.5729,-2.85316 L 21.9379,-2.94685
 L 22.3116,-2.99408 L 22.6884,-2.99408 L 23.0621,-2.94685 L 23.427,-2.85316 L 23.7773,-2.71448 L 24.1075,-2.53297
 L 24.4123,-2.31154 L 24.6869,-2.05363 L 24.927,-1.76335 L 25.1289,-1.44525 L 25.2893,-1.10437 L 25.4057,-0.746063
 L 25.4763,-0.375992 L 25.5,-0 L 25.4763,0.375992 L 25.4057,0.746063 L 25.2893,1.10437 L 25.1289,1.44525
 L 24.927,1.76335 L 24.6869,2.05363 L 24.4123,2.31154 L 24.1075,2.53297 L 23.7773,2.71448 L 23.427,2.85316
 L 23.0621,2.94685 L 22.6884,2.99408 z
M 52.3116,2.99408 L 51.9379,2.94685 L 51.5729,2.85316 L 51.2227,2.71448 L 50.8925,2.53297 L 50.5877,2.31154
 L 50.3131,2.05363 L 50.0729,1.76335 L 49.8711,1.44525 L 49.7107,1.10437 L 49.5942,0.746063 L 49.5237,0.375992
 L 49.5,-0 L 49.5237,-0.375992 L 49.5942,-0.746063 L 49.7107,-1.10437 L 49.8711,-1.44525 L 50.0729,-1.76335
 L 50.3131,-2.05363 L 50.5877,-2.31154 L 50.8925,-2.53297 L 51.2227,-2.71448 L 51.5729,-2.85316 L 51.9379,-2.94685
 L 52.3116,-2.99408 L 52.6884,-2.99408 L 53.0621,-2.94685 L 53.427,-2.85316 L 53.7773,-2.71448 L 54.1075,-2.53297
 L 54.4123,-2.31154 L 54.6869,-2.05363 L 54.927,-1.76335 L 55.1289,-1.44525 L 55.2893,-1.10437 L 55.4057,-0.746063
 L 55.4763,-0.375992 L 55.5,-0 L 55.4763,0.375992 L 55.4057,0.746063 L 55.2893,1.10437 L 55.1289,1.44525
 L 54.927,1.76335 L 54.6869,2.05363 L 54.4123,2.31154 L 54.1075,2.53297 L 53.7773,2.71448 L 53.427,2.85316
 L 53.0621,2.94685 L 52.6884,2.99408 z
M 59.9058,1.49704 L 59.7189,1.47342 L 59.5365,1.42657 L 59.3613,1.35724 L 59.1963,1.26648 L 59.0439,1.15576
 L 58.9065,1.02681 L 58.7865,0.881668 L 58.6855,0.722626 L 58.6053,0.552185 L 58.5471,0.373032 L 58.5118,0.187988
 L 58.5,-0 L 58.5118,-0.187988 L 58.5471,-0.373032 L 58.6053,-0.552185 L 58.6855,-0.722626 L 58.7865,-0.881668
 L 58.9065,-1.02681 L 59.0439,-1.15576 L 59.1963,-1.26648 L 59.3613,-1.35724 L 59.5365,-1.42657 L 59.7189,-1.47342
 L 59.9058,-1.49704 L 60.0942,-1.49704 L 60.2811,-1.47342 L 60.4635,-1.42657 L 60.6387,-1.35724 L 60.8037,-1.26648
 L 60.9561,-1.15576 L 61.0934,-1.02681 L 61.2135,-0.881668 L 61.3145,-0.722626 L 61.3947,-0.552185 L 61.4529,-0.373032
 L 61.4882,-0.187988 L 61.5,-0 L 61.4882,0.187988 L 61.4529,0.373032 L 61.3947,0.552185 L 61.3145,0.722626
 L 61.2135,0.881668 L 61.0934,1.02681 L 60.9561,1.15576 L 60.8037,1.26648 L 60.6387,1.35724 L 60.4635,1.42657
 L 60.2811,1.47342 L 60.0942,1.49704 z
M -60.0942,1.49704 L -60.2811,1.47342 L -60.4635,1.42657 L -60.6387,1.35724 L -60.8037,1.26648 L -60.9561,1.15576
 L -61.0934,1.02681 L -61.2135,0.881668 L -61.3145,0.722626 L -61.3947,0.552185 L -61.4529,0.373032 L -61.4882,0.187988
 L -61.5,-0 L -61.4882,-0.187988 L -61.4529,-0.373032 L -61.3947,-0.552185 L -61.3145,-0.722626 L -61.2135,-0.881668
 L -61.0934,-1.02681 L -60.9561,-1.15576 L -60.8037,-1.26648 L -60.6387,-1.35724 L -60.4635,-1.42657 L -60.2811,-1.47342
 L -60.0942,-1.49704 L -59.9058,-1.49704 L -59.7189,-1.47342 L -59.5365,-1.42657 L -59.3613,-1.35724 L -59.1963,-1.26648
 L -59.0439,-1.15576 L -58.9065,-1.02681 L -58.7865,-0.881668 L -58.6855,-0.722626 L -58.6053,-0.552185 L -58.5471,-0.373032
 L -58.5118,-0.187988 L -58.5,-0 L -58.5118,0.187988 L -58.5471,0.373032 L -58.6053,0.552185 L -58.6855,0.722626
 L -58.7865,0.881668 L -58.9065,1.02681 L -59.0439,1.15576 L -59.1963,1.26648 L -59.3613,1.35724 L -59.5365,1.42657
 L -59.7189,1.47342 L -59.9058,1.49704 z
M -75.0942,1.49704 L -75.2811,1.47342 L -75.4635,1.42657 L -75.6387,1.35724 L -75.8037,1.26648 L -75.9561,1.15576
 L -76.0934,1.02681 L -76.2135,0.881668 L -76.3145,0.722626 L -76.3947,0.552185 L -76.4529,0.373032 L -76.4882,0.187988
 L -76.5,-0 L -76.4882,-0.187988 L -76.4529,-0.373032 L -76.3947,-0.552185 L -76.3145,-0.722626 L -76.2135,-0.881668
 L -76.0934,-1.02681 L -75.9561,-1.15576 L -75.8037,-1.26648 L -75.6387,-1.35724 L -75.4635,-1.42657 L -75.2811,-1.47342
 L -75.0942,-1.49704 L -74.9058,-1.49704 L -74.7189,-1.47342 L -74.5365,-1.42657 L -74.3613,-1.35724 L -74.1963,-1.26648
 L -74.0439,-1.15576 L -73.9065,-1.02681 L -73.7865,-0.881668 L -73.6855,-0.722626 L -73.6053,-0.552185 L -73.5471,-0.373032
 L -73.5118,-0.187988 L -73.5,-0 L -73.5118,0.187988 L -73.5471,0.373032 L -73.6053,0.552185 L -73.6855,0.722626
 L -73.7865,0.881668 L -73.9065,1.02681 L -74.0439,1.15576 L -74.1963,1.26648 L -74.3613,1.35724 L -74.5365,1.42657
 L -74.7189,1.47342 L -74.9058,1.49704 z
M -15.0942,1.49704 L -15.2811,1.47342 L -15.4635,1.42657 L -15.6387,1.35724 L -15.8037,1.26648 L -15.9561,1.15576
 L -16.0934,1.02681 L -16.2135,0.881668 L -16.3145,0.722626 L -16.3947,0.552185 L -16.4529,0.373032 L -16.4882,0.187988
 L -16.5,-0 L -16.4882,-0.187988 L -16.4529,-0.373032 L -16.3947,-0.552185 L -16.3145,-0.722626 L -16.2135,-0.881668
 L -16.0934,-1.02681 L -15.9561,-1.15576 L -15.8037,-1.26648 L -15.6387,-1.35724 L -15.4635,-1.42657 L -15.2811,-1.47342
 L -15.0942,-1.49704 L -14.9058,-1.49704 L -14.7189,-1.47342 L -14.5365,-1.42657 L -14.3613,-1.35724 L -14.1963,-1.26648
 L -14.0439,-1.15576 L -13.9065,-1.02681 L -13.7865,-0.881668 L -13.6855,-0.722626 L -13.6053,-0.552185 L -13.5471,-0.373032
 L -13.5118,-0.187988 L -13.5,-0 L -13.5118,0.187988 L -13.5471,0.373032 L -13.6053,0.552185 L -13.6855,0.722626
 L -13.7865,0.881668 L -13.9065,1.02681 L -14.0439,1.15576 L -14.1963,1.26648 L -14.3613,1.35724 L -14.5365,1.42657
 L -14.7189,1.47342 L -14.9058,1.49704 z
M -30.0942,1.49704 L -30.2811,1.47342 L -30.4635,1.42657 L -30.6387,1.35724 L -30.8037,1.26648 L -30.9561,1.15576
 L -31.0934,1.02681 L -31.2135,0.881668 L -31.3145,0.722626 L -31.3947,0.552185 L -31.4529,0.373032 L -31.4882,0.187988
 L -31.5,-0 L -31.4882,-0.187988 L -31.4529,-0.373032 L -31.3947,-0.552185 L -31.3145,-0.722626 L -31.2135,-0.881668
 L -31.0934,-1.02681 L -30.9561,-1.15576 L -30.8037,-1.26648 L -30.6387,-1.35724 L -30.4635,-1.42657 L -30.2811,-1.47342
 L -30.0942,-1.49704 L -29.9058,-1.49704 L -29.7189,-1.47342 L -29.5365,-1.42657 L -29.3613,-1.35724 L -29.1963,-1.26648
 L -29.0439,-1.15576 L -28.9065,-1.02681 L -28.7865,-0.881668 L -28.6855,-0.722626 L -28.6053,-0.552185 L -28.5471,-0.373032
 L -28.5118,-0.187988 L -28.5,-0 L -28.5118,0.187988 L -28.5471,0.373032 L -28.6053,0.552185 L -28.6855,0.722626
 L -28.7865,0.881668 L -28.9065,1.02681 L -29.0439,1.15576 L -29.1963,1.26648 L -29.3613,1.35724 L -29.5365,1.42657
 L -29.7189,1.47342 L -29.9058,1.49704 z
M 14.9058,1.49704 L 14.7189,1.47342 L 14.5365,1.42657 L 14.3613,1.35724 L 14.1963,1.26648 L 14.0439,1.15576
 L 13.9065,1.02681 L 13.7865,0.881668 L 13.6855,0.722626 L 13.6053,0.552185 L 13.5471,0.373032 L 13.5118,0.187988
 L 13.5,-0 L 13.5118,-0.187988 L 13.5471,-0.373032 L 13.6053,-0.552185 L 13.6855,-0.722626 L 13.7865,-0.881668
 L 13.9065,-1.02681 L 14.0439,-1.15576 L 14.1963,-1.26648 L 14.3613,-1.35724 L 14.5365,-1.42657 L 14.7189,-1.47342
 L 14.9058,-1.49704 L 15.0942,-1.49704 L 15.2811,-1.47342 L 15.4635,-1.42657 L 15.6387,-1.35724 L 15.8037,-1.26648
 L 15.9561,-1.15576 L 16.0934,-1.02681 L 16.2135,-0.881668 L 16.3145,-0.722626 L 16.3947,-0.552185 L 16.4529,-0.373032
 L 16.4882,-0.187988 L 16.5,-0 L 16.4882,0.187988 L 16.4529,0.373032 L 16.3947,0.552185 L 16.3145,0.722626
 L 16.2135,0.881668 L 16.0934,1.02681 L 15.9561,1.15576 L 15.8037,1.26648 L 15.6387,1.35724 L 15.4635,1.42657
 L 15.2811,1.47342 L 15.0942,1.49704 z
M 74.9058,1.49704 L 74.7189,1.47342 L 74.5365,1.42657 L 74.3613,1.35724 L 74.1963,1.26648 L 74.0439,1.15576
 L 73.9065,1.02681 L 73.7865,0.881668 L 73.6855,0.722626 L 73.6053,0.552185 L 73.5471,0.373032 L 73.5118,0.187988
 L 73.5,-0 L 73.5118,-0.187988 L 73.5471,-0.373032 L 73.6053,-0.552185 L 73.6855,-0.722626 L 73.7865,-0.881668
 L 73.9065,-1.02681 L 74.0439,-1.15576 L 74.1963,-1.26648 L 74.3613,-1.35724 L 74.5365,-1.42657 L 74.7189,-1.47342
 L 74.9058,-1.49704 L 75.0942,-1.49704 L 75.2811,-1.47342 L 75.4635,-1.42657 L 75.6387,-1.35724 L 75.8037,-1.26648
 L 75.9561,-1.15576 L 76.0934,-1.02681 L 76.2135,-0.881668 L 76.3145,-0.722626 L 76.3947,-0.552185 L 76.4529,-0.373032
 L 76.4882,-0.187988 L 76.5,-0 L 76.4882,0.187988 L 76.4529,0.373032 L 76.3947,0.552185 L 76.3145,0.722626
 L 76.2135,0.881668 L 76.0934,1.02681 L 75.9561,1.15576 L 75.8037,1.26648 L 75.6387,1.35724 L 75.4635,1.42657
 L 75.2811,1.47342 L 75.0942,1.49704 z
M 44.9058,1.49704 L 44.7189,1.47342 L 44.5365,1.42657 L 44.3613,1.35724 L 44.1963,1.26648 L 44.0439,1.15576
 L 43.9065,1.02681 L 43.7865,0.881668 L 43.6855,0.722626 L 43.6053,0.552185 L 43.5471,0.373032 L 43.5118,0.187988
 L 43.5,-0 L 43.5118,-0.187988 L 43.5471,-0.373032 L 43.6053,-0.552185 L 43.6855,-0.722626 L 43.7865,-0.881668
 L 43.9065,-1.02681 L 44.0439,-1.15576 L 44.1963,-1.26648 L 44.3613,-1.35724 L 44.5365,-1.42657 L 44.7189,-1.47342
 L 44.9058,-1.49704 L 45.0942,-1.49704 L 45.2811,-1.47342 L 45.4635,-1.42657 L 45.6387,-1.35724 L 45.8037,-1.26648
 L 45.9561,-1.15576 L 46.0934,-1.02681 L 46.2135,-0.881668 L 46.3145,-0.722626 L 46.3947,-0.552185 L 46.4529,-0.373032
 L 46.4882,-0.187988 L 46.5,-0 L 46.4882,0.187988 L 46.4529,0.373032 L 46.3947,0.552185 L 46.3145,0.722626
 L 46.2135,0.881668 L 46.0934,1.02681 L 45.9561,1.15576 L 45.8037,1.26648 L 45.6387,1.35724 L 45.4635,1.42657
 L 45.2811,1.47342 L 45.0942,1.49704 z
M -0.0941772,1.49704 L -0.281067,1.47342 L -0.463516,1.42657 L -0.638657,1.35724 L -0.803726,1.26648 L -0.956131,1.15576
 L -1.09344,1.02681 L -1.21352,0.881668 L -1.31445,0.722626 L -1.39465,0.552185 L -1.45287,0.373032 L -1.48816,0.187988
 L -1.5,-0 L -1.48816,-0.187988 L -1.45287,-0.373032 L -1.39465,-0.552185 L -1.31445,-0.722626 L -1.21352,-0.881668
 L -1.09344,-1.02681 L -0.956131,-1.15576 L -0.803726,-1.26648 L -0.638657,-1.35724 L -0.463516,-1.42657 L -0.281067,-1.47342
 L -0.0941772,-1.49704 L 0.0941772,-1.49704 L 0.281067,-1.47342 L 0.463516,-1.42657 L 0.638657,-1.35724 L 0.803726,-1.26648
 L 0.956131,-1.15576 L 1.09344,-1.02681 L 1.21352,-0.881668 L 1.31445,-0.722626 L 1.39465,-0.552185 L 1.45287,-0.373032
 L 1.48816,-0.187988 L 1.5,-0 L 1.48816,0.187988 L 1.45287,0.373032 L 1.39465,0.552185 L 1.31445,0.722626
 L 1.21352,0.881668 L 1.09344,1.02681 L 0.956131,1.15576 L 0.803726,1.26648 L 0.638657,1.35724 L 0.463516,1.42657
 L 0.281067,1.47342 L 0.0941772,1.49704 z
M 29.9058,1.49704 L 29.7189,1.47342 L 29.5365,1.42657 L 29.3613,1.35724 L 29.1963,1.26648 L 29.0439,1.15576
 L 28.9065,1.02681 L 28.7865,0.881668 L 28.6855,0.722626 L 28.6053,0.552185 L 28.5471,0.373032 L 28.5118,0.187988
 L 28.5,-0 L 28.5118,-0.187988 L 28.5471,-0.373032 L 28.6053,-0.552185 L 28.6855,-0.722626 L 28.7865,-0.881668
 L 28.9065,-1.02681 L 29.0439,-1.15576 L 29.1963,-1.26648 L 29.3613,-1.35724 L 29.5365,-1.42657 L 29.7189,-1.47342
 L 29.9058,-1.49704 L 30.0942,-1.49704 L 30.2811,-1.47342 L 30.4635,-1.42657 L 30.6387,-1.35724 L 30.8037,-1.26648
 L 30.9561,-1.15576 L 31.0934,-1.02681 L 31.2135,-0.881668 L 31.3145,-0.722626 L 31.3947,-0.552185 L 31.4529,-0.373032
 L 31.4882,-0.187988 L 31.5,-0 L 31.4882,0.187988 L 31.4529,0.373032 L 31.3947,0.552185 L 31.3145,0.722626
 L 31.2135,0.881668 L 31.0934,1.02681 L 30.9561,1.15576 L 30.8037,1.26648 L 30.6387,1.35724 L 30.4635,1.42657
 L 30.2811,1.47342 L 30.0942,1.49704 z
M -45.0942,1.49704 L -45.2811,1.47342 L -45.4635,1.42657 L -45.6387,1.35724 L -45.8037,1.26648 L -45.9561,1.15576
 L -46.0934,1.02681 L -46.2135,0.881668 L -46.3145,0.722626 L -46.3947,0.552185 L -46.4529,0.373032 L -46.4882,0.187988
 L -46.5,-0 L -46.4882,-0.187988 L -46.4529,-0.373032 L -46.3947,-0.552185 L -46.3145,-0.722626 L -46.2135,-0.881668
 L -46.0934,-1.02681 L -45.9561,-1.15576 L -45.8037,-1.26648 L -45.6387,-1.35724 L -45.4635,-1.42657 L -45.2811,-1.47342
 L -45.0942,-1.49704 L -44.9058,-1.49704 L -44.7189,-1.47342 L -44.5365,-1.42657 L -44.3613,-1.35724 L -44.1963,-1.26648
 L -44.0439,-1.15576 L -43.9065,-1.02681 L -43.7865,-0.881668 L -43.6855,-0.722626 L -43.6053,-0.552185 L -43.5471,-0.373032
 L -43.5118,-0.187988 L -43.5,-0 L -43.5118,0.187988 L -43.5471,0.373032 L -43.6053,0.552185 L -43.6855,0.722626
 L -43.7865,0.881668 L -43.9065,1.02681 L -44.0439,1.15576 L -44.1963,1.26648 L -44.3613,1.35724 L -44.5365,1.42657
 L -44.7189,1.47342 L -44.9058,1.49704 z
" stroke="black" fill="lightgray" stroke-width="0.5"/>
</svg>
