<?xml version="1.0" standalone="no"?>
<!DOCTYPE svg PUBLIC "-//W3C//DTD SVG 1.1//EN" "http://www.w3.org/Graphics/SVG/1.1/DTD/svg11.dtd">
<svg width="60mm" height="208mm" viewBox="-30 -347 60 208" xmlns="http://www.w3.org/2000/svg" version="1.1">
<title>OpenSCAD Model</title>
<path d="
M 25.9369,-301.589 L 26.5451,-301.745 L 27.1289,-301.976 L 27.6791,-302.278 L 28.1871,-302.647 L 28.6448,-303.077
 L 29.0451,-303.561 L 29.3815,-304.091 L 29.6489,-304.659 L 29.8429,-305.257 L 29.9606,-305.873 L 30,-306.5
 L 30,-341.5 L 29.9606,-342.127 L 29.8429,-342.743 L 29.6489,-343.341 L 29.3815,-343.909 L 29.0451,-344.439
 L 28.6448,-344.923 L 28.1871,-345.353 L 27.6791,-345.722 L 27.1289,-346.024 L 26.5451,-346.255 L 25.9369,-346.411
 L 25.3139,-346.49 L -25.3139,-346.49 L -25.9369,-346.411 L -26.5451,-346.255 L -27,-346.075 L -27,-346.115
 L -30,-346.115 L -30,-301.885 L -27,-301.885 L -27,-301.925 L -26.5451,-301.745 L -25.9369,-301.589
 L -25.3139,-301.51 L 25.3139,-301.51 z
M -24.7512,-303.008 L -25.2495,-303.071 L -25.7361,-303.196 L -26.2031,-303.381 L -26.6433,-303.623 L -27.0497,-303.918
 L -27.4159,-304.262 L -27.7361,-304.649 L -28.0052,-305.073 L -28.2191,-305.528 L -28.3743,-306.005 L -28.4684,-306.499
 L -28.5,-307 L -28.5,-341 L -28.4684,-341.501 L -28.3743,-341.995 L -28.2191,-342.472 L -28.0052,-342.927
 L -27.7361,-343.351 L -27.4159,-343.738 L -27.0497,-344.082 L -26.6433,-344.377 L -26.2031,-344.619 L -25.7361,-344.804
 L -25.2495,-344.929 L -24.7512,-344.992 L 24.7512,-344.992 L 25.2495,-344.929 L 25.7361,-344.804 L 26.2031,-344.619
 L 26.6433,-344.377 L 27.0497,-344.082 L 27.4159,-343.738 L 27.7361,-343.351 L 28.0052,-342.927 L 28.2191,-342.472
 L 28.3743,-341.995 L 28.4684,-341.501 L 28.5,-341 L 28.5,-307 L 28.4684,-306.499 L 28.3743,-306.005
 L 28.2191,-305.528 L 28.0052,-305.073 L 27.7361,-304.649 L 27.4159,-304.262 L 27.0497,-303.918 L 26.6433,-303.623
 L 26.2031,-303.381 L 25.7361,-303.196 L 25.2495,-303.071 L 24.7512,-303.008 z
M 25.9369,-247.589 L 26.5451,-247.745 L 27.1289,-247.976 L 27.6791,-248.278 L 28.1871,-248.647 L 28.6448,-249.077
 L 29.0451,-249.561 L 29.3815,-250.091 L 29.6489,-250.659 L 29.8429,-251.257 L 29.9606,-251.873 L 30,-252.5
 L 30,-287.5 L 29.9606,-288.127 L 29.8429,-288.743 L 29.6489,-289.341 L 29.3815,-289.909 L 29.0451,-290.439
 L 28.6448,-290.923 L 28.1871,-291.353 L 27.6791,-291.722 L 27.1289,-292.024 L 26.5451,-292.255 L 25.9369,-292.411
 L 25.3139,-292.49 L -25.3139,-292.49 L -25.9369,-292.411 L -26.5451,-292.255 L -27.1289,-292.024 L -27.6791,-291.722
 L -28.1871,-291.353 L -28.6448,-290.923 L -29.0451,-290.439 L -29.3815,-289.909 L -29.6489,-289.341 L -29.8429,-288.743
 L -29.9,-288.444 L -30,-288.444 L -30,-251.556 L -29.9,-251.556 L -29.8429,-251.257 L -29.6489,-250.659
 L -29.3815,-250.091 L -29.0451,-249.561 L -28.6448,-249.077 L -28.1871,-248.647 L -27.6791,-248.278 L -27.1289,-247.976
 L -26.5451,-247.745 L -25.9369,-247.589 L -25.3139,-247.51 L 25.3139,-247.51 z
M -24.7432,-249.135 L -25.2256,-249.196 L -25.6967,-249.317 L -26.1489,-249.496 L -26.5751,-249.73 L -26.9685,-250.016
 L -27.323,-250.349 L -27.633,-250.724 L -27.8936,-251.134 L -28.1007,-251.574 L -28.251,-252.037 L -28.3421,-252.515
 L -28.3726,-253 L -28.3726,-287 L -28.3421,-287.485 L -28.251,-287.963 L -28.1007,-288.426 L -27.8936,-288.866
 L -27.633,-289.276 L -27.323,-289.651 L -26.9685,-289.984 L -26.5751,-290.27 L -26.1489,-290.504 L -25.6967,-290.683
 L -25.2256,-290.804 L -24.7432,-290.865 L 24.7432,-290.865 L 25.2256,-290.804 L 25.6967,-290.683 L 26.1489,-290.504
 L 26.5751,-290.27 L 26.9685,-289.984 L 27.323,-289.651 L 27.633,-289.276 L 27.8936,-288.866 L 28.1007,-288.426
 L 28.251,-287.963 L 28.3421,-287.485 L 28.3726,-287 L 28.3726,-253 L 28.3421,-252.515 L 28.251,-252.037
 L 28.1007,-251.574 L 27.8936,-251.134 L 27.633,-250.724 L 27.323,-250.349 L 26.9685,-250.016 L 26.5751,-249.73
 L 26.1489,-249.496 L 25.6967,-249.317 L 25.2256,-249.196 L 24.7432,-249.135 z
M 25.9369,-193.589 L 26.5451,-193.745 L 27.1289,-193.976 L 27.6791,-194.278 L 28.1871,-194.647 L 28.6448,-195.077
 L 29.0451,-195.561 L 29.3815,-196.091 L 29.6489,-196.659 L 29.8429,-197.257 L 29.9606,-197.873 L 30,-198.5
 L 30,-233.5 L 29.9606,-234.127 L 29.8429,-234.743 L 29.6489,-235.341 L 29.3815,-235.909 L 29.0451,-236.439
 L 28.6448,-236.923 L 28.1871,-237.353 L 27.6791,-237.722 L 27.1289,-238.024 L 26.5451,-238.255 L 25.9369,-238.411
 L 25.3139,-238.49 L -25.3139,-238.49 L -25.9369,-238.411 L -26.5451,-238.255 L -27.1289,-238.024 L -27.6791,-237.722
 L -28.1871,-237.353 L -28.6448,-236.923 L -29.0451,-236.439 L -29.3815,-235.909 L -29.6489,-235.341 L -29.8429,-234.743
 L -29.9606,-234.127 L -30,-233.5 L -30,-198.5 L -29.9606,-197.873 L -29.8429,-197.257 L -29.6489,-196.659
 L -29.3815,-196.091 L -29.0451,-195.561 L -28.6448,-195.077 L -28.1871,-194.647 L -27.6791,-194.278 L -27.1289,-193.976
 L -26.5451,-193.745 L -25.9369,-193.589 L -25.3139,-193.51 L 25.3139,-193.51 z
M 22.3493,-228.605 L 22.0503,-228.643 L 21.7583,-228.717 L 21.4781,-228.828 L 21.214,-228.974 L 20.9702,-229.151
 L 20.7505,-229.357 L 20.5583,-229.589 L 20.3969,-229.844 L 20.2685,-230.117 L 20.1754,-230.403 L 20.1189,-230.699
 L 20.1,-231 L 20.1189,-231.301 L 20.1754,-231.597 L 20.2685,-231.883 L 20.3969,-232.156 L 20.5583,-232.411
 L 20.7505,-232.643 L 20.9702,-232.849 L 21.214,-233.026 L 21.4781,-233.172 L 21.7583,-233.283 L 22.0503,-233.357
 L 22.3493,-233.395 L 22.6507,-233.395 L 22.9497,-233.357 L 23.2416,-233.283 L 23.5219,-233.172 L 23.786,-233.026
 L 24.0298,-232.849 L 24.2495,-232.643 L 24.4416,-232.411 L 24.6031,-232.156 L 24.7315,-231.883 L 24.8246,-231.597
 L 24.8811,-231.301 L 24.9,-231 L 24.8811,-230.699 L 24.8246,-230.403 L 24.7315,-230.117 L 24.6031,-229.844
 L 24.4416,-229.589 L 24.2495,-229.357 L 24.0298,-229.151 L 23.786,-228.974 L 23.5219,-228.828 L 23.2416,-228.717
 L 22.9497,-228.643 L 22.6507,-228.605 z
M -22.6507,-228.605 L -22.9497,-228.643 L -23.2416,-228.717 L -23.5219,-228.828 L -23.786,-228.974 L -24.0298,-229.151
 L -24.2495,-229.357 L -24.4416,-229.589 L -24.6031,-229.844 L -24.7315,-230.117 L -24.8246,-230.403 L -24.8811,-230.699
 L -24.9,-231 L -24.8811,-231.301 L -24.8246,-231.597 L -24.7315,-231.883 L -24.6031,-232.156 L -24.4416,-232.411
 L -24.2495,-232.643 L -24.0298,-232.849 L -23.786,-233.026 L -23.5219,-233.172 L -23.2416,-233.283 L -22.9497,-233.357
 L -22.6507,-233.395 L -22.3493,-233.395 L -22.0503,-233.357 L -21.7583,-233.283 L -21.4781,-233.172 L -21.214,-233.026
 L -20.9702,-232.849 L -20.7505,-232.643 L -20.5583,-232.411 L -20.3969,-232.156 L -20.2685,-231.883 L -20.1754,-231.597
 L -20.1189,-231.301 L -20.1,-231 L -20.1189,-230.699 L -20.1754,-230.403 L -20.2685,-230.117 L -20.3969,-229.844
 L -20.5583,-229.589 L -20.7505,-229.357 L -20.9702,-229.151 L -21.214,-228.974 L -21.4781,-228.828 L -21.7583,-228.717
 L -22.0503,-228.643 L -22.3493,-228.605 z
M 22.3493,-198.605 L 22.0503,-198.643 L 21.7583,-198.717 L 21.4781,-198.828 L 21.214,-198.974 L 20.9702,-199.151
 L 20.7505,-199.357 L 20.5583,-199.589 L 20.3969,-199.844 L 20.2685,-200.117 L 20.1754,-200.403 L 20.1189,-200.699
 L 20.1,-201 L 20.1189,-201.301 L 20.1754,-201.597 L 20.2685,-201.883 L 20.3969,-202.156 L 20.5583,-202.411
 L 20.7505,-202.643 L 20.9702,-202.849 L 21.214,-203.026 L 21.4781,-203.172 L 21.7583,-203.283 L 22.0503,-203.357
 L 22.3493,-203.395 L 22.6507,-203.395 L 22.9497,-203.357 L 23.2416,-203.283 L 23.5219,-203.172 L 23.786,-203.026
 L 24.0298,-202.849 L 24.2495,-202.643 L 24.4416,-202.411 L 24.6031,-202.156 L 24.7315,-201.883 L 24.8246,-201.597
 L 24.8811,-201.301 L 24.9,-201 L 24.8811,-200.699 L 24.8246,-200.403 L 24.7315,-200.117 L 24.6031,-199.844
 L 24.4416,-199.589 L 24.2495,-199.357 L 24.0298,-199.151 L 23.786,-198.974 L 23.5219,-198.828 L 23.2416,-198.717
 L 22.9497,-198.643 L 22.6507,-198.605 z
M -22.6507,-198.605 L -22.9497,-198.643 L -23.2416,-198.717 L -23.5219,-198.828 L -23.786,-198.974 L -24.0298,-199.151
 L -24.2495,-199.357 L -24.4416,-199.589 L -24.6031,-199.844 L -24.7315,-200.117 L -24.8246,-200.403 L -24.8811,-200.699
 L -24.9,-201 L -24.8811,-201.301 L -24.8246,-201.597 L -24.7315,-201.883 L -24.6031,-202.156 L -24.4416,-202.411
 L -24.2495,-202.643 L -24.0298,-202.849 L -23.786,-203.026 L -23.5219,-203.172 L -23.2416,-203.283 L -22.9497,-203.357
 L -22.6507,-203.395 L -22.3493,-203.395 L -22.0503,-203.357 L -21.7583,-203.283 L -21.4781,-203.172 L -21.214,-203.026
 L -20.9702,-202.849 L -20.7505,-202.643 L -20.5583,-202.411 L -20.3969,-202.156 L -20.2685,-201.883 L -20.1754,-201.597
 L -20.1189,-201.301 L -20.1,-201 L -20.1189,-200.699 L -20.1754,-200.403 L -20.2685,-200.117 L -20.3969,-199.844
 L -20.5583,-199.589 L -20.7505,-199.357 L -20.9702,-199.151 L -21.214,-198.974 L -21.4781,-198.828 L -21.7583,-198.717
 L -22.0503,-198.643 L -22.3493,-198.605 z
M 25.9369,-139.589 L 26.5451,-139.745 L 27.1289,-139.976 L 27.6791,-140.278 L 28.1871,-140.647 L 28.6448,-141.077
 L 29.0451,-141.561 L 29.3815,-142.091 L 29.6489,-142.659 L 29.8429,-143.257 L 29.9606,-143.873 L 30,-144.5
 L 30,-179.5 L 29.9606,-180.127 L 29.8429,-180.743 L 29.6489,-181.341 L 29.3815,-181.909 L 29.0451,-182.439
 L 28.6448,-182.923 L 28.1871,-183.353 L 27.6791,-183.722 L 27.1289,-184.024 L 26.5451,-184.255 L 25.9369,-184.411
 L 25.3139,-184.49 L -25.3139,-184.49 L -25.9369,-184.411 L -26.5451,-184.255 L -27.1289,-184.024 L -27.6791,-183.722
 L -28.1871,-183.353 L -28.6448,-182.923 L -29.0451,-182.439 L -29.3815,-181.909 L -29.6489,-181.341 L -29.8429,-180.743
 L -29.9606,-180.127 L -30,-179.5 L -30,-144.5 L -29.9606,-143.873 L -29.8429,-143.257 L -29.6489,-142.659
 L -29.3815,-142.091 L -29.0451,-141.561 L -28.6448,-141.077 L -28.1871,-140.647 L -27.6791,-140.278 L -27.1289,-139.976
 L -26.5451,-139.745 L -25.9369,-139.589 L -25.3139,-139.51 L 25.3139,-139.51 z
M 22.387,-175.204 L 22.1627,-175.232 L 21.9438,-175.288 L 21.7336,-175.371 L 21.5355,-175.48 L 21.3526,-175.613
 L 21.1879,-175.768 L 21.0438,-175.942 L 20.9226,-176.133 L 20.8264,-176.337 L 20.7565,-176.552 L 20.7142,-176.774
 L 20.7,-177 L 20.7142,-177.226 L 20.7565,-177.448 L 20.8264,-177.663 L 20.9226,-177.867 L 21.0438,-178.058
 L 21.1879,-178.232 L 21.3526,-178.387 L 21.5355,-178.52 L 21.7336,-178.629 L 21.9438,-178.712 L 22.1627,-178.768
 L 22.387,-178.796 L 22.613,-178.796 L 22.8373,-178.768 L 23.0562,-178.712 L 23.2664,-178.629 L 23.4645,-178.52
 L 23.6474,-178.387 L 23.8121,-178.232 L 23.9562,-178.058 L 24.0773,-177.867 L 24.1736,-177.663 L 24.2434,-177.448
 L 24.2858,-177.226 L 24.3,-177 L 24.2858,-176.774 L 24.2434,-176.552 L 24.1736,-176.337 L 24.0773,-176.133
 L 23.9562,-175.942 L 23.8121,-175.768 L 23.6474,-175.613 L 23.4645,-175.48 L 23.2664,-175.371 L 23.0562,-175.288
 L 22.8373,-175.232 L 22.613,-175.204 z
M -22.613,-175.204 L -22.8373,-175.232 L -23.0562,-175.288 L -23.2664,-175.371 L -23.4645,-175.48 L -23.6474,-175.613
 L -23.8121,-175.768 L -23.9562,-175.942 L -24.0773,-176.133 L -24.1736,-176.337 L -24.2434,-176.552 L -24.2858,-176.774
 L -24.3,-177 L -24.2858,-177.226 L -24.2434,-177.448 L -24.1736,-177.663 L -24.0773,-177.867 L -23.9562,-178.058
 L -23.8121,-178.232 L -23.6474,-178.387 L -23.4645,-178.52 L -23.2664,-178.629 L -23.0562,-178.712 L -22.8373,-178.768
 L -22.613,-178.796 L -22.387,-178.796 L -22.1627,-178.768 L -21.9438,-178.712 L -21.7336,-178.629 L -21.5355,-178.52
 L -21.3526,-178.387 L -21.1879,-178.232 L -21.0438,-178.058 L -20.9226,-177.867 L -20.8264,-177.663 L -20.7565,-177.448
 L -20.7142,-177.226 L -20.7,-177 L -20.7142,-176.774 L -20.7565,-176.552 L -20.8264,-176.337 L -20.9226,-176.133
 L -21.0438,-175.942 L -21.1879,-175.768 L -21.3526,-175.613 L -21.5355,-175.48 L -21.7336,-175.371 L -21.9438,-175.288
 L -22.1627,-175.232 L -22.387,-175.204 z
M 22.387,-145.204 L 22.1627,-145.232 L 21.9438,-145.288 L 21.7336,-145.371 L 21.5355,-145.48 L 21.3526,-145.613
 L 21.1879,-145.768 L 21.0438,-145.942 L 20.9226,-146.133 L 20.8264,-146.337 L 20.7565,-146.552 L 20.7142,-146.774
 L 20.7,-147 L 20.7142,-147.226 L 20.7565,-147.448 L 20.8264,-147.663 L 20.9226,-147.867 L 21.0438,-148.058
 L 21.1879,-148.232 L 21.3526,-148.387 L 21.5355,-148.52 L 21.7336,-148.629 L 21.9438,-148.712 L 22.1627,-148.768
 L 22.387,-148.796 L 22.613,-148.796 L 22.8373,-148.768 L 23.0562,-148.712 L 23.2664,-148.629 L 23.4645,-148.52
 L 23.6474,-148.387 L 23.8121,-148.232 L 23.9562,-148.058 L 24.0773,-147.867 L 24.1736,-147.663 L 24.2434,-147.448
 L 24.2858,-147.226 L 24.3,-147 L 24.2858,-146.774 L 24.2434,-146.552 L 24.1736,-146.337 L 24.0773,-146.133
 L 23.9562,-145.942 L 23.8121,-145.768 L 23.6474,-145.613 L 23.4645,-145.48 L 23.2664,-145.371 L 23.0562,-145.288
 L 22.8373,-145.232 L 22.613,-145.204 z
M -22.613,-145.204 L -22.8373,-145.232 L -23.0562,-145.288 L -23.2664,-145.371 L -23.4645,-145.48 L -23.6474,-145.613
 L -23.8121,-145.768 L -23.9562,-145.942 L -24.0773,-146.133 L -24.1736,-146.337 L -24.2434,-146.552 L -24.2858,-146.774
 L -24.3,-147 L -24.2858,-147.226 L -24.2434,-147.448 L -24.1736,-147.663 L -24.0773,-147.867 L -23.9562,-148.058
 L -23.8121,-148.232 L -23.6474,-148.387 L -23.4645,-148.52 L -23.2664,-148.629 L -23.0562,-148.712 L -22.8373,-148.768
 L -22.613,-148.796 L -22.387,-148.796 L -22.1627,-148.768 L -21.9438,-148.712 L -21.7336,-148.629 L -21.5355,-148.52
 L -21.3526,-148.387 L -21.1879,-148.232 L -21.0438,-148.058 L -20.9226,-147.867 L -20.8264,-147.663 L -20.7565,-147.448
 L -20.7142,-147.226 L -20.7,-147 L -20.7142,-146.774 L -20.7565,-146.552 L -20.8264,-146.337 L -20.9226,-146.133
 L -21.0438,-145.942 L -21.1879,-145.768 L -21.3526,-145.613 L -21.5355,-145.48 L -21.7336,-145.371 L -21.9438,-145.288
 L -22.1627,-145.232 L -22.387,-145.204 z
" stroke="black" fill="lightgray" stroke-width="0.5"/>
</svg>
