  0
SECTION
  2
BLOCKS
  0
ENDSEC
  0
SECTION
  2
ENTITIES
  0
LINE
  8
0
 10
7.1869
 20
1101.09
 11
7.79507
 21
1101.24
  0
LINE
  8
0
 10
7.79507
 20
1101.24
 11
8.37889
 21
1101.48
  0
LINE
  8
0
 10
8.37889
 20
1101.48
 11
8.92912
 21
1101.78
  0
LINE
  8
0
 10
8.92912
 20
1101.78
 11
9.43712
 21
1102.15
  0
LINE
  8
0
 10
9.43712
 20
1102.15
 11
9.89484
 21
1102.58
  0
LINE
  8
0
 10
9.89484
 20
1102.58
 11
10.2951
 21
1103.06
  0
LINE
  8
0
 10
10.2951
 20
1103.06
 11
10.6315
 21
1103.59
  0
LINE
  8
0
 10
10.6315
 20
1103.59
 11
10.8989
 21
1104.16
  0
LINE
  8
0
 10
10.8989
 20
1104.16
 11
11.0929
 21
1104.76
  0
LINE
  8
0
 10
11.0929
 20
1104.76
 11
11.2106
 21
1105.37
  0
LINE
  8
0
 10
11.2106
 20
1105.37
 11
11.25
 21
1106
  0
LINE
  8
0
 10
11.25
 20
1106
 11
11.25
 21
1216
  0
LINE
  8
0
 10
11.25
 20
1216
 11
11.2106
 21
1216.63
  0
LINE
  8
0
 10
11.2106
 20
1216.63
 11
11.0929
 21
1217.24
  0
LINE
  8
0
 10
11.0929
 20
1217.24
 11
10.8989
 21
1217.84
  0
LINE
  8
0
 10
10.8989
 20
1217.84
 11
10.6315
 21
1218.41
  0
LINE
  8
0
 10
10.6315
 20
1218.41
 11
10.2951
 21
1218.94
  0
LINE
  8
0
 10
10.2951
 20
1218.94
 11
9.89484
 21
1219.42
  0
LINE
  8
0
 10
9.89484
 20
1219.42
 11
9.43712
 21
1219.85
  0
LINE
  8
0
 10
9.43712
 20
1219.85
 11
8.92912
 21
1220.22
  0
LINE
  8
0
 10
8.92912
 20
1220.22
 11
8.37889
 21
1220.52
  0
LINE
  8
0
 10
8.37889
 20
1220.52
 11
7.79507
 21
1220.76
  0
LINE
  8
0
 10
7.79507
 20
1220.76
 11
7.1869
 21
1220.91
  0
LINE
  8
0
 10
7.1869
 20
1220.91
 11
6.56395
 21
1220.99
  0
LINE
  8
0
 10
6.56395
 20
1220.99
 11
-6.56395
 21
1220.99
  0
LINE
  8
0
 10
-6.56395
 20
1220.99
 11
-7.1869
 21
1220.91
  0
LINE
  8
0
 10
-7.1869
 20
1220.91
 11
-7.79507
 21
1220.76
  0
LINE
  8
0
 10
-7.79507
 20
1220.76
 11
-8.37889
 21
1220.52
  0
LINE
  8
0
 10
-8.37889
 20
1220.52
 11
-8.92912
 21
1220.22
  0
LINE
  8
0
 10
-8.92912
 20
1220.22
 11
-9.43712
 21
1219.85
  0
LINE
  8
0
 10
-9.43712
 20
1219.85
 11
-9.89484
 21
1219.42
  0
LINE
  8
0
 10
-9.89484
 20
1219.42
 11
-10.2951
 21
1218.94
  0
LINE
  8
0
 10
-10.2951
 20
1218.94
 11
-10.6315
 21
1218.41
  0
LINE
  8
0
 10
-10.6315
 20
1218.41
 11
-10.8989
 21
1217.84
  0
LINE
  8
0
 10
-10.8989
 20
1217.84
 11
-11.0929
 21
1217.24
  0
LINE
  8
0
 10
-11.0929
 20
1217.24
 11
-11.2106
 21
1216.63
  0
LINE
  8
0
 10
-11.2106
 20
1216.63
 11
-11.25
 21
1216
  0
LINE
  8
0
 10
-11.25
 20
1216
 11
-11.25
 21
1106
  0
LINE
  8
0
 10
-11.25
 20
1106
 11
-11.2106
 21
1105.37
  0
LINE
  8
0
 10
-11.2106
 20
1105.37
 11
-11.0929
 21
1104.76
  0
LINE
  8
0
 10
-11.0929
 20
1104.76
 11
-10.8989
 21
1104.16
  0
LINE
  8
0
 10
-10.8989
 20
1104.16
 11
-10.6315
 21
1103.59
  0
LINE
  8
0
 10
-10.6315
 20
1103.59
 11
-10.2951
 21
1103.06
  0
LINE
  8
0
 10
-10.2951
 20
1103.06
 11
-9.89484
 21
1102.58
  0
LINE
  8
0
 10
-9.89484
 20
1102.58
 11
-9.43712
 21
1102.15
  0
LINE
  8
0
 10
-9.43712
 20
1102.15
 11
-8.92912
 21
1101.78
  0
LINE
  8
0
 10
-8.92912
 20
1101.78
 11
-8.37889
 21
1101.48
  0
LINE
  8
0
 10
-8.37889
 20
1101.48
 11
-7.79507
 21
1101.24
  0
LINE
  8
0
 10
-7.79507
 20
1101.24
 11
-7.1869
 21
1101.09
  0
LINE
  8
0
 10
-7.1869
 20
1101.09
 11
-6.56395
 21
1101.01
  0
LINE
  8
0
 10
-6.56395
 20
1101.01
 11
6.56395
 21
1101.01
  0
LINE
  8
0
 10
6.56395
 20
1101.01
 11
7.1869
 21
1101.09
  0
LINE
  8
0
 10
-6.00116
 20
1102.51
 11
-6.49951
 21
1102.57
  0
LINE
  8
0
 10
-6.49951
 20
1102.57
 11
-6.98605
 21
1102.7
  0
LINE
  8
0
 10
-6.98605
 20
1102.7
 11
-7.45311
 21
1102.88
  0
LINE
  8
0
 10
-7.45311
 20
1102.88
 11
-7.8933
 21
1103.12
  0
LINE
  8
0
 10
-7.8933
 20
1103.12
 11
-8.29968
 21
1103.42
  0
LINE
  8
0
 10
-8.29968
 20
1103.42
 11
-8.66586
 21
1103.76
  0
LINE
  8
0
 10
-8.66586
 20
1103.76
 11
-8.98605
 21
1104.15
  0
LINE
  8
0
 10
-8.98605
 20
1104.15
 11
-9.25522
 21
1104.57
  0
LINE
  8
0
 10
-9.25522
 20
1104.57
 11
-9.4691
 21
1105.03
  0
LINE
  8
0
 10
-9.4691
 20
1105.03
 11
-9.62433
 21
1105.51
  0
LINE
  8
0
 10
-9.62433
 20
1105.51
 11
-9.71844
 21
1106
  0
LINE
  8
0
 10
-9.71844
 20
1106
 11
-9.75
 21
1106.5
  0
LINE
  8
0
 10
-9.75
 20
1106.5
 11
-9.75
 21
1215.5
  0
LINE
  8
0
 10
-9.75
 20
1215.5
 11
-9.71844
 21
1216
  0
LINE
  8
0
 10
-9.71844
 20
1216
 11
-9.62433
 21
1216.49
  0
LINE
  8
0
 10
-9.62433
 20
1216.49
 11
-9.4691
 21
1216.97
  0
LINE
  8
0
 10
-9.4691
 20
1216.97
 11
-9.25522
 21
1217.43
  0
LINE
  8
0
 10
-9.25522
 20
1217.43
 11
-8.98605
 21
1217.85
  0
LINE
  8
0
 10
-8.98605
 20
1217.85
 11
-8.66586
 21
1218.24
  0
LINE
  8
0
 10
-8.66586
 20
1218.24
 11
-8.29968
 21
1218.58
  0
LINE
  8
0
 10
-8.29968
 20
1218.58
 11
-7.8933
 21
1218.88
  0
LINE
  8
0
 10
-7.8933
 20
1218.88
 11
-7.45311
 21
1219.12
  0
LINE
  8
0
 10
-7.45311
 20
1219.12
 11
-6.98605
 21
1219.3
  0
LINE
  8
0
 10
-6.98605
 20
1219.3
 11
-6.49951
 21
1219.43
  0
LINE
  8
0
 10
-6.49951
 20
1219.43
 11
-6.00116
 21
1219.49
  0
LINE
  8
0
 10
-6.00116
 20
1219.49
 11
6.00116
 21
1219.49
  0
LINE
  8
0
 10
6.00116
 20
1219.49
 11
6.49951
 21
1219.43
  0
LINE
  8
0
 10
6.49951
 20
1219.43
 11
6.98605
 21
1219.3
  0
LINE
  8
0
 10
6.98605
 20
1219.3
 11
7.45311
 21
1219.12
  0
LINE
  8
0
 10
7.45311
 20
1219.12
 11
7.8933
 21
1218.88
  0
LINE
  8
0
 10
7.8933
 20
1218.88
 11
8.29968
 21
1218.58
  0
LINE
  8
0
 10
8.29968
 20
1218.58
 11
8.66586
 21
1218.24
  0
LINE
  8
0
 10
8.66586
 20
1218.24
 11
8.98605
 21
1217.85
  0
LINE
  8
0
 10
8.98605
 20
1217.85
 11
9.25522
 21
1217.43
  0
LINE
  8
0
 10
9.25522
 20
1217.43
 11
9.4691
 21
1216.97
  0
LINE
  8
0
 10
9.4691
 20
1216.97
 11
9.62433
 21
1216.49
  0
LINE
  8
0
 10
9.62433
 20
1216.49
 11
9.71844
 21
1216
  0
LINE
  8
0
 10
9.71844
 20
1216
 11
9.75
 21
1215.5
  0
LINE
  8
0
 10
9.75
 20
1215.5
 11
9.75
 21
1106.5
  0
LINE
  8
0
 10
9.75
 20
1106.5
 11
9.71844
 21
1106
  0
LINE
  8
0
 10
9.71844
 20
1106
 11
9.62433
 21
1105.51
  0
LINE
  8
0
 10
9.62433
 20
1105.51
 11
9.4691
 21
1105.03
  0
LINE
  8
0
 10
9.4691
 20
1105.03
 11
9.25522
 21
1104.57
  0
LINE
  8
0
 10
9.25522
 20
1104.57
 11
8.98605
 21
1104.15
  0
LINE
  8
0
 10
8.98605
 20
1104.15
 11
8.66586
 21
1103.76
  0
LINE
  8
0
 10
8.66586
 20
1103.76
 11
8.29968
 21
1103.42
  0
LINE
  8
0
 10
8.29968
 20
1103.42
 11
7.8933
 21
1103.12
  0
LINE
  8
0
 10
7.8933
 20
1103.12
 11
7.45311
 21
1102.88
  0
LINE
  8
0
 10
7.45311
 20
1102.88
 11
6.98605
 21
1102.7
  0
LINE
  8
0
 10
6.98605
 20
1102.7
 11
6.49951
 21
1102.57
  0
LINE
  8
0
 10
6.49951
 20
1102.57
 11
6.00116
 21
1102.51
  0
LINE
  8
0
 10
6.00116
 20
1102.51
 11
-6.00116
 21
1102.51
  0
LINE
  8
0
 10
7.1869
 20
972.089
 11
7.79507
 21
972.245
  0
LINE
  8
0
 10
7.79507
 20
972.245
 11
8.37889
 21
972.476
  0
LINE
  8
0
 10
8.37889
 20
972.476
 11
8.92912
 21
972.778
  0
LINE
  8
0
 10
8.92912
 20
972.778
 11
9.43712
 21
973.147
  0
LINE
  8
0
 10
9.43712
 20
973.147
 11
9.89484
 21
973.577
  0
LINE
  8
0
 10
9.89484
 20
973.577
 11
10.2951
 21
974.061
  0
LINE
  8
0
 10
10.2951
 20
974.061
 11
10.6315
 21
974.591
  0
LINE
  8
0
 10
10.6315
 20
974.591
 11
10.8989
 21
975.159
  0
LINE
  8
0
 10
10.8989
 20
975.159
 11
11.0929
 21
975.757
  0
LINE
  8
0
 10
11.0929
 20
975.757
 11
11.2106
 21
976.373
  0
LINE
  8
0
 10
11.2106
 20
976.373
 11
11.25
 21
977
  0
LINE
  8
0
 10
11.25
 20
977
 11
11.25
 21
1087
  0
LINE
  8
0
 10
11.25
 20
1087
 11
11.2106
 21
1087.63
  0
LINE
  8
0
 10
11.2106
 20
1087.63
 11
11.0929
 21
1088.24
  0
LINE
  8
0
 10
11.0929
 20
1088.24
 11
10.8989
 21
1088.84
  0
LINE
  8
0
 10
10.8989
 20
1088.84
 11
10.6315
 21
1089.41
  0
LINE
  8
0
 10
10.6315
 20
1089.41
 11
10.2951
 21
1089.94
  0
LINE
  8
0
 10
10.2951
 20
1089.94
 11
9.89484
 21
1090.42
  0
LINE
  8
0
 10
9.89484
 20
1090.42
 11
9.43712
 21
1090.85
  0
LINE
  8
0
 10
9.43712
 20
1090.85
 11
8.92912
 21
1091.22
  0
LINE
  8
0
 10
8.92912
 20
1091.22
 11
8.37889
 21
1091.52
  0
LINE
  8
0
 10
8.37889
 20
1091.52
 11
7.79507
 21
1091.76
  0
LINE
  8
0
 10
7.79507
 20
1091.76
 11
7.1869
 21
1091.91
  0
LINE
  8
0
 10
7.1869
 20
1091.91
 11
6.56395
 21
1091.99
  0
LINE
  8
0
 10
6.56395
 20
1091.99
 11
-6.56395
 21
1091.99
  0
LINE
  8
0
 10
-6.56395
 20
1091.99
 11
-7.1869
 21
1091.91
  0
LINE
  8
0
 10
-7.1869
 20
1091.91
 11
-7.79507
 21
1091.76
  0
LINE
  8
0
 10
-7.79507
 20
1091.76
 11
-8.37889
 21
1091.52
  0
LINE
  8
0
 10
-8.37889
 20
1091.52
 11
-8.92912
 21
1091.22
  0
LINE
  8
0
 10
-8.92912
 20
1091.22
 11
-9.43712
 21
1090.85
  0
LINE
  8
0
 10
-9.43712
 20
1090.85
 11
-9.89484
 21
1090.42
  0
LINE
  8
0
 10
-9.89484
 20
1090.42
 11
-10.2951
 21
1089.94
  0
LINE
  8
0
 10
-10.2951
 20
1089.94
 11
-10.6315
 21
1089.41
  0
LINE
  8
0
 10
-10.6315
 20
1089.41
 11
-10.8989
 21
1088.84
  0
LINE
  8
0
 10
-10.8989
 20
1088.84
 11
-11.0929
 21
1088.24
  0
LINE
  8
0
 10
-11.0929
 20
1088.24
 11
-11.2106
 21
1087.63
  0
LINE
  8
0
 10
-11.2106
 20
1087.63
 11
-11.25
 21
1087
  0
LINE
  8
0
 10
-11.25
 20
1087
 11
-11.25
 21
977
  0
LINE
  8
0
 10
-11.25
 20
977
 11
-11.2106
 21
976.373
  0
LINE
  8
0
 10
-11.2106
 20
976.373
 11
-11.0929
 21
975.757
  0
LINE
  8
0
 10
-11.0929
 20
975.757
 11
-10.8989
 21
975.159
  0
LINE
  8
0
 10
-10.8989
 20
975.159
 11
-10.6315
 21
974.591
  0
LINE
  8
0
 10
-10.6315
 20
974.591
 11
-10.2951
 21
974.061
  0
LINE
  8
0
 10
-10.2951
 20
974.061
 11
-9.89484
 21
973.577
  0
LINE
  8
0
 10
-9.89484
 20
973.577
 11
-9.43712
 21
973.147
  0
LINE
  8
0
 10
-9.43712
 20
973.147
 11
-8.92912
 21
972.778
  0
LINE
  8
0
 10
-8.92912
 20
972.778
 11
-8.37889
 21
972.476
  0
LINE
  8
0
 10
-8.37889
 20
972.476
 11
-7.79507
 21
972.245
  0
LINE
  8
0
 10
-7.79507
 20
972.245
 11
-7.1869
 21
972.089
  0
LINE
  8
0
 10
-7.1869
 20
972.089
 11
-6.56395
 21
972.01
  0
LINE
  8
0
 10
-6.56395
 20
972.01
 11
6.56395
 21
972.01
  0
LINE
  8
0
 10
6.56395
 20
972.01
 11
7.1869
 21
972.089
  0
LINE
  8
0
 10
-6.00116
 20
973.508
 11
-6.49951
 21
973.571
  0
LINE
  8
0
 10
-6.49951
 20
973.571
 11
-6.98605
 21
973.696
  0
LINE
  8
0
 10
-6.98605
 20
973.696
 11
-7.45311
 21
973.881
  0
LINE
  8
0
 10
-7.45311
 20
973.881
 11
-7.8933
 21
974.123
  0
LINE
  8
0
 10
-7.8933
 20
974.123
 11
-8.29968
 21
974.418
  0
LINE
  8
0
 10
-8.29968
 20
974.418
 11
-8.66586
 21
974.762
  0
LINE
  8
0
 10
-8.66586
 20
974.762
 11
-8.98605
 21
975.149
  0
LINE
  8
0
 10
-8.98605
 20
975.149
 11
-9.25522
 21
975.573
  0
LINE
  8
0
 10
-9.25522
 20
975.573
 11
-9.4691
 21
976.028
  0
LINE
  8
0
 10
-9.4691
 20
976.028
 11
-9.62433
 21
976.505
  0
LINE
  8
0
 10
-9.62433
 20
976.505
 11
-9.71844
 21
976.999
  0
LINE
  8
0
 10
-9.71844
 20
976.999
 11
-9.75
 21
977.5
  0
LINE
  8
0
 10
-9.75
 20
977.5
 11
-9.75
 21
1086.5
  0
LINE
  8
0
 10
-9.75
 20
1086.5
 11
-9.71844
 21
1087
  0
LINE
  8
0
 10
-9.71844
 20
1087
 11
-9.62433
 21
1087.49
  0
LINE
  8
0
 10
-9.62433
 20
1087.49
 11
-9.4691
 21
1087.97
  0
LINE
  8
0
 10
-9.4691
 20
1087.97
 11
-9.25522
 21
1088.43
  0
LINE
  8
0
 10
-9.25522
 20
1088.43
 11
-8.98605
 21
1088.85
  0
LINE
  8
0
 10
-8.98605
 20
1088.85
 11
-8.66586
 21
1089.24
  0
LINE
  8
0
 10
-8.66586
 20
1089.24
 11
-8.29968
 21
1089.58
  0
LINE
  8
0
 10
-8.29968
 20
1089.58
 11
-7.8933
 21
1089.88
  0
LINE
  8
0
 10
-7.8933
 20
1089.88
 11
-7.45311
 21
1090.12
  0
LINE
  8
0
 10
-7.45311
 20
1090.12
 11
-6.98605
 21
1090.3
  0
LINE
  8
0
 10
-6.98605
 20
1090.3
 11
-6.49951
 21
1090.43
  0
LINE
  8
0
 10
-6.49951
 20
1090.43
 11
-6.00116
 21
1090.49
  0
LINE
  8
0
 10
-6.00116
 20
1090.49
 11
6.00116
 21
1090.49
  0
LINE
  8
0
 10
6.00116
 20
1090.49
 11
6.49951
 21
1090.43
  0
LINE
  8
0
 10
6.49951
 20
1090.43
 11
6.98605
 21
1090.3
  0
LINE
  8
0
 10
6.98605
 20
1090.3
 11
7.45311
 21
1090.12
  0
LINE
  8
0
 10
7.45311
 20
1090.12
 11
7.8933
 21
1089.88
  0
LINE
  8
0
 10
7.8933
 20
1089.88
 11
8.29968
 21
1089.58
  0
LINE
  8
0
 10
8.29968
 20
1089.58
 11
8.66586
 21
1089.24
  0
LINE
  8
0
 10
8.66586
 20
1089.24
 11
8.98605
 21
1088.85
  0
LINE
  8
0
 10
8.98605
 20
1088.85
 11
9.25522
 21
1088.43
  0
LINE
  8
0
 10
9.25522
 20
1088.43
 11
9.4691
 21
1087.97
  0
LINE
  8
0
 10
9.4691
 20
1087.97
 11
9.62433
 21
1087.49
  0
LINE
  8
0
 10
9.62433
 20
1087.49
 11
9.71844
 21
1087
  0
LINE
  8
0
 10
9.71844
 20
1087
 11
9.75
 21
1086.5
  0
LINE
  8
0
 10
9.75
 20
1086.5
 11
9.75
 21
977.5
  0
LINE
  8
0
 10
9.75
 20
977.5
 11
9.71844
 21
976.999
  0
LINE
  8
0
 10
9.71844
 20
976.999
 11
9.62433
 21
976.505
  0
LINE
  8
0
 10
9.62433
 20
976.505
 11
9.4691
 21
976.028
  0
LINE
  8
0
 10
9.4691
 20
976.028
 11
9.25522
 21
975.573
  0
LINE
  8
0
 10
9.25522
 20
975.573
 11
8.98605
 21
975.149
  0
LINE
  8
0
 10
8.98605
 20
975.149
 11
8.66586
 21
974.762
  0
LINE
  8
0
 10
8.66586
 20
974.762
 11
8.29968
 21
974.418
  0
LINE
  8
0
 10
8.29968
 20
974.418
 11
7.8933
 21
974.123
  0
LINE
  8
0
 10
7.8933
 20
974.123
 11
7.45311
 21
973.881
  0
LINE
  8
0
 10
7.45311
 20
973.881
 11
6.98605
 21
973.696
  0
LINE
  8
0
 10
6.98605
 20
973.696
 11
6.49951
 21
973.571
  0
LINE
  8
0
 10
6.49951
 20
973.571
 11
6.00116
 21
973.508
  0
LINE
  8
0
 10
6.00116
 20
973.508
 11
-6.00116
 21
973.508
  0
LINE
  8
0
 10
7.1869
 20
843.089
 11
7.79507
 21
843.245
  0
LINE
  8
0
 10
7.79507
 20
843.245
 11
8.37889
 21
843.476
  0
LINE
  8
0
 10
8.37889
 20
843.476
 11
8.92912
 21
843.778
  0
LINE
  8
0
 10
8.92912
 20
843.778
 11
9.43712
 21
844.147
  0
LINE
  8
0
 10
9.43712
 20
844.147
 11
9.89484
 21
844.577
  0
LINE
  8
0
 10
9.89484
 20
844.577
 11
10.2951
 21
845.061
  0
LINE
  8
0
 10
10.2951
 20
845.061
 11
10.6315
 21
845.591
  0
LINE
  8
0
 10
10.6315
 20
845.591
 11
10.8989
 21
846.159
  0
LINE
  8
0
 10
10.8989
 20
846.159
 11
11.0929
 21
846.757
  0
LINE
  8
0
 10
11.0929
 20
846.757
 11
11.2106
 21
847.373
  0
LINE
  8
0
 10
11.2106
 20
847.373
 11
11.25
 21
848
  0
LINE
  8
0
 10
11.25
 20
848
 11
11.25
 21
958
  0
LINE
  8
0
 10
11.25
 20
958
 11
11.2106
 21
958.627
  0
LINE
  8
0
 10
11.2106
 20
958.627
 11
11.0929
 21
959.243
  0
LINE
  8
0
 10
11.0929
 20
959.243
 11
10.8989
 21
959.841
  0
LINE
  8
0
 10
10.8989
 20
959.841
 11
10.6315
 21
960.409
  0
LINE
  8
0
 10
10.6315
 20
960.409
 11
10.2951
 21
960.939
  0
LINE
  8
0
 10
10.2951
 20
960.939
 11
9.89484
 21
961.423
  0
LINE
  8
0
 10
9.89484
 20
961.423
 11
9.43712
 21
961.853
  0
LINE
  8
0
 10
9.43712
 20
961.853
 11
8.92912
 21
962.222
  0
LINE
  8
0
 10
8.92912
 20
962.222
 11
8.37889
 21
962.524
  0
LINE
  8
0
 10
8.37889
 20
962.524
 11
7.79507
 21
962.755
  0
LINE
  8
0
 10
7.79507
 20
962.755
 11
7.1869
 21
962.911
  0
LINE
  8
0
 10
7.1869
 20
962.911
 11
6.56395
 21
962.99
  0
LINE
  8
0
 10
6.56395
 20
962.99
 11
-6.56395
 21
962.99
  0
LINE
  8
0
 10
-6.56395
 20
962.99
 11
-7.1869
 21
962.911
  0
LINE
  8
0
 10
-7.1869
 20
962.911
 11
-7.79507
 21
962.755
  0
LINE
  8
0
 10
-7.79507
 20
962.755
 11
-8.37889
 21
962.524
  0
LINE
  8
0
 10
-8.37889
 20
962.524
 11
-8.92912
 21
962.222
  0
LINE
  8
0
 10
-8.92912
 20
962.222
 11
-9.43712
 21
961.853
  0
LINE
  8
0
 10
-9.43712
 20
961.853
 11
-9.89484
 21
961.423
  0
LINE
  8
0
 10
-9.89484
 20
961.423
 11
-10.2951
 21
960.939
  0
LINE
  8
0
 10
-10.2951
 20
960.939
 11
-10.6315
 21
960.409
  0
LINE
  8
0
 10
-10.6315
 20
960.409
 11
-10.8989
 21
959.841
  0
LINE
  8
0
 10
-10.8989
 20
959.841
 11
-11.0929
 21
959.243
  0
LINE
  8
0
 10
-11.0929
 20
959.243
 11
-11.2106
 21
958.627
  0
LINE
  8
0
 10
-11.2106
 20
958.627
 11
-11.25
 21
958
  0
LINE
  8
0
 10
-11.25
 20
958
 11
-11.25
 21
848
  0
LINE
  8
0
 10
-11.25
 20
848
 11
-11.2106
 21
847.373
  0
LINE
  8
0
 10
-11.2106
 20
847.373
 11
-11.0929
 21
846.757
  0
LINE
  8
0
 10
-11.0929
 20
846.757
 11
-10.8989
 21
846.159
  0
LINE
  8
0
 10
-10.8989
 20
846.159
 11
-10.6315
 21
845.591
  0
LINE
  8
0
 10
-10.6315
 20
845.591
 11
-10.2951
 21
845.061
  0
LINE
  8
0
 10
-10.2951
 20
845.061
 11
-9.89484
 21
844.577
  0
LINE
  8
0
 10
-9.89484
 20
844.577
 11
-9.43712
 21
844.147
  0
LINE
  8
0
 10
-9.43712
 20
844.147
 11
-8.92912
 21
843.778
  0
LINE
  8
0
 10
-8.92912
 20
843.778
 11
-8.37889
 21
843.476
  0
LINE
  8
0
 10
-8.37889
 20
843.476
 11
-7.79507
 21
843.245
  0
LINE
  8
0
 10
-7.79507
 20
843.245
 11
-7.1869
 21
843.089
  0
LINE
  8
0
 10
-7.1869
 20
843.089
 11
-6.56395
 21
843.01
  0
LINE
  8
0
 10
-6.56395
 20
843.01
 11
6.56395
 21
843.01
  0
LINE
  8
0
 10
6.56395
 20
843.01
 11
7.1869
 21
843.089
  0
LINE
  8
0
 10
-6.00116
 20
844.508
 11
-6.49951
 21
844.571
  0
LINE
  8
0
 10
-6.49951
 20
844.571
 11
-6.98605
 21
844.696
  0
LINE
  8
0
 10
-6.98605
 20
844.696
 11
-7.45311
 21
844.881
  0
LINE
  8
0
 10
-7.45311
 20
844.881
 11
-7.8933
 21
845.123
  0
LINE
  8
0
 10
-7.8933
 20
845.123
 11
-8.29968
 21
845.418
  0
LINE
  8
0
 10
-8.29968
 20
845.418
 11
-8.66586
 21
845.762
  0
LINE
  8
0
 10
-8.66586
 20
845.762
 11
-8.98605
 21
846.149
  0
LINE
  8
0
 10
-8.98605
 20
846.149
 11
-9.25522
 21
846.573
  0
LINE
  8
0
 10
-9.25522
 20
846.573
 11
-9.4691
 21
847.028
  0
LINE
  8
0
 10
-9.4691
 20
847.028
 11
-9.62433
 21
847.505
  0
LINE
  8
0
 10
-9.62433
 20
847.505
 11
-9.71844
 21
847.999
  0
LINE
  8
0
 10
-9.71844
 20
847.999
 11
-9.75
 21
848.5
  0
LINE
  8
0
 10
-9.75
 20
848.5
 11
-9.75
 21
957.5
  0
LINE
  8
0
 10
-9.75
 20
957.5
 11
-9.71844
 21
958.001
  0
LINE
  8
0
 10
-9.71844
 20
958.001
 11
-9.62433
 21
958.495
  0
LINE
  8
0
 10
-9.62433
 20
958.495
 11
-9.4691
 21
958.972
  0
LINE
  8
0
 10
-9.4691
 20
958.972
 11
-9.25522
 21
959.427
  0
LINE
  8
0
 10
-9.25522
 20
959.427
 11
-8.98605
 21
959.851
  0
LINE
  8
0
 10
-8.98605
 20
959.851
 11
-8.66586
 21
960.238
  0
LINE
  8
0
 10
-8.66586
 20
960.238
 11
-8.29968
 21
960.582
  0
LINE
  8
0
 10
-8.29968
 20
960.582
 11
-7.8933
 21
960.877
  0
LINE
  8
0
 10
-7.8933
 20
960.877
 11
-7.45311
 21
961.119
  0
LINE
  8
0
 10
-7.45311
 20
961.119
 11
-6.98605
 21
961.304
  0
LINE
  8
0
 10
-6.98605
 20
961.304
 11
-6.49951
 21
961.429
  0
LINE
  8
0
 10
-6.49951
 20
961.429
 11
-6.00116
 21
961.492
  0
LINE
  8
0
 10
-6.00116
 20
961.492
 11
6.00116
 21
961.492
  0
LINE
  8
0
 10
6.00116
 20
961.492
 11
6.49951
 21
961.429
  0
LINE
  8
0
 10
6.49951
 20
961.429
 11
6.98605
 21
961.304
  0
LINE
  8
0
 10
6.98605
 20
961.304
 11
7.45311
 21
961.119
  0
LINE
  8
0
 10
7.45311
 20
961.119
 11
7.8933
 21
960.877
  0
LINE
  8
0
 10
7.8933
 20
960.877
 11
8.29968
 21
960.582
  0
LINE
  8
0
 10
8.29968
 20
960.582
 11
8.66586
 21
960.238
  0
LINE
  8
0
 10
8.66586
 20
960.238
 11
8.98605
 21
959.851
  0
LINE
  8
0
 10
8.98605
 20
959.851
 11
9.25522
 21
959.427
  0
LINE
  8
0
 10
9.25522
 20
959.427
 11
9.4691
 21
958.972
  0
LINE
  8
0
 10
9.4691
 20
958.972
 11
9.62433
 21
958.495
  0
LINE
  8
0
 10
9.62433
 20
958.495
 11
9.71844
 21
958.001
  0
LINE
  8
0
 10
9.71844
 20
958.001
 11
9.75
 21
957.5
  0
LINE
  8
0
 10
9.75
 20
957.5
 11
9.75
 21
848.5
  0
LINE
  8
0
 10
9.75
 20
848.5
 11
9.71844
 21
847.999
  0
LINE
  8
0
 10
9.71844
 20
847.999
 11
9.62433
 21
847.505
  0
LINE
  8
0
 10
9.62433
 20
847.505
 11
9.4691
 21
847.028
  0
LINE
  8
0
 10
9.4691
 20
847.028
 11
9.25522
 21
846.573
  0
LINE
  8
0
 10
9.25522
 20
846.573
 11
8.98605
 21
846.149
  0
LINE
  8
0
 10
8.98605
 20
846.149
 11
8.66586
 21
845.762
  0
LINE
  8
0
 10
8.66586
 20
845.762
 11
8.29968
 21
845.418
  0
LINE
  8
0
 10
8.29968
 20
845.418
 11
7.8933
 21
845.123
  0
LINE
  8
0
 10
7.8933
 20
845.123
 11
7.45311
 21
844.881
  0
LINE
  8
0
 10
7.45311
 20
844.881
 11
6.98605
 21
844.696
  0
LINE
  8
0
 10
6.98605
 20
844.696
 11
6.49951
 21
844.571
  0
LINE
  8
0
 10
6.49951
 20
844.571
 11
6.00116
 21
844.508
  0
LINE
  8
0
 10
6.00116
 20
844.508
 11
-6.00116
 21
844.508
  0
LINE
  8
0
 10
7.1869
 20
714.089
 11
7.79507
 21
714.245
  0
LINE
  8
0
 10
7.79507
 20
714.245
 11
8.37889
 21
714.476
  0
LINE
  8
0
 10
8.37889
 20
714.476
 11
8.92912
 21
714.778
  0
LINE
  8
0
 10
8.92912
 20
714.778
 11
9.43712
 21
715.147
  0
LINE
  8
0
 10
9.43712
 20
715.147
 11
9.89484
 21
715.577
  0
LINE
  8
0
 10
9.89484
 20
715.577
 11
10.2951
 21
716.061
  0
LINE
  8
0
 10
10.2951
 20
716.061
 11
10.6315
 21
716.591
  0
LINE
  8
0
 10
10.6315
 20
716.591
 11
10.8989
 21
717.159
  0
LINE
  8
0
 10
10.8989
 20
717.159
 11
11.0929
 21
717.757
  0
LINE
  8
0
 10
11.0929
 20
717.757
 11
11.2106
 21
718.373
  0
LINE
  8
0
 10
11.2106
 20
718.373
 11
11.25
 21
719
  0
LINE
  8
0
 10
11.25
 20
719
 11
11.25
 21
829
  0
LINE
  8
0
 10
11.25
 20
829
 11
11.2106
 21
829.627
  0
LINE
  8
0
 10
11.2106
 20
829.627
 11
11.0929
 21
830.243
  0
LINE
  8
0
 10
11.0929
 20
830.243
 11
10.8989
 21
830.841
  0
LINE
  8
0
 10
10.8989
 20
830.841
 11
10.6315
 21
831.409
  0
LINE
  8
0
 10
10.6315
 20
831.409
 11
10.2951
 21
831.939
  0
LINE
  8
0
 10
10.2951
 20
831.939
 11
9.89484
 21
832.423
  0
LINE
  8
0
 10
9.89484
 20
832.423
 11
9.43712
 21
832.853
  0
LINE
  8
0
 10
9.43712
 20
832.853
 11
8.92912
 21
833.222
  0
LINE
  8
0
 10
8.92912
 20
833.222
 11
8.37889
 21
833.524
  0
LINE
  8
0
 10
8.37889
 20
833.524
 11
7.79507
 21
833.755
  0
LINE
  8
0
 10
7.79507
 20
833.755
 11
7.1869
 21
833.911
  0
LINE
  8
0
 10
7.1869
 20
833.911
 11
6.56395
 21
833.99
  0
LINE
  8
0
 10
6.56395
 20
833.99
 11
-6.56395
 21
833.99
  0
LINE
  8
0
 10
-6.56395
 20
833.99
 11
-7.1869
 21
833.911
  0
LINE
  8
0
 10
-7.1869
 20
833.911
 11
-7.79507
 21
833.755
  0
LINE
  8
0
 10
-7.79507
 20
833.755
 11
-8.37889
 21
833.524
  0
LINE
  8
0
 10
-8.37889
 20
833.524
 11
-8.92912
 21
833.222
  0
LINE
  8
0
 10
-8.92912
 20
833.222
 11
-9.43712
 21
832.853
  0
LINE
  8
0
 10
-9.43712
 20
832.853
 11
-9.89484
 21
832.423
  0
LINE
  8
0
 10
-9.89484
 20
832.423
 11
-10.2951
 21
831.939
  0
LINE
  8
0
 10
-10.2951
 20
831.939
 11
-10.6315
 21
831.409
  0
LINE
  8
0
 10
-10.6315
 20
831.409
 11
-10.8989
 21
830.841
  0
LINE
  8
0
 10
-10.8989
 20
830.841
 11
-11.0929
 21
830.243
  0
LINE
  8
0
 10
-11.0929
 20
830.243
 11
-11.2106
 21
829.627
  0
LINE
  8
0
 10
-11.2106
 20
829.627
 11
-11.25
 21
829
  0
LINE
  8
0
 10
-11.25
 20
829
 11
-11.25
 21
719
  0
LINE
  8
0
 10
-11.25
 20
719
 11
-11.2106
 21
718.373
  0
LINE
  8
0
 10
-11.2106
 20
718.373
 11
-11.0929
 21
717.757
  0
LINE
  8
0
 10
-11.0929
 20
717.757
 11
-10.8989
 21
717.159
  0
LINE
  8
0
 10
-10.8989
 20
717.159
 11
-10.6315
 21
716.591
  0
LINE
  8
0
 10
-10.6315
 20
716.591
 11
-10.2951
 21
716.061
  0
LINE
  8
0
 10
-10.2951
 20
716.061
 11
-9.89484
 21
715.577
  0
LINE
  8
0
 10
-9.89484
 20
715.577
 11
-9.43712
 21
715.147
  0
LINE
  8
0
 10
-9.43712
 20
715.147
 11
-8.92912
 21
714.778
  0
LINE
  8
0
 10
-8.92912
 20
714.778
 11
-8.37889
 21
714.476
  0
LINE
  8
0
 10
-8.37889
 20
714.476
 11
-7.79507
 21
714.245
  0
LINE
  8
0
 10
-7.79507
 20
714.245
 11
-7.1869
 21
714.089
  0
LINE
  8
0
 10
-7.1869
 20
714.089
 11
-6.56395
 21
714.01
  0
LINE
  8
0
 10
-6.56395
 20
714.01
 11
6.56395
 21
714.01
  0
LINE
  8
0
 10
6.56395
 20
714.01
 11
7.1869
 21
714.089
  0
LINE
  8
0
 10
-5.94545
 20
716.393
 11
-6.3333
 21
716.442
  0
LINE
  8
0
 10
-6.3333
 20
716.442
 11
-6.71194
 21
716.539
  0
LINE
  8
0
 10
-6.71194
 20
716.539
 11
-7.07541
 21
716.683
  0
LINE
  8
0
 10
-7.07541
 20
716.683
 11
-7.41798
 21
716.872
  0
LINE
  8
0
 10
-7.41798
 20
716.872
 11
-7.73424
 21
717.101
  0
LINE
  8
0
 10
-7.73424
 20
717.101
 11
-8.01921
 21
717.369
  0
LINE
  8
0
 10
-8.01921
 20
717.369
 11
-8.2684
 21
717.67
  0
LINE
  8
0
 10
-8.2684
 20
717.67
 11
-8.47786
 21
718
  0
LINE
  8
0
 10
-8.47786
 20
718
 11
-8.64432
 21
718.354
  0
LINE
  8
0
 10
-8.64432
 20
718.354
 11
-8.76512
 21
718.726
  0
LINE
  8
0
 10
-8.76512
 20
718.726
 11
-8.83836
 21
719.11
  0
LINE
  8
0
 10
-8.83836
 20
719.11
 11
-8.86292
 21
719.5
  0
LINE
  8
0
 10
-8.86292
 20
719.5
 11
-8.86292
 21
828.5
  0
LINE
  8
0
 10
-8.86292
 20
828.5
 11
-8.83836
 21
828.89
  0
LINE
  8
0
 10
-8.83836
 20
828.89
 11
-8.76512
 21
829.274
  0
LINE
  8
0
 10
-8.76512
 20
829.274
 11
-8.64432
 21
829.646
  0
LINE
  8
0
 10
-8.64432
 20
829.646
 11
-8.47786
 21
830
  0
LINE
  8
0
 10
-8.47786
 20
830
 11
-8.2684
 21
830.33
  0
LINE
  8
0
 10
-8.2684
 20
830.33
 11
-8.01921
 21
830.631
  0
LINE
  8
0
 10
-8.01921
 20
830.631
 11
-7.73424
 21
830.899
  0
LINE
  8
0
 10
-7.73424
 20
830.899
 11
-7.41798
 21
831.128
  0
LINE
  8
0
 10
-7.41798
 20
831.128
 11
-7.07541
 21
831.317
  0
LINE
  8
0
 10
-7.07541
 20
831.317
 11
-6.71194
 21
831.461
  0
LINE
  8
0
 10
-6.71194
 20
831.461
 11
-6.3333
 21
831.558
  0
LINE
  8
0
 10
-6.3333
 20
831.558
 11
-5.94545
 21
831.607
  0
LINE
  8
0
 10
-5.94545
 20
831.607
 11
5.94545
 21
831.607
  0
LINE
  8
0
 10
5.94545
 20
831.607
 11
6.3333
 21
831.558
  0
LINE
  8
0
 10
6.3333
 20
831.558
 11
6.71194
 21
831.461
  0
LINE
  8
0
 10
6.71194
 20
831.461
 11
7.07541
 21
831.317
  0
LINE
  8
0
 10
7.07541
 20
831.317
 11
7.41798
 21
831.128
  0
LINE
  8
0
 10
7.41798
 20
831.128
 11
7.73424
 21
830.899
  0
LINE
  8
0
 10
7.73424
 20
830.899
 11
8.01921
 21
830.631
  0
LINE
  8
0
 10
8.01921
 20
830.631
 11
8.2684
 21
830.33
  0
LINE
  8
0
 10
8.2684
 20
830.33
 11
8.47786
 21
830
  0
LINE
  8
0
 10
8.47786
 20
830
 11
8.64432
 21
829.646
  0
LINE
  8
0
 10
8.64432
 20
829.646
 11
8.76512
 21
829.274
  0
LINE
  8
0
 10
8.76512
 20
829.274
 11
8.83836
 21
828.89
  0
LINE
  8
0
 10
8.83836
 20
828.89
 11
8.86292
 21
828.5
  0
LINE
  8
0
 10
8.86292
 20
828.5
 11
8.86292
 21
719.5
  0
LINE
  8
0
 10
8.86292
 20
719.5
 11
8.83836
 21
719.11
  0
LINE
  8
0
 10
8.83836
 20
719.11
 11
8.76512
 21
718.726
  0
LINE
  8
0
 10
8.76512
 20
718.726
 11
8.64432
 21
718.354
  0
LINE
  8
0
 10
8.64432
 20
718.354
 11
8.47786
 21
718
  0
LINE
  8
0
 10
8.47786
 20
718
 11
8.2684
 21
717.67
  0
LINE
  8
0
 10
8.2684
 20
717.67
 11
8.01921
 21
717.369
  0
LINE
  8
0
 10
8.01921
 20
717.369
 11
7.73424
 21
717.101
  0
LINE
  8
0
 10
7.73424
 20
717.101
 11
7.41798
 21
716.872
  0
LINE
  8
0
 10
7.41798
 20
716.872
 11
7.07541
 21
716.683
  0
LINE
  8
0
 10
7.07541
 20
716.683
 11
6.71194
 21
716.539
  0
LINE
  8
0
 10
6.71194
 20
716.539
 11
6.3333
 21
716.442
  0
LINE
  8
0
 10
6.3333
 20
716.442
 11
5.94545
 21
716.393
  0
LINE
  8
0
 10
5.94545
 20
716.393
 11
-5.94545
 21
716.393
  0
LINE
  8
0
 10
7.1869
 20
585.089
 11
7.79507
 21
585.245
  0
LINE
  8
0
 10
7.79507
 20
585.245
 11
8.37889
 21
585.476
  0
LINE
  8
0
 10
8.37889
 20
585.476
 11
8.92912
 21
585.778
  0
LINE
  8
0
 10
8.92912
 20
585.778
 11
9.43712
 21
586.147
  0
LINE
  8
0
 10
9.43712
 20
586.147
 11
9.89484
 21
586.577
  0
LINE
  8
0
 10
9.89484
 20
586.577
 11
10.2951
 21
587.061
  0
LINE
  8
0
 10
10.2951
 20
587.061
 11
10.6315
 21
587.591
  0
LINE
  8
0
 10
10.6315
 20
587.591
 11
10.8989
 21
588.159
  0
LINE
  8
0
 10
10.8989
 20
588.159
 11
11.0929
 21
588.757
  0
LINE
  8
0
 10
11.0929
 20
588.757
 11
11.2106
 21
589.373
  0
LINE
  8
0
 10
11.2106
 20
589.373
 11
11.25
 21
590
  0
LINE
  8
0
 10
11.25
 20
590
 11
11.25
 21
700
  0
LINE
  8
0
 10
11.25
 20
700
 11
11.2106
 21
700.627
  0
LINE
  8
0
 10
11.2106
 20
700.627
 11
11.0929
 21
701.243
  0
LINE
  8
0
 10
11.0929
 20
701.243
 11
10.8989
 21
701.841
  0
LINE
  8
0
 10
10.8989
 20
701.841
 11
10.6315
 21
702.409
  0
LINE
  8
0
 10
10.6315
 20
702.409
 11
10.2951
 21
702.939
  0
LINE
  8
0
 10
10.2951
 20
702.939
 11
9.89484
 21
703.423
  0
LINE
  8
0
 10
9.89484
 20
703.423
 11
9.43712
 21
703.853
  0
LINE
  8
0
 10
9.43712
 20
703.853
 11
8.92912
 21
704.222
  0
LINE
  8
0
 10
8.92912
 20
704.222
 11
8.37889
 21
704.524
  0
LINE
  8
0
 10
8.37889
 20
704.524
 11
7.79507
 21
704.755
  0
LINE
  8
0
 10
7.79507
 20
704.755
 11
7.1869
 21
704.911
  0
LINE
  8
0
 10
7.1869
 20
704.911
 11
6.56395
 21
704.99
  0
LINE
  8
0
 10
6.56395
 20
704.99
 11
-6.56395
 21
704.99
  0
LINE
  8
0
 10
-6.56395
 20
704.99
 11
-7.1869
 21
704.911
  0
LINE
  8
0
 10
-7.1869
 20
704.911
 11
-7.79507
 21
704.755
  0
LINE
  8
0
 10
-7.79507
 20
704.755
 11
-8.37889
 21
704.524
  0
LINE
  8
0
 10
-8.37889
 20
704.524
 11
-8.92912
 21
704.222
  0
LINE
  8
0
 10
-8.92912
 20
704.222
 11
-9.43712
 21
703.853
  0
LINE
  8
0
 10
-9.43712
 20
703.853
 11
-9.89484
 21
703.423
  0
LINE
  8
0
 10
-9.89484
 20
703.423
 11
-10.2951
 21
702.939
  0
LINE
  8
0
 10
-10.2951
 20
702.939
 11
-10.6315
 21
702.409
  0
LINE
  8
0
 10
-10.6315
 20
702.409
 11
-10.8989
 21
701.841
  0
LINE
  8
0
 10
-10.8989
 20
701.841
 11
-11.0929
 21
701.243
  0
LINE
  8
0
 10
-11.0929
 20
701.243
 11
-11.2106
 21
700.627
  0
LINE
  8
0
 10
-11.2106
 20
700.627
 11
-11.25
 21
700
  0
LINE
  8
0
 10
-11.25
 20
700
 11
-11.25
 21
590
  0
LINE
  8
0
 10
-11.25
 20
590
 11
-11.2106
 21
589.373
  0
LINE
  8
0
 10
-11.2106
 20
589.373
 11
-11.0929
 21
588.757
  0
LINE
  8
0
 10
-11.0929
 20
588.757
 11
-10.8989
 21
588.159
  0
LINE
  8
0
 10
-10.8989
 20
588.159
 11
-10.6315
 21
587.591
  0
LINE
  8
0
 10
-10.6315
 20
587.591
 11
-10.2951
 21
587.061
  0
LINE
  8
0
 10
-10.2951
 20
587.061
 11
-9.89484
 21
586.577
  0
LINE
  8
0
 10
-9.89484
 20
586.577
 11
-9.43712
 21
586.147
  0
LINE
  8
0
 10
-9.43712
 20
586.147
 11
-8.92912
 21
585.778
  0
LINE
  8
0
 10
-8.92912
 20
585.778
 11
-8.37889
 21
585.476
  0
LINE
  8
0
 10
-8.37889
 20
585.476
 11
-7.79507
 21
585.245
  0
LINE
  8
0
 10
-7.79507
 20
585.245
 11
-7.1869
 21
585.089
  0
LINE
  8
0
 10
-7.1869
 20
585.089
 11
-6.56395
 21
585.01
  0
LINE
  8
0
 10
-6.56395
 20
585.01
 11
6.56395
 21
585.01
  0
LINE
  8
0
 10
6.56395
 20
585.01
 11
7.1869
 21
585.089
  0
LINE
  8
0
 10
3.61592
 20
695.369
 11
3.34988
 21
695.403
  0
LINE
  8
0
 10
3.34988
 20
695.403
 11
3.09015
 21
695.469
  0
LINE
  8
0
 10
3.09015
 20
695.469
 11
2.84084
 21
695.568
  0
LINE
  8
0
 10
2.84084
 20
695.568
 11
2.60585
 21
695.697
  0
LINE
  8
0
 10
2.60585
 20
695.697
 11
2.3889
 21
695.855
  0
LINE
  8
0
 10
2.3889
 20
695.855
 11
2.19344
 21
696.038
  0
LINE
  8
0
 10
2.19344
 20
696.038
 11
2.02251
 21
696.245
  0
LINE
  8
0
 10
2.02251
 20
696.245
 11
1.87881
 21
696.471
  0
LINE
  8
0
 10
1.87881
 20
696.471
 11
1.76465
 21
696.714
  0
LINE
  8
0
 10
1.76465
 20
696.714
 11
1.68178
 21
696.969
  0
LINE
  8
0
 10
1.68178
 20
696.969
 11
1.63153
 21
697.232
  0
LINE
  8
0
 10
1.63153
 20
697.232
 11
1.6147
 21
697.5
  0
LINE
  8
0
 10
1.6147
 20
697.5
 11
1.63153
 21
697.768
  0
LINE
  8
0
 10
1.63153
 20
697.768
 11
1.68178
 21
698.031
  0
LINE
  8
0
 10
1.68178
 20
698.031
 11
1.76465
 21
698.286
  0
LINE
  8
0
 10
1.76465
 20
698.286
 11
1.87881
 21
698.529
  0
LINE
  8
0
 10
1.87881
 20
698.529
 11
2.02251
 21
698.755
  0
LINE
  8
0
 10
2.02251
 20
698.755
 11
2.19344
 21
698.962
  0
LINE
  8
0
 10
2.19344
 20
698.962
 11
2.3889
 21
699.145
  0
LINE
  8
0
 10
2.3889
 20
699.145
 11
2.60585
 21
699.303
  0
LINE
  8
0
 10
2.60585
 20
699.303
 11
2.84084
 21
699.432
  0
LINE
  8
0
 10
2.84084
 20
699.432
 11
3.09015
 21
699.531
  0
LINE
  8
0
 10
3.09015
 20
699.531
 11
3.34988
 21
699.597
  0
LINE
  8
0
 10
3.34988
 20
699.597
 11
3.61592
 21
699.631
  0
LINE
  8
0
 10
3.61592
 20
699.631
 11
3.88406
 21
699.631
  0
LINE
  8
0
 10
3.88406
 20
699.631
 11
4.1501
 21
699.597
  0
LINE
  8
0
 10
4.1501
 20
699.597
 11
4.40984
 21
699.531
  0
LINE
  8
0
 10
4.40984
 20
699.531
 11
4.65915
 21
699.432
  0
LINE
  8
0
 10
4.65915
 20
699.432
 11
4.89413
 21
699.303
  0
LINE
  8
0
 10
4.89413
 20
699.303
 11
5.11108
 21
699.145
  0
LINE
  8
0
 10
5.11108
 20
699.145
 11
5.30655
 21
698.962
  0
LINE
  8
0
 10
5.30655
 20
698.962
 11
5.47748
 21
698.755
  0
LINE
  8
0
 10
5.47748
 20
698.755
 11
5.62117
 21
698.529
  0
LINE
  8
0
 10
5.62117
 20
698.529
 11
5.73534
 21
698.286
  0
LINE
  8
0
 10
5.73534
 20
698.286
 11
5.81821
 21
698.031
  0
LINE
  8
0
 10
5.81821
 20
698.031
 11
5.86845
 21
697.768
  0
LINE
  8
0
 10
5.86845
 20
697.768
 11
5.88528
 21
697.5
  0
LINE
  8
0
 10
5.88528
 20
697.5
 11
5.86845
 21
697.232
  0
LINE
  8
0
 10
5.86845
 20
697.232
 11
5.81821
 21
696.969
  0
LINE
  8
0
 10
5.81821
 20
696.969
 11
5.73534
 21
696.714
  0
LINE
  8
0
 10
5.73534
 20
696.714
 11
5.62117
 21
696.471
  0
LINE
  8
0
 10
5.62117
 20
696.471
 11
5.47748
 21
696.245
  0
LINE
  8
0
 10
5.47748
 20
696.245
 11
5.30655
 21
696.038
  0
LINE
  8
0
 10
5.30655
 20
696.038
 11
5.11108
 21
695.855
  0
LINE
  8
0
 10
5.11108
 20
695.855
 11
4.89413
 21
695.697
  0
LINE
  8
0
 10
4.89413
 20
695.697
 11
4.65915
 21
695.568
  0
LINE
  8
0
 10
4.65915
 20
695.568
 11
4.40984
 21
695.469
  0
LINE
  8
0
 10
4.40984
 20
695.469
 11
4.1501
 21
695.403
  0
LINE
  8
0
 10
4.1501
 20
695.403
 11
3.88406
 21
695.369
  0
LINE
  8
0
 10
3.88406
 20
695.369
 11
3.61592
 21
695.369
  0
LINE
  8
0
 10
-3.88406
 20
695.369
 11
-4.1501
 21
695.403
  0
LINE
  8
0
 10
-4.1501
 20
695.403
 11
-4.40984
 21
695.469
  0
LINE
  8
0
 10
-4.40984
 20
695.469
 11
-4.65915
 21
695.568
  0
LINE
  8
0
 10
-4.65915
 20
695.568
 11
-4.89413
 21
695.697
  0
LINE
  8
0
 10
-4.89413
 20
695.697
 11
-5.11108
 21
695.855
  0
LINE
  8
0
 10
-5.11108
 20
695.855
 11
-5.30655
 21
696.038
  0
LINE
  8
0
 10
-5.30655
 20
696.038
 11
-5.47748
 21
696.245
  0
LINE
  8
0
 10
-5.47748
 20
696.245
 11
-5.62117
 21
696.471
  0
LINE
  8
0
 10
-5.62117
 20
696.471
 11
-5.73534
 21
696.714
  0
LINE
  8
0
 10
-5.73534
 20
696.714
 11
-5.81821
 21
696.969
  0
LINE
  8
0
 10
-5.81821
 20
696.969
 11
-5.86845
 21
697.232
  0
LINE
  8
0
 10
-5.86845
 20
697.232
 11
-5.88528
 21
697.5
  0
LINE
  8
0
 10
-5.88528
 20
697.5
 11
-5.86845
 21
697.768
  0
LINE
  8
0
 10
-5.86845
 20
697.768
 11
-5.81821
 21
698.031
  0
LINE
  8
0
 10
-5.81821
 20
698.031
 11
-5.73534
 21
698.286
  0
LINE
  8
0
 10
-5.73534
 20
698.286
 11
-5.62117
 21
698.529
  0
LINE
  8
0
 10
-5.62117
 20
698.529
 11
-5.47748
 21
698.755
  0
LINE
  8
0
 10
-5.47748
 20
698.755
 11
-5.30655
 21
698.962
  0
LINE
  8
0
 10
-5.30655
 20
698.962
 11
-5.11108
 21
699.145
  0
LINE
  8
0
 10
-5.11108
 20
699.145
 11
-4.89413
 21
699.303
  0
LINE
  8
0
 10
-4.89413
 20
699.303
 11
-4.65915
 21
699.432
  0
LINE
  8
0
 10
-4.65915
 20
699.432
 11
-4.40984
 21
699.531
  0
LINE
  8
0
 10
-4.40984
 20
699.531
 11
-4.1501
 21
699.597
  0
LINE
  8
0
 10
-4.1501
 20
699.597
 11
-3.88406
 21
699.631
  0
LINE
  8
0
 10
-3.88406
 20
699.631
 11
-3.61592
 21
699.631
  0
LINE
  8
0
 10
-3.61592
 20
699.631
 11
-3.34988
 21
699.597
  0
LINE
  8
0
 10
-3.34988
 20
699.597
 11
-3.09015
 21
699.531
  0
LINE
  8
0
 10
-3.09015
 20
699.531
 11
-2.84084
 21
699.432
  0
LINE
  8
0
 10
-2.84084
 20
699.432
 11
-2.60585
 21
699.303
  0
LINE
  8
0
 10
-2.60585
 20
699.303
 11
-2.3889
 21
699.145
  0
LINE
  8
0
 10
-2.3889
 20
699.145
 11
-2.19344
 21
698.962
  0
LINE
  8
0
 10
-2.19344
 20
698.962
 11
-2.02251
 21
698.755
  0
LINE
  8
0
 10
-2.02251
 20
698.755
 11
-1.87881
 21
698.529
  0
LINE
  8
0
 10
-1.87881
 20
698.529
 11
-1.76465
 21
698.286
  0
LINE
  8
0
 10
-1.76465
 20
698.286
 11
-1.68178
 21
698.031
  0
LINE
  8
0
 10
-1.68178
 20
698.031
 11
-1.63153
 21
697.768
  0
LINE
  8
0
 10
-1.63153
 20
697.768
 11
-1.6147
 21
697.5
  0
LINE
  8
0
 10
-1.6147
 20
697.5
 11
-1.63153
 21
697.232
  0
LINE
  8
0
 10
-1.63153
 20
697.232
 11
-1.68178
 21
696.969
  0
LINE
  8
0
 10
-1.68178
 20
696.969
 11
-1.76465
 21
696.714
  0
LINE
  8
0
 10
-1.76465
 20
696.714
 11
-1.87881
 21
696.471
  0
LINE
  8
0
 10
-1.87881
 20
696.471
 11
-2.02251
 21
696.245
  0
LINE
  8
0
 10
-2.02251
 20
696.245
 11
-2.19344
 21
696.038
  0
LINE
  8
0
 10
-2.19344
 20
696.038
 11
-2.3889
 21
695.855
  0
LINE
  8
0
 10
-2.3889
 20
695.855
 11
-2.60585
 21
695.697
  0
LINE
  8
0
 10
-2.60585
 20
695.697
 11
-2.84084
 21
695.568
  0
LINE
  8
0
 10
-2.84084
 20
695.568
 11
-3.09015
 21
695.469
  0
LINE
  8
0
 10
-3.09015
 20
695.469
 11
-3.34988
 21
695.403
  0
LINE
  8
0
 10
-3.34988
 20
695.403
 11
-3.61592
 21
695.369
  0
LINE
  8
0
 10
-3.61592
 20
695.369
 11
-3.88406
 21
695.369
  0
LINE
  8
0
 10
3.61592
 20
590.369
 11
3.34988
 21
590.403
  0
LINE
  8
0
 10
3.34988
 20
590.403
 11
3.09015
 21
590.469
  0
LINE
  8
0
 10
3.09015
 20
590.469
 11
2.84084
 21
590.568
  0
LINE
  8
0
 10
2.84084
 20
590.568
 11
2.60585
 21
590.697
  0
LINE
  8
0
 10
2.60585
 20
590.697
 11
2.3889
 21
590.855
  0
LINE
  8
0
 10
2.3889
 20
590.855
 11
2.19344
 21
591.038
  0
LINE
  8
0
 10
2.19344
 20
591.038
 11
2.02251
 21
591.245
  0
LINE
  8
0
 10
2.02251
 20
591.245
 11
1.87881
 21
591.471
  0
LINE
  8
0
 10
1.87881
 20
591.471
 11
1.76465
 21
591.714
  0
LINE
  8
0
 10
1.76465
 20
591.714
 11
1.68178
 21
591.969
  0
LINE
  8
0
 10
1.68178
 20
591.969
 11
1.63153
 21
592.232
  0
LINE
  8
0
 10
1.63153
 20
592.232
 11
1.6147
 21
592.5
  0
LINE
  8
0
 10
1.6147
 20
592.5
 11
1.63153
 21
592.768
  0
LINE
  8
0
 10
1.63153
 20
592.768
 11
1.68178
 21
593.031
  0
LINE
  8
0
 10
1.68178
 20
593.031
 11
1.76465
 21
593.286
  0
LINE
  8
0
 10
1.76465
 20
593.286
 11
1.87881
 21
593.529
  0
LINE
  8
0
 10
1.87881
 20
593.529
 11
2.02251
 21
593.755
  0
LINE
  8
0
 10
2.02251
 20
593.755
 11
2.19344
 21
593.962
  0
LINE
  8
0
 10
2.19344
 20
593.962
 11
2.3889
 21
594.145
  0
LINE
  8
0
 10
2.3889
 20
594.145
 11
2.60585
 21
594.303
  0
LINE
  8
0
 10
2.60585
 20
594.303
 11
2.84084
 21
594.432
  0
LINE
  8
0
 10
2.84084
 20
594.432
 11
3.09015
 21
594.531
  0
LINE
  8
0
 10
3.09015
 20
594.531
 11
3.34988
 21
594.597
  0
LINE
  8
0
 10
3.34988
 20
594.597
 11
3.61592
 21
594.631
  0
LINE
  8
0
 10
3.61592
 20
594.631
 11
3.88406
 21
594.631
  0
LINE
  8
0
 10
3.88406
 20
594.631
 11
4.1501
 21
594.597
  0
LINE
  8
0
 10
4.1501
 20
594.597
 11
4.40984
 21
594.531
  0
LINE
  8
0
 10
4.40984
 20
594.531
 11
4.65915
 21
594.432
  0
LINE
  8
0
 10
4.65915
 20
594.432
 11
4.89413
 21
594.303
  0
LINE
  8
0
 10
4.89413
 20
594.303
 11
5.11108
 21
594.145
  0
LINE
  8
0
 10
5.11108
 20
594.145
 11
5.30655
 21
593.962
  0
LINE
  8
0
 10
5.30655
 20
593.962
 11
5.47748
 21
593.755
  0
LINE
  8
0
 10
5.47748
 20
593.755
 11
5.62117
 21
593.529
  0
LINE
  8
0
 10
5.62117
 20
593.529
 11
5.73534
 21
593.286
  0
LINE
  8
0
 10
5.73534
 20
593.286
 11
5.81821
 21
593.031
  0
LINE
  8
0
 10
5.81821
 20
593.031
 11
5.86845
 21
592.768
  0
LINE
  8
0
 10
5.86845
 20
592.768
 11
5.88528
 21
592.5
  0
LINE
  8
0
 10
5.88528
 20
592.5
 11
5.86845
 21
592.232
  0
LINE
  8
0
 10
5.86845
 20
592.232
 11
5.81821
 21
591.969
  0
LINE
  8
0
 10
5.81821
 20
591.969
 11
5.73534
 21
591.714
  0
LINE
  8
0
 10
5.73534
 20
591.714
 11
5.62117
 21
591.471
  0
LINE
  8
0
 10
5.62117
 20
591.471
 11
5.47748
 21
591.245
  0
LINE
  8
0
 10
5.47748
 20
591.245
 11
5.30655
 21
591.038
  0
LINE
  8
0
 10
5.30655
 20
591.038
 11
5.11108
 21
590.855
  0
LINE
  8
0
 10
5.11108
 20
590.855
 11
4.89413
 21
590.697
  0
LINE
  8
0
 10
4.89413
 20
590.697
 11
4.65915
 21
590.568
  0
LINE
  8
0
 10
4.65915
 20
590.568
 11
4.40984
 21
590.469
  0
LINE
  8
0
 10
4.40984
 20
590.469
 11
4.1501
 21
590.403
  0
LINE
  8
0
 10
4.1501
 20
590.403
 11
3.88406
 21
590.369
  0
LINE
  8
0
 10
3.88406
 20
590.369
 11
3.61592
 21
590.369
  0
LINE
  8
0
 10
-3.88406
 20
590.369
 11
-4.1501
 21
590.403
  0
LINE
  8
0
 10
-4.1501
 20
590.403
 11
-4.40984
 21
590.469
  0
LINE
  8
0
 10
-4.40984
 20
590.469
 11
-4.65915
 21
590.568
  0
LINE
  8
0
 10
-4.65915
 20
590.568
 11
-4.89413
 21
590.697
  0
LINE
  8
0
 10
-4.89413
 20
590.697
 11
-5.11108
 21
590.855
  0
LINE
  8
0
 10
-5.11108
 20
590.855
 11
-5.30655
 21
591.038
  0
LINE
  8
0
 10
-5.30655
 20
591.038
 11
-5.47748
 21
591.245
  0
LINE
  8
0
 10
-5.47748
 20
591.245
 11
-5.62117
 21
591.471
  0
LINE
  8
0
 10
-5.62117
 20
591.471
 11
-5.73534
 21
591.714
  0
LINE
  8
0
 10
-5.73534
 20
591.714
 11
-5.81821
 21
591.969
  0
LINE
  8
0
 10
-5.81821
 20
591.969
 11
-5.86845
 21
592.232
  0
LINE
  8
0
 10
-5.86845
 20
592.232
 11
-5.88528
 21
592.5
  0
LINE
  8
0
 10
-5.88528
 20
592.5
 11
-5.86845
 21
592.768
  0
LINE
  8
0
 10
-5.86845
 20
592.768
 11
-5.81821
 21
593.031
  0
LINE
  8
0
 10
-5.81821
 20
593.031
 11
-5.73534
 21
593.286
  0
LINE
  8
0
 10
-5.73534
 20
593.286
 11
-5.62117
 21
593.529
  0
LINE
  8
0
 10
-5.62117
 20
593.529
 11
-5.47748
 21
593.755
  0
LINE
  8
0
 10
-5.47748
 20
593.755
 11
-5.30655
 21
593.962
  0
LINE
  8
0
 10
-5.30655
 20
593.962
 11
-5.11108
 21
594.145
  0
LINE
  8
0
 10
-5.11108
 20
594.145
 11
-4.89413
 21
594.303
  0
LINE
  8
0
 10
-4.89413
 20
594.303
 11
-4.65915
 21
594.432
  0
LINE
  8
0
 10
-4.65915
 20
594.432
 11
-4.40984
 21
594.531
  0
LINE
  8
0
 10
-4.40984
 20
594.531
 11
-4.1501
 21
594.597
  0
LINE
  8
0
 10
-4.1501
 20
594.597
 11
-3.88406
 21
594.631
  0
LINE
  8
0
 10
-3.88406
 20
594.631
 11
-3.61592
 21
594.631
  0
LINE
  8
0
 10
-3.61592
 20
594.631
 11
-3.34988
 21
594.597
  0
LINE
  8
0
 10
-3.34988
 20
594.597
 11
-3.09015
 21
594.531
  0
LINE
  8
0
 10
-3.09015
 20
594.531
 11
-2.84084
 21
594.432
  0
LINE
  8
0
 10
-2.84084
 20
594.432
 11
-2.60585
 21
594.303
  0
LINE
  8
0
 10
-2.60585
 20
594.303
 11
-2.3889
 21
594.145
  0
LINE
  8
0
 10
-2.3889
 20
594.145
 11
-2.19344
 21
593.962
  0
LINE
  8
0
 10
-2.19344
 20
593.962
 11
-2.02251
 21
593.755
  0
LINE
  8
0
 10
-2.02251
 20
593.755
 11
-1.87881
 21
593.529
  0
LINE
  8
0
 10
-1.87881
 20
593.529
 11
-1.76465
 21
593.286
  0
LINE
  8
0
 10
-1.76465
 20
593.286
 11
-1.68178
 21
593.031
  0
LINE
  8
0
 10
-1.68178
 20
593.031
 11
-1.63153
 21
592.768
  0
LINE
  8
0
 10
-1.63153
 20
592.768
 11
-1.6147
 21
592.5
  0
LINE
  8
0
 10
-1.6147
 20
592.5
 11
-1.63153
 21
592.232
  0
LINE
  8
0
 10
-1.63153
 20
592.232
 11
-1.68178
 21
591.969
  0
LINE
  8
0
 10
-1.68178
 20
591.969
 11
-1.76465
 21
591.714
  0
LINE
  8
0
 10
-1.76465
 20
591.714
 11
-1.87881
 21
591.471
  0
LINE
  8
0
 10
-1.87881
 20
591.471
 11
-2.02251
 21
591.245
  0
LINE
  8
0
 10
-2.02251
 20
591.245
 11
-2.19344
 21
591.038
  0
LINE
  8
0
 10
-2.19344
 20
591.038
 11
-2.3889
 21
590.855
  0
LINE
  8
0
 10
-2.3889
 20
590.855
 11
-2.60585
 21
590.697
  0
LINE
  8
0
 10
-2.60585
 20
590.697
 11
-2.84084
 21
590.568
  0
LINE
  8
0
 10
-2.84084
 20
590.568
 11
-3.09015
 21
590.469
  0
LINE
  8
0
 10
-3.09015
 20
590.469
 11
-3.34988
 21
590.403
  0
LINE
  8
0
 10
-3.34988
 20
590.403
 11
-3.61592
 21
590.369
  0
LINE
  8
0
 10
-3.61592
 20
590.369
 11
-3.88406
 21
590.369
  0
ENDSEC
  0
SECTION
  2
OBJECTS
  0
DICTIONARY
  0
ENDSEC
  0
EOF
