<?xml version="1.0" standalone="no"?>
<!DOCTYPE svg PUBLIC "-//W3C//DTD SVG 1.1//EN" "http://www.w3.org/Graphics/SVG/1.1/DTD/svg11.dtd">
<svg width="104mm" height="92mm" viewBox="-52 -7 104 92" xmlns="http://www.w3.org/2000/svg" version="1.1">
<title>OpenSCAD Model</title>
<path d="
M 2.23026,84.6729 L 6.95923,83.9728 L 11.3438,82.8061 L 15.3838,81.1726 L 19.0795,79.0725 L 22.4306,76.5056
 L 25.4374,73.472 L 28.0697,70.0043 L 30.2971,66.1356 L 32.1194,61.8659 L 33.5368,57.1952 L 34.5493,52.1234
 L 35.1567,46.6506 L 35.3592,40.7768 L 35.1456,34.835 L 34.5046,29.3414 L 33.4363,24.2962 L 31.9408,19.6992
 L 30.0179,15.5507 L 27.6677,11.8504 L 24.8902,8.59845 L 23.0548,6.99013 L 47.3139,6.99013 L 47.9369,6.91142
 L 48.5451,6.75528 L 49.1289,6.52412 L 49.6791,6.22163 L 50.1871,5.85255 L 50.6448,5.42273 L 51.0451,4.93892
 L 51.3815,4.40877 L 51.6489,3.84062 L 51.8429,3.24344 L 51.9606,2.62666 L 52,2 L 52,-2
 L 51.9606,-2.62666 L 51.8429,-3.24344 L 51.6489,-3.84062 L 51.3815,-4.40877 L 51.0451,-4.93892 L 50.6448,-5.42273
 L 50.1871,-5.85255 L 49.6791,-6.22163 L 49.1289,-6.52412 L 48.5451,-6.75528 L 47.9369,-6.91142 L 47.3139,-6.99013
 L -47.3139,-6.99013 L -47.9369,-6.91142 L -48.5451,-6.75528 L -49.1289,-6.52412 L -49.6791,-6.22163 L -50.1871,-5.85255
 L -50.6448,-5.42273 L -51.0451,-4.93892 L -51.3815,-4.40877 L -51.6489,-3.84062 L -51.8429,-3.24344 L -51.9606,-2.62666
 L -52,-2 L -52,2 L -51.9606,2.62666 L -51.8429,3.24344 L -51.6489,3.84062 L -51.3815,4.40877
 L -51.0451,4.93892 L -50.6448,5.42273 L -50.1871,5.85255 L -49.6791,6.22163 L -49.1289,6.52412 L -48.5451,6.75528
 L -47.9369,6.91142 L -47.3139,6.99013 L -29.9647,6.99013 L -29.9647,84.9062 L -2.84312,84.9062 z
M 6.04712,-0.373032 L 6.10533,-0.552185 L 6.18553,-0.722626 L 6.28647,-0.881668 L 6.40654,-1.02681 L 6.54385,-1.15576
 L 6.69626,-1.26648 L 6.86133,-1.35724 L 7.03647,-1.42657 L 7.21892,-1.47342 L 7.40581,-1.49704 L 7.59418,-1.49704
 L 7.78107,-1.47342 L 7.96352,-1.42657 L 8.13866,-1.35724 L 8.30373,-1.26648 L 8.45613,-1.15576 L 8.59344,-1.02681
 L 8.71352,-0.881668 L 8.81445,-0.722626 L 8.89465,-0.552185 L 8.95287,-0.373032 L 8.98816,-0.187988 L 9,-0
 L 8.98816,0.187988 L 8.95287,0.373032 L 8.89465,0.552185 L 8.81445,0.722626 L 8.71352,0.881668 L 8.59344,1.02681
 L 8.45613,1.15576 L 8.30373,1.26648 L 8.13866,1.35724 L 7.96352,1.42657 L 7.78107,1.47342 L 7.59418,1.49704
 L 7.40581,1.49704 L 7.21892,1.47342 L 7.03647,1.42657 L 6.86133,1.35724 L 6.69626,1.26648 L 6.54385,1.15576
 L 6.40654,1.02681 L 6.28647,0.881668 L 6.18553,0.722626 L 6.10533,0.552185 L 6.04712,0.373032 L 6.01183,0.187988
 L 6,-0 L 6.01183,-0.187988 z
M -45.1884,2.99408 L -45.5621,2.94685 L -45.927,2.85316 L -46.2773,2.71448 L -46.6075,2.53297 L -46.9123,2.31154
 L -47.1869,2.05363 L -47.427,1.76335 L -47.6289,1.44525 L -47.7893,1.10437 L -47.9057,0.746063 L -47.9763,0.375992
 L -48,-0 L -47.9763,-0.375992 L -47.9057,-0.746063 L -47.7893,-1.10437 L -47.6289,-1.44525 L -47.427,-1.76335
 L -47.1869,-2.05363 L -46.9123,-2.31154 L -46.6075,-2.53297 L -46.2773,-2.71448 L -45.927,-2.85316 L -45.5621,-2.94685
 L -45.1884,-2.99408 L -44.8116,-2.99408 L -44.4379,-2.94685 L -44.0729,-2.85316 L -43.7227,-2.71448 L -43.3925,-2.53297
 L -43.0877,-2.31154 L -42.8131,-2.05363 L -42.5729,-1.76335 L -42.3711,-1.44525 L -42.2107,-1.10437 L -42.0942,-0.746063
 L -42.0237,-0.375992 L -42,-0 L -42.0237,0.375992 L -42.0942,0.746063 L -42.2107,1.10437 L -42.3711,1.44525
 L -42.5729,1.76335 L -42.8131,2.05363 L -43.0877,2.31154 L -43.3925,2.53297 L -43.7227,2.71448 L -44.0729,2.85316
 L -44.4379,2.94685 L -44.8116,2.99408 z
M -8.95287,-0.373032 L -8.89465,-0.552185 L -8.81445,-0.722626 L -8.71352,-0.881668 L -8.59344,-1.02681 L -8.45613,-1.15576
 L -8.30373,-1.26648 L -8.13866,-1.35724 L -7.96352,-1.42657 L -7.78107,-1.47342 L -7.59418,-1.49704 L -7.40581,-1.49704
 L -7.21892,-1.47342 L -7.03647,-1.42657 L -6.86133,-1.35724 L -6.69626,-1.26648 L -6.54385,-1.15576 L -6.40654,-1.02681
 L -6.28647,-0.881668 L -6.18553,-0.722626 L -6.10533,-0.552185 L -6.04712,-0.373032 L -6.01183,-0.187988 L -6,-0
 L -6.01183,0.187988 L -6.04712,0.373032 L -6.10533,0.552185 L -6.18553,0.722626 L -6.28647,0.881668 L -6.40654,1.02681
 L -6.54385,1.15576 L -6.69626,1.26648 L -6.86133,1.35724 L -7.03647,1.42657 L -7.21892,1.47342 L -7.40581,1.49704
 L -7.59418,1.49704 L -7.78107,1.47342 L -7.96352,1.42657 L -8.13866,1.35724 L -8.30373,1.26648 L -8.45613,1.15576
 L -8.59344,1.02681 L -8.71352,0.881668 L -8.81445,0.722626 L -8.89465,0.552185 L -8.95287,0.373032 L -8.98816,0.187988
 L -9,-0 L -8.98816,-0.187988 z
M -30.1884,2.99408 L -30.5621,2.94685 L -30.927,2.85316 L -31.2773,2.71448 L -31.6075,2.53297 L -31.9123,2.31154
 L -32.1869,2.05363 L -32.427,1.76335 L -32.6289,1.44525 L -32.7893,1.10437 L -32.9057,0.746063 L -32.9763,0.375992
 L -33,-0 L -32.9763,-0.375992 L -32.9057,-0.746063 L -32.7893,-1.10437 L -32.6289,-1.44525 L -32.427,-1.76335
 L -32.1869,-2.05363 L -31.9123,-2.31154 L -31.6075,-2.53297 L -31.2773,-2.71448 L -30.927,-2.85316 L -30.5621,-2.94685
 L -30.1884,-2.99408 L -29.8116,-2.99408 L -29.4379,-2.94685 L -29.0729,-2.85316 L -28.7227,-2.71448 L -28.3925,-2.53297
 L -28.0877,-2.31154 L -27.8131,-2.05363 L -27.5729,-1.76335 L -27.3711,-1.44525 L -27.2107,-1.10437 L -27.0942,-0.746063
 L -27.0237,-0.375992 L -27,-0 L -27.0237,0.375992 L -27.0942,0.746063 L -27.2107,1.10437 L -27.3711,1.44525
 L -27.5729,1.76335 L -27.8131,2.05363 L -28.0877,2.31154 L -28.3925,2.53297 L -28.7227,2.71448 L -29.0729,2.85316
 L -29.4379,2.94685 L -29.8116,2.99408 z
M 44.8116,2.99408 L 44.4379,2.94685 L 44.0729,2.85316 L 43.7227,2.71448 L 43.3925,2.53297 L 43.0877,2.31154
 L 42.8131,2.05363 L 42.5729,1.76335 L 42.3711,1.44525 L 42.2107,1.10437 L 42.0942,0.746063 L 42.0237,0.375992
 L 42,-0 L 42.0237,-0.375992 L 42.0942,-0.746063 L 42.2107,-1.10437 L 42.3711,-1.44525 L 42.5729,-1.76335
 L 42.8131,-2.05363 L 43.0877,-2.31154 L 43.3925,-2.53297 L 43.7227,-2.71448 L 44.0729,-2.85316 L 44.4379,-2.94685
 L 44.8116,-2.99408 L 45.1884,-2.99408 L 45.5621,-2.94685 L 45.927,-2.85316 L 46.2773,-2.71448 L 46.6075,-2.53297
 L 46.9123,-2.31154 L 47.1869,-2.05363 L 47.427,-1.76335 L 47.6289,-1.44525 L 47.7893,-1.10437 L 47.9057,-0.746063
 L 47.9763,-0.375992 L 48,-0 L 47.9763,0.375992 L 47.9057,0.746063 L 47.7893,1.10437 L 47.6289,1.44525
 L 47.427,1.76335 L 47.1869,2.05363 L 46.9123,2.31154 L 46.6075,2.53297 L 46.2773,2.71448 L 45.927,2.85316
 L 45.5621,2.94685 L 45.1884,2.99408 z
M 14.8116,2.99408 L 14.4379,2.94685 L 14.0729,2.85316 L 13.7227,2.71448 L 13.3925,2.53297 L 13.0877,2.31154
 L 12.8131,2.05363 L 12.5729,1.76335 L 12.3711,1.44525 L 12.2107,1.10437 L 12.0942,0.746063 L 12.0237,0.375992
 L 12,-0 L 12.0237,-0.375992 L 12.0942,-0.746063 L 12.2107,-1.10437 L 12.3711,-1.44525 L 12.5729,-1.76335
 L 12.8131,-2.05363 L 13.0877,-2.31154 L 13.3925,-2.53297 L 13.7227,-2.71448 L 14.0729,-2.85316 L 14.4379,-2.94685
 L 14.8116,-2.99408 L 15.1884,-2.99408 L 15.5621,-2.94685 L 15.927,-2.85316 L 16.2773,-2.71448 L 16.6075,-2.53297
 L 16.9123,-2.31154 L 17.1869,-2.05363 L 17.427,-1.76335 L 17.6289,-1.44525 L 17.7893,-1.10437 L 17.9057,-0.746063
 L 17.9763,-0.375992 L 18,-0 L 17.9763,0.375992 L 17.9057,0.746063 L 17.7893,1.10437 L 17.6289,1.44525
 L 17.427,1.76335 L 17.1869,2.05363 L 16.9123,2.31154 L 16.6075,2.53297 L 16.2773,2.71448 L 15.927,2.85316
 L 15.5621,2.94685 L 15.1884,2.99408 z
M 29.8116,2.99408 L 29.4379,2.94685 L 29.0729,2.85316 L 28.7227,2.71448 L 28.3925,2.53297 L 28.0877,2.31154
 L 27.8131,2.05363 L 27.5729,1.76335 L 27.3711,1.44525 L 27.2107,1.10437 L 27.0942,0.746063 L 27.0237,0.375992
 L 27,-0 L 27.0237,-0.375992 L 27.0942,-0.746063 L 27.2107,-1.10437 L 27.3711,-1.44525 L 27.5729,-1.76335
 L 27.8131,-2.05363 L 28.0877,-2.31154 L 28.3925,-2.53297 L 28.7227,-2.71448 L 29.0729,-2.85316 L 29.4379,-2.94685
 L 29.8116,-2.99408 L 30.1884,-2.99408 L 30.5621,-2.94685 L 30.927,-2.85316 L 31.2773,-2.71448 L 31.6075,-2.53297
 L 31.9123,-2.31154 L 32.1869,-2.05363 L 32.427,-1.76335 L 32.6289,-1.44525 L 32.7893,-1.10437 L 32.9057,-0.746063
 L 32.9763,-0.375992 L 33,-0 L 32.9763,0.375992 L 32.9057,0.746063 L 32.7893,1.10437 L 32.6289,1.44525
 L 32.427,1.76335 L 32.1869,2.05363 L 31.9123,2.31154 L 31.6075,2.53297 L 31.2773,2.71448 L 30.927,2.85316
 L 30.5621,2.94685 L 30.1884,2.99408 z
M 37.4058,1.49704 L 37.2189,1.47342 L 37.0365,1.42657 L 36.8613,1.35724 L 36.6963,1.26648 L 36.5439,1.15576
 L 36.4065,1.02681 L 36.2865,0.881668 L 36.1855,0.722626 L 36.1053,0.552185 L 36.0471,0.373032 L 36.0118,0.187988
 L 36,-0 L 36.0118,-0.187988 L 36.0471,-0.373032 L 36.1053,-0.552185 L 36.1855,-0.722626 L 36.2865,-0.881668
 L 36.4065,-1.02681 L 36.5439,-1.15576 L 36.6963,-1.26648 L 36.8613,-1.35724 L 37.0365,-1.42657 L 37.2189,-1.47342
 L 37.4058,-1.49704 L 37.5942,-1.49704 L 37.7811,-1.47342 L 37.9635,-1.42657 L 38.1387,-1.35724 L 38.3037,-1.26648
 L 38.4561,-1.15576 L 38.5934,-1.02681 L 38.7135,-0.881668 L 38.8145,-0.722626 L 38.8947,-0.552185 L 38.9529,-0.373032
 L 38.9882,-0.187988 L 39,-0 L 38.9882,0.187988 L 38.9529,0.373032 L 38.8947,0.552185 L 38.8145,0.722626
 L 38.7135,0.881668 L 38.5934,1.02681 L 38.4561,1.15576 L 38.3037,1.26648 L 38.1387,1.35724 L 37.9635,1.42657
 L 37.7811,1.47342 L 37.5942,1.49704 z
M -22.5942,1.49704 L -22.7811,1.47342 L -22.9635,1.42657 L -23.1387,1.35724 L -23.3037,1.26648 L -23.4561,1.15576
 L -23.5934,1.02681 L -23.7135,0.881668 L -23.8145,0.722626 L -23.8947,0.552185 L -23.9529,0.373032 L -23.9882,0.187988
 L -24,-0 L -23.9882,-0.187988 L -23.9529,-0.373032 L -23.8947,-0.552185 L -23.8145,-0.722626 L -23.7135,-0.881668
 L -23.5934,-1.02681 L -23.4561,-1.15576 L -23.3037,-1.26648 L -23.1387,-1.35724 L -22.9635,-1.42657 L -22.7811,-1.47342
 L -22.5942,-1.49704 L -22.4058,-1.49704 L -22.2189,-1.47342 L -22.0365,-1.42657 L -21.8613,-1.35724 L -21.6963,-1.26648
 L -21.5439,-1.15576 L -21.4065,-1.02681 L -21.2865,-0.881668 L -21.1855,-0.722626 L -21.1053,-0.552185 L -21.0471,-0.373032
 L -21.0118,-0.187988 L -21,-0 L -21.0118,0.187988 L -21.0471,0.373032 L -21.1053,0.552185 L -21.1855,0.722626
 L -21.2865,0.881668 L -21.4065,1.02681 L -21.5439,1.15576 L -21.6963,1.26648 L -21.8613,1.35724 L -22.0365,1.42657
 L -22.2189,1.47342 L -22.4058,1.49704 z
M -37.5942,1.49704 L -37.7811,1.47342 L -37.9635,1.42657 L -38.1387,1.35724 L -38.3037,1.26648 L -38.4561,1.15576
 L -38.5934,1.02681 L -38.7135,0.881668 L -38.8145,0.722626 L -38.8947,0.552185 L -38.9529,0.373032 L -38.9882,0.187988
 L -39,-0 L -38.9882,-0.187988 L -38.9529,-0.373032 L -38.8947,-0.552185 L -38.8145,-0.722626 L -38.7135,-0.881668
 L -38.5934,-1.02681 L -38.4561,-1.15576 L -38.3037,-1.26648 L -38.1387,-1.35724 L -37.9635,-1.42657 L -37.7811,-1.47342
 L -37.5942,-1.49704 L -37.4058,-1.49704 L -37.2189,-1.47342 L -37.0365,-1.42657 L -36.8613,-1.35724 L -36.6963,-1.26648
 L -36.5439,-1.15576 L -36.4065,-1.02681 L -36.2865,-0.881668 L -36.1855,-0.722626 L -36.1053,-0.552185 L -36.0471,-0.373032
 L -36.0118,-0.187988 L -36,-0 L -36.0118,0.187988 L -36.0471,0.373032 L -36.1053,0.552185 L -36.1855,0.722626
 L -36.2865,0.881668 L -36.4065,1.02681 L -36.5439,1.15576 L -36.6963,1.26648 L -36.8613,1.35724 L -37.0365,1.42657
 L -37.2189,1.47342 L -37.4058,1.49704 z
M 22.4058,1.49704 L 22.2189,1.47342 L 22.0365,1.42657 L 21.8613,1.35724 L 21.6963,1.26648 L 21.5439,1.15576
 L 21.4065,1.02681 L 21.2865,0.881668 L 21.1855,0.722626 L 21.1053,0.552185 L 21.0471,0.373032 L 21.0118,0.187988
 L 21,-0 L 21.0118,-0.187988 L 21.0471,-0.373032 L 21.1053,-0.552185 L 21.1855,-0.722626 L 21.2865,-0.881668
 L 21.4065,-1.02681 L 21.5439,-1.15576 L 21.6963,-1.26648 L 21.8613,-1.35724 L 22.0365,-1.42657 L 22.2189,-1.47342
 L 22.4058,-1.49704 L 22.5942,-1.49704 L 22.7811,-1.47342 L 22.9635,-1.42657 L 23.1387,-1.35724 L 23.3037,-1.26648
 L 23.4561,-1.15576 L 23.5934,-1.02681 L 23.7135,-0.881668 L 23.8145,-0.722626 L 23.8947,-0.552185 L 23.9529,-0.373032
 L 23.9882,-0.187988 L 24,-0 L 23.9882,0.187988 L 23.9529,0.373032 L 23.8947,0.552185 L 23.8145,0.722626
 L 23.7135,0.881668 L 23.5934,1.02681 L 23.4561,1.15576 L 23.3037,1.26648 L 23.1387,1.35724 L 22.9635,1.42657
 L 22.7811,1.47342 L 22.5942,1.49704 z
M -10.9609,70.2183 L -10.9609,12.6891 L -7.03073,12.6891 L -3.67102,12.8265 L -0.58609,13.2387 L 2.22408,13.9258
 L 4.75949,14.8876 L 7.02014,16.1242 L 9.00603,17.6356 L 10.7171,19.4218 L 12.1785,21.5062 L 13.415,23.9127
 L 14.4267,26.6413 L 15.2136,29.692 L 15.7756,33.0649 L 16.1128,36.7598 L 16.2253,40.7768 L 15.8045,48.5878
 L 14.5424,55.1971 L 12.4388,60.6048 L 9.49382,64.8107 L 5.7074,67.8149 L 1.07954,69.6174 L -4.38972,70.2183
 z
M 2.90575,0.746063 L 2.78932,1.10437 L 2.62891,1.44525 L 2.42705,1.76335 L 2.1869,2.05363 L 1.91226,2.31154
 L 1.60747,2.53297 L 1.27733,2.71448 L 0.927048,2.85316 L 0.562134,2.94685 L 0.18837,2.99408 L -0.18837,2.99408
 L -0.562134,2.94685 L -0.927048,2.85316 L -1.27733,2.71448 L -1.60747,2.53297 L -1.91226,2.31154 L -2.1869,2.05363
 L -2.42705,1.76335 L -2.62891,1.44525 L -2.78932,1.10437 L -2.90575,0.746063 L -2.97633,0.375992 L -3,-0
 L -2.97633,-0.375992 L -2.90575,-0.746063 L -2.78932,-1.10437 L -2.62891,-1.44525 L -2.42705,-1.76335 L -2.1869,-2.05363
 L -1.91226,-2.31154 L -1.60747,-2.53297 L -1.27733,-2.71448 L -0.927048,-2.85316 L -0.562134,-2.94685 L -0.18837,-2.99408
 L 0.18837,-2.99408 L 0.562134,-2.94685 L 0.927048,-2.85316 L 1.27733,-2.71448 L 1.60747,-2.53297 L 1.91226,-2.31154
 L 2.1869,-2.05363 L 2.42705,-1.76335 L 2.62891,-1.44525 L 2.78932,-1.10437 L 2.90575,-0.746063 L 2.97633,-0.375992
 L 3,-0 L 2.97633,0.375992 z
M -12.0942,0.746063 L -12.2107,1.10437 L -12.3711,1.44525 L -12.5729,1.76335 L -12.8131,2.05363 L -13.0877,2.31154
 L -13.3925,2.53297 L -13.7227,2.71448 L -14.0729,2.85316 L -14.4379,2.94685 L -14.8116,2.99408 L -15.1884,2.99408
 L -15.5621,2.94685 L -15.927,2.85316 L -16.2773,2.71448 L -16.6075,2.53297 L -16.9123,2.31154 L -17.1869,2.05363
 L -17.427,1.76335 L -17.6289,1.44525 L -17.7893,1.10437 L -17.9057,0.746063 L -17.9763,0.375992 L -18,-0
 L -17.9763,-0.375992 L -17.9057,-0.746063 L -17.7893,-1.10437 L -17.6289,-1.44525 L -17.427,-1.76335 L -17.1869,-2.05363
 L -16.9123,-2.31154 L -16.6075,-2.53297 L -16.2773,-2.71448 L -15.927,-2.85316 L -15.5621,-2.94685 L -15.1884,-2.99408
 L -14.8116,-2.99408 L -14.4379,-2.94685 L -14.0729,-2.85316 L -13.7227,-2.71448 L -13.3925,-2.53297 L -13.0877,-2.31154
 L -12.8131,-2.05363 L -12.5729,-1.76335 L -12.3711,-1.44525 L -12.2107,-1.10437 L -12.0942,-0.746063 L -12.0237,-0.375992
 L -12,-0 L -12.0237,0.375992 z
" stroke="black" fill="lightgray" stroke-width="0.5"/>
</svg>
