<?xml version="1.0" standalone="no"?>
<!DOCTYPE svg PUBLIC "-//W3C//DTD SVG 1.1//EN" "http://www.w3.org/Graphics/SVG/1.1/DTD/svg11.dtd">
<svg width="210mm" height="88mm" viewBox="-105 -152 210 88" xmlns="http://www.w3.org/2000/svg" version="1.1">
<title>OpenSCAD Model</title>
<path d="
M 100.937,-136.589 L 101.545,-136.745 L 102.129,-136.976 L 102.679,-137.278 L 103.187,-137.647 L 103.645,-138.077
 L 104.045,-138.561 L 104.382,-139.091 L 104.649,-139.659 L 104.843,-140.257 L 104.961,-140.873 L 105,-141.5
 L 105,-146.5 L 104.961,-147.127 L 104.843,-147.743 L 104.649,-148.341 L 104.382,-148.909 L 104.045,-149.439
 L 103.645,-149.923 L 103.187,-150.353 L 102.679,-150.722 L 102.129,-151.024 L 101.545,-151.255 L 100.937,-151.411
 L 100.314,-151.49 L -100.314,-151.49 L -100.937,-151.411 L -101.545,-151.255 L -102.129,-151.024 L -102.679,-150.722
 L -103.187,-150.353 L -103.645,-149.923 L -104.045,-149.439 L -104.382,-148.909 L -104.649,-148.341 L -104.843,-147.743
 L -104.961,-147.127 L -105,-146.5 L -105,-141.5 L -104.961,-140.873 L -104.843,-140.257 L -104.649,-139.659
 L -104.382,-139.091 L -104.045,-138.561 L -103.645,-138.077 L -103.187,-137.647 L -102.679,-137.278 L -102.129,-136.976
 L -101.545,-136.745 L -100.937,-136.589 L -100.314,-136.51 L 100.314,-136.51 z
M -100.048,-137.009 L -100.64,-137.084 L -101.218,-137.232 L -101.772,-137.452 L -102.295,-137.739 L -102.778,-138.09
 L -103.213,-138.498 L -103.593,-138.958 L -103.912,-139.462 L -104.166,-140.001 L -104.351,-140.569 L -104.463,-141.155
 L -104.5,-141.75 L -104.5,-146.25 L -104.463,-146.845 L -104.351,-147.431 L -104.166,-147.999 L -103.912,-148.538
 L -103.593,-149.042 L -103.213,-149.502 L -102.778,-149.91 L -102.295,-150.261 L -101.772,-150.548 L -101.218,-150.768
 L -100.64,-150.916 L -100.048,-150.991 L 100.048,-150.991 L 100.64,-150.916 L 101.218,-150.768 L 101.772,-150.548
 L 102.295,-150.261 L 102.778,-149.91 L 103.213,-149.502 L 103.593,-149.042 L 103.912,-148.538 L 104.166,-147.999
 L 104.351,-147.431 L 104.463,-146.845 L 104.5,-146.25 L 104.5,-141.75 L 104.463,-141.155 L 104.351,-140.569
 L 104.166,-140.001 L 103.912,-139.462 L 103.593,-138.958 L 103.213,-138.498 L 102.778,-138.09 L 102.295,-137.739
 L 101.772,-137.452 L 101.218,-137.232 L 100.64,-137.084 L 100.048,-137.009 z
M 100.937,-112.589 L 101.545,-112.745 L 102.129,-112.976 L 102.679,-113.278 L 103.187,-113.647 L 103.645,-114.077
 L 104.045,-114.561 L 104.382,-115.091 L 104.649,-115.659 L 104.843,-116.257 L 104.961,-116.873 L 105,-117.5
 L 105,-122.5 L 104.961,-123.127 L 104.843,-123.743 L 104.649,-124.341 L 104.382,-124.909 L 104.045,-125.439
 L 103.645,-125.923 L 103.187,-126.353 L 102.679,-126.722 L 102.129,-127.024 L 101.545,-127.255 L 100.937,-127.411
 L 100.314,-127.49 L -100.314,-127.49 L -100.937,-127.411 L -101.545,-127.255 L -102.129,-127.024 L -102.679,-126.722
 L -103.187,-126.353 L -103.645,-125.923 L -104.045,-125.439 L -104.382,-124.909 L -104.649,-124.341 L -104.843,-123.743
 L -104.961,-123.127 L -105,-122.5 L -105,-117.5 L -104.961,-116.873 L -104.843,-116.257 L -104.649,-115.659
 L -104.382,-115.091 L -104.045,-114.561 L -103.645,-114.077 L -103.187,-113.647 L -102.679,-113.278 L -102.129,-112.976
 L -101.545,-112.745 L -100.937,-112.589 L -100.314,-112.51 L 100.314,-112.51 z
M -100.048,-113.009 L -100.64,-113.084 L -101.218,-113.232 L -101.772,-113.452 L -102.295,-113.739 L -102.778,-114.09
 L -103.213,-114.498 L -103.593,-114.958 L -103.912,-115.462 L -104.166,-116.001 L -104.351,-116.569 L -104.463,-117.155
 L -104.5,-117.75 L -104.5,-122.25 L -104.463,-122.845 L -104.351,-123.431 L -104.166,-123.999 L -103.912,-124.538
 L -103.593,-125.042 L -103.213,-125.502 L -102.778,-125.91 L -102.295,-126.261 L -101.772,-126.548 L -101.218,-126.768
 L -100.64,-126.916 L -100.048,-126.991 L 100.048,-126.991 L 100.64,-126.916 L 101.218,-126.768 L 101.772,-126.548
 L 102.295,-126.261 L 102.778,-125.91 L 103.213,-125.502 L 103.593,-125.042 L 103.912,-124.538 L 104.166,-123.999
 L 104.351,-123.431 L 104.463,-122.845 L 104.5,-122.25 L 104.5,-117.75 L 104.463,-117.155 L 104.351,-116.569
 L 104.166,-116.001 L 103.912,-115.462 L 103.593,-114.958 L 103.213,-114.498 L 102.778,-114.09 L 102.295,-113.739
 L 101.772,-113.452 L 101.218,-113.232 L 100.64,-113.084 L 100.048,-113.009 z
M 100.937,-88.5886 L 101.545,-88.7447 L 102.129,-88.9759 L 102.679,-89.2784 L 103.187,-89.6474 L 103.645,-90.0773
 L 104.045,-90.5611 L 104.382,-91.0912 L 104.649,-91.6594 L 104.843,-92.2566 L 104.961,-92.8733 L 105,-93.5
 L 105,-98.5 L 104.961,-99.1267 L 104.843,-99.7434 L 104.649,-100.341 L 104.382,-100.909 L 104.045,-101.439
 L 103.645,-101.923 L 103.187,-102.353 L 102.679,-102.722 L 102.129,-103.024 L 101.545,-103.255 L 100.937,-103.411
 L 100.314,-103.49 L -100.314,-103.49 L -100.937,-103.411 L -101.545,-103.255 L -102.129,-103.024 L -102.679,-102.722
 L -103.187,-102.353 L -103.645,-101.923 L -104.045,-101.439 L -104.382,-100.909 L -104.649,-100.341 L -104.843,-99.7434
 L -104.961,-99.1267 L -105,-98.5 L -105,-93.5 L -104.961,-92.8733 L -104.843,-92.2566 L -104.649,-91.6594
 L -104.382,-91.0912 L -104.045,-90.5611 L -103.645,-90.0773 L -103.187,-89.6474 L -102.679,-89.2784 L -102.129,-88.9759
 L -101.545,-88.7447 L -100.937,-88.5886 L -100.314,-88.5099 L 100.314,-88.5099 z
M -99.993,-89.8882 L -100.475,-89.9491 L -100.946,-90.0699 L -101.398,-90.2488 L -101.823,-90.4829 L -102.216,-90.7685
 L -102.571,-91.1012 L -102.88,-91.4756 L -103.141,-91.8859 L -103.348,-92.3256 L -103.498,-92.7877 L -103.589,-93.265
 L -103.619,-93.75 L -103.619,-98.25 L -103.589,-98.735 L -103.498,-99.2123 L -103.348,-99.6744 L -103.141,-100.114
 L -102.88,-100.524 L -102.571,-100.899 L -102.216,-101.231 L -101.823,-101.517 L -101.398,-101.751 L -100.946,-101.93
 L -100.475,-102.051 L -99.993,-102.112 L 99.993,-102.112 L 100.475,-102.051 L 100.946,-101.93 L 101.398,-101.751
 L 101.823,-101.517 L 102.216,-101.231 L 102.571,-100.899 L 102.88,-100.524 L 103.141,-100.114 L 103.348,-99.6744
 L 103.498,-99.2123 L 103.589,-98.735 L 103.619,-98.25 L 103.619,-93.75 L 103.589,-93.265 L 103.498,-92.7877
 L 103.348,-92.3256 L 103.141,-91.8859 L 102.88,-91.4756 L 102.571,-91.1012 L 102.216,-90.7685 L 101.823,-90.4829
 L 101.398,-90.2488 L 100.946,-90.0699 L 100.475,-89.9491 L 99.993,-89.8882 z
M 100.937,-64.5886 L 101.545,-64.7447 L 102.129,-64.9759 L 102.679,-65.2784 L 103.187,-65.6474 L 103.645,-66.0773
 L 104.045,-66.5611 L 104.382,-67.0912 L 104.649,-67.6594 L 104.843,-68.2566 L 104.961,-68.8733 L 105,-69.5
 L 105,-74.5 L 104.961,-75.1267 L 104.843,-75.7434 L 104.649,-76.3406 L 104.382,-76.9088 L 104.045,-77.4389
 L 103.645,-77.9227 L 103.187,-78.3526 L 102.679,-78.7216 L 102.129,-79.0241 L 101.545,-79.2553 L 100.937,-79.4114
 L 100.314,-79.4901 L -100.314,-79.4901 L -100.937,-79.4114 L -101.545,-79.2553 L -102.129,-79.0241 L -102.679,-78.7216
 L -103.187,-78.3526 L -103.645,-77.9227 L -104.045,-77.4389 L -104.382,-76.9088 L -104.649,-76.3406 L -104.843,-75.7434
 L -104.961,-75.1267 L -105,-74.5 L -105,-69.5 L -104.961,-68.8733 L -104.843,-68.2566 L -104.649,-67.6594
 L -104.382,-67.0912 L -104.045,-66.5611 L -103.645,-66.0773 L -103.187,-65.6474 L -102.679,-65.2784 L -102.129,-64.9759
 L -101.545,-64.7447 L -100.937,-64.5886 L -100.314,-64.5099 L 100.314,-64.5099 z
M -97.613,-70.2036 L -97.8373,-70.2319 L -98.0562,-70.2881 L -98.2664,-70.3713 L -98.4645,-70.4802 L -98.6474,-70.6131
 L -98.8121,-70.7678 L -98.9562,-70.942 L -99.0773,-71.1329 L -99.1736,-71.3374 L -99.2434,-71.5524 L -99.2858,-71.7744
 L -99.3,-72 L -99.2858,-72.2256 L -99.2434,-72.4476 L -99.1736,-72.6626 L -99.0773,-72.8671 L -98.9562,-73.058
 L -98.8121,-73.2322 L -98.6474,-73.3869 L -98.4645,-73.5198 L -98.2664,-73.6287 L -98.0562,-73.7119 L -97.8373,-73.7681
 L -97.613,-73.7964 L -97.387,-73.7964 L -97.1627,-73.7681 L -96.9438,-73.7119 L -96.7336,-73.6287 L -96.5355,-73.5198
 L -96.3526,-73.3869 L -96.1879,-73.2322 L -96.0438,-73.058 L -95.9226,-72.8671 L -95.8264,-72.6626 L -95.7565,-72.4476
 L -95.7142,-72.2256 L -95.7,-72 L -95.7142,-71.7744 L -95.7565,-71.5524 L -95.8264,-71.3374 L -95.9226,-71.1329
 L -96.0438,-70.942 L -96.1879,-70.7678 L -96.3526,-70.6131 L -96.5355,-70.4802 L -96.7336,-70.3713 L -96.9438,-70.2881
 L -97.1627,-70.2319 L -97.387,-70.2036 z
M 97.387,-70.2036 L 97.1627,-70.2319 L 96.9438,-70.2881 L 96.7336,-70.3713 L 96.5355,-70.4802 L 96.3526,-70.6131
 L 96.1879,-70.7678 L 96.0438,-70.942 L 95.9226,-71.1329 L 95.8264,-71.3374 L 95.7565,-71.5524 L 95.7142,-71.7744
 L 95.7,-72 L 95.7142,-72.2256 L 95.7565,-72.4476 L 95.8264,-72.6626 L 95.9226,-72.8671 L 96.0438,-73.058
 L 96.1879,-73.2322 L 96.3526,-73.3869 L 96.5355,-73.5198 L 96.7336,-73.6287 L 96.9438,-73.7119 L 97.1627,-73.7681
 L 97.387,-73.7964 L 97.613,-73.7964 L 97.8373,-73.7681 L 98.0562,-73.7119 L 98.2664,-73.6287 L 98.4645,-73.5198
 L 98.6474,-73.3869 L 98.8121,-73.2322 L 98.9562,-73.058 L 99.0773,-72.8671 L 99.1736,-72.6626 L 99.2434,-72.4476
 L 99.2858,-72.2256 L 99.3,-72 L 99.2858,-71.7744 L 99.2434,-71.5524 L 99.1736,-71.3374 L 99.0773,-71.1329
 L 98.9562,-70.942 L 98.8121,-70.7678 L 98.6474,-70.6131 L 98.4645,-70.4802 L 98.2664,-70.3713 L 98.0562,-70.2881
 L 97.8373,-70.2319 L 97.613,-70.2036 z
" stroke="black" fill="lightgray" stroke-width="0.5"/>
</svg>
