<?xml version="1.0" standalone="no"?>
<!DOCTYPE svg PUBLIC "-//W3C//DTD SVG 1.1//EN" "http://www.w3.org/Graphics/SVG/1.1/DTD/svg11.dtd">
<svg width="24mm" height="580mm" viewBox="-12 -731 24 580" xmlns="http://www.w3.org/2000/svg" version="1.1">
<title>OpenSCAD Model</title>
<path d="
M 7.1869,-445.589 L 7.79507,-445.745 L 8.37889,-445.976 L 8.92912,-446.278 L 9.43712,-446.647 L 9.89484,-447.077
 L 10.2951,-447.561 L 10.6315,-448.091 L 10.8989,-448.659 L 11.0929,-449.257 L 11.2106,-449.873 L 11.25,-450.5
 L 11.25,-725.5 L 11.2106,-726.127 L 11.0929,-726.743 L 10.8989,-727.341 L 10.6315,-727.909 L 10.2951,-728.439
 L 9.89484,-728.923 L 9.43712,-729.353 L 8.92912,-729.722 L 8.37889,-730.024 L 7.79507,-730.255 L 7.1869,-730.411
 L 6.56395,-730.49 L -6.56395,-730.49 L -7.1869,-730.411 L -7.79507,-730.255 L -8.37889,-730.024 L -8.92912,-729.722
 L -9.43712,-729.353 L -9.89484,-728.923 L -10.2951,-728.439 L -10.6315,-727.909 L -10.8989,-727.341 L -11.0929,-726.743
 L -11.2106,-726.127 L -11.25,-725.5 L -11.25,-450.5 L -11.2106,-449.873 L -11.0929,-449.257 L -10.8989,-448.659
 L -10.6315,-448.091 L -10.2951,-447.561 L -9.89484,-447.077 L -9.43712,-446.647 L -8.92912,-446.278 L -8.37889,-445.976
 L -7.79507,-445.745 L -7.1869,-445.589 L -6.56395,-445.51 L 6.56395,-445.51 z
M 3.59929,-720.605 L 3.30028,-720.643 L 3.00835,-720.717 L 2.72812,-720.828 L 2.464,-720.974 L 2.22017,-721.151
 L 2.00047,-721.357 L 1.80835,-721.589 L 1.64685,-721.844 L 1.51852,-722.117 L 1.4254,-722.403 L 1.36891,-722.699
 L 1.34999,-723 L 1.36891,-723.301 L 1.4254,-723.597 L 1.51852,-723.883 L 1.64685,-724.156 L 1.80835,-724.411
 L 2.00047,-724.643 L 2.22017,-724.849 L 2.464,-725.026 L 2.72812,-725.172 L 3.00835,-725.283 L 3.30028,-725.357
 L 3.59929,-725.395 L 3.9007,-725.395 L 4.19971,-725.357 L 4.49164,-725.283 L 4.77187,-725.172 L 5.03598,-725.026
 L 5.27982,-724.849 L 5.49951,-724.643 L 5.69164,-724.411 L 5.85313,-724.156 L 5.98146,-723.883 L 6.07458,-723.597
 L 6.13107,-723.301 L 6.14999,-723 L 6.13107,-722.699 L 6.07458,-722.403 L 5.98146,-722.117 L 5.85313,-721.844
 L 5.69164,-721.589 L 5.49951,-721.357 L 5.27982,-721.151 L 5.03598,-720.974 L 4.77187,-720.828 L 4.49164,-720.717
 L 4.19971,-720.643 L 3.9007,-720.605 z
M -3.9007,-720.605 L -4.19971,-720.643 L -4.49164,-720.717 L -4.77187,-720.828 L -5.03598,-720.974 L -5.27982,-721.151
 L -5.49951,-721.357 L -5.69164,-721.589 L -5.85313,-721.844 L -5.98146,-722.117 L -6.07458,-722.403 L -6.13107,-722.699
 L -6.14999,-723 L -6.13107,-723.301 L -6.07458,-723.597 L -5.98146,-723.883 L -5.85313,-724.156 L -5.69164,-724.411
 L -5.49951,-724.643 L -5.27982,-724.849 L -5.03598,-725.026 L -4.77187,-725.172 L -4.49164,-725.283 L -4.19971,-725.357
 L -3.9007,-725.395 L -3.59929,-725.395 L -3.30028,-725.357 L -3.00835,-725.283 L -2.72812,-725.172 L -2.464,-725.026
 L -2.22017,-724.849 L -2.00047,-724.643 L -1.80835,-724.411 L -1.64685,-724.156 L -1.51852,-723.883 L -1.4254,-723.597
 L -1.36891,-723.301 L -1.34999,-723 L -1.36891,-722.699 L -1.4254,-722.403 L -1.51852,-722.117 L -1.64685,-721.844
 L -1.80835,-721.589 L -2.00047,-721.357 L -2.22017,-721.151 L -2.464,-720.974 L -2.72812,-720.828 L -3.00835,-720.717
 L -3.30028,-720.643 L -3.59929,-720.605 z
M 3.59929,-450.605 L 3.30028,-450.643 L 3.00835,-450.717 L 2.72812,-450.828 L 2.464,-450.974 L 2.22017,-451.151
 L 2.00047,-451.357 L 1.80835,-451.589 L 1.64685,-451.844 L 1.51852,-452.117 L 1.4254,-452.403 L 1.36891,-452.699
 L 1.34999,-453 L 1.36891,-453.301 L 1.4254,-453.597 L 1.51852,-453.883 L 1.64685,-454.156 L 1.80835,-454.411
 L 2.00047,-454.643 L 2.22017,-454.849 L 2.464,-455.026 L 2.72812,-455.172 L 3.00835,-455.283 L 3.30028,-455.357
 L 3.59929,-455.395 L 3.9007,-455.395 L 4.19971,-455.357 L 4.49164,-455.283 L 4.77187,-455.172 L 5.03598,-455.026
 L 5.27982,-454.849 L 5.49951,-454.643 L 5.69164,-454.411 L 5.85313,-454.156 L 5.98146,-453.883 L 6.07458,-453.597
 L 6.13107,-453.301 L 6.14999,-453 L 6.13107,-452.699 L 6.07458,-452.403 L 5.98146,-452.117 L 5.85313,-451.844
 L 5.69164,-451.589 L 5.49951,-451.357 L 5.27982,-451.151 L 5.03598,-450.974 L 4.77187,-450.828 L 4.49164,-450.717
 L 4.19971,-450.643 L 3.9007,-450.605 z
M -3.9007,-450.605 L -4.19971,-450.643 L -4.49164,-450.717 L -4.77187,-450.828 L -5.03598,-450.974 L -5.27982,-451.151
 L -5.49951,-451.357 L -5.69164,-451.589 L -5.85313,-451.844 L -5.98146,-452.117 L -6.07458,-452.403 L -6.13107,-452.699
 L -6.14999,-453 L -6.13107,-453.301 L -6.07458,-453.597 L -5.98146,-453.883 L -5.85313,-454.156 L -5.69164,-454.411
 L -5.49951,-454.643 L -5.27982,-454.849 L -5.03598,-455.026 L -4.77187,-455.172 L -4.49164,-455.283 L -4.19971,-455.357
 L -3.9007,-455.395 L -3.59929,-455.395 L -3.30028,-455.357 L -3.00835,-455.283 L -2.72812,-455.172 L -2.464,-455.026
 L -2.22017,-454.849 L -2.00047,-454.643 L -1.80835,-454.411 L -1.64685,-454.156 L -1.51852,-453.883 L -1.4254,-453.597
 L -1.36891,-453.301 L -1.34999,-453 L -1.36891,-452.699 L -1.4254,-452.403 L -1.51852,-452.117 L -1.64685,-451.844
 L -1.80835,-451.589 L -2.00047,-451.357 L -2.22017,-451.151 L -2.464,-450.974 L -2.72812,-450.828 L -3.00835,-450.717
 L -3.30028,-450.643 L -3.59929,-450.605 z
M 7.1869,-151.589 L 7.79507,-151.745 L 8.37889,-151.976 L 8.92912,-152.278 L 9.43712,-152.647 L 9.89484,-153.077
 L 10.2951,-153.561 L 10.6315,-154.091 L 10.8989,-154.659 L 11.0929,-155.257 L 11.2106,-155.873 L 11.25,-156.5
 L 11.25,-431.5 L 11.2106,-432.127 L 11.0929,-432.743 L 10.8989,-433.341 L 10.6315,-433.909 L 10.2951,-434.439
 L 9.89484,-434.923 L 9.43712,-435.353 L 8.92912,-435.722 L 8.37889,-436.024 L 7.79507,-436.255 L 7.1869,-436.411
 L 6.56395,-436.49 L -6.56395,-436.49 L -7.1869,-436.411 L -7.79507,-436.255 L -8.37889,-436.024 L -8.92912,-435.722
 L -9.43712,-435.353 L -9.89484,-434.923 L -10.2951,-434.439 L -10.6315,-433.909 L -10.8989,-433.341 L -11.0929,-432.743
 L -11.2106,-432.127 L -11.25,-431.5 L -11.25,-156.5 L -11.2106,-155.873 L -11.0929,-155.257 L -10.8989,-154.659
 L -10.6315,-154.091 L -10.2951,-153.561 L -9.89484,-153.077 L -9.43712,-152.647 L -8.92912,-152.278 L -8.37889,-151.976
 L -7.79507,-151.745 L -7.1869,-151.589 L -6.56395,-151.51 L 6.56395,-151.51 z
M 3.63696,-427.204 L 3.4127,-427.232 L 3.19376,-427.288 L 2.9836,-427.371 L 2.78551,-427.48 L 2.60263,-427.613
 L 2.43785,-427.768 L 2.29376,-427.942 L 2.17264,-428.133 L 2.0764,-428.337 L 2.00655,-428.552 L 1.96419,-428.774
 L 1.95,-429 L 1.96419,-429.226 L 2.00655,-429.448 L 2.0764,-429.663 L 2.17264,-429.867 L 2.29376,-430.058
 L 2.43785,-430.232 L 2.60263,-430.387 L 2.78551,-430.52 L 2.9836,-430.629 L 3.19376,-430.712 L 3.4127,-430.768
 L 3.63696,-430.796 L 3.86302,-430.796 L 4.08728,-430.768 L 4.30623,-430.712 L 4.51639,-430.629 L 4.71448,-430.52
 L 4.89735,-430.387 L 5.06213,-430.232 L 5.20622,-430.058 L 5.32735,-429.867 L 5.42358,-429.663 L 5.49344,-429.448
 L 5.5358,-429.226 L 5.54999,-429 L 5.5358,-428.774 L 5.49344,-428.552 L 5.42358,-428.337 L 5.32735,-428.133
 L 5.20622,-427.942 L 5.06213,-427.768 L 4.89735,-427.613 L 4.71448,-427.48 L 4.51639,-427.371 L 4.30623,-427.288
 L 4.08728,-427.232 L 3.86302,-427.204 z
M -3.86302,-427.204 L -4.08728,-427.232 L -4.30623,-427.288 L -4.51639,-427.371 L -4.71448,-427.48 L -4.89735,-427.613
 L -5.06213,-427.768 L -5.20622,-427.942 L -5.32735,-428.133 L -5.42358,-428.337 L -5.49344,-428.552 L -5.5358,-428.774
 L -5.54999,-429 L -5.5358,-429.226 L -5.49344,-429.448 L -5.42358,-429.663 L -5.32735,-429.867 L -5.20622,-430.058
 L -5.06213,-430.232 L -4.89735,-430.387 L -4.71448,-430.52 L -4.51639,-430.629 L -4.30623,-430.712 L -4.08728,-430.768
 L -3.86302,-430.796 L -3.63696,-430.796 L -3.4127,-430.768 L -3.19376,-430.712 L -2.9836,-430.629 L -2.78551,-430.52
 L -2.60263,-430.387 L -2.43785,-430.232 L -2.29376,-430.058 L -2.17264,-429.867 L -2.0764,-429.663 L -2.00655,-429.448
 L -1.96419,-429.226 L -1.95,-429 L -1.96419,-428.774 L -2.00655,-428.552 L -2.0764,-428.337 L -2.17264,-428.133
 L -2.29376,-427.942 L -2.43785,-427.768 L -2.60263,-427.613 L -2.78551,-427.48 L -2.9836,-427.371 L -3.19376,-427.288
 L -3.4127,-427.232 L -3.63696,-427.204 z
M -3.86302,-157.204 L -4.08728,-157.232 L -4.30623,-157.288 L -4.51639,-157.371 L -4.71448,-157.48 L -4.89735,-157.613
 L -5.06213,-157.768 L -5.20622,-157.942 L -5.32735,-158.133 L -5.42358,-158.337 L -5.49344,-158.552 L -5.5358,-158.774
 L -5.54999,-159 L -5.5358,-159.226 L -5.49344,-159.448 L -5.42358,-159.663 L -5.32735,-159.867 L -5.20622,-160.058
 L -5.06213,-160.232 L -4.89735,-160.387 L -4.71448,-160.52 L -4.51639,-160.629 L -4.30623,-160.712 L -4.08728,-160.768
 L -3.86302,-160.796 L -3.63696,-160.796 L -3.4127,-160.768 L -3.19376,-160.712 L -2.9836,-160.629 L -2.78551,-160.52
 L -2.60263,-160.387 L -2.43785,-160.232 L -2.29376,-160.058 L -2.17264,-159.867 L -2.0764,-159.663 L -2.00655,-159.448
 L -1.96419,-159.226 L -1.95,-159 L -1.96419,-158.774 L -2.00655,-158.552 L -2.0764,-158.337 L -2.17264,-158.133
 L -2.29376,-157.942 L -2.43785,-157.768 L -2.60263,-157.613 L -2.78551,-157.48 L -2.9836,-157.371 L -3.19376,-157.288
 L -3.4127,-157.232 L -3.63696,-157.204 z
M 3.63696,-157.204 L 3.4127,-157.232 L 3.19376,-157.288 L 2.9836,-157.371 L 2.78551,-157.48 L 2.60263,-157.613
 L 2.43785,-157.768 L 2.29376,-157.942 L 2.17264,-158.133 L 2.0764,-158.337 L 2.00655,-158.552 L 1.96419,-158.774
 L 1.95,-159 L 1.96419,-159.226 L 2.00655,-159.448 L 2.0764,-159.663 L 2.17264,-159.867 L 2.29376,-160.058
 L 2.43785,-160.232 L 2.60263,-160.387 L 2.78551,-160.52 L 2.9836,-160.629 L 3.19376,-160.712 L 3.4127,-160.768
 L 3.63696,-160.796 L 3.86302,-160.796 L 4.08728,-160.768 L 4.30623,-160.712 L 4.51639,-160.629 L 4.71448,-160.52
 L 4.89735,-160.387 L 5.06213,-160.232 L 5.20622,-160.058 L 5.32735,-159.867 L 5.42358,-159.663 L 5.49344,-159.448
 L 5.5358,-159.226 L 5.54999,-159 L 5.5358,-158.774 L 5.49344,-158.552 L 5.42358,-158.337 L 5.32735,-158.133
 L 5.20622,-157.942 L 5.06213,-157.768 L 4.89735,-157.613 L 4.71448,-157.48 L 4.51639,-157.371 L 4.30623,-157.288
 L 4.08728,-157.232 L 3.86302,-157.204 z
" stroke="black" fill="lightgray" stroke-width="0.5"/>
</svg>
