<?xml version="1.0" standalone="no"?>
<!DOCTYPE svg PUBLIC "-//W3C//DTD SVG 1.1//EN" "http://www.w3.org/Graphics/SVG/1.1/DTD/svg11.dtd">
<svg width="46mm" height="489mm" viewBox="-23 -618 46 489" xmlns="http://www.w3.org/2000/svg" version="1.1">
<title>OpenSCAD Model</title>
<path d="
M 18.4369,-378.089 L 19.0451,-378.245 L 19.6289,-378.476 L 20.1791,-378.778 L 20.6871,-379.147 L 21.1448,-379.577
 L 21.5451,-380.061 L 21.8815,-380.591 L 22.1489,-381.159 L 22.3429,-381.757 L 22.4606,-382.373 L 22.5,-383
 L 22.5,-613 L 22.4606,-613.627 L 22.3429,-614.243 L 22.1489,-614.841 L 21.8815,-615.409 L 21.5451,-615.939
 L 21.1448,-616.423 L 20.6871,-616.853 L 20.1791,-617.222 L 19.6289,-617.524 L 19.0451,-617.755 L 18.4369,-617.911
 L 17.8139,-617.99 L -17.8139,-617.99 L -18.4369,-617.911 L -19.0451,-617.755 L -19.6289,-617.524 L -20.1791,-617.222
 L -20.6871,-616.853 L -21.1448,-616.423 L -21.5451,-615.939 L -21.8815,-615.409 L -22.1489,-614.841 L -22.3429,-614.243
 L -22.4606,-613.627 L -22.5,-613 L -22.5,-383 L -22.4606,-382.373 L -22.3429,-381.757 L -22.1489,-381.159
 L -21.8815,-380.591 L -21.5451,-380.061 L -21.1448,-379.577 L -20.6871,-379.147 L -20.1791,-378.778 L -19.6289,-378.476
 L -19.0451,-378.245 L -18.4369,-378.089 L -17.8139,-378.01 L 17.8139,-378.01 z
M 14.8493,-608.105 L 14.5503,-608.143 L 14.2583,-608.217 L 13.9781,-608.328 L 13.714,-608.474 L 13.4702,-608.651
 L 13.2505,-608.857 L 13.0583,-609.089 L 12.8969,-609.344 L 12.7685,-609.617 L 12.6754,-609.903 L 12.6189,-610.199
 L 12.6,-610.5 L 12.6189,-610.801 L 12.6754,-611.097 L 12.7685,-611.383 L 12.8969,-611.656 L 13.0583,-611.911
 L 13.2505,-612.143 L 13.4702,-612.349 L 13.714,-612.526 L 13.9781,-612.672 L 14.2583,-612.783 L 14.5503,-612.857
 L 14.8493,-612.895 L 15.1507,-612.895 L 15.4497,-612.857 L 15.7416,-612.783 L 16.0219,-612.672 L 16.286,-612.526
 L 16.5298,-612.349 L 16.7495,-612.143 L 16.9416,-611.911 L 17.1031,-611.656 L 17.2315,-611.383 L 17.3246,-611.097
 L 17.3811,-610.801 L 17.4,-610.5 L 17.3811,-610.199 L 17.3246,-609.903 L 17.2315,-609.617 L 17.1031,-609.344
 L 16.9416,-609.089 L 16.7495,-608.857 L 16.5298,-608.651 L 16.286,-608.474 L 16.0219,-608.328 L 15.7416,-608.217
 L 15.4497,-608.143 L 15.1507,-608.105 z
M -15.1507,-608.105 L -15.4497,-608.143 L -15.7416,-608.217 L -16.0219,-608.328 L -16.286,-608.474 L -16.5298,-608.651
 L -16.7495,-608.857 L -16.9416,-609.089 L -17.1031,-609.344 L -17.2315,-609.617 L -17.3246,-609.903 L -17.3811,-610.199
 L -17.4,-610.5 L -17.3811,-610.801 L -17.3246,-611.097 L -17.2315,-611.383 L -17.1031,-611.656 L -16.9416,-611.911
 L -16.7495,-612.143 L -16.5298,-612.349 L -16.286,-612.526 L -16.0219,-612.672 L -15.7416,-612.783 L -15.4497,-612.857
 L -15.1507,-612.895 L -14.8493,-612.895 L -14.5503,-612.857 L -14.2583,-612.783 L -13.9781,-612.672 L -13.714,-612.526
 L -13.4702,-612.349 L -13.2505,-612.143 L -13.0583,-611.911 L -12.8969,-611.656 L -12.7685,-611.383 L -12.6754,-611.097
 L -12.6189,-610.801 L -12.6,-610.5 L -12.6189,-610.199 L -12.6754,-609.903 L -12.7685,-609.617 L -12.8969,-609.344
 L -13.0583,-609.089 L -13.2505,-608.857 L -13.4702,-608.651 L -13.714,-608.474 L -13.9781,-608.328 L -14.2583,-608.217
 L -14.5503,-608.143 L -14.8493,-608.105 z
M 14.8493,-383.105 L 14.5503,-383.143 L 14.2583,-383.217 L 13.9781,-383.328 L 13.714,-383.474 L 13.4702,-383.651
 L 13.2505,-383.857 L 13.0583,-384.089 L 12.8969,-384.344 L 12.7685,-384.617 L 12.6754,-384.903 L 12.6189,-385.199
 L 12.6,-385.5 L 12.6189,-385.801 L 12.6754,-386.097 L 12.7685,-386.383 L 12.8969,-386.656 L 13.0583,-386.911
 L 13.2505,-387.143 L 13.4702,-387.349 L 13.714,-387.526 L 13.9781,-387.672 L 14.2583,-387.783 L 14.5503,-387.857
 L 14.8493,-387.895 L 15.1507,-387.895 L 15.4497,-387.857 L 15.7416,-387.783 L 16.0219,-387.672 L 16.286,-387.526
 L 16.5298,-387.349 L 16.7495,-387.143 L 16.9416,-386.911 L 17.1031,-386.656 L 17.2315,-386.383 L 17.3246,-386.097
 L 17.3811,-385.801 L 17.4,-385.5 L 17.3811,-385.199 L 17.3246,-384.903 L 17.2315,-384.617 L 17.1031,-384.344
 L 16.9416,-384.089 L 16.7495,-383.857 L 16.5298,-383.651 L 16.286,-383.474 L 16.0219,-383.328 L 15.7416,-383.217
 L 15.4497,-383.143 L 15.1507,-383.105 z
M -15.1507,-383.105 L -15.4497,-383.143 L -15.7416,-383.217 L -16.0219,-383.328 L -16.286,-383.474 L -16.5298,-383.651
 L -16.7495,-383.857 L -16.9416,-384.089 L -17.1031,-384.344 L -17.2315,-384.617 L -17.3246,-384.903 L -17.3811,-385.199
 L -17.4,-385.5 L -17.3811,-385.801 L -17.3246,-386.097 L -17.2315,-386.383 L -17.1031,-386.656 L -16.9416,-386.911
 L -16.7495,-387.143 L -16.5298,-387.349 L -16.286,-387.526 L -16.0219,-387.672 L -15.7416,-387.783 L -15.4497,-387.857
 L -15.1507,-387.895 L -14.8493,-387.895 L -14.5503,-387.857 L -14.2583,-387.783 L -13.9781,-387.672 L -13.714,-387.526
 L -13.4702,-387.349 L -13.2505,-387.143 L -13.0583,-386.911 L -12.8969,-386.656 L -12.7685,-386.383 L -12.6754,-386.097
 L -12.6189,-385.801 L -12.6,-385.5 L -12.6189,-385.199 L -12.6754,-384.903 L -12.7685,-384.617 L -12.8969,-384.344
 L -13.0583,-384.089 L -13.2505,-383.857 L -13.4702,-383.651 L -13.714,-383.474 L -13.9781,-383.328 L -14.2583,-383.217
 L -14.5503,-383.143 L -14.8493,-383.105 z
M 18.4369,-129.089 L 19.0451,-129.245 L 19.6289,-129.476 L 20.1791,-129.778 L 20.6871,-130.147 L 21.1448,-130.577
 L 21.5451,-131.061 L 21.8815,-131.591 L 22.1489,-132.159 L 22.3429,-132.757 L 22.4606,-133.373 L 22.5,-134
 L 22.5,-364 L 22.4606,-364.627 L 22.3429,-365.243 L 22.1489,-365.841 L 21.8815,-366.409 L 21.5451,-366.939
 L 21.1448,-367.423 L 20.6871,-367.853 L 20.1791,-368.222 L 19.6289,-368.524 L 19.0451,-368.755 L 18.4369,-368.911
 L 17.8139,-368.99 L -17.8139,-368.99 L -18.4369,-368.911 L -19.0451,-368.755 L -19.6289,-368.524 L -20.1791,-368.222
 L -20.6871,-367.853 L -21.1448,-367.423 L -21.5451,-366.939 L -21.8815,-366.409 L -22.1489,-365.841 L -22.3429,-365.243
 L -22.4606,-364.627 L -22.5,-364 L -22.5,-134 L -22.4606,-133.373 L -22.3429,-132.757 L -22.1489,-132.159
 L -21.8815,-131.591 L -21.5451,-131.061 L -21.1448,-130.577 L -20.6871,-130.147 L -20.1791,-129.778 L -19.6289,-129.476
 L -19.0451,-129.245 L -18.4369,-129.089 L -17.8139,-129.01 L 17.8139,-129.01 z
M -15.113,-359.704 L -15.3373,-359.732 L -15.5562,-359.788 L -15.7664,-359.871 L -15.9645,-359.98 L -16.1474,-360.113
 L -16.3121,-360.268 L -16.4562,-360.442 L -16.5773,-360.633 L -16.6736,-360.837 L -16.7434,-361.052 L -16.7858,-361.274
 L -16.8,-361.5 L -16.7858,-361.726 L -16.7434,-361.948 L -16.6736,-362.163 L -16.5773,-362.367 L -16.4562,-362.558
 L -16.3121,-362.732 L -16.1474,-362.887 L -15.9645,-363.02 L -15.7664,-363.129 L -15.5562,-363.212 L -15.3373,-363.268
 L -15.113,-363.296 L -14.887,-363.296 L -14.6627,-363.268 L -14.4438,-363.212 L -14.2336,-363.129 L -14.0355,-363.02
 L -13.8526,-362.887 L -13.6879,-362.732 L -13.5438,-362.558 L -13.4226,-362.367 L -13.3264,-362.163 L -13.2565,-361.948
 L -13.2142,-361.726 L -13.2,-361.5 L -13.2142,-361.274 L -13.2565,-361.052 L -13.3264,-360.837 L -13.4226,-360.633
 L -13.5438,-360.442 L -13.6879,-360.268 L -13.8526,-360.113 L -14.0355,-359.98 L -14.2336,-359.871 L -14.4438,-359.788
 L -14.6627,-359.732 L -14.887,-359.704 z
M 14.887,-359.704 L 14.6627,-359.732 L 14.4438,-359.788 L 14.2336,-359.871 L 14.0355,-359.98 L 13.8526,-360.113
 L 13.6879,-360.268 L 13.5438,-360.442 L 13.4226,-360.633 L 13.3264,-360.837 L 13.2565,-361.052 L 13.2142,-361.274
 L 13.2,-361.5 L 13.2142,-361.726 L 13.2565,-361.948 L 13.3264,-362.163 L 13.4226,-362.367 L 13.5438,-362.558
 L 13.6879,-362.732 L 13.8526,-362.887 L 14.0355,-363.02 L 14.2336,-363.129 L 14.4438,-363.212 L 14.6627,-363.268
 L 14.887,-363.296 L 15.113,-363.296 L 15.3373,-363.268 L 15.5562,-363.212 L 15.7664,-363.129 L 15.9645,-363.02
 L 16.1474,-362.887 L 16.3121,-362.732 L 16.4562,-362.558 L 16.5773,-362.367 L 16.6736,-362.163 L 16.7434,-361.948
 L 16.7858,-361.726 L 16.8,-361.5 L 16.7858,-361.274 L 16.7434,-361.052 L 16.6736,-360.837 L 16.5773,-360.633
 L 16.4562,-360.442 L 16.3121,-360.268 L 16.1474,-360.113 L 15.9645,-359.98 L 15.7664,-359.871 L 15.5562,-359.788
 L 15.3373,-359.732 L 15.113,-359.704 z
M -15.113,-134.704 L -15.3373,-134.732 L -15.5562,-134.788 L -15.7664,-134.871 L -15.9645,-134.98 L -16.1474,-135.113
 L -16.3121,-135.268 L -16.4562,-135.442 L -16.5773,-135.633 L -16.6736,-135.837 L -16.7434,-136.052 L -16.7858,-136.274
 L -16.8,-136.5 L -16.7858,-136.726 L -16.7434,-136.948 L -16.6736,-137.163 L -16.5773,-137.367 L -16.4562,-137.558
 L -16.3121,-137.732 L -16.1474,-137.887 L -15.9645,-138.02 L -15.7664,-138.129 L -15.5562,-138.212 L -15.3373,-138.268
 L -15.113,-138.296 L -14.887,-138.296 L -14.6627,-138.268 L -14.4438,-138.212 L -14.2336,-138.129 L -14.0355,-138.02
 L -13.8526,-137.887 L -13.6879,-137.732 L -13.5438,-137.558 L -13.4226,-137.367 L -13.3264,-137.163 L -13.2565,-136.948
 L -13.2142,-136.726 L -13.2,-136.5 L -13.2142,-136.274 L -13.2565,-136.052 L -13.3264,-135.837 L -13.4226,-135.633
 L -13.5438,-135.442 L -13.6879,-135.268 L -13.8526,-135.113 L -14.0355,-134.98 L -14.2336,-134.871 L -14.4438,-134.788
 L -14.6627,-134.732 L -14.887,-134.704 z
M 14.887,-134.704 L 14.6627,-134.732 L 14.4438,-134.788 L 14.2336,-134.871 L 14.0355,-134.98 L 13.8526,-135.113
 L 13.6879,-135.268 L 13.5438,-135.442 L 13.4226,-135.633 L 13.3264,-135.837 L 13.2565,-136.052 L 13.2142,-136.274
 L 13.2,-136.5 L 13.2142,-136.726 L 13.2565,-136.948 L 13.3264,-137.163 L 13.4226,-137.367 L 13.5438,-137.558
 L 13.6879,-137.732 L 13.8526,-137.887 L 14.0355,-138.02 L 14.2336,-138.129 L 14.4438,-138.212 L 14.6627,-138.268
 L 14.887,-138.296 L 15.113,-138.296 L 15.3373,-138.268 L 15.5562,-138.212 L 15.7664,-138.129 L 15.9645,-138.02
 L 16.1474,-137.887 L 16.3121,-137.732 L 16.4562,-137.558 L 16.5773,-137.367 L 16.6736,-137.163 L 16.7434,-136.948
 L 16.7858,-136.726 L 16.8,-136.5 L 16.7858,-136.274 L 16.7434,-136.052 L 16.6736,-135.837 L 16.5773,-135.633
 L 16.4562,-135.442 L 16.3121,-135.268 L 16.1474,-135.113 L 15.9645,-134.98 L 15.7664,-134.871 L 15.5562,-134.788
 L 15.3373,-134.732 L 15.113,-134.704 z
" stroke="black" fill="lightgray" stroke-width="0.5"/>
</svg>
