<?xml version="1.0" standalone="no"?>
<!DOCTYPE svg PUBLIC "-//W3C//DTD SVG 1.1//EN" "http://www.w3.org/Graphics/SVG/1.1/DTD/svg11.dtd">
<svg width="60mm" height="60mm" viewBox="-30 -30 60 60" xmlns="http://www.w3.org/2000/svg" version="1.1">
<title>OpenSCAD Model</title>
<path d="
M 25.4369,29.4114 L 26.0451,29.2553 L 26.6289,29.0241 L 27.1791,28.7216 L 27.6871,28.3526 L 28.1448,27.9227
 L 28.5451,27.4389 L 28.8815,26.9088 L 29.1489,26.3406 L 29.3429,25.7434 L 29.4606,25.1267 L 29.5,24.5
 L 29.5,-24.5 L 29.4606,-25.1267 L 29.3429,-25.7434 L 29.1489,-26.3406 L 28.8815,-26.9088 L 28.5451,-27.4389
 L 28.1448,-27.9227 L 27.6871,-28.3526 L 27.1791,-28.7216 L 26.6289,-29.0241 L 26.0451,-29.2553 L 25.4369,-29.4114
 L 24.8139,-29.4901 L -24.8139,-29.4901 L -25.4369,-29.4114 L -26.0451,-29.2553 L -26.6289,-29.0241 L -27.1791,-28.7216
 L -27.6871,-28.3526 L -28.1448,-27.9227 L -28.5451,-27.4389 L -28.8815,-26.9088 L -29.1489,-26.3406 L -29.3429,-25.7434
 L -29.4606,-25.1267 L -29.5,-24.5 L -29.5,24.5 L -29.4606,25.1267 L -29.3429,25.7434 L -29.1489,26.3406
 L -28.8815,26.9088 L -28.5451,27.4389 L -28.1448,27.9227 L -27.6871,28.3526 L -27.1791,28.7216 L -26.6289,29.0241
 L -26.0451,29.2553 L -25.4369,29.4114 L -24.8139,29.4901 L 24.8139,29.4901 z
M 22.3116,-19.5059 L 21.9379,-19.5531 L 21.5729,-19.6468 L 21.2227,-19.7855 L 20.8925,-19.967 L 20.5877,-20.1884
 L 20.3131,-20.4464 L 20.0729,-20.7366 L 19.8711,-21.0547 L 19.7107,-21.3956 L 19.5942,-21.7539 L 19.5237,-22.124
 L 19.5,-22.5 L 19.5237,-22.876 L 19.5942,-23.2461 L 19.7107,-23.6044 L 19.8711,-23.9453 L 20.0729,-24.2634
 L 20.3131,-24.5536 L 20.5877,-24.8115 L 20.8925,-25.033 L 21.2227,-25.2145 L 21.5729,-25.3532 L 21.9379,-25.4469
 L 22.3116,-25.4941 L 22.6884,-25.4941 L 23.0621,-25.4469 L 23.427,-25.3532 L 23.7773,-25.2145 L 24.1075,-25.033
 L 24.4123,-24.8115 L 24.6869,-24.5536 L 24.927,-24.2634 L 25.1289,-23.9453 L 25.2893,-23.6044 L 25.4057,-23.2461
 L 25.4763,-22.876 L 25.5,-22.5 L 25.4763,-22.124 L 25.4057,-21.7539 L 25.2893,-21.3956 L 25.1289,-21.0547
 L 24.927,-20.7366 L 24.6869,-20.4464 L 24.4123,-20.1884 L 24.1075,-19.967 L 23.7773,-19.7855 L 23.427,-19.6468
 L 23.0621,-19.5531 L 22.6884,-19.5059 z
M -7.68837,-19.5059 L -8.06213,-19.5531 L -8.42705,-19.6468 L -8.77733,-19.7855 L -9.10747,-19.967 L -9.41226,-20.1884
 L -9.6869,-20.4464 L -9.92705,-20.7366 L -10.1289,-21.0547 L -10.2893,-21.3956 L -10.4057,-21.7539 L -10.4763,-22.124
 L -10.5,-22.5 L -10.4763,-22.876 L -10.4057,-23.2461 L -10.2893,-23.6044 L -10.1289,-23.9453 L -9.92705,-24.2634
 L -9.6869,-24.5536 L -9.41226,-24.8115 L -9.10747,-25.033 L -8.77733,-25.2145 L -8.42705,-25.3532 L -8.06213,-25.4469
 L -7.68837,-25.4941 L -7.31161,-25.4941 L -6.93785,-25.4469 L -6.57294,-25.3532 L -6.22266,-25.2145 L -5.89252,-25.033
 L -5.58772,-24.8115 L -5.31308,-24.5536 L -5.07294,-24.2634 L -4.87108,-23.9453 L -4.71066,-23.6044 L -4.59424,-23.2461
 L -4.52365,-22.876 L -4.5,-22.5 L -4.52365,-22.124 L -4.59424,-21.7539 L -4.71066,-21.3956 L -4.87108,-21.0547
 L -5.07294,-20.7366 L -5.31308,-20.4464 L -5.58772,-20.1884 L -5.89252,-19.967 L -6.22266,-19.7855 L -6.57294,-19.6468
 L -6.93785,-19.5531 L -7.31161,-19.5059 z
M -22.6884,-19.5059 L -23.0621,-19.5531 L -23.427,-19.6468 L -23.7773,-19.7855 L -24.1075,-19.967 L -24.4123,-20.1884
 L -24.6869,-20.4464 L -24.927,-20.7366 L -25.1289,-21.0547 L -25.2893,-21.3956 L -25.4057,-21.7539 L -25.4763,-22.124
 L -25.5,-22.5 L -25.4763,-22.876 L -25.4057,-23.2461 L -25.2893,-23.6044 L -25.1289,-23.9453 L -24.927,-24.2634
 L -24.6869,-24.5536 L -24.4123,-24.8115 L -24.1075,-25.033 L -23.7773,-25.2145 L -23.427,-25.3532 L -23.0621,-25.4469
 L -22.6884,-25.4941 L -22.3116,-25.4941 L -21.9379,-25.4469 L -21.5729,-25.3532 L -21.2227,-25.2145 L -20.8925,-25.033
 L -20.5877,-24.8115 L -20.3131,-24.5536 L -20.0729,-24.2634 L -19.8711,-23.9453 L -19.7107,-23.6044 L -19.5942,-23.2461
 L -19.5237,-22.876 L -19.5,-22.5 L -19.5237,-22.124 L -19.5942,-21.7539 L -19.7107,-21.3956 L -19.8711,-21.0547
 L -20.0729,-20.7366 L -20.3131,-20.4464 L -20.5877,-20.1884 L -20.8925,-19.967 L -21.2227,-19.7855 L -21.5729,-19.6468
 L -21.9379,-19.5531 L -22.3116,-19.5059 z
M 4.59424,-23.2461 L 4.71066,-23.6044 L 4.87108,-23.9453 L 5.07294,-24.2634 L 5.31308,-24.5536 L 5.58772,-24.8115
 L 5.89252,-25.033 L 6.22266,-25.2145 L 6.57294,-25.3532 L 6.93785,-25.4469 L 7.31161,-25.4941 L 7.68837,-25.4941
 L 8.06213,-25.4469 L 8.42705,-25.3532 L 8.77733,-25.2145 L 9.10747,-25.033 L 9.41226,-24.8115 L 9.6869,-24.5536
 L 9.92705,-24.2634 L 10.1289,-23.9453 L 10.2893,-23.6044 L 10.4057,-23.2461 L 10.4763,-22.876 L 10.5,-22.5
 L 10.4763,-22.124 L 10.4057,-21.7539 L 10.2893,-21.3956 L 10.1289,-21.0547 L 9.92705,-20.7366 L 9.6869,-20.4464
 L 9.41226,-20.1884 L 9.10747,-19.967 L 8.77733,-19.7855 L 8.42705,-19.6468 L 8.06213,-19.5531 L 7.68837,-19.5059
 L 7.31161,-19.5059 L 6.93785,-19.5531 L 6.57294,-19.6468 L 6.22266,-19.7855 L 5.89252,-19.967 L 5.58772,-20.1884
 L 5.31308,-20.4464 L 5.07294,-20.7366 L 4.87108,-21.0547 L 4.71066,-21.3956 L 4.59424,-21.7539 L 4.52365,-22.124
 L 4.5,-22.5 L 4.52365,-22.876 z
M -15.0942,-21.003 L -15.2811,-21.0266 L -15.4635,-21.0734 L -15.6387,-21.1427 L -15.8037,-21.2335 L -15.9561,-21.3442
 L -16.0934,-21.4732 L -16.2135,-21.6183 L -16.3145,-21.7774 L -16.3947,-21.9478 L -16.4529,-22.127 L -16.4882,-22.312
 L -16.5,-22.5 L -16.4882,-22.688 L -16.4529,-22.873 L -16.3947,-23.0522 L -16.3145,-23.2226 L -16.2135,-23.3817
 L -16.0934,-23.5268 L -15.9561,-23.6558 L -15.8037,-23.7665 L -15.6387,-23.8572 L -15.4635,-23.9266 L -15.2811,-23.9734
 L -15.0942,-23.997 L -14.9058,-23.997 L -14.7189,-23.9734 L -14.5365,-23.9266 L -14.3613,-23.8572 L -14.1963,-23.7665
 L -14.0439,-23.6558 L -13.9065,-23.5268 L -13.7865,-23.3817 L -13.6855,-23.2226 L -13.6053,-23.0522 L -13.5471,-22.873
 L -13.5118,-22.688 L -13.5,-22.5 L -13.5118,-22.312 L -13.5471,-22.127 L -13.6053,-21.9478 L -13.6855,-21.7774
 L -13.7865,-21.6183 L -13.9065,-21.4732 L -14.0439,-21.3442 L -14.1963,-21.2335 L -14.3613,-21.1427 L -14.5365,-21.0734
 L -14.7189,-21.0266 L -14.9058,-21.003 z
M 14.9058,-21.003 L 14.7189,-21.0266 L 14.5365,-21.0734 L 14.3613,-21.1427 L 14.1963,-21.2335 L 14.0439,-21.3442
 L 13.9065,-21.4732 L 13.7865,-21.6183 L 13.6855,-21.7774 L 13.6053,-21.9478 L 13.5471,-22.127 L 13.5118,-22.312
 L 13.5,-22.5 L 13.5118,-22.688 L 13.5471,-22.873 L 13.6053,-23.0522 L 13.6855,-23.2226 L 13.7865,-23.3817
 L 13.9065,-23.5268 L 14.0439,-23.6558 L 14.1963,-23.7665 L 14.3613,-23.8572 L 14.5365,-23.9266 L 14.7189,-23.9734
 L 14.9058,-23.997 L 15.0942,-23.997 L 15.2811,-23.9734 L 15.4635,-23.9266 L 15.6387,-23.8572 L 15.8037,-23.7665
 L 15.9561,-23.6558 L 16.0934,-23.5268 L 16.2135,-23.3817 L 16.3145,-23.2226 L 16.3947,-23.0522 L 16.4529,-22.873
 L 16.4882,-22.688 L 16.5,-22.5 L 16.4882,-22.312 L 16.4529,-22.127 L 16.3947,-21.9478 L 16.3145,-21.7774
 L 16.2135,-21.6183 L 16.0934,-21.4732 L 15.9561,-21.3442 L 15.8037,-21.2335 L 15.6387,-21.1427 L 15.4635,-21.0734
 L 15.2811,-21.0266 L 15.0942,-21.003 z
M -22.5942,-13.5029 L -22.7811,-13.5266 L -22.9635,-13.5734 L -23.1387,-13.6427 L -23.3037,-13.7335 L -23.4561,-13.8442
 L -23.5934,-13.9732 L -23.7135,-14.1183 L -23.8145,-14.2774 L -23.8947,-14.4478 L -23.9529,-14.627 L -23.9882,-14.812
 L -24,-15 L -23.9882,-15.188 L -23.9529,-15.373 L -23.8947,-15.5522 L -23.8145,-15.7226 L -23.7135,-15.8817
 L -23.5934,-16.0268 L -23.4561,-16.1558 L -23.3037,-16.2665 L -23.1387,-16.3572 L -22.9635,-16.4266 L -22.7811,-16.4734
 L -22.5942,-16.497 L -22.4058,-16.497 L -22.2189,-16.4734 L -22.0365,-16.4266 L -21.8613,-16.3572 L -21.6963,-16.2665
 L -21.5439,-16.1558 L -21.4065,-16.0268 L -21.2865,-15.8817 L -21.1855,-15.7226 L -21.1053,-15.5522 L -21.0471,-15.373
 L -21.0118,-15.188 L -21,-15 L -21.0118,-14.812 L -21.0471,-14.627 L -21.1053,-14.4478 L -21.1855,-14.2774
 L -21.2865,-14.1183 L -21.4065,-13.9732 L -21.5439,-13.8442 L -21.6963,-13.7335 L -21.8613,-13.6427 L -22.0365,-13.5734
 L -22.2189,-13.5266 L -22.4058,-13.5029 z
M 22.4058,-13.5029 L 22.2189,-13.5266 L 22.0365,-13.5734 L 21.8613,-13.6427 L 21.6963,-13.7335 L 21.5439,-13.8442
 L 21.4065,-13.9732 L 21.2865,-14.1183 L 21.1855,-14.2774 L 21.1053,-14.4478 L 21.0471,-14.627 L 21.0118,-14.812
 L 21,-15 L 21.0118,-15.188 L 21.0471,-15.373 L 21.1053,-15.5522 L 21.1855,-15.7226 L 21.2865,-15.8817
 L 21.4065,-16.0268 L 21.5439,-16.1558 L 21.6963,-16.2665 L 21.8613,-16.3572 L 22.0365,-16.4266 L 22.2189,-16.4734
 L 22.4058,-16.497 L 22.5942,-16.497 L 22.7811,-16.4734 L 22.9635,-16.4266 L 23.1387,-16.3572 L 23.3037,-16.2665
 L 23.4561,-16.1558 L 23.5934,-16.0268 L 23.7135,-15.8817 L 23.8145,-15.7226 L 23.8947,-15.5522 L 23.9529,-15.373
 L 23.9882,-15.188 L 24,-15 L 23.9882,-14.812 L 23.9529,-14.627 L 23.8947,-14.4478 L 23.8145,-14.2774
 L 23.7135,-14.1183 L 23.5934,-13.9732 L 23.4561,-13.8442 L 23.3037,-13.7335 L 23.1387,-13.6427 L 22.9635,-13.5734
 L 22.7811,-13.5266 L 22.5942,-13.5029 z
M -13.5973,-9.45305 L -13.7904,-9.47745 L -13.979,-9.52585 L -14.16,-9.59752 L -14.3305,-9.69128 L -14.488,-9.80569
 L -14.6299,-9.93895 L -14.754,-10.0889 L -14.8583,-10.2533 L -14.9411,-10.4294 L -15.0013,-10.6145 L -15.0378,-10.8057
 L -15.05,-11 L -15.0378,-11.1943 L -15.0013,-11.3855 L -14.9411,-11.5706 L -14.8583,-11.7467 L -14.754,-11.9111
 L -14.6299,-12.061 L -14.488,-12.1943 L -14.3305,-12.3087 L -14.16,-12.4025 L -13.979,-12.4741 L -13.7904,-12.5225
 L -13.5973,-12.5469 L -13.4027,-12.5469 L -13.2095,-12.5225 L -13.021,-12.4741 L -12.84,-12.4025 L -12.6695,-12.3087
 L -12.512,-12.1943 L -12.3701,-12.061 L -12.246,-11.9111 L -12.1417,-11.7467 L -12.0588,-11.5706 L -11.9987,-11.3855
 L -11.9622,-11.1943 L -11.95,-11 L -11.9622,-10.8057 L -11.9987,-10.6145 L -12.0588,-10.4294 L -12.1417,-10.2533
 L -12.246,-10.0889 L -12.3701,-9.93895 L -12.512,-9.80569 L -12.6695,-9.69128 L -12.84,-9.59752 L -13.021,-9.52585
 L -13.2095,-9.47745 L -13.4027,-9.45305 z
M 22.3116,-4.50591 L 21.9379,-4.55313 L 21.5729,-4.64682 L 21.2227,-4.78551 L 20.8925,-4.96701 L 20.5877,-5.18845
 L 20.3131,-5.44635 L 20.0729,-5.73663 L 19.8711,-6.05473 L 19.7107,-6.39561 L 19.5942,-6.75392 L 19.5237,-7.12399
 L 19.5,-7.5 L 19.5237,-7.87599 L 19.5942,-8.24606 L 19.7107,-8.60437 L 19.8711,-8.94525 L 20.0729,-9.26335
 L 20.3131,-9.55363 L 20.5877,-9.81154 L 20.8925,-10.033 L 21.2227,-10.2145 L 21.5729,-10.3532 L 21.9379,-10.4469
 L 22.3116,-10.4941 L 22.6884,-10.4941 L 23.0621,-10.4469 L 23.427,-10.3532 L 23.7773,-10.2145 L 24.1075,-10.033
 L 24.4123,-9.81154 L 24.6869,-9.55363 L 24.927,-9.26335 L 25.1289,-8.94525 L 25.2893,-8.60437 L 25.4057,-8.24606
 L 25.4763,-7.87599 L 25.5,-7.5 L 25.4763,-7.12399 L 25.4057,-6.75392 L 25.2893,-6.39561 L 25.1289,-6.05473
 L 24.927,-5.73663 L 24.6869,-5.44635 L 24.4123,-5.18845 L 24.1075,-4.96701 L 23.7773,-4.78551 L 23.427,-4.64682
 L 23.0621,-4.55313 L 22.6884,-4.50591 z
M -22.6884,-4.50591 L -23.0621,-4.55313 L -23.427,-4.64682 L -23.7773,-4.78551 L -24.1075,-4.96701 L -24.4123,-5.18845
 L -24.6869,-5.44635 L -24.927,-5.73663 L -25.1289,-6.05473 L -25.2893,-6.39561 L -25.4057,-6.75392 L -25.4763,-7.12399
 L -25.5,-7.5 L -25.4763,-7.87599 L -25.4057,-8.24606 L -25.2893,-8.60437 L -25.1289,-8.94525 L -24.927,-9.26335
 L -24.6869,-9.55363 L -24.4123,-9.81154 L -24.1075,-10.033 L -23.7773,-10.2145 L -23.427,-10.3532 L -23.0621,-10.4469
 L -22.6884,-10.4941 L -22.3116,-10.4941 L -21.9379,-10.4469 L -21.5729,-10.3532 L -21.2227,-10.2145 L -20.8925,-10.033
 L -20.5877,-9.81154 L -20.3131,-9.55363 L -20.0729,-9.26335 L -19.8711,-8.94525 L -19.7107,-8.60437 L -19.5942,-8.24606
 L -19.5237,-7.87599 L -19.5,-7.5 L -19.5237,-7.12399 L -19.5942,-6.75392 L -19.7107,-6.39561 L -19.8711,-6.05473
 L -20.0729,-5.73663 L -20.3131,-5.44635 L -20.5877,-5.18845 L -20.8925,-4.96701 L -21.2227,-4.78551 L -21.5729,-4.64682
 L -21.9379,-4.55313 L -22.3116,-4.50591 z
M -22.5942,1.49704 L -22.7811,1.47342 L -22.9635,1.42657 L -23.1387,1.35724 L -23.3037,1.26648 L -23.4561,1.15576
 L -23.5934,1.02681 L -23.7135,0.881668 L -23.8145,0.722626 L -23.8947,0.552185 L -23.9529,0.373032 L -23.9882,0.187988
 L -24,-0 L -23.9882,-0.187988 L -23.9529,-0.373032 L -23.8947,-0.552185 L -23.8145,-0.722626 L -23.7135,-0.881668
 L -23.5934,-1.02681 L -23.4561,-1.15576 L -23.3037,-1.26648 L -23.1387,-1.35724 L -22.9635,-1.42657 L -22.7811,-1.47342
 L -22.5942,-1.49704 L -22.4058,-1.49704 L -22.2189,-1.47342 L -22.0365,-1.42657 L -21.8613,-1.35724 L -21.6963,-1.26648
 L -21.5439,-1.15576 L -21.4065,-1.02681 L -21.2865,-0.881668 L -21.1855,-0.722626 L -21.1053,-0.552185 L -21.0471,-0.373032
 L -21.0118,-0.187988 L -21,-0 L -21.0118,0.187988 L -21.0471,0.373032 L -21.1053,0.552185 L -21.1855,0.722626
 L -21.2865,0.881668 L -21.4065,1.02681 L -21.5439,1.15576 L -21.6963,1.26648 L -21.8613,1.35724 L -22.0365,1.42657
 L -22.2189,1.47342 L -22.4058,1.49704 z
M 22.4058,1.49704 L 22.2189,1.47342 L 22.0365,1.42657 L 21.8613,1.35724 L 21.6963,1.26648 L 21.5439,1.15576
 L 21.4065,1.02681 L 21.2865,0.881668 L 21.1855,0.722626 L 21.1053,0.552185 L 21.0471,0.373032 L 21.0118,0.187988
 L 21,-0 L 21.0118,-0.187988 L 21.0471,-0.373032 L 21.1053,-0.552185 L 21.1855,-0.722626 L 21.2865,-0.881668
 L 21.4065,-1.02681 L 21.5439,-1.15576 L 21.6963,-1.26648 L 21.8613,-1.35724 L 22.0365,-1.42657 L 22.2189,-1.47342
 L 22.4058,-1.49704 L 22.5942,-1.49704 L 22.7811,-1.47342 L 22.9635,-1.42657 L 23.1387,-1.35724 L 23.3037,-1.26648
 L 23.4561,-1.15576 L 23.5934,-1.02681 L 23.7135,-0.881668 L 23.8145,-0.722626 L 23.8947,-0.552185 L 23.9529,-0.373032
 L 23.9882,-0.187988 L 24,-0 L 23.9882,0.187988 L 23.9529,0.373032 L 23.8947,0.552185 L 23.8145,0.722626
 L 23.7135,0.881668 L 23.5934,1.02681 L 23.4561,1.15576 L 23.3037,1.26648 L 23.1387,1.35724 L 22.9635,1.42657
 L 22.7811,1.47342 L 22.5942,1.49704 z
M -22.6884,10.4941 L -23.0621,10.4469 L -23.427,10.3532 L -23.7773,10.2145 L -24.1075,10.033 L -24.4123,9.81154
 L -24.6869,9.55363 L -24.927,9.26335 L -25.1289,8.94525 L -25.2893,8.60437 L -25.4057,8.24606 L -25.4763,7.87599
 L -25.5,7.5 L -25.4763,7.12399 L -25.4057,6.75392 L -25.2893,6.39561 L -25.1289,6.05473 L -24.927,5.73663
 L -24.6869,5.44635 L -24.4123,5.18845 L -24.1075,4.96701 L -23.7773,4.78551 L -23.427,4.64682 L -23.0621,4.55313
 L -22.6884,4.50591 L -22.3116,4.50591 L -21.9379,4.55313 L -21.5729,4.64682 L -21.2227,4.78551 L -20.8925,4.96701
 L -20.5877,5.18845 L -20.3131,5.44635 L -20.0729,5.73663 L -19.8711,6.05473 L -19.7107,6.39561 L -19.5942,6.75392
 L -19.5237,7.12399 L -19.5,7.5 L -19.5237,7.87599 L -19.5942,8.24606 L -19.7107,8.60437 L -19.8711,8.94525
 L -20.0729,9.26335 L -20.3131,9.55363 L -20.5877,9.81154 L -20.8925,10.033 L -21.2227,10.2145 L -21.5729,10.3532
 L -21.9379,10.4469 L -22.3116,10.4941 z
M 22.3116,10.4941 L 21.9379,10.4469 L 21.5729,10.3532 L 21.2227,10.2145 L 20.8925,10.033 L 20.5877,9.81154
 L 20.3131,9.55363 L 20.0729,9.26335 L 19.8711,8.94525 L 19.7107,8.60437 L 19.5942,8.24606 L 19.5237,7.87599
 L 19.5,7.5 L 19.5237,7.12399 L 19.5942,6.75392 L 19.7107,6.39561 L 19.8711,6.05473 L 20.0729,5.73663
 L 20.3131,5.44635 L 20.5877,5.18845 L 20.8925,4.96701 L 21.2227,4.78551 L 21.5729,4.64682 L 21.9379,4.55313
 L 22.3116,4.50591 L 22.6884,4.50591 L 23.0621,4.55313 L 23.427,4.64682 L 23.7773,4.78551 L 24.1075,4.96701
 L 24.4123,5.18845 L 24.6869,5.44635 L 24.927,5.73663 L 25.1289,6.05473 L 25.2893,6.39561 L 25.4057,6.75392
 L 25.4763,7.12399 L 25.5,7.5 L 25.4763,7.87599 L 25.4057,8.24606 L 25.2893,8.60437 L 25.1289,8.94525
 L 24.927,9.26335 L 24.6869,9.55363 L 24.4123,9.81154 L 24.1075,10.033 L 23.7773,10.2145 L 23.427,10.3532
 L 23.0621,10.4469 L 22.6884,10.4941 z
M 6.40266,12.5469 L 6.20955,12.5225 L 6.02101,12.4741 L 5.84004,12.4025 L 5.66946,12.3087 L 5.51199,12.1943
 L 5.37009,12.061 L 5.24602,11.9111 L 5.14172,11.7467 L 5.05884,11.5706 L 4.99869,11.3855 L 4.96222,11.1943
 L 4.95,11 L 4.96222,10.8057 L 4.99869,10.6145 L 5.05884,10.4294 L 5.14172,10.2533 L 5.24602,10.0889
 L 5.37009,9.93895 L 5.51199,9.80569 L 5.66946,9.69128 L 5.84004,9.59752 L 6.02101,9.52585 L 6.20955,9.47745
 L 6.40266,9.45305 L 6.59732,9.45305 L 6.79044,9.47745 L 6.97897,9.52585 L 7.15996,9.59752 L 7.33052,9.69128
 L 7.48801,9.80569 L 7.6299,9.93895 L 7.75397,10.0889 L 7.85826,10.2533 L 7.94115,10.4294 L 8.0013,10.6145
 L 8.03777,10.8057 L 8.04999,11 L 8.03777,11.1943 L 8.0013,11.3855 L 7.94115,11.5706 L 7.85826,11.7467
 L 7.75397,11.9111 L 7.6299,12.061 L 7.48801,12.1943 L 7.33052,12.3087 L 7.15996,12.4025 L 6.97897,12.4741
 L 6.79044,12.5225 L 6.59732,12.5469 z
M -22.5942,16.497 L -22.7811,16.4734 L -22.9635,16.4266 L -23.1387,16.3572 L -23.3037,16.2665 L -23.4561,16.1558
 L -23.5934,16.0268 L -23.7135,15.8817 L -23.8145,15.7226 L -23.8947,15.5522 L -23.9529,15.373 L -23.9882,15.188
 L -24,15 L -23.9882,14.812 L -23.9529,14.627 L -23.8947,14.4478 L -23.8145,14.2774 L -23.7135,14.1183
 L -23.5934,13.9732 L -23.4561,13.8442 L -23.3037,13.7335 L -23.1387,13.6427 L -22.9635,13.5734 L -22.7811,13.5266
 L -22.5942,13.5029 L -22.4058,13.5029 L -22.2189,13.5266 L -22.0365,13.5734 L -21.8613,13.6427 L -21.6963,13.7335
 L -21.5439,13.8442 L -21.4065,13.9732 L -21.2865,14.1183 L -21.1855,14.2774 L -21.1053,14.4478 L -21.0471,14.627
 L -21.0118,14.812 L -21,15 L -21.0118,15.188 L -21.0471,15.373 L -21.1053,15.5522 L -21.1855,15.7226
 L -21.2865,15.8817 L -21.4065,16.0268 L -21.5439,16.1558 L -21.6963,16.2665 L -21.8613,16.3572 L -22.0365,16.4266
 L -22.2189,16.4734 L -22.4058,16.497 z
M 22.4058,16.497 L 22.2189,16.4734 L 22.0365,16.4266 L 21.8613,16.3572 L 21.6963,16.2665 L 21.5439,16.1558
 L 21.4065,16.0268 L 21.2865,15.8817 L 21.1855,15.7226 L 21.1053,15.5522 L 21.0471,15.373 L 21.0118,15.188
 L 21,15 L 21.0118,14.812 L 21.0471,14.627 L 21.1053,14.4478 L 21.1855,14.2774 L 21.2865,14.1183
 L 21.4065,13.9732 L 21.5439,13.8442 L 21.6963,13.7335 L 21.8613,13.6427 L 22.0365,13.5734 L 22.2189,13.5266
 L 22.4058,13.5029 L 22.5942,13.5029 L 22.7811,13.5266 L 22.9635,13.5734 L 23.1387,13.6427 L 23.3037,13.7335
 L 23.4561,13.8442 L 23.5934,13.9732 L 23.7135,14.1183 L 23.8145,14.2774 L 23.8947,14.4478 L 23.9529,14.627
 L 23.9882,14.812 L 24,15 L 23.9882,15.188 L 23.9529,15.373 L 23.8947,15.5522 L 23.8145,15.7226
 L 23.7135,15.8817 L 23.5934,16.0268 L 23.4561,16.1558 L 23.3037,16.2665 L 23.1387,16.3572 L 22.9635,16.4266
 L 22.7811,16.4734 L 22.5942,16.497 z
M 7.31161,25.4941 L 6.93785,25.4469 L 6.57294,25.3532 L 6.22266,25.2145 L 5.89252,25.033 L 5.58772,24.8115
 L 5.31308,24.5536 L 5.07294,24.2634 L 4.87108,23.9453 L 4.71066,23.6044 L 4.59424,23.2461 L 4.52365,22.876
 L 4.5,22.5 L 4.52365,22.124 L 4.59424,21.7539 L 4.71066,21.3956 L 4.87108,21.0547 L 5.07294,20.7366
 L 5.31308,20.4464 L 5.58772,20.1884 L 5.89252,19.967 L 6.22266,19.7855 L 6.57294,19.6468 L 6.93785,19.5531
 L 7.31161,19.5059 L 7.68837,19.5059 L 8.06213,19.5531 L 8.42705,19.6468 L 8.77733,19.7855 L 9.10747,19.967
 L 9.41226,20.1884 L 9.6869,20.4464 L 9.92705,20.7366 L 10.1289,21.0547 L 10.2893,21.3956 L 10.4057,21.7539
 L 10.4763,22.124 L 10.5,22.5 L 10.4763,22.876 L 10.4057,23.2461 L 10.2893,23.6044 L 10.1289,23.9453
 L 9.92705,24.2634 L 9.6869,24.5536 L 9.41226,24.8115 L 9.10747,25.033 L 8.77733,25.2145 L 8.42705,25.3532
 L 8.06213,25.4469 L 7.68837,25.4941 z
M -22.6884,25.4941 L -23.0621,25.4469 L -23.427,25.3532 L -23.7773,25.2145 L -24.1075,25.033 L -24.4123,24.8115
 L -24.6869,24.5536 L -24.927,24.2634 L -25.1289,23.9453 L -25.2893,23.6044 L -25.4057,23.2461 L -25.4763,22.876
 L -25.5,22.5 L -25.4763,22.124 L -25.4057,21.7539 L -25.2893,21.3956 L -25.1289,21.0547 L -24.927,20.7366
 L -24.6869,20.4464 L -24.4123,20.1884 L -24.1075,19.967 L -23.7773,19.7855 L -23.427,19.6468 L -23.0621,19.5531
 L -22.6884,19.5059 L -22.3116,19.5059 L -21.9379,19.5531 L -21.5729,19.6468 L -21.2227,19.7855 L -20.8925,19.967
 L -20.5877,20.1884 L -20.3131,20.4464 L -20.0729,20.7366 L -19.8711,21.0547 L -19.7107,21.3956 L -19.5942,21.7539
 L -19.5237,22.124 L -19.5,22.5 L -19.5237,22.876 L -19.5942,23.2461 L -19.7107,23.6044 L -19.8711,23.9453
 L -20.0729,24.2634 L -20.3131,24.5536 L -20.5877,24.8115 L -20.8925,25.033 L -21.2227,25.2145 L -21.5729,25.3532
 L -21.9379,25.4469 L -22.3116,25.4941 z
M 22.3116,25.4941 L 21.9379,25.4469 L 21.5729,25.3532 L 21.2227,25.2145 L 20.8925,25.033 L 20.5877,24.8115
 L 20.3131,24.5536 L 20.0729,24.2634 L 19.8711,23.9453 L 19.7107,23.6044 L 19.5942,23.2461 L 19.5237,22.876
 L 19.5,22.5 L 19.5237,22.124 L 19.5942,21.7539 L 19.7107,21.3956 L 19.8711,21.0547 L 20.0729,20.7366
 L 20.3131,20.4464 L 20.5877,20.1884 L 20.8925,19.967 L 21.2227,19.7855 L 21.5729,19.6468 L 21.9379,19.5531
 L 22.3116,19.5059 L 22.6884,19.5059 L 23.0621,19.5531 L 23.427,19.6468 L 23.7773,19.7855 L 24.1075,19.967
 L 24.4123,20.1884 L 24.6869,20.4464 L 24.927,20.7366 L 25.1289,21.0547 L 25.2893,21.3956 L 25.4057,21.7539
 L 25.4763,22.124 L 25.5,22.5 L 25.4763,22.876 L 25.4057,23.2461 L 25.2893,23.6044 L 25.1289,23.9453
 L 24.927,24.2634 L 24.6869,24.5536 L 24.4123,24.8115 L 24.1075,25.033 L 23.7773,25.2145 L 23.427,25.3532
 L 23.0621,25.4469 L 22.6884,25.4941 z
M -7.68837,25.4941 L -8.06213,25.4469 L -8.42705,25.3532 L -8.77733,25.2145 L -9.10747,25.033 L -9.41226,24.8115
 L -9.6869,24.5536 L -9.92705,24.2634 L -10.1289,23.9453 L -10.2893,23.6044 L -10.4057,23.2461 L -10.4763,22.876
 L -10.5,22.5 L -10.4763,22.124 L -10.4057,21.7539 L -10.2893,21.3956 L -10.1289,21.0547 L -9.92705,20.7366
 L -9.6869,20.4464 L -9.41226,20.1884 L -9.10747,19.967 L -8.77733,19.7855 L -8.42705,19.6468 L -8.06213,19.5531
 L -7.68837,19.5059 L -7.31161,19.5059 L -6.93785,19.5531 L -6.57294,19.6468 L -6.22266,19.7855 L -5.89252,19.967
 L -5.58772,20.1884 L -5.31308,20.4464 L -5.07294,20.7366 L -4.87108,21.0547 L -4.71066,21.3956 L -4.59424,21.7539
 L -4.52365,22.124 L -4.5,22.5 L -4.52365,22.876 L -4.59424,23.2461 L -4.71066,23.6044 L -4.87108,23.9453
 L -5.07294,24.2634 L -5.31308,24.5536 L -5.58772,24.8115 L -5.89252,25.033 L -6.22266,25.2145 L -6.57294,25.3532
 L -6.93785,25.4469 L -7.31161,25.4941 z
M -0.0941772,23.997 L -0.281067,23.9734 L -0.463516,23.9266 L -0.638657,23.8572 L -0.803726,23.7665 L -0.956131,23.6558
 L -1.09344,23.5268 L -1.21352,23.3817 L -1.31445,23.2226 L -1.39465,23.0522 L -1.45287,22.873 L -1.48816,22.688
 L -1.5,22.5 L -1.48816,22.312 L -1.45287,22.127 L -1.39465,21.9478 L -1.31445,21.7774 L -1.21352,21.6183
 L -1.09344,21.4732 L -0.956131,21.3442 L -0.803726,21.2335 L -0.638657,21.1427 L -0.463516,21.0734 L -0.281067,21.0266
 L -0.0941772,21.003 L 0.0941772,21.003 L 0.281067,21.0266 L 0.463516,21.0734 L 0.638657,21.1427 L 0.803726,21.2335
 L 0.956131,21.3442 L 1.09344,21.4732 L 1.21352,21.6183 L 1.31445,21.7774 L 1.39465,21.9478 L 1.45287,22.127
 L 1.48816,22.312 L 1.5,22.5 L 1.48816,22.688 L 1.45287,22.873 L 1.39465,23.0522 L 1.31445,23.2226
 L 1.21352,23.3817 L 1.09344,23.5268 L 0.956131,23.6558 L 0.803726,23.7665 L 0.638657,23.8572 L 0.463516,23.9266
 L 0.281067,23.9734 L 0.0941772,23.997 z
M -15.0942,23.997 L -15.2811,23.9734 L -15.4635,23.9266 L -15.6387,23.8572 L -15.8037,23.7665 L -15.9561,23.6558
 L -16.0934,23.5268 L -16.2135,23.3817 L -16.3145,23.2226 L -16.3947,23.0522 L -16.4529,22.873 L -16.4882,22.688
 L -16.5,22.5 L -16.4882,22.312 L -16.4529,22.127 L -16.3947,21.9478 L -16.3145,21.7774 L -16.2135,21.6183
 L -16.0934,21.4732 L -15.9561,21.3442 L -15.8037,21.2335 L -15.6387,21.1427 L -15.4635,21.0734 L -15.2811,21.0266
 L -15.0942,21.003 L -14.9058,21.003 L -14.7189,21.0266 L -14.5365,21.0734 L -14.3613,21.1427 L -14.1963,21.2335
 L -14.0439,21.3442 L -13.9065,21.4732 L -13.7865,21.6183 L -13.6855,21.7774 L -13.6053,21.9478 L -13.5471,22.127
 L -13.5118,22.312 L -13.5,22.5 L -13.5118,22.688 L -13.5471,22.873 L -13.6053,23.0522 L -13.6855,23.2226
 L -13.7865,23.3817 L -13.9065,23.5268 L -14.0439,23.6558 L -14.1963,23.7665 L -14.3613,23.8572 L -14.5365,23.9266
 L -14.7189,23.9734 L -14.9058,23.997 z
M 14.9058,23.997 L 14.7189,23.9734 L 14.5365,23.9266 L 14.3613,23.8572 L 14.1963,23.7665 L 14.0439,23.6558
 L 13.9065,23.5268 L 13.7865,23.3817 L 13.6855,23.2226 L 13.6053,23.0522 L 13.5471,22.873 L 13.5118,22.688
 L 13.5,22.5 L 13.5118,22.312 L 13.5471,22.127 L 13.6053,21.9478 L 13.6855,21.7774 L 13.7865,21.6183
 L 13.9065,21.4732 L 14.0439,21.3442 L 14.1963,21.2335 L 14.3613,21.1427 L 14.5365,21.0734 L 14.7189,21.0266
 L 14.9058,21.003 L 15.0942,21.003 L 15.2811,21.0266 L 15.4635,21.0734 L 15.6387,21.1427 L 15.8037,21.2335
 L 15.9561,21.3442 L 16.0934,21.4732 L 16.2135,21.6183 L 16.3145,21.7774 L 16.3947,21.9478 L 16.4529,22.127
 L 16.4882,22.312 L 16.5,22.5 L 16.4882,22.688 L 16.4529,22.873 L 16.3947,23.0522 L 16.3145,23.2226
 L 16.2135,23.3817 L 16.0934,23.5268 L 15.9561,23.6558 L 15.8037,23.7665 L 15.6387,23.8572 L 15.4635,23.9266
 L 15.2811,23.9734 L 15.0942,23.997 z
M 1.45287,-22.127 L 1.39465,-21.9478 L 1.31445,-21.7774 L 1.21352,-21.6183 L 1.09344,-21.4732 L 0.956131,-21.3442
 L 0.803726,-21.2335 L 0.638657,-21.1427 L 0.463516,-21.0734 L 0.281067,-21.0266 L 0.0941772,-21.003 L -0.0941772,-21.003
 L -0.281067,-21.0266 L -0.463516,-21.0734 L -0.638657,-21.1427 L -0.803726,-21.2335 L -0.956131,-21.3442 L -1.09344,-21.4732
 L -1.21352,-21.6183 L -1.31445,-21.7774 L -1.39465,-21.9478 L -1.45287,-22.127 L -1.48816,-22.312 L -1.5,-22.5
 L -1.48816,-22.688 L -1.45287,-22.873 L -1.39465,-23.0522 L -1.31445,-23.2226 L -1.21352,-23.3817 L -1.09344,-23.5268
 L -0.956131,-23.6558 L -0.803726,-23.7665 L -0.638657,-23.8572 L -0.463516,-23.9266 L -0.281067,-23.9734 L -0.0941772,-23.997
 L 0.0941772,-23.997 L 0.281067,-23.9734 L 0.463516,-23.9266 L 0.638657,-23.8572 L 0.803726,-23.7665 L 0.956131,-23.6558
 L 1.09344,-23.5268 L 1.21352,-23.3817 L 1.31445,-23.2226 L 1.39465,-23.0522 L 1.45287,-22.873 L 1.48816,-22.688
 L 1.5,-22.5 L 1.48816,-22.312 z
" stroke="black" fill="lightgray" stroke-width="0.5"/>
</svg>
