<?xml version="1.0" standalone="no"?>
<!DOCTYPE svg PUBLIC "-//W3C//DTD SVG 1.1//EN" "http://www.w3.org/Graphics/SVG/1.1/DTD/svg11.dtd">
<svg width="226mm" height="1926mm" viewBox="-113 -3801 226 1926" xmlns="http://www.w3.org/2000/svg" version="1.1">
<title>OpenSCAD Model</title>
<path d="
M 108.437,-3681.09 L 109.045,-3681.24 L 109.629,-3681.48 L 110.179,-3681.78 L 110.687,-3682.15 L 111.145,-3682.58
 L 111.545,-3683.06 L 111.882,-3683.59 L 112.149,-3684.16 L 112.343,-3684.76 L 112.461,-3685.37 L 112.5,-3686
 L 112.5,-3796 L 112.461,-3796.63 L 112.343,-3797.24 L 112.149,-3797.84 L 111.882,-3798.41 L 111.545,-3798.94
 L 111.145,-3799.42 L 110.687,-3799.85 L 110.179,-3800.22 L 109.629,-3800.52 L 109.045,-3800.76 L 108.437,-3800.91
 L 107.814,-3800.99 L -107.814,-3800.99 L -108.437,-3800.91 L -109.045,-3800.76 L -109.629,-3800.52 L -110.179,-3800.22
 L -110.687,-3799.85 L -111.145,-3799.42 L -111.545,-3798.94 L -111.882,-3798.41 L -112.149,-3797.84 L -112.343,-3797.24
 L -112.461,-3796.63 L -112.5,-3796 L -112.5,-3686 L -112.461,-3685.37 L -112.343,-3684.76 L -112.149,-3684.16
 L -111.882,-3683.59 L -111.545,-3683.06 L -111.145,-3682.58 L -110.687,-3682.15 L -110.179,-3681.78 L -109.629,-3681.48
 L -109.045,-3681.24 L -108.437,-3681.09 L -107.814,-3681.01 L 107.814,-3681.01 z
M -107.548,-3681.51 L -108.14,-3681.58 L -108.718,-3681.73 L -109.272,-3681.95 L -109.795,-3682.24 L -110.278,-3682.59
 L -110.713,-3683 L -111.093,-3683.46 L -111.412,-3683.96 L -111.666,-3684.5 L -111.851,-3685.07 L -111.963,-3685.65
 L -112,-3686.25 L -112,-3795.75 L -111.963,-3796.35 L -111.851,-3796.93 L -111.666,-3797.5 L -111.412,-3798.04
 L -111.093,-3798.54 L -110.713,-3799 L -110.278,-3799.41 L -109.795,-3799.76 L -109.272,-3800.05 L -108.718,-3800.27
 L -108.14,-3800.42 L -107.548,-3800.49 L 107.548,-3800.49 L 108.14,-3800.42 L 108.718,-3800.27 L 109.272,-3800.05
 L 109.795,-3799.76 L 110.278,-3799.41 L 110.713,-3799 L 111.093,-3798.54 L 111.412,-3798.04 L 111.666,-3797.5
 L 111.851,-3796.93 L 111.963,-3796.35 L 112,-3795.75 L 112,-3686.25 L 111.963,-3685.65 L 111.851,-3685.07
 L 111.666,-3684.5 L 111.412,-3683.96 L 111.093,-3683.46 L 110.713,-3683 L 110.278,-3682.59 L 109.795,-3682.24
 L 109.272,-3681.95 L 108.718,-3681.73 L 108.14,-3681.58 L 107.548,-3681.51 z
M 108.437,-3552.09 L 109.045,-3552.24 L 109.629,-3552.48 L 110.179,-3552.78 L 110.687,-3553.15 L 111.145,-3553.58
 L 111.545,-3554.06 L 111.882,-3554.59 L 112.149,-3555.16 L 112.343,-3555.76 L 112.461,-3556.37 L 112.5,-3557
 L 112.5,-3667 L 112.461,-3667.63 L 112.343,-3668.24 L 112.149,-3668.84 L 111.882,-3669.41 L 111.545,-3669.94
 L 111.145,-3670.42 L 110.687,-3670.85 L 110.179,-3671.22 L 109.629,-3671.52 L 109.045,-3671.76 L 108.437,-3671.91
 L 107.814,-3671.99 L -107.814,-3671.99 L -108.437,-3671.91 L -109.045,-3671.76 L -109.629,-3671.52 L -110.179,-3671.22
 L -110.687,-3670.85 L -111.145,-3670.42 L -111.545,-3669.94 L -111.882,-3669.41 L -112.149,-3668.84 L -112.343,-3668.24
 L -112.461,-3667.63 L -112.5,-3667 L -112.5,-3557 L -112.461,-3556.37 L -112.343,-3555.76 L -112.149,-3555.16
 L -111.882,-3554.59 L -111.545,-3554.06 L -111.145,-3553.58 L -110.687,-3553.15 L -110.179,-3552.78 L -109.629,-3552.48
 L -109.045,-3552.24 L -108.437,-3552.09 L -107.814,-3552.01 L 107.814,-3552.01 z
M -107.548,-3552.51 L -108.14,-3552.58 L -108.718,-3552.73 L -109.272,-3552.95 L -109.795,-3553.24 L -110.278,-3553.59
 L -110.713,-3554 L -111.093,-3554.46 L -111.412,-3554.96 L -111.666,-3555.5 L -111.851,-3556.07 L -111.963,-3556.65
 L -112,-3557.25 L -112,-3666.75 L -111.963,-3667.35 L -111.851,-3667.93 L -111.666,-3668.5 L -111.412,-3669.04
 L -111.093,-3669.54 L -110.713,-3670 L -110.278,-3670.41 L -109.795,-3670.76 L -109.272,-3671.05 L -108.718,-3671.27
 L -108.14,-3671.42 L -107.548,-3671.49 L 107.548,-3671.49 L 108.14,-3671.42 L 108.718,-3671.27 L 109.272,-3671.05
 L 109.795,-3670.76 L 110.278,-3670.41 L 110.713,-3670 L 111.093,-3669.54 L 111.412,-3669.04 L 111.666,-3668.5
 L 111.851,-3667.93 L 111.963,-3667.35 L 112,-3666.75 L 112,-3557.25 L 111.963,-3556.65 L 111.851,-3556.07
 L 111.666,-3555.5 L 111.412,-3554.96 L 111.093,-3554.46 L 110.713,-3554 L 110.278,-3553.59 L 109.795,-3553.24
 L 109.272,-3552.95 L 108.718,-3552.73 L 108.14,-3552.58 L 107.548,-3552.51 z
M 108.437,-3423.09 L 109.045,-3423.24 L 109.629,-3423.48 L 110.179,-3423.78 L 110.687,-3424.15 L 111.145,-3424.58
 L 111.545,-3425.06 L 111.882,-3425.59 L 112.149,-3426.16 L 112.343,-3426.76 L 112.461,-3427.37 L 112.5,-3428
 L 112.5,-3538 L 112.461,-3538.63 L 112.343,-3539.24 L 112.149,-3539.84 L 111.882,-3540.41 L 111.545,-3540.94
 L 111.145,-3541.42 L 110.687,-3541.85 L 110.179,-3542.22 L 109.629,-3542.52 L 109.045,-3542.76 L 108.437,-3542.91
 L 107.814,-3542.99 L -107.814,-3542.99 L -108.437,-3542.91 L -109.045,-3542.76 L -109.629,-3542.52 L -110.179,-3542.22
 L -110.687,-3541.85 L -111.145,-3541.42 L -111.545,-3540.94 L -111.882,-3540.41 L -112.149,-3539.84 L -112.343,-3539.24
 L -112.461,-3538.63 L -112.5,-3538 L -112.5,-3428 L -112.461,-3427.37 L -112.343,-3426.76 L -112.149,-3426.16
 L -111.882,-3425.59 L -111.545,-3425.06 L -111.145,-3424.58 L -110.687,-3424.15 L -110.179,-3423.78 L -109.629,-3423.48
 L -109.045,-3423.24 L -108.437,-3423.09 L -107.814,-3423.01 L 107.814,-3423.01 z
M -107.548,-3423.51 L -108.14,-3423.58 L -108.718,-3423.73 L -109.272,-3423.95 L -109.795,-3424.24 L -110.278,-3424.59
 L -110.713,-3425 L -111.093,-3425.46 L -111.412,-3425.96 L -111.666,-3426.5 L -111.851,-3427.07 L -111.963,-3427.65
 L -112,-3428.25 L -112,-3537.75 L -111.963,-3538.35 L -111.851,-3538.93 L -111.666,-3539.5 L -111.412,-3540.04
 L -111.093,-3540.54 L -110.713,-3541 L -110.278,-3541.41 L -109.795,-3541.76 L -109.272,-3542.05 L -108.718,-3542.27
 L -108.14,-3542.42 L -107.548,-3542.49 L 107.548,-3542.49 L 108.14,-3542.42 L 108.718,-3542.27 L 109.272,-3542.05
 L 109.795,-3541.76 L 110.278,-3541.41 L 110.713,-3541 L 111.093,-3540.54 L 111.412,-3540.04 L 111.666,-3539.5
 L 111.851,-3538.93 L 111.963,-3538.35 L 112,-3537.75 L 112,-3428.25 L 111.963,-3427.65 L 111.851,-3427.07
 L 111.666,-3426.5 L 111.412,-3425.96 L 111.093,-3425.46 L 110.713,-3425 L 110.278,-3424.59 L 109.795,-3424.24
 L 109.272,-3423.95 L 108.718,-3423.73 L 108.14,-3423.58 L 107.548,-3423.51 z
M 108.437,-3294.09 L 109.045,-3294.24 L 109.629,-3294.48 L 110.179,-3294.78 L 110.687,-3295.15 L 111.145,-3295.58
 L 111.545,-3296.06 L 111.882,-3296.59 L 112.149,-3297.16 L 112.343,-3297.76 L 112.461,-3298.37 L 112.5,-3299
 L 112.5,-3409 L 112.461,-3409.63 L 112.343,-3410.24 L 112.149,-3410.84 L 111.882,-3411.41 L 111.545,-3411.94
 L 111.145,-3412.42 L 110.687,-3412.85 L 110.179,-3413.22 L 109.629,-3413.52 L 109.045,-3413.76 L 108.437,-3413.91
 L 107.814,-3413.99 L -107.814,-3413.99 L -108.437,-3413.91 L -109.045,-3413.76 L -109.629,-3413.52 L -110.179,-3413.22
 L -110.687,-3412.85 L -111.145,-3412.42 L -111.545,-3411.94 L -111.882,-3411.41 L -112.149,-3410.84 L -112.343,-3410.24
 L -112.461,-3409.63 L -112.5,-3409 L -112.5,-3299 L -112.461,-3298.37 L -112.343,-3297.76 L -112.149,-3297.16
 L -111.882,-3296.59 L -111.545,-3296.06 L -111.145,-3295.58 L -110.687,-3295.15 L -110.179,-3294.78 L -109.629,-3294.48
 L -109.045,-3294.24 L -108.437,-3294.09 L -107.814,-3294.01 L 107.814,-3294.01 z
M -107.548,-3294.51 L -108.14,-3294.58 L -108.718,-3294.73 L -109.272,-3294.95 L -109.795,-3295.24 L -110.278,-3295.59
 L -110.713,-3296 L -111.093,-3296.46 L -111.412,-3296.96 L -111.666,-3297.5 L -111.851,-3298.07 L -111.963,-3298.65
 L -112,-3299.25 L -112,-3408.75 L -111.963,-3409.35 L -111.851,-3409.93 L -111.666,-3410.5 L -111.412,-3411.04
 L -111.093,-3411.54 L -110.713,-3412 L -110.278,-3412.41 L -109.795,-3412.76 L -109.272,-3413.05 L -108.718,-3413.27
 L -108.14,-3413.42 L -107.548,-3413.49 L 107.548,-3413.49 L 108.14,-3413.42 L 108.718,-3413.27 L 109.272,-3413.05
 L 109.795,-3412.76 L 110.278,-3412.41 L 110.713,-3412 L 111.093,-3411.54 L 111.412,-3411.04 L 111.666,-3410.5
 L 111.851,-3409.93 L 111.963,-3409.35 L 112,-3408.75 L 112,-3299.25 L 111.963,-3298.65 L 111.851,-3298.07
 L 111.666,-3297.5 L 111.412,-3296.96 L 111.093,-3296.46 L 110.713,-3296 L 110.278,-3295.59 L 109.795,-3295.24
 L 109.272,-3294.95 L 108.718,-3294.73 L 108.14,-3294.58 L 107.548,-3294.51 z
M 108.437,-3165.09 L 109.045,-3165.24 L 109.629,-3165.48 L 110.179,-3165.78 L 110.687,-3166.15 L 111.145,-3166.58
 L 111.545,-3167.06 L 111.882,-3167.59 L 112.149,-3168.16 L 112.343,-3168.76 L 112.461,-3169.37 L 112.5,-3170
 L 112.5,-3280 L 112.461,-3280.63 L 112.343,-3281.24 L 112.149,-3281.84 L 111.882,-3282.41 L 111.545,-3282.94
 L 111.145,-3283.42 L 110.687,-3283.85 L 110.179,-3284.22 L 109.629,-3284.52 L 109.045,-3284.76 L 108.437,-3284.91
 L 107.814,-3284.99 L -107.814,-3284.99 L -108.437,-3284.91 L -109.045,-3284.76 L -109.629,-3284.52 L -110.179,-3284.22
 L -110.687,-3283.85 L -111.145,-3283.42 L -111.545,-3282.94 L -111.882,-3282.41 L -112.149,-3281.84 L -112.343,-3281.24
 L -112.461,-3280.63 L -112.5,-3280 L -112.5,-3170 L -112.461,-3169.37 L -112.343,-3168.76 L -112.149,-3168.16
 L -111.882,-3167.59 L -111.545,-3167.06 L -111.145,-3166.58 L -110.687,-3166.15 L -110.179,-3165.78 L -109.629,-3165.48
 L -109.045,-3165.24 L -108.437,-3165.09 L -107.814,-3165.01 L 107.814,-3165.01 z
M -107.548,-3165.51 L -108.14,-3165.58 L -108.718,-3165.73 L -109.272,-3165.95 L -109.795,-3166.24 L -110.278,-3166.59
 L -110.713,-3167 L -111.093,-3167.46 L -111.412,-3167.96 L -111.666,-3168.5 L -111.851,-3169.07 L -111.963,-3169.65
 L -112,-3170.25 L -112,-3279.75 L -111.963,-3280.35 L -111.851,-3280.93 L -111.666,-3281.5 L -111.412,-3282.04
 L -111.093,-3282.54 L -110.713,-3283 L -110.278,-3283.41 L -109.795,-3283.76 L -109.272,-3284.05 L -108.718,-3284.27
 L -108.14,-3284.42 L -107.548,-3284.49 L 107.548,-3284.49 L 108.14,-3284.42 L 108.718,-3284.27 L 109.272,-3284.05
 L 109.795,-3283.76 L 110.278,-3283.41 L 110.713,-3283 L 111.093,-3282.54 L 111.412,-3282.04 L 111.666,-3281.5
 L 111.851,-3280.93 L 111.963,-3280.35 L 112,-3279.75 L 112,-3170.25 L 111.963,-3169.65 L 111.851,-3169.07
 L 111.666,-3168.5 L 111.412,-3167.96 L 111.093,-3167.46 L 110.713,-3167 L 110.278,-3166.59 L 109.795,-3166.24
 L 109.272,-3165.95 L 108.718,-3165.73 L 108.14,-3165.58 L 107.548,-3165.51 z
M 108.437,-3036.09 L 109.045,-3036.24 L 109.629,-3036.48 L 110.179,-3036.78 L 110.687,-3037.15 L 111.145,-3037.58
 L 111.545,-3038.06 L 111.882,-3038.59 L 112.149,-3039.16 L 112.343,-3039.76 L 112.461,-3040.37 L 112.5,-3041
 L 112.5,-3151 L 112.461,-3151.63 L 112.343,-3152.24 L 112.149,-3152.84 L 111.882,-3153.41 L 111.545,-3153.94
 L 111.145,-3154.42 L 110.687,-3154.85 L 110.179,-3155.22 L 109.629,-3155.52 L 109.045,-3155.76 L 108.437,-3155.91
 L 107.814,-3155.99 L -107.814,-3155.99 L -108.437,-3155.91 L -109.045,-3155.76 L -109.629,-3155.52 L -110.179,-3155.22
 L -110.687,-3154.85 L -111.145,-3154.42 L -111.545,-3153.94 L -111.882,-3153.41 L -112.149,-3152.84 L -112.343,-3152.24
 L -112.461,-3151.63 L -112.5,-3151 L -112.5,-3041 L -112.461,-3040.37 L -112.343,-3039.76 L -112.149,-3039.16
 L -111.882,-3038.59 L -111.545,-3038.06 L -111.145,-3037.58 L -110.687,-3037.15 L -110.179,-3036.78 L -109.629,-3036.48
 L -109.045,-3036.24 L -108.437,-3036.09 L -107.814,-3036.01 L 107.814,-3036.01 z
M -107.548,-3036.51 L -108.14,-3036.58 L -108.718,-3036.73 L -109.272,-3036.95 L -109.795,-3037.24 L -110.278,-3037.59
 L -110.713,-3038 L -111.093,-3038.46 L -111.412,-3038.96 L -111.666,-3039.5 L -111.851,-3040.07 L -111.963,-3040.65
 L -112,-3041.25 L -112,-3150.75 L -111.963,-3151.35 L -111.851,-3151.93 L -111.666,-3152.5 L -111.412,-3153.04
 L -111.093,-3153.54 L -110.713,-3154 L -110.278,-3154.41 L -109.795,-3154.76 L -109.272,-3155.05 L -108.718,-3155.27
 L -108.14,-3155.42 L -107.548,-3155.49 L 107.548,-3155.49 L 108.14,-3155.42 L 108.718,-3155.27 L 109.272,-3155.05
 L 109.795,-3154.76 L 110.278,-3154.41 L 110.713,-3154 L 111.093,-3153.54 L 111.412,-3153.04 L 111.666,-3152.5
 L 111.851,-3151.93 L 111.963,-3151.35 L 112,-3150.75 L 112,-3041.25 L 111.963,-3040.65 L 111.851,-3040.07
 L 111.666,-3039.5 L 111.412,-3038.96 L 111.093,-3038.46 L 110.713,-3038 L 110.278,-3037.59 L 109.795,-3037.24
 L 109.272,-3036.95 L 108.718,-3036.73 L 108.14,-3036.58 L 107.548,-3036.51 z
M 108.437,-2907.09 L 109.045,-2907.24 L 109.629,-2907.48 L 110.179,-2907.78 L 110.687,-2908.15 L 111.145,-2908.58
 L 111.545,-2909.06 L 111.882,-2909.59 L 112.149,-2910.16 L 112.343,-2910.76 L 112.461,-2911.37 L 112.5,-2912
 L 112.5,-3022 L 112.461,-3022.63 L 112.343,-3023.24 L 112.149,-3023.84 L 111.882,-3024.41 L 111.545,-3024.94
 L 111.145,-3025.42 L 110.687,-3025.85 L 110.179,-3026.22 L 109.629,-3026.52 L 109.045,-3026.76 L 108.437,-3026.91
 L 107.814,-3026.99 L -107.814,-3026.99 L -108.437,-3026.91 L -109.045,-3026.76 L -109.629,-3026.52 L -110.179,-3026.22
 L -110.687,-3025.85 L -111.145,-3025.42 L -111.545,-3024.94 L -111.882,-3024.41 L -112.149,-3023.84 L -112.343,-3023.24
 L -112.461,-3022.63 L -112.5,-3022 L -112.5,-2912 L -112.461,-2911.37 L -112.343,-2910.76 L -112.149,-2910.16
 L -111.882,-2909.59 L -111.545,-2909.06 L -111.145,-2908.58 L -110.687,-2908.15 L -110.179,-2907.78 L -109.629,-2907.48
 L -109.045,-2907.24 L -108.437,-2907.09 L -107.814,-2907.01 L 107.814,-2907.01 z
M -107.548,-2907.51 L -108.14,-2907.58 L -108.718,-2907.73 L -109.272,-2907.95 L -109.795,-2908.24 L -110.278,-2908.59
 L -110.713,-2909 L -111.093,-2909.46 L -111.412,-2909.96 L -111.666,-2910.5 L -111.851,-2911.07 L -111.963,-2911.65
 L -112,-2912.25 L -112,-3021.75 L -111.963,-3022.35 L -111.851,-3022.93 L -111.666,-3023.5 L -111.412,-3024.04
 L -111.093,-3024.54 L -110.713,-3025 L -110.278,-3025.41 L -109.795,-3025.76 L -109.272,-3026.05 L -108.718,-3026.27
 L -108.14,-3026.42 L -107.548,-3026.49 L 107.548,-3026.49 L 108.14,-3026.42 L 108.718,-3026.27 L 109.272,-3026.05
 L 109.795,-3025.76 L 110.278,-3025.41 L 110.713,-3025 L 111.093,-3024.54 L 111.412,-3024.04 L 111.666,-3023.5
 L 111.851,-3022.93 L 111.963,-3022.35 L 112,-3021.75 L 112,-2912.25 L 111.963,-2911.65 L 111.851,-2911.07
 L 111.666,-2910.5 L 111.412,-2909.96 L 111.093,-2909.46 L 110.713,-2909 L 110.278,-2908.59 L 109.795,-2908.24
 L 109.272,-2907.95 L 108.718,-2907.73 L 108.14,-2907.58 L 107.548,-2907.51 z
M 108.437,-2778.09 L 109.045,-2778.24 L 109.629,-2778.48 L 110.179,-2778.78 L 110.687,-2779.15 L 111.145,-2779.58
 L 111.545,-2780.06 L 111.882,-2780.59 L 112.149,-2781.16 L 112.343,-2781.76 L 112.461,-2782.37 L 112.5,-2783
 L 112.5,-2893 L 112.461,-2893.63 L 112.343,-2894.24 L 112.149,-2894.84 L 111.882,-2895.41 L 111.545,-2895.94
 L 111.145,-2896.42 L 110.687,-2896.85 L 110.179,-2897.22 L 109.629,-2897.52 L 109.045,-2897.76 L 108.437,-2897.91
 L 107.814,-2897.99 L -107.814,-2897.99 L -108.437,-2897.91 L -109.045,-2897.76 L -109.629,-2897.52 L -110.179,-2897.22
 L -110.687,-2896.85 L -111.145,-2896.42 L -111.545,-2895.94 L -111.882,-2895.41 L -112.149,-2894.84 L -112.343,-2894.24
 L -112.461,-2893.63 L -112.5,-2893 L -112.5,-2783 L -112.461,-2782.37 L -112.343,-2781.76 L -112.149,-2781.16
 L -111.882,-2780.59 L -111.545,-2780.06 L -111.145,-2779.58 L -110.687,-2779.15 L -110.179,-2778.78 L -109.629,-2778.48
 L -109.045,-2778.24 L -108.437,-2778.09 L -107.814,-2778.01 L 107.814,-2778.01 z
M -107.548,-2778.51 L -108.14,-2778.58 L -108.718,-2778.73 L -109.272,-2778.95 L -109.795,-2779.24 L -110.278,-2779.59
 L -110.713,-2780 L -111.093,-2780.46 L -111.412,-2780.96 L -111.666,-2781.5 L -111.851,-2782.07 L -111.963,-2782.65
 L -112,-2783.25 L -112,-2892.75 L -111.963,-2893.35 L -111.851,-2893.93 L -111.666,-2894.5 L -111.412,-2895.04
 L -111.093,-2895.54 L -110.713,-2896 L -110.278,-2896.41 L -109.795,-2896.76 L -109.272,-2897.05 L -108.718,-2897.27
 L -108.14,-2897.42 L -107.548,-2897.49 L 107.548,-2897.49 L 108.14,-2897.42 L 108.718,-2897.27 L 109.272,-2897.05
 L 109.795,-2896.76 L 110.278,-2896.41 L 110.713,-2896 L 111.093,-2895.54 L 111.412,-2895.04 L 111.666,-2894.5
 L 111.851,-2893.93 L 111.963,-2893.35 L 112,-2892.75 L 112,-2783.25 L 111.963,-2782.65 L 111.851,-2782.07
 L 111.666,-2781.5 L 111.412,-2780.96 L 111.093,-2780.46 L 110.713,-2780 L 110.278,-2779.59 L 109.795,-2779.24
 L 109.272,-2778.95 L 108.718,-2778.73 L 108.14,-2778.58 L 107.548,-2778.51 z
M 108.437,-2649.09 L 109.045,-2649.24 L 109.629,-2649.48 L 110.179,-2649.78 L 110.687,-2650.15 L 111.145,-2650.58
 L 111.545,-2651.06 L 111.882,-2651.59 L 112.149,-2652.16 L 112.343,-2652.76 L 112.461,-2653.37 L 112.5,-2654
 L 112.5,-2764 L 112.461,-2764.63 L 112.343,-2765.24 L 112.149,-2765.84 L 111.882,-2766.41 L 111.545,-2766.94
 L 111.145,-2767.42 L 110.687,-2767.85 L 110.179,-2768.22 L 109.629,-2768.52 L 109.045,-2768.76 L 108.437,-2768.91
 L 107.814,-2768.99 L -107.814,-2768.99 L -108.437,-2768.91 L -109.045,-2768.76 L -109.629,-2768.52 L -110.179,-2768.22
 L -110.687,-2767.85 L -111.145,-2767.42 L -111.545,-2766.94 L -111.882,-2766.41 L -112.149,-2765.84 L -112.343,-2765.24
 L -112.461,-2764.63 L -112.5,-2764 L -112.5,-2654 L -112.461,-2653.37 L -112.343,-2652.76 L -112.149,-2652.16
 L -111.882,-2651.59 L -111.545,-2651.06 L -111.145,-2650.58 L -110.687,-2650.15 L -110.179,-2649.78 L -109.629,-2649.48
 L -109.045,-2649.24 L -108.437,-2649.09 L -107.814,-2649.01 L 107.814,-2649.01 z
M -107.548,-2649.51 L -108.14,-2649.58 L -108.718,-2649.73 L -109.272,-2649.95 L -109.795,-2650.24 L -110.278,-2650.59
 L -110.713,-2651 L -111.093,-2651.46 L -111.412,-2651.96 L -111.666,-2652.5 L -111.851,-2653.07 L -111.963,-2653.65
 L -112,-2654.25 L -112,-2763.75 L -111.963,-2764.35 L -111.851,-2764.93 L -111.666,-2765.5 L -111.412,-2766.04
 L -111.093,-2766.54 L -110.713,-2767 L -110.278,-2767.41 L -109.795,-2767.76 L -109.272,-2768.05 L -108.718,-2768.27
 L -108.14,-2768.42 L -107.548,-2768.49 L 107.548,-2768.49 L 108.14,-2768.42 L 108.718,-2768.27 L 109.272,-2768.05
 L 109.795,-2767.76 L 110.278,-2767.41 L 110.713,-2767 L 111.093,-2766.54 L 111.412,-2766.04 L 111.666,-2765.5
 L 111.851,-2764.93 L 111.963,-2764.35 L 112,-2763.75 L 112,-2654.25 L 111.963,-2653.65 L 111.851,-2653.07
 L 111.666,-2652.5 L 111.412,-2651.96 L 111.093,-2651.46 L 110.713,-2651 L 110.278,-2650.59 L 109.795,-2650.24
 L 109.272,-2649.95 L 108.718,-2649.73 L 108.14,-2649.58 L 107.548,-2649.51 z
M 108.437,-2520.09 L 109.045,-2520.24 L 109.629,-2520.48 L 110.179,-2520.78 L 110.687,-2521.15 L 111.145,-2521.58
 L 111.545,-2522.06 L 111.882,-2522.59 L 112.149,-2523.16 L 112.343,-2523.76 L 112.461,-2524.37 L 112.5,-2525
 L 112.5,-2635 L 112.461,-2635.63 L 112.343,-2636.24 L 112.149,-2636.84 L 111.882,-2637.41 L 111.545,-2637.94
 L 111.145,-2638.42 L 110.687,-2638.85 L 110.179,-2639.22 L 109.629,-2639.52 L 109.045,-2639.76 L 108.437,-2639.91
 L 107.814,-2639.99 L -107.814,-2639.99 L -108.437,-2639.91 L -109.045,-2639.76 L -109.629,-2639.52 L -110.179,-2639.22
 L -110.687,-2638.85 L -111.145,-2638.42 L -111.545,-2637.94 L -111.882,-2637.41 L -112.149,-2636.84 L -112.343,-2636.24
 L -112.461,-2635.63 L -112.5,-2635 L -112.5,-2525 L -112.461,-2524.37 L -112.343,-2523.76 L -112.149,-2523.16
 L -111.882,-2522.59 L -111.545,-2522.06 L -111.145,-2521.58 L -110.687,-2521.15 L -110.179,-2520.78 L -109.629,-2520.48
 L -109.045,-2520.24 L -108.437,-2520.09 L -107.814,-2520.01 L 107.814,-2520.01 z
M -107.548,-2520.51 L -108.14,-2520.58 L -108.718,-2520.73 L -109.272,-2520.95 L -109.795,-2521.24 L -110.278,-2521.59
 L -110.713,-2522 L -111.093,-2522.46 L -111.412,-2522.96 L -111.666,-2523.5 L -111.851,-2524.07 L -111.963,-2524.65
 L -112,-2525.25 L -112,-2634.75 L -111.963,-2635.35 L -111.851,-2635.93 L -111.666,-2636.5 L -111.412,-2637.04
 L -111.093,-2637.54 L -110.713,-2638 L -110.278,-2638.41 L -109.795,-2638.76 L -109.272,-2639.05 L -108.718,-2639.27
 L -108.14,-2639.42 L -107.548,-2639.49 L 107.548,-2639.49 L 108.14,-2639.42 L 108.718,-2639.27 L 109.272,-2639.05
 L 109.795,-2638.76 L 110.278,-2638.41 L 110.713,-2638 L 111.093,-2637.54 L 111.412,-2637.04 L 111.666,-2636.5
 L 111.851,-2635.93 L 111.963,-2635.35 L 112,-2634.75 L 112,-2525.25 L 111.963,-2524.65 L 111.851,-2524.07
 L 111.666,-2523.5 L 111.412,-2522.96 L 111.093,-2522.46 L 110.713,-2522 L 110.278,-2521.59 L 109.795,-2521.24
 L 109.272,-2520.95 L 108.718,-2520.73 L 108.14,-2520.58 L 107.548,-2520.51 z
M 108.437,-2391.09 L 109.045,-2391.24 L 109.629,-2391.48 L 110.179,-2391.78 L 110.687,-2392.15 L 111.145,-2392.58
 L 111.545,-2393.06 L 111.882,-2393.59 L 112.149,-2394.16 L 112.343,-2394.76 L 112.461,-2395.37 L 112.5,-2396
 L 112.5,-2506 L 112.461,-2506.63 L 112.343,-2507.24 L 112.149,-2507.84 L 111.882,-2508.41 L 111.545,-2508.94
 L 111.145,-2509.42 L 110.687,-2509.85 L 110.179,-2510.22 L 109.629,-2510.52 L 109.045,-2510.76 L 108.437,-2510.91
 L 107.814,-2510.99 L -107.814,-2510.99 L -108.437,-2510.91 L -109.045,-2510.76 L -109.629,-2510.52 L -110.179,-2510.22
 L -110.687,-2509.85 L -111.145,-2509.42 L -111.545,-2508.94 L -111.882,-2508.41 L -112.149,-2507.84 L -112.343,-2507.24
 L -112.461,-2506.63 L -112.5,-2506 L -112.5,-2396 L -112.461,-2395.37 L -112.343,-2394.76 L -112.149,-2394.16
 L -111.882,-2393.59 L -111.545,-2393.06 L -111.145,-2392.58 L -110.687,-2392.15 L -110.179,-2391.78 L -109.629,-2391.48
 L -109.045,-2391.24 L -108.437,-2391.09 L -107.814,-2391.01 L 107.814,-2391.01 z
M -107.548,-2391.51 L -108.14,-2391.58 L -108.718,-2391.73 L -109.272,-2391.95 L -109.795,-2392.24 L -110.278,-2392.59
 L -110.713,-2393 L -111.093,-2393.46 L -111.412,-2393.96 L -111.666,-2394.5 L -111.851,-2395.07 L -111.963,-2395.65
 L -112,-2396.25 L -112,-2505.75 L -111.963,-2506.35 L -111.851,-2506.93 L -111.666,-2507.5 L -111.412,-2508.04
 L -111.093,-2508.54 L -110.713,-2509 L -110.278,-2509.41 L -109.795,-2509.76 L -109.272,-2510.05 L -108.718,-2510.27
 L -108.14,-2510.42 L -107.548,-2510.49 L 107.548,-2510.49 L 108.14,-2510.42 L 108.718,-2510.27 L 109.272,-2510.05
 L 109.795,-2509.76 L 110.278,-2509.41 L 110.713,-2509 L 111.093,-2508.54 L 111.412,-2508.04 L 111.666,-2507.5
 L 111.851,-2506.93 L 111.963,-2506.35 L 112,-2505.75 L 112,-2396.25 L 111.963,-2395.65 L 111.851,-2395.07
 L 111.666,-2394.5 L 111.412,-2393.96 L 111.093,-2393.46 L 110.713,-2393 L 110.278,-2392.59 L 109.795,-2392.24
 L 109.272,-2391.95 L 108.718,-2391.73 L 108.14,-2391.58 L 107.548,-2391.51 z
M 108.437,-2262.09 L 109.045,-2262.24 L 109.629,-2262.48 L 110.179,-2262.78 L 110.687,-2263.15 L 111.145,-2263.58
 L 111.545,-2264.06 L 111.882,-2264.59 L 112.149,-2265.16 L 112.343,-2265.76 L 112.461,-2266.37 L 112.5,-2267
 L 112.5,-2377 L 112.461,-2377.63 L 112.343,-2378.24 L 112.149,-2378.84 L 111.882,-2379.41 L 111.545,-2379.94
 L 111.145,-2380.42 L 110.687,-2380.85 L 110.179,-2381.22 L 109.629,-2381.52 L 109.045,-2381.76 L 108.437,-2381.91
 L 107.814,-2381.99 L -107.814,-2381.99 L -108.437,-2381.91 L -109.045,-2381.76 L -109.629,-2381.52 L -110.179,-2381.22
 L -110.687,-2380.85 L -111.145,-2380.42 L -111.545,-2379.94 L -111.882,-2379.41 L -112.149,-2378.84 L -112.343,-2378.24
 L -112.461,-2377.63 L -112.5,-2377 L -112.5,-2267 L -112.461,-2266.37 L -112.343,-2265.76 L -112.149,-2265.16
 L -111.882,-2264.59 L -111.545,-2264.06 L -111.145,-2263.58 L -110.687,-2263.15 L -110.179,-2262.78 L -109.629,-2262.48
 L -109.045,-2262.24 L -108.437,-2262.09 L -107.814,-2262.01 L 107.814,-2262.01 z
M -107.548,-2262.51 L -108.14,-2262.58 L -108.718,-2262.73 L -109.272,-2262.95 L -109.795,-2263.24 L -110.278,-2263.59
 L -110.713,-2264 L -111.093,-2264.46 L -111.412,-2264.96 L -111.666,-2265.5 L -111.851,-2266.07 L -111.963,-2266.65
 L -112,-2267.25 L -112,-2376.75 L -111.963,-2377.35 L -111.851,-2377.93 L -111.666,-2378.5 L -111.412,-2379.04
 L -111.093,-2379.54 L -110.713,-2380 L -110.278,-2380.41 L -109.795,-2380.76 L -109.272,-2381.05 L -108.718,-2381.27
 L -108.14,-2381.42 L -107.548,-2381.49 L 107.548,-2381.49 L 108.14,-2381.42 L 108.718,-2381.27 L 109.272,-2381.05
 L 109.795,-2380.76 L 110.278,-2380.41 L 110.713,-2380 L 111.093,-2379.54 L 111.412,-2379.04 L 111.666,-2378.5
 L 111.851,-2377.93 L 111.963,-2377.35 L 112,-2376.75 L 112,-2267.25 L 111.963,-2266.65 L 111.851,-2266.07
 L 111.666,-2265.5 L 111.412,-2264.96 L 111.093,-2264.46 L 110.713,-2264 L 110.278,-2263.59 L 109.795,-2263.24
 L 109.272,-2262.95 L 108.718,-2262.73 L 108.14,-2262.58 L 107.548,-2262.51 z
M 108.437,-2133.09 L 109.045,-2133.24 L 109.629,-2133.48 L 110.179,-2133.78 L 110.687,-2134.15 L 111.145,-2134.58
 L 111.545,-2135.06 L 111.882,-2135.59 L 112.149,-2136.16 L 112.343,-2136.76 L 112.461,-2137.37 L 112.5,-2138
 L 112.5,-2248 L 112.461,-2248.63 L 112.343,-2249.24 L 112.149,-2249.84 L 111.882,-2250.41 L 111.545,-2250.94
 L 111.145,-2251.42 L 110.687,-2251.85 L 110.179,-2252.22 L 109.629,-2252.52 L 109.045,-2252.76 L 108.437,-2252.91
 L 107.814,-2252.99 L -107.814,-2252.99 L -108.437,-2252.91 L -109.045,-2252.76 L -109.629,-2252.52 L -110.179,-2252.22
 L -110.687,-2251.85 L -111.145,-2251.42 L -111.545,-2250.94 L -111.882,-2250.41 L -112.149,-2249.84 L -112.343,-2249.24
 L -112.461,-2248.63 L -112.5,-2248 L -112.5,-2138 L -112.461,-2137.37 L -112.343,-2136.76 L -112.149,-2136.16
 L -111.882,-2135.59 L -111.545,-2135.06 L -111.145,-2134.58 L -110.687,-2134.15 L -110.179,-2133.78 L -109.629,-2133.48
 L -109.045,-2133.24 L -108.437,-2133.09 L -107.814,-2133.01 L 107.814,-2133.01 z
M -107.548,-2133.51 L -108.14,-2133.58 L -108.718,-2133.73 L -109.272,-2133.95 L -109.795,-2134.24 L -110.278,-2134.59
 L -110.713,-2135 L -111.093,-2135.46 L -111.412,-2135.96 L -111.666,-2136.5 L -111.851,-2137.07 L -111.963,-2137.65
 L -112,-2138.25 L -112,-2247.75 L -111.963,-2248.35 L -111.851,-2248.93 L -111.666,-2249.5 L -111.412,-2250.04
 L -111.093,-2250.54 L -110.713,-2251 L -110.278,-2251.41 L -109.795,-2251.76 L -109.272,-2252.05 L -108.718,-2252.27
 L -108.14,-2252.42 L -107.548,-2252.49 L 107.548,-2252.49 L 108.14,-2252.42 L 108.718,-2252.27 L 109.272,-2252.05
 L 109.795,-2251.76 L 110.278,-2251.41 L 110.713,-2251 L 111.093,-2250.54 L 111.412,-2250.04 L 111.666,-2249.5
 L 111.851,-2248.93 L 111.963,-2248.35 L 112,-2247.75 L 112,-2138.25 L 111.963,-2137.65 L 111.851,-2137.07
 L 111.666,-2136.5 L 111.412,-2135.96 L 111.093,-2135.46 L 110.713,-2135 L 110.278,-2134.59 L 109.795,-2134.24
 L 109.272,-2133.95 L 108.718,-2133.73 L 108.14,-2133.58 L 107.548,-2133.51 z
M 108.437,-2004.09 L 109.045,-2004.24 L 109.629,-2004.48 L 110.179,-2004.78 L 110.687,-2005.15 L 111.145,-2005.58
 L 111.545,-2006.06 L 111.882,-2006.59 L 112.149,-2007.16 L 112.343,-2007.76 L 112.461,-2008.37 L 112.5,-2009
 L 112.5,-2119 L 112.461,-2119.63 L 112.343,-2120.24 L 112.149,-2120.84 L 111.882,-2121.41 L 111.545,-2121.94
 L 111.145,-2122.42 L 110.687,-2122.85 L 110.179,-2123.22 L 109.629,-2123.52 L 109.045,-2123.76 L 108.437,-2123.91
 L 107.814,-2123.99 L -107.814,-2123.99 L -108.437,-2123.91 L -109.045,-2123.76 L -109.629,-2123.52 L -110.179,-2123.22
 L -110.687,-2122.85 L -111.145,-2122.42 L -111.545,-2121.94 L -111.882,-2121.41 L -112.149,-2120.84 L -112.343,-2120.24
 L -112.461,-2119.63 L -112.5,-2119 L -112.5,-2009 L -112.461,-2008.37 L -112.343,-2007.76 L -112.149,-2007.16
 L -111.882,-2006.59 L -111.545,-2006.06 L -111.145,-2005.58 L -110.687,-2005.15 L -110.179,-2004.78 L -109.629,-2004.48
 L -109.045,-2004.24 L -108.437,-2004.09 L -107.814,-2004.01 L 107.814,-2004.01 z
M -107.537,-2004.68 L -108.108,-2004.75 L -108.665,-2004.9 L -109.199,-2005.11 L -109.703,-2005.38 L -110.168,-2005.72
 L -110.588,-2006.12 L -110.954,-2006.56 L -111.262,-2007.04 L -111.507,-2007.56 L -111.685,-2008.11 L -111.792,-2008.68
 L -111.828,-2009.25 L -111.828,-2118.75 L -111.792,-2119.32 L -111.685,-2119.89 L -111.507,-2120.44 L -111.262,-2120.96
 L -110.954,-2121.44 L -110.588,-2121.88 L -110.168,-2122.28 L -109.703,-2122.62 L -109.199,-2122.89 L -108.665,-2123.1
 L -108.108,-2123.25 L -107.537,-2123.32 L 107.537,-2123.32 L 108.108,-2123.25 L 108.665,-2123.1 L 109.199,-2122.89
 L 109.703,-2122.62 L 110.168,-2122.28 L 110.588,-2121.88 L 110.954,-2121.44 L 111.262,-2120.96 L 111.507,-2120.44
 L 111.685,-2119.89 L 111.792,-2119.32 L 111.828,-2118.75 L 111.828,-2009.25 L 111.792,-2008.68 L 111.685,-2008.11
 L 111.507,-2007.56 L 111.262,-2007.04 L 110.954,-2006.56 L 110.588,-2006.12 L 110.168,-2005.72 L 109.703,-2005.38
 L 109.199,-2005.11 L 108.665,-2004.9 L 108.108,-2004.75 L 107.537,-2004.68 z
M 108.437,-1875.09 L 109.045,-1875.24 L 109.629,-1875.48 L 110.179,-1875.78 L 110.687,-1876.15 L 111.145,-1876.58
 L 111.545,-1877.06 L 111.882,-1877.59 L 112.149,-1878.16 L 112.343,-1878.76 L 112.461,-1879.37 L 112.5,-1880
 L 112.5,-1990 L 112.461,-1990.63 L 112.343,-1991.24 L 112.149,-1991.84 L 111.882,-1992.41 L 111.545,-1992.94
 L 111.145,-1993.42 L 110.687,-1993.85 L 110.179,-1994.22 L 109.629,-1994.52 L 109.045,-1994.76 L 108.437,-1994.91
 L 107.814,-1994.99 L -107.814,-1994.99 L -108.437,-1994.91 L -109.045,-1994.76 L -109.629,-1994.52 L -110.179,-1994.22
 L -110.687,-1993.85 L -111.145,-1993.42 L -111.545,-1992.94 L -111.882,-1992.41 L -112.149,-1991.84 L -112.343,-1991.24
 L -112.461,-1990.63 L -112.5,-1990 L -112.5,-1880 L -112.461,-1879.37 L -112.343,-1878.76 L -112.149,-1878.16
 L -111.882,-1877.59 L -111.545,-1877.06 L -111.145,-1876.58 L -110.687,-1876.15 L -110.179,-1875.78 L -109.629,-1875.48
 L -109.045,-1875.24 L -108.437,-1875.09 L -107.814,-1875.01 L 107.814,-1875.01 z
M -107.382,-1878.14 L -107.645,-1878.18 L -107.902,-1878.24 L -108.148,-1878.34 L -108.38,-1878.47 L -108.595,-1878.62
 L -108.788,-1878.81 L -108.957,-1879.01 L -109.099,-1879.23 L -109.211,-1879.47 L -109.293,-1879.73 L -109.343,-1879.99
 L -109.36,-1880.25 L -109.36,-1989.75 L -109.343,-1990.01 L -109.293,-1990.27 L -109.211,-1990.53 L -109.099,-1990.77
 L -108.957,-1990.99 L -108.788,-1991.19 L -108.595,-1991.38 L -108.38,-1991.53 L -108.148,-1991.66 L -107.902,-1991.76
 L -107.645,-1991.82 L -107.382,-1991.86 L 107.382,-1991.86 L 107.645,-1991.82 L 107.902,-1991.76 L 108.148,-1991.66
 L 108.38,-1991.53 L 108.595,-1991.38 L 108.788,-1991.19 L 108.957,-1990.99 L 109.099,-1990.77 L 109.211,-1990.53
 L 109.293,-1990.27 L 109.343,-1990.01 L 109.36,-1989.75 L 109.36,-1880.25 L 109.343,-1879.99 L 109.293,-1879.73
 L 109.211,-1879.47 L 109.099,-1879.23 L 108.957,-1879.01 L 108.788,-1878.81 L 108.595,-1878.62 L 108.38,-1878.47
 L 108.148,-1878.34 L 107.902,-1878.24 L 107.645,-1878.18 L 107.382,-1878.14 z
" stroke="black" fill="lightgray" stroke-width="0.5"/>
</svg>
