<?xml version="1.0" standalone="no"?>
<!DOCTYPE svg PUBLIC "-//W3C//DTD SVG 1.1//EN" "http://www.w3.org/Graphics/SVG/1.1/DTD/svg11.dtd">
<svg width="46mm" height="562mm" viewBox="-23 -965 46 562" xmlns="http://www.w3.org/2000/svg" version="1.1">
<title>OpenSCAD Model</title>
<path d="
M 18.4369,-859.589 L 19.0451,-859.745 L 19.6289,-859.976 L 20.1791,-860.278 L 20.6871,-860.647 L 21.1448,-861.077
 L 21.5451,-861.561 L 21.8815,-862.091 L 22.1489,-862.659 L 22.3429,-863.257 L 22.4606,-863.873 L 22.5,-864.5
 L 22.5,-959.5 L 22.4606,-960.127 L 22.3429,-960.743 L 22.1489,-961.341 L 21.8815,-961.909 L 21.5451,-962.439
 L 21.1448,-962.923 L 20.6871,-963.353 L 20.1791,-963.722 L 19.6289,-964.024 L 19.0451,-964.255 L 18.4369,-964.411
 L 17.8139,-964.49 L -17.8139,-964.49 L -18.4369,-964.411 L -19.0451,-964.255 L -19.6289,-964.024 L -20.1791,-963.722
 L -20.6871,-963.353 L -21.1448,-962.923 L -21.5451,-962.439 L -21.8815,-961.909 L -22.1489,-961.341 L -22.3429,-960.743
 L -22.4,-960.444 L -22.5,-960.444 L -22.5,-863.556 L -22.4,-863.556 L -22.3429,-863.257 L -22.1489,-862.659
 L -21.8815,-862.091 L -21.5451,-861.561 L -21.1448,-861.077 L -20.6871,-860.647 L -20.1791,-860.278 L -19.6289,-859.976
 L -19.0451,-859.745 L -18.4369,-859.589 L -17.8139,-859.51 L 17.8139,-859.51 z
M -17.2512,-861.008 L -17.7495,-861.071 L -18.2361,-861.196 L -18.7031,-861.381 L -19.1433,-861.623 L -19.5497,-861.918
 L -19.9159,-862.262 L -20.2361,-862.649 L -20.5052,-863.073 L -20.7191,-863.528 L -20.8743,-864.005 L -20.9684,-864.499
 L -21,-865 L -21,-959 L -20.9684,-959.501 L -20.8743,-959.995 L -20.7191,-960.472 L -20.5052,-960.927
 L -20.2361,-961.351 L -19.9159,-961.738 L -19.5497,-962.082 L -19.1433,-962.377 L -18.7031,-962.619 L -18.2361,-962.804
 L -17.7495,-962.929 L -17.2512,-962.992 L 17.2512,-962.992 L 17.7495,-962.929 L 18.2361,-962.804 L 18.7031,-962.619
 L 19.1433,-962.377 L 19.5497,-962.082 L 19.9159,-961.738 L 20.2361,-961.351 L 20.5052,-960.927 L 20.7191,-960.472
 L 20.8743,-959.995 L 20.9684,-959.501 L 21,-959 L 21,-865 L 20.9684,-864.499 L 20.8743,-864.005
 L 20.7191,-863.528 L 20.5052,-863.073 L 20.2361,-862.649 L 19.9159,-862.262 L 19.5497,-861.918 L 19.1433,-861.623
 L 18.7031,-861.381 L 18.2361,-861.196 L 17.7495,-861.071 L 17.2512,-861.008 z
M 18.4369,-745.589 L 19.0451,-745.745 L 19.6289,-745.976 L 20.1791,-746.278 L 20.6871,-746.647 L 21.1448,-747.077
 L 21.5451,-747.561 L 21.8815,-748.091 L 22.1489,-748.659 L 22.3429,-749.257 L 22.4606,-749.873 L 22.5,-750.5
 L 22.5,-845.5 L 22.4606,-846.127 L 22.3429,-846.743 L 22.1489,-847.341 L 21.8815,-847.909 L 21.5451,-848.439
 L 21.1448,-848.923 L 20.6871,-849.353 L 20.1791,-849.722 L 19.6289,-850.024 L 19.0451,-850.255 L 18.4369,-850.411
 L 17.8139,-850.49 L -17.8139,-850.49 L -18.4369,-850.411 L -19.0451,-850.255 L -19.6289,-850.024 L -20.1791,-849.722
 L -20.6871,-849.353 L -21.1448,-848.923 L -21.5451,-848.439 L -21.8815,-847.909 L -22.1489,-847.341 L -22.3429,-846.743
 L -22.4606,-846.127 L -22.5,-845.5 L -22.5,-750.5 L -22.4606,-749.873 L -22.3429,-749.257 L -22.1489,-748.659
 L -21.8815,-748.091 L -21.5451,-747.561 L -21.1448,-747.077 L -20.6871,-746.647 L -20.1791,-746.278 L -19.6289,-745.976
 L -19.0451,-745.745 L -18.4369,-745.589 L -17.8139,-745.51 L 17.8139,-745.51 z
M -17.2512,-747.008 L -17.7495,-747.071 L -18.2361,-747.196 L -18.7031,-747.381 L -19.1433,-747.623 L -19.5497,-747.918
 L -19.9159,-748.262 L -20.2361,-748.649 L -20.5052,-749.073 L -20.7191,-749.528 L -20.8743,-750.005 L -20.9684,-750.499
 L -21,-751 L -21,-845 L -20.9684,-845.501 L -20.8743,-845.995 L -20.7191,-846.472 L -20.5052,-846.927
 L -20.2361,-847.351 L -19.9159,-847.738 L -19.5497,-848.082 L -19.1433,-848.377 L -18.7031,-848.619 L -18.2361,-848.804
 L -17.7495,-848.929 L -17.2512,-848.992 L 17.2512,-848.992 L 17.7495,-848.929 L 18.2361,-848.804 L 18.7031,-848.619
 L 19.1433,-848.377 L 19.5497,-848.082 L 19.9159,-847.738 L 20.2361,-847.351 L 20.5052,-846.927 L 20.7191,-846.472
 L 20.8743,-845.995 L 20.9684,-845.501 L 21,-845 L 21,-751 L 20.9684,-750.499 L 20.8743,-750.005
 L 20.7191,-749.528 L 20.5052,-749.073 L 20.2361,-748.649 L 19.9159,-748.262 L 19.5497,-747.918 L 19.1433,-747.623
 L 18.7031,-747.381 L 18.2361,-747.196 L 17.7495,-747.071 L 17.2512,-747.008 z
M 18.4369,-631.589 L 19.0451,-631.745 L 19.6289,-631.976 L 20.1791,-632.278 L 20.6871,-632.647 L 21.1448,-633.077
 L 21.5451,-633.561 L 21.8815,-634.091 L 22.1489,-634.659 L 22.3429,-635.257 L 22.4606,-635.873 L 22.5,-636.5
 L 22.5,-731.5 L 22.4606,-732.127 L 22.3429,-732.743 L 22.1489,-733.341 L 21.8815,-733.909 L 21.5451,-734.439
 L 21.1448,-734.923 L 20.6871,-735.353 L 20.1791,-735.722 L 19.6289,-736.024 L 19.0451,-736.255 L 18.4369,-736.411
 L 17.8139,-736.49 L -17.8139,-736.49 L -18.4369,-736.411 L -19.0451,-736.255 L -19.6289,-736.024 L -20.1791,-735.722
 L -20.6871,-735.353 L -21.1448,-734.923 L -21.5451,-734.439 L -21.8815,-733.909 L -22.1489,-733.341 L -22.3429,-732.743
 L -22.4606,-732.127 L -22.5,-731.5 L -22.5,-636.5 L -22.4606,-635.873 L -22.3429,-635.257 L -22.1489,-634.659
 L -21.8815,-634.091 L -21.5451,-633.561 L -21.1448,-633.077 L -20.6871,-632.647 L -20.1791,-632.278 L -19.6289,-631.976
 L -19.0451,-631.745 L -18.4369,-631.589 L -17.8139,-631.51 L 17.8139,-631.51 z
M -17.2432,-633.135 L -17.7256,-633.196 L -18.1967,-633.317 L -18.6489,-633.496 L -19.0751,-633.73 L -19.4685,-634.016
 L -19.823,-634.349 L -20.133,-634.724 L -20.3936,-635.134 L -20.6007,-635.574 L -20.751,-636.037 L -20.8421,-636.515
 L -20.8726,-637 L -20.8726,-731 L -20.8421,-731.485 L -20.751,-731.963 L -20.6007,-732.426 L -20.3936,-732.866
 L -20.133,-733.276 L -19.823,-733.651 L -19.4685,-733.984 L -19.0751,-734.27 L -18.6489,-734.504 L -18.1967,-734.683
 L -17.7256,-734.804 L -17.2432,-734.865 L 17.2432,-734.865 L 17.7256,-734.804 L 18.1967,-734.683 L 18.6489,-734.504
 L 19.0751,-734.27 L 19.4685,-733.984 L 19.823,-733.651 L 20.133,-733.276 L 20.3936,-732.866 L 20.6007,-732.426
 L 20.751,-731.963 L 20.8421,-731.485 L 20.8726,-731 L 20.8726,-637 L 20.8421,-636.515 L 20.751,-636.037
 L 20.6007,-635.574 L 20.3936,-635.134 L 20.133,-634.724 L 19.823,-634.349 L 19.4685,-634.016 L 19.0751,-633.73
 L 18.6489,-633.496 L 18.1967,-633.317 L 17.7256,-633.196 L 17.2432,-633.135 z
M 18.4369,-517.589 L 19.0451,-517.745 L 19.6289,-517.976 L 20.1791,-518.278 L 20.6871,-518.647 L 21.1448,-519.077
 L 21.5451,-519.561 L 21.8815,-520.091 L 22.1489,-520.659 L 22.3429,-521.257 L 22.4606,-521.873 L 22.5,-522.5
 L 22.5,-617.5 L 22.4606,-618.127 L 22.3429,-618.743 L 22.1489,-619.341 L 21.8815,-619.909 L 21.5451,-620.439
 L 21.1448,-620.923 L 20.6871,-621.353 L 20.1791,-621.722 L 19.6289,-622.024 L 19.0451,-622.255 L 18.4369,-622.411
 L 17.8139,-622.49 L -17.8139,-622.49 L -18.4369,-622.411 L -19.0451,-622.255 L -19.6289,-622.024 L -20.1791,-621.722
 L -20.6871,-621.353 L -21.1448,-620.923 L -21.5451,-620.439 L -21.8815,-619.909 L -22.1489,-619.341 L -22.3429,-618.743
 L -22.4606,-618.127 L -22.5,-617.5 L -22.5,-522.5 L -22.4606,-521.873 L -22.3429,-521.257 L -22.1489,-520.659
 L -21.8815,-520.091 L -21.5451,-519.561 L -21.1448,-519.077 L -20.6871,-518.647 L -20.1791,-518.278 L -19.6289,-517.976
 L -19.0451,-517.745 L -18.4369,-517.589 L -17.8139,-517.51 L 17.8139,-517.51 z
M 14.8493,-612.605 L 14.5503,-612.643 L 14.2583,-612.717 L 13.9781,-612.828 L 13.714,-612.974 L 13.4702,-613.151
 L 13.2505,-613.357 L 13.0583,-613.589 L 12.8969,-613.844 L 12.7685,-614.117 L 12.6754,-614.403 L 12.6189,-614.699
 L 12.6,-615 L 12.6189,-615.301 L 12.6754,-615.597 L 12.7685,-615.883 L 12.8969,-616.156 L 13.0583,-616.411
 L 13.2505,-616.643 L 13.4702,-616.849 L 13.714,-617.026 L 13.9781,-617.172 L 14.2583,-617.283 L 14.5503,-617.357
 L 14.8493,-617.395 L 15.1507,-617.395 L 15.4497,-617.357 L 15.7416,-617.283 L 16.0219,-617.172 L 16.286,-617.026
 L 16.5298,-616.849 L 16.7495,-616.643 L 16.9416,-616.411 L 17.1031,-616.156 L 17.2315,-615.883 L 17.3246,-615.597
 L 17.3811,-615.301 L 17.4,-615 L 17.3811,-614.699 L 17.3246,-614.403 L 17.2315,-614.117 L 17.1031,-613.844
 L 16.9416,-613.589 L 16.7495,-613.357 L 16.5298,-613.151 L 16.286,-612.974 L 16.0219,-612.828 L 15.7416,-612.717
 L 15.4497,-612.643 L 15.1507,-612.605 z
M -15.1507,-612.605 L -15.4497,-612.643 L -15.7416,-612.717 L -16.0219,-612.828 L -16.286,-612.974 L -16.5298,-613.151
 L -16.7495,-613.357 L -16.9416,-613.589 L -17.1031,-613.844 L -17.2315,-614.117 L -17.3246,-614.403 L -17.3811,-614.699
 L -17.4,-615 L -17.3811,-615.301 L -17.3246,-615.597 L -17.2315,-615.883 L -17.1031,-616.156 L -16.9416,-616.411
 L -16.7495,-616.643 L -16.5298,-616.849 L -16.286,-617.026 L -16.0219,-617.172 L -15.7416,-617.283 L -15.4497,-617.357
 L -15.1507,-617.395 L -14.8493,-617.395 L -14.5503,-617.357 L -14.2583,-617.283 L -13.9781,-617.172 L -13.714,-617.026
 L -13.4702,-616.849 L -13.2505,-616.643 L -13.0583,-616.411 L -12.8969,-616.156 L -12.7685,-615.883 L -12.6754,-615.597
 L -12.6189,-615.301 L -12.6,-615 L -12.6189,-614.699 L -12.6754,-614.403 L -12.7685,-614.117 L -12.8969,-613.844
 L -13.0583,-613.589 L -13.2505,-613.357 L -13.4702,-613.151 L -13.714,-612.974 L -13.9781,-612.828 L -14.2583,-612.717
 L -14.5503,-612.643 L -14.8493,-612.605 z
M 14.8493,-522.605 L 14.5503,-522.643 L 14.2583,-522.717 L 13.9781,-522.828 L 13.714,-522.974 L 13.4702,-523.151
 L 13.2505,-523.357 L 13.0583,-523.589 L 12.8969,-523.844 L 12.7685,-524.117 L 12.6754,-524.403 L 12.6189,-524.699
 L 12.6,-525 L 12.6189,-525.301 L 12.6754,-525.597 L 12.7685,-525.883 L 12.8969,-526.156 L 13.0583,-526.411
 L 13.2505,-526.643 L 13.4702,-526.849 L 13.714,-527.026 L 13.9781,-527.172 L 14.2583,-527.283 L 14.5503,-527.357
 L 14.8493,-527.395 L 15.1507,-527.395 L 15.4497,-527.357 L 15.7416,-527.283 L 16.0219,-527.172 L 16.286,-527.026
 L 16.5298,-526.849 L 16.7495,-526.643 L 16.9416,-526.411 L 17.1031,-526.156 L 17.2315,-525.883 L 17.3246,-525.597
 L 17.3811,-525.301 L 17.4,-525 L 17.3811,-524.699 L 17.3246,-524.403 L 17.2315,-524.117 L 17.1031,-523.844
 L 16.9416,-523.589 L 16.7495,-523.357 L 16.5298,-523.151 L 16.286,-522.974 L 16.0219,-522.828 L 15.7416,-522.717
 L 15.4497,-522.643 L 15.1507,-522.605 z
M -15.1507,-522.605 L -15.4497,-522.643 L -15.7416,-522.717 L -16.0219,-522.828 L -16.286,-522.974 L -16.5298,-523.151
 L -16.7495,-523.357 L -16.9416,-523.589 L -17.1031,-523.844 L -17.2315,-524.117 L -17.3246,-524.403 L -17.3811,-524.699
 L -17.4,-525 L -17.3811,-525.301 L -17.3246,-525.597 L -17.2315,-525.883 L -17.1031,-526.156 L -16.9416,-526.411
 L -16.7495,-526.643 L -16.5298,-526.849 L -16.286,-527.026 L -16.0219,-527.172 L -15.7416,-527.283 L -15.4497,-527.357
 L -15.1507,-527.395 L -14.8493,-527.395 L -14.5503,-527.357 L -14.2583,-527.283 L -13.9781,-527.172 L -13.714,-527.026
 L -13.4702,-526.849 L -13.2505,-526.643 L -13.0583,-526.411 L -12.8969,-526.156 L -12.7685,-525.883 L -12.6754,-525.597
 L -12.6189,-525.301 L -12.6,-525 L -12.6189,-524.699 L -12.6754,-524.403 L -12.7685,-524.117 L -12.8969,-523.844
 L -13.0583,-523.589 L -13.2505,-523.357 L -13.4702,-523.151 L -13.714,-522.974 L -13.9781,-522.828 L -14.2583,-522.717
 L -14.5503,-522.643 L -14.8493,-522.605 z
M 18.4369,-403.589 L 19.0451,-403.745 L 19.6289,-403.976 L 20.1791,-404.278 L 20.6871,-404.647 L 21.1448,-405.077
 L 21.5451,-405.561 L 21.8815,-406.091 L 22.1489,-406.659 L 22.3429,-407.257 L 22.4606,-407.873 L 22.5,-408.5
 L 22.5,-503.5 L 22.4606,-504.127 L 22.3429,-504.743 L 22.1489,-505.341 L 21.8815,-505.909 L 21.5451,-506.439
 L 21.1448,-506.923 L 20.6871,-507.353 L 20.1791,-507.722 L 19.6289,-508.024 L 19.0451,-508.255 L 18.4369,-508.411
 L 17.8139,-508.49 L -17.8139,-508.49 L -18.4369,-508.411 L -19.0451,-508.255 L -19.6289,-508.024 L -20.1791,-507.722
 L -20.6871,-507.353 L -21.1448,-506.923 L -21.5451,-506.439 L -21.8815,-505.909 L -22.1489,-505.341 L -22.3429,-504.743
 L -22.4606,-504.127 L -22.5,-503.5 L -22.5,-408.5 L -22.4606,-407.873 L -22.3429,-407.257 L -22.1489,-406.659
 L -21.8815,-406.091 L -21.5451,-405.561 L -21.1448,-405.077 L -20.6871,-404.647 L -20.1791,-404.278 L -19.6289,-403.976
 L -19.0451,-403.745 L -18.4369,-403.589 L -17.8139,-403.51 L 17.8139,-403.51 z
M 14.887,-499.204 L 14.6627,-499.232 L 14.4438,-499.288 L 14.2336,-499.371 L 14.0355,-499.48 L 13.8526,-499.613
 L 13.6879,-499.768 L 13.5438,-499.942 L 13.4226,-500.133 L 13.3264,-500.337 L 13.2565,-500.552 L 13.2142,-500.774
 L 13.2,-501 L 13.2142,-501.226 L 13.2565,-501.448 L 13.3264,-501.663 L 13.4226,-501.867 L 13.5438,-502.058
 L 13.6879,-502.232 L 13.8526,-502.387 L 14.0355,-502.52 L 14.2336,-502.629 L 14.4438,-502.712 L 14.6627,-502.768
 L 14.887,-502.796 L 15.113,-502.796 L 15.3373,-502.768 L 15.5562,-502.712 L 15.7664,-502.629 L 15.9645,-502.52
 L 16.1474,-502.387 L 16.3121,-502.232 L 16.4562,-502.058 L 16.5773,-501.867 L 16.6736,-501.663 L 16.7434,-501.448
 L 16.7858,-501.226 L 16.8,-501 L 16.7858,-500.774 L 16.7434,-500.552 L 16.6736,-500.337 L 16.5773,-500.133
 L 16.4562,-499.942 L 16.3121,-499.768 L 16.1474,-499.613 L 15.9645,-499.48 L 15.7664,-499.371 L 15.5562,-499.288
 L 15.3373,-499.232 L 15.113,-499.204 z
M -15.113,-499.204 L -15.3373,-499.232 L -15.5562,-499.288 L -15.7664,-499.371 L -15.9645,-499.48 L -16.1474,-499.613
 L -16.3121,-499.768 L -16.4562,-499.942 L -16.5773,-500.133 L -16.6736,-500.337 L -16.7434,-500.552 L -16.7858,-500.774
 L -16.8,-501 L -16.7858,-501.226 L -16.7434,-501.448 L -16.6736,-501.663 L -16.5773,-501.867 L -16.4562,-502.058
 L -16.3121,-502.232 L -16.1474,-502.387 L -15.9645,-502.52 L -15.7664,-502.629 L -15.5562,-502.712 L -15.3373,-502.768
 L -15.113,-502.796 L -14.887,-502.796 L -14.6627,-502.768 L -14.4438,-502.712 L -14.2336,-502.629 L -14.0355,-502.52
 L -13.8526,-502.387 L -13.6879,-502.232 L -13.5438,-502.058 L -13.4226,-501.867 L -13.3264,-501.663 L -13.2565,-501.448
 L -13.2142,-501.226 L -13.2,-501 L -13.2142,-500.774 L -13.2565,-500.552 L -13.3264,-500.337 L -13.4226,-500.133
 L -13.5438,-499.942 L -13.6879,-499.768 L -13.8526,-499.613 L -14.0355,-499.48 L -14.2336,-499.371 L -14.4438,-499.288
 L -14.6627,-499.232 L -14.887,-499.204 z
M 14.887,-409.204 L 14.6627,-409.232 L 14.4438,-409.288 L 14.2336,-409.371 L 14.0355,-409.48 L 13.8526,-409.613
 L 13.6879,-409.768 L 13.5438,-409.942 L 13.4226,-410.133 L 13.3264,-410.337 L 13.2565,-410.552 L 13.2142,-410.774
 L 13.2,-411 L 13.2142,-411.226 L 13.2565,-411.448 L 13.3264,-411.663 L 13.4226,-411.867 L 13.5438,-412.058
 L 13.6879,-412.232 L 13.8526,-412.387 L 14.0355,-412.52 L 14.2336,-412.629 L 14.4438,-412.712 L 14.6627,-412.768
 L 14.887,-412.796 L 15.113,-412.796 L 15.3373,-412.768 L 15.5562,-412.712 L 15.7664,-412.629 L 15.9645,-412.52
 L 16.1474,-412.387 L 16.3121,-412.232 L 16.4562,-412.058 L 16.5773,-411.867 L 16.6736,-411.663 L 16.7434,-411.448
 L 16.7858,-411.226 L 16.8,-411 L 16.7858,-410.774 L 16.7434,-410.552 L 16.6736,-410.337 L 16.5773,-410.133
 L 16.4562,-409.942 L 16.3121,-409.768 L 16.1474,-409.613 L 15.9645,-409.48 L 15.7664,-409.371 L 15.5562,-409.288
 L 15.3373,-409.232 L 15.113,-409.204 z
M -15.113,-409.204 L -15.3373,-409.232 L -15.5562,-409.288 L -15.7664,-409.371 L -15.9645,-409.48 L -16.1474,-409.613
 L -16.3121,-409.768 L -16.4562,-409.942 L -16.5773,-410.133 L -16.6736,-410.337 L -16.7434,-410.552 L -16.7858,-410.774
 L -16.8,-411 L -16.7858,-411.226 L -16.7434,-411.448 L -16.6736,-411.663 L -16.5773,-411.867 L -16.4562,-412.058
 L -16.3121,-412.232 L -16.1474,-412.387 L -15.9645,-412.52 L -15.7664,-412.629 L -15.5562,-412.712 L -15.3373,-412.768
 L -15.113,-412.796 L -14.887,-412.796 L -14.6627,-412.768 L -14.4438,-412.712 L -14.2336,-412.629 L -14.0355,-412.52
 L -13.8526,-412.387 L -13.6879,-412.232 L -13.5438,-412.058 L -13.4226,-411.867 L -13.3264,-411.663 L -13.2565,-411.448
 L -13.2142,-411.226 L -13.2,-411 L -13.2142,-410.774 L -13.2565,-410.552 L -13.3264,-410.337 L -13.4226,-410.133
 L -13.5438,-409.942 L -13.6879,-409.768 L -13.8526,-409.613 L -14.0355,-409.48 L -14.2336,-409.371 L -14.4438,-409.288
 L -14.6627,-409.232 L -14.887,-409.204 z
" stroke="black" fill="lightgray" stroke-width="0.5"/>
</svg>
