  0
SECTION
  2
BLOCKS
  0
ENDSEC
  0
SECTION
  2
ENTITIES
  0
LINE
  8
0
 10
3.34659
 20
89.25
 11
1.67329
 21
92.1482
  0
LINE
  8
0
 10
1.67329
 20
92.1482
 11
-1.67329
 21
92.1482
  0
LINE
  8
0
 10
-1.67329
 20
92.1482
 11
-3.34659
 21
89.25
  0
LINE
  8
0
 10
-3.34659
 20
89.25
 11
-1.67329
 21
86.3518
  0
LINE
  8
0
 10
-1.67329
 20
86.3518
 11
1.67329
 21
86.3518
  0
LINE
  8
0
 10
1.67329
 20
86.3518
 11
3.34659
 21
89.25
  0
LINE
  8
0
 10
-0.0941772
 20
87.753
 11
-0.281067
 21
87.7766
  0
LINE
  8
0
 10
-0.281067
 20
87.7766
 11
-0.463516
 21
87.8234
  0
LINE
  8
0
 10
-0.463516
 20
87.8234
 11
-0.638657
 21
87.8928
  0
LINE
  8
0
 10
-0.638657
 20
87.8928
 11
-0.803726
 21
87.9835
  0
LINE
  8
0
 10
-0.803726
 20
87.9835
 11
-0.956131
 21
88.0942
  0
LINE
  8
0
 10
-0.956131
 20
88.0942
 11
-1.09344
 21
88.2232
  0
LINE
  8
0
 10
-1.09344
 20
88.2232
 11
-1.21352
 21
88.3683
  0
LINE
  8
0
 10
-1.21352
 20
88.3683
 11
-1.31445
 21
88.5274
  0
LINE
  8
0
 10
-1.31445
 20
88.5274
 11
-1.39465
 21
88.6978
  0
LINE
  8
0
 10
-1.39465
 20
88.6978
 11
-1.45287
 21
88.877
  0
LINE
  8
0
 10
-1.45287
 20
88.877
 11
-1.48816
 21
89.062
  0
LINE
  8
0
 10
-1.48816
 20
89.062
 11
-1.5
 21
89.25
  0
LINE
  8
0
 10
-1.5
 20
89.25
 11
-1.48816
 21
89.438
  0
LINE
  8
0
 10
-1.48816
 20
89.438
 11
-1.45287
 21
89.623
  0
LINE
  8
0
 10
-1.45287
 20
89.623
 11
-1.39465
 21
89.8022
  0
LINE
  8
0
 10
-1.39465
 20
89.8022
 11
-1.31445
 21
89.9726
  0
LINE
  8
0
 10
-1.31445
 20
89.9726
 11
-1.21352
 21
90.1317
  0
LINE
  8
0
 10
-1.21352
 20
90.1317
 11
-1.09344
 21
90.2768
  0
LINE
  8
0
 10
-1.09344
 20
90.2768
 11
-0.956131
 21
90.4058
  0
LINE
  8
0
 10
-0.956131
 20
90.4058
 11
-0.803726
 21
90.5165
  0
LINE
  8
0
 10
-0.803726
 20
90.5165
 11
-0.638657
 21
90.6072
  0
LINE
  8
0
 10
-0.638657
 20
90.6072
 11
-0.463516
 21
90.6766
  0
LINE
  8
0
 10
-0.463516
 20
90.6766
 11
-0.281067
 21
90.7234
  0
LINE
  8
0
 10
-0.281067
 20
90.7234
 11
-0.0941772
 21
90.747
  0
LINE
  8
0
 10
-0.0941772
 20
90.747
 11
0.0941772
 21
90.747
  0
LINE
  8
0
 10
0.0941772
 20
90.747
 11
0.281067
 21
90.7234
  0
LINE
  8
0
 10
0.281067
 20
90.7234
 11
0.463516
 21
90.6766
  0
LINE
  8
0
 10
0.463516
 20
90.6766
 11
0.638657
 21
90.6072
  0
LINE
  8
0
 10
0.638657
 20
90.6072
 11
0.803726
 21
90.5165
  0
LINE
  8
0
 10
0.803726
 20
90.5165
 11
0.956131
 21
90.4058
  0
LINE
  8
0
 10
0.956131
 20
90.4058
 11
1.09344
 21
90.2768
  0
LINE
  8
0
 10
1.09344
 20
90.2768
 11
1.21352
 21
90.1317
  0
LINE
  8
0
 10
1.21352
 20
90.1317
 11
1.31445
 21
89.9726
  0
LINE
  8
0
 10
1.31445
 20
89.9726
 11
1.39465
 21
89.8022
  0
LINE
  8
0
 10
1.39465
 20
89.8022
 11
1.45287
 21
89.623
  0
LINE
  8
0
 10
1.45287
 20
89.623
 11
1.48816
 21
89.438
  0
LINE
  8
0
 10
1.48816
 20
89.438
 11
1.5
 21
89.25
  0
LINE
  8
0
 10
1.5
 20
89.25
 11
1.48816
 21
89.062
  0
LINE
  8
0
 10
1.48816
 20
89.062
 11
1.45287
 21
88.877
  0
LINE
  8
0
 10
1.45287
 20
88.877
 11
1.39465
 21
88.6978
  0
LINE
  8
0
 10
1.39465
 20
88.6978
 11
1.31445
 21
88.5274
  0
LINE
  8
0
 10
1.31445
 20
88.5274
 11
1.21352
 21
88.3683
  0
LINE
  8
0
 10
1.21352
 20
88.3683
 11
1.09344
 21
88.2232
  0
LINE
  8
0
 10
1.09344
 20
88.2232
 11
0.956131
 21
88.0942
  0
LINE
  8
0
 10
0.956131
 20
88.0942
 11
0.803726
 21
87.9835
  0
LINE
  8
0
 10
0.803726
 20
87.9835
 11
0.638657
 21
87.8928
  0
LINE
  8
0
 10
0.638657
 20
87.8928
 11
0.463516
 21
87.8234
  0
LINE
  8
0
 10
0.463516
 20
87.8234
 11
0.281067
 21
87.7766
  0
LINE
  8
0
 10
0.281067
 20
87.7766
 11
0.0941772
 21
87.753
  0
LINE
  8
0
 10
0.0941772
 20
87.753
 11
-0.0941772
 21
87.753
  0
LINE
  8
0
 10
3.34659
 20
76.5
 11
1.67329
 21
79.3982
  0
LINE
  8
0
 10
1.67329
 20
79.3982
 11
-1.67329
 21
79.3982
  0
LINE
  8
0
 10
-1.67329
 20
79.3982
 11
-3.34659
 21
76.5
  0
LINE
  8
0
 10
-3.34659
 20
76.5
 11
-1.67329
 21
73.6018
  0
LINE
  8
0
 10
-1.67329
 20
73.6018
 11
1.67329
 21
73.6018
  0
LINE
  8
0
 10
1.67329
 20
73.6018
 11
3.34659
 21
76.5
  0
LINE
  8
0
 10
-0.0941772
 20
75.003
 11
-0.281067
 21
75.0266
  0
LINE
  8
0
 10
-0.281067
 20
75.0266
 11
-0.463516
 21
75.0734
  0
LINE
  8
0
 10
-0.463516
 20
75.0734
 11
-0.638657
 21
75.1428
  0
LINE
  8
0
 10
-0.638657
 20
75.1428
 11
-0.803726
 21
75.2335
  0
LINE
  8
0
 10
-0.803726
 20
75.2335
 11
-0.956131
 21
75.3442
  0
LINE
  8
0
 10
-0.956131
 20
75.3442
 11
-1.09344
 21
75.4732
  0
LINE
  8
0
 10
-1.09344
 20
75.4732
 11
-1.21352
 21
75.6183
  0
LINE
  8
0
 10
-1.21352
 20
75.6183
 11
-1.31445
 21
75.7774
  0
LINE
  8
0
 10
-1.31445
 20
75.7774
 11
-1.39465
 21
75.9478
  0
LINE
  8
0
 10
-1.39465
 20
75.9478
 11
-1.45287
 21
76.127
  0
LINE
  8
0
 10
-1.45287
 20
76.127
 11
-1.48816
 21
76.312
  0
LINE
  8
0
 10
-1.48816
 20
76.312
 11
-1.5
 21
76.5
  0
LINE
  8
0
 10
-1.5
 20
76.5
 11
-1.48816
 21
76.688
  0
LINE
  8
0
 10
-1.48816
 20
76.688
 11
-1.45287
 21
76.873
  0
LINE
  8
0
 10
-1.45287
 20
76.873
 11
-1.39465
 21
77.0522
  0
LINE
  8
0
 10
-1.39465
 20
77.0522
 11
-1.31445
 21
77.2226
  0
LINE
  8
0
 10
-1.31445
 20
77.2226
 11
-1.21352
 21
77.3817
  0
LINE
  8
0
 10
-1.21352
 20
77.3817
 11
-1.09344
 21
77.5268
  0
LINE
  8
0
 10
-1.09344
 20
77.5268
 11
-0.956131
 21
77.6558
  0
LINE
  8
0
 10
-0.956131
 20
77.6558
 11
-0.803726
 21
77.7665
  0
LINE
  8
0
 10
-0.803726
 20
77.7665
 11
-0.638657
 21
77.8572
  0
LINE
  8
0
 10
-0.638657
 20
77.8572
 11
-0.463516
 21
77.9266
  0
LINE
  8
0
 10
-0.463516
 20
77.9266
 11
-0.281067
 21
77.9734
  0
LINE
  8
0
 10
-0.281067
 20
77.9734
 11
-0.0941772
 21
77.997
  0
LINE
  8
0
 10
-0.0941772
 20
77.997
 11
0.0941772
 21
77.997
  0
LINE
  8
0
 10
0.0941772
 20
77.997
 11
0.281067
 21
77.9734
  0
LINE
  8
0
 10
0.281067
 20
77.9734
 11
0.463516
 21
77.9266
  0
LINE
  8
0
 10
0.463516
 20
77.9266
 11
0.638657
 21
77.8572
  0
LINE
  8
0
 10
0.638657
 20
77.8572
 11
0.803726
 21
77.7665
  0
LINE
  8
0
 10
0.803726
 20
77.7665
 11
0.956131
 21
77.6558
  0
LINE
  8
0
 10
0.956131
 20
77.6558
 11
1.09344
 21
77.5268
  0
LINE
  8
0
 10
1.09344
 20
77.5268
 11
1.21352
 21
77.3817
  0
LINE
  8
0
 10
1.21352
 20
77.3817
 11
1.31445
 21
77.2226
  0
LINE
  8
0
 10
1.31445
 20
77.2226
 11
1.39465
 21
77.0522
  0
LINE
  8
0
 10
1.39465
 20
77.0522
 11
1.45287
 21
76.873
  0
LINE
  8
0
 10
1.45287
 20
76.873
 11
1.48816
 21
76.688
  0
LINE
  8
0
 10
1.48816
 20
76.688
 11
1.5
 21
76.5
  0
LINE
  8
0
 10
1.5
 20
76.5
 11
1.48816
 21
76.312
  0
LINE
  8
0
 10
1.48816
 20
76.312
 11
1.45287
 21
76.127
  0
LINE
  8
0
 10
1.45287
 20
76.127
 11
1.39465
 21
75.9478
  0
LINE
  8
0
 10
1.39465
 20
75.9478
 11
1.31445
 21
75.7774
  0
LINE
  8
0
 10
1.31445
 20
75.7774
 11
1.21352
 21
75.6183
  0
LINE
  8
0
 10
1.21352
 20
75.6183
 11
1.09344
 21
75.4732
  0
LINE
  8
0
 10
1.09344
 20
75.4732
 11
0.956131
 21
75.3442
  0
LINE
  8
0
 10
0.956131
 20
75.3442
 11
0.803726
 21
75.2335
  0
LINE
  8
0
 10
0.803726
 20
75.2335
 11
0.638657
 21
75.1428
  0
LINE
  8
0
 10
0.638657
 20
75.1428
 11
0.463516
 21
75.0734
  0
LINE
  8
0
 10
0.463516
 20
75.0734
 11
0.281067
 21
75.0266
  0
LINE
  8
0
 10
0.281067
 20
75.0266
 11
0.0941772
 21
75.003
  0
LINE
  8
0
 10
0.0941772
 20
75.003
 11
-0.0941772
 21
75.003
  0
LINE
  8
0
 10
3.34659
 20
63.75
 11
1.67329
 21
66.6482
  0
LINE
  8
0
 10
1.67329
 20
66.6482
 11
-1.67329
 21
66.6482
  0
LINE
  8
0
 10
-1.67329
 20
66.6482
 11
-3.34659
 21
63.75
  0
LINE
  8
0
 10
-3.34659
 20
63.75
 11
-1.67329
 21
60.8518
  0
LINE
  8
0
 10
-1.67329
 20
60.8518
 11
1.67329
 21
60.8518
  0
LINE
  8
0
 10
1.67329
 20
60.8518
 11
3.34659
 21
63.75
  0
LINE
  8
0
 10
-0.0941772
 20
62.253
 11
-0.281067
 21
62.2766
  0
LINE
  8
0
 10
-0.281067
 20
62.2766
 11
-0.463516
 21
62.3234
  0
LINE
  8
0
 10
-0.463516
 20
62.3234
 11
-0.638657
 21
62.3928
  0
LINE
  8
0
 10
-0.638657
 20
62.3928
 11
-0.803726
 21
62.4835
  0
LINE
  8
0
 10
-0.803726
 20
62.4835
 11
-0.956131
 21
62.5942
  0
LINE
  8
0
 10
-0.956131
 20
62.5942
 11
-1.09344
 21
62.7232
  0
LINE
  8
0
 10
-1.09344
 20
62.7232
 11
-1.21352
 21
62.8683
  0
LINE
  8
0
 10
-1.21352
 20
62.8683
 11
-1.31445
 21
63.0274
  0
LINE
  8
0
 10
-1.31445
 20
63.0274
 11
-1.39465
 21
63.1978
  0
LINE
  8
0
 10
-1.39465
 20
63.1978
 11
-1.45287
 21
63.377
  0
LINE
  8
0
 10
-1.45287
 20
63.377
 11
-1.48816
 21
63.562
  0
LINE
  8
0
 10
-1.48816
 20
63.562
 11
-1.5
 21
63.75
  0
LINE
  8
0
 10
-1.5
 20
63.75
 11
-1.48816
 21
63.938
  0
LINE
  8
0
 10
-1.48816
 20
63.938
 11
-1.45287
 21
64.123
  0
LINE
  8
0
 10
-1.45287
 20
64.123
 11
-1.39465
 21
64.3022
  0
LINE
  8
0
 10
-1.39465
 20
64.3022
 11
-1.31445
 21
64.4726
  0
LINE
  8
0
 10
-1.31445
 20
64.4726
 11
-1.21352
 21
64.6317
  0
LINE
  8
0
 10
-1.21352
 20
64.6317
 11
-1.09344
 21
64.7768
  0
LINE
  8
0
 10
-1.09344
 20
64.7768
 11
-0.956131
 21
64.9058
  0
LINE
  8
0
 10
-0.956131
 20
64.9058
 11
-0.803726
 21
65.0165
  0
LINE
  8
0
 10
-0.803726
 20
65.0165
 11
-0.638657
 21
65.1072
  0
LINE
  8
0
 10
-0.638657
 20
65.1072
 11
-0.463516
 21
65.1766
  0
LINE
  8
0
 10
-0.463516
 20
65.1766
 11
-0.281067
 21
65.2234
  0
LINE
  8
0
 10
-0.281067
 20
65.2234
 11
-0.0941772
 21
65.247
  0
LINE
  8
0
 10
-0.0941772
 20
65.247
 11
0.0941772
 21
65.247
  0
LINE
  8
0
 10
0.0941772
 20
65.247
 11
0.281067
 21
65.2234
  0
LINE
  8
0
 10
0.281067
 20
65.2234
 11
0.463516
 21
65.1766
  0
LINE
  8
0
 10
0.463516
 20
65.1766
 11
0.638657
 21
65.1072
  0
LINE
  8
0
 10
0.638657
 20
65.1072
 11
0.803726
 21
65.0165
  0
LINE
  8
0
 10
0.803726
 20
65.0165
 11
0.956131
 21
64.9058
  0
LINE
  8
0
 10
0.956131
 20
64.9058
 11
1.09344
 21
64.7768
  0
LINE
  8
0
 10
1.09344
 20
64.7768
 11
1.21352
 21
64.6317
  0
LINE
  8
0
 10
1.21352
 20
64.6317
 11
1.31445
 21
64.4726
  0
LINE
  8
0
 10
1.31445
 20
64.4726
 11
1.39465
 21
64.3022
  0
LINE
  8
0
 10
1.39465
 20
64.3022
 11
1.45287
 21
64.123
  0
LINE
  8
0
 10
1.45287
 20
64.123
 11
1.48816
 21
63.938
  0
LINE
  8
0
 10
1.48816
 20
63.938
 11
1.5
 21
63.75
  0
LINE
  8
0
 10
1.5
 20
63.75
 11
1.48816
 21
63.562
  0
LINE
  8
0
 10
1.48816
 20
63.562
 11
1.45287
 21
63.377
  0
LINE
  8
0
 10
1.45287
 20
63.377
 11
1.39465
 21
63.1978
  0
LINE
  8
0
 10
1.39465
 20
63.1978
 11
1.31445
 21
63.0274
  0
LINE
  8
0
 10
1.31445
 20
63.0274
 11
1.21352
 21
62.8683
  0
LINE
  8
0
 10
1.21352
 20
62.8683
 11
1.09344
 21
62.7232
  0
LINE
  8
0
 10
1.09344
 20
62.7232
 11
0.956131
 21
62.5942
  0
LINE
  8
0
 10
0.956131
 20
62.5942
 11
0.803726
 21
62.4835
  0
LINE
  8
0
 10
0.803726
 20
62.4835
 11
0.638657
 21
62.3928
  0
LINE
  8
0
 10
0.638657
 20
62.3928
 11
0.463516
 21
62.3234
  0
LINE
  8
0
 10
0.463516
 20
62.3234
 11
0.281067
 21
62.2766
  0
LINE
  8
0
 10
0.281067
 20
62.2766
 11
0.0941772
 21
62.253
  0
LINE
  8
0
 10
0.0941772
 20
62.253
 11
-0.0941772
 21
62.253
  0
LINE
  8
0
 10
3.34659
 20
51
 11
1.67329
 21
53.8982
  0
LINE
  8
0
 10
1.67329
 20
53.8982
 11
-1.67329
 21
53.8982
  0
LINE
  8
0
 10
-1.67329
 20
53.8982
 11
-3.34659
 21
51
  0
LINE
  8
0
 10
-3.34659
 20
51
 11
-1.67329
 21
48.1018
  0
LINE
  8
0
 10
-1.67329
 20
48.1018
 11
1.67329
 21
48.1018
  0
LINE
  8
0
 10
1.67329
 20
48.1018
 11
3.34659
 21
51
  0
LINE
  8
0
 10
-0.0941772
 20
49.503
 11
-0.281067
 21
49.5266
  0
LINE
  8
0
 10
-0.281067
 20
49.5266
 11
-0.463516
 21
49.5734
  0
LINE
  8
0
 10
-0.463516
 20
49.5734
 11
-0.638657
 21
49.6428
  0
LINE
  8
0
 10
-0.638657
 20
49.6428
 11
-0.803726
 21
49.7335
  0
LINE
  8
0
 10
-0.803726
 20
49.7335
 11
-0.956131
 21
49.8442
  0
LINE
  8
0
 10
-0.956131
 20
49.8442
 11
-1.09344
 21
49.9732
  0
LINE
  8
0
 10
-1.09344
 20
49.9732
 11
-1.21352
 21
50.1183
  0
LINE
  8
0
 10
-1.21352
 20
50.1183
 11
-1.31445
 21
50.2774
  0
LINE
  8
0
 10
-1.31445
 20
50.2774
 11
-1.39465
 21
50.4478
  0
LINE
  8
0
 10
-1.39465
 20
50.4478
 11
-1.45287
 21
50.627
  0
LINE
  8
0
 10
-1.45287
 20
50.627
 11
-1.48816
 21
50.812
  0
LINE
  8
0
 10
-1.48816
 20
50.812
 11
-1.5
 21
51
  0
LINE
  8
0
 10
-1.5
 20
51
 11
-1.48816
 21
51.188
  0
LINE
  8
0
 10
-1.48816
 20
51.188
 11
-1.45287
 21
51.373
  0
LINE
  8
0
 10
-1.45287
 20
51.373
 11
-1.39465
 21
51.5522
  0
LINE
  8
0
 10
-1.39465
 20
51.5522
 11
-1.31445
 21
51.7226
  0
LINE
  8
0
 10
-1.31445
 20
51.7226
 11
-1.21352
 21
51.8817
  0
LINE
  8
0
 10
-1.21352
 20
51.8817
 11
-1.09344
 21
52.0268
  0
LINE
  8
0
 10
-1.09344
 20
52.0268
 11
-0.956131
 21
52.1558
  0
LINE
  8
0
 10
-0.956131
 20
52.1558
 11
-0.803726
 21
52.2665
  0
LINE
  8
0
 10
-0.803726
 20
52.2665
 11
-0.638657
 21
52.3572
  0
LINE
  8
0
 10
-0.638657
 20
52.3572
 11
-0.463516
 21
52.4266
  0
LINE
  8
0
 10
-0.463516
 20
52.4266
 11
-0.281067
 21
52.4734
  0
LINE
  8
0
 10
-0.281067
 20
52.4734
 11
-0.0941772
 21
52.497
  0
LINE
  8
0
 10
-0.0941772
 20
52.497
 11
0.0941772
 21
52.497
  0
LINE
  8
0
 10
0.0941772
 20
52.497
 11
0.281067
 21
52.4734
  0
LINE
  8
0
 10
0.281067
 20
52.4734
 11
0.463516
 21
52.4266
  0
LINE
  8
0
 10
0.463516
 20
52.4266
 11
0.638657
 21
52.3572
  0
LINE
  8
0
 10
0.638657
 20
52.3572
 11
0.803726
 21
52.2665
  0
LINE
  8
0
 10
0.803726
 20
52.2665
 11
0.956131
 21
52.1558
  0
LINE
  8
0
 10
0.956131
 20
52.1558
 11
1.09344
 21
52.0268
  0
LINE
  8
0
 10
1.09344
 20
52.0268
 11
1.21352
 21
51.8817
  0
LINE
  8
0
 10
1.21352
 20
51.8817
 11
1.31445
 21
51.7226
  0
LINE
  8
0
 10
1.31445
 20
51.7226
 11
1.39465
 21
51.5522
  0
LINE
  8
0
 10
1.39465
 20
51.5522
 11
1.45287
 21
51.373
  0
LINE
  8
0
 10
1.45287
 20
51.373
 11
1.48816
 21
51.188
  0
LINE
  8
0
 10
1.48816
 20
51.188
 11
1.5
 21
51
  0
LINE
  8
0
 10
1.5
 20
51
 11
1.48816
 21
50.812
  0
LINE
  8
0
 10
1.48816
 20
50.812
 11
1.45287
 21
50.627
  0
LINE
  8
0
 10
1.45287
 20
50.627
 11
1.39465
 21
50.4478
  0
LINE
  8
0
 10
1.39465
 20
50.4478
 11
1.31445
 21
50.2774
  0
LINE
  8
0
 10
1.31445
 20
50.2774
 11
1.21352
 21
50.1183
  0
LINE
  8
0
 10
1.21352
 20
50.1183
 11
1.09344
 21
49.9732
  0
LINE
  8
0
 10
1.09344
 20
49.9732
 11
0.956131
 21
49.8442
  0
LINE
  8
0
 10
0.956131
 20
49.8442
 11
0.803726
 21
49.7335
  0
LINE
  8
0
 10
0.803726
 20
49.7335
 11
0.638657
 21
49.6428
  0
LINE
  8
0
 10
0.638657
 20
49.6428
 11
0.463516
 21
49.5734
  0
LINE
  8
0
 10
0.463516
 20
49.5734
 11
0.281067
 21
49.5266
  0
LINE
  8
0
 10
0.281067
 20
49.5266
 11
0.0941772
 21
49.503
  0
LINE
  8
0
 10
0.0941772
 20
49.503
 11
-0.0941772
 21
49.503
  0
ENDSEC
  0
SECTION
  2
OBJECTS
  0
DICTIONARY
  0
ENDSEC
  0
EOF
