<?xml version="1.0" standalone="no"?>
<!DOCTYPE svg PUBLIC "-//W3C//DTD SVG 1.1//EN" "http://www.w3.org/Graphics/SVG/1.1/DTD/svg11.dtd">
<svg width="90mm" height="562mm" viewBox="-45 -965 90 562" xmlns="http://www.w3.org/2000/svg" version="1.1">
<title>OpenSCAD Model</title>
<path d="
M 40.9369,-859.589 L 41.5451,-859.745 L 42.1289,-859.976 L 42.6791,-860.278 L 43.1871,-860.647 L 43.6448,-861.077
 L 44.0451,-861.561 L 44.3815,-862.091 L 44.6489,-862.659 L 44.8429,-863.257 L 44.9606,-863.873 L 45,-864.5
 L 45,-959.5 L 44.9606,-960.127 L 44.8429,-960.743 L 44.6489,-961.341 L 44.3815,-961.909 L 44.0451,-962.439
 L 43.6448,-962.923 L 43.1871,-963.353 L 42.6791,-963.722 L 42.1289,-964.024 L 41.5451,-964.255 L 40.9369,-964.411
 L 40.3139,-964.49 L -40.3139,-964.49 L -40.9369,-964.411 L -41.5451,-964.255 L -42.1289,-964.024 L -42.6791,-963.722
 L -43.1871,-963.353 L -43.6448,-962.923 L -44.0451,-962.439 L -44.3815,-961.909 L -44.6489,-961.341 L -44.8429,-960.743
 L -44.9,-960.444 L -45,-960.444 L -45,-863.556 L -44.9,-863.556 L -44.8429,-863.257 L -44.6489,-862.659
 L -44.3815,-862.091 L -44.0451,-861.561 L -43.6448,-861.077 L -43.1871,-860.647 L -42.6791,-860.278 L -42.1289,-859.976
 L -41.5451,-859.745 L -40.9369,-859.589 L -40.3139,-859.51 L 40.3139,-859.51 z
M -39.7512,-861.008 L -40.2495,-861.071 L -40.7361,-861.196 L -41.2031,-861.381 L -41.6433,-861.623 L -42.0497,-861.918
 L -42.4159,-862.262 L -42.7361,-862.649 L -43.0052,-863.073 L -43.2191,-863.528 L -43.3743,-864.005 L -43.4685,-864.499
 L -43.5,-865 L -43.5,-959 L -43.4685,-959.501 L -43.3743,-959.995 L -43.2191,-960.472 L -43.0052,-960.927
 L -42.7361,-961.351 L -42.4159,-961.738 L -42.0497,-962.082 L -41.6433,-962.377 L -41.2031,-962.619 L -40.7361,-962.804
 L -40.2495,-962.929 L -39.7512,-962.992 L 39.7512,-962.992 L 40.2495,-962.929 L 40.7361,-962.804 L 41.2031,-962.619
 L 41.6433,-962.377 L 42.0497,-962.082 L 42.4159,-961.738 L 42.7361,-961.351 L 43.0052,-960.927 L 43.2191,-960.472
 L 43.3743,-959.995 L 43.4685,-959.501 L 43.5,-959 L 43.5,-865 L 43.4685,-864.499 L 43.3743,-864.005
 L 43.2191,-863.528 L 43.0052,-863.073 L 42.7361,-862.649 L 42.4159,-862.262 L 42.0497,-861.918 L 41.6433,-861.623
 L 41.2031,-861.381 L 40.7361,-861.196 L 40.2495,-861.071 L 39.7512,-861.008 z
M 40.9369,-745.589 L 41.5451,-745.745 L 42.1289,-745.976 L 42.6791,-746.278 L 43.1871,-746.647 L 43.6448,-747.077
 L 44.0451,-747.561 L 44.3815,-748.091 L 44.6489,-748.659 L 44.8429,-749.257 L 44.9606,-749.873 L 45,-750.5
 L 45,-845.5 L 44.9606,-846.127 L 44.8429,-846.743 L 44.6489,-847.341 L 44.3815,-847.909 L 44.0451,-848.439
 L 43.6448,-848.923 L 43.1871,-849.353 L 42.6791,-849.722 L 42.1289,-850.024 L 41.5451,-850.255 L 40.9369,-850.411
 L 40.3139,-850.49 L -40.3139,-850.49 L -40.9369,-850.411 L -41.5451,-850.255 L -42.1289,-850.024 L -42.6791,-849.722
 L -43.1871,-849.353 L -43.6448,-848.923 L -44.0451,-848.439 L -44.3815,-847.909 L -44.6489,-847.341 L -44.8429,-846.743
 L -44.9606,-846.127 L -45,-845.5 L -45,-750.5 L -44.9606,-749.873 L -44.8429,-749.257 L -44.6489,-748.659
 L -44.3815,-748.091 L -44.0451,-747.561 L -43.6448,-747.077 L -43.1871,-746.647 L -42.6791,-746.278 L -42.1289,-745.976
 L -41.5451,-745.745 L -40.9369,-745.589 L -40.3139,-745.51 L 40.3139,-745.51 z
M -39.7512,-747.008 L -40.2495,-747.071 L -40.7361,-747.196 L -41.2031,-747.381 L -41.6433,-747.623 L -42.0497,-747.918
 L -42.4159,-748.262 L -42.7361,-748.649 L -43.0052,-749.073 L -43.2191,-749.528 L -43.3743,-750.005 L -43.4685,-750.499
 L -43.5,-751 L -43.5,-845 L -43.4685,-845.501 L -43.3743,-845.995 L -43.2191,-846.472 L -43.0052,-846.927
 L -42.7361,-847.351 L -42.4159,-847.738 L -42.0497,-848.082 L -41.6433,-848.377 L -41.2031,-848.619 L -40.7361,-848.804
 L -40.2495,-848.929 L -39.7512,-848.992 L 39.7512,-848.992 L 40.2495,-848.929 L 40.7361,-848.804 L 41.2031,-848.619
 L 41.6433,-848.377 L 42.0497,-848.082 L 42.4159,-847.738 L 42.7361,-847.351 L 43.0052,-846.927 L 43.2191,-846.472
 L 43.3743,-845.995 L 43.4685,-845.501 L 43.5,-845 L 43.5,-751 L 43.4685,-750.499 L 43.3743,-750.005
 L 43.2191,-749.528 L 43.0052,-749.073 L 42.7361,-748.649 L 42.4159,-748.262 L 42.0497,-747.918 L 41.6433,-747.623
 L 41.2031,-747.381 L 40.7361,-747.196 L 40.2495,-747.071 L 39.7512,-747.008 z
M 40.9369,-631.589 L 41.5451,-631.745 L 42.1289,-631.976 L 42.6791,-632.278 L 43.1871,-632.647 L 43.6448,-633.077
 L 44.0451,-633.561 L 44.3815,-634.091 L 44.6489,-634.659 L 44.8429,-635.257 L 44.9606,-635.873 L 45,-636.5
 L 45,-731.5 L 44.9606,-732.127 L 44.8429,-732.743 L 44.6489,-733.341 L 44.3815,-733.909 L 44.0451,-734.439
 L 43.6448,-734.923 L 43.1871,-735.353 L 42.6791,-735.722 L 42.1289,-736.024 L 41.5451,-736.255 L 40.9369,-736.411
 L 40.3139,-736.49 L -40.3139,-736.49 L -40.9369,-736.411 L -41.5451,-736.255 L -42.1289,-736.024 L -42.6791,-735.722
 L -43.1871,-735.353 L -43.6448,-734.923 L -44.0451,-734.439 L -44.3815,-733.909 L -44.6489,-733.341 L -44.8429,-732.743
 L -44.9606,-732.127 L -45,-731.5 L -45,-636.5 L -44.9606,-635.873 L -44.8429,-635.257 L -44.6489,-634.659
 L -44.3815,-634.091 L -44.0451,-633.561 L -43.6448,-633.077 L -43.1871,-632.647 L -42.6791,-632.278 L -42.1289,-631.976
 L -41.5451,-631.745 L -40.9369,-631.589 L -40.3139,-631.51 L 40.3139,-631.51 z
M -39.7432,-633.135 L -40.2256,-633.196 L -40.6967,-633.317 L -41.1489,-633.496 L -41.5751,-633.73 L -41.9685,-634.016
 L -42.323,-634.349 L -42.633,-634.724 L -42.8936,-635.134 L -43.1007,-635.574 L -43.251,-636.037 L -43.3421,-636.515
 L -43.3726,-637 L -43.3726,-731 L -43.3421,-731.485 L -43.251,-731.963 L -43.1007,-732.426 L -42.8936,-732.866
 L -42.633,-733.276 L -42.323,-733.651 L -41.9685,-733.984 L -41.5751,-734.27 L -41.1489,-734.504 L -40.6967,-734.683
 L -40.2256,-734.804 L -39.7432,-734.865 L 39.7432,-734.865 L 40.2256,-734.804 L 40.6967,-734.683 L 41.1489,-734.504
 L 41.5751,-734.27 L 41.9685,-733.984 L 42.323,-733.651 L 42.633,-733.276 L 42.8936,-732.866 L 43.1007,-732.426
 L 43.251,-731.963 L 43.3421,-731.485 L 43.3726,-731 L 43.3726,-637 L 43.3421,-636.515 L 43.251,-636.037
 L 43.1007,-635.574 L 42.8936,-635.134 L 42.633,-634.724 L 42.323,-634.349 L 41.9685,-634.016 L 41.5751,-633.73
 L 41.1489,-633.496 L 40.6967,-633.317 L 40.2256,-633.196 L 39.7432,-633.135 z
M 40.9369,-517.589 L 41.5451,-517.745 L 42.1289,-517.976 L 42.6791,-518.278 L 43.1871,-518.647 L 43.6448,-519.077
 L 44.0451,-519.561 L 44.3815,-520.091 L 44.6489,-520.659 L 44.8429,-521.257 L 44.9606,-521.873 L 45,-522.5
 L 45,-617.5 L 44.9606,-618.127 L 44.8429,-618.743 L 44.6489,-619.341 L 44.3815,-619.909 L 44.0451,-620.439
 L 43.6448,-620.923 L 43.1871,-621.353 L 42.6791,-621.722 L 42.1289,-622.024 L 41.5451,-622.255 L 40.9369,-622.411
 L 40.3139,-622.49 L -40.3139,-622.49 L -40.9369,-622.411 L -41.5451,-622.255 L -42.1289,-622.024 L -42.6791,-621.722
 L -43.1871,-621.353 L -43.6448,-620.923 L -44.0451,-620.439 L -44.3815,-619.909 L -44.6489,-619.341 L -44.8429,-618.743
 L -44.9606,-618.127 L -45,-617.5 L -45,-522.5 L -44.9606,-521.873 L -44.8429,-521.257 L -44.6489,-520.659
 L -44.3815,-520.091 L -44.0451,-519.561 L -43.6448,-519.077 L -43.1871,-518.647 L -42.6791,-518.278 L -42.1289,-517.976
 L -41.5451,-517.745 L -40.9369,-517.589 L -40.3139,-517.51 L 40.3139,-517.51 z
M -37.6507,-612.605 L -37.9497,-612.643 L -38.2416,-612.717 L -38.5219,-612.828 L -38.786,-612.974 L -39.0298,-613.151
 L -39.2495,-613.357 L -39.4416,-613.589 L -39.6031,-613.844 L -39.7315,-614.117 L -39.8246,-614.403 L -39.8811,-614.699
 L -39.9,-615 L -39.8811,-615.301 L -39.8246,-615.597 L -39.7315,-615.883 L -39.6031,-616.156 L -39.4416,-616.411
 L -39.2495,-616.643 L -39.0298,-616.849 L -38.786,-617.026 L -38.5219,-617.172 L -38.2416,-617.283 L -37.9497,-617.357
 L -37.6507,-617.395 L -37.3493,-617.395 L -37.0503,-617.357 L -36.7584,-617.283 L -36.4781,-617.172 L -36.214,-617.026
 L -35.9702,-616.849 L -35.7505,-616.643 L -35.5583,-616.411 L -35.3969,-616.156 L -35.2685,-615.883 L -35.1754,-615.597
 L -35.1189,-615.301 L -35.1,-615 L -35.1189,-614.699 L -35.1754,-614.403 L -35.2685,-614.117 L -35.3969,-613.844
 L -35.5583,-613.589 L -35.7505,-613.357 L -35.9702,-613.151 L -36.214,-612.974 L -36.4781,-612.828 L -36.7584,-612.717
 L -37.0503,-612.643 L -37.3493,-612.605 z
M 37.3493,-612.605 L 37.0503,-612.643 L 36.7584,-612.717 L 36.4781,-612.828 L 36.214,-612.974 L 35.9702,-613.151
 L 35.7505,-613.357 L 35.5583,-613.589 L 35.3969,-613.844 L 35.2685,-614.117 L 35.1754,-614.403 L 35.1189,-614.699
 L 35.1,-615 L 35.1189,-615.301 L 35.1754,-615.597 L 35.2685,-615.883 L 35.3969,-616.156 L 35.5583,-616.411
 L 35.7505,-616.643 L 35.9702,-616.849 L 36.214,-617.026 L 36.4781,-617.172 L 36.7584,-617.283 L 37.0503,-617.357
 L 37.3493,-617.395 L 37.6507,-617.395 L 37.9497,-617.357 L 38.2416,-617.283 L 38.5219,-617.172 L 38.786,-617.026
 L 39.0298,-616.849 L 39.2495,-616.643 L 39.4416,-616.411 L 39.6031,-616.156 L 39.7315,-615.883 L 39.8246,-615.597
 L 39.8811,-615.301 L 39.9,-615 L 39.8811,-614.699 L 39.8246,-614.403 L 39.7315,-614.117 L 39.6031,-613.844
 L 39.4416,-613.589 L 39.2495,-613.357 L 39.0298,-613.151 L 38.786,-612.974 L 38.5219,-612.828 L 38.2416,-612.717
 L 37.9497,-612.643 L 37.6507,-612.605 z
M 37.3493,-522.605 L 37.0503,-522.643 L 36.7584,-522.717 L 36.4781,-522.828 L 36.214,-522.974 L 35.9702,-523.151
 L 35.7505,-523.357 L 35.5583,-523.589 L 35.3969,-523.844 L 35.2685,-524.117 L 35.1754,-524.403 L 35.1189,-524.699
 L 35.1,-525 L 35.1189,-525.301 L 35.1754,-525.597 L 35.2685,-525.883 L 35.3969,-526.156 L 35.5583,-526.411
 L 35.7505,-526.643 L 35.9702,-526.849 L 36.214,-527.026 L 36.4781,-527.172 L 36.7584,-527.283 L 37.0503,-527.357
 L 37.3493,-527.395 L 37.6507,-527.395 L 37.9497,-527.357 L 38.2416,-527.283 L 38.5219,-527.172 L 38.786,-527.026
 L 39.0298,-526.849 L 39.2495,-526.643 L 39.4416,-526.411 L 39.6031,-526.156 L 39.7315,-525.883 L 39.8246,-525.597
 L 39.8811,-525.301 L 39.9,-525 L 39.8811,-524.699 L 39.8246,-524.403 L 39.7315,-524.117 L 39.6031,-523.844
 L 39.4416,-523.589 L 39.2495,-523.357 L 39.0298,-523.151 L 38.786,-522.974 L 38.5219,-522.828 L 38.2416,-522.717
 L 37.9497,-522.643 L 37.6507,-522.605 z
M -37.6507,-522.605 L -37.9497,-522.643 L -38.2416,-522.717 L -38.5219,-522.828 L -38.786,-522.974 L -39.0298,-523.151
 L -39.2495,-523.357 L -39.4416,-523.589 L -39.6031,-523.844 L -39.7315,-524.117 L -39.8246,-524.403 L -39.8811,-524.699
 L -39.9,-525 L -39.8811,-525.301 L -39.8246,-525.597 L -39.7315,-525.883 L -39.6031,-526.156 L -39.4416,-526.411
 L -39.2495,-526.643 L -39.0298,-526.849 L -38.786,-527.026 L -38.5219,-527.172 L -38.2416,-527.283 L -37.9497,-527.357
 L -37.6507,-527.395 L -37.3493,-527.395 L -37.0503,-527.357 L -36.7584,-527.283 L -36.4781,-527.172 L -36.214,-527.026
 L -35.9702,-526.849 L -35.7505,-526.643 L -35.5583,-526.411 L -35.3969,-526.156 L -35.2685,-525.883 L -35.1754,-525.597
 L -35.1189,-525.301 L -35.1,-525 L -35.1189,-524.699 L -35.1754,-524.403 L -35.2685,-524.117 L -35.3969,-523.844
 L -35.5583,-523.589 L -35.7505,-523.357 L -35.9702,-523.151 L -36.214,-522.974 L -36.4781,-522.828 L -36.7584,-522.717
 L -37.0503,-522.643 L -37.3493,-522.605 z
M 40.9369,-403.589 L 41.5451,-403.745 L 42.1289,-403.976 L 42.6791,-404.278 L 43.1871,-404.647 L 43.6448,-405.077
 L 44.0451,-405.561 L 44.3815,-406.091 L 44.6489,-406.659 L 44.8429,-407.257 L 44.9606,-407.873 L 45,-408.5
 L 45,-503.5 L 44.9606,-504.127 L 44.8429,-504.743 L 44.6489,-505.341 L 44.3815,-505.909 L 44.0451,-506.439
 L 43.6448,-506.923 L 43.1871,-507.353 L 42.6791,-507.722 L 42.1289,-508.024 L 41.5451,-508.255 L 40.9369,-508.411
 L 40.3139,-508.49 L -40.3139,-508.49 L -40.9369,-508.411 L -41.5451,-508.255 L -42.1289,-508.024 L -42.6791,-507.722
 L -43.1871,-507.353 L -43.6448,-506.923 L -44.0451,-506.439 L -44.3815,-505.909 L -44.6489,-505.341 L -44.8429,-504.743
 L -44.9606,-504.127 L -45,-503.5 L -45,-408.5 L -44.9606,-407.873 L -44.8429,-407.257 L -44.6489,-406.659
 L -44.3815,-406.091 L -44.0451,-405.561 L -43.6448,-405.077 L -43.1871,-404.647 L -42.6791,-404.278 L -42.1289,-403.976
 L -41.5451,-403.745 L -40.9369,-403.589 L -40.3139,-403.51 L 40.3139,-403.51 z
M 37.387,-499.204 L 37.1627,-499.232 L 36.9438,-499.288 L 36.7336,-499.371 L 36.5355,-499.48 L 36.3526,-499.613
 L 36.1879,-499.768 L 36.0438,-499.942 L 35.9226,-500.133 L 35.8264,-500.337 L 35.7565,-500.552 L 35.7142,-500.774
 L 35.7,-501 L 35.7142,-501.226 L 35.7565,-501.448 L 35.8264,-501.663 L 35.9226,-501.867 L 36.0438,-502.058
 L 36.1879,-502.232 L 36.3526,-502.387 L 36.5355,-502.52 L 36.7336,-502.629 L 36.9438,-502.712 L 37.1627,-502.768
 L 37.387,-502.796 L 37.613,-502.796 L 37.8373,-502.768 L 38.0562,-502.712 L 38.2664,-502.629 L 38.4645,-502.52
 L 38.6474,-502.387 L 38.8121,-502.232 L 38.9562,-502.058 L 39.0773,-501.867 L 39.1736,-501.663 L 39.2434,-501.448
 L 39.2858,-501.226 L 39.3,-501 L 39.2858,-500.774 L 39.2434,-500.552 L 39.1736,-500.337 L 39.0773,-500.133
 L 38.9562,-499.942 L 38.8121,-499.768 L 38.6474,-499.613 L 38.4645,-499.48 L 38.2664,-499.371 L 38.0562,-499.288
 L 37.8373,-499.232 L 37.613,-499.204 z
M -37.613,-499.204 L -37.8373,-499.232 L -38.0562,-499.288 L -38.2664,-499.371 L -38.4645,-499.48 L -38.6474,-499.613
 L -38.8121,-499.768 L -38.9562,-499.942 L -39.0773,-500.133 L -39.1736,-500.337 L -39.2434,-500.552 L -39.2858,-500.774
 L -39.3,-501 L -39.2858,-501.226 L -39.2434,-501.448 L -39.1736,-501.663 L -39.0773,-501.867 L -38.9562,-502.058
 L -38.8121,-502.232 L -38.6474,-502.387 L -38.4645,-502.52 L -38.2664,-502.629 L -38.0562,-502.712 L -37.8373,-502.768
 L -37.613,-502.796 L -37.387,-502.796 L -37.1627,-502.768 L -36.9438,-502.712 L -36.7336,-502.629 L -36.5355,-502.52
 L -36.3526,-502.387 L -36.1879,-502.232 L -36.0438,-502.058 L -35.9226,-501.867 L -35.8264,-501.663 L -35.7565,-501.448
 L -35.7142,-501.226 L -35.7,-501 L -35.7142,-500.774 L -35.7565,-500.552 L -35.8264,-500.337 L -35.9226,-500.133
 L -36.0438,-499.942 L -36.1879,-499.768 L -36.3526,-499.613 L -36.5355,-499.48 L -36.7336,-499.371 L -36.9438,-499.288
 L -37.1627,-499.232 L -37.387,-499.204 z
M -37.613,-409.204 L -37.8373,-409.232 L -38.0562,-409.288 L -38.2664,-409.371 L -38.4645,-409.48 L -38.6474,-409.613
 L -38.8121,-409.768 L -38.9562,-409.942 L -39.0773,-410.133 L -39.1736,-410.337 L -39.2434,-410.552 L -39.2858,-410.774
 L -39.3,-411 L -39.2858,-411.226 L -39.2434,-411.448 L -39.1736,-411.663 L -39.0773,-411.867 L -38.9562,-412.058
 L -38.8121,-412.232 L -38.6474,-412.387 L -38.4645,-412.52 L -38.2664,-412.629 L -38.0562,-412.712 L -37.8373,-412.768
 L -37.613,-412.796 L -37.387,-412.796 L -37.1627,-412.768 L -36.9438,-412.712 L -36.7336,-412.629 L -36.5355,-412.52
 L -36.3526,-412.387 L -36.1879,-412.232 L -36.0438,-412.058 L -35.9226,-411.867 L -35.8264,-411.663 L -35.7565,-411.448
 L -35.7142,-411.226 L -35.7,-411 L -35.7142,-410.774 L -35.7565,-410.552 L -35.8264,-410.337 L -35.9226,-410.133
 L -36.0438,-409.942 L -36.1879,-409.768 L -36.3526,-409.613 L -36.5355,-409.48 L -36.7336,-409.371 L -36.9438,-409.288
 L -37.1627,-409.232 L -37.387,-409.204 z
M 37.387,-409.204 L 37.1627,-409.232 L 36.9438,-409.288 L 36.7336,-409.371 L 36.5355,-409.48 L 36.3526,-409.613
 L 36.1879,-409.768 L 36.0438,-409.942 L 35.9226,-410.133 L 35.8264,-410.337 L 35.7565,-410.552 L 35.7142,-410.774
 L 35.7,-411 L 35.7142,-411.226 L 35.7565,-411.448 L 35.8264,-411.663 L 35.9226,-411.867 L 36.0438,-412.058
 L 36.1879,-412.232 L 36.3526,-412.387 L 36.5355,-412.52 L 36.7336,-412.629 L 36.9438,-412.712 L 37.1627,-412.768
 L 37.387,-412.796 L 37.613,-412.796 L 37.8373,-412.768 L 38.0562,-412.712 L 38.2664,-412.629 L 38.4645,-412.52
 L 38.6474,-412.387 L 38.8121,-412.232 L 38.9562,-412.058 L 39.0773,-411.867 L 39.1736,-411.663 L 39.2434,-411.448
 L 39.2858,-411.226 L 39.3,-411 L 39.2858,-410.774 L 39.2434,-410.552 L 39.1736,-410.337 L 39.0773,-410.133
 L 38.9562,-409.942 L 38.8121,-409.768 L 38.6474,-409.613 L 38.4645,-409.48 L 38.2664,-409.371 L 38.0562,-409.288
 L 37.8373,-409.232 L 37.613,-409.204 z
" stroke="black" fill="lightgray" stroke-width="0.5"/>
</svg>
