<?xml version="1.0" standalone="no"?>
<!DOCTYPE svg PUBLIC "-//W3C//DTD SVG 1.1//EN" "http://www.w3.org/Graphics/SVG/1.1/DTD/svg11.dtd">
<svg width="90mm" height="90mm" viewBox="-45 -45 90 90" xmlns="http://www.w3.org/2000/svg" version="1.1">
<title>OpenSCAD Model</title>
<path d="
M 40.4369,44.4114 L 41.0451,44.2553 L 41.6289,44.0241 L 42.1791,43.7216 L 42.6871,43.3526 L 43.1448,42.9227
 L 43.5451,42.4389 L 43.8815,41.9088 L 44.1489,41.3406 L 44.3429,40.7434 L 44.4606,40.1267 L 44.5,39.5
 L 44.5,-39.5 L 44.4606,-40.1267 L 44.3429,-40.7434 L 44.1489,-41.3406 L 43.8815,-41.9088 L 43.5451,-42.4389
 L 43.1448,-42.9227 L 42.6871,-43.3526 L 42.1791,-43.7216 L 41.6289,-44.0241 L 41.0451,-44.2553 L 40.4369,-44.4114
 L 39.8139,-44.4901 L -39.8139,-44.4901 L -40.4369,-44.4114 L -41.0451,-44.2553 L -41.6289,-44.0241 L -42.1791,-43.7216
 L -42.6871,-43.3526 L -43.1448,-42.9227 L -43.5451,-42.4389 L -43.8815,-41.9088 L -44.1489,-41.3406 L -44.3429,-40.7434
 L -44.4606,-40.1267 L -44.5,-39.5 L -44.5,39.5 L -44.4606,40.1267 L -44.3429,40.7434 L -44.1489,41.3406
 L -43.8815,41.9088 L -43.5451,42.4389 L -43.1448,42.9227 L -42.6871,43.3526 L -42.1791,43.7216 L -41.6289,44.0241
 L -41.0451,44.2553 L -40.4369,44.4114 L -39.8139,44.4901 L 39.8139,44.4901 z
M -37.6884,-34.5059 L -38.0621,-34.5531 L -38.427,-34.6468 L -38.7773,-34.7855 L -39.1075,-34.967 L -39.4123,-35.1885
 L -39.6869,-35.4464 L -39.927,-35.7366 L -40.1289,-36.0547 L -40.2893,-36.3956 L -40.4057,-36.7539 L -40.4763,-37.124
 L -40.5,-37.5 L -40.4763,-37.876 L -40.4057,-38.2461 L -40.2893,-38.6044 L -40.1289,-38.9453 L -39.927,-39.2634
 L -39.6869,-39.5536 L -39.4123,-39.8115 L -39.1075,-40.033 L -38.7773,-40.2145 L -38.427,-40.3532 L -38.0621,-40.4469
 L -37.6884,-40.4941 L -37.3116,-40.4941 L -36.9379,-40.4469 L -36.5729,-40.3532 L -36.2227,-40.2145 L -35.8925,-40.033
 L -35.5877,-39.8115 L -35.3131,-39.5536 L -35.0729,-39.2634 L -34.8711,-38.9453 L -34.7107,-38.6044 L -34.5942,-38.2461
 L -34.5237,-37.876 L -34.5,-37.5 L -34.5237,-37.124 L -34.5942,-36.7539 L -34.7107,-36.3956 L -34.8711,-36.0547
 L -35.0729,-35.7366 L -35.3131,-35.4464 L -35.5877,-35.1885 L -35.8925,-34.967 L -36.2227,-34.7855 L -36.5729,-34.6468
 L -36.9379,-34.5531 L -37.3116,-34.5059 z
M 34.5942,-38.2461 L 34.7107,-38.6044 L 34.8711,-38.9453 L 35.0729,-39.2634 L 35.3131,-39.5536 L 35.5877,-39.8115
 L 35.8925,-40.033 L 36.2227,-40.2145 L 36.5729,-40.3532 L 36.9379,-40.4469 L 37.3116,-40.4941 L 37.6884,-40.4941
 L 38.0621,-40.4469 L 38.427,-40.3532 L 38.7773,-40.2145 L 39.1075,-40.033 L 39.4123,-39.8115 L 39.6869,-39.5536
 L 39.927,-39.2634 L 40.1289,-38.9453 L 40.2893,-38.6044 L 40.4057,-38.2461 L 40.4763,-37.876 L 40.5,-37.5
 L 40.4763,-37.124 L 40.4057,-36.7539 L 40.2893,-36.3956 L 40.1289,-36.0547 L 39.927,-35.7366 L 39.6869,-35.4464
 L 39.4123,-35.1885 L 39.1075,-34.967 L 38.7773,-34.7855 L 38.427,-34.6468 L 38.0621,-34.5531 L 37.6884,-34.5059
 L 37.3116,-34.5059 L 36.9379,-34.5531 L 36.5729,-34.6468 L 36.2227,-34.7855 L 35.8925,-34.967 L 35.5877,-35.1885
 L 35.3131,-35.4464 L 35.0729,-35.7366 L 34.8711,-36.0547 L 34.7107,-36.3956 L 34.5942,-36.7539 L 34.5237,-37.124
 L 34.5,-37.5 L 34.5237,-37.876 z
M 22.3116,-34.5059 L 21.9379,-34.5531 L 21.5729,-34.6468 L 21.2227,-34.7855 L 20.8925,-34.967 L 20.5877,-35.1885
 L 20.3131,-35.4464 L 20.0729,-35.7366 L 19.8711,-36.0547 L 19.7107,-36.3956 L 19.5942,-36.7539 L 19.5237,-37.124
 L 19.5,-37.5 L 19.5237,-37.876 L 19.5942,-38.2461 L 19.7107,-38.6044 L 19.8711,-38.9453 L 20.0729,-39.2634
 L 20.3131,-39.5536 L 20.5877,-39.8115 L 20.8925,-40.033 L 21.2227,-40.2145 L 21.5729,-40.3532 L 21.9379,-40.4469
 L 22.3116,-40.4941 L 22.6884,-40.4941 L 23.0621,-40.4469 L 23.427,-40.3532 L 23.7773,-40.2145 L 24.1075,-40.033
 L 24.4123,-39.8115 L 24.6869,-39.5536 L 24.927,-39.2634 L 25.1289,-38.9453 L 25.2893,-38.6044 L 25.4057,-38.2461
 L 25.4763,-37.876 L 25.5,-37.5 L 25.4763,-37.124 L 25.4057,-36.7539 L 25.2893,-36.3956 L 25.1289,-36.0547
 L 24.927,-35.7366 L 24.6869,-35.4464 L 24.4123,-35.1885 L 24.1075,-34.967 L 23.7773,-34.7855 L 23.427,-34.6468
 L 23.0621,-34.5531 L 22.6884,-34.5059 z
M -22.6884,-34.5059 L -23.0621,-34.5531 L -23.427,-34.6468 L -23.7773,-34.7855 L -24.1075,-34.967 L -24.4123,-35.1885
 L -24.6869,-35.4464 L -24.927,-35.7366 L -25.1289,-36.0547 L -25.2893,-36.3956 L -25.4057,-36.7539 L -25.4763,-37.124
 L -25.5,-37.5 L -25.4763,-37.876 L -25.4057,-38.2461 L -25.2893,-38.6044 L -25.1289,-38.9453 L -24.927,-39.2634
 L -24.6869,-39.5536 L -24.4123,-39.8115 L -24.1075,-40.033 L -23.7773,-40.2145 L -23.427,-40.3532 L -23.0621,-40.4469
 L -22.6884,-40.4941 L -22.3116,-40.4941 L -21.9379,-40.4469 L -21.5729,-40.3532 L -21.2227,-40.2145 L -20.8925,-40.033
 L -20.5877,-39.8115 L -20.3131,-39.5536 L -20.0729,-39.2634 L -19.8711,-38.9453 L -19.7107,-38.6044 L -19.5942,-38.2461
 L -19.5237,-37.876 L -19.5,-37.5 L -19.5237,-37.124 L -19.5942,-36.7539 L -19.7107,-36.3956 L -19.8711,-36.0547
 L -20.0729,-35.7366 L -20.3131,-35.4464 L -20.5877,-35.1885 L -20.8925,-34.967 L -21.2227,-34.7855 L -21.5729,-34.6468
 L -21.9379,-34.5531 L -22.3116,-34.5059 z
M -7.68837,-34.5059 L -8.06213,-34.5531 L -8.42705,-34.6468 L -8.77733,-34.7855 L -9.10747,-34.967 L -9.41226,-35.1885
 L -9.6869,-35.4464 L -9.92705,-35.7366 L -10.1289,-36.0547 L -10.2893,-36.3956 L -10.4057,-36.7539 L -10.4763,-37.124
 L -10.5,-37.5 L -10.4763,-37.876 L -10.4057,-38.2461 L -10.2893,-38.6044 L -10.1289,-38.9453 L -9.92705,-39.2634
 L -9.6869,-39.5536 L -9.41226,-39.8115 L -9.10747,-40.033 L -8.77733,-40.2145 L -8.42705,-40.3532 L -8.06213,-40.4469
 L -7.68837,-40.4941 L -7.31161,-40.4941 L -6.93785,-40.4469 L -6.57294,-40.3532 L -6.22266,-40.2145 L -5.89252,-40.033
 L -5.58772,-39.8115 L -5.31308,-39.5536 L -5.07294,-39.2634 L -4.87108,-38.9453 L -4.71066,-38.6044 L -4.59424,-38.2461
 L -4.52365,-37.876 L -4.5,-37.5 L -4.52365,-37.124 L -4.59424,-36.7539 L -4.71066,-36.3956 L -4.87108,-36.0547
 L -5.07294,-35.7366 L -5.31308,-35.4464 L -5.58772,-35.1885 L -5.89252,-34.967 L -6.22266,-34.7855 L -6.57294,-34.6468
 L -6.93785,-34.5531 L -7.31161,-34.5059 z
M 7.31161,-34.5059 L 6.93785,-34.5531 L 6.57294,-34.6468 L 6.22266,-34.7855 L 5.89252,-34.967 L 5.58772,-35.1885
 L 5.31308,-35.4464 L 5.07294,-35.7366 L 4.87108,-36.0547 L 4.71066,-36.3956 L 4.59424,-36.7539 L 4.52365,-37.124
 L 4.5,-37.5 L 4.52365,-37.876 L 4.59424,-38.2461 L 4.71066,-38.6044 L 4.87108,-38.9453 L 5.07294,-39.2634
 L 5.31308,-39.5536 L 5.58772,-39.8115 L 5.89252,-40.033 L 6.22266,-40.2145 L 6.57294,-40.3532 L 6.93785,-40.4469
 L 7.31161,-40.4941 L 7.68837,-40.4941 L 8.06213,-40.4469 L 8.42705,-40.3532 L 8.77733,-40.2145 L 9.10747,-40.033
 L 9.41226,-39.8115 L 9.6869,-39.5536 L 9.92705,-39.2634 L 10.1289,-38.9453 L 10.2893,-38.6044 L 10.4057,-38.2461
 L 10.4763,-37.876 L 10.5,-37.5 L 10.4763,-37.124 L 10.4057,-36.7539 L 10.2893,-36.3956 L 10.1289,-36.0547
 L 9.92705,-35.7366 L 9.6869,-35.4464 L 9.41226,-35.1885 L 9.10747,-34.967 L 8.77733,-34.7855 L 8.42705,-34.6468
 L 8.06213,-34.5531 L 7.68837,-34.5059 z
M -30.0942,-36.003 L -30.2811,-36.0266 L -30.4635,-36.0734 L -30.6387,-36.1428 L -30.8037,-36.2335 L -30.9561,-36.3442
 L -31.0934,-36.4732 L -31.2135,-36.6183 L -31.3145,-36.7774 L -31.3947,-36.9478 L -31.4529,-37.127 L -31.4882,-37.312
 L -31.5,-37.5 L -31.4882,-37.688 L -31.4529,-37.873 L -31.3947,-38.0522 L -31.3145,-38.2226 L -31.2135,-38.3817
 L -31.0934,-38.5268 L -30.9561,-38.6558 L -30.8037,-38.7665 L -30.6387,-38.8572 L -30.4635,-38.9266 L -30.2811,-38.9734
 L -30.0942,-38.997 L -29.9058,-38.997 L -29.7189,-38.9734 L -29.5365,-38.9266 L -29.3613,-38.8572 L -29.1963,-38.7665
 L -29.0439,-38.6558 L -28.9065,-38.5268 L -28.7865,-38.3817 L -28.6855,-38.2226 L -28.6053,-38.0522 L -28.5471,-37.873
 L -28.5118,-37.688 L -28.5,-37.5 L -28.5118,-37.312 L -28.5471,-37.127 L -28.6053,-36.9478 L -28.6855,-36.7774
 L -28.7865,-36.6183 L -28.9065,-36.4732 L -29.0439,-36.3442 L -29.1963,-36.2335 L -29.3613,-36.1428 L -29.5365,-36.0734
 L -29.7189,-36.0266 L -29.9058,-36.003 z
M -15.0942,-36.003 L -15.2811,-36.0266 L -15.4635,-36.0734 L -15.6387,-36.1428 L -15.8037,-36.2335 L -15.9561,-36.3442
 L -16.0934,-36.4732 L -16.2135,-36.6183 L -16.3145,-36.7774 L -16.3947,-36.9478 L -16.4529,-37.127 L -16.4882,-37.312
 L -16.5,-37.5 L -16.4882,-37.688 L -16.4529,-37.873 L -16.3947,-38.0522 L -16.3145,-38.2226 L -16.2135,-38.3817
 L -16.0934,-38.5268 L -15.9561,-38.6558 L -15.8037,-38.7665 L -15.6387,-38.8572 L -15.4635,-38.9266 L -15.2811,-38.9734
 L -15.0942,-38.997 L -14.9058,-38.997 L -14.7189,-38.9734 L -14.5365,-38.9266 L -14.3613,-38.8572 L -14.1963,-38.7665
 L -14.0439,-38.6558 L -13.9065,-38.5268 L -13.7865,-38.3817 L -13.6855,-38.2226 L -13.6053,-38.0522 L -13.5471,-37.873
 L -13.5118,-37.688 L -13.5,-37.5 L -13.5118,-37.312 L -13.5471,-37.127 L -13.6053,-36.9478 L -13.6855,-36.7774
 L -13.7865,-36.6183 L -13.9065,-36.4732 L -14.0439,-36.3442 L -14.1963,-36.2335 L -14.3613,-36.1428 L -14.5365,-36.0734
 L -14.7189,-36.0266 L -14.9058,-36.003 z
M 14.9058,-36.003 L 14.7189,-36.0266 L 14.5365,-36.0734 L 14.3613,-36.1428 L 14.1963,-36.2335 L 14.0439,-36.3442
 L 13.9065,-36.4732 L 13.7865,-36.6183 L 13.6855,-36.7774 L 13.6053,-36.9478 L 13.5471,-37.127 L 13.5118,-37.312
 L 13.5,-37.5 L 13.5118,-37.688 L 13.5471,-37.873 L 13.6053,-38.0522 L 13.6855,-38.2226 L 13.7865,-38.3817
 L 13.9065,-38.5268 L 14.0439,-38.6558 L 14.1963,-38.7665 L 14.3613,-38.8572 L 14.5365,-38.9266 L 14.7189,-38.9734
 L 14.9058,-38.997 L 15.0942,-38.997 L 15.2811,-38.9734 L 15.4635,-38.9266 L 15.6387,-38.8572 L 15.8037,-38.7665
 L 15.9561,-38.6558 L 16.0934,-38.5268 L 16.2135,-38.3817 L 16.3145,-38.2226 L 16.3947,-38.0522 L 16.4529,-37.873
 L 16.4882,-37.688 L 16.5,-37.5 L 16.4882,-37.312 L 16.4529,-37.127 L 16.3947,-36.9478 L 16.3145,-36.7774
 L 16.2135,-36.6183 L 16.0934,-36.4732 L 15.9561,-36.3442 L 15.8037,-36.2335 L 15.6387,-36.1428 L 15.4635,-36.0734
 L 15.2811,-36.0266 L 15.0942,-36.003 z
M -0.0941772,-36.003 L -0.281067,-36.0266 L -0.463516,-36.0734 L -0.638657,-36.1428 L -0.803726,-36.2335 L -0.956131,-36.3442
 L -1.09344,-36.4732 L -1.21352,-36.6183 L -1.31445,-36.7774 L -1.39465,-36.9478 L -1.45287,-37.127 L -1.48816,-37.312
 L -1.5,-37.5 L -1.48816,-37.688 L -1.45287,-37.873 L -1.39465,-38.0522 L -1.31445,-38.2226 L -1.21352,-38.3817
 L -1.09344,-38.5268 L -0.956131,-38.6558 L -0.803726,-38.7665 L -0.638657,-38.8572 L -0.463516,-38.9266 L -0.281067,-38.9734
 L -0.0941772,-38.997 L 0.0941772,-38.997 L 0.281067,-38.9734 L 0.463516,-38.9266 L 0.638657,-38.8572 L 0.803726,-38.7665
 L 0.956131,-38.6558 L 1.09344,-38.5268 L 1.21352,-38.3817 L 1.31445,-38.2226 L 1.39465,-38.0522 L 1.45287,-37.873
 L 1.48816,-37.688 L 1.5,-37.5 L 1.48816,-37.312 L 1.45287,-37.127 L 1.39465,-36.9478 L 1.31445,-36.7774
 L 1.21352,-36.6183 L 1.09344,-36.4732 L 0.956131,-36.3442 L 0.803726,-36.2335 L 0.638657,-36.1428 L 0.463516,-36.0734
 L 0.281067,-36.0266 L 0.0941772,-36.003 z
M 37.4058,-28.503 L 37.2189,-28.5266 L 37.0365,-28.5734 L 36.8613,-28.6427 L 36.6963,-28.7335 L 36.5439,-28.8442
 L 36.4065,-28.9732 L 36.2865,-29.1183 L 36.1855,-29.2774 L 36.1053,-29.4478 L 36.0471,-29.627 L 36.0118,-29.812
 L 36,-30 L 36.0118,-30.188 L 36.0471,-30.373 L 36.1053,-30.5522 L 36.1855,-30.7226 L 36.2865,-30.8817
 L 36.4065,-31.0268 L 36.5439,-31.1558 L 36.6963,-31.2665 L 36.8613,-31.3572 L 37.0365,-31.4266 L 37.2189,-31.4734
 L 37.4058,-31.497 L 37.5942,-31.497 L 37.7811,-31.4734 L 37.9635,-31.4266 L 38.1387,-31.3572 L 38.3037,-31.2665
 L 38.4561,-31.1558 L 38.5934,-31.0268 L 38.7135,-30.8817 L 38.8145,-30.7226 L 38.8947,-30.5522 L 38.9529,-30.373
 L 38.9882,-30.188 L 39,-30 L 38.9882,-29.812 L 38.9529,-29.627 L 38.8947,-29.4478 L 38.8145,-29.2774
 L 38.7135,-29.1183 L 38.5934,-28.9732 L 38.4561,-28.8442 L 38.3037,-28.7335 L 38.1387,-28.6427 L 37.9635,-28.5734
 L 37.7811,-28.5266 L 37.5942,-28.503 z
M -37.5942,-28.503 L -37.7811,-28.5266 L -37.9635,-28.5734 L -38.1387,-28.6427 L -38.3037,-28.7335 L -38.4561,-28.8442
 L -38.5934,-28.9732 L -38.7135,-29.1183 L -38.8145,-29.2774 L -38.8947,-29.4478 L -38.9529,-29.627 L -38.9882,-29.812
 L -39,-30 L -38.9882,-30.188 L -38.9529,-30.373 L -38.8947,-30.5522 L -38.8145,-30.7226 L -38.7135,-30.8817
 L -38.5934,-31.0268 L -38.4561,-31.1558 L -38.3037,-31.2665 L -38.1387,-31.3572 L -37.9635,-31.4266 L -37.7811,-31.4734
 L -37.5942,-31.497 L -37.4058,-31.497 L -37.2189,-31.4734 L -37.0365,-31.4266 L -36.8613,-31.3572 L -36.6963,-31.2665
 L -36.5439,-31.1558 L -36.4065,-31.0268 L -36.2865,-30.8817 L -36.1855,-30.7226 L -36.1053,-30.5522 L -36.0471,-30.373
 L -36.0118,-30.188 L -36,-30 L -36.0118,-29.812 L -36.0471,-29.627 L -36.1053,-29.4478 L -36.1855,-29.2774
 L -36.2865,-29.1183 L -36.4065,-28.9732 L -36.5439,-28.8442 L -36.6963,-28.7335 L -36.8613,-28.6427 L -37.0365,-28.5734
 L -37.2189,-28.5266 L -37.4058,-28.503 z
M -37.6884,-19.5059 L -38.0621,-19.5531 L -38.427,-19.6468 L -38.7773,-19.7855 L -39.1075,-19.967 L -39.4123,-20.1884
 L -39.6869,-20.4464 L -39.927,-20.7366 L -40.1289,-21.0547 L -40.2893,-21.3956 L -40.4057,-21.7539 L -40.4763,-22.124
 L -40.5,-22.5 L -40.4763,-22.876 L -40.4057,-23.2461 L -40.2893,-23.6044 L -40.1289,-23.9453 L -39.927,-24.2634
 L -39.6869,-24.5536 L -39.4123,-24.8115 L -39.1075,-25.033 L -38.7773,-25.2145 L -38.427,-25.3532 L -38.0621,-25.4469
 L -37.6884,-25.4941 L -37.3116,-25.4941 L -36.9379,-25.4469 L -36.5729,-25.3532 L -36.2227,-25.2145 L -35.8925,-25.033
 L -35.5877,-24.8115 L -35.3131,-24.5536 L -35.0729,-24.2634 L -34.8711,-23.9453 L -34.7107,-23.6044 L -34.5942,-23.2461
 L -34.5237,-22.876 L -34.5,-22.5 L -34.5237,-22.124 L -34.5942,-21.7539 L -34.7107,-21.3956 L -34.8711,-21.0547
 L -35.0729,-20.7366 L -35.3131,-20.4464 L -35.5877,-20.1884 L -35.8925,-19.967 L -36.2227,-19.7855 L -36.5729,-19.6468
 L -36.9379,-19.5531 L -37.3116,-19.5059 z
M 37.3116,-19.5059 L 36.9379,-19.5531 L 36.5729,-19.6468 L 36.2227,-19.7855 L 35.8925,-19.967 L 35.5877,-20.1884
 L 35.3131,-20.4464 L 35.0729,-20.7366 L 34.8711,-21.0547 L 34.7107,-21.3956 L 34.5942,-21.7539 L 34.5237,-22.124
 L 34.5,-22.5 L 34.5237,-22.876 L 34.5942,-23.2461 L 34.7107,-23.6044 L 34.8711,-23.9453 L 35.0729,-24.2634
 L 35.3131,-24.5536 L 35.5877,-24.8115 L 35.8925,-25.033 L 36.2227,-25.2145 L 36.5729,-25.3532 L 36.9379,-25.4469
 L 37.3116,-25.4941 L 37.6884,-25.4941 L 38.0621,-25.4469 L 38.427,-25.3532 L 38.7773,-25.2145 L 39.1075,-25.033
 L 39.4123,-24.8115 L 39.6869,-24.5536 L 39.927,-24.2634 L 40.1289,-23.9453 L 40.2893,-23.6044 L 40.4057,-23.2461
 L 40.4763,-22.876 L 40.5,-22.5 L 40.4763,-22.124 L 40.4057,-21.7539 L 40.2893,-21.3956 L 40.1289,-21.0547
 L 39.927,-20.7366 L 39.6869,-20.4464 L 39.4123,-20.1884 L 39.1075,-19.967 L 38.7773,-19.7855 L 38.427,-19.6468
 L 38.0621,-19.5531 L 37.6884,-19.5059 z
M -0.0847626,-20.1527 L -0.25296,-20.1739 L -0.41716,-20.2161 L -0.574799,-20.2785 L -0.723358,-20.3602 L -0.860519,-20.4598
 L -0.9841,-20.5759 L -1.09216,-20.7065 L -1.18301,-20.8496 L -1.25519,-21.003 L -1.30759,-21.1643 L -1.33934,-21.3308
 L -1.34999,-21.5 L -1.33934,-21.6692 L -1.30759,-21.8357 L -1.25519,-21.997 L -1.18301,-22.1504 L -1.09216,-22.2935
 L -0.9841,-22.4241 L -0.860519,-22.5402 L -0.723358,-22.6398 L -0.574799,-22.7215 L -0.41716,-22.7839 L -0.25296,-22.8261
 L -0.0847626,-22.8473 L 0.0847626,-22.8473 L 0.25296,-22.8261 L 0.41716,-22.7839 L 0.574799,-22.7215 L 0.723358,-22.6398
 L 0.860519,-22.5402 L 0.9841,-22.4241 L 1.09216,-22.2935 L 1.18301,-22.1504 L 1.25519,-21.997 L 1.30759,-21.8357
 L 1.33934,-21.6692 L 1.34999,-21.5 L 1.33934,-21.3308 L 1.30759,-21.1643 L 1.25519,-21.003 L 1.18301,-20.8496
 L 1.09216,-20.7065 L 0.9841,-20.5759 L 0.860519,-20.4598 L 0.723358,-20.3602 L 0.574799,-20.2785 L 0.41716,-20.2161
 L 0.25296,-20.1739 L 0.0847626,-20.1527 z
M -37.5942,-13.5029 L -37.7811,-13.5266 L -37.9635,-13.5734 L -38.1387,-13.6427 L -38.3037,-13.7335 L -38.4561,-13.8442
 L -38.5934,-13.9732 L -38.7135,-14.1183 L -38.8145,-14.2774 L -38.8947,-14.4478 L -38.9529,-14.627 L -38.9882,-14.812
 L -39,-15 L -38.9882,-15.188 L -38.9529,-15.373 L -38.8947,-15.5522 L -38.8145,-15.7226 L -38.7135,-15.8817
 L -38.5934,-16.0268 L -38.4561,-16.1558 L -38.3037,-16.2665 L -38.1387,-16.3572 L -37.9635,-16.4266 L -37.7811,-16.4734
 L -37.5942,-16.497 L -37.4058,-16.497 L -37.2189,-16.4734 L -37.0365,-16.4266 L -36.8613,-16.3572 L -36.6963,-16.2665
 L -36.5439,-16.1558 L -36.4065,-16.0268 L -36.2865,-15.8817 L -36.1855,-15.7226 L -36.1053,-15.5522 L -36.0471,-15.373
 L -36.0118,-15.188 L -36,-15 L -36.0118,-14.812 L -36.0471,-14.627 L -36.1053,-14.4478 L -36.1855,-14.2774
 L -36.2865,-14.1183 L -36.4065,-13.9732 L -36.5439,-13.8442 L -36.6963,-13.7335 L -36.8613,-13.6427 L -37.0365,-13.5734
 L -37.2189,-13.5266 L -37.4058,-13.5029 z
M 37.4058,-13.5029 L 37.2189,-13.5266 L 37.0365,-13.5734 L 36.8613,-13.6427 L 36.6963,-13.7335 L 36.5439,-13.8442
 L 36.4065,-13.9732 L 36.2865,-14.1183 L 36.1855,-14.2774 L 36.1053,-14.4478 L 36.0471,-14.627 L 36.0118,-14.812
 L 36,-15 L 36.0118,-15.188 L 36.0471,-15.373 L 36.1053,-15.5522 L 36.1855,-15.7226 L 36.2865,-15.8817
 L 36.4065,-16.0268 L 36.5439,-16.1558 L 36.6963,-16.2665 L 36.8613,-16.3572 L 37.0365,-16.4266 L 37.2189,-16.4734
 L 37.4058,-16.497 L 37.5942,-16.497 L 37.7811,-16.4734 L 37.9635,-16.4266 L 38.1387,-16.3572 L 38.3037,-16.2665
 L 38.4561,-16.1558 L 38.5934,-16.0268 L 38.7135,-15.8817 L 38.8145,-15.7226 L 38.8947,-15.5522 L 38.9529,-15.373
 L 38.9882,-15.188 L 39,-15 L 38.9882,-14.812 L 38.9529,-14.627 L 38.8947,-14.4478 L 38.8145,-14.2774
 L 38.7135,-14.1183 L 38.5934,-13.9732 L 38.4561,-13.8442 L 38.3037,-13.7335 L 38.1387,-13.6427 L 37.9635,-13.5734
 L 37.7811,-13.5266 L 37.5942,-13.5029 z
M 37.3116,-4.50591 L 36.9379,-4.55313 L 36.5729,-4.64682 L 36.2227,-4.78551 L 35.8925,-4.96701 L 35.5877,-5.18845
 L 35.3131,-5.44635 L 35.0729,-5.73663 L 34.8711,-6.05473 L 34.7107,-6.39561 L 34.5942,-6.75392 L 34.5237,-7.12399
 L 34.5,-7.5 L 34.5237,-7.87599 L 34.5942,-8.24606 L 34.7107,-8.60437 L 34.8711,-8.94525 L 35.0729,-9.26335
 L 35.3131,-9.55363 L 35.5877,-9.81154 L 35.8925,-10.033 L 36.2227,-10.2145 L 36.5729,-10.3532 L 36.9379,-10.4469
 L 37.3116,-10.4941 L 37.6884,-10.4941 L 38.0621,-10.4469 L 38.427,-10.3532 L 38.7773,-10.2145 L 39.1075,-10.033
 L 39.4123,-9.81154 L 39.6869,-9.55363 L 39.927,-9.26335 L 40.1289,-8.94525 L 40.2893,-8.60437 L 40.4057,-8.24606
 L 40.4763,-7.87599 L 40.5,-7.5 L 40.4763,-7.12399 L 40.4057,-6.75392 L 40.2893,-6.39561 L 40.1289,-6.05473
 L 39.927,-5.73663 L 39.6869,-5.44635 L 39.4123,-5.18845 L 39.1075,-4.96701 L 38.7773,-4.78551 L 38.427,-4.64682
 L 38.0621,-4.55313 L 37.6884,-4.50591 z
M -37.6884,-4.50591 L -38.0621,-4.55313 L -38.427,-4.64682 L -38.7773,-4.78551 L -39.1075,-4.96701 L -39.4123,-5.18845
 L -39.6869,-5.44635 L -39.927,-5.73663 L -40.1289,-6.05473 L -40.2893,-6.39561 L -40.4057,-6.75392 L -40.4763,-7.12399
 L -40.5,-7.5 L -40.4763,-7.87599 L -40.4057,-8.24606 L -40.2893,-8.60437 L -40.1289,-8.94525 L -39.927,-9.26335
 L -39.6869,-9.55363 L -39.4123,-9.81154 L -39.1075,-10.033 L -38.7773,-10.2145 L -38.427,-10.3532 L -38.0621,-10.4469
 L -37.6884,-10.4941 L -37.3116,-10.4941 L -36.9379,-10.4469 L -36.5729,-10.3532 L -36.2227,-10.2145 L -35.8925,-10.033
 L -35.5877,-9.81154 L -35.3131,-9.55363 L -35.0729,-9.26335 L -34.8711,-8.94525 L -34.7107,-8.60437 L -34.5942,-8.24606
 L -34.5237,-7.87599 L -34.5,-7.5 L -34.5237,-7.12399 L -34.5942,-6.75392 L -34.7107,-6.39561 L -34.8711,-6.05473
 L -35.0729,-5.73663 L -35.3131,-5.44635 L -35.5877,-5.18845 L -35.8925,-4.96701 L -36.2227,-4.78551 L -36.5729,-4.64682
 L -36.9379,-4.55313 L -37.3116,-4.50591 z
M 37.4058,1.49704 L 37.2189,1.47342 L 37.0365,1.42657 L 36.8613,1.35724 L 36.6963,1.26648 L 36.5439,1.15576
 L 36.4065,1.02681 L 36.2865,0.881668 L 36.1855,0.722626 L 36.1053,0.552185 L 36.0471,0.373032 L 36.0118,0.187988
 L 36,-0 L 36.0118,-0.187988 L 36.0471,-0.373032 L 36.1053,-0.552185 L 36.1855,-0.722626 L 36.2865,-0.881668
 L 36.4065,-1.02681 L 36.5439,-1.15576 L 36.6963,-1.26648 L 36.8613,-1.35724 L 37.0365,-1.42657 L 37.2189,-1.47342
 L 37.4058,-1.49704 L 37.5942,-1.49704 L 37.7811,-1.47342 L 37.9635,-1.42657 L 38.1387,-1.35724 L 38.3037,-1.26648
 L 38.4561,-1.15576 L 38.5934,-1.02681 L 38.7135,-0.881668 L 38.8145,-0.722626 L 38.8947,-0.552185 L 38.9529,-0.373032
 L 38.9882,-0.187988 L 39,-0 L 38.9882,0.187988 L 38.9529,0.373032 L 38.8947,0.552185 L 38.8145,0.722626
 L 38.7135,0.881668 L 38.5934,1.02681 L 38.4561,1.15576 L 38.3037,1.26648 L 38.1387,1.35724 L 37.9635,1.42657
 L 37.7811,1.47342 L 37.5942,1.49704 z
M -37.5942,1.49704 L -37.7811,1.47342 L -37.9635,1.42657 L -38.1387,1.35724 L -38.3037,1.26648 L -38.4561,1.15576
 L -38.5934,1.02681 L -38.7135,0.881668 L -38.8145,0.722626 L -38.8947,0.552185 L -38.9529,0.373032 L -38.9882,0.187988
 L -39,-0 L -38.9882,-0.187988 L -38.9529,-0.373032 L -38.8947,-0.552185 L -38.8145,-0.722626 L -38.7135,-0.881668
 L -38.5934,-1.02681 L -38.4561,-1.15576 L -38.3037,-1.26648 L -38.1387,-1.35724 L -37.9635,-1.42657 L -37.7811,-1.47342
 L -37.5942,-1.49704 L -37.4058,-1.49704 L -37.2189,-1.47342 L -37.0365,-1.42657 L -36.8613,-1.35724 L -36.6963,-1.26648
 L -36.5439,-1.15576 L -36.4065,-1.02681 L -36.2865,-0.881668 L -36.1855,-0.722626 L -36.1053,-0.552185 L -36.0471,-0.373032
 L -36.0118,-0.187988 L -36,-0 L -36.0118,0.187988 L -36.0471,0.373032 L -36.1053,0.552185 L -36.1855,0.722626
 L -36.2865,0.881668 L -36.4065,1.02681 L -36.5439,1.15576 L -36.6963,1.26648 L -36.8613,1.35724 L -37.0365,1.42657
 L -37.2189,1.47342 L -37.4058,1.49704 z
M 22.9152,1.34734 L 22.747,1.32608 L 22.5828,1.28392 L 22.4252,1.22151 L 22.2766,1.13983 L 22.1395,1.04019
 L 22.0159,0.924133 L 21.9078,0.793503 L 21.817,0.65036 L 21.7448,0.496964 L 21.6924,0.335724 L 21.6606,0.169189
 L 21.65,-0 L 21.6606,-0.169189 L 21.6924,-0.335724 L 21.7448,-0.496964 L 21.817,-0.65036 L 21.9078,-0.793503
 L 22.0159,-0.924133 L 22.1395,-1.04019 L 22.2766,-1.13983 L 22.4252,-1.22151 L 22.5828,-1.28392 L 22.747,-1.32608
 L 22.9152,-1.34734 L 23.0848,-1.34734 L 23.253,-1.32608 L 23.4172,-1.28392 L 23.5748,-1.22151 L 23.7234,-1.13983
 L 23.8605,-1.04019 L 23.9841,-0.924133 L 24.0922,-0.793503 L 24.183,-0.65036 L 24.2552,-0.496964 L 24.3076,-0.335724
 L 24.3394,-0.169189 L 24.35,-0 L 24.3394,0.169189 L 24.3076,0.335724 L 24.2552,0.496964 L 24.183,0.65036
 L 24.0922,0.793503 L 23.9841,0.924133 L 23.8605,1.04019 L 23.7234,1.13983 L 23.5748,1.22151 L 23.4172,1.28392
 L 23.253,1.32608 L 23.0848,1.34734 z
M -23.0848,1.34734 L -23.253,1.32608 L -23.4172,1.28392 L -23.5748,1.22151 L -23.7234,1.13983 L -23.8605,1.04019
 L -23.9841,0.924133 L -24.0922,0.793503 L -24.183,0.65036 L -24.2552,0.496964 L -24.3076,0.335724 L -24.3394,0.169189
 L -24.35,-0 L -24.3394,-0.169189 L -24.3076,-0.335724 L -24.2552,-0.496964 L -24.183,-0.65036 L -24.0922,-0.793503
 L -23.9841,-0.924133 L -23.8605,-1.04019 L -23.7234,-1.13983 L -23.5748,-1.22151 L -23.4172,-1.28392 L -23.253,-1.32608
 L -23.0848,-1.34734 L -22.9152,-1.34734 L -22.747,-1.32608 L -22.5828,-1.28392 L -22.4252,-1.22151 L -22.2766,-1.13983
 L -22.1395,-1.04019 L -22.0159,-0.924133 L -21.9078,-0.793503 L -21.817,-0.65036 L -21.7448,-0.496964 L -21.6924,-0.335724
 L -21.6606,-0.169189 L -21.65,-0 L -21.6606,0.169189 L -21.6924,0.335724 L -21.7448,0.496964 L -21.817,0.65036
 L -21.9078,0.793503 L -22.0159,0.924133 L -22.1395,1.04019 L -22.2766,1.13983 L -22.4252,1.22151 L -22.5828,1.28392
 L -22.747,1.32608 L -22.9152,1.34734 z
M 37.3116,10.4941 L 36.9379,10.4469 L 36.5729,10.3532 L 36.2227,10.2145 L 35.8925,10.033 L 35.5877,9.81154
 L 35.3131,9.55363 L 35.0729,9.26335 L 34.8711,8.94525 L 34.7107,8.60437 L 34.5942,8.24606 L 34.5237,7.87599
 L 34.5,7.5 L 34.5237,7.12399 L 34.5942,6.75392 L 34.7107,6.39561 L 34.8711,6.05473 L 35.0729,5.73663
 L 35.3131,5.44635 L 35.5877,5.18845 L 35.8925,4.96701 L 36.2227,4.78551 L 36.5729,4.64682 L 36.9379,4.55313
 L 37.3116,4.50591 L 37.6884,4.50591 L 38.0621,4.55313 L 38.427,4.64682 L 38.7773,4.78551 L 39.1075,4.96701
 L 39.4123,5.18845 L 39.6869,5.44635 L 39.927,5.73663 L 40.1289,6.05473 L 40.2893,6.39561 L 40.4057,6.75392
 L 40.4763,7.12399 L 40.5,7.5 L 40.4763,7.87599 L 40.4057,8.24606 L 40.2893,8.60437 L 40.1289,8.94525
 L 39.927,9.26335 L 39.6869,9.55363 L 39.4123,9.81154 L 39.1075,10.033 L 38.7773,10.2145 L 38.427,10.3532
 L 38.0621,10.4469 L 37.6884,10.4941 z
M -37.6884,10.4941 L -38.0621,10.4469 L -38.427,10.3532 L -38.7773,10.2145 L -39.1075,10.033 L -39.4123,9.81154
 L -39.6869,9.55363 L -39.927,9.26335 L -40.1289,8.94525 L -40.2893,8.60437 L -40.4057,8.24606 L -40.4763,7.87599
 L -40.5,7.5 L -40.4763,7.12399 L -40.4057,6.75392 L -40.2893,6.39561 L -40.1289,6.05473 L -39.927,5.73663
 L -39.6869,5.44635 L -39.4123,5.18845 L -39.1075,4.96701 L -38.7773,4.78551 L -38.427,4.64682 L -38.0621,4.55313
 L -37.6884,4.50591 L -37.3116,4.50591 L -36.9379,4.55313 L -36.5729,4.64682 L -36.2227,4.78551 L -35.8925,4.96701
 L -35.5877,5.18845 L -35.3131,5.44635 L -35.0729,5.73663 L -34.8711,6.05473 L -34.7107,6.39561 L -34.5942,6.75392
 L -34.5237,7.12399 L -34.5,7.5 L -34.5237,7.87599 L -34.5942,8.24606 L -34.7107,8.60437 L -34.8711,8.94525
 L -35.0729,9.26335 L -35.3131,9.55363 L -35.5877,9.81154 L -35.8925,10.033 L -36.2227,10.2145 L -36.5729,10.3532
 L -36.9379,10.4469 L -37.3116,10.4941 z
M -37.5942,16.497 L -37.7811,16.4734 L -37.9635,16.4266 L -38.1387,16.3572 L -38.3037,16.2665 L -38.4561,16.1558
 L -38.5934,16.0268 L -38.7135,15.8817 L -38.8145,15.7226 L -38.8947,15.5522 L -38.9529,15.373 L -38.9882,15.188
 L -39,15 L -38.9882,14.812 L -38.9529,14.627 L -38.8947,14.4478 L -38.8145,14.2774 L -38.7135,14.1183
 L -38.5934,13.9732 L -38.4561,13.8442 L -38.3037,13.7335 L -38.1387,13.6427 L -37.9635,13.5734 L -37.7811,13.5266
 L -37.5942,13.5029 L -37.4058,13.5029 L -37.2189,13.5266 L -37.0365,13.5734 L -36.8613,13.6427 L -36.6963,13.7335
 L -36.5439,13.8442 L -36.4065,13.9732 L -36.2865,14.1183 L -36.1855,14.2774 L -36.1053,14.4478 L -36.0471,14.627
 L -36.0118,14.812 L -36,15 L -36.0118,15.188 L -36.0471,15.373 L -36.1053,15.5522 L -36.1855,15.7226
 L -36.2865,15.8817 L -36.4065,16.0268 L -36.5439,16.1558 L -36.6963,16.2665 L -36.8613,16.3572 L -37.0365,16.4266
 L -37.2189,16.4734 L -37.4058,16.497 z
M 37.4058,16.497 L 37.2189,16.4734 L 37.0365,16.4266 L 36.8613,16.3572 L 36.6963,16.2665 L 36.5439,16.1558
 L 36.4065,16.0268 L 36.2865,15.8817 L 36.1855,15.7226 L 36.1053,15.5522 L 36.0471,15.373 L 36.0118,15.188
 L 36,15 L 36.0118,14.812 L 36.0471,14.627 L 36.1053,14.4478 L 36.1855,14.2774 L 36.2865,14.1183
 L 36.4065,13.9732 L 36.5439,13.8442 L 36.6963,13.7335 L 36.8613,13.6427 L 37.0365,13.5734 L 37.2189,13.5266
 L 37.4058,13.5029 L 37.5942,13.5029 L 37.7811,13.5266 L 37.9635,13.5734 L 38.1387,13.6427 L 38.3037,13.7335
 L 38.4561,13.8442 L 38.5934,13.9732 L 38.7135,14.1183 L 38.8145,14.2774 L 38.8947,14.4478 L 38.9529,14.627
 L 38.9882,14.812 L 39,15 L 38.9882,15.188 L 38.9529,15.373 L 38.8947,15.5522 L 38.8145,15.7226
 L 38.7135,15.8817 L 38.5934,16.0268 L 38.4561,16.1558 L 38.3037,16.2665 L 38.1387,16.3572 L 37.9635,16.4266
 L 37.7811,16.4734 L 37.5942,16.497 z
M 37.3116,25.4941 L 36.9379,25.4469 L 36.5729,25.3532 L 36.2227,25.2145 L 35.8925,25.033 L 35.5877,24.8115
 L 35.3131,24.5536 L 35.0729,24.2634 L 34.8711,23.9453 L 34.7107,23.6044 L 34.5942,23.2461 L 34.5237,22.876
 L 34.5,22.5 L 34.5237,22.124 L 34.5942,21.7539 L 34.7107,21.3956 L 34.8711,21.0547 L 35.0729,20.7366
 L 35.3131,20.4464 L 35.5877,20.1884 L 35.8925,19.967 L 36.2227,19.7855 L 36.5729,19.6468 L 36.9379,19.5531
 L 37.3116,19.5059 L 37.6884,19.5059 L 38.0621,19.5531 L 38.427,19.6468 L 38.7773,19.7855 L 39.1075,19.967
 L 39.4123,20.1884 L 39.6869,20.4464 L 39.927,20.7366 L 40.1289,21.0547 L 40.2893,21.3956 L 40.4057,21.7539
 L 40.4763,22.124 L 40.5,22.5 L 40.4763,22.876 L 40.4057,23.2461 L 40.2893,23.6044 L 40.1289,23.9453
 L 39.927,24.2634 L 39.6869,24.5536 L 39.4123,24.8115 L 39.1075,25.033 L 38.7773,25.2145 L 38.427,25.3532
 L 38.0621,25.4469 L 37.6884,25.4941 z
M -37.6884,25.4941 L -38.0621,25.4469 L -38.427,25.3532 L -38.7773,25.2145 L -39.1075,25.033 L -39.4123,24.8115
 L -39.6869,24.5536 L -39.927,24.2634 L -40.1289,23.9453 L -40.2893,23.6044 L -40.4057,23.2461 L -40.4763,22.876
 L -40.5,22.5 L -40.4763,22.124 L -40.4057,21.7539 L -40.2893,21.3956 L -40.1289,21.0547 L -39.927,20.7366
 L -39.6869,20.4464 L -39.4123,20.1884 L -39.1075,19.967 L -38.7773,19.7855 L -38.427,19.6468 L -38.0621,19.5531
 L -37.6884,19.5059 L -37.3116,19.5059 L -36.9379,19.5531 L -36.5729,19.6468 L -36.2227,19.7855 L -35.8925,19.967
 L -35.5877,20.1884 L -35.3131,20.4464 L -35.0729,20.7366 L -34.8711,21.0547 L -34.7107,21.3956 L -34.5942,21.7539
 L -34.5237,22.124 L -34.5,22.5 L -34.5237,22.876 L -34.5942,23.2461 L -34.7107,23.6044 L -34.8711,23.9453
 L -35.0729,24.2634 L -35.3131,24.5536 L -35.5877,24.8115 L -35.8925,25.033 L -36.2227,25.2145 L -36.5729,25.3532
 L -36.9379,25.4469 L -37.3116,25.4941 z
M -0.0847626,22.8473 L -0.25296,22.8261 L -0.41716,22.7839 L -0.574799,22.7215 L -0.723358,22.6398 L -0.860519,22.5402
 L -0.9841,22.4241 L -1.09216,22.2935 L -1.18301,22.1504 L -1.25519,21.997 L -1.30759,21.8357 L -1.33934,21.6692
 L -1.34999,21.5 L -1.33934,21.3308 L -1.30759,21.1643 L -1.25519,21.003 L -1.18301,20.8496 L -1.09216,20.7065
 L -0.9841,20.5759 L -0.860519,20.4598 L -0.723358,20.3602 L -0.574799,20.2785 L -0.41716,20.2161 L -0.25296,20.1739
 L -0.0847626,20.1527 L 0.0847626,20.1527 L 0.25296,20.1739 L 0.41716,20.2161 L 0.574799,20.2785 L 0.723358,20.3602
 L 0.860519,20.4598 L 0.9841,20.5759 L 1.09216,20.7065 L 1.18301,20.8496 L 1.25519,21.003 L 1.30759,21.1643
 L 1.33934,21.3308 L 1.34999,21.5 L 1.33934,21.6692 L 1.30759,21.8357 L 1.25519,21.997 L 1.18301,22.1504
 L 1.09216,22.2935 L 0.9841,22.4241 L 0.860519,22.5402 L 0.723358,22.6398 L 0.574799,22.7215 L 0.41716,22.7839
 L 0.25296,22.8261 L 0.0847626,22.8473 z
M 37.4058,31.497 L 37.2189,31.4734 L 37.0365,31.4266 L 36.8613,31.3572 L 36.6963,31.2665 L 36.5439,31.1558
 L 36.4065,31.0268 L 36.2865,30.8817 L 36.1855,30.7226 L 36.1053,30.5522 L 36.0471,30.373 L 36.0118,30.188
 L 36,30 L 36.0118,29.812 L 36.0471,29.627 L 36.1053,29.4478 L 36.1855,29.2774 L 36.2865,29.1183
 L 36.4065,28.9732 L 36.5439,28.8442 L 36.6963,28.7335 L 36.8613,28.6427 L 37.0365,28.5734 L 37.2189,28.5266
 L 37.4058,28.503 L 37.5942,28.503 L 37.7811,28.5266 L 37.9635,28.5734 L 38.1387,28.6427 L 38.3037,28.7335
 L 38.4561,28.8442 L 38.5934,28.9732 L 38.7135,29.1183 L 38.8145,29.2774 L 38.8947,29.4478 L 38.9529,29.627
 L 38.9882,29.812 L 39,30 L 38.9882,30.188 L 38.9529,30.373 L 38.8947,30.5522 L 38.8145,30.7226
 L 38.7135,30.8817 L 38.5934,31.0268 L 38.4561,31.1558 L 38.3037,31.2665 L 38.1387,31.3572 L 37.9635,31.4266
 L 37.7811,31.4734 L 37.5942,31.497 z
M -37.5942,31.497 L -37.7811,31.4734 L -37.9635,31.4266 L -38.1387,31.3572 L -38.3037,31.2665 L -38.4561,31.1558
 L -38.5934,31.0268 L -38.7135,30.8817 L -38.8145,30.7226 L -38.8947,30.5522 L -38.9529,30.373 L -38.9882,30.188
 L -39,30 L -38.9882,29.812 L -38.9529,29.627 L -38.8947,29.4478 L -38.8145,29.2774 L -38.7135,29.1183
 L -38.5934,28.9732 L -38.4561,28.8442 L -38.3037,28.7335 L -38.1387,28.6427 L -37.9635,28.5734 L -37.7811,28.5266
 L -37.5942,28.503 L -37.4058,28.503 L -37.2189,28.5266 L -37.0365,28.5734 L -36.8613,28.6427 L -36.6963,28.7335
 L -36.5439,28.8442 L -36.4065,28.9732 L -36.2865,29.1183 L -36.1855,29.2774 L -36.1053,29.4478 L -36.0471,29.627
 L -36.0118,29.812 L -36,30 L -36.0118,30.188 L -36.0471,30.373 L -36.1053,30.5522 L -36.1855,30.7226
 L -36.2865,30.8817 L -36.4065,31.0268 L -36.5439,31.1558 L -36.6963,31.2665 L -36.8613,31.3572 L -37.0365,31.4266
 L -37.2189,31.4734 L -37.4058,31.497 z
M 22.3116,40.4941 L 21.9379,40.4469 L 21.5729,40.3532 L 21.2227,40.2145 L 20.8925,40.033 L 20.5877,39.8115
 L 20.3131,39.5536 L 20.0729,39.2634 L 19.8711,38.9453 L 19.7107,38.6044 L 19.5942,38.2461 L 19.5237,37.876
 L 19.5,37.5 L 19.5237,37.124 L 19.5942,36.7539 L 19.7107,36.3956 L 19.8711,36.0547 L 20.0729,35.7366
 L 20.3131,35.4464 L 20.5877,35.1885 L 20.8925,34.967 L 21.2227,34.7855 L 21.5729,34.6468 L 21.9379,34.5531
 L 22.3116,34.5059 L 22.6884,34.5059 L 23.0621,34.5531 L 23.427,34.6468 L 23.7773,34.7855 L 24.1075,34.967
 L 24.4123,35.1885 L 24.6869,35.4464 L 24.927,35.7366 L 25.1289,36.0547 L 25.2893,36.3956 L 25.4057,36.7539
 L 25.4763,37.124 L 25.5,37.5 L 25.4763,37.876 L 25.4057,38.2461 L 25.2893,38.6044 L 25.1289,38.9453
 L 24.927,39.2634 L 24.6869,39.5536 L 24.4123,39.8115 L 24.1075,40.033 L 23.7773,40.2145 L 23.427,40.3532
 L 23.0621,40.4469 L 22.6884,40.4941 z
M -22.6884,40.4941 L -23.0621,40.4469 L -23.427,40.3532 L -23.7773,40.2145 L -24.1075,40.033 L -24.4123,39.8115
 L -24.6869,39.5536 L -24.927,39.2634 L -25.1289,38.9453 L -25.2893,38.6044 L -25.4057,38.2461 L -25.4763,37.876
 L -25.5,37.5 L -25.4763,37.124 L -25.4057,36.7539 L -25.2893,36.3956 L -25.1289,36.0547 L -24.927,35.7366
 L -24.6869,35.4464 L -24.4123,35.1885 L -24.1075,34.967 L -23.7773,34.7855 L -23.427,34.6468 L -23.0621,34.5531
 L -22.6884,34.5059 L -22.3116,34.5059 L -21.9379,34.5531 L -21.5729,34.6468 L -21.2227,34.7855 L -20.8925,34.967
 L -20.5877,35.1885 L -20.3131,35.4464 L -20.0729,35.7366 L -19.8711,36.0547 L -19.7107,36.3956 L -19.5942,36.7539
 L -19.5237,37.124 L -19.5,37.5 L -19.5237,37.876 L -19.5942,38.2461 L -19.7107,38.6044 L -19.8711,38.9453
 L -20.0729,39.2634 L -20.3131,39.5536 L -20.5877,39.8115 L -20.8925,40.033 L -21.2227,40.2145 L -21.5729,40.3532
 L -21.9379,40.4469 L -22.3116,40.4941 z
M 37.3116,40.4941 L 36.9379,40.4469 L 36.5729,40.3532 L 36.2227,40.2145 L 35.8925,40.033 L 35.5877,39.8115
 L 35.3131,39.5536 L 35.0729,39.2634 L 34.8711,38.9453 L 34.7107,38.6044 L 34.5942,38.2461 L 34.5237,37.876
 L 34.5,37.5 L 34.5237,37.124 L 34.5942,36.7539 L 34.7107,36.3956 L 34.8711,36.0547 L 35.0729,35.7366
 L 35.3131,35.4464 L 35.5877,35.1885 L 35.8925,34.967 L 36.2227,34.7855 L 36.5729,34.6468 L 36.9379,34.5531
 L 37.3116,34.5059 L 37.6884,34.5059 L 38.0621,34.5531 L 38.427,34.6468 L 38.7773,34.7855 L 39.1075,34.967
 L 39.4123,35.1885 L 39.6869,35.4464 L 39.927,35.7366 L 40.1289,36.0547 L 40.2893,36.3956 L 40.4057,36.7539
 L 40.4763,37.124 L 40.5,37.5 L 40.4763,37.876 L 40.4057,38.2461 L 40.2893,38.6044 L 40.1289,38.9453
 L 39.927,39.2634 L 39.6869,39.5536 L 39.4123,39.8115 L 39.1075,40.033 L 38.7773,40.2145 L 38.427,40.3532
 L 38.0621,40.4469 L 37.6884,40.4941 z
M -7.68837,40.4941 L -8.06213,40.4469 L -8.42705,40.3532 L -8.77733,40.2145 L -9.10747,40.033 L -9.41226,39.8115
 L -9.6869,39.5536 L -9.92705,39.2634 L -10.1289,38.9453 L -10.2893,38.6044 L -10.4057,38.2461 L -10.4763,37.876
 L -10.5,37.5 L -10.4763,37.124 L -10.4057,36.7539 L -10.2893,36.3956 L -10.1289,36.0547 L -9.92705,35.7366
 L -9.6869,35.4464 L -9.41226,35.1885 L -9.10747,34.967 L -8.77733,34.7855 L -8.42705,34.6468 L -8.06213,34.5531
 L -7.68837,34.5059 L -7.31161,34.5059 L -6.93785,34.5531 L -6.57294,34.6468 L -6.22266,34.7855 L -5.89252,34.967
 L -5.58772,35.1885 L -5.31308,35.4464 L -5.07294,35.7366 L -4.87108,36.0547 L -4.71066,36.3956 L -4.59424,36.7539
 L -4.52365,37.124 L -4.5,37.5 L -4.52365,37.876 L -4.59424,38.2461 L -4.71066,38.6044 L -4.87108,38.9453
 L -5.07294,39.2634 L -5.31308,39.5536 L -5.58772,39.8115 L -5.89252,40.033 L -6.22266,40.2145 L -6.57294,40.3532
 L -6.93785,40.4469 L -7.31161,40.4941 z
M -37.6884,40.4941 L -38.0621,40.4469 L -38.427,40.3532 L -38.7773,40.2145 L -39.1075,40.033 L -39.4123,39.8115
 L -39.6869,39.5536 L -39.927,39.2634 L -40.1289,38.9453 L -40.2893,38.6044 L -40.4057,38.2461 L -40.4763,37.876
 L -40.5,37.5 L -40.4763,37.124 L -40.4057,36.7539 L -40.2893,36.3956 L -40.1289,36.0547 L -39.927,35.7366
 L -39.6869,35.4464 L -39.4123,35.1885 L -39.1075,34.967 L -38.7773,34.7855 L -38.427,34.6468 L -38.0621,34.5531
 L -37.6884,34.5059 L -37.3116,34.5059 L -36.9379,34.5531 L -36.5729,34.6468 L -36.2227,34.7855 L -35.8925,34.967
 L -35.5877,35.1885 L -35.3131,35.4464 L -35.0729,35.7366 L -34.8711,36.0547 L -34.7107,36.3956 L -34.5942,36.7539
 L -34.5237,37.124 L -34.5,37.5 L -34.5237,37.876 L -34.5942,38.2461 L -34.7107,38.6044 L -34.8711,38.9453
 L -35.0729,39.2634 L -35.3131,39.5536 L -35.5877,39.8115 L -35.8925,40.033 L -36.2227,40.2145 L -36.5729,40.3532
 L -36.9379,40.4469 L -37.3116,40.4941 z
M 7.31161,40.4941 L 6.93785,40.4469 L 6.57294,40.3532 L 6.22266,40.2145 L 5.89252,40.033 L 5.58772,39.8115
 L 5.31308,39.5536 L 5.07294,39.2634 L 4.87108,38.9453 L 4.71066,38.6044 L 4.59424,38.2461 L 4.52365,37.876
 L 4.5,37.5 L 4.52365,37.124 L 4.59424,36.7539 L 4.71066,36.3956 L 4.87108,36.0547 L 5.07294,35.7366
 L 5.31308,35.4464 L 5.58772,35.1885 L 5.89252,34.967 L 6.22266,34.7855 L 6.57294,34.6468 L 6.93785,34.5531
 L 7.31161,34.5059 L 7.68837,34.5059 L 8.06213,34.5531 L 8.42705,34.6468 L 8.77733,34.7855 L 9.10747,34.967
 L 9.41226,35.1885 L 9.6869,35.4464 L 9.92705,35.7366 L 10.1289,36.0547 L 10.2893,36.3956 L 10.4057,36.7539
 L 10.4763,37.124 L 10.5,37.5 L 10.4763,37.876 L 10.4057,38.2461 L 10.2893,38.6044 L 10.1289,38.9453
 L 9.92705,39.2634 L 9.6869,39.5536 L 9.41226,39.8115 L 9.10747,40.033 L 8.77733,40.2145 L 8.42705,40.3532
 L 8.06213,40.4469 L 7.68837,40.4941 z
M 29.9058,38.997 L 29.7189,38.9734 L 29.5365,38.9266 L 29.3613,38.8572 L 29.1963,38.7665 L 29.0439,38.6558
 L 28.9065,38.5268 L 28.7865,38.3817 L 28.6855,38.2226 L 28.6053,38.0522 L 28.5471,37.873 L 28.5118,37.688
 L 28.5,37.5 L 28.5118,37.312 L 28.5471,37.127 L 28.6053,36.9478 L 28.6855,36.7774 L 28.7865,36.6183
 L 28.9065,36.4732 L 29.0439,36.3442 L 29.1963,36.2335 L 29.3613,36.1428 L 29.5365,36.0734 L 29.7189,36.0266
 L 29.9058,36.003 L 30.0942,36.003 L 30.2811,36.0266 L 30.4635,36.0734 L 30.6387,36.1428 L 30.8037,36.2335
 L 30.9561,36.3442 L 31.0934,36.4732 L 31.2135,36.6183 L 31.3145,36.7774 L 31.3947,36.9478 L 31.4529,37.127
 L 31.4882,37.312 L 31.5,37.5 L 31.4882,37.688 L 31.4529,37.873 L 31.3947,38.0522 L 31.3145,38.2226
 L 31.2135,38.3817 L 31.0934,38.5268 L 30.9561,38.6558 L 30.8037,38.7665 L 30.6387,38.8572 L 30.4635,38.9266
 L 30.2811,38.9734 L 30.0942,38.997 z
M 14.9058,38.997 L 14.7189,38.9734 L 14.5365,38.9266 L 14.3613,38.8572 L 14.1963,38.7665 L 14.0439,38.6558
 L 13.9065,38.5268 L 13.7865,38.3817 L 13.6855,38.2226 L 13.6053,38.0522 L 13.5471,37.873 L 13.5118,37.688
 L 13.5,37.5 L 13.5118,37.312 L 13.5471,37.127 L 13.6053,36.9478 L 13.6855,36.7774 L 13.7865,36.6183
 L 13.9065,36.4732 L 14.0439,36.3442 L 14.1963,36.2335 L 14.3613,36.1428 L 14.5365,36.0734 L 14.7189,36.0266
 L 14.9058,36.003 L 15.0942,36.003 L 15.2811,36.0266 L 15.4635,36.0734 L 15.6387,36.1428 L 15.8037,36.2335
 L 15.9561,36.3442 L 16.0934,36.4732 L 16.2135,36.6183 L 16.3145,36.7774 L 16.3947,36.9478 L 16.4529,37.127
 L 16.4882,37.312 L 16.5,37.5 L 16.4882,37.688 L 16.4529,37.873 L 16.3947,38.0522 L 16.3145,38.2226
 L 16.2135,38.3817 L 16.0934,38.5268 L 15.9561,38.6558 L 15.8037,38.7665 L 15.6387,38.8572 L 15.4635,38.9266
 L 15.2811,38.9734 L 15.0942,38.997 z
M -0.0941772,38.997 L -0.281067,38.9734 L -0.463516,38.9266 L -0.638657,38.8572 L -0.803726,38.7665 L -0.956131,38.6558
 L -1.09344,38.5268 L -1.21352,38.3817 L -1.31445,38.2226 L -1.39465,38.0522 L -1.45287,37.873 L -1.48816,37.688
 L -1.5,37.5 L -1.48816,37.312 L -1.45287,37.127 L -1.39465,36.9478 L -1.31445,36.7774 L -1.21352,36.6183
 L -1.09344,36.4732 L -0.956131,36.3442 L -0.803726,36.2335 L -0.638657,36.1428 L -0.463516,36.0734 L -0.281067,36.0266
 L -0.0941772,36.003 L 0.0941772,36.003 L 0.281067,36.0266 L 0.463516,36.0734 L 0.638657,36.1428 L 0.803726,36.2335
 L 0.956131,36.3442 L 1.09344,36.4732 L 1.21352,36.6183 L 1.31445,36.7774 L 1.39465,36.9478 L 1.45287,37.127
 L 1.48816,37.312 L 1.5,37.5 L 1.48816,37.688 L 1.45287,37.873 L 1.39465,38.0522 L 1.31445,38.2226
 L 1.21352,38.3817 L 1.09344,38.5268 L 0.956131,38.6558 L 0.803726,38.7665 L 0.638657,38.8572 L 0.463516,38.9266
 L 0.281067,38.9734 L 0.0941772,38.997 z
M -15.0942,38.997 L -15.2811,38.9734 L -15.4635,38.9266 L -15.6387,38.8572 L -15.8037,38.7665 L -15.9561,38.6558
 L -16.0934,38.5268 L -16.2135,38.3817 L -16.3145,38.2226 L -16.3947,38.0522 L -16.4529,37.873 L -16.4882,37.688
 L -16.5,37.5 L -16.4882,37.312 L -16.4529,37.127 L -16.3947,36.9478 L -16.3145,36.7774 L -16.2135,36.6183
 L -16.0934,36.4732 L -15.9561,36.3442 L -15.8037,36.2335 L -15.6387,36.1428 L -15.4635,36.0734 L -15.2811,36.0266
 L -15.0942,36.003 L -14.9058,36.003 L -14.7189,36.0266 L -14.5365,36.0734 L -14.3613,36.1428 L -14.1963,36.2335
 L -14.0439,36.3442 L -13.9065,36.4732 L -13.7865,36.6183 L -13.6855,36.7774 L -13.6053,36.9478 L -13.5471,37.127
 L -13.5118,37.312 L -13.5,37.5 L -13.5118,37.688 L -13.5471,37.873 L -13.6053,38.0522 L -13.6855,38.2226
 L -13.7865,38.3817 L -13.9065,38.5268 L -14.0439,38.6558 L -14.1963,38.7665 L -14.3613,38.8572 L -14.5365,38.9266
 L -14.7189,38.9734 L -14.9058,38.997 z
M -30.0942,38.997 L -30.2811,38.9734 L -30.4635,38.9266 L -30.6387,38.8572 L -30.8037,38.7665 L -30.9561,38.6558
 L -31.0934,38.5268 L -31.2135,38.3817 L -31.3145,38.2226 L -31.3947,38.0522 L -31.4529,37.873 L -31.4882,37.688
 L -31.5,37.5 L -31.4882,37.312 L -31.4529,37.127 L -31.3947,36.9478 L -31.3145,36.7774 L -31.2135,36.6183
 L -31.0934,36.4732 L -30.9561,36.3442 L -30.8037,36.2335 L -30.6387,36.1428 L -30.4635,36.0734 L -30.2811,36.0266
 L -30.0942,36.003 L -29.9058,36.003 L -29.7189,36.0266 L -29.5365,36.0734 L -29.3613,36.1428 L -29.1963,36.2335
 L -29.0439,36.3442 L -28.9065,36.4732 L -28.7865,36.6183 L -28.6855,36.7774 L -28.6053,36.9478 L -28.5471,37.127
 L -28.5118,37.312 L -28.5,37.5 L -28.5118,37.688 L -28.5471,37.873 L -28.6053,38.0522 L -28.6855,38.2226
 L -28.7865,38.3817 L -28.9065,38.5268 L -29.0439,38.6558 L -29.1963,38.7665 L -29.3613,38.8572 L -29.5365,38.9266
 L -29.7189,38.9734 L -29.9058,38.997 z
M 31.4529,-37.127 L 31.3947,-36.9478 L 31.3145,-36.7774 L 31.2135,-36.6183 L 31.0934,-36.4732 L 30.9561,-36.3442
 L 30.8037,-36.2335 L 30.6387,-36.1428 L 30.4635,-36.0734 L 30.2811,-36.0266 L 30.0942,-36.003 L 29.9058,-36.003
 L 29.7189,-36.0266 L 29.5365,-36.0734 L 29.3613,-36.1428 L 29.1963,-36.2335 L 29.0439,-36.3442 L 28.9065,-36.4732
 L 28.7865,-36.6183 L 28.6855,-36.7774 L 28.6053,-36.9478 L 28.5471,-37.127 L 28.5118,-37.312 L 28.5,-37.5
 L 28.5118,-37.688 L 28.5471,-37.873 L 28.6053,-38.0522 L 28.6855,-38.2226 L 28.7865,-38.3817 L 28.9065,-38.5268
 L 29.0439,-38.6558 L 29.1963,-38.7665 L 29.3613,-38.8572 L 29.5365,-38.9266 L 29.7189,-38.9734 L 29.9058,-38.997
 L 30.0942,-38.997 L 30.2811,-38.9734 L 30.4635,-38.9266 L 30.6387,-38.8572 L 30.8037,-38.7665 L 30.9561,-38.6558
 L 31.0934,-38.5268 L 31.2135,-38.3817 L 31.3145,-38.2226 L 31.3947,-38.0522 L 31.4529,-37.873 L 31.4882,-37.688
 L 31.5,-37.5 L 31.4882,-37.312 z
" stroke="black" fill="lightgray" stroke-width="0.5"/>
</svg>
