  0
SECTION
  2
BLOCKS
  0
ENDSEC
  0
SECTION
  2
ENTITIES
  0
LINE
  8
0
 10
63.4369
 20
403.589
 11
64.0451
 21
403.745
  0
LINE
  8
0
 10
64.0451
 20
403.745
 11
64.6289
 21
403.976
  0
LINE
  8
0
 10
64.6289
 20
403.976
 11
65.1791
 21
404.278
  0
LINE
  8
0
 10
65.1791
 20
404.278
 11
65.6871
 21
404.647
  0
LINE
  8
0
 10
65.6871
 20
404.647
 11
66.1448
 21
405.077
  0
LINE
  8
0
 10
66.1448
 20
405.077
 11
66.5451
 21
405.561
  0
LINE
  8
0
 10
66.5451
 20
405.561
 11
66.8815
 21
406.091
  0
LINE
  8
0
 10
66.8815
 20
406.091
 11
67.1489
 21
406.659
  0
LINE
  8
0
 10
67.1489
 20
406.659
 11
67.3429
 21
407.257
  0
LINE
  8
0
 10
67.3429
 20
407.257
 11
67.4606
 21
407.873
  0
LINE
  8
0
 10
67.4606
 20
407.873
 11
67.5
 21
408.5
  0
LINE
  8
0
 10
67.5
 20
408.5
 11
67.5
 21
503.5
  0
LINE
  8
0
 10
67.5
 20
503.5
 11
67.4606
 21
504.127
  0
LINE
  8
0
 10
67.4606
 20
504.127
 11
67.3429
 21
504.743
  0
LINE
  8
0
 10
67.3429
 20
504.743
 11
67.1489
 21
505.341
  0
LINE
  8
0
 10
67.1489
 20
505.341
 11
66.8815
 21
505.909
  0
LINE
  8
0
 10
66.8815
 20
505.909
 11
66.5451
 21
506.439
  0
LINE
  8
0
 10
66.5451
 20
506.439
 11
66.1448
 21
506.923
  0
LINE
  8
0
 10
66.1448
 20
506.923
 11
65.6871
 21
507.353
  0
LINE
  8
0
 10
65.6871
 20
507.353
 11
65.1791
 21
507.722
  0
LINE
  8
0
 10
65.1791
 20
507.722
 11
64.6289
 21
508.024
  0
LINE
  8
0
 10
64.6289
 20
508.024
 11
64.0451
 21
508.255
  0
LINE
  8
0
 10
64.0451
 20
508.255
 11
63.4369
 21
508.411
  0
LINE
  8
0
 10
63.4369
 20
508.411
 11
62.8139
 21
508.49
  0
LINE
  8
0
 10
62.8139
 20
508.49
 11
-62.8139
 21
508.49
  0
LINE
  8
0
 10
-62.8139
 20
508.49
 11
-63.4369
 21
508.411
  0
LINE
  8
0
 10
-63.4369
 20
508.411
 11
-64.0451
 21
508.255
  0
LINE
  8
0
 10
-64.0451
 20
508.255
 11
-64.6289
 21
508.024
  0
LINE
  8
0
 10
-64.6289
 20
508.024
 11
-65.1791
 21
507.722
  0
LINE
  8
0
 10
-65.1791
 20
507.722
 11
-65.6871
 21
507.353
  0
LINE
  8
0
 10
-65.6871
 20
507.353
 11
-66.1448
 21
506.923
  0
LINE
  8
0
 10
-66.1448
 20
506.923
 11
-66.5451
 21
506.439
  0
LINE
  8
0
 10
-66.5451
 20
506.439
 11
-66.8815
 21
505.909
  0
LINE
  8
0
 10
-66.8815
 20
505.909
 11
-67.1489
 21
505.341
  0
LINE
  8
0
 10
-67.1489
 20
505.341
 11
-67.3429
 21
504.743
  0
LINE
  8
0
 10
-67.3429
 20
504.743
 11
-67.4606
 21
504.127
  0
LINE
  8
0
 10
-67.4606
 20
504.127
 11
-67.5
 21
503.5
  0
LINE
  8
0
 10
-67.5
 20
503.5
 11
-67.5
 21
408.5
  0
LINE
  8
0
 10
-67.5
 20
408.5
 11
-67.4606
 21
407.873
  0
LINE
  8
0
 10
-67.4606
 20
407.873
 11
-67.3429
 21
407.257
  0
LINE
  8
0
 10
-67.3429
 20
407.257
 11
-67.1489
 21
406.659
  0
LINE
  8
0
 10
-67.1489
 20
406.659
 11
-66.8815
 21
406.091
  0
LINE
  8
0
 10
-66.8815
 20
406.091
 11
-66.5451
 21
405.561
  0
LINE
  8
0
 10
-66.5451
 20
405.561
 11
-66.1448
 21
405.077
  0
LINE
  8
0
 10
-66.1448
 20
405.077
 11
-65.6871
 21
404.647
  0
LINE
  8
0
 10
-65.6871
 20
404.647
 11
-65.1791
 21
404.278
  0
LINE
  8
0
 10
-65.1791
 20
404.278
 11
-64.6289
 21
403.976
  0
LINE
  8
0
 10
-64.6289
 20
403.976
 11
-64.0451
 21
403.745
  0
LINE
  8
0
 10
-64.0451
 20
403.745
 11
-63.4369
 21
403.589
  0
LINE
  8
0
 10
-63.4369
 20
403.589
 11
-62.8139
 21
403.51
  0
LINE
  8
0
 10
-62.8139
 20
403.51
 11
62.8139
 21
403.51
  0
LINE
  8
0
 10
62.8139
 20
403.51
 11
63.4369
 21
403.589
  0
LINE
  8
0
 10
-62.5482
 20
404.009
 11
-63.1401
 21
404.084
  0
LINE
  8
0
 10
-63.1401
 20
404.084
 11
-63.7178
 21
404.232
  0
LINE
  8
0
 10
-63.7178
 20
404.232
 11
-64.2724
 21
404.452
  0
LINE
  8
0
 10
-64.2724
 20
404.452
 11
-64.7952
 21
404.739
  0
LINE
  8
0
 10
-64.7952
 20
404.739
 11
-65.2778
 21
405.09
  0
LINE
  8
0
 10
-65.2778
 20
405.09
 11
-65.7126
 21
405.498
  0
LINE
  8
0
 10
-65.7126
 20
405.498
 11
-66.0928
 21
405.958
  0
LINE
  8
0
 10
-66.0928
 20
405.958
 11
-66.4125
 21
406.462
  0
LINE
  8
0
 10
-66.4125
 20
406.462
 11
-66.6664
 21
407.001
  0
LINE
  8
0
 10
-66.6664
 20
407.001
 11
-66.8508
 21
407.569
  0
LINE
  8
0
 10
-66.8508
 20
407.569
 11
-66.9625
 21
408.155
  0
LINE
  8
0
 10
-66.9625
 20
408.155
 11
-67
 21
408.75
  0
LINE
  8
0
 10
-67
 20
408.75
 11
-67
 21
503.25
  0
LINE
  8
0
 10
-67
 20
503.25
 11
-66.9625
 21
503.845
  0
LINE
  8
0
 10
-66.9625
 20
503.845
 11
-66.8508
 21
504.431
  0
LINE
  8
0
 10
-66.8508
 20
504.431
 11
-66.6664
 21
504.999
  0
LINE
  8
0
 10
-66.6664
 20
504.999
 11
-66.4125
 21
505.538
  0
LINE
  8
0
 10
-66.4125
 20
505.538
 11
-66.0928
 21
506.042
  0
LINE
  8
0
 10
-66.0928
 20
506.042
 11
-65.7126
 21
506.502
  0
LINE
  8
0
 10
-65.7126
 20
506.502
 11
-65.2778
 21
506.91
  0
LINE
  8
0
 10
-65.2778
 20
506.91
 11
-64.7952
 21
507.261
  0
LINE
  8
0
 10
-64.7952
 20
507.261
 11
-64.2724
 21
507.548
  0
LINE
  8
0
 10
-64.2724
 20
507.548
 11
-63.7178
 21
507.768
  0
LINE
  8
0
 10
-63.7178
 20
507.768
 11
-63.1401
 21
507.916
  0
LINE
  8
0
 10
-63.1401
 20
507.916
 11
-62.5482
 21
507.991
  0
LINE
  8
0
 10
-62.5482
 20
507.991
 11
62.5482
 21
507.991
  0
LINE
  8
0
 10
62.5482
 20
507.991
 11
63.1401
 21
507.916
  0
LINE
  8
0
 10
63.1401
 20
507.916
 11
63.7178
 21
507.768
  0
LINE
  8
0
 10
63.7178
 20
507.768
 11
64.2724
 21
507.548
  0
LINE
  8
0
 10
64.2724
 20
507.548
 11
64.7952
 21
507.261
  0
LINE
  8
0
 10
64.7952
 20
507.261
 11
65.2778
 21
506.91
  0
LINE
  8
0
 10
65.2778
 20
506.91
 11
65.7126
 21
506.502
  0
LINE
  8
0
 10
65.7126
 20
506.502
 11
66.0928
 21
506.042
  0
LINE
  8
0
 10
66.0928
 20
506.042
 11
66.4125
 21
505.538
  0
LINE
  8
0
 10
66.4125
 20
505.538
 11
66.6664
 21
504.999
  0
LINE
  8
0
 10
66.6664
 20
504.999
 11
66.8508
 21
504.431
  0
LINE
  8
0
 10
66.8508
 20
504.431
 11
66.9625
 21
503.845
  0
LINE
  8
0
 10
66.9625
 20
503.845
 11
67
 21
503.25
  0
LINE
  8
0
 10
67
 20
503.25
 11
67
 21
408.75
  0
LINE
  8
0
 10
67
 20
408.75
 11
66.9625
 21
408.155
  0
LINE
  8
0
 10
66.9625
 20
408.155
 11
66.8508
 21
407.569
  0
LINE
  8
0
 10
66.8508
 20
407.569
 11
66.6664
 21
407.001
  0
LINE
  8
0
 10
66.6664
 20
407.001
 11
66.4125
 21
406.462
  0
LINE
  8
0
 10
66.4125
 20
406.462
 11
66.0928
 21
405.958
  0
LINE
  8
0
 10
66.0928
 20
405.958
 11
65.7126
 21
405.498
  0
LINE
  8
0
 10
65.7126
 20
405.498
 11
65.2778
 21
405.09
  0
LINE
  8
0
 10
65.2778
 20
405.09
 11
64.7952
 21
404.739
  0
LINE
  8
0
 10
64.7952
 20
404.739
 11
64.2724
 21
404.452
  0
LINE
  8
0
 10
64.2724
 20
404.452
 11
63.7178
 21
404.232
  0
LINE
  8
0
 10
63.7178
 20
404.232
 11
63.1401
 21
404.084
  0
LINE
  8
0
 10
63.1401
 20
404.084
 11
62.5482
 21
404.009
  0
LINE
  8
0
 10
62.5482
 20
404.009
 11
-62.5482
 21
404.009
  0
LINE
  8
0
 10
63.4369
 20
289.589
 11
64.0451
 21
289.745
  0
LINE
  8
0
 10
64.0451
 20
289.745
 11
64.6289
 21
289.976
  0
LINE
  8
0
 10
64.6289
 20
289.976
 11
65.1791
 21
290.278
  0
LINE
  8
0
 10
65.1791
 20
290.278
 11
65.6871
 21
290.647
  0
LINE
  8
0
 10
65.6871
 20
290.647
 11
66.1448
 21
291.077
  0
LINE
  8
0
 10
66.1448
 20
291.077
 11
66.5451
 21
291.561
  0
LINE
  8
0
 10
66.5451
 20
291.561
 11
66.8815
 21
292.091
  0
LINE
  8
0
 10
66.8815
 20
292.091
 11
67.1489
 21
292.659
  0
LINE
  8
0
 10
67.1489
 20
292.659
 11
67.3429
 21
293.257
  0
LINE
  8
0
 10
67.3429
 20
293.257
 11
67.4606
 21
293.873
  0
LINE
  8
0
 10
67.4606
 20
293.873
 11
67.5
 21
294.5
  0
LINE
  8
0
 10
67.5
 20
294.5
 11
67.5
 21
389.5
  0
LINE
  8
0
 10
67.5
 20
389.5
 11
67.4606
 21
390.127
  0
LINE
  8
0
 10
67.4606
 20
390.127
 11
67.3429
 21
390.743
  0
LINE
  8
0
 10
67.3429
 20
390.743
 11
67.1489
 21
391.341
  0
LINE
  8
0
 10
67.1489
 20
391.341
 11
66.8815
 21
391.909
  0
LINE
  8
0
 10
66.8815
 20
391.909
 11
66.5451
 21
392.439
  0
LINE
  8
0
 10
66.5451
 20
392.439
 11
66.1448
 21
392.923
  0
LINE
  8
0
 10
66.1448
 20
392.923
 11
65.6871
 21
393.353
  0
LINE
  8
0
 10
65.6871
 20
393.353
 11
65.1791
 21
393.722
  0
LINE
  8
0
 10
65.1791
 20
393.722
 11
64.6289
 21
394.024
  0
LINE
  8
0
 10
64.6289
 20
394.024
 11
64.0451
 21
394.255
  0
LINE
  8
0
 10
64.0451
 20
394.255
 11
63.4369
 21
394.411
  0
LINE
  8
0
 10
63.4369
 20
394.411
 11
62.8139
 21
394.49
  0
LINE
  8
0
 10
62.8139
 20
394.49
 11
-62.8139
 21
394.49
  0
LINE
  8
0
 10
-62.8139
 20
394.49
 11
-63.4369
 21
394.411
  0
LINE
  8
0
 10
-63.4369
 20
394.411
 11
-64.0451
 21
394.255
  0
LINE
  8
0
 10
-64.0451
 20
394.255
 11
-64.6289
 21
394.024
  0
LINE
  8
0
 10
-64.6289
 20
394.024
 11
-65.1791
 21
393.722
  0
LINE
  8
0
 10
-65.1791
 20
393.722
 11
-65.6871
 21
393.353
  0
LINE
  8
0
 10
-65.6871
 20
393.353
 11
-66.1448
 21
392.923
  0
LINE
  8
0
 10
-66.1448
 20
392.923
 11
-66.5451
 21
392.439
  0
LINE
  8
0
 10
-66.5451
 20
392.439
 11
-66.8815
 21
391.909
  0
LINE
  8
0
 10
-66.8815
 20
391.909
 11
-67.1489
 21
391.341
  0
LINE
  8
0
 10
-67.1489
 20
391.341
 11
-67.3429
 21
390.743
  0
LINE
  8
0
 10
-67.3429
 20
390.743
 11
-67.4606
 21
390.127
  0
LINE
  8
0
 10
-67.4606
 20
390.127
 11
-67.5
 21
389.5
  0
LINE
  8
0
 10
-67.5
 20
389.5
 11
-67.5
 21
294.5
  0
LINE
  8
0
 10
-67.5
 20
294.5
 11
-67.4606
 21
293.873
  0
LINE
  8
0
 10
-67.4606
 20
293.873
 11
-67.3429
 21
293.257
  0
LINE
  8
0
 10
-67.3429
 20
293.257
 11
-67.1489
 21
292.659
  0
LINE
  8
0
 10
-67.1489
 20
292.659
 11
-66.8815
 21
292.091
  0
LINE
  8
0
 10
-66.8815
 20
292.091
 11
-66.5451
 21
291.561
  0
LINE
  8
0
 10
-66.5451
 20
291.561
 11
-66.1448
 21
291.077
  0
LINE
  8
0
 10
-66.1448
 20
291.077
 11
-65.6871
 21
290.647
  0
LINE
  8
0
 10
-65.6871
 20
290.647
 11
-65.1791
 21
290.278
  0
LINE
  8
0
 10
-65.1791
 20
290.278
 11
-64.6289
 21
289.976
  0
LINE
  8
0
 10
-64.6289
 20
289.976
 11
-64.0451
 21
289.745
  0
LINE
  8
0
 10
-64.0451
 20
289.745
 11
-63.4369
 21
289.589
  0
LINE
  8
0
 10
-63.4369
 20
289.589
 11
-62.8139
 21
289.51
  0
LINE
  8
0
 10
-62.8139
 20
289.51
 11
62.8139
 21
289.51
  0
LINE
  8
0
 10
62.8139
 20
289.51
 11
63.4369
 21
289.589
  0
LINE
  8
0
 10
-62.493
 20
290.888
 11
-62.9751
 21
290.949
  0
LINE
  8
0
 10
-62.9751
 20
290.949
 11
-63.4457
 21
291.07
  0
LINE
  8
0
 10
-63.4457
 20
291.07
 11
-63.8975
 21
291.249
  0
LINE
  8
0
 10
-63.8975
 20
291.249
 11
-64.3234
 21
291.483
  0
LINE
  8
0
 10
-64.3234
 20
291.483
 11
-64.7165
 21
291.769
  0
LINE
  8
0
 10
-64.7165
 20
291.769
 11
-65.0707
 21
292.101
  0
LINE
  8
0
 10
-65.0707
 20
292.101
 11
-65.3805
 21
292.476
  0
LINE
  8
0
 10
-65.3805
 20
292.476
 11
-65.6408
 21
292.886
  0
LINE
  8
0
 10
-65.6408
 20
292.886
 11
-65.8477
 21
293.326
  0
LINE
  8
0
 10
-65.8477
 20
293.326
 11
-65.9979
 21
293.788
  0
LINE
  8
0
 10
-65.9979
 20
293.788
 11
-66.089
 21
294.265
  0
LINE
  8
0
 10
-66.089
 20
294.265
 11
-66.1195
 21
294.75
  0
LINE
  8
0
 10
-66.1195
 20
294.75
 11
-66.1195
 21
389.25
  0
LINE
  8
0
 10
-66.1195
 20
389.25
 11
-66.089
 21
389.735
  0
LINE
  8
0
 10
-66.089
 20
389.735
 11
-65.9979
 21
390.212
  0
LINE
  8
0
 10
-65.9979
 20
390.212
 11
-65.8477
 21
390.674
  0
LINE
  8
0
 10
-65.8477
 20
390.674
 11
-65.6408
 21
391.114
  0
LINE
  8
0
 10
-65.6408
 20
391.114
 11
-65.3805
 21
391.524
  0
LINE
  8
0
 10
-65.3805
 20
391.524
 11
-65.0707
 21
391.899
  0
LINE
  8
0
 10
-65.0707
 20
391.899
 11
-64.7165
 21
392.231
  0
LINE
  8
0
 10
-64.7165
 20
392.231
 11
-64.3234
 21
392.517
  0
LINE
  8
0
 10
-64.3234
 20
392.517
 11
-63.8975
 21
392.751
  0
LINE
  8
0
 10
-63.8975
 20
392.751
 11
-63.4457
 21
392.93
  0
LINE
  8
0
 10
-63.4457
 20
392.93
 11
-62.9751
 21
393.051
  0
LINE
  8
0
 10
-62.9751
 20
393.051
 11
-62.493
 21
393.112
  0
LINE
  8
0
 10
-62.493
 20
393.112
 11
62.493
 21
393.112
  0
LINE
  8
0
 10
62.493
 20
393.112
 11
62.9751
 21
393.051
  0
LINE
  8
0
 10
62.9751
 20
393.051
 11
63.4457
 21
392.93
  0
LINE
  8
0
 10
63.4457
 20
392.93
 11
63.8975
 21
392.751
  0
LINE
  8
0
 10
63.8975
 20
392.751
 11
64.3234
 21
392.517
  0
LINE
  8
0
 10
64.3234
 20
392.517
 11
64.7165
 21
392.231
  0
LINE
  8
0
 10
64.7165
 20
392.231
 11
65.0707
 21
391.899
  0
LINE
  8
0
 10
65.0707
 20
391.899
 11
65.3805
 21
391.524
  0
LINE
  8
0
 10
65.3805
 20
391.524
 11
65.6408
 21
391.114
  0
LINE
  8
0
 10
65.6408
 20
391.114
 11
65.8477
 21
390.674
  0
LINE
  8
0
 10
65.8477
 20
390.674
 11
65.9979
 21
390.212
  0
LINE
  8
0
 10
65.9979
 20
390.212
 11
66.089
 21
389.735
  0
LINE
  8
0
 10
66.089
 20
389.735
 11
66.1195
 21
389.25
  0
LINE
  8
0
 10
66.1195
 20
389.25
 11
66.1195
 21
294.75
  0
LINE
  8
0
 10
66.1195
 20
294.75
 11
66.089
 21
294.265
  0
LINE
  8
0
 10
66.089
 20
294.265
 11
65.9979
 21
293.788
  0
LINE
  8
0
 10
65.9979
 20
293.788
 11
65.8477
 21
293.326
  0
LINE
  8
0
 10
65.8477
 20
293.326
 11
65.6408
 21
292.886
  0
LINE
  8
0
 10
65.6408
 20
292.886
 11
65.3805
 21
292.476
  0
LINE
  8
0
 10
65.3805
 20
292.476
 11
65.0707
 21
292.101
  0
LINE
  8
0
 10
65.0707
 20
292.101
 11
64.7165
 21
291.769
  0
LINE
  8
0
 10
64.7165
 20
291.769
 11
64.3234
 21
291.483
  0
LINE
  8
0
 10
64.3234
 20
291.483
 11
63.8975
 21
291.249
  0
LINE
  8
0
 10
63.8975
 20
291.249
 11
63.4457
 21
291.07
  0
LINE
  8
0
 10
63.4457
 20
291.07
 11
62.9751
 21
290.949
  0
LINE
  8
0
 10
62.9751
 20
290.949
 11
62.493
 21
290.888
  0
LINE
  8
0
 10
62.493
 20
290.888
 11
-62.493
 21
290.888
  0
LINE
  8
0
 10
63.4369
 20
175.589
 11
64.0451
 21
175.745
  0
LINE
  8
0
 10
64.0451
 20
175.745
 11
64.6289
 21
175.976
  0
LINE
  8
0
 10
64.6289
 20
175.976
 11
65.1791
 21
176.278
  0
LINE
  8
0
 10
65.1791
 20
176.278
 11
65.6871
 21
176.647
  0
LINE
  8
0
 10
65.6871
 20
176.647
 11
66.1448
 21
177.077
  0
LINE
  8
0
 10
66.1448
 20
177.077
 11
66.5451
 21
177.561
  0
LINE
  8
0
 10
66.5451
 20
177.561
 11
66.8815
 21
178.091
  0
LINE
  8
0
 10
66.8815
 20
178.091
 11
67.1489
 21
178.659
  0
LINE
  8
0
 10
67.1489
 20
178.659
 11
67.3429
 21
179.257
  0
LINE
  8
0
 10
67.3429
 20
179.257
 11
67.4606
 21
179.873
  0
LINE
  8
0
 10
67.4606
 20
179.873
 11
67.5
 21
180.5
  0
LINE
  8
0
 10
67.5
 20
180.5
 11
67.5
 21
275.5
  0
LINE
  8
0
 10
67.5
 20
275.5
 11
67.4606
 21
276.127
  0
LINE
  8
0
 10
67.4606
 20
276.127
 11
67.3429
 21
276.743
  0
LINE
  8
0
 10
67.3429
 20
276.743
 11
67.1489
 21
277.341
  0
LINE
  8
0
 10
67.1489
 20
277.341
 11
66.8815
 21
277.909
  0
LINE
  8
0
 10
66.8815
 20
277.909
 11
66.5451
 21
278.439
  0
LINE
  8
0
 10
66.5451
 20
278.439
 11
66.1448
 21
278.923
  0
LINE
  8
0
 10
66.1448
 20
278.923
 11
65.6871
 21
279.353
  0
LINE
  8
0
 10
65.6871
 20
279.353
 11
65.1791
 21
279.722
  0
LINE
  8
0
 10
65.1791
 20
279.722
 11
64.6289
 21
280.024
  0
LINE
  8
0
 10
64.6289
 20
280.024
 11
64.0451
 21
280.255
  0
LINE
  8
0
 10
64.0451
 20
280.255
 11
63.4369
 21
280.411
  0
LINE
  8
0
 10
63.4369
 20
280.411
 11
62.8139
 21
280.49
  0
LINE
  8
0
 10
62.8139
 20
280.49
 11
-62.8139
 21
280.49
  0
LINE
  8
0
 10
-62.8139
 20
280.49
 11
-63.4369
 21
280.411
  0
LINE
  8
0
 10
-63.4369
 20
280.411
 11
-64.0451
 21
280.255
  0
LINE
  8
0
 10
-64.0451
 20
280.255
 11
-64.6289
 21
280.024
  0
LINE
  8
0
 10
-64.6289
 20
280.024
 11
-65.1791
 21
279.722
  0
LINE
  8
0
 10
-65.1791
 20
279.722
 11
-65.6871
 21
279.353
  0
LINE
  8
0
 10
-65.6871
 20
279.353
 11
-66.1448
 21
278.923
  0
LINE
  8
0
 10
-66.1448
 20
278.923
 11
-66.5451
 21
278.439
  0
LINE
  8
0
 10
-66.5451
 20
278.439
 11
-66.8815
 21
277.909
  0
LINE
  8
0
 10
-66.8815
 20
277.909
 11
-67.1489
 21
277.341
  0
LINE
  8
0
 10
-67.1489
 20
277.341
 11
-67.3429
 21
276.743
  0
LINE
  8
0
 10
-67.3429
 20
276.743
 11
-67.4606
 21
276.127
  0
LINE
  8
0
 10
-67.4606
 20
276.127
 11
-67.5
 21
275.5
  0
LINE
  8
0
 10
-67.5
 20
275.5
 11
-67.5
 21
180.5
  0
LINE
  8
0
 10
-67.5
 20
180.5
 11
-67.4606
 21
179.873
  0
LINE
  8
0
 10
-67.4606
 20
179.873
 11
-67.3429
 21
179.257
  0
LINE
  8
0
 10
-67.3429
 20
179.257
 11
-67.1489
 21
178.659
  0
LINE
  8
0
 10
-67.1489
 20
178.659
 11
-66.8815
 21
178.091
  0
LINE
  8
0
 10
-66.8815
 20
178.091
 11
-66.5451
 21
177.561
  0
LINE
  8
0
 10
-66.5451
 20
177.561
 11
-66.1448
 21
177.077
  0
LINE
  8
0
 10
-66.1448
 20
177.077
 11
-65.6871
 21
176.647
  0
LINE
  8
0
 10
-65.6871
 20
176.647
 11
-65.1791
 21
176.278
  0
LINE
  8
0
 10
-65.1791
 20
176.278
 11
-64.6289
 21
175.976
  0
LINE
  8
0
 10
-64.6289
 20
175.976
 11
-64.0451
 21
175.745
  0
LINE
  8
0
 10
-64.0451
 20
175.745
 11
-63.4369
 21
175.589
  0
LINE
  8
0
 10
-63.4369
 20
175.589
 11
-62.8139
 21
175.51
  0
LINE
  8
0
 10
-62.8139
 20
175.51
 11
62.8139
 21
175.51
  0
LINE
  8
0
 10
62.8139
 20
175.51
 11
63.4369
 21
175.589
  0
LINE
  8
0
 10
59.887
 20
271.204
 11
59.6627
 21
271.232
  0
LINE
  8
0
 10
59.6627
 20
271.232
 11
59.4438
 21
271.288
  0
LINE
  8
0
 10
59.4438
 20
271.288
 11
59.2336
 21
271.371
  0
LINE
  8
0
 10
59.2336
 20
271.371
 11
59.0355
 21
271.48
  0
LINE
  8
0
 10
59.0355
 20
271.48
 11
58.8526
 21
271.613
  0
LINE
  8
0
 10
58.8526
 20
271.613
 11
58.6879
 21
271.768
  0
LINE
  8
0
 10
58.6879
 20
271.768
 11
58.5438
 21
271.942
  0
LINE
  8
0
 10
58.5438
 20
271.942
 11
58.4226
 21
272.133
  0
LINE
  8
0
 10
58.4226
 20
272.133
 11
58.3264
 21
272.337
  0
LINE
  8
0
 10
58.3264
 20
272.337
 11
58.2565
 21
272.552
  0
LINE
  8
0
 10
58.2565
 20
272.552
 11
58.2142
 21
272.774
  0
LINE
  8
0
 10
58.2142
 20
272.774
 11
58.2
 21
273
  0
LINE
  8
0
 10
58.2
 20
273
 11
58.2142
 21
273.226
  0
LINE
  8
0
 10
58.2142
 20
273.226
 11
58.2565
 21
273.448
  0
LINE
  8
0
 10
58.2565
 20
273.448
 11
58.3264
 21
273.663
  0
LINE
  8
0
 10
58.3264
 20
273.663
 11
58.4226
 21
273.867
  0
LINE
  8
0
 10
58.4226
 20
273.867
 11
58.5438
 21
274.058
  0
LINE
  8
0
 10
58.5438
 20
274.058
 11
58.6879
 21
274.232
  0
LINE
  8
0
 10
58.6879
 20
274.232
 11
58.8526
 21
274.387
  0
LINE
  8
0
 10
58.8526
 20
274.387
 11
59.0355
 21
274.52
  0
LINE
  8
0
 10
59.0355
 20
274.52
 11
59.2336
 21
274.629
  0
LINE
  8
0
 10
59.2336
 20
274.629
 11
59.4438
 21
274.712
  0
LINE
  8
0
 10
59.4438
 20
274.712
 11
59.6627
 21
274.768
  0
LINE
  8
0
 10
59.6627
 20
274.768
 11
59.887
 21
274.796
  0
LINE
  8
0
 10
59.887
 20
274.796
 11
60.113
 21
274.796
  0
LINE
  8
0
 10
60.113
 20
274.796
 11
60.3373
 21
274.768
  0
LINE
  8
0
 10
60.3373
 20
274.768
 11
60.5562
 21
274.712
  0
LINE
  8
0
 10
60.5562
 20
274.712
 11
60.7664
 21
274.629
  0
LINE
  8
0
 10
60.7664
 20
274.629
 11
60.9645
 21
274.52
  0
LINE
  8
0
 10
60.9645
 20
274.52
 11
61.1474
 21
274.387
  0
LINE
  8
0
 10
61.1474
 20
274.387
 11
61.3121
 21
274.232
  0
LINE
  8
0
 10
61.3121
 20
274.232
 11
61.4562
 21
274.058
  0
LINE
  8
0
 10
61.4562
 20
274.058
 11
61.5773
 21
273.867
  0
LINE
  8
0
 10
61.5773
 20
273.867
 11
61.6736
 21
273.663
  0
LINE
  8
0
 10
61.6736
 20
273.663
 11
61.7434
 21
273.448
  0
LINE
  8
0
 10
61.7434
 20
273.448
 11
61.7858
 21
273.226
  0
LINE
  8
0
 10
61.7858
 20
273.226
 11
61.8
 21
273
  0
LINE
  8
0
 10
61.8
 20
273
 11
61.7858
 21
272.774
  0
LINE
  8
0
 10
61.7858
 20
272.774
 11
61.7434
 21
272.552
  0
LINE
  8
0
 10
61.7434
 20
272.552
 11
61.6736
 21
272.337
  0
LINE
  8
0
 10
61.6736
 20
272.337
 11
61.5773
 21
272.133
  0
LINE
  8
0
 10
61.5773
 20
272.133
 11
61.4562
 21
271.942
  0
LINE
  8
0
 10
61.4562
 20
271.942
 11
61.3121
 21
271.768
  0
LINE
  8
0
 10
61.3121
 20
271.768
 11
61.1474
 21
271.613
  0
LINE
  8
0
 10
61.1474
 20
271.613
 11
60.9645
 21
271.48
  0
LINE
  8
0
 10
60.9645
 20
271.48
 11
60.7664
 21
271.371
  0
LINE
  8
0
 10
60.7664
 20
271.371
 11
60.5562
 21
271.288
  0
LINE
  8
0
 10
60.5562
 20
271.288
 11
60.3373
 21
271.232
  0
LINE
  8
0
 10
60.3373
 20
271.232
 11
60.113
 21
271.204
  0
LINE
  8
0
 10
60.113
 20
271.204
 11
59.887
 21
271.204
  0
LINE
  8
0
 10
-60.113
 20
271.204
 11
-60.3373
 21
271.232
  0
LINE
  8
0
 10
-60.3373
 20
271.232
 11
-60.5562
 21
271.288
  0
LINE
  8
0
 10
-60.5562
 20
271.288
 11
-60.7664
 21
271.371
  0
LINE
  8
0
 10
-60.7664
 20
271.371
 11
-60.9645
 21
271.48
  0
LINE
  8
0
 10
-60.9645
 20
271.48
 11
-61.1474
 21
271.613
  0
LINE
  8
0
 10
-61.1474
 20
271.613
 11
-61.3121
 21
271.768
  0
LINE
  8
0
 10
-61.3121
 20
271.768
 11
-61.4562
 21
271.942
  0
LINE
  8
0
 10
-61.4562
 20
271.942
 11
-61.5773
 21
272.133
  0
LINE
  8
0
 10
-61.5773
 20
272.133
 11
-61.6736
 21
272.337
  0
LINE
  8
0
 10
-61.6736
 20
272.337
 11
-61.7434
 21
272.552
  0
LINE
  8
0
 10
-61.7434
 20
272.552
 11
-61.7858
 21
272.774
  0
LINE
  8
0
 10
-61.7858
 20
272.774
 11
-61.8
 21
273
  0
LINE
  8
0
 10
-61.8
 20
273
 11
-61.7858
 21
273.226
  0
LINE
  8
0
 10
-61.7858
 20
273.226
 11
-61.7434
 21
273.448
  0
LINE
  8
0
 10
-61.7434
 20
273.448
 11
-61.6736
 21
273.663
  0
LINE
  8
0
 10
-61.6736
 20
273.663
 11
-61.5773
 21
273.867
  0
LINE
  8
0
 10
-61.5773
 20
273.867
 11
-61.4562
 21
274.058
  0
LINE
  8
0
 10
-61.4562
 20
274.058
 11
-61.3121
 21
274.232
  0
LINE
  8
0
 10
-61.3121
 20
274.232
 11
-61.1474
 21
274.387
  0
LINE
  8
0
 10
-61.1474
 20
274.387
 11
-60.9645
 21
274.52
  0
LINE
  8
0
 10
-60.9645
 20
274.52
 11
-60.7664
 21
274.629
  0
LINE
  8
0
 10
-60.7664
 20
274.629
 11
-60.5562
 21
274.712
  0
LINE
  8
0
 10
-60.5562
 20
274.712
 11
-60.3373
 21
274.768
  0
LINE
  8
0
 10
-60.3373
 20
274.768
 11
-60.113
 21
274.796
  0
LINE
  8
0
 10
-60.113
 20
274.796
 11
-59.887
 21
274.796
  0
LINE
  8
0
 10
-59.887
 20
274.796
 11
-59.6627
 21
274.768
  0
LINE
  8
0
 10
-59.6627
 20
274.768
 11
-59.4438
 21
274.712
  0
LINE
  8
0
 10
-59.4438
 20
274.712
 11
-59.2336
 21
274.629
  0
LINE
  8
0
 10
-59.2336
 20
274.629
 11
-59.0355
 21
274.52
  0
LINE
  8
0
 10
-59.0355
 20
274.52
 11
-58.8526
 21
274.387
  0
LINE
  8
0
 10
-58.8526
 20
274.387
 11
-58.6879
 21
274.232
  0
LINE
  8
0
 10
-58.6879
 20
274.232
 11
-58.5438
 21
274.058
  0
LINE
  8
0
 10
-58.5438
 20
274.058
 11
-58.4226
 21
273.867
  0
LINE
  8
0
 10
-58.4226
 20
273.867
 11
-58.3264
 21
273.663
  0
LINE
  8
0
 10
-58.3264
 20
273.663
 11
-58.2565
 21
273.448
  0
LINE
  8
0
 10
-58.2565
 20
273.448
 11
-58.2142
 21
273.226
  0
LINE
  8
0
 10
-58.2142
 20
273.226
 11
-58.2
 21
273
  0
LINE
  8
0
 10
-58.2
 20
273
 11
-58.2142
 21
272.774
  0
LINE
  8
0
 10
-58.2142
 20
272.774
 11
-58.2565
 21
272.552
  0
LINE
  8
0
 10
-58.2565
 20
272.552
 11
-58.3264
 21
272.337
  0
LINE
  8
0
 10
-58.3264
 20
272.337
 11
-58.4226
 21
272.133
  0
LINE
  8
0
 10
-58.4226
 20
272.133
 11
-58.5438
 21
271.942
  0
LINE
  8
0
 10
-58.5438
 20
271.942
 11
-58.6879
 21
271.768
  0
LINE
  8
0
 10
-58.6879
 20
271.768
 11
-58.8526
 21
271.613
  0
LINE
  8
0
 10
-58.8526
 20
271.613
 11
-59.0355
 21
271.48
  0
LINE
  8
0
 10
-59.0355
 20
271.48
 11
-59.2336
 21
271.371
  0
LINE
  8
0
 10
-59.2336
 20
271.371
 11
-59.4438
 21
271.288
  0
LINE
  8
0
 10
-59.4438
 20
271.288
 11
-59.6627
 21
271.232
  0
LINE
  8
0
 10
-59.6627
 20
271.232
 11
-59.887
 21
271.204
  0
LINE
  8
0
 10
-59.887
 20
271.204
 11
-60.113
 21
271.204
  0
LINE
  8
0
 10
-60.113
 20
181.204
 11
-60.3373
 21
181.232
  0
LINE
  8
0
 10
-60.3373
 20
181.232
 11
-60.5562
 21
181.288
  0
LINE
  8
0
 10
-60.5562
 20
181.288
 11
-60.7664
 21
181.371
  0
LINE
  8
0
 10
-60.7664
 20
181.371
 11
-60.9645
 21
181.48
  0
LINE
  8
0
 10
-60.9645
 20
181.48
 11
-61.1474
 21
181.613
  0
LINE
  8
0
 10
-61.1474
 20
181.613
 11
-61.3121
 21
181.768
  0
LINE
  8
0
 10
-61.3121
 20
181.768
 11
-61.4562
 21
181.942
  0
LINE
  8
0
 10
-61.4562
 20
181.942
 11
-61.5773
 21
182.133
  0
LINE
  8
0
 10
-61.5773
 20
182.133
 11
-61.6736
 21
182.337
  0
LINE
  8
0
 10
-61.6736
 20
182.337
 11
-61.7434
 21
182.552
  0
LINE
  8
0
 10
-61.7434
 20
182.552
 11
-61.7858
 21
182.774
  0
LINE
  8
0
 10
-61.7858
 20
182.774
 11
-61.8
 21
183
  0
LINE
  8
0
 10
-61.8
 20
183
 11
-61.7858
 21
183.226
  0
LINE
  8
0
 10
-61.7858
 20
183.226
 11
-61.7434
 21
183.448
  0
LINE
  8
0
 10
-61.7434
 20
183.448
 11
-61.6736
 21
183.663
  0
LINE
  8
0
 10
-61.6736
 20
183.663
 11
-61.5773
 21
183.867
  0
LINE
  8
0
 10
-61.5773
 20
183.867
 11
-61.4562
 21
184.058
  0
LINE
  8
0
 10
-61.4562
 20
184.058
 11
-61.3121
 21
184.232
  0
LINE
  8
0
 10
-61.3121
 20
184.232
 11
-61.1474
 21
184.387
  0
LINE
  8
0
 10
-61.1474
 20
184.387
 11
-60.9645
 21
184.52
  0
LINE
  8
0
 10
-60.9645
 20
184.52
 11
-60.7664
 21
184.629
  0
LINE
  8
0
 10
-60.7664
 20
184.629
 11
-60.5562
 21
184.712
  0
LINE
  8
0
 10
-60.5562
 20
184.712
 11
-60.3373
 21
184.768
  0
LINE
  8
0
 10
-60.3373
 20
184.768
 11
-60.113
 21
184.796
  0
LINE
  8
0
 10
-60.113
 20
184.796
 11
-59.887
 21
184.796
  0
LINE
  8
0
 10
-59.887
 20
184.796
 11
-59.6627
 21
184.768
  0
LINE
  8
0
 10
-59.6627
 20
184.768
 11
-59.4438
 21
184.712
  0
LINE
  8
0
 10
-59.4438
 20
184.712
 11
-59.2336
 21
184.629
  0
LINE
  8
0
 10
-59.2336
 20
184.629
 11
-59.0355
 21
184.52
  0
LINE
  8
0
 10
-59.0355
 20
184.52
 11
-58.8526
 21
184.387
  0
LINE
  8
0
 10
-58.8526
 20
184.387
 11
-58.6879
 21
184.232
  0
LINE
  8
0
 10
-58.6879
 20
184.232
 11
-58.5438
 21
184.058
  0
LINE
  8
0
 10
-58.5438
 20
184.058
 11
-58.4226
 21
183.867
  0
LINE
  8
0
 10
-58.4226
 20
183.867
 11
-58.3264
 21
183.663
  0
LINE
  8
0
 10
-58.3264
 20
183.663
 11
-58.2565
 21
183.448
  0
LINE
  8
0
 10
-58.2565
 20
183.448
 11
-58.2142
 21
183.226
  0
LINE
  8
0
 10
-58.2142
 20
183.226
 11
-58.2
 21
183
  0
LINE
  8
0
 10
-58.2
 20
183
 11
-58.2142
 21
182.774
  0
LINE
  8
0
 10
-58.2142
 20
182.774
 11
-58.2565
 21
182.552
  0
LINE
  8
0
 10
-58.2565
 20
182.552
 11
-58.3264
 21
182.337
  0
LINE
  8
0
 10
-58.3264
 20
182.337
 11
-58.4226
 21
182.133
  0
LINE
  8
0
 10
-58.4226
 20
182.133
 11
-58.5438
 21
181.942
  0
LINE
  8
0
 10
-58.5438
 20
181.942
 11
-58.6879
 21
181.768
  0
LINE
  8
0
 10
-58.6879
 20
181.768
 11
-58.8526
 21
181.613
  0
LINE
  8
0
 10
-58.8526
 20
181.613
 11
-59.0355
 21
181.48
  0
LINE
  8
0
 10
-59.0355
 20
181.48
 11
-59.2336
 21
181.371
  0
LINE
  8
0
 10
-59.2336
 20
181.371
 11
-59.4438
 21
181.288
  0
LINE
  8
0
 10
-59.4438
 20
181.288
 11
-59.6627
 21
181.232
  0
LINE
  8
0
 10
-59.6627
 20
181.232
 11
-59.887
 21
181.204
  0
LINE
  8
0
 10
-59.887
 20
181.204
 11
-60.113
 21
181.204
  0
LINE
  8
0
 10
59.887
 20
181.204
 11
59.6627
 21
181.232
  0
LINE
  8
0
 10
59.6627
 20
181.232
 11
59.4438
 21
181.288
  0
LINE
  8
0
 10
59.4438
 20
181.288
 11
59.2336
 21
181.371
  0
LINE
  8
0
 10
59.2336
 20
181.371
 11
59.0355
 21
181.48
  0
LINE
  8
0
 10
59.0355
 20
181.48
 11
58.8526
 21
181.613
  0
LINE
  8
0
 10
58.8526
 20
181.613
 11
58.6879
 21
181.768
  0
LINE
  8
0
 10
58.6879
 20
181.768
 11
58.5438
 21
181.942
  0
LINE
  8
0
 10
58.5438
 20
181.942
 11
58.4226
 21
182.133
  0
LINE
  8
0
 10
58.4226
 20
182.133
 11
58.3264
 21
182.337
  0
LINE
  8
0
 10
58.3264
 20
182.337
 11
58.2565
 21
182.552
  0
LINE
  8
0
 10
58.2565
 20
182.552
 11
58.2142
 21
182.774
  0
LINE
  8
0
 10
58.2142
 20
182.774
 11
58.2
 21
183
  0
LINE
  8
0
 10
58.2
 20
183
 11
58.2142
 21
183.226
  0
LINE
  8
0
 10
58.2142
 20
183.226
 11
58.2565
 21
183.448
  0
LINE
  8
0
 10
58.2565
 20
183.448
 11
58.3264
 21
183.663
  0
LINE
  8
0
 10
58.3264
 20
183.663
 11
58.4226
 21
183.867
  0
LINE
  8
0
 10
58.4226
 20
183.867
 11
58.5438
 21
184.058
  0
LINE
  8
0
 10
58.5438
 20
184.058
 11
58.6879
 21
184.232
  0
LINE
  8
0
 10
58.6879
 20
184.232
 11
58.8526
 21
184.387
  0
LINE
  8
0
 10
58.8526
 20
184.387
 11
59.0355
 21
184.52
  0
LINE
  8
0
 10
59.0355
 20
184.52
 11
59.2336
 21
184.629
  0
LINE
  8
0
 10
59.2336
 20
184.629
 11
59.4438
 21
184.712
  0
LINE
  8
0
 10
59.4438
 20
184.712
 11
59.6627
 21
184.768
  0
LINE
  8
0
 10
59.6627
 20
184.768
 11
59.887
 21
184.796
  0
LINE
  8
0
 10
59.887
 20
184.796
 11
60.113
 21
184.796
  0
LINE
  8
0
 10
60.113
 20
184.796
 11
60.3373
 21
184.768
  0
LINE
  8
0
 10
60.3373
 20
184.768
 11
60.5562
 21
184.712
  0
LINE
  8
0
 10
60.5562
 20
184.712
 11
60.7664
 21
184.629
  0
LINE
  8
0
 10
60.7664
 20
184.629
 11
60.9645
 21
184.52
  0
LINE
  8
0
 10
60.9645
 20
184.52
 11
61.1474
 21
184.387
  0
LINE
  8
0
 10
61.1474
 20
184.387
 11
61.3121
 21
184.232
  0
LINE
  8
0
 10
61.3121
 20
184.232
 11
61.4562
 21
184.058
  0
LINE
  8
0
 10
61.4562
 20
184.058
 11
61.5773
 21
183.867
  0
LINE
  8
0
 10
61.5773
 20
183.867
 11
61.6736
 21
183.663
  0
LINE
  8
0
 10
61.6736
 20
183.663
 11
61.7434
 21
183.448
  0
LINE
  8
0
 10
61.7434
 20
183.448
 11
61.7858
 21
183.226
  0
LINE
  8
0
 10
61.7858
 20
183.226
 11
61.8
 21
183
  0
LINE
  8
0
 10
61.8
 20
183
 11
61.7858
 21
182.774
  0
LINE
  8
0
 10
61.7858
 20
182.774
 11
61.7434
 21
182.552
  0
LINE
  8
0
 10
61.7434
 20
182.552
 11
61.6736
 21
182.337
  0
LINE
  8
0
 10
61.6736
 20
182.337
 11
61.5773
 21
182.133
  0
LINE
  8
0
 10
61.5773
 20
182.133
 11
61.4562
 21
181.942
  0
LINE
  8
0
 10
61.4562
 20
181.942
 11
61.3121
 21
181.768
  0
LINE
  8
0
 10
61.3121
 20
181.768
 11
61.1474
 21
181.613
  0
LINE
  8
0
 10
61.1474
 20
181.613
 11
60.9645
 21
181.48
  0
LINE
  8
0
 10
60.9645
 20
181.48
 11
60.7664
 21
181.371
  0
LINE
  8
0
 10
60.7664
 20
181.371
 11
60.5562
 21
181.288
  0
LINE
  8
0
 10
60.5562
 20
181.288
 11
60.3373
 21
181.232
  0
LINE
  8
0
 10
60.3373
 20
181.232
 11
60.113
 21
181.204
  0
LINE
  8
0
 10
60.113
 20
181.204
 11
59.887
 21
181.204
  0
ENDSEC
  0
SECTION
  2
OBJECTS
  0
DICTIONARY
  0
ENDSEC
  0
EOF
