  0
SECTION
  2
BLOCKS
  0
ENDSEC
  0
SECTION
  2
ENTITIES
  0
LINE
  8
0
 10
63.4369
 20
940.589
 11
64.0451
 21
940.745
  0
LINE
  8
0
 10
64.0451
 20
940.745
 11
64.6289
 21
940.976
  0
LINE
  8
0
 10
64.6289
 20
940.976
 11
65.1791
 21
941.278
  0
LINE
  8
0
 10
65.1791
 20
941.278
 11
65.6871
 21
941.647
  0
LINE
  8
0
 10
65.6871
 20
941.647
 11
66.1448
 21
942.077
  0
LINE
  8
0
 10
66.1448
 20
942.077
 11
66.5451
 21
942.561
  0
LINE
  8
0
 10
66.5451
 20
942.561
 11
66.8815
 21
943.091
  0
LINE
  8
0
 10
66.8815
 20
943.091
 11
67.1489
 21
943.659
  0
LINE
  8
0
 10
67.1489
 20
943.659
 11
67.3429
 21
944.257
  0
LINE
  8
0
 10
67.3429
 20
944.257
 11
67.4606
 21
944.873
  0
LINE
  8
0
 10
67.4606
 20
944.873
 11
67.5
 21
945.5
  0
LINE
  8
0
 10
67.5
 20
945.5
 11
67.5
 21
1070.5
  0
LINE
  8
0
 10
67.5
 20
1070.5
 11
67.4606
 21
1071.13
  0
LINE
  8
0
 10
67.4606
 20
1071.13
 11
67.3429
 21
1071.74
  0
LINE
  8
0
 10
67.3429
 20
1071.74
 11
67.1489
 21
1072.34
  0
LINE
  8
0
 10
67.1489
 20
1072.34
 11
66.8815
 21
1072.91
  0
LINE
  8
0
 10
66.8815
 20
1072.91
 11
66.5451
 21
1073.44
  0
LINE
  8
0
 10
66.5451
 20
1073.44
 11
66.1448
 21
1073.92
  0
LINE
  8
0
 10
66.1448
 20
1073.92
 11
65.6871
 21
1074.35
  0
LINE
  8
0
 10
65.6871
 20
1074.35
 11
65.1791
 21
1074.72
  0
LINE
  8
0
 10
65.1791
 20
1074.72
 11
64.6289
 21
1075.02
  0
LINE
  8
0
 10
64.6289
 20
1075.02
 11
64.0451
 21
1075.26
  0
LINE
  8
0
 10
64.0451
 20
1075.26
 11
63.4369
 21
1075.41
  0
LINE
  8
0
 10
63.4369
 20
1075.41
 11
62.8139
 21
1075.49
  0
LINE
  8
0
 10
62.8139
 20
1075.49
 11
-62.8139
 21
1075.49
  0
LINE
  8
0
 10
-62.8139
 20
1075.49
 11
-63.4369
 21
1075.41
  0
LINE
  8
0
 10
-63.4369
 20
1075.41
 11
-64.0451
 21
1075.26
  0
LINE
  8
0
 10
-64.0451
 20
1075.26
 11
-64.6289
 21
1075.02
  0
LINE
  8
0
 10
-64.6289
 20
1075.02
 11
-65.1791
 21
1074.72
  0
LINE
  8
0
 10
-65.1791
 20
1074.72
 11
-65.6871
 21
1074.35
  0
LINE
  8
0
 10
-65.6871
 20
1074.35
 11
-66.1448
 21
1073.92
  0
LINE
  8
0
 10
-66.1448
 20
1073.92
 11
-66.5451
 21
1073.44
  0
LINE
  8
0
 10
-66.5451
 20
1073.44
 11
-66.8815
 21
1072.91
  0
LINE
  8
0
 10
-66.8815
 20
1072.91
 11
-67.1489
 21
1072.34
  0
LINE
  8
0
 10
-67.1489
 20
1072.34
 11
-67.3429
 21
1071.74
  0
LINE
  8
0
 10
-67.3429
 20
1071.74
 11
-67.4606
 21
1071.13
  0
LINE
  8
0
 10
-67.4606
 20
1071.13
 11
-67.5
 21
1070.5
  0
LINE
  8
0
 10
-67.5
 20
1070.5
 11
-67.5
 21
945.5
  0
LINE
  8
0
 10
-67.5
 20
945.5
 11
-67.4606
 21
944.873
  0
LINE
  8
0
 10
-67.4606
 20
944.873
 11
-67.3429
 21
944.257
  0
LINE
  8
0
 10
-67.3429
 20
944.257
 11
-67.1489
 21
943.659
  0
LINE
  8
0
 10
-67.1489
 20
943.659
 11
-66.8815
 21
943.091
  0
LINE
  8
0
 10
-66.8815
 20
943.091
 11
-66.5451
 21
942.561
  0
LINE
  8
0
 10
-66.5451
 20
942.561
 11
-66.1448
 21
942.077
  0
LINE
  8
0
 10
-66.1448
 20
942.077
 11
-65.6871
 21
941.647
  0
LINE
  8
0
 10
-65.6871
 20
941.647
 11
-65.1791
 21
941.278
  0
LINE
  8
0
 10
-65.1791
 20
941.278
 11
-64.6289
 21
940.976
  0
LINE
  8
0
 10
-64.6289
 20
940.976
 11
-64.0451
 21
940.745
  0
LINE
  8
0
 10
-64.0451
 20
940.745
 11
-63.4369
 21
940.589
  0
LINE
  8
0
 10
-63.4369
 20
940.589
 11
-62.8139
 21
940.51
  0
LINE
  8
0
 10
-62.8139
 20
940.51
 11
62.8139
 21
940.51
  0
LINE
  8
0
 10
62.8139
 20
940.51
 11
63.4369
 21
940.589
  0
LINE
  8
0
 10
-62.5482
 20
941.009
 11
-63.1401
 21
941.084
  0
LINE
  8
0
 10
-63.1401
 20
941.084
 11
-63.7178
 21
941.232
  0
LINE
  8
0
 10
-63.7178
 20
941.232
 11
-64.2724
 21
941.452
  0
LINE
  8
0
 10
-64.2724
 20
941.452
 11
-64.7952
 21
941.739
  0
LINE
  8
0
 10
-64.7952
 20
941.739
 11
-65.2778
 21
942.09
  0
LINE
  8
0
 10
-65.2778
 20
942.09
 11
-65.7126
 21
942.498
  0
LINE
  8
0
 10
-65.7126
 20
942.498
 11
-66.0928
 21
942.958
  0
LINE
  8
0
 10
-66.0928
 20
942.958
 11
-66.4125
 21
943.462
  0
LINE
  8
0
 10
-66.4125
 20
943.462
 11
-66.6664
 21
944.001
  0
LINE
  8
0
 10
-66.6664
 20
944.001
 11
-66.8508
 21
944.569
  0
LINE
  8
0
 10
-66.8508
 20
944.569
 11
-66.9625
 21
945.155
  0
LINE
  8
0
 10
-66.9625
 20
945.155
 11
-67
 21
945.75
  0
LINE
  8
0
 10
-67
 20
945.75
 11
-67
 21
1070.25
  0
LINE
  8
0
 10
-67
 20
1070.25
 11
-66.9625
 21
1070.85
  0
LINE
  8
0
 10
-66.9625
 20
1070.85
 11
-66.8508
 21
1071.43
  0
LINE
  8
0
 10
-66.8508
 20
1071.43
 11
-66.6664
 21
1072
  0
LINE
  8
0
 10
-66.6664
 20
1072
 11
-66.4125
 21
1072.54
  0
LINE
  8
0
 10
-66.4125
 20
1072.54
 11
-66.0928
 21
1073.04
  0
LINE
  8
0
 10
-66.0928
 20
1073.04
 11
-65.7126
 21
1073.5
  0
LINE
  8
0
 10
-65.7126
 20
1073.5
 11
-65.2778
 21
1073.91
  0
LINE
  8
0
 10
-65.2778
 20
1073.91
 11
-64.7952
 21
1074.26
  0
LINE
  8
0
 10
-64.7952
 20
1074.26
 11
-64.2724
 21
1074.55
  0
LINE
  8
0
 10
-64.2724
 20
1074.55
 11
-63.7178
 21
1074.77
  0
LINE
  8
0
 10
-63.7178
 20
1074.77
 11
-63.1401
 21
1074.92
  0
LINE
  8
0
 10
-63.1401
 20
1074.92
 11
-62.5482
 21
1074.99
  0
LINE
  8
0
 10
-62.5482
 20
1074.99
 11
62.5482
 21
1074.99
  0
LINE
  8
0
 10
62.5482
 20
1074.99
 11
63.1401
 21
1074.92
  0
LINE
  8
0
 10
63.1401
 20
1074.92
 11
63.7178
 21
1074.77
  0
LINE
  8
0
 10
63.7178
 20
1074.77
 11
64.2724
 21
1074.55
  0
LINE
  8
0
 10
64.2724
 20
1074.55
 11
64.7952
 21
1074.26
  0
LINE
  8
0
 10
64.7952
 20
1074.26
 11
65.2778
 21
1073.91
  0
LINE
  8
0
 10
65.2778
 20
1073.91
 11
65.7126
 21
1073.5
  0
LINE
  8
0
 10
65.7126
 20
1073.5
 11
66.0928
 21
1073.04
  0
LINE
  8
0
 10
66.0928
 20
1073.04
 11
66.4125
 21
1072.54
  0
LINE
  8
0
 10
66.4125
 20
1072.54
 11
66.6664
 21
1072
  0
LINE
  8
0
 10
66.6664
 20
1072
 11
66.8508
 21
1071.43
  0
LINE
  8
0
 10
66.8508
 20
1071.43
 11
66.9625
 21
1070.85
  0
LINE
  8
0
 10
66.9625
 20
1070.85
 11
67
 21
1070.25
  0
LINE
  8
0
 10
67
 20
1070.25
 11
67
 21
945.75
  0
LINE
  8
0
 10
67
 20
945.75
 11
66.9625
 21
945.155
  0
LINE
  8
0
 10
66.9625
 20
945.155
 11
66.8508
 21
944.569
  0
LINE
  8
0
 10
66.8508
 20
944.569
 11
66.6664
 21
944.001
  0
LINE
  8
0
 10
66.6664
 20
944.001
 11
66.4125
 21
943.462
  0
LINE
  8
0
 10
66.4125
 20
943.462
 11
66.0928
 21
942.958
  0
LINE
  8
0
 10
66.0928
 20
942.958
 11
65.7126
 21
942.498
  0
LINE
  8
0
 10
65.7126
 20
942.498
 11
65.2778
 21
942.09
  0
LINE
  8
0
 10
65.2778
 20
942.09
 11
64.7952
 21
941.739
  0
LINE
  8
0
 10
64.7952
 20
941.739
 11
64.2724
 21
941.452
  0
LINE
  8
0
 10
64.2724
 20
941.452
 11
63.7178
 21
941.232
  0
LINE
  8
0
 10
63.7178
 20
941.232
 11
63.1401
 21
941.084
  0
LINE
  8
0
 10
63.1401
 20
941.084
 11
62.5482
 21
941.009
  0
LINE
  8
0
 10
62.5482
 20
941.009
 11
-62.5482
 21
941.009
  0
LINE
  8
0
 10
63.4369
 20
796.589
 11
64.0451
 21
796.745
  0
LINE
  8
0
 10
64.0451
 20
796.745
 11
64.6289
 21
796.976
  0
LINE
  8
0
 10
64.6289
 20
796.976
 11
65.1791
 21
797.278
  0
LINE
  8
0
 10
65.1791
 20
797.278
 11
65.6871
 21
797.647
  0
LINE
  8
0
 10
65.6871
 20
797.647
 11
66.1448
 21
798.077
  0
LINE
  8
0
 10
66.1448
 20
798.077
 11
66.5451
 21
798.561
  0
LINE
  8
0
 10
66.5451
 20
798.561
 11
66.8815
 21
799.091
  0
LINE
  8
0
 10
66.8815
 20
799.091
 11
67.1489
 21
799.659
  0
LINE
  8
0
 10
67.1489
 20
799.659
 11
67.3429
 21
800.257
  0
LINE
  8
0
 10
67.3429
 20
800.257
 11
67.4606
 21
800.873
  0
LINE
  8
0
 10
67.4606
 20
800.873
 11
67.5
 21
801.5
  0
LINE
  8
0
 10
67.5
 20
801.5
 11
67.5
 21
926.5
  0
LINE
  8
0
 10
67.5
 20
926.5
 11
67.4606
 21
927.127
  0
LINE
  8
0
 10
67.4606
 20
927.127
 11
67.3429
 21
927.743
  0
LINE
  8
0
 10
67.3429
 20
927.743
 11
67.1489
 21
928.341
  0
LINE
  8
0
 10
67.1489
 20
928.341
 11
66.8815
 21
928.909
  0
LINE
  8
0
 10
66.8815
 20
928.909
 11
66.5451
 21
929.439
  0
LINE
  8
0
 10
66.5451
 20
929.439
 11
66.1448
 21
929.923
  0
LINE
  8
0
 10
66.1448
 20
929.923
 11
65.6871
 21
930.353
  0
LINE
  8
0
 10
65.6871
 20
930.353
 11
65.1791
 21
930.722
  0
LINE
  8
0
 10
65.1791
 20
930.722
 11
64.6289
 21
931.024
  0
LINE
  8
0
 10
64.6289
 20
931.024
 11
64.0451
 21
931.255
  0
LINE
  8
0
 10
64.0451
 20
931.255
 11
63.4369
 21
931.411
  0
LINE
  8
0
 10
63.4369
 20
931.411
 11
62.8139
 21
931.49
  0
LINE
  8
0
 10
62.8139
 20
931.49
 11
-62.8139
 21
931.49
  0
LINE
  8
0
 10
-62.8139
 20
931.49
 11
-63.4369
 21
931.411
  0
LINE
  8
0
 10
-63.4369
 20
931.411
 11
-64.0451
 21
931.255
  0
LINE
  8
0
 10
-64.0451
 20
931.255
 11
-64.6289
 21
931.024
  0
LINE
  8
0
 10
-64.6289
 20
931.024
 11
-65.1791
 21
930.722
  0
LINE
  8
0
 10
-65.1791
 20
930.722
 11
-65.6871
 21
930.353
  0
LINE
  8
0
 10
-65.6871
 20
930.353
 11
-66.1448
 21
929.923
  0
LINE
  8
0
 10
-66.1448
 20
929.923
 11
-66.5451
 21
929.439
  0
LINE
  8
0
 10
-66.5451
 20
929.439
 11
-66.8815
 21
928.909
  0
LINE
  8
0
 10
-66.8815
 20
928.909
 11
-67.1489
 21
928.341
  0
LINE
  8
0
 10
-67.1489
 20
928.341
 11
-67.3429
 21
927.743
  0
LINE
  8
0
 10
-67.3429
 20
927.743
 11
-67.4606
 21
927.127
  0
LINE
  8
0
 10
-67.4606
 20
927.127
 11
-67.5
 21
926.5
  0
LINE
  8
0
 10
-67.5
 20
926.5
 11
-67.5
 21
801.5
  0
LINE
  8
0
 10
-67.5
 20
801.5
 11
-67.4606
 21
800.873
  0
LINE
  8
0
 10
-67.4606
 20
800.873
 11
-67.3429
 21
800.257
  0
LINE
  8
0
 10
-67.3429
 20
800.257
 11
-67.1489
 21
799.659
  0
LINE
  8
0
 10
-67.1489
 20
799.659
 11
-66.8815
 21
799.091
  0
LINE
  8
0
 10
-66.8815
 20
799.091
 11
-66.5451
 21
798.561
  0
LINE
  8
0
 10
-66.5451
 20
798.561
 11
-66.1448
 21
798.077
  0
LINE
  8
0
 10
-66.1448
 20
798.077
 11
-65.6871
 21
797.647
  0
LINE
  8
0
 10
-65.6871
 20
797.647
 11
-65.1791
 21
797.278
  0
LINE
  8
0
 10
-65.1791
 20
797.278
 11
-64.6289
 21
796.976
  0
LINE
  8
0
 10
-64.6289
 20
796.976
 11
-64.0451
 21
796.745
  0
LINE
  8
0
 10
-64.0451
 20
796.745
 11
-63.4369
 21
796.589
  0
LINE
  8
0
 10
-63.4369
 20
796.589
 11
-62.8139
 21
796.51
  0
LINE
  8
0
 10
-62.8139
 20
796.51
 11
62.8139
 21
796.51
  0
LINE
  8
0
 10
62.8139
 20
796.51
 11
63.4369
 21
796.589
  0
LINE
  8
0
 10
-62.5482
 20
797.009
 11
-63.1401
 21
797.084
  0
LINE
  8
0
 10
-63.1401
 20
797.084
 11
-63.7178
 21
797.232
  0
LINE
  8
0
 10
-63.7178
 20
797.232
 11
-64.2724
 21
797.452
  0
LINE
  8
0
 10
-64.2724
 20
797.452
 11
-64.7952
 21
797.739
  0
LINE
  8
0
 10
-64.7952
 20
797.739
 11
-65.2778
 21
798.09
  0
LINE
  8
0
 10
-65.2778
 20
798.09
 11
-65.7126
 21
798.498
  0
LINE
  8
0
 10
-65.7126
 20
798.498
 11
-66.0928
 21
798.958
  0
LINE
  8
0
 10
-66.0928
 20
798.958
 11
-66.4125
 21
799.462
  0
LINE
  8
0
 10
-66.4125
 20
799.462
 11
-66.6664
 21
800.001
  0
LINE
  8
0
 10
-66.6664
 20
800.001
 11
-66.8508
 21
800.569
  0
LINE
  8
0
 10
-66.8508
 20
800.569
 11
-66.9625
 21
801.155
  0
LINE
  8
0
 10
-66.9625
 20
801.155
 11
-67
 21
801.75
  0
LINE
  8
0
 10
-67
 20
801.75
 11
-67
 21
926.25
  0
LINE
  8
0
 10
-67
 20
926.25
 11
-66.9625
 21
926.845
  0
LINE
  8
0
 10
-66.9625
 20
926.845
 11
-66.8508
 21
927.431
  0
LINE
  8
0
 10
-66.8508
 20
927.431
 11
-66.6664
 21
927.999
  0
LINE
  8
0
 10
-66.6664
 20
927.999
 11
-66.4125
 21
928.538
  0
LINE
  8
0
 10
-66.4125
 20
928.538
 11
-66.0928
 21
929.042
  0
LINE
  8
0
 10
-66.0928
 20
929.042
 11
-65.7126
 21
929.502
  0
LINE
  8
0
 10
-65.7126
 20
929.502
 11
-65.2778
 21
929.91
  0
LINE
  8
0
 10
-65.2778
 20
929.91
 11
-64.7952
 21
930.261
  0
LINE
  8
0
 10
-64.7952
 20
930.261
 11
-64.2724
 21
930.548
  0
LINE
  8
0
 10
-64.2724
 20
930.548
 11
-63.7178
 21
930.768
  0
LINE
  8
0
 10
-63.7178
 20
930.768
 11
-63.1401
 21
930.916
  0
LINE
  8
0
 10
-63.1401
 20
930.916
 11
-62.5482
 21
930.991
  0
LINE
  8
0
 10
-62.5482
 20
930.991
 11
62.5482
 21
930.991
  0
LINE
  8
0
 10
62.5482
 20
930.991
 11
63.1401
 21
930.916
  0
LINE
  8
0
 10
63.1401
 20
930.916
 11
63.7178
 21
930.768
  0
LINE
  8
0
 10
63.7178
 20
930.768
 11
64.2724
 21
930.548
  0
LINE
  8
0
 10
64.2724
 20
930.548
 11
64.7952
 21
930.261
  0
LINE
  8
0
 10
64.7952
 20
930.261
 11
65.2778
 21
929.91
  0
LINE
  8
0
 10
65.2778
 20
929.91
 11
65.7126
 21
929.502
  0
LINE
  8
0
 10
65.7126
 20
929.502
 11
66.0928
 21
929.042
  0
LINE
  8
0
 10
66.0928
 20
929.042
 11
66.4125
 21
928.538
  0
LINE
  8
0
 10
66.4125
 20
928.538
 11
66.6664
 21
927.999
  0
LINE
  8
0
 10
66.6664
 20
927.999
 11
66.8508
 21
927.431
  0
LINE
  8
0
 10
66.8508
 20
927.431
 11
66.9625
 21
926.845
  0
LINE
  8
0
 10
66.9625
 20
926.845
 11
67
 21
926.25
  0
LINE
  8
0
 10
67
 20
926.25
 11
67
 21
801.75
  0
LINE
  8
0
 10
67
 20
801.75
 11
66.9625
 21
801.155
  0
LINE
  8
0
 10
66.9625
 20
801.155
 11
66.8508
 21
800.569
  0
LINE
  8
0
 10
66.8508
 20
800.569
 11
66.6664
 21
800.001
  0
LINE
  8
0
 10
66.6664
 20
800.001
 11
66.4125
 21
799.462
  0
LINE
  8
0
 10
66.4125
 20
799.462
 11
66.0928
 21
798.958
  0
LINE
  8
0
 10
66.0928
 20
798.958
 11
65.7126
 21
798.498
  0
LINE
  8
0
 10
65.7126
 20
798.498
 11
65.2778
 21
798.09
  0
LINE
  8
0
 10
65.2778
 20
798.09
 11
64.7952
 21
797.739
  0
LINE
  8
0
 10
64.7952
 20
797.739
 11
64.2724
 21
797.452
  0
LINE
  8
0
 10
64.2724
 20
797.452
 11
63.7178
 21
797.232
  0
LINE
  8
0
 10
63.7178
 20
797.232
 11
63.1401
 21
797.084
  0
LINE
  8
0
 10
63.1401
 20
797.084
 11
62.5482
 21
797.009
  0
LINE
  8
0
 10
62.5482
 20
797.009
 11
-62.5482
 21
797.009
  0
LINE
  8
0
 10
63.4369
 20
652.589
 11
64.0451
 21
652.745
  0
LINE
  8
0
 10
64.0451
 20
652.745
 11
64.6289
 21
652.976
  0
LINE
  8
0
 10
64.6289
 20
652.976
 11
65.1791
 21
653.278
  0
LINE
  8
0
 10
65.1791
 20
653.278
 11
65.6871
 21
653.647
  0
LINE
  8
0
 10
65.6871
 20
653.647
 11
66.1448
 21
654.077
  0
LINE
  8
0
 10
66.1448
 20
654.077
 11
66.5451
 21
654.561
  0
LINE
  8
0
 10
66.5451
 20
654.561
 11
66.8815
 21
655.091
  0
LINE
  8
0
 10
66.8815
 20
655.091
 11
67.1489
 21
655.659
  0
LINE
  8
0
 10
67.1489
 20
655.659
 11
67.3429
 21
656.257
  0
LINE
  8
0
 10
67.3429
 20
656.257
 11
67.4606
 21
656.873
  0
LINE
  8
0
 10
67.4606
 20
656.873
 11
67.5
 21
657.5
  0
LINE
  8
0
 10
67.5
 20
657.5
 11
67.5
 21
782.5
  0
LINE
  8
0
 10
67.5
 20
782.5
 11
67.4606
 21
783.127
  0
LINE
  8
0
 10
67.4606
 20
783.127
 11
67.3429
 21
783.743
  0
LINE
  8
0
 10
67.3429
 20
783.743
 11
67.1489
 21
784.341
  0
LINE
  8
0
 10
67.1489
 20
784.341
 11
66.8815
 21
784.909
  0
LINE
  8
0
 10
66.8815
 20
784.909
 11
66.5451
 21
785.439
  0
LINE
  8
0
 10
66.5451
 20
785.439
 11
66.1448
 21
785.923
  0
LINE
  8
0
 10
66.1448
 20
785.923
 11
65.6871
 21
786.353
  0
LINE
  8
0
 10
65.6871
 20
786.353
 11
65.1791
 21
786.722
  0
LINE
  8
0
 10
65.1791
 20
786.722
 11
64.6289
 21
787.024
  0
LINE
  8
0
 10
64.6289
 20
787.024
 11
64.0451
 21
787.255
  0
LINE
  8
0
 10
64.0451
 20
787.255
 11
63.4369
 21
787.411
  0
LINE
  8
0
 10
63.4369
 20
787.411
 11
62.8139
 21
787.49
  0
LINE
  8
0
 10
62.8139
 20
787.49
 11
-62.8139
 21
787.49
  0
LINE
  8
0
 10
-62.8139
 20
787.49
 11
-63.4369
 21
787.411
  0
LINE
  8
0
 10
-63.4369
 20
787.411
 11
-64.0451
 21
787.255
  0
LINE
  8
0
 10
-64.0451
 20
787.255
 11
-64.6289
 21
787.024
  0
LINE
  8
0
 10
-64.6289
 20
787.024
 11
-65.1791
 21
786.722
  0
LINE
  8
0
 10
-65.1791
 20
786.722
 11
-65.6871
 21
786.353
  0
LINE
  8
0
 10
-65.6871
 20
786.353
 11
-66.1448
 21
785.923
  0
LINE
  8
0
 10
-66.1448
 20
785.923
 11
-66.5451
 21
785.439
  0
LINE
  8
0
 10
-66.5451
 20
785.439
 11
-66.8815
 21
784.909
  0
LINE
  8
0
 10
-66.8815
 20
784.909
 11
-67.1489
 21
784.341
  0
LINE
  8
0
 10
-67.1489
 20
784.341
 11
-67.3429
 21
783.743
  0
LINE
  8
0
 10
-67.3429
 20
783.743
 11
-67.4606
 21
783.127
  0
LINE
  8
0
 10
-67.4606
 20
783.127
 11
-67.5
 21
782.5
  0
LINE
  8
0
 10
-67.5
 20
782.5
 11
-67.5
 21
657.5
  0
LINE
  8
0
 10
-67.5
 20
657.5
 11
-67.4606
 21
656.873
  0
LINE
  8
0
 10
-67.4606
 20
656.873
 11
-67.3429
 21
656.257
  0
LINE
  8
0
 10
-67.3429
 20
656.257
 11
-67.1489
 21
655.659
  0
LINE
  8
0
 10
-67.1489
 20
655.659
 11
-66.8815
 21
655.091
  0
LINE
  8
0
 10
-66.8815
 20
655.091
 11
-66.5451
 21
654.561
  0
LINE
  8
0
 10
-66.5451
 20
654.561
 11
-66.1448
 21
654.077
  0
LINE
  8
0
 10
-66.1448
 20
654.077
 11
-65.6871
 21
653.647
  0
LINE
  8
0
 10
-65.6871
 20
653.647
 11
-65.1791
 21
653.278
  0
LINE
  8
0
 10
-65.1791
 20
653.278
 11
-64.6289
 21
652.976
  0
LINE
  8
0
 10
-64.6289
 20
652.976
 11
-64.0451
 21
652.745
  0
LINE
  8
0
 10
-64.0451
 20
652.745
 11
-63.4369
 21
652.589
  0
LINE
  8
0
 10
-63.4369
 20
652.589
 11
-62.8139
 21
652.51
  0
LINE
  8
0
 10
-62.8139
 20
652.51
 11
62.8139
 21
652.51
  0
LINE
  8
0
 10
62.8139
 20
652.51
 11
63.4369
 21
652.589
  0
LINE
  8
0
 10
-62.5375
 20
653.181
 11
-63.1079
 21
653.253
  0
LINE
  8
0
 10
-63.1079
 20
653.253
 11
-63.6648
 21
653.396
  0
LINE
  8
0
 10
-63.6648
 20
653.396
 11
-64.1994
 21
653.607
  0
LINE
  8
0
 10
-64.1994
 20
653.607
 11
-64.7032
 21
653.884
  0
LINE
  8
0
 10
-64.7032
 20
653.884
 11
-65.1684
 21
654.222
  0
LINE
  8
0
 10
-65.1684
 20
654.222
 11
-65.5875
 21
654.616
  0
LINE
  8
0
 10
-65.5875
 20
654.616
 11
-65.954
 21
655.059
  0
LINE
  8
0
 10
-65.954
 20
655.059
 11
-66.2621
 21
655.544
  0
LINE
  8
0
 10
-66.2621
 20
655.544
 11
-66.5069
 21
656.065
  0
LINE
  8
0
 10
-66.5069
 20
656.065
 11
-66.6846
 21
656.611
  0
LINE
  8
0
 10
-66.6846
 20
656.611
 11
-66.7923
 21
657.176
  0
LINE
  8
0
 10
-66.7923
 20
657.176
 11
-66.8284
 21
657.75
  0
LINE
  8
0
 10
-66.8284
 20
657.75
 11
-66.8284
 21
782.25
  0
LINE
  8
0
 10
-66.8284
 20
782.25
 11
-66.7923
 21
782.824
  0
LINE
  8
0
 10
-66.7923
 20
782.824
 11
-66.6846
 21
783.389
  0
LINE
  8
0
 10
-66.6846
 20
783.389
 11
-66.5069
 21
783.935
  0
LINE
  8
0
 10
-66.5069
 20
783.935
 11
-66.2621
 21
784.456
  0
LINE
  8
0
 10
-66.2621
 20
784.456
 11
-65.954
 21
784.941
  0
LINE
  8
0
 10
-65.954
 20
784.941
 11
-65.5875
 21
785.384
  0
LINE
  8
0
 10
-65.5875
 20
785.384
 11
-65.1684
 21
785.778
  0
LINE
  8
0
 10
-65.1684
 20
785.778
 11
-64.7032
 21
786.116
  0
LINE
  8
0
 10
-64.7032
 20
786.116
 11
-64.1994
 21
786.393
  0
LINE
  8
0
 10
-64.1994
 20
786.393
 11
-63.6648
 21
786.604
  0
LINE
  8
0
 10
-63.6648
 20
786.604
 11
-63.1079
 21
786.747
  0
LINE
  8
0
 10
-63.1079
 20
786.747
 11
-62.5375
 21
786.819
  0
LINE
  8
0
 10
-62.5375
 20
786.819
 11
62.5375
 21
786.819
  0
LINE
  8
0
 10
62.5375
 20
786.819
 11
63.1079
 21
786.747
  0
LINE
  8
0
 10
63.1079
 20
786.747
 11
63.6648
 21
786.604
  0
LINE
  8
0
 10
63.6648
 20
786.604
 11
64.1994
 21
786.393
  0
LINE
  8
0
 10
64.1994
 20
786.393
 11
64.7032
 21
786.116
  0
LINE
  8
0
 10
64.7032
 20
786.116
 11
65.1684
 21
785.778
  0
LINE
  8
0
 10
65.1684
 20
785.778
 11
65.5875
 21
785.384
  0
LINE
  8
0
 10
65.5875
 20
785.384
 11
65.954
 21
784.941
  0
LINE
  8
0
 10
65.954
 20
784.941
 11
66.2621
 21
784.456
  0
LINE
  8
0
 10
66.2621
 20
784.456
 11
66.5069
 21
783.935
  0
LINE
  8
0
 10
66.5069
 20
783.935
 11
66.6846
 21
783.389
  0
LINE
  8
0
 10
66.6846
 20
783.389
 11
66.7923
 21
782.824
  0
LINE
  8
0
 10
66.7923
 20
782.824
 11
66.8284
 21
782.25
  0
LINE
  8
0
 10
66.8284
 20
782.25
 11
66.8284
 21
657.75
  0
LINE
  8
0
 10
66.8284
 20
657.75
 11
66.7923
 21
657.176
  0
LINE
  8
0
 10
66.7923
 20
657.176
 11
66.6846
 21
656.611
  0
LINE
  8
0
 10
66.6846
 20
656.611
 11
66.5069
 21
656.065
  0
LINE
  8
0
 10
66.5069
 20
656.065
 11
66.2621
 21
655.544
  0
LINE
  8
0
 10
66.2621
 20
655.544
 11
65.954
 21
655.059
  0
LINE
  8
0
 10
65.954
 20
655.059
 11
65.5875
 21
654.616
  0
LINE
  8
0
 10
65.5875
 20
654.616
 11
65.1684
 21
654.222
  0
LINE
  8
0
 10
65.1684
 20
654.222
 11
64.7032
 21
653.884
  0
LINE
  8
0
 10
64.7032
 20
653.884
 11
64.1994
 21
653.607
  0
LINE
  8
0
 10
64.1994
 20
653.607
 11
63.6648
 21
653.396
  0
LINE
  8
0
 10
63.6648
 20
653.396
 11
63.1079
 21
653.253
  0
LINE
  8
0
 10
63.1079
 20
653.253
 11
62.5375
 21
653.181
  0
LINE
  8
0
 10
62.5375
 20
653.181
 11
-62.5375
 21
653.181
  0
LINE
  8
0
 10
63.4369
 20
508.589
 11
64.0451
 21
508.745
  0
LINE
  8
0
 10
64.0451
 20
508.745
 11
64.6289
 21
508.976
  0
LINE
  8
0
 10
64.6289
 20
508.976
 11
65.1791
 21
509.278
  0
LINE
  8
0
 10
65.1791
 20
509.278
 11
65.6871
 21
509.647
  0
LINE
  8
0
 10
65.6871
 20
509.647
 11
66.1448
 21
510.077
  0
LINE
  8
0
 10
66.1448
 20
510.077
 11
66.5451
 21
510.561
  0
LINE
  8
0
 10
66.5451
 20
510.561
 11
66.8815
 21
511.091
  0
LINE
  8
0
 10
66.8815
 20
511.091
 11
67.1489
 21
511.659
  0
LINE
  8
0
 10
67.1489
 20
511.659
 11
67.3429
 21
512.257
  0
LINE
  8
0
 10
67.3429
 20
512.257
 11
67.4606
 21
512.873
  0
LINE
  8
0
 10
67.4606
 20
512.873
 11
67.5
 21
513.5
  0
LINE
  8
0
 10
67.5
 20
513.5
 11
67.5
 21
638.5
  0
LINE
  8
0
 10
67.5
 20
638.5
 11
67.4606
 21
639.127
  0
LINE
  8
0
 10
67.4606
 20
639.127
 11
67.3429
 21
639.743
  0
LINE
  8
0
 10
67.3429
 20
639.743
 11
67.1489
 21
640.341
  0
LINE
  8
0
 10
67.1489
 20
640.341
 11
66.8815
 21
640.909
  0
LINE
  8
0
 10
66.8815
 20
640.909
 11
66.5451
 21
641.439
  0
LINE
  8
0
 10
66.5451
 20
641.439
 11
66.1448
 21
641.923
  0
LINE
  8
0
 10
66.1448
 20
641.923
 11
65.6871
 21
642.353
  0
LINE
  8
0
 10
65.6871
 20
642.353
 11
65.1791
 21
642.722
  0
LINE
  8
0
 10
65.1791
 20
642.722
 11
64.6289
 21
643.024
  0
LINE
  8
0
 10
64.6289
 20
643.024
 11
64.0451
 21
643.255
  0
LINE
  8
0
 10
64.0451
 20
643.255
 11
63.4369
 21
643.411
  0
LINE
  8
0
 10
63.4369
 20
643.411
 11
62.8139
 21
643.49
  0
LINE
  8
0
 10
62.8139
 20
643.49
 11
-62.8139
 21
643.49
  0
LINE
  8
0
 10
-62.8139
 20
643.49
 11
-63.4369
 21
643.411
  0
LINE
  8
0
 10
-63.4369
 20
643.411
 11
-64.0451
 21
643.255
  0
LINE
  8
0
 10
-64.0451
 20
643.255
 11
-64.6289
 21
643.024
  0
LINE
  8
0
 10
-64.6289
 20
643.024
 11
-65.1791
 21
642.722
  0
LINE
  8
0
 10
-65.1791
 20
642.722
 11
-65.6871
 21
642.353
  0
LINE
  8
0
 10
-65.6871
 20
642.353
 11
-66.1448
 21
641.923
  0
LINE
  8
0
 10
-66.1448
 20
641.923
 11
-66.5451
 21
641.439
  0
LINE
  8
0
 10
-66.5451
 20
641.439
 11
-66.8815
 21
640.909
  0
LINE
  8
0
 10
-66.8815
 20
640.909
 11
-67.1489
 21
640.341
  0
LINE
  8
0
 10
-67.1489
 20
640.341
 11
-67.3429
 21
639.743
  0
LINE
  8
0
 10
-67.3429
 20
639.743
 11
-67.4606
 21
639.127
  0
LINE
  8
0
 10
-67.4606
 20
639.127
 11
-67.5
 21
638.5
  0
LINE
  8
0
 10
-67.5
 20
638.5
 11
-67.5
 21
513.5
  0
LINE
  8
0
 10
-67.5
 20
513.5
 11
-67.4606
 21
512.873
  0
LINE
  8
0
 10
-67.4606
 20
512.873
 11
-67.3429
 21
512.257
  0
LINE
  8
0
 10
-67.3429
 20
512.257
 11
-67.1489
 21
511.659
  0
LINE
  8
0
 10
-67.1489
 20
511.659
 11
-66.8815
 21
511.091
  0
LINE
  8
0
 10
-66.8815
 20
511.091
 11
-66.5451
 21
510.561
  0
LINE
  8
0
 10
-66.5451
 20
510.561
 11
-66.1448
 21
510.077
  0
LINE
  8
0
 10
-66.1448
 20
510.077
 11
-65.6871
 21
509.647
  0
LINE
  8
0
 10
-65.6871
 20
509.647
 11
-65.1791
 21
509.278
  0
LINE
  8
0
 10
-65.1791
 20
509.278
 11
-64.6289
 21
508.976
  0
LINE
  8
0
 10
-64.6289
 20
508.976
 11
-64.0451
 21
508.745
  0
LINE
  8
0
 10
-64.0451
 20
508.745
 11
-63.4369
 21
508.589
  0
LINE
  8
0
 10
-63.4369
 20
508.589
 11
-62.8139
 21
508.51
  0
LINE
  8
0
 10
-62.8139
 20
508.51
 11
62.8139
 21
508.51
  0
LINE
  8
0
 10
62.8139
 20
508.51
 11
63.4369
 21
508.589
  0
LINE
  8
0
 10
-62.3825
 20
511.645
 11
-62.6453
 21
511.678
  0
LINE
  8
0
 10
-62.6453
 20
511.678
 11
-62.9019
 21
511.744
  0
LINE
  8
0
 10
-62.9019
 20
511.744
 11
-63.1482
 21
511.841
  0
LINE
  8
0
 10
-63.1482
 20
511.841
 11
-63.3804
 21
511.969
  0
LINE
  8
0
 10
-63.3804
 20
511.969
 11
-63.5947
 21
512.125
  0
LINE
  8
0
 10
-63.5947
 20
512.125
 11
-63.7879
 21
512.306
  0
LINE
  8
0
 10
-63.7879
 20
512.306
 11
-63.9567
 21
512.51
  0
LINE
  8
0
 10
-63.9567
 20
512.51
 11
-64.0987
 21
512.734
  0
LINE
  8
0
 10
-64.0987
 20
512.734
 11
-64.2115
 21
512.973
  0
LINE
  8
0
 10
-64.2115
 20
512.973
 11
-64.2934
 21
513.225
  0
LINE
  8
0
 10
-64.2934
 20
513.225
 11
-64.343
 21
513.486
  0
LINE
  8
0
 10
-64.343
 20
513.486
 11
-64.3596
 21
513.75
  0
LINE
  8
0
 10
-64.3596
 20
513.75
 11
-64.3596
 21
638.25
  0
LINE
  8
0
 10
-64.3596
 20
638.25
 11
-64.343
 21
638.514
  0
LINE
  8
0
 10
-64.343
 20
638.514
 11
-64.2934
 21
638.775
  0
LINE
  8
0
 10
-64.2934
 20
638.775
 11
-64.2115
 21
639.027
  0
LINE
  8
0
 10
-64.2115
 20
639.027
 11
-64.0987
 21
639.266
  0
LINE
  8
0
 10
-64.0987
 20
639.266
 11
-63.9567
 21
639.49
  0
LINE
  8
0
 10
-63.9567
 20
639.49
 11
-63.7879
 21
639.694
  0
LINE
  8
0
 10
-63.7879
 20
639.694
 11
-63.5947
 21
639.875
  0
LINE
  8
0
 10
-63.5947
 20
639.875
 11
-63.3804
 21
640.031
  0
LINE
  8
0
 10
-63.3804
 20
640.031
 11
-63.1482
 21
640.159
  0
LINE
  8
0
 10
-63.1482
 20
640.159
 11
-62.9019
 21
640.256
  0
LINE
  8
0
 10
-62.9019
 20
640.256
 11
-62.6453
 21
640.322
  0
LINE
  8
0
 10
-62.6453
 20
640.322
 11
-62.3825
 21
640.355
  0
LINE
  8
0
 10
-62.3825
 20
640.355
 11
62.3825
 21
640.355
  0
LINE
  8
0
 10
62.3825
 20
640.355
 11
62.6453
 21
640.322
  0
LINE
  8
0
 10
62.6453
 20
640.322
 11
62.9019
 21
640.256
  0
LINE
  8
0
 10
62.9019
 20
640.256
 11
63.1482
 21
640.159
  0
LINE
  8
0
 10
63.1482
 20
640.159
 11
63.3804
 21
640.031
  0
LINE
  8
0
 10
63.3804
 20
640.031
 11
63.5947
 21
639.875
  0
LINE
  8
0
 10
63.5947
 20
639.875
 11
63.7879
 21
639.694
  0
LINE
  8
0
 10
63.7879
 20
639.694
 11
63.9567
 21
639.49
  0
LINE
  8
0
 10
63.9567
 20
639.49
 11
64.0987
 21
639.266
  0
LINE
  8
0
 10
64.0987
 20
639.266
 11
64.2115
 21
639.027
  0
LINE
  8
0
 10
64.2115
 20
639.027
 11
64.2934
 21
638.775
  0
LINE
  8
0
 10
64.2934
 20
638.775
 11
64.343
 21
638.514
  0
LINE
  8
0
 10
64.343
 20
638.514
 11
64.3596
 21
638.25
  0
LINE
  8
0
 10
64.3596
 20
638.25
 11
64.3596
 21
513.75
  0
LINE
  8
0
 10
64.3596
 20
513.75
 11
64.343
 21
513.486
  0
LINE
  8
0
 10
64.343
 20
513.486
 11
64.2934
 21
513.225
  0
LINE
  8
0
 10
64.2934
 20
513.225
 11
64.2115
 21
512.973
  0
LINE
  8
0
 10
64.2115
 20
512.973
 11
64.0987
 21
512.734
  0
LINE
  8
0
 10
64.0987
 20
512.734
 11
63.9567
 21
512.51
  0
LINE
  8
0
 10
63.9567
 20
512.51
 11
63.7879
 21
512.306
  0
LINE
  8
0
 10
63.7879
 20
512.306
 11
63.5947
 21
512.125
  0
LINE
  8
0
 10
63.5947
 20
512.125
 11
63.3804
 21
511.969
  0
LINE
  8
0
 10
63.3804
 20
511.969
 11
63.1482
 21
511.841
  0
LINE
  8
0
 10
63.1482
 20
511.841
 11
62.9019
 21
511.744
  0
LINE
  8
0
 10
62.9019
 20
511.744
 11
62.6453
 21
511.678
  0
LINE
  8
0
 10
62.6453
 20
511.678
 11
62.3825
 21
511.645
  0
LINE
  8
0
 10
62.3825
 20
511.645
 11
-62.3825
 21
511.645
  0
ENDSEC
  0
SECTION
  2
OBJECTS
  0
DICTIONARY
  0
ENDSEC
  0
EOF
