<?xml version="1.0" standalone="no"?>
<!DOCTYPE svg PUBLIC "-//W3C//DTD SVG 1.1//EN" "http://www.w3.org/Graphics/SVG/1.1/DTD/svg11.dtd">
<svg width="24mm" height="186mm" viewBox="-12 -366 24 186" xmlns="http://www.w3.org/2000/svg" version="1.1">
<title>OpenSCAD Model</title>
<path d="
M 7.1869,-336.089 L 7.79507,-336.245 L 8.37889,-336.476 L 8.92912,-336.778 L 9.43712,-337.147 L 9.89484,-337.577
 L 10.2951,-338.061 L 10.6315,-338.591 L 10.8989,-339.159 L 11.0929,-339.757 L 11.2106,-340.373 L 11.25,-341
 L 11.25,-361 L 11.2106,-361.627 L 11.0929,-362.243 L 10.8989,-362.841 L 10.6315,-363.409 L 10.2951,-363.939
 L 9.89484,-364.423 L 9.43712,-364.853 L 8.92912,-365.222 L 8.37889,-365.524 L 7.79507,-365.755 L 7.1869,-365.911
 L 6.56395,-365.99 L -6.56395,-365.99 L -7.1869,-365.911 L -7.79507,-365.755 L -8.37889,-365.524 L -8.92912,-365.222
 L -9.43712,-364.853 L -9.89484,-364.423 L -10.2951,-363.939 L -10.6315,-363.409 L -10.8989,-362.841 L -11.0929,-362.243
 L -11.2106,-361.627 L -11.25,-361 L -11.25,-341 L -11.2106,-340.373 L -11.0929,-339.757 L -10.8989,-339.159
 L -10.6315,-338.591 L -10.2951,-338.061 L -9.89484,-337.577 L -9.43712,-337.147 L -8.92912,-336.778 L -8.37889,-336.476
 L -7.79507,-336.245 L -7.1869,-336.089 L -6.56395,-336.01 L 6.56395,-336.01 z
M -6.00116,-337.508 L -6.49951,-337.571 L -6.98605,-337.696 L -7.45311,-337.881 L -7.8933,-338.123 L -8.29968,-338.418
 L -8.66586,-338.762 L -8.98605,-339.149 L -9.25522,-339.573 L -9.4691,-340.028 L -9.62433,-340.505 L -9.71844,-340.999
 L -9.75,-341.5 L -9.75,-360.5 L -9.71844,-361.001 L -9.62433,-361.495 L -9.4691,-361.972 L -9.25522,-362.427
 L -8.98605,-362.851 L -8.66586,-363.238 L -8.29968,-363.582 L -7.8933,-363.877 L -7.45311,-364.119 L -6.98605,-364.304
 L -6.49951,-364.429 L -6.00116,-364.492 L 6.00116,-364.492 L 6.49951,-364.429 L 6.98605,-364.304 L 7.45311,-364.119
 L 7.8933,-363.877 L 8.29968,-363.582 L 8.66586,-363.238 L 8.98605,-362.851 L 9.25522,-362.427 L 9.4691,-361.972
 L 9.62433,-361.495 L 9.71844,-361.001 L 9.75,-360.5 L 9.75,-341.5 L 9.71844,-340.999 L 9.62433,-340.505
 L 9.4691,-340.028 L 9.25522,-339.573 L 8.98605,-339.149 L 8.66586,-338.762 L 8.29968,-338.418 L 7.8933,-338.123
 L 7.45311,-337.881 L 6.98605,-337.696 L 6.49951,-337.571 L 6.00116,-337.508 z
M 7.1869,-297.089 L 7.79507,-297.245 L 8.37889,-297.476 L 8.92912,-297.778 L 9.43712,-298.147 L 9.89484,-298.577
 L 10.2951,-299.061 L 10.6315,-299.591 L 10.8989,-300.159 L 11.0929,-300.757 L 11.2106,-301.373 L 11.25,-302
 L 11.25,-322 L 11.2106,-322.627 L 11.0929,-323.243 L 10.8989,-323.841 L 10.6315,-324.409 L 10.2951,-324.939
 L 9.89484,-325.423 L 9.43712,-325.853 L 8.92912,-326.222 L 8.37889,-326.524 L 7.79507,-326.755 L 7.1869,-326.911
 L 6.56395,-326.99 L -6.56395,-326.99 L -7.1869,-326.911 L -7.79507,-326.755 L -8.37889,-326.524 L -8.92912,-326.222
 L -9.43712,-325.853 L -9.89484,-325.423 L -10.2951,-324.939 L -10.6315,-324.409 L -10.8989,-323.841 L -11.0929,-323.243
 L -11.2106,-322.627 L -11.25,-322 L -11.25,-302 L -11.2106,-301.373 L -11.0929,-300.757 L -10.8989,-300.159
 L -10.6315,-299.591 L -10.2951,-299.061 L -9.89484,-298.577 L -9.43712,-298.147 L -8.92912,-297.778 L -8.37889,-297.476
 L -7.79507,-297.245 L -7.1869,-297.089 L -6.56395,-297.01 L 6.56395,-297.01 z
M -6.00116,-298.508 L -6.49951,-298.571 L -6.98605,-298.696 L -7.45311,-298.881 L -7.8933,-299.123 L -8.29968,-299.418
 L -8.66586,-299.762 L -8.98605,-300.149 L -9.25522,-300.573 L -9.4691,-301.028 L -9.62433,-301.505 L -9.71844,-301.999
 L -9.75,-302.5 L -9.75,-321.5 L -9.71844,-322.001 L -9.62433,-322.495 L -9.4691,-322.972 L -9.25522,-323.427
 L -8.98605,-323.851 L -8.66586,-324.238 L -8.29968,-324.582 L -7.8933,-324.877 L -7.45311,-325.119 L -6.98605,-325.304
 L -6.49951,-325.429 L -6.00116,-325.492 L 6.00116,-325.492 L 6.49951,-325.429 L 6.98605,-325.304 L 7.45311,-325.119
 L 7.8933,-324.877 L 8.29968,-324.582 L 8.66586,-324.238 L 8.98605,-323.851 L 9.25522,-323.427 L 9.4691,-322.972
 L 9.62433,-322.495 L 9.71844,-322.001 L 9.75,-321.5 L 9.75,-302.5 L 9.71844,-301.999 L 9.62433,-301.505
 L 9.4691,-301.028 L 9.25522,-300.573 L 8.98605,-300.149 L 8.66586,-299.762 L 8.29968,-299.418 L 7.8933,-299.123
 L 7.45311,-298.881 L 6.98605,-298.696 L 6.49951,-298.571 L 6.00116,-298.508 z
M 7.1869,-258.089 L 7.79507,-258.245 L 8.37889,-258.476 L 8.92912,-258.778 L 9.43712,-259.147 L 9.89484,-259.577
 L 10.2951,-260.061 L 10.6315,-260.591 L 10.8989,-261.159 L 11.0929,-261.757 L 11.2106,-262.373 L 11.25,-263
 L 11.25,-283 L 11.2106,-283.627 L 11.0929,-284.243 L 10.8989,-284.841 L 10.6315,-285.409 L 10.2951,-285.939
 L 9.89484,-286.423 L 9.43712,-286.853 L 8.92912,-287.222 L 8.37889,-287.524 L 7.79507,-287.755 L 7.1869,-287.911
 L 6.56395,-287.99 L -6.56395,-287.99 L -7.1869,-287.911 L -7.79507,-287.755 L -8.37889,-287.524 L -8.92912,-287.222
 L -9.43712,-286.853 L -9.89484,-286.423 L -10.2951,-285.939 L -10.6315,-285.409 L -10.8989,-284.841 L -11.0929,-284.243
 L -11.2106,-283.627 L -11.25,-283 L -11.25,-263 L -11.2106,-262.373 L -11.0929,-261.757 L -10.8989,-261.159
 L -10.6315,-260.591 L -10.2951,-260.061 L -9.89484,-259.577 L -9.43712,-259.147 L -8.92912,-258.778 L -8.37889,-258.476
 L -7.79507,-258.245 L -7.1869,-258.089 L -6.56395,-258.01 L 6.56395,-258.01 z
M -6.00116,-259.508 L -6.49951,-259.571 L -6.98605,-259.696 L -7.45311,-259.881 L -7.8933,-260.123 L -8.29968,-260.418
 L -8.66586,-260.762 L -8.98605,-261.149 L -9.25522,-261.573 L -9.4691,-262.028 L -9.62433,-262.505 L -9.71844,-262.999
 L -9.75,-263.5 L -9.75,-282.5 L -9.71844,-283.001 L -9.62433,-283.495 L -9.4691,-283.972 L -9.25522,-284.427
 L -8.98605,-284.851 L -8.66586,-285.238 L -8.29968,-285.582 L -7.8933,-285.877 L -7.45311,-286.119 L -6.98605,-286.304
 L -6.49951,-286.429 L -6.00116,-286.492 L 6.00116,-286.492 L 6.49951,-286.429 L 6.98605,-286.304 L 7.45311,-286.119
 L 7.8933,-285.877 L 8.29968,-285.582 L 8.66586,-285.238 L 8.98605,-284.851 L 9.25522,-284.427 L 9.4691,-283.972
 L 9.62433,-283.495 L 9.71844,-283.001 L 9.75,-282.5 L 9.75,-263.5 L 9.71844,-262.999 L 9.62433,-262.505
 L 9.4691,-262.028 L 9.25522,-261.573 L 8.98605,-261.149 L 8.66586,-260.762 L 8.29968,-260.418 L 7.8933,-260.123
 L 7.45311,-259.881 L 6.98605,-259.696 L 6.49951,-259.571 L 6.00116,-259.508 z
M 7.1869,-219.089 L 7.79507,-219.245 L 8.37889,-219.476 L 8.92912,-219.778 L 9.43712,-220.147 L 9.89484,-220.577
 L 10.2951,-221.061 L 10.6315,-221.591 L 10.8989,-222.159 L 11.0929,-222.757 L 11.2106,-223.373 L 11.25,-224
 L 11.25,-244 L 11.2106,-244.627 L 11.0929,-245.243 L 10.8989,-245.841 L 10.6315,-246.409 L 10.2951,-246.939
 L 9.89484,-247.423 L 9.43712,-247.853 L 8.92912,-248.222 L 8.37889,-248.524 L 7.79507,-248.755 L 7.1869,-248.911
 L 6.56395,-248.99 L -6.56395,-248.99 L -7.1869,-248.911 L -7.79507,-248.755 L -8.37889,-248.524 L -8.92912,-248.222
 L -9.43712,-247.853 L -9.89484,-247.423 L -10.2951,-246.939 L -10.6315,-246.409 L -10.8989,-245.841 L -11.0929,-245.243
 L -11.2106,-244.627 L -11.25,-244 L -11.25,-224 L -11.2106,-223.373 L -11.0929,-222.757 L -10.8989,-222.159
 L -10.6315,-221.591 L -10.2951,-221.061 L -9.89484,-220.577 L -9.43712,-220.147 L -8.92912,-219.778 L -8.37889,-219.476
 L -7.79507,-219.245 L -7.1869,-219.089 L -6.56395,-219.01 L 6.56395,-219.01 z
M -5.94545,-221.393 L -6.3333,-221.442 L -6.71194,-221.539 L -7.07541,-221.683 L -7.41798,-221.872 L -7.73424,-222.101
 L -8.01921,-222.369 L -8.2684,-222.67 L -8.47786,-223 L -8.64432,-223.354 L -8.76512,-223.726 L -8.83836,-224.11
 L -8.86292,-224.5 L -8.86292,-243.5 L -8.83836,-243.89 L -8.76512,-244.274 L -8.64432,-244.646 L -8.47786,-245
 L -8.2684,-245.33 L -8.01921,-245.631 L -7.73424,-245.899 L -7.41798,-246.128 L -7.07541,-246.317 L -6.71194,-246.461
 L -6.3333,-246.558 L -5.94545,-246.607 L 5.94545,-246.607 L 6.3333,-246.558 L 6.71194,-246.461 L 7.07541,-246.317
 L 7.41798,-246.128 L 7.73424,-245.899 L 8.01921,-245.631 L 8.2684,-245.33 L 8.47786,-245 L 8.64432,-244.646
 L 8.76512,-244.274 L 8.83836,-243.89 L 8.86292,-243.5 L 8.86292,-224.5 L 8.83836,-224.11 L 8.76512,-223.726
 L 8.64432,-223.354 L 8.47786,-223 L 8.2684,-222.67 L 8.01921,-222.369 L 7.73424,-222.101 L 7.41798,-221.872
 L 7.07541,-221.683 L 6.71194,-221.539 L 6.3333,-221.442 L 5.94545,-221.393 z
M 7.1869,-180.089 L 7.79507,-180.245 L 8.37889,-180.476 L 8.92912,-180.778 L 9.43712,-181.147 L 9.89484,-181.577
 L 10.2951,-182.061 L 10.6315,-182.591 L 10.8989,-183.159 L 11.0929,-183.757 L 11.2106,-184.373 L 11.25,-185
 L 11.25,-205 L 11.2106,-205.627 L 11.0929,-206.243 L 10.8989,-206.841 L 10.6315,-207.409 L 10.2951,-207.939
 L 9.89484,-208.423 L 9.43712,-208.853 L 8.92912,-209.222 L 8.37889,-209.524 L 7.79507,-209.755 L 7.1869,-209.911
 L 6.56395,-209.99 L -6.56395,-209.99 L -7.1869,-209.911 L -7.79507,-209.755 L -8.37889,-209.524 L -8.92912,-209.222
 L -9.43712,-208.853 L -9.89484,-208.423 L -10.2951,-207.939 L -10.6315,-207.409 L -10.8989,-206.841 L -11.0929,-206.243
 L -11.2106,-205.627 L -11.25,-205 L -11.25,-185 L -11.2106,-184.373 L -11.0929,-183.757 L -10.8989,-183.159
 L -10.6315,-182.591 L -10.2951,-182.061 L -9.89484,-181.577 L -9.43712,-181.147 L -8.92912,-180.778 L -8.37889,-180.476
 L -7.79507,-180.245 L -7.1869,-180.089 L -6.56395,-180.01 L 6.56395,-180.01 z
M 3.61592,-200.369 L 3.34988,-200.403 L 3.09015,-200.469 L 2.84084,-200.568 L 2.60585,-200.697 L 2.3889,-200.855
 L 2.19344,-201.038 L 2.02251,-201.245 L 1.87881,-201.471 L 1.76465,-201.714 L 1.68178,-201.969 L 1.63153,-202.232
 L 1.6147,-202.5 L 1.63153,-202.768 L 1.68178,-203.031 L 1.76465,-203.286 L 1.87881,-203.529 L 2.02251,-203.755
 L 2.19344,-203.962 L 2.3889,-204.145 L 2.60585,-204.303 L 2.84084,-204.432 L 3.09015,-204.531 L 3.34988,-204.597
 L 3.61592,-204.631 L 3.88406,-204.631 L 4.1501,-204.597 L 4.40984,-204.531 L 4.65915,-204.432 L 4.89413,-204.303
 L 5.11108,-204.145 L 5.30655,-203.962 L 5.47748,-203.755 L 5.62117,-203.529 L 5.73534,-203.286 L 5.81821,-203.031
 L 5.86845,-202.768 L 5.88528,-202.5 L 5.86845,-202.232 L 5.81821,-201.969 L 5.73534,-201.714 L 5.62117,-201.471
 L 5.47748,-201.245 L 5.30655,-201.038 L 5.11108,-200.855 L 4.89413,-200.697 L 4.65915,-200.568 L 4.40984,-200.469
 L 4.1501,-200.403 L 3.88406,-200.369 z
M -3.88406,-200.369 L -4.1501,-200.403 L -4.40984,-200.469 L -4.65915,-200.568 L -4.89413,-200.697 L -5.11108,-200.855
 L -5.30655,-201.038 L -5.47748,-201.245 L -5.62117,-201.471 L -5.73534,-201.714 L -5.81821,-201.969 L -5.86845,-202.232
 L -5.88528,-202.5 L -5.86845,-202.768 L -5.81821,-203.031 L -5.73534,-203.286 L -5.62117,-203.529 L -5.47748,-203.755
 L -5.30655,-203.962 L -5.11108,-204.145 L -4.89413,-204.303 L -4.65915,-204.432 L -4.40984,-204.531 L -4.1501,-204.597
 L -3.88406,-204.631 L -3.61592,-204.631 L -3.34988,-204.597 L -3.09015,-204.531 L -2.84084,-204.432 L -2.60585,-204.303
 L -2.3889,-204.145 L -2.19344,-203.962 L -2.02251,-203.755 L -1.87881,-203.529 L -1.76465,-203.286 L -1.68178,-203.031
 L -1.63153,-202.768 L -1.6147,-202.5 L -1.63153,-202.232 L -1.68178,-201.969 L -1.76465,-201.714 L -1.87881,-201.471
 L -2.02251,-201.245 L -2.19344,-201.038 L -2.3889,-200.855 L -2.60585,-200.697 L -2.84084,-200.568 L -3.09015,-200.469
 L -3.34988,-200.403 L -3.61592,-200.369 z
M 3.61592,-185.369 L 3.34988,-185.403 L 3.09015,-185.469 L 2.84084,-185.568 L 2.60585,-185.697 L 2.3889,-185.855
 L 2.19344,-186.038 L 2.02251,-186.245 L 1.87881,-186.471 L 1.76465,-186.714 L 1.68178,-186.969 L 1.63153,-187.232
 L 1.6147,-187.5 L 1.63153,-187.768 L 1.68178,-188.031 L 1.76465,-188.286 L 1.87881,-188.529 L 2.02251,-188.755
 L 2.19344,-188.962 L 2.3889,-189.145 L 2.60585,-189.303 L 2.84084,-189.432 L 3.09015,-189.531 L 3.34988,-189.597
 L 3.61592,-189.631 L 3.88406,-189.631 L 4.1501,-189.597 L 4.40984,-189.531 L 4.65915,-189.432 L 4.89413,-189.303
 L 5.11108,-189.145 L 5.30655,-188.962 L 5.47748,-188.755 L 5.62117,-188.529 L 5.73534,-188.286 L 5.81821,-188.031
 L 5.86845,-187.768 L 5.88528,-187.5 L 5.86845,-187.232 L 5.81821,-186.969 L 5.73534,-186.714 L 5.62117,-186.471
 L 5.47748,-186.245 L 5.30655,-186.038 L 5.11108,-185.855 L 4.89413,-185.697 L 4.65915,-185.568 L 4.40984,-185.469
 L 4.1501,-185.403 L 3.88406,-185.369 z
M -3.88406,-185.369 L -4.1501,-185.403 L -4.40984,-185.469 L -4.65915,-185.568 L -4.89413,-185.697 L -5.11108,-185.855
 L -5.30655,-186.038 L -5.47748,-186.245 L -5.62117,-186.471 L -5.73534,-186.714 L -5.81821,-186.969 L -5.86845,-187.232
 L -5.88528,-187.5 L -5.86845,-187.768 L -5.81821,-188.031 L -5.73534,-188.286 L -5.62117,-188.529 L -5.47748,-188.755
 L -5.30655,-188.962 L -5.11108,-189.145 L -4.89413,-189.303 L -4.65915,-189.432 L -4.40984,-189.531 L -4.1501,-189.597
 L -3.88406,-189.631 L -3.61592,-189.631 L -3.34988,-189.597 L -3.09015,-189.531 L -2.84084,-189.432 L -2.60585,-189.303
 L -2.3889,-189.145 L -2.19344,-188.962 L -2.02251,-188.755 L -1.87881,-188.529 L -1.76465,-188.286 L -1.68178,-188.031
 L -1.63153,-187.768 L -1.6147,-187.5 L -1.63153,-187.232 L -1.68178,-186.969 L -1.76465,-186.714 L -1.87881,-186.471
 L -2.02251,-186.245 L -2.19344,-186.038 L -2.3889,-185.855 L -2.60585,-185.697 L -2.84084,-185.568 L -3.09015,-185.469
 L -3.34988,-185.403 L -3.61592,-185.369 z
" stroke="black" fill="lightgray" stroke-width="0.5"/>
</svg>
