  0
SECTION
  2
BLOCKS
  0
ENDSEC
  0
SECTION
  2
ENTITIES
  0
LINE
  8
0
 10
108.437
 20
922.589
 11
109.045
 21
922.745
  0
LINE
  8
0
 10
109.045
 20
922.745
 11
109.629
 21
922.976
  0
LINE
  8
0
 10
109.629
 20
922.976
 11
110.179
 21
923.278
  0
LINE
  8
0
 10
110.179
 20
923.278
 11
110.687
 21
923.647
  0
LINE
  8
0
 10
110.687
 20
923.647
 11
111.145
 21
924.077
  0
LINE
  8
0
 10
111.145
 20
924.077
 11
111.545
 21
924.561
  0
LINE
  8
0
 10
111.545
 20
924.561
 11
111.882
 21
925.091
  0
LINE
  8
0
 10
111.882
 20
925.091
 11
112.149
 21
925.659
  0
LINE
  8
0
 10
112.149
 20
925.659
 11
112.343
 21
926.257
  0
LINE
  8
0
 10
112.343
 20
926.257
 11
112.461
 21
926.873
  0
LINE
  8
0
 10
112.461
 20
926.873
 11
112.5
 21
927.5
  0
LINE
  8
0
 10
112.5
 20
927.5
 11
112.5
 21
1112.5
  0
LINE
  8
0
 10
112.5
 20
1112.5
 11
112.461
 21
1113.13
  0
LINE
  8
0
 10
112.461
 20
1113.13
 11
112.343
 21
1113.74
  0
LINE
  8
0
 10
112.343
 20
1113.74
 11
112.149
 21
1114.34
  0
LINE
  8
0
 10
112.149
 20
1114.34
 11
111.882
 21
1114.91
  0
LINE
  8
0
 10
111.882
 20
1114.91
 11
111.545
 21
1115.44
  0
LINE
  8
0
 10
111.545
 20
1115.44
 11
111.145
 21
1115.92
  0
LINE
  8
0
 10
111.145
 20
1115.92
 11
110.687
 21
1116.35
  0
LINE
  8
0
 10
110.687
 20
1116.35
 11
110.179
 21
1116.72
  0
LINE
  8
0
 10
110.179
 20
1116.72
 11
109.629
 21
1117.02
  0
LINE
  8
0
 10
109.629
 20
1117.02
 11
109.045
 21
1117.26
  0
LINE
  8
0
 10
109.045
 20
1117.26
 11
108.437
 21
1117.41
  0
LINE
  8
0
 10
108.437
 20
1117.41
 11
107.814
 21
1117.49
  0
LINE
  8
0
 10
107.814
 20
1117.49
 11
-107.814
 21
1117.49
  0
LINE
  8
0
 10
-107.814
 20
1117.49
 11
-108.437
 21
1117.41
  0
LINE
  8
0
 10
-108.437
 20
1117.41
 11
-109.045
 21
1117.26
  0
LINE
  8
0
 10
-109.045
 20
1117.26
 11
-109.629
 21
1117.02
  0
LINE
  8
0
 10
-109.629
 20
1117.02
 11
-110.179
 21
1116.72
  0
LINE
  8
0
 10
-110.179
 20
1116.72
 11
-110.687
 21
1116.35
  0
LINE
  8
0
 10
-110.687
 20
1116.35
 11
-111.145
 21
1115.92
  0
LINE
  8
0
 10
-111.145
 20
1115.92
 11
-111.545
 21
1115.44
  0
LINE
  8
0
 10
-111.545
 20
1115.44
 11
-111.882
 21
1114.91
  0
LINE
  8
0
 10
-111.882
 20
1114.91
 11
-112.149
 21
1114.34
  0
LINE
  8
0
 10
-112.149
 20
1114.34
 11
-112.343
 21
1113.74
  0
LINE
  8
0
 10
-112.343
 20
1113.74
 11
-112.461
 21
1113.13
  0
LINE
  8
0
 10
-112.461
 20
1113.13
 11
-112.5
 21
1112.5
  0
LINE
  8
0
 10
-112.5
 20
1112.5
 11
-112.5
 21
927.5
  0
LINE
  8
0
 10
-112.5
 20
927.5
 11
-112.461
 21
926.873
  0
LINE
  8
0
 10
-112.461
 20
926.873
 11
-112.343
 21
926.257
  0
LINE
  8
0
 10
-112.343
 20
926.257
 11
-112.149
 21
925.659
  0
LINE
  8
0
 10
-112.149
 20
925.659
 11
-111.882
 21
925.091
  0
LINE
  8
0
 10
-111.882
 20
925.091
 11
-111.545
 21
924.561
  0
LINE
  8
0
 10
-111.545
 20
924.561
 11
-111.145
 21
924.077
  0
LINE
  8
0
 10
-111.145
 20
924.077
 11
-110.687
 21
923.647
  0
LINE
  8
0
 10
-110.687
 20
923.647
 11
-110.179
 21
923.278
  0
LINE
  8
0
 10
-110.179
 20
923.278
 11
-109.629
 21
922.976
  0
LINE
  8
0
 10
-109.629
 20
922.976
 11
-109.045
 21
922.745
  0
LINE
  8
0
 10
-109.045
 20
922.745
 11
-108.437
 21
922.589
  0
LINE
  8
0
 10
-108.437
 20
922.589
 11
-107.814
 21
922.51
  0
LINE
  8
0
 10
-107.814
 20
922.51
 11
107.814
 21
922.51
  0
LINE
  8
0
 10
107.814
 20
922.51
 11
108.437
 21
922.589
  0
LINE
  8
0
 10
-107.548
 20
923.009
 11
-108.14
 21
923.084
  0
LINE
  8
0
 10
-108.14
 20
923.084
 11
-108.718
 21
923.232
  0
LINE
  8
0
 10
-108.718
 20
923.232
 11
-109.272
 21
923.452
  0
LINE
  8
0
 10
-109.272
 20
923.452
 11
-109.795
 21
923.739
  0
LINE
  8
0
 10
-109.795
 20
923.739
 11
-110.278
 21
924.09
  0
LINE
  8
0
 10
-110.278
 20
924.09
 11
-110.713
 21
924.498
  0
LINE
  8
0
 10
-110.713
 20
924.498
 11
-111.093
 21
924.958
  0
LINE
  8
0
 10
-111.093
 20
924.958
 11
-111.412
 21
925.462
  0
LINE
  8
0
 10
-111.412
 20
925.462
 11
-111.666
 21
926.001
  0
LINE
  8
0
 10
-111.666
 20
926.001
 11
-111.851
 21
926.569
  0
LINE
  8
0
 10
-111.851
 20
926.569
 11
-111.963
 21
927.155
  0
LINE
  8
0
 10
-111.963
 20
927.155
 11
-112
 21
927.75
  0
LINE
  8
0
 10
-112
 20
927.75
 11
-112
 21
1112.25
  0
LINE
  8
0
 10
-112
 20
1112.25
 11
-111.963
 21
1112.85
  0
LINE
  8
0
 10
-111.963
 20
1112.85
 11
-111.851
 21
1113.43
  0
LINE
  8
0
 10
-111.851
 20
1113.43
 11
-111.666
 21
1114
  0
LINE
  8
0
 10
-111.666
 20
1114
 11
-111.412
 21
1114.54
  0
LINE
  8
0
 10
-111.412
 20
1114.54
 11
-111.093
 21
1115.04
  0
LINE
  8
0
 10
-111.093
 20
1115.04
 11
-110.713
 21
1115.5
  0
LINE
  8
0
 10
-110.713
 20
1115.5
 11
-110.278
 21
1115.91
  0
LINE
  8
0
 10
-110.278
 20
1115.91
 11
-109.795
 21
1116.26
  0
LINE
  8
0
 10
-109.795
 20
1116.26
 11
-109.272
 21
1116.55
  0
LINE
  8
0
 10
-109.272
 20
1116.55
 11
-108.718
 21
1116.77
  0
LINE
  8
0
 10
-108.718
 20
1116.77
 11
-108.14
 21
1116.92
  0
LINE
  8
0
 10
-108.14
 20
1116.92
 11
-107.548
 21
1116.99
  0
LINE
  8
0
 10
-107.548
 20
1116.99
 11
107.548
 21
1116.99
  0
LINE
  8
0
 10
107.548
 20
1116.99
 11
108.14
 21
1116.92
  0
LINE
  8
0
 10
108.14
 20
1116.92
 11
108.718
 21
1116.77
  0
LINE
  8
0
 10
108.718
 20
1116.77
 11
109.272
 21
1116.55
  0
LINE
  8
0
 10
109.272
 20
1116.55
 11
109.795
 21
1116.26
  0
LINE
  8
0
 10
109.795
 20
1116.26
 11
110.278
 21
1115.91
  0
LINE
  8
0
 10
110.278
 20
1115.91
 11
110.713
 21
1115.5
  0
LINE
  8
0
 10
110.713
 20
1115.5
 11
111.093
 21
1115.04
  0
LINE
  8
0
 10
111.093
 20
1115.04
 11
111.412
 21
1114.54
  0
LINE
  8
0
 10
111.412
 20
1114.54
 11
111.666
 21
1114
  0
LINE
  8
0
 10
111.666
 20
1114
 11
111.851
 21
1113.43
  0
LINE
  8
0
 10
111.851
 20
1113.43
 11
111.963
 21
1112.85
  0
LINE
  8
0
 10
111.963
 20
1112.85
 11
112
 21
1112.25
  0
LINE
  8
0
 10
112
 20
1112.25
 11
112
 21
927.75
  0
LINE
  8
0
 10
112
 20
927.75
 11
111.963
 21
927.155
  0
LINE
  8
0
 10
111.963
 20
927.155
 11
111.851
 21
926.569
  0
LINE
  8
0
 10
111.851
 20
926.569
 11
111.666
 21
926.001
  0
LINE
  8
0
 10
111.666
 20
926.001
 11
111.412
 21
925.462
  0
LINE
  8
0
 10
111.412
 20
925.462
 11
111.093
 21
924.958
  0
LINE
  8
0
 10
111.093
 20
924.958
 11
110.713
 21
924.498
  0
LINE
  8
0
 10
110.713
 20
924.498
 11
110.278
 21
924.09
  0
LINE
  8
0
 10
110.278
 20
924.09
 11
109.795
 21
923.739
  0
LINE
  8
0
 10
109.795
 20
923.739
 11
109.272
 21
923.452
  0
LINE
  8
0
 10
109.272
 20
923.452
 11
108.718
 21
923.232
  0
LINE
  8
0
 10
108.718
 20
923.232
 11
108.14
 21
923.084
  0
LINE
  8
0
 10
108.14
 20
923.084
 11
107.548
 21
923.009
  0
LINE
  8
0
 10
107.548
 20
923.009
 11
-107.548
 21
923.009
  0
LINE
  8
0
 10
108.437
 20
718.589
 11
109.045
 21
718.745
  0
LINE
  8
0
 10
109.045
 20
718.745
 11
109.629
 21
718.976
  0
LINE
  8
0
 10
109.629
 20
718.976
 11
110.179
 21
719.278
  0
LINE
  8
0
 10
110.179
 20
719.278
 11
110.687
 21
719.647
  0
LINE
  8
0
 10
110.687
 20
719.647
 11
111.145
 21
720.077
  0
LINE
  8
0
 10
111.145
 20
720.077
 11
111.545
 21
720.561
  0
LINE
  8
0
 10
111.545
 20
720.561
 11
111.882
 21
721.091
  0
LINE
  8
0
 10
111.882
 20
721.091
 11
112.149
 21
721.659
  0
LINE
  8
0
 10
112.149
 20
721.659
 11
112.343
 21
722.257
  0
LINE
  8
0
 10
112.343
 20
722.257
 11
112.461
 21
722.873
  0
LINE
  8
0
 10
112.461
 20
722.873
 11
112.5
 21
723.5
  0
LINE
  8
0
 10
112.5
 20
723.5
 11
112.5
 21
908.5
  0
LINE
  8
0
 10
112.5
 20
908.5
 11
112.461
 21
909.127
  0
LINE
  8
0
 10
112.461
 20
909.127
 11
112.343
 21
909.743
  0
LINE
  8
0
 10
112.343
 20
909.743
 11
112.149
 21
910.341
  0
LINE
  8
0
 10
112.149
 20
910.341
 11
111.882
 21
910.909
  0
LINE
  8
0
 10
111.882
 20
910.909
 11
111.545
 21
911.439
  0
LINE
  8
0
 10
111.545
 20
911.439
 11
111.145
 21
911.923
  0
LINE
  8
0
 10
111.145
 20
911.923
 11
110.687
 21
912.353
  0
LINE
  8
0
 10
110.687
 20
912.353
 11
110.179
 21
912.722
  0
LINE
  8
0
 10
110.179
 20
912.722
 11
109.629
 21
913.024
  0
LINE
  8
0
 10
109.629
 20
913.024
 11
109.045
 21
913.255
  0
LINE
  8
0
 10
109.045
 20
913.255
 11
108.437
 21
913.411
  0
LINE
  8
0
 10
108.437
 20
913.411
 11
107.814
 21
913.49
  0
LINE
  8
0
 10
107.814
 20
913.49
 11
-107.814
 21
913.49
  0
LINE
  8
0
 10
-107.814
 20
913.49
 11
-108.437
 21
913.411
  0
LINE
  8
0
 10
-108.437
 20
913.411
 11
-109.045
 21
913.255
  0
LINE
  8
0
 10
-109.045
 20
913.255
 11
-109.629
 21
913.024
  0
LINE
  8
0
 10
-109.629
 20
913.024
 11
-110.179
 21
912.722
  0
LINE
  8
0
 10
-110.179
 20
912.722
 11
-110.687
 21
912.353
  0
LINE
  8
0
 10
-110.687
 20
912.353
 11
-111.145
 21
911.923
  0
LINE
  8
0
 10
-111.145
 20
911.923
 11
-111.545
 21
911.439
  0
LINE
  8
0
 10
-111.545
 20
911.439
 11
-111.882
 21
910.909
  0
LINE
  8
0
 10
-111.882
 20
910.909
 11
-112.149
 21
910.341
  0
LINE
  8
0
 10
-112.149
 20
910.341
 11
-112.343
 21
909.743
  0
LINE
  8
0
 10
-112.343
 20
909.743
 11
-112.461
 21
909.127
  0
LINE
  8
0
 10
-112.461
 20
909.127
 11
-112.5
 21
908.5
  0
LINE
  8
0
 10
-112.5
 20
908.5
 11
-112.5
 21
723.5
  0
LINE
  8
0
 10
-112.5
 20
723.5
 11
-112.461
 21
722.873
  0
LINE
  8
0
 10
-112.461
 20
722.873
 11
-112.343
 21
722.257
  0
LINE
  8
0
 10
-112.343
 20
722.257
 11
-112.149
 21
721.659
  0
LINE
  8
0
 10
-112.149
 20
721.659
 11
-111.882
 21
721.091
  0
LINE
  8
0
 10
-111.882
 20
721.091
 11
-111.545
 21
720.561
  0
LINE
  8
0
 10
-111.545
 20
720.561
 11
-111.145
 21
720.077
  0
LINE
  8
0
 10
-111.145
 20
720.077
 11
-110.687
 21
719.647
  0
LINE
  8
0
 10
-110.687
 20
719.647
 11
-110.179
 21
719.278
  0
LINE
  8
0
 10
-110.179
 20
719.278
 11
-109.629
 21
718.976
  0
LINE
  8
0
 10
-109.629
 20
718.976
 11
-109.045
 21
718.745
  0
LINE
  8
0
 10
-109.045
 20
718.745
 11
-108.437
 21
718.589
  0
LINE
  8
0
 10
-108.437
 20
718.589
 11
-107.814
 21
718.51
  0
LINE
  8
0
 10
-107.814
 20
718.51
 11
107.814
 21
718.51
  0
LINE
  8
0
 10
107.814
 20
718.51
 11
108.437
 21
718.589
  0
LINE
  8
0
 10
-107.537
 20
719.181
 11
-108.108
 21
719.253
  0
LINE
  8
0
 10
-108.108
 20
719.253
 11
-108.665
 21
719.396
  0
LINE
  8
0
 10
-108.665
 20
719.396
 11
-109.199
 21
719.607
  0
LINE
  8
0
 10
-109.199
 20
719.607
 11
-109.703
 21
719.884
  0
LINE
  8
0
 10
-109.703
 20
719.884
 11
-110.168
 21
720.222
  0
LINE
  8
0
 10
-110.168
 20
720.222
 11
-110.588
 21
720.616
  0
LINE
  8
0
 10
-110.588
 20
720.616
 11
-110.954
 21
721.059
  0
LINE
  8
0
 10
-110.954
 20
721.059
 11
-111.262
 21
721.544
  0
LINE
  8
0
 10
-111.262
 20
721.544
 11
-111.507
 21
722.065
  0
LINE
  8
0
 10
-111.507
 20
722.065
 11
-111.685
 21
722.611
  0
LINE
  8
0
 10
-111.685
 20
722.611
 11
-111.792
 21
723.176
  0
LINE
  8
0
 10
-111.792
 20
723.176
 11
-111.828
 21
723.75
  0
LINE
  8
0
 10
-111.828
 20
723.75
 11
-111.828
 21
908.25
  0
LINE
  8
0
 10
-111.828
 20
908.25
 11
-111.792
 21
908.824
  0
LINE
  8
0
 10
-111.792
 20
908.824
 11
-111.685
 21
909.389
  0
LINE
  8
0
 10
-111.685
 20
909.389
 11
-111.507
 21
909.935
  0
LINE
  8
0
 10
-111.507
 20
909.935
 11
-111.262
 21
910.456
  0
LINE
  8
0
 10
-111.262
 20
910.456
 11
-110.954
 21
910.941
  0
LINE
  8
0
 10
-110.954
 20
910.941
 11
-110.588
 21
911.384
  0
LINE
  8
0
 10
-110.588
 20
911.384
 11
-110.168
 21
911.778
  0
LINE
  8
0
 10
-110.168
 20
911.778
 11
-109.703
 21
912.116
  0
LINE
  8
0
 10
-109.703
 20
912.116
 11
-109.199
 21
912.393
  0
LINE
  8
0
 10
-109.199
 20
912.393
 11
-108.665
 21
912.604
  0
LINE
  8
0
 10
-108.665
 20
912.604
 11
-108.108
 21
912.747
  0
LINE
  8
0
 10
-108.108
 20
912.747
 11
-107.537
 21
912.819
  0
LINE
  8
0
 10
-107.537
 20
912.819
 11
107.537
 21
912.819
  0
LINE
  8
0
 10
107.537
 20
912.819
 11
108.108
 21
912.747
  0
LINE
  8
0
 10
108.108
 20
912.747
 11
108.665
 21
912.604
  0
LINE
  8
0
 10
108.665
 20
912.604
 11
109.199
 21
912.393
  0
LINE
  8
0
 10
109.199
 20
912.393
 11
109.703
 21
912.116
  0
LINE
  8
0
 10
109.703
 20
912.116
 11
110.168
 21
911.778
  0
LINE
  8
0
 10
110.168
 20
911.778
 11
110.588
 21
911.384
  0
LINE
  8
0
 10
110.588
 20
911.384
 11
110.954
 21
910.941
  0
LINE
  8
0
 10
110.954
 20
910.941
 11
111.262
 21
910.456
  0
LINE
  8
0
 10
111.262
 20
910.456
 11
111.507
 21
909.935
  0
LINE
  8
0
 10
111.507
 20
909.935
 11
111.685
 21
909.389
  0
LINE
  8
0
 10
111.685
 20
909.389
 11
111.792
 21
908.824
  0
LINE
  8
0
 10
111.792
 20
908.824
 11
111.828
 21
908.25
  0
LINE
  8
0
 10
111.828
 20
908.25
 11
111.828
 21
723.75
  0
LINE
  8
0
 10
111.828
 20
723.75
 11
111.792
 21
723.176
  0
LINE
  8
0
 10
111.792
 20
723.176
 11
111.685
 21
722.611
  0
LINE
  8
0
 10
111.685
 20
722.611
 11
111.507
 21
722.065
  0
LINE
  8
0
 10
111.507
 20
722.065
 11
111.262
 21
721.544
  0
LINE
  8
0
 10
111.262
 20
721.544
 11
110.954
 21
721.059
  0
LINE
  8
0
 10
110.954
 20
721.059
 11
110.588
 21
720.616
  0
LINE
  8
0
 10
110.588
 20
720.616
 11
110.168
 21
720.222
  0
LINE
  8
0
 10
110.168
 20
720.222
 11
109.703
 21
719.884
  0
LINE
  8
0
 10
109.703
 20
719.884
 11
109.199
 21
719.607
  0
LINE
  8
0
 10
109.199
 20
719.607
 11
108.665
 21
719.396
  0
LINE
  8
0
 10
108.665
 20
719.396
 11
108.108
 21
719.253
  0
LINE
  8
0
 10
108.108
 20
719.253
 11
107.537
 21
719.181
  0
LINE
  8
0
 10
107.537
 20
719.181
 11
-107.537
 21
719.181
  0
LINE
  8
0
 10
108.437
 20
514.589
 11
109.045
 21
514.745
  0
LINE
  8
0
 10
109.045
 20
514.745
 11
109.629
 21
514.976
  0
LINE
  8
0
 10
109.629
 20
514.976
 11
110.179
 21
515.278
  0
LINE
  8
0
 10
110.179
 20
515.278
 11
110.687
 21
515.647
  0
LINE
  8
0
 10
110.687
 20
515.647
 11
111.145
 21
516.077
  0
LINE
  8
0
 10
111.145
 20
516.077
 11
111.545
 21
516.561
  0
LINE
  8
0
 10
111.545
 20
516.561
 11
111.882
 21
517.091
  0
LINE
  8
0
 10
111.882
 20
517.091
 11
112.149
 21
517.659
  0
LINE
  8
0
 10
112.149
 20
517.659
 11
112.343
 21
518.257
  0
LINE
  8
0
 10
112.343
 20
518.257
 11
112.461
 21
518.873
  0
LINE
  8
0
 10
112.461
 20
518.873
 11
112.5
 21
519.5
  0
LINE
  8
0
 10
112.5
 20
519.5
 11
112.5
 21
704.5
  0
LINE
  8
0
 10
112.5
 20
704.5
 11
112.461
 21
705.127
  0
LINE
  8
0
 10
112.461
 20
705.127
 11
112.343
 21
705.743
  0
LINE
  8
0
 10
112.343
 20
705.743
 11
112.149
 21
706.341
  0
LINE
  8
0
 10
112.149
 20
706.341
 11
111.882
 21
706.909
  0
LINE
  8
0
 10
111.882
 20
706.909
 11
111.545
 21
707.439
  0
LINE
  8
0
 10
111.545
 20
707.439
 11
111.145
 21
707.923
  0
LINE
  8
0
 10
111.145
 20
707.923
 11
110.687
 21
708.353
  0
LINE
  8
0
 10
110.687
 20
708.353
 11
110.179
 21
708.722
  0
LINE
  8
0
 10
110.179
 20
708.722
 11
109.629
 21
709.024
  0
LINE
  8
0
 10
109.629
 20
709.024
 11
109.045
 21
709.255
  0
LINE
  8
0
 10
109.045
 20
709.255
 11
108.437
 21
709.411
  0
LINE
  8
0
 10
108.437
 20
709.411
 11
107.814
 21
709.49
  0
LINE
  8
0
 10
107.814
 20
709.49
 11
-107.814
 21
709.49
  0
LINE
  8
0
 10
-107.814
 20
709.49
 11
-108.437
 21
709.411
  0
LINE
  8
0
 10
-108.437
 20
709.411
 11
-109.045
 21
709.255
  0
LINE
  8
0
 10
-109.045
 20
709.255
 11
-109.629
 21
709.024
  0
LINE
  8
0
 10
-109.629
 20
709.024
 11
-110.179
 21
708.722
  0
LINE
  8
0
 10
-110.179
 20
708.722
 11
-110.687
 21
708.353
  0
LINE
  8
0
 10
-110.687
 20
708.353
 11
-111.145
 21
707.923
  0
LINE
  8
0
 10
-111.145
 20
707.923
 11
-111.545
 21
707.439
  0
LINE
  8
0
 10
-111.545
 20
707.439
 11
-111.882
 21
706.909
  0
LINE
  8
0
 10
-111.882
 20
706.909
 11
-112.149
 21
706.341
  0
LINE
  8
0
 10
-112.149
 20
706.341
 11
-112.343
 21
705.743
  0
LINE
  8
0
 10
-112.343
 20
705.743
 11
-112.461
 21
705.127
  0
LINE
  8
0
 10
-112.461
 20
705.127
 11
-112.5
 21
704.5
  0
LINE
  8
0
 10
-112.5
 20
704.5
 11
-112.5
 21
519.5
  0
LINE
  8
0
 10
-112.5
 20
519.5
 11
-112.461
 21
518.873
  0
LINE
  8
0
 10
-112.461
 20
518.873
 11
-112.343
 21
518.257
  0
LINE
  8
0
 10
-112.343
 20
518.257
 11
-112.149
 21
517.659
  0
LINE
  8
0
 10
-112.149
 20
517.659
 11
-111.882
 21
517.091
  0
LINE
  8
0
 10
-111.882
 20
517.091
 11
-111.545
 21
516.561
  0
LINE
  8
0
 10
-111.545
 20
516.561
 11
-111.145
 21
516.077
  0
LINE
  8
0
 10
-111.145
 20
516.077
 11
-110.687
 21
515.647
  0
LINE
  8
0
 10
-110.687
 20
515.647
 11
-110.179
 21
515.278
  0
LINE
  8
0
 10
-110.179
 20
515.278
 11
-109.629
 21
514.976
  0
LINE
  8
0
 10
-109.629
 20
514.976
 11
-109.045
 21
514.745
  0
LINE
  8
0
 10
-109.045
 20
514.745
 11
-108.437
 21
514.589
  0
LINE
  8
0
 10
-108.437
 20
514.589
 11
-107.814
 21
514.51
  0
LINE
  8
0
 10
-107.814
 20
514.51
 11
107.814
 21
514.51
  0
LINE
  8
0
 10
107.814
 20
514.51
 11
108.437
 21
514.589
  0
LINE
  8
0
 10
-107.382
 20
517.645
 11
-107.645
 21
517.678
  0
LINE
  8
0
 10
-107.645
 20
517.678
 11
-107.902
 21
517.744
  0
LINE
  8
0
 10
-107.902
 20
517.744
 11
-108.148
 21
517.841
  0
LINE
  8
0
 10
-108.148
 20
517.841
 11
-108.38
 21
517.969
  0
LINE
  8
0
 10
-108.38
 20
517.969
 11
-108.595
 21
518.124
  0
LINE
  8
0
 10
-108.595
 20
518.124
 11
-108.788
 21
518.306
  0
LINE
  8
0
 10
-108.788
 20
518.306
 11
-108.957
 21
518.51
  0
LINE
  8
0
 10
-108.957
 20
518.51
 11
-109.099
 21
518.734
  0
LINE
  8
0
 10
-109.099
 20
518.734
 11
-109.211
 21
518.973
  0
LINE
  8
0
 10
-109.211
 20
518.973
 11
-109.293
 21
519.225
  0
LINE
  8
0
 10
-109.293
 20
519.225
 11
-109.343
 21
519.486
  0
LINE
  8
0
 10
-109.343
 20
519.486
 11
-109.36
 21
519.75
  0
LINE
  8
0
 10
-109.36
 20
519.75
 11
-109.36
 21
704.25
  0
LINE
  8
0
 10
-109.36
 20
704.25
 11
-109.343
 21
704.514
  0
LINE
  8
0
 10
-109.343
 20
704.514
 11
-109.293
 21
704.775
  0
LINE
  8
0
 10
-109.293
 20
704.775
 11
-109.211
 21
705.027
  0
LINE
  8
0
 10
-109.211
 20
705.027
 11
-109.099
 21
705.266
  0
LINE
  8
0
 10
-109.099
 20
705.266
 11
-108.957
 21
705.49
  0
LINE
  8
0
 10
-108.957
 20
705.49
 11
-108.788
 21
705.694
  0
LINE
  8
0
 10
-108.788
 20
705.694
 11
-108.595
 21
705.876
  0
LINE
  8
0
 10
-108.595
 20
705.876
 11
-108.38
 21
706.031
  0
LINE
  8
0
 10
-108.38
 20
706.031
 11
-108.148
 21
706.159
  0
LINE
  8
0
 10
-108.148
 20
706.159
 11
-107.902
 21
706.256
  0
LINE
  8
0
 10
-107.902
 20
706.256
 11
-107.645
 21
706.322
  0
LINE
  8
0
 10
-107.645
 20
706.322
 11
-107.382
 21
706.355
  0
LINE
  8
0
 10
-107.382
 20
706.355
 11
107.382
 21
706.355
  0
LINE
  8
0
 10
107.382
 20
706.355
 11
107.645
 21
706.322
  0
LINE
  8
0
 10
107.645
 20
706.322
 11
107.902
 21
706.256
  0
LINE
  8
0
 10
107.902
 20
706.256
 11
108.148
 21
706.159
  0
LINE
  8
0
 10
108.148
 20
706.159
 11
108.38
 21
706.031
  0
LINE
  8
0
 10
108.38
 20
706.031
 11
108.595
 21
705.876
  0
LINE
  8
0
 10
108.595
 20
705.876
 11
108.788
 21
705.694
  0
LINE
  8
0
 10
108.788
 20
705.694
 11
108.957
 21
705.49
  0
LINE
  8
0
 10
108.957
 20
705.49
 11
109.099
 21
705.266
  0
LINE
  8
0
 10
109.099
 20
705.266
 11
109.211
 21
705.027
  0
LINE
  8
0
 10
109.211
 20
705.027
 11
109.293
 21
704.775
  0
LINE
  8
0
 10
109.293
 20
704.775
 11
109.343
 21
704.514
  0
LINE
  8
0
 10
109.343
 20
704.514
 11
109.36
 21
704.25
  0
LINE
  8
0
 10
109.36
 20
704.25
 11
109.36
 21
519.75
  0
LINE
  8
0
 10
109.36
 20
519.75
 11
109.343
 21
519.486
  0
LINE
  8
0
 10
109.343
 20
519.486
 11
109.293
 21
519.225
  0
LINE
  8
0
 10
109.293
 20
519.225
 11
109.211
 21
518.973
  0
LINE
  8
0
 10
109.211
 20
518.973
 11
109.099
 21
518.734
  0
LINE
  8
0
 10
109.099
 20
518.734
 11
108.957
 21
518.51
  0
LINE
  8
0
 10
108.957
 20
518.51
 11
108.788
 21
518.306
  0
LINE
  8
0
 10
108.788
 20
518.306
 11
108.595
 21
518.124
  0
LINE
  8
0
 10
108.595
 20
518.124
 11
108.38
 21
517.969
  0
LINE
  8
0
 10
108.38
 20
517.969
 11
108.148
 21
517.841
  0
LINE
  8
0
 10
108.148
 20
517.841
 11
107.902
 21
517.744
  0
LINE
  8
0
 10
107.902
 20
517.744
 11
107.645
 21
517.678
  0
LINE
  8
0
 10
107.645
 20
517.678
 11
107.382
 21
517.645
  0
LINE
  8
0
 10
107.382
 20
517.645
 11
-107.382
 21
517.645
  0
ENDSEC
  0
SECTION
  2
OBJECTS
  0
DICTIONARY
  0
ENDSEC
  0
EOF
