<?xml version="1.0" standalone="no"?>
<!DOCTYPE svg PUBLIC "-//W3C//DTD SVG 1.1//EN" "http://www.w3.org/Graphics/SVG/1.1/DTD/svg11.dtd">
<svg width="32mm" height="32mm" viewBox="-16 -16 32 32" xmlns="http://www.w3.org/2000/svg" version="1.1">
<title>OpenSCAD Model</title>
<path d="
M 0.884521,14.9988 L 0.982666,14.9927 L 1.08076,14.9859 L 1.11827,14.9831 L 1.2247,14.9316 L 1.26839,14.8318
 L 1.27646,14.7219 L 1.29799,14.6135 L 1.33263,14.5074 L 1.37994,14.4043 L 1.47218,14.2942 L 1.58646,14.2082
 L 1.71706,14.1479 L 1.85823,14.1147 L 2.00317,14.1102 L 2.14494,14.1346 L 2.27757,14.1882 L 2.39519,14.2707
 L 2.46739,14.358 L 2.52832,14.4515 L 2.57729,14.5506 L 2.61356,14.6547 L 2.68147,14.7399 L 2.79773,14.762
 L 2.83469,14.755 L 2.9312,14.7362 L 3.02759,14.7167 L 3.06439,14.709 L 3.16319,14.644 L 3.19348,14.5393
 L 3.18712,14.4293 L 3.19434,14.3191 L 3.21481,14.2093 L 3.24828,14.101 L 3.32536,13.9797 L 3.42743,13.8795
 L 3.54903,13.8027 L 3.68468,13.7514 L 3.82779,13.728 L 3.97153,13.7337 L 4.11002,13.7695 L 4.2374,13.836
 L 4.32037,13.9131 L 4.39299,13.9979 L 4.45447,14.0898 L 4.50403,14.1882 L 4.58247,14.2637 L 4.70062,14.2705
 L 4.73636,14.2588 L 4.82957,14.2275 L 4.92259,14.1956 L 4.95808,14.1832 L 5.04756,14.1059 L 5.06392,13.9981
 L 5.04326,13.8899 L 5.03603,13.7796 L 5.04201,13.6682 L 5.06104,13.5564 L 5.12163,13.4261 L 5.20975,13.3134
 L 5.32028,13.2214 L 5.44807,13.1528 L 5.5869,13.1109 L 5.73016,13.0979 L 5.87213,13.1152 L 6.0071,13.1645
 L 6.09944,13.2301 L 6.18251,13.3047 L 6.25545,13.3878 L 6.31743,13.4789 L 6.40506,13.5436 L 6.5231,13.5349
 L 6.55699,13.5186 L 6.64532,13.4754 L 6.73338,13.4316 L 6.76695,13.4146 L 6.84557,13.3264 L 6.84772,13.2174
 L 6.81311,13.1128 L 6.79153,13.0044 L 6.78291,12.8931 L 6.7872,12.7798 L 6.83028,12.6427 L 6.90292,12.5195
 L 7.0005,12.4138 L 7.11826,12.3292 L 7.25043,12.2695 L 7.39076,12.2379 L 7.53378,12.2366 L 7.67401,12.2678
 L 7.77414,12.3208 L 7.86623,12.3839 L 7.94939,12.4567 L 8.02272,12.539 L 8.11806,12.5917 L 8.23395,12.5677
 L 8.26543,12.5471 L 8.34737,12.4927 L 8.42896,12.4378 L 8.46002,12.4166 L 8.52644,12.3188 L 8.51434,12.2105
 L 8.46638,12.1113 L 8.43085,12.0067 L 8.40778,11.8974 L 8.39723,11.7845 L 8.42204,11.643 L 8.478,11.5114
 L 8.56094,11.3939 L 8.66664,11.2946 L 8.7899,11.2182 L 8.9249,11.1685 L 9.06651,11.1485 L 9.20963,11.1612
 L 9.31583,11.2007 L 9.41536,11.2512 L 9.50731,11.3126 L 9.59076,11.3845 L 9.69215,11.4243 L 9.80392,11.3854
 L 9.83243,11.3609 L 9.90659,11.2963 L 9.9803,11.2312 L 10.0083,11.2061 L 10.0614,11.1005 L 10.0353,10.9947
 L 9.97481,10.9026 L 9.9259,10.8035 L 9.88878,10.6982 L 9.86359,10.5877 L 9.86972,10.4441 L 9.908,10.3063
 L 9.9749,10.179 L 10.0667,10.0667 L 10.179,9.9749 L 10.3063,9.908 L 10.4441,9.86972 L 10.5877,9.86359
 L 10.6981,9.8889 L 10.8034,9.92603 L 10.9026,9.97484 L 10.9947,10.0353 L 11.1004,10.0615 L 11.2061,10.0083
 L 11.2312,9.9803 L 11.2963,9.90659 L 11.3609,9.83243 L 11.3854,9.80392 L 11.4243,9.69226 L 11.3845,9.59076
 L 11.3125,9.50735 L 11.2511,9.41548 L 11.2006,9.31596 L 11.1612,9.20963 L 11.1485,9.06651 L 11.1685,8.9249
 L 11.2182,8.7899 L 11.2946,8.66664 L 11.3939,8.56094 L 11.5114,8.478 L 11.643,8.42204 L 11.7845,8.39723
 L 11.8973,8.40791 L 12.0066,8.43097 L 12.1113,8.46643 L 12.2105,8.51434 L 12.3187,8.52655 L 12.4166,8.46002
 L 12.4378,8.42896 L 12.4927,8.34737 L 12.5471,8.26543 L 12.5677,8.23395 L 12.5916,8.11818 L 12.539,8.02272
 L 12.4567,7.94943 L 12.3839,7.86636 L 12.3207,7.77429 L 12.2678,7.67401 L 12.2366,7.53378 L 12.2379,7.39076
 L 12.2695,7.25043 L 12.3292,7.11826 L 12.4138,7.0005 L 12.5195,6.90292 L 12.6427,6.83028 L 12.7798,6.7872
 L 12.893,6.78307 L 13.0043,6.79167 L 13.1127,6.81316 L 13.2174,6.84772 L 13.3263,6.84569 L 13.4146,6.76695
 L 13.4316,6.73338 L 13.4754,6.64532 L 13.5186,6.55699 L 13.5349,6.5231 L 13.5435,6.4052 L 13.4789,6.31743
 L 13.3878,6.25549 L 13.3047,6.18265 L 13.2301,6.09959 L 13.1645,6.0071 L 13.1152,5.87213 L 13.0979,5.73016
 L 13.1109,5.5869 L 13.1528,5.44807 L 13.2214,5.32028 L 13.3134,5.20975 L 13.4261,5.12163 L 13.5564,5.06104
 L 13.6681,5.04216 L 13.7796,5.03616 L 13.8899,5.04332 L 13.9981,5.06392 L 14.1058,5.0477 L 14.1832,4.95808
 L 14.1956,4.92259 L 14.2275,4.82957 L 14.2588,4.73636 L 14.2705,4.70062 L 14.2637,4.58261 L 14.1882,4.50403
 L 14.0897,4.45453 L 13.9978,4.39314 L 13.9131,4.32054 L 13.836,4.2374 L 13.7695,4.11002 L 13.7337,3.97153
 L 13.728,3.82779 L 13.7514,3.68468 L 13.8027,3.54903 L 13.8795,3.42743 L 13.9797,3.32536 L 14.101,3.24828
 L 14.2093,3.21498 L 14.319,3.19449 L 14.4293,3.18718 L 14.5393,3.19348 L 14.644,3.16333 L 14.709,3.06439
 L 14.7167,3.02759 L 14.7362,2.9312 L 14.755,2.83469 L 14.762,2.79773 L 14.7398,2.68161 L 14.6547,2.61356
 L 14.5506,2.57733 L 14.4515,2.52847 L 14.358,2.46756 L 14.2707,2.39519 L 14.1882,2.27757 L 14.1346,2.14494
 L 14.1102,2.00317 L 14.1147,1.85823 L 14.1479,1.71706 L 14.2082,1.58646 L 14.2942,1.47218 L 14.4043,1.37994
 L 14.5074,1.33279 L 14.6135,1.29814 L 14.7219,1.2765 L 14.8318,1.26839 L 14.9316,1.22484 L 14.9831,1.11827
 L 14.9859,1.08076 L 14.9927,0.982666 L 14.9988,0.884521 L 15.0009,0.84697 L 14.9638,0.734741 L 14.8705,0.678375
 L 14.7626,0.656052 L 14.6579,0.620544 L 14.5572,0.572357 L 14.4612,0.511993 L 14.3641,0.406158 L 14.2937,0.281647
 L 14.2509,0.144287 L 14.2365,-0 L 14.2509,-0.144287 L 14.2937,-0.281647 L 14.3641,-0.406158 L 14.4612,-0.511993
 L 14.5572,-0.572189 L 14.6579,-0.620392 L 14.7626,-0.655991 L 14.8705,-0.678375 L 14.9638,-0.734589 L 15.0009,-0.84697
 L 14.9988,-0.884521 L 14.9927,-0.982666 L 14.9859,-1.08076 L 14.9831,-1.11827 L 14.9316,-1.2247 L 14.8318,-1.26839
 L 14.7219,-1.27646 L 14.6135,-1.29799 L 14.5074,-1.33263 L 14.4043,-1.37994 L 14.2942,-1.47218 L 14.2082,-1.58646
 L 14.1479,-1.71706 L 14.1147,-1.85823 L 14.1102,-2.00317 L 14.1346,-2.14494 L 14.1882,-2.27757 L 14.2707,-2.39519
 L 14.358,-2.46739 L 14.4515,-2.52832 L 14.5506,-2.57729 L 14.6547,-2.61356 L 14.7399,-2.68147 L 14.762,-2.79773
 L 14.755,-2.83469 L 14.7362,-2.9312 L 14.7167,-3.02759 L 14.709,-3.06439 L 14.644,-3.16319 L 14.5393,-3.19348
 L 14.4293,-3.18712 L 14.3191,-3.19434 L 14.2093,-3.21481 L 14.101,-3.24828 L 13.9797,-3.32536 L 13.8795,-3.42743
 L 13.8027,-3.54903 L 13.7514,-3.68468 L 13.728,-3.82779 L 13.7337,-3.97153 L 13.7695,-4.11002 L 13.836,-4.2374
 L 13.9131,-4.32037 L 13.9979,-4.39299 L 14.0898,-4.45447 L 14.1882,-4.50403 L 14.2637,-4.58247 L 14.2705,-4.70062
 L 14.2588,-4.73636 L 14.2275,-4.82957 L 14.1956,-4.92259 L 14.1832,-4.95808 L 14.1059,-5.04756 L 13.9981,-5.06392
 L 13.8899,-5.04326 L 13.7796,-5.03603 L 13.6682,-5.04201 L 13.5564,-5.06104 L 13.4261,-5.12163 L 13.3134,-5.20975
 L 13.2214,-5.32028 L 13.1528,-5.44807 L 13.1109,-5.5869 L 13.0979,-5.73016 L 13.1152,-5.87213 L 13.1645,-6.0071
 L 13.2301,-6.09944 L 13.3047,-6.18251 L 13.3878,-6.25545 L 13.4789,-6.31743 L 13.5436,-6.40506 L 13.5349,-6.5231
 L 13.5186,-6.55699 L 13.4754,-6.64532 L 13.4316,-6.73338 L 13.4146,-6.76695 L 13.3264,-6.84557 L 13.2174,-6.84772
 L 13.1128,-6.81311 L 13.0044,-6.79153 L 12.8931,-6.78291 L 12.7798,-6.7872 L 12.6427,-6.83028 L 12.5195,-6.90292
 L 12.4138,-7.0005 L 12.3292,-7.11826 L 12.2695,-7.25043 L 12.2379,-7.39076 L 12.2366,-7.53378 L 12.2678,-7.67401
 L 12.3208,-7.77414 L 12.3839,-7.86623 L 12.4567,-7.94939 L 12.539,-8.02272 L 12.5917,-8.11806 L 12.5677,-8.23395
 L 12.5471,-8.26543 L 12.4927,-8.34737 L 12.4378,-8.42896 L 12.4166,-8.46002 L 12.3188,-8.52644 L 12.2105,-8.51434
 L 12.1113,-8.46638 L 12.0067,-8.43085 L 11.8974,-8.40778 L 11.7845,-8.39723 L 11.643,-8.42204 L 11.5114,-8.478
 L 11.3939,-8.56094 L 11.2946,-8.66664 L 11.2182,-8.7899 L 11.1685,-8.9249 L 11.1485,-9.06651 L 11.1612,-9.20963
 L 11.2007,-9.31583 L 11.2512,-9.41536 L 11.3126,-9.50731 L 11.3845,-9.59076 L 11.4243,-9.69215 L 11.3854,-9.80392
 L 11.3609,-9.83243 L 11.2963,-9.90659 L 11.2312,-9.9803 L 11.2061,-10.0083 L 11.1005,-10.0614 L 10.9947,-10.0353
 L 10.9026,-9.97481 L 10.8035,-9.9259 L 10.6982,-9.88878 L 10.5877,-9.86359 L 10.4441,-9.86972 L 10.3063,-9.908
 L 10.179,-9.9749 L 10.0667,-10.0667 L 9.9749,-10.179 L 9.908,-10.3063 L 9.86972,-10.4441 L 9.86359,-10.5877
 L 9.8889,-10.6981 L 9.92603,-10.8034 L 9.97484,-10.9026 L 10.0353,-10.9947 L 10.0615,-11.1004 L 10.0083,-11.2061
 L 9.9803,-11.2312 L 9.90659,-11.2963 L 9.83243,-11.3609 L 9.80392,-11.3854 L 9.69226,-11.4243 L 9.59076,-11.3845
 L 9.50735,-11.3125 L 9.41548,-11.2511 L 9.31596,-11.2006 L 9.20963,-11.1612 L 9.06651,-11.1485 L 8.9249,-11.1685
 L 8.7899,-11.2182 L 8.66664,-11.2946 L 8.56094,-11.3939 L 8.478,-11.5114 L 8.42204,-11.643 L 8.39723,-11.7845
 L 8.40791,-11.8973 L 8.43097,-12.0066 L 8.46643,-12.1113 L 8.51434,-12.2105 L 8.52655,-12.3187 L 8.46002,-12.4166
 L 8.42896,-12.4378 L 8.34737,-12.4927 L 8.26543,-12.5471 L 8.23395,-12.5677 L 8.11818,-12.5916 L 8.02272,-12.539
 L 7.94943,-12.4567 L 7.86636,-12.3839 L 7.77429,-12.3207 L 7.67401,-12.2678 L 7.53378,-12.2366 L 7.39076,-12.2379
 L 7.25043,-12.2695 L 7.11826,-12.3292 L 7.0005,-12.4138 L 6.90292,-12.5195 L 6.83028,-12.6427 L 6.7872,-12.7798
 L 6.78307,-12.893 L 6.79167,-13.0043 L 6.81316,-13.1127 L 6.84772,-13.2174 L 6.84569,-13.3263 L 6.76695,-13.4146
 L 6.73338,-13.4316 L 6.64532,-13.4754 L 6.55699,-13.5186 L 6.5231,-13.5349 L 6.4052,-13.5435 L 6.31743,-13.4789
 L 6.25549,-13.3878 L 6.18265,-13.3047 L 6.09959,-13.2301 L 6.0071,-13.1645 L 5.87213,-13.1152 L 5.73016,-13.0979
 L 5.5869,-13.1109 L 5.44807,-13.1528 L 5.32028,-13.2214 L 5.20975,-13.3134 L 5.12163,-13.4261 L 5.06104,-13.5564
 L 5.04216,-13.6681 L 5.03616,-13.7796 L 5.04332,-13.8899 L 5.06392,-13.9981 L 5.0477,-14.1058 L 4.95808,-14.1832
 L 4.92259,-14.1956 L 4.82957,-14.2275 L 4.73636,-14.2588 L 4.70062,-14.2705 L 4.58261,-14.2637 L 4.50403,-14.1882
 L 4.45453,-14.0897 L 4.39314,-13.9978 L 4.32054,-13.9131 L 4.2374,-13.836 L 4.11002,-13.7695 L 3.97153,-13.7337
 L 3.82779,-13.728 L 3.68468,-13.7514 L 3.54903,-13.8027 L 3.42743,-13.8795 L 3.32536,-13.9797 L 3.24828,-14.101
 L 3.21498,-14.2093 L 3.19449,-14.319 L 3.18718,-14.4293 L 3.19348,-14.5393 L 3.16333,-14.644 L 3.06439,-14.709
 L 3.02759,-14.7167 L 2.9312,-14.7362 L 2.83469,-14.755 L 2.79773,-14.762 L 2.68161,-14.7398 L 2.61356,-14.6547
 L 2.57733,-14.5506 L 2.52847,-14.4515 L 2.46756,-14.358 L 2.39519,-14.2707 L 2.27757,-14.1882 L 2.14494,-14.1346
 L 2.00317,-14.1102 L 1.85823,-14.1147 L 1.71706,-14.1479 L 1.58646,-14.2082 L 1.47218,-14.2942 L 1.37994,-14.4043
 L 1.33279,-14.5074 L 1.29814,-14.6135 L 1.2765,-14.7219 L 1.26839,-14.8318 L 1.22484,-14.9316 L 1.11827,-14.9831
 L 1.08076,-14.9859 L 0.982666,-14.9927 L 0.884521,-14.9988 L 0.84697,-15.0009 L 0.734741,-14.9638 L 0.678375,-14.8705
 L 0.656052,-14.7626 L 0.620544,-14.6579 L 0.572357,-14.5572 L 0.511993,-14.4612 L 0.406158,-14.3641 L 0.281647,-14.2937
 L 0.144287,-14.2509 L 0,-14.2365 L -0.144287,-14.2509 L -0.281647,-14.2937 L -0.406158,-14.3641 L -0.511993,-14.4612
 L -0.572189,-14.5572 L -0.620392,-14.6579 L -0.655991,-14.7626 L -0.678375,-14.8705 L -0.734589,-14.9638 L -0.84697,-15.0009
 L -0.884521,-14.9988 L -0.982666,-14.9927 L -1.08076,-14.9859 L -1.11827,-14.9831 L -1.2247,-14.9316 L -1.26839,-14.8318
 L -1.27646,-14.7219 L -1.29799,-14.6135 L -1.33263,-14.5074 L -1.37994,-14.4043 L -1.47218,-14.2942 L -1.58646,-14.2082
 L -1.71706,-14.1479 L -1.85823,-14.1147 L -2.00317,-14.1102 L -2.14494,-14.1346 L -2.27757,-14.1882 L -2.39519,-14.2707
 L -2.46739,-14.358 L -2.52832,-14.4515 L -2.57729,-14.5506 L -2.61356,-14.6547 L -2.68147,-14.7399 L -2.79773,-14.762
 L -2.83469,-14.755 L -2.9312,-14.7362 L -3.02759,-14.7167 L -3.06439,-14.709 L -3.16319,-14.644 L -3.19348,-14.5393
 L -3.18712,-14.4293 L -3.19434,-14.3191 L -3.21481,-14.2093 L -3.24828,-14.101 L -3.32536,-13.9797 L -3.42743,-13.8795
 L -3.54903,-13.8027 L -3.68468,-13.7514 L -3.82779,-13.728 L -3.97153,-13.7337 L -4.11002,-13.7695 L -4.2374,-13.836
 L -4.32037,-13.9131 L -4.39299,-13.9979 L -4.45447,-14.0898 L -4.50403,-14.1882 L -4.58247,-14.2637 L -4.70062,-14.2705
 L -4.73636,-14.2588 L -4.82957,-14.2275 L -4.92259,-14.1956 L -4.95808,-14.1832 L -5.04756,-14.1059 L -5.06392,-13.9981
 L -5.04326,-13.8899 L -5.03603,-13.7796 L -5.04201,-13.6682 L -5.06104,-13.5564 L -5.12163,-13.4261 L -5.20975,-13.3134
 L -5.32028,-13.2214 L -5.44807,-13.1528 L -5.5869,-13.1109 L -5.73016,-13.0979 L -5.87213,-13.1152 L -6.0071,-13.1645
 L -6.09944,-13.2301 L -6.18251,-13.3047 L -6.25545,-13.3878 L -6.31743,-13.4789 L -6.40506,-13.5436 L -6.5231,-13.5349
 L -6.55699,-13.5186 L -6.64532,-13.4754 L -6.73338,-13.4316 L -6.76695,-13.4146 L -6.84557,-13.3264 L -6.84772,-13.2174
 L -6.81311,-13.1128 L -6.79153,-13.0044 L -6.78291,-12.8931 L -6.7872,-12.7798 L -6.83028,-12.6427 L -6.90292,-12.5195
 L -7.0005,-12.4138 L -7.11826,-12.3292 L -7.25043,-12.2695 L -7.39076,-12.2379 L -7.53378,-12.2366 L -7.67401,-12.2678
 L -7.77414,-12.3208 L -7.86623,-12.3839 L -7.94939,-12.4567 L -8.02272,-12.539 L -8.11806,-12.5917 L -8.23395,-12.5677
 L -8.26543,-12.5471 L -8.34737,-12.4927 L -8.42896,-12.4378 L -8.46002,-12.4166 L -8.52644,-12.3188 L -8.51434,-12.2105
 L -8.46638,-12.1113 L -8.43085,-12.0067 L -8.40778,-11.8974 L -8.39723,-11.7845 L -8.42204,-11.643 L -8.478,-11.5114
 L -8.56094,-11.3939 L -8.66664,-11.2946 L -8.7899,-11.2182 L -8.9249,-11.1685 L -9.06651,-11.1485 L -9.20963,-11.1612
 L -9.31583,-11.2007 L -9.41536,-11.2512 L -9.50731,-11.3126 L -9.59076,-11.3845 L -9.69215,-11.4243 L -9.80392,-11.3854
 L -9.83243,-11.3609 L -9.90659,-11.2963 L -9.9803,-11.2312 L -10.0083,-11.2061 L -10.0614,-11.1005 L -10.0353,-10.9947
 L -9.97481,-10.9026 L -9.9259,-10.8035 L -9.88878,-10.6982 L -9.86359,-10.5877 L -9.86972,-10.4441 L -9.908,-10.3063
 L -9.9749,-10.179 L -10.0667,-10.0667 L -10.179,-9.9749 L -10.3063,-9.908 L -10.4441,-9.86972 L -10.5877,-9.86359
 L -10.6981,-9.8889 L -10.8034,-9.92603 L -10.9026,-9.97484 L -10.9947,-10.0353 L -11.1004,-10.0615 L -11.2061,-10.0083
 L -11.2312,-9.9803 L -11.2963,-9.90659 L -11.3609,-9.83243 L -11.3854,-9.80392 L -11.4243,-9.69226 L -11.3845,-9.59076
 L -11.3125,-9.50735 L -11.2511,-9.41548 L -11.2006,-9.31596 L -11.1612,-9.20963 L -11.1485,-9.06651 L -11.1685,-8.9249
 L -11.2182,-8.7899 L -11.2946,-8.66664 L -11.3939,-8.56094 L -11.5114,-8.478 L -11.643,-8.42204 L -11.7845,-8.39723
 L -11.8973,-8.40791 L -12.0066,-8.43097 L -12.1113,-8.46643 L -12.2105,-8.51434 L -12.3187,-8.52655 L -12.4166,-8.46002
 L -12.4378,-8.42896 L -12.4927,-8.34737 L -12.5471,-8.26543 L -12.5677,-8.23395 L -12.5916,-8.11818 L -12.539,-8.02272
 L -12.4567,-7.94943 L -12.3839,-7.86636 L -12.3207,-7.77429 L -12.2678,-7.67401 L -12.2366,-7.53378 L -12.2379,-7.39076
 L -12.2695,-7.25043 L -12.3292,-7.11826 L -12.4138,-7.0005 L -12.5195,-6.90292 L -12.6427,-6.83028 L -12.7798,-6.7872
 L -12.893,-6.78307 L -13.0043,-6.79167 L -13.1127,-6.81316 L -13.2174,-6.84772 L -13.3263,-6.84569 L -13.4146,-6.76695
 L -13.4316,-6.73338 L -13.4754,-6.64532 L -13.5186,-6.55699 L -13.5349,-6.5231 L -13.5435,-6.4052 L -13.4789,-6.31743
 L -13.3878,-6.25549 L -13.3047,-6.18265 L -13.2301,-6.09959 L -13.1645,-6.0071 L -13.1152,-5.87213 L -13.0979,-5.73016
 L -13.1109,-5.5869 L -13.1528,-5.44807 L -13.2214,-5.32028 L -13.3134,-5.20975 L -13.4261,-5.12163 L -13.5564,-5.06104
 L -13.6681,-5.04216 L -13.7796,-5.03616 L -13.8899,-5.04332 L -13.9981,-5.06392 L -14.1058,-5.0477 L -14.1832,-4.95808
 L -14.1956,-4.92259 L -14.2275,-4.82957 L -14.2588,-4.73636 L -14.2705,-4.70062 L -14.2637,-4.58261 L -14.1882,-4.50403
 L -14.0897,-4.45453 L -13.9978,-4.39314 L -13.9131,-4.32054 L -13.836,-4.2374 L -13.7695,-4.11002 L -13.7337,-3.97153
 L -13.728,-3.82779 L -13.7514,-3.68468 L -13.8027,-3.54903 L -13.8795,-3.42743 L -13.9797,-3.32536 L -14.101,-3.24828
 L -14.2093,-3.21498 L -14.319,-3.19449 L -14.4293,-3.18718 L -14.5393,-3.19348 L -14.644,-3.16333 L -14.709,-3.06439
 L -14.7167,-3.02759 L -14.7362,-2.9312 L -14.755,-2.83469 L -14.762,-2.79773 L -14.7398,-2.68161 L -14.6547,-2.61356
 L -14.5506,-2.57733 L -14.4515,-2.52847 L -14.358,-2.46756 L -14.2707,-2.39519 L -14.1882,-2.27757 L -14.1346,-2.14494
 L -14.1102,-2.00317 L -14.1147,-1.85823 L -14.1479,-1.71706 L -14.2082,-1.58646 L -14.2942,-1.47218 L -14.4043,-1.37994
 L -14.5074,-1.33279 L -14.6135,-1.29814 L -14.7219,-1.2765 L -14.8318,-1.26839 L -14.9316,-1.22484 L -14.9831,-1.11827
 L -14.9859,-1.08076 L -14.9927,-0.982666 L -14.9988,-0.884521 L -15.0009,-0.84697 L -14.9638,-0.734741 L -14.8705,-0.678375
 L -14.7626,-0.656052 L -14.6579,-0.620544 L -14.5572,-0.572357 L -14.4612,-0.511993 L -14.3641,-0.406158 L -14.2937,-0.281647
 L -14.2509,-0.144287 L -14.2365,-0 L -14.2509,0.144287 L -14.2937,0.281647 L -14.3641,0.406158 L -14.4612,0.511993
 L -14.5572,0.572189 L -14.6579,0.620392 L -14.7626,0.655991 L -14.8705,0.678375 L -14.9638,0.734589 L -15.0009,0.84697
 L -14.9988,0.884521 L -14.9927,0.982666 L -14.9859,1.08076 L -14.9831,1.11827 L -14.9316,1.2247 L -14.8318,1.26839
 L -14.7219,1.27646 L -14.6135,1.29799 L -14.5074,1.33263 L -14.4043,1.37994 L -14.2942,1.47218 L -14.2082,1.58646
 L -14.1479,1.71706 L -14.1147,1.85823 L -14.1102,2.00317 L -14.1346,2.14494 L -14.1882,2.27757 L -14.2707,2.39519
 L -14.358,2.46739 L -14.4515,2.52832 L -14.5506,2.57729 L -14.6547,2.61356 L -14.7399,2.68147 L -14.762,2.79773
 L -14.755,2.83469 L -14.7362,2.9312 L -14.7167,3.02759 L -14.709,3.06439 L -14.644,3.16319 L -14.5393,3.19348
 L -14.4293,3.18712 L -14.3191,3.19434 L -14.2093,3.21481 L -14.101,3.24828 L -13.9797,3.32536 L -13.8795,3.42743
 L -13.8027,3.54903 L -13.7514,3.68468 L -13.728,3.82779 L -13.7337,3.97153 L -13.7695,4.11002 L -13.836,4.2374
 L -13.9131,4.32037 L -13.9979,4.39299 L -14.0898,4.45447 L -14.1882,4.50403 L -14.2637,4.58247 L -14.2705,4.70062
 L -14.2588,4.73636 L -14.2275,4.82957 L -14.1956,4.92259 L -14.1832,4.95808 L -14.1059,5.04756 L -13.9981,5.06392
 L -13.8899,5.04326 L -13.7796,5.03603 L -13.6682,5.04201 L -13.5564,5.06104 L -13.4261,5.12163 L -13.3134,5.20975
 L -13.2214,5.32028 L -13.1528,5.44807 L -13.1109,5.5869 L -13.0979,5.73016 L -13.1152,5.87213 L -13.1645,6.0071
 L -13.2301,6.09944 L -13.3047,6.18251 L -13.3878,6.25545 L -13.4789,6.31743 L -13.5436,6.40506 L -13.5349,6.5231
 L -13.5186,6.55699 L -13.4754,6.64532 L -13.4316,6.73338 L -13.4146,6.76695 L -13.3264,6.84557 L -13.2174,6.84772
 L -13.1128,6.81311 L -13.0044,6.79153 L -12.8931,6.78291 L -12.7798,6.7872 L -12.6427,6.83028 L -12.5195,6.90292
 L -12.4138,7.0005 L -12.3292,7.11826 L -12.2695,7.25043 L -12.2379,7.39076 L -12.2366,7.53378 L -12.2678,7.67401
 L -12.3208,7.77414 L -12.3839,7.86623 L -12.4567,7.94939 L -12.539,8.02272 L -12.5917,8.11806 L -12.5677,8.23395
 L -12.5471,8.26543 L -12.4927,8.34737 L -12.4378,8.42896 L -12.4166,8.46002 L -12.3188,8.52644 L -12.2105,8.51434
 L -12.1113,8.46638 L -12.0067,8.43085 L -11.8974,8.40778 L -11.7845,8.39723 L -11.643,8.42204 L -11.5114,8.478
 L -11.3939,8.56094 L -11.2946,8.66664 L -11.2182,8.7899 L -11.1685,8.9249 L -11.1485,9.06651 L -11.1612,9.20963
 L -11.2007,9.31583 L -11.2512,9.41536 L -11.3126,9.50731 L -11.3845,9.59076 L -11.4243,9.69215 L -11.3854,9.80392
 L -11.3609,9.83243 L -11.2963,9.90659 L -11.2312,9.9803 L -11.2061,10.0083 L -11.1005,10.0614 L -10.9947,10.0353
 L -10.9026,9.97481 L -10.8035,9.9259 L -10.6982,9.88878 L -10.5877,9.86359 L -10.4441,9.86972 L -10.3063,9.908
 L -10.179,9.9749 L -10.0667,10.0667 L -9.9749,10.179 L -9.908,10.3063 L -9.86972,10.4441 L -9.86359,10.5877
 L -9.8889,10.6981 L -9.92603,10.8034 L -9.97484,10.9026 L -10.0353,10.9947 L -10.0615,11.1004 L -10.0083,11.2061
 L -9.9803,11.2312 L -9.90659,11.2963 L -9.83243,11.3609 L -9.80392,11.3854 L -9.69226,11.4243 L -9.59076,11.3845
 L -9.50735,11.3125 L -9.41548,11.2511 L -9.31596,11.2006 L -9.20963,11.1612 L -9.06651,11.1485 L -8.9249,11.1685
 L -8.7899,11.2182 L -8.66664,11.2946 L -8.56094,11.3939 L -8.478,11.5114 L -8.42204,11.643 L -8.39723,11.7845
 L -8.40791,11.8973 L -8.43097,12.0066 L -8.46643,12.1113 L -8.51434,12.2105 L -8.52655,12.3187 L -8.46002,12.4166
 L -8.42896,12.4378 L -8.34737,12.4927 L -8.26543,12.5471 L -8.23395,12.5677 L -8.11818,12.5916 L -8.02272,12.539
 L -7.94943,12.4567 L -7.86636,12.3839 L -7.77429,12.3207 L -7.67401,12.2678 L -7.53378,12.2366 L -7.39076,12.2379
 L -7.25043,12.2695 L -7.11826,12.3292 L -7.0005,12.4138 L -6.90292,12.5195 L -6.83028,12.6427 L -6.7872,12.7798
 L -6.78307,12.893 L -6.79167,13.0043 L -6.81316,13.1127 L -6.84772,13.2174 L -6.84569,13.3263 L -6.76695,13.4146
 L -6.73338,13.4316 L -6.64532,13.4754 L -6.55699,13.5186 L -6.5231,13.5349 L -6.4052,13.5435 L -6.31743,13.4789
 L -6.25549,13.3878 L -6.18265,13.3047 L -6.09959,13.2301 L -6.0071,13.1645 L -5.87213,13.1152 L -5.73016,13.0979
 L -5.5869,13.1109 L -5.44807,13.1528 L -5.32028,13.2214 L -5.20975,13.3134 L -5.12163,13.4261 L -5.06104,13.5564
 L -5.04216,13.6681 L -5.03616,13.7796 L -5.04332,13.8899 L -5.06392,13.9981 L -5.0477,14.1058 L -4.95808,14.1832
 L -4.92259,14.1956 L -4.82957,14.2275 L -4.73636,14.2588 L -4.70062,14.2705 L -4.58261,14.2637 L -4.50403,14.1882
 L -4.45453,14.0897 L -4.39314,13.9978 L -4.32054,13.9131 L -4.2374,13.836 L -4.11002,13.7695 L -3.97153,13.7337
 L -3.82779,13.728 L -3.68468,13.7514 L -3.54903,13.8027 L -3.42743,13.8795 L -3.32536,13.9797 L -3.24828,14.101
 L -3.21498,14.2093 L -3.19449,14.319 L -3.18718,14.4293 L -3.19348,14.5393 L -3.16333,14.644 L -3.06439,14.709
 L -3.02759,14.7167 L -2.9312,14.7362 L -2.83469,14.755 L -2.79773,14.762 L -2.68161,14.7398 L -2.61356,14.6547
 L -2.57733,14.5506 L -2.52847,14.4515 L -2.46756,14.358 L -2.39519,14.2707 L -2.27757,14.1882 L -2.14494,14.1346
 L -2.00317,14.1102 L -1.85823,14.1147 L -1.71706,14.1479 L -1.58646,14.2082 L -1.47218,14.2942 L -1.37994,14.4043
 L -1.33279,14.5074 L -1.29814,14.6135 L -1.2765,14.7219 L -1.26839,14.8318 L -1.22484,14.9316 L -1.11827,14.9831
 L -1.08076,14.9859 L -0.982666,14.9927 L -0.884521,14.9988 L -0.84697,15.0009 L -0.734741,14.9638 L -0.678375,14.8705
 L -0.656052,14.7626 L -0.620544,14.6579 L -0.572357,14.5572 L -0.511993,14.4612 L -0.406158,14.3641 L -0.281647,14.2937
 L -0.144287,14.2509 L 0,14.2365 L 0.144287,14.2509 L 0.281647,14.2937 L 0.406158,14.3641 L 0.511993,14.4612
 L 0.572189,14.5572 L 0.620392,14.6579 L 0.655991,14.7626 L 0.678375,14.8705 L 0.734589,14.9638 L 0.84697,15.0009
 z
M -0.0941772,-6.00294 L -0.281067,-6.02657 L -0.463516,-6.07341 L -0.638657,-6.14275 L -0.803726,-6.23351 L -0.956131,-6.34422
 L -1.09344,-6.47318 L -1.21352,-6.61832 L -1.31445,-6.77736 L -1.39465,-6.9478 L -1.45287,-7.12695 L -1.48816,-7.312
 L -1.5,-7.5 L -1.48816,-7.68799 L -1.45287,-7.87303 L -1.39465,-8.05219 L -1.31445,-8.22263 L -1.21352,-8.38167
 L -1.09344,-8.52681 L -0.956131,-8.65576 L -0.803726,-8.76648 L -0.638657,-8.85724 L -0.463516,-8.92657 L -0.281067,-8.97342
 L -0.0941772,-8.99704 L 0.0941772,-8.99704 L 0.281067,-8.97342 L 0.463516,-8.92657 L 0.638657,-8.85724 L 0.803726,-8.76648
 L 0.956131,-8.65576 L 1.09344,-8.52681 L 1.21352,-8.38167 L 1.31445,-8.22263 L 1.39465,-8.05219 L 1.45287,-7.87303
 L 1.48816,-7.68799 L 1.5,-7.5 L 1.48816,-7.312 L 1.45287,-7.12695 L 1.39465,-6.9478 L 1.31445,-6.77736
 L 1.21352,-6.61832 L 1.09344,-6.47318 L 0.956131,-6.34422 L 0.803726,-6.23351 L 0.638657,-6.14275 L 0.463516,-6.07341
 L 0.281067,-6.02657 L 0.0941772,-6.00294 z
M -5.41602,-3.50655 L -5.64027,-3.53488 L -5.85922,-3.59109 L -6.0694,-3.6743 L -6.26749,-3.7832 L -6.45035,-3.91606
 L -6.61514,-4.0708 L -6.75922,-4.24498 L -6.88034,-4.43584 L -6.97659,-4.64037 L -7.04645,-4.85535 L -7.08879,-5.07739
 L -7.103,-5.30299 L -7.08879,-5.52859 L -7.04645,-5.75064 L -6.97659,-5.96562 L -6.88034,-6.17015 L -6.75922,-6.36101
 L -6.61514,-6.53517 L -6.45035,-6.68991 L -6.26749,-6.82278 L -6.0694,-6.93169 L -5.85922,-7.01489 L -5.64027,-7.07111
 L -5.41602,-7.09944 L -5.18997,-7.09944 L -4.96571,-7.07111 L -4.74677,-7.01489 L -4.53659,-6.93169 L -4.3385,-6.82278
 L -4.15562,-6.68991 L -3.99084,-6.53517 L -3.84676,-6.36101 L -3.72565,-6.17015 L -3.62939,-5.96562 L -3.55954,-5.75064
 L -3.51718,-5.52859 L -3.50299,-5.30299 L -3.51718,-5.07739 L -3.55954,-4.85535 L -3.62939,-4.64037 L -3.72565,-4.43584
 L -3.84676,-4.24498 L -3.99084,-4.0708 L -4.15562,-3.91606 L -4.3385,-3.7832 L -4.53659,-3.6743 L -4.74677,-3.59109
 L -4.96571,-3.53488 L -5.18997,-3.50655 z
M 5.18997,-3.50655 L 4.96571,-3.53488 L 4.74677,-3.59109 L 4.53659,-3.6743 L 4.3385,-3.7832 L 4.15562,-3.91606
 L 3.99084,-4.0708 L 3.84676,-4.24498 L 3.72565,-4.43584 L 3.62939,-4.64037 L 3.55954,-4.85535 L 3.51718,-5.07739
 L 3.50299,-5.30299 L 3.51718,-5.52859 L 3.55954,-5.75064 L 3.62939,-5.96562 L 3.72565,-6.17015 L 3.84676,-6.36101
 L 3.99084,-6.53517 L 4.15562,-6.68991 L 4.3385,-6.82278 L 4.53659,-6.93169 L 4.74677,-7.01489 L 4.96571,-7.07111
 L 5.18997,-7.09944 L 5.41602,-7.09944 L 5.64027,-7.07111 L 5.85922,-7.01489 L 6.0694,-6.93169 L 6.26749,-6.82278
 L 6.45035,-6.68991 L 6.61514,-6.53517 L 6.75922,-6.36101 L 6.88034,-6.17015 L 6.97659,-5.96562 L 7.04645,-5.75064
 L 7.08879,-5.52859 L 7.103,-5.30299 L 7.08879,-5.07739 L 7.04645,-4.85535 L 6.97659,-4.64037 L 6.88034,-4.43584
 L 6.75922,-4.24498 L 6.61514,-4.0708 L 6.45035,-3.91606 L 6.26749,-3.7832 L 6.0694,-3.6743 L 5.85922,-3.59109
 L 5.64027,-3.53488 L 5.41602,-3.50655 z
M -7.59418,1.49704 L -7.78107,1.47342 L -7.96352,1.42657 L -8.13866,1.35724 L -8.30373,1.26648 L -8.45613,1.15576
 L -8.59344,1.02681 L -8.71352,0.881668 L -8.81445,0.722626 L -8.89465,0.552185 L -8.95287,0.373032 L -8.98816,0.187988
 L -9,-0 L -8.98816,-0.187988 L -8.95287,-0.373032 L -8.89465,-0.552185 L -8.81445,-0.722626 L -8.71352,-0.881668
 L -8.59344,-1.02681 L -8.45613,-1.15576 L -8.30373,-1.26648 L -8.13866,-1.35724 L -7.96352,-1.42657 L -7.78107,-1.47342
 L -7.59418,-1.49704 L -7.40581,-1.49704 L -7.21892,-1.47342 L -7.03647,-1.42657 L -6.86133,-1.35724 L -6.69626,-1.26648
 L -6.54385,-1.15576 L -6.40654,-1.02681 L -6.28647,-0.881668 L -6.18553,-0.722626 L -6.10533,-0.552185 L -6.04712,-0.373032
 L -6.01183,-0.187988 L -6,-0 L -6.01183,0.187988 L -6.04712,0.373032 L -6.10533,0.552185 L -6.18553,0.722626
 L -6.28647,0.881668 L -6.40654,1.02681 L -6.54385,1.15576 L -6.69626,1.26648 L -6.86133,1.35724 L -7.03647,1.42657
 L -7.21892,1.47342 L -7.40581,1.49704 z
M 7.40581,1.49704 L 7.21892,1.47342 L 7.03647,1.42657 L 6.86133,1.35724 L 6.69626,1.26648 L 6.54385,1.15576
 L 6.40654,1.02681 L 6.28647,0.881668 L 6.18553,0.722626 L 6.10533,0.552185 L 6.04712,0.373032 L 6.01183,0.187988
 L 6,-0 L 6.01183,-0.187988 L 6.04712,-0.373032 L 6.10533,-0.552185 L 6.18553,-0.722626 L 6.28647,-0.881668
 L 6.40654,-1.02681 L 6.54385,-1.15576 L 6.69626,-1.26648 L 6.86133,-1.35724 L 7.03647,-1.42657 L 7.21892,-1.47342
 L 7.40581,-1.49704 L 7.59418,-1.49704 L 7.78107,-1.47342 L 7.96352,-1.42657 L 8.13866,-1.35724 L 8.30373,-1.26648
 L 8.45613,-1.15576 L 8.59344,-1.02681 L 8.71352,-0.881668 L 8.81445,-0.722626 L 8.89465,-0.552185 L 8.95287,-0.373032
 L 8.98816,-0.187988 L 9,-0 L 8.98816,0.187988 L 8.95287,0.373032 L 8.89465,0.552185 L 8.81445,0.722626
 L 8.71352,0.881668 L 8.59344,1.02681 L 8.45613,1.15576 L 8.30373,1.26648 L 8.13866,1.35724 L 7.96352,1.42657
 L 7.78107,1.47342 L 7.59418,1.49704 z
M -0.0941772,1.49704 L -0.281067,1.47342 L -0.463516,1.42657 L -0.638657,1.35724 L -0.803726,1.26648 L -0.956131,1.15576
 L -1.09344,1.02681 L -1.21352,0.881668 L -1.31445,0.722626 L -1.39465,0.552185 L -1.45287,0.373032 L -1.48816,0.187988
 L -1.5,-0 L -1.48816,-0.187988 L -1.45287,-0.373032 L -1.39465,-0.552185 L -1.31445,-0.722626 L -1.21352,-0.881668
 L -1.09344,-1.02681 L -0.956131,-1.15576 L -0.803726,-1.26648 L -0.638657,-1.35724 L -0.463516,-1.42657 L -0.281067,-1.47342
 L -0.0941772,-1.49704 L 0.0941772,-1.49704 L 0.281067,-1.47342 L 0.463516,-1.42657 L 0.638657,-1.35724 L 0.803726,-1.26648
 L 0.956131,-1.15576 L 1.09344,-1.02681 L 1.21352,-0.881668 L 1.31445,-0.722626 L 1.39465,-0.552185 L 1.45287,-0.373032
 L 1.48816,-0.187988 L 1.5,-0 L 1.48816,0.187988 L 1.45287,0.373032 L 1.39465,0.552185 L 1.31445,0.722626
 L 1.21352,0.881668 L 1.09344,1.02681 L 0.956131,1.15576 L 0.803726,1.26648 L 0.638657,1.35724 L 0.463516,1.42657
 L 0.281067,1.47342 L 0.0941772,1.49704 z
M 5.18997,7.09944 L 4.96571,7.07111 L 4.74677,7.01489 L 4.53659,6.93169 L 4.3385,6.82278 L 4.15562,6.68991
 L 3.99084,6.53517 L 3.84676,6.36101 L 3.72565,6.17015 L 3.62939,5.96562 L 3.55954,5.75064 L 3.51718,5.52859
 L 3.50299,5.30299 L 3.51718,5.07739 L 3.55954,4.85535 L 3.62939,4.64037 L 3.72565,4.43584 L 3.84676,4.24498
 L 3.99084,4.0708 L 4.15562,3.91606 L 4.3385,3.7832 L 4.53659,3.6743 L 4.74677,3.59109 L 4.96571,3.53488
 L 5.18997,3.50655 L 5.41602,3.50655 L 5.64027,3.53488 L 5.85922,3.59109 L 6.0694,3.6743 L 6.26749,3.7832
 L 6.45035,3.91606 L 6.61514,4.0708 L 6.75922,4.24498 L 6.88034,4.43584 L 6.97659,4.64037 L 7.04645,4.85535
 L 7.08879,5.07739 L 7.103,5.30299 L 7.08879,5.52859 L 7.04645,5.75064 L 6.97659,5.96562 L 6.88034,6.17015
 L 6.75922,6.36101 L 6.61514,6.53517 L 6.45035,6.68991 L 6.26749,6.82278 L 6.0694,6.93169 L 5.85922,7.01489
 L 5.64027,7.07111 L 5.41602,7.09944 z
M -5.41602,7.09944 L -5.64027,7.07111 L -5.85922,7.01489 L -6.0694,6.93169 L -6.26749,6.82278 L -6.45035,6.68991
 L -6.61514,6.53517 L -6.75922,6.36101 L -6.88034,6.17015 L -6.97659,5.96562 L -7.04645,5.75064 L -7.08879,5.52859
 L -7.103,5.30299 L -7.08879,5.07739 L -7.04645,4.85535 L -6.97659,4.64037 L -6.88034,4.43584 L -6.75922,4.24498
 L -6.61514,4.0708 L -6.45035,3.91606 L -6.26749,3.7832 L -6.0694,3.6743 L -5.85922,3.59109 L -5.64027,3.53488
 L -5.41602,3.50655 L -5.18997,3.50655 L -4.96571,3.53488 L -4.74677,3.59109 L -4.53659,3.6743 L -4.3385,3.7832
 L -4.15562,3.91606 L -3.99084,4.0708 L -3.84676,4.24498 L -3.72565,4.43584 L -3.62939,4.64037 L -3.55954,4.85535
 L -3.51718,5.07739 L -3.50299,5.30299 L -3.51718,5.52859 L -3.55954,5.75064 L -3.62939,5.96562 L -3.72565,6.17015
 L -3.84676,6.36101 L -3.99084,6.53517 L -4.15562,6.68991 L -4.3385,6.82278 L -4.53659,6.93169 L -4.74677,7.01489
 L -4.96571,7.07111 L -5.18997,7.09944 z
M -0.0941772,8.99704 L -0.281067,8.97342 L -0.463516,8.92657 L -0.638657,8.85724 L -0.803726,8.76648 L -0.956131,8.65576
 L -1.09344,8.52681 L -1.21352,8.38167 L -1.31445,8.22263 L -1.39465,8.05219 L -1.45287,7.87303 L -1.48816,7.68799
 L -1.5,7.5 L -1.48816,7.312 L -1.45287,7.12695 L -1.39465,6.9478 L -1.31445,6.77736 L -1.21352,6.61832
 L -1.09344,6.47318 L -0.956131,6.34422 L -0.803726,6.23351 L -0.638657,6.14275 L -0.463516,6.07341 L -0.281067,6.02657
 L -0.0941772,6.00294 L 0.0941772,6.00294 L 0.281067,6.02657 L 0.463516,6.07341 L 0.638657,6.14275 L 0.803726,6.23351
 L 0.956131,6.34422 L 1.09344,6.47318 L 1.21352,6.61832 L 1.31445,6.77736 L 1.39465,6.9478 L 1.45287,7.12695
 L 1.48816,7.312 L 1.5,7.5 L 1.48816,7.68799 L 1.45287,7.87303 L 1.39465,8.05219 L 1.31445,8.22263
 L 1.21352,8.38167 L 1.09344,8.52681 L 0.956131,8.65576 L 0.803726,8.76648 L 0.638657,8.85724 L 0.463516,8.92657
 L 0.281067,8.97342 L 0.0941772,8.99704 z
" stroke="black" fill="lightgray" stroke-width="0.5"/>
</svg>
