<?xml version="1.0" standalone="no"?>
<!DOCTYPE svg PUBLIC "-//W3C//DTD SVG 1.1//EN" "http://www.w3.org/Graphics/SVG/1.1/DTD/svg11.dtd">
<svg width="210mm" height="448mm" viewBox="-105 -851 210 448" xmlns="http://www.w3.org/2000/svg" version="1.1">
<title>OpenSCAD Model</title>
<path d="
M 100.937,-745.589 L 101.545,-745.745 L 102.129,-745.976 L 102.679,-746.278 L 103.187,-746.647 L 103.645,-747.077
 L 104.045,-747.561 L 104.382,-748.091 L 104.649,-748.659 L 104.843,-749.257 L 104.961,-749.873 L 105,-750.5
 L 105,-845.5 L 104.961,-846.127 L 104.843,-846.743 L 104.649,-847.341 L 104.382,-847.909 L 104.045,-848.439
 L 103.645,-848.923 L 103.187,-849.353 L 102.679,-849.722 L 102.129,-850.024 L 101.545,-850.255 L 100.937,-850.411
 L 100.314,-850.49 L -100.314,-850.49 L -100.937,-850.411 L -101.545,-850.255 L -102.129,-850.024 L -102.679,-849.722
 L -103.187,-849.353 L -103.645,-848.923 L -104.045,-848.439 L -104.382,-847.909 L -104.649,-847.341 L -104.843,-846.743
 L -104.961,-846.127 L -105,-845.5 L -105,-750.5 L -104.961,-749.873 L -104.843,-749.257 L -104.649,-748.659
 L -104.382,-748.091 L -104.045,-747.561 L -103.645,-747.077 L -103.187,-746.647 L -102.679,-746.278 L -102.129,-745.976
 L -101.545,-745.745 L -100.937,-745.589 L -100.314,-745.51 L 100.314,-745.51 z
M -100.048,-746.009 L -100.64,-746.084 L -101.218,-746.232 L -101.772,-746.452 L -102.295,-746.739 L -102.778,-747.09
 L -103.213,-747.498 L -103.593,-747.958 L -103.912,-748.462 L -104.166,-749.001 L -104.351,-749.569 L -104.463,-750.155
 L -104.5,-750.75 L -104.5,-845.25 L -104.463,-845.845 L -104.351,-846.431 L -104.166,-846.999 L -103.912,-847.538
 L -103.593,-848.042 L -103.213,-848.502 L -102.778,-848.91 L -102.295,-849.261 L -101.772,-849.548 L -101.218,-849.768
 L -100.64,-849.916 L -100.048,-849.991 L 100.048,-849.991 L 100.64,-849.916 L 101.218,-849.768 L 101.772,-849.548
 L 102.295,-849.261 L 102.778,-848.91 L 103.213,-848.502 L 103.593,-848.042 L 103.912,-847.538 L 104.166,-846.999
 L 104.351,-846.431 L 104.463,-845.845 L 104.5,-845.25 L 104.5,-750.75 L 104.463,-750.155 L 104.351,-749.569
 L 104.166,-749.001 L 103.912,-748.462 L 103.593,-747.958 L 103.213,-747.498 L 102.778,-747.09 L 102.295,-746.739
 L 101.772,-746.452 L 101.218,-746.232 L 100.64,-746.084 L 100.048,-746.009 z
M 100.937,-631.589 L 101.545,-631.745 L 102.129,-631.976 L 102.679,-632.278 L 103.187,-632.647 L 103.645,-633.077
 L 104.045,-633.561 L 104.382,-634.091 L 104.649,-634.659 L 104.843,-635.257 L 104.961,-635.873 L 105,-636.5
 L 105,-731.5 L 104.961,-732.127 L 104.843,-732.743 L 104.649,-733.341 L 104.382,-733.909 L 104.045,-734.439
 L 103.645,-734.923 L 103.187,-735.353 L 102.679,-735.722 L 102.129,-736.024 L 101.545,-736.255 L 100.937,-736.411
 L 100.314,-736.49 L -100.314,-736.49 L -100.937,-736.411 L -101.545,-736.255 L -102.129,-736.024 L -102.679,-735.722
 L -103.187,-735.353 L -103.645,-734.923 L -104.045,-734.439 L -104.382,-733.909 L -104.649,-733.341 L -104.843,-732.743
 L -104.961,-732.127 L -105,-731.5 L -105,-636.5 L -104.961,-635.873 L -104.843,-635.257 L -104.649,-634.659
 L -104.382,-634.091 L -104.045,-633.561 L -103.645,-633.077 L -103.187,-632.647 L -102.679,-632.278 L -102.129,-631.976
 L -101.545,-631.745 L -100.937,-631.589 L -100.314,-631.51 L 100.314,-631.51 z
M -100.048,-632.009 L -100.64,-632.084 L -101.218,-632.232 L -101.772,-632.452 L -102.295,-632.739 L -102.778,-633.09
 L -103.213,-633.498 L -103.593,-633.958 L -103.912,-634.462 L -104.166,-635.001 L -104.351,-635.569 L -104.463,-636.155
 L -104.5,-636.75 L -104.5,-731.25 L -104.463,-731.845 L -104.351,-732.431 L -104.166,-732.999 L -103.912,-733.538
 L -103.593,-734.042 L -103.213,-734.502 L -102.778,-734.91 L -102.295,-735.261 L -101.772,-735.548 L -101.218,-735.768
 L -100.64,-735.916 L -100.048,-735.991 L 100.048,-735.991 L 100.64,-735.916 L 101.218,-735.768 L 101.772,-735.548
 L 102.295,-735.261 L 102.778,-734.91 L 103.213,-734.502 L 103.593,-734.042 L 103.912,-733.538 L 104.166,-732.999
 L 104.351,-732.431 L 104.463,-731.845 L 104.5,-731.25 L 104.5,-636.75 L 104.463,-636.155 L 104.351,-635.569
 L 104.166,-635.001 L 103.912,-634.462 L 103.593,-633.958 L 103.213,-633.498 L 102.778,-633.09 L 102.295,-632.739
 L 101.772,-632.452 L 101.218,-632.232 L 100.64,-632.084 L 100.048,-632.009 z
M 100.937,-517.589 L 101.545,-517.745 L 102.129,-517.976 L 102.679,-518.278 L 103.187,-518.647 L 103.645,-519.077
 L 104.045,-519.561 L 104.382,-520.091 L 104.649,-520.659 L 104.843,-521.257 L 104.961,-521.873 L 105,-522.5
 L 105,-617.5 L 104.961,-618.127 L 104.843,-618.743 L 104.649,-619.341 L 104.382,-619.909 L 104.045,-620.439
 L 103.645,-620.923 L 103.187,-621.353 L 102.679,-621.722 L 102.129,-622.024 L 101.545,-622.255 L 100.937,-622.411
 L 100.314,-622.49 L -100.314,-622.49 L -100.937,-622.411 L -101.545,-622.255 L -102.129,-622.024 L -102.679,-621.722
 L -103.187,-621.353 L -103.645,-620.923 L -104.045,-620.439 L -104.382,-619.909 L -104.649,-619.341 L -104.843,-618.743
 L -104.961,-618.127 L -105,-617.5 L -105,-522.5 L -104.961,-521.873 L -104.843,-521.257 L -104.649,-520.659
 L -104.382,-520.091 L -104.045,-519.561 L -103.645,-519.077 L -103.187,-518.647 L -102.679,-518.278 L -102.129,-517.976
 L -101.545,-517.745 L -100.937,-517.589 L -100.314,-517.51 L 100.314,-517.51 z
M -100.037,-518.181 L -100.608,-518.253 L -101.165,-518.396 L -101.699,-518.607 L -102.203,-518.884 L -102.668,-519.222
 L -103.088,-519.616 L -103.454,-520.059 L -103.762,-520.544 L -104.007,-521.065 L -104.185,-521.611 L -104.292,-522.176
 L -104.328,-522.75 L -104.328,-617.25 L -104.292,-617.824 L -104.185,-618.389 L -104.007,-618.935 L -103.762,-619.456
 L -103.454,-619.941 L -103.088,-620.384 L -102.668,-620.778 L -102.203,-621.116 L -101.699,-621.393 L -101.165,-621.604
 L -100.608,-621.747 L -100.037,-621.819 L 100.037,-621.819 L 100.608,-621.747 L 101.165,-621.604 L 101.699,-621.393
 L 102.203,-621.116 L 102.668,-620.778 L 103.088,-620.384 L 103.454,-619.941 L 103.762,-619.456 L 104.007,-618.935
 L 104.185,-618.389 L 104.292,-617.824 L 104.328,-617.25 L 104.328,-522.75 L 104.292,-522.176 L 104.185,-521.611
 L 104.007,-521.065 L 103.762,-520.544 L 103.454,-520.059 L 103.088,-519.616 L 102.668,-519.222 L 102.203,-518.884
 L 101.699,-518.607 L 101.165,-518.396 L 100.608,-518.253 L 100.037,-518.181 z
M 100.937,-403.589 L 101.545,-403.745 L 102.129,-403.976 L 102.679,-404.278 L 103.187,-404.647 L 103.645,-405.077
 L 104.045,-405.561 L 104.382,-406.091 L 104.649,-406.659 L 104.843,-407.257 L 104.961,-407.873 L 105,-408.5
 L 105,-503.5 L 104.961,-504.127 L 104.843,-504.743 L 104.649,-505.341 L 104.382,-505.909 L 104.045,-506.439
 L 103.645,-506.923 L 103.187,-507.353 L 102.679,-507.722 L 102.129,-508.024 L 101.545,-508.255 L 100.937,-508.411
 L 100.314,-508.49 L -100.314,-508.49 L -100.937,-508.411 L -101.545,-508.255 L -102.129,-508.024 L -102.679,-507.722
 L -103.187,-507.353 L -103.645,-506.923 L -104.045,-506.439 L -104.382,-505.909 L -104.649,-505.341 L -104.843,-504.743
 L -104.961,-504.127 L -105,-503.5 L -105,-408.5 L -104.961,-407.873 L -104.843,-407.257 L -104.649,-406.659
 L -104.382,-406.091 L -104.045,-405.561 L -103.645,-405.077 L -103.187,-404.647 L -102.679,-404.278 L -102.129,-403.976
 L -101.545,-403.745 L -100.937,-403.589 L -100.314,-403.51 L 100.314,-403.51 z
M -99.8825,-406.645 L -100.145,-406.678 L -100.402,-406.744 L -100.648,-406.841 L -100.88,-406.969 L -101.095,-407.125
 L -101.288,-407.306 L -101.457,-407.51 L -101.599,-407.734 L -101.711,-407.973 L -101.793,-408.225 L -101.843,-408.486
 L -101.86,-408.75 L -101.86,-503.25 L -101.843,-503.514 L -101.793,-503.775 L -101.711,-504.027 L -101.599,-504.266
 L -101.457,-504.49 L -101.288,-504.694 L -101.095,-504.875 L -100.88,-505.031 L -100.648,-505.159 L -100.402,-505.256
 L -100.145,-505.322 L -99.8825,-505.355 L 99.8825,-505.355 L 100.145,-505.322 L 100.402,-505.256 L 100.648,-505.159
 L 100.88,-505.031 L 101.095,-504.875 L 101.288,-504.694 L 101.457,-504.49 L 101.599,-504.266 L 101.711,-504.027
 L 101.793,-503.775 L 101.843,-503.514 L 101.86,-503.25 L 101.86,-408.75 L 101.843,-408.486 L 101.793,-408.225
 L 101.711,-407.973 L 101.599,-407.734 L 101.457,-407.51 L 101.288,-407.306 L 101.095,-407.125 L 100.88,-406.969
 L 100.648,-406.841 L 100.402,-406.744 L 100.145,-406.678 L 99.8825,-406.645 z
" stroke="black" fill="lightgray" stroke-width="0.5"/>
</svg>
