solid OpenSCAD_Model
  facet normal 0.998027 0.062789 0
    outer loop
      vertex 23.5 0 7
      vertex 23.3147 2.94533 0
      vertex 23.3147 2.94533 7
    endloop
  endfacet
  facet normal 0.998027 0.062789 0
    outer loop
      vertex 23.3147 2.94533 0
      vertex 23.5 0 7
      vertex 23.5 0 0
    endloop
  endfacet
  facet normal -0.998027 0.062789 0
    outer loop
      vertex -23.5 0 0
      vertex -23.3147 2.94533 7
      vertex -23.3147 2.94533 0
    endloop
  endfacet
  facet normal -0.998027 0.062789 0
    outer loop
      vertex -23.3147 2.94533 7
      vertex -23.5 0 0
      vertex -23.5 0 7
    endloop
  endfacet
  facet normal 0 1 -0
    outer loop
      vertex 1.47558 23.4536 0
      vertex -1.47558 23.4536 7
      vertex 1.47558 23.4536 7
    endloop
  endfacet
  facet normal 0 1 0
    outer loop
      vertex -1.47558 23.4536 7
      vertex 1.47558 23.4536 0
      vertex -1.47558 23.4536 0
    endloop
  endfacet
  facet normal 0 -1 0
    outer loop
      vertex -1.47558 -23.4536 0
      vertex 1.47558 -23.4536 7
      vertex -1.47558 -23.4536 7
    endloop
  endfacet
  facet normal 0 -1 -0
    outer loop
      vertex 1.47558 -23.4536 7
      vertex -1.47558 -23.4536 0
      vertex 1.47558 -23.4536 0
    endloop
  endfacet
  facet normal 0.684546 0.72897 -0
    outer loop
      vertex 17.1308 16.0869 0
      vertex 14.9795 18.1071 7
      vertex 17.1308 16.0869 7
    endloop
  endfacet
  facet normal 0.684546 0.72897 0
    outer loop
      vertex 14.9795 18.1071 7
      vertex 17.1308 16.0869 0
      vertex 14.9795 18.1071 0
    endloop
  endfacet
  facet normal -0.684546 0.72897 0
    outer loop
      vertex -14.9795 18.1071 0
      vertex -17.1308 16.0869 7
      vertex -14.9795 18.1071 7
    endloop
  endfacet
  facet normal -0.684546 0.72897 0
    outer loop
      vertex -17.1308 16.0869 7
      vertex -14.9795 18.1071 0
      vertex -17.1308 16.0869 0
    endloop
  endfacet
  facet normal -0.368128 0.929775 0
    outer loop
      vertex -7.2619 22.3498 0
      vertex -10.0058 21.2634 7
      vertex -7.2619 22.3498 7
    endloop
  endfacet
  facet normal -0.368128 0.929775 0
    outer loop
      vertex -10.0058 21.2634 7
      vertex -7.2619 22.3498 0
      vertex -10.0058 21.2634 0
    endloop
  endfacet
  facet normal 0.904831 0.42577 0
    outer loop
      vertex 21.8497 8.65093 7
      vertex 20.5932 11.3212 0
      vertex 20.5932 11.3212 7
    endloop
  endfacet
  facet normal 0.904831 0.42577 0
    outer loop
      vertex 20.5932 11.3212 0
      vertex 21.8497 8.65093 7
      vertex 21.8497 8.65093 0
    endloop
  endfacet
  facet normal 0.844335 0.535816 0
    outer loop
      vertex 20.5932 11.3212 7
      vertex 19.0119 13.813 0
      vertex 19.0119 13.813 7
    endloop
  endfacet
  facet normal 0.844335 0.535816 0
    outer loop
      vertex 19.0119 13.813 0
      vertex 20.5932 11.3212 7
      vertex 20.5932 11.3212 0
    endloop
  endfacet
  facet normal 0.368128 0.929775 -0
    outer loop
      vertex 10.0058 21.2634 0
      vertex 7.2619 22.3498 7
      vertex 10.0058 21.2634 7
    endloop
  endfacet
  facet normal 0.368128 0.929775 0
    outer loop
      vertex 7.2619 22.3498 7
      vertex 10.0058 21.2634 0
      vertex 7.2619 22.3498 0
    endloop
  endfacet
  facet normal 0.481748 0.87631 -0
    outer loop
      vertex 12.5919 19.8417 0
      vertex 10.0058 21.2634 7
      vertex 12.5919 19.8417 7
    endloop
  endfacet
  facet normal 0.481748 0.87631 0
    outer loop
      vertex 10.0058 21.2634 7
      vertex 12.5919 19.8417 0
      vertex 10.0058 21.2634 0
    endloop
  endfacet
  facet normal -0.904831 0.42577 0
    outer loop
      vertex -21.8497 8.65093 0
      vertex -20.5932 11.3212 7
      vertex -20.5932 11.3212 0
    endloop
  endfacet
  facet normal -0.904831 0.42577 0
    outer loop
      vertex -20.5932 11.3212 7
      vertex -21.8497 8.65093 0
      vertex -21.8497 8.65093 7
    endloop
  endfacet
  facet normal -0.770519 0.637417 0
    outer loop
      vertex -19.0119 13.813 0
      vertex -17.1308 16.0869 7
      vertex -17.1308 16.0869 0
    endloop
  endfacet
  facet normal -0.770519 0.637417 0
    outer loop
      vertex -17.1308 16.0869 7
      vertex -19.0119 13.813 0
      vertex -19.0119 13.813 7
    endloop
  endfacet
  facet normal 0 0 1
    outer loop
      vertex 17.5 0 7
      vertex 23.5 0 7
      vertex 23.3147 2.94533 7
    endloop
  endfacet
  facet normal 0 0 1
    outer loop
      vertex 17.362 2.19333 7
      vertex 23.3147 2.94533 7
      vertex 22.7617 5.84421 7
    endloop
  endfacet
  facet normal 0 0 1
    outer loop
      vertex 23.5 0 7
      vertex 17.5 0 7
      vertex 23.3147 -2.94533 7
    endloop
  endfacet
  facet normal 0 0 1
    outer loop
      vertex 16.9502 4.35207 7
      vertex 22.7617 5.84421 7
      vertex 21.8497 8.65093 7
    endloop
  endfacet
  facet normal -0 0 1
    outer loop
      vertex 17.362 -2.19333 7
      vertex 23.3147 -2.94533 7
      vertex 17.5 0 7
    endloop
  endfacet
  facet normal 0 0 1
    outer loop
      vertex 16.2711 6.44218 7
      vertex 21.8497 8.65093 7
      vertex 20.5932 11.3212 7
    endloop
  endfacet
  facet normal 0 0 1
    outer loop
      vertex 23.3147 -2.94533 7
      vertex 17.362 -2.19333 7
      vertex 22.7617 -5.84421 7
    endloop
  endfacet
  facet normal 0 0 1
    outer loop
      vertex 15.3354 8.43069 7
      vertex 20.5932 11.3212 7
      vertex 19.0119 13.813 7
    endloop
  endfacet
  facet normal -0 0 1
    outer loop
      vertex 16.9502 -4.35207 7
      vertex 22.7617 -5.84421 7
      vertex 17.362 -2.19333 7
    endloop
  endfacet
  facet normal 0 0 1
    outer loop
      vertex 22.7617 -5.84421 7
      vertex 16.9502 -4.35207 7
      vertex 21.8497 -8.65093 7
    endloop
  endfacet
  facet normal 0 0 1
    outer loop
      vertex 23.3147 2.94533 7
      vertex 17.362 2.19333 7
      vertex 17.5 0 7
    endloop
  endfacet
  facet normal 0 0 1
    outer loop
      vertex 14.1578 10.2862 7
      vertex 19.0119 13.813 7
      vertex 17.1308 16.0869 7
    endloop
  endfacet
  facet normal 0 0 1
    outer loop
      vertex 22.7617 5.84421 7
      vertex 16.9502 4.35207 7
      vertex 17.362 2.19333 7
    endloop
  endfacet
  facet normal 0 0 1
    outer loop
      vertex 21.8497 8.65093 7
      vertex 16.2711 6.44218 7
      vertex 16.9502 4.35207 7
    endloop
  endfacet
  facet normal 0 0 1
    outer loop
      vertex 20.5932 11.3212 7
      vertex 15.3354 8.43069 7
      vertex 16.2711 6.44218 7
    endloop
  endfacet
  facet normal 0 0 1
    outer loop
      vertex 12.757 11.9796 7
      vertex 17.1308 16.0869 7
      vertex 14.9795 18.1071 7
    endloop
  endfacet
  facet normal 0 0 1
    outer loop
      vertex 19.0119 13.813 7
      vertex 14.1578 10.2862 7
      vertex 15.3354 8.43069 7
    endloop
  endfacet
  facet normal 0 0 1
    outer loop
      vertex 17.1308 16.0869 7
      vertex 12.757 11.9796 7
      vertex 14.1578 10.2862 7
    endloop
  endfacet
  facet normal 0 0 1
    outer loop
      vertex 11.1549 13.484 7
      vertex 14.9795 18.1071 7
      vertex 12.5919 19.8417 7
    endloop
  endfacet
  facet normal 0 0 1
    outer loop
      vertex 14.9795 18.1071 7
      vertex 11.1549 13.484 7
      vertex 12.757 11.9796 7
    endloop
  endfacet
  facet normal 0 0 1
    outer loop
      vertex 9.37697 14.7757 7
      vertex 12.5919 19.8417 7
      vertex 10.0058 21.2634 7
    endloop
  endfacet
  facet normal 0 0 1
    outer loop
      vertex 12.5919 19.8417 7
      vertex 9.37697 14.7757 7
      vertex 11.1549 13.484 7
    endloop
  endfacet
  facet normal 0 0 1
    outer loop
      vertex 10.0058 21.2634 7
      vertex 7.45114 15.8345 7
      vertex 9.37697 14.7757 7
    endloop
  endfacet
  facet normal 0 0 1
    outer loop
      vertex 7.2619 22.3498 7
      vertex 7.45114 15.8345 7
      vertex 10.0058 21.2634 7
    endloop
  endfacet
  facet normal 0 0 1
    outer loop
      vertex 7.2619 22.3498 7
      vertex 5.4078 16.6435 7
      vertex 7.45114 15.8345 7
    endloop
  endfacet
  facet normal 0 0 1
    outer loop
      vertex 4.40346 23.0837 7
      vertex 5.4078 16.6435 7
      vertex 7.2619 22.3498 7
    endloop
  endfacet
  facet normal 0 0 1
    outer loop
      vertex 4.40346 23.0837 7
      vertex 3.27917 17.19 7
      vertex 5.4078 16.6435 7
    endloop
  endfacet
  facet normal 0 0 1
    outer loop
      vertex 1.47558 23.4536 7
      vertex 3.27917 17.19 7
      vertex 4.40346 23.0837 7
    endloop
  endfacet
  facet normal 0 0 1
    outer loop
      vertex 1.47558 23.4536 7
      vertex 1.09883 17.4655 7
      vertex 3.27917 17.19 7
    endloop
  endfacet
  facet normal 0 0 1
    outer loop
      vertex 1.47558 23.4536 7
      vertex -1.09883 17.4655 7
      vertex 1.09883 17.4655 7
    endloop
  endfacet
  facet normal -0 0 1
    outer loop
      vertex -1.47558 23.4536 7
      vertex -1.09883 17.4655 7
      vertex 1.47558 23.4536 7
    endloop
  endfacet
  facet normal 0 0 1
    outer loop
      vertex -1.47558 23.4536 7
      vertex -3.27917 17.19 7
      vertex -1.09883 17.4655 7
    endloop
  endfacet
  facet normal -0 0 1
    outer loop
      vertex -4.40346 23.0837 7
      vertex -3.27917 17.19 7
      vertex -1.47558 23.4536 7
    endloop
  endfacet
  facet normal 0 0 1
    outer loop
      vertex -4.40346 23.0837 7
      vertex -5.4078 16.6435 7
      vertex -3.27917 17.19 7
    endloop
  endfacet
  facet normal -0 0 1
    outer loop
      vertex -7.2619 22.3498 7
      vertex -5.4078 16.6435 7
      vertex -4.40346 23.0837 7
    endloop
  endfacet
  facet normal 0 0 1
    outer loop
      vertex -7.2619 22.3498 7
      vertex -7.45114 15.8345 7
      vertex -5.4078 16.6435 7
    endloop
  endfacet
  facet normal -0 0 1
    outer loop
      vertex -10.0058 21.2634 7
      vertex -7.45114 15.8345 7
      vertex -7.2619 22.3498 7
    endloop
  endfacet
  facet normal 0 0 1
    outer loop
      vertex -7.45114 15.8345 7
      vertex -10.0058 21.2634 7
      vertex -9.37697 14.7757 7
    endloop
  endfacet
  facet normal -0 0 1
    outer loop
      vertex -12.5919 19.8417 7
      vertex -9.37697 14.7757 7
      vertex -10.0058 21.2634 7
    endloop
  endfacet
  facet normal 0 0 1
    outer loop
      vertex -9.37697 14.7757 7
      vertex -12.5919 19.8417 7
      vertex -11.1549 13.484 7
    endloop
  endfacet
  facet normal -0 0 1
    outer loop
      vertex -14.9795 18.1071 7
      vertex -11.1549 13.484 7
      vertex -12.5919 19.8417 7
    endloop
  endfacet
  facet normal 0 0 1
    outer loop
      vertex -11.1549 13.484 7
      vertex -14.9795 18.1071 7
      vertex -12.757 11.9796 7
    endloop
  endfacet
  facet normal -0 0 1
    outer loop
      vertex -17.1308 16.0869 7
      vertex -12.757 11.9796 7
      vertex -14.9795 18.1071 7
    endloop
  endfacet
  facet normal 0 0 1
    outer loop
      vertex -12.757 11.9796 7
      vertex -17.1308 16.0869 7
      vertex -14.1578 10.2862 7
    endloop
  endfacet
  facet normal -0 0 1
    outer loop
      vertex -19.0119 13.813 7
      vertex -14.1578 10.2862 7
      vertex -17.1308 16.0869 7
    endloop
  endfacet
  facet normal 0 0 1
    outer loop
      vertex -14.1578 10.2862 7
      vertex -19.0119 13.813 7
      vertex -15.3354 8.43069 7
    endloop
  endfacet
  facet normal -0 0 1
    outer loop
      vertex -20.5932 11.3212 7
      vertex -15.3354 8.43069 7
      vertex -19.0119 13.813 7
    endloop
  endfacet
  facet normal 0 0 1
    outer loop
      vertex -15.3354 8.43069 7
      vertex -20.5932 11.3212 7
      vertex -16.2711 6.44218 7
    endloop
  endfacet
  facet normal -0 0 1
    outer loop
      vertex -21.8497 8.65093 7
      vertex -16.2711 6.44218 7
      vertex -20.5932 11.3212 7
    endloop
  endfacet
  facet normal 0 0 1
    outer loop
      vertex -16.2711 6.44218 7
      vertex -21.8497 8.65093 7
      vertex -16.9502 4.35207 7
    endloop
  endfacet
  facet normal -0 0 1
    outer loop
      vertex 16.2711 -6.44218 7
      vertex 21.8497 -8.65093 7
      vertex 16.9502 -4.35207 7
    endloop
  endfacet
  facet normal 0 0 1
    outer loop
      vertex 21.8497 -8.65093 7
      vertex 16.2711 -6.44218 7
      vertex 20.5932 -11.3212 7
    endloop
  endfacet
  facet normal -0 0 1
    outer loop
      vertex 15.3354 -8.43069 7
      vertex 20.5932 -11.3212 7
      vertex 16.2711 -6.44218 7
    endloop
  endfacet
  facet normal 0 0 1
    outer loop
      vertex 20.5932 -11.3212 7
      vertex 15.3354 -8.43069 7
      vertex 19.0119 -13.813 7
    endloop
  endfacet
  facet normal -0 0 1
    outer loop
      vertex 14.1578 -10.2862 7
      vertex 19.0119 -13.813 7
      vertex 15.3354 -8.43069 7
    endloop
  endfacet
  facet normal 0 0 1
    outer loop
      vertex 19.0119 -13.813 7
      vertex 14.1578 -10.2862 7
      vertex 17.1308 -16.0869 7
    endloop
  endfacet
  facet normal -0 0 1
    outer loop
      vertex 12.757 -11.9796 7
      vertex 17.1308 -16.0869 7
      vertex 14.1578 -10.2862 7
    endloop
  endfacet
  facet normal 0 0 1
    outer loop
      vertex 17.1308 -16.0869 7
      vertex 12.757 -11.9796 7
      vertex 14.9795 -18.1071 7
    endloop
  endfacet
  facet normal -0 0 1
    outer loop
      vertex 11.1549 -13.484 7
      vertex 14.9795 -18.1071 7
      vertex 12.757 -11.9796 7
    endloop
  endfacet
  facet normal 0 0 1
    outer loop
      vertex 14.9795 -18.1071 7
      vertex 11.1549 -13.484 7
      vertex 12.5919 -19.8417 7
    endloop
  endfacet
  facet normal -0 0 1
    outer loop
      vertex 9.37697 -14.7757 7
      vertex 12.5919 -19.8417 7
      vertex 11.1549 -13.484 7
    endloop
  endfacet
  facet normal 0 0 1
    outer loop
      vertex 12.5919 -19.8417 7
      vertex 9.37697 -14.7757 7
      vertex 10.0058 -21.2634 7
    endloop
  endfacet
  facet normal -0 0 1
    outer loop
      vertex 7.45114 -15.8345 7
      vertex 10.0058 -21.2634 7
      vertex 9.37697 -14.7757 7
    endloop
  endfacet
  facet normal 0 0 1
    outer loop
      vertex 7.45114 -15.8345 7
      vertex 7.2619 -22.3498 7
      vertex 10.0058 -21.2634 7
    endloop
  endfacet
  facet normal -0 0 1
    outer loop
      vertex 5.4078 -16.6435 7
      vertex 7.2619 -22.3498 7
      vertex 7.45114 -15.8345 7
    endloop
  endfacet
  facet normal 0 0 1
    outer loop
      vertex 5.4078 -16.6435 7
      vertex 4.40346 -23.0837 7
      vertex 7.2619 -22.3498 7
    endloop
  endfacet
  facet normal -0 0 1
    outer loop
      vertex 3.27917 -17.19 7
      vertex 4.40346 -23.0837 7
      vertex 5.4078 -16.6435 7
    endloop
  endfacet
  facet normal 0 0 1
    outer loop
      vertex 3.27917 -17.19 7
      vertex 1.47558 -23.4536 7
      vertex 4.40346 -23.0837 7
    endloop
  endfacet
  facet normal -0 0 1
    outer loop
      vertex 1.09883 -17.4655 7
      vertex 1.47558 -23.4536 7
      vertex 3.27917 -17.19 7
    endloop
  endfacet
  facet normal -0 0 1
    outer loop
      vertex -1.09883 -17.4655 7
      vertex 1.47558 -23.4536 7
      vertex 1.09883 -17.4655 7
    endloop
  endfacet
  facet normal 0 0 1
    outer loop
      vertex -1.09883 -17.4655 7
      vertex -1.47558 -23.4536 7
      vertex 1.47558 -23.4536 7
    endloop
  endfacet
  facet normal 0 0 1
    outer loop
      vertex -3.27917 -17.19 7
      vertex -1.47558 -23.4536 7
      vertex -1.09883 -17.4655 7
    endloop
  endfacet
  facet normal 0 0 1
    outer loop
      vertex -3.27917 -17.19 7
      vertex -4.40346 -23.0837 7
      vertex -1.47558 -23.4536 7
    endloop
  endfacet
  facet normal 0 0 1
    outer loop
      vertex -5.4078 -16.6435 7
      vertex -4.40346 -23.0837 7
      vertex -3.27917 -17.19 7
    endloop
  endfacet
  facet normal 0 0 1
    outer loop
      vertex -5.4078 -16.6435 7
      vertex -7.2619 -22.3498 7
      vertex -4.40346 -23.0837 7
    endloop
  endfacet
  facet normal 0 0 1
    outer loop
      vertex -7.45114 -15.8345 7
      vertex -7.2619 -22.3498 7
      vertex -5.4078 -16.6435 7
    endloop
  endfacet
  facet normal 0 0 1
    outer loop
      vertex -10.0058 -21.2634 7
      vertex -7.45114 -15.8345 7
      vertex -9.37697 -14.7757 7
    endloop
  endfacet
  facet normal 0 0 1
    outer loop
      vertex -7.45114 -15.8345 7
      vertex -10.0058 -21.2634 7
      vertex -7.2619 -22.3498 7
    endloop
  endfacet
  facet normal 0 0 1
    outer loop
      vertex -12.5919 -19.8417 7
      vertex -9.37697 -14.7757 7
      vertex -11.1549 -13.484 7
    endloop
  endfacet
  facet normal 0 0 1
    outer loop
      vertex -9.37697 -14.7757 7
      vertex -12.5919 -19.8417 7
      vertex -10.0058 -21.2634 7
    endloop
  endfacet
  facet normal 0 0 1
    outer loop
      vertex -14.9795 -18.1071 7
      vertex -11.1549 -13.484 7
      vertex -12.757 -11.9796 7
    endloop
  endfacet
  facet normal 0 0 1
    outer loop
      vertex -17.1308 -16.0869 7
      vertex -12.757 -11.9796 7
      vertex -14.1578 -10.2862 7
    endloop
  endfacet
  facet normal 0 0 1
    outer loop
      vertex -11.1549 -13.484 7
      vertex -14.9795 -18.1071 7
      vertex -12.5919 -19.8417 7
    endloop
  endfacet
  facet normal 0 0 1
    outer loop
      vertex -19.0119 -13.813 7
      vertex -14.1578 -10.2862 7
      vertex -15.3354 -8.43069 7
    endloop
  endfacet
  facet normal 0 0 1
    outer loop
      vertex -20.5932 -11.3212 7
      vertex -15.3354 -8.43069 7
      vertex -16.2711 -6.44218 7
    endloop
  endfacet
  facet normal 0 0 1
    outer loop
      vertex -21.8497 -8.65093 7
      vertex -16.2711 -6.44218 7
      vertex -16.9502 -4.35207 7
    endloop
  endfacet
  facet normal 0 0 1
    outer loop
      vertex -12.757 -11.9796 7
      vertex -17.1308 -16.0869 7
      vertex -14.9795 -18.1071 7
    endloop
  endfacet
  facet normal 0 0 1
    outer loop
      vertex -22.7617 -5.84421 7
      vertex -16.9502 -4.35207 7
      vertex -17.362 -2.19333 7
    endloop
  endfacet
  facet normal 0 0 1
    outer loop
      vertex -23.3147 -2.94533 7
      vertex -17.362 -2.19333 7
      vertex -17.5 0 7
    endloop
  endfacet
  facet normal -0 0 1
    outer loop
      vertex -22.7617 5.84421 7
      vertex -16.9502 4.35207 7
      vertex -21.8497 8.65093 7
    endloop
  endfacet
  facet normal 0 0 1
    outer loop
      vertex -14.1578 -10.2862 7
      vertex -19.0119 -13.813 7
      vertex -17.1308 -16.0869 7
    endloop
  endfacet
  facet normal 0 0 1
    outer loop
      vertex -16.9502 4.35207 7
      vertex -22.7617 5.84421 7
      vertex -17.362 2.19333 7
    endloop
  endfacet
  facet normal 0 0 1
    outer loop
      vertex -15.3354 -8.43069 7
      vertex -20.5932 -11.3212 7
      vertex -19.0119 -13.813 7
    endloop
  endfacet
  facet normal -0 0 1
    outer loop
      vertex -23.3147 2.94533 7
      vertex -17.362 2.19333 7
      vertex -22.7617 5.84421 7
    endloop
  endfacet
  facet normal 0 0 1
    outer loop
      vertex -16.2711 -6.44218 7
      vertex -21.8497 -8.65093 7
      vertex -20.5932 -11.3212 7
    endloop
  endfacet
  facet normal 0 0 1
    outer loop
      vertex -17.362 2.19333 7
      vertex -23.3147 2.94533 7
      vertex -17.5 0 7
    endloop
  endfacet
  facet normal 0 0 1
    outer loop
      vertex -16.9502 -4.35207 7
      vertex -22.7617 -5.84421 7
      vertex -21.8497 -8.65093 7
    endloop
  endfacet
  facet normal 0 0 1
    outer loop
      vertex -23.5 0 7
      vertex -17.5 0 7
      vertex -23.3147 2.94533 7
    endloop
  endfacet
  facet normal 0 0 1
    outer loop
      vertex -17.362 -2.19333 7
      vertex -23.3147 -2.94533 7
      vertex -22.7617 -5.84421 7
    endloop
  endfacet
  facet normal 0 0 1
    outer loop
      vertex -17.5 0 7
      vertex -23.5 0 7
      vertex -23.3147 -2.94533 7
    endloop
  endfacet
  facet normal -0.248683 0.968585 0
    outer loop
      vertex -4.40346 23.0837 0
      vertex -7.2619 22.3498 7
      vertex -4.40346 23.0837 7
    endloop
  endfacet
  facet normal -0.248683 0.968585 0
    outer loop
      vertex -7.2619 22.3498 7
      vertex -4.40346 23.0837 0
      vertex -7.2619 22.3498 0
    endloop
  endfacet
  facet normal 0.904831 -0.42577 0
    outer loop
      vertex 20.5932 -11.3212 7
      vertex 21.8497 -8.65093 0
      vertex 21.8497 -8.65093 7
    endloop
  endfacet
  facet normal 0.904831 -0.42577 0
    outer loop
      vertex 21.8497 -8.65093 0
      vertex 20.5932 -11.3212 7
      vertex 20.5932 -11.3212 0
    endloop
  endfacet
  facet normal 0 0 -1
    outer loop
      vertex 17.5 0 0
      vertex 23.5 0 0
      vertex 23.3147 -2.94533 0
    endloop
  endfacet
  facet normal 0 0 -1
    outer loop
      vertex 17.362 -2.19333 0
      vertex 23.3147 -2.94533 0
      vertex 22.7617 -5.84421 0
    endloop
  endfacet
  facet normal 0 0 -1
    outer loop
      vertex 23.5 0 0
      vertex 17.5 0 0
      vertex 23.3147 2.94533 0
    endloop
  endfacet
  facet normal 0 0 -1
    outer loop
      vertex 16.9502 -4.35207 0
      vertex 22.7617 -5.84421 0
      vertex 21.8497 -8.65093 0
    endloop
  endfacet
  facet normal 0 0 -1
    outer loop
      vertex 17.362 2.19333 0
      vertex 23.3147 2.94533 0
      vertex 17.5 0 0
    endloop
  endfacet
  facet normal 0 0 -1
    outer loop
      vertex 16.2711 -6.44218 0
      vertex 21.8497 -8.65093 0
      vertex 20.5932 -11.3212 0
    endloop
  endfacet
  facet normal -0 0 -1
    outer loop
      vertex 23.3147 2.94533 0
      vertex 17.362 2.19333 0
      vertex 22.7617 5.84421 0
    endloop
  endfacet
  facet normal 0 0 -1
    outer loop
      vertex 15.3354 -8.43069 0
      vertex 20.5932 -11.3212 0
      vertex 19.0119 -13.813 0
    endloop
  endfacet
  facet normal 0 0 -1
    outer loop
      vertex 16.9502 4.35207 0
      vertex 22.7617 5.84421 0
      vertex 17.362 2.19333 0
    endloop
  endfacet
  facet normal -0 0 -1
    outer loop
      vertex 22.7617 5.84421 0
      vertex 16.9502 4.35207 0
      vertex 21.8497 8.65093 0
    endloop
  endfacet
  facet normal 0 0 -1
    outer loop
      vertex 23.3147 -2.94533 0
      vertex 17.362 -2.19333 0
      vertex 17.5 0 0
    endloop
  endfacet
  facet normal 0 0 -1
    outer loop
      vertex 14.1578 -10.2862 0
      vertex 19.0119 -13.813 0
      vertex 17.1308 -16.0869 0
    endloop
  endfacet
  facet normal 0 0 -1
    outer loop
      vertex 22.7617 -5.84421 0
      vertex 16.9502 -4.35207 0
      vertex 17.362 -2.19333 0
    endloop
  endfacet
  facet normal 0 0 -1
    outer loop
      vertex 21.8497 -8.65093 0
      vertex 16.2711 -6.44218 0
      vertex 16.9502 -4.35207 0
    endloop
  endfacet
  facet normal 0 0 -1
    outer loop
      vertex 20.5932 -11.3212 0
      vertex 15.3354 -8.43069 0
      vertex 16.2711 -6.44218 0
    endloop
  endfacet
  facet normal 0 0 -1
    outer loop
      vertex 12.757 -11.9796 0
      vertex 17.1308 -16.0869 0
      vertex 14.9795 -18.1071 0
    endloop
  endfacet
  facet normal 0 0 -1
    outer loop
      vertex 19.0119 -13.813 0
      vertex 14.1578 -10.2862 0
      vertex 15.3354 -8.43069 0
    endloop
  endfacet
  facet normal 0 0 -1
    outer loop
      vertex 17.1308 -16.0869 0
      vertex 12.757 -11.9796 0
      vertex 14.1578 -10.2862 0
    endloop
  endfacet
  facet normal 0 0 -1
    outer loop
      vertex 11.1549 -13.484 0
      vertex 14.9795 -18.1071 0
      vertex 12.5919 -19.8417 0
    endloop
  endfacet
  facet normal 0 0 -1
    outer loop
      vertex 14.9795 -18.1071 0
      vertex 11.1549 -13.484 0
      vertex 12.757 -11.9796 0
    endloop
  endfacet
  facet normal 0 0 -1
    outer loop
      vertex 9.37697 -14.7757 0
      vertex 12.5919 -19.8417 0
      vertex 10.0058 -21.2634 0
    endloop
  endfacet
  facet normal 0 0 -1
    outer loop
      vertex 12.5919 -19.8417 0
      vertex 9.37697 -14.7757 0
      vertex 11.1549 -13.484 0
    endloop
  endfacet
  facet normal 0 0 -1
    outer loop
      vertex 10.0058 -21.2634 0
      vertex 7.45114 -15.8345 0
      vertex 9.37697 -14.7757 0
    endloop
  endfacet
  facet normal 0 0 -1
    outer loop
      vertex 7.2619 -22.3498 0
      vertex 7.45114 -15.8345 0
      vertex 10.0058 -21.2634 0
    endloop
  endfacet
  facet normal 0 0 -1
    outer loop
      vertex 7.2619 -22.3498 0
      vertex 5.4078 -16.6435 0
      vertex 7.45114 -15.8345 0
    endloop
  endfacet
  facet normal 0 0 -1
    outer loop
      vertex 4.40346 -23.0837 0
      vertex 5.4078 -16.6435 0
      vertex 7.2619 -22.3498 0
    endloop
  endfacet
  facet normal 0 0 -1
    outer loop
      vertex 4.40346 -23.0837 0
      vertex 3.27917 -17.19 0
      vertex 5.4078 -16.6435 0
    endloop
  endfacet
  facet normal 0 0 -1
    outer loop
      vertex 1.47558 -23.4536 0
      vertex 3.27917 -17.19 0
      vertex 4.40346 -23.0837 0
    endloop
  endfacet
  facet normal 0 0 -1
    outer loop
      vertex 1.47558 -23.4536 0
      vertex 1.09883 -17.4655 0
      vertex 3.27917 -17.19 0
    endloop
  endfacet
  facet normal 0 0 -1
    outer loop
      vertex 1.47558 -23.4536 0
      vertex -1.09883 -17.4655 0
      vertex 1.09883 -17.4655 0
    endloop
  endfacet
  facet normal 0 0 -1
    outer loop
      vertex -1.47558 -23.4536 0
      vertex -1.09883 -17.4655 0
      vertex 1.47558 -23.4536 0
    endloop
  endfacet
  facet normal 0 0 -1
    outer loop
      vertex -1.47558 -23.4536 0
      vertex -3.27917 -17.19 0
      vertex -1.09883 -17.4655 0
    endloop
  endfacet
  facet normal 0 0 -1
    outer loop
      vertex -4.40346 -23.0837 0
      vertex -3.27917 -17.19 0
      vertex -1.47558 -23.4536 0
    endloop
  endfacet
  facet normal 0 0 -1
    outer loop
      vertex -4.40346 -23.0837 0
      vertex -5.4078 -16.6435 0
      vertex -3.27917 -17.19 0
    endloop
  endfacet
  facet normal 0 0 -1
    outer loop
      vertex -7.2619 -22.3498 0
      vertex -5.4078 -16.6435 0
      vertex -4.40346 -23.0837 0
    endloop
  endfacet
  facet normal 0 0 -1
    outer loop
      vertex -7.2619 -22.3498 0
      vertex -7.45114 -15.8345 0
      vertex -5.4078 -16.6435 0
    endloop
  endfacet
  facet normal 0 0 -1
    outer loop
      vertex -10.0058 -21.2634 0
      vertex -7.45114 -15.8345 0
      vertex -7.2619 -22.3498 0
    endloop
  endfacet
  facet normal -0 0 -1
    outer loop
      vertex -7.45114 -15.8345 0
      vertex -10.0058 -21.2634 0
      vertex -9.37697 -14.7757 0
    endloop
  endfacet
  facet normal 0 0 -1
    outer loop
      vertex -12.5919 -19.8417 0
      vertex -9.37697 -14.7757 0
      vertex -10.0058 -21.2634 0
    endloop
  endfacet
  facet normal -0 0 -1
    outer loop
      vertex -9.37697 -14.7757 0
      vertex -12.5919 -19.8417 0
      vertex -11.1549 -13.484 0
    endloop
  endfacet
  facet normal 0 0 -1
    outer loop
      vertex -14.9795 -18.1071 0
      vertex -11.1549 -13.484 0
      vertex -12.5919 -19.8417 0
    endloop
  endfacet
  facet normal -0 0 -1
    outer loop
      vertex -11.1549 -13.484 0
      vertex -14.9795 -18.1071 0
      vertex -12.757 -11.9796 0
    endloop
  endfacet
  facet normal 0 0 -1
    outer loop
      vertex -17.1308 -16.0869 0
      vertex -12.757 -11.9796 0
      vertex -14.9795 -18.1071 0
    endloop
  endfacet
  facet normal -0 0 -1
    outer loop
      vertex -12.757 -11.9796 0
      vertex -17.1308 -16.0869 0
      vertex -14.1578 -10.2862 0
    endloop
  endfacet
  facet normal 0 0 -1
    outer loop
      vertex -19.0119 -13.813 0
      vertex -14.1578 -10.2862 0
      vertex -17.1308 -16.0869 0
    endloop
  endfacet
  facet normal -0 0 -1
    outer loop
      vertex -14.1578 -10.2862 0
      vertex -19.0119 -13.813 0
      vertex -15.3354 -8.43069 0
    endloop
  endfacet
  facet normal 0 0 -1
    outer loop
      vertex -20.5932 -11.3212 0
      vertex -15.3354 -8.43069 0
      vertex -19.0119 -13.813 0
    endloop
  endfacet
  facet normal -0 0 -1
    outer loop
      vertex -15.3354 -8.43069 0
      vertex -20.5932 -11.3212 0
      vertex -16.2711 -6.44218 0
    endloop
  endfacet
  facet normal 0 0 -1
    outer loop
      vertex -21.8497 -8.65093 0
      vertex -16.2711 -6.44218 0
      vertex -20.5932 -11.3212 0
    endloop
  endfacet
  facet normal -0 0 -1
    outer loop
      vertex -16.2711 -6.44218 0
      vertex -21.8497 -8.65093 0
      vertex -16.9502 -4.35207 0
    endloop
  endfacet
  facet normal 0 0 -1
    outer loop
      vertex 16.2711 6.44218 0
      vertex 21.8497 8.65093 0
      vertex 16.9502 4.35207 0
    endloop
  endfacet
  facet normal -0 0 -1
    outer loop
      vertex 21.8497 8.65093 0
      vertex 16.2711 6.44218 0
      vertex 20.5932 11.3212 0
    endloop
  endfacet
  facet normal 0 0 -1
    outer loop
      vertex 15.3354 8.43069 0
      vertex 20.5932 11.3212 0
      vertex 16.2711 6.44218 0
    endloop
  endfacet
  facet normal -0 0 -1
    outer loop
      vertex 20.5932 11.3212 0
      vertex 15.3354 8.43069 0
      vertex 19.0119 13.813 0
    endloop
  endfacet
  facet normal 0 0 -1
    outer loop
      vertex 14.1578 10.2862 0
      vertex 19.0119 13.813 0
      vertex 15.3354 8.43069 0
    endloop
  endfacet
  facet normal -0 0 -1
    outer loop
      vertex 19.0119 13.813 0
      vertex 14.1578 10.2862 0
      vertex 17.1308 16.0869 0
    endloop
  endfacet
  facet normal 0 0 -1
    outer loop
      vertex 12.757 11.9796 0
      vertex 17.1308 16.0869 0
      vertex 14.1578 10.2862 0
    endloop
  endfacet
  facet normal -0 0 -1
    outer loop
      vertex 17.1308 16.0869 0
      vertex 12.757 11.9796 0
      vertex 14.9795 18.1071 0
    endloop
  endfacet
  facet normal 0 0 -1
    outer loop
      vertex 11.1549 13.484 0
      vertex 14.9795 18.1071 0
      vertex 12.757 11.9796 0
    endloop
  endfacet
  facet normal -0 0 -1
    outer loop
      vertex 14.9795 18.1071 0
      vertex 11.1549 13.484 0
      vertex 12.5919 19.8417 0
    endloop
  endfacet
  facet normal 0 0 -1
    outer loop
      vertex 9.37697 14.7757 0
      vertex 12.5919 19.8417 0
      vertex 11.1549 13.484 0
    endloop
  endfacet
  facet normal -0 0 -1
    outer loop
      vertex 12.5919 19.8417 0
      vertex 9.37697 14.7757 0
      vertex 10.0058 21.2634 0
    endloop
  endfacet
  facet normal 0 0 -1
    outer loop
      vertex 7.45114 15.8345 0
      vertex 10.0058 21.2634 0
      vertex 9.37697 14.7757 0
    endloop
  endfacet
  facet normal 0 0 -1
    outer loop
      vertex 7.45114 15.8345 0
      vertex 7.2619 22.3498 0
      vertex 10.0058 21.2634 0
    endloop
  endfacet
  facet normal 0 0 -1
    outer loop
      vertex 5.4078 16.6435 0
      vertex 7.2619 22.3498 0
      vertex 7.45114 15.8345 0
    endloop
  endfacet
  facet normal 0 0 -1
    outer loop
      vertex 5.4078 16.6435 0
      vertex 4.40346 23.0837 0
      vertex 7.2619 22.3498 0
    endloop
  endfacet
  facet normal 0 0 -1
    outer loop
      vertex 3.27917 17.19 0
      vertex 4.40346 23.0837 0
      vertex 5.4078 16.6435 0
    endloop
  endfacet
  facet normal 0 0 -1
    outer loop
      vertex 3.27917 17.19 0
      vertex 1.47558 23.4536 0
      vertex 4.40346 23.0837 0
    endloop
  endfacet
  facet normal 0 0 -1
    outer loop
      vertex 1.09883 17.4655 0
      vertex 1.47558 23.4536 0
      vertex 3.27917 17.19 0
    endloop
  endfacet
  facet normal 0 0 -1
    outer loop
      vertex -1.09883 17.4655 0
      vertex 1.47558 23.4536 0
      vertex 1.09883 17.4655 0
    endloop
  endfacet
  facet normal 0 0 -1
    outer loop
      vertex -1.09883 17.4655 0
      vertex -1.47558 23.4536 0
      vertex 1.47558 23.4536 0
    endloop
  endfacet
  facet normal 0 0 -1
    outer loop
      vertex -3.27917 17.19 0
      vertex -1.47558 23.4536 0
      vertex -1.09883 17.4655 0
    endloop
  endfacet
  facet normal 0 0 -1
    outer loop
      vertex -3.27917 17.19 0
      vertex -4.40346 23.0837 0
      vertex -1.47558 23.4536 0
    endloop
  endfacet
  facet normal 0 0 -1
    outer loop
      vertex -5.4078 16.6435 0
      vertex -4.40346 23.0837 0
      vertex -3.27917 17.19 0
    endloop
  endfacet
  facet normal 0 0 -1
    outer loop
      vertex -5.4078 16.6435 0
      vertex -7.2619 22.3498 0
      vertex -4.40346 23.0837 0
    endloop
  endfacet
  facet normal 0 0 -1
    outer loop
      vertex -7.45114 15.8345 0
      vertex -7.2619 22.3498 0
      vertex -5.4078 16.6435 0
    endloop
  endfacet
  facet normal 0 0 -1
    outer loop
      vertex -10.0058 21.2634 0
      vertex -7.45114 15.8345 0
      vertex -9.37697 14.7757 0
    endloop
  endfacet
  facet normal 0 0 -1
    outer loop
      vertex -7.45114 15.8345 0
      vertex -10.0058 21.2634 0
      vertex -7.2619 22.3498 0
    endloop
  endfacet
  facet normal 0 0 -1
    outer loop
      vertex -12.5919 19.8417 0
      vertex -9.37697 14.7757 0
      vertex -11.1549 13.484 0
    endloop
  endfacet
  facet normal 0 0 -1
    outer loop
      vertex -9.37697 14.7757 0
      vertex -12.5919 19.8417 0
      vertex -10.0058 21.2634 0
    endloop
  endfacet
  facet normal 0 0 -1
    outer loop
      vertex -14.9795 18.1071 0
      vertex -11.1549 13.484 0
      vertex -12.757 11.9796 0
    endloop
  endfacet
  facet normal 0 0 -1
    outer loop
      vertex -17.1308 16.0869 0
      vertex -12.757 11.9796 0
      vertex -14.1578 10.2862 0
    endloop
  endfacet
  facet normal 0 0 -1
    outer loop
      vertex -11.1549 13.484 0
      vertex -14.9795 18.1071 0
      vertex -12.5919 19.8417 0
    endloop
  endfacet
  facet normal 0 0 -1
    outer loop
      vertex -19.0119 13.813 0
      vertex -14.1578 10.2862 0
      vertex -15.3354 8.43069 0
    endloop
  endfacet
  facet normal 0 0 -1
    outer loop
      vertex -20.5932 11.3212 0
      vertex -15.3354 8.43069 0
      vertex -16.2711 6.44218 0
    endloop
  endfacet
  facet normal 0 0 -1
    outer loop
      vertex -21.8497 8.65093 0
      vertex -16.2711 6.44218 0
      vertex -16.9502 4.35207 0
    endloop
  endfacet
  facet normal 0 0 -1
    outer loop
      vertex -12.757 11.9796 0
      vertex -17.1308 16.0869 0
      vertex -14.9795 18.1071 0
    endloop
  endfacet
  facet normal 0 0 -1
    outer loop
      vertex -22.7617 5.84421 0
      vertex -16.9502 4.35207 0
      vertex -17.362 2.19333 0
    endloop
  endfacet
  facet normal 0 0 -1
    outer loop
      vertex -23.3147 2.94533 0
      vertex -17.362 2.19333 0
      vertex -17.5 0 0
    endloop
  endfacet
  facet normal 0 0 -1
    outer loop
      vertex -22.7617 -5.84421 0
      vertex -16.9502 -4.35207 0
      vertex -21.8497 -8.65093 0
    endloop
  endfacet
  facet normal 0 0 -1
    outer loop
      vertex -14.1578 10.2862 0
      vertex -19.0119 13.813 0
      vertex -17.1308 16.0869 0
    endloop
  endfacet
  facet normal -0 0 -1
    outer loop
      vertex -16.9502 -4.35207 0
      vertex -22.7617 -5.84421 0
      vertex -17.362 -2.19333 0
    endloop
  endfacet
  facet normal 0 0 -1
    outer loop
      vertex -15.3354 8.43069 0
      vertex -20.5932 11.3212 0
      vertex -19.0119 13.813 0
    endloop
  endfacet
  facet normal 0 0 -1
    outer loop
      vertex -23.3147 -2.94533 0
      vertex -17.362 -2.19333 0
      vertex -22.7617 -5.84421 0
    endloop
  endfacet
  facet normal 0 0 -1
    outer loop
      vertex -16.2711 6.44218 0
      vertex -21.8497 8.65093 0
      vertex -20.5932 11.3212 0
    endloop
  endfacet
  facet normal -0 0 -1
    outer loop
      vertex -17.362 -2.19333 0
      vertex -23.3147 -2.94533 0
      vertex -17.5 0 0
    endloop
  endfacet
  facet normal 0 0 -1
    outer loop
      vertex -16.9502 4.35207 0
      vertex -22.7617 5.84421 0
      vertex -21.8497 8.65093 0
    endloop
  endfacet
  facet normal 0 0 -1
    outer loop
      vertex -23.5 0 0
      vertex -17.5 0 0
      vertex -23.3147 -2.94533 0
    endloop
  endfacet
  facet normal 0 0 -1
    outer loop
      vertex -17.362 2.19333 0
      vertex -23.3147 2.94533 0
      vertex -22.7617 5.84421 0
    endloop
  endfacet
  facet normal 0 0 -1
    outer loop
      vertex -17.5 0 0
      vertex -23.5 0 0
      vertex -23.3147 2.94533 0
    endloop
  endfacet
  facet normal 0.951052 0.30903 0
    outer loop
      vertex 22.7617 5.84421 7
      vertex 21.8497 8.65093 0
      vertex 21.8497 8.65093 7
    endloop
  endfacet
  facet normal 0.951052 0.30903 0
    outer loop
      vertex 21.8497 8.65093 0
      vertex 22.7617 5.84421 7
      vertex 22.7617 5.84421 0
    endloop
  endfacet
  facet normal 0.982287 0.187384 0
    outer loop
      vertex 23.3147 2.94533 7
      vertex 22.7617 5.84421 0
      vertex 22.7617 5.84421 7
    endloop
  endfacet
  facet normal 0.982287 0.187384 0
    outer loop
      vertex 22.7617 5.84421 0
      vertex 23.3147 2.94533 7
      vertex 23.3147 2.94533 0
    endloop
  endfacet
  facet normal 0.770519 0.637417 0
    outer loop
      vertex 19.0119 13.813 7
      vertex 17.1308 16.0869 0
      vertex 17.1308 16.0869 7
    endloop
  endfacet
  facet normal 0.770519 0.637417 0
    outer loop
      vertex 17.1308 16.0869 0
      vertex 19.0119 13.813 7
      vertex 19.0119 13.813 0
    endloop
  endfacet
  facet normal 0.248683 0.968585 -0
    outer loop
      vertex 7.2619 22.3498 0
      vertex 4.40346 23.0837 7
      vertex 7.2619 22.3498 7
    endloop
  endfacet
  facet normal 0.248683 0.968585 0
    outer loop
      vertex 4.40346 23.0837 7
      vertex 7.2619 22.3498 0
      vertex 4.40346 23.0837 0
    endloop
  endfacet
  facet normal 0.125341 0.992114 -0
    outer loop
      vertex 4.40346 23.0837 0
      vertex 1.47558 23.4536 7
      vertex 4.40346 23.0837 7
    endloop
  endfacet
  facet normal 0.125341 0.992114 0
    outer loop
      vertex 1.47558 23.4536 7
      vertex 4.40346 23.0837 0
      vertex 1.47558 23.4536 0
    endloop
  endfacet
  facet normal 0.587765 0.809032 -0
    outer loop
      vertex 14.9795 18.1071 0
      vertex 12.5919 19.8417 7
      vertex 14.9795 18.1071 7
    endloop
  endfacet
  facet normal 0.587765 0.809032 0
    outer loop
      vertex 12.5919 19.8417 7
      vertex 14.9795 18.1071 0
      vertex 12.5919 19.8417 0
    endloop
  endfacet
  facet normal -0.844335 0.535816 0
    outer loop
      vertex -20.5932 11.3212 0
      vertex -19.0119 13.813 7
      vertex -19.0119 13.813 0
    endloop
  endfacet
  facet normal -0.844335 0.535816 0
    outer loop
      vertex -19.0119 13.813 7
      vertex -20.5932 11.3212 0
      vertex -20.5932 11.3212 7
    endloop
  endfacet
  facet normal -0.951052 0.30903 0
    outer loop
      vertex -22.7617 5.84421 0
      vertex -21.8497 8.65093 7
      vertex -21.8497 8.65093 0
    endloop
  endfacet
  facet normal -0.951052 0.30903 0
    outer loop
      vertex -21.8497 8.65093 7
      vertex -22.7617 5.84421 0
      vertex -22.7617 5.84421 7
    endloop
  endfacet
  facet normal -0.982287 0.187384 0
    outer loop
      vertex -23.3147 2.94533 0
      vertex -22.7617 5.84421 7
      vertex -22.7617 5.84421 0
    endloop
  endfacet
  facet normal -0.982287 0.187384 0
    outer loop
      vertex -22.7617 5.84421 7
      vertex -23.3147 2.94533 0
      vertex -23.3147 2.94533 7
    endloop
  endfacet
  facet normal -0.481748 0.87631 0
    outer loop
      vertex -10.0058 21.2634 0
      vertex -12.5919 19.8417 7
      vertex -10.0058 21.2634 7
    endloop
  endfacet
  facet normal -0.481748 0.87631 0
    outer loop
      vertex -12.5919 19.8417 7
      vertex -10.0058 21.2634 0
      vertex -12.5919 19.8417 0
    endloop
  endfacet
  facet normal -0.587765 0.809032 0
    outer loop
      vertex -12.5919 19.8417 0
      vertex -14.9795 18.1071 7
      vertex -12.5919 19.8417 7
    endloop
  endfacet
  facet normal -0.587765 0.809032 0
    outer loop
      vertex -14.9795 18.1071 7
      vertex -12.5919 19.8417 0
      vertex -14.9795 18.1071 0
    endloop
  endfacet
  facet normal -0.125341 0.992114 0
    outer loop
      vertex -1.47558 23.4536 0
      vertex -4.40346 23.0837 7
      vertex -1.47558 23.4536 7
    endloop
  endfacet
  facet normal -0.125341 0.992114 0
    outer loop
      vertex -4.40346 23.0837 7
      vertex -1.47558 23.4536 0
      vertex -4.40346 23.0837 0
    endloop
  endfacet
  facet normal 0.998027 -0.062789 0
    outer loop
      vertex 23.3147 -2.94533 7
      vertex 23.5 0 0
      vertex 23.5 0 7
    endloop
  endfacet
  facet normal 0.998027 -0.062789 0
    outer loop
      vertex 23.5 0 0
      vertex 23.3147 -2.94533 7
      vertex 23.3147 -2.94533 0
    endloop
  endfacet
  facet normal 0.770519 -0.637417 0
    outer loop
      vertex 17.1308 -16.0869 7
      vertex 19.0119 -13.813 0
      vertex 19.0119 -13.813 7
    endloop
  endfacet
  facet normal 0.770519 -0.637417 0
    outer loop
      vertex 19.0119 -13.813 0
      vertex 17.1308 -16.0869 7
      vertex 17.1308 -16.0869 0
    endloop
  endfacet
  facet normal -0.684546 -0.72897 0
    outer loop
      vertex -17.1308 -16.0869 0
      vertex -14.9795 -18.1071 7
      vertex -17.1308 -16.0869 7
    endloop
  endfacet
  facet normal -0.684546 -0.72897 -0
    outer loop
      vertex -14.9795 -18.1071 7
      vertex -17.1308 -16.0869 0
      vertex -14.9795 -18.1071 0
    endloop
  endfacet
  facet normal -0.904831 -0.42577 0
    outer loop
      vertex -20.5932 -11.3212 0
      vertex -21.8497 -8.65093 7
      vertex -21.8497 -8.65093 0
    endloop
  endfacet
  facet normal -0.904831 -0.42577 0
    outer loop
      vertex -21.8497 -8.65093 7
      vertex -20.5932 -11.3212 0
      vertex -20.5932 -11.3212 7
    endloop
  endfacet
  facet normal -0.770519 -0.637417 0
    outer loop
      vertex -17.1308 -16.0869 0
      vertex -19.0119 -13.813 7
      vertex -19.0119 -13.813 0
    endloop
  endfacet
  facet normal -0.770519 -0.637417 0
    outer loop
      vertex -19.0119 -13.813 7
      vertex -17.1308 -16.0869 0
      vertex -17.1308 -16.0869 7
    endloop
  endfacet
  facet normal 0.481748 -0.87631 0
    outer loop
      vertex 10.0058 -21.2634 0
      vertex 12.5919 -19.8417 7
      vertex 10.0058 -21.2634 7
    endloop
  endfacet
  facet normal 0.481748 -0.87631 0
    outer loop
      vertex 12.5919 -19.8417 7
      vertex 10.0058 -21.2634 0
      vertex 12.5919 -19.8417 0
    endloop
  endfacet
  facet normal 0.844335 -0.535816 0
    outer loop
      vertex 19.0119 -13.813 7
      vertex 20.5932 -11.3212 0
      vertex 20.5932 -11.3212 7
    endloop
  endfacet
  facet normal 0.844335 -0.535816 0
    outer loop
      vertex 20.5932 -11.3212 0
      vertex 19.0119 -13.813 7
      vertex 19.0119 -13.813 0
    endloop
  endfacet
  facet normal 0.982287 -0.187384 0
    outer loop
      vertex 22.7617 -5.84421 7
      vertex 23.3147 -2.94533 0
      vertex 23.3147 -2.94533 7
    endloop
  endfacet
  facet normal 0.982287 -0.187384 0
    outer loop
      vertex 23.3147 -2.94533 0
      vertex 22.7617 -5.84421 7
      vertex 22.7617 -5.84421 0
    endloop
  endfacet
  facet normal 0.951052 -0.30903 0
    outer loop
      vertex 21.8497 -8.65093 7
      vertex 22.7617 -5.84421 0
      vertex 22.7617 -5.84421 7
    endloop
  endfacet
  facet normal 0.951052 -0.30903 0
    outer loop
      vertex 22.7617 -5.84421 0
      vertex 21.8497 -8.65093 7
      vertex 21.8497 -8.65093 0
    endloop
  endfacet
  facet normal -0.982287 -0.187384 0
    outer loop
      vertex -22.7617 -5.84421 0
      vertex -23.3147 -2.94533 7
      vertex -23.3147 -2.94533 0
    endloop
  endfacet
  facet normal -0.982287 -0.187384 0
    outer loop
      vertex -23.3147 -2.94533 7
      vertex -22.7617 -5.84421 0
      vertex -22.7617 -5.84421 7
    endloop
  endfacet
  facet normal -0.998027 -0.062789 0
    outer loop
      vertex -23.3147 -2.94533 0
      vertex -23.5 0 7
      vertex -23.5 0 0
    endloop
  endfacet
  facet normal -0.998027 -0.062789 0
    outer loop
      vertex -23.5 0 7
      vertex -23.3147 -2.94533 0
      vertex -23.3147 -2.94533 7
    endloop
  endfacet
  facet normal -0.951052 -0.30903 0
    outer loop
      vertex -21.8497 -8.65093 0
      vertex -22.7617 -5.84421 7
      vertex -22.7617 -5.84421 0
    endloop
  endfacet
  facet normal -0.951052 -0.30903 0
    outer loop
      vertex -22.7617 -5.84421 7
      vertex -21.8497 -8.65093 0
      vertex -21.8497 -8.65093 7
    endloop
  endfacet
  facet normal 0.684546 -0.72897 0
    outer loop
      vertex 14.9795 -18.1071 0
      vertex 17.1308 -16.0869 7
      vertex 14.9795 -18.1071 7
    endloop
  endfacet
  facet normal 0.684546 -0.72897 0
    outer loop
      vertex 17.1308 -16.0869 7
      vertex 14.9795 -18.1071 0
      vertex 17.1308 -16.0869 0
    endloop
  endfacet
  facet normal 0.368128 -0.929775 0
    outer loop
      vertex 7.2619 -22.3498 0
      vertex 10.0058 -21.2634 7
      vertex 7.2619 -22.3498 7
    endloop
  endfacet
  facet normal 0.368128 -0.929775 0
    outer loop
      vertex 10.0058 -21.2634 7
      vertex 7.2619 -22.3498 0
      vertex 10.0058 -21.2634 0
    endloop
  endfacet
  facet normal 0.248683 -0.968585 0
    outer loop
      vertex 4.40346 -23.0837 0
      vertex 7.2619 -22.3498 7
      vertex 4.40346 -23.0837 7
    endloop
  endfacet
  facet normal 0.248683 -0.968585 0
    outer loop
      vertex 7.2619 -22.3498 7
      vertex 4.40346 -23.0837 0
      vertex 7.2619 -22.3498 0
    endloop
  endfacet
  facet normal 0.125341 -0.992114 0
    outer loop
      vertex 1.47558 -23.4536 0
      vertex 4.40346 -23.0837 7
      vertex 1.47558 -23.4536 7
    endloop
  endfacet
  facet normal 0.125341 -0.992114 0
    outer loop
      vertex 4.40346 -23.0837 7
      vertex 1.47558 -23.4536 0
      vertex 4.40346 -23.0837 0
    endloop
  endfacet
  facet normal -0.125341 -0.992114 0
    outer loop
      vertex -4.40346 -23.0837 0
      vertex -1.47558 -23.4536 7
      vertex -4.40346 -23.0837 7
    endloop
  endfacet
  facet normal -0.125341 -0.992114 -0
    outer loop
      vertex -1.47558 -23.4536 7
      vertex -4.40346 -23.0837 0
      vertex -1.47558 -23.4536 0
    endloop
  endfacet
  facet normal -0.368128 -0.929775 0
    outer loop
      vertex -10.0058 -21.2634 0
      vertex -7.2619 -22.3498 7
      vertex -10.0058 -21.2634 7
    endloop
  endfacet
  facet normal -0.368128 -0.929775 -0
    outer loop
      vertex -7.2619 -22.3498 7
      vertex -10.0058 -21.2634 0
      vertex -7.2619 -22.3498 0
    endloop
  endfacet
  facet normal -0.248683 -0.968585 0
    outer loop
      vertex -7.2619 -22.3498 0
      vertex -4.40346 -23.0837 7
      vertex -7.2619 -22.3498 7
    endloop
  endfacet
  facet normal -0.248683 -0.968585 -0
    outer loop
      vertex -4.40346 -23.0837 7
      vertex -7.2619 -22.3498 0
      vertex -4.40346 -23.0837 0
    endloop
  endfacet
  facet normal -0.844335 -0.535816 0
    outer loop
      vertex -19.0119 -13.813 0
      vertex -20.5932 -11.3212 7
      vertex -20.5932 -11.3212 0
    endloop
  endfacet
  facet normal -0.844335 -0.535816 0
    outer loop
      vertex -20.5932 -11.3212 7
      vertex -19.0119 -13.813 0
      vertex -19.0119 -13.813 7
    endloop
  endfacet
  facet normal 0.587765 -0.809032 0
    outer loop
      vertex 12.5919 -19.8417 0
      vertex 14.9795 -18.1071 7
      vertex 12.5919 -19.8417 7
    endloop
  endfacet
  facet normal 0.587765 -0.809032 0
    outer loop
      vertex 14.9795 -18.1071 7
      vertex 12.5919 -19.8417 0
      vertex 14.9795 -18.1071 0
    endloop
  endfacet
  facet normal -0.481748 -0.87631 0
    outer loop
      vertex -12.5919 -19.8417 0
      vertex -10.0058 -21.2634 7
      vertex -12.5919 -19.8417 7
    endloop
  endfacet
  facet normal -0.481748 -0.87631 -0
    outer loop
      vertex -10.0058 -21.2634 7
      vertex -12.5919 -19.8417 0
      vertex -10.0058 -21.2634 0
    endloop
  endfacet
  facet normal -0.587765 -0.809032 0
    outer loop
      vertex -14.9795 -18.1071 0
      vertex -12.5919 -19.8417 7
      vertex -14.9795 -18.1071 7
    endloop
  endfacet
  facet normal -0.587765 -0.809032 -0
    outer loop
      vertex -12.5919 -19.8417 7
      vertex -14.9795 -18.1071 0
      vertex -12.5919 -19.8417 0
    endloop
  endfacet
  facet normal -0.998027 -0.0627939 0
    outer loop
      vertex 17.5 0 0
      vertex 17.362 2.19333 7
      vertex 17.362 2.19333 0
    endloop
  endfacet
  facet normal -0.998027 -0.0627939 0
    outer loop
      vertex 17.362 2.19333 7
      vertex 17.5 0 0
      vertex 17.5 0 7
    endloop
  endfacet
  facet normal 0.998027 -0.0627939 0
    outer loop
      vertex -17.5 0 7
      vertex -17.362 2.19333 0
      vertex -17.362 2.19333 7
    endloop
  endfacet
  facet normal 0.998027 -0.0627939 0
    outer loop
      vertex -17.362 2.19333 0
      vertex -17.5 0 7
      vertex -17.5 0 0
    endloop
  endfacet
  facet normal 0 -1 0
    outer loop
      vertex -1.09883 17.4655 0
      vertex 1.09883 17.4655 7
      vertex -1.09883 17.4655 7
    endloop
  endfacet
  facet normal 0 -1 -0
    outer loop
      vertex 1.09883 17.4655 7
      vertex -1.09883 17.4655 0
      vertex 1.09883 17.4655 0
    endloop
  endfacet
  facet normal 0 1 -0
    outer loop
      vertex 1.09883 -17.4655 0
      vertex -1.09883 -17.4655 7
      vertex 1.09883 -17.4655 7
    endloop
  endfacet
  facet normal 0 1 0
    outer loop
      vertex -1.09883 -17.4655 7
      vertex 1.09883 -17.4655 0
      vertex -1.09883 -17.4655 0
    endloop
  endfacet
  facet normal -0.68453 -0.728985 0
    outer loop
      vertex 11.1549 13.484 0
      vertex 12.757 11.9796 7
      vertex 11.1549 13.484 7
    endloop
  endfacet
  facet normal -0.68453 -0.728985 -0
    outer loop
      vertex 12.757 11.9796 7
      vertex 11.1549 13.484 0
      vertex 12.757 11.9796 0
    endloop
  endfacet
  facet normal 0.68453 -0.728985 0
    outer loop
      vertex -12.757 11.9796 0
      vertex -11.1549 13.484 7
      vertex -12.757 11.9796 7
    endloop
  endfacet
  facet normal 0.68453 -0.728985 0
    outer loop
      vertex -11.1549 13.484 7
      vertex -12.757 11.9796 0
      vertex -11.1549 13.484 0
    endloop
  endfacet
  facet normal 0.368118 -0.929779 0
    outer loop
      vertex -7.45114 15.8345 0
      vertex -5.4078 16.6435 7
      vertex -7.45114 15.8345 7
    endloop
  endfacet
  facet normal 0.368118 -0.929779 0
    outer loop
      vertex -5.4078 16.6435 7
      vertex -7.45114 15.8345 0
      vertex -5.4078 16.6435 0
    endloop
  endfacet
  facet normal -0.904831 -0.425771 0
    outer loop
      vertex 16.2711 6.44218 0
      vertex 15.3354 8.43069 7
      vertex 15.3354 8.43069 0
    endloop
  endfacet
  facet normal -0.904831 -0.425771 0
    outer loop
      vertex 15.3354 8.43069 7
      vertex 16.2711 6.44218 0
      vertex 16.2711 6.44218 7
    endloop
  endfacet
  facet normal -0.982287 -0.187381 0
    outer loop
      vertex 17.362 2.19333 0
      vertex 16.9502 4.35207 7
      vertex 16.9502 4.35207 0
    endloop
  endfacet
  facet normal -0.982287 -0.187381 0
    outer loop
      vertex 16.9502 4.35207 7
      vertex 17.362 2.19333 0
      vertex 17.362 2.19333 7
    endloop
  endfacet
  facet normal -0.368118 -0.929779 0
    outer loop
      vertex 5.4078 16.6435 0
      vertex 7.45114 15.8345 7
      vertex 5.4078 16.6435 7
    endloop
  endfacet
  facet normal -0.368118 -0.929779 -0
    outer loop
      vertex 7.45114 15.8345 7
      vertex 5.4078 16.6435 0
      vertex 7.45114 15.8345 0
    endloop
  endfacet
  facet normal -0.481777 -0.876294 0
    outer loop
      vertex 7.45114 15.8345 0
      vertex 9.37697 14.7757 7
      vertex 7.45114 15.8345 7
    endloop
  endfacet
  facet normal -0.481777 -0.876294 -0
    outer loop
      vertex 9.37697 14.7757 7
      vertex 7.45114 15.8345 0
      vertex 9.37697 14.7757 0
    endloop
  endfacet
  facet normal 0.904831 -0.425771 0
    outer loop
      vertex -16.2711 6.44218 7
      vertex -15.3354 8.43069 0
      vertex -15.3354 8.43069 7
    endloop
  endfacet
  facet normal 0.904831 -0.425771 0
    outer loop
      vertex -15.3354 8.43069 0
      vertex -16.2711 6.44218 7
      vertex -16.2711 6.44218 0
    endloop
  endfacet
  facet normal 0.951059 -0.30901 0
    outer loop
      vertex -16.9502 4.35207 7
      vertex -16.2711 6.44218 0
      vertex -16.2711 6.44218 7
    endloop
  endfacet
  facet normal 0.951059 -0.30901 0
    outer loop
      vertex -16.2711 6.44218 0
      vertex -16.9502 4.35207 7
      vertex -16.9502 4.35207 0
    endloop
  endfacet
  facet normal 0.248673 -0.968587 0
    outer loop
      vertex -5.4078 16.6435 0
      vertex -3.27917 17.19 7
      vertex -5.4078 16.6435 7
    endloop
  endfacet
  facet normal 0.248673 -0.968587 0
    outer loop
      vertex -3.27917 17.19 7
      vertex -5.4078 16.6435 0
      vertex -3.27917 17.19 0
    endloop
  endfacet
  facet normal -0.951059 -0.30901 0
    outer loop
      vertex 16.9502 4.35207 0
      vertex 16.2711 6.44218 7
      vertex 16.2711 6.44218 0
    endloop
  endfacet
  facet normal -0.951059 -0.30901 0
    outer loop
      vertex 16.2711 6.44218 7
      vertex 16.9502 4.35207 0
      vertex 16.9502 4.35207 7
    endloop
  endfacet
  facet normal -0.770536 -0.637396 0
    outer loop
      vertex 14.1578 10.2862 0
      vertex 12.757 11.9796 7
      vertex 12.757 11.9796 0
    endloop
  endfacet
  facet normal -0.770536 -0.637396 0
    outer loop
      vertex 12.757 11.9796 7
      vertex 14.1578 10.2862 0
      vertex 14.1578 10.2862 7
    endloop
  endfacet
  facet normal -0.844316 -0.535845 0
    outer loop
      vertex 15.3354 8.43069 0
      vertex 14.1578 10.2862 7
      vertex 14.1578 10.2862 0
    endloop
  endfacet
  facet normal -0.844316 -0.535845 0
    outer loop
      vertex 14.1578 10.2862 7
      vertex 15.3354 8.43069 0
      vertex 15.3354 8.43069 7
    endloop
  endfacet
  facet normal -0.248673 -0.968587 0
    outer loop
      vertex 3.27917 17.19 0
      vertex 5.4078 16.6435 7
      vertex 3.27917 17.19 7
    endloop
  endfacet
  facet normal -0.248673 -0.968587 -0
    outer loop
      vertex 5.4078 16.6435 7
      vertex 3.27917 17.19 0
      vertex 5.4078 16.6435 0
    endloop
  endfacet
  facet normal -0.12536 -0.992111 0
    outer loop
      vertex 1.09883 17.4655 0
      vertex 3.27917 17.19 7
      vertex 1.09883 17.4655 7
    endloop
  endfacet
  facet normal -0.12536 -0.992111 -0
    outer loop
      vertex 3.27917 17.19 7
      vertex 1.09883 17.4655 0
      vertex 3.27917 17.19 0
    endloop
  endfacet
  facet normal -0.587773 -0.809026 0
    outer loop
      vertex 9.37697 14.7757 0
      vertex 11.1549 13.484 7
      vertex 9.37697 14.7757 7
    endloop
  endfacet
  facet normal -0.587773 -0.809026 -0
    outer loop
      vertex 11.1549 13.484 7
      vertex 9.37697 14.7757 0
      vertex 11.1549 13.484 0
    endloop
  endfacet
  facet normal 0.844316 -0.535845 0
    outer loop
      vertex -15.3354 8.43069 7
      vertex -14.1578 10.2862 0
      vertex -14.1578 10.2862 7
    endloop
  endfacet
  facet normal 0.844316 -0.535845 0
    outer loop
      vertex -14.1578 10.2862 0
      vertex -15.3354 8.43069 7
      vertex -15.3354 8.43069 0
    endloop
  endfacet
  facet normal 0.770536 -0.637396 0
    outer loop
      vertex -14.1578 10.2862 7
      vertex -12.757 11.9796 0
      vertex -12.757 11.9796 7
    endloop
  endfacet
  facet normal 0.770536 -0.637396 0
    outer loop
      vertex -12.757 11.9796 0
      vertex -14.1578 10.2862 7
      vertex -14.1578 10.2862 0
    endloop
  endfacet
  facet normal 0.982287 -0.187381 0
    outer loop
      vertex -17.362 2.19333 7
      vertex -16.9502 4.35207 0
      vertex -16.9502 4.35207 7
    endloop
  endfacet
  facet normal 0.982287 -0.187381 0
    outer loop
      vertex -16.9502 4.35207 0
      vertex -17.362 2.19333 7
      vertex -17.362 2.19333 0
    endloop
  endfacet
  facet normal 0.481777 -0.876294 0
    outer loop
      vertex -9.37697 14.7757 0
      vertex -7.45114 15.8345 7
      vertex -9.37697 14.7757 7
    endloop
  endfacet
  facet normal 0.481777 -0.876294 0
    outer loop
      vertex -7.45114 15.8345 7
      vertex -9.37697 14.7757 0
      vertex -7.45114 15.8345 0
    endloop
  endfacet
  facet normal 0.587773 -0.809026 0
    outer loop
      vertex -11.1549 13.484 0
      vertex -9.37697 14.7757 7
      vertex -11.1549 13.484 7
    endloop
  endfacet
  facet normal 0.587773 -0.809026 0
    outer loop
      vertex -9.37697 14.7757 7
      vertex -11.1549 13.484 0
      vertex -9.37697 14.7757 0
    endloop
  endfacet
  facet normal 0.12536 -0.992111 0
    outer loop
      vertex -3.27917 17.19 0
      vertex -1.09883 17.4655 7
      vertex -3.27917 17.19 7
    endloop
  endfacet
  facet normal 0.12536 -0.992111 0
    outer loop
      vertex -1.09883 17.4655 7
      vertex -3.27917 17.19 0
      vertex -1.09883 17.4655 0
    endloop
  endfacet
  facet normal -0.982287 0.187381 0
    outer loop
      vertex 16.9502 -4.35207 0
      vertex 17.362 -2.19333 7
      vertex 17.362 -2.19333 0
    endloop
  endfacet
  facet normal -0.982287 0.187381 0
    outer loop
      vertex 17.362 -2.19333 7
      vertex 16.9502 -4.35207 0
      vertex 16.9502 -4.35207 7
    endloop
  endfacet
  facet normal 0.68453 0.728985 -0
    outer loop
      vertex -11.1549 -13.484 0
      vertex -12.757 -11.9796 7
      vertex -11.1549 -13.484 7
    endloop
  endfacet
  facet normal 0.68453 0.728985 0
    outer loop
      vertex -12.757 -11.9796 7
      vertex -11.1549 -13.484 0
      vertex -12.757 -11.9796 0
    endloop
  endfacet
  facet normal 0.904831 0.425771 0
    outer loop
      vertex -15.3354 -8.43069 7
      vertex -16.2711 -6.44218 0
      vertex -16.2711 -6.44218 7
    endloop
  endfacet
  facet normal 0.904831 0.425771 0
    outer loop
      vertex -16.2711 -6.44218 0
      vertex -15.3354 -8.43069 7
      vertex -15.3354 -8.43069 0
    endloop
  endfacet
  facet normal 0.844316 0.535845 0
    outer loop
      vertex -14.1578 -10.2862 7
      vertex -15.3354 -8.43069 0
      vertex -15.3354 -8.43069 7
    endloop
  endfacet
  facet normal 0.844316 0.535845 0
    outer loop
      vertex -15.3354 -8.43069 0
      vertex -14.1578 -10.2862 7
      vertex -14.1578 -10.2862 0
    endloop
  endfacet
  facet normal -0.481777 0.876294 0
    outer loop
      vertex 9.37697 -14.7757 0
      vertex 7.45114 -15.8345 7
      vertex 9.37697 -14.7757 7
    endloop
  endfacet
  facet normal -0.481777 0.876294 0
    outer loop
      vertex 7.45114 -15.8345 7
      vertex 9.37697 -14.7757 0
      vertex 7.45114 -15.8345 0
    endloop
  endfacet
  facet normal -0.904831 0.425771 0
    outer loop
      vertex 15.3354 -8.43069 0
      vertex 16.2711 -6.44218 7
      vertex 16.2711 -6.44218 0
    endloop
  endfacet
  facet normal -0.904831 0.425771 0
    outer loop
      vertex 16.2711 -6.44218 7
      vertex 15.3354 -8.43069 0
      vertex 15.3354 -8.43069 7
    endloop
  endfacet
  facet normal -0.998027 0.0627939 0
    outer loop
      vertex 17.362 -2.19333 0
      vertex 17.5 0 7
      vertex 17.5 0 0
    endloop
  endfacet
  facet normal -0.998027 0.0627939 0
    outer loop
      vertex 17.5 0 7
      vertex 17.362 -2.19333 0
      vertex 17.362 -2.19333 7
    endloop
  endfacet
  facet normal 0.770536 0.637396 0
    outer loop
      vertex -12.757 -11.9796 7
      vertex -14.1578 -10.2862 0
      vertex -14.1578 -10.2862 7
    endloop
  endfacet
  facet normal 0.770536 0.637396 0
    outer loop
      vertex -14.1578 -10.2862 0
      vertex -12.757 -11.9796 7
      vertex -12.757 -11.9796 0
    endloop
  endfacet
  facet normal 0.951059 0.30901 0
    outer loop
      vertex -16.2711 -6.44218 7
      vertex -16.9502 -4.35207 0
      vertex -16.9502 -4.35207 7
    endloop
  endfacet
  facet normal 0.951059 0.30901 0
    outer loop
      vertex -16.9502 -4.35207 0
      vertex -16.2711 -6.44218 7
      vertex -16.2711 -6.44218 0
    endloop
  endfacet
  facet normal -0.68453 0.728985 0
    outer loop
      vertex 12.757 -11.9796 0
      vertex 11.1549 -13.484 7
      vertex 12.757 -11.9796 7
    endloop
  endfacet
  facet normal -0.68453 0.728985 0
    outer loop
      vertex 11.1549 -13.484 7
      vertex 12.757 -11.9796 0
      vertex 11.1549 -13.484 0
    endloop
  endfacet
  facet normal -0.368118 0.929779 0
    outer loop
      vertex 7.45114 -15.8345 0
      vertex 5.4078 -16.6435 7
      vertex 7.45114 -15.8345 7
    endloop
  endfacet
  facet normal -0.368118 0.929779 0
    outer loop
      vertex 5.4078 -16.6435 7
      vertex 7.45114 -15.8345 0
      vertex 5.4078 -16.6435 0
    endloop
  endfacet
  facet normal -0.248673 0.968587 0
    outer loop
      vertex 5.4078 -16.6435 0
      vertex 3.27917 -17.19 7
      vertex 5.4078 -16.6435 7
    endloop
  endfacet
  facet normal -0.248673 0.968587 0
    outer loop
      vertex 3.27917 -17.19 7
      vertex 5.4078 -16.6435 0
      vertex 3.27917 -17.19 0
    endloop
  endfacet
  facet normal -0.12536 0.992111 0
    outer loop
      vertex 3.27917 -17.19 0
      vertex 1.09883 -17.4655 7
      vertex 3.27917 -17.19 7
    endloop
  endfacet
  facet normal -0.12536 0.992111 0
    outer loop
      vertex 1.09883 -17.4655 7
      vertex 3.27917 -17.19 0
      vertex 1.09883 -17.4655 0
    endloop
  endfacet
  facet normal -0.844316 0.535845 0
    outer loop
      vertex 14.1578 -10.2862 0
      vertex 15.3354 -8.43069 7
      vertex 15.3354 -8.43069 0
    endloop
  endfacet
  facet normal -0.844316 0.535845 0
    outer loop
      vertex 15.3354 -8.43069 7
      vertex 14.1578 -10.2862 0
      vertex 14.1578 -10.2862 7
    endloop
  endfacet
  facet normal -0.770536 0.637396 0
    outer loop
      vertex 12.757 -11.9796 0
      vertex 14.1578 -10.2862 7
      vertex 14.1578 -10.2862 0
    endloop
  endfacet
  facet normal -0.770536 0.637396 0
    outer loop
      vertex 14.1578 -10.2862 7
      vertex 12.757 -11.9796 0
      vertex 12.757 -11.9796 7
    endloop
  endfacet
  facet normal -0.951059 0.30901 0
    outer loop
      vertex 16.2711 -6.44218 0
      vertex 16.9502 -4.35207 7
      vertex 16.9502 -4.35207 0
    endloop
  endfacet
  facet normal -0.951059 0.30901 0
    outer loop
      vertex 16.9502 -4.35207 7
      vertex 16.2711 -6.44218 0
      vertex 16.2711 -6.44218 7
    endloop
  endfacet
  facet normal 0.12536 0.992111 -0
    outer loop
      vertex -1.09883 -17.4655 0
      vertex -3.27917 -17.19 7
      vertex -1.09883 -17.4655 7
    endloop
  endfacet
  facet normal 0.12536 0.992111 0
    outer loop
      vertex -3.27917 -17.19 7
      vertex -1.09883 -17.4655 0
      vertex -3.27917 -17.19 0
    endloop
  endfacet
  facet normal 0.368118 0.929779 -0
    outer loop
      vertex -5.4078 -16.6435 0
      vertex -7.45114 -15.8345 7
      vertex -5.4078 -16.6435 7
    endloop
  endfacet
  facet normal 0.368118 0.929779 0
    outer loop
      vertex -7.45114 -15.8345 7
      vertex -5.4078 -16.6435 0
      vertex -7.45114 -15.8345 0
    endloop
  endfacet
  facet normal 0.248673 0.968587 -0
    outer loop
      vertex -3.27917 -17.19 0
      vertex -5.4078 -16.6435 7
      vertex -3.27917 -17.19 7
    endloop
  endfacet
  facet normal 0.248673 0.968587 0
    outer loop
      vertex -5.4078 -16.6435 7
      vertex -3.27917 -17.19 0
      vertex -5.4078 -16.6435 0
    endloop
  endfacet
  facet normal 0.982287 0.187381 0
    outer loop
      vertex -16.9502 -4.35207 7
      vertex -17.362 -2.19333 0
      vertex -17.362 -2.19333 7
    endloop
  endfacet
  facet normal 0.982287 0.187381 0
    outer loop
      vertex -17.362 -2.19333 0
      vertex -16.9502 -4.35207 7
      vertex -16.9502 -4.35207 0
    endloop
  endfacet
  facet normal 0.998027 0.0627939 0
    outer loop
      vertex -17.362 -2.19333 7
      vertex -17.5 0 0
      vertex -17.5 0 7
    endloop
  endfacet
  facet normal 0.998027 0.0627939 0
    outer loop
      vertex -17.5 0 0
      vertex -17.362 -2.19333 7
      vertex -17.362 -2.19333 0
    endloop
  endfacet
  facet normal -0.587773 0.809026 0
    outer loop
      vertex 11.1549 -13.484 0
      vertex 9.37697 -14.7757 7
      vertex 11.1549 -13.484 7
    endloop
  endfacet
  facet normal -0.587773 0.809026 0
    outer loop
      vertex 9.37697 -14.7757 7
      vertex 11.1549 -13.484 0
      vertex 9.37697 -14.7757 0
    endloop
  endfacet
  facet normal 0.481777 0.876294 -0
    outer loop
      vertex -7.45114 -15.8345 0
      vertex -9.37697 -14.7757 7
      vertex -7.45114 -15.8345 7
    endloop
  endfacet
  facet normal 0.481777 0.876294 0
    outer loop
      vertex -9.37697 -14.7757 7
      vertex -7.45114 -15.8345 0
      vertex -9.37697 -14.7757 0
    endloop
  endfacet
  facet normal 0.587773 0.809026 -0
    outer loop
      vertex -9.37697 -14.7757 0
      vertex -11.1549 -13.484 7
      vertex -9.37697 -14.7757 7
    endloop
  endfacet
  facet normal 0.587773 0.809026 0
    outer loop
      vertex -11.1549 -13.484 7
      vertex -9.37697 -14.7757 0
      vertex -11.1549 -13.484 0
    endloop
  endfacet
endsolid OpenSCAD_Model
