<?xml version="1.0" standalone="no"?>
<!DOCTYPE svg PUBLIC "-//W3C//DTD SVG 1.1//EN" "http://www.w3.org/Graphics/SVG/1.1/DTD/svg11.dtd">
<svg width="196mm" height="3502mm" viewBox="-98 -6899 196 3502" xmlns="http://www.w3.org/2000/svg" version="1.1">
<title>OpenSCAD Model</title>
<path d="
M 93.4369,-6673.59 L 94.0451,-6673.74 L 94.6289,-6673.98 L 95.1791,-6674.28 L 95.6871,-6674.65 L 96.1448,-6675.08
 L 96.5451,-6675.56 L 96.8815,-6676.09 L 97.1489,-6676.66 L 97.3429,-6677.26 L 97.4606,-6677.87 L 97.5,-6678.5
 L 97.5,-6893.5 L 97.4606,-6894.13 L 97.3429,-6894.74 L 97.1489,-6895.34 L 96.8815,-6895.91 L 96.5451,-6896.44
 L 96.1448,-6896.92 L 95.6871,-6897.35 L 95.1791,-6897.72 L 94.6289,-6898.02 L 94.0451,-6898.26 L 93.4369,-6898.41
 L 92.8139,-6898.49 L -92.8139,-6898.49 L -93.4369,-6898.41 L -94.0451,-6898.26 L -94.6289,-6898.02 L -95.1791,-6897.72
 L -95.6871,-6897.35 L -96.1448,-6896.92 L -96.5451,-6896.44 L -96.8815,-6895.91 L -97.1489,-6895.34 L -97.3429,-6894.74
 L -97.4606,-6894.13 L -97.5,-6893.5 L -97.5,-6678.5 L -97.4606,-6677.87 L -97.3429,-6677.26 L -97.1489,-6676.66
 L -96.8815,-6676.09 L -96.5451,-6675.56 L -96.1448,-6675.08 L -95.6871,-6674.65 L -95.1791,-6674.28 L -94.6289,-6673.98
 L -94.0451,-6673.74 L -93.4369,-6673.59 L -92.8139,-6673.51 L 92.8139,-6673.51 z
M -92.2512,-6675.01 L -92.7495,-6675.07 L -93.2361,-6675.2 L -93.7031,-6675.38 L -94.1433,-6675.62 L -94.5497,-6675.92
 L -94.9159,-6676.26 L -95.2361,-6676.65 L -95.5052,-6677.07 L -95.7191,-6677.53 L -95.8743,-6678.01 L -95.9685,-6678.5
 L -96,-6679 L -96,-6893 L -95.9685,-6893.5 L -95.8743,-6893.99 L -95.7191,-6894.47 L -95.5052,-6894.93
 L -95.2361,-6895.35 L -94.9159,-6895.74 L -94.5497,-6896.08 L -94.1433,-6896.38 L -93.7031,-6896.62 L -93.2361,-6896.8
 L -92.7495,-6896.93 L -92.2512,-6896.99 L 92.2512,-6896.99 L 92.7495,-6896.93 L 93.2361,-6896.8 L 93.7031,-6896.62
 L 94.1433,-6896.38 L 94.5497,-6896.08 L 94.9159,-6895.74 L 95.2361,-6895.35 L 95.5052,-6894.93 L 95.7191,-6894.47
 L 95.8743,-6893.99 L 95.9685,-6893.5 L 96,-6893 L 96,-6679 L 95.9685,-6678.5 L 95.8743,-6678.01
 L 95.7191,-6677.53 L 95.5052,-6677.07 L 95.2361,-6676.65 L 94.9159,-6676.26 L 94.5497,-6675.92 L 94.1433,-6675.62
 L 93.7031,-6675.38 L 93.2361,-6675.2 L 92.7495,-6675.07 L 92.2512,-6675.01 z
M 93.4369,-6439.59 L 94.0451,-6439.74 L 94.6289,-6439.98 L 95.1791,-6440.28 L 95.6871,-6440.65 L 96.1448,-6441.08
 L 96.5451,-6441.56 L 96.8815,-6442.09 L 97.1489,-6442.66 L 97.3429,-6443.26 L 97.4606,-6443.87 L 97.5,-6444.5
 L 97.5,-6659.5 L 97.4606,-6660.13 L 97.3429,-6660.74 L 97.1489,-6661.34 L 96.8815,-6661.91 L 96.5451,-6662.44
 L 96.1448,-6662.92 L 95.6871,-6663.35 L 95.1791,-6663.72 L 94.6289,-6664.02 L 94.0451,-6664.26 L 93.4369,-6664.41
 L 92.8139,-6664.49 L -92.8139,-6664.49 L -93.4369,-6664.41 L -94.0451,-6664.26 L -94.6289,-6664.02 L -95.1791,-6663.72
 L -95.6871,-6663.35 L -96.1448,-6662.92 L -96.5451,-6662.44 L -96.8815,-6661.91 L -97.1489,-6661.34 L -97.3429,-6660.74
 L -97.4606,-6660.13 L -97.5,-6659.5 L -97.5,-6444.5 L -97.4606,-6443.87 L -97.3429,-6443.26 L -97.1489,-6442.66
 L -96.8815,-6442.09 L -96.5451,-6441.56 L -96.1448,-6441.08 L -95.6871,-6440.65 L -95.1791,-6440.28 L -94.6289,-6439.98
 L -94.0451,-6439.74 L -93.4369,-6439.59 L -92.8139,-6439.51 L 92.8139,-6439.51 z
M -92.2512,-6441.01 L -92.7495,-6441.07 L -93.2361,-6441.2 L -93.7031,-6441.38 L -94.1433,-6441.62 L -94.5497,-6441.92
 L -94.9159,-6442.26 L -95.2361,-6442.65 L -95.5052,-6443.07 L -95.7191,-6443.53 L -95.8743,-6444.01 L -95.9685,-6444.5
 L -96,-6445 L -96,-6659 L -95.9685,-6659.5 L -95.8743,-6659.99 L -95.7191,-6660.47 L -95.5052,-6660.93
 L -95.2361,-6661.35 L -94.9159,-6661.74 L -94.5497,-6662.08 L -94.1433,-6662.38 L -93.7031,-6662.62 L -93.2361,-6662.8
 L -92.7495,-6662.93 L -92.2512,-6662.99 L 92.2512,-6662.99 L 92.7495,-6662.93 L 93.2361,-6662.8 L 93.7031,-6662.62
 L 94.1433,-6662.38 L 94.5497,-6662.08 L 94.9159,-6661.74 L 95.2361,-6661.35 L 95.5052,-6660.93 L 95.7191,-6660.47
 L 95.8743,-6659.99 L 95.9685,-6659.5 L 96,-6659 L 96,-6445 L 95.9685,-6444.5 L 95.8743,-6444.01
 L 95.7191,-6443.53 L 95.5052,-6443.07 L 95.2361,-6442.65 L 94.9159,-6442.26 L 94.5497,-6441.92 L 94.1433,-6441.62
 L 93.7031,-6441.38 L 93.2361,-6441.2 L 92.7495,-6441.07 L 92.2512,-6441.01 z
M 93.4369,-6205.59 L 94.0451,-6205.74 L 94.6289,-6205.98 L 95.1791,-6206.28 L 95.6871,-6206.65 L 96.1448,-6207.08
 L 96.5451,-6207.56 L 96.8815,-6208.09 L 97.1489,-6208.66 L 97.3429,-6209.26 L 97.4606,-6209.87 L 97.5,-6210.5
 L 97.5,-6425.5 L 97.4606,-6426.13 L 97.3429,-6426.74 L 97.1489,-6427.34 L 96.8815,-6427.91 L 96.5451,-6428.44
 L 96.1448,-6428.92 L 95.6871,-6429.35 L 95.1791,-6429.72 L 94.6289,-6430.02 L 94.0451,-6430.26 L 93.4369,-6430.41
 L 92.8139,-6430.49 L -92.8139,-6430.49 L -93.4369,-6430.41 L -94.0451,-6430.26 L -94.6289,-6430.02 L -95.1791,-6429.72
 L -95.6871,-6429.35 L -96.1448,-6428.92 L -96.5451,-6428.44 L -96.8815,-6427.91 L -97.1489,-6427.34 L -97.3429,-6426.74
 L -97.4606,-6426.13 L -97.5,-6425.5 L -97.5,-6210.5 L -97.4606,-6209.87 L -97.3429,-6209.26 L -97.1489,-6208.66
 L -96.8815,-6208.09 L -96.5451,-6207.56 L -96.1448,-6207.08 L -95.6871,-6206.65 L -95.1791,-6206.28 L -94.6289,-6205.98
 L -94.0451,-6205.74 L -93.4369,-6205.59 L -92.8139,-6205.51 L 92.8139,-6205.51 z
M -92.2512,-6207.01 L -92.7495,-6207.07 L -93.2361,-6207.2 L -93.7031,-6207.38 L -94.1433,-6207.62 L -94.5497,-6207.92
 L -94.9159,-6208.26 L -95.2361,-6208.65 L -95.5052,-6209.07 L -95.7191,-6209.53 L -95.8743,-6210.01 L -95.9685,-6210.5
 L -96,-6211 L -96,-6425 L -95.9685,-6425.5 L -95.8743,-6425.99 L -95.7191,-6426.47 L -95.5052,-6426.93
 L -95.2361,-6427.35 L -94.9159,-6427.74 L -94.5497,-6428.08 L -94.1433,-6428.38 L -93.7031,-6428.62 L -93.2361,-6428.8
 L -92.7495,-6428.93 L -92.2512,-6428.99 L 92.2512,-6428.99 L 92.7495,-6428.93 L 93.2361,-6428.8 L 93.7031,-6428.62
 L 94.1433,-6428.38 L 94.5497,-6428.08 L 94.9159,-6427.74 L 95.2361,-6427.35 L 95.5052,-6426.93 L 95.7191,-6426.47
 L 95.8743,-6425.99 L 95.9685,-6425.5 L 96,-6425 L 96,-6211 L 95.9685,-6210.5 L 95.8743,-6210.01
 L 95.7191,-6209.53 L 95.5052,-6209.07 L 95.2361,-6208.65 L 94.9159,-6208.26 L 94.5497,-6207.92 L 94.1433,-6207.62
 L 93.7031,-6207.38 L 93.2361,-6207.2 L 92.7495,-6207.07 L 92.2512,-6207.01 z
M 93.4369,-5971.59 L 94.0451,-5971.74 L 94.6289,-5971.98 L 95.1791,-5972.28 L 95.6871,-5972.65 L 96.1448,-5973.08
 L 96.5451,-5973.56 L 96.8815,-5974.09 L 97.1489,-5974.66 L 97.3429,-5975.26 L 97.4606,-5975.87 L 97.5,-5976.5
 L 97.5,-6191.5 L 97.4606,-6192.13 L 97.3429,-6192.74 L 97.1489,-6193.34 L 96.8815,-6193.91 L 96.5451,-6194.44
 L 96.1448,-6194.92 L 95.6871,-6195.35 L 95.1791,-6195.72 L 94.6289,-6196.02 L 94.0451,-6196.26 L 93.4369,-6196.41
 L 92.8139,-6196.49 L -92.8139,-6196.49 L -93.4369,-6196.41 L -94.0451,-6196.26 L -94.6289,-6196.02 L -95.1791,-6195.72
 L -95.6871,-6195.35 L -96.1448,-6194.92 L -96.5451,-6194.44 L -96.8815,-6193.91 L -97.1489,-6193.34 L -97.3429,-6192.74
 L -97.4606,-6192.13 L -97.5,-6191.5 L -97.5,-5976.5 L -97.4606,-5975.87 L -97.3429,-5975.26 L -97.1489,-5974.66
 L -96.8815,-5974.09 L -96.5451,-5973.56 L -96.1448,-5973.08 L -95.6871,-5972.65 L -95.1791,-5972.28 L -94.6289,-5971.98
 L -94.0451,-5971.74 L -93.4369,-5971.59 L -92.8139,-5971.51 L 92.8139,-5971.51 z
M -92.2512,-5973.01 L -92.7495,-5973.07 L -93.2361,-5973.2 L -93.7031,-5973.38 L -94.1433,-5973.62 L -94.5497,-5973.92
 L -94.9159,-5974.26 L -95.2361,-5974.65 L -95.5052,-5975.07 L -95.7191,-5975.53 L -95.8743,-5976.01 L -95.9685,-5976.5
 L -96,-5977 L -96,-6191 L -95.9685,-6191.5 L -95.8743,-6191.99 L -95.7191,-6192.47 L -95.5052,-6192.93
 L -95.2361,-6193.35 L -94.9159,-6193.74 L -94.5497,-6194.08 L -94.1433,-6194.38 L -93.7031,-6194.62 L -93.2361,-6194.8
 L -92.7495,-6194.93 L -92.2512,-6194.99 L 92.2512,-6194.99 L 92.7495,-6194.93 L 93.2361,-6194.8 L 93.7031,-6194.62
 L 94.1433,-6194.38 L 94.5497,-6194.08 L 94.9159,-6193.74 L 95.2361,-6193.35 L 95.5052,-6192.93 L 95.7191,-6192.47
 L 95.8743,-6191.99 L 95.9685,-6191.5 L 96,-6191 L 96,-5977 L 95.9685,-5976.5 L 95.8743,-5976.01
 L 95.7191,-5975.53 L 95.5052,-5975.07 L 95.2361,-5974.65 L 94.9159,-5974.26 L 94.5497,-5973.92 L 94.1433,-5973.62
 L 93.7031,-5973.38 L 93.2361,-5973.2 L 92.7495,-5973.07 L 92.2512,-5973.01 z
M 93.4369,-5737.59 L 94.0451,-5737.74 L 94.6289,-5737.98 L 95.1791,-5738.28 L 95.6871,-5738.65 L 96.1448,-5739.08
 L 96.5451,-5739.56 L 96.8815,-5740.09 L 97.1489,-5740.66 L 97.3429,-5741.26 L 97.4606,-5741.87 L 97.5,-5742.5
 L 97.5,-5957.5 L 97.4606,-5958.13 L 97.3429,-5958.74 L 97.1489,-5959.34 L 96.8815,-5959.91 L 96.5451,-5960.44
 L 96.1448,-5960.92 L 95.6871,-5961.35 L 95.1791,-5961.72 L 94.6289,-5962.02 L 94.0451,-5962.26 L 93.4369,-5962.41
 L 92.8139,-5962.49 L -92.8139,-5962.49 L -93.4369,-5962.41 L -94.0451,-5962.26 L -94.6289,-5962.02 L -95.1791,-5961.72
 L -95.6871,-5961.35 L -96.1448,-5960.92 L -96.5451,-5960.44 L -96.8815,-5959.91 L -97.1489,-5959.34 L -97.3429,-5958.74
 L -97.4606,-5958.13 L -97.5,-5957.5 L -97.5,-5742.5 L -97.4606,-5741.87 L -97.3429,-5741.26 L -97.1489,-5740.66
 L -96.8815,-5740.09 L -96.5451,-5739.56 L -96.1448,-5739.08 L -95.6871,-5738.65 L -95.1791,-5738.28 L -94.6289,-5737.98
 L -94.0451,-5737.74 L -93.4369,-5737.59 L -92.8139,-5737.51 L 92.8139,-5737.51 z
M -92.2512,-5739.01 L -92.7495,-5739.07 L -93.2361,-5739.2 L -93.7031,-5739.38 L -94.1433,-5739.62 L -94.5497,-5739.92
 L -94.9159,-5740.26 L -95.2361,-5740.65 L -95.5052,-5741.07 L -95.7191,-5741.53 L -95.8743,-5742.01 L -95.9685,-5742.5
 L -96,-5743 L -96,-5957 L -95.9685,-5957.5 L -95.8743,-5957.99 L -95.7191,-5958.47 L -95.5052,-5958.93
 L -95.2361,-5959.35 L -94.9159,-5959.74 L -94.5497,-5960.08 L -94.1433,-5960.38 L -93.7031,-5960.62 L -93.2361,-5960.8
 L -92.7495,-5960.93 L -92.2512,-5960.99 L 92.2512,-5960.99 L 92.7495,-5960.93 L 93.2361,-5960.8 L 93.7031,-5960.62
 L 94.1433,-5960.38 L 94.5497,-5960.08 L 94.9159,-5959.74 L 95.2361,-5959.35 L 95.5052,-5958.93 L 95.7191,-5958.47
 L 95.8743,-5957.99 L 95.9685,-5957.5 L 96,-5957 L 96,-5743 L 95.9685,-5742.5 L 95.8743,-5742.01
 L 95.7191,-5741.53 L 95.5052,-5741.07 L 95.2361,-5740.65 L 94.9159,-5740.26 L 94.5497,-5739.92 L 94.1433,-5739.62
 L 93.7031,-5739.38 L 93.2361,-5739.2 L 92.7495,-5739.07 L 92.2512,-5739.01 z
M 93.4369,-5503.59 L 94.0451,-5503.74 L 94.6289,-5503.98 L 95.1791,-5504.28 L 95.6871,-5504.65 L 96.1448,-5505.08
 L 96.5451,-5505.56 L 96.8815,-5506.09 L 97.1489,-5506.66 L 97.3429,-5507.26 L 97.4606,-5507.87 L 97.5,-5508.5
 L 97.5,-5723.5 L 97.4606,-5724.13 L 97.3429,-5724.74 L 97.1489,-5725.34 L 96.8815,-5725.91 L 96.5451,-5726.44
 L 96.1448,-5726.92 L 95.6871,-5727.35 L 95.1791,-5727.72 L 94.6289,-5728.02 L 94.0451,-5728.26 L 93.4369,-5728.41
 L 92.8139,-5728.49 L -92.8139,-5728.49 L -93.4369,-5728.41 L -94.0451,-5728.26 L -94.6289,-5728.02 L -95.1791,-5727.72
 L -95.6871,-5727.35 L -96.1448,-5726.92 L -96.5451,-5726.44 L -96.8815,-5725.91 L -97.1489,-5725.34 L -97.3429,-5724.74
 L -97.4606,-5724.13 L -97.5,-5723.5 L -97.5,-5508.5 L -97.4606,-5507.87 L -97.3429,-5507.26 L -97.1489,-5506.66
 L -96.8815,-5506.09 L -96.5451,-5505.56 L -96.1448,-5505.08 L -95.6871,-5504.65 L -95.1791,-5504.28 L -94.6289,-5503.98
 L -94.0451,-5503.74 L -93.4369,-5503.59 L -92.8139,-5503.51 L 92.8139,-5503.51 z
M -92.2512,-5505.01 L -92.7495,-5505.07 L -93.2361,-5505.2 L -93.7031,-5505.38 L -94.1433,-5505.62 L -94.5497,-5505.92
 L -94.9159,-5506.26 L -95.2361,-5506.65 L -95.5052,-5507.07 L -95.7191,-5507.53 L -95.8743,-5508.01 L -95.9685,-5508.5
 L -96,-5509 L -96,-5723 L -95.9685,-5723.5 L -95.8743,-5723.99 L -95.7191,-5724.47 L -95.5052,-5724.93
 L -95.2361,-5725.35 L -94.9159,-5725.74 L -94.5497,-5726.08 L -94.1433,-5726.38 L -93.7031,-5726.62 L -93.2361,-5726.8
 L -92.7495,-5726.93 L -92.2512,-5726.99 L 92.2512,-5726.99 L 92.7495,-5726.93 L 93.2361,-5726.8 L 93.7031,-5726.62
 L 94.1433,-5726.38 L 94.5497,-5726.08 L 94.9159,-5725.74 L 95.2361,-5725.35 L 95.5052,-5724.93 L 95.7191,-5724.47
 L 95.8743,-5723.99 L 95.9685,-5723.5 L 96,-5723 L 96,-5509 L 95.9685,-5508.5 L 95.8743,-5508.01
 L 95.7191,-5507.53 L 95.5052,-5507.07 L 95.2361,-5506.65 L 94.9159,-5506.26 L 94.5497,-5505.92 L 94.1433,-5505.62
 L 93.7031,-5505.38 L 93.2361,-5505.2 L 92.7495,-5505.07 L 92.2512,-5505.01 z
M 93.4369,-5269.59 L 94.0451,-5269.74 L 94.6289,-5269.98 L 95.1791,-5270.28 L 95.6871,-5270.65 L 96.1448,-5271.08
 L 96.5451,-5271.56 L 96.8815,-5272.09 L 97.1489,-5272.66 L 97.3429,-5273.26 L 97.4606,-5273.87 L 97.5,-5274.5
 L 97.5,-5489.5 L 97.4606,-5490.13 L 97.3429,-5490.74 L 97.1489,-5491.34 L 96.8815,-5491.91 L 96.5451,-5492.44
 L 96.1448,-5492.92 L 95.6871,-5493.35 L 95.1791,-5493.72 L 94.6289,-5494.02 L 94.0451,-5494.26 L 93.4369,-5494.41
 L 92.8139,-5494.49 L -92.8139,-5494.49 L -93.4369,-5494.41 L -94.0451,-5494.26 L -94.6289,-5494.02 L -95.1791,-5493.72
 L -95.6871,-5493.35 L -96.1448,-5492.92 L -96.5451,-5492.44 L -96.8815,-5491.91 L -97.1489,-5491.34 L -97.3429,-5490.74
 L -97.4606,-5490.13 L -97.5,-5489.5 L -97.5,-5274.5 L -97.4606,-5273.87 L -97.3429,-5273.26 L -97.1489,-5272.66
 L -96.8815,-5272.09 L -96.5451,-5271.56 L -96.1448,-5271.08 L -95.6871,-5270.65 L -95.1791,-5270.28 L -94.6289,-5269.98
 L -94.0451,-5269.74 L -93.4369,-5269.59 L -92.8139,-5269.51 L 92.8139,-5269.51 z
M -92.2512,-5271.01 L -92.7495,-5271.07 L -93.2361,-5271.2 L -93.7031,-5271.38 L -94.1433,-5271.62 L -94.5497,-5271.92
 L -94.9159,-5272.26 L -95.2361,-5272.65 L -95.5052,-5273.07 L -95.7191,-5273.53 L -95.8743,-5274.01 L -95.9685,-5274.5
 L -96,-5275 L -96,-5489 L -95.9685,-5489.5 L -95.8743,-5489.99 L -95.7191,-5490.47 L -95.5052,-5490.93
 L -95.2361,-5491.35 L -94.9159,-5491.74 L -94.5497,-5492.08 L -94.1433,-5492.38 L -93.7031,-5492.62 L -93.2361,-5492.8
 L -92.7495,-5492.93 L -92.2512,-5492.99 L 92.2512,-5492.99 L 92.7495,-5492.93 L 93.2361,-5492.8 L 93.7031,-5492.62
 L 94.1433,-5492.38 L 94.5497,-5492.08 L 94.9159,-5491.74 L 95.2361,-5491.35 L 95.5052,-5490.93 L 95.7191,-5490.47
 L 95.8743,-5489.99 L 95.9685,-5489.5 L 96,-5489 L 96,-5275 L 95.9685,-5274.5 L 95.8743,-5274.01
 L 95.7191,-5273.53 L 95.5052,-5273.07 L 95.2361,-5272.65 L 94.9159,-5272.26 L 94.5497,-5271.92 L 94.1433,-5271.62
 L 93.7031,-5271.38 L 93.2361,-5271.2 L 92.7495,-5271.07 L 92.2512,-5271.01 z
M 93.4369,-5035.59 L 94.0451,-5035.74 L 94.6289,-5035.98 L 95.1791,-5036.28 L 95.6871,-5036.65 L 96.1448,-5037.08
 L 96.5451,-5037.56 L 96.8815,-5038.09 L 97.1489,-5038.66 L 97.3429,-5039.26 L 97.4606,-5039.87 L 97.5,-5040.5
 L 97.5,-5255.5 L 97.4606,-5256.13 L 97.3429,-5256.74 L 97.1489,-5257.34 L 96.8815,-5257.91 L 96.5451,-5258.44
 L 96.1448,-5258.92 L 95.6871,-5259.35 L 95.1791,-5259.72 L 94.6289,-5260.02 L 94.0451,-5260.26 L 93.4369,-5260.41
 L 92.8139,-5260.49 L -92.8139,-5260.49 L -93.4369,-5260.41 L -94.0451,-5260.26 L -94.6289,-5260.02 L -95.1791,-5259.72
 L -95.6871,-5259.35 L -96.1448,-5258.92 L -96.5451,-5258.44 L -96.8815,-5257.91 L -97.1489,-5257.34 L -97.3429,-5256.74
 L -97.4606,-5256.13 L -97.5,-5255.5 L -97.5,-5040.5 L -97.4606,-5039.87 L -97.3429,-5039.26 L -97.1489,-5038.66
 L -96.8815,-5038.09 L -96.5451,-5037.56 L -96.1448,-5037.08 L -95.6871,-5036.65 L -95.1791,-5036.28 L -94.6289,-5035.98
 L -94.0451,-5035.74 L -93.4369,-5035.59 L -92.8139,-5035.51 L 92.8139,-5035.51 z
M -92.2512,-5037.01 L -92.7495,-5037.07 L -93.2361,-5037.2 L -93.7031,-5037.38 L -94.1433,-5037.62 L -94.5497,-5037.92
 L -94.9159,-5038.26 L -95.2361,-5038.65 L -95.5052,-5039.07 L -95.7191,-5039.53 L -95.8743,-5040.01 L -95.9685,-5040.5
 L -96,-5041 L -96,-5255 L -95.9685,-5255.5 L -95.8743,-5255.99 L -95.7191,-5256.47 L -95.5052,-5256.93
 L -95.2361,-5257.35 L -94.9159,-5257.74 L -94.5497,-5258.08 L -94.1433,-5258.38 L -93.7031,-5258.62 L -93.2361,-5258.8
 L -92.7495,-5258.93 L -92.2512,-5258.99 L 92.2512,-5258.99 L 92.7495,-5258.93 L 93.2361,-5258.8 L 93.7031,-5258.62
 L 94.1433,-5258.38 L 94.5497,-5258.08 L 94.9159,-5257.74 L 95.2361,-5257.35 L 95.5052,-5256.93 L 95.7191,-5256.47
 L 95.8743,-5255.99 L 95.9685,-5255.5 L 96,-5255 L 96,-5041 L 95.9685,-5040.5 L 95.8743,-5040.01
 L 95.7191,-5039.53 L 95.5052,-5039.07 L 95.2361,-5038.65 L 94.9159,-5038.26 L 94.5497,-5037.92 L 94.1433,-5037.62
 L 93.7031,-5037.38 L 93.2361,-5037.2 L 92.7495,-5037.07 L 92.2512,-5037.01 z
M 93.4369,-4801.59 L 94.0451,-4801.74 L 94.6289,-4801.98 L 95.1791,-4802.28 L 95.6871,-4802.65 L 96.1448,-4803.08
 L 96.5451,-4803.56 L 96.8815,-4804.09 L 97.1489,-4804.66 L 97.3429,-4805.26 L 97.4606,-4805.87 L 97.5,-4806.5
 L 97.5,-5021.5 L 97.4606,-5022.13 L 97.3429,-5022.74 L 97.1489,-5023.34 L 96.8815,-5023.91 L 96.5451,-5024.44
 L 96.1448,-5024.92 L 95.6871,-5025.35 L 95.1791,-5025.72 L 94.6289,-5026.02 L 94.0451,-5026.26 L 93.4369,-5026.41
 L 92.8139,-5026.49 L -92.8139,-5026.49 L -93.4369,-5026.41 L -94.0451,-5026.26 L -94.6289,-5026.02 L -95.1791,-5025.72
 L -95.6871,-5025.35 L -96.1448,-5024.92 L -96.5451,-5024.44 L -96.8815,-5023.91 L -97.1489,-5023.34 L -97.3429,-5022.74
 L -97.4606,-5022.13 L -97.5,-5021.5 L -97.5,-4806.5 L -97.4606,-4805.87 L -97.3429,-4805.26 L -97.1489,-4804.66
 L -96.8815,-4804.09 L -96.5451,-4803.56 L -96.1448,-4803.08 L -95.6871,-4802.65 L -95.1791,-4802.28 L -94.6289,-4801.98
 L -94.0451,-4801.74 L -93.4369,-4801.59 L -92.8139,-4801.51 L 92.8139,-4801.51 z
M -92.2512,-4803.01 L -92.7495,-4803.07 L -93.2361,-4803.2 L -93.7031,-4803.38 L -94.1433,-4803.62 L -94.5497,-4803.92
 L -94.9159,-4804.26 L -95.2361,-4804.65 L -95.5052,-4805.07 L -95.7191,-4805.53 L -95.8743,-4806.01 L -95.9685,-4806.5
 L -96,-4807 L -96,-5021 L -95.9685,-5021.5 L -95.8743,-5021.99 L -95.7191,-5022.47 L -95.5052,-5022.93
 L -95.2361,-5023.35 L -94.9159,-5023.74 L -94.5497,-5024.08 L -94.1433,-5024.38 L -93.7031,-5024.62 L -93.2361,-5024.8
 L -92.7495,-5024.93 L -92.2512,-5024.99 L 92.2512,-5024.99 L 92.7495,-5024.93 L 93.2361,-5024.8 L 93.7031,-5024.62
 L 94.1433,-5024.38 L 94.5497,-5024.08 L 94.9159,-5023.74 L 95.2361,-5023.35 L 95.5052,-5022.93 L 95.7191,-5022.47
 L 95.8743,-5021.99 L 95.9685,-5021.5 L 96,-5021 L 96,-4807 L 95.9685,-4806.5 L 95.8743,-4806.01
 L 95.7191,-4805.53 L 95.5052,-4805.07 L 95.2361,-4804.65 L 94.9159,-4804.26 L 94.5497,-4803.92 L 94.1433,-4803.62
 L 93.7031,-4803.38 L 93.2361,-4803.2 L 92.7495,-4803.07 L 92.2512,-4803.01 z
M 93.4369,-4567.59 L 94.0451,-4567.74 L 94.6289,-4567.98 L 95.1791,-4568.28 L 95.6871,-4568.65 L 96.1448,-4569.08
 L 96.5451,-4569.56 L 96.8815,-4570.09 L 97.1489,-4570.66 L 97.3429,-4571.26 L 97.4606,-4571.87 L 97.5,-4572.5
 L 97.5,-4787.5 L 97.4606,-4788.13 L 97.3429,-4788.74 L 97.1489,-4789.34 L 96.8815,-4789.91 L 96.5451,-4790.44
 L 96.1448,-4790.92 L 95.6871,-4791.35 L 95.1791,-4791.72 L 94.6289,-4792.02 L 94.0451,-4792.26 L 93.4369,-4792.41
 L 92.8139,-4792.49 L -92.8139,-4792.49 L -93.4369,-4792.41 L -94.0451,-4792.26 L -94.6289,-4792.02 L -95.1791,-4791.72
 L -95.6871,-4791.35 L -96.1448,-4790.92 L -96.5451,-4790.44 L -96.8815,-4789.91 L -97.1489,-4789.34 L -97.3429,-4788.74
 L -97.4606,-4788.13 L -97.5,-4787.5 L -97.5,-4572.5 L -97.4606,-4571.87 L -97.3429,-4571.26 L -97.1489,-4570.66
 L -96.8815,-4570.09 L -96.5451,-4569.56 L -96.1448,-4569.08 L -95.6871,-4568.65 L -95.1791,-4568.28 L -94.6289,-4567.98
 L -94.0451,-4567.74 L -93.4369,-4567.59 L -92.8139,-4567.51 L 92.8139,-4567.51 z
M -92.2512,-4569.01 L -92.7495,-4569.07 L -93.2361,-4569.2 L -93.7031,-4569.38 L -94.1433,-4569.62 L -94.5497,-4569.92
 L -94.9159,-4570.26 L -95.2361,-4570.65 L -95.5052,-4571.07 L -95.7191,-4571.53 L -95.8743,-4572.01 L -95.9685,-4572.5
 L -96,-4573 L -96,-4787 L -95.9685,-4787.5 L -95.8743,-4787.99 L -95.7191,-4788.47 L -95.5052,-4788.93
 L -95.2361,-4789.35 L -94.9159,-4789.74 L -94.5497,-4790.08 L -94.1433,-4790.38 L -93.7031,-4790.62 L -93.2361,-4790.8
 L -92.7495,-4790.93 L -92.2512,-4790.99 L 92.2512,-4790.99 L 92.7495,-4790.93 L 93.2361,-4790.8 L 93.7031,-4790.62
 L 94.1433,-4790.38 L 94.5497,-4790.08 L 94.9159,-4789.74 L 95.2361,-4789.35 L 95.5052,-4788.93 L 95.7191,-4788.47
 L 95.8743,-4787.99 L 95.9685,-4787.5 L 96,-4787 L 96,-4573 L 95.9685,-4572.5 L 95.8743,-4572.01
 L 95.7191,-4571.53 L 95.5052,-4571.07 L 95.2361,-4570.65 L 94.9159,-4570.26 L 94.5497,-4569.92 L 94.1433,-4569.62
 L 93.7031,-4569.38 L 93.2361,-4569.2 L 92.7495,-4569.07 L 92.2512,-4569.01 z
M 93.4369,-4333.59 L 94.0451,-4333.74 L 94.6289,-4333.98 L 95.1791,-4334.28 L 95.6871,-4334.65 L 96.1448,-4335.08
 L 96.5451,-4335.56 L 96.8815,-4336.09 L 97.1489,-4336.66 L 97.3429,-4337.26 L 97.4606,-4337.87 L 97.5,-4338.5
 L 97.5,-4553.5 L 97.4606,-4554.13 L 97.3429,-4554.74 L 97.1489,-4555.34 L 96.8815,-4555.91 L 96.5451,-4556.44
 L 96.1448,-4556.92 L 95.6871,-4557.35 L 95.1791,-4557.72 L 94.6289,-4558.02 L 94.0451,-4558.26 L 93.4369,-4558.41
 L 92.8139,-4558.49 L -92.8139,-4558.49 L -93.4369,-4558.41 L -94.0451,-4558.26 L -94.6289,-4558.02 L -95.1791,-4557.72
 L -95.6871,-4557.35 L -96.1448,-4556.92 L -96.5451,-4556.44 L -96.8815,-4555.91 L -97.1489,-4555.34 L -97.3429,-4554.74
 L -97.4606,-4554.13 L -97.5,-4553.5 L -97.5,-4338.5 L -97.4606,-4337.87 L -97.3429,-4337.26 L -97.1489,-4336.66
 L -96.8815,-4336.09 L -96.5451,-4335.56 L -96.1448,-4335.08 L -95.6871,-4334.65 L -95.1791,-4334.28 L -94.6289,-4333.98
 L -94.0451,-4333.74 L -93.4369,-4333.59 L -92.8139,-4333.51 L 92.8139,-4333.51 z
M -92.2512,-4335.01 L -92.7495,-4335.07 L -93.2361,-4335.2 L -93.7031,-4335.38 L -94.1433,-4335.62 L -94.5497,-4335.92
 L -94.9159,-4336.26 L -95.2361,-4336.65 L -95.5052,-4337.07 L -95.7191,-4337.53 L -95.8743,-4338.01 L -95.9685,-4338.5
 L -96,-4339 L -96,-4553 L -95.9685,-4553.5 L -95.8743,-4553.99 L -95.7191,-4554.47 L -95.5052,-4554.93
 L -95.2361,-4555.35 L -94.9159,-4555.74 L -94.5497,-4556.08 L -94.1433,-4556.38 L -93.7031,-4556.62 L -93.2361,-4556.8
 L -92.7495,-4556.93 L -92.2512,-4556.99 L 92.2512,-4556.99 L 92.7495,-4556.93 L 93.2361,-4556.8 L 93.7031,-4556.62
 L 94.1433,-4556.38 L 94.5497,-4556.08 L 94.9159,-4555.74 L 95.2361,-4555.35 L 95.5052,-4554.93 L 95.7191,-4554.47
 L 95.8743,-4553.99 L 95.9685,-4553.5 L 96,-4553 L 96,-4339 L 95.9685,-4338.5 L 95.8743,-4338.01
 L 95.7191,-4337.53 L 95.5052,-4337.07 L 95.2361,-4336.65 L 94.9159,-4336.26 L 94.5497,-4335.92 L 94.1433,-4335.62
 L 93.7031,-4335.38 L 93.2361,-4335.2 L 92.7495,-4335.07 L 92.2512,-4335.01 z
M 93.4369,-4099.59 L 94.0451,-4099.74 L 94.6289,-4099.98 L 95.1791,-4100.28 L 95.6871,-4100.65 L 96.1448,-4101.08
 L 96.5451,-4101.56 L 96.8815,-4102.09 L 97.1489,-4102.66 L 97.3429,-4103.26 L 97.4606,-4103.87 L 97.5,-4104.5
 L 97.5,-4319.5 L 97.4606,-4320.13 L 97.3429,-4320.74 L 97.1489,-4321.34 L 96.8815,-4321.91 L 96.5451,-4322.44
 L 96.1448,-4322.92 L 95.6871,-4323.35 L 95.1791,-4323.72 L 94.6289,-4324.02 L 94.0451,-4324.26 L 93.4369,-4324.41
 L 92.8139,-4324.49 L -92.8139,-4324.49 L -93.4369,-4324.41 L -94.0451,-4324.26 L -94.6289,-4324.02 L -95.1791,-4323.72
 L -95.6871,-4323.35 L -96.1448,-4322.92 L -96.5451,-4322.44 L -96.8815,-4321.91 L -97.1489,-4321.34 L -97.3429,-4320.74
 L -97.4606,-4320.13 L -97.5,-4319.5 L -97.5,-4104.5 L -97.4606,-4103.87 L -97.3429,-4103.26 L -97.1489,-4102.66
 L -96.8815,-4102.09 L -96.5451,-4101.56 L -96.1448,-4101.08 L -95.6871,-4100.65 L -95.1791,-4100.28 L -94.6289,-4099.98
 L -94.0451,-4099.74 L -93.4369,-4099.59 L -92.8139,-4099.51 L 92.8139,-4099.51 z
M -92.2512,-4101.01 L -92.7495,-4101.07 L -93.2361,-4101.2 L -93.7031,-4101.38 L -94.1433,-4101.62 L -94.5497,-4101.92
 L -94.9159,-4102.26 L -95.2361,-4102.65 L -95.5052,-4103.07 L -95.7191,-4103.53 L -95.8743,-4104.01 L -95.9685,-4104.5
 L -96,-4105 L -96,-4319 L -95.9685,-4319.5 L -95.8743,-4319.99 L -95.7191,-4320.47 L -95.5052,-4320.93
 L -95.2361,-4321.35 L -94.9159,-4321.74 L -94.5497,-4322.08 L -94.1433,-4322.38 L -93.7031,-4322.62 L -93.2361,-4322.8
 L -92.7495,-4322.93 L -92.2512,-4322.99 L 92.2512,-4322.99 L 92.7495,-4322.93 L 93.2361,-4322.8 L 93.7031,-4322.62
 L 94.1433,-4322.38 L 94.5497,-4322.08 L 94.9159,-4321.74 L 95.2361,-4321.35 L 95.5052,-4320.93 L 95.7191,-4320.47
 L 95.8743,-4319.99 L 95.9685,-4319.5 L 96,-4319 L 96,-4105 L 95.9685,-4104.5 L 95.8743,-4104.01
 L 95.7191,-4103.53 L 95.5052,-4103.07 L 95.2361,-4102.65 L 94.9159,-4102.26 L 94.5497,-4101.92 L 94.1433,-4101.62
 L 93.7031,-4101.38 L 93.2361,-4101.2 L 92.7495,-4101.07 L 92.2512,-4101.01 z
M 93.4369,-3865.59 L 94.0451,-3865.74 L 94.6289,-3865.98 L 95.1791,-3866.28 L 95.6871,-3866.65 L 96.1448,-3867.08
 L 96.5451,-3867.56 L 96.8815,-3868.09 L 97.1489,-3868.66 L 97.3429,-3869.26 L 97.4606,-3869.87 L 97.5,-3870.5
 L 97.5,-4085.5 L 97.4606,-4086.13 L 97.3429,-4086.74 L 97.1489,-4087.34 L 96.8815,-4087.91 L 96.5451,-4088.44
 L 96.1448,-4088.92 L 95.6871,-4089.35 L 95.1791,-4089.72 L 94.6289,-4090.02 L 94.0451,-4090.26 L 93.4369,-4090.41
 L 92.8139,-4090.49 L -92.8139,-4090.49 L -93.4369,-4090.41 L -94.0451,-4090.26 L -94.6289,-4090.02 L -95.1791,-4089.72
 L -95.6871,-4089.35 L -96.1448,-4088.92 L -96.5451,-4088.44 L -96.8815,-4087.91 L -97.1489,-4087.34 L -97.3429,-4086.74
 L -97.4606,-4086.13 L -97.5,-4085.5 L -97.5,-3870.5 L -97.4606,-3869.87 L -97.3429,-3869.26 L -97.1489,-3868.66
 L -96.8815,-3868.09 L -96.5451,-3867.56 L -96.1448,-3867.08 L -95.6871,-3866.65 L -95.1791,-3866.28 L -94.6289,-3865.98
 L -94.0451,-3865.74 L -93.4369,-3865.59 L -92.8139,-3865.51 L 92.8139,-3865.51 z
M -92.2512,-3867.01 L -92.7495,-3867.07 L -93.2361,-3867.2 L -93.7031,-3867.38 L -94.1433,-3867.62 L -94.5497,-3867.92
 L -94.9159,-3868.26 L -95.2361,-3868.65 L -95.5052,-3869.07 L -95.7191,-3869.53 L -95.8743,-3870.01 L -95.9685,-3870.5
 L -96,-3871 L -96,-4085 L -95.9685,-4085.5 L -95.8743,-4085.99 L -95.7191,-4086.47 L -95.5052,-4086.93
 L -95.2361,-4087.35 L -94.9159,-4087.74 L -94.5497,-4088.08 L -94.1433,-4088.38 L -93.7031,-4088.62 L -93.2361,-4088.8
 L -92.7495,-4088.93 L -92.2512,-4088.99 L 92.2512,-4088.99 L 92.7495,-4088.93 L 93.2361,-4088.8 L 93.7031,-4088.62
 L 94.1433,-4088.38 L 94.5497,-4088.08 L 94.9159,-4087.74 L 95.2361,-4087.35 L 95.5052,-4086.93 L 95.7191,-4086.47
 L 95.8743,-4085.99 L 95.9685,-4085.5 L 96,-4085 L 96,-3871 L 95.9685,-3870.5 L 95.8743,-3870.01
 L 95.7191,-3869.53 L 95.5052,-3869.07 L 95.2361,-3868.65 L 94.9159,-3868.26 L 94.5497,-3867.92 L 94.1433,-3867.62
 L 93.7031,-3867.38 L 93.2361,-3867.2 L 92.7495,-3867.07 L 92.2512,-3867.01 z
M 93.4369,-3631.59 L 94.0451,-3631.74 L 94.6289,-3631.98 L 95.1791,-3632.28 L 95.6871,-3632.65 L 96.1448,-3633.08
 L 96.5451,-3633.56 L 96.8815,-3634.09 L 97.1489,-3634.66 L 97.3429,-3635.26 L 97.4606,-3635.87 L 97.5,-3636.5
 L 97.5,-3851.5 L 97.4606,-3852.13 L 97.3429,-3852.74 L 97.1489,-3853.34 L 96.8815,-3853.91 L 96.5451,-3854.44
 L 96.1448,-3854.92 L 95.6871,-3855.35 L 95.1791,-3855.72 L 94.6289,-3856.02 L 94.0451,-3856.26 L 93.4369,-3856.41
 L 92.8139,-3856.49 L -92.8139,-3856.49 L -93.4369,-3856.41 L -94.0451,-3856.26 L -94.6289,-3856.02 L -95.1791,-3855.72
 L -95.6871,-3855.35 L -96.1448,-3854.92 L -96.5451,-3854.44 L -96.8815,-3853.91 L -97.1489,-3853.34 L -97.3429,-3852.74
 L -97.4606,-3852.13 L -97.5,-3851.5 L -97.5,-3636.5 L -97.4606,-3635.87 L -97.3429,-3635.26 L -97.1489,-3634.66
 L -96.8815,-3634.09 L -96.5451,-3633.56 L -96.1448,-3633.08 L -95.6871,-3632.65 L -95.1791,-3632.28 L -94.6289,-3631.98
 L -94.0451,-3631.74 L -93.4369,-3631.59 L -92.8139,-3631.51 L 92.8139,-3631.51 z
M -92.1955,-3633.89 L -92.5833,-3633.94 L -92.9619,-3634.04 L -93.3254,-3634.18 L -93.668,-3634.37 L -93.9843,-3634.6
 L -94.2692,-3634.87 L -94.5184,-3635.17 L -94.7279,-3635.5 L -94.8943,-3635.85 L -95.0151,-3636.23 L -95.0884,-3636.61
 L -95.1129,-3637 L -95.1129,-3851 L -95.0884,-3851.39 L -95.0151,-3851.77 L -94.8943,-3852.15 L -94.7279,-3852.5
 L -94.5184,-3852.83 L -94.2692,-3853.13 L -93.9843,-3853.4 L -93.668,-3853.63 L -93.3254,-3853.82 L -92.9619,-3853.96
 L -92.5833,-3854.06 L -92.1955,-3854.11 L 92.1955,-3854.11 L 92.5833,-3854.06 L 92.9619,-3853.96 L 93.3254,-3853.82
 L 93.668,-3853.63 L 93.9843,-3853.4 L 94.2692,-3853.13 L 94.5184,-3852.83 L 94.7279,-3852.5 L 94.8943,-3852.15
 L 95.0151,-3851.77 L 95.0884,-3851.39 L 95.1129,-3851 L 95.1129,-3637 L 95.0884,-3636.61 L 95.0151,-3636.23
 L 94.8943,-3635.85 L 94.7279,-3635.5 L 94.5184,-3635.17 L 94.2692,-3634.87 L 93.9843,-3634.6 L 93.668,-3634.37
 L 93.3254,-3634.18 L 92.9619,-3634.04 L 92.5833,-3633.94 L 92.1955,-3633.89 z
M 93.4369,-3397.59 L 94.0451,-3397.74 L 94.6289,-3397.98 L 95.1791,-3398.28 L 95.6871,-3398.65 L 96.1448,-3399.08
 L 96.5451,-3399.56 L 96.8815,-3400.09 L 97.1489,-3400.66 L 97.3429,-3401.26 L 97.4606,-3401.87 L 97.5,-3402.5
 L 97.5,-3617.5 L 97.4606,-3618.13 L 97.3429,-3618.74 L 97.1489,-3619.34 L 96.8815,-3619.91 L 96.5451,-3620.44
 L 96.1448,-3620.92 L 95.6871,-3621.35 L 95.1791,-3621.72 L 94.6289,-3622.02 L 94.0451,-3622.26 L 93.4369,-3622.41
 L 92.8139,-3622.49 L -92.8139,-3622.49 L -93.4369,-3622.41 L -94.0451,-3622.26 L -94.6289,-3622.02 L -95.1791,-3621.72
 L -95.6871,-3621.35 L -96.1448,-3620.92 L -96.5451,-3620.44 L -96.8815,-3619.91 L -97.1489,-3619.34 L -97.3429,-3618.74
 L -97.4606,-3618.13 L -97.5,-3617.5 L -97.5,-3402.5 L -97.4606,-3401.87 L -97.3429,-3401.26 L -97.1489,-3400.66
 L -96.8815,-3400.09 L -96.5451,-3399.56 L -96.1448,-3399.08 L -95.6871,-3398.65 L -95.1791,-3398.28 L -94.6289,-3397.98
 L -94.0451,-3397.74 L -93.4369,-3397.59 L -92.8139,-3397.51 L 92.8139,-3397.51 z
M -90.1341,-3612.87 L -90.4001,-3612.9 L -90.6598,-3612.97 L -90.9092,-3613.07 L -91.1441,-3613.2 L -91.3611,-3613.35
 L -91.5566,-3613.54 L -91.7275,-3613.74 L -91.8712,-3613.97 L -91.9853,-3614.21 L -92.0682,-3614.47 L -92.1185,-3614.73
 L -92.1353,-3615 L -92.1185,-3615.27 L -92.0682,-3615.53 L -91.9853,-3615.79 L -91.8712,-3616.03 L -91.7275,-3616.26
 L -91.5566,-3616.46 L -91.3611,-3616.65 L -91.1441,-3616.8 L -90.9092,-3616.93 L -90.6598,-3617.03 L -90.4001,-3617.1
 L -90.1341,-3617.13 L -89.8659,-3617.13 L -89.5999,-3617.1 L -89.3401,-3617.03 L -89.0908,-3616.93 L -88.8559,-3616.8
 L -88.6389,-3616.65 L -88.4434,-3616.46 L -88.2725,-3616.26 L -88.1288,-3616.03 L -88.0146,-3615.79 L -87.9318,-3615.53
 L -87.8815,-3615.27 L -87.8647,-3615 L -87.8815,-3614.73 L -87.9318,-3614.47 L -88.0146,-3614.21 L -88.1288,-3613.97
 L -88.2725,-3613.74 L -88.4434,-3613.54 L -88.6389,-3613.35 L -88.8559,-3613.2 L -89.0908,-3613.07 L -89.3401,-3612.97
 L -89.5999,-3612.9 L -89.8659,-3612.87 z
M 89.8659,-3612.87 L 89.5999,-3612.9 L 89.3401,-3612.97 L 89.0908,-3613.07 L 88.8559,-3613.2 L 88.6389,-3613.35
 L 88.4434,-3613.54 L 88.2725,-3613.74 L 88.1288,-3613.97 L 88.0146,-3614.21 L 87.9318,-3614.47 L 87.8815,-3614.73
 L 87.8647,-3615 L 87.8815,-3615.27 L 87.9318,-3615.53 L 88.0146,-3615.79 L 88.1288,-3616.03 L 88.2725,-3616.26
 L 88.4434,-3616.46 L 88.6389,-3616.65 L 88.8559,-3616.8 L 89.0908,-3616.93 L 89.3401,-3617.03 L 89.5999,-3617.1
 L 89.8659,-3617.13 L 90.1341,-3617.13 L 90.4001,-3617.1 L 90.6598,-3617.03 L 90.9092,-3616.93 L 91.1441,-3616.8
 L 91.3611,-3616.65 L 91.5566,-3616.46 L 91.7275,-3616.26 L 91.8712,-3616.03 L 91.9853,-3615.79 L 92.0682,-3615.53
 L 92.1185,-3615.27 L 92.1353,-3615 L 92.1185,-3614.73 L 92.0682,-3614.47 L 91.9853,-3614.21 L 91.8712,-3613.97
 L 91.7275,-3613.74 L 91.5566,-3613.54 L 91.3611,-3613.35 L 91.1441,-3613.2 L 90.9092,-3613.07 L 90.6598,-3612.97
 L 90.4001,-3612.9 L 90.1341,-3612.87 z
M -90.1341,-3402.87 L -90.4001,-3402.9 L -90.6598,-3402.97 L -90.9092,-3403.07 L -91.1441,-3403.2 L -91.3611,-3403.35
 L -91.5566,-3403.54 L -91.7275,-3403.74 L -91.8712,-3403.97 L -91.9853,-3404.21 L -92.0682,-3404.47 L -92.1185,-3404.73
 L -92.1353,-3405 L -92.1185,-3405.27 L -92.0682,-3405.53 L -91.9853,-3405.79 L -91.8712,-3406.03 L -91.7275,-3406.26
 L -91.5566,-3406.46 L -91.3611,-3406.65 L -91.1441,-3406.8 L -90.9092,-3406.93 L -90.6598,-3407.03 L -90.4001,-3407.1
 L -90.1341,-3407.13 L -89.8659,-3407.13 L -89.5999,-3407.1 L -89.3401,-3407.03 L -89.0908,-3406.93 L -88.8559,-3406.8
 L -88.6389,-3406.65 L -88.4434,-3406.46 L -88.2725,-3406.26 L -88.1288,-3406.03 L -88.0146,-3405.79 L -87.9318,-3405.53
 L -87.8815,-3405.27 L -87.8647,-3405 L -87.8815,-3404.73 L -87.9318,-3404.47 L -88.0146,-3404.21 L -88.1288,-3403.97
 L -88.2725,-3403.74 L -88.4434,-3403.54 L -88.6389,-3403.35 L -88.8559,-3403.2 L -89.0908,-3403.07 L -89.3401,-3402.97
 L -89.5999,-3402.9 L -89.8659,-3402.87 z
M 89.8659,-3402.87 L 89.5999,-3402.9 L 89.3401,-3402.97 L 89.0908,-3403.07 L 88.8559,-3403.2 L 88.6389,-3403.35
 L 88.4434,-3403.54 L 88.2725,-3403.74 L 88.1288,-3403.97 L 88.0146,-3404.21 L 87.9318,-3404.47 L 87.8815,-3404.73
 L 87.8647,-3405 L 87.8815,-3405.27 L 87.9318,-3405.53 L 88.0146,-3405.79 L 88.1288,-3406.03 L 88.2725,-3406.26
 L 88.4434,-3406.46 L 88.6389,-3406.65 L 88.8559,-3406.8 L 89.0908,-3406.93 L 89.3401,-3407.03 L 89.5999,-3407.1
 L 89.8659,-3407.13 L 90.1341,-3407.13 L 90.4001,-3407.1 L 90.6598,-3407.03 L 90.9092,-3406.93 L 91.1441,-3406.8
 L 91.3611,-3406.65 L 91.5566,-3406.46 L 91.7275,-3406.26 L 91.8712,-3406.03 L 91.9853,-3405.79 L 92.0682,-3405.53
 L 92.1185,-3405.27 L 92.1353,-3405 L 92.1185,-3404.73 L 92.0682,-3404.47 L 91.9853,-3404.21 L 91.8712,-3403.97
 L 91.7275,-3403.74 L 91.5566,-3403.54 L 91.3611,-3403.35 L 91.1441,-3403.2 L 90.9092,-3403.07 L 90.6598,-3402.97
 L 90.4001,-3402.9 L 90.1341,-3402.87 z
" stroke="black" fill="lightgray" stroke-width="0.5"/>
</svg>
