  0
SECTION
  2
BLOCKS
  0
ENDSEC
  0
SECTION
  2
ENTITIES
  0
LINE
  8
0
 10
7.1869
 20
589.589
 11
7.79507
 21
589.745
  0
LINE
  8
0
 10
7.79507
 20
589.745
 11
8.37889
 21
589.976
  0
LINE
  8
0
 10
8.37889
 20
589.976
 11
8.92912
 21
590.278
  0
LINE
  8
0
 10
8.92912
 20
590.278
 11
9.43712
 21
590.647
  0
LINE
  8
0
 10
9.43712
 20
590.647
 11
9.89484
 21
591.077
  0
LINE
  8
0
 10
9.89484
 20
591.077
 11
10.2951
 21
591.561
  0
LINE
  8
0
 10
10.2951
 20
591.561
 11
10.6315
 21
592.091
  0
LINE
  8
0
 10
10.6315
 20
592.091
 11
10.8989
 21
592.659
  0
LINE
  8
0
 10
10.8989
 20
592.659
 11
11.0929
 21
593.257
  0
LINE
  8
0
 10
11.0929
 20
593.257
 11
11.2106
 21
593.873
  0
LINE
  8
0
 10
11.2106
 20
593.873
 11
11.25
 21
594.5
  0
LINE
  8
0
 10
11.25
 20
594.5
 11
11.25
 21
809.5
  0
LINE
  8
0
 10
11.25
 20
809.5
 11
11.2106
 21
810.127
  0
LINE
  8
0
 10
11.2106
 20
810.127
 11
11.0929
 21
810.743
  0
LINE
  8
0
 10
11.0929
 20
810.743
 11
10.8989
 21
811.341
  0
LINE
  8
0
 10
10.8989
 20
811.341
 11
10.6315
 21
811.909
  0
LINE
  8
0
 10
10.6315
 20
811.909
 11
10.2951
 21
812.439
  0
LINE
  8
0
 10
10.2951
 20
812.439
 11
9.89484
 21
812.923
  0
LINE
  8
0
 10
9.89484
 20
812.923
 11
9.43712
 21
813.353
  0
LINE
  8
0
 10
9.43712
 20
813.353
 11
8.92912
 21
813.722
  0
LINE
  8
0
 10
8.92912
 20
813.722
 11
8.37889
 21
814.024
  0
LINE
  8
0
 10
8.37889
 20
814.024
 11
7.79507
 21
814.255
  0
LINE
  8
0
 10
7.79507
 20
814.255
 11
7.1869
 21
814.411
  0
LINE
  8
0
 10
7.1869
 20
814.411
 11
6.56395
 21
814.49
  0
LINE
  8
0
 10
6.56395
 20
814.49
 11
-6.56395
 21
814.49
  0
LINE
  8
0
 10
-6.56395
 20
814.49
 11
-7.1869
 21
814.411
  0
LINE
  8
0
 10
-7.1869
 20
814.411
 11
-7.79507
 21
814.255
  0
LINE
  8
0
 10
-7.79507
 20
814.255
 11
-8.37889
 21
814.024
  0
LINE
  8
0
 10
-8.37889
 20
814.024
 11
-8.92912
 21
813.722
  0
LINE
  8
0
 10
-8.92912
 20
813.722
 11
-9.43712
 21
813.353
  0
LINE
  8
0
 10
-9.43712
 20
813.353
 11
-9.89484
 21
812.923
  0
LINE
  8
0
 10
-9.89484
 20
812.923
 11
-10.2951
 21
812.439
  0
LINE
  8
0
 10
-10.2951
 20
812.439
 11
-10.6315
 21
811.909
  0
LINE
  8
0
 10
-10.6315
 20
811.909
 11
-10.8989
 21
811.341
  0
LINE
  8
0
 10
-10.8989
 20
811.341
 11
-11.0929
 21
810.743
  0
LINE
  8
0
 10
-11.0929
 20
810.743
 11
-11.2106
 21
810.127
  0
LINE
  8
0
 10
-11.2106
 20
810.127
 11
-11.25
 21
809.5
  0
LINE
  8
0
 10
-11.25
 20
809.5
 11
-11.25
 21
594.5
  0
LINE
  8
0
 10
-11.25
 20
594.5
 11
-11.2106
 21
593.873
  0
LINE
  8
0
 10
-11.2106
 20
593.873
 11
-11.0929
 21
593.257
  0
LINE
  8
0
 10
-11.0929
 20
593.257
 11
-10.8989
 21
592.659
  0
LINE
  8
0
 10
-10.8989
 20
592.659
 11
-10.6315
 21
592.091
  0
LINE
  8
0
 10
-10.6315
 20
592.091
 11
-10.2951
 21
591.561
  0
LINE
  8
0
 10
-10.2951
 20
591.561
 11
-9.89484
 21
591.077
  0
LINE
  8
0
 10
-9.89484
 20
591.077
 11
-9.43712
 21
590.647
  0
LINE
  8
0
 10
-9.43712
 20
590.647
 11
-8.92912
 21
590.278
  0
LINE
  8
0
 10
-8.92912
 20
590.278
 11
-8.37889
 21
589.976
  0
LINE
  8
0
 10
-8.37889
 20
589.976
 11
-7.79507
 21
589.745
  0
LINE
  8
0
 10
-7.79507
 20
589.745
 11
-7.1869
 21
589.589
  0
LINE
  8
0
 10
-7.1869
 20
589.589
 11
-6.56395
 21
589.51
  0
LINE
  8
0
 10
-6.56395
 20
589.51
 11
6.56395
 21
589.51
  0
LINE
  8
0
 10
6.56395
 20
589.51
 11
7.1869
 21
589.589
  0
LINE
  8
0
 10
-5.94545
 20
591.893
 11
-6.3333
 21
591.942
  0
LINE
  8
0
 10
-6.3333
 20
591.942
 11
-6.71194
 21
592.039
  0
LINE
  8
0
 10
-6.71194
 20
592.039
 11
-7.07541
 21
592.183
  0
LINE
  8
0
 10
-7.07541
 20
592.183
 11
-7.41798
 21
592.372
  0
LINE
  8
0
 10
-7.41798
 20
592.372
 11
-7.73424
 21
592.601
  0
LINE
  8
0
 10
-7.73424
 20
592.601
 11
-8.01921
 21
592.869
  0
LINE
  8
0
 10
-8.01921
 20
592.869
 11
-8.2684
 21
593.17
  0
LINE
  8
0
 10
-8.2684
 20
593.17
 11
-8.47786
 21
593.5
  0
LINE
  8
0
 10
-8.47786
 20
593.5
 11
-8.64432
 21
593.854
  0
LINE
  8
0
 10
-8.64432
 20
593.854
 11
-8.76512
 21
594.226
  0
LINE
  8
0
 10
-8.76512
 20
594.226
 11
-8.83836
 21
594.61
  0
LINE
  8
0
 10
-8.83836
 20
594.61
 11
-8.86292
 21
595
  0
LINE
  8
0
 10
-8.86292
 20
595
 11
-8.86292
 21
809
  0
LINE
  8
0
 10
-8.86292
 20
809
 11
-8.83836
 21
809.39
  0
LINE
  8
0
 10
-8.83836
 20
809.39
 11
-8.76512
 21
809.774
  0
LINE
  8
0
 10
-8.76512
 20
809.774
 11
-8.64432
 21
810.146
  0
LINE
  8
0
 10
-8.64432
 20
810.146
 11
-8.47786
 21
810.5
  0
LINE
  8
0
 10
-8.47786
 20
810.5
 11
-8.2684
 21
810.83
  0
LINE
  8
0
 10
-8.2684
 20
810.83
 11
-8.01921
 21
811.131
  0
LINE
  8
0
 10
-8.01921
 20
811.131
 11
-7.73424
 21
811.399
  0
LINE
  8
0
 10
-7.73424
 20
811.399
 11
-7.41798
 21
811.628
  0
LINE
  8
0
 10
-7.41798
 20
811.628
 11
-7.07541
 21
811.817
  0
LINE
  8
0
 10
-7.07541
 20
811.817
 11
-6.71194
 21
811.961
  0
LINE
  8
0
 10
-6.71194
 20
811.961
 11
-6.3333
 21
812.058
  0
LINE
  8
0
 10
-6.3333
 20
812.058
 11
-5.94545
 21
812.107
  0
LINE
  8
0
 10
-5.94545
 20
812.107
 11
5.94545
 21
812.107
  0
LINE
  8
0
 10
5.94545
 20
812.107
 11
6.3333
 21
812.058
  0
LINE
  8
0
 10
6.3333
 20
812.058
 11
6.71194
 21
811.961
  0
LINE
  8
0
 10
6.71194
 20
811.961
 11
7.07541
 21
811.817
  0
LINE
  8
0
 10
7.07541
 20
811.817
 11
7.41798
 21
811.628
  0
LINE
  8
0
 10
7.41798
 20
811.628
 11
7.73424
 21
811.399
  0
LINE
  8
0
 10
7.73424
 20
811.399
 11
8.01921
 21
811.131
  0
LINE
  8
0
 10
8.01921
 20
811.131
 11
8.2684
 21
810.83
  0
LINE
  8
0
 10
8.2684
 20
810.83
 11
8.47786
 21
810.5
  0
LINE
  8
0
 10
8.47786
 20
810.5
 11
8.64432
 21
810.146
  0
LINE
  8
0
 10
8.64432
 20
810.146
 11
8.76512
 21
809.774
  0
LINE
  8
0
 10
8.76512
 20
809.774
 11
8.83836
 21
809.39
  0
LINE
  8
0
 10
8.83836
 20
809.39
 11
8.86292
 21
809
  0
LINE
  8
0
 10
8.86292
 20
809
 11
8.86292
 21
595
  0
LINE
  8
0
 10
8.86292
 20
595
 11
8.83836
 21
594.61
  0
LINE
  8
0
 10
8.83836
 20
594.61
 11
8.76512
 21
594.226
  0
LINE
  8
0
 10
8.76512
 20
594.226
 11
8.64432
 21
593.854
  0
LINE
  8
0
 10
8.64432
 20
593.854
 11
8.47786
 21
593.5
  0
LINE
  8
0
 10
8.47786
 20
593.5
 11
8.2684
 21
593.17
  0
LINE
  8
0
 10
8.2684
 20
593.17
 11
8.01921
 21
592.869
  0
LINE
  8
0
 10
8.01921
 20
592.869
 11
7.73424
 21
592.601
  0
LINE
  8
0
 10
7.73424
 20
592.601
 11
7.41798
 21
592.372
  0
LINE
  8
0
 10
7.41798
 20
592.372
 11
7.07541
 21
592.183
  0
LINE
  8
0
 10
7.07541
 20
592.183
 11
6.71194
 21
592.039
  0
LINE
  8
0
 10
6.71194
 20
592.039
 11
6.3333
 21
591.942
  0
LINE
  8
0
 10
6.3333
 20
591.942
 11
5.94545
 21
591.893
  0
LINE
  8
0
 10
5.94545
 20
591.893
 11
-5.94545
 21
591.893
  0
LINE
  8
0
 10
7.1869
 20
355.589
 11
7.79507
 21
355.745
  0
LINE
  8
0
 10
7.79507
 20
355.745
 11
8.37889
 21
355.976
  0
LINE
  8
0
 10
8.37889
 20
355.976
 11
8.92912
 21
356.278
  0
LINE
  8
0
 10
8.92912
 20
356.278
 11
9.43712
 21
356.647
  0
LINE
  8
0
 10
9.43712
 20
356.647
 11
9.89484
 21
357.077
  0
LINE
  8
0
 10
9.89484
 20
357.077
 11
10.2951
 21
357.561
  0
LINE
  8
0
 10
10.2951
 20
357.561
 11
10.6315
 21
358.091
  0
LINE
  8
0
 10
10.6315
 20
358.091
 11
10.8989
 21
358.659
  0
LINE
  8
0
 10
10.8989
 20
358.659
 11
11.0929
 21
359.257
  0
LINE
  8
0
 10
11.0929
 20
359.257
 11
11.2106
 21
359.873
  0
LINE
  8
0
 10
11.2106
 20
359.873
 11
11.25
 21
360.5
  0
LINE
  8
0
 10
11.25
 20
360.5
 11
11.25
 21
575.5
  0
LINE
  8
0
 10
11.25
 20
575.5
 11
11.2106
 21
576.127
  0
LINE
  8
0
 10
11.2106
 20
576.127
 11
11.0929
 21
576.743
  0
LINE
  8
0
 10
11.0929
 20
576.743
 11
10.8989
 21
577.341
  0
LINE
  8
0
 10
10.8989
 20
577.341
 11
10.6315
 21
577.909
  0
LINE
  8
0
 10
10.6315
 20
577.909
 11
10.2951
 21
578.439
  0
LINE
  8
0
 10
10.2951
 20
578.439
 11
9.89484
 21
578.923
  0
LINE
  8
0
 10
9.89484
 20
578.923
 11
9.43712
 21
579.353
  0
LINE
  8
0
 10
9.43712
 20
579.353
 11
8.92912
 21
579.722
  0
LINE
  8
0
 10
8.92912
 20
579.722
 11
8.37889
 21
580.024
  0
LINE
  8
0
 10
8.37889
 20
580.024
 11
7.79507
 21
580.255
  0
LINE
  8
0
 10
7.79507
 20
580.255
 11
7.1869
 21
580.411
  0
LINE
  8
0
 10
7.1869
 20
580.411
 11
6.56395
 21
580.49
  0
LINE
  8
0
 10
6.56395
 20
580.49
 11
-6.56395
 21
580.49
  0
LINE
  8
0
 10
-6.56395
 20
580.49
 11
-7.1869
 21
580.411
  0
LINE
  8
0
 10
-7.1869
 20
580.411
 11
-7.79507
 21
580.255
  0
LINE
  8
0
 10
-7.79507
 20
580.255
 11
-8.37889
 21
580.024
  0
LINE
  8
0
 10
-8.37889
 20
580.024
 11
-8.92912
 21
579.722
  0
LINE
  8
0
 10
-8.92912
 20
579.722
 11
-9.43712
 21
579.353
  0
LINE
  8
0
 10
-9.43712
 20
579.353
 11
-9.89484
 21
578.923
  0
LINE
  8
0
 10
-9.89484
 20
578.923
 11
-10.2951
 21
578.439
  0
LINE
  8
0
 10
-10.2951
 20
578.439
 11
-10.6315
 21
577.909
  0
LINE
  8
0
 10
-10.6315
 20
577.909
 11
-10.8989
 21
577.341
  0
LINE
  8
0
 10
-10.8989
 20
577.341
 11
-11.0929
 21
576.743
  0
LINE
  8
0
 10
-11.0929
 20
576.743
 11
-11.2106
 21
576.127
  0
LINE
  8
0
 10
-11.2106
 20
576.127
 11
-11.25
 21
575.5
  0
LINE
  8
0
 10
-11.25
 20
575.5
 11
-11.25
 21
360.5
  0
LINE
  8
0
 10
-11.25
 20
360.5
 11
-11.2106
 21
359.873
  0
LINE
  8
0
 10
-11.2106
 20
359.873
 11
-11.0929
 21
359.257
  0
LINE
  8
0
 10
-11.0929
 20
359.257
 11
-10.8989
 21
358.659
  0
LINE
  8
0
 10
-10.8989
 20
358.659
 11
-10.6315
 21
358.091
  0
LINE
  8
0
 10
-10.6315
 20
358.091
 11
-10.2951
 21
357.561
  0
LINE
  8
0
 10
-10.2951
 20
357.561
 11
-9.89484
 21
357.077
  0
LINE
  8
0
 10
-9.89484
 20
357.077
 11
-9.43712
 21
356.647
  0
LINE
  8
0
 10
-9.43712
 20
356.647
 11
-8.92912
 21
356.278
  0
LINE
  8
0
 10
-8.92912
 20
356.278
 11
-8.37889
 21
355.976
  0
LINE
  8
0
 10
-8.37889
 20
355.976
 11
-7.79507
 21
355.745
  0
LINE
  8
0
 10
-7.79507
 20
355.745
 11
-7.1869
 21
355.589
  0
LINE
  8
0
 10
-7.1869
 20
355.589
 11
-6.56395
 21
355.51
  0
LINE
  8
0
 10
-6.56395
 20
355.51
 11
6.56395
 21
355.51
  0
LINE
  8
0
 10
6.56395
 20
355.51
 11
7.1869
 21
355.589
  0
LINE
  8
0
 10
3.61592
 20
570.869
 11
3.34988
 21
570.903
  0
LINE
  8
0
 10
3.34988
 20
570.903
 11
3.09015
 21
570.969
  0
LINE
  8
0
 10
3.09015
 20
570.969
 11
2.84084
 21
571.068
  0
LINE
  8
0
 10
2.84084
 20
571.068
 11
2.60585
 21
571.197
  0
LINE
  8
0
 10
2.60585
 20
571.197
 11
2.3889
 21
571.355
  0
LINE
  8
0
 10
2.3889
 20
571.355
 11
2.19344
 21
571.538
  0
LINE
  8
0
 10
2.19344
 20
571.538
 11
2.02251
 21
571.745
  0
LINE
  8
0
 10
2.02251
 20
571.745
 11
1.87881
 21
571.971
  0
LINE
  8
0
 10
1.87881
 20
571.971
 11
1.76465
 21
572.214
  0
LINE
  8
0
 10
1.76465
 20
572.214
 11
1.68178
 21
572.469
  0
LINE
  8
0
 10
1.68178
 20
572.469
 11
1.63153
 21
572.732
  0
LINE
  8
0
 10
1.63153
 20
572.732
 11
1.6147
 21
573
  0
LINE
  8
0
 10
1.6147
 20
573
 11
1.63153
 21
573.268
  0
LINE
  8
0
 10
1.63153
 20
573.268
 11
1.68178
 21
573.531
  0
LINE
  8
0
 10
1.68178
 20
573.531
 11
1.76465
 21
573.786
  0
LINE
  8
0
 10
1.76465
 20
573.786
 11
1.87881
 21
574.029
  0
LINE
  8
0
 10
1.87881
 20
574.029
 11
2.02251
 21
574.255
  0
LINE
  8
0
 10
2.02251
 20
574.255
 11
2.19344
 21
574.462
  0
LINE
  8
0
 10
2.19344
 20
574.462
 11
2.3889
 21
574.645
  0
LINE
  8
0
 10
2.3889
 20
574.645
 11
2.60585
 21
574.803
  0
LINE
  8
0
 10
2.60585
 20
574.803
 11
2.84084
 21
574.932
  0
LINE
  8
0
 10
2.84084
 20
574.932
 11
3.09015
 21
575.031
  0
LINE
  8
0
 10
3.09015
 20
575.031
 11
3.34988
 21
575.097
  0
LINE
  8
0
 10
3.34988
 20
575.097
 11
3.61592
 21
575.131
  0
LINE
  8
0
 10
3.61592
 20
575.131
 11
3.88406
 21
575.131
  0
LINE
  8
0
 10
3.88406
 20
575.131
 11
4.1501
 21
575.097
  0
LINE
  8
0
 10
4.1501
 20
575.097
 11
4.40984
 21
575.031
  0
LINE
  8
0
 10
4.40984
 20
575.031
 11
4.65915
 21
574.932
  0
LINE
  8
0
 10
4.65915
 20
574.932
 11
4.89413
 21
574.803
  0
LINE
  8
0
 10
4.89413
 20
574.803
 11
5.11108
 21
574.645
  0
LINE
  8
0
 10
5.11108
 20
574.645
 11
5.30655
 21
574.462
  0
LINE
  8
0
 10
5.30655
 20
574.462
 11
5.47748
 21
574.255
  0
LINE
  8
0
 10
5.47748
 20
574.255
 11
5.62117
 21
574.029
  0
LINE
  8
0
 10
5.62117
 20
574.029
 11
5.73534
 21
573.786
  0
LINE
  8
0
 10
5.73534
 20
573.786
 11
5.81821
 21
573.531
  0
LINE
  8
0
 10
5.81821
 20
573.531
 11
5.86845
 21
573.268
  0
LINE
  8
0
 10
5.86845
 20
573.268
 11
5.88528
 21
573
  0
LINE
  8
0
 10
5.88528
 20
573
 11
5.86845
 21
572.732
  0
LINE
  8
0
 10
5.86845
 20
572.732
 11
5.81821
 21
572.469
  0
LINE
  8
0
 10
5.81821
 20
572.469
 11
5.73534
 21
572.214
  0
LINE
  8
0
 10
5.73534
 20
572.214
 11
5.62117
 21
571.971
  0
LINE
  8
0
 10
5.62117
 20
571.971
 11
5.47748
 21
571.745
  0
LINE
  8
0
 10
5.47748
 20
571.745
 11
5.30655
 21
571.538
  0
LINE
  8
0
 10
5.30655
 20
571.538
 11
5.11108
 21
571.355
  0
LINE
  8
0
 10
5.11108
 20
571.355
 11
4.89413
 21
571.197
  0
LINE
  8
0
 10
4.89413
 20
571.197
 11
4.65915
 21
571.068
  0
LINE
  8
0
 10
4.65915
 20
571.068
 11
4.40984
 21
570.969
  0
LINE
  8
0
 10
4.40984
 20
570.969
 11
4.1501
 21
570.903
  0
LINE
  8
0
 10
4.1501
 20
570.903
 11
3.88406
 21
570.869
  0
LINE
  8
0
 10
3.88406
 20
570.869
 11
3.61592
 21
570.869
  0
LINE
  8
0
 10
-3.88406
 20
570.869
 11
-4.1501
 21
570.903
  0
LINE
  8
0
 10
-4.1501
 20
570.903
 11
-4.40984
 21
570.969
  0
LINE
  8
0
 10
-4.40984
 20
570.969
 11
-4.65915
 21
571.068
  0
LINE
  8
0
 10
-4.65915
 20
571.068
 11
-4.89413
 21
571.197
  0
LINE
  8
0
 10
-4.89413
 20
571.197
 11
-5.11108
 21
571.355
  0
LINE
  8
0
 10
-5.11108
 20
571.355
 11
-5.30655
 21
571.538
  0
LINE
  8
0
 10
-5.30655
 20
571.538
 11
-5.47748
 21
571.745
  0
LINE
  8
0
 10
-5.47748
 20
571.745
 11
-5.62117
 21
571.971
  0
LINE
  8
0
 10
-5.62117
 20
571.971
 11
-5.73534
 21
572.214
  0
LINE
  8
0
 10
-5.73534
 20
572.214
 11
-5.81821
 21
572.469
  0
LINE
  8
0
 10
-5.81821
 20
572.469
 11
-5.86845
 21
572.732
  0
LINE
  8
0
 10
-5.86845
 20
572.732
 11
-5.88528
 21
573
  0
LINE
  8
0
 10
-5.88528
 20
573
 11
-5.86845
 21
573.268
  0
LINE
  8
0
 10
-5.86845
 20
573.268
 11
-5.81821
 21
573.531
  0
LINE
  8
0
 10
-5.81821
 20
573.531
 11
-5.73534
 21
573.786
  0
LINE
  8
0
 10
-5.73534
 20
573.786
 11
-5.62117
 21
574.029
  0
LINE
  8
0
 10
-5.62117
 20
574.029
 11
-5.47748
 21
574.255
  0
LINE
  8
0
 10
-5.47748
 20
574.255
 11
-5.30655
 21
574.462
  0
LINE
  8
0
 10
-5.30655
 20
574.462
 11
-5.11108
 21
574.645
  0
LINE
  8
0
 10
-5.11108
 20
574.645
 11
-4.89413
 21
574.803
  0
LINE
  8
0
 10
-4.89413
 20
574.803
 11
-4.65915
 21
574.932
  0
LINE
  8
0
 10
-4.65915
 20
574.932
 11
-4.40984
 21
575.031
  0
LINE
  8
0
 10
-4.40984
 20
575.031
 11
-4.1501
 21
575.097
  0
LINE
  8
0
 10
-4.1501
 20
575.097
 11
-3.88406
 21
575.131
  0
LINE
  8
0
 10
-3.88406
 20
575.131
 11
-3.61592
 21
575.131
  0
LINE
  8
0
 10
-3.61592
 20
575.131
 11
-3.34988
 21
575.097
  0
LINE
  8
0
 10
-3.34988
 20
575.097
 11
-3.09015
 21
575.031
  0
LINE
  8
0
 10
-3.09015
 20
575.031
 11
-2.84084
 21
574.932
  0
LINE
  8
0
 10
-2.84084
 20
574.932
 11
-2.60585
 21
574.803
  0
LINE
  8
0
 10
-2.60585
 20
574.803
 11
-2.3889
 21
574.645
  0
LINE
  8
0
 10
-2.3889
 20
574.645
 11
-2.19344
 21
574.462
  0
LINE
  8
0
 10
-2.19344
 20
574.462
 11
-2.02251
 21
574.255
  0
LINE
  8
0
 10
-2.02251
 20
574.255
 11
-1.87881
 21
574.029
  0
LINE
  8
0
 10
-1.87881
 20
574.029
 11
-1.76465
 21
573.786
  0
LINE
  8
0
 10
-1.76465
 20
573.786
 11
-1.68178
 21
573.531
  0
LINE
  8
0
 10
-1.68178
 20
573.531
 11
-1.63153
 21
573.268
  0
LINE
  8
0
 10
-1.63153
 20
573.268
 11
-1.6147
 21
573
  0
LINE
  8
0
 10
-1.6147
 20
573
 11
-1.63153
 21
572.732
  0
LINE
  8
0
 10
-1.63153
 20
572.732
 11
-1.68178
 21
572.469
  0
LINE
  8
0
 10
-1.68178
 20
572.469
 11
-1.76465
 21
572.214
  0
LINE
  8
0
 10
-1.76465
 20
572.214
 11
-1.87881
 21
571.971
  0
LINE
  8
0
 10
-1.87881
 20
571.971
 11
-2.02251
 21
571.745
  0
LINE
  8
0
 10
-2.02251
 20
571.745
 11
-2.19344
 21
571.538
  0
LINE
  8
0
 10
-2.19344
 20
571.538
 11
-2.3889
 21
571.355
  0
LINE
  8
0
 10
-2.3889
 20
571.355
 11
-2.60585
 21
571.197
  0
LINE
  8
0
 10
-2.60585
 20
571.197
 11
-2.84084
 21
571.068
  0
LINE
  8
0
 10
-2.84084
 20
571.068
 11
-3.09015
 21
570.969
  0
LINE
  8
0
 10
-3.09015
 20
570.969
 11
-3.34988
 21
570.903
  0
LINE
  8
0
 10
-3.34988
 20
570.903
 11
-3.61592
 21
570.869
  0
LINE
  8
0
 10
-3.61592
 20
570.869
 11
-3.88406
 21
570.869
  0
LINE
  8
0
 10
3.61592
 20
360.869
 11
3.34988
 21
360.903
  0
LINE
  8
0
 10
3.34988
 20
360.903
 11
3.09015
 21
360.969
  0
LINE
  8
0
 10
3.09015
 20
360.969
 11
2.84084
 21
361.068
  0
LINE
  8
0
 10
2.84084
 20
361.068
 11
2.60585
 21
361.197
  0
LINE
  8
0
 10
2.60585
 20
361.197
 11
2.3889
 21
361.355
  0
LINE
  8
0
 10
2.3889
 20
361.355
 11
2.19344
 21
361.538
  0
LINE
  8
0
 10
2.19344
 20
361.538
 11
2.02251
 21
361.745
  0
LINE
  8
0
 10
2.02251
 20
361.745
 11
1.87881
 21
361.971
  0
LINE
  8
0
 10
1.87881
 20
361.971
 11
1.76465
 21
362.214
  0
LINE
  8
0
 10
1.76465
 20
362.214
 11
1.68178
 21
362.469
  0
LINE
  8
0
 10
1.68178
 20
362.469
 11
1.63153
 21
362.732
  0
LINE
  8
0
 10
1.63153
 20
362.732
 11
1.6147
 21
363
  0
LINE
  8
0
 10
1.6147
 20
363
 11
1.63153
 21
363.268
  0
LINE
  8
0
 10
1.63153
 20
363.268
 11
1.68178
 21
363.531
  0
LINE
  8
0
 10
1.68178
 20
363.531
 11
1.76465
 21
363.786
  0
LINE
  8
0
 10
1.76465
 20
363.786
 11
1.87881
 21
364.029
  0
LINE
  8
0
 10
1.87881
 20
364.029
 11
2.02251
 21
364.255
  0
LINE
  8
0
 10
2.02251
 20
364.255
 11
2.19344
 21
364.462
  0
LINE
  8
0
 10
2.19344
 20
364.462
 11
2.3889
 21
364.645
  0
LINE
  8
0
 10
2.3889
 20
364.645
 11
2.60585
 21
364.803
  0
LINE
  8
0
 10
2.60585
 20
364.803
 11
2.84084
 21
364.932
  0
LINE
  8
0
 10
2.84084
 20
364.932
 11
3.09015
 21
365.031
  0
LINE
  8
0
 10
3.09015
 20
365.031
 11
3.34988
 21
365.097
  0
LINE
  8
0
 10
3.34988
 20
365.097
 11
3.61592
 21
365.131
  0
LINE
  8
0
 10
3.61592
 20
365.131
 11
3.88406
 21
365.131
  0
LINE
  8
0
 10
3.88406
 20
365.131
 11
4.1501
 21
365.097
  0
LINE
  8
0
 10
4.1501
 20
365.097
 11
4.40984
 21
365.031
  0
LINE
  8
0
 10
4.40984
 20
365.031
 11
4.65915
 21
364.932
  0
LINE
  8
0
 10
4.65915
 20
364.932
 11
4.89413
 21
364.803
  0
LINE
  8
0
 10
4.89413
 20
364.803
 11
5.11108
 21
364.645
  0
LINE
  8
0
 10
5.11108
 20
364.645
 11
5.30655
 21
364.462
  0
LINE
  8
0
 10
5.30655
 20
364.462
 11
5.47748
 21
364.255
  0
LINE
  8
0
 10
5.47748
 20
364.255
 11
5.62117
 21
364.029
  0
LINE
  8
0
 10
5.62117
 20
364.029
 11
5.73534
 21
363.786
  0
LINE
  8
0
 10
5.73534
 20
363.786
 11
5.81821
 21
363.531
  0
LINE
  8
0
 10
5.81821
 20
363.531
 11
5.86845
 21
363.268
  0
LINE
  8
0
 10
5.86845
 20
363.268
 11
5.88528
 21
363
  0
LINE
  8
0
 10
5.88528
 20
363
 11
5.86845
 21
362.732
  0
LINE
  8
0
 10
5.86845
 20
362.732
 11
5.81821
 21
362.469
  0
LINE
  8
0
 10
5.81821
 20
362.469
 11
5.73534
 21
362.214
  0
LINE
  8
0
 10
5.73534
 20
362.214
 11
5.62117
 21
361.971
  0
LINE
  8
0
 10
5.62117
 20
361.971
 11
5.47748
 21
361.745
  0
LINE
  8
0
 10
5.47748
 20
361.745
 11
5.30655
 21
361.538
  0
LINE
  8
0
 10
5.30655
 20
361.538
 11
5.11108
 21
361.355
  0
LINE
  8
0
 10
5.11108
 20
361.355
 11
4.89413
 21
361.197
  0
LINE
  8
0
 10
4.89413
 20
361.197
 11
4.65915
 21
361.068
  0
LINE
  8
0
 10
4.65915
 20
361.068
 11
4.40984
 21
360.969
  0
LINE
  8
0
 10
4.40984
 20
360.969
 11
4.1501
 21
360.903
  0
LINE
  8
0
 10
4.1501
 20
360.903
 11
3.88406
 21
360.869
  0
LINE
  8
0
 10
3.88406
 20
360.869
 11
3.61592
 21
360.869
  0
LINE
  8
0
 10
-3.88406
 20
360.869
 11
-4.1501
 21
360.903
  0
LINE
  8
0
 10
-4.1501
 20
360.903
 11
-4.40984
 21
360.969
  0
LINE
  8
0
 10
-4.40984
 20
360.969
 11
-4.65915
 21
361.068
  0
LINE
  8
0
 10
-4.65915
 20
361.068
 11
-4.89413
 21
361.197
  0
LINE
  8
0
 10
-4.89413
 20
361.197
 11
-5.11108
 21
361.355
  0
LINE
  8
0
 10
-5.11108
 20
361.355
 11
-5.30655
 21
361.538
  0
LINE
  8
0
 10
-5.30655
 20
361.538
 11
-5.47748
 21
361.745
  0
LINE
  8
0
 10
-5.47748
 20
361.745
 11
-5.62117
 21
361.971
  0
LINE
  8
0
 10
-5.62117
 20
361.971
 11
-5.73534
 21
362.214
  0
LINE
  8
0
 10
-5.73534
 20
362.214
 11
-5.81821
 21
362.469
  0
LINE
  8
0
 10
-5.81821
 20
362.469
 11
-5.86845
 21
362.732
  0
LINE
  8
0
 10
-5.86845
 20
362.732
 11
-5.88528
 21
363
  0
LINE
  8
0
 10
-5.88528
 20
363
 11
-5.86845
 21
363.268
  0
LINE
  8
0
 10
-5.86845
 20
363.268
 11
-5.81821
 21
363.531
  0
LINE
  8
0
 10
-5.81821
 20
363.531
 11
-5.73534
 21
363.786
  0
LINE
  8
0
 10
-5.73534
 20
363.786
 11
-5.62117
 21
364.029
  0
LINE
  8
0
 10
-5.62117
 20
364.029
 11
-5.47748
 21
364.255
  0
LINE
  8
0
 10
-5.47748
 20
364.255
 11
-5.30655
 21
364.462
  0
LINE
  8
0
 10
-5.30655
 20
364.462
 11
-5.11108
 21
364.645
  0
LINE
  8
0
 10
-5.11108
 20
364.645
 11
-4.89413
 21
364.803
  0
LINE
  8
0
 10
-4.89413
 20
364.803
 11
-4.65915
 21
364.932
  0
LINE
  8
0
 10
-4.65915
 20
364.932
 11
-4.40984
 21
365.031
  0
LINE
  8
0
 10
-4.40984
 20
365.031
 11
-4.1501
 21
365.097
  0
LINE
  8
0
 10
-4.1501
 20
365.097
 11
-3.88406
 21
365.131
  0
LINE
  8
0
 10
-3.88406
 20
365.131
 11
-3.61592
 21
365.131
  0
LINE
  8
0
 10
-3.61592
 20
365.131
 11
-3.34988
 21
365.097
  0
LINE
  8
0
 10
-3.34988
 20
365.097
 11
-3.09015
 21
365.031
  0
LINE
  8
0
 10
-3.09015
 20
365.031
 11
-2.84084
 21
364.932
  0
LINE
  8
0
 10
-2.84084
 20
364.932
 11
-2.60585
 21
364.803
  0
LINE
  8
0
 10
-2.60585
 20
364.803
 11
-2.3889
 21
364.645
  0
LINE
  8
0
 10
-2.3889
 20
364.645
 11
-2.19344
 21
364.462
  0
LINE
  8
0
 10
-2.19344
 20
364.462
 11
-2.02251
 21
364.255
  0
LINE
  8
0
 10
-2.02251
 20
364.255
 11
-1.87881
 21
364.029
  0
LINE
  8
0
 10
-1.87881
 20
364.029
 11
-1.76465
 21
363.786
  0
LINE
  8
0
 10
-1.76465
 20
363.786
 11
-1.68178
 21
363.531
  0
LINE
  8
0
 10
-1.68178
 20
363.531
 11
-1.63153
 21
363.268
  0
LINE
  8
0
 10
-1.63153
 20
363.268
 11
-1.6147
 21
363
  0
LINE
  8
0
 10
-1.6147
 20
363
 11
-1.63153
 21
362.732
  0
LINE
  8
0
 10
-1.63153
 20
362.732
 11
-1.68178
 21
362.469
  0
LINE
  8
0
 10
-1.68178
 20
362.469
 11
-1.76465
 21
362.214
  0
LINE
  8
0
 10
-1.76465
 20
362.214
 11
-1.87881
 21
361.971
  0
LINE
  8
0
 10
-1.87881
 20
361.971
 11
-2.02251
 21
361.745
  0
LINE
  8
0
 10
-2.02251
 20
361.745
 11
-2.19344
 21
361.538
  0
LINE
  8
0
 10
-2.19344
 20
361.538
 11
-2.3889
 21
361.355
  0
LINE
  8
0
 10
-2.3889
 20
361.355
 11
-2.60585
 21
361.197
  0
LINE
  8
0
 10
-2.60585
 20
361.197
 11
-2.84084
 21
361.068
  0
LINE
  8
0
 10
-2.84084
 20
361.068
 11
-3.09015
 21
360.969
  0
LINE
  8
0
 10
-3.09015
 20
360.969
 11
-3.34988
 21
360.903
  0
LINE
  8
0
 10
-3.34988
 20
360.903
 11
-3.61592
 21
360.869
  0
LINE
  8
0
 10
-3.61592
 20
360.869
 11
-3.88406
 21
360.869
  0
ENDSEC
  0
SECTION
  2
OBJECTS
  0
DICTIONARY
  0
ENDSEC
  0
EOF
