solid OpenSCAD_Model
  facet normal 0 -1 0
    outer loop
      vertex -1.15399 -1.99878 0
      vertex 1.15399 -1.99878 1.6
      vertex -1.15399 -1.99878 1.6
    endloop
  endfacet
  facet normal 0 -1 -0
    outer loop
      vertex 1.15399 -1.99878 1.6
      vertex -1.15399 -1.99878 0
      vertex 1.15399 -1.99878 0
    endloop
  endfacet
  facet normal 0.866023 -0.500004 0
    outer loop
      vertex 1.15399 -1.99878 1.6
      vertex 2.308 0 0
      vertex 2.308 0 1.6
    endloop
  endfacet
  facet normal 0.866023 -0.500004 0
    outer loop
      vertex 2.308 0 0
      vertex 1.15399 -1.99878 1.6
      vertex 1.15399 -1.99878 0
    endloop
  endfacet
  facet normal 0 0 -1
    outer loop
      vertex 0.876307 -0.481753 0
      vertex 2.308 0 0
      vertex 1.15399 -1.99878 0
    endloop
  endfacet
  facet normal 0 0 -1
    outer loop
      vertex 0.992114 0.125333 0
      vertex 2.308 0 0
      vertex 1 0 0
    endloop
  endfacet
  facet normal -0 0 -1
    outer loop
      vertex 2.308 0 0
      vertex 0.992114 -0.125333 0
      vertex 1 0 0
    endloop
  endfacet
  facet normal 0 0 -1
    outer loop
      vertex 2.308 0 0
      vertex 0.968583 -0.24869 0
      vertex 0.992114 -0.125333 0
    endloop
  endfacet
  facet normal 0 0 -1
    outer loop
      vertex 2.308 0 0
      vertex 0.929776 -0.368124 0
      vertex 0.968583 -0.24869 0
    endloop
  endfacet
  facet normal 0 0 -1
    outer loop
      vertex 2.308 0 0
      vertex 0.876307 -0.481753 0
      vertex 0.929776 -0.368124 0
    endloop
  endfacet
  facet normal 0 0 -1
    outer loop
      vertex 1.15399 -1.99878 0
      vertex 0.809016 -0.587785 0
      vertex 0.876307 -0.481753 0
    endloop
  endfacet
  facet normal 0 0 -1
    outer loop
      vertex 1.15399 -1.99878 0
      vertex 0.728969 -0.684546 0
      vertex 0.809016 -0.587785 0
    endloop
  endfacet
  facet normal 0 0 -1
    outer loop
      vertex 1.15399 -1.99878 0
      vertex 0.637424 -0.770513 0
      vertex 0.728969 -0.684546 0
    endloop
  endfacet
  facet normal 0 0 -1
    outer loop
      vertex 1.15399 -1.99878 0
      vertex 0.535827 -0.844327 0
      vertex 0.637424 -0.770513 0
    endloop
  endfacet
  facet normal 0 0 -1
    outer loop
      vertex 1.15399 -1.99878 0
      vertex 0.425778 -0.904826 0
      vertex 0.535827 -0.844327 0
    endloop
  endfacet
  facet normal 0 0 -1
    outer loop
      vertex 1.15399 -1.99878 0
      vertex 0.309016 -0.951056 0
      vertex 0.425778 -0.904826 0
    endloop
  endfacet
  facet normal 0 0 -1
    outer loop
      vertex 1.15399 -1.99878 0
      vertex 0.187381 -0.982286 0
      vertex 0.309016 -0.951056 0
    endloop
  endfacet
  facet normal 0 0 -1
    outer loop
      vertex 1.15399 -1.99878 0
      vertex 0.0627899 -0.998026 0
      vertex 0.187381 -0.982286 0
    endloop
  endfacet
  facet normal 0 0 -1
    outer loop
      vertex 1.15399 -1.99878 0
      vertex -0.0627899 -0.998026 0
      vertex 0.0627899 -0.998026 0
    endloop
  endfacet
  facet normal 0 0 -1
    outer loop
      vertex -1.15399 -1.99878 0
      vertex -0.0627899 -0.998026 0
      vertex 1.15399 -1.99878 0
    endloop
  endfacet
  facet normal -0 0 -1
    outer loop
      vertex -0.0627899 -0.998026 0
      vertex -1.15399 -1.99878 0
      vertex -0.187381 -0.982286 0
    endloop
  endfacet
  facet normal -0 0 -1
    outer loop
      vertex -0.187381 -0.982286 0
      vertex -1.15399 -1.99878 0
      vertex -0.309016 -0.951056 0
    endloop
  endfacet
  facet normal -0 0 -1
    outer loop
      vertex -0.309016 -0.951056 0
      vertex -1.15399 -1.99878 0
      vertex -0.425778 -0.904826 0
    endloop
  endfacet
  facet normal 0 0 -1
    outer loop
      vertex -0.968583 -0.24869 0
      vertex -2.308 0 0
      vertex -0.992114 -0.125333 0
    endloop
  endfacet
  facet normal 0 0 -1
    outer loop
      vertex -0.929776 -0.368124 0
      vertex -2.308 0 0
      vertex -0.968583 -0.24869 0
    endloop
  endfacet
  facet normal 0 0 -1
    outer loop
      vertex -0.876307 -0.481753 0
      vertex -2.308 0 0
      vertex -0.929776 -0.368124 0
    endloop
  endfacet
  facet normal 0 0 -1
    outer loop
      vertex -2.308 0 0
      vertex -0.876307 -0.481753 0
      vertex -1.15399 -1.99878 0
    endloop
  endfacet
  facet normal -0 0 -1
    outer loop
      vertex -0.809016 -0.587785 0
      vertex -1.15399 -1.99878 0
      vertex -0.876307 -0.481753 0
    endloop
  endfacet
  facet normal -0 0 -1
    outer loop
      vertex -0.728969 -0.684546 0
      vertex -1.15399 -1.99878 0
      vertex -0.809016 -0.587785 0
    endloop
  endfacet
  facet normal -0 0 -1
    outer loop
      vertex -0.637424 -0.770513 0
      vertex -1.15399 -1.99878 0
      vertex -0.728969 -0.684546 0
    endloop
  endfacet
  facet normal -0 0 -1
    outer loop
      vertex -0.535827 -0.844327 0
      vertex -1.15399 -1.99878 0
      vertex -0.637424 -0.770513 0
    endloop
  endfacet
  facet normal -0 0 -1
    outer loop
      vertex -0.425778 -0.904826 0
      vertex -1.15399 -1.99878 0
      vertex -0.535827 -0.844327 0
    endloop
  endfacet
  facet normal 0 0 -1
    outer loop
      vertex 0.968583 0.24869 0
      vertex 2.308 0 0
      vertex 0.992114 0.125333 0
    endloop
  endfacet
  facet normal 0 0 -1
    outer loop
      vertex 0.929776 0.368124 0
      vertex 2.308 0 0
      vertex 0.968583 0.24869 0
    endloop
  endfacet
  facet normal 0 0 -1
    outer loop
      vertex 0.876307 0.481753 0
      vertex 2.308 0 0
      vertex 0.929776 0.368124 0
    endloop
  endfacet
  facet normal 0 0 -1
    outer loop
      vertex 2.308 0 0
      vertex 0.876307 0.481753 0
      vertex 1.15399 1.99878 0
    endloop
  endfacet
  facet normal 0 0 -1
    outer loop
      vertex 0.809016 0.587785 0
      vertex 1.15399 1.99878 0
      vertex 0.876307 0.481753 0
    endloop
  endfacet
  facet normal 0 0 -1
    outer loop
      vertex 0.728969 0.684546 0
      vertex 1.15399 1.99878 0
      vertex 0.809016 0.587785 0
    endloop
  endfacet
  facet normal 0 0 -1
    outer loop
      vertex 0.637424 0.770513 0
      vertex 1.15399 1.99878 0
      vertex 0.728969 0.684546 0
    endloop
  endfacet
  facet normal 0 0 -1
    outer loop
      vertex 0.535827 0.844327 0
      vertex 1.15399 1.99878 0
      vertex 0.637424 0.770513 0
    endloop
  endfacet
  facet normal 0 0 -1
    outer loop
      vertex 0.425778 0.904826 0
      vertex 1.15399 1.99878 0
      vertex 0.535827 0.844327 0
    endloop
  endfacet
  facet normal 0 0 -1
    outer loop
      vertex 0.309016 0.951056 0
      vertex 1.15399 1.99878 0
      vertex 0.425778 0.904826 0
    endloop
  endfacet
  facet normal 0 0 -1
    outer loop
      vertex 0.187381 0.982286 0
      vertex 1.15399 1.99878 0
      vertex 0.309016 0.951056 0
    endloop
  endfacet
  facet normal 0 0 -1
    outer loop
      vertex 0.0627899 0.998026 0
      vertex 1.15399 1.99878 0
      vertex 0.187381 0.982286 0
    endloop
  endfacet
  facet normal 0 0 -1
    outer loop
      vertex -0.0627899 0.998026 0
      vertex 1.15399 1.99878 0
      vertex 0.0627899 0.998026 0
    endloop
  endfacet
  facet normal 0 0 -1
    outer loop
      vertex -1.15399 1.99878 0
      vertex -0.0627899 0.998026 0
      vertex -0.187381 0.982286 0
    endloop
  endfacet
  facet normal 0 0 -1
    outer loop
      vertex -1.15399 1.99878 0
      vertex -0.187381 0.982286 0
      vertex -0.309016 0.951056 0
    endloop
  endfacet
  facet normal 0 0 -1
    outer loop
      vertex -1.15399 1.99878 0
      vertex -0.309016 0.951056 0
      vertex -0.425778 0.904826 0
    endloop
  endfacet
  facet normal 0 0 -1
    outer loop
      vertex -1.15399 1.99878 0
      vertex -0.425778 0.904826 0
      vertex -0.535827 0.844327 0
    endloop
  endfacet
  facet normal 0 0 -1
    outer loop
      vertex -0.992114 -0.125333 0
      vertex -2.308 0 0
      vertex -1 0 0
    endloop
  endfacet
  facet normal 0 0 -1
    outer loop
      vertex -0.0627899 0.998026 0
      vertex -1.15399 1.99878 0
      vertex 1.15399 1.99878 0
    endloop
  endfacet
  facet normal 0 0 -1
    outer loop
      vertex -0.637424 0.770513 0
      vertex -1.15399 1.99878 0
      vertex -0.535827 0.844327 0
    endloop
  endfacet
  facet normal 0 0 -1
    outer loop
      vertex -0.728969 0.684546 0
      vertex -1.15399 1.99878 0
      vertex -0.637424 0.770513 0
    endloop
  endfacet
  facet normal 0 0 -1
    outer loop
      vertex -0.809016 0.587785 0
      vertex -1.15399 1.99878 0
      vertex -0.728969 0.684546 0
    endloop
  endfacet
  facet normal 0 0 -1
    outer loop
      vertex -0.876307 0.481753 0
      vertex -1.15399 1.99878 0
      vertex -0.809016 0.587785 0
    endloop
  endfacet
  facet normal 0 0 -1
    outer loop
      vertex -2.308 0 0
      vertex -0.876307 0.481753 0
      vertex -0.929776 0.368124 0
    endloop
  endfacet
  facet normal 0 0 -1
    outer loop
      vertex -2.308 0 0
      vertex -0.929776 0.368124 0
      vertex -0.968583 0.24869 0
    endloop
  endfacet
  facet normal 0 0 -1
    outer loop
      vertex -2.308 0 0
      vertex -0.968583 0.24869 0
      vertex -0.992114 0.125333 0
    endloop
  endfacet
  facet normal 0 0 -1
    outer loop
      vertex -1 0 0
      vertex -2.308 0 0
      vertex -0.992114 0.125333 0
    endloop
  endfacet
  facet normal -0 0 -1
    outer loop
      vertex -0.876307 0.481753 0
      vertex -2.308 0 0
      vertex -1.15399 1.99878 0
    endloop
  endfacet
  facet normal 0.866023 0.500004 0
    outer loop
      vertex 2.308 0 1.6
      vertex 1.15399 1.99878 0
      vertex 1.15399 1.99878 1.6
    endloop
  endfacet
  facet normal 0.866023 0.500004 0
    outer loop
      vertex 1.15399 1.99878 0
      vertex 2.308 0 1.6
      vertex 2.308 0 0
    endloop
  endfacet
  facet normal -0.866023 -0.500004 0
    outer loop
      vertex -1.15399 -1.99878 0
      vertex -2.308 0 1.6
      vertex -2.308 0 0
    endloop
  endfacet
  facet normal -0.866023 -0.500004 0
    outer loop
      vertex -2.308 0 1.6
      vertex -1.15399 -1.99878 0
      vertex -1.15399 -1.99878 1.6
    endloop
  endfacet
  facet normal -0 0 1
    outer loop
      vertex 0.876307 0.481753 1.6
      vertex 2.308 0 1.6
      vertex 1.15399 1.99878 1.6
    endloop
  endfacet
  facet normal 0 0 1
    outer loop
      vertex 0.992114 -0.125333 1.6
      vertex 2.308 0 1.6
      vertex 1 0 1.6
    endloop
  endfacet
  facet normal 0 0 1
    outer loop
      vertex 2.308 0 1.6
      vertex 0.992114 0.125333 1.6
      vertex 1 0 1.6
    endloop
  endfacet
  facet normal 0 0 1
    outer loop
      vertex 2.308 0 1.6
      vertex 0.968583 0.24869 1.6
      vertex 0.992114 0.125333 1.6
    endloop
  endfacet
  facet normal 0 0 1
    outer loop
      vertex 2.308 0 1.6
      vertex 0.929776 0.368124 1.6
      vertex 0.968583 0.24869 1.6
    endloop
  endfacet
  facet normal 0 0 1
    outer loop
      vertex 2.308 0 1.6
      vertex 0.876307 0.481753 1.6
      vertex 0.929776 0.368124 1.6
    endloop
  endfacet
  facet normal 0 0 1
    outer loop
      vertex 1.15399 1.99878 1.6
      vertex 0.809016 0.587785 1.6
      vertex 0.876307 0.481753 1.6
    endloop
  endfacet
  facet normal 0 0 1
    outer loop
      vertex 1.15399 1.99878 1.6
      vertex 0.728969 0.684546 1.6
      vertex 0.809016 0.587785 1.6
    endloop
  endfacet
  facet normal 0 0 1
    outer loop
      vertex 1.15399 1.99878 1.6
      vertex 0.637424 0.770513 1.6
      vertex 0.728969 0.684546 1.6
    endloop
  endfacet
  facet normal 0 0 1
    outer loop
      vertex 1.15399 1.99878 1.6
      vertex 0.535827 0.844327 1.6
      vertex 0.637424 0.770513 1.6
    endloop
  endfacet
  facet normal 0 0 1
    outer loop
      vertex 1.15399 1.99878 1.6
      vertex 0.425778 0.904826 1.6
      vertex 0.535827 0.844327 1.6
    endloop
  endfacet
  facet normal 0 0 1
    outer loop
      vertex 1.15399 1.99878 1.6
      vertex 0.309016 0.951056 1.6
      vertex 0.425778 0.904826 1.6
    endloop
  endfacet
  facet normal 0 0 1
    outer loop
      vertex 1.15399 1.99878 1.6
      vertex 0.187381 0.982286 1.6
      vertex 0.309016 0.951056 1.6
    endloop
  endfacet
  facet normal 0 0 1
    outer loop
      vertex 1.15399 1.99878 1.6
      vertex 0.0627899 0.998026 1.6
      vertex 0.187381 0.982286 1.6
    endloop
  endfacet
  facet normal 0 0 1
    outer loop
      vertex 1.15399 1.99878 1.6
      vertex -0.0627899 0.998026 1.6
      vertex 0.0627899 0.998026 1.6
    endloop
  endfacet
  facet normal -0 0 1
    outer loop
      vertex -1.15399 1.99878 1.6
      vertex -0.0627899 0.998026 1.6
      vertex 1.15399 1.99878 1.6
    endloop
  endfacet
  facet normal 0 0 1
    outer loop
      vertex -0.0627899 0.998026 1.6
      vertex -1.15399 1.99878 1.6
      vertex -0.187381 0.982286 1.6
    endloop
  endfacet
  facet normal 0 0 1
    outer loop
      vertex -0.187381 0.982286 1.6
      vertex -1.15399 1.99878 1.6
      vertex -0.309016 0.951056 1.6
    endloop
  endfacet
  facet normal 0 0 1
    outer loop
      vertex -0.309016 0.951056 1.6
      vertex -1.15399 1.99878 1.6
      vertex -0.425778 0.904826 1.6
    endloop
  endfacet
  facet normal 0 0 1
    outer loop
      vertex -0.968583 0.24869 1.6
      vertex -2.308 0 1.6
      vertex -0.992114 0.125333 1.6
    endloop
  endfacet
  facet normal 0 0 1
    outer loop
      vertex -0.929776 0.368124 1.6
      vertex -2.308 0 1.6
      vertex -0.968583 0.24869 1.6
    endloop
  endfacet
  facet normal 0 0 1
    outer loop
      vertex -0.876307 0.481753 1.6
      vertex -2.308 0 1.6
      vertex -0.929776 0.368124 1.6
    endloop
  endfacet
  facet normal 0 0 1
    outer loop
      vertex -2.308 0 1.6
      vertex -0.876307 0.481753 1.6
      vertex -1.15399 1.99878 1.6
    endloop
  endfacet
  facet normal 0 0 1
    outer loop
      vertex -0.809016 0.587785 1.6
      vertex -1.15399 1.99878 1.6
      vertex -0.876307 0.481753 1.6
    endloop
  endfacet
  facet normal 0 0 1
    outer loop
      vertex -0.728969 0.684546 1.6
      vertex -1.15399 1.99878 1.6
      vertex -0.809016 0.587785 1.6
    endloop
  endfacet
  facet normal 0 0 1
    outer loop
      vertex -0.637424 0.770513 1.6
      vertex -1.15399 1.99878 1.6
      vertex -0.728969 0.684546 1.6
    endloop
  endfacet
  facet normal 0 0 1
    outer loop
      vertex -0.535827 0.844327 1.6
      vertex -1.15399 1.99878 1.6
      vertex -0.637424 0.770513 1.6
    endloop
  endfacet
  facet normal 0 0 1
    outer loop
      vertex -0.425778 0.904826 1.6
      vertex -1.15399 1.99878 1.6
      vertex -0.535827 0.844327 1.6
    endloop
  endfacet
  facet normal 0 0 1
    outer loop
      vertex 0.968583 -0.24869 1.6
      vertex 2.308 0 1.6
      vertex 0.992114 -0.125333 1.6
    endloop
  endfacet
  facet normal 0 0 1
    outer loop
      vertex 0.929776 -0.368124 1.6
      vertex 2.308 0 1.6
      vertex 0.968583 -0.24869 1.6
    endloop
  endfacet
  facet normal 0 0 1
    outer loop
      vertex 0.876307 -0.481753 1.6
      vertex 2.308 0 1.6
      vertex 0.929776 -0.368124 1.6
    endloop
  endfacet
  facet normal 0 0 1
    outer loop
      vertex 2.308 0 1.6
      vertex 0.876307 -0.481753 1.6
      vertex 1.15399 -1.99878 1.6
    endloop
  endfacet
  facet normal -0 0 1
    outer loop
      vertex 0.809016 -0.587785 1.6
      vertex 1.15399 -1.99878 1.6
      vertex 0.876307 -0.481753 1.6
    endloop
  endfacet
  facet normal -0 0 1
    outer loop
      vertex 0.728969 -0.684546 1.6
      vertex 1.15399 -1.99878 1.6
      vertex 0.809016 -0.587785 1.6
    endloop
  endfacet
  facet normal -0 0 1
    outer loop
      vertex 0.637424 -0.770513 1.6
      vertex 1.15399 -1.99878 1.6
      vertex 0.728969 -0.684546 1.6
    endloop
  endfacet
  facet normal -0 0 1
    outer loop
      vertex 0.535827 -0.844327 1.6
      vertex 1.15399 -1.99878 1.6
      vertex 0.637424 -0.770513 1.6
    endloop
  endfacet
  facet normal -0 0 1
    outer loop
      vertex 0.425778 -0.904826 1.6
      vertex 1.15399 -1.99878 1.6
      vertex 0.535827 -0.844327 1.6
    endloop
  endfacet
  facet normal -0 0 1
    outer loop
      vertex 0.309016 -0.951056 1.6
      vertex 1.15399 -1.99878 1.6
      vertex 0.425778 -0.904826 1.6
    endloop
  endfacet
  facet normal -0 0 1
    outer loop
      vertex 0.187381 -0.982286 1.6
      vertex 1.15399 -1.99878 1.6
      vertex 0.309016 -0.951056 1.6
    endloop
  endfacet
  facet normal -0 0 1
    outer loop
      vertex 0.0627899 -0.998026 1.6
      vertex 1.15399 -1.99878 1.6
      vertex 0.187381 -0.982286 1.6
    endloop
  endfacet
  facet normal -0 0 1
    outer loop
      vertex -0.0627899 -0.998026 1.6
      vertex 1.15399 -1.99878 1.6
      vertex 0.0627899 -0.998026 1.6
    endloop
  endfacet
  facet normal 0 0 1
    outer loop
      vertex -1.15399 -1.99878 1.6
      vertex -0.0627899 -0.998026 1.6
      vertex -0.187381 -0.982286 1.6
    endloop
  endfacet
  facet normal 0 0 1
    outer loop
      vertex -1.15399 -1.99878 1.6
      vertex -0.187381 -0.982286 1.6
      vertex -0.309016 -0.951056 1.6
    endloop
  endfacet
  facet normal 0 0 1
    outer loop
      vertex -1.15399 -1.99878 1.6
      vertex -0.309016 -0.951056 1.6
      vertex -0.425778 -0.904826 1.6
    endloop
  endfacet
  facet normal 0 0 1
    outer loop
      vertex -1.15399 -1.99878 1.6
      vertex -0.425778 -0.904826 1.6
      vertex -0.535827 -0.844327 1.6
    endloop
  endfacet
  facet normal 0 0 1
    outer loop
      vertex -0.992114 0.125333 1.6
      vertex -2.308 0 1.6
      vertex -1 0 1.6
    endloop
  endfacet
  facet normal 0 0 1
    outer loop
      vertex -0.0627899 -0.998026 1.6
      vertex -1.15399 -1.99878 1.6
      vertex 1.15399 -1.99878 1.6
    endloop
  endfacet
  facet normal 0 0 1
    outer loop
      vertex -0.637424 -0.770513 1.6
      vertex -1.15399 -1.99878 1.6
      vertex -0.535827 -0.844327 1.6
    endloop
  endfacet
  facet normal 0 0 1
    outer loop
      vertex -0.728969 -0.684546 1.6
      vertex -1.15399 -1.99878 1.6
      vertex -0.637424 -0.770513 1.6
    endloop
  endfacet
  facet normal 0 0 1
    outer loop
      vertex -0.809016 -0.587785 1.6
      vertex -1.15399 -1.99878 1.6
      vertex -0.728969 -0.684546 1.6
    endloop
  endfacet
  facet normal 0 0 1
    outer loop
      vertex -0.876307 -0.481753 1.6
      vertex -1.15399 -1.99878 1.6
      vertex -0.809016 -0.587785 1.6
    endloop
  endfacet
  facet normal 0 0 1
    outer loop
      vertex -2.308 0 1.6
      vertex -0.876307 -0.481753 1.6
      vertex -0.929776 -0.368124 1.6
    endloop
  endfacet
  facet normal 0 0 1
    outer loop
      vertex -2.308 0 1.6
      vertex -0.929776 -0.368124 1.6
      vertex -0.968583 -0.24869 1.6
    endloop
  endfacet
  facet normal 0 0 1
    outer loop
      vertex -2.308 0 1.6
      vertex -0.968583 -0.24869 1.6
      vertex -0.992114 -0.125333 1.6
    endloop
  endfacet
  facet normal 0 0 1
    outer loop
      vertex -1 0 1.6
      vertex -2.308 0 1.6
      vertex -0.992114 -0.125333 1.6
    endloop
  endfacet
  facet normal 0 0 1
    outer loop
      vertex -0.876307 -0.481753 1.6
      vertex -2.308 0 1.6
      vertex -1.15399 -1.99878 1.6
    endloop
  endfacet
  facet normal -0.866023 0.500004 0
    outer loop
      vertex -2.308 0 0
      vertex -1.15399 1.99878 1.6
      vertex -1.15399 1.99878 0
    endloop
  endfacet
  facet normal -0.866023 0.500004 0
    outer loop
      vertex -1.15399 1.99878 1.6
      vertex -2.308 0 0
      vertex -2.308 0 1.6
    endloop
  endfacet
  facet normal 0 1 -0
    outer loop
      vertex 1.15399 1.99878 0
      vertex -1.15399 1.99878 1.6
      vertex 1.15399 1.99878 1.6
    endloop
  endfacet
  facet normal 0 1 0
    outer loop
      vertex -1.15399 1.99878 1.6
      vertex 1.15399 1.99878 0
      vertex -1.15399 1.99878 0
    endloop
  endfacet
  facet normal -0.998026 -0.0627962 0
    outer loop
      vertex 1 0 0
      vertex 0.992114 0.125333 1.6
      vertex 0.992114 0.125333 0
    endloop
  endfacet
  facet normal -0.998026 -0.0627962 0
    outer loop
      vertex 0.992114 0.125333 1.6
      vertex 1 0 0
      vertex 1 0 1.6
    endloop
  endfacet
  facet normal 0.998026 -0.0627962 0
    outer loop
      vertex -1 0 1.6
      vertex -0.992114 0.125333 0
      vertex -0.992114 0.125333 1.6
    endloop
  endfacet
  facet normal 0.998026 -0.0627962 0
    outer loop
      vertex -0.992114 0.125333 0
      vertex -1 0 1.6
      vertex -1 0 0
    endloop
  endfacet
  facet normal 0 -1 0
    outer loop
      vertex -0.0627899 0.998026 0
      vertex 0.0627899 0.998026 1.6
      vertex -0.0627899 0.998026 1.6
    endloop
  endfacet
  facet normal 0 -1 -0
    outer loop
      vertex 0.0627899 0.998026 1.6
      vertex -0.0627899 0.998026 0
      vertex 0.0627899 0.998026 0
    endloop
  endfacet
  facet normal 0 1 -0
    outer loop
      vertex 0.0627899 -0.998026 0
      vertex -0.0627899 -0.998026 1.6
      vertex 0.0627899 -0.998026 1.6
    endloop
  endfacet
  facet normal 0 1 0
    outer loop
      vertex -0.0627899 -0.998026 1.6
      vertex 0.0627899 -0.998026 0
      vertex -0.0627899 -0.998026 0
    endloop
  endfacet
  facet normal -0.684549 -0.728967 0
    outer loop
      vertex 0.637424 0.770513 0
      vertex 0.728969 0.684546 1.6
      vertex 0.637424 0.770513 1.6
    endloop
  endfacet
  facet normal -0.684549 -0.728967 -0
    outer loop
      vertex 0.728969 0.684546 1.6
      vertex 0.637424 0.770513 0
      vertex 0.728969 0.684546 0
    endloop
  endfacet
  facet normal 0.684549 -0.728967 0
    outer loop
      vertex -0.728969 0.684546 0
      vertex -0.637424 0.770513 1.6
      vertex -0.728969 0.684546 1.6
    endloop
  endfacet
  facet normal 0.684549 -0.728967 0
    outer loop
      vertex -0.637424 0.770513 1.6
      vertex -0.728969 0.684546 0
      vertex -0.637424 0.770513 0
    endloop
  endfacet
  facet normal 0.368129 -0.929775 0
    outer loop
      vertex -0.425778 0.904826 0
      vertex -0.309016 0.951056 1.6
      vertex -0.425778 0.904826 1.6
    endloop
  endfacet
  facet normal 0.368129 -0.929775 0
    outer loop
      vertex -0.309016 0.951056 1.6
      vertex -0.425778 0.904826 0
      vertex -0.309016 0.951056 0
    endloop
  endfacet
  facet normal -0.904829 -0.425774 0
    outer loop
      vertex 0.929776 0.368124 0
      vertex 0.876307 0.481753 1.6
      vertex 0.876307 0.481753 0
    endloop
  endfacet
  facet normal -0.904829 -0.425774 0
    outer loop
      vertex 0.876307 0.481753 1.6
      vertex 0.929776 0.368124 0
      vertex 0.929776 0.368124 1.6
    endloop
  endfacet
  facet normal -0.982288 -0.187377 0
    outer loop
      vertex 0.992114 0.125333 0
      vertex 0.968583 0.24869 1.6
      vertex 0.968583 0.24869 0
    endloop
  endfacet
  facet normal -0.982288 -0.187377 0
    outer loop
      vertex 0.968583 0.24869 1.6
      vertex 0.992114 0.125333 0
      vertex 0.992114 0.125333 1.6
    endloop
  endfacet
  facet normal -0.368129 -0.929775 0
    outer loop
      vertex 0.309016 0.951056 0
      vertex 0.425778 0.904826 1.6
      vertex 0.309016 0.951056 1.6
    endloop
  endfacet
  facet normal -0.368129 -0.929775 -0
    outer loop
      vertex 0.425778 0.904826 1.6
      vertex 0.309016 0.951056 0
      vertex 0.425778 0.904826 0
    endloop
  endfacet
  facet normal -0.587782 -0.809019 0
    outer loop
      vertex 0.535827 0.844327 0
      vertex 0.637424 0.770513 1.6
      vertex 0.535827 0.844327 1.6
    endloop
  endfacet
  facet normal -0.587782 -0.809019 -0
    outer loop
      vertex 0.637424 0.770513 1.6
      vertex 0.535827 0.844327 0
      vertex 0.637424 0.770513 0
    endloop
  endfacet
  facet normal 0.904829 -0.425774 0
    outer loop
      vertex -0.929776 0.368124 1.6
      vertex -0.876307 0.481753 0
      vertex -0.876307 0.481753 1.6
    endloop
  endfacet
  facet normal 0.904829 -0.425774 0
    outer loop
      vertex -0.876307 0.481753 0
      vertex -0.929776 0.368124 1.6
      vertex -0.929776 0.368124 0
    endloop
  endfacet
  facet normal 0.951055 -0.309021 0
    outer loop
      vertex -0.968583 0.24869 1.6
      vertex -0.929776 0.368124 0
      vertex -0.929776 0.368124 1.6
    endloop
  endfacet
  facet normal 0.951055 -0.309021 0
    outer loop
      vertex -0.929776 0.368124 0
      vertex -0.968583 0.24869 1.6
      vertex -0.968583 0.24869 0
    endloop
  endfacet
  facet normal 0.481748 -0.87631 0
    outer loop
      vertex -0.535827 0.844327 0
      vertex -0.425778 0.904826 1.6
      vertex -0.535827 0.844327 1.6
    endloop
  endfacet
  facet normal 0.481748 -0.87631 0
    outer loop
      vertex -0.425778 0.904826 1.6
      vertex -0.535827 0.844327 0
      vertex -0.425778 0.904826 0
    endloop
  endfacet
  facet normal 0.248686 -0.968584 0
    outer loop
      vertex -0.309016 0.951056 0
      vertex -0.187381 0.982286 1.6
      vertex -0.309016 0.951056 1.6
    endloop
  endfacet
  facet normal 0.248686 -0.968584 0
    outer loop
      vertex -0.187381 0.982286 1.6
      vertex -0.309016 0.951056 0
      vertex -0.187381 0.982286 0
    endloop
  endfacet
  facet normal -0.368129 0.929775 0
    outer loop
      vertex 0.425778 -0.904826 0
      vertex 0.309016 -0.951056 1.6
      vertex 0.425778 -0.904826 1.6
    endloop
  endfacet
  facet normal -0.368129 0.929775 0
    outer loop
      vertex 0.309016 -0.951056 1.6
      vertex 0.425778 -0.904826 0
      vertex 0.309016 -0.951056 0
    endloop
  endfacet
  facet normal -0.951055 -0.309021 0
    outer loop
      vertex 0.968583 0.24869 0
      vertex 0.929776 0.368124 1.6
      vertex 0.929776 0.368124 0
    endloop
  endfacet
  facet normal -0.951055 -0.309021 0
    outer loop
      vertex 0.929776 0.368124 1.6
      vertex 0.968583 0.24869 0
      vertex 0.968583 0.24869 1.6
    endloop
  endfacet
  facet normal -0.770516 -0.637421 0
    outer loop
      vertex 0.809016 0.587785 0
      vertex 0.728969 0.684546 1.6
      vertex 0.728969 0.684546 0
    endloop
  endfacet
  facet normal -0.770516 -0.637421 0
    outer loop
      vertex 0.728969 0.684546 1.6
      vertex 0.809016 0.587785 0
      vertex 0.809016 0.587785 1.6
    endloop
  endfacet
  facet normal -0.844324 -0.535833 0
    outer loop
      vertex 0.876307 0.481753 0
      vertex 0.809016 0.587785 1.6
      vertex 0.809016 0.587785 0
    endloop
  endfacet
  facet normal -0.844324 -0.535833 0
    outer loop
      vertex 0.809016 0.587785 1.6
      vertex 0.876307 0.481753 0
      vertex 0.876307 0.481753 1.6
    endloop
  endfacet
  facet normal -0.248686 -0.968584 0
    outer loop
      vertex 0.187381 0.982286 0
      vertex 0.309016 0.951056 1.6
      vertex 0.187381 0.982286 1.6
    endloop
  endfacet
  facet normal -0.248686 -0.968584 -0
    outer loop
      vertex 0.309016 0.951056 1.6
      vertex 0.187381 0.982286 0
      vertex 0.309016 0.951056 0
    endloop
  endfacet
  facet normal -0.125337 -0.992114 0
    outer loop
      vertex 0.0627899 0.998026 0
      vertex 0.187381 0.982286 1.6
      vertex 0.0627899 0.998026 1.6
    endloop
  endfacet
  facet normal -0.125337 -0.992114 -0
    outer loop
      vertex 0.187381 0.982286 1.6
      vertex 0.0627899 0.998026 0
      vertex 0.187381 0.982286 0
    endloop
  endfacet
  facet normal -0.481748 -0.87631 0
    outer loop
      vertex 0.425778 0.904826 0
      vertex 0.535827 0.844327 1.6
      vertex 0.425778 0.904826 1.6
    endloop
  endfacet
  facet normal -0.481748 -0.87631 -0
    outer loop
      vertex 0.535827 0.844327 1.6
      vertex 0.425778 0.904826 0
      vertex 0.535827 0.844327 0
    endloop
  endfacet
  facet normal 0.844324 -0.535833 0
    outer loop
      vertex -0.876307 0.481753 1.6
      vertex -0.809016 0.587785 0
      vertex -0.809016 0.587785 1.6
    endloop
  endfacet
  facet normal 0.844324 -0.535833 0
    outer loop
      vertex -0.809016 0.587785 0
      vertex -0.876307 0.481753 1.6
      vertex -0.876307 0.481753 0
    endloop
  endfacet
  facet normal 0.770516 -0.637421 0
    outer loop
      vertex -0.809016 0.587785 1.6
      vertex -0.728969 0.684546 0
      vertex -0.728969 0.684546 1.6
    endloop
  endfacet
  facet normal 0.770516 -0.637421 0
    outer loop
      vertex -0.728969 0.684546 0
      vertex -0.809016 0.587785 1.6
      vertex -0.809016 0.587785 0
    endloop
  endfacet
  facet normal 0.982288 -0.187377 0
    outer loop
      vertex -0.992114 0.125333 1.6
      vertex -0.968583 0.24869 0
      vertex -0.968583 0.24869 1.6
    endloop
  endfacet
  facet normal 0.982288 -0.187377 0
    outer loop
      vertex -0.968583 0.24869 0
      vertex -0.992114 0.125333 1.6
      vertex -0.992114 0.125333 0
    endloop
  endfacet
  facet normal 0.587782 -0.809019 0
    outer loop
      vertex -0.637424 0.770513 0
      vertex -0.535827 0.844327 1.6
      vertex -0.637424 0.770513 1.6
    endloop
  endfacet
  facet normal 0.587782 -0.809019 0
    outer loop
      vertex -0.535827 0.844327 1.6
      vertex -0.637424 0.770513 0
      vertex -0.535827 0.844327 0
    endloop
  endfacet
  facet normal 0.125337 -0.992114 0
    outer loop
      vertex -0.187381 0.982286 0
      vertex -0.0627899 0.998026 1.6
      vertex -0.187381 0.982286 1.6
    endloop
  endfacet
  facet normal 0.125337 -0.992114 0
    outer loop
      vertex -0.0627899 0.998026 1.6
      vertex -0.187381 0.982286 0
      vertex -0.0627899 0.998026 0
    endloop
  endfacet
  facet normal -0.998026 0.0627962 0
    outer loop
      vertex 0.992114 -0.125333 0
      vertex 1 0 1.6
      vertex 1 0 0
    endloop
  endfacet
  facet normal -0.998026 0.0627962 0
    outer loop
      vertex 1 0 1.6
      vertex 0.992114 -0.125333 0
      vertex 0.992114 -0.125333 1.6
    endloop
  endfacet
  facet normal -0.982288 0.187377 0
    outer loop
      vertex 0.968583 -0.24869 0
      vertex 0.992114 -0.125333 1.6
      vertex 0.992114 -0.125333 0
    endloop
  endfacet
  facet normal -0.982288 0.187377 0
    outer loop
      vertex 0.992114 -0.125333 1.6
      vertex 0.968583 -0.24869 0
      vertex 0.968583 -0.24869 1.6
    endloop
  endfacet
  facet normal 0.904829 0.425774 0
    outer loop
      vertex -0.876307 -0.481753 1.6
      vertex -0.929776 -0.368124 0
      vertex -0.929776 -0.368124 1.6
    endloop
  endfacet
  facet normal 0.904829 0.425774 0
    outer loop
      vertex -0.929776 -0.368124 0
      vertex -0.876307 -0.481753 1.6
      vertex -0.876307 -0.481753 0
    endloop
  endfacet
  facet normal 0.844324 0.535833 0
    outer loop
      vertex -0.809016 -0.587785 1.6
      vertex -0.876307 -0.481753 0
      vertex -0.876307 -0.481753 1.6
    endloop
  endfacet
  facet normal 0.844324 0.535833 0
    outer loop
      vertex -0.876307 -0.481753 0
      vertex -0.809016 -0.587785 1.6
      vertex -0.809016 -0.587785 0
    endloop
  endfacet
  facet normal -0.481748 0.87631 0
    outer loop
      vertex 0.535827 -0.844327 0
      vertex 0.425778 -0.904826 1.6
      vertex 0.535827 -0.844327 1.6
    endloop
  endfacet
  facet normal -0.481748 0.87631 0
    outer loop
      vertex 0.425778 -0.904826 1.6
      vertex 0.535827 -0.844327 0
      vertex 0.425778 -0.904826 0
    endloop
  endfacet
  facet normal -0.904829 0.425774 0
    outer loop
      vertex 0.876307 -0.481753 0
      vertex 0.929776 -0.368124 1.6
      vertex 0.929776 -0.368124 0
    endloop
  endfacet
  facet normal -0.904829 0.425774 0
    outer loop
      vertex 0.929776 -0.368124 1.6
      vertex 0.876307 -0.481753 0
      vertex 0.876307 -0.481753 1.6
    endloop
  endfacet
  facet normal 0.770516 0.637421 0
    outer loop
      vertex -0.728969 -0.684546 1.6
      vertex -0.809016 -0.587785 0
      vertex -0.809016 -0.587785 1.6
    endloop
  endfacet
  facet normal 0.770516 0.637421 0
    outer loop
      vertex -0.809016 -0.587785 0
      vertex -0.728969 -0.684546 1.6
      vertex -0.728969 -0.684546 0
    endloop
  endfacet
  facet normal 0.951055 0.309021 0
    outer loop
      vertex -0.929776 -0.368124 1.6
      vertex -0.968583 -0.24869 0
      vertex -0.968583 -0.24869 1.6
    endloop
  endfacet
  facet normal 0.951055 0.309021 0
    outer loop
      vertex -0.968583 -0.24869 0
      vertex -0.929776 -0.368124 1.6
      vertex -0.929776 -0.368124 0
    endloop
  endfacet
  facet normal -0.587782 0.809019 0
    outer loop
      vertex 0.637424 -0.770513 0
      vertex 0.535827 -0.844327 1.6
      vertex 0.637424 -0.770513 1.6
    endloop
  endfacet
  facet normal -0.587782 0.809019 0
    outer loop
      vertex 0.535827 -0.844327 1.6
      vertex 0.637424 -0.770513 0
      vertex 0.535827 -0.844327 0
    endloop
  endfacet
  facet normal -0.248686 0.968584 0
    outer loop
      vertex 0.309016 -0.951056 0
      vertex 0.187381 -0.982286 1.6
      vertex 0.309016 -0.951056 1.6
    endloop
  endfacet
  facet normal -0.248686 0.968584 0
    outer loop
      vertex 0.187381 -0.982286 1.6
      vertex 0.309016 -0.951056 0
      vertex 0.187381 -0.982286 0
    endloop
  endfacet
  facet normal -0.125337 0.992114 0
    outer loop
      vertex 0.187381 -0.982286 0
      vertex 0.0627899 -0.998026 1.6
      vertex 0.187381 -0.982286 1.6
    endloop
  endfacet
  facet normal -0.125337 0.992114 0
    outer loop
      vertex 0.0627899 -0.998026 1.6
      vertex 0.187381 -0.982286 0
      vertex 0.0627899 -0.998026 0
    endloop
  endfacet
  facet normal -0.844324 0.535833 0
    outer loop
      vertex 0.809016 -0.587785 0
      vertex 0.876307 -0.481753 1.6
      vertex 0.876307 -0.481753 0
    endloop
  endfacet
  facet normal -0.844324 0.535833 0
    outer loop
      vertex 0.876307 -0.481753 1.6
      vertex 0.809016 -0.587785 0
      vertex 0.809016 -0.587785 1.6
    endloop
  endfacet
  facet normal -0.770516 0.637421 0
    outer loop
      vertex 0.728969 -0.684546 0
      vertex 0.809016 -0.587785 1.6
      vertex 0.809016 -0.587785 0
    endloop
  endfacet
  facet normal -0.770516 0.637421 0
    outer loop
      vertex 0.809016 -0.587785 1.6
      vertex 0.728969 -0.684546 0
      vertex 0.728969 -0.684546 1.6
    endloop
  endfacet
  facet normal -0.951055 0.309021 0
    outer loop
      vertex 0.929776 -0.368124 0
      vertex 0.968583 -0.24869 1.6
      vertex 0.968583 -0.24869 0
    endloop
  endfacet
  facet normal -0.951055 0.309021 0
    outer loop
      vertex 0.968583 -0.24869 1.6
      vertex 0.929776 -0.368124 0
      vertex 0.929776 -0.368124 1.6
    endloop
  endfacet
  facet normal 0.248686 0.968584 -0
    outer loop
      vertex -0.187381 -0.982286 0
      vertex -0.309016 -0.951056 1.6
      vertex -0.187381 -0.982286 1.6
    endloop
  endfacet
  facet normal 0.248686 0.968584 0
    outer loop
      vertex -0.309016 -0.951056 1.6
      vertex -0.187381 -0.982286 0
      vertex -0.309016 -0.951056 0
    endloop
  endfacet
  facet normal 0.982288 0.187377 0
    outer loop
      vertex -0.968583 -0.24869 1.6
      vertex -0.992114 -0.125333 0
      vertex -0.992114 -0.125333 1.6
    endloop
  endfacet
  facet normal 0.982288 0.187377 0
    outer loop
      vertex -0.992114 -0.125333 0
      vertex -0.968583 -0.24869 1.6
      vertex -0.968583 -0.24869 0
    endloop
  endfacet
  facet normal 0.998026 0.0627962 0
    outer loop
      vertex -0.992114 -0.125333 1.6
      vertex -1 0 0
      vertex -1 0 1.6
    endloop
  endfacet
  facet normal 0.998026 0.0627962 0
    outer loop
      vertex -1 0 0
      vertex -0.992114 -0.125333 1.6
      vertex -0.992114 -0.125333 0
    endloop
  endfacet
  facet normal -0.684549 0.728967 0
    outer loop
      vertex 0.728969 -0.684546 0
      vertex 0.637424 -0.770513 1.6
      vertex 0.728969 -0.684546 1.6
    endloop
  endfacet
  facet normal -0.684549 0.728967 0
    outer loop
      vertex 0.637424 -0.770513 1.6
      vertex 0.728969 -0.684546 0
      vertex 0.637424 -0.770513 0
    endloop
  endfacet
  facet normal 0.684549 0.728967 -0
    outer loop
      vertex -0.637424 -0.770513 0
      vertex -0.728969 -0.684546 1.6
      vertex -0.637424 -0.770513 1.6
    endloop
  endfacet
  facet normal 0.684549 0.728967 0
    outer loop
      vertex -0.728969 -0.684546 1.6
      vertex -0.637424 -0.770513 0
      vertex -0.728969 -0.684546 0
    endloop
  endfacet
  facet normal 0.481748 0.87631 -0
    outer loop
      vertex -0.425778 -0.904826 0
      vertex -0.535827 -0.844327 1.6
      vertex -0.425778 -0.904826 1.6
    endloop
  endfacet
  facet normal 0.481748 0.87631 0
    outer loop
      vertex -0.535827 -0.844327 1.6
      vertex -0.425778 -0.904826 0
      vertex -0.535827 -0.844327 0
    endloop
  endfacet
  facet normal 0.125337 0.992114 -0
    outer loop
      vertex -0.0627899 -0.998026 0
      vertex -0.187381 -0.982286 1.6
      vertex -0.0627899 -0.998026 1.6
    endloop
  endfacet
  facet normal 0.125337 0.992114 0
    outer loop
      vertex -0.187381 -0.982286 1.6
      vertex -0.0627899 -0.998026 0
      vertex -0.187381 -0.982286 0
    endloop
  endfacet
  facet normal 0.587782 0.809019 -0
    outer loop
      vertex -0.535827 -0.844327 0
      vertex -0.637424 -0.770513 1.6
      vertex -0.535827 -0.844327 1.6
    endloop
  endfacet
  facet normal 0.587782 0.809019 0
    outer loop
      vertex -0.637424 -0.770513 1.6
      vertex -0.535827 -0.844327 0
      vertex -0.637424 -0.770513 0
    endloop
  endfacet
  facet normal 0.368129 0.929775 -0
    outer loop
      vertex -0.309016 -0.951056 0
      vertex -0.425778 -0.904826 1.6
      vertex -0.309016 -0.951056 1.6
    endloop
  endfacet
  facet normal 0.368129 0.929775 0
    outer loop
      vertex -0.425778 -0.904826 1.6
      vertex -0.309016 -0.951056 0
      vertex -0.425778 -0.904826 0
    endloop
  endfacet
endsolid OpenSCAD_Model
