<?xml version="1.0" standalone="no"?>
<!DOCTYPE svg PUBLIC "-//W3C//DTD SVG 1.1//EN" "http://www.w3.org/Graphics/SVG/1.1/DTD/svg11.dtd">
<svg width="44mm" height="30mm" viewBox="-22 -7 44 30" xmlns="http://www.w3.org/2000/svg" version="1.1">
<title>OpenSCAD Model</title>
<path d="
M 0.647781,22.4515 L 1.49223,22.3056 L 2.27385,22.0623 L 2.99261,21.7218 L 3.64854,21.284 L 4.24164,20.7489
 L 4.77188,20.1166 L 5.23509,19.393 L 5.62703,18.5842 L 5.94771,17.6902 L 6.19711,16.7109 L 6.37527,15.6465
 L 6.48216,14.4969 L 6.51779,13.2621 L 6.48413,12.0529 L 6.38316,10.9356 L 6.21487,9.91037 L 5.97928,8.97717
 L 5.67636,8.136 L 5.30614,7.38686 L 5.04196,6.99013 L 17.3139,6.99013 L 17.9369,6.91142 L 18.5451,6.75528
 L 19.1289,6.52412 L 19.6791,6.22163 L 20.1871,5.85255 L 20.6448,5.42273 L 21.0451,4.93892 L 21.3815,4.40877
 L 21.6489,3.84062 L 21.8429,3.24344 L 21.9606,2.62666 L 22,2 L 22,-2 L 21.9606,-2.62666
 L 21.8429,-3.24344 L 21.6489,-3.84062 L 21.3815,-4.40877 L 21.0451,-4.93892 L 20.6448,-5.42273 L 20.1871,-5.85255
 L 19.6791,-6.22163 L 19.1289,-6.52412 L 18.5451,-6.75528 L 17.9369,-6.91142 L 17.3139,-6.99013 L -17.3139,-6.99013
 L -17.9369,-6.91142 L -18.5451,-6.75528 L -19.1289,-6.52412 L -19.6791,-6.22163 L -20.1871,-5.85255 L -20.6448,-5.42273
 L -21.0451,-4.93892 L -21.3815,-4.40877 L -21.6489,-3.84062 L -21.8429,-3.24344 L -21.9606,-2.62666 L -22,-2
 L -22,2 L -21.9606,2.62666 L -21.8429,3.24344 L -21.6489,3.84062 L -21.3815,4.40877 L -21.0451,4.93892
 L -20.6448,5.42273 L -20.1871,5.85255 L -19.6791,6.22163 L -19.1289,6.52412 L -18.5451,6.75528 L -17.9369,6.91142
 L -17.3139,6.99013 L -5.28873,6.99013 L -5.40898,7.15672 L -5.7166,7.72546 L -5.95587,8.34207 L -6.12677,9.00653
 L -6.22931,9.71884 L -6.26349,10.479 L -6.2343,11.2224 L -6.14674,11.921 L -6.00081,12.575 L -5.79651,13.1842
 L -5.53383,13.7488 L -5.21278,14.2686 L -4.83336,14.7438 L -4.40582,15.1642 L -3.9404,15.52 L -3.43713,15.8111
 L -2.89598,16.0375 L -2.31697,16.1992 L -1.70009,16.2962 L -1.04533,16.3286 L -0.680771,16.3174 L -0.323303,16.2839
 L 0.0270538,16.228 L 0.370331,16.1497 L 0.706512,16.0492 L 1.0356,15.9263 L 1.35759,15.781 L 1.66327,15.616
 L 1.94344,15.4339 L 2.19809,15.2347 L 2.42723,15.0184 L 2.63086,14.7851 L 2.80896,14.5346 L 2.96156,14.2671
 L 2.93753,15.009 L 2.88011,15.6959 L 2.78928,16.3279 L 2.66504,16.905 L 2.5074,17.4271 L 2.31638,17.8943
 L 2.09193,18.3065 L 1.83804,18.6637 L 1.55867,18.9659 L 1.25378,19.2132 L 0.923401,19.4055 L 0.56752,19.5429
 L 0.186127,19.6253 L -0.220734,19.6528 L -0.712982,19.6141 L -1.15161,19.4982 L -1.53658,19.3049 L -1.86792,19.0343
 L -2.1456,18.6864 L -2.36966,18.2612 L -2.54005,17.7587 L -5.94144,18.2354 L -5.76328,18.8443 L -5.55278,19.4045
 L -5.30995,19.916 L -5.03477,20.379 L -4.72726,20.7932 L -4.38741,21.1589 L -4.01521,21.4758 L -3.6057,21.7476
 L -3.15382,21.9775 L -2.65964,22.1657 L -2.12309,22.312 L -1.54424,22.4165 L -0.923035,22.4792 L -0.259491,22.5001
 z
M 6.04712,-0.373032 L 6.10533,-0.552185 L 6.18553,-0.722626 L 6.28647,-0.881668 L 6.40654,-1.02681 L 6.54385,-1.15576
 L 6.69626,-1.26648 L 6.86133,-1.35724 L 7.03647,-1.42657 L 7.21892,-1.47342 L 7.40581,-1.49704 L 7.59418,-1.49704
 L 7.78107,-1.47342 L 7.96352,-1.42657 L 8.13866,-1.35724 L 8.30373,-1.26648 L 8.45613,-1.15576 L 8.59344,-1.02681
 L 8.71352,-0.881668 L 8.81445,-0.722626 L 8.89465,-0.552185 L 8.95287,-0.373032 L 8.98816,-0.187988 L 9,-0
 L 8.98816,0.187988 L 8.95287,0.373032 L 8.89465,0.552185 L 8.81445,0.722626 L 8.71352,0.881668 L 8.59344,1.02681
 L 8.45613,1.15576 L 8.30373,1.26648 L 8.13866,1.35724 L 7.96352,1.42657 L 7.78107,1.47342 L 7.59418,1.49704
 L 7.40581,1.49704 L 7.21892,1.47342 L 7.03647,1.42657 L 6.86133,1.35724 L 6.69626,1.26648 L 6.54385,1.15576
 L 6.40654,1.02681 L 6.28647,0.881668 L 6.18553,0.722626 L 6.10533,0.552185 L 6.04712,0.373032 L 6.01183,0.187988
 L 6,-0 L 6.01183,-0.187988 z
M 14.8116,2.99408 L 14.4379,2.94685 L 14.0729,2.85316 L 13.7227,2.71448 L 13.3925,2.53297 L 13.0877,2.31154
 L 12.8131,2.05363 L 12.5729,1.76335 L 12.3711,1.44525 L 12.2107,1.10437 L 12.0942,0.746063 L 12.0237,0.375992
 L 12,-0 L 12.0237,-0.375992 L 12.0942,-0.746063 L 12.2107,-1.10437 L 12.3711,-1.44525 L 12.5729,-1.76335
 L 12.8131,-2.05363 L 13.0877,-2.31154 L 13.3925,-2.53297 L 13.7227,-2.71448 L 14.0729,-2.85316 L 14.4379,-2.94685
 L 14.8116,-2.99408 L 15.1884,-2.99408 L 15.5621,-2.94685 L 15.927,-2.85316 L 16.2773,-2.71448 L 16.6075,-2.53297
 L 16.9123,-2.31154 L 17.1869,-2.05363 L 17.427,-1.76335 L 17.6289,-1.44525 L 17.7893,-1.10437 L 17.9057,-0.746063
 L 17.9763,-0.375992 L 18,-0 L 17.9763,0.375992 L 17.9057,0.746063 L 17.7893,1.10437 L 17.6289,1.44525
 L 17.427,1.76335 L 17.1869,2.05363 L 16.9123,2.31154 L 16.6075,2.53297 L 16.2773,2.71448 L 15.927,2.85316
 L 15.5621,2.94685 L 15.1884,2.99408 z
M -15.1884,2.99408 L -15.5621,2.94685 L -15.927,2.85316 L -16.2773,2.71448 L -16.6075,2.53297 L -16.9123,2.31154
 L -17.1869,2.05363 L -17.427,1.76335 L -17.6289,1.44525 L -17.7893,1.10437 L -17.9057,0.746063 L -17.9763,0.375992
 L -18,-0 L -17.9763,-0.375992 L -17.9057,-0.746063 L -17.7893,-1.10437 L -17.6289,-1.44525 L -17.427,-1.76335
 L -17.1869,-2.05363 L -16.9123,-2.31154 L -16.6075,-2.53297 L -16.2773,-2.71448 L -15.927,-2.85316 L -15.5621,-2.94685
 L -15.1884,-2.99408 L -14.8116,-2.99408 L -14.4379,-2.94685 L -14.0729,-2.85316 L -13.7227,-2.71448 L -13.3925,-2.53297
 L -13.0877,-2.31154 L -12.8131,-2.05363 L -12.5729,-1.76335 L -12.3711,-1.44525 L -12.2107,-1.10437 L -12.0942,-0.746063
 L -12.0237,-0.375992 L -12,-0 L -12.0237,0.375992 L -12.0942,0.746063 L -12.2107,1.10437 L -12.3711,1.44525
 L -12.5729,1.76335 L -12.8131,2.05363 L -13.0877,2.31154 L -13.3925,2.53297 L -13.7227,2.71448 L -14.0729,2.85316
 L -14.4379,2.94685 L -14.8116,2.99408 z
M -7.59418,1.49704 L -7.78107,1.47342 L -7.96352,1.42657 L -8.13866,1.35724 L -8.30373,1.26648 L -8.45613,1.15576
 L -8.59344,1.02681 L -8.71352,0.881668 L -8.81445,0.722626 L -8.89465,0.552185 L -8.95287,0.373032 L -8.98816,0.187988
 L -9,-0 L -8.98816,-0.187988 L -8.95287,-0.373032 L -8.89465,-0.552185 L -8.81445,-0.722626 L -8.71352,-0.881668
 L -8.59344,-1.02681 L -8.45613,-1.15576 L -8.30373,-1.26648 L -8.13866,-1.35724 L -7.96352,-1.42657 L -7.78107,-1.47342
 L -7.59418,-1.49704 L -7.40581,-1.49704 L -7.21892,-1.47342 L -7.03647,-1.42657 L -6.86133,-1.35724 L -6.69626,-1.26648
 L -6.54385,-1.15576 L -6.40654,-1.02681 L -6.28647,-0.881668 L -6.18553,-0.722626 L -6.10533,-0.552185 L -6.04712,-0.373032
 L -6.01183,-0.187988 L -6,-0 L -6.01183,0.187988 L -6.04712,0.373032 L -6.10533,0.552185 L -6.18553,0.722626
 L -6.28647,0.881668 L -6.40654,1.02681 L -6.54385,1.15576 L -6.69626,1.26648 L -6.86133,1.35724 L -7.03647,1.42657
 L -7.21892,1.47342 L -7.40581,1.49704 z
M -0.33049,13.6179 L -0.639587,13.5647 L -0.928986,13.476 L -1.19864,13.3517 L -1.44859,13.192 L -1.6788,12.9968
 L -1.88931,12.7661 L -2.07562,12.5069 L -2.23326,12.2265 L -2.36224,11.9248 L -2.46257,11.6018 L -2.53423,11.2574
 L -2.57722,10.8918 L -2.59155,10.5049 L -2.57722,10.1119 L -2.53423,9.7428 L -2.46257,9.39767 L -2.36224,9.07649
 L -2.23326,8.77925 L -2.07562,8.50595 L -1.88931,8.25659 L -1.67908,8.0361 L -1.44965,7.84955 L -1.20102,7.6969
 L -0.933197,7.57817 L -0.646179,7.49338 L -0.339981,7.44249 L -0.0145874,7.42554 L 0.315369,7.44511 L 0.627975,7.50389
 L 0.923248,7.60184 L 1.20116,7.73897 L 1.46173,7.91527 L 1.70494,8.13075 L 1.93082,8.38541 L 2.13249,8.67215
 L 2.30315,8.98387 L 2.44278,9.32057 L 2.55138,9.68225 L 2.62895,10.0689 L 2.67549,10.4805 L 2.69101,10.9172
 L 2.67549,11.2538 L 2.62895,11.5719 L 2.55138,11.8712 L 2.44278,12.1519 L 2.30315,12.4139 L 2.13249,12.6573
 L 1.93082,12.882 L 1.7052,13.0819 L 1.46278,13.2511 L 1.20354,13.3896 L 0.92746,13.4972 L 0.634567,13.5742
 L 0.32486,13.6203 L -0.00166321,13.6357 z
M 2.90575,0.746063 L 2.78932,1.10437 L 2.62891,1.44525 L 2.42705,1.76335 L 2.1869,2.05363 L 1.91226,2.31154
 L 1.60747,2.53297 L 1.27733,2.71448 L 0.927048,2.85316 L 0.562134,2.94685 L 0.18837,2.99408 L -0.18837,2.99408
 L -0.562134,2.94685 L -0.927048,2.85316 L -1.27733,2.71448 L -1.60747,2.53297 L -1.91226,2.31154 L -2.1869,2.05363
 L -2.42705,1.76335 L -2.62891,1.44525 L -2.78932,1.10437 L -2.90575,0.746063 L -2.97633,0.375992 L -3,-0
 L -2.97633,-0.375992 L -2.90575,-0.746063 L -2.78932,-1.10437 L -2.62891,-1.44525 L -2.42705,-1.76335 L -2.1869,-2.05363
 L -1.91226,-2.31154 L -1.60747,-2.53297 L -1.27733,-2.71448 L -0.927048,-2.85316 L -0.562134,-2.94685 L -0.18837,-2.99408
 L 0.18837,-2.99408 L 0.562134,-2.94685 L 0.927048,-2.85316 L 1.27733,-2.71448 L 1.60747,-2.53297 L 1.91226,-2.31154
 L 2.1869,-2.05363 L 2.42705,-1.76335 L 2.62891,-1.44525 L 2.78932,-1.10437 L 2.90575,-0.746063 L 2.97633,-0.375992
 L 3,-0 L 2.97633,0.375992 z
" stroke="black" fill="lightgray" stroke-width="0.5"/>
</svg>
