<?xml version="1.0" standalone="no"?>
<!DOCTYPE svg PUBLIC "-//W3C//DTD SVG 1.1//EN" "http://www.w3.org/Graphics/SVG/1.1/DTD/svg11.dtd">
<svg width="166mm" height="118mm" viewBox="-83 -201 166 118" xmlns="http://www.w3.org/2000/svg" version="1.1">
<title>OpenSCAD Model</title>
<path d="
M 78.4369,-177.839 L 79.0451,-177.995 L 79.6289,-178.226 L 80.1791,-178.528 L 80.6871,-178.897 L 81.1448,-179.327
 L 81.5451,-179.811 L 81.8815,-180.341 L 82.1489,-180.909 L 82.3429,-181.507 L 82.4606,-182.123 L 82.5,-182.75
 L 82.5,-195.25 L 82.4606,-195.877 L 82.3429,-196.493 L 82.1489,-197.091 L 81.8815,-197.659 L 81.5451,-198.189
 L 81.1448,-198.673 L 80.6871,-199.103 L 80.1791,-199.472 L 79.6289,-199.774 L 79.0451,-200.005 L 78.4369,-200.161
 L 77.8139,-200.24 L -77.8139,-200.24 L -78.4369,-200.161 L -79.0451,-200.005 L -79.6289,-199.774 L -80.1791,-199.472
 L -80.6871,-199.103 L -81.1448,-198.673 L -81.5451,-198.189 L -81.8815,-197.659 L -82.1489,-197.091 L -82.3429,-196.493
 L -82.4606,-195.877 L -82.5,-195.25 L -82.5,-182.75 L -82.4606,-182.123 L -82.3429,-181.507 L -82.1489,-180.909
 L -81.8815,-180.341 L -81.5451,-179.811 L -81.1448,-179.327 L -80.6871,-178.897 L -80.1791,-178.528 L -79.6289,-178.226
 L -79.0451,-177.995 L -78.4369,-177.839 L -77.8139,-177.76 L 77.8139,-177.76 z
M -77.5482,-178.259 L -78.1401,-178.334 L -78.7178,-178.482 L -79.2724,-178.702 L -79.7952,-178.989 L -80.2778,-179.34
 L -80.7126,-179.748 L -81.0928,-180.208 L -81.4125,-180.712 L -81.6664,-181.251 L -81.8508,-181.819 L -81.9625,-182.405
 L -82,-183 L -82,-195 L -81.9625,-195.595 L -81.8508,-196.181 L -81.6664,-196.749 L -81.4125,-197.288
 L -81.0928,-197.792 L -80.7126,-198.252 L -80.2778,-198.66 L -79.7952,-199.011 L -79.2724,-199.298 L -78.7178,-199.518
 L -78.1401,-199.666 L -77.5482,-199.741 L 77.5482,-199.741 L 78.1401,-199.666 L 78.7178,-199.518 L 79.2724,-199.298
 L 79.7952,-199.011 L 80.2778,-198.66 L 80.7126,-198.252 L 81.0928,-197.792 L 81.4125,-197.288 L 81.6664,-196.749
 L 81.8508,-196.181 L 81.9625,-195.595 L 82,-195 L 82,-183 L 81.9625,-182.405 L 81.8508,-181.819
 L 81.6664,-181.251 L 81.4125,-180.712 L 81.0928,-180.208 L 80.7126,-179.748 L 80.2778,-179.34 L 79.7952,-178.989
 L 79.2724,-178.702 L 78.7178,-178.482 L 78.1401,-178.334 L 77.5482,-178.259 z
M 78.4369,-146.339 L 79.0451,-146.495 L 79.6289,-146.726 L 80.1791,-147.028 L 80.6871,-147.397 L 81.1448,-147.827
 L 81.5451,-148.311 L 81.8815,-148.841 L 82.1489,-149.409 L 82.3429,-150.007 L 82.4606,-150.623 L 82.5,-151.25
 L 82.5,-163.75 L 82.4606,-164.377 L 82.3429,-164.993 L 82.1489,-165.591 L 81.8815,-166.159 L 81.5451,-166.689
 L 81.1448,-167.173 L 80.6871,-167.603 L 80.1791,-167.972 L 79.6289,-168.274 L 79.0451,-168.505 L 78.4369,-168.661
 L 77.8139,-168.74 L -77.8139,-168.74 L -78.4369,-168.661 L -79.0451,-168.505 L -79.6289,-168.274 L -80.1791,-167.972
 L -80.6871,-167.603 L -81.1448,-167.173 L -81.5451,-166.689 L -81.8815,-166.159 L -82.1489,-165.591 L -82.3429,-164.993
 L -82.4606,-164.377 L -82.5,-163.75 L -82.5,-151.25 L -82.4606,-150.623 L -82.3429,-150.007 L -82.1489,-149.409
 L -81.8815,-148.841 L -81.5451,-148.311 L -81.1448,-147.827 L -80.6871,-147.397 L -80.1791,-147.028 L -79.6289,-146.726
 L -79.0451,-146.495 L -78.4369,-146.339 L -77.8139,-146.26 L 77.8139,-146.26 z
M -77.5482,-146.759 L -78.1401,-146.834 L -78.7178,-146.982 L -79.2724,-147.202 L -79.7952,-147.489 L -80.2778,-147.84
 L -80.7126,-148.248 L -81.0928,-148.708 L -81.4125,-149.212 L -81.6664,-149.751 L -81.8508,-150.319 L -81.9625,-150.905
 L -82,-151.5 L -82,-163.5 L -81.9625,-164.095 L -81.8508,-164.681 L -81.6664,-165.249 L -81.4125,-165.788
 L -81.0928,-166.292 L -80.7126,-166.752 L -80.2778,-167.16 L -79.7952,-167.511 L -79.2724,-167.798 L -78.7178,-168.018
 L -78.1401,-168.166 L -77.5482,-168.241 L 77.5482,-168.241 L 78.1401,-168.166 L 78.7178,-168.018 L 79.2724,-167.798
 L 79.7952,-167.511 L 80.2778,-167.16 L 80.7126,-166.752 L 81.0928,-166.292 L 81.4125,-165.788 L 81.6664,-165.249
 L 81.8508,-164.681 L 81.9625,-164.095 L 82,-163.5 L 82,-151.5 L 81.9625,-150.905 L 81.8508,-150.319
 L 81.6664,-149.751 L 81.4125,-149.212 L 81.0928,-148.708 L 80.7126,-148.248 L 80.2778,-147.84 L 79.7952,-147.489
 L 79.2724,-147.202 L 78.7178,-146.982 L 78.1401,-146.834 L 77.5482,-146.759 z
M 78.4369,-114.839 L 79.0451,-114.995 L 79.6289,-115.226 L 80.1791,-115.528 L 80.6871,-115.897 L 81.1448,-116.327
 L 81.5451,-116.811 L 81.8815,-117.341 L 82.1489,-117.909 L 82.3429,-118.507 L 82.4606,-119.123 L 82.5,-119.75
 L 82.5,-132.25 L 82.4606,-132.877 L 82.3429,-133.493 L 82.1489,-134.091 L 81.8815,-134.659 L 81.5451,-135.189
 L 81.1448,-135.673 L 80.6871,-136.103 L 80.1791,-136.472 L 79.6289,-136.774 L 79.0451,-137.005 L 78.4369,-137.161
 L 77.8139,-137.24 L -77.8139,-137.24 L -78.4369,-137.161 L -79.0451,-137.005 L -79.6289,-136.774 L -80.1791,-136.472
 L -80.6871,-136.103 L -81.1448,-135.673 L -81.5451,-135.189 L -81.8815,-134.659 L -82.1489,-134.091 L -82.3429,-133.493
 L -82.4606,-132.877 L -82.5,-132.25 L -82.5,-119.75 L -82.4606,-119.123 L -82.3429,-118.507 L -82.1489,-117.909
 L -81.8815,-117.341 L -81.5451,-116.811 L -81.1448,-116.327 L -80.6871,-115.897 L -80.1791,-115.528 L -79.6289,-115.226
 L -79.0451,-114.995 L -78.4369,-114.839 L -77.8139,-114.76 L 77.8139,-114.76 z
M -77.493,-116.138 L -77.9751,-116.199 L -78.4457,-116.32 L -78.8975,-116.499 L -79.3234,-116.733 L -79.7165,-117.019
 L -80.0707,-117.351 L -80.3805,-117.726 L -80.6408,-118.136 L -80.8477,-118.576 L -80.9979,-119.038 L -81.089,-119.515
 L -81.1195,-120 L -81.1195,-132 L -81.089,-132.485 L -80.9979,-132.962 L -80.8477,-133.424 L -80.6408,-133.864
 L -80.3805,-134.274 L -80.0707,-134.649 L -79.7165,-134.981 L -79.3234,-135.267 L -78.8975,-135.501 L -78.4457,-135.68
 L -77.9751,-135.801 L -77.493,-135.862 L 77.493,-135.862 L 77.9751,-135.801 L 78.4457,-135.68 L 78.8975,-135.501
 L 79.3234,-135.267 L 79.7165,-134.981 L 80.0707,-134.649 L 80.3805,-134.274 L 80.6408,-133.864 L 80.8477,-133.424
 L 80.9979,-132.962 L 81.089,-132.485 L 81.1195,-132 L 81.1195,-120 L 81.089,-119.515 L 80.9979,-119.038
 L 80.8477,-118.576 L 80.6408,-118.136 L 80.3805,-117.726 L 80.0707,-117.351 L 79.7165,-117.019 L 79.3234,-116.733
 L 78.8975,-116.499 L 78.4457,-116.32 L 77.9751,-116.199 L 77.493,-116.138 z
M 78.4369,-83.3386 L 79.0451,-83.4947 L 79.6289,-83.7259 L 80.1791,-84.0284 L 80.6871,-84.3974 L 81.1448,-84.8273
 L 81.5451,-85.3111 L 81.8815,-85.8412 L 82.1489,-86.4094 L 82.3429,-87.0066 L 82.4606,-87.6233 L 82.5,-88.25
 L 82.5,-100.75 L 82.4606,-101.377 L 82.3429,-101.993 L 82.1489,-102.591 L 81.8815,-103.159 L 81.5451,-103.689
 L 81.1448,-104.173 L 80.6871,-104.603 L 80.1791,-104.972 L 79.6289,-105.274 L 79.0451,-105.505 L 78.4369,-105.661
 L 77.8139,-105.74 L -77.8139,-105.74 L -78.4369,-105.661 L -79.0451,-105.505 L -79.6289,-105.274 L -80.1791,-104.972
 L -80.6871,-104.603 L -81.1448,-104.173 L -81.5451,-103.689 L -81.8815,-103.159 L -82.1489,-102.591 L -82.3429,-101.993
 L -82.4606,-101.377 L -82.5,-100.75 L -82.5,-88.25 L -82.4606,-87.6233 L -82.3429,-87.0066 L -82.1489,-86.4094
 L -81.8815,-85.8412 L -81.5451,-85.3111 L -81.1448,-84.8273 L -80.6871,-84.3974 L -80.1791,-84.0284 L -79.6289,-83.7259
 L -79.0451,-83.4947 L -78.4369,-83.3386 L -77.8139,-83.2599 L 77.8139,-83.2599 z
M -75.113,-96.4536 L -75.3373,-96.4819 L -75.5562,-96.5381 L -75.7664,-96.6213 L -75.9645,-96.7302 L -76.1474,-96.8631
 L -76.3121,-97.0178 L -76.4562,-97.192 L -76.5773,-97.3828 L -76.6736,-97.5874 L -76.7434,-97.8024 L -76.7858,-98.0244
 L -76.8,-98.25 L -76.7858,-98.4756 L -76.7434,-98.6976 L -76.6736,-98.9126 L -76.5773,-99.1171 L -76.4562,-99.308
 L -76.3121,-99.4822 L -76.1474,-99.6369 L -75.9645,-99.7698 L -75.7664,-99.8787 L -75.5562,-99.9619 L -75.3373,-100.018
 L -75.113,-100.046 L -74.887,-100.046 L -74.6627,-100.018 L -74.4438,-99.9619 L -74.2336,-99.8787 L -74.0355,-99.7698
 L -73.8526,-99.6369 L -73.6879,-99.4822 L -73.5438,-99.308 L -73.4226,-99.1171 L -73.3264,-98.9126 L -73.2565,-98.6976
 L -73.2142,-98.4756 L -73.2,-98.25 L -73.2142,-98.0244 L -73.2565,-97.8024 L -73.3264,-97.5874 L -73.4226,-97.3828
 L -73.5438,-97.192 L -73.6879,-97.0178 L -73.8526,-96.8631 L -74.0355,-96.7302 L -74.2336,-96.6213 L -74.4438,-96.5381
 L -74.6627,-96.4819 L -74.887,-96.4536 z
M 74.887,-96.4536 L 74.6627,-96.4819 L 74.4438,-96.5381 L 74.2336,-96.6213 L 74.0355,-96.7302 L 73.8526,-96.8631
 L 73.6879,-97.0178 L 73.5438,-97.192 L 73.4226,-97.3828 L 73.3264,-97.5874 L 73.2565,-97.8024 L 73.2142,-98.0244
 L 73.2,-98.25 L 73.2142,-98.4756 L 73.2565,-98.6976 L 73.3264,-98.9126 L 73.4226,-99.1171 L 73.5438,-99.308
 L 73.6879,-99.4822 L 73.8526,-99.6369 L 74.0355,-99.7698 L 74.2336,-99.8787 L 74.4438,-99.9619 L 74.6627,-100.018
 L 74.887,-100.046 L 75.113,-100.046 L 75.3373,-100.018 L 75.5562,-99.9619 L 75.7664,-99.8787 L 75.9645,-99.7698
 L 76.1474,-99.6369 L 76.3121,-99.4822 L 76.4562,-99.308 L 76.5773,-99.1171 L 76.6736,-98.9126 L 76.7434,-98.6976
 L 76.7858,-98.4756 L 76.8,-98.25 L 76.7858,-98.0244 L 76.7434,-97.8024 L 76.6736,-97.5874 L 76.5773,-97.3828
 L 76.4562,-97.192 L 76.3121,-97.0178 L 76.1474,-96.8631 L 75.9645,-96.7302 L 75.7664,-96.6213 L 75.5562,-96.5381
 L 75.3373,-96.4819 L 75.113,-96.4536 z
M 74.887,-88.9536 L 74.6627,-88.9819 L 74.4438,-89.0381 L 74.2336,-89.1213 L 74.0355,-89.2302 L 73.8526,-89.3631
 L 73.6879,-89.5178 L 73.5438,-89.692 L 73.4226,-89.8829 L 73.3264,-90.0874 L 73.2565,-90.3024 L 73.2142,-90.5244
 L 73.2,-90.75 L 73.2142,-90.9756 L 73.2565,-91.1976 L 73.3264,-91.4126 L 73.4226,-91.6172 L 73.5438,-91.808
 L 73.6879,-91.9822 L 73.8526,-92.1369 L 74.0355,-92.2698 L 74.2336,-92.3787 L 74.4438,-92.4619 L 74.6627,-92.5181
 L 74.887,-92.5464 L 75.113,-92.5464 L 75.3373,-92.5181 L 75.5562,-92.4619 L 75.7664,-92.3787 L 75.9645,-92.2698
 L 76.1474,-92.1369 L 76.3121,-91.9822 L 76.4562,-91.808 L 76.5773,-91.6172 L 76.6736,-91.4126 L 76.7434,-91.1976
 L 76.7858,-90.9756 L 76.8,-90.75 L 76.7858,-90.5244 L 76.7434,-90.3024 L 76.6736,-90.0874 L 76.5773,-89.8829
 L 76.4562,-89.692 L 76.3121,-89.5178 L 76.1474,-89.3631 L 75.9645,-89.2302 L 75.7664,-89.1213 L 75.5562,-89.0381
 L 75.3373,-88.9819 L 75.113,-88.9536 z
M -75.113,-88.9536 L -75.3373,-88.9819 L -75.5562,-89.0381 L -75.7664,-89.1213 L -75.9645,-89.2302 L -76.1474,-89.3631
 L -76.3121,-89.5178 L -76.4562,-89.692 L -76.5773,-89.8829 L -76.6736,-90.0874 L -76.7434,-90.3024 L -76.7858,-90.5244
 L -76.8,-90.75 L -76.7858,-90.9756 L -76.7434,-91.1976 L -76.6736,-91.4126 L -76.5773,-91.6172 L -76.4562,-91.808
 L -76.3121,-91.9822 L -76.1474,-92.1369 L -75.9645,-92.2698 L -75.7664,-92.3787 L -75.5562,-92.4619 L -75.3373,-92.5181
 L -75.113,-92.5464 L -74.887,-92.5464 L -74.6627,-92.5181 L -74.4438,-92.4619 L -74.2336,-92.3787 L -74.0355,-92.2698
 L -73.8526,-92.1369 L -73.6879,-91.9822 L -73.5438,-91.808 L -73.4226,-91.6172 L -73.3264,-91.4126 L -73.2565,-91.1976
 L -73.2142,-90.9756 L -73.2,-90.75 L -73.2142,-90.5244 L -73.2565,-90.3024 L -73.3264,-90.0874 L -73.4226,-89.8829
 L -73.5438,-89.692 L -73.6879,-89.5178 L -73.8526,-89.3631 L -74.0355,-89.2302 L -74.2336,-89.1213 L -74.4438,-89.0381
 L -74.6627,-88.9819 L -74.887,-88.9536 z
" stroke="black" fill="lightgray" stroke-width="0.5"/>
</svg>
