<?xml version="1.0" standalone="no"?>
<!DOCTYPE svg PUBLIC "-//W3C//DTD SVG 1.1//EN" "http://www.w3.org/Graphics/SVG/1.1/DTD/svg11.dtd">
<svg width="210mm" height="262mm" viewBox="-105 -509 210 262" xmlns="http://www.w3.org/2000/svg" version="1.1">
<title>OpenSCAD Model</title>
<path d="
M 100.937,-463.589 L 101.545,-463.745 L 102.129,-463.976 L 102.679,-464.278 L 103.187,-464.647 L 103.645,-465.077
 L 104.045,-465.561 L 104.382,-466.091 L 104.649,-466.659 L 104.843,-467.257 L 104.961,-467.873 L 105,-468.5
 L 105,-503.5 L 104.961,-504.127 L 104.843,-504.743 L 104.649,-505.341 L 104.382,-505.909 L 104.045,-506.439
 L 103.645,-506.923 L 103.187,-507.353 L 102.679,-507.722 L 102.129,-508.024 L 101.545,-508.255 L 100.937,-508.411
 L 100.314,-508.49 L -100.314,-508.49 L -100.937,-508.411 L -101.545,-508.255 L -102.129,-508.024 L -102.679,-507.722
 L -103.187,-507.353 L -103.645,-506.923 L -104.045,-506.439 L -104.382,-505.909 L -104.649,-505.341 L -104.843,-504.743
 L -104.961,-504.127 L -105,-503.5 L -105,-468.5 L -104.961,-467.873 L -104.843,-467.257 L -104.649,-466.659
 L -104.382,-466.091 L -104.045,-465.561 L -103.645,-465.077 L -103.187,-464.647 L -102.679,-464.278 L -102.129,-463.976
 L -101.545,-463.745 L -100.937,-463.589 L -100.314,-463.51 L 100.314,-463.51 z
M -99.7512,-465.008 L -100.25,-465.071 L -100.736,-465.196 L -101.203,-465.381 L -101.643,-465.623 L -102.05,-465.918
 L -102.416,-466.262 L -102.736,-466.649 L -103.005,-467.073 L -103.219,-467.528 L -103.374,-468.005 L -103.468,-468.499
 L -103.5,-469 L -103.5,-503 L -103.468,-503.501 L -103.374,-503.995 L -103.219,-504.472 L -103.005,-504.927
 L -102.736,-505.351 L -102.416,-505.738 L -102.05,-506.082 L -101.643,-506.377 L -101.203,-506.619 L -100.736,-506.804
 L -100.25,-506.929 L -99.7512,-506.992 L 99.7512,-506.992 L 100.25,-506.929 L 100.736,-506.804 L 101.203,-506.619
 L 101.643,-506.377 L 102.05,-506.082 L 102.416,-505.738 L 102.736,-505.351 L 103.005,-504.927 L 103.219,-504.472
 L 103.374,-503.995 L 103.468,-503.501 L 103.5,-503 L 103.5,-469 L 103.468,-468.499 L 103.374,-468.005
 L 103.219,-467.528 L 103.005,-467.073 L 102.736,-466.649 L 102.416,-466.262 L 102.05,-465.918 L 101.643,-465.623
 L 101.203,-465.381 L 100.736,-465.196 L 100.25,-465.071 L 99.7512,-465.008 z
M 100.937,-409.589 L 101.545,-409.745 L 102.129,-409.976 L 102.679,-410.278 L 103.187,-410.647 L 103.645,-411.077
 L 104.045,-411.561 L 104.382,-412.091 L 104.649,-412.659 L 104.843,-413.257 L 104.961,-413.873 L 105,-414.5
 L 105,-449.5 L 104.961,-450.127 L 104.843,-450.743 L 104.649,-451.341 L 104.382,-451.909 L 104.045,-452.439
 L 103.645,-452.923 L 103.187,-453.353 L 102.679,-453.722 L 102.129,-454.024 L 101.545,-454.255 L 100.937,-454.411
 L 100.314,-454.49 L -100.314,-454.49 L -100.937,-454.411 L -101.545,-454.255 L -102.129,-454.024 L -102.679,-453.722
 L -103.187,-453.353 L -103.645,-452.923 L -104.045,-452.439 L -104.382,-451.909 L -104.649,-451.341 L -104.843,-450.743
 L -104.961,-450.127 L -105,-449.5 L -105,-414.5 L -104.961,-413.873 L -104.843,-413.257 L -104.649,-412.659
 L -104.382,-412.091 L -104.045,-411.561 L -103.645,-411.077 L -103.187,-410.647 L -102.679,-410.278 L -102.129,-409.976
 L -101.545,-409.745 L -100.937,-409.589 L -100.314,-409.51 L 100.314,-409.51 z
M -99.7512,-411.008 L -100.25,-411.071 L -100.736,-411.196 L -101.203,-411.381 L -101.643,-411.623 L -102.05,-411.918
 L -102.416,-412.262 L -102.736,-412.649 L -103.005,-413.073 L -103.219,-413.528 L -103.374,-414.005 L -103.468,-414.499
 L -103.5,-415 L -103.5,-449 L -103.468,-449.501 L -103.374,-449.995 L -103.219,-450.472 L -103.005,-450.927
 L -102.736,-451.351 L -102.416,-451.738 L -102.05,-452.082 L -101.643,-452.377 L -101.203,-452.619 L -100.736,-452.804
 L -100.25,-452.929 L -99.7512,-452.992 L 99.7512,-452.992 L 100.25,-452.929 L 100.736,-452.804 L 101.203,-452.619
 L 101.643,-452.377 L 102.05,-452.082 L 102.416,-451.738 L 102.736,-451.351 L 103.005,-450.927 L 103.219,-450.472
 L 103.374,-449.995 L 103.468,-449.501 L 103.5,-449 L 103.5,-415 L 103.468,-414.499 L 103.374,-414.005
 L 103.219,-413.528 L 103.005,-413.073 L 102.736,-412.649 L 102.416,-412.262 L 102.05,-411.918 L 101.643,-411.623
 L 101.203,-411.381 L 100.736,-411.196 L 100.25,-411.071 L 99.7512,-411.008 z
M 100.937,-355.589 L 101.545,-355.745 L 102.129,-355.976 L 102.679,-356.278 L 103.187,-356.647 L 103.645,-357.077
 L 104.045,-357.561 L 104.382,-358.091 L 104.649,-358.659 L 104.843,-359.257 L 104.961,-359.873 L 105,-360.5
 L 105,-395.5 L 104.961,-396.127 L 104.843,-396.743 L 104.649,-397.341 L 104.382,-397.909 L 104.045,-398.439
 L 103.645,-398.923 L 103.187,-399.353 L 102.679,-399.722 L 102.129,-400.024 L 101.545,-400.255 L 100.937,-400.411
 L 100.314,-400.49 L -100.314,-400.49 L -100.937,-400.411 L -101.545,-400.255 L -102.129,-400.024 L -102.679,-399.722
 L -103.187,-399.353 L -103.645,-398.923 L -104.045,-398.439 L -104.382,-397.909 L -104.649,-397.341 L -104.843,-396.743
 L -104.961,-396.127 L -105,-395.5 L -105,-360.5 L -104.961,-359.873 L -104.843,-359.257 L -104.649,-358.659
 L -104.382,-358.091 L -104.045,-357.561 L -103.645,-357.077 L -103.187,-356.647 L -102.679,-356.278 L -102.129,-355.976
 L -101.545,-355.745 L -100.937,-355.589 L -100.314,-355.51 L 100.314,-355.51 z
M -99.7512,-357.008 L -100.25,-357.071 L -100.736,-357.196 L -101.203,-357.381 L -101.643,-357.623 L -102.05,-357.918
 L -102.416,-358.262 L -102.736,-358.649 L -103.005,-359.073 L -103.219,-359.528 L -103.374,-360.005 L -103.468,-360.499
 L -103.5,-361 L -103.5,-395 L -103.468,-395.501 L -103.374,-395.995 L -103.219,-396.472 L -103.005,-396.927
 L -102.736,-397.351 L -102.416,-397.738 L -102.05,-398.082 L -101.643,-398.377 L -101.203,-398.619 L -100.736,-398.804
 L -100.25,-398.929 L -99.7512,-398.992 L 99.7512,-398.992 L 100.25,-398.929 L 100.736,-398.804 L 101.203,-398.619
 L 101.643,-398.377 L 102.05,-398.082 L 102.416,-397.738 L 102.736,-397.351 L 103.005,-396.927 L 103.219,-396.472
 L 103.374,-395.995 L 103.468,-395.501 L 103.5,-395 L 103.5,-361 L 103.468,-360.499 L 103.374,-360.005
 L 103.219,-359.528 L 103.005,-359.073 L 102.736,-358.649 L 102.416,-358.262 L 102.05,-357.918 L 101.643,-357.623
 L 101.203,-357.381 L 100.736,-357.196 L 100.25,-357.071 L 99.7512,-357.008 z
M 100.937,-301.589 L 101.545,-301.745 L 102.129,-301.976 L 102.679,-302.278 L 103.187,-302.647 L 103.645,-303.077
 L 104.045,-303.561 L 104.382,-304.091 L 104.649,-304.659 L 104.843,-305.257 L 104.961,-305.873 L 105,-306.5
 L 105,-341.5 L 104.961,-342.127 L 104.843,-342.743 L 104.649,-343.341 L 104.382,-343.909 L 104.045,-344.439
 L 103.645,-344.923 L 103.187,-345.353 L 102.679,-345.722 L 102.129,-346.024 L 101.545,-346.255 L 100.937,-346.411
 L 100.314,-346.49 L -100.314,-346.49 L -100.937,-346.411 L -101.545,-346.255 L -102.129,-346.024 L -102.679,-345.722
 L -103.187,-345.353 L -103.645,-344.923 L -104.045,-344.439 L -104.382,-343.909 L -104.649,-343.341 L -104.843,-342.743
 L -104.961,-342.127 L -105,-341.5 L -105,-306.5 L -104.961,-305.873 L -104.843,-305.257 L -104.649,-304.659
 L -104.382,-304.091 L -104.045,-303.561 L -103.645,-303.077 L -103.187,-302.647 L -102.679,-302.278 L -102.129,-301.976
 L -101.545,-301.745 L -100.937,-301.589 L -100.314,-301.51 L 100.314,-301.51 z
M -99.6955,-303.893 L -100.083,-303.942 L -100.462,-304.039 L -100.825,-304.183 L -101.168,-304.372 L -101.484,-304.601
 L -101.769,-304.869 L -102.018,-305.17 L -102.228,-305.5 L -102.394,-305.854 L -102.515,-306.226 L -102.588,-306.61
 L -102.613,-307 L -102.613,-341 L -102.588,-341.39 L -102.515,-341.774 L -102.394,-342.146 L -102.228,-342.5
 L -102.018,-342.83 L -101.769,-343.131 L -101.484,-343.399 L -101.168,-343.628 L -100.825,-343.817 L -100.462,-343.961
 L -100.083,-344.058 L -99.6955,-344.107 L 99.6955,-344.107 L 100.083,-344.058 L 100.462,-343.961 L 100.825,-343.817
 L 101.168,-343.628 L 101.484,-343.399 L 101.769,-343.131 L 102.018,-342.83 L 102.228,-342.5 L 102.394,-342.146
 L 102.515,-341.774 L 102.588,-341.39 L 102.613,-341 L 102.613,-307 L 102.588,-306.61 L 102.515,-306.226
 L 102.394,-305.854 L 102.228,-305.5 L 102.018,-305.17 L 101.769,-304.869 L 101.484,-304.601 L 101.168,-304.372
 L 100.825,-304.183 L 100.462,-304.039 L 100.083,-303.942 L 99.6955,-303.893 z
M 100.937,-247.589 L 101.545,-247.745 L 102.129,-247.976 L 102.679,-248.278 L 103.187,-248.647 L 103.645,-249.077
 L 104.045,-249.561 L 104.382,-250.091 L 104.649,-250.659 L 104.843,-251.257 L 104.961,-251.873 L 105,-252.5
 L 105,-287.5 L 104.961,-288.127 L 104.843,-288.743 L 104.649,-289.341 L 104.382,-289.909 L 104.045,-290.439
 L 103.645,-290.923 L 103.187,-291.353 L 102.679,-291.722 L 102.129,-292.024 L 101.545,-292.255 L 100.937,-292.411
 L 100.314,-292.49 L -100.314,-292.49 L -100.937,-292.411 L -101.545,-292.255 L -102.129,-292.024 L -102.679,-291.722
 L -103.187,-291.353 L -103.645,-290.923 L -104.045,-290.439 L -104.382,-289.909 L -104.649,-289.341 L -104.843,-288.743
 L -104.961,-288.127 L -105,-287.5 L -105,-252.5 L -104.961,-251.873 L -104.843,-251.257 L -104.649,-250.659
 L -104.382,-250.091 L -104.045,-249.561 L -103.645,-249.077 L -103.187,-248.647 L -102.679,-248.278 L -102.129,-247.976
 L -101.545,-247.745 L -100.937,-247.589 L -100.314,-247.51 L 100.314,-247.51 z
M 97.3659,-282.869 L 97.0999,-282.903 L 96.8401,-282.969 L 96.5908,-283.068 L 96.3559,-283.197 L 96.1389,-283.355
 L 95.9434,-283.538 L 95.7725,-283.745 L 95.6288,-283.971 L 95.5146,-284.214 L 95.4318,-284.469 L 95.3815,-284.732
 L 95.3647,-285 L 95.3815,-285.268 L 95.4318,-285.531 L 95.5146,-285.786 L 95.6288,-286.029 L 95.7725,-286.255
 L 95.9434,-286.462 L 96.1389,-286.645 L 96.3559,-286.803 L 96.5908,-286.932 L 96.8401,-287.031 L 97.0999,-287.097
 L 97.3659,-287.131 L 97.6341,-287.131 L 97.9001,-287.097 L 98.1598,-287.031 L 98.4092,-286.932 L 98.6441,-286.803
 L 98.8611,-286.645 L 99.0566,-286.462 L 99.2275,-286.255 L 99.3712,-286.029 L 99.4853,-285.786 L 99.5682,-285.531
 L 99.6185,-285.268 L 99.6353,-285 L 99.6185,-284.732 L 99.5682,-284.469 L 99.4853,-284.214 L 99.3712,-283.971
 L 99.2275,-283.745 L 99.0566,-283.538 L 98.8611,-283.355 L 98.6441,-283.197 L 98.4092,-283.068 L 98.1598,-282.969
 L 97.9001,-282.903 L 97.6341,-282.869 z
M -97.6341,-282.869 L -97.9001,-282.903 L -98.1598,-282.969 L -98.4092,-283.068 L -98.6441,-283.197 L -98.8611,-283.355
 L -99.0566,-283.538 L -99.2275,-283.745 L -99.3712,-283.971 L -99.4853,-284.214 L -99.5682,-284.469 L -99.6185,-284.732
 L -99.6353,-285 L -99.6185,-285.268 L -99.5682,-285.531 L -99.4853,-285.786 L -99.3712,-286.029 L -99.2275,-286.255
 L -99.0566,-286.462 L -98.8611,-286.645 L -98.6441,-286.803 L -98.4092,-286.932 L -98.1598,-287.031 L -97.9001,-287.097
 L -97.6341,-287.131 L -97.3659,-287.131 L -97.0999,-287.097 L -96.8401,-287.031 L -96.5908,-286.932 L -96.3559,-286.803
 L -96.1389,-286.645 L -95.9434,-286.462 L -95.7725,-286.255 L -95.6288,-286.029 L -95.5146,-285.786 L -95.4318,-285.531
 L -95.3815,-285.268 L -95.3647,-285 L -95.3815,-284.732 L -95.4318,-284.469 L -95.5146,-284.214 L -95.6288,-283.971
 L -95.7725,-283.745 L -95.9434,-283.538 L -96.1389,-283.355 L -96.3559,-283.197 L -96.5908,-283.068 L -96.8401,-282.969
 L -97.0999,-282.903 L -97.3659,-282.869 z
M 97.3659,-252.869 L 97.0999,-252.903 L 96.8401,-252.969 L 96.5908,-253.068 L 96.3559,-253.197 L 96.1389,-253.355
 L 95.9434,-253.538 L 95.7725,-253.745 L 95.6288,-253.971 L 95.5146,-254.214 L 95.4318,-254.469 L 95.3815,-254.732
 L 95.3647,-255 L 95.3815,-255.268 L 95.4318,-255.531 L 95.5146,-255.786 L 95.6288,-256.029 L 95.7725,-256.255
 L 95.9434,-256.462 L 96.1389,-256.645 L 96.3559,-256.803 L 96.5908,-256.932 L 96.8401,-257.031 L 97.0999,-257.097
 L 97.3659,-257.131 L 97.6341,-257.131 L 97.9001,-257.097 L 98.1598,-257.031 L 98.4092,-256.932 L 98.6441,-256.803
 L 98.8611,-256.645 L 99.0566,-256.462 L 99.2275,-256.255 L 99.3712,-256.029 L 99.4853,-255.786 L 99.5682,-255.531
 L 99.6185,-255.268 L 99.6353,-255 L 99.6185,-254.732 L 99.5682,-254.469 L 99.4853,-254.214 L 99.3712,-253.971
 L 99.2275,-253.745 L 99.0566,-253.538 L 98.8611,-253.355 L 98.6441,-253.197 L 98.4092,-253.068 L 98.1598,-252.969
 L 97.9001,-252.903 L 97.6341,-252.869 z
M -97.6341,-252.869 L -97.9001,-252.903 L -98.1598,-252.969 L -98.4092,-253.068 L -98.6441,-253.197 L -98.8611,-253.355
 L -99.0566,-253.538 L -99.2275,-253.745 L -99.3712,-253.971 L -99.4853,-254.214 L -99.5682,-254.469 L -99.6185,-254.732
 L -99.6353,-255 L -99.6185,-255.268 L -99.5682,-255.531 L -99.4853,-255.786 L -99.3712,-256.029 L -99.2275,-256.255
 L -99.0566,-256.462 L -98.8611,-256.645 L -98.6441,-256.803 L -98.4092,-256.932 L -98.1598,-257.031 L -97.9001,-257.097
 L -97.6341,-257.131 L -97.3659,-257.131 L -97.0999,-257.097 L -96.8401,-257.031 L -96.5908,-256.932 L -96.3559,-256.803
 L -96.1389,-256.645 L -95.9434,-256.462 L -95.7725,-256.255 L -95.6288,-256.029 L -95.5146,-255.786 L -95.4318,-255.531
 L -95.3815,-255.268 L -95.3647,-255 L -95.3815,-254.732 L -95.4318,-254.469 L -95.5146,-254.214 L -95.6288,-253.971
 L -95.7725,-253.745 L -95.9434,-253.538 L -96.1389,-253.355 L -96.3559,-253.197 L -96.5908,-253.068 L -96.8401,-252.969
 L -97.0999,-252.903 L -97.3659,-252.869 z
" stroke="black" fill="lightgray" stroke-width="0.5"/>
</svg>
