<?xml version="1.0" standalone="no"?>
<!DOCTYPE svg PUBLIC "-//W3C//DTD SVG 1.1//EN" "http://www.w3.org/Graphics/SVG/1.1/DTD/svg11.dtd">
<svg width="136mm" height="288mm" viewBox="-68 -441 136 288" xmlns="http://www.w3.org/2000/svg" version="1.1">
<title>OpenSCAD Model</title>
<path d="
M 63.4369,-351.089 L 64.0451,-351.245 L 64.6289,-351.476 L 65.1791,-351.778 L 65.6871,-352.147 L 66.1448,-352.577
 L 66.5451,-353.061 L 66.8815,-353.591 L 67.1489,-354.159 L 67.3429,-354.757 L 67.4606,-355.373 L 67.5,-356
 L 67.5,-436 L 67.4606,-436.627 L 67.3429,-437.243 L 67.1489,-437.841 L 66.8815,-438.409 L 66.5451,-438.939
 L 66.1448,-439.423 L 65.6871,-439.853 L 65.1791,-440.222 L 64.6289,-440.524 L 64.0451,-440.755 L 63.4369,-440.911
 L 62.8139,-440.99 L -62.8139,-440.99 L -63.4369,-440.911 L -64.0451,-440.755 L -64.6289,-440.524 L -65.1791,-440.222
 L -65.6871,-439.853 L -66.1448,-439.423 L -66.5451,-438.939 L -66.8815,-438.409 L -67.1489,-437.841 L -67.3429,-437.243
 L -67.4606,-436.627 L -67.5,-436 L -67.5,-356 L -67.4606,-355.373 L -67.3429,-354.757 L -67.1489,-354.159
 L -66.8815,-353.591 L -66.5451,-353.061 L -66.1448,-352.577 L -65.6871,-352.147 L -65.1791,-351.778 L -64.6289,-351.476
 L -64.0451,-351.245 L -63.4369,-351.089 L -62.8139,-351.01 L 62.8139,-351.01 z
M -62.5482,-351.509 L -63.1401,-351.584 L -63.7178,-351.732 L -64.2724,-351.952 L -64.7952,-352.239 L -65.2778,-352.59
 L -65.7126,-352.998 L -66.0928,-353.458 L -66.4125,-353.962 L -66.6664,-354.501 L -66.8508,-355.069 L -66.9625,-355.655
 L -67,-356.25 L -67,-435.75 L -66.9625,-436.345 L -66.8508,-436.931 L -66.6664,-437.499 L -66.4125,-438.038
 L -66.0928,-438.542 L -65.7126,-439.002 L -65.2778,-439.41 L -64.7952,-439.761 L -64.2724,-440.048 L -63.7178,-440.268
 L -63.1401,-440.416 L -62.5482,-440.491 L 62.5482,-440.491 L 63.1401,-440.416 L 63.7178,-440.268 L 64.2724,-440.048
 L 64.7952,-439.761 L 65.2778,-439.41 L 65.7126,-439.002 L 66.0928,-438.542 L 66.4125,-438.038 L 66.6664,-437.499
 L 66.8508,-436.931 L 66.9625,-436.345 L 67,-435.75 L 67,-356.25 L 66.9625,-355.655 L 66.8508,-355.069
 L 66.6664,-354.501 L 66.4125,-353.962 L 66.0928,-353.458 L 65.7126,-352.998 L 65.2778,-352.59 L 64.7952,-352.239
 L 64.2724,-351.952 L 63.7178,-351.732 L 63.1401,-351.584 L 62.5482,-351.509 z
M 63.4369,-252.089 L 64.0451,-252.245 L 64.6289,-252.476 L 65.1791,-252.778 L 65.6871,-253.147 L 66.1448,-253.577
 L 66.5451,-254.061 L 66.8815,-254.591 L 67.1489,-255.159 L 67.3429,-255.757 L 67.4606,-256.373 L 67.5,-257
 L 67.5,-337 L 67.4606,-337.627 L 67.3429,-338.243 L 67.1489,-338.841 L 66.8815,-339.409 L 66.5451,-339.939
 L 66.1448,-340.423 L 65.6871,-340.853 L 65.1791,-341.222 L 64.6289,-341.524 L 64.0451,-341.755 L 63.4369,-341.911
 L 62.8139,-341.99 L -62.8139,-341.99 L -63.4369,-341.911 L -64.0451,-341.755 L -64.6289,-341.524 L -65.1791,-341.222
 L -65.6871,-340.853 L -66.1448,-340.423 L -66.5451,-339.939 L -66.8815,-339.409 L -67.1489,-338.841 L -67.3429,-338.243
 L -67.4606,-337.627 L -67.5,-337 L -67.5,-257 L -67.4606,-256.373 L -67.3429,-255.757 L -67.1489,-255.159
 L -66.8815,-254.591 L -66.5451,-254.061 L -66.1448,-253.577 L -65.6871,-253.147 L -65.1791,-252.778 L -64.6289,-252.476
 L -64.0451,-252.245 L -63.4369,-252.089 L -62.8139,-252.01 L 62.8139,-252.01 z
M -62.493,-253.388 L -62.9751,-253.449 L -63.4457,-253.57 L -63.8975,-253.749 L -64.3234,-253.983 L -64.7165,-254.269
 L -65.0707,-254.601 L -65.3805,-254.976 L -65.6408,-255.386 L -65.8477,-255.826 L -65.9979,-256.288 L -66.089,-256.765
 L -66.1195,-257.25 L -66.1195,-336.75 L -66.089,-337.235 L -65.9979,-337.712 L -65.8477,-338.174 L -65.6408,-338.614
 L -65.3805,-339.024 L -65.0707,-339.399 L -64.7165,-339.731 L -64.3234,-340.017 L -63.8975,-340.251 L -63.4457,-340.43
 L -62.9751,-340.551 L -62.493,-340.612 L 62.493,-340.612 L 62.9751,-340.551 L 63.4457,-340.43 L 63.8975,-340.251
 L 64.3234,-340.017 L 64.7165,-339.731 L 65.0707,-339.399 L 65.3805,-339.024 L 65.6408,-338.614 L 65.8477,-338.174
 L 65.9979,-337.712 L 66.089,-337.235 L 66.1195,-336.75 L 66.1195,-257.25 L 66.089,-256.765 L 65.9979,-256.288
 L 65.8477,-255.826 L 65.6408,-255.386 L 65.3805,-254.976 L 65.0707,-254.601 L 64.7165,-254.269 L 64.3234,-253.983
 L 63.8975,-253.749 L 63.4457,-253.57 L 62.9751,-253.449 L 62.493,-253.388 z
M 63.4369,-153.089 L 64.0451,-153.245 L 64.6289,-153.476 L 65.1791,-153.778 L 65.6871,-154.147 L 66.1448,-154.577
 L 66.5451,-155.061 L 66.8815,-155.591 L 67.1489,-156.159 L 67.3429,-156.757 L 67.4606,-157.373 L 67.5,-158
 L 67.5,-238 L 67.4606,-238.627 L 67.3429,-239.243 L 67.1489,-239.841 L 66.8815,-240.409 L 66.5451,-240.939
 L 66.1448,-241.423 L 65.6871,-241.853 L 65.1791,-242.222 L 64.6289,-242.524 L 64.0451,-242.755 L 63.4369,-242.911
 L 62.8139,-242.99 L -62.8139,-242.99 L -63.4369,-242.911 L -64.0451,-242.755 L -64.6289,-242.524 L -65.1791,-242.222
 L -65.6871,-241.853 L -66.1448,-241.423 L -66.5451,-240.939 L -66.8815,-240.409 L -67.1489,-239.841 L -67.3429,-239.243
 L -67.4606,-238.627 L -67.5,-238 L -67.5,-158 L -67.4606,-157.373 L -67.3429,-156.757 L -67.1489,-156.159
 L -66.8815,-155.591 L -66.5451,-155.061 L -66.1448,-154.577 L -65.6871,-154.147 L -65.1791,-153.778 L -64.6289,-153.476
 L -64.0451,-153.245 L -63.4369,-153.089 L -62.8139,-153.01 L 62.8139,-153.01 z
M 59.887,-233.704 L 59.6627,-233.732 L 59.4438,-233.788 L 59.2336,-233.871 L 59.0355,-233.98 L 58.8526,-234.113
 L 58.6879,-234.268 L 58.5438,-234.442 L 58.4226,-234.633 L 58.3264,-234.837 L 58.2565,-235.052 L 58.2142,-235.274
 L 58.2,-235.5 L 58.2142,-235.726 L 58.2565,-235.948 L 58.3264,-236.163 L 58.4226,-236.367 L 58.5438,-236.558
 L 58.6879,-236.732 L 58.8526,-236.887 L 59.0355,-237.02 L 59.2336,-237.129 L 59.4438,-237.212 L 59.6627,-237.268
 L 59.887,-237.296 L 60.113,-237.296 L 60.3373,-237.268 L 60.5562,-237.212 L 60.7664,-237.129 L 60.9645,-237.02
 L 61.1474,-236.887 L 61.3121,-236.732 L 61.4562,-236.558 L 61.5773,-236.367 L 61.6736,-236.163 L 61.7434,-235.948
 L 61.7858,-235.726 L 61.8,-235.5 L 61.7858,-235.274 L 61.7434,-235.052 L 61.6736,-234.837 L 61.5773,-234.633
 L 61.4562,-234.442 L 61.3121,-234.268 L 61.1474,-234.113 L 60.9645,-233.98 L 60.7664,-233.871 L 60.5562,-233.788
 L 60.3373,-233.732 L 60.113,-233.704 z
M -60.113,-233.704 L -60.3373,-233.732 L -60.5562,-233.788 L -60.7664,-233.871 L -60.9645,-233.98 L -61.1474,-234.113
 L -61.3121,-234.268 L -61.4562,-234.442 L -61.5773,-234.633 L -61.6736,-234.837 L -61.7434,-235.052 L -61.7858,-235.274
 L -61.8,-235.5 L -61.7858,-235.726 L -61.7434,-235.948 L -61.6736,-236.163 L -61.5773,-236.367 L -61.4562,-236.558
 L -61.3121,-236.732 L -61.1474,-236.887 L -60.9645,-237.02 L -60.7664,-237.129 L -60.5562,-237.212 L -60.3373,-237.268
 L -60.113,-237.296 L -59.887,-237.296 L -59.6627,-237.268 L -59.4438,-237.212 L -59.2336,-237.129 L -59.0355,-237.02
 L -58.8526,-236.887 L -58.6879,-236.732 L -58.5438,-236.558 L -58.4226,-236.367 L -58.3264,-236.163 L -58.2565,-235.948
 L -58.2142,-235.726 L -58.2,-235.5 L -58.2142,-235.274 L -58.2565,-235.052 L -58.3264,-234.837 L -58.4226,-234.633
 L -58.5438,-234.442 L -58.6879,-234.268 L -58.8526,-234.113 L -59.0355,-233.98 L -59.2336,-233.871 L -59.4438,-233.788
 L -59.6627,-233.732 L -59.887,-233.704 z
M -60.113,-158.704 L -60.3373,-158.732 L -60.5562,-158.788 L -60.7664,-158.871 L -60.9645,-158.98 L -61.1474,-159.113
 L -61.3121,-159.268 L -61.4562,-159.442 L -61.5773,-159.633 L -61.6736,-159.837 L -61.7434,-160.052 L -61.7858,-160.274
 L -61.8,-160.5 L -61.7858,-160.726 L -61.7434,-160.948 L -61.6736,-161.163 L -61.5773,-161.367 L -61.4562,-161.558
 L -61.3121,-161.732 L -61.1474,-161.887 L -60.9645,-162.02 L -60.7664,-162.129 L -60.5562,-162.212 L -60.3373,-162.268
 L -60.113,-162.296 L -59.887,-162.296 L -59.6627,-162.268 L -59.4438,-162.212 L -59.2336,-162.129 L -59.0355,-162.02
 L -58.8526,-161.887 L -58.6879,-161.732 L -58.5438,-161.558 L -58.4226,-161.367 L -58.3264,-161.163 L -58.2565,-160.948
 L -58.2142,-160.726 L -58.2,-160.5 L -58.2142,-160.274 L -58.2565,-160.052 L -58.3264,-159.837 L -58.4226,-159.633
 L -58.5438,-159.442 L -58.6879,-159.268 L -58.8526,-159.113 L -59.0355,-158.98 L -59.2336,-158.871 L -59.4438,-158.788
 L -59.6627,-158.732 L -59.887,-158.704 z
M 59.887,-158.704 L 59.6627,-158.732 L 59.4438,-158.788 L 59.2336,-158.871 L 59.0355,-158.98 L 58.8526,-159.113
 L 58.6879,-159.268 L 58.5438,-159.442 L 58.4226,-159.633 L 58.3264,-159.837 L 58.2565,-160.052 L 58.2142,-160.274
 L 58.2,-160.5 L 58.2142,-160.726 L 58.2565,-160.948 L 58.3264,-161.163 L 58.4226,-161.367 L 58.5438,-161.558
 L 58.6879,-161.732 L 58.8526,-161.887 L 59.0355,-162.02 L 59.2336,-162.129 L 59.4438,-162.212 L 59.6627,-162.268
 L 59.887,-162.296 L 60.113,-162.296 L 60.3373,-162.268 L 60.5562,-162.212 L 60.7664,-162.129 L 60.9645,-162.02
 L 61.1474,-161.887 L 61.3121,-161.732 L 61.4562,-161.558 L 61.5773,-161.367 L 61.6736,-161.163 L 61.7434,-160.948
 L 61.7858,-160.726 L 61.8,-160.5 L 61.7858,-160.274 L 61.7434,-160.052 L 61.6736,-159.837 L 61.5773,-159.633
 L 61.4562,-159.442 L 61.3121,-159.268 L 61.1474,-159.113 L 60.9645,-158.98 L 60.7664,-158.871 L 60.5562,-158.788
 L 60.3373,-158.732 L 60.113,-158.704 z
" stroke="black" fill="lightgray" stroke-width="0.5"/>
</svg>
