  0
SECTION
  2
BLOCKS
  0
ENDSEC
  0
SECTION
  2
ENTITIES
  0
LINE
  8
0
 10
55.9369
 20
184.589
 11
56.5451
 21
184.745
  0
LINE
  8
0
 10
56.5451
 20
184.745
 11
57.1289
 21
184.976
  0
LINE
  8
0
 10
57.1289
 20
184.976
 11
57.6791
 21
185.278
  0
LINE
  8
0
 10
57.6791
 20
185.278
 11
58.1871
 21
185.647
  0
LINE
  8
0
 10
58.1871
 20
185.647
 11
58.6448
 21
186.077
  0
LINE
  8
0
 10
58.6448
 20
186.077
 11
59.0451
 21
186.561
  0
LINE
  8
0
 10
59.0451
 20
186.561
 11
59.3815
 21
187.091
  0
LINE
  8
0
 10
59.3815
 20
187.091
 11
59.6489
 21
187.659
  0
LINE
  8
0
 10
59.6489
 20
187.659
 11
59.8429
 21
188.257
  0
LINE
  8
0
 10
59.8429
 20
188.257
 11
59.9606
 21
188.873
  0
LINE
  8
0
 10
59.9606
 20
188.873
 11
60
 21
189.5
  0
LINE
  8
0
 10
60
 20
189.5
 11
60
 21
194.5
  0
LINE
  8
0
 10
60
 20
194.5
 11
59.9606
 21
195.127
  0
LINE
  8
0
 10
59.9606
 20
195.127
 11
59.8429
 21
195.743
  0
LINE
  8
0
 10
59.8429
 20
195.743
 11
59.6489
 21
196.341
  0
LINE
  8
0
 10
59.6489
 20
196.341
 11
59.3815
 21
196.909
  0
LINE
  8
0
 10
59.3815
 20
196.909
 11
59.0451
 21
197.439
  0
LINE
  8
0
 10
59.0451
 20
197.439
 11
58.6448
 21
197.923
  0
LINE
  8
0
 10
58.6448
 20
197.923
 11
58.1871
 21
198.353
  0
LINE
  8
0
 10
58.1871
 20
198.353
 11
57.6791
 21
198.722
  0
LINE
  8
0
 10
57.6791
 20
198.722
 11
57.1289
 21
199.024
  0
LINE
  8
0
 10
57.1289
 20
199.024
 11
56.5451
 21
199.255
  0
LINE
  8
0
 10
56.5451
 20
199.255
 11
55.9369
 21
199.411
  0
LINE
  8
0
 10
55.9369
 20
199.411
 11
55.3139
 21
199.49
  0
LINE
  8
0
 10
55.3139
 20
199.49
 11
-55.3139
 21
199.49
  0
LINE
  8
0
 10
-55.3139
 20
199.49
 11
-55.9369
 21
199.411
  0
LINE
  8
0
 10
-55.9369
 20
199.411
 11
-56.5451
 21
199.255
  0
LINE
  8
0
 10
-56.5451
 20
199.255
 11
-57.1289
 21
199.024
  0
LINE
  8
0
 10
-57.1289
 20
199.024
 11
-57.6791
 21
198.722
  0
LINE
  8
0
 10
-57.6791
 20
198.722
 11
-58.1871
 21
198.353
  0
LINE
  8
0
 10
-58.1871
 20
198.353
 11
-58.6448
 21
197.923
  0
LINE
  8
0
 10
-58.6448
 20
197.923
 11
-59.0451
 21
197.439
  0
LINE
  8
0
 10
-59.0451
 20
197.439
 11
-59.3815
 21
196.909
  0
LINE
  8
0
 10
-59.3815
 20
196.909
 11
-59.6489
 21
196.341
  0
LINE
  8
0
 10
-59.6489
 20
196.341
 11
-59.8429
 21
195.743
  0
LINE
  8
0
 10
-59.8429
 20
195.743
 11
-59.9
 21
195.444
  0
LINE
  8
0
 10
-59.9
 20
195.444
 11
-60
 21
195.444
  0
LINE
  8
0
 10
-60
 20
195.444
 11
-60
 21
188.556
  0
LINE
  8
0
 10
-60
 20
188.556
 11
-59.9
 21
188.556
  0
LINE
  8
0
 10
-59.9
 20
188.556
 11
-59.8429
 21
188.257
  0
LINE
  8
0
 10
-59.8429
 20
188.257
 11
-59.6489
 21
187.659
  0
LINE
  8
0
 10
-59.6489
 20
187.659
 11
-59.3815
 21
187.091
  0
LINE
  8
0
 10
-59.3815
 20
187.091
 11
-59.0451
 21
186.561
  0
LINE
  8
0
 10
-59.0451
 20
186.561
 11
-58.6448
 21
186.077
  0
LINE
  8
0
 10
-58.6448
 20
186.077
 11
-58.1871
 21
185.647
  0
LINE
  8
0
 10
-58.1871
 20
185.647
 11
-57.6791
 21
185.278
  0
LINE
  8
0
 10
-57.6791
 20
185.278
 11
-57.1289
 21
184.976
  0
LINE
  8
0
 10
-57.1289
 20
184.976
 11
-56.5451
 21
184.745
  0
LINE
  8
0
 10
-56.5451
 20
184.745
 11
-55.9369
 21
184.589
  0
LINE
  8
0
 10
-55.9369
 20
184.589
 11
-55.3139
 21
184.51
  0
LINE
  8
0
 10
-55.3139
 20
184.51
 11
55.3139
 21
184.51
  0
LINE
  8
0
 10
55.3139
 20
184.51
 11
55.9369
 21
184.589
  0
LINE
  8
0
 10
-54.7512
 20
186.008
 11
-55.2495
 21
186.071
  0
LINE
  8
0
 10
-55.2495
 20
186.071
 11
-55.7361
 21
186.196
  0
LINE
  8
0
 10
-55.7361
 20
186.196
 11
-56.2031
 21
186.381
  0
LINE
  8
0
 10
-56.2031
 20
186.381
 11
-56.6433
 21
186.623
  0
LINE
  8
0
 10
-56.6433
 20
186.623
 11
-57.0497
 21
186.918
  0
LINE
  8
0
 10
-57.0497
 20
186.918
 11
-57.4159
 21
187.262
  0
LINE
  8
0
 10
-57.4159
 20
187.262
 11
-57.7361
 21
187.649
  0
LINE
  8
0
 10
-57.7361
 20
187.649
 11
-58.0052
 21
188.073
  0
LINE
  8
0
 10
-58.0052
 20
188.073
 11
-58.2191
 21
188.528
  0
LINE
  8
0
 10
-58.2191
 20
188.528
 11
-58.3743
 21
189.005
  0
LINE
  8
0
 10
-58.3743
 20
189.005
 11
-58.4685
 21
189.499
  0
LINE
  8
0
 10
-58.4685
 20
189.499
 11
-58.5
 21
190
  0
LINE
  8
0
 10
-58.5
 20
190
 11
-58.5
 21
194
  0
LINE
  8
0
 10
-58.5
 20
194
 11
-58.4685
 21
194.501
  0
LINE
  8
0
 10
-58.4685
 20
194.501
 11
-58.3743
 21
194.995
  0
LINE
  8
0
 10
-58.3743
 20
194.995
 11
-58.2191
 21
195.472
  0
LINE
  8
0
 10
-58.2191
 20
195.472
 11
-58.0052
 21
195.927
  0
LINE
  8
0
 10
-58.0052
 20
195.927
 11
-57.7361
 21
196.351
  0
LINE
  8
0
 10
-57.7361
 20
196.351
 11
-57.4159
 21
196.738
  0
LINE
  8
0
 10
-57.4159
 20
196.738
 11
-57.0497
 21
197.082
  0
LINE
  8
0
 10
-57.0497
 20
197.082
 11
-56.6433
 21
197.377
  0
LINE
  8
0
 10
-56.6433
 20
197.377
 11
-56.2031
 21
197.619
  0
LINE
  8
0
 10
-56.2031
 20
197.619
 11
-55.7361
 21
197.804
  0
LINE
  8
0
 10
-55.7361
 20
197.804
 11
-55.2495
 21
197.929
  0
LINE
  8
0
 10
-55.2495
 20
197.929
 11
-54.7512
 21
197.992
  0
LINE
  8
0
 10
-54.7512
 20
197.992
 11
54.7512
 21
197.992
  0
LINE
  8
0
 10
54.7512
 20
197.992
 11
55.2495
 21
197.929
  0
LINE
  8
0
 10
55.2495
 20
197.929
 11
55.7361
 21
197.804
  0
LINE
  8
0
 10
55.7361
 20
197.804
 11
56.2031
 21
197.619
  0
LINE
  8
0
 10
56.2031
 20
197.619
 11
56.6433
 21
197.377
  0
LINE
  8
0
 10
56.6433
 20
197.377
 11
57.0497
 21
197.082
  0
LINE
  8
0
 10
57.0497
 20
197.082
 11
57.4159
 21
196.738
  0
LINE
  8
0
 10
57.4159
 20
196.738
 11
57.7361
 21
196.351
  0
LINE
  8
0
 10
57.7361
 20
196.351
 11
58.0052
 21
195.927
  0
LINE
  8
0
 10
58.0052
 20
195.927
 11
58.2191
 21
195.472
  0
LINE
  8
0
 10
58.2191
 20
195.472
 11
58.3743
 21
194.995
  0
LINE
  8
0
 10
58.3743
 20
194.995
 11
58.4685
 21
194.501
  0
LINE
  8
0
 10
58.4685
 20
194.501
 11
58.5
 21
194
  0
LINE
  8
0
 10
58.5
 20
194
 11
58.5
 21
190
  0
LINE
  8
0
 10
58.5
 20
190
 11
58.4685
 21
189.499
  0
LINE
  8
0
 10
58.4685
 20
189.499
 11
58.3743
 21
189.005
  0
LINE
  8
0
 10
58.3743
 20
189.005
 11
58.2191
 21
188.528
  0
LINE
  8
0
 10
58.2191
 20
188.528
 11
58.0052
 21
188.073
  0
LINE
  8
0
 10
58.0052
 20
188.073
 11
57.7361
 21
187.649
  0
LINE
  8
0
 10
57.7361
 20
187.649
 11
57.4159
 21
187.262
  0
LINE
  8
0
 10
57.4159
 20
187.262
 11
57.0497
 21
186.918
  0
LINE
  8
0
 10
57.0497
 20
186.918
 11
56.6433
 21
186.623
  0
LINE
  8
0
 10
56.6433
 20
186.623
 11
56.2031
 21
186.381
  0
LINE
  8
0
 10
56.2031
 20
186.381
 11
55.7361
 21
186.196
  0
LINE
  8
0
 10
55.7361
 20
186.196
 11
55.2495
 21
186.071
  0
LINE
  8
0
 10
55.2495
 20
186.071
 11
54.7512
 21
186.008
  0
LINE
  8
0
 10
54.7512
 20
186.008
 11
-54.7512
 21
186.008
  0
LINE
  8
0
 10
55.9369
 20
160.589
 11
56.5451
 21
160.745
  0
LINE
  8
0
 10
56.5451
 20
160.745
 11
57.1289
 21
160.976
  0
LINE
  8
0
 10
57.1289
 20
160.976
 11
57.6791
 21
161.278
  0
LINE
  8
0
 10
57.6791
 20
161.278
 11
58.1871
 21
161.647
  0
LINE
  8
0
 10
58.1871
 20
161.647
 11
58.6448
 21
162.077
  0
LINE
  8
0
 10
58.6448
 20
162.077
 11
59.0451
 21
162.561
  0
LINE
  8
0
 10
59.0451
 20
162.561
 11
59.3815
 21
163.091
  0
LINE
  8
0
 10
59.3815
 20
163.091
 11
59.6489
 21
163.659
  0
LINE
  8
0
 10
59.6489
 20
163.659
 11
59.8429
 21
164.257
  0
LINE
  8
0
 10
59.8429
 20
164.257
 11
59.9606
 21
164.873
  0
LINE
  8
0
 10
59.9606
 20
164.873
 11
60
 21
165.5
  0
LINE
  8
0
 10
60
 20
165.5
 11
60
 21
170.5
  0
LINE
  8
0
 10
60
 20
170.5
 11
59.9606
 21
171.127
  0
LINE
  8
0
 10
59.9606
 20
171.127
 11
59.8429
 21
171.743
  0
LINE
  8
0
 10
59.8429
 20
171.743
 11
59.6489
 21
172.341
  0
LINE
  8
0
 10
59.6489
 20
172.341
 11
59.3815
 21
172.909
  0
LINE
  8
0
 10
59.3815
 20
172.909
 11
59.0451
 21
173.439
  0
LINE
  8
0
 10
59.0451
 20
173.439
 11
58.6448
 21
173.923
  0
LINE
  8
0
 10
58.6448
 20
173.923
 11
58.1871
 21
174.353
  0
LINE
  8
0
 10
58.1871
 20
174.353
 11
57.6791
 21
174.722
  0
LINE
  8
0
 10
57.6791
 20
174.722
 11
57.1289
 21
175.024
  0
LINE
  8
0
 10
57.1289
 20
175.024
 11
56.5451
 21
175.255
  0
LINE
  8
0
 10
56.5451
 20
175.255
 11
55.9369
 21
175.411
  0
LINE
  8
0
 10
55.9369
 20
175.411
 11
55.3139
 21
175.49
  0
LINE
  8
0
 10
55.3139
 20
175.49
 11
-55.3139
 21
175.49
  0
LINE
  8
0
 10
-55.3139
 20
175.49
 11
-55.9369
 21
175.411
  0
LINE
  8
0
 10
-55.9369
 20
175.411
 11
-56.5451
 21
175.255
  0
LINE
  8
0
 10
-56.5451
 20
175.255
 11
-57.1289
 21
175.024
  0
LINE
  8
0
 10
-57.1289
 20
175.024
 11
-57.6791
 21
174.722
  0
LINE
  8
0
 10
-57.6791
 20
174.722
 11
-58.1871
 21
174.353
  0
LINE
  8
0
 10
-58.1871
 20
174.353
 11
-58.6448
 21
173.923
  0
LINE
  8
0
 10
-58.6448
 20
173.923
 11
-59.0451
 21
173.439
  0
LINE
  8
0
 10
-59.0451
 20
173.439
 11
-59.3815
 21
172.909
  0
LINE
  8
0
 10
-59.3815
 20
172.909
 11
-59.6489
 21
172.341
  0
LINE
  8
0
 10
-59.6489
 20
172.341
 11
-59.8429
 21
171.743
  0
LINE
  8
0
 10
-59.8429
 20
171.743
 11
-59.9606
 21
171.127
  0
LINE
  8
0
 10
-59.9606
 20
171.127
 11
-60
 21
170.5
  0
LINE
  8
0
 10
-60
 20
170.5
 11
-60
 21
165.5
  0
LINE
  8
0
 10
-60
 20
165.5
 11
-59.9606
 21
164.873
  0
LINE
  8
0
 10
-59.9606
 20
164.873
 11
-59.8429
 21
164.257
  0
LINE
  8
0
 10
-59.8429
 20
164.257
 11
-59.6489
 21
163.659
  0
LINE
  8
0
 10
-59.6489
 20
163.659
 11
-59.3815
 21
163.091
  0
LINE
  8
0
 10
-59.3815
 20
163.091
 11
-59.0451
 21
162.561
  0
LINE
  8
0
 10
-59.0451
 20
162.561
 11
-58.6448
 21
162.077
  0
LINE
  8
0
 10
-58.6448
 20
162.077
 11
-58.1871
 21
161.647
  0
LINE
  8
0
 10
-58.1871
 20
161.647
 11
-57.6791
 21
161.278
  0
LINE
  8
0
 10
-57.6791
 20
161.278
 11
-57.1289
 21
160.976
  0
LINE
  8
0
 10
-57.1289
 20
160.976
 11
-56.5451
 21
160.745
  0
LINE
  8
0
 10
-56.5451
 20
160.745
 11
-55.9369
 21
160.589
  0
LINE
  8
0
 10
-55.9369
 20
160.589
 11
-55.3139
 21
160.51
  0
LINE
  8
0
 10
-55.3139
 20
160.51
 11
55.3139
 21
160.51
  0
LINE
  8
0
 10
55.3139
 20
160.51
 11
55.9369
 21
160.589
  0
LINE
  8
0
 10
-54.7512
 20
162.008
 11
-55.2495
 21
162.071
  0
LINE
  8
0
 10
-55.2495
 20
162.071
 11
-55.7361
 21
162.196
  0
LINE
  8
0
 10
-55.7361
 20
162.196
 11
-56.2031
 21
162.381
  0
LINE
  8
0
 10
-56.2031
 20
162.381
 11
-56.6433
 21
162.623
  0
LINE
  8
0
 10
-56.6433
 20
162.623
 11
-57.0497
 21
162.918
  0
LINE
  8
0
 10
-57.0497
 20
162.918
 11
-57.4159
 21
163.262
  0
LINE
  8
0
 10
-57.4159
 20
163.262
 11
-57.7361
 21
163.649
  0
LINE
  8
0
 10
-57.7361
 20
163.649
 11
-58.0052
 21
164.073
  0
LINE
  8
0
 10
-58.0052
 20
164.073
 11
-58.2191
 21
164.528
  0
LINE
  8
0
 10
-58.2191
 20
164.528
 11
-58.3743
 21
165.005
  0
LINE
  8
0
 10
-58.3743
 20
165.005
 11
-58.4685
 21
165.499
  0
LINE
  8
0
 10
-58.4685
 20
165.499
 11
-58.5
 21
166
  0
LINE
  8
0
 10
-58.5
 20
166
 11
-58.5
 21
170
  0
LINE
  8
0
 10
-58.5
 20
170
 11
-58.4685
 21
170.501
  0
LINE
  8
0
 10
-58.4685
 20
170.501
 11
-58.3743
 21
170.995
  0
LINE
  8
0
 10
-58.3743
 20
170.995
 11
-58.2191
 21
171.472
  0
LINE
  8
0
 10
-58.2191
 20
171.472
 11
-58.0052
 21
171.927
  0
LINE
  8
0
 10
-58.0052
 20
171.927
 11
-57.7361
 21
172.351
  0
LINE
  8
0
 10
-57.7361
 20
172.351
 11
-57.4159
 21
172.738
  0
LINE
  8
0
 10
-57.4159
 20
172.738
 11
-57.0497
 21
173.082
  0
LINE
  8
0
 10
-57.0497
 20
173.082
 11
-56.6433
 21
173.377
  0
LINE
  8
0
 10
-56.6433
 20
173.377
 11
-56.2031
 21
173.619
  0
LINE
  8
0
 10
-56.2031
 20
173.619
 11
-55.7361
 21
173.804
  0
LINE
  8
0
 10
-55.7361
 20
173.804
 11
-55.2495
 21
173.929
  0
LINE
  8
0
 10
-55.2495
 20
173.929
 11
-54.7512
 21
173.992
  0
LINE
  8
0
 10
-54.7512
 20
173.992
 11
54.7512
 21
173.992
  0
LINE
  8
0
 10
54.7512
 20
173.992
 11
55.2495
 21
173.929
  0
LINE
  8
0
 10
55.2495
 20
173.929
 11
55.7361
 21
173.804
  0
LINE
  8
0
 10
55.7361
 20
173.804
 11
56.2031
 21
173.619
  0
LINE
  8
0
 10
56.2031
 20
173.619
 11
56.6433
 21
173.377
  0
LINE
  8
0
 10
56.6433
 20
173.377
 11
57.0497
 21
173.082
  0
LINE
  8
0
 10
57.0497
 20
173.082
 11
57.4159
 21
172.738
  0
LINE
  8
0
 10
57.4159
 20
172.738
 11
57.7361
 21
172.351
  0
LINE
  8
0
 10
57.7361
 20
172.351
 11
58.0052
 21
171.927
  0
LINE
  8
0
 10
58.0052
 20
171.927
 11
58.2191
 21
171.472
  0
LINE
  8
0
 10
58.2191
 20
171.472
 11
58.3743
 21
170.995
  0
LINE
  8
0
 10
58.3743
 20
170.995
 11
58.4685
 21
170.501
  0
LINE
  8
0
 10
58.4685
 20
170.501
 11
58.5
 21
170
  0
LINE
  8
0
 10
58.5
 20
170
 11
58.5
 21
166
  0
LINE
  8
0
 10
58.5
 20
166
 11
58.4685
 21
165.499
  0
LINE
  8
0
 10
58.4685
 20
165.499
 11
58.3743
 21
165.005
  0
LINE
  8
0
 10
58.3743
 20
165.005
 11
58.2191
 21
164.528
  0
LINE
  8
0
 10
58.2191
 20
164.528
 11
58.0052
 21
164.073
  0
LINE
  8
0
 10
58.0052
 20
164.073
 11
57.7361
 21
163.649
  0
LINE
  8
0
 10
57.7361
 20
163.649
 11
57.4159
 21
163.262
  0
LINE
  8
0
 10
57.4159
 20
163.262
 11
57.0497
 21
162.918
  0
LINE
  8
0
 10
57.0497
 20
162.918
 11
56.6433
 21
162.623
  0
LINE
  8
0
 10
56.6433
 20
162.623
 11
56.2031
 21
162.381
  0
LINE
  8
0
 10
56.2031
 20
162.381
 11
55.7361
 21
162.196
  0
LINE
  8
0
 10
55.7361
 20
162.196
 11
55.2495
 21
162.071
  0
LINE
  8
0
 10
55.2495
 20
162.071
 11
54.7512
 21
162.008
  0
LINE
  8
0
 10
54.7512
 20
162.008
 11
-54.7512
 21
162.008
  0
LINE
  8
0
 10
55.9369
 20
136.589
 11
56.5451
 21
136.745
  0
LINE
  8
0
 10
56.5451
 20
136.745
 11
57.1289
 21
136.976
  0
LINE
  8
0
 10
57.1289
 20
136.976
 11
57.6791
 21
137.278
  0
LINE
  8
0
 10
57.6791
 20
137.278
 11
58.1871
 21
137.647
  0
LINE
  8
0
 10
58.1871
 20
137.647
 11
58.6448
 21
138.077
  0
LINE
  8
0
 10
58.6448
 20
138.077
 11
59.0451
 21
138.561
  0
LINE
  8
0
 10
59.0451
 20
138.561
 11
59.3815
 21
139.091
  0
LINE
  8
0
 10
59.3815
 20
139.091
 11
59.6489
 21
139.659
  0
LINE
  8
0
 10
59.6489
 20
139.659
 11
59.8429
 21
140.257
  0
LINE
  8
0
 10
59.8429
 20
140.257
 11
59.9606
 21
140.873
  0
LINE
  8
0
 10
59.9606
 20
140.873
 11
60
 21
141.5
  0
LINE
  8
0
 10
60
 20
141.5
 11
60
 21
146.5
  0
LINE
  8
0
 10
60
 20
146.5
 11
59.9606
 21
147.127
  0
LINE
  8
0
 10
59.9606
 20
147.127
 11
59.8429
 21
147.743
  0
LINE
  8
0
 10
59.8429
 20
147.743
 11
59.6489
 21
148.341
  0
LINE
  8
0
 10
59.6489
 20
148.341
 11
59.3815
 21
148.909
  0
LINE
  8
0
 10
59.3815
 20
148.909
 11
59.0451
 21
149.439
  0
LINE
  8
0
 10
59.0451
 20
149.439
 11
58.6448
 21
149.923
  0
LINE
  8
0
 10
58.6448
 20
149.923
 11
58.1871
 21
150.353
  0
LINE
  8
0
 10
58.1871
 20
150.353
 11
57.6791
 21
150.722
  0
LINE
  8
0
 10
57.6791
 20
150.722
 11
57.1289
 21
151.024
  0
LINE
  8
0
 10
57.1289
 20
151.024
 11
56.5451
 21
151.255
  0
LINE
  8
0
 10
56.5451
 20
151.255
 11
55.9369
 21
151.411
  0
LINE
  8
0
 10
55.9369
 20
151.411
 11
55.3139
 21
151.49
  0
LINE
  8
0
 10
55.3139
 20
151.49
 11
-55.3139
 21
151.49
  0
LINE
  8
0
 10
-55.3139
 20
151.49
 11
-55.9369
 21
151.411
  0
LINE
  8
0
 10
-55.9369
 20
151.411
 11
-56.5451
 21
151.255
  0
LINE
  8
0
 10
-56.5451
 20
151.255
 11
-57.1289
 21
151.024
  0
LINE
  8
0
 10
-57.1289
 20
151.024
 11
-57.6791
 21
150.722
  0
LINE
  8
0
 10
-57.6791
 20
150.722
 11
-58.1871
 21
150.353
  0
LINE
  8
0
 10
-58.1871
 20
150.353
 11
-58.6448
 21
149.923
  0
LINE
  8
0
 10
-58.6448
 20
149.923
 11
-59.0451
 21
149.439
  0
LINE
  8
0
 10
-59.0451
 20
149.439
 11
-59.3815
 21
148.909
  0
LINE
  8
0
 10
-59.3815
 20
148.909
 11
-59.6489
 21
148.341
  0
LINE
  8
0
 10
-59.6489
 20
148.341
 11
-59.8429
 21
147.743
  0
LINE
  8
0
 10
-59.8429
 20
147.743
 11
-59.9606
 21
147.127
  0
LINE
  8
0
 10
-59.9606
 20
147.127
 11
-60
 21
146.5
  0
LINE
  8
0
 10
-60
 20
146.5
 11
-60
 21
141.5
  0
LINE
  8
0
 10
-60
 20
141.5
 11
-59.9606
 21
140.873
  0
LINE
  8
0
 10
-59.9606
 20
140.873
 11
-59.8429
 21
140.257
  0
LINE
  8
0
 10
-59.8429
 20
140.257
 11
-59.6489
 21
139.659
  0
LINE
  8
0
 10
-59.6489
 20
139.659
 11
-59.3815
 21
139.091
  0
LINE
  8
0
 10
-59.3815
 20
139.091
 11
-59.0451
 21
138.561
  0
LINE
  8
0
 10
-59.0451
 20
138.561
 11
-58.6448
 21
138.077
  0
LINE
  8
0
 10
-58.6448
 20
138.077
 11
-58.1871
 21
137.647
  0
LINE
  8
0
 10
-58.1871
 20
137.647
 11
-57.6791
 21
137.278
  0
LINE
  8
0
 10
-57.6791
 20
137.278
 11
-57.1289
 21
136.976
  0
LINE
  8
0
 10
-57.1289
 20
136.976
 11
-56.5451
 21
136.745
  0
LINE
  8
0
 10
-56.5451
 20
136.745
 11
-55.9369
 21
136.589
  0
LINE
  8
0
 10
-55.9369
 20
136.589
 11
-55.3139
 21
136.51
  0
LINE
  8
0
 10
-55.3139
 20
136.51
 11
55.3139
 21
136.51
  0
LINE
  8
0
 10
55.3139
 20
136.51
 11
55.9369
 21
136.589
  0
LINE
  8
0
 10
-54.7432
 20
138.135
 11
-55.2256
 21
138.196
  0
LINE
  8
0
 10
-55.2256
 20
138.196
 11
-55.6967
 21
138.317
  0
LINE
  8
0
 10
-55.6967
 20
138.317
 11
-56.1489
 21
138.496
  0
LINE
  8
0
 10
-56.1489
 20
138.496
 11
-56.5751
 21
138.73
  0
LINE
  8
0
 10
-56.5751
 20
138.73
 11
-56.9685
 21
139.016
  0
LINE
  8
0
 10
-56.9685
 20
139.016
 11
-57.323
 21
139.349
  0
LINE
  8
0
 10
-57.323
 20
139.349
 11
-57.633
 21
139.724
  0
LINE
  8
0
 10
-57.633
 20
139.724
 11
-57.8936
 21
140.134
  0
LINE
  8
0
 10
-57.8936
 20
140.134
 11
-58.1007
 21
140.574
  0
LINE
  8
0
 10
-58.1007
 20
140.574
 11
-58.251
 21
141.037
  0
LINE
  8
0
 10
-58.251
 20
141.037
 11
-58.3421
 21
141.515
  0
LINE
  8
0
 10
-58.3421
 20
141.515
 11
-58.3726
 21
142
  0
LINE
  8
0
 10
-58.3726
 20
142
 11
-58.3726
 21
146
  0
LINE
  8
0
 10
-58.3726
 20
146
 11
-58.3421
 21
146.485
  0
LINE
  8
0
 10
-58.3421
 20
146.485
 11
-58.251
 21
146.963
  0
LINE
  8
0
 10
-58.251
 20
146.963
 11
-58.1007
 21
147.426
  0
LINE
  8
0
 10
-58.1007
 20
147.426
 11
-57.8936
 21
147.866
  0
LINE
  8
0
 10
-57.8936
 20
147.866
 11
-57.633
 21
148.276
  0
LINE
  8
0
 10
-57.633
 20
148.276
 11
-57.323
 21
148.651
  0
LINE
  8
0
 10
-57.323
 20
148.651
 11
-56.9685
 21
148.984
  0
LINE
  8
0
 10
-56.9685
 20
148.984
 11
-56.5751
 21
149.27
  0
LINE
  8
0
 10
-56.5751
 20
149.27
 11
-56.1489
 21
149.504
  0
LINE
  8
0
 10
-56.1489
 20
149.504
 11
-55.6967
 21
149.683
  0
LINE
  8
0
 10
-55.6967
 20
149.683
 11
-55.2256
 21
149.804
  0
LINE
  8
0
 10
-55.2256
 20
149.804
 11
-54.7432
 21
149.865
  0
LINE
  8
0
 10
-54.7432
 20
149.865
 11
54.7432
 21
149.865
  0
LINE
  8
0
 10
54.7432
 20
149.865
 11
55.2256
 21
149.804
  0
LINE
  8
0
 10
55.2256
 20
149.804
 11
55.6967
 21
149.683
  0
LINE
  8
0
 10
55.6967
 20
149.683
 11
56.1489
 21
149.504
  0
LINE
  8
0
 10
56.1489
 20
149.504
 11
56.5751
 21
149.27
  0
LINE
  8
0
 10
56.5751
 20
149.27
 11
56.9685
 21
148.984
  0
LINE
  8
0
 10
56.9685
 20
148.984
 11
57.323
 21
148.651
  0
LINE
  8
0
 10
57.323
 20
148.651
 11
57.633
 21
148.276
  0
LINE
  8
0
 10
57.633
 20
148.276
 11
57.8936
 21
147.866
  0
LINE
  8
0
 10
57.8936
 20
147.866
 11
58.1007
 21
147.426
  0
LINE
  8
0
 10
58.1007
 20
147.426
 11
58.251
 21
146.963
  0
LINE
  8
0
 10
58.251
 20
146.963
 11
58.3421
 21
146.485
  0
LINE
  8
0
 10
58.3421
 20
146.485
 11
58.3726
 21
146
  0
LINE
  8
0
 10
58.3726
 20
146
 11
58.3726
 21
142
  0
LINE
  8
0
 10
58.3726
 20
142
 11
58.3421
 21
141.515
  0
LINE
  8
0
 10
58.3421
 20
141.515
 11
58.251
 21
141.037
  0
LINE
  8
0
 10
58.251
 20
141.037
 11
58.1007
 21
140.574
  0
LINE
  8
0
 10
58.1007
 20
140.574
 11
57.8936
 21
140.134
  0
LINE
  8
0
 10
57.8936
 20
140.134
 11
57.633
 21
139.724
  0
LINE
  8
0
 10
57.633
 20
139.724
 11
57.323
 21
139.349
  0
LINE
  8
0
 10
57.323
 20
139.349
 11
56.9685
 21
139.016
  0
LINE
  8
0
 10
56.9685
 20
139.016
 11
56.5751
 21
138.73
  0
LINE
  8
0
 10
56.5751
 20
138.73
 11
56.1489
 21
138.496
  0
LINE
  8
0
 10
56.1489
 20
138.496
 11
55.6967
 21
138.317
  0
LINE
  8
0
 10
55.6967
 20
138.317
 11
55.2256
 21
138.196
  0
LINE
  8
0
 10
55.2256
 20
138.196
 11
54.7432
 21
138.135
  0
LINE
  8
0
 10
54.7432
 20
138.135
 11
-54.7432
 21
138.135
  0
LINE
  8
0
 10
55.9369
 20
112.589
 11
56.5451
 21
112.745
  0
LINE
  8
0
 10
56.5451
 20
112.745
 11
57.1289
 21
112.976
  0
LINE
  8
0
 10
57.1289
 20
112.976
 11
57.6791
 21
113.278
  0
LINE
  8
0
 10
57.6791
 20
113.278
 11
58.1871
 21
113.647
  0
LINE
  8
0
 10
58.1871
 20
113.647
 11
58.6448
 21
114.077
  0
LINE
  8
0
 10
58.6448
 20
114.077
 11
59.0451
 21
114.561
  0
LINE
  8
0
 10
59.0451
 20
114.561
 11
59.3815
 21
115.091
  0
LINE
  8
0
 10
59.3815
 20
115.091
 11
59.6489
 21
115.659
  0
LINE
  8
0
 10
59.6489
 20
115.659
 11
59.8429
 21
116.257
  0
LINE
  8
0
 10
59.8429
 20
116.257
 11
59.9606
 21
116.873
  0
LINE
  8
0
 10
59.9606
 20
116.873
 11
60
 21
117.5
  0
LINE
  8
0
 10
60
 20
117.5
 11
60
 21
122.5
  0
LINE
  8
0
 10
60
 20
122.5
 11
59.9606
 21
123.127
  0
LINE
  8
0
 10
59.9606
 20
123.127
 11
59.8429
 21
123.743
  0
LINE
  8
0
 10
59.8429
 20
123.743
 11
59.6489
 21
124.341
  0
LINE
  8
0
 10
59.6489
 20
124.341
 11
59.3815
 21
124.909
  0
LINE
  8
0
 10
59.3815
 20
124.909
 11
59.0451
 21
125.439
  0
LINE
  8
0
 10
59.0451
 20
125.439
 11
58.6448
 21
125.923
  0
LINE
  8
0
 10
58.6448
 20
125.923
 11
58.1871
 21
126.353
  0
LINE
  8
0
 10
58.1871
 20
126.353
 11
57.6791
 21
126.722
  0
LINE
  8
0
 10
57.6791
 20
126.722
 11
57.1289
 21
127.024
  0
LINE
  8
0
 10
57.1289
 20
127.024
 11
56.5451
 21
127.255
  0
LINE
  8
0
 10
56.5451
 20
127.255
 11
55.9369
 21
127.411
  0
LINE
  8
0
 10
55.9369
 20
127.411
 11
55.3139
 21
127.49
  0
LINE
  8
0
 10
55.3139
 20
127.49
 11
-55.3139
 21
127.49
  0
LINE
  8
0
 10
-55.3139
 20
127.49
 11
-55.9369
 21
127.411
  0
LINE
  8
0
 10
-55.9369
 20
127.411
 11
-56.5451
 21
127.255
  0
LINE
  8
0
 10
-56.5451
 20
127.255
 11
-57.1289
 21
127.024
  0
LINE
  8
0
 10
-57.1289
 20
127.024
 11
-57.6791
 21
126.722
  0
LINE
  8
0
 10
-57.6791
 20
126.722
 11
-58.1871
 21
126.353
  0
LINE
  8
0
 10
-58.1871
 20
126.353
 11
-58.6448
 21
125.923
  0
LINE
  8
0
 10
-58.6448
 20
125.923
 11
-59.0451
 21
125.439
  0
LINE
  8
0
 10
-59.0451
 20
125.439
 11
-59.3815
 21
124.909
  0
LINE
  8
0
 10
-59.3815
 20
124.909
 11
-59.6489
 21
124.341
  0
LINE
  8
0
 10
-59.6489
 20
124.341
 11
-59.8429
 21
123.743
  0
LINE
  8
0
 10
-59.8429
 20
123.743
 11
-59.9606
 21
123.127
  0
LINE
  8
0
 10
-59.9606
 20
123.127
 11
-60
 21
122.5
  0
LINE
  8
0
 10
-60
 20
122.5
 11
-60
 21
117.5
  0
LINE
  8
0
 10
-60
 20
117.5
 11
-59.9606
 21
116.873
  0
LINE
  8
0
 10
-59.9606
 20
116.873
 11
-59.8429
 21
116.257
  0
LINE
  8
0
 10
-59.8429
 20
116.257
 11
-59.6489
 21
115.659
  0
LINE
  8
0
 10
-59.6489
 20
115.659
 11
-59.3815
 21
115.091
  0
LINE
  8
0
 10
-59.3815
 20
115.091
 11
-59.0451
 21
114.561
  0
LINE
  8
0
 10
-59.0451
 20
114.561
 11
-58.6448
 21
114.077
  0
LINE
  8
0
 10
-58.6448
 20
114.077
 11
-58.1871
 21
113.647
  0
LINE
  8
0
 10
-58.1871
 20
113.647
 11
-57.6791
 21
113.278
  0
LINE
  8
0
 10
-57.6791
 20
113.278
 11
-57.1289
 21
112.976
  0
LINE
  8
0
 10
-57.1289
 20
112.976
 11
-56.5451
 21
112.745
  0
LINE
  8
0
 10
-56.5451
 20
112.745
 11
-55.9369
 21
112.589
  0
LINE
  8
0
 10
-55.9369
 20
112.589
 11
-55.3139
 21
112.51
  0
LINE
  8
0
 10
-55.3139
 20
112.51
 11
55.3139
 21
112.51
  0
LINE
  8
0
 10
55.3139
 20
112.51
 11
55.9369
 21
112.589
  0
LINE
  8
0
 10
52.3493
 20
117.605
 11
52.0503
 21
117.643
  0
LINE
  8
0
 10
52.0503
 20
117.643
 11
51.7584
 21
117.717
  0
LINE
  8
0
 10
51.7584
 20
117.717
 11
51.4781
 21
117.828
  0
LINE
  8
0
 10
51.4781
 20
117.828
 11
51.214
 21
117.974
  0
LINE
  8
0
 10
51.214
 20
117.974
 11
50.9702
 21
118.151
  0
LINE
  8
0
 10
50.9702
 20
118.151
 11
50.7505
 21
118.357
  0
LINE
  8
0
 10
50.7505
 20
118.357
 11
50.5583
 21
118.589
  0
LINE
  8
0
 10
50.5583
 20
118.589
 11
50.3969
 21
118.844
  0
LINE
  8
0
 10
50.3969
 20
118.844
 11
50.2685
 21
119.117
  0
LINE
  8
0
 10
50.2685
 20
119.117
 11
50.1754
 21
119.403
  0
LINE
  8
0
 10
50.1754
 20
119.403
 11
50.1189
 21
119.699
  0
LINE
  8
0
 10
50.1189
 20
119.699
 11
50.1
 21
120
  0
LINE
  8
0
 10
50.1
 20
120
 11
50.1189
 21
120.301
  0
LINE
  8
0
 10
50.1189
 20
120.301
 11
50.1754
 21
120.597
  0
LINE
  8
0
 10
50.1754
 20
120.597
 11
50.2685
 21
120.883
  0
LINE
  8
0
 10
50.2685
 20
120.883
 11
50.3969
 21
121.156
  0
LINE
  8
0
 10
50.3969
 20
121.156
 11
50.5583
 21
121.411
  0
LINE
  8
0
 10
50.5583
 20
121.411
 11
50.7505
 21
121.643
  0
LINE
  8
0
 10
50.7505
 20
121.643
 11
50.9702
 21
121.849
  0
LINE
  8
0
 10
50.9702
 20
121.849
 11
51.214
 21
122.026
  0
LINE
  8
0
 10
51.214
 20
122.026
 11
51.4781
 21
122.172
  0
LINE
  8
0
 10
51.4781
 20
122.172
 11
51.7584
 21
122.283
  0
LINE
  8
0
 10
51.7584
 20
122.283
 11
52.0503
 21
122.357
  0
LINE
  8
0
 10
52.0503
 20
122.357
 11
52.3493
 21
122.395
  0
LINE
  8
0
 10
52.3493
 20
122.395
 11
52.6507
 21
122.395
  0
LINE
  8
0
 10
52.6507
 20
122.395
 11
52.9497
 21
122.357
  0
LINE
  8
0
 10
52.9497
 20
122.357
 11
53.2416
 21
122.283
  0
LINE
  8
0
 10
53.2416
 20
122.283
 11
53.5219
 21
122.172
  0
LINE
  8
0
 10
53.5219
 20
122.172
 11
53.786
 21
122.026
  0
LINE
  8
0
 10
53.786
 20
122.026
 11
54.0298
 21
121.849
  0
LINE
  8
0
 10
54.0298
 20
121.849
 11
54.2495
 21
121.643
  0
LINE
  8
0
 10
54.2495
 20
121.643
 11
54.4416
 21
121.411
  0
LINE
  8
0
 10
54.4416
 20
121.411
 11
54.6031
 21
121.156
  0
LINE
  8
0
 10
54.6031
 20
121.156
 11
54.7315
 21
120.883
  0
LINE
  8
0
 10
54.7315
 20
120.883
 11
54.8246
 21
120.597
  0
LINE
  8
0
 10
54.8246
 20
120.597
 11
54.8811
 21
120.301
  0
LINE
  8
0
 10
54.8811
 20
120.301
 11
54.9
 21
120
  0
LINE
  8
0
 10
54.9
 20
120
 11
54.8811
 21
119.699
  0
LINE
  8
0
 10
54.8811
 20
119.699
 11
54.8246
 21
119.403
  0
LINE
  8
0
 10
54.8246
 20
119.403
 11
54.7315
 21
119.117
  0
LINE
  8
0
 10
54.7315
 20
119.117
 11
54.6031
 21
118.844
  0
LINE
  8
0
 10
54.6031
 20
118.844
 11
54.4416
 21
118.589
  0
LINE
  8
0
 10
54.4416
 20
118.589
 11
54.2495
 21
118.357
  0
LINE
  8
0
 10
54.2495
 20
118.357
 11
54.0298
 21
118.151
  0
LINE
  8
0
 10
54.0298
 20
118.151
 11
53.786
 21
117.974
  0
LINE
  8
0
 10
53.786
 20
117.974
 11
53.5219
 21
117.828
  0
LINE
  8
0
 10
53.5219
 20
117.828
 11
53.2416
 21
117.717
  0
LINE
  8
0
 10
53.2416
 20
117.717
 11
52.9497
 21
117.643
  0
LINE
  8
0
 10
52.9497
 20
117.643
 11
52.6507
 21
117.605
  0
LINE
  8
0
 10
52.6507
 20
117.605
 11
52.3493
 21
117.605
  0
LINE
  8
0
 10
-52.6507
 20
117.605
 11
-52.9497
 21
117.643
  0
LINE
  8
0
 10
-52.9497
 20
117.643
 11
-53.2416
 21
117.717
  0
LINE
  8
0
 10
-53.2416
 20
117.717
 11
-53.5219
 21
117.828
  0
LINE
  8
0
 10
-53.5219
 20
117.828
 11
-53.786
 21
117.974
  0
LINE
  8
0
 10
-53.786
 20
117.974
 11
-54.0298
 21
118.151
  0
LINE
  8
0
 10
-54.0298
 20
118.151
 11
-54.2495
 21
118.357
  0
LINE
  8
0
 10
-54.2495
 20
118.357
 11
-54.4416
 21
118.589
  0
LINE
  8
0
 10
-54.4416
 20
118.589
 11
-54.6031
 21
118.844
  0
LINE
  8
0
 10
-54.6031
 20
118.844
 11
-54.7315
 21
119.117
  0
LINE
  8
0
 10
-54.7315
 20
119.117
 11
-54.8246
 21
119.403
  0
LINE
  8
0
 10
-54.8246
 20
119.403
 11
-54.8811
 21
119.699
  0
LINE
  8
0
 10
-54.8811
 20
119.699
 11
-54.9
 21
120
  0
LINE
  8
0
 10
-54.9
 20
120
 11
-54.8811
 21
120.301
  0
LINE
  8
0
 10
-54.8811
 20
120.301
 11
-54.8246
 21
120.597
  0
LINE
  8
0
 10
-54.8246
 20
120.597
 11
-54.7315
 21
120.883
  0
LINE
  8
0
 10
-54.7315
 20
120.883
 11
-54.6031
 21
121.156
  0
LINE
  8
0
 10
-54.6031
 20
121.156
 11
-54.4416
 21
121.411
  0
LINE
  8
0
 10
-54.4416
 20
121.411
 11
-54.2495
 21
121.643
  0
LINE
  8
0
 10
-54.2495
 20
121.643
 11
-54.0298
 21
121.849
  0
LINE
  8
0
 10
-54.0298
 20
121.849
 11
-53.786
 21
122.026
  0
LINE
  8
0
 10
-53.786
 20
122.026
 11
-53.5219
 21
122.172
  0
LINE
  8
0
 10
-53.5219
 20
122.172
 11
-53.2416
 21
122.283
  0
LINE
  8
0
 10
-53.2416
 20
122.283
 11
-52.9497
 21
122.357
  0
LINE
  8
0
 10
-52.9497
 20
122.357
 11
-52.6507
 21
122.395
  0
LINE
  8
0
 10
-52.6507
 20
122.395
 11
-52.3493
 21
122.395
  0
LINE
  8
0
 10
-52.3493
 20
122.395
 11
-52.0503
 21
122.357
  0
LINE
  8
0
 10
-52.0503
 20
122.357
 11
-51.7584
 21
122.283
  0
LINE
  8
0
 10
-51.7584
 20
122.283
 11
-51.4781
 21
122.172
  0
LINE
  8
0
 10
-51.4781
 20
122.172
 11
-51.214
 21
122.026
  0
LINE
  8
0
 10
-51.214
 20
122.026
 11
-50.9702
 21
121.849
  0
LINE
  8
0
 10
-50.9702
 20
121.849
 11
-50.7505
 21
121.643
  0
LINE
  8
0
 10
-50.7505
 20
121.643
 11
-50.5583
 21
121.411
  0
LINE
  8
0
 10
-50.5583
 20
121.411
 11
-50.3969
 21
121.156
  0
LINE
  8
0
 10
-50.3969
 20
121.156
 11
-50.2685
 21
120.883
  0
LINE
  8
0
 10
-50.2685
 20
120.883
 11
-50.1754
 21
120.597
  0
LINE
  8
0
 10
-50.1754
 20
120.597
 11
-50.1189
 21
120.301
  0
LINE
  8
0
 10
-50.1189
 20
120.301
 11
-50.1
 21
120
  0
LINE
  8
0
 10
-50.1
 20
120
 11
-50.1189
 21
119.699
  0
LINE
  8
0
 10
-50.1189
 20
119.699
 11
-50.1754
 21
119.403
  0
LINE
  8
0
 10
-50.1754
 20
119.403
 11
-50.2685
 21
119.117
  0
LINE
  8
0
 10
-50.2685
 20
119.117
 11
-50.3969
 21
118.844
  0
LINE
  8
0
 10
-50.3969
 20
118.844
 11
-50.5583
 21
118.589
  0
LINE
  8
0
 10
-50.5583
 20
118.589
 11
-50.7505
 21
118.357
  0
LINE
  8
0
 10
-50.7505
 20
118.357
 11
-50.9702
 21
118.151
  0
LINE
  8
0
 10
-50.9702
 20
118.151
 11
-51.214
 21
117.974
  0
LINE
  8
0
 10
-51.214
 20
117.974
 11
-51.4781
 21
117.828
  0
LINE
  8
0
 10
-51.4781
 20
117.828
 11
-51.7584
 21
117.717
  0
LINE
  8
0
 10
-51.7584
 20
117.717
 11
-52.0503
 21
117.643
  0
LINE
  8
0
 10
-52.0503
 20
117.643
 11
-52.3493
 21
117.605
  0
LINE
  8
0
 10
-52.3493
 20
117.605
 11
-52.6507
 21
117.605
  0
LINE
  8
0
 10
55.9369
 20
88.5886
 11
56.5451
 21
88.7447
  0
LINE
  8
0
 10
56.5451
 20
88.7447
 11
57.1289
 21
88.9759
  0
LINE
  8
0
 10
57.1289
 20
88.9759
 11
57.6791
 21
89.2784
  0
LINE
  8
0
 10
57.6791
 20
89.2784
 11
58.1871
 21
89.6474
  0
LINE
  8
0
 10
58.1871
 20
89.6474
 11
58.6448
 21
90.0773
  0
LINE
  8
0
 10
58.6448
 20
90.0773
 11
59.0451
 21
90.5611
  0
LINE
  8
0
 10
59.0451
 20
90.5611
 11
59.3815
 21
91.0912
  0
LINE
  8
0
 10
59.3815
 20
91.0912
 11
59.6489
 21
91.6594
  0
LINE
  8
0
 10
59.6489
 20
91.6594
 11
59.8429
 21
92.2566
  0
LINE
  8
0
 10
59.8429
 20
92.2566
 11
59.9606
 21
92.8733
  0
LINE
  8
0
 10
59.9606
 20
92.8733
 11
60
 21
93.5
  0
LINE
  8
0
 10
60
 20
93.5
 11
60
 21
98.5
  0
LINE
  8
0
 10
60
 20
98.5
 11
59.9606
 21
99.1267
  0
LINE
  8
0
 10
59.9606
 20
99.1267
 11
59.8429
 21
99.7434
  0
LINE
  8
0
 10
59.8429
 20
99.7434
 11
59.6489
 21
100.341
  0
LINE
  8
0
 10
59.6489
 20
100.341
 11
59.3815
 21
100.909
  0
LINE
  8
0
 10
59.3815
 20
100.909
 11
59.0451
 21
101.439
  0
LINE
  8
0
 10
59.0451
 20
101.439
 11
58.6448
 21
101.923
  0
LINE
  8
0
 10
58.6448
 20
101.923
 11
58.1871
 21
102.353
  0
LINE
  8
0
 10
58.1871
 20
102.353
 11
57.6791
 21
102.722
  0
LINE
  8
0
 10
57.6791
 20
102.722
 11
57.1289
 21
103.024
  0
LINE
  8
0
 10
57.1289
 20
103.024
 11
56.5451
 21
103.255
  0
LINE
  8
0
 10
56.5451
 20
103.255
 11
55.9369
 21
103.411
  0
LINE
  8
0
 10
55.9369
 20
103.411
 11
55.3139
 21
103.49
  0
LINE
  8
0
 10
55.3139
 20
103.49
 11
-55.3139
 21
103.49
  0
LINE
  8
0
 10
-55.3139
 20
103.49
 11
-55.9369
 21
103.411
  0
LINE
  8
0
 10
-55.9369
 20
103.411
 11
-56.5451
 21
103.255
  0
LINE
  8
0
 10
-56.5451
 20
103.255
 11
-57.1289
 21
103.024
  0
LINE
  8
0
 10
-57.1289
 20
103.024
 11
-57.6791
 21
102.722
  0
LINE
  8
0
 10
-57.6791
 20
102.722
 11
-58.1871
 21
102.353
  0
LINE
  8
0
 10
-58.1871
 20
102.353
 11
-58.6448
 21
101.923
  0
LINE
  8
0
 10
-58.6448
 20
101.923
 11
-59.0451
 21
101.439
  0
LINE
  8
0
 10
-59.0451
 20
101.439
 11
-59.3815
 21
100.909
  0
LINE
  8
0
 10
-59.3815
 20
100.909
 11
-59.6489
 21
100.341
  0
LINE
  8
0
 10
-59.6489
 20
100.341
 11
-59.8429
 21
99.7434
  0
LINE
  8
0
 10
-59.8429
 20
99.7434
 11
-59.9606
 21
99.1267
  0
LINE
  8
0
 10
-59.9606
 20
99.1267
 11
-60
 21
98.5
  0
LINE
  8
0
 10
-60
 20
98.5
 11
-60
 21
93.5
  0
LINE
  8
0
 10
-60
 20
93.5
 11
-59.9606
 21
92.8733
  0
LINE
  8
0
 10
-59.9606
 20
92.8733
 11
-59.8429
 21
92.2566
  0
LINE
  8
0
 10
-59.8429
 20
92.2566
 11
-59.6489
 21
91.6594
  0
LINE
  8
0
 10
-59.6489
 20
91.6594
 11
-59.3815
 21
91.0912
  0
LINE
  8
0
 10
-59.3815
 20
91.0912
 11
-59.0451
 21
90.5611
  0
LINE
  8
0
 10
-59.0451
 20
90.5611
 11
-58.6448
 21
90.0773
  0
LINE
  8
0
 10
-58.6448
 20
90.0773
 11
-58.1871
 21
89.6474
  0
LINE
  8
0
 10
-58.1871
 20
89.6474
 11
-57.6791
 21
89.2784
  0
LINE
  8
0
 10
-57.6791
 20
89.2784
 11
-57.1289
 21
88.9759
  0
LINE
  8
0
 10
-57.1289
 20
88.9759
 11
-56.5451
 21
88.7447
  0
LINE
  8
0
 10
-56.5451
 20
88.7447
 11
-55.9369
 21
88.5886
  0
LINE
  8
0
 10
-55.9369
 20
88.5886
 11
-55.3139
 21
88.5099
  0
LINE
  8
0
 10
-55.3139
 20
88.5099
 11
55.3139
 21
88.5099
  0
LINE
  8
0
 10
55.3139
 20
88.5099
 11
55.9369
 21
88.5886
  0
LINE
  8
0
 10
-52.613
 20
94.2036
 11
-52.8373
 21
94.2319
  0
LINE
  8
0
 10
-52.8373
 20
94.2319
 11
-53.0562
 21
94.2881
  0
LINE
  8
0
 10
-53.0562
 20
94.2881
 11
-53.2664
 21
94.3713
  0
LINE
  8
0
 10
-53.2664
 20
94.3713
 11
-53.4645
 21
94.4802
  0
LINE
  8
0
 10
-53.4645
 20
94.4802
 11
-53.6474
 21
94.6131
  0
LINE
  8
0
 10
-53.6474
 20
94.6131
 11
-53.8121
 21
94.7678
  0
LINE
  8
0
 10
-53.8121
 20
94.7678
 11
-53.9562
 21
94.942
  0
LINE
  8
0
 10
-53.9562
 20
94.942
 11
-54.0773
 21
95.1329
  0
LINE
  8
0
 10
-54.0773
 20
95.1329
 11
-54.1736
 21
95.3374
  0
LINE
  8
0
 10
-54.1736
 20
95.3374
 11
-54.2434
 21
95.5524
  0
LINE
  8
0
 10
-54.2434
 20
95.5524
 11
-54.2858
 21
95.7744
  0
LINE
  8
0
 10
-54.2858
 20
95.7744
 11
-54.3
 21
96
  0
LINE
  8
0
 10
-54.3
 20
96
 11
-54.2858
 21
96.2256
  0
LINE
  8
0
 10
-54.2858
 20
96.2256
 11
-54.2434
 21
96.4476
  0
LINE
  8
0
 10
-54.2434
 20
96.4476
 11
-54.1736
 21
96.6626
  0
LINE
  8
0
 10
-54.1736
 20
96.6626
 11
-54.0773
 21
96.8671
  0
LINE
  8
0
 10
-54.0773
 20
96.8671
 11
-53.9562
 21
97.058
  0
LINE
  8
0
 10
-53.9562
 20
97.058
 11
-53.8121
 21
97.2322
  0
LINE
  8
0
 10
-53.8121
 20
97.2322
 11
-53.6474
 21
97.3869
  0
LINE
  8
0
 10
-53.6474
 20
97.3869
 11
-53.4645
 21
97.5198
  0
LINE
  8
0
 10
-53.4645
 20
97.5198
 11
-53.2664
 21
97.6287
  0
LINE
  8
0
 10
-53.2664
 20
97.6287
 11
-53.0562
 21
97.7119
  0
LINE
  8
0
 10
-53.0562
 20
97.7119
 11
-52.8373
 21
97.7681
  0
LINE
  8
0
 10
-52.8373
 20
97.7681
 11
-52.613
 21
97.7964
  0
LINE
  8
0
 10
-52.613
 20
97.7964
 11
-52.387
 21
97.7964
  0
LINE
  8
0
 10
-52.387
 20
97.7964
 11
-52.1627
 21
97.7681
  0
LINE
  8
0
 10
-52.1627
 20
97.7681
 11
-51.9438
 21
97.7119
  0
LINE
  8
0
 10
-51.9438
 20
97.7119
 11
-51.7336
 21
97.6287
  0
LINE
  8
0
 10
-51.7336
 20
97.6287
 11
-51.5355
 21
97.5198
  0
LINE
  8
0
 10
-51.5355
 20
97.5198
 11
-51.3526
 21
97.3869
  0
LINE
  8
0
 10
-51.3526
 20
97.3869
 11
-51.1879
 21
97.2322
  0
LINE
  8
0
 10
-51.1879
 20
97.2322
 11
-51.0438
 21
97.058
  0
LINE
  8
0
 10
-51.0438
 20
97.058
 11
-50.9226
 21
96.8671
  0
LINE
  8
0
 10
-50.9226
 20
96.8671
 11
-50.8264
 21
96.6626
  0
LINE
  8
0
 10
-50.8264
 20
96.6626
 11
-50.7565
 21
96.4476
  0
LINE
  8
0
 10
-50.7565
 20
96.4476
 11
-50.7142
 21
96.2256
  0
LINE
  8
0
 10
-50.7142
 20
96.2256
 11
-50.7
 21
96
  0
LINE
  8
0
 10
-50.7
 20
96
 11
-50.7142
 21
95.7744
  0
LINE
  8
0
 10
-50.7142
 20
95.7744
 11
-50.7565
 21
95.5524
  0
LINE
  8
0
 10
-50.7565
 20
95.5524
 11
-50.8264
 21
95.3374
  0
LINE
  8
0
 10
-50.8264
 20
95.3374
 11
-50.9226
 21
95.1329
  0
LINE
  8
0
 10
-50.9226
 20
95.1329
 11
-51.0438
 21
94.942
  0
LINE
  8
0
 10
-51.0438
 20
94.942
 11
-51.1879
 21
94.7678
  0
LINE
  8
0
 10
-51.1879
 20
94.7678
 11
-51.3526
 21
94.6131
  0
LINE
  8
0
 10
-51.3526
 20
94.6131
 11
-51.5355
 21
94.4802
  0
LINE
  8
0
 10
-51.5355
 20
94.4802
 11
-51.7336
 21
94.3713
  0
LINE
  8
0
 10
-51.7336
 20
94.3713
 11
-51.9438
 21
94.2881
  0
LINE
  8
0
 10
-51.9438
 20
94.2881
 11
-52.1627
 21
94.2319
  0
LINE
  8
0
 10
-52.1627
 20
94.2319
 11
-52.387
 21
94.2036
  0
LINE
  8
0
 10
-52.387
 20
94.2036
 11
-52.613
 21
94.2036
  0
LINE
  8
0
 10
52.387
 20
94.2036
 11
52.1627
 21
94.2319
  0
LINE
  8
0
 10
52.1627
 20
94.2319
 11
51.9438
 21
94.2881
  0
LINE
  8
0
 10
51.9438
 20
94.2881
 11
51.7336
 21
94.3713
  0
LINE
  8
0
 10
51.7336
 20
94.3713
 11
51.5355
 21
94.4802
  0
LINE
  8
0
 10
51.5355
 20
94.4802
 11
51.3526
 21
94.6131
  0
LINE
  8
0
 10
51.3526
 20
94.6131
 11
51.1879
 21
94.7678
  0
LINE
  8
0
 10
51.1879
 20
94.7678
 11
51.0438
 21
94.942
  0
LINE
  8
0
 10
51.0438
 20
94.942
 11
50.9226
 21
95.1329
  0
LINE
  8
0
 10
50.9226
 20
95.1329
 11
50.8264
 21
95.3374
  0
LINE
  8
0
 10
50.8264
 20
95.3374
 11
50.7565
 21
95.5524
  0
LINE
  8
0
 10
50.7565
 20
95.5524
 11
50.7142
 21
95.7744
  0
LINE
  8
0
 10
50.7142
 20
95.7744
 11
50.7
 21
96
  0
LINE
  8
0
 10
50.7
 20
96
 11
50.7142
 21
96.2256
  0
LINE
  8
0
 10
50.7142
 20
96.2256
 11
50.7565
 21
96.4476
  0
LINE
  8
0
 10
50.7565
 20
96.4476
 11
50.8264
 21
96.6626
  0
LINE
  8
0
 10
50.8264
 20
96.6626
 11
50.9226
 21
96.8671
  0
LINE
  8
0
 10
50.9226
 20
96.8671
 11
51.0438
 21
97.058
  0
LINE
  8
0
 10
51.0438
 20
97.058
 11
51.1879
 21
97.2322
  0
LINE
  8
0
 10
51.1879
 20
97.2322
 11
51.3526
 21
97.3869
  0
LINE
  8
0
 10
51.3526
 20
97.3869
 11
51.5355
 21
97.5198
  0
LINE
  8
0
 10
51.5355
 20
97.5198
 11
51.7336
 21
97.6287
  0
LINE
  8
0
 10
51.7336
 20
97.6287
 11
51.9438
 21
97.7119
  0
LINE
  8
0
 10
51.9438
 20
97.7119
 11
52.1627
 21
97.7681
  0
LINE
  8
0
 10
52.1627
 20
97.7681
 11
52.387
 21
97.7964
  0
LINE
  8
0
 10
52.387
 20
97.7964
 11
52.613
 21
97.7964
  0
LINE
  8
0
 10
52.613
 20
97.7964
 11
52.8373
 21
97.7681
  0
LINE
  8
0
 10
52.8373
 20
97.7681
 11
53.0562
 21
97.7119
  0
LINE
  8
0
 10
53.0562
 20
97.7119
 11
53.2664
 21
97.6287
  0
LINE
  8
0
 10
53.2664
 20
97.6287
 11
53.4645
 21
97.5198
  0
LINE
  8
0
 10
53.4645
 20
97.5198
 11
53.6474
 21
97.3869
  0
LINE
  8
0
 10
53.6474
 20
97.3869
 11
53.8121
 21
97.2322
  0
LINE
  8
0
 10
53.8121
 20
97.2322
 11
53.9562
 21
97.058
  0
LINE
  8
0
 10
53.9562
 20
97.058
 11
54.0773
 21
96.8671
  0
LINE
  8
0
 10
54.0773
 20
96.8671
 11
54.1736
 21
96.6626
  0
LINE
  8
0
 10
54.1736
 20
96.6626
 11
54.2434
 21
96.4476
  0
LINE
  8
0
 10
54.2434
 20
96.4476
 11
54.2858
 21
96.2256
  0
LINE
  8
0
 10
54.2858
 20
96.2256
 11
54.3
 21
96
  0
LINE
  8
0
 10
54.3
 20
96
 11
54.2858
 21
95.7744
  0
LINE
  8
0
 10
54.2858
 20
95.7744
 11
54.2434
 21
95.5524
  0
LINE
  8
0
 10
54.2434
 20
95.5524
 11
54.1736
 21
95.3374
  0
LINE
  8
0
 10
54.1736
 20
95.3374
 11
54.0773
 21
95.1329
  0
LINE
  8
0
 10
54.0773
 20
95.1329
 11
53.9562
 21
94.942
  0
LINE
  8
0
 10
53.9562
 20
94.942
 11
53.8121
 21
94.7678
  0
LINE
  8
0
 10
53.8121
 20
94.7678
 11
53.6474
 21
94.6131
  0
LINE
  8
0
 10
53.6474
 20
94.6131
 11
53.4645
 21
94.4802
  0
LINE
  8
0
 10
53.4645
 20
94.4802
 11
53.2664
 21
94.3713
  0
LINE
  8
0
 10
53.2664
 20
94.3713
 11
53.0562
 21
94.2881
  0
LINE
  8
0
 10
53.0562
 20
94.2881
 11
52.8373
 21
94.2319
  0
LINE
  8
0
 10
52.8373
 20
94.2319
 11
52.613
 21
94.2036
  0
LINE
  8
0
 10
52.613
 20
94.2036
 11
52.387
 21
94.2036
  0
ENDSEC
  0
SECTION
  2
OBJECTS
  0
DICTIONARY
  0
ENDSEC
  0
EOF
