solid OpenSCAD_Model
  facet normal 0 -1 0
    outer loop
      vertex -0.923187 -1.59901 0
      vertex 0.923187 -1.59901 1.3
      vertex -0.923187 -1.59901 1.3
    endloop
  endfacet
  facet normal 0 -1 -0
    outer loop
      vertex 0.923187 -1.59901 1.3
      vertex -0.923187 -1.59901 0
      vertex 0.923187 -1.59901 0
    endloop
  endfacet
  facet normal 0 0 -1
    outer loop
      vertex 0.701045 -0.385403 0
      vertex 1.84639 0 0
      vertex 0.923187 -1.59901 0
    endloop
  endfacet
  facet normal 0 0 -1
    outer loop
      vertex 0.793692 0.100266 0
      vertex 1.84639 0 0
      vertex 0.799999 0 0
    endloop
  endfacet
  facet normal -0 0 -1
    outer loop
      vertex 1.84639 0 0
      vertex 0.793692 -0.100266 0
      vertex 0.799999 0 0
    endloop
  endfacet
  facet normal 0 0 -1
    outer loop
      vertex 1.84639 0 0
      vertex 0.774866 -0.198952 0
      vertex 0.793692 -0.100266 0
    endloop
  endfacet
  facet normal 0 0 -1
    outer loop
      vertex 1.84639 0 0
      vertex 0.743821 -0.294499 0
      vertex 0.774866 -0.198952 0
    endloop
  endfacet
  facet normal 0 0 -1
    outer loop
      vertex 1.84639 0 0
      vertex 0.701045 -0.385403 0
      vertex 0.743821 -0.294499 0
    endloop
  endfacet
  facet normal 0 0 -1
    outer loop
      vertex 0.923187 -1.59901 0
      vertex 0.647213 -0.470228 0
      vertex 0.701045 -0.385403 0
    endloop
  endfacet
  facet normal 0 0 -1
    outer loop
      vertex 0.923187 -1.59901 0
      vertex 0.583175 -0.547637 0
      vertex 0.647213 -0.470228 0
    endloop
  endfacet
  facet normal 0 0 -1
    outer loop
      vertex 0.923187 -1.59901 0
      vertex 0.509938 -0.61641 0
      vertex 0.583175 -0.547637 0
    endloop
  endfacet
  facet normal 0 0 -1
    outer loop
      vertex 0.923187 -1.59901 0
      vertex 0.428661 -0.675462 0
      vertex 0.509938 -0.61641 0
    endloop
  endfacet
  facet normal 0 0 -1
    outer loop
      vertex 0.923187 -1.59901 0
      vertex 0.340623 -0.723861 0
      vertex 0.428661 -0.675462 0
    endloop
  endfacet
  facet normal 0 0 -1
    outer loop
      vertex 0.923187 -1.59901 0
      vertex 0.247213 -0.760845 0
      vertex 0.340623 -0.723861 0
    endloop
  endfacet
  facet normal 0 0 -1
    outer loop
      vertex 0.923187 -1.59901 0
      vertex 0.149904 -0.78583 0
      vertex 0.247213 -0.760845 0
    endloop
  endfacet
  facet normal 0 0 -1
    outer loop
      vertex 0.923187 -1.59901 0
      vertex 0.0502319 -0.798421 0
      vertex 0.149904 -0.78583 0
    endloop
  endfacet
  facet normal 0 0 -1
    outer loop
      vertex 0.923187 -1.59901 0
      vertex -0.0502319 -0.798421 0
      vertex 0.0502319 -0.798421 0
    endloop
  endfacet
  facet normal 0 0 -1
    outer loop
      vertex -0.923187 -1.59901 0
      vertex -0.0502319 -0.798421 0
      vertex 0.923187 -1.59901 0
    endloop
  endfacet
  facet normal -0 0 -1
    outer loop
      vertex -0.0502319 -0.798421 0
      vertex -0.923187 -1.59901 0
      vertex -0.149904 -0.78583 0
    endloop
  endfacet
  facet normal -0 0 -1
    outer loop
      vertex -0.149904 -0.78583 0
      vertex -0.923187 -1.59901 0
      vertex -0.247213 -0.760845 0
    endloop
  endfacet
  facet normal -0 0 -1
    outer loop
      vertex -0.247213 -0.760845 0
      vertex -0.923187 -1.59901 0
      vertex -0.340623 -0.723861 0
    endloop
  endfacet
  facet normal 0 0 -1
    outer loop
      vertex -0.774866 -0.198952 0
      vertex -1.84639 0 0
      vertex -0.793692 -0.100266 0
    endloop
  endfacet
  facet normal 0 0 -1
    outer loop
      vertex -0.743821 -0.294499 0
      vertex -1.84639 0 0
      vertex -0.774866 -0.198952 0
    endloop
  endfacet
  facet normal 0 0 -1
    outer loop
      vertex -0.701045 -0.385403 0
      vertex -1.84639 0 0
      vertex -0.743821 -0.294499 0
    endloop
  endfacet
  facet normal 0 0 -1
    outer loop
      vertex -1.84639 0 0
      vertex -0.701045 -0.385403 0
      vertex -0.923187 -1.59901 0
    endloop
  endfacet
  facet normal -0 0 -1
    outer loop
      vertex -0.647213 -0.470228 0
      vertex -0.923187 -1.59901 0
      vertex -0.701045 -0.385403 0
    endloop
  endfacet
  facet normal -0 0 -1
    outer loop
      vertex -0.583175 -0.547637 0
      vertex -0.923187 -1.59901 0
      vertex -0.647213 -0.470228 0
    endloop
  endfacet
  facet normal -0 0 -1
    outer loop
      vertex -0.509938 -0.61641 0
      vertex -0.923187 -1.59901 0
      vertex -0.583175 -0.547637 0
    endloop
  endfacet
  facet normal -0 0 -1
    outer loop
      vertex -0.428661 -0.675462 0
      vertex -0.923187 -1.59901 0
      vertex -0.509938 -0.61641 0
    endloop
  endfacet
  facet normal -0 0 -1
    outer loop
      vertex -0.340623 -0.723861 0
      vertex -0.923187 -1.59901 0
      vertex -0.428661 -0.675462 0
    endloop
  endfacet
  facet normal 0 0 -1
    outer loop
      vertex 0.774866 0.198952 0
      vertex 1.84639 0 0
      vertex 0.793692 0.100266 0
    endloop
  endfacet
  facet normal 0 0 -1
    outer loop
      vertex 0.743821 0.294499 0
      vertex 1.84639 0 0
      vertex 0.774866 0.198952 0
    endloop
  endfacet
  facet normal 0 0 -1
    outer loop
      vertex 0.701045 0.385403 0
      vertex 1.84639 0 0
      vertex 0.743821 0.294499 0
    endloop
  endfacet
  facet normal 0 0 -1
    outer loop
      vertex 1.84639 0 0
      vertex 0.701045 0.385403 0
      vertex 0.923187 1.59901 0
    endloop
  endfacet
  facet normal 0 0 -1
    outer loop
      vertex 0.647213 0.470228 0
      vertex 0.923187 1.59901 0
      vertex 0.701045 0.385403 0
    endloop
  endfacet
  facet normal 0 0 -1
    outer loop
      vertex 0.583175 0.547637 0
      vertex 0.923187 1.59901 0
      vertex 0.647213 0.470228 0
    endloop
  endfacet
  facet normal 0 0 -1
    outer loop
      vertex 0.509938 0.61641 0
      vertex 0.923187 1.59901 0
      vertex 0.583175 0.547637 0
    endloop
  endfacet
  facet normal 0 0 -1
    outer loop
      vertex 0.428661 0.675462 0
      vertex 0.923187 1.59901 0
      vertex 0.509938 0.61641 0
    endloop
  endfacet
  facet normal 0 0 -1
    outer loop
      vertex 0.340623 0.723861 0
      vertex 0.923187 1.59901 0
      vertex 0.428661 0.675462 0
    endloop
  endfacet
  facet normal 0 0 -1
    outer loop
      vertex 0.247213 0.760845 0
      vertex 0.923187 1.59901 0
      vertex 0.340623 0.723861 0
    endloop
  endfacet
  facet normal 0 0 -1
    outer loop
      vertex 0.149904 0.78583 0
      vertex 0.923187 1.59901 0
      vertex 0.247213 0.760845 0
    endloop
  endfacet
  facet normal 0 0 -1
    outer loop
      vertex 0.0502319 0.798421 0
      vertex 0.923187 1.59901 0
      vertex 0.149904 0.78583 0
    endloop
  endfacet
  facet normal 0 0 -1
    outer loop
      vertex -0.0502319 0.798421 0
      vertex 0.923187 1.59901 0
      vertex 0.0502319 0.798421 0
    endloop
  endfacet
  facet normal 0 0 -1
    outer loop
      vertex -0.923187 1.59901 0
      vertex -0.0502319 0.798421 0
      vertex -0.149904 0.78583 0
    endloop
  endfacet
  facet normal 0 0 -1
    outer loop
      vertex -0.923187 1.59901 0
      vertex -0.149904 0.78583 0
      vertex -0.247213 0.760845 0
    endloop
  endfacet
  facet normal 0 0 -1
    outer loop
      vertex -0.923187 1.59901 0
      vertex -0.247213 0.760845 0
      vertex -0.340623 0.723861 0
    endloop
  endfacet
  facet normal 0 0 -1
    outer loop
      vertex -0.923187 1.59901 0
      vertex -0.340623 0.723861 0
      vertex -0.428661 0.675462 0
    endloop
  endfacet
  facet normal 0 0 -1
    outer loop
      vertex -0.793692 -0.100266 0
      vertex -1.84639 0 0
      vertex -0.799999 0 0
    endloop
  endfacet
  facet normal 0 0 -1
    outer loop
      vertex -0.0502319 0.798421 0
      vertex -0.923187 1.59901 0
      vertex 0.923187 1.59901 0
    endloop
  endfacet
  facet normal 0 0 -1
    outer loop
      vertex -0.509938 0.61641 0
      vertex -0.923187 1.59901 0
      vertex -0.428661 0.675462 0
    endloop
  endfacet
  facet normal 0 0 -1
    outer loop
      vertex -0.583175 0.547637 0
      vertex -0.923187 1.59901 0
      vertex -0.509938 0.61641 0
    endloop
  endfacet
  facet normal 0 0 -1
    outer loop
      vertex -0.647213 0.470228 0
      vertex -0.923187 1.59901 0
      vertex -0.583175 0.547637 0
    endloop
  endfacet
  facet normal 0 0 -1
    outer loop
      vertex -0.701045 0.385403 0
      vertex -0.923187 1.59901 0
      vertex -0.647213 0.470228 0
    endloop
  endfacet
  facet normal 0 0 -1
    outer loop
      vertex -1.84639 0 0
      vertex -0.701045 0.385403 0
      vertex -0.743821 0.294499 0
    endloop
  endfacet
  facet normal 0 0 -1
    outer loop
      vertex -1.84639 0 0
      vertex -0.743821 0.294499 0
      vertex -0.774866 0.198952 0
    endloop
  endfacet
  facet normal 0 0 -1
    outer loop
      vertex -1.84639 0 0
      vertex -0.774866 0.198952 0
      vertex -0.793692 0.100266 0
    endloop
  endfacet
  facet normal 0 0 -1
    outer loop
      vertex -0.799999 0 0
      vertex -1.84639 0 0
      vertex -0.793692 0.100266 0
    endloop
  endfacet
  facet normal -0 0 -1
    outer loop
      vertex -0.701045 0.385403 0
      vertex -1.84639 0 0
      vertex -0.923187 1.59901 0
    endloop
  endfacet
  facet normal 0.866022 -0.500006 -1.16085e-17
    outer loop
      vertex 0.923187 -1.59901 1.3
      vertex 1.84639 0 0
      vertex 1.84639 0 1.3
    endloop
  endfacet
  facet normal 0.866022 -0.500006 -1.16085e-17
    outer loop
      vertex 1.84639 0 0
      vertex 0.923187 -1.59901 1.3
      vertex 0.923187 -1.59901 0
    endloop
  endfacet
  facet normal 0.866022 0.500006 1.16085e-17
    outer loop
      vertex 1.84639 0 1.3
      vertex 0.923187 1.59901 0
      vertex 0.923187 1.59901 1.3
    endloop
  endfacet
  facet normal 0.866022 0.500006 1.16085e-17
    outer loop
      vertex 0.923187 1.59901 0
      vertex 1.84639 0 1.3
      vertex 1.84639 0 0
    endloop
  endfacet
  facet normal -0.866022 -0.500006 1.16085e-17
    outer loop
      vertex -0.923187 -1.59901 0
      vertex -1.84639 0 1.3
      vertex -1.84639 0 0
    endloop
  endfacet
  facet normal -0.866022 -0.500006 1.16085e-17
    outer loop
      vertex -1.84639 0 1.3
      vertex -0.923187 -1.59901 0
      vertex -0.923187 -1.59901 1.3
    endloop
  endfacet
  facet normal -0.866022 0.500006 -1.16085e-17
    outer loop
      vertex -1.84639 0 0
      vertex -0.923187 1.59901 1.3
      vertex -0.923187 1.59901 0
    endloop
  endfacet
  facet normal -0.866022 0.500006 -1.16085e-17
    outer loop
      vertex -0.923187 1.59901 1.3
      vertex -1.84639 0 0
      vertex -1.84639 0 1.3
    endloop
  endfacet
  facet normal -0 0 1
    outer loop
      vertex 0.701045 0.385403 1.3
      vertex 1.84639 0 1.3
      vertex 0.923187 1.59901 1.3
    endloop
  endfacet
  facet normal 0 0 1
    outer loop
      vertex 0.793692 -0.100266 1.3
      vertex 1.84639 0 1.3
      vertex 0.799999 0 1.3
    endloop
  endfacet
  facet normal 0 0 1
    outer loop
      vertex 1.84639 0 1.3
      vertex 0.793692 0.100266 1.3
      vertex 0.799999 0 1.3
    endloop
  endfacet
  facet normal 0 0 1
    outer loop
      vertex 1.84639 0 1.3
      vertex 0.774866 0.198952 1.3
      vertex 0.793692 0.100266 1.3
    endloop
  endfacet
  facet normal 0 0 1
    outer loop
      vertex 1.84639 0 1.3
      vertex 0.743821 0.294499 1.3
      vertex 0.774866 0.198952 1.3
    endloop
  endfacet
  facet normal 0 0 1
    outer loop
      vertex 1.84639 0 1.3
      vertex 0.701045 0.385403 1.3
      vertex 0.743821 0.294499 1.3
    endloop
  endfacet
  facet normal 0 0 1
    outer loop
      vertex 0.923187 1.59901 1.3
      vertex 0.647213 0.470228 1.3
      vertex 0.701045 0.385403 1.3
    endloop
  endfacet
  facet normal 0 0 1
    outer loop
      vertex 0.923187 1.59901 1.3
      vertex 0.583175 0.547637 1.3
      vertex 0.647213 0.470228 1.3
    endloop
  endfacet
  facet normal 0 0 1
    outer loop
      vertex 0.923187 1.59901 1.3
      vertex 0.509938 0.61641 1.3
      vertex 0.583175 0.547637 1.3
    endloop
  endfacet
  facet normal 0 0 1
    outer loop
      vertex 0.923187 1.59901 1.3
      vertex 0.428661 0.675462 1.3
      vertex 0.509938 0.61641 1.3
    endloop
  endfacet
  facet normal 0 0 1
    outer loop
      vertex 0.923187 1.59901 1.3
      vertex 0.340623 0.723861 1.3
      vertex 0.428661 0.675462 1.3
    endloop
  endfacet
  facet normal 0 0 1
    outer loop
      vertex 0.923187 1.59901 1.3
      vertex 0.247213 0.760845 1.3
      vertex 0.340623 0.723861 1.3
    endloop
  endfacet
  facet normal 0 0 1
    outer loop
      vertex 0.923187 1.59901 1.3
      vertex 0.149904 0.78583 1.3
      vertex 0.247213 0.760845 1.3
    endloop
  endfacet
  facet normal 0 0 1
    outer loop
      vertex 0.923187 1.59901 1.3
      vertex 0.0502319 0.798421 1.3
      vertex 0.149904 0.78583 1.3
    endloop
  endfacet
  facet normal 0 0 1
    outer loop
      vertex 0.923187 1.59901 1.3
      vertex -0.0502319 0.798421 1.3
      vertex 0.0502319 0.798421 1.3
    endloop
  endfacet
  facet normal -0 0 1
    outer loop
      vertex -0.923187 1.59901 1.3
      vertex -0.0502319 0.798421 1.3
      vertex 0.923187 1.59901 1.3
    endloop
  endfacet
  facet normal 0 0 1
    outer loop
      vertex -0.0502319 0.798421 1.3
      vertex -0.923187 1.59901 1.3
      vertex -0.149904 0.78583 1.3
    endloop
  endfacet
  facet normal 0 0 1
    outer loop
      vertex -0.149904 0.78583 1.3
      vertex -0.923187 1.59901 1.3
      vertex -0.247213 0.760845 1.3
    endloop
  endfacet
  facet normal 0 0 1
    outer loop
      vertex -0.247213 0.760845 1.3
      vertex -0.923187 1.59901 1.3
      vertex -0.340623 0.723861 1.3
    endloop
  endfacet
  facet normal 0 0 1
    outer loop
      vertex -0.774866 0.198952 1.3
      vertex -1.84639 0 1.3
      vertex -0.793692 0.100266 1.3
    endloop
  endfacet
  facet normal 0 0 1
    outer loop
      vertex -0.743821 0.294499 1.3
      vertex -1.84639 0 1.3
      vertex -0.774866 0.198952 1.3
    endloop
  endfacet
  facet normal 0 0 1
    outer loop
      vertex -0.701045 0.385403 1.3
      vertex -1.84639 0 1.3
      vertex -0.743821 0.294499 1.3
    endloop
  endfacet
  facet normal 0 0 1
    outer loop
      vertex -1.84639 0 1.3
      vertex -0.701045 0.385403 1.3
      vertex -0.923187 1.59901 1.3
    endloop
  endfacet
  facet normal 0 0 1
    outer loop
      vertex -0.647213 0.470228 1.3
      vertex -0.923187 1.59901 1.3
      vertex -0.701045 0.385403 1.3
    endloop
  endfacet
  facet normal 0 0 1
    outer loop
      vertex -0.583175 0.547637 1.3
      vertex -0.923187 1.59901 1.3
      vertex -0.647213 0.470228 1.3
    endloop
  endfacet
  facet normal 0 0 1
    outer loop
      vertex -0.509938 0.61641 1.3
      vertex -0.923187 1.59901 1.3
      vertex -0.583175 0.547637 1.3
    endloop
  endfacet
  facet normal 0 0 1
    outer loop
      vertex -0.428661 0.675462 1.3
      vertex -0.923187 1.59901 1.3
      vertex -0.509938 0.61641 1.3
    endloop
  endfacet
  facet normal 0 0 1
    outer loop
      vertex -0.340623 0.723861 1.3
      vertex -0.923187 1.59901 1.3
      vertex -0.428661 0.675462 1.3
    endloop
  endfacet
  facet normal 0 0 1
    outer loop
      vertex 0.774866 -0.198952 1.3
      vertex 1.84639 0 1.3
      vertex 0.793692 -0.100266 1.3
    endloop
  endfacet
  facet normal 0 0 1
    outer loop
      vertex 0.743821 -0.294499 1.3
      vertex 1.84639 0 1.3
      vertex 0.774866 -0.198952 1.3
    endloop
  endfacet
  facet normal 0 0 1
    outer loop
      vertex 0.701045 -0.385403 1.3
      vertex 1.84639 0 1.3
      vertex 0.743821 -0.294499 1.3
    endloop
  endfacet
  facet normal 0 0 1
    outer loop
      vertex 1.84639 0 1.3
      vertex 0.701045 -0.385403 1.3
      vertex 0.923187 -1.59901 1.3
    endloop
  endfacet
  facet normal -0 0 1
    outer loop
      vertex 0.647213 -0.470228 1.3
      vertex 0.923187 -1.59901 1.3
      vertex 0.701045 -0.385403 1.3
    endloop
  endfacet
  facet normal -0 0 1
    outer loop
      vertex 0.583175 -0.547637 1.3
      vertex 0.923187 -1.59901 1.3
      vertex 0.647213 -0.470228 1.3
    endloop
  endfacet
  facet normal -0 0 1
    outer loop
      vertex 0.509938 -0.61641 1.3
      vertex 0.923187 -1.59901 1.3
      vertex 0.583175 -0.547637 1.3
    endloop
  endfacet
  facet normal -0 0 1
    outer loop
      vertex 0.428661 -0.675462 1.3
      vertex 0.923187 -1.59901 1.3
      vertex 0.509938 -0.61641 1.3
    endloop
  endfacet
  facet normal -0 0 1
    outer loop
      vertex 0.340623 -0.723861 1.3
      vertex 0.923187 -1.59901 1.3
      vertex 0.428661 -0.675462 1.3
    endloop
  endfacet
  facet normal -0 0 1
    outer loop
      vertex 0.247213 -0.760845 1.3
      vertex 0.923187 -1.59901 1.3
      vertex 0.340623 -0.723861 1.3
    endloop
  endfacet
  facet normal -0 0 1
    outer loop
      vertex 0.149904 -0.78583 1.3
      vertex 0.923187 -1.59901 1.3
      vertex 0.247213 -0.760845 1.3
    endloop
  endfacet
  facet normal -0 0 1
    outer loop
      vertex 0.0502319 -0.798421 1.3
      vertex 0.923187 -1.59901 1.3
      vertex 0.149904 -0.78583 1.3
    endloop
  endfacet
  facet normal -0 0 1
    outer loop
      vertex -0.0502319 -0.798421 1.3
      vertex 0.923187 -1.59901 1.3
      vertex 0.0502319 -0.798421 1.3
    endloop
  endfacet
  facet normal 0 0 1
    outer loop
      vertex -0.923187 -1.59901 1.3
      vertex -0.0502319 -0.798421 1.3
      vertex -0.149904 -0.78583 1.3
    endloop
  endfacet
  facet normal 0 0 1
    outer loop
      vertex -0.923187 -1.59901 1.3
      vertex -0.149904 -0.78583 1.3
      vertex -0.247213 -0.760845 1.3
    endloop
  endfacet
  facet normal 0 0 1
    outer loop
      vertex -0.923187 -1.59901 1.3
      vertex -0.247213 -0.760845 1.3
      vertex -0.340623 -0.723861 1.3
    endloop
  endfacet
  facet normal 0 0 1
    outer loop
      vertex -0.923187 -1.59901 1.3
      vertex -0.340623 -0.723861 1.3
      vertex -0.428661 -0.675462 1.3
    endloop
  endfacet
  facet normal 0 0 1
    outer loop
      vertex -0.793692 0.100266 1.3
      vertex -1.84639 0 1.3
      vertex -0.799999 0 1.3
    endloop
  endfacet
  facet normal 0 0 1
    outer loop
      vertex -0.0502319 -0.798421 1.3
      vertex -0.923187 -1.59901 1.3
      vertex 0.923187 -1.59901 1.3
    endloop
  endfacet
  facet normal 0 0 1
    outer loop
      vertex -0.509938 -0.61641 1.3
      vertex -0.923187 -1.59901 1.3
      vertex -0.428661 -0.675462 1.3
    endloop
  endfacet
  facet normal 0 0 1
    outer loop
      vertex -0.583175 -0.547637 1.3
      vertex -0.923187 -1.59901 1.3
      vertex -0.509938 -0.61641 1.3
    endloop
  endfacet
  facet normal 0 0 1
    outer loop
      vertex -0.647213 -0.470228 1.3
      vertex -0.923187 -1.59901 1.3
      vertex -0.583175 -0.547637 1.3
    endloop
  endfacet
  facet normal 0 0 1
    outer loop
      vertex -0.701045 -0.385403 1.3
      vertex -0.923187 -1.59901 1.3
      vertex -0.647213 -0.470228 1.3
    endloop
  endfacet
  facet normal 0 0 1
    outer loop
      vertex -1.84639 0 1.3
      vertex -0.701045 -0.385403 1.3
      vertex -0.743821 -0.294499 1.3
    endloop
  endfacet
  facet normal 0 0 1
    outer loop
      vertex -1.84639 0 1.3
      vertex -0.743821 -0.294499 1.3
      vertex -0.774866 -0.198952 1.3
    endloop
  endfacet
  facet normal 0 0 1
    outer loop
      vertex -1.84639 0 1.3
      vertex -0.774866 -0.198952 1.3
      vertex -0.793692 -0.100266 1.3
    endloop
  endfacet
  facet normal 0 0 1
    outer loop
      vertex -0.799999 0 1.3
      vertex -1.84639 0 1.3
      vertex -0.793692 -0.100266 1.3
    endloop
  endfacet
  facet normal 0 0 1
    outer loop
      vertex -0.701045 -0.385403 1.3
      vertex -1.84639 0 1.3
      vertex -0.923187 -1.59901 1.3
    endloop
  endfacet
  facet normal 0 1 -0
    outer loop
      vertex 0.923187 1.59901 0
      vertex -0.923187 1.59901 1.3
      vertex 0.923187 1.59901 1.3
    endloop
  endfacet
  facet normal 0 1 0
    outer loop
      vertex -0.923187 1.59901 1.3
      vertex 0.923187 1.59901 0
      vertex -0.923187 1.59901 0
    endloop
  endfacet
  facet normal -0.998027 -0.0627786 3.83863e-19
    outer loop
      vertex 0.799999 0 0
      vertex 0.793692 0.100266 1.3
      vertex 0.793692 0.100266 0
    endloop
  endfacet
  facet normal -0.998027 -0.0627786 3.83863e-19
    outer loop
      vertex 0.793692 0.100266 1.3
      vertex 0.799999 0 0
      vertex 0.799999 0 1.3
    endloop
  endfacet
  facet normal 0.998027 -0.0627786 -3.83863e-19
    outer loop
      vertex -0.799999 0 1.3
      vertex -0.793692 0.100266 0
      vertex -0.793692 0.100266 1.3
    endloop
  endfacet
  facet normal 0.998027 -0.0627786 -3.83863e-19
    outer loop
      vertex -0.793692 0.100266 0
      vertex -0.799999 0 1.3
      vertex -0.799999 0 0
    endloop
  endfacet
  facet normal 0 -1 0
    outer loop
      vertex -0.0502319 0.798421 0
      vertex 0.0502319 0.798421 1.3
      vertex -0.0502319 0.798421 1.3
    endloop
  endfacet
  facet normal 0 -1 -0
    outer loop
      vertex 0.0502319 0.798421 1.3
      vertex -0.0502319 0.798421 0
      vertex 0.0502319 0.798421 0
    endloop
  endfacet
  facet normal 0 1 -0
    outer loop
      vertex 0.0502319 -0.798421 0
      vertex -0.0502319 -0.798421 1.3
      vertex 0.0502319 -0.798421 1.3
    endloop
  endfacet
  facet normal 0 1 0
    outer loop
      vertex -0.0502319 -0.798421 1.3
      vertex 0.0502319 -0.798421 0
      vertex -0.0502319 -0.798421 0
    endloop
  endfacet
  facet normal -0.770515 0.637422 1.39439e-19
    outer loop
      vertex 0.583175 -0.547637 0
      vertex 0.647213 -0.470228 1.3
      vertex 0.647213 -0.470228 0
    endloop
  endfacet
  facet normal -0.770515 0.637422 1.39439e-19
    outer loop
      vertex 0.647213 -0.470228 1.3
      vertex 0.583175 -0.547637 0
      vertex 0.583175 -0.547637 1.3
    endloop
  endfacet
  facet normal -0.684541 -0.728974 0
    outer loop
      vertex 0.509938 0.61641 0
      vertex 0.583175 0.547637 1.3
      vertex 0.509938 0.61641 1.3
    endloop
  endfacet
  facet normal -0.684541 -0.728974 -0
    outer loop
      vertex 0.583175 0.547637 1.3
      vertex 0.509938 0.61641 0
      vertex 0.583175 0.547637 0
    endloop
  endfacet
  facet normal 0.684541 -0.728974 0
    outer loop
      vertex -0.583175 0.547637 0
      vertex -0.509938 0.61641 1.3
      vertex -0.583175 0.547637 1.3
    endloop
  endfacet
  facet normal 0.684541 -0.728974 0
    outer loop
      vertex -0.509938 0.61641 1.3
      vertex -0.583175 0.547637 0
      vertex -0.509938 0.61641 0
    endloop
  endfacet
  facet normal 0.368128 -0.929775 0
    outer loop
      vertex -0.340623 0.723861 0
      vertex -0.247213 0.760845 1.3
      vertex -0.340623 0.723861 1.3
    endloop
  endfacet
  facet normal 0.368128 -0.929775 0
    outer loop
      vertex -0.247213 0.760845 1.3
      vertex -0.340623 0.723861 0
      vertex -0.247213 0.760845 0
    endloop
  endfacet
  facet normal -0.904828 -0.425778 1.06686e-18
    outer loop
      vertex 0.743821 0.294499 0
      vertex 0.701045 0.385403 1.3
      vertex 0.701045 0.385403 0
    endloop
  endfacet
  facet normal -0.904828 -0.425778 1.06686e-18
    outer loop
      vertex 0.701045 0.385403 1.3
      vertex 0.743821 0.294499 0
      vertex 0.743821 0.294499 1.3
    endloop
  endfacet
  facet normal -0.368128 -0.929775 0
    outer loop
      vertex 0.247213 0.760845 0
      vertex 0.340623 0.723861 1.3
      vertex 0.247213 0.760845 1.3
    endloop
  endfacet
  facet normal -0.368128 -0.929775 -0
    outer loop
      vertex 0.340623 0.723861 1.3
      vertex 0.247213 0.760845 0
      vertex 0.340623 0.723861 0
    endloop
  endfacet
  facet normal -0.248693 -0.968582 0
    outer loop
      vertex 0.149904 0.78583 0
      vertex 0.247213 0.760845 1.3
      vertex 0.149904 0.78583 1.3
    endloop
  endfacet
  facet normal -0.248693 -0.968582 -0
    outer loop
      vertex 0.247213 0.760845 1.3
      vertex 0.149904 0.78583 0
      vertex 0.247213 0.760845 0
    endloop
  endfacet
  facet normal -0.58779 -0.809013 0
    outer loop
      vertex 0.428661 0.675462 0
      vertex 0.509938 0.61641 1.3
      vertex 0.428661 0.675462 1.3
    endloop
  endfacet
  facet normal -0.58779 -0.809013 -0
    outer loop
      vertex 0.509938 0.61641 1.3
      vertex 0.428661 0.675462 0
      vertex 0.509938 0.61641 0
    endloop
  endfacet
  facet normal 0.844326 -0.53583 2.0559e-18
    outer loop
      vertex -0.701045 0.385403 1.3
      vertex -0.647213 0.470228 0
      vertex -0.647213 0.470228 1.3
    endloop
  endfacet
  facet normal 0.844326 -0.53583 2.0559e-18
    outer loop
      vertex -0.647213 0.470228 0
      vertex -0.701045 0.385403 1.3
      vertex -0.701045 0.385403 0
    endloop
  endfacet
  facet normal 0.770515 -0.637422 1.39439e-19
    outer loop
      vertex -0.647213 0.470228 1.3
      vertex -0.583175 0.547637 0
      vertex -0.583175 0.547637 1.3
    endloop
  endfacet
  facet normal 0.770515 -0.637422 1.39439e-19
    outer loop
      vertex -0.583175 0.547637 0
      vertex -0.647213 0.470228 1.3
      vertex -0.647213 0.470228 0
    endloop
  endfacet
  facet normal 0.481751 -0.876308 0
    outer loop
      vertex -0.428661 0.675462 0
      vertex -0.340623 0.723861 1.3
      vertex -0.428661 0.675462 1.3
    endloop
  endfacet
  facet normal 0.481751 -0.876308 0
    outer loop
      vertex -0.340623 0.723861 1.3
      vertex -0.428661 0.675462 0
      vertex -0.340623 0.723861 0
    endloop
  endfacet
  facet normal 0.248693 -0.968582 0
    outer loop
      vertex -0.247213 0.760845 0
      vertex -0.149904 0.78583 1.3
      vertex -0.247213 0.760845 1.3
    endloop
  endfacet
  facet normal 0.248693 -0.968582 0
    outer loop
      vertex -0.149904 0.78583 1.3
      vertex -0.247213 0.760845 0
      vertex -0.149904 0.78583 0
    endloop
  endfacet
  facet normal -0.368128 0.929775 0
    outer loop
      vertex 0.340623 -0.723861 0
      vertex 0.247213 -0.760845 1.3
      vertex 0.340623 -0.723861 1.3
    endloop
  endfacet
  facet normal -0.368128 0.929775 0
    outer loop
      vertex 0.247213 -0.760845 1.3
      vertex 0.340623 -0.723861 0
      vertex 0.247213 -0.760845 0
    endloop
  endfacet
  facet normal -0.951057 -0.309016 7.28002e-19
    outer loop
      vertex 0.774866 0.198952 0
      vertex 0.743821 0.294499 1.3
      vertex 0.743821 0.294499 0
    endloop
  endfacet
  facet normal -0.951057 -0.309016 7.28002e-19
    outer loop
      vertex 0.743821 0.294499 1.3
      vertex 0.774866 0.198952 0
      vertex 0.774866 0.198952 1.3
    endloop
  endfacet
  facet normal -0.982286 -0.187387 -2.29422e-19
    outer loop
      vertex 0.793692 0.100266 0
      vertex 0.774866 0.198952 1.3
      vertex 0.774866 0.198952 0
    endloop
  endfacet
  facet normal -0.982286 -0.187387 -2.29422e-19
    outer loop
      vertex 0.774866 0.198952 1.3
      vertex 0.793692 0.100266 0
      vertex 0.793692 0.100266 1.3
    endloop
  endfacet
  facet normal -0.770515 -0.637422 -1.39439e-19
    outer loop
      vertex 0.647213 0.470228 0
      vertex 0.583175 0.547637 1.3
      vertex 0.583175 0.547637 0
    endloop
  endfacet
  facet normal -0.770515 -0.637422 -1.39439e-19
    outer loop
      vertex 0.583175 0.547637 1.3
      vertex 0.647213 0.470228 0
      vertex 0.647213 0.470228 1.3
    endloop
  endfacet
  facet normal -0.844326 -0.53583 -2.0559e-18
    outer loop
      vertex 0.701045 0.385403 0
      vertex 0.647213 0.470228 1.3
      vertex 0.647213 0.470228 0
    endloop
  endfacet
  facet normal -0.844326 -0.53583 -2.0559e-18
    outer loop
      vertex 0.647213 0.470228 1.3
      vertex 0.701045 0.385403 0
      vertex 0.701045 0.385403 1.3
    endloop
  endfacet
  facet normal -0.125328 -0.992115 0
    outer loop
      vertex 0.0502319 0.798421 0
      vertex 0.149904 0.78583 1.3
      vertex 0.0502319 0.798421 1.3
    endloop
  endfacet
  facet normal -0.125328 -0.992115 -0
    outer loop
      vertex 0.149904 0.78583 1.3
      vertex 0.0502319 0.798421 0
      vertex 0.149904 0.78583 0
    endloop
  endfacet
  facet normal -0.481751 -0.876308 0
    outer loop
      vertex 0.340623 0.723861 0
      vertex 0.428661 0.675462 1.3
      vertex 0.340623 0.723861 1.3
    endloop
  endfacet
  facet normal -0.481751 -0.876308 -0
    outer loop
      vertex 0.428661 0.675462 1.3
      vertex 0.340623 0.723861 0
      vertex 0.428661 0.675462 0
    endloop
  endfacet
  facet normal 0.904828 -0.425778 -1.06686e-18
    outer loop
      vertex -0.743821 0.294499 1.3
      vertex -0.701045 0.385403 0
      vertex -0.701045 0.385403 1.3
    endloop
  endfacet
  facet normal 0.904828 -0.425778 -1.06686e-18
    outer loop
      vertex -0.701045 0.385403 0
      vertex -0.743821 0.294499 1.3
      vertex -0.743821 0.294499 0
    endloop
  endfacet
  facet normal 0.951057 -0.309016 -7.28002e-19
    outer loop
      vertex -0.774866 0.198952 1.3
      vertex -0.743821 0.294499 0
      vertex -0.743821 0.294499 1.3
    endloop
  endfacet
  facet normal 0.951057 -0.309016 -7.28002e-19
    outer loop
      vertex -0.743821 0.294499 0
      vertex -0.774866 0.198952 1.3
      vertex -0.774866 0.198952 0
    endloop
  endfacet
  facet normal 0.982286 -0.187387 2.29422e-19
    outer loop
      vertex -0.793692 0.100266 1.3
      vertex -0.774866 0.198952 0
      vertex -0.774866 0.198952 1.3
    endloop
  endfacet
  facet normal 0.982286 -0.187387 2.29422e-19
    outer loop
      vertex -0.774866 0.198952 0
      vertex -0.793692 0.100266 1.3
      vertex -0.793692 0.100266 0
    endloop
  endfacet
  facet normal 0.125328 -0.992115 0
    outer loop
      vertex -0.149904 0.78583 0
      vertex -0.0502319 0.798421 1.3
      vertex -0.149904 0.78583 1.3
    endloop
  endfacet
  facet normal 0.125328 -0.992115 0
    outer loop
      vertex -0.0502319 0.798421 1.3
      vertex -0.149904 0.78583 0
      vertex -0.0502319 0.798421 0
    endloop
  endfacet
  facet normal -0.998027 0.0627786 -3.83863e-19
    outer loop
      vertex 0.793692 -0.100266 0
      vertex 0.799999 0 1.3
      vertex 0.799999 0 0
    endloop
  endfacet
  facet normal -0.998027 0.0627786 -3.83863e-19
    outer loop
      vertex 0.799999 0 1.3
      vertex 0.793692 -0.100266 0
      vertex 0.793692 -0.100266 1.3
    endloop
  endfacet
  facet normal -0.951057 0.309016 -7.28002e-19
    outer loop
      vertex 0.743821 -0.294499 0
      vertex 0.774866 -0.198952 1.3
      vertex 0.774866 -0.198952 0
    endloop
  endfacet
  facet normal -0.951057 0.309016 -7.28002e-19
    outer loop
      vertex 0.774866 -0.198952 1.3
      vertex 0.743821 -0.294499 0
      vertex 0.743821 -0.294499 1.3
    endloop
  endfacet
  facet normal -0.982286 0.187387 2.29422e-19
    outer loop
      vertex 0.774866 -0.198952 0
      vertex 0.793692 -0.100266 1.3
      vertex 0.793692 -0.100266 0
    endloop
  endfacet
  facet normal -0.982286 0.187387 2.29422e-19
    outer loop
      vertex 0.793692 -0.100266 1.3
      vertex 0.774866 -0.198952 0
      vertex 0.774866 -0.198952 1.3
    endloop
  endfacet
  facet normal 0.368128 0.929775 -0
    outer loop
      vertex -0.247213 -0.760845 0
      vertex -0.340623 -0.723861 1.3
      vertex -0.247213 -0.760845 1.3
    endloop
  endfacet
  facet normal 0.368128 0.929775 0
    outer loop
      vertex -0.340623 -0.723861 1.3
      vertex -0.247213 -0.760845 0
      vertex -0.340623 -0.723861 0
    endloop
  endfacet
  facet normal -0.125328 0.992115 0
    outer loop
      vertex 0.149904 -0.78583 0
      vertex 0.0502319 -0.798421 1.3
      vertex 0.149904 -0.78583 1.3
    endloop
  endfacet
  facet normal -0.125328 0.992115 0
    outer loop
      vertex 0.0502319 -0.798421 1.3
      vertex 0.149904 -0.78583 0
      vertex 0.0502319 -0.798421 0
    endloop
  endfacet
  facet normal -0.684541 0.728974 0
    outer loop
      vertex 0.583175 -0.547637 0
      vertex 0.509938 -0.61641 1.3
      vertex 0.583175 -0.547637 1.3
    endloop
  endfacet
  facet normal -0.684541 0.728974 0
    outer loop
      vertex 0.509938 -0.61641 1.3
      vertex 0.583175 -0.547637 0
      vertex 0.509938 -0.61641 0
    endloop
  endfacet
  facet normal -0.481751 0.876308 0
    outer loop
      vertex 0.428661 -0.675462 0
      vertex 0.340623 -0.723861 1.3
      vertex 0.428661 -0.675462 1.3
    endloop
  endfacet
  facet normal -0.481751 0.876308 0
    outer loop
      vertex 0.340623 -0.723861 1.3
      vertex 0.428661 -0.675462 0
      vertex 0.340623 -0.723861 0
    endloop
  endfacet
  facet normal 0.58779 -0.809013 0
    outer loop
      vertex -0.509938 0.61641 0
      vertex -0.428661 0.675462 1.3
      vertex -0.509938 0.61641 1.3
    endloop
  endfacet
  facet normal 0.58779 -0.809013 0
    outer loop
      vertex -0.428661 0.675462 1.3
      vertex -0.509938 0.61641 0
      vertex -0.428661 0.675462 0
    endloop
  endfacet
  facet normal 0.248693 0.968582 -0
    outer loop
      vertex -0.149904 -0.78583 0
      vertex -0.247213 -0.760845 1.3
      vertex -0.149904 -0.78583 1.3
    endloop
  endfacet
  facet normal 0.248693 0.968582 0
    outer loop
      vertex -0.247213 -0.760845 1.3
      vertex -0.149904 -0.78583 0
      vertex -0.247213 -0.760845 0
    endloop
  endfacet
  facet normal 0.770515 0.637422 -1.39439e-19
    outer loop
      vertex -0.583175 -0.547637 1.3
      vertex -0.647213 -0.470228 0
      vertex -0.647213 -0.470228 1.3
    endloop
  endfacet
  facet normal 0.770515 0.637422 -1.39439e-19
    outer loop
      vertex -0.647213 -0.470228 0
      vertex -0.583175 -0.547637 1.3
      vertex -0.583175 -0.547637 0
    endloop
  endfacet
  facet normal 0.904828 0.425778 1.06686e-18
    outer loop
      vertex -0.701045 -0.385403 1.3
      vertex -0.743821 -0.294499 0
      vertex -0.743821 -0.294499 1.3
    endloop
  endfacet
  facet normal 0.904828 0.425778 1.06686e-18
    outer loop
      vertex -0.743821 -0.294499 0
      vertex -0.701045 -0.385403 1.3
      vertex -0.701045 -0.385403 0
    endloop
  endfacet
  facet normal 0.998027 0.0627786 3.83863e-19
    outer loop
      vertex -0.793692 -0.100266 1.3
      vertex -0.799999 0 0
      vertex -0.799999 0 1.3
    endloop
  endfacet
  facet normal 0.998027 0.0627786 3.83863e-19
    outer loop
      vertex -0.799999 0 0
      vertex -0.793692 -0.100266 1.3
      vertex -0.793692 -0.100266 0
    endloop
  endfacet
  facet normal 0.982286 0.187387 -2.29422e-19
    outer loop
      vertex -0.774866 -0.198952 1.3
      vertex -0.793692 -0.100266 0
      vertex -0.793692 -0.100266 1.3
    endloop
  endfacet
  facet normal 0.982286 0.187387 -2.29422e-19
    outer loop
      vertex -0.793692 -0.100266 0
      vertex -0.774866 -0.198952 1.3
      vertex -0.774866 -0.198952 0
    endloop
  endfacet
  facet normal 0.951057 0.309016 7.28002e-19
    outer loop
      vertex -0.743821 -0.294499 1.3
      vertex -0.774866 -0.198952 0
      vertex -0.774866 -0.198952 1.3
    endloop
  endfacet
  facet normal 0.951057 0.309016 7.28002e-19
    outer loop
      vertex -0.774866 -0.198952 0
      vertex -0.743821 -0.294499 1.3
      vertex -0.743821 -0.294499 0
    endloop
  endfacet
  facet normal -0.58779 0.809013 0
    outer loop
      vertex 0.509938 -0.61641 0
      vertex 0.428661 -0.675462 1.3
      vertex 0.509938 -0.61641 1.3
    endloop
  endfacet
  facet normal -0.58779 0.809013 0
    outer loop
      vertex 0.428661 -0.675462 1.3
      vertex 0.509938 -0.61641 0
      vertex 0.428661 -0.675462 0
    endloop
  endfacet
  facet normal -0.904828 0.425778 -1.06686e-18
    outer loop
      vertex 0.701045 -0.385403 0
      vertex 0.743821 -0.294499 1.3
      vertex 0.743821 -0.294499 0
    endloop
  endfacet
  facet normal -0.904828 0.425778 -1.06686e-18
    outer loop
      vertex 0.743821 -0.294499 1.3
      vertex 0.701045 -0.385403 0
      vertex 0.701045 -0.385403 1.3
    endloop
  endfacet
  facet normal -0.844326 0.53583 2.0559e-18
    outer loop
      vertex 0.647213 -0.470228 0
      vertex 0.701045 -0.385403 1.3
      vertex 0.701045 -0.385403 0
    endloop
  endfacet
  facet normal -0.844326 0.53583 2.0559e-18
    outer loop
      vertex 0.701045 -0.385403 1.3
      vertex 0.647213 -0.470228 0
      vertex 0.647213 -0.470228 1.3
    endloop
  endfacet
  facet normal 0.125328 0.992115 -0
    outer loop
      vertex -0.0502319 -0.798421 0
      vertex -0.149904 -0.78583 1.3
      vertex -0.0502319 -0.798421 1.3
    endloop
  endfacet
  facet normal 0.125328 0.992115 0
    outer loop
      vertex -0.149904 -0.78583 1.3
      vertex -0.0502319 -0.798421 0
      vertex -0.149904 -0.78583 0
    endloop
  endfacet
  facet normal 0.481751 0.876308 -0
    outer loop
      vertex -0.340623 -0.723861 0
      vertex -0.428661 -0.675462 1.3
      vertex -0.340623 -0.723861 1.3
    endloop
  endfacet
  facet normal 0.481751 0.876308 0
    outer loop
      vertex -0.428661 -0.675462 1.3
      vertex -0.340623 -0.723861 0
      vertex -0.428661 -0.675462 0
    endloop
  endfacet
  facet normal 0.844326 0.53583 -2.0559e-18
    outer loop
      vertex -0.647213 -0.470228 1.3
      vertex -0.701045 -0.385403 0
      vertex -0.701045 -0.385403 1.3
    endloop
  endfacet
  facet normal 0.844326 0.53583 -2.0559e-18
    outer loop
      vertex -0.701045 -0.385403 0
      vertex -0.647213 -0.470228 1.3
      vertex -0.647213 -0.470228 0
    endloop
  endfacet
  facet normal -0.248693 0.968582 0
    outer loop
      vertex 0.247213 -0.760845 0
      vertex 0.149904 -0.78583 1.3
      vertex 0.247213 -0.760845 1.3
    endloop
  endfacet
  facet normal -0.248693 0.968582 0
    outer loop
      vertex 0.149904 -0.78583 1.3
      vertex 0.247213 -0.760845 0
      vertex 0.149904 -0.78583 0
    endloop
  endfacet
  facet normal 0.684541 0.728974 -0
    outer loop
      vertex -0.509938 -0.61641 0
      vertex -0.583175 -0.547637 1.3
      vertex -0.509938 -0.61641 1.3
    endloop
  endfacet
  facet normal 0.684541 0.728974 0
    outer loop
      vertex -0.583175 -0.547637 1.3
      vertex -0.509938 -0.61641 0
      vertex -0.583175 -0.547637 0
    endloop
  endfacet
  facet normal 0.58779 0.809013 -0
    outer loop
      vertex -0.428661 -0.675462 0
      vertex -0.509938 -0.61641 1.3
      vertex -0.428661 -0.675462 1.3
    endloop
  endfacet
  facet normal 0.58779 0.809013 0
    outer loop
      vertex -0.509938 -0.61641 1.3
      vertex -0.428661 -0.675462 0
      vertex -0.509938 -0.61641 0
    endloop
  endfacet
endsolid OpenSCAD_Model
