<?xml version="1.0" standalone="no"?>
<!DOCTYPE svg PUBLIC "-//W3C//DTD SVG 1.1//EN" "http://www.w3.org/Graphics/SVG/1.1/DTD/svg11.dtd">
<svg width="180mm" height="208mm" viewBox="-90 -347 180 208" xmlns="http://www.w3.org/2000/svg" version="1.1">
<title>OpenSCAD Model</title>
<path d="
M 85.9369,-301.589 L 86.5451,-301.745 L 87.1289,-301.976 L 87.6791,-302.278 L 88.1871,-302.647 L 88.6448,-303.077
 L 89.0451,-303.561 L 89.3815,-304.091 L 89.6489,-304.659 L 89.8429,-305.257 L 89.9606,-305.873 L 90,-306.5
 L 90,-341.5 L 89.9606,-342.127 L 89.8429,-342.743 L 89.6489,-343.341 L 89.3815,-343.909 L 89.0451,-344.439
 L 88.6448,-344.923 L 88.1871,-345.353 L 87.6791,-345.722 L 87.1289,-346.024 L 86.5451,-346.255 L 85.9369,-346.411
 L 85.3139,-346.49 L -85.3139,-346.49 L -85.9369,-346.411 L -86.5451,-346.255 L -87.1289,-346.024 L -87.6791,-345.722
 L -88.1871,-345.353 L -88.6448,-344.923 L -89.0451,-344.439 L -89.3815,-343.909 L -89.6489,-343.341 L -89.8429,-342.743
 L -89.9606,-342.127 L -90,-341.5 L -90,-306.5 L -89.9606,-305.873 L -89.8429,-305.257 L -89.6489,-304.659
 L -89.3815,-304.091 L -89.0451,-303.561 L -88.6448,-303.077 L -88.1871,-302.647 L -87.6791,-302.278 L -87.1289,-301.976
 L -86.5451,-301.745 L -85.9369,-301.589 L -85.3139,-301.51 L 85.3139,-301.51 z
M -85.0482,-302.009 L -85.6401,-302.084 L -86.2178,-302.232 L -86.7724,-302.452 L -87.2952,-302.739 L -87.7778,-303.09
 L -88.2126,-303.498 L -88.5928,-303.958 L -88.9125,-304.462 L -89.1664,-305.001 L -89.3508,-305.569 L -89.4625,-306.155
 L -89.5,-306.75 L -89.5,-341.25 L -89.4625,-341.845 L -89.3508,-342.431 L -89.1664,-342.999 L -88.9125,-343.538
 L -88.5928,-344.042 L -88.2126,-344.502 L -87.7778,-344.91 L -87.2952,-345.261 L -86.7724,-345.548 L -86.2178,-345.768
 L -85.6401,-345.916 L -85.0482,-345.991 L 85.0482,-345.991 L 85.6401,-345.916 L 86.2178,-345.768 L 86.7724,-345.548
 L 87.2952,-345.261 L 87.7778,-344.91 L 88.2126,-344.502 L 88.5928,-344.042 L 88.9125,-343.538 L 89.1664,-342.999
 L 89.3508,-342.431 L 89.4625,-341.845 L 89.5,-341.25 L 89.5,-306.75 L 89.4625,-306.155 L 89.3508,-305.569
 L 89.1664,-305.001 L 88.9125,-304.462 L 88.5928,-303.958 L 88.2126,-303.498 L 87.7778,-303.09 L 87.2952,-302.739
 L 86.7724,-302.452 L 86.2178,-302.232 L 85.6401,-302.084 L 85.0482,-302.009 z
M 85.9369,-247.589 L 86.5451,-247.745 L 87.1289,-247.976 L 87.6791,-248.278 L 88.1871,-248.647 L 88.6448,-249.077
 L 89.0451,-249.561 L 89.3815,-250.091 L 89.6489,-250.659 L 89.8429,-251.257 L 89.9606,-251.873 L 90,-252.5
 L 90,-287.5 L 89.9606,-288.127 L 89.8429,-288.743 L 89.6489,-289.341 L 89.3815,-289.909 L 89.0451,-290.439
 L 88.6448,-290.923 L 88.1871,-291.353 L 87.6791,-291.722 L 87.1289,-292.024 L 86.5451,-292.255 L 85.9369,-292.411
 L 85.3139,-292.49 L -85.3139,-292.49 L -85.9369,-292.411 L -86.5451,-292.255 L -87.1289,-292.024 L -87.6791,-291.722
 L -88.1871,-291.353 L -88.6448,-290.923 L -89.0451,-290.439 L -89.3815,-289.909 L -89.6489,-289.341 L -89.8429,-288.743
 L -89.9606,-288.127 L -90,-287.5 L -90,-252.5 L -89.9606,-251.873 L -89.8429,-251.257 L -89.6489,-250.659
 L -89.3815,-250.091 L -89.0451,-249.561 L -88.6448,-249.077 L -88.1871,-248.647 L -87.6791,-248.278 L -87.1289,-247.976
 L -86.5451,-247.745 L -85.9369,-247.589 L -85.3139,-247.51 L 85.3139,-247.51 z
M -85.0482,-248.009 L -85.6401,-248.084 L -86.2178,-248.232 L -86.7724,-248.452 L -87.2952,-248.739 L -87.7778,-249.09
 L -88.2126,-249.498 L -88.5928,-249.958 L -88.9125,-250.462 L -89.1664,-251.001 L -89.3508,-251.569 L -89.4625,-252.155
 L -89.5,-252.75 L -89.5,-287.25 L -89.4625,-287.845 L -89.3508,-288.431 L -89.1664,-288.999 L -88.9125,-289.538
 L -88.5928,-290.042 L -88.2126,-290.502 L -87.7778,-290.91 L -87.2952,-291.261 L -86.7724,-291.548 L -86.2178,-291.768
 L -85.6401,-291.916 L -85.0482,-291.991 L 85.0482,-291.991 L 85.6401,-291.916 L 86.2178,-291.768 L 86.7724,-291.548
 L 87.2952,-291.261 L 87.7778,-290.91 L 88.2126,-290.502 L 88.5928,-290.042 L 88.9125,-289.538 L 89.1664,-288.999
 L 89.3508,-288.431 L 89.4625,-287.845 L 89.5,-287.25 L 89.5,-252.75 L 89.4625,-252.155 L 89.3508,-251.569
 L 89.1664,-251.001 L 88.9125,-250.462 L 88.5928,-249.958 L 88.2126,-249.498 L 87.7778,-249.09 L 87.2952,-248.739
 L 86.7724,-248.452 L 86.2178,-248.232 L 85.6401,-248.084 L 85.0482,-248.009 z
M 85.9369,-193.589 L 86.5451,-193.745 L 87.1289,-193.976 L 87.6791,-194.278 L 88.1871,-194.647 L 88.6448,-195.077
 L 89.0451,-195.561 L 89.3815,-196.091 L 89.6489,-196.659 L 89.8429,-197.257 L 89.9606,-197.873 L 90,-198.5
 L 90,-233.5 L 89.9606,-234.127 L 89.8429,-234.743 L 89.6489,-235.341 L 89.3815,-235.909 L 89.0451,-236.439
 L 88.6448,-236.923 L 88.1871,-237.353 L 87.6791,-237.722 L 87.1289,-238.024 L 86.5451,-238.255 L 85.9369,-238.411
 L 85.3139,-238.49 L -85.3139,-238.49 L -85.9369,-238.411 L -86.5451,-238.255 L -87.1289,-238.024 L -87.6791,-237.722
 L -88.1871,-237.353 L -88.6448,-236.923 L -89.0451,-236.439 L -89.3815,-235.909 L -89.6489,-235.341 L -89.8429,-234.743
 L -89.9606,-234.127 L -90,-233.5 L -90,-198.5 L -89.9606,-197.873 L -89.8429,-197.257 L -89.6489,-196.659
 L -89.3815,-196.091 L -89.0451,-195.561 L -88.6448,-195.077 L -88.1871,-194.647 L -87.6791,-194.278 L -87.1289,-193.976
 L -86.5451,-193.745 L -85.9369,-193.589 L -85.3139,-193.51 L 85.3139,-193.51 z
M -84.993,-194.888 L -85.4751,-194.949 L -85.9457,-195.07 L -86.3975,-195.249 L -86.8234,-195.483 L -87.2165,-195.769
 L -87.5707,-196.101 L -87.8805,-196.476 L -88.1408,-196.886 L -88.3477,-197.326 L -88.4979,-197.788 L -88.589,-198.265
 L -88.6195,-198.75 L -88.6195,-233.25 L -88.589,-233.735 L -88.4979,-234.212 L -88.3477,-234.674 L -88.1408,-235.114
 L -87.8805,-235.524 L -87.5707,-235.899 L -87.2165,-236.231 L -86.8234,-236.517 L -86.3975,-236.751 L -85.9457,-236.93
 L -85.4751,-237.051 L -84.993,-237.112 L 84.993,-237.112 L 85.4751,-237.051 L 85.9457,-236.93 L 86.3975,-236.751
 L 86.8234,-236.517 L 87.2165,-236.231 L 87.5707,-235.899 L 87.8805,-235.524 L 88.1408,-235.114 L 88.3477,-234.674
 L 88.4979,-234.212 L 88.589,-233.735 L 88.6195,-233.25 L 88.6195,-198.75 L 88.589,-198.265 L 88.4979,-197.788
 L 88.3477,-197.326 L 88.1408,-196.886 L 87.8805,-196.476 L 87.5707,-196.101 L 87.2165,-195.769 L 86.8234,-195.483
 L 86.3975,-195.249 L 85.9457,-195.07 L 85.4751,-194.949 L 84.993,-194.888 z
M 85.9369,-139.589 L 86.5451,-139.745 L 87.1289,-139.976 L 87.6791,-140.278 L 88.1871,-140.647 L 88.6448,-141.077
 L 89.0451,-141.561 L 89.3815,-142.091 L 89.6489,-142.659 L 89.8429,-143.257 L 89.9606,-143.873 L 90,-144.5
 L 90,-179.5 L 89.9606,-180.127 L 89.8429,-180.743 L 89.6489,-181.341 L 89.3815,-181.909 L 89.0451,-182.439
 L 88.6448,-182.923 L 88.1871,-183.353 L 87.6791,-183.722 L 87.1289,-184.024 L 86.5451,-184.255 L 85.9369,-184.411
 L 85.3139,-184.49 L -85.3139,-184.49 L -85.9369,-184.411 L -86.5451,-184.255 L -87.1289,-184.024 L -87.6791,-183.722
 L -88.1871,-183.353 L -88.6448,-182.923 L -89.0451,-182.439 L -89.3815,-181.909 L -89.6489,-181.341 L -89.8429,-180.743
 L -89.9606,-180.127 L -90,-179.5 L -90,-144.5 L -89.9606,-143.873 L -89.8429,-143.257 L -89.6489,-142.659
 L -89.3815,-142.091 L -89.0451,-141.561 L -88.6448,-141.077 L -88.1871,-140.647 L -87.6791,-140.278 L -87.1289,-139.976
 L -86.5451,-139.745 L -85.9369,-139.589 L -85.3139,-139.51 L 85.3139,-139.51 z
M -82.613,-175.204 L -82.8373,-175.232 L -83.0562,-175.288 L -83.2664,-175.371 L -83.4645,-175.48 L -83.6474,-175.613
 L -83.8121,-175.768 L -83.9562,-175.942 L -84.0773,-176.133 L -84.1736,-176.337 L -84.2434,-176.552 L -84.2858,-176.774
 L -84.3,-177 L -84.2858,-177.226 L -84.2434,-177.448 L -84.1736,-177.663 L -84.0773,-177.867 L -83.9562,-178.058
 L -83.8121,-178.232 L -83.6474,-178.387 L -83.4645,-178.52 L -83.2664,-178.629 L -83.0562,-178.712 L -82.8373,-178.768
 L -82.613,-178.796 L -82.387,-178.796 L -82.1627,-178.768 L -81.9438,-178.712 L -81.7336,-178.629 L -81.5355,-178.52
 L -81.3526,-178.387 L -81.1879,-178.232 L -81.0438,-178.058 L -80.9226,-177.867 L -80.8264,-177.663 L -80.7565,-177.448
 L -80.7142,-177.226 L -80.7,-177 L -80.7142,-176.774 L -80.7565,-176.552 L -80.8264,-176.337 L -80.9226,-176.133
 L -81.0438,-175.942 L -81.1879,-175.768 L -81.3526,-175.613 L -81.5355,-175.48 L -81.7336,-175.371 L -81.9438,-175.288
 L -82.1627,-175.232 L -82.387,-175.204 z
M 82.387,-175.204 L 82.1627,-175.232 L 81.9438,-175.288 L 81.7336,-175.371 L 81.5355,-175.48 L 81.3526,-175.613
 L 81.1879,-175.768 L 81.0438,-175.942 L 80.9226,-176.133 L 80.8264,-176.337 L 80.7565,-176.552 L 80.7142,-176.774
 L 80.7,-177 L 80.7142,-177.226 L 80.7565,-177.448 L 80.8264,-177.663 L 80.9226,-177.867 L 81.0438,-178.058
 L 81.1879,-178.232 L 81.3526,-178.387 L 81.5355,-178.52 L 81.7336,-178.629 L 81.9438,-178.712 L 82.1627,-178.768
 L 82.387,-178.796 L 82.613,-178.796 L 82.8373,-178.768 L 83.0562,-178.712 L 83.2664,-178.629 L 83.4645,-178.52
 L 83.6474,-178.387 L 83.8121,-178.232 L 83.9562,-178.058 L 84.0773,-177.867 L 84.1736,-177.663 L 84.2434,-177.448
 L 84.2858,-177.226 L 84.3,-177 L 84.2858,-176.774 L 84.2434,-176.552 L 84.1736,-176.337 L 84.0773,-176.133
 L 83.9562,-175.942 L 83.8121,-175.768 L 83.6474,-175.613 L 83.4645,-175.48 L 83.2664,-175.371 L 83.0562,-175.288
 L 82.8373,-175.232 L 82.613,-175.204 z
M 82.387,-145.204 L 82.1627,-145.232 L 81.9438,-145.288 L 81.7336,-145.371 L 81.5355,-145.48 L 81.3526,-145.613
 L 81.1879,-145.768 L 81.0438,-145.942 L 80.9226,-146.133 L 80.8264,-146.337 L 80.7565,-146.552 L 80.7142,-146.774
 L 80.7,-147 L 80.7142,-147.226 L 80.7565,-147.448 L 80.8264,-147.663 L 80.9226,-147.867 L 81.0438,-148.058
 L 81.1879,-148.232 L 81.3526,-148.387 L 81.5355,-148.52 L 81.7336,-148.629 L 81.9438,-148.712 L 82.1627,-148.768
 L 82.387,-148.796 L 82.613,-148.796 L 82.8373,-148.768 L 83.0562,-148.712 L 83.2664,-148.629 L 83.4645,-148.52
 L 83.6474,-148.387 L 83.8121,-148.232 L 83.9562,-148.058 L 84.0773,-147.867 L 84.1736,-147.663 L 84.2434,-147.448
 L 84.2858,-147.226 L 84.3,-147 L 84.2858,-146.774 L 84.2434,-146.552 L 84.1736,-146.337 L 84.0773,-146.133
 L 83.9562,-145.942 L 83.8121,-145.768 L 83.6474,-145.613 L 83.4645,-145.48 L 83.2664,-145.371 L 83.0562,-145.288
 L 82.8373,-145.232 L 82.613,-145.204 z
M -82.613,-145.204 L -82.8373,-145.232 L -83.0562,-145.288 L -83.2664,-145.371 L -83.4645,-145.48 L -83.6474,-145.613
 L -83.8121,-145.768 L -83.9562,-145.942 L -84.0773,-146.133 L -84.1736,-146.337 L -84.2434,-146.552 L -84.2858,-146.774
 L -84.3,-147 L -84.2858,-147.226 L -84.2434,-147.448 L -84.1736,-147.663 L -84.0773,-147.867 L -83.9562,-148.058
 L -83.8121,-148.232 L -83.6474,-148.387 L -83.4645,-148.52 L -83.2664,-148.629 L -83.0562,-148.712 L -82.8373,-148.768
 L -82.613,-148.796 L -82.387,-148.796 L -82.1627,-148.768 L -81.9438,-148.712 L -81.7336,-148.629 L -81.5355,-148.52
 L -81.3526,-148.387 L -81.1879,-148.232 L -81.0438,-148.058 L -80.9226,-147.867 L -80.8264,-147.663 L -80.7565,-147.448
 L -80.7142,-147.226 L -80.7,-147 L -80.7142,-146.774 L -80.7565,-146.552 L -80.8264,-146.337 L -80.9226,-146.133
 L -81.0438,-145.942 L -81.1879,-145.768 L -81.3526,-145.613 L -81.5355,-145.48 L -81.7336,-145.371 L -81.9438,-145.288
 L -82.1627,-145.232 L -82.387,-145.204 z
" stroke="black" fill="lightgray" stroke-width="0.5"/>
</svg>
