solid OpenSCAD_Model
  facet normal 0.998027 0.0627939 0
    outer loop
      vertex 7 0 1.5
      vertex 6.9448 0.877332 -1.5
      vertex 6.9448 0.877332 1.5
    endloop
  endfacet
  facet normal 0.998027 0.0627939 0
    outer loop
      vertex 6.9448 0.877332 -1.5
      vertex 7 0 1.5
      vertex 7 0 -1.5
    endloop
  endfacet
  facet normal -0.998027 0.0627939 0
    outer loop
      vertex -7 0 -1.5
      vertex -6.9448 0.877332 1.5
      vertex -6.9448 0.877332 -1.5
    endloop
  endfacet
  facet normal -0.998027 0.0627939 0
    outer loop
      vertex -6.9448 0.877332 1.5
      vertex -7 0 -1.5
      vertex -7 0 1.5
    endloop
  endfacet
  facet normal 0 1 -0
    outer loop
      vertex 0.439533 6.98619 -1.5
      vertex -0.439533 6.98619 1.5
      vertex 0.439533 6.98619 1.5
    endloop
  endfacet
  facet normal 0 1 0
    outer loop
      vertex -0.439533 6.98619 1.5
      vertex 0.439533 6.98619 -1.5
      vertex -0.439533 6.98619 -1.5
    endloop
  endfacet
  facet normal 0 -1 0
    outer loop
      vertex -0.439533 -6.98619 -1.5
      vertex 0.439533 -6.98619 1.5
      vertex -0.439533 -6.98619 1.5
    endloop
  endfacet
  facet normal 0 -1 -0
    outer loop
      vertex 0.439533 -6.98619 1.5
      vertex -0.439533 -6.98619 -1.5
      vertex 0.439533 -6.98619 -1.5
    endloop
  endfacet
  facet normal 0.684547 0.728969 -0
    outer loop
      vertex 5.10278 4.79183 -1.5
      vertex 4.46197 5.39359 1.5
      vertex 5.10278 4.79183 1.5
    endloop
  endfacet
  facet normal 0.684547 0.728969 0
    outer loop
      vertex 4.46197 5.39359 1.5
      vertex 5.10278 4.79183 -1.5
      vertex 4.46197 5.39359 -1.5
    endloop
  endfacet
  facet normal -0.684547 0.728969 0
    outer loop
      vertex -4.46197 5.39359 -1.5
      vertex -5.10278 4.79183 1.5
      vertex -4.46197 5.39359 1.5
    endloop
  endfacet
  facet normal -0.684547 0.728969 0
    outer loop
      vertex -5.10278 4.79183 1.5
      vertex -4.46197 5.39359 -1.5
      vertex -5.10278 4.79183 -1.5
    endloop
  endfacet
  facet normal -0.368131 0.929774 0
    outer loop
      vertex -2.16312 6.6574 -1.5
      vertex -2.98045 6.33379 1.5
      vertex -2.16312 6.6574 1.5
    endloop
  endfacet
  facet normal -0.368131 0.929774 0
    outer loop
      vertex -2.98045 6.33379 1.5
      vertex -2.16312 6.6574 -1.5
      vertex -2.98045 6.33379 -1.5
    endloop
  endfacet
  facet normal 0.904828 0.425778 0
    outer loop
      vertex 6.50844 2.57687 1.5
      vertex 6.13415 3.37228 -1.5
      vertex 6.13415 3.37228 1.5
    endloop
  endfacet
  facet normal 0.904828 0.425778 0
    outer loop
      vertex 6.13415 3.37228 -1.5
      vertex 6.50844 2.57687 1.5
      vertex 6.50844 2.57687 -1.5
    endloop
  endfacet
  facet normal 0.982287 0.18738 0
    outer loop
      vertex 6.9448 0.877332 1.5
      vertex 6.78008 1.74083 -1.5
      vertex 6.78008 1.74083 1.5
    endloop
  endfacet
  facet normal 0.982287 0.18738 0
    outer loop
      vertex 6.78008 1.74083 -1.5
      vertex 6.9448 0.877332 1.5
      vertex 6.9448 0.877332 -1.5
    endloop
  endfacet
  facet normal 0.368131 0.929774 -0
    outer loop
      vertex 2.98045 6.33379 -1.5
      vertex 2.16312 6.6574 1.5
      vertex 2.98045 6.33379 1.5
    endloop
  endfacet
  facet normal 0.368131 0.929774 0
    outer loop
      vertex 2.16312 6.6574 1.5
      vertex 2.98045 6.33379 -1.5
      vertex 2.16312 6.6574 -1.5
    endloop
  endfacet
  facet normal 0.481755 0.876306 -0
    outer loop
      vertex 3.75079 5.91029 -1.5
      vertex 2.98045 6.33379 1.5
      vertex 3.75079 5.91029 1.5
    endloop
  endfacet
  facet normal 0.481755 0.876306 0
    outer loop
      vertex 2.98045 6.33379 1.5
      vertex 3.75079 5.91029 -1.5
      vertex 2.98045 6.33379 -1.5
    endloop
  endfacet
  facet normal -0.904828 0.425778 0
    outer loop
      vertex -6.50844 2.57687 -1.5
      vertex -6.13415 3.37228 1.5
      vertex -6.13415 3.37228 -1.5
    endloop
  endfacet
  facet normal -0.904828 0.425778 0
    outer loop
      vertex -6.13415 3.37228 1.5
      vertex -6.50844 2.57687 -1.5
      vertex -6.50844 2.57687 1.5
    endloop
  endfacet
  facet normal -0.951058 0.309011 0
    outer loop
      vertex -6.78008 1.74083 -1.5
      vertex -6.50844 2.57687 1.5
      vertex -6.50844 2.57687 -1.5
    endloop
  endfacet
  facet normal -0.951058 0.309011 0
    outer loop
      vertex -6.50844 2.57687 1.5
      vertex -6.78008 1.74083 -1.5
      vertex -6.78008 1.74083 1.5
    endloop
  endfacet
  facet normal -0.248684 0.968585 0
    outer loop
      vertex -1.31167 6.87601 -1.5
      vertex -2.16312 6.6574 1.5
      vertex -1.31167 6.87601 1.5
    endloop
  endfacet
  facet normal -0.248684 0.968585 0
    outer loop
      vertex -2.16312 6.6574 1.5
      vertex -1.31167 6.87601 -1.5
      vertex -2.16312 6.6574 -1.5
    endloop
  endfacet
  facet normal 0.951058 0.309011 0
    outer loop
      vertex 6.78008 1.74083 1.5
      vertex 6.50844 2.57687 -1.5
      vertex 6.50844 2.57687 1.5
    endloop
  endfacet
  facet normal 0.951058 0.309011 0
    outer loop
      vertex 6.50844 2.57687 -1.5
      vertex 6.78008 1.74083 1.5
      vertex 6.78008 1.74083 -1.5
    endloop
  endfacet
  facet normal 0.770511 0.637427 0
    outer loop
      vertex 5.66312 4.1145 1.5
      vertex 5.10278 4.79183 -1.5
      vertex 5.10278 4.79183 1.5
    endloop
  endfacet
  facet normal 0.770511 0.637427 0
    outer loop
      vertex 5.10278 4.79183 -1.5
      vertex 5.66312 4.1145 1.5
      vertex 5.66312 4.1145 -1.5
    endloop
  endfacet
  facet normal 0.844326 0.535829 0
    outer loop
      vertex 6.13415 3.37228 1.5
      vertex 5.66312 4.1145 -1.5
      vertex 5.66312 4.1145 1.5
    endloop
  endfacet
  facet normal 0.844326 0.535829 0
    outer loop
      vertex 5.66312 4.1145 -1.5
      vertex 6.13415 3.37228 1.5
      vertex 6.13415 3.37228 -1.5
    endloop
  endfacet
  facet normal 0.248684 0.968585 -0
    outer loop
      vertex 2.16312 6.6574 -1.5
      vertex 1.31167 6.87601 1.5
      vertex 2.16312 6.6574 1.5
    endloop
  endfacet
  facet normal 0.248684 0.968585 0
    outer loop
      vertex 1.31167 6.87601 1.5
      vertex 2.16312 6.6574 -1.5
      vertex 1.31167 6.87601 -1.5
    endloop
  endfacet
  facet normal 0.125337 0.992114 -0
    outer loop
      vertex 1.31167 6.87601 -1.5
      vertex 0.439533 6.98619 1.5
      vertex 1.31167 6.87601 1.5
    endloop
  endfacet
  facet normal 0.125337 0.992114 0
    outer loop
      vertex 0.439533 6.98619 1.5
      vertex 1.31167 6.87601 -1.5
      vertex 0.439533 6.98619 -1.5
    endloop
  endfacet
  facet normal 0.587783 0.809018 -0
    outer loop
      vertex 4.46197 5.39359 -1.5
      vertex 3.75079 5.91029 1.5
      vertex 4.46197 5.39359 1.5
    endloop
  endfacet
  facet normal 0.587783 0.809018 0
    outer loop
      vertex 3.75079 5.91029 1.5
      vertex 4.46197 5.39359 -1.5
      vertex 3.75079 5.91029 -1.5
    endloop
  endfacet
  facet normal -0.844326 0.535829 0
    outer loop
      vertex -6.13415 3.37228 -1.5
      vertex -5.66312 4.1145 1.5
      vertex -5.66312 4.1145 -1.5
    endloop
  endfacet
  facet normal -0.844326 0.535829 0
    outer loop
      vertex -5.66312 4.1145 1.5
      vertex -6.13415 3.37228 -1.5
      vertex -6.13415 3.37228 1.5
    endloop
  endfacet
  facet normal -0.770511 0.637427 0
    outer loop
      vertex -5.66312 4.1145 -1.5
      vertex -5.10278 4.79183 1.5
      vertex -5.10278 4.79183 -1.5
    endloop
  endfacet
  facet normal -0.770511 0.637427 0
    outer loop
      vertex -5.10278 4.79183 1.5
      vertex -5.66312 4.1145 -1.5
      vertex -5.66312 4.1145 1.5
    endloop
  endfacet
  facet normal -0.982287 0.18738 0
    outer loop
      vertex -6.9448 0.877332 -1.5
      vertex -6.78008 1.74083 1.5
      vertex -6.78008 1.74083 -1.5
    endloop
  endfacet
  facet normal -0.982287 0.18738 0
    outer loop
      vertex -6.78008 1.74083 1.5
      vertex -6.9448 0.877332 -1.5
      vertex -6.9448 0.877332 1.5
    endloop
  endfacet
  facet normal 0 0 1
    outer loop
      vertex 1.5 0 1.5
      vertex 7 0 1.5
      vertex 6.9448 0.877332 1.5
    endloop
  endfacet
  facet normal 0 0 1
    outer loop
      vertex 1.48817 0.188 1.5
      vertex 6.9448 0.877332 1.5
      vertex 6.78008 1.74083 1.5
    endloop
  endfacet
  facet normal 0 0 1
    outer loop
      vertex 7 0 1.5
      vertex 1.5 0 1.5
      vertex 6.9448 -0.877332 1.5
    endloop
  endfacet
  facet normal 0 0 1
    outer loop
      vertex 1.45287 0.373034 1.5
      vertex 6.78008 1.74083 1.5
      vertex 6.50844 2.57687 1.5
    endloop
  endfacet
  facet normal -0 0 1
    outer loop
      vertex 1.48817 -0.188 1.5
      vertex 6.9448 -0.877332 1.5
      vertex 1.5 0 1.5
    endloop
  endfacet
  facet normal 0 0 1
    outer loop
      vertex 1.39466 0.552186 1.5
      vertex 6.50844 2.57687 1.5
      vertex 6.13415 3.37228 1.5
    endloop
  endfacet
  facet normal 0 0 1
    outer loop
      vertex 6.9448 -0.877332 1.5
      vertex 1.48817 -0.188 1.5
      vertex 6.78008 -1.74083 1.5
    endloop
  endfacet
  facet normal 0 0 1
    outer loop
      vertex 1.31446 0.722631 1.5
      vertex 6.13415 3.37228 1.5
      vertex 5.66312 4.1145 1.5
    endloop
  endfacet
  facet normal -0 0 1
    outer loop
      vertex 1.45287 -0.373034 1.5
      vertex 6.78008 -1.74083 1.5
      vertex 1.48817 -0.188 1.5
    endloop
  endfacet
  facet normal 0 0 1
    outer loop
      vertex 1.21352 0.881678 1.5
      vertex 5.66312 4.1145 1.5
      vertex 5.10278 4.79183 1.5
    endloop
  endfacet
  facet normal 0 0 1
    outer loop
      vertex 6.78008 -1.74083 1.5
      vertex 1.45287 -0.373034 1.5
      vertex 6.50844 -2.57687 1.5
    endloop
  endfacet
  facet normal 0 0 1
    outer loop
      vertex 1.09345 1.02682 1.5
      vertex 5.10278 4.79183 1.5
      vertex 4.46197 5.39359 1.5
    endloop
  endfacet
  facet normal -0 0 1
    outer loop
      vertex 1.39466 -0.552186 1.5
      vertex 6.50844 -2.57687 1.5
      vertex 1.45287 -0.373034 1.5
    endloop
  endfacet
  facet normal 0 0 1
    outer loop
      vertex 0.956136 1.15577 1.5
      vertex 4.46197 5.39359 1.5
      vertex 3.75079 5.91029 1.5
    endloop
  endfacet
  facet normal 0 0 1
    outer loop
      vertex 6.50844 -2.57687 1.5
      vertex 1.39466 -0.552186 1.5
      vertex 6.13415 -3.37228 1.5
    endloop
  endfacet
  facet normal 0 0 1
    outer loop
      vertex 0.80374 1.26649 1.5
      vertex 3.75079 5.91029 1.5
      vertex 2.98045 6.33379 1.5
    endloop
  endfacet
  facet normal -0 0 1
    outer loop
      vertex 1.31446 -0.722631 1.5
      vertex 6.13415 -3.37228 1.5
      vertex 1.39466 -0.552186 1.5
    endloop
  endfacet
  facet normal 0 0 1
    outer loop
      vertex 0.638668 1.35724 1.5
      vertex 2.98045 6.33379 1.5
      vertex 2.16312 6.6574 1.5
    endloop
  endfacet
  facet normal 0 0 1
    outer loop
      vertex 6.13415 -3.37228 1.5
      vertex 1.31446 -0.722631 1.5
      vertex 5.66312 -4.1145 1.5
    endloop
  endfacet
  facet normal -0 0 1
    outer loop
      vertex 1.21352 -0.881678 1.5
      vertex 5.66312 -4.1145 1.5
      vertex 1.31446 -0.722631 1.5
    endloop
  endfacet
  facet normal 0 0 1
    outer loop
      vertex 6.9448 0.877332 1.5
      vertex 1.48817 0.188 1.5
      vertex 1.5 0 1.5
    endloop
  endfacet
  facet normal 0 0 1
    outer loop
      vertex 6.78008 1.74083 1.5
      vertex 1.45287 0.373034 1.5
      vertex 1.48817 0.188 1.5
    endloop
  endfacet
  facet normal 0 0 1
    outer loop
      vertex 6.50844 2.57687 1.5
      vertex 1.39466 0.552186 1.5
      vertex 1.45287 0.373034 1.5
    endloop
  endfacet
  facet normal 0 0 1
    outer loop
      vertex 6.13415 3.37228 1.5
      vertex 1.31446 0.722631 1.5
      vertex 1.39466 0.552186 1.5
    endloop
  endfacet
  facet normal 0 0 1
    outer loop
      vertex 0.463525 1.42658 1.5
      vertex 2.16312 6.6574 1.5
      vertex 1.31167 6.87601 1.5
    endloop
  endfacet
  facet normal 0 0 1
    outer loop
      vertex 5.66312 4.1145 1.5
      vertex 1.21352 0.881678 1.5
      vertex 1.31446 0.722631 1.5
    endloop
  endfacet
  facet normal 0 0 1
    outer loop
      vertex 5.10278 4.79183 1.5
      vertex 1.09345 1.02682 1.5
      vertex 1.21352 0.881678 1.5
    endloop
  endfacet
  facet normal 0 0 1
    outer loop
      vertex 4.46197 5.39359 1.5
      vertex 0.956136 1.15577 1.5
      vertex 1.09345 1.02682 1.5
    endloop
  endfacet
  facet normal 0 0 1
    outer loop
      vertex 3.75079 5.91029 1.5
      vertex 0.80374 1.26649 1.5
      vertex 0.956136 1.15577 1.5
    endloop
  endfacet
  facet normal 0 0 1
    outer loop
      vertex 2.98045 6.33379 1.5
      vertex 0.638668 1.35724 1.5
      vertex 0.80374 1.26649 1.5
    endloop
  endfacet
  facet normal 0 0 1
    outer loop
      vertex 2.16312 6.6574 1.5
      vertex 0.463525 1.42658 1.5
      vertex 0.638668 1.35724 1.5
    endloop
  endfacet
  facet normal 0 0 1
    outer loop
      vertex 0.281072 1.47343 1.5
      vertex 1.31167 6.87601 1.5
      vertex 0.439533 6.98619 1.5
    endloop
  endfacet
  facet normal 0 0 1
    outer loop
      vertex 1.31167 6.87601 1.5
      vertex 0.281072 1.47343 1.5
      vertex 0.463525 1.42658 1.5
    endloop
  endfacet
  facet normal 0 0 1
    outer loop
      vertex 0.439533 6.98619 1.5
      vertex 0.0941849 1.49704 1.5
      vertex 0.281072 1.47343 1.5
    endloop
  endfacet
  facet normal 0 0 1
    outer loop
      vertex 0.439533 6.98619 1.5
      vertex -0.0941849 1.49704 1.5
      vertex 0.0941849 1.49704 1.5
    endloop
  endfacet
  facet normal -0 0 1
    outer loop
      vertex -0.439533 6.98619 1.5
      vertex -0.0941849 1.49704 1.5
      vertex 0.439533 6.98619 1.5
    endloop
  endfacet
  facet normal 0 0 1
    outer loop
      vertex -0.0941849 1.49704 1.5
      vertex -0.439533 6.98619 1.5
      vertex -0.281072 1.47343 1.5
    endloop
  endfacet
  facet normal -0 0 1
    outer loop
      vertex -1.31167 6.87601 1.5
      vertex -0.281072 1.47343 1.5
      vertex -0.439533 6.98619 1.5
    endloop
  endfacet
  facet normal 0 0 1
    outer loop
      vertex -0.281072 1.47343 1.5
      vertex -1.31167 6.87601 1.5
      vertex -0.463525 1.42658 1.5
    endloop
  endfacet
  facet normal -0 0 1
    outer loop
      vertex -2.16312 6.6574 1.5
      vertex -0.463525 1.42658 1.5
      vertex -1.31167 6.87601 1.5
    endloop
  endfacet
  facet normal 0 0 1
    outer loop
      vertex -0.463525 1.42658 1.5
      vertex -2.16312 6.6574 1.5
      vertex -0.638668 1.35724 1.5
    endloop
  endfacet
  facet normal -0 0 1
    outer loop
      vertex -2.98045 6.33379 1.5
      vertex -0.638668 1.35724 1.5
      vertex -2.16312 6.6574 1.5
    endloop
  endfacet
  facet normal 0 0 1
    outer loop
      vertex -0.638668 1.35724 1.5
      vertex -2.98045 6.33379 1.5
      vertex -0.80374 1.26649 1.5
    endloop
  endfacet
  facet normal -0 0 1
    outer loop
      vertex -3.75079 5.91029 1.5
      vertex -0.80374 1.26649 1.5
      vertex -2.98045 6.33379 1.5
    endloop
  endfacet
  facet normal 0 0 1
    outer loop
      vertex -0.80374 1.26649 1.5
      vertex -3.75079 5.91029 1.5
      vertex -0.956136 1.15577 1.5
    endloop
  endfacet
  facet normal -0 0 1
    outer loop
      vertex -4.46197 5.39359 1.5
      vertex -0.956136 1.15577 1.5
      vertex -3.75079 5.91029 1.5
    endloop
  endfacet
  facet normal 0 0 1
    outer loop
      vertex -0.956136 1.15577 1.5
      vertex -4.46197 5.39359 1.5
      vertex -1.09345 1.02682 1.5
    endloop
  endfacet
  facet normal -0 0 1
    outer loop
      vertex -5.10278 4.79183 1.5
      vertex -1.09345 1.02682 1.5
      vertex -4.46197 5.39359 1.5
    endloop
  endfacet
  facet normal 0 0 1
    outer loop
      vertex -1.09345 1.02682 1.5
      vertex -5.10278 4.79183 1.5
      vertex -1.21352 0.881678 1.5
    endloop
  endfacet
  facet normal -0 0 1
    outer loop
      vertex -5.66312 4.1145 1.5
      vertex -1.21352 0.881678 1.5
      vertex -5.10278 4.79183 1.5
    endloop
  endfacet
  facet normal 0 0 1
    outer loop
      vertex 5.66312 -4.1145 1.5
      vertex 1.21352 -0.881678 1.5
      vertex 5.10278 -4.79183 1.5
    endloop
  endfacet
  facet normal -0 0 1
    outer loop
      vertex 1.09345 -1.02682 1.5
      vertex 5.10278 -4.79183 1.5
      vertex 1.21352 -0.881678 1.5
    endloop
  endfacet
  facet normal 0 0 1
    outer loop
      vertex 5.10278 -4.79183 1.5
      vertex 1.09345 -1.02682 1.5
      vertex 4.46197 -5.39359 1.5
    endloop
  endfacet
  facet normal -0 0 1
    outer loop
      vertex 0.956136 -1.15577 1.5
      vertex 4.46197 -5.39359 1.5
      vertex 1.09345 -1.02682 1.5
    endloop
  endfacet
  facet normal 0 0 1
    outer loop
      vertex 4.46197 -5.39359 1.5
      vertex 0.956136 -1.15577 1.5
      vertex 3.75079 -5.91029 1.5
    endloop
  endfacet
  facet normal -0 0 1
    outer loop
      vertex 0.80374 -1.26649 1.5
      vertex 3.75079 -5.91029 1.5
      vertex 0.956136 -1.15577 1.5
    endloop
  endfacet
  facet normal 0 0 1
    outer loop
      vertex 3.75079 -5.91029 1.5
      vertex 0.80374 -1.26649 1.5
      vertex 2.98045 -6.33379 1.5
    endloop
  endfacet
  facet normal -0 0 1
    outer loop
      vertex 0.638668 -1.35724 1.5
      vertex 2.98045 -6.33379 1.5
      vertex 0.80374 -1.26649 1.5
    endloop
  endfacet
  facet normal 0 0 1
    outer loop
      vertex 2.98045 -6.33379 1.5
      vertex 0.638668 -1.35724 1.5
      vertex 2.16312 -6.6574 1.5
    endloop
  endfacet
  facet normal -0 0 1
    outer loop
      vertex 0.463525 -1.42658 1.5
      vertex 2.16312 -6.6574 1.5
      vertex 0.638668 -1.35724 1.5
    endloop
  endfacet
  facet normal 0 0 1
    outer loop
      vertex 2.16312 -6.6574 1.5
      vertex 0.463525 -1.42658 1.5
      vertex 1.31167 -6.87601 1.5
    endloop
  endfacet
  facet normal -0 0 1
    outer loop
      vertex 0.281072 -1.47343 1.5
      vertex 1.31167 -6.87601 1.5
      vertex 0.463525 -1.42658 1.5
    endloop
  endfacet
  facet normal 0 0 1
    outer loop
      vertex 1.31167 -6.87601 1.5
      vertex 0.281072 -1.47343 1.5
      vertex 0.439533 -6.98619 1.5
    endloop
  endfacet
  facet normal -0 0 1
    outer loop
      vertex 0.0941849 -1.49704 1.5
      vertex 0.439533 -6.98619 1.5
      vertex 0.281072 -1.47343 1.5
    endloop
  endfacet
  facet normal -0 0 1
    outer loop
      vertex -0.0941849 -1.49704 1.5
      vertex 0.439533 -6.98619 1.5
      vertex 0.0941849 -1.49704 1.5
    endloop
  endfacet
  facet normal 0 0 1
    outer loop
      vertex -0.439533 -6.98619 1.5
      vertex -0.0941849 -1.49704 1.5
      vertex -0.281072 -1.47343 1.5
    endloop
  endfacet
  facet normal 0 0 1
    outer loop
      vertex -0.0941849 -1.49704 1.5
      vertex -0.439533 -6.98619 1.5
      vertex 0.439533 -6.98619 1.5
    endloop
  endfacet
  facet normal 0 0 1
    outer loop
      vertex -1.31167 -6.87601 1.5
      vertex -0.281072 -1.47343 1.5
      vertex -0.463525 -1.42658 1.5
    endloop
  endfacet
  facet normal 0 0 1
    outer loop
      vertex -2.16312 -6.6574 1.5
      vertex -0.463525 -1.42658 1.5
      vertex -0.638668 -1.35724 1.5
    endloop
  endfacet
  facet normal 0 0 1
    outer loop
      vertex -2.98045 -6.33379 1.5
      vertex -0.638668 -1.35724 1.5
      vertex -0.80374 -1.26649 1.5
    endloop
  endfacet
  facet normal 0 0 1
    outer loop
      vertex -3.75079 -5.91029 1.5
      vertex -0.80374 -1.26649 1.5
      vertex -0.956136 -1.15577 1.5
    endloop
  endfacet
  facet normal 0 0 1
    outer loop
      vertex -4.46197 -5.39359 1.5
      vertex -0.956136 -1.15577 1.5
      vertex -1.09345 -1.02682 1.5
    endloop
  endfacet
  facet normal 0 0 1
    outer loop
      vertex -5.10278 -4.79183 1.5
      vertex -1.09345 -1.02682 1.5
      vertex -1.21352 -0.881678 1.5
    endloop
  endfacet
  facet normal 0 0 1
    outer loop
      vertex -0.281072 -1.47343 1.5
      vertex -1.31167 -6.87601 1.5
      vertex -0.439533 -6.98619 1.5
    endloop
  endfacet
  facet normal 0 0 1
    outer loop
      vertex -5.66312 -4.1145 1.5
      vertex -1.21352 -0.881678 1.5
      vertex -1.31446 -0.722631 1.5
    endloop
  endfacet
  facet normal 0 0 1
    outer loop
      vertex -6.13415 -3.37228 1.5
      vertex -1.31446 -0.722631 1.5
      vertex -1.39466 -0.552186 1.5
    endloop
  endfacet
  facet normal 0 0 1
    outer loop
      vertex -6.50844 -2.57687 1.5
      vertex -1.39466 -0.552186 1.5
      vertex -1.45287 -0.373034 1.5
    endloop
  endfacet
  facet normal 0 0 1
    outer loop
      vertex -6.78008 -1.74083 1.5
      vertex -1.45287 -0.373034 1.5
      vertex -1.48817 -0.188 1.5
    endloop
  endfacet
  facet normal 0 0 1
    outer loop
      vertex -6.9448 -0.877332 1.5
      vertex -1.48817 -0.188 1.5
      vertex -1.5 0 1.5
    endloop
  endfacet
  facet normal 0 0 1
    outer loop
      vertex -1.21352 0.881678 1.5
      vertex -5.66312 4.1145 1.5
      vertex -1.31446 0.722631 1.5
    endloop
  endfacet
  facet normal 0 0 1
    outer loop
      vertex -0.463525 -1.42658 1.5
      vertex -2.16312 -6.6574 1.5
      vertex -1.31167 -6.87601 1.5
    endloop
  endfacet
  facet normal -0 0 1
    outer loop
      vertex -6.13415 3.37228 1.5
      vertex -1.31446 0.722631 1.5
      vertex -5.66312 4.1145 1.5
    endloop
  endfacet
  facet normal 0 0 1
    outer loop
      vertex -0.638668 -1.35724 1.5
      vertex -2.98045 -6.33379 1.5
      vertex -2.16312 -6.6574 1.5
    endloop
  endfacet
  facet normal 0 0 1
    outer loop
      vertex -1.31446 0.722631 1.5
      vertex -6.13415 3.37228 1.5
      vertex -1.39466 0.552186 1.5
    endloop
  endfacet
  facet normal 0 0 1
    outer loop
      vertex -0.80374 -1.26649 1.5
      vertex -3.75079 -5.91029 1.5
      vertex -2.98045 -6.33379 1.5
    endloop
  endfacet
  facet normal -0 0 1
    outer loop
      vertex -6.50844 2.57687 1.5
      vertex -1.39466 0.552186 1.5
      vertex -6.13415 3.37228 1.5
    endloop
  endfacet
  facet normal 0 0 1
    outer loop
      vertex -0.956136 -1.15577 1.5
      vertex -4.46197 -5.39359 1.5
      vertex -3.75079 -5.91029 1.5
    endloop
  endfacet
  facet normal 0 0 1
    outer loop
      vertex -1.39466 0.552186 1.5
      vertex -6.50844 2.57687 1.5
      vertex -1.45287 0.373034 1.5
    endloop
  endfacet
  facet normal 0 0 1
    outer loop
      vertex -1.09345 -1.02682 1.5
      vertex -5.10278 -4.79183 1.5
      vertex -4.46197 -5.39359 1.5
    endloop
  endfacet
  facet normal -0 0 1
    outer loop
      vertex -6.78008 1.74083 1.5
      vertex -1.45287 0.373034 1.5
      vertex -6.50844 2.57687 1.5
    endloop
  endfacet
  facet normal 0 0 1
    outer loop
      vertex -1.21352 -0.881678 1.5
      vertex -5.66312 -4.1145 1.5
      vertex -5.10278 -4.79183 1.5
    endloop
  endfacet
  facet normal 0 0 1
    outer loop
      vertex -1.45287 0.373034 1.5
      vertex -6.78008 1.74083 1.5
      vertex -1.48817 0.188 1.5
    endloop
  endfacet
  facet normal 0 0 1
    outer loop
      vertex -1.31446 -0.722631 1.5
      vertex -6.13415 -3.37228 1.5
      vertex -5.66312 -4.1145 1.5
    endloop
  endfacet
  facet normal -0 0 1
    outer loop
      vertex -6.9448 0.877332 1.5
      vertex -1.48817 0.188 1.5
      vertex -6.78008 1.74083 1.5
    endloop
  endfacet
  facet normal 0 0 1
    outer loop
      vertex -1.39466 -0.552186 1.5
      vertex -6.50844 -2.57687 1.5
      vertex -6.13415 -3.37228 1.5
    endloop
  endfacet
  facet normal 0 0 1
    outer loop
      vertex -1.48817 0.188 1.5
      vertex -6.9448 0.877332 1.5
      vertex -1.5 0 1.5
    endloop
  endfacet
  facet normal 0 0 1
    outer loop
      vertex -1.45287 -0.373034 1.5
      vertex -6.78008 -1.74083 1.5
      vertex -6.50844 -2.57687 1.5
    endloop
  endfacet
  facet normal 0 0 1
    outer loop
      vertex -7 0 1.5
      vertex -1.5 0 1.5
      vertex -6.9448 0.877332 1.5
    endloop
  endfacet
  facet normal 0 0 1
    outer loop
      vertex -1.48817 -0.188 1.5
      vertex -6.9448 -0.877332 1.5
      vertex -6.78008 -1.74083 1.5
    endloop
  endfacet
  facet normal 0 0 1
    outer loop
      vertex -1.5 0 1.5
      vertex -7 0 1.5
      vertex -6.9448 -0.877332 1.5
    endloop
  endfacet
  facet normal -0.481755 0.876306 0
    outer loop
      vertex -2.98045 6.33379 -1.5
      vertex -3.75079 5.91029 1.5
      vertex -2.98045 6.33379 1.5
    endloop
  endfacet
  facet normal -0.481755 0.876306 0
    outer loop
      vertex -3.75079 5.91029 1.5
      vertex -2.98045 6.33379 -1.5
      vertex -3.75079 5.91029 -1.5
    endloop
  endfacet
  facet normal -0.587783 0.809018 0
    outer loop
      vertex -3.75079 5.91029 -1.5
      vertex -4.46197 5.39359 1.5
      vertex -3.75079 5.91029 1.5
    endloop
  endfacet
  facet normal -0.587783 0.809018 0
    outer loop
      vertex -4.46197 5.39359 1.5
      vertex -3.75079 5.91029 -1.5
      vertex -4.46197 5.39359 -1.5
    endloop
  endfacet
  facet normal -0.125337 0.992114 0
    outer loop
      vertex -0.439533 6.98619 -1.5
      vertex -1.31167 6.87601 1.5
      vertex -0.439533 6.98619 1.5
    endloop
  endfacet
  facet normal -0.125337 0.992114 0
    outer loop
      vertex -1.31167 6.87601 1.5
      vertex -0.439533 6.98619 -1.5
      vertex -1.31167 6.87601 -1.5
    endloop
  endfacet
  facet normal 0.998027 -0.0627939 0
    outer loop
      vertex 6.9448 -0.877332 1.5
      vertex 7 0 -1.5
      vertex 7 0 1.5
    endloop
  endfacet
  facet normal 0.998027 -0.0627939 0
    outer loop
      vertex 7 0 -1.5
      vertex 6.9448 -0.877332 1.5
      vertex 6.9448 -0.877332 -1.5
    endloop
  endfacet
  facet normal 0.904828 -0.425778 0
    outer loop
      vertex 6.13415 -3.37228 1.5
      vertex 6.50844 -2.57687 -1.5
      vertex 6.50844 -2.57687 1.5
    endloop
  endfacet
  facet normal 0.904828 -0.425778 0
    outer loop
      vertex 6.50844 -2.57687 -1.5
      vertex 6.13415 -3.37228 1.5
      vertex 6.13415 -3.37228 -1.5
    endloop
  endfacet
  facet normal -0.684547 -0.728969 0
    outer loop
      vertex -5.10278 -4.79183 -1.5
      vertex -4.46197 -5.39359 1.5
      vertex -5.10278 -4.79183 1.5
    endloop
  endfacet
  facet normal -0.684547 -0.728969 -0
    outer loop
      vertex -4.46197 -5.39359 1.5
      vertex -5.10278 -4.79183 -1.5
      vertex -4.46197 -5.39359 -1.5
    endloop
  endfacet
  facet normal -0.904828 -0.425778 0
    outer loop
      vertex -6.13415 -3.37228 -1.5
      vertex -6.50844 -2.57687 1.5
      vertex -6.50844 -2.57687 -1.5
    endloop
  endfacet
  facet normal -0.904828 -0.425778 0
    outer loop
      vertex -6.50844 -2.57687 1.5
      vertex -6.13415 -3.37228 -1.5
      vertex -6.13415 -3.37228 1.5
    endloop
  endfacet
  facet normal -0.844326 -0.535829 0
    outer loop
      vertex -5.66312 -4.1145 -1.5
      vertex -6.13415 -3.37228 1.5
      vertex -6.13415 -3.37228 -1.5
    endloop
  endfacet
  facet normal -0.844326 -0.535829 0
    outer loop
      vertex -6.13415 -3.37228 1.5
      vertex -5.66312 -4.1145 -1.5
      vertex -5.66312 -4.1145 1.5
    endloop
  endfacet
  facet normal 0 0 -1
    outer loop
      vertex 3.17349 0 -1.5
      vertex 7 0 -1.5
      vertex 6.9448 -0.877332 -1.5
    endloop
  endfacet
  facet normal 0 0 -1
    outer loop
      vertex 3.17349 0 -1.5
      vertex 6.9448 -0.877332 -1.5
      vertex 6.78008 -1.74083 -1.5
    endloop
  endfacet
  facet normal 0 0 -1
    outer loop
      vertex 7 0 -1.5
      vertex 3.17349 0 -1.5
      vertex 6.9448 0.877332 -1.5
    endloop
  endfacet
  facet normal 0 0 -1
    outer loop
      vertex 3.17349 0 -1.5
      vertex 6.78008 -1.74083 -1.5
      vertex 6.50844 -2.57687 -1.5
    endloop
  endfacet
  facet normal -0 0 -1
    outer loop
      vertex 6.9448 0.877332 -1.5
      vertex 3.17349 0 -1.5
      vertex 6.78008 1.74083 -1.5
    endloop
  endfacet
  facet normal 0 0 -1
    outer loop
      vertex 3.17349 0 -1.5
      vertex 6.50844 -2.57687 -1.5
      vertex 6.13415 -3.37228 -1.5
    endloop
  endfacet
  facet normal -0 0 -1
    outer loop
      vertex 6.78008 1.74083 -1.5
      vertex 3.17349 0 -1.5
      vertex 6.50844 2.57687 -1.5
    endloop
  endfacet
  facet normal 0 0 -1
    outer loop
      vertex 1.58675 -2.74832 -1.5
      vertex 6.13415 -3.37228 -1.5
      vertex 5.66312 -4.1145 -1.5
    endloop
  endfacet
  facet normal -0 0 -1
    outer loop
      vertex 6.50844 2.57687 -1.5
      vertex 3.17349 0 -1.5
      vertex 6.13415 3.37228 -1.5
    endloop
  endfacet
  facet normal 0 0 -1
    outer loop
      vertex 1.58675 -2.74832 -1.5
      vertex 5.66312 -4.1145 -1.5
      vertex 5.10278 -4.79183 -1.5
    endloop
  endfacet
  facet normal 0 0 -1
    outer loop
      vertex 1.58675 2.74832 -1.5
      vertex 6.13415 3.37228 -1.5
      vertex 3.17349 0 -1.5
    endloop
  endfacet
  facet normal 0 0 -1
    outer loop
      vertex 1.58675 -2.74832 -1.5
      vertex 5.10278 -4.79183 -1.5
      vertex 4.46197 -5.39359 -1.5
    endloop
  endfacet
  facet normal -0 0 -1
    outer loop
      vertex 6.13415 3.37228 -1.5
      vertex 1.58675 2.74832 -1.5
      vertex 5.66312 4.1145 -1.5
    endloop
  endfacet
  facet normal 0 0 -1
    outer loop
      vertex 1.58675 -2.74832 -1.5
      vertex 4.46197 -5.39359 -1.5
      vertex 3.75079 -5.91029 -1.5
    endloop
  endfacet
  facet normal -0 0 -1
    outer loop
      vertex 5.66312 4.1145 -1.5
      vertex 1.58675 2.74832 -1.5
      vertex 5.10278 4.79183 -1.5
    endloop
  endfacet
  facet normal -0 0 -1
    outer loop
      vertex 5.10278 4.79183 -1.5
      vertex 1.58675 2.74832 -1.5
      vertex 4.46197 5.39359 -1.5
    endloop
  endfacet
  facet normal 0 0 -1
    outer loop
      vertex 1.58675 -2.74832 -1.5
      vertex 3.75079 -5.91029 -1.5
      vertex 2.98045 -6.33379 -1.5
    endloop
  endfacet
  facet normal 0 0 -1
    outer loop
      vertex 1.58675 -2.74832 -1.5
      vertex 2.98045 -6.33379 -1.5
      vertex 2.16312 -6.6574 -1.5
    endloop
  endfacet
  facet normal 0 0 -1
    outer loop
      vertex 6.13415 -3.37228 -1.5
      vertex 1.58675 -2.74832 -1.5
      vertex 3.17349 0 -1.5
    endloop
  endfacet
  facet normal 0 0 -1
    outer loop
      vertex 1.31167 -6.87601 -1.5
      vertex 1.58675 -2.74832 -1.5
      vertex 2.16312 -6.6574 -1.5
    endloop
  endfacet
  facet normal 0 0 -1
    outer loop
      vertex 0.439533 -6.98619 -1.5
      vertex 1.58675 -2.74832 -1.5
      vertex 1.31167 -6.87601 -1.5
    endloop
  endfacet
  facet normal 0 0 -1
    outer loop
      vertex -0.439533 -6.98619 -1.5
      vertex 1.58675 -2.74832 -1.5
      vertex 0.439533 -6.98619 -1.5
    endloop
  endfacet
  facet normal 0 0 -1
    outer loop
      vertex -1.58675 -2.74832 -1.5
      vertex -0.439533 -6.98619 -1.5
      vertex -1.31167 -6.87601 -1.5
    endloop
  endfacet
  facet normal 0 0 -1
    outer loop
      vertex -0.439533 -6.98619 -1.5
      vertex -1.58675 -2.74832 -1.5
      vertex 1.58675 -2.74832 -1.5
    endloop
  endfacet
  facet normal 0 0 -1
    outer loop
      vertex -2.16312 -6.6574 -1.5
      vertex -1.58675 -2.74832 -1.5
      vertex -1.31167 -6.87601 -1.5
    endloop
  endfacet
  facet normal 0 0 -1
    outer loop
      vertex -2.98045 -6.33379 -1.5
      vertex -1.58675 -2.74832 -1.5
      vertex -2.16312 -6.6574 -1.5
    endloop
  endfacet
  facet normal 0 0 -1
    outer loop
      vertex -3.75079 -5.91029 -1.5
      vertex -1.58675 -2.74832 -1.5
      vertex -2.98045 -6.33379 -1.5
    endloop
  endfacet
  facet normal 0 0 -1
    outer loop
      vertex -4.46197 -5.39359 -1.5
      vertex -1.58675 -2.74832 -1.5
      vertex -3.75079 -5.91029 -1.5
    endloop
  endfacet
  facet normal -0 0 -1
    outer loop
      vertex 4.46197 5.39359 -1.5
      vertex 1.58675 2.74832 -1.5
      vertex 3.75079 5.91029 -1.5
    endloop
  endfacet
  facet normal -0 0 -1
    outer loop
      vertex 3.75079 5.91029 -1.5
      vertex 1.58675 2.74832 -1.5
      vertex 2.98045 6.33379 -1.5
    endloop
  endfacet
  facet normal -0 0 -1
    outer loop
      vertex 2.98045 6.33379 -1.5
      vertex 1.58675 2.74832 -1.5
      vertex 2.16312 6.6574 -1.5
    endloop
  endfacet
  facet normal 0 0 -1
    outer loop
      vertex 1.58675 2.74832 -1.5
      vertex 1.31167 6.87601 -1.5
      vertex 2.16312 6.6574 -1.5
    endloop
  endfacet
  facet normal 0 0 -1
    outer loop
      vertex 1.58675 2.74832 -1.5
      vertex 0.439533 6.98619 -1.5
      vertex 1.31167 6.87601 -1.5
    endloop
  endfacet
  facet normal 0 0 -1
    outer loop
      vertex 1.58675 2.74832 -1.5
      vertex -0.439533 6.98619 -1.5
      vertex 0.439533 6.98619 -1.5
    endloop
  endfacet
  facet normal 0 0 -1
    outer loop
      vertex -1.58675 2.74832 -1.5
      vertex -0.439533 6.98619 -1.5
      vertex 1.58675 2.74832 -1.5
    endloop
  endfacet
  facet normal 0 0 -1
    outer loop
      vertex -0.439533 6.98619 -1.5
      vertex -1.58675 2.74832 -1.5
      vertex -1.31167 6.87601 -1.5
    endloop
  endfacet
  facet normal 0 0 -1
    outer loop
      vertex -1.58675 2.74832 -1.5
      vertex -2.16312 6.6574 -1.5
      vertex -1.31167 6.87601 -1.5
    endloop
  endfacet
  facet normal 0 0 -1
    outer loop
      vertex -1.58675 2.74832 -1.5
      vertex -2.98045 6.33379 -1.5
      vertex -2.16312 6.6574 -1.5
    endloop
  endfacet
  facet normal 0 0 -1
    outer loop
      vertex -6.13415 3.37228 -1.5
      vertex -1.58675 2.74832 -1.5
      vertex -3.17349 0 -1.5
    endloop
  endfacet
  facet normal 0 0 -1
    outer loop
      vertex -5.10278 -4.79183 -1.5
      vertex -1.58675 -2.74832 -1.5
      vertex -4.46197 -5.39359 -1.5
    endloop
  endfacet
  facet normal 0 0 -1
    outer loop
      vertex -1.58675 2.74832 -1.5
      vertex -3.75079 5.91029 -1.5
      vertex -2.98045 6.33379 -1.5
    endloop
  endfacet
  facet normal 0 0 -1
    outer loop
      vertex -5.66312 -4.1145 -1.5
      vertex -1.58675 -2.74832 -1.5
      vertex -5.10278 -4.79183 -1.5
    endloop
  endfacet
  facet normal 0 0 -1
    outer loop
      vertex -1.58675 2.74832 -1.5
      vertex -4.46197 5.39359 -1.5
      vertex -3.75079 5.91029 -1.5
    endloop
  endfacet
  facet normal 0 0 -1
    outer loop
      vertex -6.13415 -3.37228 -1.5
      vertex -1.58675 -2.74832 -1.5
      vertex -5.66312 -4.1145 -1.5
    endloop
  endfacet
  facet normal 0 0 -1
    outer loop
      vertex -1.58675 2.74832 -1.5
      vertex -5.10278 4.79183 -1.5
      vertex -4.46197 5.39359 -1.5
    endloop
  endfacet
  facet normal -0 0 -1
    outer loop
      vertex -1.58675 -2.74832 -1.5
      vertex -6.13415 -3.37228 -1.5
      vertex -3.17349 0 -1.5
    endloop
  endfacet
  facet normal 0 0 -1
    outer loop
      vertex -1.58675 2.74832 -1.5
      vertex -5.66312 4.1145 -1.5
      vertex -5.10278 4.79183 -1.5
    endloop
  endfacet
  facet normal 0 0 -1
    outer loop
      vertex -6.50844 -2.57687 -1.5
      vertex -3.17349 0 -1.5
      vertex -6.13415 -3.37228 -1.5
    endloop
  endfacet
  facet normal 0 0 -1
    outer loop
      vertex -1.58675 2.74832 -1.5
      vertex -6.13415 3.37228 -1.5
      vertex -5.66312 4.1145 -1.5
    endloop
  endfacet
  facet normal 0 0 -1
    outer loop
      vertex -6.78008 -1.74083 -1.5
      vertex -3.17349 0 -1.5
      vertex -6.50844 -2.57687 -1.5
    endloop
  endfacet
  facet normal 0 0 -1
    outer loop
      vertex -3.17349 0 -1.5
      vertex -6.50844 2.57687 -1.5
      vertex -6.13415 3.37228 -1.5
    endloop
  endfacet
  facet normal 0 0 -1
    outer loop
      vertex -6.9448 -0.877332 -1.5
      vertex -3.17349 0 -1.5
      vertex -6.78008 -1.74083 -1.5
    endloop
  endfacet
  facet normal 0 0 -1
    outer loop
      vertex -3.17349 0 -1.5
      vertex -6.78008 1.74083 -1.5
      vertex -6.50844 2.57687 -1.5
    endloop
  endfacet
  facet normal 0 0 -1
    outer loop
      vertex -7 0 -1.5
      vertex -3.17349 0 -1.5
      vertex -6.9448 -0.877332 -1.5
    endloop
  endfacet
  facet normal 0 0 -1
    outer loop
      vertex -3.17349 0 -1.5
      vertex -6.9448 0.877332 -1.5
      vertex -6.78008 1.74083 -1.5
    endloop
  endfacet
  facet normal 0 0 -1
    outer loop
      vertex -3.17349 0 -1.5
      vertex -7 0 -1.5
      vertex -6.9448 0.877332 -1.5
    endloop
  endfacet
  facet normal 0.481755 -0.876306 0
    outer loop
      vertex 2.98045 -6.33379 -1.5
      vertex 3.75079 -5.91029 1.5
      vertex 2.98045 -6.33379 1.5
    endloop
  endfacet
  facet normal 0.481755 -0.876306 0
    outer loop
      vertex 3.75079 -5.91029 1.5
      vertex 2.98045 -6.33379 -1.5
      vertex 3.75079 -5.91029 -1.5
    endloop
  endfacet
  facet normal 0.951058 -0.309011 0
    outer loop
      vertex 6.50844 -2.57687 1.5
      vertex 6.78008 -1.74083 -1.5
      vertex 6.78008 -1.74083 1.5
    endloop
  endfacet
  facet normal 0.951058 -0.309011 0
    outer loop
      vertex 6.78008 -1.74083 -1.5
      vertex 6.50844 -2.57687 1.5
      vertex 6.50844 -2.57687 -1.5
    endloop
  endfacet
  facet normal -0.770511 -0.637427 0
    outer loop
      vertex -5.10278 -4.79183 -1.5
      vertex -5.66312 -4.1145 1.5
      vertex -5.66312 -4.1145 -1.5
    endloop
  endfacet
  facet normal -0.770511 -0.637427 0
    outer loop
      vertex -5.66312 -4.1145 1.5
      vertex -5.10278 -4.79183 -1.5
      vertex -5.10278 -4.79183 1.5
    endloop
  endfacet
  facet normal -0.951058 -0.309011 0
    outer loop
      vertex -6.50844 -2.57687 -1.5
      vertex -6.78008 -1.74083 1.5
      vertex -6.78008 -1.74083 -1.5
    endloop
  endfacet
  facet normal -0.951058 -0.309011 0
    outer loop
      vertex -6.78008 -1.74083 1.5
      vertex -6.50844 -2.57687 -1.5
      vertex -6.50844 -2.57687 1.5
    endloop
  endfacet
  facet normal 0.684547 -0.728969 0
    outer loop
      vertex 4.46197 -5.39359 -1.5
      vertex 5.10278 -4.79183 1.5
      vertex 4.46197 -5.39359 1.5
    endloop
  endfacet
  facet normal 0.684547 -0.728969 0
    outer loop
      vertex 5.10278 -4.79183 1.5
      vertex 4.46197 -5.39359 -1.5
      vertex 5.10278 -4.79183 -1.5
    endloop
  endfacet
  facet normal 0.368131 -0.929774 0
    outer loop
      vertex 2.16312 -6.6574 -1.5
      vertex 2.98045 -6.33379 1.5
      vertex 2.16312 -6.6574 1.5
    endloop
  endfacet
  facet normal 0.368131 -0.929774 0
    outer loop
      vertex 2.98045 -6.33379 1.5
      vertex 2.16312 -6.6574 -1.5
      vertex 2.98045 -6.33379 -1.5
    endloop
  endfacet
  facet normal 0.248684 -0.968585 0
    outer loop
      vertex 1.31167 -6.87601 -1.5
      vertex 2.16312 -6.6574 1.5
      vertex 1.31167 -6.87601 1.5
    endloop
  endfacet
  facet normal 0.248684 -0.968585 0
    outer loop
      vertex 2.16312 -6.6574 1.5
      vertex 1.31167 -6.87601 -1.5
      vertex 2.16312 -6.6574 -1.5
    endloop
  endfacet
  facet normal 0.125337 -0.992114 0
    outer loop
      vertex 0.439533 -6.98619 -1.5
      vertex 1.31167 -6.87601 1.5
      vertex 0.439533 -6.98619 1.5
    endloop
  endfacet
  facet normal 0.125337 -0.992114 0
    outer loop
      vertex 1.31167 -6.87601 1.5
      vertex 0.439533 -6.98619 -1.5
      vertex 1.31167 -6.87601 -1.5
    endloop
  endfacet
  facet normal 0.982287 -0.18738 0
    outer loop
      vertex 6.78008 -1.74083 1.5
      vertex 6.9448 -0.877332 -1.5
      vertex 6.9448 -0.877332 1.5
    endloop
  endfacet
  facet normal 0.982287 -0.18738 0
    outer loop
      vertex 6.9448 -0.877332 -1.5
      vertex 6.78008 -1.74083 1.5
      vertex 6.78008 -1.74083 -1.5
    endloop
  endfacet
  facet normal 0.844326 -0.535829 0
    outer loop
      vertex 5.66312 -4.1145 1.5
      vertex 6.13415 -3.37228 -1.5
      vertex 6.13415 -3.37228 1.5
    endloop
  endfacet
  facet normal 0.844326 -0.535829 0
    outer loop
      vertex 6.13415 -3.37228 -1.5
      vertex 5.66312 -4.1145 1.5
      vertex 5.66312 -4.1145 -1.5
    endloop
  endfacet
  facet normal 0.770511 -0.637427 0
    outer loop
      vertex 5.10278 -4.79183 1.5
      vertex 5.66312 -4.1145 -1.5
      vertex 5.66312 -4.1145 1.5
    endloop
  endfacet
  facet normal 0.770511 -0.637427 0
    outer loop
      vertex 5.66312 -4.1145 -1.5
      vertex 5.10278 -4.79183 1.5
      vertex 5.10278 -4.79183 -1.5
    endloop
  endfacet
  facet normal -0.368131 -0.929774 0
    outer loop
      vertex -2.98045 -6.33379 -1.5
      vertex -2.16312 -6.6574 1.5
      vertex -2.98045 -6.33379 1.5
    endloop
  endfacet
  facet normal -0.368131 -0.929774 -0
    outer loop
      vertex -2.16312 -6.6574 1.5
      vertex -2.98045 -6.33379 -1.5
      vertex -2.16312 -6.6574 -1.5
    endloop
  endfacet
  facet normal -0.587783 -0.809018 0
    outer loop
      vertex -4.46197 -5.39359 -1.5
      vertex -3.75079 -5.91029 1.5
      vertex -4.46197 -5.39359 1.5
    endloop
  endfacet
  facet normal -0.587783 -0.809018 -0
    outer loop
      vertex -3.75079 -5.91029 1.5
      vertex -4.46197 -5.39359 -1.5
      vertex -3.75079 -5.91029 -1.5
    endloop
  endfacet
  facet normal -0.248684 -0.968585 0
    outer loop
      vertex -2.16312 -6.6574 -1.5
      vertex -1.31167 -6.87601 1.5
      vertex -2.16312 -6.6574 1.5
    endloop
  endfacet
  facet normal -0.248684 -0.968585 -0
    outer loop
      vertex -1.31167 -6.87601 1.5
      vertex -2.16312 -6.6574 -1.5
      vertex -1.31167 -6.87601 -1.5
    endloop
  endfacet
  facet normal -0.982287 -0.18738 0
    outer loop
      vertex -6.78008 -1.74083 -1.5
      vertex -6.9448 -0.877332 1.5
      vertex -6.9448 -0.877332 -1.5
    endloop
  endfacet
  facet normal -0.982287 -0.18738 0
    outer loop
      vertex -6.9448 -0.877332 1.5
      vertex -6.78008 -1.74083 -1.5
      vertex -6.78008 -1.74083 1.5
    endloop
  endfacet
  facet normal -0.998027 -0.0627939 0
    outer loop
      vertex -6.9448 -0.877332 -1.5
      vertex -7 0 1.5
      vertex -7 0 -1.5
    endloop
  endfacet
  facet normal -0.998027 -0.0627939 0
    outer loop
      vertex -7 0 1.5
      vertex -6.9448 -0.877332 -1.5
      vertex -6.9448 -0.877332 1.5
    endloop
  endfacet
  facet normal 0.587783 -0.809018 0
    outer loop
      vertex 3.75079 -5.91029 -1.5
      vertex 4.46197 -5.39359 1.5
      vertex 3.75079 -5.91029 1.5
    endloop
  endfacet
  facet normal 0.587783 -0.809018 0
    outer loop
      vertex 4.46197 -5.39359 1.5
      vertex 3.75079 -5.91029 -1.5
      vertex 4.46197 -5.39359 -1.5
    endloop
  endfacet
  facet normal -0.481755 -0.876306 0
    outer loop
      vertex -3.75079 -5.91029 -1.5
      vertex -2.98045 -6.33379 1.5
      vertex -3.75079 -5.91029 1.5
    endloop
  endfacet
  facet normal -0.481755 -0.876306 -0
    outer loop
      vertex -2.98045 -6.33379 1.5
      vertex -3.75079 -5.91029 -1.5
      vertex -2.98045 -6.33379 -1.5
    endloop
  endfacet
  facet normal -0.125337 -0.992114 0
    outer loop
      vertex -1.31167 -6.87601 -1.5
      vertex -0.439533 -6.98619 1.5
      vertex -1.31167 -6.87601 1.5
    endloop
  endfacet
  facet normal -0.125337 -0.992114 -0
    outer loop
      vertex -0.439533 -6.98619 1.5
      vertex -1.31167 -6.87601 -1.5
      vertex -0.439533 -6.98619 -1.5
    endloop
  endfacet
  facet normal 0 1 -0
    outer loop
      vertex 1.58675 -2.74832 -1.5
      vertex -1.58675 -2.74832 1
      vertex 1.58675 -2.74832 1
    endloop
  endfacet
  facet normal 0 1 0
    outer loop
      vertex -1.58675 -2.74832 1
      vertex 1.58675 -2.74832 -1.5
      vertex -1.58675 -2.74832 -1.5
    endloop
  endfacet
  facet normal -0.866026 0.499999 0
    outer loop
      vertex 1.58675 -2.74832 -1.5
      vertex 3.17349 0 1
      vertex 3.17349 0 -1.5
    endloop
  endfacet
  facet normal -0.866026 0.499999 0
    outer loop
      vertex 3.17349 0 1
      vertex 1.58675 -2.74832 -1.5
      vertex 1.58675 -2.74832 1
    endloop
  endfacet
  facet normal -0.866026 -0.499999 0
    outer loop
      vertex 3.17349 0 -1.5
      vertex 1.58675 2.74832 1
      vertex 1.58675 2.74832 -1.5
    endloop
  endfacet
  facet normal -0.866026 -0.499999 0
    outer loop
      vertex 1.58675 2.74832 1
      vertex 3.17349 0 -1.5
      vertex 3.17349 0 1
    endloop
  endfacet
  facet normal 0.866026 0.499999 0
    outer loop
      vertex -1.58675 -2.74832 1
      vertex -3.17349 0 -1.5
      vertex -3.17349 0 1
    endloop
  endfacet
  facet normal 0.866026 0.499999 0
    outer loop
      vertex -3.17349 0 -1.5
      vertex -1.58675 -2.74832 1
      vertex -1.58675 -2.74832 -1.5
    endloop
  endfacet
  facet normal 0.866026 -0.499999 0
    outer loop
      vertex -3.17349 0 1
      vertex -1.58675 2.74832 -1.5
      vertex -1.58675 2.74832 1
    endloop
  endfacet
  facet normal 0.866026 -0.499999 0
    outer loop
      vertex -1.58675 2.74832 -1.5
      vertex -3.17349 0 1
      vertex -3.17349 0 -1.5
    endloop
  endfacet
  facet normal 0 -1 0
    outer loop
      vertex -1.58675 2.74832 -1.5
      vertex 1.58675 2.74832 1
      vertex -1.58675 2.74832 1
    endloop
  endfacet
  facet normal 0 -1 -0
    outer loop
      vertex 1.58675 2.74832 1
      vertex -1.58675 2.74832 -1.5
      vertex 1.58675 2.74832 -1.5
    endloop
  endfacet
  facet normal 0 0 -1
    outer loop
      vertex 1.31446 -0.722631 1
      vertex 3.17349 0 1
      vertex 1.58675 -2.74832 1
    endloop
  endfacet
  facet normal 0 0 -1
    outer loop
      vertex 1.48817 0.188 1
      vertex 3.17349 0 1
      vertex 1.5 0 1
    endloop
  endfacet
  facet normal -0 0 -1
    outer loop
      vertex 3.17349 0 1
      vertex 1.48817 -0.188 1
      vertex 1.5 0 1
    endloop
  endfacet
  facet normal 0 0 -1
    outer loop
      vertex 3.17349 0 1
      vertex 1.45287 -0.373034 1
      vertex 1.48817 -0.188 1
    endloop
  endfacet
  facet normal 0 0 -1
    outer loop
      vertex 3.17349 0 1
      vertex 1.39466 -0.552186 1
      vertex 1.45287 -0.373034 1
    endloop
  endfacet
  facet normal 0 0 -1
    outer loop
      vertex 3.17349 0 1
      vertex 1.31446 -0.722631 1
      vertex 1.39466 -0.552186 1
    endloop
  endfacet
  facet normal 0 0 -1
    outer loop
      vertex 1.58675 -2.74832 1
      vertex 1.21352 -0.881678 1
      vertex 1.31446 -0.722631 1
    endloop
  endfacet
  facet normal 0 0 -1
    outer loop
      vertex 1.58675 -2.74832 1
      vertex 1.09345 -1.02682 1
      vertex 1.21352 -0.881678 1
    endloop
  endfacet
  facet normal 0 0 -1
    outer loop
      vertex 1.58675 -2.74832 1
      vertex 0.956136 -1.15577 1
      vertex 1.09345 -1.02682 1
    endloop
  endfacet
  facet normal 0 0 -1
    outer loop
      vertex 1.58675 -2.74832 1
      vertex 0.80374 -1.26649 1
      vertex 0.956136 -1.15577 1
    endloop
  endfacet
  facet normal 0 0 -1
    outer loop
      vertex 1.58675 -2.74832 1
      vertex 0.638668 -1.35724 1
      vertex 0.80374 -1.26649 1
    endloop
  endfacet
  facet normal 0 0 -1
    outer loop
      vertex 1.58675 -2.74832 1
      vertex 0.463525 -1.42658 1
      vertex 0.638668 -1.35724 1
    endloop
  endfacet
  facet normal 0 0 -1
    outer loop
      vertex 1.58675 -2.74832 1
      vertex 0.281072 -1.47343 1
      vertex 0.463525 -1.42658 1
    endloop
  endfacet
  facet normal 0 0 -1
    outer loop
      vertex 1.58675 -2.74832 1
      vertex 0.0941849 -1.49704 1
      vertex 0.281072 -1.47343 1
    endloop
  endfacet
  facet normal 0 0 -1
    outer loop
      vertex 1.58675 -2.74832 1
      vertex -0.0941849 -1.49704 1
      vertex 0.0941849 -1.49704 1
    endloop
  endfacet
  facet normal 0 0 -1
    outer loop
      vertex -1.58675 -2.74832 1
      vertex -0.0941849 -1.49704 1
      vertex 1.58675 -2.74832 1
    endloop
  endfacet
  facet normal -0 0 -1
    outer loop
      vertex -0.0941849 -1.49704 1
      vertex -1.58675 -2.74832 1
      vertex -0.281072 -1.47343 1
    endloop
  endfacet
  facet normal -0 0 -1
    outer loop
      vertex -0.281072 -1.47343 1
      vertex -1.58675 -2.74832 1
      vertex -0.463525 -1.42658 1
    endloop
  endfacet
  facet normal -0 0 -1
    outer loop
      vertex -0.463525 -1.42658 1
      vertex -1.58675 -2.74832 1
      vertex -0.638668 -1.35724 1
    endloop
  endfacet
  facet normal 0 0 -1
    outer loop
      vertex -1.45287 -0.373034 1
      vertex -3.17349 0 1
      vertex -1.48817 -0.188 1
    endloop
  endfacet
  facet normal 0 0 -1
    outer loop
      vertex -1.39466 -0.552186 1
      vertex -3.17349 0 1
      vertex -1.45287 -0.373034 1
    endloop
  endfacet
  facet normal 0 0 -1
    outer loop
      vertex -1.31446 -0.722631 1
      vertex -3.17349 0 1
      vertex -1.39466 -0.552186 1
    endloop
  endfacet
  facet normal 0 0 -1
    outer loop
      vertex -3.17349 0 1
      vertex -1.31446 -0.722631 1
      vertex -1.58675 -2.74832 1
    endloop
  endfacet
  facet normal -0 0 -1
    outer loop
      vertex -1.21352 -0.881678 1
      vertex -1.58675 -2.74832 1
      vertex -1.31446 -0.722631 1
    endloop
  endfacet
  facet normal -0 0 -1
    outer loop
      vertex -1.09345 -1.02682 1
      vertex -1.58675 -2.74832 1
      vertex -1.21352 -0.881678 1
    endloop
  endfacet
  facet normal -0 0 -1
    outer loop
      vertex -0.956136 -1.15577 1
      vertex -1.58675 -2.74832 1
      vertex -1.09345 -1.02682 1
    endloop
  endfacet
  facet normal -0 0 -1
    outer loop
      vertex -0.80374 -1.26649 1
      vertex -1.58675 -2.74832 1
      vertex -0.956136 -1.15577 1
    endloop
  endfacet
  facet normal -0 0 -1
    outer loop
      vertex -0.638668 -1.35724 1
      vertex -1.58675 -2.74832 1
      vertex -0.80374 -1.26649 1
    endloop
  endfacet
  facet normal 0 0 -1
    outer loop
      vertex 1.45287 0.373034 1
      vertex 3.17349 0 1
      vertex 1.48817 0.188 1
    endloop
  endfacet
  facet normal 0 0 -1
    outer loop
      vertex 1.39466 0.552186 1
      vertex 3.17349 0 1
      vertex 1.45287 0.373034 1
    endloop
  endfacet
  facet normal 0 0 -1
    outer loop
      vertex 1.31446 0.722631 1
      vertex 3.17349 0 1
      vertex 1.39466 0.552186 1
    endloop
  endfacet
  facet normal 0 0 -1
    outer loop
      vertex 3.17349 0 1
      vertex 1.31446 0.722631 1
      vertex 1.58675 2.74832 1
    endloop
  endfacet
  facet normal 0 0 -1
    outer loop
      vertex 1.21352 0.881678 1
      vertex 1.58675 2.74832 1
      vertex 1.31446 0.722631 1
    endloop
  endfacet
  facet normal 0 0 -1
    outer loop
      vertex 1.09345 1.02682 1
      vertex 1.58675 2.74832 1
      vertex 1.21352 0.881678 1
    endloop
  endfacet
  facet normal 0 0 -1
    outer loop
      vertex 0.956136 1.15577 1
      vertex 1.58675 2.74832 1
      vertex 1.09345 1.02682 1
    endloop
  endfacet
  facet normal 0 0 -1
    outer loop
      vertex 0.80374 1.26649 1
      vertex 1.58675 2.74832 1
      vertex 0.956136 1.15577 1
    endloop
  endfacet
  facet normal 0 0 -1
    outer loop
      vertex 0.638668 1.35724 1
      vertex 1.58675 2.74832 1
      vertex 0.80374 1.26649 1
    endloop
  endfacet
  facet normal 0 0 -1
    outer loop
      vertex 0.463525 1.42658 1
      vertex 1.58675 2.74832 1
      vertex 0.638668 1.35724 1
    endloop
  endfacet
  facet normal 0 0 -1
    outer loop
      vertex 0.281072 1.47343 1
      vertex 1.58675 2.74832 1
      vertex 0.463525 1.42658 1
    endloop
  endfacet
  facet normal 0 0 -1
    outer loop
      vertex 0.0941849 1.49704 1
      vertex 1.58675 2.74832 1
      vertex 0.281072 1.47343 1
    endloop
  endfacet
  facet normal 0 0 -1
    outer loop
      vertex -0.0941849 1.49704 1
      vertex 1.58675 2.74832 1
      vertex 0.0941849 1.49704 1
    endloop
  endfacet
  facet normal 0 0 -1
    outer loop
      vertex -1.58675 2.74832 1
      vertex -0.0941849 1.49704 1
      vertex -0.281072 1.47343 1
    endloop
  endfacet
  facet normal 0 0 -1
    outer loop
      vertex -1.58675 2.74832 1
      vertex -0.281072 1.47343 1
      vertex -0.463525 1.42658 1
    endloop
  endfacet
  facet normal 0 0 -1
    outer loop
      vertex -1.58675 2.74832 1
      vertex -0.463525 1.42658 1
      vertex -0.638668 1.35724 1
    endloop
  endfacet
  facet normal 0 0 -1
    outer loop
      vertex -1.58675 2.74832 1
      vertex -0.638668 1.35724 1
      vertex -0.80374 1.26649 1
    endloop
  endfacet
  facet normal 0 0 -1
    outer loop
      vertex -0.0941849 1.49704 1
      vertex -1.58675 2.74832 1
      vertex 1.58675 2.74832 1
    endloop
  endfacet
  facet normal 0 0 -1
    outer loop
      vertex -0.956136 1.15577 1
      vertex -1.58675 2.74832 1
      vertex -0.80374 1.26649 1
    endloop
  endfacet
  facet normal 0 0 -1
    outer loop
      vertex -1.09345 1.02682 1
      vertex -1.58675 2.74832 1
      vertex -0.956136 1.15577 1
    endloop
  endfacet
  facet normal 0 0 -1
    outer loop
      vertex -1.21352 0.881678 1
      vertex -1.58675 2.74832 1
      vertex -1.09345 1.02682 1
    endloop
  endfacet
  facet normal 0 0 -1
    outer loop
      vertex -1.31446 0.722631 1
      vertex -1.58675 2.74832 1
      vertex -1.21352 0.881678 1
    endloop
  endfacet
  facet normal 0 0 -1
    outer loop
      vertex -3.17349 0 1
      vertex -1.31446 0.722631 1
      vertex -1.39466 0.552186 1
    endloop
  endfacet
  facet normal 0 0 -1
    outer loop
      vertex -3.17349 0 1
      vertex -1.39466 0.552186 1
      vertex -1.45287 0.373034 1
    endloop
  endfacet
  facet normal 0 0 -1
    outer loop
      vertex -3.17349 0 1
      vertex -1.45287 0.373034 1
      vertex -1.48817 0.188 1
    endloop
  endfacet
  facet normal 0 0 -1
    outer loop
      vertex -3.17349 0 1
      vertex -1.48817 0.188 1
      vertex -1.5 0 1
    endloop
  endfacet
  facet normal 0 0 -1
    outer loop
      vertex -1.48817 -0.188 1
      vertex -3.17349 0 1
      vertex -1.5 0 1
    endloop
  endfacet
  facet normal -0 0 -1
    outer loop
      vertex -1.31446 0.722631 1
      vertex -3.17349 0 1
      vertex -1.58675 2.74832 1
    endloop
  endfacet
  facet normal -0.844314 -0.535848 0
    outer loop
      vertex 1.31446 0.722631 1
      vertex 1.21352 0.881678 1.5
      vertex 1.21352 0.881678 1
    endloop
  endfacet
  facet normal -0.844314 -0.535848 0
    outer loop
      vertex 1.21352 0.881678 1.5
      vertex 1.31446 0.722631 1
      vertex 1.31446 0.722631 1.5
    endloop
  endfacet
  facet normal -0.368106 -0.929784 0
    outer loop
      vertex 0.463525 1.42658 1
      vertex 0.638668 1.35724 1.5
      vertex 0.463525 1.42658 1.5
    endloop
  endfacet
  facet normal -0.368106 -0.929784 -0
    outer loop
      vertex 0.638668 1.35724 1.5
      vertex 0.463525 1.42658 1
      vertex 0.638668 1.35724 1
    endloop
  endfacet
  facet normal 0.368106 -0.929784 0
    outer loop
      vertex -0.638668 1.35724 1
      vertex -0.463525 1.42658 1.5
      vertex -0.638668 1.35724 1.5
    endloop
  endfacet
  facet normal 0.368106 -0.929784 0
    outer loop
      vertex -0.463525 1.42658 1.5
      vertex -0.638668 1.35724 1
      vertex -0.463525 1.42658 1
    endloop
  endfacet
  facet normal 0.904838 -0.425756 0
    outer loop
      vertex -1.39466 0.552186 1.5
      vertex -1.31446 0.722631 1
      vertex -1.31446 0.722631 1.5
    endloop
  endfacet
  facet normal 0.904838 -0.425756 0
    outer loop
      vertex -1.31446 0.722631 1
      vertex -1.39466 0.552186 1.5
      vertex -1.39466 0.552186 1
    endloop
  endfacet
  facet normal -0.982284 0.187396 0
    outer loop
      vertex 1.45287 -0.373034 1
      vertex 1.48817 -0.188 1.5
      vertex 1.48817 -0.188 1
    endloop
  endfacet
  facet normal -0.982284 0.187396 0
    outer loop
      vertex 1.48817 -0.188 1.5
      vertex 1.45287 -0.373034 1
      vertex 1.45287 -0.373034 1.5
    endloop
  endfacet
  facet normal -0.684557 -0.728959 0
    outer loop
      vertex 0.956136 1.15577 1
      vertex 1.09345 1.02682 1.5
      vertex 0.956136 1.15577 1.5
    endloop
  endfacet
  facet normal -0.684557 -0.728959 -0
    outer loop
      vertex 1.09345 1.02682 1.5
      vertex 0.956136 1.15577 1
      vertex 1.09345 1.02682 1
    endloop
  endfacet
  facet normal -0.125337 -0.992114 0
    outer loop
      vertex 0.0941849 1.49704 1
      vertex 0.281072 1.47343 1.5
      vertex 0.0941849 1.49704 1.5
    endloop
  endfacet
  facet normal -0.125337 -0.992114 -0
    outer loop
      vertex 0.281072 1.47343 1.5
      vertex 0.0941849 1.49704 1
      vertex 0.281072 1.47343 1
    endloop
  endfacet
  facet normal -0.481757 -0.876305 0
    outer loop
      vertex 0.638668 1.35724 1
      vertex 0.80374 1.26649 1.5
      vertex 0.638668 1.35724 1.5
    endloop
  endfacet
  facet normal -0.481757 -0.876305 -0
    outer loop
      vertex 0.80374 1.26649 1.5
      vertex 0.638668 1.35724 1
      vertex 0.80374 1.26649 1
    endloop
  endfacet
  facet normal 0.982284 -0.187396 0
    outer loop
      vertex -1.48817 0.188 1.5
      vertex -1.45287 0.373034 1
      vertex -1.45287 0.373034 1.5
    endloop
  endfacet
  facet normal 0.982284 -0.187396 0
    outer loop
      vertex -1.45287 0.373034 1
      vertex -1.48817 0.188 1.5
      vertex -1.48817 0.188 1
    endloop
  endfacet
  facet normal 0.770518 -0.637418 0
    outer loop
      vertex -1.21352 0.881678 1.5
      vertex -1.09345 1.02682 1
      vertex -1.09345 1.02682 1.5
    endloop
  endfacet
  facet normal 0.770518 -0.637418 0
    outer loop
      vertex -1.09345 1.02682 1
      vertex -1.21352 0.881678 1.5
      vertex -1.21352 0.881678 1
    endloop
  endfacet
  facet normal 0.125337 -0.992114 0
    outer loop
      vertex -0.281072 1.47343 1
      vertex -0.0941849 1.49704 1.5
      vertex -0.281072 1.47343 1.5
    endloop
  endfacet
  facet normal 0.125337 -0.992114 0
    outer loop
      vertex -0.0941849 1.49704 1.5
      vertex -0.281072 1.47343 1
      vertex -0.0941849 1.49704 1
    endloop
  endfacet
  facet normal 0.684557 -0.728959 0
    outer loop
      vertex -1.09345 1.02682 1
      vertex -0.956136 1.15577 1.5
      vertex -1.09345 1.02682 1.5
    endloop
  endfacet
  facet normal 0.684557 -0.728959 0
    outer loop
      vertex -0.956136 1.15577 1.5
      vertex -1.09345 1.02682 1
      vertex -0.956136 1.15577 1
    endloop
  endfacet
  facet normal -0.998026 -0.0628013 0
    outer loop
      vertex 1.5 0 1
      vertex 1.48817 0.188 1.5
      vertex 1.48817 0.188 1
    endloop
  endfacet
  facet normal -0.998026 -0.0628013 0
    outer loop
      vertex 1.48817 0.188 1.5
      vertex 1.5 0 1
      vertex 1.5 0 1.5
    endloop
  endfacet
  facet normal -0.481757 0.876305 0
    outer loop
      vertex 0.80374 -1.26649 1
      vertex 0.638668 -1.35724 1.5
      vertex 0.80374 -1.26649 1.5
    endloop
  endfacet
  facet normal -0.481757 0.876305 0
    outer loop
      vertex 0.638668 -1.35724 1.5
      vertex 0.80374 -1.26649 1
      vertex 0.638668 -1.35724 1
    endloop
  endfacet
  facet normal -0.770518 -0.637418 0
    outer loop
      vertex 1.21352 0.881678 1
      vertex 1.09345 1.02682 1.5
      vertex 1.09345 1.02682 1
    endloop
  endfacet
  facet normal -0.770518 -0.637418 0
    outer loop
      vertex 1.09345 1.02682 1.5
      vertex 1.21352 0.881678 1
      vertex 1.21352 0.881678 1.5
    endloop
  endfacet
  facet normal 0 -1 0
    outer loop
      vertex -0.0941849 1.49704 1
      vertex 0.0941849 1.49704 1.5
      vertex -0.0941849 1.49704 1.5
    endloop
  endfacet
  facet normal 0 -1 -0
    outer loop
      vertex 0.0941849 1.49704 1.5
      vertex -0.0941849 1.49704 1
      vertex 0.0941849 1.49704 1
    endloop
  endfacet
  facet normal -0.24871 -0.968578 0
    outer loop
      vertex 0.281072 1.47343 1
      vertex 0.463525 1.42658 1.5
      vertex 0.281072 1.47343 1.5
    endloop
  endfacet
  facet normal -0.24871 -0.968578 -0
    outer loop
      vertex 0.463525 1.42658 1.5
      vertex 0.281072 1.47343 1
      vertex 0.463525 1.42658 1
    endloop
  endfacet
  facet normal -0.587778 -0.809022 0
    outer loop
      vertex 0.80374 1.26649 1
      vertex 0.956136 1.15577 1.5
      vertex 0.80374 1.26649 1.5
    endloop
  endfacet
  facet normal -0.587778 -0.809022 -0
    outer loop
      vertex 0.956136 1.15577 1.5
      vertex 0.80374 1.26649 1
      vertex 0.956136 1.15577 1
    endloop
  endfacet
  facet normal 0.998026 -0.0628013 0
    outer loop
      vertex -1.5 0 1.5
      vertex -1.48817 0.188 1
      vertex -1.48817 0.188 1.5
    endloop
  endfacet
  facet normal 0.998026 -0.0628013 0
    outer loop
      vertex -1.48817 0.188 1
      vertex -1.5 0 1.5
      vertex -1.5 0 1
    endloop
  endfacet
  facet normal 0.951057 -0.309017 0
    outer loop
      vertex -1.45287 0.373034 1.5
      vertex -1.39466 0.552186 1
      vertex -1.39466 0.552186 1.5
    endloop
  endfacet
  facet normal 0.951057 -0.309017 0
    outer loop
      vertex -1.39466 0.552186 1
      vertex -1.45287 0.373034 1.5
      vertex -1.45287 0.373034 1
    endloop
  endfacet
  facet normal 0.844314 -0.535848 0
    outer loop
      vertex -1.31446 0.722631 1.5
      vertex -1.21352 0.881678 1
      vertex -1.21352 0.881678 1.5
    endloop
  endfacet
  facet normal 0.844314 -0.535848 0
    outer loop
      vertex -1.21352 0.881678 1
      vertex -1.31446 0.722631 1.5
      vertex -1.31446 0.722631 1
    endloop
  endfacet
  facet normal 0.24871 -0.968578 0
    outer loop
      vertex -0.463525 1.42658 1
      vertex -0.281072 1.47343 1.5
      vertex -0.463525 1.42658 1.5
    endloop
  endfacet
  facet normal 0.24871 -0.968578 0
    outer loop
      vertex -0.281072 1.47343 1.5
      vertex -0.463525 1.42658 1
      vertex -0.281072 1.47343 1
    endloop
  endfacet
  facet normal 0.587778 -0.809022 0
    outer loop
      vertex -0.956136 1.15577 1
      vertex -0.80374 1.26649 1.5
      vertex -0.956136 1.15577 1.5
    endloop
  endfacet
  facet normal 0.587778 -0.809022 0
    outer loop
      vertex -0.80374 1.26649 1.5
      vertex -0.956136 1.15577 1
      vertex -0.80374 1.26649 1
    endloop
  endfacet
  facet normal 0.481757 -0.876305 0
    outer loop
      vertex -0.80374 1.26649 1
      vertex -0.638668 1.35724 1.5
      vertex -0.80374 1.26649 1.5
    endloop
  endfacet
  facet normal 0.481757 -0.876305 0
    outer loop
      vertex -0.638668 1.35724 1.5
      vertex -0.80374 1.26649 1
      vertex -0.638668 1.35724 1
    endloop
  endfacet
  facet normal 0 1 -0
    outer loop
      vertex 0.0941849 -1.49704 1
      vertex -0.0941849 -1.49704 1.5
      vertex 0.0941849 -1.49704 1.5
    endloop
  endfacet
  facet normal 0 1 0
    outer loop
      vertex -0.0941849 -1.49704 1.5
      vertex 0.0941849 -1.49704 1
      vertex -0.0941849 -1.49704 1
    endloop
  endfacet
  facet normal 0.844314 0.535848 0
    outer loop
      vertex -1.21352 -0.881678 1.5
      vertex -1.31446 -0.722631 1
      vertex -1.31446 -0.722631 1.5
    endloop
  endfacet
  facet normal 0.844314 0.535848 0
    outer loop
      vertex -1.31446 -0.722631 1
      vertex -1.21352 -0.881678 1.5
      vertex -1.21352 -0.881678 1
    endloop
  endfacet
  facet normal -0.125337 0.992114 0
    outer loop
      vertex 0.281072 -1.47343 1
      vertex 0.0941849 -1.49704 1.5
      vertex 0.281072 -1.47343 1.5
    endloop
  endfacet
  facet normal -0.125337 0.992114 0
    outer loop
      vertex 0.0941849 -1.49704 1.5
      vertex 0.281072 -1.47343 1
      vertex 0.0941849 -1.49704 1
    endloop
  endfacet
  facet normal -0.368106 0.929784 0
    outer loop
      vertex 0.638668 -1.35724 1
      vertex 0.463525 -1.42658 1.5
      vertex 0.638668 -1.35724 1.5
    endloop
  endfacet
  facet normal -0.368106 0.929784 0
    outer loop
      vertex 0.463525 -1.42658 1.5
      vertex 0.638668 -1.35724 1
      vertex 0.463525 -1.42658 1
    endloop
  endfacet
  facet normal -0.904838 -0.425756 0
    outer loop
      vertex 1.39466 0.552186 1
      vertex 1.31446 0.722631 1.5
      vertex 1.31446 0.722631 1
    endloop
  endfacet
  facet normal -0.904838 -0.425756 0
    outer loop
      vertex 1.31446 0.722631 1.5
      vertex 1.39466 0.552186 1
      vertex 1.39466 0.552186 1.5
    endloop
  endfacet
  facet normal -0.951057 -0.309017 0
    outer loop
      vertex 1.45287 0.373034 1
      vertex 1.39466 0.552186 1.5
      vertex 1.39466 0.552186 1
    endloop
  endfacet
  facet normal -0.951057 -0.309017 0
    outer loop
      vertex 1.39466 0.552186 1.5
      vertex 1.45287 0.373034 1
      vertex 1.45287 0.373034 1.5
    endloop
  endfacet
  facet normal -0.982284 -0.187396 0
    outer loop
      vertex 1.48817 0.188 1
      vertex 1.45287 0.373034 1.5
      vertex 1.45287 0.373034 1
    endloop
  endfacet
  facet normal -0.982284 -0.187396 0
    outer loop
      vertex 1.45287 0.373034 1.5
      vertex 1.48817 0.188 1
      vertex 1.48817 0.188 1.5
    endloop
  endfacet
  facet normal -0.998026 0.0628013 0
    outer loop
      vertex 1.48817 -0.188 1
      vertex 1.5 0 1.5
      vertex 1.5 0 1
    endloop
  endfacet
  facet normal -0.998026 0.0628013 0
    outer loop
      vertex 1.5 0 1.5
      vertex 1.48817 -0.188 1
      vertex 1.48817 -0.188 1.5
    endloop
  endfacet
  facet normal -0.904838 0.425756 0
    outer loop
      vertex 1.31446 -0.722631 1
      vertex 1.39466 -0.552186 1.5
      vertex 1.39466 -0.552186 1
    endloop
  endfacet
  facet normal -0.904838 0.425756 0
    outer loop
      vertex 1.39466 -0.552186 1.5
      vertex 1.31446 -0.722631 1
      vertex 1.31446 -0.722631 1.5
    endloop
  endfacet
  facet normal -0.951057 0.309017 0
    outer loop
      vertex 1.39466 -0.552186 1
      vertex 1.45287 -0.373034 1.5
      vertex 1.45287 -0.373034 1
    endloop
  endfacet
  facet normal -0.951057 0.309017 0
    outer loop
      vertex 1.45287 -0.373034 1.5
      vertex 1.39466 -0.552186 1
      vertex 1.39466 -0.552186 1.5
    endloop
  endfacet
  facet normal -0.684557 0.728959 0
    outer loop
      vertex 1.09345 -1.02682 1
      vertex 0.956136 -1.15577 1.5
      vertex 1.09345 -1.02682 1.5
    endloop
  endfacet
  facet normal -0.684557 0.728959 0
    outer loop
      vertex 0.956136 -1.15577 1.5
      vertex 1.09345 -1.02682 1
      vertex 0.956136 -1.15577 1
    endloop
  endfacet
  facet normal -0.770518 0.637418 0
    outer loop
      vertex 1.09345 -1.02682 1
      vertex 1.21352 -0.881678 1.5
      vertex 1.21352 -0.881678 1
    endloop
  endfacet
  facet normal -0.770518 0.637418 0
    outer loop
      vertex 1.21352 -0.881678 1.5
      vertex 1.09345 -1.02682 1
      vertex 1.09345 -1.02682 1.5
    endloop
  endfacet
  facet normal -0.844314 0.535848 0
    outer loop
      vertex 1.21352 -0.881678 1
      vertex 1.31446 -0.722631 1.5
      vertex 1.31446 -0.722631 1
    endloop
  endfacet
  facet normal -0.844314 0.535848 0
    outer loop
      vertex 1.31446 -0.722631 1.5
      vertex 1.21352 -0.881678 1
      vertex 1.21352 -0.881678 1.5
    endloop
  endfacet
  facet normal 0.904838 0.425756 0
    outer loop
      vertex -1.31446 -0.722631 1.5
      vertex -1.39466 -0.552186 1
      vertex -1.39466 -0.552186 1.5
    endloop
  endfacet
  facet normal 0.904838 0.425756 0
    outer loop
      vertex -1.39466 -0.552186 1
      vertex -1.31446 -0.722631 1.5
      vertex -1.31446 -0.722631 1
    endloop
  endfacet
  facet normal 0.684557 0.728959 -0
    outer loop
      vertex -0.956136 -1.15577 1
      vertex -1.09345 -1.02682 1.5
      vertex -0.956136 -1.15577 1.5
    endloop
  endfacet
  facet normal 0.684557 0.728959 0
    outer loop
      vertex -1.09345 -1.02682 1.5
      vertex -0.956136 -1.15577 1
      vertex -1.09345 -1.02682 1
    endloop
  endfacet
  facet normal -0.24871 0.968578 0
    outer loop
      vertex 0.463525 -1.42658 1
      vertex 0.281072 -1.47343 1.5
      vertex 0.463525 -1.42658 1.5
    endloop
  endfacet
  facet normal -0.24871 0.968578 0
    outer loop
      vertex 0.281072 -1.47343 1.5
      vertex 0.463525 -1.42658 1
      vertex 0.281072 -1.47343 1
    endloop
  endfacet
  facet normal -0.587778 0.809022 0
    outer loop
      vertex 0.956136 -1.15577 1
      vertex 0.80374 -1.26649 1.5
      vertex 0.956136 -1.15577 1.5
    endloop
  endfacet
  facet normal -0.587778 0.809022 0
    outer loop
      vertex 0.80374 -1.26649 1.5
      vertex 0.956136 -1.15577 1
      vertex 0.80374 -1.26649 1
    endloop
  endfacet
  facet normal 0.368106 0.929784 -0
    outer loop
      vertex -0.463525 -1.42658 1
      vertex -0.638668 -1.35724 1.5
      vertex -0.463525 -1.42658 1.5
    endloop
  endfacet
  facet normal 0.368106 0.929784 0
    outer loop
      vertex -0.638668 -1.35724 1.5
      vertex -0.463525 -1.42658 1
      vertex -0.638668 -1.35724 1
    endloop
  endfacet
  facet normal 0.125337 0.992114 -0
    outer loop
      vertex -0.0941849 -1.49704 1
      vertex -0.281072 -1.47343 1.5
      vertex -0.0941849 -1.49704 1.5
    endloop
  endfacet
  facet normal 0.125337 0.992114 0
    outer loop
      vertex -0.281072 -1.47343 1.5
      vertex -0.0941849 -1.49704 1
      vertex -0.281072 -1.47343 1
    endloop
  endfacet
  facet normal 0.998026 0.0628013 0
    outer loop
      vertex -1.48817 -0.188 1.5
      vertex -1.5 0 1
      vertex -1.5 0 1.5
    endloop
  endfacet
  facet normal 0.998026 0.0628013 0
    outer loop
      vertex -1.5 0 1
      vertex -1.48817 -0.188 1.5
      vertex -1.48817 -0.188 1
    endloop
  endfacet
  facet normal 0.24871 0.968578 -0
    outer loop
      vertex -0.281072 -1.47343 1
      vertex -0.463525 -1.42658 1.5
      vertex -0.281072 -1.47343 1.5
    endloop
  endfacet
  facet normal 0.24871 0.968578 0
    outer loop
      vertex -0.463525 -1.42658 1.5
      vertex -0.281072 -1.47343 1
      vertex -0.463525 -1.42658 1
    endloop
  endfacet
  facet normal 0.951057 0.309017 0
    outer loop
      vertex -1.39466 -0.552186 1.5
      vertex -1.45287 -0.373034 1
      vertex -1.45287 -0.373034 1.5
    endloop
  endfacet
  facet normal 0.951057 0.309017 0
    outer loop
      vertex -1.45287 -0.373034 1
      vertex -1.39466 -0.552186 1.5
      vertex -1.39466 -0.552186 1
    endloop
  endfacet
  facet normal 0.982284 0.187396 0
    outer loop
      vertex -1.45287 -0.373034 1.5
      vertex -1.48817 -0.188 1
      vertex -1.48817 -0.188 1.5
    endloop
  endfacet
  facet normal 0.982284 0.187396 0
    outer loop
      vertex -1.48817 -0.188 1
      vertex -1.45287 -0.373034 1.5
      vertex -1.45287 -0.373034 1
    endloop
  endfacet
  facet normal 0.770518 0.637418 0
    outer loop
      vertex -1.09345 -1.02682 1.5
      vertex -1.21352 -0.881678 1
      vertex -1.21352 -0.881678 1.5
    endloop
  endfacet
  facet normal 0.770518 0.637418 0
    outer loop
      vertex -1.21352 -0.881678 1
      vertex -1.09345 -1.02682 1.5
      vertex -1.09345 -1.02682 1
    endloop
  endfacet
  facet normal 0.481757 0.876305 -0
    outer loop
      vertex -0.638668 -1.35724 1
      vertex -0.80374 -1.26649 1.5
      vertex -0.638668 -1.35724 1.5
    endloop
  endfacet
  facet normal 0.481757 0.876305 0
    outer loop
      vertex -0.80374 -1.26649 1.5
      vertex -0.638668 -1.35724 1
      vertex -0.80374 -1.26649 1
    endloop
  endfacet
  facet normal 0.587778 0.809022 -0
    outer loop
      vertex -0.80374 -1.26649 1
      vertex -0.956136 -1.15577 1.5
      vertex -0.80374 -1.26649 1.5
    endloop
  endfacet
  facet normal 0.587778 0.809022 0
    outer loop
      vertex -0.956136 -1.15577 1.5
      vertex -0.80374 -1.26649 1
      vertex -0.956136 -1.15577 1
    endloop
  endfacet
endsolid OpenSCAD_Model
