<?xml version="1.0" standalone="no"?>
<!DOCTYPE svg PUBLIC "-//W3C//DTD SVG 1.1//EN" "http://www.w3.org/Graphics/SVG/1.1/DTD/svg11.dtd">
<svg width="180mm" height="636mm" viewBox="-90 -1221 180 636" xmlns="http://www.w3.org/2000/svg" version="1.1">
<title>OpenSCAD Model</title>
<path d="
M 85.9369,-1101.09 L 86.5451,-1101.24 L 87.1289,-1101.48 L 87.6791,-1101.78 L 88.1871,-1102.15 L 88.6448,-1102.58
 L 89.0451,-1103.06 L 89.3815,-1103.59 L 89.6489,-1104.16 L 89.8429,-1104.76 L 89.9606,-1105.37 L 90,-1106
 L 90,-1216 L 89.9606,-1216.63 L 89.8429,-1217.24 L 89.6489,-1217.84 L 89.3815,-1218.41 L 89.0451,-1218.94
 L 88.6448,-1219.42 L 88.1871,-1219.85 L 87.6791,-1220.22 L 87.1289,-1220.52 L 86.5451,-1220.76 L 85.9369,-1220.91
 L 85.3139,-1220.99 L -85.3139,-1220.99 L -85.9369,-1220.91 L -86.5451,-1220.76 L -87.1289,-1220.52 L -87.6791,-1220.22
 L -88.1871,-1219.85 L -88.6448,-1219.42 L -89.0451,-1218.94 L -89.3815,-1218.41 L -89.6489,-1217.84 L -89.8429,-1217.24
 L -89.9606,-1216.63 L -90,-1216 L -90,-1106 L -89.9606,-1105.37 L -89.8429,-1104.76 L -89.6489,-1104.16
 L -89.3815,-1103.59 L -89.0451,-1103.06 L -88.6448,-1102.58 L -88.1871,-1102.15 L -87.6791,-1101.78 L -87.1289,-1101.48
 L -86.5451,-1101.24 L -85.9369,-1101.09 L -85.3139,-1101.01 L 85.3139,-1101.01 z
M -84.7512,-1102.51 L -85.2495,-1102.57 L -85.7361,-1102.7 L -86.2031,-1102.88 L -86.6433,-1103.12 L -87.0497,-1103.42
 L -87.4159,-1103.76 L -87.7361,-1104.15 L -88.0052,-1104.57 L -88.2191,-1105.03 L -88.3743,-1105.51 L -88.4685,-1106
 L -88.5,-1106.5 L -88.5,-1215.5 L -88.4685,-1216 L -88.3743,-1216.49 L -88.2191,-1216.97 L -88.0052,-1217.43
 L -87.7361,-1217.85 L -87.4159,-1218.24 L -87.0497,-1218.58 L -86.6433,-1218.88 L -86.2031,-1219.12 L -85.7361,-1219.3
 L -85.2495,-1219.43 L -84.7512,-1219.49 L 84.7512,-1219.49 L 85.2495,-1219.43 L 85.7361,-1219.3 L 86.2031,-1219.12
 L 86.6433,-1218.88 L 87.0497,-1218.58 L 87.4159,-1218.24 L 87.7361,-1217.85 L 88.0052,-1217.43 L 88.2191,-1216.97
 L 88.3743,-1216.49 L 88.4685,-1216 L 88.5,-1215.5 L 88.5,-1106.5 L 88.4685,-1106 L 88.3743,-1105.51
 L 88.2191,-1105.03 L 88.0052,-1104.57 L 87.7361,-1104.15 L 87.4159,-1103.76 L 87.0497,-1103.42 L 86.6433,-1103.12
 L 86.2031,-1102.88 L 85.7361,-1102.7 L 85.2495,-1102.57 L 84.7512,-1102.51 z
M 85.9369,-972.089 L 86.5451,-972.245 L 87.1289,-972.476 L 87.6791,-972.778 L 88.1871,-973.147 L 88.6448,-973.577
 L 89.0451,-974.061 L 89.3815,-974.591 L 89.6489,-975.159 L 89.8429,-975.757 L 89.9606,-976.373 L 90,-977
 L 90,-1087 L 89.9606,-1087.63 L 89.8429,-1088.24 L 89.6489,-1088.84 L 89.3815,-1089.41 L 89.0451,-1089.94
 L 88.6448,-1090.42 L 88.1871,-1090.85 L 87.6791,-1091.22 L 87.1289,-1091.52 L 86.5451,-1091.76 L 85.9369,-1091.91
 L 85.3139,-1091.99 L -85.3139,-1091.99 L -85.9369,-1091.91 L -86.5451,-1091.76 L -87.1289,-1091.52 L -87.6791,-1091.22
 L -88.1871,-1090.85 L -88.6448,-1090.42 L -89.0451,-1089.94 L -89.3815,-1089.41 L -89.6489,-1088.84 L -89.8429,-1088.24
 L -89.9606,-1087.63 L -90,-1087 L -90,-977 L -89.9606,-976.373 L -89.8429,-975.757 L -89.6489,-975.159
 L -89.3815,-974.591 L -89.0451,-974.061 L -88.6448,-973.577 L -88.1871,-973.147 L -87.6791,-972.778 L -87.1289,-972.476
 L -86.5451,-972.245 L -85.9369,-972.089 L -85.3139,-972.01 L 85.3139,-972.01 z
M -84.7512,-973.508 L -85.2495,-973.571 L -85.7361,-973.696 L -86.2031,-973.881 L -86.6433,-974.123 L -87.0497,-974.418
 L -87.4159,-974.762 L -87.7361,-975.149 L -88.0052,-975.573 L -88.2191,-976.028 L -88.3743,-976.505 L -88.4685,-976.999
 L -88.5,-977.5 L -88.5,-1086.5 L -88.4685,-1087 L -88.3743,-1087.49 L -88.2191,-1087.97 L -88.0052,-1088.43
 L -87.7361,-1088.85 L -87.4159,-1089.24 L -87.0497,-1089.58 L -86.6433,-1089.88 L -86.2031,-1090.12 L -85.7361,-1090.3
 L -85.2495,-1090.43 L -84.7512,-1090.49 L 84.7512,-1090.49 L 85.2495,-1090.43 L 85.7361,-1090.3 L 86.2031,-1090.12
 L 86.6433,-1089.88 L 87.0497,-1089.58 L 87.4159,-1089.24 L 87.7361,-1088.85 L 88.0052,-1088.43 L 88.2191,-1087.97
 L 88.3743,-1087.49 L 88.4685,-1087 L 88.5,-1086.5 L 88.5,-977.5 L 88.4685,-976.999 L 88.3743,-976.505
 L 88.2191,-976.028 L 88.0052,-975.573 L 87.7361,-975.149 L 87.4159,-974.762 L 87.0497,-974.418 L 86.6433,-974.123
 L 86.2031,-973.881 L 85.7361,-973.696 L 85.2495,-973.571 L 84.7512,-973.508 z
M 85.9369,-843.089 L 86.5451,-843.245 L 87.1289,-843.476 L 87.6791,-843.778 L 88.1871,-844.147 L 88.6448,-844.577
 L 89.0451,-845.061 L 89.3815,-845.591 L 89.6489,-846.159 L 89.8429,-846.757 L 89.9606,-847.373 L 90,-848
 L 90,-958 L 89.9606,-958.627 L 89.8429,-959.243 L 89.6489,-959.841 L 89.3815,-960.409 L 89.0451,-960.939
 L 88.6448,-961.423 L 88.1871,-961.853 L 87.6791,-962.222 L 87.1289,-962.524 L 86.5451,-962.755 L 85.9369,-962.911
 L 85.3139,-962.99 L -85.3139,-962.99 L -85.9369,-962.911 L -86.5451,-962.755 L -87.1289,-962.524 L -87.6791,-962.222
 L -88.1871,-961.853 L -88.6448,-961.423 L -89.0451,-960.939 L -89.3815,-960.409 L -89.6489,-959.841 L -89.8429,-959.243
 L -89.9606,-958.627 L -90,-958 L -90,-848 L -89.9606,-847.373 L -89.8429,-846.757 L -89.6489,-846.159
 L -89.3815,-845.591 L -89.0451,-845.061 L -88.6448,-844.577 L -88.1871,-844.147 L -87.6791,-843.778 L -87.1289,-843.476
 L -86.5451,-843.245 L -85.9369,-843.089 L -85.3139,-843.01 L 85.3139,-843.01 z
M -84.7512,-844.508 L -85.2495,-844.571 L -85.7361,-844.696 L -86.2031,-844.881 L -86.6433,-845.123 L -87.0497,-845.418
 L -87.4159,-845.762 L -87.7361,-846.149 L -88.0052,-846.573 L -88.2191,-847.028 L -88.3743,-847.505 L -88.4685,-847.999
 L -88.5,-848.5 L -88.5,-957.5 L -88.4685,-958.001 L -88.3743,-958.495 L -88.2191,-958.972 L -88.0052,-959.427
 L -87.7361,-959.851 L -87.4159,-960.238 L -87.0497,-960.582 L -86.6433,-960.877 L -86.2031,-961.119 L -85.7361,-961.304
 L -85.2495,-961.429 L -84.7512,-961.492 L 84.7512,-961.492 L 85.2495,-961.429 L 85.7361,-961.304 L 86.2031,-961.119
 L 86.6433,-960.877 L 87.0497,-960.582 L 87.4159,-960.238 L 87.7361,-959.851 L 88.0052,-959.427 L 88.2191,-958.972
 L 88.3743,-958.495 L 88.4685,-958.001 L 88.5,-957.5 L 88.5,-848.5 L 88.4685,-847.999 L 88.3743,-847.505
 L 88.2191,-847.028 L 88.0052,-846.573 L 87.7361,-846.149 L 87.4159,-845.762 L 87.0497,-845.418 L 86.6433,-845.123
 L 86.2031,-844.881 L 85.7361,-844.696 L 85.2495,-844.571 L 84.7512,-844.508 z
M 85.9369,-714.089 L 86.5451,-714.245 L 87.1289,-714.476 L 87.6791,-714.778 L 88.1871,-715.147 L 88.6448,-715.577
 L 89.0451,-716.061 L 89.3815,-716.591 L 89.6489,-717.159 L 89.8429,-717.757 L 89.9606,-718.373 L 90,-719
 L 90,-829 L 89.9606,-829.627 L 89.8429,-830.243 L 89.6489,-830.841 L 89.3815,-831.409 L 89.0451,-831.939
 L 88.6448,-832.423 L 88.1871,-832.853 L 87.6791,-833.222 L 87.1289,-833.524 L 86.5451,-833.755 L 85.9369,-833.911
 L 85.3139,-833.99 L -85.3139,-833.99 L -85.9369,-833.911 L -86.5451,-833.755 L -87.1289,-833.524 L -87.6791,-833.222
 L -88.1871,-832.853 L -88.6448,-832.423 L -89.0451,-831.939 L -89.3815,-831.409 L -89.6489,-830.841 L -89.8429,-830.243
 L -89.9606,-829.627 L -90,-829 L -90,-719 L -89.9606,-718.373 L -89.8429,-717.757 L -89.6489,-717.159
 L -89.3815,-716.591 L -89.0451,-716.061 L -88.6448,-715.577 L -88.1871,-715.147 L -87.6791,-714.778 L -87.1289,-714.476
 L -86.5451,-714.245 L -85.9369,-714.089 L -85.3139,-714.01 L 85.3139,-714.01 z
M -84.6955,-716.393 L -85.0833,-716.442 L -85.4619,-716.539 L -85.8254,-716.683 L -86.168,-716.872 L -86.4843,-717.101
 L -86.7692,-717.369 L -87.0184,-717.67 L -87.2279,-718 L -87.3943,-718.354 L -87.5151,-718.726 L -87.5884,-719.11
 L -87.6129,-719.5 L -87.6129,-828.5 L -87.5884,-828.89 L -87.5151,-829.274 L -87.3943,-829.646 L -87.2279,-830
 L -87.0184,-830.33 L -86.7692,-830.631 L -86.4843,-830.899 L -86.168,-831.128 L -85.8254,-831.317 L -85.4619,-831.461
 L -85.0833,-831.558 L -84.6955,-831.607 L 84.6955,-831.607 L 85.0833,-831.558 L 85.4619,-831.461 L 85.8254,-831.317
 L 86.168,-831.128 L 86.4843,-830.899 L 86.7692,-830.631 L 87.0184,-830.33 L 87.2279,-830 L 87.3943,-829.646
 L 87.5151,-829.274 L 87.5884,-828.89 L 87.6129,-828.5 L 87.6129,-719.5 L 87.5884,-719.11 L 87.5151,-718.726
 L 87.3943,-718.354 L 87.2279,-718 L 87.0184,-717.67 L 86.7692,-717.369 L 86.4843,-717.101 L 86.168,-716.872
 L 85.8254,-716.683 L 85.4619,-716.539 L 85.0833,-716.442 L 84.6955,-716.393 z
M 85.9369,-585.089 L 86.5451,-585.245 L 87.1289,-585.476 L 87.6791,-585.778 L 88.1871,-586.147 L 88.6448,-586.577
 L 89.0451,-587.061 L 89.3815,-587.591 L 89.6489,-588.159 L 89.8429,-588.757 L 89.9606,-589.373 L 90,-590
 L 90,-700 L 89.9606,-700.627 L 89.8429,-701.243 L 89.6489,-701.841 L 89.3815,-702.409 L 89.0451,-702.939
 L 88.6448,-703.423 L 88.1871,-703.853 L 87.6791,-704.222 L 87.1289,-704.524 L 86.5451,-704.755 L 85.9369,-704.911
 L 85.3139,-704.99 L -85.3139,-704.99 L -85.9369,-704.911 L -86.5451,-704.755 L -87.1289,-704.524 L -87.6791,-704.222
 L -88.1871,-703.853 L -88.6448,-703.423 L -89.0451,-702.939 L -89.3815,-702.409 L -89.6489,-701.841 L -89.8429,-701.243
 L -89.9606,-700.627 L -90,-700 L -90,-590 L -89.9606,-589.373 L -89.8429,-588.757 L -89.6489,-588.159
 L -89.3815,-587.591 L -89.0451,-587.061 L -88.6448,-586.577 L -88.1871,-586.147 L -87.6791,-585.778 L -87.1289,-585.476
 L -86.5451,-585.245 L -85.9369,-585.089 L -85.3139,-585.01 L 85.3139,-585.01 z
M 82.3659,-695.369 L 82.0999,-695.403 L 81.8401,-695.469 L 81.5908,-695.568 L 81.3559,-695.697 L 81.1389,-695.855
 L 80.9434,-696.038 L 80.7725,-696.245 L 80.6288,-696.471 L 80.5146,-696.714 L 80.4318,-696.969 L 80.3815,-697.232
 L 80.3647,-697.5 L 80.3815,-697.768 L 80.4318,-698.031 L 80.5146,-698.286 L 80.6288,-698.529 L 80.7725,-698.755
 L 80.9434,-698.962 L 81.1389,-699.145 L 81.3559,-699.303 L 81.5908,-699.432 L 81.8401,-699.531 L 82.0999,-699.597
 L 82.3659,-699.631 L 82.6341,-699.631 L 82.9001,-699.597 L 83.1598,-699.531 L 83.4092,-699.432 L 83.6441,-699.303
 L 83.8611,-699.145 L 84.0566,-698.962 L 84.2275,-698.755 L 84.3712,-698.529 L 84.4853,-698.286 L 84.5682,-698.031
 L 84.6185,-697.768 L 84.6353,-697.5 L 84.6185,-697.232 L 84.5682,-696.969 L 84.4853,-696.714 L 84.3712,-696.471
 L 84.2275,-696.245 L 84.0566,-696.038 L 83.8611,-695.855 L 83.6441,-695.697 L 83.4092,-695.568 L 83.1598,-695.469
 L 82.9001,-695.403 L 82.6341,-695.369 z
M -82.6341,-695.369 L -82.9001,-695.403 L -83.1598,-695.469 L -83.4092,-695.568 L -83.6441,-695.697 L -83.8611,-695.855
 L -84.0566,-696.038 L -84.2275,-696.245 L -84.3712,-696.471 L -84.4853,-696.714 L -84.5682,-696.969 L -84.6185,-697.232
 L -84.6353,-697.5 L -84.6185,-697.768 L -84.5682,-698.031 L -84.4853,-698.286 L -84.3712,-698.529 L -84.2275,-698.755
 L -84.0566,-698.962 L -83.8611,-699.145 L -83.6441,-699.303 L -83.4092,-699.432 L -83.1598,-699.531 L -82.9001,-699.597
 L -82.6341,-699.631 L -82.3659,-699.631 L -82.0999,-699.597 L -81.8401,-699.531 L -81.5908,-699.432 L -81.3559,-699.303
 L -81.1389,-699.145 L -80.9434,-698.962 L -80.7725,-698.755 L -80.6288,-698.529 L -80.5146,-698.286 L -80.4318,-698.031
 L -80.3815,-697.768 L -80.3647,-697.5 L -80.3815,-697.232 L -80.4318,-696.969 L -80.5146,-696.714 L -80.6288,-696.471
 L -80.7725,-696.245 L -80.9434,-696.038 L -81.1389,-695.855 L -81.3559,-695.697 L -81.5908,-695.568 L -81.8401,-695.469
 L -82.0999,-695.403 L -82.3659,-695.369 z
M 82.3659,-590.369 L 82.0999,-590.403 L 81.8401,-590.469 L 81.5908,-590.568 L 81.3559,-590.697 L 81.1389,-590.855
 L 80.9434,-591.038 L 80.7725,-591.245 L 80.6288,-591.471 L 80.5146,-591.714 L 80.4318,-591.969 L 80.3815,-592.232
 L 80.3647,-592.5 L 80.3815,-592.768 L 80.4318,-593.031 L 80.5146,-593.286 L 80.6288,-593.529 L 80.7725,-593.755
 L 80.9434,-593.962 L 81.1389,-594.145 L 81.3559,-594.303 L 81.5908,-594.432 L 81.8401,-594.531 L 82.0999,-594.597
 L 82.3659,-594.631 L 82.6341,-594.631 L 82.9001,-594.597 L 83.1598,-594.531 L 83.4092,-594.432 L 83.6441,-594.303
 L 83.8611,-594.145 L 84.0566,-593.962 L 84.2275,-593.755 L 84.3712,-593.529 L 84.4853,-593.286 L 84.5682,-593.031
 L 84.6185,-592.768 L 84.6353,-592.5 L 84.6185,-592.232 L 84.5682,-591.969 L 84.4853,-591.714 L 84.3712,-591.471
 L 84.2275,-591.245 L 84.0566,-591.038 L 83.8611,-590.855 L 83.6441,-590.697 L 83.4092,-590.568 L 83.1598,-590.469
 L 82.9001,-590.403 L 82.6341,-590.369 z
M -82.6341,-590.369 L -82.9001,-590.403 L -83.1598,-590.469 L -83.4092,-590.568 L -83.6441,-590.697 L -83.8611,-590.855
 L -84.0566,-591.038 L -84.2275,-591.245 L -84.3712,-591.471 L -84.4853,-591.714 L -84.5682,-591.969 L -84.6185,-592.232
 L -84.6353,-592.5 L -84.6185,-592.768 L -84.5682,-593.031 L -84.4853,-593.286 L -84.3712,-593.529 L -84.2275,-593.755
 L -84.0566,-593.962 L -83.8611,-594.145 L -83.6441,-594.303 L -83.4092,-594.432 L -83.1598,-594.531 L -82.9001,-594.597
 L -82.6341,-594.631 L -82.3659,-594.631 L -82.0999,-594.597 L -81.8401,-594.531 L -81.5908,-594.432 L -81.3559,-594.303
 L -81.1389,-594.145 L -80.9434,-593.962 L -80.7725,-593.755 L -80.6288,-593.529 L -80.5146,-593.286 L -80.4318,-593.031
 L -80.3815,-592.768 L -80.3647,-592.5 L -80.3815,-592.232 L -80.4318,-591.969 L -80.5146,-591.714 L -80.6288,-591.471
 L -80.7725,-591.245 L -80.9434,-591.038 L -81.1389,-590.855 L -81.3559,-590.697 L -81.5908,-590.568 L -81.8401,-590.469
 L -82.0999,-590.403 L -82.3659,-590.369 z
" stroke="black" fill="lightgray" stroke-width="0.5"/>
</svg>
