<?xml version="1.0" standalone="no"?>
<!DOCTYPE svg PUBLIC "-//W3C//DTD SVG 1.1//EN" "http://www.w3.org/Graphics/SVG/1.1/DTD/svg11.dtd">
<svg width="106mm" height="108mm" viewBox="-53 -93 106 108" xmlns="http://www.w3.org/2000/svg" version="1.1">
<title>OpenSCAD Model</title>
<path d="
M -49.5,-63.4248 L -49.0451,-63.2447 L -48.4369,-63.0886 L -47.8139,-63.0099 L 47.8139,-63.0099 L 48.4369,-63.0886
 L 49.0451,-63.2447 L 49.6289,-63.4759 L 50.1791,-63.7784 L 50.6871,-64.1474 L 51.1448,-64.5773 L 51.5451,-65.0611
 L 51.8815,-65.5912 L 52.1489,-66.1594 L 52.3429,-66.7566 L 52.4606,-67.3733 L 52.5,-68 L 52.5,-88
 L 52.4606,-88.6267 L 52.3429,-89.2434 L 52.1489,-89.8406 L 51.8815,-90.4088 L 51.5451,-90.9389 L 51.1448,-91.4227
 L 50.6871,-91.8526 L 50.1791,-92.2216 L 49.6289,-92.5241 L 49.0451,-92.7553 L 48.4369,-92.9114 L 47.8139,-92.9901
 L -47.8139,-92.9901 L -48.4369,-92.9114 L -49.0451,-92.7553 L -49.5,-92.5752 L -49.5,-92.9901 L -52.5,-92.9901
 L -52.5,-63.0099 L -49.5,-63.0099 z
M 44.8493,-83.1047 L 44.5503,-83.1425 L 44.2584,-83.2175 L 43.9781,-83.3284 L 43.714,-83.4736 L 43.4702,-83.6508
 L 43.2505,-83.8571 L 43.0583,-84.0893 L 42.8969,-84.3438 L 42.7685,-84.6165 L 42.6754,-84.9031 L 42.6189,-85.1992
 L 42.6,-85.5 L 42.6189,-85.8008 L 42.6754,-86.0968 L 42.7685,-86.3835 L 42.8969,-86.6562 L 43.0583,-86.9107
 L 43.2505,-87.1429 L 43.4702,-87.3492 L 43.714,-87.5264 L 43.9781,-87.6716 L 44.2584,-87.7825 L 44.5503,-87.8575
 L 44.8493,-87.8953 L 45.1507,-87.8953 L 45.4497,-87.8575 L 45.7416,-87.7825 L 46.0219,-87.6716 L 46.286,-87.5264
 L 46.5298,-87.3492 L 46.7495,-87.1429 L 46.9416,-86.9107 L 47.1031,-86.6562 L 47.2315,-86.3835 L 47.3246,-86.0968
 L 47.3811,-85.8008 L 47.4,-85.5 L 47.3811,-85.1992 L 47.3246,-84.9031 L 47.2315,-84.6165 L 47.1031,-84.3438
 L 46.9416,-84.0893 L 46.7495,-83.8571 L 46.5298,-83.6508 L 46.286,-83.4736 L 46.0219,-83.3284 L 45.7416,-83.2175
 L 45.4497,-83.1425 L 45.1507,-83.1047 z
M -45.1507,-83.1047 L -45.4497,-83.1425 L -45.7416,-83.2175 L -46.0219,-83.3284 L -46.286,-83.4736 L -46.5298,-83.6508
 L -46.7495,-83.8571 L -46.9416,-84.0893 L -47.1031,-84.3438 L -47.2315,-84.6165 L -47.3246,-84.9031 L -47.3811,-85.1992
 L -47.4,-85.5 L -47.3811,-85.8008 L -47.3246,-86.0968 L -47.2315,-86.3835 L -47.1031,-86.6562 L -46.9416,-86.9107
 L -46.7495,-87.1429 L -46.5298,-87.3492 L -46.286,-87.5264 L -46.0219,-87.6716 L -45.7416,-87.7825 L -45.4497,-87.8575
 L -45.1507,-87.8953 L -44.8493,-87.8953 L -44.5503,-87.8575 L -44.2584,-87.7825 L -43.9781,-87.6716 L -43.714,-87.5264
 L -43.4702,-87.3492 L -43.2505,-87.1429 L -43.0583,-86.9107 L -42.8969,-86.6562 L -42.7685,-86.3835 L -42.6754,-86.0968
 L -42.6189,-85.8008 L -42.6,-85.5 L -42.6189,-85.1992 L -42.6754,-84.9031 L -42.7685,-84.6165 L -42.8969,-84.3438
 L -43.0583,-84.0893 L -43.2505,-83.8571 L -43.4702,-83.6508 L -43.714,-83.4736 L -43.9781,-83.3284 L -44.2584,-83.2175
 L -44.5503,-83.1425 L -44.8493,-83.1047 z
M 44.8493,-68.1047 L 44.5503,-68.1425 L 44.2584,-68.2175 L 43.9781,-68.3284 L 43.714,-68.4736 L 43.4702,-68.6508
 L 43.2505,-68.8571 L 43.0583,-69.0893 L 42.8969,-69.3438 L 42.7685,-69.6165 L 42.6754,-69.9032 L 42.6189,-70.1992
 L 42.6,-70.5 L 42.6189,-70.8008 L 42.6754,-71.0969 L 42.7685,-71.3835 L 42.8969,-71.6562 L 43.0583,-71.9107
 L 43.2505,-72.1429 L 43.4702,-72.3492 L 43.714,-72.5264 L 43.9781,-72.6716 L 44.2584,-72.7825 L 44.5503,-72.8575
 L 44.8493,-72.8953 L 45.1507,-72.8953 L 45.4497,-72.8575 L 45.7416,-72.7825 L 46.0219,-72.6716 L 46.286,-72.5264
 L 46.5298,-72.3492 L 46.7495,-72.1429 L 46.9416,-71.9107 L 47.1031,-71.6562 L 47.2315,-71.3835 L 47.3246,-71.0969
 L 47.3811,-70.8008 L 47.4,-70.5 L 47.3811,-70.1992 L 47.3246,-69.9032 L 47.2315,-69.6165 L 47.1031,-69.3438
 L 46.9416,-69.0893 L 46.7495,-68.8571 L 46.5298,-68.6508 L 46.286,-68.4736 L 46.0219,-68.3284 L 45.7416,-68.2175
 L 45.4497,-68.1425 L 45.1507,-68.1047 z
M -45.1507,-68.1047 L -45.4497,-68.1425 L -45.7416,-68.2175 L -46.0219,-68.3284 L -46.286,-68.4736 L -46.5298,-68.6508
 L -46.7495,-68.8571 L -46.9416,-69.0893 L -47.1031,-69.3438 L -47.2315,-69.6165 L -47.3246,-69.9032 L -47.3811,-70.1992
 L -47.4,-70.5 L -47.3811,-70.8008 L -47.3246,-71.0969 L -47.2315,-71.3835 L -47.1031,-71.6562 L -46.9416,-71.9107
 L -46.7495,-72.1429 L -46.5298,-72.3492 L -46.286,-72.5264 L -46.0219,-72.6716 L -45.7416,-72.7825 L -45.4497,-72.8575
 L -45.1507,-72.8953 L -44.8493,-72.8953 L -44.5503,-72.8575 L -44.2584,-72.7825 L -43.9781,-72.6716 L -43.714,-72.5264
 L -43.4702,-72.3492 L -43.2505,-72.1429 L -43.0583,-71.9107 L -42.8969,-71.6562 L -42.7685,-71.3835 L -42.6754,-71.0969
 L -42.6189,-70.8008 L -42.6,-70.5 L -42.6189,-70.1992 L -42.6754,-69.9032 L -42.7685,-69.6165 L -42.8969,-69.3438
 L -43.0583,-69.0893 L -43.2505,-68.8571 L -43.4702,-68.6508 L -43.714,-68.4736 L -43.9781,-68.3284 L -44.2584,-68.2175
 L -44.5503,-68.1425 L -44.8493,-68.1047 z
M -49.5,-24.4248 L -49.0451,-24.2447 L -48.4369,-24.0886 L -47.8139,-24.0099 L 47.8139,-24.0099 L 48.4369,-24.0886
 L 49.0451,-24.2447 L 49.6289,-24.4759 L 50.1791,-24.7784 L 50.6871,-25.1474 L 51.1448,-25.5773 L 51.5451,-26.0611
 L 51.8815,-26.5912 L 52.1489,-27.1594 L 52.3429,-27.7566 L 52.4606,-28.3733 L 52.5,-29 L 52.5,-49
 L 52.4606,-49.6267 L 52.3429,-50.2434 L 52.1489,-50.8406 L 51.8815,-51.4088 L 51.5451,-51.9389 L 51.1448,-52.4227
 L 50.6871,-52.8526 L 50.1791,-53.2216 L 49.6289,-53.5241 L 49.0451,-53.7553 L 48.4369,-53.9114 L 47.8139,-53.9901
 L -47.8139,-53.9901 L -48.4369,-53.9114 L -49.0451,-53.7553 L -49.5,-53.5752 L -49.5,-53.9901 L -52.5,-53.9901
 L -52.5,-24.0099 L -49.5,-24.0099 z
M -45.113,-44.7036 L -45.3373,-44.7319 L -45.5562,-44.7881 L -45.7664,-44.8713 L -45.9645,-44.9802 L -46.1474,-45.1131
 L -46.3121,-45.2678 L -46.4562,-45.442 L -46.5773,-45.6328 L -46.6736,-45.8374 L -46.7434,-46.0524 L -46.7858,-46.2744
 L -46.8,-46.5 L -46.7858,-46.7256 L -46.7434,-46.9476 L -46.6736,-47.1626 L -46.5773,-47.3671 L -46.4562,-47.558
 L -46.3121,-47.7322 L -46.1474,-47.8869 L -45.9645,-48.0198 L -45.7664,-48.1287 L -45.5562,-48.2119 L -45.3373,-48.2681
 L -45.113,-48.2964 L -44.887,-48.2964 L -44.6627,-48.2681 L -44.4438,-48.2119 L -44.2336,-48.1287 L -44.0355,-48.0198
 L -43.8526,-47.8869 L -43.6879,-47.7322 L -43.5438,-47.558 L -43.4226,-47.3671 L -43.3264,-47.1626 L -43.2565,-46.9476
 L -43.2142,-46.7256 L -43.2,-46.5 L -43.2142,-46.2744 L -43.2565,-46.0524 L -43.3264,-45.8374 L -43.4226,-45.6328
 L -43.5438,-45.442 L -43.6879,-45.2678 L -43.8526,-45.1131 L -44.0355,-44.9802 L -44.2336,-44.8713 L -44.4438,-44.7881
 L -44.6627,-44.7319 L -44.887,-44.7036 z
M 44.887,-44.7036 L 44.6627,-44.7319 L 44.4438,-44.7881 L 44.2336,-44.8713 L 44.0355,-44.9802 L 43.8526,-45.1131
 L 43.6879,-45.2678 L 43.5438,-45.442 L 43.4226,-45.6328 L 43.3264,-45.8374 L 43.2565,-46.0524 L 43.2142,-46.2744
 L 43.2,-46.5 L 43.2142,-46.7256 L 43.2565,-46.9476 L 43.3264,-47.1626 L 43.4226,-47.3671 L 43.5438,-47.558
 L 43.6879,-47.7322 L 43.8526,-47.8869 L 44.0355,-48.0198 L 44.2336,-48.1287 L 44.4438,-48.2119 L 44.6627,-48.2681
 L 44.887,-48.2964 L 45.113,-48.2964 L 45.3373,-48.2681 L 45.5562,-48.2119 L 45.7664,-48.1287 L 45.9645,-48.0198
 L 46.1474,-47.8869 L 46.3121,-47.7322 L 46.4562,-47.558 L 46.5773,-47.3671 L 46.6736,-47.1626 L 46.7434,-46.9476
 L 46.7858,-46.7256 L 46.8,-46.5 L 46.7858,-46.2744 L 46.7434,-46.0524 L 46.6736,-45.8374 L 46.5773,-45.6328
 L 46.4562,-45.442 L 46.3121,-45.2678 L 46.1474,-45.1131 L 45.9645,-44.9802 L 45.7664,-44.8713 L 45.5562,-44.7881
 L 45.3373,-44.7319 L 45.113,-44.7036 z
M -45.113,-29.7036 L -45.3373,-29.7319 L -45.5562,-29.7881 L -45.7664,-29.8713 L -45.9645,-29.9802 L -46.1474,-30.1131
 L -46.3121,-30.2678 L -46.4562,-30.442 L -46.5773,-30.6329 L -46.6736,-30.8374 L -46.7434,-31.0524 L -46.7858,-31.2744
 L -46.8,-31.5 L -46.7858,-31.7256 L -46.7434,-31.9476 L -46.6736,-32.1626 L -46.5773,-32.3672 L -46.4562,-32.558
 L -46.3121,-32.7322 L -46.1474,-32.8869 L -45.9645,-33.0198 L -45.7664,-33.1287 L -45.5562,-33.2119 L -45.3373,-33.2681
 L -45.113,-33.2964 L -44.887,-33.2964 L -44.6627,-33.2681 L -44.4438,-33.2119 L -44.2336,-33.1287 L -44.0355,-33.0198
 L -43.8526,-32.8869 L -43.6879,-32.7322 L -43.5438,-32.558 L -43.4226,-32.3672 L -43.3264,-32.1626 L -43.2565,-31.9476
 L -43.2142,-31.7256 L -43.2,-31.5 L -43.2142,-31.2744 L -43.2565,-31.0524 L -43.3264,-30.8374 L -43.4226,-30.6329
 L -43.5438,-30.442 L -43.6879,-30.2678 L -43.8526,-30.1131 L -44.0355,-29.9802 L -44.2336,-29.8713 L -44.4438,-29.7881
 L -44.6627,-29.7319 L -44.887,-29.7036 z
M 44.887,-29.7036 L 44.6627,-29.7319 L 44.4438,-29.7881 L 44.2336,-29.8713 L 44.0355,-29.9802 L 43.8526,-30.1131
 L 43.6879,-30.2678 L 43.5438,-30.442 L 43.4226,-30.6329 L 43.3264,-30.8374 L 43.2565,-31.0524 L 43.2142,-31.2744
 L 43.2,-31.5 L 43.2142,-31.7256 L 43.2565,-31.9476 L 43.3264,-32.1626 L 43.4226,-32.3672 L 43.5438,-32.558
 L 43.6879,-32.7322 L 43.8526,-32.8869 L 44.0355,-33.0198 L 44.2336,-33.1287 L 44.4438,-33.2119 L 44.6627,-33.2681
 L 44.887,-33.2964 L 45.113,-33.2964 L 45.3373,-33.2681 L 45.5562,-33.2119 L 45.7664,-33.1287 L 45.9645,-33.0198
 L 46.1474,-32.8869 L 46.3121,-32.7322 L 46.4562,-32.558 L 46.5773,-32.3672 L 46.6736,-32.1626 L 46.7434,-31.9476
 L 46.7858,-31.7256 L 46.8,-31.5 L 46.7858,-31.2744 L 46.7434,-31.0524 L 46.6736,-30.8374 L 46.5773,-30.6329
 L 46.4562,-30.442 L 46.3121,-30.2678 L 46.1474,-30.1131 L 45.9645,-29.9802 L 45.7664,-29.8713 L 45.5562,-29.7881
 L 45.3373,-29.7319 L 45.113,-29.7036 z
M -49.5,-14.6148 L -52.5,-14.6148 L -52.5,14.6148 L -49.5,14.6148 z
" stroke="black" fill="lightgray" stroke-width="0.5"/>
</svg>
