  0
SECTION
  2
BLOCKS
  0
ENDSEC
  0
SECTION
  2
ENTITIES
  0
LINE
  8
0
 10
-102
 20
288.425
 11
-101.545
 21
288.245
  0
LINE
  8
0
 10
-101.545
 20
288.245
 11
-100.937
 21
288.089
  0
LINE
  8
0
 10
-100.937
 20
288.089
 11
-100.314
 21
288.01
  0
LINE
  8
0
 10
-100.314
 20
288.01
 11
100.314
 21
288.01
  0
LINE
  8
0
 10
100.314
 20
288.01
 11
100.937
 21
288.089
  0
LINE
  8
0
 10
100.937
 20
288.089
 11
101.545
 21
288.245
  0
LINE
  8
0
 10
101.545
 20
288.245
 11
102.129
 21
288.476
  0
LINE
  8
0
 10
102.129
 20
288.476
 11
102.679
 21
288.778
  0
LINE
  8
0
 10
102.679
 20
288.778
 11
103.187
 21
289.147
  0
LINE
  8
0
 10
103.187
 20
289.147
 11
103.645
 21
289.577
  0
LINE
  8
0
 10
103.645
 20
289.577
 11
104.045
 21
290.061
  0
LINE
  8
0
 10
104.045
 20
290.061
 11
104.382
 21
290.591
  0
LINE
  8
0
 10
104.382
 20
290.591
 11
104.649
 21
291.159
  0
LINE
  8
0
 10
104.649
 20
291.159
 11
104.843
 21
291.757
  0
LINE
  8
0
 10
104.843
 20
291.757
 11
104.961
 21
292.373
  0
LINE
  8
0
 10
104.961
 20
292.373
 11
105
 21
293
  0
LINE
  8
0
 10
105
 20
293
 11
105
 21
463
  0
LINE
  8
0
 10
105
 20
463
 11
104.961
 21
463.627
  0
LINE
  8
0
 10
104.961
 20
463.627
 11
104.843
 21
464.243
  0
LINE
  8
0
 10
104.843
 20
464.243
 11
104.649
 21
464.841
  0
LINE
  8
0
 10
104.649
 20
464.841
 11
104.382
 21
465.409
  0
LINE
  8
0
 10
104.382
 20
465.409
 11
104.045
 21
465.939
  0
LINE
  8
0
 10
104.045
 20
465.939
 11
103.645
 21
466.423
  0
LINE
  8
0
 10
103.645
 20
466.423
 11
103.187
 21
466.853
  0
LINE
  8
0
 10
103.187
 20
466.853
 11
102.679
 21
467.222
  0
LINE
  8
0
 10
102.679
 20
467.222
 11
102.129
 21
467.524
  0
LINE
  8
0
 10
102.129
 20
467.524
 11
101.545
 21
467.755
  0
LINE
  8
0
 10
101.545
 20
467.755
 11
100.937
 21
467.911
  0
LINE
  8
0
 10
100.937
 20
467.911
 11
100.314
 21
467.99
  0
LINE
  8
0
 10
100.314
 20
467.99
 11
-100.314
 21
467.99
  0
LINE
  8
0
 10
-100.314
 20
467.99
 11
-100.937
 21
467.911
  0
LINE
  8
0
 10
-100.937
 20
467.911
 11
-101.545
 21
467.755
  0
LINE
  8
0
 10
-101.545
 20
467.755
 11
-102
 21
467.575
  0
LINE
  8
0
 10
-102
 20
467.575
 11
-102
 21
467.99
  0
LINE
  8
0
 10
-102
 20
467.99
 11
-105
 21
467.99
  0
LINE
  8
0
 10
-105
 20
467.99
 11
-105
 21
288.01
  0
LINE
  8
0
 10
-105
 20
288.01
 11
-102
 21
288.01
  0
LINE
  8
0
 10
-102
 20
288.01
 11
-102
 21
288.425
  0
LINE
  8
0
 10
97.3493
 20
458.105
 11
97.0503
 21
458.143
  0
LINE
  8
0
 10
97.0503
 20
458.143
 11
96.7584
 21
458.217
  0
LINE
  8
0
 10
96.7584
 20
458.217
 11
96.4781
 21
458.328
  0
LINE
  8
0
 10
96.4781
 20
458.328
 11
96.214
 21
458.474
  0
LINE
  8
0
 10
96.214
 20
458.474
 11
95.9702
 21
458.651
  0
LINE
  8
0
 10
95.9702
 20
458.651
 11
95.7505
 21
458.857
  0
LINE
  8
0
 10
95.7505
 20
458.857
 11
95.5583
 21
459.089
  0
LINE
  8
0
 10
95.5583
 20
459.089
 11
95.3969
 21
459.344
  0
LINE
  8
0
 10
95.3969
 20
459.344
 11
95.2685
 21
459.617
  0
LINE
  8
0
 10
95.2685
 20
459.617
 11
95.1754
 21
459.903
  0
LINE
  8
0
 10
95.1754
 20
459.903
 11
95.1189
 21
460.199
  0
LINE
  8
0
 10
95.1189
 20
460.199
 11
95.1
 21
460.5
  0
LINE
  8
0
 10
95.1
 20
460.5
 11
95.1189
 21
460.801
  0
LINE
  8
0
 10
95.1189
 20
460.801
 11
95.1754
 21
461.097
  0
LINE
  8
0
 10
95.1754
 20
461.097
 11
95.2685
 21
461.383
  0
LINE
  8
0
 10
95.2685
 20
461.383
 11
95.3969
 21
461.656
  0
LINE
  8
0
 10
95.3969
 20
461.656
 11
95.5583
 21
461.911
  0
LINE
  8
0
 10
95.5583
 20
461.911
 11
95.7505
 21
462.143
  0
LINE
  8
0
 10
95.7505
 20
462.143
 11
95.9702
 21
462.349
  0
LINE
  8
0
 10
95.9702
 20
462.349
 11
96.214
 21
462.526
  0
LINE
  8
0
 10
96.214
 20
462.526
 11
96.4781
 21
462.672
  0
LINE
  8
0
 10
96.4781
 20
462.672
 11
96.7584
 21
462.783
  0
LINE
  8
0
 10
96.7584
 20
462.783
 11
97.0503
 21
462.857
  0
LINE
  8
0
 10
97.0503
 20
462.857
 11
97.3493
 21
462.895
  0
LINE
  8
0
 10
97.3493
 20
462.895
 11
97.6507
 21
462.895
  0
LINE
  8
0
 10
97.6507
 20
462.895
 11
97.9497
 21
462.857
  0
LINE
  8
0
 10
97.9497
 20
462.857
 11
98.2416
 21
462.783
  0
LINE
  8
0
 10
98.2416
 20
462.783
 11
98.5219
 21
462.672
  0
LINE
  8
0
 10
98.5219
 20
462.672
 11
98.786
 21
462.526
  0
LINE
  8
0
 10
98.786
 20
462.526
 11
99.0298
 21
462.349
  0
LINE
  8
0
 10
99.0298
 20
462.349
 11
99.2495
 21
462.143
  0
LINE
  8
0
 10
99.2495
 20
462.143
 11
99.4416
 21
461.911
  0
LINE
  8
0
 10
99.4416
 20
461.911
 11
99.6031
 21
461.656
  0
LINE
  8
0
 10
99.6031
 20
461.656
 11
99.7315
 21
461.383
  0
LINE
  8
0
 10
99.7315
 20
461.383
 11
99.8246
 21
461.097
  0
LINE
  8
0
 10
99.8246
 20
461.097
 11
99.8811
 21
460.801
  0
LINE
  8
0
 10
99.8811
 20
460.801
 11
99.9
 21
460.5
  0
LINE
  8
0
 10
99.9
 20
460.5
 11
99.8811
 21
460.199
  0
LINE
  8
0
 10
99.8811
 20
460.199
 11
99.8246
 21
459.903
  0
LINE
  8
0
 10
99.8246
 20
459.903
 11
99.7315
 21
459.617
  0
LINE
  8
0
 10
99.7315
 20
459.617
 11
99.6031
 21
459.344
  0
LINE
  8
0
 10
99.6031
 20
459.344
 11
99.4416
 21
459.089
  0
LINE
  8
0
 10
99.4416
 20
459.089
 11
99.2495
 21
458.857
  0
LINE
  8
0
 10
99.2495
 20
458.857
 11
99.0298
 21
458.651
  0
LINE
  8
0
 10
99.0298
 20
458.651
 11
98.786
 21
458.474
  0
LINE
  8
0
 10
98.786
 20
458.474
 11
98.5219
 21
458.328
  0
LINE
  8
0
 10
98.5219
 20
458.328
 11
98.2416
 21
458.217
  0
LINE
  8
0
 10
98.2416
 20
458.217
 11
97.9497
 21
458.143
  0
LINE
  8
0
 10
97.9497
 20
458.143
 11
97.6507
 21
458.105
  0
LINE
  8
0
 10
97.6507
 20
458.105
 11
97.3493
 21
458.105
  0
LINE
  8
0
 10
-97.6507
 20
458.105
 11
-97.9497
 21
458.143
  0
LINE
  8
0
 10
-97.9497
 20
458.143
 11
-98.2416
 21
458.217
  0
LINE
  8
0
 10
-98.2416
 20
458.217
 11
-98.5219
 21
458.328
  0
LINE
  8
0
 10
-98.5219
 20
458.328
 11
-98.786
 21
458.474
  0
LINE
  8
0
 10
-98.786
 20
458.474
 11
-99.0298
 21
458.651
  0
LINE
  8
0
 10
-99.0298
 20
458.651
 11
-99.2495
 21
458.857
  0
LINE
  8
0
 10
-99.2495
 20
458.857
 11
-99.4416
 21
459.089
  0
LINE
  8
0
 10
-99.4416
 20
459.089
 11
-99.6031
 21
459.344
  0
LINE
  8
0
 10
-99.6031
 20
459.344
 11
-99.7315
 21
459.617
  0
LINE
  8
0
 10
-99.7315
 20
459.617
 11
-99.8246
 21
459.903
  0
LINE
  8
0
 10
-99.8246
 20
459.903
 11
-99.8811
 21
460.199
  0
LINE
  8
0
 10
-99.8811
 20
460.199
 11
-99.9
 21
460.5
  0
LINE
  8
0
 10
-99.9
 20
460.5
 11
-99.8811
 21
460.801
  0
LINE
  8
0
 10
-99.8811
 20
460.801
 11
-99.8246
 21
461.097
  0
LINE
  8
0
 10
-99.8246
 20
461.097
 11
-99.7315
 21
461.383
  0
LINE
  8
0
 10
-99.7315
 20
461.383
 11
-99.6031
 21
461.656
  0
LINE
  8
0
 10
-99.6031
 20
461.656
 11
-99.4416
 21
461.911
  0
LINE
  8
0
 10
-99.4416
 20
461.911
 11
-99.2495
 21
462.143
  0
LINE
  8
0
 10
-99.2495
 20
462.143
 11
-99.0298
 21
462.349
  0
LINE
  8
0
 10
-99.0298
 20
462.349
 11
-98.786
 21
462.526
  0
LINE
  8
0
 10
-98.786
 20
462.526
 11
-98.5219
 21
462.672
  0
LINE
  8
0
 10
-98.5219
 20
462.672
 11
-98.2416
 21
462.783
  0
LINE
  8
0
 10
-98.2416
 20
462.783
 11
-97.9497
 21
462.857
  0
LINE
  8
0
 10
-97.9497
 20
462.857
 11
-97.6507
 21
462.895
  0
LINE
  8
0
 10
-97.6507
 20
462.895
 11
-97.3493
 21
462.895
  0
LINE
  8
0
 10
-97.3493
 20
462.895
 11
-97.0503
 21
462.857
  0
LINE
  8
0
 10
-97.0503
 20
462.857
 11
-96.7584
 21
462.783
  0
LINE
  8
0
 10
-96.7584
 20
462.783
 11
-96.4781
 21
462.672
  0
LINE
  8
0
 10
-96.4781
 20
462.672
 11
-96.214
 21
462.526
  0
LINE
  8
0
 10
-96.214
 20
462.526
 11
-95.9702
 21
462.349
  0
LINE
  8
0
 10
-95.9702
 20
462.349
 11
-95.7505
 21
462.143
  0
LINE
  8
0
 10
-95.7505
 20
462.143
 11
-95.5583
 21
461.911
  0
LINE
  8
0
 10
-95.5583
 20
461.911
 11
-95.3969
 21
461.656
  0
LINE
  8
0
 10
-95.3969
 20
461.656
 11
-95.2685
 21
461.383
  0
LINE
  8
0
 10
-95.2685
 20
461.383
 11
-95.1754
 21
461.097
  0
LINE
  8
0
 10
-95.1754
 20
461.097
 11
-95.1189
 21
460.801
  0
LINE
  8
0
 10
-95.1189
 20
460.801
 11
-95.1
 21
460.5
  0
LINE
  8
0
 10
-95.1
 20
460.5
 11
-95.1189
 21
460.199
  0
LINE
  8
0
 10
-95.1189
 20
460.199
 11
-95.1754
 21
459.903
  0
LINE
  8
0
 10
-95.1754
 20
459.903
 11
-95.2685
 21
459.617
  0
LINE
  8
0
 10
-95.2685
 20
459.617
 11
-95.3969
 21
459.344
  0
LINE
  8
0
 10
-95.3969
 20
459.344
 11
-95.5583
 21
459.089
  0
LINE
  8
0
 10
-95.5583
 20
459.089
 11
-95.7505
 21
458.857
  0
LINE
  8
0
 10
-95.7505
 20
458.857
 11
-95.9702
 21
458.651
  0
LINE
  8
0
 10
-95.9702
 20
458.651
 11
-96.214
 21
458.474
  0
LINE
  8
0
 10
-96.214
 20
458.474
 11
-96.4781
 21
458.328
  0
LINE
  8
0
 10
-96.4781
 20
458.328
 11
-96.7584
 21
458.217
  0
LINE
  8
0
 10
-96.7584
 20
458.217
 11
-97.0503
 21
458.143
  0
LINE
  8
0
 10
-97.0503
 20
458.143
 11
-97.3493
 21
458.105
  0
LINE
  8
0
 10
-97.3493
 20
458.105
 11
-97.6507
 21
458.105
  0
LINE
  8
0
 10
97.3493
 20
293.105
 11
97.0503
 21
293.143
  0
LINE
  8
0
 10
97.0503
 20
293.143
 11
96.7584
 21
293.217
  0
LINE
  8
0
 10
96.7584
 20
293.217
 11
96.4781
 21
293.328
  0
LINE
  8
0
 10
96.4781
 20
293.328
 11
96.214
 21
293.474
  0
LINE
  8
0
 10
96.214
 20
293.474
 11
95.9702
 21
293.651
  0
LINE
  8
0
 10
95.9702
 20
293.651
 11
95.7505
 21
293.857
  0
LINE
  8
0
 10
95.7505
 20
293.857
 11
95.5583
 21
294.089
  0
LINE
  8
0
 10
95.5583
 20
294.089
 11
95.3969
 21
294.344
  0
LINE
  8
0
 10
95.3969
 20
294.344
 11
95.2685
 21
294.617
  0
LINE
  8
0
 10
95.2685
 20
294.617
 11
95.1754
 21
294.903
  0
LINE
  8
0
 10
95.1754
 20
294.903
 11
95.1189
 21
295.199
  0
LINE
  8
0
 10
95.1189
 20
295.199
 11
95.1
 21
295.5
  0
LINE
  8
0
 10
95.1
 20
295.5
 11
95.1189
 21
295.801
  0
LINE
  8
0
 10
95.1189
 20
295.801
 11
95.1754
 21
296.097
  0
LINE
  8
0
 10
95.1754
 20
296.097
 11
95.2685
 21
296.383
  0
LINE
  8
0
 10
95.2685
 20
296.383
 11
95.3969
 21
296.656
  0
LINE
  8
0
 10
95.3969
 20
296.656
 11
95.5583
 21
296.911
  0
LINE
  8
0
 10
95.5583
 20
296.911
 11
95.7505
 21
297.143
  0
LINE
  8
0
 10
95.7505
 20
297.143
 11
95.9702
 21
297.349
  0
LINE
  8
0
 10
95.9702
 20
297.349
 11
96.214
 21
297.526
  0
LINE
  8
0
 10
96.214
 20
297.526
 11
96.4781
 21
297.672
  0
LINE
  8
0
 10
96.4781
 20
297.672
 11
96.7584
 21
297.783
  0
LINE
  8
0
 10
96.7584
 20
297.783
 11
97.0503
 21
297.857
  0
LINE
  8
0
 10
97.0503
 20
297.857
 11
97.3493
 21
297.895
  0
LINE
  8
0
 10
97.3493
 20
297.895
 11
97.6507
 21
297.895
  0
LINE
  8
0
 10
97.6507
 20
297.895
 11
97.9497
 21
297.857
  0
LINE
  8
0
 10
97.9497
 20
297.857
 11
98.2416
 21
297.783
  0
LINE
  8
0
 10
98.2416
 20
297.783
 11
98.5219
 21
297.672
  0
LINE
  8
0
 10
98.5219
 20
297.672
 11
98.786
 21
297.526
  0
LINE
  8
0
 10
98.786
 20
297.526
 11
99.0298
 21
297.349
  0
LINE
  8
0
 10
99.0298
 20
297.349
 11
99.2495
 21
297.143
  0
LINE
  8
0
 10
99.2495
 20
297.143
 11
99.4416
 21
296.911
  0
LINE
  8
0
 10
99.4416
 20
296.911
 11
99.6031
 21
296.656
  0
LINE
  8
0
 10
99.6031
 20
296.656
 11
99.7315
 21
296.383
  0
LINE
  8
0
 10
99.7315
 20
296.383
 11
99.8246
 21
296.097
  0
LINE
  8
0
 10
99.8246
 20
296.097
 11
99.8811
 21
295.801
  0
LINE
  8
0
 10
99.8811
 20
295.801
 11
99.9
 21
295.5
  0
LINE
  8
0
 10
99.9
 20
295.5
 11
99.8811
 21
295.199
  0
LINE
  8
0
 10
99.8811
 20
295.199
 11
99.8246
 21
294.903
  0
LINE
  8
0
 10
99.8246
 20
294.903
 11
99.7315
 21
294.617
  0
LINE
  8
0
 10
99.7315
 20
294.617
 11
99.6031
 21
294.344
  0
LINE
  8
0
 10
99.6031
 20
294.344
 11
99.4416
 21
294.089
  0
LINE
  8
0
 10
99.4416
 20
294.089
 11
99.2495
 21
293.857
  0
LINE
  8
0
 10
99.2495
 20
293.857
 11
99.0298
 21
293.651
  0
LINE
  8
0
 10
99.0298
 20
293.651
 11
98.786
 21
293.474
  0
LINE
  8
0
 10
98.786
 20
293.474
 11
98.5219
 21
293.328
  0
LINE
  8
0
 10
98.5219
 20
293.328
 11
98.2416
 21
293.217
  0
LINE
  8
0
 10
98.2416
 20
293.217
 11
97.9497
 21
293.143
  0
LINE
  8
0
 10
97.9497
 20
293.143
 11
97.6507
 21
293.105
  0
LINE
  8
0
 10
97.6507
 20
293.105
 11
97.3493
 21
293.105
  0
LINE
  8
0
 10
-97.6507
 20
293.105
 11
-97.9497
 21
293.143
  0
LINE
  8
0
 10
-97.9497
 20
293.143
 11
-98.2416
 21
293.217
  0
LINE
  8
0
 10
-98.2416
 20
293.217
 11
-98.5219
 21
293.328
  0
LINE
  8
0
 10
-98.5219
 20
293.328
 11
-98.786
 21
293.474
  0
LINE
  8
0
 10
-98.786
 20
293.474
 11
-99.0298
 21
293.651
  0
LINE
  8
0
 10
-99.0298
 20
293.651
 11
-99.2495
 21
293.857
  0
LINE
  8
0
 10
-99.2495
 20
293.857
 11
-99.4416
 21
294.089
  0
LINE
  8
0
 10
-99.4416
 20
294.089
 11
-99.6031
 21
294.344
  0
LINE
  8
0
 10
-99.6031
 20
294.344
 11
-99.7315
 21
294.617
  0
LINE
  8
0
 10
-99.7315
 20
294.617
 11
-99.8246
 21
294.903
  0
LINE
  8
0
 10
-99.8246
 20
294.903
 11
-99.8811
 21
295.199
  0
LINE
  8
0
 10
-99.8811
 20
295.199
 11
-99.9
 21
295.5
  0
LINE
  8
0
 10
-99.9
 20
295.5
 11
-99.8811
 21
295.801
  0
LINE
  8
0
 10
-99.8811
 20
295.801
 11
-99.8246
 21
296.097
  0
LINE
  8
0
 10
-99.8246
 20
296.097
 11
-99.7315
 21
296.383
  0
LINE
  8
0
 10
-99.7315
 20
296.383
 11
-99.6031
 21
296.656
  0
LINE
  8
0
 10
-99.6031
 20
296.656
 11
-99.4416
 21
296.911
  0
LINE
  8
0
 10
-99.4416
 20
296.911
 11
-99.2495
 21
297.143
  0
LINE
  8
0
 10
-99.2495
 20
297.143
 11
-99.0298
 21
297.349
  0
LINE
  8
0
 10
-99.0298
 20
297.349
 11
-98.786
 21
297.526
  0
LINE
  8
0
 10
-98.786
 20
297.526
 11
-98.5219
 21
297.672
  0
LINE
  8
0
 10
-98.5219
 20
297.672
 11
-98.2416
 21
297.783
  0
LINE
  8
0
 10
-98.2416
 20
297.783
 11
-97.9497
 21
297.857
  0
LINE
  8
0
 10
-97.9497
 20
297.857
 11
-97.6507
 21
297.895
  0
LINE
  8
0
 10
-97.6507
 20
297.895
 11
-97.3493
 21
297.895
  0
LINE
  8
0
 10
-97.3493
 20
297.895
 11
-97.0503
 21
297.857
  0
LINE
  8
0
 10
-97.0503
 20
297.857
 11
-96.7584
 21
297.783
  0
LINE
  8
0
 10
-96.7584
 20
297.783
 11
-96.4781
 21
297.672
  0
LINE
  8
0
 10
-96.4781
 20
297.672
 11
-96.214
 21
297.526
  0
LINE
  8
0
 10
-96.214
 20
297.526
 11
-95.9702
 21
297.349
  0
LINE
  8
0
 10
-95.9702
 20
297.349
 11
-95.7505
 21
297.143
  0
LINE
  8
0
 10
-95.7505
 20
297.143
 11
-95.5583
 21
296.911
  0
LINE
  8
0
 10
-95.5583
 20
296.911
 11
-95.3969
 21
296.656
  0
LINE
  8
0
 10
-95.3969
 20
296.656
 11
-95.2685
 21
296.383
  0
LINE
  8
0
 10
-95.2685
 20
296.383
 11
-95.1754
 21
296.097
  0
LINE
  8
0
 10
-95.1754
 20
296.097
 11
-95.1189
 21
295.801
  0
LINE
  8
0
 10
-95.1189
 20
295.801
 11
-95.1
 21
295.5
  0
LINE
  8
0
 10
-95.1
 20
295.5
 11
-95.1189
 21
295.199
  0
LINE
  8
0
 10
-95.1189
 20
295.199
 11
-95.1754
 21
294.903
  0
LINE
  8
0
 10
-95.1754
 20
294.903
 11
-95.2685
 21
294.617
  0
LINE
  8
0
 10
-95.2685
 20
294.617
 11
-95.3969
 21
294.344
  0
LINE
  8
0
 10
-95.3969
 20
294.344
 11
-95.5583
 21
294.089
  0
LINE
  8
0
 10
-95.5583
 20
294.089
 11
-95.7505
 21
293.857
  0
LINE
  8
0
 10
-95.7505
 20
293.857
 11
-95.9702
 21
293.651
  0
LINE
  8
0
 10
-95.9702
 20
293.651
 11
-96.214
 21
293.474
  0
LINE
  8
0
 10
-96.214
 20
293.474
 11
-96.4781
 21
293.328
  0
LINE
  8
0
 10
-96.4781
 20
293.328
 11
-96.7584
 21
293.217
  0
LINE
  8
0
 10
-96.7584
 20
293.217
 11
-97.0503
 21
293.143
  0
LINE
  8
0
 10
-97.0503
 20
293.143
 11
-97.3493
 21
293.105
  0
LINE
  8
0
 10
-97.3493
 20
293.105
 11
-97.6507
 21
293.105
  0
LINE
  8
0
 10
-102
 20
99.4248
 11
-101.545
 21
99.2447
  0
LINE
  8
0
 10
-101.545
 20
99.2447
 11
-100.937
 21
99.0886
  0
LINE
  8
0
 10
-100.937
 20
99.0886
 11
-100.314
 21
99.0099
  0
LINE
  8
0
 10
-100.314
 20
99.0099
 11
100.314
 21
99.0099
  0
LINE
  8
0
 10
100.314
 20
99.0099
 11
100.937
 21
99.0886
  0
LINE
  8
0
 10
100.937
 20
99.0886
 11
101.545
 21
99.2447
  0
LINE
  8
0
 10
101.545
 20
99.2447
 11
102.129
 21
99.4759
  0
LINE
  8
0
 10
102.129
 20
99.4759
 11
102.679
 21
99.7784
  0
LINE
  8
0
 10
102.679
 20
99.7784
 11
103.187
 21
100.147
  0
LINE
  8
0
 10
103.187
 20
100.147
 11
103.645
 21
100.577
  0
LINE
  8
0
 10
103.645
 20
100.577
 11
104.045
 21
101.061
  0
LINE
  8
0
 10
104.045
 20
101.061
 11
104.382
 21
101.591
  0
LINE
  8
0
 10
104.382
 20
101.591
 11
104.649
 21
102.159
  0
LINE
  8
0
 10
104.649
 20
102.159
 11
104.843
 21
102.757
  0
LINE
  8
0
 10
104.843
 20
102.757
 11
104.961
 21
103.373
  0
LINE
  8
0
 10
104.961
 20
103.373
 11
105
 21
104
  0
LINE
  8
0
 10
105
 20
104
 11
105
 21
274
  0
LINE
  8
0
 10
105
 20
274
 11
104.961
 21
274.627
  0
LINE
  8
0
 10
104.961
 20
274.627
 11
104.843
 21
275.243
  0
LINE
  8
0
 10
104.843
 20
275.243
 11
104.649
 21
275.841
  0
LINE
  8
0
 10
104.649
 20
275.841
 11
104.382
 21
276.409
  0
LINE
  8
0
 10
104.382
 20
276.409
 11
104.045
 21
276.939
  0
LINE
  8
0
 10
104.045
 20
276.939
 11
103.645
 21
277.423
  0
LINE
  8
0
 10
103.645
 20
277.423
 11
103.187
 21
277.853
  0
LINE
  8
0
 10
103.187
 20
277.853
 11
102.679
 21
278.222
  0
LINE
  8
0
 10
102.679
 20
278.222
 11
102.129
 21
278.524
  0
LINE
  8
0
 10
102.129
 20
278.524
 11
101.545
 21
278.755
  0
LINE
  8
0
 10
101.545
 20
278.755
 11
100.937
 21
278.911
  0
LINE
  8
0
 10
100.937
 20
278.911
 11
100.314
 21
278.99
  0
LINE
  8
0
 10
100.314
 20
278.99
 11
-100.314
 21
278.99
  0
LINE
  8
0
 10
-100.314
 20
278.99
 11
-100.937
 21
278.911
  0
LINE
  8
0
 10
-100.937
 20
278.911
 11
-101.545
 21
278.755
  0
LINE
  8
0
 10
-101.545
 20
278.755
 11
-102
 21
278.575
  0
LINE
  8
0
 10
-102
 20
278.575
 11
-102
 21
278.99
  0
LINE
  8
0
 10
-102
 20
278.99
 11
-105
 21
278.99
  0
LINE
  8
0
 10
-105
 20
278.99
 11
-105
 21
99.0099
  0
LINE
  8
0
 10
-105
 20
99.0099
 11
-102
 21
99.0099
  0
LINE
  8
0
 10
-102
 20
99.0099
 11
-102
 21
99.4248
  0
LINE
  8
0
 10
-97.613
 20
269.704
 11
-97.8373
 21
269.732
  0
LINE
  8
0
 10
-97.8373
 20
269.732
 11
-98.0562
 21
269.788
  0
LINE
  8
0
 10
-98.0562
 20
269.788
 11
-98.2664
 21
269.871
  0
LINE
  8
0
 10
-98.2664
 20
269.871
 11
-98.4645
 21
269.98
  0
LINE
  8
0
 10
-98.4645
 20
269.98
 11
-98.6474
 21
270.113
  0
LINE
  8
0
 10
-98.6474
 20
270.113
 11
-98.8121
 21
270.268
  0
LINE
  8
0
 10
-98.8121
 20
270.268
 11
-98.9562
 21
270.442
  0
LINE
  8
0
 10
-98.9562
 20
270.442
 11
-99.0773
 21
270.633
  0
LINE
  8
0
 10
-99.0773
 20
270.633
 11
-99.1736
 21
270.837
  0
LINE
  8
0
 10
-99.1736
 20
270.837
 11
-99.2434
 21
271.052
  0
LINE
  8
0
 10
-99.2434
 20
271.052
 11
-99.2858
 21
271.274
  0
LINE
  8
0
 10
-99.2858
 20
271.274
 11
-99.3
 21
271.5
  0
LINE
  8
0
 10
-99.3
 20
271.5
 11
-99.2858
 21
271.726
  0
LINE
  8
0
 10
-99.2858
 20
271.726
 11
-99.2434
 21
271.948
  0
LINE
  8
0
 10
-99.2434
 20
271.948
 11
-99.1736
 21
272.163
  0
LINE
  8
0
 10
-99.1736
 20
272.163
 11
-99.0773
 21
272.367
  0
LINE
  8
0
 10
-99.0773
 20
272.367
 11
-98.9562
 21
272.558
  0
LINE
  8
0
 10
-98.9562
 20
272.558
 11
-98.8121
 21
272.732
  0
LINE
  8
0
 10
-98.8121
 20
272.732
 11
-98.6474
 21
272.887
  0
LINE
  8
0
 10
-98.6474
 20
272.887
 11
-98.4645
 21
273.02
  0
LINE
  8
0
 10
-98.4645
 20
273.02
 11
-98.2664
 21
273.129
  0
LINE
  8
0
 10
-98.2664
 20
273.129
 11
-98.0562
 21
273.212
  0
LINE
  8
0
 10
-98.0562
 20
273.212
 11
-97.8373
 21
273.268
  0
LINE
  8
0
 10
-97.8373
 20
273.268
 11
-97.613
 21
273.296
  0
LINE
  8
0
 10
-97.613
 20
273.296
 11
-97.387
 21
273.296
  0
LINE
  8
0
 10
-97.387
 20
273.296
 11
-97.1627
 21
273.268
  0
LINE
  8
0
 10
-97.1627
 20
273.268
 11
-96.9438
 21
273.212
  0
LINE
  8
0
 10
-96.9438
 20
273.212
 11
-96.7336
 21
273.129
  0
LINE
  8
0
 10
-96.7336
 20
273.129
 11
-96.5355
 21
273.02
  0
LINE
  8
0
 10
-96.5355
 20
273.02
 11
-96.3526
 21
272.887
  0
LINE
  8
0
 10
-96.3526
 20
272.887
 11
-96.1879
 21
272.732
  0
LINE
  8
0
 10
-96.1879
 20
272.732
 11
-96.0438
 21
272.558
  0
LINE
  8
0
 10
-96.0438
 20
272.558
 11
-95.9226
 21
272.367
  0
LINE
  8
0
 10
-95.9226
 20
272.367
 11
-95.8264
 21
272.163
  0
LINE
  8
0
 10
-95.8264
 20
272.163
 11
-95.7565
 21
271.948
  0
LINE
  8
0
 10
-95.7565
 20
271.948
 11
-95.7142
 21
271.726
  0
LINE
  8
0
 10
-95.7142
 20
271.726
 11
-95.7
 21
271.5
  0
LINE
  8
0
 10
-95.7
 20
271.5
 11
-95.7142
 21
271.274
  0
LINE
  8
0
 10
-95.7142
 20
271.274
 11
-95.7565
 21
271.052
  0
LINE
  8
0
 10
-95.7565
 20
271.052
 11
-95.8264
 21
270.837
  0
LINE
  8
0
 10
-95.8264
 20
270.837
 11
-95.9226
 21
270.633
  0
LINE
  8
0
 10
-95.9226
 20
270.633
 11
-96.0438
 21
270.442
  0
LINE
  8
0
 10
-96.0438
 20
270.442
 11
-96.1879
 21
270.268
  0
LINE
  8
0
 10
-96.1879
 20
270.268
 11
-96.3526
 21
270.113
  0
LINE
  8
0
 10
-96.3526
 20
270.113
 11
-96.5355
 21
269.98
  0
LINE
  8
0
 10
-96.5355
 20
269.98
 11
-96.7336
 21
269.871
  0
LINE
  8
0
 10
-96.7336
 20
269.871
 11
-96.9438
 21
269.788
  0
LINE
  8
0
 10
-96.9438
 20
269.788
 11
-97.1627
 21
269.732
  0
LINE
  8
0
 10
-97.1627
 20
269.732
 11
-97.387
 21
269.704
  0
LINE
  8
0
 10
-97.387
 20
269.704
 11
-97.613
 21
269.704
  0
LINE
  8
0
 10
97.387
 20
269.704
 11
97.1627
 21
269.732
  0
LINE
  8
0
 10
97.1627
 20
269.732
 11
96.9438
 21
269.788
  0
LINE
  8
0
 10
96.9438
 20
269.788
 11
96.7336
 21
269.871
  0
LINE
  8
0
 10
96.7336
 20
269.871
 11
96.5355
 21
269.98
  0
LINE
  8
0
 10
96.5355
 20
269.98
 11
96.3526
 21
270.113
  0
LINE
  8
0
 10
96.3526
 20
270.113
 11
96.1879
 21
270.268
  0
LINE
  8
0
 10
96.1879
 20
270.268
 11
96.0438
 21
270.442
  0
LINE
  8
0
 10
96.0438
 20
270.442
 11
95.9226
 21
270.633
  0
LINE
  8
0
 10
95.9226
 20
270.633
 11
95.8264
 21
270.837
  0
LINE
  8
0
 10
95.8264
 20
270.837
 11
95.7565
 21
271.052
  0
LINE
  8
0
 10
95.7565
 20
271.052
 11
95.7142
 21
271.274
  0
LINE
  8
0
 10
95.7142
 20
271.274
 11
95.7
 21
271.5
  0
LINE
  8
0
 10
95.7
 20
271.5
 11
95.7142
 21
271.726
  0
LINE
  8
0
 10
95.7142
 20
271.726
 11
95.7565
 21
271.948
  0
LINE
  8
0
 10
95.7565
 20
271.948
 11
95.8264
 21
272.163
  0
LINE
  8
0
 10
95.8264
 20
272.163
 11
95.9226
 21
272.367
  0
LINE
  8
0
 10
95.9226
 20
272.367
 11
96.0438
 21
272.558
  0
LINE
  8
0
 10
96.0438
 20
272.558
 11
96.1879
 21
272.732
  0
LINE
  8
0
 10
96.1879
 20
272.732
 11
96.3526
 21
272.887
  0
LINE
  8
0
 10
96.3526
 20
272.887
 11
96.5355
 21
273.02
  0
LINE
  8
0
 10
96.5355
 20
273.02
 11
96.7336
 21
273.129
  0
LINE
  8
0
 10
96.7336
 20
273.129
 11
96.9438
 21
273.212
  0
LINE
  8
0
 10
96.9438
 20
273.212
 11
97.1627
 21
273.268
  0
LINE
  8
0
 10
97.1627
 20
273.268
 11
97.387
 21
273.296
  0
LINE
  8
0
 10
97.387
 20
273.296
 11
97.613
 21
273.296
  0
LINE
  8
0
 10
97.613
 20
273.296
 11
97.8373
 21
273.268
  0
LINE
  8
0
 10
97.8373
 20
273.268
 11
98.0562
 21
273.212
  0
LINE
  8
0
 10
98.0562
 20
273.212
 11
98.2664
 21
273.129
  0
LINE
  8
0
 10
98.2664
 20
273.129
 11
98.4645
 21
273.02
  0
LINE
  8
0
 10
98.4645
 20
273.02
 11
98.6474
 21
272.887
  0
LINE
  8
0
 10
98.6474
 20
272.887
 11
98.8121
 21
272.732
  0
LINE
  8
0
 10
98.8121
 20
272.732
 11
98.9562
 21
272.558
  0
LINE
  8
0
 10
98.9562
 20
272.558
 11
99.0773
 21
272.367
  0
LINE
  8
0
 10
99.0773
 20
272.367
 11
99.1736
 21
272.163
  0
LINE
  8
0
 10
99.1736
 20
272.163
 11
99.2434
 21
271.948
  0
LINE
  8
0
 10
99.2434
 20
271.948
 11
99.2858
 21
271.726
  0
LINE
  8
0
 10
99.2858
 20
271.726
 11
99.3
 21
271.5
  0
LINE
  8
0
 10
99.3
 20
271.5
 11
99.2858
 21
271.274
  0
LINE
  8
0
 10
99.2858
 20
271.274
 11
99.2434
 21
271.052
  0
LINE
  8
0
 10
99.2434
 20
271.052
 11
99.1736
 21
270.837
  0
LINE
  8
0
 10
99.1736
 20
270.837
 11
99.0773
 21
270.633
  0
LINE
  8
0
 10
99.0773
 20
270.633
 11
98.9562
 21
270.442
  0
LINE
  8
0
 10
98.9562
 20
270.442
 11
98.8121
 21
270.268
  0
LINE
  8
0
 10
98.8121
 20
270.268
 11
98.6474
 21
270.113
  0
LINE
  8
0
 10
98.6474
 20
270.113
 11
98.4645
 21
269.98
  0
LINE
  8
0
 10
98.4645
 20
269.98
 11
98.2664
 21
269.871
  0
LINE
  8
0
 10
98.2664
 20
269.871
 11
98.0562
 21
269.788
  0
LINE
  8
0
 10
98.0562
 20
269.788
 11
97.8373
 21
269.732
  0
LINE
  8
0
 10
97.8373
 20
269.732
 11
97.613
 21
269.704
  0
LINE
  8
0
 10
97.613
 20
269.704
 11
97.387
 21
269.704
  0
LINE
  8
0
 10
-97.613
 20
104.704
 11
-97.8373
 21
104.732
  0
LINE
  8
0
 10
-97.8373
 20
104.732
 11
-98.0562
 21
104.788
  0
LINE
  8
0
 10
-98.0562
 20
104.788
 11
-98.2664
 21
104.871
  0
LINE
  8
0
 10
-98.2664
 20
104.871
 11
-98.4645
 21
104.98
  0
LINE
  8
0
 10
-98.4645
 20
104.98
 11
-98.6474
 21
105.113
  0
LINE
  8
0
 10
-98.6474
 20
105.113
 11
-98.8121
 21
105.268
  0
LINE
  8
0
 10
-98.8121
 20
105.268
 11
-98.9562
 21
105.442
  0
LINE
  8
0
 10
-98.9562
 20
105.442
 11
-99.0773
 21
105.633
  0
LINE
  8
0
 10
-99.0773
 20
105.633
 11
-99.1736
 21
105.837
  0
LINE
  8
0
 10
-99.1736
 20
105.837
 11
-99.2434
 21
106.052
  0
LINE
  8
0
 10
-99.2434
 20
106.052
 11
-99.2858
 21
106.274
  0
LINE
  8
0
 10
-99.2858
 20
106.274
 11
-99.3
 21
106.5
  0
LINE
  8
0
 10
-99.3
 20
106.5
 11
-99.2858
 21
106.726
  0
LINE
  8
0
 10
-99.2858
 20
106.726
 11
-99.2434
 21
106.948
  0
LINE
  8
0
 10
-99.2434
 20
106.948
 11
-99.1736
 21
107.163
  0
LINE
  8
0
 10
-99.1736
 20
107.163
 11
-99.0773
 21
107.367
  0
LINE
  8
0
 10
-99.0773
 20
107.367
 11
-98.9562
 21
107.558
  0
LINE
  8
0
 10
-98.9562
 20
107.558
 11
-98.8121
 21
107.732
  0
LINE
  8
0
 10
-98.8121
 20
107.732
 11
-98.6474
 21
107.887
  0
LINE
  8
0
 10
-98.6474
 20
107.887
 11
-98.4645
 21
108.02
  0
LINE
  8
0
 10
-98.4645
 20
108.02
 11
-98.2664
 21
108.129
  0
LINE
  8
0
 10
-98.2664
 20
108.129
 11
-98.0562
 21
108.212
  0
LINE
  8
0
 10
-98.0562
 20
108.212
 11
-97.8373
 21
108.268
  0
LINE
  8
0
 10
-97.8373
 20
108.268
 11
-97.613
 21
108.296
  0
LINE
  8
0
 10
-97.613
 20
108.296
 11
-97.387
 21
108.296
  0
LINE
  8
0
 10
-97.387
 20
108.296
 11
-97.1627
 21
108.268
  0
LINE
  8
0
 10
-97.1627
 20
108.268
 11
-96.9438
 21
108.212
  0
LINE
  8
0
 10
-96.9438
 20
108.212
 11
-96.7336
 21
108.129
  0
LINE
  8
0
 10
-96.7336
 20
108.129
 11
-96.5355
 21
108.02
  0
LINE
  8
0
 10
-96.5355
 20
108.02
 11
-96.3526
 21
107.887
  0
LINE
  8
0
 10
-96.3526
 20
107.887
 11
-96.1879
 21
107.732
  0
LINE
  8
0
 10
-96.1879
 20
107.732
 11
-96.0438
 21
107.558
  0
LINE
  8
0
 10
-96.0438
 20
107.558
 11
-95.9226
 21
107.367
  0
LINE
  8
0
 10
-95.9226
 20
107.367
 11
-95.8264
 21
107.163
  0
LINE
  8
0
 10
-95.8264
 20
107.163
 11
-95.7565
 21
106.948
  0
LINE
  8
0
 10
-95.7565
 20
106.948
 11
-95.7142
 21
106.726
  0
LINE
  8
0
 10
-95.7142
 20
106.726
 11
-95.7
 21
106.5
  0
LINE
  8
0
 10
-95.7
 20
106.5
 11
-95.7142
 21
106.274
  0
LINE
  8
0
 10
-95.7142
 20
106.274
 11
-95.7565
 21
106.052
  0
LINE
  8
0
 10
-95.7565
 20
106.052
 11
-95.8264
 21
105.837
  0
LINE
  8
0
 10
-95.8264
 20
105.837
 11
-95.9226
 21
105.633
  0
LINE
  8
0
 10
-95.9226
 20
105.633
 11
-96.0438
 21
105.442
  0
LINE
  8
0
 10
-96.0438
 20
105.442
 11
-96.1879
 21
105.268
  0
LINE
  8
0
 10
-96.1879
 20
105.268
 11
-96.3526
 21
105.113
  0
LINE
  8
0
 10
-96.3526
 20
105.113
 11
-96.5355
 21
104.98
  0
LINE
  8
0
 10
-96.5355
 20
104.98
 11
-96.7336
 21
104.871
  0
LINE
  8
0
 10
-96.7336
 20
104.871
 11
-96.9438
 21
104.788
  0
LINE
  8
0
 10
-96.9438
 20
104.788
 11
-97.1627
 21
104.732
  0
LINE
  8
0
 10
-97.1627
 20
104.732
 11
-97.387
 21
104.704
  0
LINE
  8
0
 10
-97.387
 20
104.704
 11
-97.613
 21
104.704
  0
LINE
  8
0
 10
97.387
 20
104.704
 11
97.1627
 21
104.732
  0
LINE
  8
0
 10
97.1627
 20
104.732
 11
96.9438
 21
104.788
  0
LINE
  8
0
 10
96.9438
 20
104.788
 11
96.7336
 21
104.871
  0
LINE
  8
0
 10
96.7336
 20
104.871
 11
96.5355
 21
104.98
  0
LINE
  8
0
 10
96.5355
 20
104.98
 11
96.3526
 21
105.113
  0
LINE
  8
0
 10
96.3526
 20
105.113
 11
96.1879
 21
105.268
  0
LINE
  8
0
 10
96.1879
 20
105.268
 11
96.0438
 21
105.442
  0
LINE
  8
0
 10
96.0438
 20
105.442
 11
95.9226
 21
105.633
  0
LINE
  8
0
 10
95.9226
 20
105.633
 11
95.8264
 21
105.837
  0
LINE
  8
0
 10
95.8264
 20
105.837
 11
95.7565
 21
106.052
  0
LINE
  8
0
 10
95.7565
 20
106.052
 11
95.7142
 21
106.274
  0
LINE
  8
0
 10
95.7142
 20
106.274
 11
95.7
 21
106.5
  0
LINE
  8
0
 10
95.7
 20
106.5
 11
95.7142
 21
106.726
  0
LINE
  8
0
 10
95.7142
 20
106.726
 11
95.7565
 21
106.948
  0
LINE
  8
0
 10
95.7565
 20
106.948
 11
95.8264
 21
107.163
  0
LINE
  8
0
 10
95.8264
 20
107.163
 11
95.9226
 21
107.367
  0
LINE
  8
0
 10
95.9226
 20
107.367
 11
96.0438
 21
107.558
  0
LINE
  8
0
 10
96.0438
 20
107.558
 11
96.1879
 21
107.732
  0
LINE
  8
0
 10
96.1879
 20
107.732
 11
96.3526
 21
107.887
  0
LINE
  8
0
 10
96.3526
 20
107.887
 11
96.5355
 21
108.02
  0
LINE
  8
0
 10
96.5355
 20
108.02
 11
96.7336
 21
108.129
  0
LINE
  8
0
 10
96.7336
 20
108.129
 11
96.9438
 21
108.212
  0
LINE
  8
0
 10
96.9438
 20
108.212
 11
97.1627
 21
108.268
  0
LINE
  8
0
 10
97.1627
 20
108.268
 11
97.387
 21
108.296
  0
LINE
  8
0
 10
97.387
 20
108.296
 11
97.613
 21
108.296
  0
LINE
  8
0
 10
97.613
 20
108.296
 11
97.8373
 21
108.268
  0
LINE
  8
0
 10
97.8373
 20
108.268
 11
98.0562
 21
108.212
  0
LINE
  8
0
 10
98.0562
 20
108.212
 11
98.2664
 21
108.129
  0
LINE
  8
0
 10
98.2664
 20
108.129
 11
98.4645
 21
108.02
  0
LINE
  8
0
 10
98.4645
 20
108.02
 11
98.6474
 21
107.887
  0
LINE
  8
0
 10
98.6474
 20
107.887
 11
98.8121
 21
107.732
  0
LINE
  8
0
 10
98.8121
 20
107.732
 11
98.9562
 21
107.558
  0
LINE
  8
0
 10
98.9562
 20
107.558
 11
99.0773
 21
107.367
  0
LINE
  8
0
 10
99.0773
 20
107.367
 11
99.1736
 21
107.163
  0
LINE
  8
0
 10
99.1736
 20
107.163
 11
99.2434
 21
106.948
  0
LINE
  8
0
 10
99.2434
 20
106.948
 11
99.2858
 21
106.726
  0
LINE
  8
0
 10
99.2858
 20
106.726
 11
99.3
 21
106.5
  0
LINE
  8
0
 10
99.3
 20
106.5
 11
99.2858
 21
106.274
  0
LINE
  8
0
 10
99.2858
 20
106.274
 11
99.2434
 21
106.052
  0
LINE
  8
0
 10
99.2434
 20
106.052
 11
99.1736
 21
105.837
  0
LINE
  8
0
 10
99.1736
 20
105.837
 11
99.0773
 21
105.633
  0
LINE
  8
0
 10
99.0773
 20
105.633
 11
98.9562
 21
105.442
  0
LINE
  8
0
 10
98.9562
 20
105.442
 11
98.8121
 21
105.268
  0
LINE
  8
0
 10
98.8121
 20
105.268
 11
98.6474
 21
105.113
  0
LINE
  8
0
 10
98.6474
 20
105.113
 11
98.4645
 21
104.98
  0
LINE
  8
0
 10
98.4645
 20
104.98
 11
98.2664
 21
104.871
  0
LINE
  8
0
 10
98.2664
 20
104.871
 11
98.0562
 21
104.788
  0
LINE
  8
0
 10
98.0562
 20
104.788
 11
97.8373
 21
104.732
  0
LINE
  8
0
 10
97.8373
 20
104.732
 11
97.613
 21
104.704
  0
LINE
  8
0
 10
97.613
 20
104.704
 11
97.387
 21
104.704
  0
LINE
  8
0
 10
-102
 20
89.6148
 11
-105
 21
89.6148
  0
LINE
  8
0
 10
-105
 20
89.6148
 11
-105
 21
-89.6148
  0
LINE
  8
0
 10
-105
 20
-89.6148
 11
-102
 21
-89.6148
  0
LINE
  8
0
 10
-102
 20
-89.6148
 11
-102
 21
89.6148
  0
ENDSEC
  0
SECTION
  2
OBJECTS
  0
DICTIONARY
  0
ENDSEC
  0
EOF
