<?xml version="1.0" standalone="no"?>
<!DOCTYPE svg PUBLIC "-//W3C//DTD SVG 1.1//EN" "http://www.w3.org/Graphics/SVG/1.1/DTD/svg11.dtd">
<svg width="24mm" height="232mm" viewBox="-12 -464 24 232" xmlns="http://www.w3.org/2000/svg" version="1.1">
<title>OpenSCAD Model</title>
<path d="
M 7.1869,-448.589 L 7.79507,-448.745 L 8.37889,-448.976 L 8.92912,-449.278 L 9.43712,-449.647 L 9.89484,-450.077
 L 10.2951,-450.561 L 10.6315,-451.091 L 10.8989,-451.659 L 11.0929,-452.257 L 11.2106,-452.873 L 11.25,-453.5
 L 11.25,-458.5 L 11.2106,-459.127 L 11.0929,-459.743 L 10.8989,-460.341 L 10.6315,-460.909 L 10.2951,-461.439
 L 9.89484,-461.923 L 9.43712,-462.353 L 8.92912,-462.722 L 8.37889,-463.024 L 7.79507,-463.255 L 7.1869,-463.411
 L 6.56395,-463.49 L -6.56395,-463.49 L -7.1869,-463.411 L -7.79507,-463.255 L -8.37889,-463.024 L -8.92912,-462.722
 L -9.43712,-462.353 L -9.89484,-461.923 L -10.2951,-461.439 L -10.6315,-460.909 L -10.8989,-460.341 L -11.0929,-459.743
 L -11.2106,-459.127 L -11.25,-458.5 L -11.25,-453.5 L -11.2106,-452.873 L -11.0929,-452.257 L -10.8989,-451.659
 L -10.6315,-451.091 L -10.2951,-450.561 L -9.89484,-450.077 L -9.43712,-449.647 L -8.92912,-449.278 L -8.37889,-448.976
 L -7.79507,-448.745 L -7.1869,-448.589 L -6.56395,-448.51 L 6.56395,-448.51 z
M -6.00116,-450.008 L -6.49951,-450.071 L -6.98605,-450.196 L -7.45311,-450.381 L -7.8933,-450.623 L -8.29968,-450.918
 L -8.66586,-451.262 L -8.98605,-451.649 L -9.25522,-452.073 L -9.4691,-452.528 L -9.62433,-453.005 L -9.71844,-453.499
 L -9.75,-454 L -9.75,-458 L -9.71844,-458.501 L -9.62433,-458.995 L -9.4691,-459.472 L -9.25522,-459.927
 L -8.98605,-460.351 L -8.66586,-460.738 L -8.29968,-461.082 L -7.8933,-461.377 L -7.45311,-461.619 L -6.98605,-461.804
 L -6.49951,-461.929 L -6.00116,-461.992 L 6.00116,-461.992 L 6.49951,-461.929 L 6.98605,-461.804 L 7.45311,-461.619
 L 7.8933,-461.377 L 8.29968,-461.082 L 8.66586,-460.738 L 8.98605,-460.351 L 9.25522,-459.927 L 9.4691,-459.472
 L 9.62433,-458.995 L 9.71844,-458.501 L 9.75,-458 L 9.75,-454 L 9.71844,-453.499 L 9.62433,-453.005
 L 9.4691,-452.528 L 9.25522,-452.073 L 8.98605,-451.649 L 8.66586,-451.262 L 8.29968,-450.918 L 7.8933,-450.623
 L 7.45311,-450.381 L 6.98605,-450.196 L 6.49951,-450.071 L 6.00116,-450.008 z
M 7.1869,-424.589 L 7.79507,-424.745 L 8.37889,-424.976 L 8.92912,-425.278 L 9.43712,-425.647 L 9.89484,-426.077
 L 10.2951,-426.561 L 10.6315,-427.091 L 10.8989,-427.659 L 11.0929,-428.257 L 11.2106,-428.873 L 11.25,-429.5
 L 11.25,-434.5 L 11.2106,-435.127 L 11.0929,-435.743 L 10.8989,-436.341 L 10.6315,-436.909 L 10.2951,-437.439
 L 9.89484,-437.923 L 9.43712,-438.353 L 8.92912,-438.722 L 8.37889,-439.024 L 7.79507,-439.255 L 7.1869,-439.411
 L 6.56395,-439.49 L -6.56395,-439.49 L -7.1869,-439.411 L -7.79507,-439.255 L -8.37889,-439.024 L -8.92912,-438.722
 L -9.43712,-438.353 L -9.89484,-437.923 L -10.2951,-437.439 L -10.6315,-436.909 L -10.8989,-436.341 L -11.0929,-435.743
 L -11.2106,-435.127 L -11.25,-434.5 L -11.25,-429.5 L -11.2106,-428.873 L -11.0929,-428.257 L -10.8989,-427.659
 L -10.6315,-427.091 L -10.2951,-426.561 L -9.89484,-426.077 L -9.43712,-425.647 L -8.92912,-425.278 L -8.37889,-424.976
 L -7.79507,-424.745 L -7.1869,-424.589 L -6.56395,-424.51 L 6.56395,-424.51 z
M -6.00116,-426.008 L -6.49951,-426.071 L -6.98605,-426.196 L -7.45311,-426.381 L -7.8933,-426.623 L -8.29968,-426.918
 L -8.66586,-427.262 L -8.98605,-427.649 L -9.25522,-428.073 L -9.4691,-428.528 L -9.62433,-429.005 L -9.71844,-429.499
 L -9.75,-430 L -9.75,-434 L -9.71844,-434.501 L -9.62433,-434.995 L -9.4691,-435.472 L -9.25522,-435.927
 L -8.98605,-436.351 L -8.66586,-436.738 L -8.29968,-437.082 L -7.8933,-437.377 L -7.45311,-437.619 L -6.98605,-437.804
 L -6.49951,-437.929 L -6.00116,-437.992 L 6.00116,-437.992 L 6.49951,-437.929 L 6.98605,-437.804 L 7.45311,-437.619
 L 7.8933,-437.377 L 8.29968,-437.082 L 8.66586,-436.738 L 8.98605,-436.351 L 9.25522,-435.927 L 9.4691,-435.472
 L 9.62433,-434.995 L 9.71844,-434.501 L 9.75,-434 L 9.75,-430 L 9.71844,-429.499 L 9.62433,-429.005
 L 9.4691,-428.528 L 9.25522,-428.073 L 8.98605,-427.649 L 8.66586,-427.262 L 8.29968,-426.918 L 7.8933,-426.623
 L 7.45311,-426.381 L 6.98605,-426.196 L 6.49951,-426.071 L 6.00116,-426.008 z
M 7.1869,-400.589 L 7.79507,-400.745 L 8.37889,-400.976 L 8.92912,-401.278 L 9.43712,-401.647 L 9.89484,-402.077
 L 10.2951,-402.561 L 10.6315,-403.091 L 10.8989,-403.659 L 11.0929,-404.257 L 11.2106,-404.873 L 11.25,-405.5
 L 11.25,-410.5 L 11.2106,-411.127 L 11.0929,-411.743 L 10.8989,-412.341 L 10.6315,-412.909 L 10.2951,-413.439
 L 9.89484,-413.923 L 9.43712,-414.353 L 8.92912,-414.722 L 8.37889,-415.024 L 7.79507,-415.255 L 7.1869,-415.411
 L 6.56395,-415.49 L -6.56395,-415.49 L -7.1869,-415.411 L -7.79507,-415.255 L -8.37889,-415.024 L -8.92912,-414.722
 L -9.43712,-414.353 L -9.89484,-413.923 L -10.2951,-413.439 L -10.6315,-412.909 L -10.8989,-412.341 L -11.0929,-411.743
 L -11.2106,-411.127 L -11.25,-410.5 L -11.25,-405.5 L -11.2106,-404.873 L -11.0929,-404.257 L -10.8989,-403.659
 L -10.6315,-403.091 L -10.2951,-402.561 L -9.89484,-402.077 L -9.43712,-401.647 L -8.92912,-401.278 L -8.37889,-400.976
 L -7.79507,-400.745 L -7.1869,-400.589 L -6.56395,-400.51 L 6.56395,-400.51 z
M -6.00116,-402.008 L -6.49951,-402.071 L -6.98605,-402.196 L -7.45311,-402.381 L -7.8933,-402.623 L -8.29968,-402.918
 L -8.66586,-403.262 L -8.98605,-403.649 L -9.25522,-404.073 L -9.4691,-404.528 L -9.62433,-405.005 L -9.71844,-405.499
 L -9.75,-406 L -9.75,-410 L -9.71844,-410.501 L -9.62433,-410.995 L -9.4691,-411.472 L -9.25522,-411.927
 L -8.98605,-412.351 L -8.66586,-412.738 L -8.29968,-413.082 L -7.8933,-413.377 L -7.45311,-413.619 L -6.98605,-413.804
 L -6.49951,-413.929 L -6.00116,-413.992 L 6.00116,-413.992 L 6.49951,-413.929 L 6.98605,-413.804 L 7.45311,-413.619
 L 7.8933,-413.377 L 8.29968,-413.082 L 8.66586,-412.738 L 8.98605,-412.351 L 9.25522,-411.927 L 9.4691,-411.472
 L 9.62433,-410.995 L 9.71844,-410.501 L 9.75,-410 L 9.75,-406 L 9.71844,-405.499 L 9.62433,-405.005
 L 9.4691,-404.528 L 9.25522,-404.073 L 8.98605,-403.649 L 8.66586,-403.262 L 8.29968,-402.918 L 7.8933,-402.623
 L 7.45311,-402.381 L 6.98605,-402.196 L 6.49951,-402.071 L 6.00116,-402.008 z
M 7.1869,-376.589 L 7.79507,-376.745 L 8.37889,-376.976 L 8.92912,-377.278 L 9.43712,-377.647 L 9.89484,-378.077
 L 10.2951,-378.561 L 10.6315,-379.091 L 10.8989,-379.659 L 11.0929,-380.257 L 11.2106,-380.873 L 11.25,-381.5
 L 11.25,-386.5 L 11.2106,-387.127 L 11.0929,-387.743 L 10.8989,-388.341 L 10.6315,-388.909 L 10.2951,-389.439
 L 9.89484,-389.923 L 9.43712,-390.353 L 8.92912,-390.722 L 8.37889,-391.024 L 7.79507,-391.255 L 7.1869,-391.411
 L 6.56395,-391.49 L -6.56395,-391.49 L -7.1869,-391.411 L -7.79507,-391.255 L -8.37889,-391.024 L -8.92912,-390.722
 L -9.43712,-390.353 L -9.89484,-389.923 L -10.2951,-389.439 L -10.6315,-388.909 L -10.8989,-388.341 L -11.0929,-387.743
 L -11.2106,-387.127 L -11.25,-386.5 L -11.25,-381.5 L -11.2106,-380.873 L -11.0929,-380.257 L -10.8989,-379.659
 L -10.6315,-379.091 L -10.2951,-378.561 L -9.89484,-378.077 L -9.43712,-377.647 L -8.92912,-377.278 L -8.37889,-376.976
 L -7.79507,-376.745 L -7.1869,-376.589 L -6.56395,-376.51 L 6.56395,-376.51 z
M -6.00116,-378.008 L -6.49951,-378.071 L -6.98605,-378.196 L -7.45311,-378.381 L -7.8933,-378.623 L -8.29968,-378.918
 L -8.66586,-379.262 L -8.98605,-379.649 L -9.25522,-380.073 L -9.4691,-380.528 L -9.62433,-381.005 L -9.71844,-381.499
 L -9.75,-382 L -9.75,-386 L -9.71844,-386.501 L -9.62433,-386.995 L -9.4691,-387.472 L -9.25522,-387.927
 L -8.98605,-388.351 L -8.66586,-388.738 L -8.29968,-389.082 L -7.8933,-389.377 L -7.45311,-389.619 L -6.98605,-389.804
 L -6.49951,-389.929 L -6.00116,-389.992 L 6.00116,-389.992 L 6.49951,-389.929 L 6.98605,-389.804 L 7.45311,-389.619
 L 7.8933,-389.377 L 8.29968,-389.082 L 8.66586,-388.738 L 8.98605,-388.351 L 9.25522,-387.927 L 9.4691,-387.472
 L 9.62433,-386.995 L 9.71844,-386.501 L 9.75,-386 L 9.75,-382 L 9.71844,-381.499 L 9.62433,-381.005
 L 9.4691,-380.528 L 9.25522,-380.073 L 8.98605,-379.649 L 8.66586,-379.262 L 8.29968,-378.918 L 7.8933,-378.623
 L 7.45311,-378.381 L 6.98605,-378.196 L 6.49951,-378.071 L 6.00116,-378.008 z
M 7.1869,-352.589 L 7.79507,-352.745 L 8.37889,-352.976 L 8.92912,-353.278 L 9.43712,-353.647 L 9.89484,-354.077
 L 10.2951,-354.561 L 10.6315,-355.091 L 10.8989,-355.659 L 11.0929,-356.257 L 11.2106,-356.873 L 11.25,-357.5
 L 11.25,-362.5 L 11.2106,-363.127 L 11.0929,-363.743 L 10.8989,-364.341 L 10.6315,-364.909 L 10.2951,-365.439
 L 9.89484,-365.923 L 9.43712,-366.353 L 8.92912,-366.722 L 8.37889,-367.024 L 7.79507,-367.255 L 7.1869,-367.411
 L 6.56395,-367.49 L -6.56395,-367.49 L -7.1869,-367.411 L -7.79507,-367.255 L -8.37889,-367.024 L -8.92912,-366.722
 L -9.43712,-366.353 L -9.89484,-365.923 L -10.2951,-365.439 L -10.6315,-364.909 L -10.8989,-364.341 L -11.0929,-363.743
 L -11.2106,-363.127 L -11.25,-362.5 L -11.25,-357.5 L -11.2106,-356.873 L -11.0929,-356.257 L -10.8989,-355.659
 L -10.6315,-355.091 L -10.2951,-354.561 L -9.89484,-354.077 L -9.43712,-353.647 L -8.92912,-353.278 L -8.37889,-352.976
 L -7.79507,-352.745 L -7.1869,-352.589 L -6.56395,-352.51 L 6.56395,-352.51 z
M -6.00116,-354.008 L -6.49951,-354.071 L -6.98605,-354.196 L -7.45311,-354.381 L -7.8933,-354.623 L -8.29968,-354.918
 L -8.66586,-355.262 L -8.98605,-355.649 L -9.25522,-356.073 L -9.4691,-356.528 L -9.62433,-357.005 L -9.71844,-357.499
 L -9.75,-358 L -9.75,-362 L -9.71844,-362.501 L -9.62433,-362.995 L -9.4691,-363.472 L -9.25522,-363.927
 L -8.98605,-364.351 L -8.66586,-364.738 L -8.29968,-365.082 L -7.8933,-365.377 L -7.45311,-365.619 L -6.98605,-365.804
 L -6.49951,-365.929 L -6.00116,-365.992 L 6.00116,-365.992 L 6.49951,-365.929 L 6.98605,-365.804 L 7.45311,-365.619
 L 7.8933,-365.377 L 8.29968,-365.082 L 8.66586,-364.738 L 8.98605,-364.351 L 9.25522,-363.927 L 9.4691,-363.472
 L 9.62433,-362.995 L 9.71844,-362.501 L 9.75,-362 L 9.75,-358 L 9.71844,-357.499 L 9.62433,-357.005
 L 9.4691,-356.528 L 9.25522,-356.073 L 8.98605,-355.649 L 8.66586,-355.262 L 8.29968,-354.918 L 7.8933,-354.623
 L 7.45311,-354.381 L 6.98605,-354.196 L 6.49951,-354.071 L 6.00116,-354.008 z
M 7.1869,-328.589 L 7.79507,-328.745 L 8.37889,-328.976 L 8.92912,-329.278 L 9.43712,-329.647 L 9.89484,-330.077
 L 10.2951,-330.561 L 10.6315,-331.091 L 10.8989,-331.659 L 11.0929,-332.257 L 11.2106,-332.873 L 11.25,-333.5
 L 11.25,-338.5 L 11.2106,-339.127 L 11.0929,-339.743 L 10.8989,-340.341 L 10.6315,-340.909 L 10.2951,-341.439
 L 9.89484,-341.923 L 9.43712,-342.353 L 8.92912,-342.722 L 8.37889,-343.024 L 7.79507,-343.255 L 7.1869,-343.411
 L 6.56395,-343.49 L -6.56395,-343.49 L -7.1869,-343.411 L -7.79507,-343.255 L -8.37889,-343.024 L -8.92912,-342.722
 L -9.43712,-342.353 L -9.89484,-341.923 L -10.2951,-341.439 L -10.6315,-340.909 L -10.8989,-340.341 L -11.0929,-339.743
 L -11.2106,-339.127 L -11.25,-338.5 L -11.25,-333.5 L -11.2106,-332.873 L -11.0929,-332.257 L -10.8989,-331.659
 L -10.6315,-331.091 L -10.2951,-330.561 L -9.89484,-330.077 L -9.43712,-329.647 L -8.92912,-329.278 L -8.37889,-328.976
 L -7.79507,-328.745 L -7.1869,-328.589 L -6.56395,-328.51 L 6.56395,-328.51 z
M -6.00116,-330.008 L -6.49951,-330.071 L -6.98605,-330.196 L -7.45311,-330.381 L -7.8933,-330.623 L -8.29968,-330.918
 L -8.66586,-331.262 L -8.98605,-331.649 L -9.25522,-332.073 L -9.4691,-332.528 L -9.62433,-333.005 L -9.71844,-333.499
 L -9.75,-334 L -9.75,-338 L -9.71844,-338.501 L -9.62433,-338.995 L -9.4691,-339.472 L -9.25522,-339.927
 L -8.98605,-340.351 L -8.66586,-340.738 L -8.29968,-341.082 L -7.8933,-341.377 L -7.45311,-341.619 L -6.98605,-341.804
 L -6.49951,-341.929 L -6.00116,-341.992 L 6.00116,-341.992 L 6.49951,-341.929 L 6.98605,-341.804 L 7.45311,-341.619
 L 7.8933,-341.377 L 8.29968,-341.082 L 8.66586,-340.738 L 8.98605,-340.351 L 9.25522,-339.927 L 9.4691,-339.472
 L 9.62433,-338.995 L 9.71844,-338.501 L 9.75,-338 L 9.75,-334 L 9.71844,-333.499 L 9.62433,-333.005
 L 9.4691,-332.528 L 9.25522,-332.073 L 8.98605,-331.649 L 8.66586,-331.262 L 8.29968,-330.918 L 7.8933,-330.623
 L 7.45311,-330.381 L 6.98605,-330.196 L 6.49951,-330.071 L 6.00116,-330.008 z
M 7.1869,-304.589 L 7.79507,-304.745 L 8.37889,-304.976 L 8.92912,-305.278 L 9.43712,-305.647 L 9.89484,-306.077
 L 10.2951,-306.561 L 10.6315,-307.091 L 10.8989,-307.659 L 11.0929,-308.257 L 11.2106,-308.873 L 11.25,-309.5
 L 11.25,-314.5 L 11.2106,-315.127 L 11.0929,-315.743 L 10.8989,-316.341 L 10.6315,-316.909 L 10.2951,-317.439
 L 9.89484,-317.923 L 9.43712,-318.353 L 8.92912,-318.722 L 8.37889,-319.024 L 7.79507,-319.255 L 7.1869,-319.411
 L 6.56395,-319.49 L -6.56395,-319.49 L -7.1869,-319.411 L -7.79507,-319.255 L -8.37889,-319.024 L -8.92912,-318.722
 L -9.43712,-318.353 L -9.89484,-317.923 L -10.2951,-317.439 L -10.6315,-316.909 L -10.8989,-316.341 L -11.0929,-315.743
 L -11.2106,-315.127 L -11.25,-314.5 L -11.25,-309.5 L -11.2106,-308.873 L -11.0929,-308.257 L -10.8989,-307.659
 L -10.6315,-307.091 L -10.2951,-306.561 L -9.89484,-306.077 L -9.43712,-305.647 L -8.92912,-305.278 L -8.37889,-304.976
 L -7.79507,-304.745 L -7.1869,-304.589 L -6.56395,-304.51 L 6.56395,-304.51 z
M -6.00116,-306.008 L -6.49951,-306.071 L -6.98605,-306.196 L -7.45311,-306.381 L -7.8933,-306.623 L -8.29968,-306.918
 L -8.66586,-307.262 L -8.98605,-307.649 L -9.25522,-308.073 L -9.4691,-308.528 L -9.62433,-309.005 L -9.71844,-309.499
 L -9.75,-310 L -9.75,-314 L -9.71844,-314.501 L -9.62433,-314.995 L -9.4691,-315.472 L -9.25522,-315.927
 L -8.98605,-316.351 L -8.66586,-316.738 L -8.29968,-317.082 L -7.8933,-317.377 L -7.45311,-317.619 L -6.98605,-317.804
 L -6.49951,-317.929 L -6.00116,-317.992 L 6.00116,-317.992 L 6.49951,-317.929 L 6.98605,-317.804 L 7.45311,-317.619
 L 7.8933,-317.377 L 8.29968,-317.082 L 8.66586,-316.738 L 8.98605,-316.351 L 9.25522,-315.927 L 9.4691,-315.472
 L 9.62433,-314.995 L 9.71844,-314.501 L 9.75,-314 L 9.75,-310 L 9.71844,-309.499 L 9.62433,-309.005
 L 9.4691,-308.528 L 9.25522,-308.073 L 8.98605,-307.649 L 8.66586,-307.262 L 8.29968,-306.918 L 7.8933,-306.623
 L 7.45311,-306.381 L 6.98605,-306.196 L 6.49951,-306.071 L 6.00116,-306.008 z
M 7.1869,-280.589 L 7.79507,-280.745 L 8.37889,-280.976 L 8.92912,-281.278 L 9.43712,-281.647 L 9.89484,-282.077
 L 10.2951,-282.561 L 10.6315,-283.091 L 10.8989,-283.659 L 11.0929,-284.257 L 11.2106,-284.873 L 11.25,-285.5
 L 11.25,-290.5 L 11.2106,-291.127 L 11.0929,-291.743 L 10.8989,-292.341 L 10.6315,-292.909 L 10.2951,-293.439
 L 9.89484,-293.923 L 9.43712,-294.353 L 8.92912,-294.722 L 8.37889,-295.024 L 7.79507,-295.255 L 7.1869,-295.411
 L 6.56395,-295.49 L -6.56395,-295.49 L -7.1869,-295.411 L -7.79507,-295.255 L -8.37889,-295.024 L -8.92912,-294.722
 L -9.43712,-294.353 L -9.89484,-293.923 L -10.2951,-293.439 L -10.6315,-292.909 L -10.8989,-292.341 L -11.0929,-291.743
 L -11.2106,-291.127 L -11.25,-290.5 L -11.25,-285.5 L -11.2106,-284.873 L -11.0929,-284.257 L -10.8989,-283.659
 L -10.6315,-283.091 L -10.2951,-282.561 L -9.89484,-282.077 L -9.43712,-281.647 L -8.92912,-281.278 L -8.37889,-280.976
 L -7.79507,-280.745 L -7.1869,-280.589 L -6.56395,-280.51 L 6.56395,-280.51 z
M -6.00116,-282.008 L -6.49951,-282.071 L -6.98605,-282.196 L -7.45311,-282.381 L -7.8933,-282.623 L -8.29968,-282.918
 L -8.66586,-283.262 L -8.98605,-283.649 L -9.25522,-284.073 L -9.4691,-284.528 L -9.62433,-285.005 L -9.71844,-285.499
 L -9.75,-286 L -9.75,-290 L -9.71844,-290.501 L -9.62433,-290.995 L -9.4691,-291.472 L -9.25522,-291.927
 L -8.98605,-292.351 L -8.66586,-292.738 L -8.29968,-293.082 L -7.8933,-293.377 L -7.45311,-293.619 L -6.98605,-293.804
 L -6.49951,-293.929 L -6.00116,-293.992 L 6.00116,-293.992 L 6.49951,-293.929 L 6.98605,-293.804 L 7.45311,-293.619
 L 7.8933,-293.377 L 8.29968,-293.082 L 8.66586,-292.738 L 8.98605,-292.351 L 9.25522,-291.927 L 9.4691,-291.472
 L 9.62433,-290.995 L 9.71844,-290.501 L 9.75,-290 L 9.75,-286 L 9.71844,-285.499 L 9.62433,-285.005
 L 9.4691,-284.528 L 9.25522,-284.073 L 8.98605,-283.649 L 8.66586,-283.262 L 8.29968,-282.918 L 7.8933,-282.623
 L 7.45311,-282.381 L 6.98605,-282.196 L 6.49951,-282.071 L 6.00116,-282.008 z
M 7.1869,-256.589 L 7.79507,-256.745 L 8.37889,-256.976 L 8.92912,-257.278 L 9.43712,-257.647 L 9.89484,-258.077
 L 10.2951,-258.561 L 10.6315,-259.091 L 10.8989,-259.659 L 11.0929,-260.257 L 11.2106,-260.873 L 11.25,-261.5
 L 11.25,-266.5 L 11.2106,-267.127 L 11.0929,-267.743 L 10.8989,-268.341 L 10.6315,-268.909 L 10.2951,-269.439
 L 9.89484,-269.923 L 9.43712,-270.353 L 8.92912,-270.722 L 8.37889,-271.024 L 7.79507,-271.255 L 7.1869,-271.411
 L 6.56395,-271.49 L -6.56395,-271.49 L -7.1869,-271.411 L -7.79507,-271.255 L -8.37889,-271.024 L -8.92912,-270.722
 L -9.43712,-270.353 L -9.89484,-269.923 L -10.2951,-269.439 L -10.6315,-268.909 L -10.8989,-268.341 L -11.0929,-267.743
 L -11.2106,-267.127 L -11.25,-266.5 L -11.25,-261.5 L -11.2106,-260.873 L -11.0929,-260.257 L -10.8989,-259.659
 L -10.6315,-259.091 L -10.2951,-258.561 L -9.89484,-258.077 L -9.43712,-257.647 L -8.92912,-257.278 L -8.37889,-256.976
 L -7.79507,-256.745 L -7.1869,-256.589 L -6.56395,-256.51 L 6.56395,-256.51 z
M -5.94545,-258.893 L -6.3333,-258.942 L -6.71194,-259.039 L -7.07541,-259.183 L -7.41798,-259.372 L -7.73424,-259.601
 L -8.01921,-259.869 L -8.2684,-260.17 L -8.47786,-260.5 L -8.64432,-260.854 L -8.76512,-261.226 L -8.83836,-261.61
 L -8.86292,-262 L -8.86292,-266 L -8.83836,-266.39 L -8.76512,-266.774 L -8.64432,-267.146 L -8.47786,-267.5
 L -8.2684,-267.83 L -8.01921,-268.131 L -7.73424,-268.399 L -7.41798,-268.628 L -7.07541,-268.817 L -6.71194,-268.961
 L -6.3333,-269.058 L -5.94545,-269.107 L 5.94545,-269.107 L 6.3333,-269.058 L 6.71194,-268.961 L 7.07541,-268.817
 L 7.41798,-268.628 L 7.73424,-268.399 L 8.01921,-268.131 L 8.2684,-267.83 L 8.47786,-267.5 L 8.64432,-267.146
 L 8.76512,-266.774 L 8.83836,-266.39 L 8.86292,-266 L 8.86292,-262 L 8.83836,-261.61 L 8.76512,-261.226
 L 8.64432,-260.854 L 8.47786,-260.5 L 8.2684,-260.17 L 8.01921,-259.869 L 7.73424,-259.601 L 7.41798,-259.372
 L 7.07541,-259.183 L 6.71194,-259.039 L 6.3333,-258.942 L 5.94545,-258.893 z
M 7.1869,-232.589 L 7.79507,-232.745 L 8.37889,-232.976 L 8.92912,-233.278 L 9.43712,-233.647 L 9.89484,-234.077
 L 10.2951,-234.561 L 10.6315,-235.091 L 10.8989,-235.659 L 11.0929,-236.257 L 11.2106,-236.873 L 11.25,-237.5
 L 11.25,-242.5 L 11.2106,-243.127 L 11.0929,-243.743 L 10.8989,-244.341 L 10.6315,-244.909 L 10.2951,-245.439
 L 9.89484,-245.923 L 9.43712,-246.353 L 8.92912,-246.722 L 8.37889,-247.024 L 7.79507,-247.255 L 7.1869,-247.411
 L 6.56395,-247.49 L -6.56395,-247.49 L -7.1869,-247.411 L -7.79507,-247.255 L -8.37889,-247.024 L -8.92912,-246.722
 L -9.43712,-246.353 L -9.89484,-245.923 L -10.2951,-245.439 L -10.6315,-244.909 L -10.8989,-244.341 L -11.0929,-243.743
 L -11.2106,-243.127 L -11.25,-242.5 L -11.25,-237.5 L -11.2106,-236.873 L -11.0929,-236.257 L -10.8989,-235.659
 L -10.6315,-235.091 L -10.2951,-234.561 L -9.89484,-234.077 L -9.43712,-233.647 L -8.92912,-233.278 L -8.37889,-232.976
 L -7.79507,-232.745 L -7.1869,-232.589 L -6.56395,-232.51 L 6.56395,-232.51 z
M -3.88406,-237.869 L -4.1501,-237.903 L -4.40984,-237.969 L -4.65915,-238.068 L -4.89413,-238.197 L -5.11108,-238.355
 L -5.30655,-238.538 L -5.47748,-238.745 L -5.62117,-238.971 L -5.73534,-239.214 L -5.81821,-239.469 L -5.86845,-239.732
 L -5.88528,-240 L -5.86845,-240.268 L -5.81821,-240.531 L -5.73534,-240.786 L -5.62117,-241.029 L -5.47748,-241.255
 L -5.30655,-241.462 L -5.11108,-241.645 L -4.89413,-241.803 L -4.65915,-241.932 L -4.40984,-242.031 L -4.1501,-242.097
 L -3.88406,-242.131 L -3.61592,-242.131 L -3.34988,-242.097 L -3.09015,-242.031 L -2.84084,-241.932 L -2.60585,-241.803
 L -2.3889,-241.645 L -2.19344,-241.462 L -2.02251,-241.255 L -1.87881,-241.029 L -1.76465,-240.786 L -1.68178,-240.531
 L -1.63153,-240.268 L -1.6147,-240 L -1.63153,-239.732 L -1.68178,-239.469 L -1.76465,-239.214 L -1.87881,-238.971
 L -2.02251,-238.745 L -2.19344,-238.538 L -2.3889,-238.355 L -2.60585,-238.197 L -2.84084,-238.068 L -3.09015,-237.969
 L -3.34988,-237.903 L -3.61592,-237.869 z
M 3.61592,-237.869 L 3.34988,-237.903 L 3.09015,-237.969 L 2.84084,-238.068 L 2.60585,-238.197 L 2.3889,-238.355
 L 2.19344,-238.538 L 2.02251,-238.745 L 1.87881,-238.971 L 1.76465,-239.214 L 1.68178,-239.469 L 1.63153,-239.732
 L 1.6147,-240 L 1.63153,-240.268 L 1.68178,-240.531 L 1.76465,-240.786 L 1.87881,-241.029 L 2.02251,-241.255
 L 2.19344,-241.462 L 2.3889,-241.645 L 2.60585,-241.803 L 2.84084,-241.932 L 3.09015,-242.031 L 3.34988,-242.097
 L 3.61592,-242.131 L 3.88406,-242.131 L 4.1501,-242.097 L 4.40984,-242.031 L 4.65915,-241.932 L 4.89413,-241.803
 L 5.11108,-241.645 L 5.30655,-241.462 L 5.47748,-241.255 L 5.62117,-241.029 L 5.73534,-240.786 L 5.81821,-240.531
 L 5.86845,-240.268 L 5.88528,-240 L 5.86845,-239.732 L 5.81821,-239.469 L 5.73534,-239.214 L 5.62117,-238.971
 L 5.47748,-238.745 L 5.30655,-238.538 L 5.11108,-238.355 L 4.89413,-238.197 L 4.65915,-238.068 L 4.40984,-237.969
 L 4.1501,-237.903 L 3.88406,-237.869 z
" stroke="black" fill="lightgray" stroke-width="0.5"/>
</svg>
