<?xml version="1.0" standalone="no"?>
<!DOCTYPE svg PUBLIC "-//W3C//DTD SVG 1.1//EN" "http://www.w3.org/Graphics/SVG/1.1/DTD/svg11.dtd">
<svg width="38mm" height="1026mm" viewBox="-19 -2031 38 1026" xmlns="http://www.w3.org/2000/svg" version="1.1">
<title>OpenSCAD Model</title>
<path d="
M 14.6869,-1971.09 L 15.2951,-1971.24 L 15.8789,-1971.48 L 16.4291,-1971.78 L 16.9371,-1972.15 L 17.3948,-1972.58
 L 17.7951,-1973.06 L 18.1315,-1973.59 L 18.3989,-1974.16 L 18.5929,-1974.76 L 18.7106,-1975.37 L 18.75,-1976
 L 18.75,-2026 L 18.7106,-2026.63 L 18.5929,-2027.24 L 18.3989,-2027.84 L 18.1315,-2028.41 L 17.7951,-2028.94
 L 17.3948,-2029.42 L 16.9371,-2029.85 L 16.4291,-2030.22 L 15.8789,-2030.52 L 15.2951,-2030.76 L 14.6869,-2030.91
 L 14.0639,-2030.99 L -14.0639,-2030.99 L -14.6869,-2030.91 L -15.2951,-2030.76 L -15.8789,-2030.52 L -16.4291,-2030.22
 L -16.9371,-2029.85 L -17.3948,-2029.42 L -17.7951,-2028.94 L -18.1315,-2028.41 L -18.3989,-2027.84 L -18.5929,-2027.24
 L -18.7106,-2026.63 L -18.75,-2026 L -18.75,-1976 L -18.7106,-1975.37 L -18.5929,-1974.76 L -18.3989,-1974.16
 L -18.1315,-1973.59 L -17.7951,-1973.06 L -17.3948,-1972.58 L -16.9371,-1972.15 L -16.4291,-1971.78 L -15.8789,-1971.48
 L -15.2951,-1971.24 L -14.6869,-1971.09 L -14.0639,-1971.01 L 14.0639,-1971.01 z
M -13.7982,-1971.51 L -14.3901,-1971.58 L -14.9678,-1971.73 L -15.5224,-1971.95 L -16.0452,-1972.24 L -16.5278,-1972.59
 L -16.9626,-1973 L -17.3428,-1973.46 L -17.6624,-1973.96 L -17.9164,-1974.5 L -18.1008,-1975.07 L -18.2125,-1975.65
 L -18.25,-1976.25 L -18.25,-2025.75 L -18.2125,-2026.35 L -18.1008,-2026.93 L -17.9164,-2027.5 L -17.6624,-2028.04
 L -17.3428,-2028.54 L -16.9626,-2029 L -16.5278,-2029.41 L -16.0452,-2029.76 L -15.5224,-2030.05 L -14.9678,-2030.27
 L -14.3901,-2030.42 L -13.7982,-2030.49 L 13.7982,-2030.49 L 14.3901,-2030.42 L 14.9678,-2030.27 L 15.5224,-2030.05
 L 16.0452,-2029.76 L 16.5278,-2029.41 L 16.9626,-2029 L 17.3428,-2028.54 L 17.6624,-2028.04 L 17.9164,-2027.5
 L 18.1008,-2026.93 L 18.2125,-2026.35 L 18.25,-2025.75 L 18.25,-1976.25 L 18.2125,-1975.65 L 18.1008,-1975.07
 L 17.9164,-1974.5 L 17.6624,-1973.96 L 17.3428,-1973.46 L 16.9626,-1973 L 16.5278,-1972.59 L 16.0452,-1972.24
 L 15.5224,-1971.95 L 14.9678,-1971.73 L 14.3901,-1971.58 L 13.7982,-1971.51 z
M 14.6869,-1902.09 L 15.2951,-1902.24 L 15.8789,-1902.48 L 16.4291,-1902.78 L 16.9371,-1903.15 L 17.3948,-1903.58
 L 17.7951,-1904.06 L 18.1315,-1904.59 L 18.3989,-1905.16 L 18.5929,-1905.76 L 18.7106,-1906.37 L 18.75,-1907
 L 18.75,-1957 L 18.7106,-1957.63 L 18.5929,-1958.24 L 18.3989,-1958.84 L 18.1315,-1959.41 L 17.7951,-1959.94
 L 17.3948,-1960.42 L 16.9371,-1960.85 L 16.4291,-1961.22 L 15.8789,-1961.52 L 15.2951,-1961.76 L 14.6869,-1961.91
 L 14.0639,-1961.99 L -14.0639,-1961.99 L -14.6869,-1961.91 L -15.2951,-1961.76 L -15.8789,-1961.52 L -16.4291,-1961.22
 L -16.9371,-1960.85 L -17.3948,-1960.42 L -17.7951,-1959.94 L -18.1315,-1959.41 L -18.3989,-1958.84 L -18.5929,-1958.24
 L -18.7106,-1957.63 L -18.75,-1957 L -18.75,-1907 L -18.7106,-1906.37 L -18.5929,-1905.76 L -18.3989,-1905.16
 L -18.1315,-1904.59 L -17.7951,-1904.06 L -17.3948,-1903.58 L -16.9371,-1903.15 L -16.4291,-1902.78 L -15.8789,-1902.48
 L -15.2951,-1902.24 L -14.6869,-1902.09 L -14.0639,-1902.01 L 14.0639,-1902.01 z
M -13.7982,-1902.51 L -14.3901,-1902.58 L -14.9678,-1902.73 L -15.5224,-1902.95 L -16.0452,-1903.24 L -16.5278,-1903.59
 L -16.9626,-1904 L -17.3428,-1904.46 L -17.6624,-1904.96 L -17.9164,-1905.5 L -18.1008,-1906.07 L -18.2125,-1906.65
 L -18.25,-1907.25 L -18.25,-1956.75 L -18.2125,-1957.35 L -18.1008,-1957.93 L -17.9164,-1958.5 L -17.6624,-1959.04
 L -17.3428,-1959.54 L -16.9626,-1960 L -16.5278,-1960.41 L -16.0452,-1960.76 L -15.5224,-1961.05 L -14.9678,-1961.27
 L -14.3901,-1961.42 L -13.7982,-1961.49 L 13.7982,-1961.49 L 14.3901,-1961.42 L 14.9678,-1961.27 L 15.5224,-1961.05
 L 16.0452,-1960.76 L 16.5278,-1960.41 L 16.9626,-1960 L 17.3428,-1959.54 L 17.6624,-1959.04 L 17.9164,-1958.5
 L 18.1008,-1957.93 L 18.2125,-1957.35 L 18.25,-1956.75 L 18.25,-1907.25 L 18.2125,-1906.65 L 18.1008,-1906.07
 L 17.9164,-1905.5 L 17.6624,-1904.96 L 17.3428,-1904.46 L 16.9626,-1904 L 16.5278,-1903.59 L 16.0452,-1903.24
 L 15.5224,-1902.95 L 14.9678,-1902.73 L 14.3901,-1902.58 L 13.7982,-1902.51 z
M 14.6869,-1833.09 L 15.2951,-1833.24 L 15.8789,-1833.48 L 16.4291,-1833.78 L 16.9371,-1834.15 L 17.3948,-1834.58
 L 17.7951,-1835.06 L 18.1315,-1835.59 L 18.3989,-1836.16 L 18.5929,-1836.76 L 18.7106,-1837.37 L 18.75,-1838
 L 18.75,-1888 L 18.7106,-1888.63 L 18.5929,-1889.24 L 18.3989,-1889.84 L 18.1315,-1890.41 L 17.7951,-1890.94
 L 17.3948,-1891.42 L 16.9371,-1891.85 L 16.4291,-1892.22 L 15.8789,-1892.52 L 15.2951,-1892.76 L 14.6869,-1892.91
 L 14.0639,-1892.99 L -14.0639,-1892.99 L -14.6869,-1892.91 L -15.2951,-1892.76 L -15.8789,-1892.52 L -16.4291,-1892.22
 L -16.9371,-1891.85 L -17.3948,-1891.42 L -17.7951,-1890.94 L -18.1315,-1890.41 L -18.3989,-1889.84 L -18.5929,-1889.24
 L -18.7106,-1888.63 L -18.75,-1888 L -18.75,-1838 L -18.7106,-1837.37 L -18.5929,-1836.76 L -18.3989,-1836.16
 L -18.1315,-1835.59 L -17.7951,-1835.06 L -17.3948,-1834.58 L -16.9371,-1834.15 L -16.4291,-1833.78 L -15.8789,-1833.48
 L -15.2951,-1833.24 L -14.6869,-1833.09 L -14.0639,-1833.01 L 14.0639,-1833.01 z
M -13.7982,-1833.51 L -14.3901,-1833.58 L -14.9678,-1833.73 L -15.5224,-1833.95 L -16.0452,-1834.24 L -16.5278,-1834.59
 L -16.9626,-1835 L -17.3428,-1835.46 L -17.6624,-1835.96 L -17.9164,-1836.5 L -18.1008,-1837.07 L -18.2125,-1837.65
 L -18.25,-1838.25 L -18.25,-1887.75 L -18.2125,-1888.35 L -18.1008,-1888.93 L -17.9164,-1889.5 L -17.6624,-1890.04
 L -17.3428,-1890.54 L -16.9626,-1891 L -16.5278,-1891.41 L -16.0452,-1891.76 L -15.5224,-1892.05 L -14.9678,-1892.27
 L -14.3901,-1892.42 L -13.7982,-1892.49 L 13.7982,-1892.49 L 14.3901,-1892.42 L 14.9678,-1892.27 L 15.5224,-1892.05
 L 16.0452,-1891.76 L 16.5278,-1891.41 L 16.9626,-1891 L 17.3428,-1890.54 L 17.6624,-1890.04 L 17.9164,-1889.5
 L 18.1008,-1888.93 L 18.2125,-1888.35 L 18.25,-1887.75 L 18.25,-1838.25 L 18.2125,-1837.65 L 18.1008,-1837.07
 L 17.9164,-1836.5 L 17.6624,-1835.96 L 17.3428,-1835.46 L 16.9626,-1835 L 16.5278,-1834.59 L 16.0452,-1834.24
 L 15.5224,-1833.95 L 14.9678,-1833.73 L 14.3901,-1833.58 L 13.7982,-1833.51 z
M 14.6869,-1764.09 L 15.2951,-1764.24 L 15.8789,-1764.48 L 16.4291,-1764.78 L 16.9371,-1765.15 L 17.3948,-1765.58
 L 17.7951,-1766.06 L 18.1315,-1766.59 L 18.3989,-1767.16 L 18.5929,-1767.76 L 18.7106,-1768.37 L 18.75,-1769
 L 18.75,-1819 L 18.7106,-1819.63 L 18.5929,-1820.24 L 18.3989,-1820.84 L 18.1315,-1821.41 L 17.7951,-1821.94
 L 17.3948,-1822.42 L 16.9371,-1822.85 L 16.4291,-1823.22 L 15.8789,-1823.52 L 15.2951,-1823.76 L 14.6869,-1823.91
 L 14.0639,-1823.99 L -14.0639,-1823.99 L -14.6869,-1823.91 L -15.2951,-1823.76 L -15.8789,-1823.52 L -16.4291,-1823.22
 L -16.9371,-1822.85 L -17.3948,-1822.42 L -17.7951,-1821.94 L -18.1315,-1821.41 L -18.3989,-1820.84 L -18.5929,-1820.24
 L -18.7106,-1819.63 L -18.75,-1819 L -18.75,-1769 L -18.7106,-1768.37 L -18.5929,-1767.76 L -18.3989,-1767.16
 L -18.1315,-1766.59 L -17.7951,-1766.06 L -17.3948,-1765.58 L -16.9371,-1765.15 L -16.4291,-1764.78 L -15.8789,-1764.48
 L -15.2951,-1764.24 L -14.6869,-1764.09 L -14.0639,-1764.01 L 14.0639,-1764.01 z
M -13.7982,-1764.51 L -14.3901,-1764.58 L -14.9678,-1764.73 L -15.5224,-1764.95 L -16.0452,-1765.24 L -16.5278,-1765.59
 L -16.9626,-1766 L -17.3428,-1766.46 L -17.6624,-1766.96 L -17.9164,-1767.5 L -18.1008,-1768.07 L -18.2125,-1768.65
 L -18.25,-1769.25 L -18.25,-1818.75 L -18.2125,-1819.35 L -18.1008,-1819.93 L -17.9164,-1820.5 L -17.6624,-1821.04
 L -17.3428,-1821.54 L -16.9626,-1822 L -16.5278,-1822.41 L -16.0452,-1822.76 L -15.5224,-1823.05 L -14.9678,-1823.27
 L -14.3901,-1823.42 L -13.7982,-1823.49 L 13.7982,-1823.49 L 14.3901,-1823.42 L 14.9678,-1823.27 L 15.5224,-1823.05
 L 16.0452,-1822.76 L 16.5278,-1822.41 L 16.9626,-1822 L 17.3428,-1821.54 L 17.6624,-1821.04 L 17.9164,-1820.5
 L 18.1008,-1819.93 L 18.2125,-1819.35 L 18.25,-1818.75 L 18.25,-1769.25 L 18.2125,-1768.65 L 18.1008,-1768.07
 L 17.9164,-1767.5 L 17.6624,-1766.96 L 17.3428,-1766.46 L 16.9626,-1766 L 16.5278,-1765.59 L 16.0452,-1765.24
 L 15.5224,-1764.95 L 14.9678,-1764.73 L 14.3901,-1764.58 L 13.7982,-1764.51 z
M 14.6869,-1695.09 L 15.2951,-1695.24 L 15.8789,-1695.48 L 16.4291,-1695.78 L 16.9371,-1696.15 L 17.3948,-1696.58
 L 17.7951,-1697.06 L 18.1315,-1697.59 L 18.3989,-1698.16 L 18.5929,-1698.76 L 18.7106,-1699.37 L 18.75,-1700
 L 18.75,-1750 L 18.7106,-1750.63 L 18.5929,-1751.24 L 18.3989,-1751.84 L 18.1315,-1752.41 L 17.7951,-1752.94
 L 17.3948,-1753.42 L 16.9371,-1753.85 L 16.4291,-1754.22 L 15.8789,-1754.52 L 15.2951,-1754.76 L 14.6869,-1754.91
 L 14.0639,-1754.99 L -14.0639,-1754.99 L -14.6869,-1754.91 L -15.2951,-1754.76 L -15.8789,-1754.52 L -16.4291,-1754.22
 L -16.9371,-1753.85 L -17.3948,-1753.42 L -17.7951,-1752.94 L -18.1315,-1752.41 L -18.3989,-1751.84 L -18.5929,-1751.24
 L -18.7106,-1750.63 L -18.75,-1750 L -18.75,-1700 L -18.7106,-1699.37 L -18.5929,-1698.76 L -18.3989,-1698.16
 L -18.1315,-1697.59 L -17.7951,-1697.06 L -17.3948,-1696.58 L -16.9371,-1696.15 L -16.4291,-1695.78 L -15.8789,-1695.48
 L -15.2951,-1695.24 L -14.6869,-1695.09 L -14.0639,-1695.01 L 14.0639,-1695.01 z
M -13.7982,-1695.51 L -14.3901,-1695.58 L -14.9678,-1695.73 L -15.5224,-1695.95 L -16.0452,-1696.24 L -16.5278,-1696.59
 L -16.9626,-1697 L -17.3428,-1697.46 L -17.6624,-1697.96 L -17.9164,-1698.5 L -18.1008,-1699.07 L -18.2125,-1699.65
 L -18.25,-1700.25 L -18.25,-1749.75 L -18.2125,-1750.35 L -18.1008,-1750.93 L -17.9164,-1751.5 L -17.6624,-1752.04
 L -17.3428,-1752.54 L -16.9626,-1753 L -16.5278,-1753.41 L -16.0452,-1753.76 L -15.5224,-1754.05 L -14.9678,-1754.27
 L -14.3901,-1754.42 L -13.7982,-1754.49 L 13.7982,-1754.49 L 14.3901,-1754.42 L 14.9678,-1754.27 L 15.5224,-1754.05
 L 16.0452,-1753.76 L 16.5278,-1753.41 L 16.9626,-1753 L 17.3428,-1752.54 L 17.6624,-1752.04 L 17.9164,-1751.5
 L 18.1008,-1750.93 L 18.2125,-1750.35 L 18.25,-1749.75 L 18.25,-1700.25 L 18.2125,-1699.65 L 18.1008,-1699.07
 L 17.9164,-1698.5 L 17.6624,-1697.96 L 17.3428,-1697.46 L 16.9626,-1697 L 16.5278,-1696.59 L 16.0452,-1696.24
 L 15.5224,-1695.95 L 14.9678,-1695.73 L 14.3901,-1695.58 L 13.7982,-1695.51 z
M 14.6869,-1626.09 L 15.2951,-1626.24 L 15.8789,-1626.48 L 16.4291,-1626.78 L 16.9371,-1627.15 L 17.3948,-1627.58
 L 17.7951,-1628.06 L 18.1315,-1628.59 L 18.3989,-1629.16 L 18.5929,-1629.76 L 18.7106,-1630.37 L 18.75,-1631
 L 18.75,-1681 L 18.7106,-1681.63 L 18.5929,-1682.24 L 18.3989,-1682.84 L 18.1315,-1683.41 L 17.7951,-1683.94
 L 17.3948,-1684.42 L 16.9371,-1684.85 L 16.4291,-1685.22 L 15.8789,-1685.52 L 15.2951,-1685.76 L 14.6869,-1685.91
 L 14.0639,-1685.99 L -14.0639,-1685.99 L -14.6869,-1685.91 L -15.2951,-1685.76 L -15.8789,-1685.52 L -16.4291,-1685.22
 L -16.9371,-1684.85 L -17.3948,-1684.42 L -17.7951,-1683.94 L -18.1315,-1683.41 L -18.3989,-1682.84 L -18.5929,-1682.24
 L -18.7106,-1681.63 L -18.75,-1681 L -18.75,-1631 L -18.7106,-1630.37 L -18.5929,-1629.76 L -18.3989,-1629.16
 L -18.1315,-1628.59 L -17.7951,-1628.06 L -17.3948,-1627.58 L -16.9371,-1627.15 L -16.4291,-1626.78 L -15.8789,-1626.48
 L -15.2951,-1626.24 L -14.6869,-1626.09 L -14.0639,-1626.01 L 14.0639,-1626.01 z
M -13.7982,-1626.51 L -14.3901,-1626.58 L -14.9678,-1626.73 L -15.5224,-1626.95 L -16.0452,-1627.24 L -16.5278,-1627.59
 L -16.9626,-1628 L -17.3428,-1628.46 L -17.6624,-1628.96 L -17.9164,-1629.5 L -18.1008,-1630.07 L -18.2125,-1630.65
 L -18.25,-1631.25 L -18.25,-1680.75 L -18.2125,-1681.35 L -18.1008,-1681.93 L -17.9164,-1682.5 L -17.6624,-1683.04
 L -17.3428,-1683.54 L -16.9626,-1684 L -16.5278,-1684.41 L -16.0452,-1684.76 L -15.5224,-1685.05 L -14.9678,-1685.27
 L -14.3901,-1685.42 L -13.7982,-1685.49 L 13.7982,-1685.49 L 14.3901,-1685.42 L 14.9678,-1685.27 L 15.5224,-1685.05
 L 16.0452,-1684.76 L 16.5278,-1684.41 L 16.9626,-1684 L 17.3428,-1683.54 L 17.6624,-1683.04 L 17.9164,-1682.5
 L 18.1008,-1681.93 L 18.2125,-1681.35 L 18.25,-1680.75 L 18.25,-1631.25 L 18.2125,-1630.65 L 18.1008,-1630.07
 L 17.9164,-1629.5 L 17.6624,-1628.96 L 17.3428,-1628.46 L 16.9626,-1628 L 16.5278,-1627.59 L 16.0452,-1627.24
 L 15.5224,-1626.95 L 14.9678,-1626.73 L 14.3901,-1626.58 L 13.7982,-1626.51 z
M 14.6869,-1557.09 L 15.2951,-1557.24 L 15.8789,-1557.48 L 16.4291,-1557.78 L 16.9371,-1558.15 L 17.3948,-1558.58
 L 17.7951,-1559.06 L 18.1315,-1559.59 L 18.3989,-1560.16 L 18.5929,-1560.76 L 18.7106,-1561.37 L 18.75,-1562
 L 18.75,-1612 L 18.7106,-1612.63 L 18.5929,-1613.24 L 18.3989,-1613.84 L 18.1315,-1614.41 L 17.7951,-1614.94
 L 17.3948,-1615.42 L 16.9371,-1615.85 L 16.4291,-1616.22 L 15.8789,-1616.52 L 15.2951,-1616.76 L 14.6869,-1616.91
 L 14.0639,-1616.99 L -14.0639,-1616.99 L -14.6869,-1616.91 L -15.2951,-1616.76 L -15.8789,-1616.52 L -16.4291,-1616.22
 L -16.9371,-1615.85 L -17.3948,-1615.42 L -17.7951,-1614.94 L -18.1315,-1614.41 L -18.3989,-1613.84 L -18.5929,-1613.24
 L -18.7106,-1612.63 L -18.75,-1612 L -18.75,-1562 L -18.7106,-1561.37 L -18.5929,-1560.76 L -18.3989,-1560.16
 L -18.1315,-1559.59 L -17.7951,-1559.06 L -17.3948,-1558.58 L -16.9371,-1558.15 L -16.4291,-1557.78 L -15.8789,-1557.48
 L -15.2951,-1557.24 L -14.6869,-1557.09 L -14.0639,-1557.01 L 14.0639,-1557.01 z
M -13.7982,-1557.51 L -14.3901,-1557.58 L -14.9678,-1557.73 L -15.5224,-1557.95 L -16.0452,-1558.24 L -16.5278,-1558.59
 L -16.9626,-1559 L -17.3428,-1559.46 L -17.6624,-1559.96 L -17.9164,-1560.5 L -18.1008,-1561.07 L -18.2125,-1561.65
 L -18.25,-1562.25 L -18.25,-1611.75 L -18.2125,-1612.35 L -18.1008,-1612.93 L -17.9164,-1613.5 L -17.6624,-1614.04
 L -17.3428,-1614.54 L -16.9626,-1615 L -16.5278,-1615.41 L -16.0452,-1615.76 L -15.5224,-1616.05 L -14.9678,-1616.27
 L -14.3901,-1616.42 L -13.7982,-1616.49 L 13.7982,-1616.49 L 14.3901,-1616.42 L 14.9678,-1616.27 L 15.5224,-1616.05
 L 16.0452,-1615.76 L 16.5278,-1615.41 L 16.9626,-1615 L 17.3428,-1614.54 L 17.6624,-1614.04 L 17.9164,-1613.5
 L 18.1008,-1612.93 L 18.2125,-1612.35 L 18.25,-1611.75 L 18.25,-1562.25 L 18.2125,-1561.65 L 18.1008,-1561.07
 L 17.9164,-1560.5 L 17.6624,-1559.96 L 17.3428,-1559.46 L 16.9626,-1559 L 16.5278,-1558.59 L 16.0452,-1558.24
 L 15.5224,-1557.95 L 14.9678,-1557.73 L 14.3901,-1557.58 L 13.7982,-1557.51 z
M 14.6869,-1488.09 L 15.2951,-1488.24 L 15.8789,-1488.48 L 16.4291,-1488.78 L 16.9371,-1489.15 L 17.3948,-1489.58
 L 17.7951,-1490.06 L 18.1315,-1490.59 L 18.3989,-1491.16 L 18.5929,-1491.76 L 18.7106,-1492.37 L 18.75,-1493
 L 18.75,-1543 L 18.7106,-1543.63 L 18.5929,-1544.24 L 18.3989,-1544.84 L 18.1315,-1545.41 L 17.7951,-1545.94
 L 17.3948,-1546.42 L 16.9371,-1546.85 L 16.4291,-1547.22 L 15.8789,-1547.52 L 15.2951,-1547.76 L 14.6869,-1547.91
 L 14.0639,-1547.99 L -14.0639,-1547.99 L -14.6869,-1547.91 L -15.2951,-1547.76 L -15.8789,-1547.52 L -16.4291,-1547.22
 L -16.9371,-1546.85 L -17.3948,-1546.42 L -17.7951,-1545.94 L -18.1315,-1545.41 L -18.3989,-1544.84 L -18.5929,-1544.24
 L -18.7106,-1543.63 L -18.75,-1543 L -18.75,-1493 L -18.7106,-1492.37 L -18.5929,-1491.76 L -18.3989,-1491.16
 L -18.1315,-1490.59 L -17.7951,-1490.06 L -17.3948,-1489.58 L -16.9371,-1489.15 L -16.4291,-1488.78 L -15.8789,-1488.48
 L -15.2951,-1488.24 L -14.6869,-1488.09 L -14.0639,-1488.01 L 14.0639,-1488.01 z
M -13.7982,-1488.51 L -14.3901,-1488.58 L -14.9678,-1488.73 L -15.5224,-1488.95 L -16.0452,-1489.24 L -16.5278,-1489.59
 L -16.9626,-1490 L -17.3428,-1490.46 L -17.6624,-1490.96 L -17.9164,-1491.5 L -18.1008,-1492.07 L -18.2125,-1492.65
 L -18.25,-1493.25 L -18.25,-1542.75 L -18.2125,-1543.35 L -18.1008,-1543.93 L -17.9164,-1544.5 L -17.6624,-1545.04
 L -17.3428,-1545.54 L -16.9626,-1546 L -16.5278,-1546.41 L -16.0452,-1546.76 L -15.5224,-1547.05 L -14.9678,-1547.27
 L -14.3901,-1547.42 L -13.7982,-1547.49 L 13.7982,-1547.49 L 14.3901,-1547.42 L 14.9678,-1547.27 L 15.5224,-1547.05
 L 16.0452,-1546.76 L 16.5278,-1546.41 L 16.9626,-1546 L 17.3428,-1545.54 L 17.6624,-1545.04 L 17.9164,-1544.5
 L 18.1008,-1543.93 L 18.2125,-1543.35 L 18.25,-1542.75 L 18.25,-1493.25 L 18.2125,-1492.65 L 18.1008,-1492.07
 L 17.9164,-1491.5 L 17.6624,-1490.96 L 17.3428,-1490.46 L 16.9626,-1490 L 16.5278,-1489.59 L 16.0452,-1489.24
 L 15.5224,-1488.95 L 14.9678,-1488.73 L 14.3901,-1488.58 L 13.7982,-1488.51 z
M 14.6869,-1419.09 L 15.2951,-1419.24 L 15.8789,-1419.48 L 16.4291,-1419.78 L 16.9371,-1420.15 L 17.3948,-1420.58
 L 17.7951,-1421.06 L 18.1315,-1421.59 L 18.3989,-1422.16 L 18.5929,-1422.76 L 18.7106,-1423.37 L 18.75,-1424
 L 18.75,-1474 L 18.7106,-1474.63 L 18.5929,-1475.24 L 18.3989,-1475.84 L 18.1315,-1476.41 L 17.7951,-1476.94
 L 17.3948,-1477.42 L 16.9371,-1477.85 L 16.4291,-1478.22 L 15.8789,-1478.52 L 15.2951,-1478.76 L 14.6869,-1478.91
 L 14.0639,-1478.99 L -14.0639,-1478.99 L -14.6869,-1478.91 L -15.2951,-1478.76 L -15.8789,-1478.52 L -16.4291,-1478.22
 L -16.9371,-1477.85 L -17.3948,-1477.42 L -17.7951,-1476.94 L -18.1315,-1476.41 L -18.3989,-1475.84 L -18.5929,-1475.24
 L -18.7106,-1474.63 L -18.75,-1474 L -18.75,-1424 L -18.7106,-1423.37 L -18.5929,-1422.76 L -18.3989,-1422.16
 L -18.1315,-1421.59 L -17.7951,-1421.06 L -17.3948,-1420.58 L -16.9371,-1420.15 L -16.4291,-1419.78 L -15.8789,-1419.48
 L -15.2951,-1419.24 L -14.6869,-1419.09 L -14.0639,-1419.01 L 14.0639,-1419.01 z
M -13.7982,-1419.51 L -14.3901,-1419.58 L -14.9678,-1419.73 L -15.5224,-1419.95 L -16.0452,-1420.24 L -16.5278,-1420.59
 L -16.9626,-1421 L -17.3428,-1421.46 L -17.6624,-1421.96 L -17.9164,-1422.5 L -18.1008,-1423.07 L -18.2125,-1423.65
 L -18.25,-1424.25 L -18.25,-1473.75 L -18.2125,-1474.35 L -18.1008,-1474.93 L -17.9164,-1475.5 L -17.6624,-1476.04
 L -17.3428,-1476.54 L -16.9626,-1477 L -16.5278,-1477.41 L -16.0452,-1477.76 L -15.5224,-1478.05 L -14.9678,-1478.27
 L -14.3901,-1478.42 L -13.7982,-1478.49 L 13.7982,-1478.49 L 14.3901,-1478.42 L 14.9678,-1478.27 L 15.5224,-1478.05
 L 16.0452,-1477.76 L 16.5278,-1477.41 L 16.9626,-1477 L 17.3428,-1476.54 L 17.6624,-1476.04 L 17.9164,-1475.5
 L 18.1008,-1474.93 L 18.2125,-1474.35 L 18.25,-1473.75 L 18.25,-1424.25 L 18.2125,-1423.65 L 18.1008,-1423.07
 L 17.9164,-1422.5 L 17.6624,-1421.96 L 17.3428,-1421.46 L 16.9626,-1421 L 16.5278,-1420.59 L 16.0452,-1420.24
 L 15.5224,-1419.95 L 14.9678,-1419.73 L 14.3901,-1419.58 L 13.7982,-1419.51 z
M 14.6869,-1350.09 L 15.2951,-1350.24 L 15.8789,-1350.48 L 16.4291,-1350.78 L 16.9371,-1351.15 L 17.3948,-1351.58
 L 17.7951,-1352.06 L 18.1315,-1352.59 L 18.3989,-1353.16 L 18.5929,-1353.76 L 18.7106,-1354.37 L 18.75,-1355
 L 18.75,-1405 L 18.7106,-1405.63 L 18.5929,-1406.24 L 18.3989,-1406.84 L 18.1315,-1407.41 L 17.7951,-1407.94
 L 17.3948,-1408.42 L 16.9371,-1408.85 L 16.4291,-1409.22 L 15.8789,-1409.52 L 15.2951,-1409.76 L 14.6869,-1409.91
 L 14.0639,-1409.99 L -14.0639,-1409.99 L -14.6869,-1409.91 L -15.2951,-1409.76 L -15.8789,-1409.52 L -16.4291,-1409.22
 L -16.9371,-1408.85 L -17.3948,-1408.42 L -17.7951,-1407.94 L -18.1315,-1407.41 L -18.3989,-1406.84 L -18.5929,-1406.24
 L -18.7106,-1405.63 L -18.75,-1405 L -18.75,-1355 L -18.7106,-1354.37 L -18.5929,-1353.76 L -18.3989,-1353.16
 L -18.1315,-1352.59 L -17.7951,-1352.06 L -17.3948,-1351.58 L -16.9371,-1351.15 L -16.4291,-1350.78 L -15.8789,-1350.48
 L -15.2951,-1350.24 L -14.6869,-1350.09 L -14.0639,-1350.01 L 14.0639,-1350.01 z
M -13.7982,-1350.51 L -14.3901,-1350.58 L -14.9678,-1350.73 L -15.5224,-1350.95 L -16.0452,-1351.24 L -16.5278,-1351.59
 L -16.9626,-1352 L -17.3428,-1352.46 L -17.6624,-1352.96 L -17.9164,-1353.5 L -18.1008,-1354.07 L -18.2125,-1354.65
 L -18.25,-1355.25 L -18.25,-1404.75 L -18.2125,-1405.35 L -18.1008,-1405.93 L -17.9164,-1406.5 L -17.6624,-1407.04
 L -17.3428,-1407.54 L -16.9626,-1408 L -16.5278,-1408.41 L -16.0452,-1408.76 L -15.5224,-1409.05 L -14.9678,-1409.27
 L -14.3901,-1409.42 L -13.7982,-1409.49 L 13.7982,-1409.49 L 14.3901,-1409.42 L 14.9678,-1409.27 L 15.5224,-1409.05
 L 16.0452,-1408.76 L 16.5278,-1408.41 L 16.9626,-1408 L 17.3428,-1407.54 L 17.6624,-1407.04 L 17.9164,-1406.5
 L 18.1008,-1405.93 L 18.2125,-1405.35 L 18.25,-1404.75 L 18.25,-1355.25 L 18.2125,-1354.65 L 18.1008,-1354.07
 L 17.9164,-1353.5 L 17.6624,-1352.96 L 17.3428,-1352.46 L 16.9626,-1352 L 16.5278,-1351.59 L 16.0452,-1351.24
 L 15.5224,-1350.95 L 14.9678,-1350.73 L 14.3901,-1350.58 L 13.7982,-1350.51 z
M 14.6869,-1281.09 L 15.2951,-1281.24 L 15.8789,-1281.48 L 16.4291,-1281.78 L 16.9371,-1282.15 L 17.3948,-1282.58
 L 17.7951,-1283.06 L 18.1315,-1283.59 L 18.3989,-1284.16 L 18.5929,-1284.76 L 18.7106,-1285.37 L 18.75,-1286
 L 18.75,-1336 L 18.7106,-1336.63 L 18.5929,-1337.24 L 18.3989,-1337.84 L 18.1315,-1338.41 L 17.7951,-1338.94
 L 17.3948,-1339.42 L 16.9371,-1339.85 L 16.4291,-1340.22 L 15.8789,-1340.52 L 15.2951,-1340.76 L 14.6869,-1340.91
 L 14.0639,-1340.99 L -14.0639,-1340.99 L -14.6869,-1340.91 L -15.2951,-1340.76 L -15.8789,-1340.52 L -16.4291,-1340.22
 L -16.9371,-1339.85 L -17.3948,-1339.42 L -17.7951,-1338.94 L -18.1315,-1338.41 L -18.3989,-1337.84 L -18.5929,-1337.24
 L -18.7106,-1336.63 L -18.75,-1336 L -18.75,-1286 L -18.7106,-1285.37 L -18.5929,-1284.76 L -18.3989,-1284.16
 L -18.1315,-1283.59 L -17.7951,-1283.06 L -17.3948,-1282.58 L -16.9371,-1282.15 L -16.4291,-1281.78 L -15.8789,-1281.48
 L -15.2951,-1281.24 L -14.6869,-1281.09 L -14.0639,-1281.01 L 14.0639,-1281.01 z
M -13.7982,-1281.51 L -14.3901,-1281.58 L -14.9678,-1281.73 L -15.5224,-1281.95 L -16.0452,-1282.24 L -16.5278,-1282.59
 L -16.9626,-1283 L -17.3428,-1283.46 L -17.6624,-1283.96 L -17.9164,-1284.5 L -18.1008,-1285.07 L -18.2125,-1285.65
 L -18.25,-1286.25 L -18.25,-1335.75 L -18.2125,-1336.35 L -18.1008,-1336.93 L -17.9164,-1337.5 L -17.6624,-1338.04
 L -17.3428,-1338.54 L -16.9626,-1339 L -16.5278,-1339.41 L -16.0452,-1339.76 L -15.5224,-1340.05 L -14.9678,-1340.27
 L -14.3901,-1340.42 L -13.7982,-1340.49 L 13.7982,-1340.49 L 14.3901,-1340.42 L 14.9678,-1340.27 L 15.5224,-1340.05
 L 16.0452,-1339.76 L 16.5278,-1339.41 L 16.9626,-1339 L 17.3428,-1338.54 L 17.6624,-1338.04 L 17.9164,-1337.5
 L 18.1008,-1336.93 L 18.2125,-1336.35 L 18.25,-1335.75 L 18.25,-1286.25 L 18.2125,-1285.65 L 18.1008,-1285.07
 L 17.9164,-1284.5 L 17.6624,-1283.96 L 17.3428,-1283.46 L 16.9626,-1283 L 16.5278,-1282.59 L 16.0452,-1282.24
 L 15.5224,-1281.95 L 14.9678,-1281.73 L 14.3901,-1281.58 L 13.7982,-1281.51 z
M 14.6869,-1212.09 L 15.2951,-1212.24 L 15.8789,-1212.48 L 16.4291,-1212.78 L 16.9371,-1213.15 L 17.3948,-1213.58
 L 17.7951,-1214.06 L 18.1315,-1214.59 L 18.3989,-1215.16 L 18.5929,-1215.76 L 18.7106,-1216.37 L 18.75,-1217
 L 18.75,-1267 L 18.7106,-1267.63 L 18.5929,-1268.24 L 18.3989,-1268.84 L 18.1315,-1269.41 L 17.7951,-1269.94
 L 17.3948,-1270.42 L 16.9371,-1270.85 L 16.4291,-1271.22 L 15.8789,-1271.52 L 15.2951,-1271.76 L 14.6869,-1271.91
 L 14.0639,-1271.99 L -14.0639,-1271.99 L -14.6869,-1271.91 L -15.2951,-1271.76 L -15.8789,-1271.52 L -16.4291,-1271.22
 L -16.9371,-1270.85 L -17.3948,-1270.42 L -17.7951,-1269.94 L -18.1315,-1269.41 L -18.3989,-1268.84 L -18.5929,-1268.24
 L -18.7106,-1267.63 L -18.75,-1267 L -18.75,-1217 L -18.7106,-1216.37 L -18.5929,-1215.76 L -18.3989,-1215.16
 L -18.1315,-1214.59 L -17.7951,-1214.06 L -17.3948,-1213.58 L -16.9371,-1213.15 L -16.4291,-1212.78 L -15.8789,-1212.48
 L -15.2951,-1212.24 L -14.6869,-1212.09 L -14.0639,-1212.01 L 14.0639,-1212.01 z
M -13.7982,-1212.51 L -14.3901,-1212.58 L -14.9678,-1212.73 L -15.5224,-1212.95 L -16.0452,-1213.24 L -16.5278,-1213.59
 L -16.9626,-1214 L -17.3428,-1214.46 L -17.6624,-1214.96 L -17.9164,-1215.5 L -18.1008,-1216.07 L -18.2125,-1216.65
 L -18.25,-1217.25 L -18.25,-1266.75 L -18.2125,-1267.35 L -18.1008,-1267.93 L -17.9164,-1268.5 L -17.6624,-1269.04
 L -17.3428,-1269.54 L -16.9626,-1270 L -16.5278,-1270.41 L -16.0452,-1270.76 L -15.5224,-1271.05 L -14.9678,-1271.27
 L -14.3901,-1271.42 L -13.7982,-1271.49 L 13.7982,-1271.49 L 14.3901,-1271.42 L 14.9678,-1271.27 L 15.5224,-1271.05
 L 16.0452,-1270.76 L 16.5278,-1270.41 L 16.9626,-1270 L 17.3428,-1269.54 L 17.6624,-1269.04 L 17.9164,-1268.5
 L 18.1008,-1267.93 L 18.2125,-1267.35 L 18.25,-1266.75 L 18.25,-1217.25 L 18.2125,-1216.65 L 18.1008,-1216.07
 L 17.9164,-1215.5 L 17.6624,-1214.96 L 17.3428,-1214.46 L 16.9626,-1214 L 16.5278,-1213.59 L 16.0452,-1213.24
 L 15.5224,-1212.95 L 14.9678,-1212.73 L 14.3901,-1212.58 L 13.7982,-1212.51 z
M 14.6869,-1143.09 L 15.2951,-1143.24 L 15.8789,-1143.48 L 16.4291,-1143.78 L 16.9371,-1144.15 L 17.3948,-1144.58
 L 17.7951,-1145.06 L 18.1315,-1145.59 L 18.3989,-1146.16 L 18.5929,-1146.76 L 18.7106,-1147.37 L 18.75,-1148
 L 18.75,-1198 L 18.7106,-1198.63 L 18.5929,-1199.24 L 18.3989,-1199.84 L 18.1315,-1200.41 L 17.7951,-1200.94
 L 17.3948,-1201.42 L 16.9371,-1201.85 L 16.4291,-1202.22 L 15.8789,-1202.52 L 15.2951,-1202.76 L 14.6869,-1202.91
 L 14.0639,-1202.99 L -14.0639,-1202.99 L -14.6869,-1202.91 L -15.2951,-1202.76 L -15.8789,-1202.52 L -16.4291,-1202.22
 L -16.9371,-1201.85 L -17.3948,-1201.42 L -17.7951,-1200.94 L -18.1315,-1200.41 L -18.3989,-1199.84 L -18.5929,-1199.24
 L -18.7106,-1198.63 L -18.75,-1198 L -18.75,-1148 L -18.7106,-1147.37 L -18.5929,-1146.76 L -18.3989,-1146.16
 L -18.1315,-1145.59 L -17.7951,-1145.06 L -17.3948,-1144.58 L -16.9371,-1144.15 L -16.4291,-1143.78 L -15.8789,-1143.48
 L -15.2951,-1143.24 L -14.6869,-1143.09 L -14.0639,-1143.01 L 14.0639,-1143.01 z
M -13.7982,-1143.51 L -14.3901,-1143.58 L -14.9678,-1143.73 L -15.5224,-1143.95 L -16.0452,-1144.24 L -16.5278,-1144.59
 L -16.9626,-1145 L -17.3428,-1145.46 L -17.6624,-1145.96 L -17.9164,-1146.5 L -18.1008,-1147.07 L -18.2125,-1147.65
 L -18.25,-1148.25 L -18.25,-1197.75 L -18.2125,-1198.35 L -18.1008,-1198.93 L -17.9164,-1199.5 L -17.6624,-1200.04
 L -17.3428,-1200.54 L -16.9626,-1201 L -16.5278,-1201.41 L -16.0452,-1201.76 L -15.5224,-1202.05 L -14.9678,-1202.27
 L -14.3901,-1202.42 L -13.7982,-1202.49 L 13.7982,-1202.49 L 14.3901,-1202.42 L 14.9678,-1202.27 L 15.5224,-1202.05
 L 16.0452,-1201.76 L 16.5278,-1201.41 L 16.9626,-1201 L 17.3428,-1200.54 L 17.6624,-1200.04 L 17.9164,-1199.5
 L 18.1008,-1198.93 L 18.2125,-1198.35 L 18.25,-1197.75 L 18.25,-1148.25 L 18.2125,-1147.65 L 18.1008,-1147.07
 L 17.9164,-1146.5 L 17.6624,-1145.96 L 17.3428,-1145.46 L 16.9626,-1145 L 16.5278,-1144.59 L 16.0452,-1144.24
 L 15.5224,-1143.95 L 14.9678,-1143.73 L 14.3901,-1143.58 L 13.7982,-1143.51 z
M 14.6869,-1074.09 L 15.2951,-1074.24 L 15.8789,-1074.48 L 16.4291,-1074.78 L 16.9371,-1075.15 L 17.3948,-1075.58
 L 17.7951,-1076.06 L 18.1315,-1076.59 L 18.3989,-1077.16 L 18.5929,-1077.76 L 18.7106,-1078.37 L 18.75,-1079
 L 18.75,-1129 L 18.7106,-1129.63 L 18.5929,-1130.24 L 18.3989,-1130.84 L 18.1315,-1131.41 L 17.7951,-1131.94
 L 17.3948,-1132.42 L 16.9371,-1132.85 L 16.4291,-1133.22 L 15.8789,-1133.52 L 15.2951,-1133.76 L 14.6869,-1133.91
 L 14.0639,-1133.99 L -14.0639,-1133.99 L -14.6869,-1133.91 L -15.2951,-1133.76 L -15.8789,-1133.52 L -16.4291,-1133.22
 L -16.9371,-1132.85 L -17.3948,-1132.42 L -17.7951,-1131.94 L -18.1315,-1131.41 L -18.3989,-1130.84 L -18.5929,-1130.24
 L -18.7106,-1129.63 L -18.75,-1129 L -18.75,-1079 L -18.7106,-1078.37 L -18.5929,-1077.76 L -18.3989,-1077.16
 L -18.1315,-1076.59 L -17.7951,-1076.06 L -17.3948,-1075.58 L -16.9371,-1075.15 L -16.4291,-1074.78 L -15.8789,-1074.48
 L -15.2951,-1074.24 L -14.6869,-1074.09 L -14.0639,-1074.01 L 14.0639,-1074.01 z
M -13.7875,-1074.68 L -14.3579,-1074.75 L -14.9148,-1074.9 L -15.4494,-1075.11 L -15.9532,-1075.38 L -16.4184,-1075.72
 L -16.8375,-1076.12 L -17.204,-1076.56 L -17.5121,-1077.04 L -17.7569,-1077.56 L -17.9346,-1078.11 L -18.0423,-1078.68
 L -18.0784,-1079.25 L -18.0784,-1128.75 L -18.0423,-1129.32 L -17.9346,-1129.89 L -17.7569,-1130.44 L -17.5121,-1130.96
 L -17.204,-1131.44 L -16.8375,-1131.88 L -16.4184,-1132.28 L -15.9532,-1132.62 L -15.4494,-1132.89 L -14.9148,-1133.1
 L -14.3579,-1133.25 L -13.7875,-1133.32 L 13.7875,-1133.32 L 14.3579,-1133.25 L 14.9148,-1133.1 L 15.4494,-1132.89
 L 15.9532,-1132.62 L 16.4184,-1132.28 L 16.8375,-1131.88 L 17.204,-1131.44 L 17.5121,-1130.96 L 17.7569,-1130.44
 L 17.9346,-1129.89 L 18.0423,-1129.32 L 18.0784,-1128.75 L 18.0784,-1079.25 L 18.0423,-1078.68 L 17.9346,-1078.11
 L 17.7569,-1077.56 L 17.5121,-1077.04 L 17.204,-1076.56 L 16.8375,-1076.12 L 16.4184,-1075.72 L 15.9532,-1075.38
 L 15.4494,-1075.11 L 14.9148,-1074.9 L 14.3579,-1074.75 L 13.7875,-1074.68 z
M 14.6869,-1005.09 L 15.2951,-1005.24 L 15.8789,-1005.48 L 16.4291,-1005.78 L 16.9371,-1006.15 L 17.3948,-1006.58
 L 17.7951,-1007.06 L 18.1315,-1007.59 L 18.3989,-1008.16 L 18.5929,-1008.76 L 18.7106,-1009.37 L 18.75,-1010
 L 18.75,-1060 L 18.7106,-1060.63 L 18.5929,-1061.24 L 18.3989,-1061.84 L 18.1315,-1062.41 L 17.7951,-1062.94
 L 17.3948,-1063.42 L 16.9371,-1063.85 L 16.4291,-1064.22 L 15.8789,-1064.52 L 15.2951,-1064.76 L 14.6869,-1064.91
 L 14.0639,-1064.99 L -14.0639,-1064.99 L -14.6869,-1064.91 L -15.2951,-1064.76 L -15.8789,-1064.52 L -16.4291,-1064.22
 L -16.9371,-1063.85 L -17.3948,-1063.42 L -17.7951,-1062.94 L -18.1315,-1062.41 L -18.3989,-1061.84 L -18.5929,-1061.24
 L -18.7106,-1060.63 L -18.75,-1060 L -18.75,-1010 L -18.7106,-1009.37 L -18.5929,-1008.76 L -18.3989,-1008.16
 L -18.1315,-1007.59 L -17.7951,-1007.06 L -17.3948,-1006.58 L -16.9371,-1006.15 L -16.4291,-1005.78 L -15.8789,-1005.48
 L -15.2951,-1005.24 L -14.6869,-1005.09 L -14.0639,-1005.01 L 14.0639,-1005.01 z
M -13.6325,-1008.14 L -13.8953,-1008.18 L -14.1519,-1008.24 L -14.3982,-1008.34 L -14.6304,-1008.47 L -14.8447,-1008.62
 L -15.0378,-1008.81 L -15.2067,-1009.01 L -15.3487,-1009.23 L -15.4615,-1009.47 L -15.5434,-1009.73 L -15.593,-1009.99
 L -15.6096,-1010.25 L -15.6096,-1059.75 L -15.593,-1060.01 L -15.5434,-1060.27 L -15.4615,-1060.53 L -15.3487,-1060.77
 L -15.2067,-1060.99 L -15.0378,-1061.19 L -14.8447,-1061.38 L -14.6304,-1061.53 L -14.3982,-1061.66 L -14.1519,-1061.76
 L -13.8953,-1061.82 L -13.6325,-1061.86 L 13.6325,-1061.86 L 13.8953,-1061.82 L 14.1519,-1061.76 L 14.3982,-1061.66
 L 14.6304,-1061.53 L 14.8447,-1061.38 L 15.0378,-1061.19 L 15.2067,-1060.99 L 15.3487,-1060.77 L 15.4615,-1060.53
 L 15.5434,-1060.27 L 15.593,-1060.01 L 15.6096,-1059.75 L 15.6096,-1010.25 L 15.593,-1009.99 L 15.5434,-1009.73
 L 15.4615,-1009.47 L 15.3487,-1009.23 L 15.2067,-1009.01 L 15.0378,-1008.81 L 14.8447,-1008.62 L 14.6304,-1008.47
 L 14.3982,-1008.34 L 14.1519,-1008.24 L 13.8953,-1008.18 L 13.6325,-1008.14 z
" stroke="black" fill="lightgray" stroke-width="0.5"/>
</svg>
