  0
SECTION
  2
BLOCKS
  0
ENDSEC
  0
SECTION
  2
ENTITIES
  0
LINE
  8
0
 10
1.40535
 20
160.633
 11
2.31763
 21
160.867
  0
LINE
  8
0
 10
2.31763
 20
160.867
 11
3.19334
 21
161.214
  0
LINE
  8
0
 10
3.19334
 20
161.214
 11
4.01869
 21
161.668
  0
LINE
  8
0
 10
4.01869
 20
161.668
 11
4.78067
 21
162.221
  0
LINE
  8
0
 10
4.78067
 20
162.221
 11
5.46725
 21
162.866
  0
LINE
  8
0
 10
5.46725
 20
162.866
 11
6.06763
 21
163.592
  0
LINE
  8
0
 10
6.06763
 20
163.592
 11
6.5723
 21
164.387
  0
LINE
  8
0
 10
6.5723
 20
164.387
 11
6.97331
 21
165.239
  0
LINE
  8
0
 10
6.97331
 20
165.239
 11
7.26436
 21
166.135
  0
LINE
  8
0
 10
7.26436
 20
166.135
 11
7.44086
 21
167.06
  0
LINE
  8
0
 10
7.44086
 20
167.06
 11
7.5
 21
168
  0
LINE
  8
0
 10
7.5
 20
168
 11
7.44086
 21
168.94
  0
LINE
  8
0
 10
7.44086
 20
168.94
 11
7.26436
 21
169.865
  0
LINE
  8
0
 10
7.26436
 20
169.865
 11
6.97331
 21
170.761
  0
LINE
  8
0
 10
6.97331
 20
170.761
 11
6.5723
 21
171.613
  0
LINE
  8
0
 10
6.5723
 20
171.613
 11
6.06763
 21
172.408
  0
LINE
  8
0
 10
6.06763
 20
172.408
 11
5.46725
 21
173.134
  0
LINE
  8
0
 10
5.46725
 20
173.134
 11
4.78067
 21
173.779
  0
LINE
  8
0
 10
4.78067
 20
173.779
 11
4.01869
 21
174.332
  0
LINE
  8
0
 10
4.01869
 20
174.332
 11
3.19334
 21
174.786
  0
LINE
  8
0
 10
3.19334
 20
174.786
 11
2.31763
 21
175.133
  0
LINE
  8
0
 10
2.31763
 20
175.133
 11
1.40535
 21
175.367
  0
LINE
  8
0
 10
1.40535
 20
175.367
 11
0.470917
 21
175.485
  0
LINE
  8
0
 10
0.470917
 20
175.485
 11
-0.470917
 21
175.485
  0
LINE
  8
0
 10
-0.470917
 20
175.485
 11
-1.40535
 21
175.367
  0
LINE
  8
0
 10
-1.40535
 20
175.367
 11
-2.31763
 21
175.133
  0
LINE
  8
0
 10
-2.31763
 20
175.133
 11
-3.19334
 21
174.786
  0
LINE
  8
0
 10
-3.19334
 20
174.786
 11
-4.01869
 21
174.332
  0
LINE
  8
0
 10
-4.01869
 20
174.332
 11
-4.78067
 21
173.779
  0
LINE
  8
0
 10
-4.78067
 20
173.779
 11
-5.46725
 21
173.134
  0
LINE
  8
0
 10
-5.46725
 20
173.134
 11
-6.06763
 21
172.408
  0
LINE
  8
0
 10
-6.06763
 20
172.408
 11
-6.5723
 21
171.613
  0
LINE
  8
0
 10
-6.5723
 20
171.613
 11
-6.97331
 21
170.761
  0
LINE
  8
0
 10
-6.97331
 20
170.761
 11
-7.26436
 21
169.865
  0
LINE
  8
0
 10
-7.26436
 20
169.865
 11
-7.44086
 21
168.94
  0
LINE
  8
0
 10
-7.44086
 20
168.94
 11
-7.5
 21
168
  0
LINE
  8
0
 10
-7.5
 20
168
 11
-7.44086
 21
167.06
  0
LINE
  8
0
 10
-7.44086
 20
167.06
 11
-7.26436
 21
166.135
  0
LINE
  8
0
 10
-7.26436
 20
166.135
 11
-6.97331
 21
165.239
  0
LINE
  8
0
 10
-6.97331
 20
165.239
 11
-6.5723
 21
164.387
  0
LINE
  8
0
 10
-6.5723
 20
164.387
 11
-6.06763
 21
163.592
  0
LINE
  8
0
 10
-6.06763
 20
163.592
 11
-5.46725
 21
162.866
  0
LINE
  8
0
 10
-5.46725
 20
162.866
 11
-4.78067
 21
162.221
  0
LINE
  8
0
 10
-4.78067
 20
162.221
 11
-4.01869
 21
161.668
  0
LINE
  8
0
 10
-4.01869
 20
161.668
 11
-3.19334
 21
161.214
  0
LINE
  8
0
 10
-3.19334
 20
161.214
 11
-2.31763
 21
160.867
  0
LINE
  8
0
 10
-2.31763
 20
160.867
 11
-1.40535
 21
160.633
  0
LINE
  8
0
 10
-1.40535
 20
160.633
 11
-0.470917
 21
160.515
  0
LINE
  8
0
 10
-0.470917
 20
160.515
 11
0.470917
 21
160.515
  0
LINE
  8
0
 10
0.470917
 20
160.515
 11
1.40535
 21
160.633
  0
LINE
  8
0
 10
-2.25116
 20
162.008
 11
-2.74951
 21
162.071
  0
LINE
  8
0
 10
-2.74951
 20
162.071
 11
-3.23605
 21
162.196
  0
LINE
  8
0
 10
-3.23605
 20
162.196
 11
-3.70311
 21
162.381
  0
LINE
  8
0
 10
-3.70311
 20
162.381
 11
-4.1433
 21
162.623
  0
LINE
  8
0
 10
-4.1433
 20
162.623
 11
-4.54968
 21
162.918
  0
LINE
  8
0
 10
-4.54968
 20
162.918
 11
-4.91586
 21
163.262
  0
LINE
  8
0
 10
-4.91586
 20
163.262
 11
-5.23605
 21
163.649
  0
LINE
  8
0
 10
-5.23605
 20
163.649
 11
-5.50522
 21
164.073
  0
LINE
  8
0
 10
-5.50522
 20
164.073
 11
-5.7191
 21
164.528
  0
LINE
  8
0
 10
-5.7191
 20
164.528
 11
-5.87433
 21
165.005
  0
LINE
  8
0
 10
-5.87433
 20
165.005
 11
-5.96844
 21
165.499
  0
LINE
  8
0
 10
-5.96844
 20
165.499
 11
-6
 21
166
  0
LINE
  8
0
 10
-6
 20
166
 11
-6
 21
170
  0
LINE
  8
0
 10
-6
 20
170
 11
-5.96844
 21
170.501
  0
LINE
  8
0
 10
-5.96844
 20
170.501
 11
-5.87433
 21
170.995
  0
LINE
  8
0
 10
-5.87433
 20
170.995
 11
-5.7191
 21
171.472
  0
LINE
  8
0
 10
-5.7191
 20
171.472
 11
-5.50522
 21
171.927
  0
LINE
  8
0
 10
-5.50522
 20
171.927
 11
-5.23605
 21
172.351
  0
LINE
  8
0
 10
-5.23605
 20
172.351
 11
-4.91586
 21
172.738
  0
LINE
  8
0
 10
-4.91586
 20
172.738
 11
-4.54968
 21
173.082
  0
LINE
  8
0
 10
-4.54968
 20
173.082
 11
-4.1433
 21
173.377
  0
LINE
  8
0
 10
-4.1433
 20
173.377
 11
-3.70311
 21
173.619
  0
LINE
  8
0
 10
-3.70311
 20
173.619
 11
-3.23605
 21
173.804
  0
LINE
  8
0
 10
-3.23605
 20
173.804
 11
-2.74951
 21
173.929
  0
LINE
  8
0
 10
-2.74951
 20
173.929
 11
-2.25116
 21
173.992
  0
LINE
  8
0
 10
-2.25116
 20
173.992
 11
2.25116
 21
173.992
  0
LINE
  8
0
 10
2.25116
 20
173.992
 11
2.74951
 21
173.929
  0
LINE
  8
0
 10
2.74951
 20
173.929
 11
3.23605
 21
173.804
  0
LINE
  8
0
 10
3.23605
 20
173.804
 11
3.70311
 21
173.619
  0
LINE
  8
0
 10
3.70311
 20
173.619
 11
4.1433
 21
173.377
  0
LINE
  8
0
 10
4.1433
 20
173.377
 11
4.54968
 21
173.082
  0
LINE
  8
0
 10
4.54968
 20
173.082
 11
4.91586
 21
172.738
  0
LINE
  8
0
 10
4.91586
 20
172.738
 11
5.23605
 21
172.351
  0
LINE
  8
0
 10
5.23605
 20
172.351
 11
5.50522
 21
171.927
  0
LINE
  8
0
 10
5.50522
 20
171.927
 11
5.7191
 21
171.472
  0
LINE
  8
0
 10
5.7191
 20
171.472
 11
5.87433
 21
170.995
  0
LINE
  8
0
 10
5.87433
 20
170.995
 11
5.96844
 21
170.501
  0
LINE
  8
0
 10
5.96844
 20
170.501
 11
6
 21
170
  0
LINE
  8
0
 10
6
 20
170
 11
6
 21
166
  0
LINE
  8
0
 10
6
 20
166
 11
5.96844
 21
165.499
  0
LINE
  8
0
 10
5.96844
 20
165.499
 11
5.87433
 21
165.005
  0
LINE
  8
0
 10
5.87433
 20
165.005
 11
5.7191
 21
164.528
  0
LINE
  8
0
 10
5.7191
 20
164.528
 11
5.50522
 21
164.073
  0
LINE
  8
0
 10
5.50522
 20
164.073
 11
5.23605
 21
163.649
  0
LINE
  8
0
 10
5.23605
 20
163.649
 11
4.91586
 21
163.262
  0
LINE
  8
0
 10
4.91586
 20
163.262
 11
4.54968
 21
162.918
  0
LINE
  8
0
 10
4.54968
 20
162.918
 11
4.1433
 21
162.623
  0
LINE
  8
0
 10
4.1433
 20
162.623
 11
3.70311
 21
162.381
  0
LINE
  8
0
 10
3.70311
 20
162.381
 11
3.23605
 21
162.196
  0
LINE
  8
0
 10
3.23605
 20
162.196
 11
2.74951
 21
162.071
  0
LINE
  8
0
 10
2.74951
 20
162.071
 11
2.25116
 21
162.008
  0
LINE
  8
0
 10
2.25116
 20
162.008
 11
-2.25116
 21
162.008
  0
LINE
  8
0
 10
1.40535
 20
136.633
 11
2.31763
 21
136.867
  0
LINE
  8
0
 10
2.31763
 20
136.867
 11
3.19334
 21
137.214
  0
LINE
  8
0
 10
3.19334
 20
137.214
 11
4.01869
 21
137.668
  0
LINE
  8
0
 10
4.01869
 20
137.668
 11
4.78067
 21
138.221
  0
LINE
  8
0
 10
4.78067
 20
138.221
 11
5.46725
 21
138.866
  0
LINE
  8
0
 10
5.46725
 20
138.866
 11
6.06763
 21
139.592
  0
LINE
  8
0
 10
6.06763
 20
139.592
 11
6.5723
 21
140.387
  0
LINE
  8
0
 10
6.5723
 20
140.387
 11
6.97331
 21
141.239
  0
LINE
  8
0
 10
6.97331
 20
141.239
 11
7.26436
 21
142.135
  0
LINE
  8
0
 10
7.26436
 20
142.135
 11
7.44086
 21
143.06
  0
LINE
  8
0
 10
7.44086
 20
143.06
 11
7.5
 21
144
  0
LINE
  8
0
 10
7.5
 20
144
 11
7.44086
 21
144.94
  0
LINE
  8
0
 10
7.44086
 20
144.94
 11
7.26436
 21
145.865
  0
LINE
  8
0
 10
7.26436
 20
145.865
 11
6.97331
 21
146.761
  0
LINE
  8
0
 10
6.97331
 20
146.761
 11
6.5723
 21
147.613
  0
LINE
  8
0
 10
6.5723
 20
147.613
 11
6.06763
 21
148.408
  0
LINE
  8
0
 10
6.06763
 20
148.408
 11
5.46725
 21
149.134
  0
LINE
  8
0
 10
5.46725
 20
149.134
 11
4.78067
 21
149.779
  0
LINE
  8
0
 10
4.78067
 20
149.779
 11
4.01869
 21
150.332
  0
LINE
  8
0
 10
4.01869
 20
150.332
 11
3.19334
 21
150.786
  0
LINE
  8
0
 10
3.19334
 20
150.786
 11
2.31763
 21
151.133
  0
LINE
  8
0
 10
2.31763
 20
151.133
 11
1.40535
 21
151.367
  0
LINE
  8
0
 10
1.40535
 20
151.367
 11
0.470917
 21
151.485
  0
LINE
  8
0
 10
0.470917
 20
151.485
 11
-0.470917
 21
151.485
  0
LINE
  8
0
 10
-0.470917
 20
151.485
 11
-1.40535
 21
151.367
  0
LINE
  8
0
 10
-1.40535
 20
151.367
 11
-2.31763
 21
151.133
  0
LINE
  8
0
 10
-2.31763
 20
151.133
 11
-3.19334
 21
150.786
  0
LINE
  8
0
 10
-3.19334
 20
150.786
 11
-4.01869
 21
150.332
  0
LINE
  8
0
 10
-4.01869
 20
150.332
 11
-4.78067
 21
149.779
  0
LINE
  8
0
 10
-4.78067
 20
149.779
 11
-5.46725
 21
149.134
  0
LINE
  8
0
 10
-5.46725
 20
149.134
 11
-6.06763
 21
148.408
  0
LINE
  8
0
 10
-6.06763
 20
148.408
 11
-6.5723
 21
147.613
  0
LINE
  8
0
 10
-6.5723
 20
147.613
 11
-6.97331
 21
146.761
  0
LINE
  8
0
 10
-6.97331
 20
146.761
 11
-7.26436
 21
145.865
  0
LINE
  8
0
 10
-7.26436
 20
145.865
 11
-7.44086
 21
144.94
  0
LINE
  8
0
 10
-7.44086
 20
144.94
 11
-7.5
 21
144
  0
LINE
  8
0
 10
-7.5
 20
144
 11
-7.44086
 21
143.06
  0
LINE
  8
0
 10
-7.44086
 20
143.06
 11
-7.26436
 21
142.135
  0
LINE
  8
0
 10
-7.26436
 20
142.135
 11
-6.97331
 21
141.239
  0
LINE
  8
0
 10
-6.97331
 20
141.239
 11
-6.5723
 21
140.387
  0
LINE
  8
0
 10
-6.5723
 20
140.387
 11
-6.06763
 21
139.592
  0
LINE
  8
0
 10
-6.06763
 20
139.592
 11
-5.46725
 21
138.866
  0
LINE
  8
0
 10
-5.46725
 20
138.866
 11
-4.78067
 21
138.221
  0
LINE
  8
0
 10
-4.78067
 20
138.221
 11
-4.01869
 21
137.668
  0
LINE
  8
0
 10
-4.01869
 20
137.668
 11
-3.19334
 21
137.214
  0
LINE
  8
0
 10
-3.19334
 20
137.214
 11
-2.31763
 21
136.867
  0
LINE
  8
0
 10
-2.31763
 20
136.867
 11
-1.40535
 21
136.633
  0
LINE
  8
0
 10
-1.40535
 20
136.633
 11
-0.470917
 21
136.515
  0
LINE
  8
0
 10
-0.470917
 20
136.515
 11
0.470917
 21
136.515
  0
LINE
  8
0
 10
0.470917
 20
136.515
 11
1.40535
 21
136.633
  0
LINE
  8
0
 10
-2.25116
 20
138.008
 11
-2.74951
 21
138.071
  0
LINE
  8
0
 10
-2.74951
 20
138.071
 11
-3.23605
 21
138.196
  0
LINE
  8
0
 10
-3.23605
 20
138.196
 11
-3.70311
 21
138.381
  0
LINE
  8
0
 10
-3.70311
 20
138.381
 11
-4.1433
 21
138.623
  0
LINE
  8
0
 10
-4.1433
 20
138.623
 11
-4.54968
 21
138.918
  0
LINE
  8
0
 10
-4.54968
 20
138.918
 11
-4.91586
 21
139.262
  0
LINE
  8
0
 10
-4.91586
 20
139.262
 11
-5.23605
 21
139.649
  0
LINE
  8
0
 10
-5.23605
 20
139.649
 11
-5.50522
 21
140.073
  0
LINE
  8
0
 10
-5.50522
 20
140.073
 11
-5.7191
 21
140.528
  0
LINE
  8
0
 10
-5.7191
 20
140.528
 11
-5.87433
 21
141.005
  0
LINE
  8
0
 10
-5.87433
 20
141.005
 11
-5.96844
 21
141.499
  0
LINE
  8
0
 10
-5.96844
 20
141.499
 11
-6
 21
142
  0
LINE
  8
0
 10
-6
 20
142
 11
-6
 21
146
  0
LINE
  8
0
 10
-6
 20
146
 11
-5.96844
 21
146.501
  0
LINE
  8
0
 10
-5.96844
 20
146.501
 11
-5.87433
 21
146.995
  0
LINE
  8
0
 10
-5.87433
 20
146.995
 11
-5.7191
 21
147.472
  0
LINE
  8
0
 10
-5.7191
 20
147.472
 11
-5.50522
 21
147.927
  0
LINE
  8
0
 10
-5.50522
 20
147.927
 11
-5.23605
 21
148.351
  0
LINE
  8
0
 10
-5.23605
 20
148.351
 11
-4.91586
 21
148.738
  0
LINE
  8
0
 10
-4.91586
 20
148.738
 11
-4.54968
 21
149.082
  0
LINE
  8
0
 10
-4.54968
 20
149.082
 11
-4.1433
 21
149.377
  0
LINE
  8
0
 10
-4.1433
 20
149.377
 11
-3.70311
 21
149.619
  0
LINE
  8
0
 10
-3.70311
 20
149.619
 11
-3.23605
 21
149.804
  0
LINE
  8
0
 10
-3.23605
 20
149.804
 11
-2.74951
 21
149.929
  0
LINE
  8
0
 10
-2.74951
 20
149.929
 11
-2.25116
 21
149.992
  0
LINE
  8
0
 10
-2.25116
 20
149.992
 11
2.25116
 21
149.992
  0
LINE
  8
0
 10
2.25116
 20
149.992
 11
2.74951
 21
149.929
  0
LINE
  8
0
 10
2.74951
 20
149.929
 11
3.23605
 21
149.804
  0
LINE
  8
0
 10
3.23605
 20
149.804
 11
3.70311
 21
149.619
  0
LINE
  8
0
 10
3.70311
 20
149.619
 11
4.1433
 21
149.377
  0
LINE
  8
0
 10
4.1433
 20
149.377
 11
4.54968
 21
149.082
  0
LINE
  8
0
 10
4.54968
 20
149.082
 11
4.91586
 21
148.738
  0
LINE
  8
0
 10
4.91586
 20
148.738
 11
5.23605
 21
148.351
  0
LINE
  8
0
 10
5.23605
 20
148.351
 11
5.50522
 21
147.927
  0
LINE
  8
0
 10
5.50522
 20
147.927
 11
5.7191
 21
147.472
  0
LINE
  8
0
 10
5.7191
 20
147.472
 11
5.87433
 21
146.995
  0
LINE
  8
0
 10
5.87433
 20
146.995
 11
5.96844
 21
146.501
  0
LINE
  8
0
 10
5.96844
 20
146.501
 11
6
 21
146
  0
LINE
  8
0
 10
6
 20
146
 11
6
 21
142
  0
LINE
  8
0
 10
6
 20
142
 11
5.96844
 21
141.499
  0
LINE
  8
0
 10
5.96844
 20
141.499
 11
5.87433
 21
141.005
  0
LINE
  8
0
 10
5.87433
 20
141.005
 11
5.7191
 21
140.528
  0
LINE
  8
0
 10
5.7191
 20
140.528
 11
5.50522
 21
140.073
  0
LINE
  8
0
 10
5.50522
 20
140.073
 11
5.23605
 21
139.649
  0
LINE
  8
0
 10
5.23605
 20
139.649
 11
4.91586
 21
139.262
  0
LINE
  8
0
 10
4.91586
 20
139.262
 11
4.54968
 21
138.918
  0
LINE
  8
0
 10
4.54968
 20
138.918
 11
4.1433
 21
138.623
  0
LINE
  8
0
 10
4.1433
 20
138.623
 11
3.70311
 21
138.381
  0
LINE
  8
0
 10
3.70311
 20
138.381
 11
3.23605
 21
138.196
  0
LINE
  8
0
 10
3.23605
 20
138.196
 11
2.74951
 21
138.071
  0
LINE
  8
0
 10
2.74951
 20
138.071
 11
2.25116
 21
138.008
  0
LINE
  8
0
 10
2.25116
 20
138.008
 11
-2.25116
 21
138.008
  0
LINE
  8
0
 10
1.40535
 20
112.633
 11
2.31763
 21
112.867
  0
LINE
  8
0
 10
2.31763
 20
112.867
 11
3.19334
 21
113.214
  0
LINE
  8
0
 10
3.19334
 20
113.214
 11
4.01869
 21
113.668
  0
LINE
  8
0
 10
4.01869
 20
113.668
 11
4.78067
 21
114.221
  0
LINE
  8
0
 10
4.78067
 20
114.221
 11
5.46725
 21
114.866
  0
LINE
  8
0
 10
5.46725
 20
114.866
 11
6.06763
 21
115.592
  0
LINE
  8
0
 10
6.06763
 20
115.592
 11
6.5723
 21
116.387
  0
LINE
  8
0
 10
6.5723
 20
116.387
 11
6.97331
 21
117.239
  0
LINE
  8
0
 10
6.97331
 20
117.239
 11
7.26436
 21
118.135
  0
LINE
  8
0
 10
7.26436
 20
118.135
 11
7.44086
 21
119.06
  0
LINE
  8
0
 10
7.44086
 20
119.06
 11
7.5
 21
120
  0
LINE
  8
0
 10
7.5
 20
120
 11
7.44086
 21
120.94
  0
LINE
  8
0
 10
7.44086
 20
120.94
 11
7.26436
 21
121.865
  0
LINE
  8
0
 10
7.26436
 20
121.865
 11
6.97331
 21
122.761
  0
LINE
  8
0
 10
6.97331
 20
122.761
 11
6.5723
 21
123.613
  0
LINE
  8
0
 10
6.5723
 20
123.613
 11
6.06763
 21
124.408
  0
LINE
  8
0
 10
6.06763
 20
124.408
 11
5.46725
 21
125.134
  0
LINE
  8
0
 10
5.46725
 20
125.134
 11
4.78067
 21
125.779
  0
LINE
  8
0
 10
4.78067
 20
125.779
 11
4.01869
 21
126.332
  0
LINE
  8
0
 10
4.01869
 20
126.332
 11
3.19334
 21
126.786
  0
LINE
  8
0
 10
3.19334
 20
126.786
 11
2.31763
 21
127.133
  0
LINE
  8
0
 10
2.31763
 20
127.133
 11
1.40535
 21
127.367
  0
LINE
  8
0
 10
1.40535
 20
127.367
 11
0.470917
 21
127.485
  0
LINE
  8
0
 10
0.470917
 20
127.485
 11
-0.470917
 21
127.485
  0
LINE
  8
0
 10
-0.470917
 20
127.485
 11
-1.40535
 21
127.367
  0
LINE
  8
0
 10
-1.40535
 20
127.367
 11
-2.31763
 21
127.133
  0
LINE
  8
0
 10
-2.31763
 20
127.133
 11
-3.19334
 21
126.786
  0
LINE
  8
0
 10
-3.19334
 20
126.786
 11
-4.01869
 21
126.332
  0
LINE
  8
0
 10
-4.01869
 20
126.332
 11
-4.78067
 21
125.779
  0
LINE
  8
0
 10
-4.78067
 20
125.779
 11
-5.46725
 21
125.134
  0
LINE
  8
0
 10
-5.46725
 20
125.134
 11
-6.06763
 21
124.408
  0
LINE
  8
0
 10
-6.06763
 20
124.408
 11
-6.5723
 21
123.613
  0
LINE
  8
0
 10
-6.5723
 20
123.613
 11
-6.97331
 21
122.761
  0
LINE
  8
0
 10
-6.97331
 20
122.761
 11
-7.26436
 21
121.865
  0
LINE
  8
0
 10
-7.26436
 20
121.865
 11
-7.44086
 21
120.94
  0
LINE
  8
0
 10
-7.44086
 20
120.94
 11
-7.5
 21
120
  0
LINE
  8
0
 10
-7.5
 20
120
 11
-7.44086
 21
119.06
  0
LINE
  8
0
 10
-7.44086
 20
119.06
 11
-7.26436
 21
118.135
  0
LINE
  8
0
 10
-7.26436
 20
118.135
 11
-6.97331
 21
117.239
  0
LINE
  8
0
 10
-6.97331
 20
117.239
 11
-6.5723
 21
116.387
  0
LINE
  8
0
 10
-6.5723
 20
116.387
 11
-6.06763
 21
115.592
  0
LINE
  8
0
 10
-6.06763
 20
115.592
 11
-5.46725
 21
114.866
  0
LINE
  8
0
 10
-5.46725
 20
114.866
 11
-4.78067
 21
114.221
  0
LINE
  8
0
 10
-4.78067
 20
114.221
 11
-4.01869
 21
113.668
  0
LINE
  8
0
 10
-4.01869
 20
113.668
 11
-3.19334
 21
113.214
  0
LINE
  8
0
 10
-3.19334
 20
113.214
 11
-2.31763
 21
112.867
  0
LINE
  8
0
 10
-2.31763
 20
112.867
 11
-1.40535
 21
112.633
  0
LINE
  8
0
 10
-1.40535
 20
112.633
 11
-0.470917
 21
112.515
  0
LINE
  8
0
 10
-0.470917
 20
112.515
 11
0.470917
 21
112.515
  0
LINE
  8
0
 10
0.470917
 20
112.515
 11
1.40535
 21
112.633
  0
LINE
  8
0
 10
-2.19545
 20
114.893
 11
-2.5833
 21
114.942
  0
LINE
  8
0
 10
-2.5833
 20
114.942
 11
-2.96194
 21
115.039
  0
LINE
  8
0
 10
-2.96194
 20
115.039
 11
-3.32541
 21
115.183
  0
LINE
  8
0
 10
-3.32541
 20
115.183
 11
-3.66798
 21
115.372
  0
LINE
  8
0
 10
-3.66798
 20
115.372
 11
-3.98424
 21
115.601
  0
LINE
  8
0
 10
-3.98424
 20
115.601
 11
-4.26921
 21
115.869
  0
LINE
  8
0
 10
-4.26921
 20
115.869
 11
-4.5184
 21
116.17
  0
LINE
  8
0
 10
-4.5184
 20
116.17
 11
-4.72786
 21
116.5
  0
LINE
  8
0
 10
-4.72786
 20
116.5
 11
-4.89432
 21
116.854
  0
LINE
  8
0
 10
-4.89432
 20
116.854
 11
-5.01512
 21
117.226
  0
LINE
  8
0
 10
-5.01512
 20
117.226
 11
-5.08836
 21
117.61
  0
LINE
  8
0
 10
-5.08836
 20
117.61
 11
-5.11292
 21
118
  0
LINE
  8
0
 10
-5.11292
 20
118
 11
-5.11292
 21
122
  0
LINE
  8
0
 10
-5.11292
 20
122
 11
-5.08836
 21
122.39
  0
LINE
  8
0
 10
-5.08836
 20
122.39
 11
-5.01512
 21
122.774
  0
LINE
  8
0
 10
-5.01512
 20
122.774
 11
-4.89432
 21
123.146
  0
LINE
  8
0
 10
-4.89432
 20
123.146
 11
-4.72786
 21
123.5
  0
LINE
  8
0
 10
-4.72786
 20
123.5
 11
-4.5184
 21
123.83
  0
LINE
  8
0
 10
-4.5184
 20
123.83
 11
-4.26921
 21
124.131
  0
LINE
  8
0
 10
-4.26921
 20
124.131
 11
-3.98424
 21
124.399
  0
LINE
  8
0
 10
-3.98424
 20
124.399
 11
-3.66798
 21
124.628
  0
LINE
  8
0
 10
-3.66798
 20
124.628
 11
-3.32541
 21
124.817
  0
LINE
  8
0
 10
-3.32541
 20
124.817
 11
-2.96194
 21
124.961
  0
LINE
  8
0
 10
-2.96194
 20
124.961
 11
-2.5833
 21
125.058
  0
LINE
  8
0
 10
-2.5833
 20
125.058
 11
-2.19545
 21
125.107
  0
LINE
  8
0
 10
-2.19545
 20
125.107
 11
2.19545
 21
125.107
  0
LINE
  8
0
 10
2.19545
 20
125.107
 11
2.5833
 21
125.058
  0
LINE
  8
0
 10
2.5833
 20
125.058
 11
2.96194
 21
124.961
  0
LINE
  8
0
 10
2.96194
 20
124.961
 11
3.32541
 21
124.817
  0
LINE
  8
0
 10
3.32541
 20
124.817
 11
3.66798
 21
124.628
  0
LINE
  8
0
 10
3.66798
 20
124.628
 11
3.98424
 21
124.399
  0
LINE
  8
0
 10
3.98424
 20
124.399
 11
4.26921
 21
124.131
  0
LINE
  8
0
 10
4.26921
 20
124.131
 11
4.5184
 21
123.83
  0
LINE
  8
0
 10
4.5184
 20
123.83
 11
4.72786
 21
123.5
  0
LINE
  8
0
 10
4.72786
 20
123.5
 11
4.89432
 21
123.146
  0
LINE
  8
0
 10
4.89432
 20
123.146
 11
5.01512
 21
122.774
  0
LINE
  8
0
 10
5.01512
 20
122.774
 11
5.08836
 21
122.39
  0
LINE
  8
0
 10
5.08836
 20
122.39
 11
5.11292
 21
122
  0
LINE
  8
0
 10
5.11292
 20
122
 11
5.11292
 21
118
  0
LINE
  8
0
 10
5.11292
 20
118
 11
5.08836
 21
117.61
  0
LINE
  8
0
 10
5.08836
 20
117.61
 11
5.01512
 21
117.226
  0
LINE
  8
0
 10
5.01512
 20
117.226
 11
4.89432
 21
116.854
  0
LINE
  8
0
 10
4.89432
 20
116.854
 11
4.72786
 21
116.5
  0
LINE
  8
0
 10
4.72786
 20
116.5
 11
4.5184
 21
116.17
  0
LINE
  8
0
 10
4.5184
 20
116.17
 11
4.26921
 21
115.869
  0
LINE
  8
0
 10
4.26921
 20
115.869
 11
3.98424
 21
115.601
  0
LINE
  8
0
 10
3.98424
 20
115.601
 11
3.66798
 21
115.372
  0
LINE
  8
0
 10
3.66798
 20
115.372
 11
3.32541
 21
115.183
  0
LINE
  8
0
 10
3.32541
 20
115.183
 11
2.96194
 21
115.039
  0
LINE
  8
0
 10
2.96194
 20
115.039
 11
2.5833
 21
114.942
  0
LINE
  8
0
 10
2.5833
 20
114.942
 11
2.19545
 21
114.893
  0
LINE
  8
0
 10
2.19545
 20
114.893
 11
-2.19545
 21
114.893
  0
LINE
  8
0
 10
1.40535
 20
88.6329
 11
2.31763
 21
88.8671
  0
LINE
  8
0
 10
2.31763
 20
88.8671
 11
3.19334
 21
89.2138
  0
LINE
  8
0
 10
3.19334
 20
89.2138
 11
4.01869
 21
89.6675
  0
LINE
  8
0
 10
4.01869
 20
89.6675
 11
4.78067
 21
90.2212
  0
LINE
  8
0
 10
4.78067
 20
90.2212
 11
5.46725
 21
90.8659
  0
LINE
  8
0
 10
5.46725
 20
90.8659
 11
6.06763
 21
91.5916
  0
LINE
  8
0
 10
6.06763
 20
91.5916
 11
6.5723
 21
92.3869
  0
LINE
  8
0
 10
6.5723
 20
92.3869
 11
6.97331
 21
93.2391
  0
LINE
  8
0
 10
6.97331
 20
93.2391
 11
7.26436
 21
94.1348
  0
LINE
  8
0
 10
7.26436
 20
94.1348
 11
7.44086
 21
95.06
  0
LINE
  8
0
 10
7.44086
 20
95.06
 11
7.5
 21
96
  0
LINE
  8
0
 10
7.5
 20
96
 11
7.44086
 21
96.94
  0
LINE
  8
0
 10
7.44086
 20
96.94
 11
7.26436
 21
97.8652
  0
LINE
  8
0
 10
7.26436
 20
97.8652
 11
6.97331
 21
98.7609
  0
LINE
  8
0
 10
6.97331
 20
98.7609
 11
6.5723
 21
99.6131
  0
LINE
  8
0
 10
6.5723
 20
99.6131
 11
6.06763
 21
100.408
  0
LINE
  8
0
 10
6.06763
 20
100.408
 11
5.46725
 21
101.134
  0
LINE
  8
0
 10
5.46725
 20
101.134
 11
4.78067
 21
101.779
  0
LINE
  8
0
 10
4.78067
 20
101.779
 11
4.01869
 21
102.332
  0
LINE
  8
0
 10
4.01869
 20
102.332
 11
3.19334
 21
102.786
  0
LINE
  8
0
 10
3.19334
 20
102.786
 11
2.31763
 21
103.133
  0
LINE
  8
0
 10
2.31763
 20
103.133
 11
1.40535
 21
103.367
  0
LINE
  8
0
 10
1.40535
 20
103.367
 11
0.470917
 21
103.485
  0
LINE
  8
0
 10
0.470917
 20
103.485
 11
-0.470917
 21
103.485
  0
LINE
  8
0
 10
-0.470917
 20
103.485
 11
-1.40535
 21
103.367
  0
LINE
  8
0
 10
-1.40535
 20
103.367
 11
-2.31763
 21
103.133
  0
LINE
  8
0
 10
-2.31763
 20
103.133
 11
-3.19334
 21
102.786
  0
LINE
  8
0
 10
-3.19334
 20
102.786
 11
-4.01869
 21
102.332
  0
LINE
  8
0
 10
-4.01869
 20
102.332
 11
-4.78067
 21
101.779
  0
LINE
  8
0
 10
-4.78067
 20
101.779
 11
-5.46725
 21
101.134
  0
LINE
  8
0
 10
-5.46725
 20
101.134
 11
-6.06763
 21
100.408
  0
LINE
  8
0
 10
-6.06763
 20
100.408
 11
-6.5723
 21
99.6131
  0
LINE
  8
0
 10
-6.5723
 20
99.6131
 11
-6.97331
 21
98.7609
  0
LINE
  8
0
 10
-6.97331
 20
98.7609
 11
-7.26436
 21
97.8652
  0
LINE
  8
0
 10
-7.26436
 20
97.8652
 11
-7.44086
 21
96.94
  0
LINE
  8
0
 10
-7.44086
 20
96.94
 11
-7.5
 21
96
  0
LINE
  8
0
 10
-7.5
 20
96
 11
-7.44086
 21
95.06
  0
LINE
  8
0
 10
-7.44086
 20
95.06
 11
-7.26436
 21
94.1348
  0
LINE
  8
0
 10
-7.26436
 20
94.1348
 11
-6.97331
 21
93.2391
  0
LINE
  8
0
 10
-6.97331
 20
93.2391
 11
-6.5723
 21
92.3869
  0
LINE
  8
0
 10
-6.5723
 20
92.3869
 11
-6.06763
 21
91.5916
  0
LINE
  8
0
 10
-6.06763
 20
91.5916
 11
-5.46725
 21
90.8659
  0
LINE
  8
0
 10
-5.46725
 20
90.8659
 11
-4.78067
 21
90.2212
  0
LINE
  8
0
 10
-4.78067
 20
90.2212
 11
-4.01869
 21
89.6675
  0
LINE
  8
0
 10
-4.01869
 20
89.6675
 11
-3.19334
 21
89.2138
  0
LINE
  8
0
 10
-3.19334
 20
89.2138
 11
-2.31763
 21
88.8671
  0
LINE
  8
0
 10
-2.31763
 20
88.8671
 11
-1.40535
 21
88.6329
  0
LINE
  8
0
 10
-1.40535
 20
88.6329
 11
-0.470917
 21
88.5148
  0
LINE
  8
0
 10
-0.470917
 20
88.5148
 11
0.470917
 21
88.5148
  0
LINE
  8
0
 10
0.470917
 20
88.5148
 11
1.40535
 21
88.6329
  0
LINE
  8
0
 10
-0.134064
 20
93.8689
 11
-0.400101
 21
93.9025
  0
LINE
  8
0
 10
-0.400101
 20
93.9025
 11
-0.659836
 21
93.9692
  0
LINE
  8
0
 10
-0.659836
 20
93.9692
 11
-0.909149
 21
94.0679
  0
LINE
  8
0
 10
-0.909149
 20
94.0679
 11
-1.14413
 21
94.1971
  0
LINE
  8
0
 10
-1.14413
 20
94.1971
 11
-1.36108
 21
94.3547
  0
LINE
  8
0
 10
-1.36108
 20
94.3547
 11
-1.55655
 21
94.5383
  0
LINE
  8
0
 10
-1.55655
 20
94.5383
 11
-1.72748
 21
94.7449
  0
LINE
  8
0
 10
-1.72748
 20
94.7449
 11
-1.87117
 21
94.9713
  0
LINE
  8
0
 10
-1.87117
 20
94.9713
 11
-1.98534
 21
95.214
  0
LINE
  8
0
 10
-1.98534
 20
95.214
 11
-2.06821
 21
95.469
  0
LINE
  8
0
 10
-2.06821
 20
95.469
 11
-2.11845
 21
95.7324
  0
LINE
  8
0
 10
-2.11845
 20
95.7324
 11
-2.13528
 21
96
  0
LINE
  8
0
 10
-2.13528
 20
96
 11
-2.11845
 21
96.2676
  0
LINE
  8
0
 10
-2.11845
 20
96.2676
 11
-2.06821
 21
96.531
  0
LINE
  8
0
 10
-2.06821
 20
96.531
 11
-1.98534
 21
96.786
  0
LINE
  8
0
 10
-1.98534
 20
96.786
 11
-1.87117
 21
97.0287
  0
LINE
  8
0
 10
-1.87117
 20
97.0287
 11
-1.72748
 21
97.2551
  0
LINE
  8
0
 10
-1.72748
 20
97.2551
 11
-1.55655
 21
97.4617
  0
LINE
  8
0
 10
-1.55655
 20
97.4617
 11
-1.36108
 21
97.6453
  0
LINE
  8
0
 10
-1.36108
 20
97.6453
 11
-1.14413
 21
97.8029
  0
LINE
  8
0
 10
-1.14413
 20
97.8029
 11
-0.909149
 21
97.9321
  0
LINE
  8
0
 10
-0.909149
 20
97.9321
 11
-0.659836
 21
98.0308
  0
LINE
  8
0
 10
-0.659836
 20
98.0308
 11
-0.400101
 21
98.0975
  0
LINE
  8
0
 10
-0.400101
 20
98.0975
 11
-0.134064
 21
98.1311
  0
LINE
  8
0
 10
-0.134064
 20
98.1311
 11
0.134064
 21
98.1311
  0
LINE
  8
0
 10
0.134064
 20
98.1311
 11
0.400101
 21
98.0975
  0
LINE
  8
0
 10
0.400101
 20
98.0975
 11
0.659836
 21
98.0308
  0
LINE
  8
0
 10
0.659836
 20
98.0308
 11
0.909149
 21
97.9321
  0
LINE
  8
0
 10
0.909149
 20
97.9321
 11
1.14413
 21
97.8029
  0
LINE
  8
0
 10
1.14413
 20
97.8029
 11
1.36108
 21
97.6453
  0
LINE
  8
0
 10
1.36108
 20
97.6453
 11
1.55655
 21
97.4617
  0
LINE
  8
0
 10
1.55655
 20
97.4617
 11
1.72748
 21
97.2551
  0
LINE
  8
0
 10
1.72748
 20
97.2551
 11
1.87117
 21
97.0287
  0
LINE
  8
0
 10
1.87117
 20
97.0287
 11
1.98534
 21
96.786
  0
LINE
  8
0
 10
1.98534
 20
96.786
 11
2.06821
 21
96.531
  0
LINE
  8
0
 10
2.06821
 20
96.531
 11
2.11845
 21
96.2676
  0
LINE
  8
0
 10
2.11845
 20
96.2676
 11
2.13528
 21
96
  0
LINE
  8
0
 10
2.13528
 20
96
 11
2.11845
 21
95.7324
  0
LINE
  8
0
 10
2.11845
 20
95.7324
 11
2.06821
 21
95.469
  0
LINE
  8
0
 10
2.06821
 20
95.469
 11
1.98534
 21
95.214
  0
LINE
  8
0
 10
1.98534
 20
95.214
 11
1.87117
 21
94.9713
  0
LINE
  8
0
 10
1.87117
 20
94.9713
 11
1.72748
 21
94.7449
  0
LINE
  8
0
 10
1.72748
 20
94.7449
 11
1.55655
 21
94.5383
  0
LINE
  8
0
 10
1.55655
 20
94.5383
 11
1.36108
 21
94.3547
  0
LINE
  8
0
 10
1.36108
 20
94.3547
 11
1.14413
 21
94.1971
  0
LINE
  8
0
 10
1.14413
 20
94.1971
 11
0.909149
 21
94.0679
  0
LINE
  8
0
 10
0.909149
 20
94.0679
 11
0.659836
 21
93.9692
  0
LINE
  8
0
 10
0.659836
 20
93.9692
 11
0.400101
 21
93.9025
  0
LINE
  8
0
 10
0.400101
 20
93.9025
 11
0.134064
 21
93.8689
  0
LINE
  8
0
 10
0.134064
 20
93.8689
 11
-0.134064
 21
93.8689
  0
ENDSEC
  0
SECTION
  2
OBJECTS
  0
DICTIONARY
  0
ENDSEC
  0
EOF
