  0
SECTION
  2
BLOCKS
  0
ENDSEC
  0
SECTION
  2
ENTITIES
  0
LINE
  8
0
 10
10.9369
 20
1525.59
 11
11.5451
 21
1525.74
  0
LINE
  8
0
 10
11.5451
 20
1525.74
 11
12.1289
 21
1525.98
  0
LINE
  8
0
 10
12.1289
 20
1525.98
 11
12.6791
 21
1526.28
  0
LINE
  8
0
 10
12.6791
 20
1526.28
 11
13.1871
 21
1526.65
  0
LINE
  8
0
 10
13.1871
 20
1526.65
 11
13.6448
 21
1527.08
  0
LINE
  8
0
 10
13.6448
 20
1527.08
 11
14.0451
 21
1527.56
  0
LINE
  8
0
 10
14.0451
 20
1527.56
 11
14.3815
 21
1528.09
  0
LINE
  8
0
 10
14.3815
 20
1528.09
 11
14.6489
 21
1528.66
  0
LINE
  8
0
 10
14.6489
 20
1528.66
 11
14.8429
 21
1529.26
  0
LINE
  8
0
 10
14.8429
 20
1529.26
 11
14.9606
 21
1529.87
  0
LINE
  8
0
 10
14.9606
 20
1529.87
 11
15
 21
1530.5
  0
LINE
  8
0
 10
15
 20
1530.5
 11
15
 21
1745.5
  0
LINE
  8
0
 10
15
 20
1745.5
 11
14.9606
 21
1746.13
  0
LINE
  8
0
 10
14.9606
 20
1746.13
 11
14.8429
 21
1746.74
  0
LINE
  8
0
 10
14.8429
 20
1746.74
 11
14.6489
 21
1747.34
  0
LINE
  8
0
 10
14.6489
 20
1747.34
 11
14.3815
 21
1747.91
  0
LINE
  8
0
 10
14.3815
 20
1747.91
 11
14.0451
 21
1748.44
  0
LINE
  8
0
 10
14.0451
 20
1748.44
 11
13.6448
 21
1748.92
  0
LINE
  8
0
 10
13.6448
 20
1748.92
 11
13.1871
 21
1749.35
  0
LINE
  8
0
 10
13.1871
 20
1749.35
 11
12.6791
 21
1749.72
  0
LINE
  8
0
 10
12.6791
 20
1749.72
 11
12.1289
 21
1750.02
  0
LINE
  8
0
 10
12.1289
 20
1750.02
 11
11.5451
 21
1750.26
  0
LINE
  8
0
 10
11.5451
 20
1750.26
 11
10.9369
 21
1750.41
  0
LINE
  8
0
 10
10.9369
 20
1750.41
 11
10.3139
 21
1750.49
  0
LINE
  8
0
 10
10.3139
 20
1750.49
 11
-10.3139
 21
1750.49
  0
LINE
  8
0
 10
-10.3139
 20
1750.49
 11
-10.9369
 21
1750.41
  0
LINE
  8
0
 10
-10.9369
 20
1750.41
 11
-11.5451
 21
1750.26
  0
LINE
  8
0
 10
-11.5451
 20
1750.26
 11
-12.1289
 21
1750.02
  0
LINE
  8
0
 10
-12.1289
 20
1750.02
 11
-12.6791
 21
1749.72
  0
LINE
  8
0
 10
-12.6791
 20
1749.72
 11
-13.1871
 21
1749.35
  0
LINE
  8
0
 10
-13.1871
 20
1749.35
 11
-13.4
 21
1749.15
  0
LINE
  8
0
 10
-13.4
 20
1749.15
 11
-15
 21
1749.15
  0
LINE
  8
0
 10
-15
 20
1749.15
 11
-15
 21
1526.85
  0
LINE
  8
0
 10
-15
 20
1526.85
 11
-13.4
 21
1526.85
  0
LINE
  8
0
 10
-13.4
 20
1526.85
 11
-13.1871
 21
1526.65
  0
LINE
  8
0
 10
-13.1871
 20
1526.65
 11
-12.6791
 21
1526.28
  0
LINE
  8
0
 10
-12.6791
 20
1526.28
 11
-12.1289
 21
1525.98
  0
LINE
  8
0
 10
-12.1289
 20
1525.98
 11
-11.5451
 21
1525.74
  0
LINE
  8
0
 10
-11.5451
 20
1525.74
 11
-10.9369
 21
1525.59
  0
LINE
  8
0
 10
-10.9369
 20
1525.59
 11
-10.3139
 21
1525.51
  0
LINE
  8
0
 10
-10.3139
 20
1525.51
 11
10.3139
 21
1525.51
  0
LINE
  8
0
 10
10.3139
 20
1525.51
 11
10.9369
 21
1525.59
  0
LINE
  8
0
 10
-9.75116
 20
1527.01
 11
-10.2495
 21
1527.07
  0
LINE
  8
0
 10
-10.2495
 20
1527.07
 11
-10.7361
 21
1527.2
  0
LINE
  8
0
 10
-10.7361
 20
1527.2
 11
-11.2031
 21
1527.38
  0
LINE
  8
0
 10
-11.2031
 20
1527.38
 11
-11.6433
 21
1527.62
  0
LINE
  8
0
 10
-11.6433
 20
1527.62
 11
-12.0497
 21
1527.92
  0
LINE
  8
0
 10
-12.0497
 20
1527.92
 11
-12.4159
 21
1528.26
  0
LINE
  8
0
 10
-12.4159
 20
1528.26
 11
-12.7361
 21
1528.65
  0
LINE
  8
0
 10
-12.7361
 20
1528.65
 11
-13.0052
 21
1529.07
  0
LINE
  8
0
 10
-13.0052
 20
1529.07
 11
-13.2191
 21
1529.53
  0
LINE
  8
0
 10
-13.2191
 20
1529.53
 11
-13.3743
 21
1530.01
  0
LINE
  8
0
 10
-13.3743
 20
1530.01
 11
-13.4684
 21
1530.5
  0
LINE
  8
0
 10
-13.4684
 20
1530.5
 11
-13.5
 21
1531
  0
LINE
  8
0
 10
-13.5
 20
1531
 11
-13.5
 21
1745
  0
LINE
  8
0
 10
-13.5
 20
1745
 11
-13.4684
 21
1745.5
  0
LINE
  8
0
 10
-13.4684
 20
1745.5
 11
-13.3743
 21
1745.99
  0
LINE
  8
0
 10
-13.3743
 20
1745.99
 11
-13.2191
 21
1746.47
  0
LINE
  8
0
 10
-13.2191
 20
1746.47
 11
-13.0052
 21
1746.93
  0
LINE
  8
0
 10
-13.0052
 20
1746.93
 11
-12.7361
 21
1747.35
  0
LINE
  8
0
 10
-12.7361
 20
1747.35
 11
-12.4159
 21
1747.74
  0
LINE
  8
0
 10
-12.4159
 20
1747.74
 11
-12.0497
 21
1748.08
  0
LINE
  8
0
 10
-12.0497
 20
1748.08
 11
-11.6433
 21
1748.38
  0
LINE
  8
0
 10
-11.6433
 20
1748.38
 11
-11.2031
 21
1748.62
  0
LINE
  8
0
 10
-11.2031
 20
1748.62
 11
-10.7361
 21
1748.8
  0
LINE
  8
0
 10
-10.7361
 20
1748.8
 11
-10.2495
 21
1748.93
  0
LINE
  8
0
 10
-10.2495
 20
1748.93
 11
-9.75116
 21
1748.99
  0
LINE
  8
0
 10
-9.75116
 20
1748.99
 11
9.75116
 21
1748.99
  0
LINE
  8
0
 10
9.75116
 20
1748.99
 11
10.2495
 21
1748.93
  0
LINE
  8
0
 10
10.2495
 20
1748.93
 11
10.7361
 21
1748.8
  0
LINE
  8
0
 10
10.7361
 20
1748.8
 11
11.2031
 21
1748.62
  0
LINE
  8
0
 10
11.2031
 20
1748.62
 11
11.6433
 21
1748.38
  0
LINE
  8
0
 10
11.6433
 20
1748.38
 11
12.0497
 21
1748.08
  0
LINE
  8
0
 10
12.0497
 20
1748.08
 11
12.4159
 21
1747.74
  0
LINE
  8
0
 10
12.4159
 20
1747.74
 11
12.7361
 21
1747.35
  0
LINE
  8
0
 10
12.7361
 20
1747.35
 11
13.0052
 21
1746.93
  0
LINE
  8
0
 10
13.0052
 20
1746.93
 11
13.2191
 21
1746.47
  0
LINE
  8
0
 10
13.2191
 20
1746.47
 11
13.3743
 21
1745.99
  0
LINE
  8
0
 10
13.3743
 20
1745.99
 11
13.4684
 21
1745.5
  0
LINE
  8
0
 10
13.4684
 20
1745.5
 11
13.5
 21
1745
  0
LINE
  8
0
 10
13.5
 20
1745
 11
13.5
 21
1531
  0
LINE
  8
0
 10
13.5
 20
1531
 11
13.4684
 21
1530.5
  0
LINE
  8
0
 10
13.4684
 20
1530.5
 11
13.3743
 21
1530.01
  0
LINE
  8
0
 10
13.3743
 20
1530.01
 11
13.2191
 21
1529.53
  0
LINE
  8
0
 10
13.2191
 20
1529.53
 11
13.0052
 21
1529.07
  0
LINE
  8
0
 10
13.0052
 20
1529.07
 11
12.7361
 21
1528.65
  0
LINE
  8
0
 10
12.7361
 20
1528.65
 11
12.4159
 21
1528.26
  0
LINE
  8
0
 10
12.4159
 20
1528.26
 11
12.0497
 21
1527.92
  0
LINE
  8
0
 10
12.0497
 20
1527.92
 11
11.6433
 21
1527.62
  0
LINE
  8
0
 10
11.6433
 20
1527.62
 11
11.2031
 21
1527.38
  0
LINE
  8
0
 10
11.2031
 20
1527.38
 11
10.7361
 21
1527.2
  0
LINE
  8
0
 10
10.7361
 20
1527.2
 11
10.2495
 21
1527.07
  0
LINE
  8
0
 10
10.2495
 20
1527.07
 11
9.75116
 21
1527.01
  0
LINE
  8
0
 10
9.75116
 20
1527.01
 11
-9.75116
 21
1527.01
  0
LINE
  8
0
 10
10.9369
 20
1291.59
 11
11.5451
 21
1291.74
  0
LINE
  8
0
 10
11.5451
 20
1291.74
 11
12.1289
 21
1291.98
  0
LINE
  8
0
 10
12.1289
 20
1291.98
 11
12.6791
 21
1292.28
  0
LINE
  8
0
 10
12.6791
 20
1292.28
 11
13.1871
 21
1292.65
  0
LINE
  8
0
 10
13.1871
 20
1292.65
 11
13.6448
 21
1293.08
  0
LINE
  8
0
 10
13.6448
 20
1293.08
 11
14.0451
 21
1293.56
  0
LINE
  8
0
 10
14.0451
 20
1293.56
 11
14.3815
 21
1294.09
  0
LINE
  8
0
 10
14.3815
 20
1294.09
 11
14.6489
 21
1294.66
  0
LINE
  8
0
 10
14.6489
 20
1294.66
 11
14.8429
 21
1295.26
  0
LINE
  8
0
 10
14.8429
 20
1295.26
 11
14.9606
 21
1295.87
  0
LINE
  8
0
 10
14.9606
 20
1295.87
 11
15
 21
1296.5
  0
LINE
  8
0
 10
15
 20
1296.5
 11
15
 21
1511.5
  0
LINE
  8
0
 10
15
 20
1511.5
 11
14.9606
 21
1512.13
  0
LINE
  8
0
 10
14.9606
 20
1512.13
 11
14.8429
 21
1512.74
  0
LINE
  8
0
 10
14.8429
 20
1512.74
 11
14.6489
 21
1513.34
  0
LINE
  8
0
 10
14.6489
 20
1513.34
 11
14.3815
 21
1513.91
  0
LINE
  8
0
 10
14.3815
 20
1513.91
 11
14.0451
 21
1514.44
  0
LINE
  8
0
 10
14.0451
 20
1514.44
 11
13.6448
 21
1514.92
  0
LINE
  8
0
 10
13.6448
 20
1514.92
 11
13.1871
 21
1515.35
  0
LINE
  8
0
 10
13.1871
 20
1515.35
 11
12.6791
 21
1515.72
  0
LINE
  8
0
 10
12.6791
 20
1515.72
 11
12.1289
 21
1516.02
  0
LINE
  8
0
 10
12.1289
 20
1516.02
 11
11.5451
 21
1516.26
  0
LINE
  8
0
 10
11.5451
 20
1516.26
 11
10.9369
 21
1516.41
  0
LINE
  8
0
 10
10.9369
 20
1516.41
 11
10.3139
 21
1516.49
  0
LINE
  8
0
 10
10.3139
 20
1516.49
 11
-10.3139
 21
1516.49
  0
LINE
  8
0
 10
-10.3139
 20
1516.49
 11
-10.9369
 21
1516.41
  0
LINE
  8
0
 10
-10.9369
 20
1516.41
 11
-11.5451
 21
1516.26
  0
LINE
  8
0
 10
-11.5451
 20
1516.26
 11
-12.1289
 21
1516.02
  0
LINE
  8
0
 10
-12.1289
 20
1516.02
 11
-12.6791
 21
1515.72
  0
LINE
  8
0
 10
-12.6791
 20
1515.72
 11
-13.1871
 21
1515.35
  0
LINE
  8
0
 10
-13.1871
 20
1515.35
 11
-13.6448
 21
1514.92
  0
LINE
  8
0
 10
-13.6448
 20
1514.92
 11
-14.0451
 21
1514.44
  0
LINE
  8
0
 10
-14.0451
 20
1514.44
 11
-14.3815
 21
1513.91
  0
LINE
  8
0
 10
-14.3815
 20
1513.91
 11
-14.6489
 21
1513.34
  0
LINE
  8
0
 10
-14.6489
 20
1513.34
 11
-14.8429
 21
1512.74
  0
LINE
  8
0
 10
-14.8429
 20
1512.74
 11
-14.9606
 21
1512.13
  0
LINE
  8
0
 10
-14.9606
 20
1512.13
 11
-15
 21
1511.5
  0
LINE
  8
0
 10
-15
 20
1511.5
 11
-15
 21
1296.5
  0
LINE
  8
0
 10
-15
 20
1296.5
 11
-14.9606
 21
1295.87
  0
LINE
  8
0
 10
-14.9606
 20
1295.87
 11
-14.8429
 21
1295.26
  0
LINE
  8
0
 10
-14.8429
 20
1295.26
 11
-14.6489
 21
1294.66
  0
LINE
  8
0
 10
-14.6489
 20
1294.66
 11
-14.3815
 21
1294.09
  0
LINE
  8
0
 10
-14.3815
 20
1294.09
 11
-14.0451
 21
1293.56
  0
LINE
  8
0
 10
-14.0451
 20
1293.56
 11
-13.6448
 21
1293.08
  0
LINE
  8
0
 10
-13.6448
 20
1293.08
 11
-13.1871
 21
1292.65
  0
LINE
  8
0
 10
-13.1871
 20
1292.65
 11
-12.6791
 21
1292.28
  0
LINE
  8
0
 10
-12.6791
 20
1292.28
 11
-12.1289
 21
1291.98
  0
LINE
  8
0
 10
-12.1289
 20
1291.98
 11
-11.5451
 21
1291.74
  0
LINE
  8
0
 10
-11.5451
 20
1291.74
 11
-10.9369
 21
1291.59
  0
LINE
  8
0
 10
-10.9369
 20
1291.59
 11
-10.3139
 21
1291.51
  0
LINE
  8
0
 10
-10.3139
 20
1291.51
 11
10.3139
 21
1291.51
  0
LINE
  8
0
 10
10.3139
 20
1291.51
 11
10.9369
 21
1291.59
  0
LINE
  8
0
 10
-9.75116
 20
1293.01
 11
-10.2495
 21
1293.07
  0
LINE
  8
0
 10
-10.2495
 20
1293.07
 11
-10.7361
 21
1293.2
  0
LINE
  8
0
 10
-10.7361
 20
1293.2
 11
-11.2031
 21
1293.38
  0
LINE
  8
0
 10
-11.2031
 20
1293.38
 11
-11.6433
 21
1293.62
  0
LINE
  8
0
 10
-11.6433
 20
1293.62
 11
-12.0497
 21
1293.92
  0
LINE
  8
0
 10
-12.0497
 20
1293.92
 11
-12.4159
 21
1294.26
  0
LINE
  8
0
 10
-12.4159
 20
1294.26
 11
-12.7361
 21
1294.65
  0
LINE
  8
0
 10
-12.7361
 20
1294.65
 11
-13.0052
 21
1295.07
  0
LINE
  8
0
 10
-13.0052
 20
1295.07
 11
-13.2191
 21
1295.53
  0
LINE
  8
0
 10
-13.2191
 20
1295.53
 11
-13.3743
 21
1296.01
  0
LINE
  8
0
 10
-13.3743
 20
1296.01
 11
-13.4684
 21
1296.5
  0
LINE
  8
0
 10
-13.4684
 20
1296.5
 11
-13.5
 21
1297
  0
LINE
  8
0
 10
-13.5
 20
1297
 11
-13.5
 21
1511
  0
LINE
  8
0
 10
-13.5
 20
1511
 11
-13.4684
 21
1511.5
  0
LINE
  8
0
 10
-13.4684
 20
1511.5
 11
-13.3743
 21
1511.99
  0
LINE
  8
0
 10
-13.3743
 20
1511.99
 11
-13.2191
 21
1512.47
  0
LINE
  8
0
 10
-13.2191
 20
1512.47
 11
-13.0052
 21
1512.93
  0
LINE
  8
0
 10
-13.0052
 20
1512.93
 11
-12.7361
 21
1513.35
  0
LINE
  8
0
 10
-12.7361
 20
1513.35
 11
-12.4159
 21
1513.74
  0
LINE
  8
0
 10
-12.4159
 20
1513.74
 11
-12.0497
 21
1514.08
  0
LINE
  8
0
 10
-12.0497
 20
1514.08
 11
-11.6433
 21
1514.38
  0
LINE
  8
0
 10
-11.6433
 20
1514.38
 11
-11.2031
 21
1514.62
  0
LINE
  8
0
 10
-11.2031
 20
1514.62
 11
-10.7361
 21
1514.8
  0
LINE
  8
0
 10
-10.7361
 20
1514.8
 11
-10.2495
 21
1514.93
  0
LINE
  8
0
 10
-10.2495
 20
1514.93
 11
-9.75116
 21
1514.99
  0
LINE
  8
0
 10
-9.75116
 20
1514.99
 11
9.75116
 21
1514.99
  0
LINE
  8
0
 10
9.75116
 20
1514.99
 11
10.2495
 21
1514.93
  0
LINE
  8
0
 10
10.2495
 20
1514.93
 11
10.7361
 21
1514.8
  0
LINE
  8
0
 10
10.7361
 20
1514.8
 11
11.2031
 21
1514.62
  0
LINE
  8
0
 10
11.2031
 20
1514.62
 11
11.6433
 21
1514.38
  0
LINE
  8
0
 10
11.6433
 20
1514.38
 11
12.0497
 21
1514.08
  0
LINE
  8
0
 10
12.0497
 20
1514.08
 11
12.4159
 21
1513.74
  0
LINE
  8
0
 10
12.4159
 20
1513.74
 11
12.7361
 21
1513.35
  0
LINE
  8
0
 10
12.7361
 20
1513.35
 11
13.0052
 21
1512.93
  0
LINE
  8
0
 10
13.0052
 20
1512.93
 11
13.2191
 21
1512.47
  0
LINE
  8
0
 10
13.2191
 20
1512.47
 11
13.3743
 21
1511.99
  0
LINE
  8
0
 10
13.3743
 20
1511.99
 11
13.4684
 21
1511.5
  0
LINE
  8
0
 10
13.4684
 20
1511.5
 11
13.5
 21
1511
  0
LINE
  8
0
 10
13.5
 20
1511
 11
13.5
 21
1297
  0
LINE
  8
0
 10
13.5
 20
1297
 11
13.4684
 21
1296.5
  0
LINE
  8
0
 10
13.4684
 20
1296.5
 11
13.3743
 21
1296.01
  0
LINE
  8
0
 10
13.3743
 20
1296.01
 11
13.2191
 21
1295.53
  0
LINE
  8
0
 10
13.2191
 20
1295.53
 11
13.0052
 21
1295.07
  0
LINE
  8
0
 10
13.0052
 20
1295.07
 11
12.7361
 21
1294.65
  0
LINE
  8
0
 10
12.7361
 20
1294.65
 11
12.4159
 21
1294.26
  0
LINE
  8
0
 10
12.4159
 20
1294.26
 11
12.0497
 21
1293.92
  0
LINE
  8
0
 10
12.0497
 20
1293.92
 11
11.6433
 21
1293.62
  0
LINE
  8
0
 10
11.6433
 20
1293.62
 11
11.2031
 21
1293.38
  0
LINE
  8
0
 10
11.2031
 20
1293.38
 11
10.7361
 21
1293.2
  0
LINE
  8
0
 10
10.7361
 20
1293.2
 11
10.2495
 21
1293.07
  0
LINE
  8
0
 10
10.2495
 20
1293.07
 11
9.75116
 21
1293.01
  0
LINE
  8
0
 10
9.75116
 20
1293.01
 11
-9.75116
 21
1293.01
  0
LINE
  8
0
 10
10.9369
 20
1057.59
 11
11.5451
 21
1057.74
  0
LINE
  8
0
 10
11.5451
 20
1057.74
 11
12.1289
 21
1057.98
  0
LINE
  8
0
 10
12.1289
 20
1057.98
 11
12.6791
 21
1058.28
  0
LINE
  8
0
 10
12.6791
 20
1058.28
 11
13.1871
 21
1058.65
  0
LINE
  8
0
 10
13.1871
 20
1058.65
 11
13.6448
 21
1059.08
  0
LINE
  8
0
 10
13.6448
 20
1059.08
 11
14.0451
 21
1059.56
  0
LINE
  8
0
 10
14.0451
 20
1059.56
 11
14.3815
 21
1060.09
  0
LINE
  8
0
 10
14.3815
 20
1060.09
 11
14.6489
 21
1060.66
  0
LINE
  8
0
 10
14.6489
 20
1060.66
 11
14.8429
 21
1061.26
  0
LINE
  8
0
 10
14.8429
 20
1061.26
 11
14.9606
 21
1061.87
  0
LINE
  8
0
 10
14.9606
 20
1061.87
 11
15
 21
1062.5
  0
LINE
  8
0
 10
15
 20
1062.5
 11
15
 21
1277.5
  0
LINE
  8
0
 10
15
 20
1277.5
 11
14.9606
 21
1278.13
  0
LINE
  8
0
 10
14.9606
 20
1278.13
 11
14.8429
 21
1278.74
  0
LINE
  8
0
 10
14.8429
 20
1278.74
 11
14.6489
 21
1279.34
  0
LINE
  8
0
 10
14.6489
 20
1279.34
 11
14.3815
 21
1279.91
  0
LINE
  8
0
 10
14.3815
 20
1279.91
 11
14.0451
 21
1280.44
  0
LINE
  8
0
 10
14.0451
 20
1280.44
 11
13.6448
 21
1280.92
  0
LINE
  8
0
 10
13.6448
 20
1280.92
 11
13.1871
 21
1281.35
  0
LINE
  8
0
 10
13.1871
 20
1281.35
 11
12.6791
 21
1281.72
  0
LINE
  8
0
 10
12.6791
 20
1281.72
 11
12.1289
 21
1282.02
  0
LINE
  8
0
 10
12.1289
 20
1282.02
 11
11.5451
 21
1282.26
  0
LINE
  8
0
 10
11.5451
 20
1282.26
 11
10.9369
 21
1282.41
  0
LINE
  8
0
 10
10.9369
 20
1282.41
 11
10.3139
 21
1282.49
  0
LINE
  8
0
 10
10.3139
 20
1282.49
 11
-10.3139
 21
1282.49
  0
LINE
  8
0
 10
-10.3139
 20
1282.49
 11
-10.9369
 21
1282.41
  0
LINE
  8
0
 10
-10.9369
 20
1282.41
 11
-11.5451
 21
1282.26
  0
LINE
  8
0
 10
-11.5451
 20
1282.26
 11
-12.1289
 21
1282.02
  0
LINE
  8
0
 10
-12.1289
 20
1282.02
 11
-12.6791
 21
1281.72
  0
LINE
  8
0
 10
-12.6791
 20
1281.72
 11
-13.1871
 21
1281.35
  0
LINE
  8
0
 10
-13.1871
 20
1281.35
 11
-13.6448
 21
1280.92
  0
LINE
  8
0
 10
-13.6448
 20
1280.92
 11
-14.0451
 21
1280.44
  0
LINE
  8
0
 10
-14.0451
 20
1280.44
 11
-14.3815
 21
1279.91
  0
LINE
  8
0
 10
-14.3815
 20
1279.91
 11
-14.6489
 21
1279.34
  0
LINE
  8
0
 10
-14.6489
 20
1279.34
 11
-14.8429
 21
1278.74
  0
LINE
  8
0
 10
-14.8429
 20
1278.74
 11
-14.9606
 21
1278.13
  0
LINE
  8
0
 10
-14.9606
 20
1278.13
 11
-15
 21
1277.5
  0
LINE
  8
0
 10
-15
 20
1277.5
 11
-15
 21
1062.5
  0
LINE
  8
0
 10
-15
 20
1062.5
 11
-14.9606
 21
1061.87
  0
LINE
  8
0
 10
-14.9606
 20
1061.87
 11
-14.8429
 21
1061.26
  0
LINE
  8
0
 10
-14.8429
 20
1061.26
 11
-14.6489
 21
1060.66
  0
LINE
  8
0
 10
-14.6489
 20
1060.66
 11
-14.3815
 21
1060.09
  0
LINE
  8
0
 10
-14.3815
 20
1060.09
 11
-14.0451
 21
1059.56
  0
LINE
  8
0
 10
-14.0451
 20
1059.56
 11
-13.6448
 21
1059.08
  0
LINE
  8
0
 10
-13.6448
 20
1059.08
 11
-13.1871
 21
1058.65
  0
LINE
  8
0
 10
-13.1871
 20
1058.65
 11
-12.6791
 21
1058.28
  0
LINE
  8
0
 10
-12.6791
 20
1058.28
 11
-12.1289
 21
1057.98
  0
LINE
  8
0
 10
-12.1289
 20
1057.98
 11
-11.5451
 21
1057.74
  0
LINE
  8
0
 10
-11.5451
 20
1057.74
 11
-10.9369
 21
1057.59
  0
LINE
  8
0
 10
-10.9369
 20
1057.59
 11
-10.3139
 21
1057.51
  0
LINE
  8
0
 10
-10.3139
 20
1057.51
 11
10.3139
 21
1057.51
  0
LINE
  8
0
 10
10.3139
 20
1057.51
 11
10.9369
 21
1057.59
  0
LINE
  8
0
 10
-9.69545
 20
1059.89
 11
-10.0833
 21
1059.94
  0
LINE
  8
0
 10
-10.0833
 20
1059.94
 11
-10.4619
 21
1060.04
  0
LINE
  8
0
 10
-10.4619
 20
1060.04
 11
-10.8254
 21
1060.18
  0
LINE
  8
0
 10
-10.8254
 20
1060.18
 11
-11.168
 21
1060.37
  0
LINE
  8
0
 10
-11.168
 20
1060.37
 11
-11.4842
 21
1060.6
  0
LINE
  8
0
 10
-11.4842
 20
1060.6
 11
-11.7692
 21
1060.87
  0
LINE
  8
0
 10
-11.7692
 20
1060.87
 11
-12.0184
 21
1061.17
  0
LINE
  8
0
 10
-12.0184
 20
1061.17
 11
-12.2279
 21
1061.5
  0
LINE
  8
0
 10
-12.2279
 20
1061.5
 11
-12.3943
 21
1061.85
  0
LINE
  8
0
 10
-12.3943
 20
1061.85
 11
-12.5151
 21
1062.23
  0
LINE
  8
0
 10
-12.5151
 20
1062.23
 11
-12.5884
 21
1062.61
  0
LINE
  8
0
 10
-12.5884
 20
1062.61
 11
-12.6129
 21
1063
  0
LINE
  8
0
 10
-12.6129
 20
1063
 11
-12.6129
 21
1277
  0
LINE
  8
0
 10
-12.6129
 20
1277
 11
-12.5884
 21
1277.39
  0
LINE
  8
0
 10
-12.5884
 20
1277.39
 11
-12.5151
 21
1277.77
  0
LINE
  8
0
 10
-12.5151
 20
1277.77
 11
-12.3943
 21
1278.15
  0
LINE
  8
0
 10
-12.3943
 20
1278.15
 11
-12.2279
 21
1278.5
  0
LINE
  8
0
 10
-12.2279
 20
1278.5
 11
-12.0184
 21
1278.83
  0
LINE
  8
0
 10
-12.0184
 20
1278.83
 11
-11.7692
 21
1279.13
  0
LINE
  8
0
 10
-11.7692
 20
1279.13
 11
-11.4842
 21
1279.4
  0
LINE
  8
0
 10
-11.4842
 20
1279.4
 11
-11.168
 21
1279.63
  0
LINE
  8
0
 10
-11.168
 20
1279.63
 11
-10.8254
 21
1279.82
  0
LINE
  8
0
 10
-10.8254
 20
1279.82
 11
-10.4619
 21
1279.96
  0
LINE
  8
0
 10
-10.4619
 20
1279.96
 11
-10.0833
 21
1280.06
  0
LINE
  8
0
 10
-10.0833
 20
1280.06
 11
-9.69545
 21
1280.11
  0
LINE
  8
0
 10
-9.69545
 20
1280.11
 11
9.69545
 21
1280.11
  0
LINE
  8
0
 10
9.69545
 20
1280.11
 11
10.0833
 21
1280.06
  0
LINE
  8
0
 10
10.0833
 20
1280.06
 11
10.4619
 21
1279.96
  0
LINE
  8
0
 10
10.4619
 20
1279.96
 11
10.8254
 21
1279.82
  0
LINE
  8
0
 10
10.8254
 20
1279.82
 11
11.168
 21
1279.63
  0
LINE
  8
0
 10
11.168
 20
1279.63
 11
11.4842
 21
1279.4
  0
LINE
  8
0
 10
11.4842
 20
1279.4
 11
11.7692
 21
1279.13
  0
LINE
  8
0
 10
11.7692
 20
1279.13
 11
12.0184
 21
1278.83
  0
LINE
  8
0
 10
12.0184
 20
1278.83
 11
12.2279
 21
1278.5
  0
LINE
  8
0
 10
12.2279
 20
1278.5
 11
12.3943
 21
1278.15
  0
LINE
  8
0
 10
12.3943
 20
1278.15
 11
12.5151
 21
1277.77
  0
LINE
  8
0
 10
12.5151
 20
1277.77
 11
12.5884
 21
1277.39
  0
LINE
  8
0
 10
12.5884
 20
1277.39
 11
12.6129
 21
1277
  0
LINE
  8
0
 10
12.6129
 20
1277
 11
12.6129
 21
1063
  0
LINE
  8
0
 10
12.6129
 20
1063
 11
12.5884
 21
1062.61
  0
LINE
  8
0
 10
12.5884
 20
1062.61
 11
12.5151
 21
1062.23
  0
LINE
  8
0
 10
12.5151
 20
1062.23
 11
12.3943
 21
1061.85
  0
LINE
  8
0
 10
12.3943
 20
1061.85
 11
12.2279
 21
1061.5
  0
LINE
  8
0
 10
12.2279
 20
1061.5
 11
12.0184
 21
1061.17
  0
LINE
  8
0
 10
12.0184
 20
1061.17
 11
11.7692
 21
1060.87
  0
LINE
  8
0
 10
11.7692
 20
1060.87
 11
11.4842
 21
1060.6
  0
LINE
  8
0
 10
11.4842
 20
1060.6
 11
11.168
 21
1060.37
  0
LINE
  8
0
 10
11.168
 20
1060.37
 11
10.8254
 21
1060.18
  0
LINE
  8
0
 10
10.8254
 20
1060.18
 11
10.4619
 21
1060.04
  0
LINE
  8
0
 10
10.4619
 20
1060.04
 11
10.0833
 21
1059.94
  0
LINE
  8
0
 10
10.0833
 20
1059.94
 11
9.69545
 21
1059.89
  0
LINE
  8
0
 10
9.69545
 20
1059.89
 11
-9.69545
 21
1059.89
  0
LINE
  8
0
 10
10.9369
 20
823.589
 11
11.5451
 21
823.745
  0
LINE
  8
0
 10
11.5451
 20
823.745
 11
12.1289
 21
823.976
  0
LINE
  8
0
 10
12.1289
 20
823.976
 11
12.6791
 21
824.278
  0
LINE
  8
0
 10
12.6791
 20
824.278
 11
13.1871
 21
824.647
  0
LINE
  8
0
 10
13.1871
 20
824.647
 11
13.6448
 21
825.077
  0
LINE
  8
0
 10
13.6448
 20
825.077
 11
14.0451
 21
825.561
  0
LINE
  8
0
 10
14.0451
 20
825.561
 11
14.3815
 21
826.091
  0
LINE
  8
0
 10
14.3815
 20
826.091
 11
14.6489
 21
826.659
  0
LINE
  8
0
 10
14.6489
 20
826.659
 11
14.8429
 21
827.257
  0
LINE
  8
0
 10
14.8429
 20
827.257
 11
14.9606
 21
827.873
  0
LINE
  8
0
 10
14.9606
 20
827.873
 11
15
 21
828.5
  0
LINE
  8
0
 10
15
 20
828.5
 11
15
 21
1043.5
  0
LINE
  8
0
 10
15
 20
1043.5
 11
14.9606
 21
1044.13
  0
LINE
  8
0
 10
14.9606
 20
1044.13
 11
14.8429
 21
1044.74
  0
LINE
  8
0
 10
14.8429
 20
1044.74
 11
14.6489
 21
1045.34
  0
LINE
  8
0
 10
14.6489
 20
1045.34
 11
14.3815
 21
1045.91
  0
LINE
  8
0
 10
14.3815
 20
1045.91
 11
14.0451
 21
1046.44
  0
LINE
  8
0
 10
14.0451
 20
1046.44
 11
13.6448
 21
1046.92
  0
LINE
  8
0
 10
13.6448
 20
1046.92
 11
13.1871
 21
1047.35
  0
LINE
  8
0
 10
13.1871
 20
1047.35
 11
12.6791
 21
1047.72
  0
LINE
  8
0
 10
12.6791
 20
1047.72
 11
12.1289
 21
1048.02
  0
LINE
  8
0
 10
12.1289
 20
1048.02
 11
11.5451
 21
1048.26
  0
LINE
  8
0
 10
11.5451
 20
1048.26
 11
10.9369
 21
1048.41
  0
LINE
  8
0
 10
10.9369
 20
1048.41
 11
10.3139
 21
1048.49
  0
LINE
  8
0
 10
10.3139
 20
1048.49
 11
-10.3139
 21
1048.49
  0
LINE
  8
0
 10
-10.3139
 20
1048.49
 11
-10.9369
 21
1048.41
  0
LINE
  8
0
 10
-10.9369
 20
1048.41
 11
-11.5451
 21
1048.26
  0
LINE
  8
0
 10
-11.5451
 20
1048.26
 11
-12.1289
 21
1048.02
  0
LINE
  8
0
 10
-12.1289
 20
1048.02
 11
-12.6791
 21
1047.72
  0
LINE
  8
0
 10
-12.6791
 20
1047.72
 11
-13.1871
 21
1047.35
  0
LINE
  8
0
 10
-13.1871
 20
1047.35
 11
-13.6448
 21
1046.92
  0
LINE
  8
0
 10
-13.6448
 20
1046.92
 11
-14.0451
 21
1046.44
  0
LINE
  8
0
 10
-14.0451
 20
1046.44
 11
-14.3815
 21
1045.91
  0
LINE
  8
0
 10
-14.3815
 20
1045.91
 11
-14.6489
 21
1045.34
  0
LINE
  8
0
 10
-14.6489
 20
1045.34
 11
-14.8429
 21
1044.74
  0
LINE
  8
0
 10
-14.8429
 20
1044.74
 11
-14.9606
 21
1044.13
  0
LINE
  8
0
 10
-14.9606
 20
1044.13
 11
-15
 21
1043.5
  0
LINE
  8
0
 10
-15
 20
1043.5
 11
-15
 21
828.5
  0
LINE
  8
0
 10
-15
 20
828.5
 11
-14.9606
 21
827.873
  0
LINE
  8
0
 10
-14.9606
 20
827.873
 11
-14.8429
 21
827.257
  0
LINE
  8
0
 10
-14.8429
 20
827.257
 11
-14.6489
 21
826.659
  0
LINE
  8
0
 10
-14.6489
 20
826.659
 11
-14.3815
 21
826.091
  0
LINE
  8
0
 10
-14.3815
 20
826.091
 11
-14.0451
 21
825.561
  0
LINE
  8
0
 10
-14.0451
 20
825.561
 11
-13.6448
 21
825.077
  0
LINE
  8
0
 10
-13.6448
 20
825.077
 11
-13.1871
 21
824.647
  0
LINE
  8
0
 10
-13.1871
 20
824.647
 11
-12.6791
 21
824.278
  0
LINE
  8
0
 10
-12.6791
 20
824.278
 11
-12.1289
 21
823.976
  0
LINE
  8
0
 10
-12.1289
 20
823.976
 11
-11.5451
 21
823.745
  0
LINE
  8
0
 10
-11.5451
 20
823.745
 11
-10.9369
 21
823.589
  0
LINE
  8
0
 10
-10.9369
 20
823.589
 11
-10.3139
 21
823.51
  0
LINE
  8
0
 10
-10.3139
 20
823.51
 11
10.3139
 21
823.51
  0
LINE
  8
0
 10
10.3139
 20
823.51
 11
10.9369
 21
823.589
  0
LINE
  8
0
 10
7.36592
 20
1038.87
 11
7.09988
 21
1038.9
  0
LINE
  8
0
 10
7.09988
 20
1038.9
 11
6.84015
 21
1038.97
  0
LINE
  8
0
 10
6.84015
 20
1038.97
 11
6.59084
 21
1039.07
  0
LINE
  8
0
 10
6.59084
 20
1039.07
 11
6.35585
 21
1039.2
  0
LINE
  8
0
 10
6.35585
 20
1039.2
 11
6.1389
 21
1039.35
  0
LINE
  8
0
 10
6.1389
 20
1039.35
 11
5.94344
 21
1039.54
  0
LINE
  8
0
 10
5.94344
 20
1039.54
 11
5.77251
 21
1039.74
  0
LINE
  8
0
 10
5.77251
 20
1039.74
 11
5.62881
 21
1039.97
  0
LINE
  8
0
 10
5.62881
 20
1039.97
 11
5.51465
 21
1040.21
  0
LINE
  8
0
 10
5.51465
 20
1040.21
 11
5.43178
 21
1040.47
  0
LINE
  8
0
 10
5.43178
 20
1040.47
 11
5.38153
 21
1040.73
  0
LINE
  8
0
 10
5.38153
 20
1040.73
 11
5.3647
 21
1041
  0
LINE
  8
0
 10
5.3647
 20
1041
 11
5.38153
 21
1041.27
  0
LINE
  8
0
 10
5.38153
 20
1041.27
 11
5.43178
 21
1041.53
  0
LINE
  8
0
 10
5.43178
 20
1041.53
 11
5.51465
 21
1041.79
  0
LINE
  8
0
 10
5.51465
 20
1041.79
 11
5.62881
 21
1042.03
  0
LINE
  8
0
 10
5.62881
 20
1042.03
 11
5.77251
 21
1042.26
  0
LINE
  8
0
 10
5.77251
 20
1042.26
 11
5.94344
 21
1042.46
  0
LINE
  8
0
 10
5.94344
 20
1042.46
 11
6.1389
 21
1042.65
  0
LINE
  8
0
 10
6.1389
 20
1042.65
 11
6.35585
 21
1042.8
  0
LINE
  8
0
 10
6.35585
 20
1042.8
 11
6.59084
 21
1042.93
  0
LINE
  8
0
 10
6.59084
 20
1042.93
 11
6.84015
 21
1043.03
  0
LINE
  8
0
 10
6.84015
 20
1043.03
 11
7.09988
 21
1043.1
  0
LINE
  8
0
 10
7.09988
 20
1043.1
 11
7.36592
 21
1043.13
  0
LINE
  8
0
 10
7.36592
 20
1043.13
 11
7.63406
 21
1043.13
  0
LINE
  8
0
 10
7.63406
 20
1043.13
 11
7.9001
 21
1043.1
  0
LINE
  8
0
 10
7.9001
 20
1043.1
 11
8.15984
 21
1043.03
  0
LINE
  8
0
 10
8.15984
 20
1043.03
 11
8.40915
 21
1042.93
  0
LINE
  8
0
 10
8.40915
 20
1042.93
 11
8.64413
 21
1042.8
  0
LINE
  8
0
 10
8.64413
 20
1042.8
 11
8.86108
 21
1042.65
  0
LINE
  8
0
 10
8.86108
 20
1042.65
 11
9.05655
 21
1042.46
  0
LINE
  8
0
 10
9.05655
 20
1042.46
 11
9.22748
 21
1042.26
  0
LINE
  8
0
 10
9.22748
 20
1042.26
 11
9.37117
 21
1042.03
  0
LINE
  8
0
 10
9.37117
 20
1042.03
 11
9.48534
 21
1041.79
  0
LINE
  8
0
 10
9.48534
 20
1041.79
 11
9.56821
 21
1041.53
  0
LINE
  8
0
 10
9.56821
 20
1041.53
 11
9.61845
 21
1041.27
  0
LINE
  8
0
 10
9.61845
 20
1041.27
 11
9.63528
 21
1041
  0
LINE
  8
0
 10
9.63528
 20
1041
 11
9.61845
 21
1040.73
  0
LINE
  8
0
 10
9.61845
 20
1040.73
 11
9.56821
 21
1040.47
  0
LINE
  8
0
 10
9.56821
 20
1040.47
 11
9.48534
 21
1040.21
  0
LINE
  8
0
 10
9.48534
 20
1040.21
 11
9.37117
 21
1039.97
  0
LINE
  8
0
 10
9.37117
 20
1039.97
 11
9.22748
 21
1039.74
  0
LINE
  8
0
 10
9.22748
 20
1039.74
 11
9.05655
 21
1039.54
  0
LINE
  8
0
 10
9.05655
 20
1039.54
 11
8.86108
 21
1039.35
  0
LINE
  8
0
 10
8.86108
 20
1039.35
 11
8.64413
 21
1039.2
  0
LINE
  8
0
 10
8.64413
 20
1039.2
 11
8.40915
 21
1039.07
  0
LINE
  8
0
 10
8.40915
 20
1039.07
 11
8.15984
 21
1038.97
  0
LINE
  8
0
 10
8.15984
 20
1038.97
 11
7.9001
 21
1038.9
  0
LINE
  8
0
 10
7.9001
 20
1038.9
 11
7.63406
 21
1038.87
  0
LINE
  8
0
 10
7.63406
 20
1038.87
 11
7.36592
 21
1038.87
  0
LINE
  8
0
 10
-7.63406
 20
1038.87
 11
-7.9001
 21
1038.9
  0
LINE
  8
0
 10
-7.9001
 20
1038.9
 11
-8.15984
 21
1038.97
  0
LINE
  8
0
 10
-8.15984
 20
1038.97
 11
-8.40915
 21
1039.07
  0
LINE
  8
0
 10
-8.40915
 20
1039.07
 11
-8.64413
 21
1039.2
  0
LINE
  8
0
 10
-8.64413
 20
1039.2
 11
-8.86108
 21
1039.35
  0
LINE
  8
0
 10
-8.86108
 20
1039.35
 11
-9.05655
 21
1039.54
  0
LINE
  8
0
 10
-9.05655
 20
1039.54
 11
-9.22748
 21
1039.74
  0
LINE
  8
0
 10
-9.22748
 20
1039.74
 11
-9.37117
 21
1039.97
  0
LINE
  8
0
 10
-9.37117
 20
1039.97
 11
-9.48534
 21
1040.21
  0
LINE
  8
0
 10
-9.48534
 20
1040.21
 11
-9.56821
 21
1040.47
  0
LINE
  8
0
 10
-9.56821
 20
1040.47
 11
-9.61845
 21
1040.73
  0
LINE
  8
0
 10
-9.61845
 20
1040.73
 11
-9.63528
 21
1041
  0
LINE
  8
0
 10
-9.63528
 20
1041
 11
-9.61845
 21
1041.27
  0
LINE
  8
0
 10
-9.61845
 20
1041.27
 11
-9.56821
 21
1041.53
  0
LINE
  8
0
 10
-9.56821
 20
1041.53
 11
-9.48534
 21
1041.79
  0
LINE
  8
0
 10
-9.48534
 20
1041.79
 11
-9.37117
 21
1042.03
  0
LINE
  8
0
 10
-9.37117
 20
1042.03
 11
-9.22748
 21
1042.26
  0
LINE
  8
0
 10
-9.22748
 20
1042.26
 11
-9.05655
 21
1042.46
  0
LINE
  8
0
 10
-9.05655
 20
1042.46
 11
-8.86108
 21
1042.65
  0
LINE
  8
0
 10
-8.86108
 20
1042.65
 11
-8.64413
 21
1042.8
  0
LINE
  8
0
 10
-8.64413
 20
1042.8
 11
-8.40915
 21
1042.93
  0
LINE
  8
0
 10
-8.40915
 20
1042.93
 11
-8.15984
 21
1043.03
  0
LINE
  8
0
 10
-8.15984
 20
1043.03
 11
-7.9001
 21
1043.1
  0
LINE
  8
0
 10
-7.9001
 20
1043.1
 11
-7.63406
 21
1043.13
  0
LINE
  8
0
 10
-7.63406
 20
1043.13
 11
-7.36592
 21
1043.13
  0
LINE
  8
0
 10
-7.36592
 20
1043.13
 11
-7.09988
 21
1043.1
  0
LINE
  8
0
 10
-7.09988
 20
1043.1
 11
-6.84015
 21
1043.03
  0
LINE
  8
0
 10
-6.84015
 20
1043.03
 11
-6.59084
 21
1042.93
  0
LINE
  8
0
 10
-6.59084
 20
1042.93
 11
-6.35585
 21
1042.8
  0
LINE
  8
0
 10
-6.35585
 20
1042.8
 11
-6.1389
 21
1042.65
  0
LINE
  8
0
 10
-6.1389
 20
1042.65
 11
-5.94344
 21
1042.46
  0
LINE
  8
0
 10
-5.94344
 20
1042.46
 11
-5.77251
 21
1042.26
  0
LINE
  8
0
 10
-5.77251
 20
1042.26
 11
-5.62881
 21
1042.03
  0
LINE
  8
0
 10
-5.62881
 20
1042.03
 11
-5.51465
 21
1041.79
  0
LINE
  8
0
 10
-5.51465
 20
1041.79
 11
-5.43178
 21
1041.53
  0
LINE
  8
0
 10
-5.43178
 20
1041.53
 11
-5.38153
 21
1041.27
  0
LINE
  8
0
 10
-5.38153
 20
1041.27
 11
-5.3647
 21
1041
  0
LINE
  8
0
 10
-5.3647
 20
1041
 11
-5.38153
 21
1040.73
  0
LINE
  8
0
 10
-5.38153
 20
1040.73
 11
-5.43178
 21
1040.47
  0
LINE
  8
0
 10
-5.43178
 20
1040.47
 11
-5.51465
 21
1040.21
  0
LINE
  8
0
 10
-5.51465
 20
1040.21
 11
-5.62881
 21
1039.97
  0
LINE
  8
0
 10
-5.62881
 20
1039.97
 11
-5.77251
 21
1039.74
  0
LINE
  8
0
 10
-5.77251
 20
1039.74
 11
-5.94344
 21
1039.54
  0
LINE
  8
0
 10
-5.94344
 20
1039.54
 11
-6.1389
 21
1039.35
  0
LINE
  8
0
 10
-6.1389
 20
1039.35
 11
-6.35585
 21
1039.2
  0
LINE
  8
0
 10
-6.35585
 20
1039.2
 11
-6.59084
 21
1039.07
  0
LINE
  8
0
 10
-6.59084
 20
1039.07
 11
-6.84015
 21
1038.97
  0
LINE
  8
0
 10
-6.84015
 20
1038.97
 11
-7.09988
 21
1038.9
  0
LINE
  8
0
 10
-7.09988
 20
1038.9
 11
-7.36592
 21
1038.87
  0
LINE
  8
0
 10
-7.36592
 20
1038.87
 11
-7.63406
 21
1038.87
  0
LINE
  8
0
 10
7.36592
 20
828.869
 11
7.09988
 21
828.903
  0
LINE
  8
0
 10
7.09988
 20
828.903
 11
6.84015
 21
828.969
  0
LINE
  8
0
 10
6.84015
 20
828.969
 11
6.59084
 21
829.068
  0
LINE
  8
0
 10
6.59084
 20
829.068
 11
6.35585
 21
829.197
  0
LINE
  8
0
 10
6.35585
 20
829.197
 11
6.1389
 21
829.355
  0
LINE
  8
0
 10
6.1389
 20
829.355
 11
5.94344
 21
829.538
  0
LINE
  8
0
 10
5.94344
 20
829.538
 11
5.77251
 21
829.745
  0
LINE
  8
0
 10
5.77251
 20
829.745
 11
5.62881
 21
829.971
  0
LINE
  8
0
 10
5.62881
 20
829.971
 11
5.51465
 21
830.214
  0
LINE
  8
0
 10
5.51465
 20
830.214
 11
5.43178
 21
830.469
  0
LINE
  8
0
 10
5.43178
 20
830.469
 11
5.38153
 21
830.732
  0
LINE
  8
0
 10
5.38153
 20
830.732
 11
5.3647
 21
831
  0
LINE
  8
0
 10
5.3647
 20
831
 11
5.38153
 21
831.268
  0
LINE
  8
0
 10
5.38153
 20
831.268
 11
5.43178
 21
831.531
  0
LINE
  8
0
 10
5.43178
 20
831.531
 11
5.51465
 21
831.786
  0
LINE
  8
0
 10
5.51465
 20
831.786
 11
5.62881
 21
832.029
  0
LINE
  8
0
 10
5.62881
 20
832.029
 11
5.77251
 21
832.255
  0
LINE
  8
0
 10
5.77251
 20
832.255
 11
5.94344
 21
832.462
  0
LINE
  8
0
 10
5.94344
 20
832.462
 11
6.1389
 21
832.645
  0
LINE
  8
0
 10
6.1389
 20
832.645
 11
6.35585
 21
832.803
  0
LINE
  8
0
 10
6.35585
 20
832.803
 11
6.59084
 21
832.932
  0
LINE
  8
0
 10
6.59084
 20
832.932
 11
6.84015
 21
833.031
  0
LINE
  8
0
 10
6.84015
 20
833.031
 11
7.09988
 21
833.097
  0
LINE
  8
0
 10
7.09988
 20
833.097
 11
7.36592
 21
833.131
  0
LINE
  8
0
 10
7.36592
 20
833.131
 11
7.63406
 21
833.131
  0
LINE
  8
0
 10
7.63406
 20
833.131
 11
7.9001
 21
833.097
  0
LINE
  8
0
 10
7.9001
 20
833.097
 11
8.15984
 21
833.031
  0
LINE
  8
0
 10
8.15984
 20
833.031
 11
8.40915
 21
832.932
  0
LINE
  8
0
 10
8.40915
 20
832.932
 11
8.64413
 21
832.803
  0
LINE
  8
0
 10
8.64413
 20
832.803
 11
8.86108
 21
832.645
  0
LINE
  8
0
 10
8.86108
 20
832.645
 11
9.05655
 21
832.462
  0
LINE
  8
0
 10
9.05655
 20
832.462
 11
9.22748
 21
832.255
  0
LINE
  8
0
 10
9.22748
 20
832.255
 11
9.37117
 21
832.029
  0
LINE
  8
0
 10
9.37117
 20
832.029
 11
9.48534
 21
831.786
  0
LINE
  8
0
 10
9.48534
 20
831.786
 11
9.56821
 21
831.531
  0
LINE
  8
0
 10
9.56821
 20
831.531
 11
9.61845
 21
831.268
  0
LINE
  8
0
 10
9.61845
 20
831.268
 11
9.63528
 21
831
  0
LINE
  8
0
 10
9.63528
 20
831
 11
9.61845
 21
830.732
  0
LINE
  8
0
 10
9.61845
 20
830.732
 11
9.56821
 21
830.469
  0
LINE
  8
0
 10
9.56821
 20
830.469
 11
9.48534
 21
830.214
  0
LINE
  8
0
 10
9.48534
 20
830.214
 11
9.37117
 21
829.971
  0
LINE
  8
0
 10
9.37117
 20
829.971
 11
9.22748
 21
829.745
  0
LINE
  8
0
 10
9.22748
 20
829.745
 11
9.05655
 21
829.538
  0
LINE
  8
0
 10
9.05655
 20
829.538
 11
8.86108
 21
829.355
  0
LINE
  8
0
 10
8.86108
 20
829.355
 11
8.64413
 21
829.197
  0
LINE
  8
0
 10
8.64413
 20
829.197
 11
8.40915
 21
829.068
  0
LINE
  8
0
 10
8.40915
 20
829.068
 11
8.15984
 21
828.969
  0
LINE
  8
0
 10
8.15984
 20
828.969
 11
7.9001
 21
828.903
  0
LINE
  8
0
 10
7.9001
 20
828.903
 11
7.63406
 21
828.869
  0
LINE
  8
0
 10
7.63406
 20
828.869
 11
7.36592
 21
828.869
  0
LINE
  8
0
 10
-7.63406
 20
828.869
 11
-7.9001
 21
828.903
  0
LINE
  8
0
 10
-7.9001
 20
828.903
 11
-8.15984
 21
828.969
  0
LINE
  8
0
 10
-8.15984
 20
828.969
 11
-8.40915
 21
829.068
  0
LINE
  8
0
 10
-8.40915
 20
829.068
 11
-8.64413
 21
829.197
  0
LINE
  8
0
 10
-8.64413
 20
829.197
 11
-8.86108
 21
829.355
  0
LINE
  8
0
 10
-8.86108
 20
829.355
 11
-9.05655
 21
829.538
  0
LINE
  8
0
 10
-9.05655
 20
829.538
 11
-9.22748
 21
829.745
  0
LINE
  8
0
 10
-9.22748
 20
829.745
 11
-9.37117
 21
829.971
  0
LINE
  8
0
 10
-9.37117
 20
829.971
 11
-9.48534
 21
830.214
  0
LINE
  8
0
 10
-9.48534
 20
830.214
 11
-9.56821
 21
830.469
  0
LINE
  8
0
 10
-9.56821
 20
830.469
 11
-9.61845
 21
830.732
  0
LINE
  8
0
 10
-9.61845
 20
830.732
 11
-9.63528
 21
831
  0
LINE
  8
0
 10
-9.63528
 20
831
 11
-9.61845
 21
831.268
  0
LINE
  8
0
 10
-9.61845
 20
831.268
 11
-9.56821
 21
831.531
  0
LINE
  8
0
 10
-9.56821
 20
831.531
 11
-9.48534
 21
831.786
  0
LINE
  8
0
 10
-9.48534
 20
831.786
 11
-9.37117
 21
832.029
  0
LINE
  8
0
 10
-9.37117
 20
832.029
 11
-9.22748
 21
832.255
  0
LINE
  8
0
 10
-9.22748
 20
832.255
 11
-9.05655
 21
832.462
  0
LINE
  8
0
 10
-9.05655
 20
832.462
 11
-8.86108
 21
832.645
  0
LINE
  8
0
 10
-8.86108
 20
832.645
 11
-8.64413
 21
832.803
  0
LINE
  8
0
 10
-8.64413
 20
832.803
 11
-8.40915
 21
832.932
  0
LINE
  8
0
 10
-8.40915
 20
832.932
 11
-8.15984
 21
833.031
  0
LINE
  8
0
 10
-8.15984
 20
833.031
 11
-7.9001
 21
833.097
  0
LINE
  8
0
 10
-7.9001
 20
833.097
 11
-7.63406
 21
833.131
  0
LINE
  8
0
 10
-7.63406
 20
833.131
 11
-7.36592
 21
833.131
  0
LINE
  8
0
 10
-7.36592
 20
833.131
 11
-7.09988
 21
833.097
  0
LINE
  8
0
 10
-7.09988
 20
833.097
 11
-6.84015
 21
833.031
  0
LINE
  8
0
 10
-6.84015
 20
833.031
 11
-6.59084
 21
832.932
  0
LINE
  8
0
 10
-6.59084
 20
832.932
 11
-6.35585
 21
832.803
  0
LINE
  8
0
 10
-6.35585
 20
832.803
 11
-6.1389
 21
832.645
  0
LINE
  8
0
 10
-6.1389
 20
832.645
 11
-5.94344
 21
832.462
  0
LINE
  8
0
 10
-5.94344
 20
832.462
 11
-5.77251
 21
832.255
  0
LINE
  8
0
 10
-5.77251
 20
832.255
 11
-5.62881
 21
832.029
  0
LINE
  8
0
 10
-5.62881
 20
832.029
 11
-5.51465
 21
831.786
  0
LINE
  8
0
 10
-5.51465
 20
831.786
 11
-5.43178
 21
831.531
  0
LINE
  8
0
 10
-5.43178
 20
831.531
 11
-5.38153
 21
831.268
  0
LINE
  8
0
 10
-5.38153
 20
831.268
 11
-5.3647
 21
831
  0
LINE
  8
0
 10
-5.3647
 20
831
 11
-5.38153
 21
830.732
  0
LINE
  8
0
 10
-5.38153
 20
830.732
 11
-5.43178
 21
830.469
  0
LINE
  8
0
 10
-5.43178
 20
830.469
 11
-5.51465
 21
830.214
  0
LINE
  8
0
 10
-5.51465
 20
830.214
 11
-5.62881
 21
829.971
  0
LINE
  8
0
 10
-5.62881
 20
829.971
 11
-5.77251
 21
829.745
  0
LINE
  8
0
 10
-5.77251
 20
829.745
 11
-5.94344
 21
829.538
  0
LINE
  8
0
 10
-5.94344
 20
829.538
 11
-6.1389
 21
829.355
  0
LINE
  8
0
 10
-6.1389
 20
829.355
 11
-6.35585
 21
829.197
  0
LINE
  8
0
 10
-6.35585
 20
829.197
 11
-6.59084
 21
829.068
  0
LINE
  8
0
 10
-6.59084
 20
829.068
 11
-6.84015
 21
828.969
  0
LINE
  8
0
 10
-6.84015
 20
828.969
 11
-7.09988
 21
828.903
  0
LINE
  8
0
 10
-7.09988
 20
828.903
 11
-7.36592
 21
828.869
  0
LINE
  8
0
 10
-7.36592
 20
828.869
 11
-7.63406
 21
828.869
  0
ENDSEC
  0
SECTION
  2
OBJECTS
  0
DICTIONARY
  0
ENDSEC
  0
EOF
