solid OpenSCAD_Model
  facet normal 0 -1 0
    outer loop
      vertex -2.01949 -3.49786 0
      vertex 2.01949 -3.49786 3.2
      vertex -2.01949 -3.49786 3.2
    endloop
  endfacet
  facet normal 0 -1 -0
    outer loop
      vertex 2.01949 -3.49786 3.2
      vertex -2.01949 -3.49786 0
      vertex 2.01949 -3.49786 0
    endloop
  endfacet
  facet normal 0 0 -1
    outer loop
      vertex 1.75261 -0.963507 0
      vertex 4.03899 0 0
      vertex 2.01949 -3.49786 0
    endloop
  endfacet
  facet normal 0 0 -1
    outer loop
      vertex 1.98423 0.250666 0
      vertex 4.03899 0 0
      vertex 2 0 0
    endloop
  endfacet
  facet normal -0 0 -1
    outer loop
      vertex 4.03899 0 0
      vertex 1.98423 -0.250666 0
      vertex 2 0 0
    endloop
  endfacet
  facet normal 0 0 -1
    outer loop
      vertex 4.03899 0 0
      vertex 1.93717 -0.497379 0
      vertex 1.98423 -0.250666 0
    endloop
  endfacet
  facet normal 0 0 -1
    outer loop
      vertex 4.03899 0 0
      vertex 1.85955 -0.736249 0
      vertex 1.93717 -0.497379 0
    endloop
  endfacet
  facet normal 0 0 -1
    outer loop
      vertex 4.03899 0 0
      vertex 1.75261 -0.963507 0
      vertex 1.85955 -0.736249 0
    endloop
  endfacet
  facet normal 0 0 -1
    outer loop
      vertex 2.01949 -3.49786 0
      vertex 1.61803 -1.17557 0
      vertex 1.75261 -0.963507 0
    endloop
  endfacet
  facet normal 0 0 -1
    outer loop
      vertex 2.01949 -3.49786 0
      vertex 1.45794 -1.36909 0
      vertex 1.61803 -1.17557 0
    endloop
  endfacet
  facet normal 0 0 -1
    outer loop
      vertex 2.01949 -3.49786 0
      vertex 1.27485 -1.54103 0
      vertex 1.45794 -1.36909 0
    endloop
  endfacet
  facet normal 0 0 -1
    outer loop
      vertex 2.01949 -3.49786 0
      vertex 1.07165 -1.68865 0
      vertex 1.27485 -1.54103 0
    endloop
  endfacet
  facet normal 0 0 -1
    outer loop
      vertex 2.01949 -3.49786 0
      vertex 0.851558 -1.80965 0
      vertex 1.07165 -1.68865 0
    endloop
  endfacet
  facet normal 0 0 -1
    outer loop
      vertex 2.01949 -3.49786 0
      vertex 0.618033 -1.90211 0
      vertex 0.851558 -1.80965 0
    endloop
  endfacet
  facet normal 0 0 -1
    outer loop
      vertex 2.01949 -3.49786 0
      vertex 0.374763 -1.96457 0
      vertex 0.618033 -1.90211 0
    endloop
  endfacet
  facet normal 0 0 -1
    outer loop
      vertex 2.01949 -3.49786 0
      vertex 0.125581 -1.99605 0
      vertex 0.374763 -1.96457 0
    endloop
  endfacet
  facet normal 0 0 -1
    outer loop
      vertex 2.01949 -3.49786 0
      vertex -0.125581 -1.99605 0
      vertex 0.125581 -1.99605 0
    endloop
  endfacet
  facet normal 0 0 -1
    outer loop
      vertex -2.01949 -3.49786 0
      vertex -0.125581 -1.99605 0
      vertex 2.01949 -3.49786 0
    endloop
  endfacet
  facet normal -0 0 -1
    outer loop
      vertex -0.125581 -1.99605 0
      vertex -2.01949 -3.49786 0
      vertex -0.374763 -1.96457 0
    endloop
  endfacet
  facet normal -0 0 -1
    outer loop
      vertex -0.374763 -1.96457 0
      vertex -2.01949 -3.49786 0
      vertex -0.618033 -1.90211 0
    endloop
  endfacet
  facet normal -0 0 -1
    outer loop
      vertex -0.618033 -1.90211 0
      vertex -2.01949 -3.49786 0
      vertex -0.851558 -1.80965 0
    endloop
  endfacet
  facet normal 0 0 -1
    outer loop
      vertex -1.93717 -0.497379 0
      vertex -4.03899 0 0
      vertex -1.98423 -0.250666 0
    endloop
  endfacet
  facet normal 0 0 -1
    outer loop
      vertex -1.85955 -0.736249 0
      vertex -4.03899 0 0
      vertex -1.93717 -0.497379 0
    endloop
  endfacet
  facet normal 0 0 -1
    outer loop
      vertex -1.75261 -0.963507 0
      vertex -4.03899 0 0
      vertex -1.85955 -0.736249 0
    endloop
  endfacet
  facet normal 0 0 -1
    outer loop
      vertex -4.03899 0 0
      vertex -1.75261 -0.963507 0
      vertex -2.01949 -3.49786 0
    endloop
  endfacet
  facet normal -0 0 -1
    outer loop
      vertex -1.61803 -1.17557 0
      vertex -2.01949 -3.49786 0
      vertex -1.75261 -0.963507 0
    endloop
  endfacet
  facet normal -0 0 -1
    outer loop
      vertex -1.45794 -1.36909 0
      vertex -2.01949 -3.49786 0
      vertex -1.61803 -1.17557 0
    endloop
  endfacet
  facet normal -0 0 -1
    outer loop
      vertex -1.27485 -1.54103 0
      vertex -2.01949 -3.49786 0
      vertex -1.45794 -1.36909 0
    endloop
  endfacet
  facet normal -0 0 -1
    outer loop
      vertex -1.07165 -1.68865 0
      vertex -2.01949 -3.49786 0
      vertex -1.27485 -1.54103 0
    endloop
  endfacet
  facet normal -0 0 -1
    outer loop
      vertex -0.851558 -1.80965 0
      vertex -2.01949 -3.49786 0
      vertex -1.07165 -1.68865 0
    endloop
  endfacet
  facet normal 0 0 -1
    outer loop
      vertex 1.93717 0.497379 0
      vertex 4.03899 0 0
      vertex 1.98423 0.250666 0
    endloop
  endfacet
  facet normal 0 0 -1
    outer loop
      vertex 1.85955 0.736249 0
      vertex 4.03899 0 0
      vertex 1.93717 0.497379 0
    endloop
  endfacet
  facet normal 0 0 -1
    outer loop
      vertex 1.75261 0.963507 0
      vertex 4.03899 0 0
      vertex 1.85955 0.736249 0
    endloop
  endfacet
  facet normal 0 0 -1
    outer loop
      vertex 4.03899 0 0
      vertex 1.75261 0.963507 0
      vertex 2.01949 3.49786 0
    endloop
  endfacet
  facet normal 0 0 -1
    outer loop
      vertex 1.61803 1.17557 0
      vertex 2.01949 3.49786 0
      vertex 1.75261 0.963507 0
    endloop
  endfacet
  facet normal 0 0 -1
    outer loop
      vertex 1.45794 1.36909 0
      vertex 2.01949 3.49786 0
      vertex 1.61803 1.17557 0
    endloop
  endfacet
  facet normal 0 0 -1
    outer loop
      vertex 1.27485 1.54103 0
      vertex 2.01949 3.49786 0
      vertex 1.45794 1.36909 0
    endloop
  endfacet
  facet normal 0 0 -1
    outer loop
      vertex 1.07165 1.68865 0
      vertex 2.01949 3.49786 0
      vertex 1.27485 1.54103 0
    endloop
  endfacet
  facet normal 0 0 -1
    outer loop
      vertex 0.851558 1.80965 0
      vertex 2.01949 3.49786 0
      vertex 1.07165 1.68865 0
    endloop
  endfacet
  facet normal 0 0 -1
    outer loop
      vertex 0.618033 1.90211 0
      vertex 2.01949 3.49786 0
      vertex 0.851558 1.80965 0
    endloop
  endfacet
  facet normal 0 0 -1
    outer loop
      vertex 0.374763 1.96457 0
      vertex 2.01949 3.49786 0
      vertex 0.618033 1.90211 0
    endloop
  endfacet
  facet normal 0 0 -1
    outer loop
      vertex 0.125581 1.99605 0
      vertex 2.01949 3.49786 0
      vertex 0.374763 1.96457 0
    endloop
  endfacet
  facet normal 0 0 -1
    outer loop
      vertex -0.125581 1.99605 0
      vertex 2.01949 3.49786 0
      vertex 0.125581 1.99605 0
    endloop
  endfacet
  facet normal 0 0 -1
    outer loop
      vertex -2.01949 3.49786 0
      vertex -0.125581 1.99605 0
      vertex -0.374763 1.96457 0
    endloop
  endfacet
  facet normal 0 0 -1
    outer loop
      vertex -2.01949 3.49786 0
      vertex -0.374763 1.96457 0
      vertex -0.618033 1.90211 0
    endloop
  endfacet
  facet normal 0 0 -1
    outer loop
      vertex -2.01949 3.49786 0
      vertex -0.618033 1.90211 0
      vertex -0.851558 1.80965 0
    endloop
  endfacet
  facet normal 0 0 -1
    outer loop
      vertex -2.01949 3.49786 0
      vertex -0.851558 1.80965 0
      vertex -1.07165 1.68865 0
    endloop
  endfacet
  facet normal 0 0 -1
    outer loop
      vertex -0.125581 1.99605 0
      vertex -2.01949 3.49786 0
      vertex 2.01949 3.49786 0
    endloop
  endfacet
  facet normal 0 0 -1
    outer loop
      vertex -1.27485 1.54103 0
      vertex -2.01949 3.49786 0
      vertex -1.07165 1.68865 0
    endloop
  endfacet
  facet normal 0 0 -1
    outer loop
      vertex -1.45794 1.36909 0
      vertex -2.01949 3.49786 0
      vertex -1.27485 1.54103 0
    endloop
  endfacet
  facet normal 0 0 -1
    outer loop
      vertex -1.61803 1.17557 0
      vertex -2.01949 3.49786 0
      vertex -1.45794 1.36909 0
    endloop
  endfacet
  facet normal 0 0 -1
    outer loop
      vertex -1.75261 0.963507 0
      vertex -2.01949 3.49786 0
      vertex -1.61803 1.17557 0
    endloop
  endfacet
  facet normal 0 0 -1
    outer loop
      vertex -4.03899 0 0
      vertex -1.75261 0.963507 0
      vertex -1.85955 0.736249 0
    endloop
  endfacet
  facet normal 0 0 -1
    outer loop
      vertex -4.03899 0 0
      vertex -1.85955 0.736249 0
      vertex -1.93717 0.497379 0
    endloop
  endfacet
  facet normal 0 0 -1
    outer loop
      vertex -4.03899 0 0
      vertex -1.93717 0.497379 0
      vertex -1.98423 0.250666 0
    endloop
  endfacet
  facet normal 0 0 -1
    outer loop
      vertex -4.03899 0 0
      vertex -1.98423 0.250666 0
      vertex -2 0 0
    endloop
  endfacet
  facet normal 0 0 -1
    outer loop
      vertex -1.98423 -0.250666 0
      vertex -4.03899 0 0
      vertex -2 0 0
    endloop
  endfacet
  facet normal -0 0 -1
    outer loop
      vertex -1.75261 0.963507 0
      vertex -4.03899 0 0
      vertex -2.01949 3.49786 0
    endloop
  endfacet
  facet normal 0.866024 -0.500002 1.98641e-17
    outer loop
      vertex 2.01949 -3.49786 3.2
      vertex 4.03899 0 0
      vertex 4.03899 0 3.2
    endloop
  endfacet
  facet normal 0.866024 -0.500002 1.98641e-17
    outer loop
      vertex 4.03899 0 0
      vertex 2.01949 -3.49786 3.2
      vertex 2.01949 -3.49786 0
    endloop
  endfacet
  facet normal 0.866024 0.500002 -1.98641e-17
    outer loop
      vertex 4.03899 0 3.2
      vertex 2.01949 3.49786 0
      vertex 2.01949 3.49786 3.2
    endloop
  endfacet
  facet normal 0.866024 0.500002 -1.98641e-17
    outer loop
      vertex 2.01949 3.49786 0
      vertex 4.03899 0 3.2
      vertex 4.03899 0 0
    endloop
  endfacet
  facet normal -0.866024 0.500002 1.98641e-17
    outer loop
      vertex -4.03899 0 0
      vertex -2.01949 3.49786 3.2
      vertex -2.01949 3.49786 0
    endloop
  endfacet
  facet normal -0.866024 0.500002 1.98641e-17
    outer loop
      vertex -2.01949 3.49786 3.2
      vertex -4.03899 0 0
      vertex -4.03899 0 3.2
    endloop
  endfacet
  facet normal -0 0 1
    outer loop
      vertex 1.75261 0.963507 3.2
      vertex 4.03899 0 3.2
      vertex 2.01949 3.49786 3.2
    endloop
  endfacet
  facet normal 0 0 1
    outer loop
      vertex 1.98423 -0.250666 3.2
      vertex 4.03899 0 3.2
      vertex 2 0 3.2
    endloop
  endfacet
  facet normal 0 0 1
    outer loop
      vertex 4.03899 0 3.2
      vertex 1.98423 0.250666 3.2
      vertex 2 0 3.2
    endloop
  endfacet
  facet normal 0 0 1
    outer loop
      vertex 4.03899 0 3.2
      vertex 1.93717 0.497379 3.2
      vertex 1.98423 0.250666 3.2
    endloop
  endfacet
  facet normal 0 0 1
    outer loop
      vertex 4.03899 0 3.2
      vertex 1.85955 0.736249 3.2
      vertex 1.93717 0.497379 3.2
    endloop
  endfacet
  facet normal 0 0 1
    outer loop
      vertex 4.03899 0 3.2
      vertex 1.75261 0.963507 3.2
      vertex 1.85955 0.736249 3.2
    endloop
  endfacet
  facet normal 0 0 1
    outer loop
      vertex 2.01949 3.49786 3.2
      vertex 1.61803 1.17557 3.2
      vertex 1.75261 0.963507 3.2
    endloop
  endfacet
  facet normal 0 0 1
    outer loop
      vertex 2.01949 3.49786 3.2
      vertex 1.45794 1.36909 3.2
      vertex 1.61803 1.17557 3.2
    endloop
  endfacet
  facet normal 0 0 1
    outer loop
      vertex 2.01949 3.49786 3.2
      vertex 1.27485 1.54103 3.2
      vertex 1.45794 1.36909 3.2
    endloop
  endfacet
  facet normal 0 0 1
    outer loop
      vertex 2.01949 3.49786 3.2
      vertex 1.07165 1.68865 3.2
      vertex 1.27485 1.54103 3.2
    endloop
  endfacet
  facet normal 0 0 1
    outer loop
      vertex 2.01949 3.49786 3.2
      vertex 0.851558 1.80965 3.2
      vertex 1.07165 1.68865 3.2
    endloop
  endfacet
  facet normal 0 0 1
    outer loop
      vertex 2.01949 3.49786 3.2
      vertex 0.618033 1.90211 3.2
      vertex 0.851558 1.80965 3.2
    endloop
  endfacet
  facet normal 0 0 1
    outer loop
      vertex 2.01949 3.49786 3.2
      vertex 0.374763 1.96457 3.2
      vertex 0.618033 1.90211 3.2
    endloop
  endfacet
  facet normal 0 0 1
    outer loop
      vertex 2.01949 3.49786 3.2
      vertex 0.125581 1.99605 3.2
      vertex 0.374763 1.96457 3.2
    endloop
  endfacet
  facet normal 0 0 1
    outer loop
      vertex 2.01949 3.49786 3.2
      vertex -0.125581 1.99605 3.2
      vertex 0.125581 1.99605 3.2
    endloop
  endfacet
  facet normal -0 0 1
    outer loop
      vertex -2.01949 3.49786 3.2
      vertex -0.125581 1.99605 3.2
      vertex 2.01949 3.49786 3.2
    endloop
  endfacet
  facet normal 0 0 1
    outer loop
      vertex -0.125581 1.99605 3.2
      vertex -2.01949 3.49786 3.2
      vertex -0.374763 1.96457 3.2
    endloop
  endfacet
  facet normal 0 0 1
    outer loop
      vertex -0.374763 1.96457 3.2
      vertex -2.01949 3.49786 3.2
      vertex -0.618033 1.90211 3.2
    endloop
  endfacet
  facet normal 0 0 1
    outer loop
      vertex -0.618033 1.90211 3.2
      vertex -2.01949 3.49786 3.2
      vertex -0.851558 1.80965 3.2
    endloop
  endfacet
  facet normal 0 0 1
    outer loop
      vertex -1.93717 0.497379 3.2
      vertex -4.03899 0 3.2
      vertex -1.98423 0.250666 3.2
    endloop
  endfacet
  facet normal 0 0 1
    outer loop
      vertex -1.85955 0.736249 3.2
      vertex -4.03899 0 3.2
      vertex -1.93717 0.497379 3.2
    endloop
  endfacet
  facet normal 0 0 1
    outer loop
      vertex -1.75261 0.963507 3.2
      vertex -4.03899 0 3.2
      vertex -1.85955 0.736249 3.2
    endloop
  endfacet
  facet normal 0 0 1
    outer loop
      vertex -4.03899 0 3.2
      vertex -1.75261 0.963507 3.2
      vertex -2.01949 3.49786 3.2
    endloop
  endfacet
  facet normal 0 0 1
    outer loop
      vertex -1.61803 1.17557 3.2
      vertex -2.01949 3.49786 3.2
      vertex -1.75261 0.963507 3.2
    endloop
  endfacet
  facet normal 0 0 1
    outer loop
      vertex -1.45794 1.36909 3.2
      vertex -2.01949 3.49786 3.2
      vertex -1.61803 1.17557 3.2
    endloop
  endfacet
  facet normal 0 0 1
    outer loop
      vertex -1.27485 1.54103 3.2
      vertex -2.01949 3.49786 3.2
      vertex -1.45794 1.36909 3.2
    endloop
  endfacet
  facet normal 0 0 1
    outer loop
      vertex -1.07165 1.68865 3.2
      vertex -2.01949 3.49786 3.2
      vertex -1.27485 1.54103 3.2
    endloop
  endfacet
  facet normal 0 0 1
    outer loop
      vertex -0.851558 1.80965 3.2
      vertex -2.01949 3.49786 3.2
      vertex -1.07165 1.68865 3.2
    endloop
  endfacet
  facet normal 0 0 1
    outer loop
      vertex 1.93717 -0.497379 3.2
      vertex 4.03899 0 3.2
      vertex 1.98423 -0.250666 3.2
    endloop
  endfacet
  facet normal 0 0 1
    outer loop
      vertex 1.85955 -0.736249 3.2
      vertex 4.03899 0 3.2
      vertex 1.93717 -0.497379 3.2
    endloop
  endfacet
  facet normal 0 0 1
    outer loop
      vertex 1.75261 -0.963507 3.2
      vertex 4.03899 0 3.2
      vertex 1.85955 -0.736249 3.2
    endloop
  endfacet
  facet normal 0 0 1
    outer loop
      vertex 4.03899 0 3.2
      vertex 1.75261 -0.963507 3.2
      vertex 2.01949 -3.49786 3.2
    endloop
  endfacet
  facet normal -0 0 1
    outer loop
      vertex 1.61803 -1.17557 3.2
      vertex 2.01949 -3.49786 3.2
      vertex 1.75261 -0.963507 3.2
    endloop
  endfacet
  facet normal -0 0 1
    outer loop
      vertex 1.45794 -1.36909 3.2
      vertex 2.01949 -3.49786 3.2
      vertex 1.61803 -1.17557 3.2
    endloop
  endfacet
  facet normal -0 0 1
    outer loop
      vertex 1.27485 -1.54103 3.2
      vertex 2.01949 -3.49786 3.2
      vertex 1.45794 -1.36909 3.2
    endloop
  endfacet
  facet normal -0 0 1
    outer loop
      vertex 1.07165 -1.68865 3.2
      vertex 2.01949 -3.49786 3.2
      vertex 1.27485 -1.54103 3.2
    endloop
  endfacet
  facet normal -0 0 1
    outer loop
      vertex 0.851558 -1.80965 3.2
      vertex 2.01949 -3.49786 3.2
      vertex 1.07165 -1.68865 3.2
    endloop
  endfacet
  facet normal -0 0 1
    outer loop
      vertex 0.618033 -1.90211 3.2
      vertex 2.01949 -3.49786 3.2
      vertex 0.851558 -1.80965 3.2
    endloop
  endfacet
  facet normal -0 0 1
    outer loop
      vertex 0.374763 -1.96457 3.2
      vertex 2.01949 -3.49786 3.2
      vertex 0.618033 -1.90211 3.2
    endloop
  endfacet
  facet normal -0 0 1
    outer loop
      vertex 0.125581 -1.99605 3.2
      vertex 2.01949 -3.49786 3.2
      vertex 0.374763 -1.96457 3.2
    endloop
  endfacet
  facet normal -0 0 1
    outer loop
      vertex -0.125581 -1.99605 3.2
      vertex 2.01949 -3.49786 3.2
      vertex 0.125581 -1.99605 3.2
    endloop
  endfacet
  facet normal 0 0 1
    outer loop
      vertex -2.01949 -3.49786 3.2
      vertex -0.125581 -1.99605 3.2
      vertex -0.374763 -1.96457 3.2
    endloop
  endfacet
  facet normal 0 0 1
    outer loop
      vertex -2.01949 -3.49786 3.2
      vertex -0.374763 -1.96457 3.2
      vertex -0.618033 -1.90211 3.2
    endloop
  endfacet
  facet normal 0 0 1
    outer loop
      vertex -2.01949 -3.49786 3.2
      vertex -0.618033 -1.90211 3.2
      vertex -0.851558 -1.80965 3.2
    endloop
  endfacet
  facet normal 0 0 1
    outer loop
      vertex -2.01949 -3.49786 3.2
      vertex -0.851558 -1.80965 3.2
      vertex -1.07165 -1.68865 3.2
    endloop
  endfacet
  facet normal 0 0 1
    outer loop
      vertex -0.125581 -1.99605 3.2
      vertex -2.01949 -3.49786 3.2
      vertex 2.01949 -3.49786 3.2
    endloop
  endfacet
  facet normal 0 0 1
    outer loop
      vertex -1.27485 -1.54103 3.2
      vertex -2.01949 -3.49786 3.2
      vertex -1.07165 -1.68865 3.2
    endloop
  endfacet
  facet normal 0 0 1
    outer loop
      vertex -1.45794 -1.36909 3.2
      vertex -2.01949 -3.49786 3.2
      vertex -1.27485 -1.54103 3.2
    endloop
  endfacet
  facet normal 0 0 1
    outer loop
      vertex -1.61803 -1.17557 3.2
      vertex -2.01949 -3.49786 3.2
      vertex -1.45794 -1.36909 3.2
    endloop
  endfacet
  facet normal 0 0 1
    outer loop
      vertex -1.75261 -0.963507 3.2
      vertex -2.01949 -3.49786 3.2
      vertex -1.61803 -1.17557 3.2
    endloop
  endfacet
  facet normal 0 0 1
    outer loop
      vertex -4.03899 0 3.2
      vertex -1.75261 -0.963507 3.2
      vertex -1.85955 -0.736249 3.2
    endloop
  endfacet
  facet normal 0 0 1
    outer loop
      vertex -4.03899 0 3.2
      vertex -1.85955 -0.736249 3.2
      vertex -1.93717 -0.497379 3.2
    endloop
  endfacet
  facet normal 0 0 1
    outer loop
      vertex -4.03899 0 3.2
      vertex -1.93717 -0.497379 3.2
      vertex -1.98423 -0.250666 3.2
    endloop
  endfacet
  facet normal -0 0 1
    outer loop
      vertex -4.03899 0 3.2
      vertex -1.98423 -0.250666 3.2
      vertex -2 0 3.2
    endloop
  endfacet
  facet normal 0 0 1
    outer loop
      vertex -1.98423 0.250666 3.2
      vertex -4.03899 0 3.2
      vertex -2 0 3.2
    endloop
  endfacet
  facet normal 0 0 1
    outer loop
      vertex -1.75261 -0.963507 3.2
      vertex -4.03899 0 3.2
      vertex -2.01949 -3.49786 3.2
    endloop
  endfacet
  facet normal 0 1 -0
    outer loop
      vertex 2.01949 3.49786 0
      vertex -2.01949 3.49786 3.2
      vertex 2.01949 3.49786 3.2
    endloop
  endfacet
  facet normal 0 1 0
    outer loop
      vertex -2.01949 3.49786 3.2
      vertex 2.01949 3.49786 0
      vertex -2.01949 3.49786 0
    endloop
  endfacet
  facet normal -0.866024 -0.500002 -1.98641e-17
    outer loop
      vertex -2.01949 -3.49786 0
      vertex -4.03899 0 3.2
      vertex -4.03899 0 0
    endloop
  endfacet
  facet normal -0.866024 -0.500002 -1.98641e-17
    outer loop
      vertex -4.03899 0 3.2
      vertex -2.01949 -3.49786 0
      vertex -2.01949 -3.49786 3.2
    endloop
  endfacet
  facet normal -0.998027 -0.0627883 -7.48265e-20
    outer loop
      vertex 2 0 0
      vertex 1.98423 0.250666 3.2
      vertex 1.98423 0.250666 0
    endloop
  endfacet
  facet normal -0.998027 -0.0627883 -7.48265e-20
    outer loop
      vertex 1.98423 0.250666 3.2
      vertex 2 0 0
      vertex 2 0 3.2
    endloop
  endfacet
  facet normal 0.998027 -0.0627883 7.48265e-20
    outer loop
      vertex -2 0 3.2
      vertex -1.98423 0.250666 0
      vertex -1.98423 0.250666 3.2
    endloop
  endfacet
  facet normal 0.998027 -0.0627883 7.48265e-20
    outer loop
      vertex -1.98423 0.250666 0
      vertex -2 0 3.2
      vertex -2 0 0
    endloop
  endfacet
  facet normal 0 -1 0
    outer loop
      vertex -0.125581 1.99605 0
      vertex 0.125581 1.99605 3.2
      vertex -0.125581 1.99605 3.2
    endloop
  endfacet
  facet normal 0 -1 -0
    outer loop
      vertex 0.125581 1.99605 3.2
      vertex -0.125581 1.99605 0
      vertex 0.125581 1.99605 0
    endloop
  endfacet
  facet normal 0 1 -0
    outer loop
      vertex 0.125581 -1.99605 0
      vertex -0.125581 -1.99605 3.2
      vertex 0.125581 -1.99605 3.2
    endloop
  endfacet
  facet normal 0 1 0
    outer loop
      vertex -0.125581 -1.99605 3.2
      vertex 0.125581 -1.99605 0
      vertex -0.125581 -1.99605 0
    endloop
  endfacet
  facet normal -0.684562 -0.728955 0
    outer loop
      vertex 1.27485 1.54103 0
      vertex 1.45794 1.36909 3.2
      vertex 1.27485 1.54103 3.2
    endloop
  endfacet
  facet normal -0.684562 -0.728955 -0
    outer loop
      vertex 1.45794 1.36909 3.2
      vertex 1.27485 1.54103 0
      vertex 1.45794 1.36909 0
    endloop
  endfacet
  facet normal 0.684562 -0.728955 0
    outer loop
      vertex -1.45794 1.36909 0
      vertex -1.27485 1.54103 3.2
      vertex -1.45794 1.36909 3.2
    endloop
  endfacet
  facet normal 0.684562 -0.728955 0
    outer loop
      vertex -1.27485 1.54103 3.2
      vertex -1.45794 1.36909 0
      vertex -1.27485 1.54103 0
    endloop
  endfacet
  facet normal 0.368128 -0.929775 0
    outer loop
      vertex -0.851558 1.80965 0
      vertex -0.618033 1.90211 3.2
      vertex -0.851558 1.80965 3.2
    endloop
  endfacet
  facet normal 0.368128 -0.929775 0
    outer loop
      vertex -0.618033 1.90211 3.2
      vertex -0.851558 1.80965 0
      vertex -0.618033 1.90211 0
    endloop
  endfacet
  facet normal -0.904826 -0.425781 -1.61878e-18
    outer loop
      vertex 1.85955 0.736249 0
      vertex 1.75261 0.963507 3.2
      vertex 1.75261 0.963507 0
    endloop
  endfacet
  facet normal -0.904826 -0.425781 -1.61878e-18
    outer loop
      vertex 1.75261 0.963507 3.2
      vertex 1.85955 0.736249 0
      vertex 1.85955 0.736249 3.2
    endloop
  endfacet
  facet normal -0.982289 -0.18737 -4.76361e-19
    outer loop
      vertex 1.98423 0.250666 0
      vertex 1.93717 0.497379 3.2
      vertex 1.93717 0.497379 0
    endloop
  endfacet
  facet normal -0.982289 -0.18737 -4.76361e-19
    outer loop
      vertex 1.93717 0.497379 3.2
      vertex 1.98423 0.250666 0
      vertex 1.98423 0.250666 3.2
    endloop
  endfacet
  facet normal -0.368128 -0.929775 0
    outer loop
      vertex 0.618033 1.90211 0
      vertex 0.851558 1.80965 3.2
      vertex 0.618033 1.90211 3.2
    endloop
  endfacet
  facet normal -0.368128 -0.929775 -0
    outer loop
      vertex 0.851558 1.80965 3.2
      vertex 0.618033 1.90211 0
      vertex 0.851558 1.80965 0
    endloop
  endfacet
  facet normal -0.58775 -0.809042 0
    outer loop
      vertex 1.07165 1.68865 0
      vertex 1.27485 1.54103 3.2
      vertex 1.07165 1.68865 3.2
    endloop
  endfacet
  facet normal -0.58775 -0.809042 -0
    outer loop
      vertex 1.27485 1.54103 3.2
      vertex 1.07165 1.68865 0
      vertex 1.27485 1.54103 0
    endloop
  endfacet
  facet normal 0.904826 -0.425781 1.61878e-18
    outer loop
      vertex -1.85955 0.736249 3.2
      vertex -1.75261 0.963507 0
      vertex -1.75261 0.963507 3.2
    endloop
  endfacet
  facet normal 0.904826 -0.425781 1.61878e-18
    outer loop
      vertex -1.75261 0.963507 0
      vertex -1.85955 0.736249 3.2
      vertex -1.85955 0.736249 0
    endloop
  endfacet
  facet normal 0.951049 -0.30904 1.97287e-18
    outer loop
      vertex -1.93717 0.497379 3.2
      vertex -1.85955 0.736249 0
      vertex -1.85955 0.736249 3.2
    endloop
  endfacet
  facet normal 0.951049 -0.30904 1.97287e-18
    outer loop
      vertex -1.85955 0.736249 0
      vertex -1.93717 0.497379 3.2
      vertex -1.93717 0.497379 0
    endloop
  endfacet
  facet normal 0.481764 -0.876301 0
    outer loop
      vertex -1.07165 1.68865 0
      vertex -0.851558 1.80965 3.2
      vertex -1.07165 1.68865 3.2
    endloop
  endfacet
  facet normal 0.481764 -0.876301 0
    outer loop
      vertex -0.851558 1.80965 3.2
      vertex -1.07165 1.68865 0
      vertex -0.851558 1.80965 0
    endloop
  endfacet
  facet normal 0.248686 -0.968584 0
    outer loop
      vertex -0.618033 1.90211 0
      vertex -0.374763 1.96457 3.2
      vertex -0.618033 1.90211 3.2
    endloop
  endfacet
  facet normal 0.248686 -0.968584 0
    outer loop
      vertex -0.374763 1.96457 3.2
      vertex -0.618033 1.90211 0
      vertex -0.374763 1.96457 0
    endloop
  endfacet
  facet normal -0.368128 0.929775 0
    outer loop
      vertex 0.851558 -1.80965 0
      vertex 0.618033 -1.90211 3.2
      vertex 0.851558 -1.80965 3.2
    endloop
  endfacet
  facet normal -0.368128 0.929775 0
    outer loop
      vertex 0.618033 -1.90211 3.2
      vertex 0.851558 -1.80965 0
      vertex 0.618033 -1.90211 0
    endloop
  endfacet
  facet normal -0.951049 -0.30904 -1.97287e-18
    outer loop
      vertex 1.93717 0.497379 0
      vertex 1.85955 0.736249 3.2
      vertex 1.85955 0.736249 0
    endloop
  endfacet
  facet normal -0.951049 -0.30904 -1.97287e-18
    outer loop
      vertex 1.85955 0.736249 3.2
      vertex 1.93717 0.497379 0
      vertex 1.93717 0.497379 3.2
    endloop
  endfacet
  facet normal -0.77052 -0.637415 -3.92059e-19
    outer loop
      vertex 1.61803 1.17557 0
      vertex 1.45794 1.36909 3.2
      vertex 1.45794 1.36909 0
    endloop
  endfacet
  facet normal -0.77052 -0.637415 -3.92059e-19
    outer loop
      vertex 1.45794 1.36909 3.2
      vertex 1.61803 1.17557 0
      vertex 1.61803 1.17557 3.2
    endloop
  endfacet
  facet normal -0.844327 -0.535829 1.37638e-18
    outer loop
      vertex 1.75261 0.963507 0
      vertex 1.61803 1.17557 3.2
      vertex 1.61803 1.17557 0
    endloop
  endfacet
  facet normal -0.844327 -0.535829 1.37638e-18
    outer loop
      vertex 1.61803 1.17557 3.2
      vertex 1.75261 0.963507 0
      vertex 1.75261 0.963507 3.2
    endloop
  endfacet
  facet normal -0.248686 -0.968584 0
    outer loop
      vertex 0.374763 1.96457 0
      vertex 0.618033 1.90211 3.2
      vertex 0.374763 1.96457 3.2
    endloop
  endfacet
  facet normal -0.248686 -0.968584 -0
    outer loop
      vertex 0.618033 1.90211 3.2
      vertex 0.374763 1.96457 0
      vertex 0.618033 1.90211 0
    endloop
  endfacet
  facet normal -0.125337 -0.992114 0
    outer loop
      vertex 0.125581 1.99605 0
      vertex 0.374763 1.96457 3.2
      vertex 0.125581 1.99605 3.2
    endloop
  endfacet
  facet normal -0.125337 -0.992114 -0
    outer loop
      vertex 0.374763 1.96457 3.2
      vertex 0.125581 1.99605 0
      vertex 0.374763 1.96457 0
    endloop
  endfacet
  facet normal -0.481764 -0.876301 0
    outer loop
      vertex 0.851558 1.80965 0
      vertex 1.07165 1.68865 3.2
      vertex 0.851558 1.80965 3.2
    endloop
  endfacet
  facet normal -0.481764 -0.876301 -0
    outer loop
      vertex 1.07165 1.68865 3.2
      vertex 0.851558 1.80965 0
      vertex 1.07165 1.68865 0
    endloop
  endfacet
  facet normal 0.844327 -0.535829 -1.37638e-18
    outer loop
      vertex -1.75261 0.963507 3.2
      vertex -1.61803 1.17557 0
      vertex -1.61803 1.17557 3.2
    endloop
  endfacet
  facet normal 0.844327 -0.535829 -1.37638e-18
    outer loop
      vertex -1.61803 1.17557 0
      vertex -1.75261 0.963507 3.2
      vertex -1.75261 0.963507 0
    endloop
  endfacet
  facet normal 0.77052 -0.637415 3.92059e-19
    outer loop
      vertex -1.61803 1.17557 3.2
      vertex -1.45794 1.36909 0
      vertex -1.45794 1.36909 3.2
    endloop
  endfacet
  facet normal 0.77052 -0.637415 3.92059e-19
    outer loop
      vertex -1.45794 1.36909 0
      vertex -1.61803 1.17557 3.2
      vertex -1.61803 1.17557 0
    endloop
  endfacet
  facet normal 0.982289 -0.18737 4.76361e-19
    outer loop
      vertex -1.98423 0.250666 3.2
      vertex -1.93717 0.497379 0
      vertex -1.93717 0.497379 3.2
    endloop
  endfacet
  facet normal 0.982289 -0.18737 4.76361e-19
    outer loop
      vertex -1.93717 0.497379 0
      vertex -1.98423 0.250666 3.2
      vertex -1.98423 0.250666 0
    endloop
  endfacet
  facet normal 0.58775 -0.809042 0
    outer loop
      vertex -1.27485 1.54103 0
      vertex -1.07165 1.68865 3.2
      vertex -1.27485 1.54103 3.2
    endloop
  endfacet
  facet normal 0.58775 -0.809042 0
    outer loop
      vertex -1.07165 1.68865 3.2
      vertex -1.27485 1.54103 0
      vertex -1.07165 1.68865 0
    endloop
  endfacet
  facet normal 0.125337 -0.992114 0
    outer loop
      vertex -0.374763 1.96457 0
      vertex -0.125581 1.99605 3.2
      vertex -0.374763 1.96457 3.2
    endloop
  endfacet
  facet normal 0.125337 -0.992114 0
    outer loop
      vertex -0.125581 1.99605 3.2
      vertex -0.374763 1.96457 0
      vertex -0.125581 1.99605 0
    endloop
  endfacet
  facet normal -0.998027 0.0627883 7.48265e-20
    outer loop
      vertex 1.98423 -0.250666 0
      vertex 2 0 3.2
      vertex 2 0 0
    endloop
  endfacet
  facet normal -0.998027 0.0627883 7.48265e-20
    outer loop
      vertex 2 0 3.2
      vertex 1.98423 -0.250666 0
      vertex 1.98423 -0.250666 3.2
    endloop
  endfacet
  facet normal -0.982289 0.18737 4.76361e-19
    outer loop
      vertex 1.93717 -0.497379 0
      vertex 1.98423 -0.250666 3.2
      vertex 1.98423 -0.250666 0
    endloop
  endfacet
  facet normal -0.982289 0.18737 4.76361e-19
    outer loop
      vertex 1.98423 -0.250666 3.2
      vertex 1.93717 -0.497379 0
      vertex 1.93717 -0.497379 3.2
    endloop
  endfacet
  facet normal 0.684562 0.728955 -0
    outer loop
      vertex -1.27485 -1.54103 0
      vertex -1.45794 -1.36909 3.2
      vertex -1.27485 -1.54103 3.2
    endloop
  endfacet
  facet normal 0.684562 0.728955 0
    outer loop
      vertex -1.45794 -1.36909 3.2
      vertex -1.27485 -1.54103 0
      vertex -1.45794 -1.36909 0
    endloop
  endfacet
  facet normal 0.904826 0.425781 -1.61878e-18
    outer loop
      vertex -1.75261 -0.963507 3.2
      vertex -1.85955 -0.736249 0
      vertex -1.85955 -0.736249 3.2
    endloop
  endfacet
  facet normal 0.904826 0.425781 -1.61878e-18
    outer loop
      vertex -1.85955 -0.736249 0
      vertex -1.75261 -0.963507 3.2
      vertex -1.75261 -0.963507 0
    endloop
  endfacet
  facet normal 0.844327 0.535829 1.37638e-18
    outer loop
      vertex -1.61803 -1.17557 3.2
      vertex -1.75261 -0.963507 0
      vertex -1.75261 -0.963507 3.2
    endloop
  endfacet
  facet normal 0.844327 0.535829 1.37638e-18
    outer loop
      vertex -1.75261 -0.963507 0
      vertex -1.61803 -1.17557 3.2
      vertex -1.61803 -1.17557 0
    endloop
  endfacet
  facet normal -0.481764 0.876301 0
    outer loop
      vertex 1.07165 -1.68865 0
      vertex 0.851558 -1.80965 3.2
      vertex 1.07165 -1.68865 3.2
    endloop
  endfacet
  facet normal -0.481764 0.876301 0
    outer loop
      vertex 0.851558 -1.80965 3.2
      vertex 1.07165 -1.68865 0
      vertex 0.851558 -1.80965 0
    endloop
  endfacet
  facet normal -0.904826 0.425781 1.61878e-18
    outer loop
      vertex 1.75261 -0.963507 0
      vertex 1.85955 -0.736249 3.2
      vertex 1.85955 -0.736249 0
    endloop
  endfacet
  facet normal -0.904826 0.425781 1.61878e-18
    outer loop
      vertex 1.85955 -0.736249 3.2
      vertex 1.75261 -0.963507 0
      vertex 1.75261 -0.963507 3.2
    endloop
  endfacet
  facet normal 0.77052 0.637415 -3.92059e-19
    outer loop
      vertex -1.45794 -1.36909 3.2
      vertex -1.61803 -1.17557 0
      vertex -1.61803 -1.17557 3.2
    endloop
  endfacet
  facet normal 0.77052 0.637415 -3.92059e-19
    outer loop
      vertex -1.61803 -1.17557 0
      vertex -1.45794 -1.36909 3.2
      vertex -1.45794 -1.36909 0
    endloop
  endfacet
  facet normal 0.951049 0.30904 -1.97287e-18
    outer loop
      vertex -1.85955 -0.736249 3.2
      vertex -1.93717 -0.497379 0
      vertex -1.93717 -0.497379 3.2
    endloop
  endfacet
  facet normal 0.951049 0.30904 -1.97287e-18
    outer loop
      vertex -1.93717 -0.497379 0
      vertex -1.85955 -0.736249 3.2
      vertex -1.85955 -0.736249 0
    endloop
  endfacet
  facet normal -0.58775 0.809042 0
    outer loop
      vertex 1.27485 -1.54103 0
      vertex 1.07165 -1.68865 3.2
      vertex 1.27485 -1.54103 3.2
    endloop
  endfacet
  facet normal -0.58775 0.809042 0
    outer loop
      vertex 1.07165 -1.68865 3.2
      vertex 1.27485 -1.54103 0
      vertex 1.07165 -1.68865 0
    endloop
  endfacet
  facet normal -0.248686 0.968584 0
    outer loop
      vertex 0.618033 -1.90211 0
      vertex 0.374763 -1.96457 3.2
      vertex 0.618033 -1.90211 3.2
    endloop
  endfacet
  facet normal -0.248686 0.968584 0
    outer loop
      vertex 0.374763 -1.96457 3.2
      vertex 0.618033 -1.90211 0
      vertex 0.374763 -1.96457 0
    endloop
  endfacet
  facet normal -0.125337 0.992114 0
    outer loop
      vertex 0.374763 -1.96457 0
      vertex 0.125581 -1.99605 3.2
      vertex 0.374763 -1.96457 3.2
    endloop
  endfacet
  facet normal -0.125337 0.992114 0
    outer loop
      vertex 0.125581 -1.99605 3.2
      vertex 0.374763 -1.96457 0
      vertex 0.125581 -1.99605 0
    endloop
  endfacet
  facet normal -0.844327 0.535829 -1.37638e-18
    outer loop
      vertex 1.61803 -1.17557 0
      vertex 1.75261 -0.963507 3.2
      vertex 1.75261 -0.963507 0
    endloop
  endfacet
  facet normal -0.844327 0.535829 -1.37638e-18
    outer loop
      vertex 1.75261 -0.963507 3.2
      vertex 1.61803 -1.17557 0
      vertex 1.61803 -1.17557 3.2
    endloop
  endfacet
  facet normal -0.77052 0.637415 3.92059e-19
    outer loop
      vertex 1.45794 -1.36909 0
      vertex 1.61803 -1.17557 3.2
      vertex 1.61803 -1.17557 0
    endloop
  endfacet
  facet normal -0.77052 0.637415 3.92059e-19
    outer loop
      vertex 1.61803 -1.17557 3.2
      vertex 1.45794 -1.36909 0
      vertex 1.45794 -1.36909 3.2
    endloop
  endfacet
  facet normal -0.951049 0.30904 1.97287e-18
    outer loop
      vertex 1.85955 -0.736249 0
      vertex 1.93717 -0.497379 3.2
      vertex 1.93717 -0.497379 0
    endloop
  endfacet
  facet normal -0.951049 0.30904 1.97287e-18
    outer loop
      vertex 1.93717 -0.497379 3.2
      vertex 1.85955 -0.736249 0
      vertex 1.85955 -0.736249 3.2
    endloop
  endfacet
  facet normal 0.368128 0.929775 -0
    outer loop
      vertex -0.618033 -1.90211 0
      vertex -0.851558 -1.80965 3.2
      vertex -0.618033 -1.90211 3.2
    endloop
  endfacet
  facet normal 0.368128 0.929775 0
    outer loop
      vertex -0.851558 -1.80965 3.2
      vertex -0.618033 -1.90211 0
      vertex -0.851558 -1.80965 0
    endloop
  endfacet
  facet normal 0.248686 0.968584 -0
    outer loop
      vertex -0.374763 -1.96457 0
      vertex -0.618033 -1.90211 3.2
      vertex -0.374763 -1.96457 3.2
    endloop
  endfacet
  facet normal 0.248686 0.968584 0
    outer loop
      vertex -0.618033 -1.90211 3.2
      vertex -0.374763 -1.96457 0
      vertex -0.618033 -1.90211 0
    endloop
  endfacet
  facet normal 0.982289 0.18737 -4.76361e-19
    outer loop
      vertex -1.93717 -0.497379 3.2
      vertex -1.98423 -0.250666 0
      vertex -1.98423 -0.250666 3.2
    endloop
  endfacet
  facet normal 0.982289 0.18737 -4.76361e-19
    outer loop
      vertex -1.98423 -0.250666 0
      vertex -1.93717 -0.497379 3.2
      vertex -1.93717 -0.497379 0
    endloop
  endfacet
  facet normal 0.998027 0.0627883 -7.48265e-20
    outer loop
      vertex -1.98423 -0.250666 3.2
      vertex -2 0 0
      vertex -2 0 3.2
    endloop
  endfacet
  facet normal 0.998027 0.0627883 -7.48265e-20
    outer loop
      vertex -2 0 0
      vertex -1.98423 -0.250666 3.2
      vertex -1.98423 -0.250666 0
    endloop
  endfacet
  facet normal -0.684562 0.728955 0
    outer loop
      vertex 1.45794 -1.36909 0
      vertex 1.27485 -1.54103 3.2
      vertex 1.45794 -1.36909 3.2
    endloop
  endfacet
  facet normal -0.684562 0.728955 0
    outer loop
      vertex 1.27485 -1.54103 3.2
      vertex 1.45794 -1.36909 0
      vertex 1.27485 -1.54103 0
    endloop
  endfacet
  facet normal 0.481764 0.876301 -0
    outer loop
      vertex -0.851558 -1.80965 0
      vertex -1.07165 -1.68865 3.2
      vertex -0.851558 -1.80965 3.2
    endloop
  endfacet
  facet normal 0.481764 0.876301 0
    outer loop
      vertex -1.07165 -1.68865 3.2
      vertex -0.851558 -1.80965 0
      vertex -1.07165 -1.68865 0
    endloop
  endfacet
  facet normal 0.125337 0.992114 -0
    outer loop
      vertex -0.125581 -1.99605 0
      vertex -0.374763 -1.96457 3.2
      vertex -0.125581 -1.99605 3.2
    endloop
  endfacet
  facet normal 0.125337 0.992114 0
    outer loop
      vertex -0.374763 -1.96457 3.2
      vertex -0.125581 -1.99605 0
      vertex -0.374763 -1.96457 0
    endloop
  endfacet
  facet normal 0.58775 0.809042 -0
    outer loop
      vertex -1.07165 -1.68865 0
      vertex -1.27485 -1.54103 3.2
      vertex -1.07165 -1.68865 3.2
    endloop
  endfacet
  facet normal 0.58775 0.809042 0
    outer loop
      vertex -1.27485 -1.54103 3.2
      vertex -1.07165 -1.68865 0
      vertex -1.27485 -1.54103 0
    endloop
  endfacet
endsolid OpenSCAD_Model
