<?xml version="1.0" standalone="no"?>
<!DOCTYPE svg PUBLIC "-//W3C//DTD SVG 1.1//EN" "http://www.w3.org/Graphics/SVG/1.1/DTD/svg11.dtd">
<svg width="210mm" height="1702mm" viewBox="-105 -3359 210 1702" xmlns="http://www.w3.org/2000/svg" version="1.1">
<title>OpenSCAD Model</title>
<path d="
M 100.937,-3253.59 L 101.545,-3253.74 L 102.129,-3253.98 L 102.679,-3254.28 L 103.187,-3254.65 L 103.645,-3255.08
 L 104.045,-3255.56 L 104.382,-3256.09 L 104.649,-3256.66 L 104.843,-3257.26 L 104.961,-3257.87 L 105,-3258.5
 L 105,-3353.5 L 104.961,-3354.13 L 104.843,-3354.74 L 104.649,-3355.34 L 104.382,-3355.91 L 104.045,-3356.44
 L 103.645,-3356.92 L 103.187,-3357.35 L 102.679,-3357.72 L 102.129,-3358.02 L 101.545,-3358.26 L 100.937,-3358.41
 L 100.314,-3358.49 L -100.314,-3358.49 L -100.937,-3358.41 L -101.545,-3358.26 L -102.129,-3358.02 L -102.679,-3357.72
 L -103.187,-3357.35 L -103.645,-3356.92 L -104.045,-3356.44 L -104.382,-3355.91 L -104.649,-3355.34 L -104.843,-3354.74
 L -104.961,-3354.13 L -105,-3353.5 L -105,-3258.5 L -104.961,-3257.87 L -104.843,-3257.26 L -104.649,-3256.66
 L -104.382,-3256.09 L -104.045,-3255.56 L -103.645,-3255.08 L -103.187,-3254.65 L -102.679,-3254.28 L -102.129,-3253.98
 L -101.545,-3253.74 L -100.937,-3253.59 L -100.314,-3253.51 L 100.314,-3253.51 z
M -100.048,-3254.01 L -100.64,-3254.08 L -101.218,-3254.23 L -101.772,-3254.45 L -102.295,-3254.74 L -102.778,-3255.09
 L -103.213,-3255.5 L -103.593,-3255.96 L -103.912,-3256.46 L -104.166,-3257 L -104.351,-3257.57 L -104.463,-3258.15
 L -104.5,-3258.75 L -104.5,-3353.25 L -104.463,-3353.85 L -104.351,-3354.43 L -104.166,-3355 L -103.912,-3355.54
 L -103.593,-3356.04 L -103.213,-3356.5 L -102.778,-3356.91 L -102.295,-3357.26 L -101.772,-3357.55 L -101.218,-3357.77
 L -100.64,-3357.92 L -100.048,-3357.99 L 100.048,-3357.99 L 100.64,-3357.92 L 101.218,-3357.77 L 101.772,-3357.55
 L 102.295,-3357.26 L 102.778,-3356.91 L 103.213,-3356.5 L 103.593,-3356.04 L 103.912,-3355.54 L 104.166,-3355
 L 104.351,-3354.43 L 104.463,-3353.85 L 104.5,-3353.25 L 104.5,-3258.75 L 104.463,-3258.15 L 104.351,-3257.57
 L 104.166,-3257 L 103.912,-3256.46 L 103.593,-3255.96 L 103.213,-3255.5 L 102.778,-3255.09 L 102.295,-3254.74
 L 101.772,-3254.45 L 101.218,-3254.23 L 100.64,-3254.08 L 100.048,-3254.01 z
M 100.937,-3139.59 L 101.545,-3139.74 L 102.129,-3139.98 L 102.679,-3140.28 L 103.187,-3140.65 L 103.645,-3141.08
 L 104.045,-3141.56 L 104.382,-3142.09 L 104.649,-3142.66 L 104.843,-3143.26 L 104.961,-3143.87 L 105,-3144.5
 L 105,-3239.5 L 104.961,-3240.13 L 104.843,-3240.74 L 104.649,-3241.34 L 104.382,-3241.91 L 104.045,-3242.44
 L 103.645,-3242.92 L 103.187,-3243.35 L 102.679,-3243.72 L 102.129,-3244.02 L 101.545,-3244.26 L 100.937,-3244.41
 L 100.314,-3244.49 L -100.314,-3244.49 L -100.937,-3244.41 L -101.545,-3244.26 L -102.129,-3244.02 L -102.679,-3243.72
 L -103.187,-3243.35 L -103.645,-3242.92 L -104.045,-3242.44 L -104.382,-3241.91 L -104.649,-3241.34 L -104.843,-3240.74
 L -104.961,-3240.13 L -105,-3239.5 L -105,-3144.5 L -104.961,-3143.87 L -104.843,-3143.26 L -104.649,-3142.66
 L -104.382,-3142.09 L -104.045,-3141.56 L -103.645,-3141.08 L -103.187,-3140.65 L -102.679,-3140.28 L -102.129,-3139.98
 L -101.545,-3139.74 L -100.937,-3139.59 L -100.314,-3139.51 L 100.314,-3139.51 z
M -100.048,-3140.01 L -100.64,-3140.08 L -101.218,-3140.23 L -101.772,-3140.45 L -102.295,-3140.74 L -102.778,-3141.09
 L -103.213,-3141.5 L -103.593,-3141.96 L -103.912,-3142.46 L -104.166,-3143 L -104.351,-3143.57 L -104.463,-3144.15
 L -104.5,-3144.75 L -104.5,-3239.25 L -104.463,-3239.85 L -104.351,-3240.43 L -104.166,-3241 L -103.912,-3241.54
 L -103.593,-3242.04 L -103.213,-3242.5 L -102.778,-3242.91 L -102.295,-3243.26 L -101.772,-3243.55 L -101.218,-3243.77
 L -100.64,-3243.92 L -100.048,-3243.99 L 100.048,-3243.99 L 100.64,-3243.92 L 101.218,-3243.77 L 101.772,-3243.55
 L 102.295,-3243.26 L 102.778,-3242.91 L 103.213,-3242.5 L 103.593,-3242.04 L 103.912,-3241.54 L 104.166,-3241
 L 104.351,-3240.43 L 104.463,-3239.85 L 104.5,-3239.25 L 104.5,-3144.75 L 104.463,-3144.15 L 104.351,-3143.57
 L 104.166,-3143 L 103.912,-3142.46 L 103.593,-3141.96 L 103.213,-3141.5 L 102.778,-3141.09 L 102.295,-3140.74
 L 101.772,-3140.45 L 101.218,-3140.23 L 100.64,-3140.08 L 100.048,-3140.01 z
M 100.937,-3025.59 L 101.545,-3025.74 L 102.129,-3025.98 L 102.679,-3026.28 L 103.187,-3026.65 L 103.645,-3027.08
 L 104.045,-3027.56 L 104.382,-3028.09 L 104.649,-3028.66 L 104.843,-3029.26 L 104.961,-3029.87 L 105,-3030.5
 L 105,-3125.5 L 104.961,-3126.13 L 104.843,-3126.74 L 104.649,-3127.34 L 104.382,-3127.91 L 104.045,-3128.44
 L 103.645,-3128.92 L 103.187,-3129.35 L 102.679,-3129.72 L 102.129,-3130.02 L 101.545,-3130.26 L 100.937,-3130.41
 L 100.314,-3130.49 L -100.314,-3130.49 L -100.937,-3130.41 L -101.545,-3130.26 L -102.129,-3130.02 L -102.679,-3129.72
 L -103.187,-3129.35 L -103.645,-3128.92 L -104.045,-3128.44 L -104.382,-3127.91 L -104.649,-3127.34 L -104.843,-3126.74
 L -104.961,-3126.13 L -105,-3125.5 L -105,-3030.5 L -104.961,-3029.87 L -104.843,-3029.26 L -104.649,-3028.66
 L -104.382,-3028.09 L -104.045,-3027.56 L -103.645,-3027.08 L -103.187,-3026.65 L -102.679,-3026.28 L -102.129,-3025.98
 L -101.545,-3025.74 L -100.937,-3025.59 L -100.314,-3025.51 L 100.314,-3025.51 z
M -100.048,-3026.01 L -100.64,-3026.08 L -101.218,-3026.23 L -101.772,-3026.45 L -102.295,-3026.74 L -102.778,-3027.09
 L -103.213,-3027.5 L -103.593,-3027.96 L -103.912,-3028.46 L -104.166,-3029 L -104.351,-3029.57 L -104.463,-3030.15
 L -104.5,-3030.75 L -104.5,-3125.25 L -104.463,-3125.85 L -104.351,-3126.43 L -104.166,-3127 L -103.912,-3127.54
 L -103.593,-3128.04 L -103.213,-3128.5 L -102.778,-3128.91 L -102.295,-3129.26 L -101.772,-3129.55 L -101.218,-3129.77
 L -100.64,-3129.92 L -100.048,-3129.99 L 100.048,-3129.99 L 100.64,-3129.92 L 101.218,-3129.77 L 101.772,-3129.55
 L 102.295,-3129.26 L 102.778,-3128.91 L 103.213,-3128.5 L 103.593,-3128.04 L 103.912,-3127.54 L 104.166,-3127
 L 104.351,-3126.43 L 104.463,-3125.85 L 104.5,-3125.25 L 104.5,-3030.75 L 104.463,-3030.15 L 104.351,-3029.57
 L 104.166,-3029 L 103.912,-3028.46 L 103.593,-3027.96 L 103.213,-3027.5 L 102.778,-3027.09 L 102.295,-3026.74
 L 101.772,-3026.45 L 101.218,-3026.23 L 100.64,-3026.08 L 100.048,-3026.01 z
M 100.937,-2911.59 L 101.545,-2911.74 L 102.129,-2911.98 L 102.679,-2912.28 L 103.187,-2912.65 L 103.645,-2913.08
 L 104.045,-2913.56 L 104.382,-2914.09 L 104.649,-2914.66 L 104.843,-2915.26 L 104.961,-2915.87 L 105,-2916.5
 L 105,-3011.5 L 104.961,-3012.13 L 104.843,-3012.74 L 104.649,-3013.34 L 104.382,-3013.91 L 104.045,-3014.44
 L 103.645,-3014.92 L 103.187,-3015.35 L 102.679,-3015.72 L 102.129,-3016.02 L 101.545,-3016.26 L 100.937,-3016.41
 L 100.314,-3016.49 L -100.314,-3016.49 L -100.937,-3016.41 L -101.545,-3016.26 L -102.129,-3016.02 L -102.679,-3015.72
 L -103.187,-3015.35 L -103.645,-3014.92 L -104.045,-3014.44 L -104.382,-3013.91 L -104.649,-3013.34 L -104.843,-3012.74
 L -104.961,-3012.13 L -105,-3011.5 L -105,-2916.5 L -104.961,-2915.87 L -104.843,-2915.26 L -104.649,-2914.66
 L -104.382,-2914.09 L -104.045,-2913.56 L -103.645,-2913.08 L -103.187,-2912.65 L -102.679,-2912.28 L -102.129,-2911.98
 L -101.545,-2911.74 L -100.937,-2911.59 L -100.314,-2911.51 L 100.314,-2911.51 z
M -100.048,-2912.01 L -100.64,-2912.08 L -101.218,-2912.23 L -101.772,-2912.45 L -102.295,-2912.74 L -102.778,-2913.09
 L -103.213,-2913.5 L -103.593,-2913.96 L -103.912,-2914.46 L -104.166,-2915 L -104.351,-2915.57 L -104.463,-2916.15
 L -104.5,-2916.75 L -104.5,-3011.25 L -104.463,-3011.85 L -104.351,-3012.43 L -104.166,-3013 L -103.912,-3013.54
 L -103.593,-3014.04 L -103.213,-3014.5 L -102.778,-3014.91 L -102.295,-3015.26 L -101.772,-3015.55 L -101.218,-3015.77
 L -100.64,-3015.92 L -100.048,-3015.99 L 100.048,-3015.99 L 100.64,-3015.92 L 101.218,-3015.77 L 101.772,-3015.55
 L 102.295,-3015.26 L 102.778,-3014.91 L 103.213,-3014.5 L 103.593,-3014.04 L 103.912,-3013.54 L 104.166,-3013
 L 104.351,-3012.43 L 104.463,-3011.85 L 104.5,-3011.25 L 104.5,-2916.75 L 104.463,-2916.15 L 104.351,-2915.57
 L 104.166,-2915 L 103.912,-2914.46 L 103.593,-2913.96 L 103.213,-2913.5 L 102.778,-2913.09 L 102.295,-2912.74
 L 101.772,-2912.45 L 101.218,-2912.23 L 100.64,-2912.08 L 100.048,-2912.01 z
M 100.937,-2797.59 L 101.545,-2797.74 L 102.129,-2797.98 L 102.679,-2798.28 L 103.187,-2798.65 L 103.645,-2799.08
 L 104.045,-2799.56 L 104.382,-2800.09 L 104.649,-2800.66 L 104.843,-2801.26 L 104.961,-2801.87 L 105,-2802.5
 L 105,-2897.5 L 104.961,-2898.13 L 104.843,-2898.74 L 104.649,-2899.34 L 104.382,-2899.91 L 104.045,-2900.44
 L 103.645,-2900.92 L 103.187,-2901.35 L 102.679,-2901.72 L 102.129,-2902.02 L 101.545,-2902.26 L 100.937,-2902.41
 L 100.314,-2902.49 L -100.314,-2902.49 L -100.937,-2902.41 L -101.545,-2902.26 L -102.129,-2902.02 L -102.679,-2901.72
 L -103.187,-2901.35 L -103.645,-2900.92 L -104.045,-2900.44 L -104.382,-2899.91 L -104.649,-2899.34 L -104.843,-2898.74
 L -104.961,-2898.13 L -105,-2897.5 L -105,-2802.5 L -104.961,-2801.87 L -104.843,-2801.26 L -104.649,-2800.66
 L -104.382,-2800.09 L -104.045,-2799.56 L -103.645,-2799.08 L -103.187,-2798.65 L -102.679,-2798.28 L -102.129,-2797.98
 L -101.545,-2797.74 L -100.937,-2797.59 L -100.314,-2797.51 L 100.314,-2797.51 z
M -100.048,-2798.01 L -100.64,-2798.08 L -101.218,-2798.23 L -101.772,-2798.45 L -102.295,-2798.74 L -102.778,-2799.09
 L -103.213,-2799.5 L -103.593,-2799.96 L -103.912,-2800.46 L -104.166,-2801 L -104.351,-2801.57 L -104.463,-2802.15
 L -104.5,-2802.75 L -104.5,-2897.25 L -104.463,-2897.85 L -104.351,-2898.43 L -104.166,-2899 L -103.912,-2899.54
 L -103.593,-2900.04 L -103.213,-2900.5 L -102.778,-2900.91 L -102.295,-2901.26 L -101.772,-2901.55 L -101.218,-2901.77
 L -100.64,-2901.92 L -100.048,-2901.99 L 100.048,-2901.99 L 100.64,-2901.92 L 101.218,-2901.77 L 101.772,-2901.55
 L 102.295,-2901.26 L 102.778,-2900.91 L 103.213,-2900.5 L 103.593,-2900.04 L 103.912,-2899.54 L 104.166,-2899
 L 104.351,-2898.43 L 104.463,-2897.85 L 104.5,-2897.25 L 104.5,-2802.75 L 104.463,-2802.15 L 104.351,-2801.57
 L 104.166,-2801 L 103.912,-2800.46 L 103.593,-2799.96 L 103.213,-2799.5 L 102.778,-2799.09 L 102.295,-2798.74
 L 101.772,-2798.45 L 101.218,-2798.23 L 100.64,-2798.08 L 100.048,-2798.01 z
M 100.937,-2683.59 L 101.545,-2683.74 L 102.129,-2683.98 L 102.679,-2684.28 L 103.187,-2684.65 L 103.645,-2685.08
 L 104.045,-2685.56 L 104.382,-2686.09 L 104.649,-2686.66 L 104.843,-2687.26 L 104.961,-2687.87 L 105,-2688.5
 L 105,-2783.5 L 104.961,-2784.13 L 104.843,-2784.74 L 104.649,-2785.34 L 104.382,-2785.91 L 104.045,-2786.44
 L 103.645,-2786.92 L 103.187,-2787.35 L 102.679,-2787.72 L 102.129,-2788.02 L 101.545,-2788.26 L 100.937,-2788.41
 L 100.314,-2788.49 L -100.314,-2788.49 L -100.937,-2788.41 L -101.545,-2788.26 L -102.129,-2788.02 L -102.679,-2787.72
 L -103.187,-2787.35 L -103.645,-2786.92 L -104.045,-2786.44 L -104.382,-2785.91 L -104.649,-2785.34 L -104.843,-2784.74
 L -104.961,-2784.13 L -105,-2783.5 L -105,-2688.5 L -104.961,-2687.87 L -104.843,-2687.26 L -104.649,-2686.66
 L -104.382,-2686.09 L -104.045,-2685.56 L -103.645,-2685.08 L -103.187,-2684.65 L -102.679,-2684.28 L -102.129,-2683.98
 L -101.545,-2683.74 L -100.937,-2683.59 L -100.314,-2683.51 L 100.314,-2683.51 z
M -100.048,-2684.01 L -100.64,-2684.08 L -101.218,-2684.23 L -101.772,-2684.45 L -102.295,-2684.74 L -102.778,-2685.09
 L -103.213,-2685.5 L -103.593,-2685.96 L -103.912,-2686.46 L -104.166,-2687 L -104.351,-2687.57 L -104.463,-2688.15
 L -104.5,-2688.75 L -104.5,-2783.25 L -104.463,-2783.85 L -104.351,-2784.43 L -104.166,-2785 L -103.912,-2785.54
 L -103.593,-2786.04 L -103.213,-2786.5 L -102.778,-2786.91 L -102.295,-2787.26 L -101.772,-2787.55 L -101.218,-2787.77
 L -100.64,-2787.92 L -100.048,-2787.99 L 100.048,-2787.99 L 100.64,-2787.92 L 101.218,-2787.77 L 101.772,-2787.55
 L 102.295,-2787.26 L 102.778,-2786.91 L 103.213,-2786.5 L 103.593,-2786.04 L 103.912,-2785.54 L 104.166,-2785
 L 104.351,-2784.43 L 104.463,-2783.85 L 104.5,-2783.25 L 104.5,-2688.75 L 104.463,-2688.15 L 104.351,-2687.57
 L 104.166,-2687 L 103.912,-2686.46 L 103.593,-2685.96 L 103.213,-2685.5 L 102.778,-2685.09 L 102.295,-2684.74
 L 101.772,-2684.45 L 101.218,-2684.23 L 100.64,-2684.08 L 100.048,-2684.01 z
M 100.937,-2569.59 L 101.545,-2569.74 L 102.129,-2569.98 L 102.679,-2570.28 L 103.187,-2570.65 L 103.645,-2571.08
 L 104.045,-2571.56 L 104.382,-2572.09 L 104.649,-2572.66 L 104.843,-2573.26 L 104.961,-2573.87 L 105,-2574.5
 L 105,-2669.5 L 104.961,-2670.13 L 104.843,-2670.74 L 104.649,-2671.34 L 104.382,-2671.91 L 104.045,-2672.44
 L 103.645,-2672.92 L 103.187,-2673.35 L 102.679,-2673.72 L 102.129,-2674.02 L 101.545,-2674.26 L 100.937,-2674.41
 L 100.314,-2674.49 L -100.314,-2674.49 L -100.937,-2674.41 L -101.545,-2674.26 L -102.129,-2674.02 L -102.679,-2673.72
 L -103.187,-2673.35 L -103.645,-2672.92 L -104.045,-2672.44 L -104.382,-2671.91 L -104.649,-2671.34 L -104.843,-2670.74
 L -104.961,-2670.13 L -105,-2669.5 L -105,-2574.5 L -104.961,-2573.87 L -104.843,-2573.26 L -104.649,-2572.66
 L -104.382,-2572.09 L -104.045,-2571.56 L -103.645,-2571.08 L -103.187,-2570.65 L -102.679,-2570.28 L -102.129,-2569.98
 L -101.545,-2569.74 L -100.937,-2569.59 L -100.314,-2569.51 L 100.314,-2569.51 z
M -100.048,-2570.01 L -100.64,-2570.08 L -101.218,-2570.23 L -101.772,-2570.45 L -102.295,-2570.74 L -102.778,-2571.09
 L -103.213,-2571.5 L -103.593,-2571.96 L -103.912,-2572.46 L -104.166,-2573 L -104.351,-2573.57 L -104.463,-2574.15
 L -104.5,-2574.75 L -104.5,-2669.25 L -104.463,-2669.85 L -104.351,-2670.43 L -104.166,-2671 L -103.912,-2671.54
 L -103.593,-2672.04 L -103.213,-2672.5 L -102.778,-2672.91 L -102.295,-2673.26 L -101.772,-2673.55 L -101.218,-2673.77
 L -100.64,-2673.92 L -100.048,-2673.99 L 100.048,-2673.99 L 100.64,-2673.92 L 101.218,-2673.77 L 101.772,-2673.55
 L 102.295,-2673.26 L 102.778,-2672.91 L 103.213,-2672.5 L 103.593,-2672.04 L 103.912,-2671.54 L 104.166,-2671
 L 104.351,-2670.43 L 104.463,-2669.85 L 104.5,-2669.25 L 104.5,-2574.75 L 104.463,-2574.15 L 104.351,-2573.57
 L 104.166,-2573 L 103.912,-2572.46 L 103.593,-2571.96 L 103.213,-2571.5 L 102.778,-2571.09 L 102.295,-2570.74
 L 101.772,-2570.45 L 101.218,-2570.23 L 100.64,-2570.08 L 100.048,-2570.01 z
M 100.937,-2455.59 L 101.545,-2455.74 L 102.129,-2455.98 L 102.679,-2456.28 L 103.187,-2456.65 L 103.645,-2457.08
 L 104.045,-2457.56 L 104.382,-2458.09 L 104.649,-2458.66 L 104.843,-2459.26 L 104.961,-2459.87 L 105,-2460.5
 L 105,-2555.5 L 104.961,-2556.13 L 104.843,-2556.74 L 104.649,-2557.34 L 104.382,-2557.91 L 104.045,-2558.44
 L 103.645,-2558.92 L 103.187,-2559.35 L 102.679,-2559.72 L 102.129,-2560.02 L 101.545,-2560.26 L 100.937,-2560.41
 L 100.314,-2560.49 L -100.314,-2560.49 L -100.937,-2560.41 L -101.545,-2560.26 L -102.129,-2560.02 L -102.679,-2559.72
 L -103.187,-2559.35 L -103.645,-2558.92 L -104.045,-2558.44 L -104.382,-2557.91 L -104.649,-2557.34 L -104.843,-2556.74
 L -104.961,-2556.13 L -105,-2555.5 L -105,-2460.5 L -104.961,-2459.87 L -104.843,-2459.26 L -104.649,-2458.66
 L -104.382,-2458.09 L -104.045,-2457.56 L -103.645,-2457.08 L -103.187,-2456.65 L -102.679,-2456.28 L -102.129,-2455.98
 L -101.545,-2455.74 L -100.937,-2455.59 L -100.314,-2455.51 L 100.314,-2455.51 z
M -100.048,-2456.01 L -100.64,-2456.08 L -101.218,-2456.23 L -101.772,-2456.45 L -102.295,-2456.74 L -102.778,-2457.09
 L -103.213,-2457.5 L -103.593,-2457.96 L -103.912,-2458.46 L -104.166,-2459 L -104.351,-2459.57 L -104.463,-2460.15
 L -104.5,-2460.75 L -104.5,-2555.25 L -104.463,-2555.85 L -104.351,-2556.43 L -104.166,-2557 L -103.912,-2557.54
 L -103.593,-2558.04 L -103.213,-2558.5 L -102.778,-2558.91 L -102.295,-2559.26 L -101.772,-2559.55 L -101.218,-2559.77
 L -100.64,-2559.92 L -100.048,-2559.99 L 100.048,-2559.99 L 100.64,-2559.92 L 101.218,-2559.77 L 101.772,-2559.55
 L 102.295,-2559.26 L 102.778,-2558.91 L 103.213,-2558.5 L 103.593,-2558.04 L 103.912,-2557.54 L 104.166,-2557
 L 104.351,-2556.43 L 104.463,-2555.85 L 104.5,-2555.25 L 104.5,-2460.75 L 104.463,-2460.15 L 104.351,-2459.57
 L 104.166,-2459 L 103.912,-2458.46 L 103.593,-2457.96 L 103.213,-2457.5 L 102.778,-2457.09 L 102.295,-2456.74
 L 101.772,-2456.45 L 101.218,-2456.23 L 100.64,-2456.08 L 100.048,-2456.01 z
M 100.937,-2341.59 L 101.545,-2341.74 L 102.129,-2341.98 L 102.679,-2342.28 L 103.187,-2342.65 L 103.645,-2343.08
 L 104.045,-2343.56 L 104.382,-2344.09 L 104.649,-2344.66 L 104.843,-2345.26 L 104.961,-2345.87 L 105,-2346.5
 L 105,-2441.5 L 104.961,-2442.13 L 104.843,-2442.74 L 104.649,-2443.34 L 104.382,-2443.91 L 104.045,-2444.44
 L 103.645,-2444.92 L 103.187,-2445.35 L 102.679,-2445.72 L 102.129,-2446.02 L 101.545,-2446.26 L 100.937,-2446.41
 L 100.314,-2446.49 L -100.314,-2446.49 L -100.937,-2446.41 L -101.545,-2446.26 L -102.129,-2446.02 L -102.679,-2445.72
 L -103.187,-2445.35 L -103.645,-2444.92 L -104.045,-2444.44 L -104.382,-2443.91 L -104.649,-2443.34 L -104.843,-2442.74
 L -104.961,-2442.13 L -105,-2441.5 L -105,-2346.5 L -104.961,-2345.87 L -104.843,-2345.26 L -104.649,-2344.66
 L -104.382,-2344.09 L -104.045,-2343.56 L -103.645,-2343.08 L -103.187,-2342.65 L -102.679,-2342.28 L -102.129,-2341.98
 L -101.545,-2341.74 L -100.937,-2341.59 L -100.314,-2341.51 L 100.314,-2341.51 z
M -100.048,-2342.01 L -100.64,-2342.08 L -101.218,-2342.23 L -101.772,-2342.45 L -102.295,-2342.74 L -102.778,-2343.09
 L -103.213,-2343.5 L -103.593,-2343.96 L -103.912,-2344.46 L -104.166,-2345 L -104.351,-2345.57 L -104.463,-2346.15
 L -104.5,-2346.75 L -104.5,-2441.25 L -104.463,-2441.85 L -104.351,-2442.43 L -104.166,-2443 L -103.912,-2443.54
 L -103.593,-2444.04 L -103.213,-2444.5 L -102.778,-2444.91 L -102.295,-2445.26 L -101.772,-2445.55 L -101.218,-2445.77
 L -100.64,-2445.92 L -100.048,-2445.99 L 100.048,-2445.99 L 100.64,-2445.92 L 101.218,-2445.77 L 101.772,-2445.55
 L 102.295,-2445.26 L 102.778,-2444.91 L 103.213,-2444.5 L 103.593,-2444.04 L 103.912,-2443.54 L 104.166,-2443
 L 104.351,-2442.43 L 104.463,-2441.85 L 104.5,-2441.25 L 104.5,-2346.75 L 104.463,-2346.15 L 104.351,-2345.57
 L 104.166,-2345 L 103.912,-2344.46 L 103.593,-2343.96 L 103.213,-2343.5 L 102.778,-2343.09 L 102.295,-2342.74
 L 101.772,-2342.45 L 101.218,-2342.23 L 100.64,-2342.08 L 100.048,-2342.01 z
M 100.937,-2227.59 L 101.545,-2227.74 L 102.129,-2227.98 L 102.679,-2228.28 L 103.187,-2228.65 L 103.645,-2229.08
 L 104.045,-2229.56 L 104.382,-2230.09 L 104.649,-2230.66 L 104.843,-2231.26 L 104.961,-2231.87 L 105,-2232.5
 L 105,-2327.5 L 104.961,-2328.13 L 104.843,-2328.74 L 104.649,-2329.34 L 104.382,-2329.91 L 104.045,-2330.44
 L 103.645,-2330.92 L 103.187,-2331.35 L 102.679,-2331.72 L 102.129,-2332.02 L 101.545,-2332.26 L 100.937,-2332.41
 L 100.314,-2332.49 L -100.314,-2332.49 L -100.937,-2332.41 L -101.545,-2332.26 L -102.129,-2332.02 L -102.679,-2331.72
 L -103.187,-2331.35 L -103.645,-2330.92 L -104.045,-2330.44 L -104.382,-2329.91 L -104.649,-2329.34 L -104.843,-2328.74
 L -104.961,-2328.13 L -105,-2327.5 L -105,-2232.5 L -104.961,-2231.87 L -104.843,-2231.26 L -104.649,-2230.66
 L -104.382,-2230.09 L -104.045,-2229.56 L -103.645,-2229.08 L -103.187,-2228.65 L -102.679,-2228.28 L -102.129,-2227.98
 L -101.545,-2227.74 L -100.937,-2227.59 L -100.314,-2227.51 L 100.314,-2227.51 z
M -100.048,-2228.01 L -100.64,-2228.08 L -101.218,-2228.23 L -101.772,-2228.45 L -102.295,-2228.74 L -102.778,-2229.09
 L -103.213,-2229.5 L -103.593,-2229.96 L -103.912,-2230.46 L -104.166,-2231 L -104.351,-2231.57 L -104.463,-2232.15
 L -104.5,-2232.75 L -104.5,-2327.25 L -104.463,-2327.85 L -104.351,-2328.43 L -104.166,-2329 L -103.912,-2329.54
 L -103.593,-2330.04 L -103.213,-2330.5 L -102.778,-2330.91 L -102.295,-2331.26 L -101.772,-2331.55 L -101.218,-2331.77
 L -100.64,-2331.92 L -100.048,-2331.99 L 100.048,-2331.99 L 100.64,-2331.92 L 101.218,-2331.77 L 101.772,-2331.55
 L 102.295,-2331.26 L 102.778,-2330.91 L 103.213,-2330.5 L 103.593,-2330.04 L 103.912,-2329.54 L 104.166,-2329
 L 104.351,-2328.43 L 104.463,-2327.85 L 104.5,-2327.25 L 104.5,-2232.75 L 104.463,-2232.15 L 104.351,-2231.57
 L 104.166,-2231 L 103.912,-2230.46 L 103.593,-2229.96 L 103.213,-2229.5 L 102.778,-2229.09 L 102.295,-2228.74
 L 101.772,-2228.45 L 101.218,-2228.23 L 100.64,-2228.08 L 100.048,-2228.01 z
M 100.937,-2113.59 L 101.545,-2113.74 L 102.129,-2113.98 L 102.679,-2114.28 L 103.187,-2114.65 L 103.645,-2115.08
 L 104.045,-2115.56 L 104.382,-2116.09 L 104.649,-2116.66 L 104.843,-2117.26 L 104.961,-2117.87 L 105,-2118.5
 L 105,-2213.5 L 104.961,-2214.13 L 104.843,-2214.74 L 104.649,-2215.34 L 104.382,-2215.91 L 104.045,-2216.44
 L 103.645,-2216.92 L 103.187,-2217.35 L 102.679,-2217.72 L 102.129,-2218.02 L 101.545,-2218.26 L 100.937,-2218.41
 L 100.314,-2218.49 L -100.314,-2218.49 L -100.937,-2218.41 L -101.545,-2218.26 L -102.129,-2218.02 L -102.679,-2217.72
 L -103.187,-2217.35 L -103.645,-2216.92 L -104.045,-2216.44 L -104.382,-2215.91 L -104.649,-2215.34 L -104.843,-2214.74
 L -104.961,-2214.13 L -105,-2213.5 L -105,-2118.5 L -104.961,-2117.87 L -104.843,-2117.26 L -104.649,-2116.66
 L -104.382,-2116.09 L -104.045,-2115.56 L -103.645,-2115.08 L -103.187,-2114.65 L -102.679,-2114.28 L -102.129,-2113.98
 L -101.545,-2113.74 L -100.937,-2113.59 L -100.314,-2113.51 L 100.314,-2113.51 z
M -100.048,-2114.01 L -100.64,-2114.08 L -101.218,-2114.23 L -101.772,-2114.45 L -102.295,-2114.74 L -102.778,-2115.09
 L -103.213,-2115.5 L -103.593,-2115.96 L -103.912,-2116.46 L -104.166,-2117 L -104.351,-2117.57 L -104.463,-2118.15
 L -104.5,-2118.75 L -104.5,-2213.25 L -104.463,-2213.85 L -104.351,-2214.43 L -104.166,-2215 L -103.912,-2215.54
 L -103.593,-2216.04 L -103.213,-2216.5 L -102.778,-2216.91 L -102.295,-2217.26 L -101.772,-2217.55 L -101.218,-2217.77
 L -100.64,-2217.92 L -100.048,-2217.99 L 100.048,-2217.99 L 100.64,-2217.92 L 101.218,-2217.77 L 101.772,-2217.55
 L 102.295,-2217.26 L 102.778,-2216.91 L 103.213,-2216.5 L 103.593,-2216.04 L 103.912,-2215.54 L 104.166,-2215
 L 104.351,-2214.43 L 104.463,-2213.85 L 104.5,-2213.25 L 104.5,-2118.75 L 104.463,-2118.15 L 104.351,-2117.57
 L 104.166,-2117 L 103.912,-2116.46 L 103.593,-2115.96 L 103.213,-2115.5 L 102.778,-2115.09 L 102.295,-2114.74
 L 101.772,-2114.45 L 101.218,-2114.23 L 100.64,-2114.08 L 100.048,-2114.01 z
M 100.937,-1999.59 L 101.545,-1999.74 L 102.129,-1999.98 L 102.679,-2000.28 L 103.187,-2000.65 L 103.645,-2001.08
 L 104.045,-2001.56 L 104.382,-2002.09 L 104.649,-2002.66 L 104.843,-2003.26 L 104.961,-2003.87 L 105,-2004.5
 L 105,-2099.5 L 104.961,-2100.13 L 104.843,-2100.74 L 104.649,-2101.34 L 104.382,-2101.91 L 104.045,-2102.44
 L 103.645,-2102.92 L 103.187,-2103.35 L 102.679,-2103.72 L 102.129,-2104.02 L 101.545,-2104.26 L 100.937,-2104.41
 L 100.314,-2104.49 L -100.314,-2104.49 L -100.937,-2104.41 L -101.545,-2104.26 L -102.129,-2104.02 L -102.679,-2103.72
 L -103.187,-2103.35 L -103.645,-2102.92 L -104.045,-2102.44 L -104.382,-2101.91 L -104.649,-2101.34 L -104.843,-2100.74
 L -104.961,-2100.13 L -105,-2099.5 L -105,-2004.5 L -104.961,-2003.87 L -104.843,-2003.26 L -104.649,-2002.66
 L -104.382,-2002.09 L -104.045,-2001.56 L -103.645,-2001.08 L -103.187,-2000.65 L -102.679,-2000.28 L -102.129,-1999.98
 L -101.545,-1999.74 L -100.937,-1999.59 L -100.314,-1999.51 L 100.314,-1999.51 z
M -100.048,-2000.01 L -100.64,-2000.08 L -101.218,-2000.23 L -101.772,-2000.45 L -102.295,-2000.74 L -102.778,-2001.09
 L -103.213,-2001.5 L -103.593,-2001.96 L -103.912,-2002.46 L -104.166,-2003 L -104.351,-2003.57 L -104.463,-2004.15
 L -104.5,-2004.75 L -104.5,-2099.25 L -104.463,-2099.85 L -104.351,-2100.43 L -104.166,-2101 L -103.912,-2101.54
 L -103.593,-2102.04 L -103.213,-2102.5 L -102.778,-2102.91 L -102.295,-2103.26 L -101.772,-2103.55 L -101.218,-2103.77
 L -100.64,-2103.92 L -100.048,-2103.99 L 100.048,-2103.99 L 100.64,-2103.92 L 101.218,-2103.77 L 101.772,-2103.55
 L 102.295,-2103.26 L 102.778,-2102.91 L 103.213,-2102.5 L 103.593,-2102.04 L 103.912,-2101.54 L 104.166,-2101
 L 104.351,-2100.43 L 104.463,-2099.85 L 104.5,-2099.25 L 104.5,-2004.75 L 104.463,-2004.15 L 104.351,-2003.57
 L 104.166,-2003 L 103.912,-2002.46 L 103.593,-2001.96 L 103.213,-2001.5 L 102.778,-2001.09 L 102.295,-2000.74
 L 101.772,-2000.45 L 101.218,-2000.23 L 100.64,-2000.08 L 100.048,-2000.01 z
M 100.937,-1885.59 L 101.545,-1885.74 L 102.129,-1885.98 L 102.679,-1886.28 L 103.187,-1886.65 L 103.645,-1887.08
 L 104.045,-1887.56 L 104.382,-1888.09 L 104.649,-1888.66 L 104.843,-1889.26 L 104.961,-1889.87 L 105,-1890.5
 L 105,-1985.5 L 104.961,-1986.13 L 104.843,-1986.74 L 104.649,-1987.34 L 104.382,-1987.91 L 104.045,-1988.44
 L 103.645,-1988.92 L 103.187,-1989.35 L 102.679,-1989.72 L 102.129,-1990.02 L 101.545,-1990.26 L 100.937,-1990.41
 L 100.314,-1990.49 L -100.314,-1990.49 L -100.937,-1990.41 L -101.545,-1990.26 L -102.129,-1990.02 L -102.679,-1989.72
 L -103.187,-1989.35 L -103.645,-1988.92 L -104.045,-1988.44 L -104.382,-1987.91 L -104.649,-1987.34 L -104.843,-1986.74
 L -104.961,-1986.13 L -105,-1985.5 L -105,-1890.5 L -104.961,-1889.87 L -104.843,-1889.26 L -104.649,-1888.66
 L -104.382,-1888.09 L -104.045,-1887.56 L -103.645,-1887.08 L -103.187,-1886.65 L -102.679,-1886.28 L -102.129,-1885.98
 L -101.545,-1885.74 L -100.937,-1885.59 L -100.314,-1885.51 L 100.314,-1885.51 z
M -100.048,-1886.01 L -100.64,-1886.08 L -101.218,-1886.23 L -101.772,-1886.45 L -102.295,-1886.74 L -102.778,-1887.09
 L -103.213,-1887.5 L -103.593,-1887.96 L -103.912,-1888.46 L -104.166,-1889 L -104.351,-1889.57 L -104.463,-1890.15
 L -104.5,-1890.75 L -104.5,-1985.25 L -104.463,-1985.85 L -104.351,-1986.43 L -104.166,-1987 L -103.912,-1987.54
 L -103.593,-1988.04 L -103.213,-1988.5 L -102.778,-1988.91 L -102.295,-1989.26 L -101.772,-1989.55 L -101.218,-1989.77
 L -100.64,-1989.92 L -100.048,-1989.99 L 100.048,-1989.99 L 100.64,-1989.92 L 101.218,-1989.77 L 101.772,-1989.55
 L 102.295,-1989.26 L 102.778,-1988.91 L 103.213,-1988.5 L 103.593,-1988.04 L 103.912,-1987.54 L 104.166,-1987
 L 104.351,-1986.43 L 104.463,-1985.85 L 104.5,-1985.25 L 104.5,-1890.75 L 104.463,-1890.15 L 104.351,-1889.57
 L 104.166,-1889 L 103.912,-1888.46 L 103.593,-1887.96 L 103.213,-1887.5 L 102.778,-1887.09 L 102.295,-1886.74
 L 101.772,-1886.45 L 101.218,-1886.23 L 100.64,-1886.08 L 100.048,-1886.01 z
M 100.937,-1771.59 L 101.545,-1771.74 L 102.129,-1771.98 L 102.679,-1772.28 L 103.187,-1772.65 L 103.645,-1773.08
 L 104.045,-1773.56 L 104.382,-1774.09 L 104.649,-1774.66 L 104.843,-1775.26 L 104.961,-1775.87 L 105,-1776.5
 L 105,-1871.5 L 104.961,-1872.13 L 104.843,-1872.74 L 104.649,-1873.34 L 104.382,-1873.91 L 104.045,-1874.44
 L 103.645,-1874.92 L 103.187,-1875.35 L 102.679,-1875.72 L 102.129,-1876.02 L 101.545,-1876.26 L 100.937,-1876.41
 L 100.314,-1876.49 L -100.314,-1876.49 L -100.937,-1876.41 L -101.545,-1876.26 L -102.129,-1876.02 L -102.679,-1875.72
 L -103.187,-1875.35 L -103.645,-1874.92 L -104.045,-1874.44 L -104.382,-1873.91 L -104.649,-1873.34 L -104.843,-1872.74
 L -104.961,-1872.13 L -105,-1871.5 L -105,-1776.5 L -104.961,-1775.87 L -104.843,-1775.26 L -104.649,-1774.66
 L -104.382,-1774.09 L -104.045,-1773.56 L -103.645,-1773.08 L -103.187,-1772.65 L -102.679,-1772.28 L -102.129,-1771.98
 L -101.545,-1771.74 L -100.937,-1771.59 L -100.314,-1771.51 L 100.314,-1771.51 z
M -100.037,-1772.18 L -100.608,-1772.25 L -101.165,-1772.4 L -101.699,-1772.61 L -102.203,-1772.88 L -102.668,-1773.22
 L -103.088,-1773.62 L -103.454,-1774.06 L -103.762,-1774.54 L -104.007,-1775.06 L -104.185,-1775.61 L -104.292,-1776.18
 L -104.328,-1776.75 L -104.328,-1871.25 L -104.292,-1871.82 L -104.185,-1872.39 L -104.007,-1872.94 L -103.762,-1873.46
 L -103.454,-1873.94 L -103.088,-1874.38 L -102.668,-1874.78 L -102.203,-1875.12 L -101.699,-1875.39 L -101.165,-1875.6
 L -100.608,-1875.75 L -100.037,-1875.82 L 100.037,-1875.82 L 100.608,-1875.75 L 101.165,-1875.6 L 101.699,-1875.39
 L 102.203,-1875.12 L 102.668,-1874.78 L 103.088,-1874.38 L 103.454,-1873.94 L 103.762,-1873.46 L 104.007,-1872.94
 L 104.185,-1872.39 L 104.292,-1871.82 L 104.328,-1871.25 L 104.328,-1776.75 L 104.292,-1776.18 L 104.185,-1775.61
 L 104.007,-1775.06 L 103.762,-1774.54 L 103.454,-1774.06 L 103.088,-1773.62 L 102.668,-1773.22 L 102.203,-1772.88
 L 101.699,-1772.61 L 101.165,-1772.4 L 100.608,-1772.25 L 100.037,-1772.18 z
M 100.937,-1657.59 L 101.545,-1657.74 L 102.129,-1657.98 L 102.679,-1658.28 L 103.187,-1658.65 L 103.645,-1659.08
 L 104.045,-1659.56 L 104.382,-1660.09 L 104.649,-1660.66 L 104.843,-1661.26 L 104.961,-1661.87 L 105,-1662.5
 L 105,-1757.5 L 104.961,-1758.13 L 104.843,-1758.74 L 104.649,-1759.34 L 104.382,-1759.91 L 104.045,-1760.44
 L 103.645,-1760.92 L 103.187,-1761.35 L 102.679,-1761.72 L 102.129,-1762.02 L 101.545,-1762.26 L 100.937,-1762.41
 L 100.314,-1762.49 L -100.314,-1762.49 L -100.937,-1762.41 L -101.545,-1762.26 L -102.129,-1762.02 L -102.679,-1761.72
 L -103.187,-1761.35 L -103.645,-1760.92 L -104.045,-1760.44 L -104.382,-1759.91 L -104.649,-1759.34 L -104.843,-1758.74
 L -104.961,-1758.13 L -105,-1757.5 L -105,-1662.5 L -104.961,-1661.87 L -104.843,-1661.26 L -104.649,-1660.66
 L -104.382,-1660.09 L -104.045,-1659.56 L -103.645,-1659.08 L -103.187,-1658.65 L -102.679,-1658.28 L -102.129,-1657.98
 L -101.545,-1657.74 L -100.937,-1657.59 L -100.314,-1657.51 L 100.314,-1657.51 z
M -99.8825,-1660.64 L -100.145,-1660.68 L -100.402,-1660.74 L -100.648,-1660.84 L -100.88,-1660.97 L -101.095,-1661.12
 L -101.288,-1661.31 L -101.457,-1661.51 L -101.599,-1661.73 L -101.711,-1661.97 L -101.793,-1662.23 L -101.843,-1662.49
 L -101.86,-1662.75 L -101.86,-1757.25 L -101.843,-1757.51 L -101.793,-1757.77 L -101.711,-1758.03 L -101.599,-1758.27
 L -101.457,-1758.49 L -101.288,-1758.69 L -101.095,-1758.88 L -100.88,-1759.03 L -100.648,-1759.16 L -100.402,-1759.26
 L -100.145,-1759.32 L -99.8825,-1759.36 L 99.8825,-1759.36 L 100.145,-1759.32 L 100.402,-1759.26 L 100.648,-1759.16
 L 100.88,-1759.03 L 101.095,-1758.88 L 101.288,-1758.69 L 101.457,-1758.49 L 101.599,-1758.27 L 101.711,-1758.03
 L 101.793,-1757.77 L 101.843,-1757.51 L 101.86,-1757.25 L 101.86,-1662.75 L 101.843,-1662.49 L 101.793,-1662.23
 L 101.711,-1661.97 L 101.599,-1661.73 L 101.457,-1661.51 L 101.288,-1661.31 L 101.095,-1661.12 L 100.88,-1660.97
 L 100.648,-1660.84 L 100.402,-1660.74 L 100.145,-1660.68 L 99.8825,-1660.64 z
" stroke="black" fill="lightgray" stroke-width="0.5"/>
</svg>
