<?xml version="1.0" standalone="no"?>
<!DOCTYPE svg PUBLIC "-//W3C//DTD SVG 1.1//EN" "http://www.w3.org/Graphics/SVG/1.1/DTD/svg11.dtd">
<svg width="136mm" height="1026mm" viewBox="-68 -2031 136 1026" xmlns="http://www.w3.org/2000/svg" version="1.1">
<title>OpenSCAD Model</title>
<path d="
M 63.4369,-1971.09 L 64.0451,-1971.24 L 64.6289,-1971.48 L 65.1791,-1971.78 L 65.6871,-1972.15 L 66.1448,-1972.58
 L 66.5451,-1973.06 L 66.8815,-1973.59 L 67.1489,-1974.16 L 67.3429,-1974.76 L 67.4606,-1975.37 L 67.5,-1976
 L 67.5,-2026 L 67.4606,-2026.63 L 67.3429,-2027.24 L 67.1489,-2027.84 L 66.8815,-2028.41 L 66.5451,-2028.94
 L 66.1448,-2029.42 L 65.6871,-2029.85 L 65.1791,-2030.22 L 64.6289,-2030.52 L 64.0451,-2030.76 L 63.4369,-2030.91
 L 62.8139,-2030.99 L -62.8139,-2030.99 L -63.4369,-2030.91 L -64.0451,-2030.76 L -64.6289,-2030.52 L -65.1791,-2030.22
 L -65.6871,-2029.85 L -66.1448,-2029.42 L -66.5451,-2028.94 L -66.8815,-2028.41 L -67.1489,-2027.84 L -67.3429,-2027.24
 L -67.4606,-2026.63 L -67.5,-2026 L -67.5,-1976 L -67.4606,-1975.37 L -67.3429,-1974.76 L -67.1489,-1974.16
 L -66.8815,-1973.59 L -66.5451,-1973.06 L -66.1448,-1972.58 L -65.6871,-1972.15 L -65.1791,-1971.78 L -64.6289,-1971.48
 L -64.0451,-1971.24 L -63.4369,-1971.09 L -62.8139,-1971.01 L 62.8139,-1971.01 z
M -62.5482,-1971.51 L -63.1401,-1971.58 L -63.7178,-1971.73 L -64.2724,-1971.95 L -64.7952,-1972.24 L -65.2778,-1972.59
 L -65.7126,-1973 L -66.0928,-1973.46 L -66.4125,-1973.96 L -66.6664,-1974.5 L -66.8508,-1975.07 L -66.9625,-1975.65
 L -67,-1976.25 L -67,-2025.75 L -66.9625,-2026.35 L -66.8508,-2026.93 L -66.6664,-2027.5 L -66.4125,-2028.04
 L -66.0928,-2028.54 L -65.7126,-2029 L -65.2778,-2029.41 L -64.7952,-2029.76 L -64.2724,-2030.05 L -63.7178,-2030.27
 L -63.1401,-2030.42 L -62.5482,-2030.49 L 62.5482,-2030.49 L 63.1401,-2030.42 L 63.7178,-2030.27 L 64.2724,-2030.05
 L 64.7952,-2029.76 L 65.2778,-2029.41 L 65.7126,-2029 L 66.0928,-2028.54 L 66.4125,-2028.04 L 66.6664,-2027.5
 L 66.8508,-2026.93 L 66.9625,-2026.35 L 67,-2025.75 L 67,-1976.25 L 66.9625,-1975.65 L 66.8508,-1975.07
 L 66.6664,-1974.5 L 66.4125,-1973.96 L 66.0928,-1973.46 L 65.7126,-1973 L 65.2778,-1972.59 L 64.7952,-1972.24
 L 64.2724,-1971.95 L 63.7178,-1971.73 L 63.1401,-1971.58 L 62.5482,-1971.51 z
M 63.4369,-1902.09 L 64.0451,-1902.24 L 64.6289,-1902.48 L 65.1791,-1902.78 L 65.6871,-1903.15 L 66.1448,-1903.58
 L 66.5451,-1904.06 L 66.8815,-1904.59 L 67.1489,-1905.16 L 67.3429,-1905.76 L 67.4606,-1906.37 L 67.5,-1907
 L 67.5,-1957 L 67.4606,-1957.63 L 67.3429,-1958.24 L 67.1489,-1958.84 L 66.8815,-1959.41 L 66.5451,-1959.94
 L 66.1448,-1960.42 L 65.6871,-1960.85 L 65.1791,-1961.22 L 64.6289,-1961.52 L 64.0451,-1961.76 L 63.4369,-1961.91
 L 62.8139,-1961.99 L -62.8139,-1961.99 L -63.4369,-1961.91 L -64.0451,-1961.76 L -64.6289,-1961.52 L -65.1791,-1961.22
 L -65.6871,-1960.85 L -66.1448,-1960.42 L -66.5451,-1959.94 L -66.8815,-1959.41 L -67.1489,-1958.84 L -67.3429,-1958.24
 L -67.4606,-1957.63 L -67.5,-1957 L -67.5,-1907 L -67.4606,-1906.37 L -67.3429,-1905.76 L -67.1489,-1905.16
 L -66.8815,-1904.59 L -66.5451,-1904.06 L -66.1448,-1903.58 L -65.6871,-1903.15 L -65.1791,-1902.78 L -64.6289,-1902.48
 L -64.0451,-1902.24 L -63.4369,-1902.09 L -62.8139,-1902.01 L 62.8139,-1902.01 z
M -62.5482,-1902.51 L -63.1401,-1902.58 L -63.7178,-1902.73 L -64.2724,-1902.95 L -64.7952,-1903.24 L -65.2778,-1903.59
 L -65.7126,-1904 L -66.0928,-1904.46 L -66.4125,-1904.96 L -66.6664,-1905.5 L -66.8508,-1906.07 L -66.9625,-1906.65
 L -67,-1907.25 L -67,-1956.75 L -66.9625,-1957.35 L -66.8508,-1957.93 L -66.6664,-1958.5 L -66.4125,-1959.04
 L -66.0928,-1959.54 L -65.7126,-1960 L -65.2778,-1960.41 L -64.7952,-1960.76 L -64.2724,-1961.05 L -63.7178,-1961.27
 L -63.1401,-1961.42 L -62.5482,-1961.49 L 62.5482,-1961.49 L 63.1401,-1961.42 L 63.7178,-1961.27 L 64.2724,-1961.05
 L 64.7952,-1960.76 L 65.2778,-1960.41 L 65.7126,-1960 L 66.0928,-1959.54 L 66.4125,-1959.04 L 66.6664,-1958.5
 L 66.8508,-1957.93 L 66.9625,-1957.35 L 67,-1956.75 L 67,-1907.25 L 66.9625,-1906.65 L 66.8508,-1906.07
 L 66.6664,-1905.5 L 66.4125,-1904.96 L 66.0928,-1904.46 L 65.7126,-1904 L 65.2778,-1903.59 L 64.7952,-1903.24
 L 64.2724,-1902.95 L 63.7178,-1902.73 L 63.1401,-1902.58 L 62.5482,-1902.51 z
M 63.4369,-1833.09 L 64.0451,-1833.24 L 64.6289,-1833.48 L 65.1791,-1833.78 L 65.6871,-1834.15 L 66.1448,-1834.58
 L 66.5451,-1835.06 L 66.8815,-1835.59 L 67.1489,-1836.16 L 67.3429,-1836.76 L 67.4606,-1837.37 L 67.5,-1838
 L 67.5,-1888 L 67.4606,-1888.63 L 67.3429,-1889.24 L 67.1489,-1889.84 L 66.8815,-1890.41 L 66.5451,-1890.94
 L 66.1448,-1891.42 L 65.6871,-1891.85 L 65.1791,-1892.22 L 64.6289,-1892.52 L 64.0451,-1892.76 L 63.4369,-1892.91
 L 62.8139,-1892.99 L -62.8139,-1892.99 L -63.4369,-1892.91 L -64.0451,-1892.76 L -64.6289,-1892.52 L -65.1791,-1892.22
 L -65.6871,-1891.85 L -66.1448,-1891.42 L -66.5451,-1890.94 L -66.8815,-1890.41 L -67.1489,-1889.84 L -67.3429,-1889.24
 L -67.4606,-1888.63 L -67.5,-1888 L -67.5,-1838 L -67.4606,-1837.37 L -67.3429,-1836.76 L -67.1489,-1836.16
 L -66.8815,-1835.59 L -66.5451,-1835.06 L -66.1448,-1834.58 L -65.6871,-1834.15 L -65.1791,-1833.78 L -64.6289,-1833.48
 L -64.0451,-1833.24 L -63.4369,-1833.09 L -62.8139,-1833.01 L 62.8139,-1833.01 z
M -62.5482,-1833.51 L -63.1401,-1833.58 L -63.7178,-1833.73 L -64.2724,-1833.95 L -64.7952,-1834.24 L -65.2778,-1834.59
 L -65.7126,-1835 L -66.0928,-1835.46 L -66.4125,-1835.96 L -66.6664,-1836.5 L -66.8508,-1837.07 L -66.9625,-1837.65
 L -67,-1838.25 L -67,-1887.75 L -66.9625,-1888.35 L -66.8508,-1888.93 L -66.6664,-1889.5 L -66.4125,-1890.04
 L -66.0928,-1890.54 L -65.7126,-1891 L -65.2778,-1891.41 L -64.7952,-1891.76 L -64.2724,-1892.05 L -63.7178,-1892.27
 L -63.1401,-1892.42 L -62.5482,-1892.49 L 62.5482,-1892.49 L 63.1401,-1892.42 L 63.7178,-1892.27 L 64.2724,-1892.05
 L 64.7952,-1891.76 L 65.2778,-1891.41 L 65.7126,-1891 L 66.0928,-1890.54 L 66.4125,-1890.04 L 66.6664,-1889.5
 L 66.8508,-1888.93 L 66.9625,-1888.35 L 67,-1887.75 L 67,-1838.25 L 66.9625,-1837.65 L 66.8508,-1837.07
 L 66.6664,-1836.5 L 66.4125,-1835.96 L 66.0928,-1835.46 L 65.7126,-1835 L 65.2778,-1834.59 L 64.7952,-1834.24
 L 64.2724,-1833.95 L 63.7178,-1833.73 L 63.1401,-1833.58 L 62.5482,-1833.51 z
M 63.4369,-1764.09 L 64.0451,-1764.24 L 64.6289,-1764.48 L 65.1791,-1764.78 L 65.6871,-1765.15 L 66.1448,-1765.58
 L 66.5451,-1766.06 L 66.8815,-1766.59 L 67.1489,-1767.16 L 67.3429,-1767.76 L 67.4606,-1768.37 L 67.5,-1769
 L 67.5,-1819 L 67.4606,-1819.63 L 67.3429,-1820.24 L 67.1489,-1820.84 L 66.8815,-1821.41 L 66.5451,-1821.94
 L 66.1448,-1822.42 L 65.6871,-1822.85 L 65.1791,-1823.22 L 64.6289,-1823.52 L 64.0451,-1823.76 L 63.4369,-1823.91
 L 62.8139,-1823.99 L -62.8139,-1823.99 L -63.4369,-1823.91 L -64.0451,-1823.76 L -64.6289,-1823.52 L -65.1791,-1823.22
 L -65.6871,-1822.85 L -66.1448,-1822.42 L -66.5451,-1821.94 L -66.8815,-1821.41 L -67.1489,-1820.84 L -67.3429,-1820.24
 L -67.4606,-1819.63 L -67.5,-1819 L -67.5,-1769 L -67.4606,-1768.37 L -67.3429,-1767.76 L -67.1489,-1767.16
 L -66.8815,-1766.59 L -66.5451,-1766.06 L -66.1448,-1765.58 L -65.6871,-1765.15 L -65.1791,-1764.78 L -64.6289,-1764.48
 L -64.0451,-1764.24 L -63.4369,-1764.09 L -62.8139,-1764.01 L 62.8139,-1764.01 z
M -62.5482,-1764.51 L -63.1401,-1764.58 L -63.7178,-1764.73 L -64.2724,-1764.95 L -64.7952,-1765.24 L -65.2778,-1765.59
 L -65.7126,-1766 L -66.0928,-1766.46 L -66.4125,-1766.96 L -66.6664,-1767.5 L -66.8508,-1768.07 L -66.9625,-1768.65
 L -67,-1769.25 L -67,-1818.75 L -66.9625,-1819.35 L -66.8508,-1819.93 L -66.6664,-1820.5 L -66.4125,-1821.04
 L -66.0928,-1821.54 L -65.7126,-1822 L -65.2778,-1822.41 L -64.7952,-1822.76 L -64.2724,-1823.05 L -63.7178,-1823.27
 L -63.1401,-1823.42 L -62.5482,-1823.49 L 62.5482,-1823.49 L 63.1401,-1823.42 L 63.7178,-1823.27 L 64.2724,-1823.05
 L 64.7952,-1822.76 L 65.2778,-1822.41 L 65.7126,-1822 L 66.0928,-1821.54 L 66.4125,-1821.04 L 66.6664,-1820.5
 L 66.8508,-1819.93 L 66.9625,-1819.35 L 67,-1818.75 L 67,-1769.25 L 66.9625,-1768.65 L 66.8508,-1768.07
 L 66.6664,-1767.5 L 66.4125,-1766.96 L 66.0928,-1766.46 L 65.7126,-1766 L 65.2778,-1765.59 L 64.7952,-1765.24
 L 64.2724,-1764.95 L 63.7178,-1764.73 L 63.1401,-1764.58 L 62.5482,-1764.51 z
M 63.4369,-1695.09 L 64.0451,-1695.24 L 64.6289,-1695.48 L 65.1791,-1695.78 L 65.6871,-1696.15 L 66.1448,-1696.58
 L 66.5451,-1697.06 L 66.8815,-1697.59 L 67.1489,-1698.16 L 67.3429,-1698.76 L 67.4606,-1699.37 L 67.5,-1700
 L 67.5,-1750 L 67.4606,-1750.63 L 67.3429,-1751.24 L 67.1489,-1751.84 L 66.8815,-1752.41 L 66.5451,-1752.94
 L 66.1448,-1753.42 L 65.6871,-1753.85 L 65.1791,-1754.22 L 64.6289,-1754.52 L 64.0451,-1754.76 L 63.4369,-1754.91
 L 62.8139,-1754.99 L -62.8139,-1754.99 L -63.4369,-1754.91 L -64.0451,-1754.76 L -64.6289,-1754.52 L -65.1791,-1754.22
 L -65.6871,-1753.85 L -66.1448,-1753.42 L -66.5451,-1752.94 L -66.8815,-1752.41 L -67.1489,-1751.84 L -67.3429,-1751.24
 L -67.4606,-1750.63 L -67.5,-1750 L -67.5,-1700 L -67.4606,-1699.37 L -67.3429,-1698.76 L -67.1489,-1698.16
 L -66.8815,-1697.59 L -66.5451,-1697.06 L -66.1448,-1696.58 L -65.6871,-1696.15 L -65.1791,-1695.78 L -64.6289,-1695.48
 L -64.0451,-1695.24 L -63.4369,-1695.09 L -62.8139,-1695.01 L 62.8139,-1695.01 z
M -62.5482,-1695.51 L -63.1401,-1695.58 L -63.7178,-1695.73 L -64.2724,-1695.95 L -64.7952,-1696.24 L -65.2778,-1696.59
 L -65.7126,-1697 L -66.0928,-1697.46 L -66.4125,-1697.96 L -66.6664,-1698.5 L -66.8508,-1699.07 L -66.9625,-1699.65
 L -67,-1700.25 L -67,-1749.75 L -66.9625,-1750.35 L -66.8508,-1750.93 L -66.6664,-1751.5 L -66.4125,-1752.04
 L -66.0928,-1752.54 L -65.7126,-1753 L -65.2778,-1753.41 L -64.7952,-1753.76 L -64.2724,-1754.05 L -63.7178,-1754.27
 L -63.1401,-1754.42 L -62.5482,-1754.49 L 62.5482,-1754.49 L 63.1401,-1754.42 L 63.7178,-1754.27 L 64.2724,-1754.05
 L 64.7952,-1753.76 L 65.2778,-1753.41 L 65.7126,-1753 L 66.0928,-1752.54 L 66.4125,-1752.04 L 66.6664,-1751.5
 L 66.8508,-1750.93 L 66.9625,-1750.35 L 67,-1749.75 L 67,-1700.25 L 66.9625,-1699.65 L 66.8508,-1699.07
 L 66.6664,-1698.5 L 66.4125,-1697.96 L 66.0928,-1697.46 L 65.7126,-1697 L 65.2778,-1696.59 L 64.7952,-1696.24
 L 64.2724,-1695.95 L 63.7178,-1695.73 L 63.1401,-1695.58 L 62.5482,-1695.51 z
M 63.4369,-1626.09 L 64.0451,-1626.24 L 64.6289,-1626.48 L 65.1791,-1626.78 L 65.6871,-1627.15 L 66.1448,-1627.58
 L 66.5451,-1628.06 L 66.8815,-1628.59 L 67.1489,-1629.16 L 67.3429,-1629.76 L 67.4606,-1630.37 L 67.5,-1631
 L 67.5,-1681 L 67.4606,-1681.63 L 67.3429,-1682.24 L 67.1489,-1682.84 L 66.8815,-1683.41 L 66.5451,-1683.94
 L 66.1448,-1684.42 L 65.6871,-1684.85 L 65.1791,-1685.22 L 64.6289,-1685.52 L 64.0451,-1685.76 L 63.4369,-1685.91
 L 62.8139,-1685.99 L -62.8139,-1685.99 L -63.4369,-1685.91 L -64.0451,-1685.76 L -64.6289,-1685.52 L -65.1791,-1685.22
 L -65.6871,-1684.85 L -66.1448,-1684.42 L -66.5451,-1683.94 L -66.8815,-1683.41 L -67.1489,-1682.84 L -67.3429,-1682.24
 L -67.4606,-1681.63 L -67.5,-1681 L -67.5,-1631 L -67.4606,-1630.37 L -67.3429,-1629.76 L -67.1489,-1629.16
 L -66.8815,-1628.59 L -66.5451,-1628.06 L -66.1448,-1627.58 L -65.6871,-1627.15 L -65.1791,-1626.78 L -64.6289,-1626.48
 L -64.0451,-1626.24 L -63.4369,-1626.09 L -62.8139,-1626.01 L 62.8139,-1626.01 z
M -62.5482,-1626.51 L -63.1401,-1626.58 L -63.7178,-1626.73 L -64.2724,-1626.95 L -64.7952,-1627.24 L -65.2778,-1627.59
 L -65.7126,-1628 L -66.0928,-1628.46 L -66.4125,-1628.96 L -66.6664,-1629.5 L -66.8508,-1630.07 L -66.9625,-1630.65
 L -67,-1631.25 L -67,-1680.75 L -66.9625,-1681.35 L -66.8508,-1681.93 L -66.6664,-1682.5 L -66.4125,-1683.04
 L -66.0928,-1683.54 L -65.7126,-1684 L -65.2778,-1684.41 L -64.7952,-1684.76 L -64.2724,-1685.05 L -63.7178,-1685.27
 L -63.1401,-1685.42 L -62.5482,-1685.49 L 62.5482,-1685.49 L 63.1401,-1685.42 L 63.7178,-1685.27 L 64.2724,-1685.05
 L 64.7952,-1684.76 L 65.2778,-1684.41 L 65.7126,-1684 L 66.0928,-1683.54 L 66.4125,-1683.04 L 66.6664,-1682.5
 L 66.8508,-1681.93 L 66.9625,-1681.35 L 67,-1680.75 L 67,-1631.25 L 66.9625,-1630.65 L 66.8508,-1630.07
 L 66.6664,-1629.5 L 66.4125,-1628.96 L 66.0928,-1628.46 L 65.7126,-1628 L 65.2778,-1627.59 L 64.7952,-1627.24
 L 64.2724,-1626.95 L 63.7178,-1626.73 L 63.1401,-1626.58 L 62.5482,-1626.51 z
M 63.4369,-1557.09 L 64.0451,-1557.24 L 64.6289,-1557.48 L 65.1791,-1557.78 L 65.6871,-1558.15 L 66.1448,-1558.58
 L 66.5451,-1559.06 L 66.8815,-1559.59 L 67.1489,-1560.16 L 67.3429,-1560.76 L 67.4606,-1561.37 L 67.5,-1562
 L 67.5,-1612 L 67.4606,-1612.63 L 67.3429,-1613.24 L 67.1489,-1613.84 L 66.8815,-1614.41 L 66.5451,-1614.94
 L 66.1448,-1615.42 L 65.6871,-1615.85 L 65.1791,-1616.22 L 64.6289,-1616.52 L 64.0451,-1616.76 L 63.4369,-1616.91
 L 62.8139,-1616.99 L -62.8139,-1616.99 L -63.4369,-1616.91 L -64.0451,-1616.76 L -64.6289,-1616.52 L -65.1791,-1616.22
 L -65.6871,-1615.85 L -66.1448,-1615.42 L -66.5451,-1614.94 L -66.8815,-1614.41 L -67.1489,-1613.84 L -67.3429,-1613.24
 L -67.4606,-1612.63 L -67.5,-1612 L -67.5,-1562 L -67.4606,-1561.37 L -67.3429,-1560.76 L -67.1489,-1560.16
 L -66.8815,-1559.59 L -66.5451,-1559.06 L -66.1448,-1558.58 L -65.6871,-1558.15 L -65.1791,-1557.78 L -64.6289,-1557.48
 L -64.0451,-1557.24 L -63.4369,-1557.09 L -62.8139,-1557.01 L 62.8139,-1557.01 z
M -62.5482,-1557.51 L -63.1401,-1557.58 L -63.7178,-1557.73 L -64.2724,-1557.95 L -64.7952,-1558.24 L -65.2778,-1558.59
 L -65.7126,-1559 L -66.0928,-1559.46 L -66.4125,-1559.96 L -66.6664,-1560.5 L -66.8508,-1561.07 L -66.9625,-1561.65
 L -67,-1562.25 L -67,-1611.75 L -66.9625,-1612.35 L -66.8508,-1612.93 L -66.6664,-1613.5 L -66.4125,-1614.04
 L -66.0928,-1614.54 L -65.7126,-1615 L -65.2778,-1615.41 L -64.7952,-1615.76 L -64.2724,-1616.05 L -63.7178,-1616.27
 L -63.1401,-1616.42 L -62.5482,-1616.49 L 62.5482,-1616.49 L 63.1401,-1616.42 L 63.7178,-1616.27 L 64.2724,-1616.05
 L 64.7952,-1615.76 L 65.2778,-1615.41 L 65.7126,-1615 L 66.0928,-1614.54 L 66.4125,-1614.04 L 66.6664,-1613.5
 L 66.8508,-1612.93 L 66.9625,-1612.35 L 67,-1611.75 L 67,-1562.25 L 66.9625,-1561.65 L 66.8508,-1561.07
 L 66.6664,-1560.5 L 66.4125,-1559.96 L 66.0928,-1559.46 L 65.7126,-1559 L 65.2778,-1558.59 L 64.7952,-1558.24
 L 64.2724,-1557.95 L 63.7178,-1557.73 L 63.1401,-1557.58 L 62.5482,-1557.51 z
M 63.4369,-1488.09 L 64.0451,-1488.24 L 64.6289,-1488.48 L 65.1791,-1488.78 L 65.6871,-1489.15 L 66.1448,-1489.58
 L 66.5451,-1490.06 L 66.8815,-1490.59 L 67.1489,-1491.16 L 67.3429,-1491.76 L 67.4606,-1492.37 L 67.5,-1493
 L 67.5,-1543 L 67.4606,-1543.63 L 67.3429,-1544.24 L 67.1489,-1544.84 L 66.8815,-1545.41 L 66.5451,-1545.94
 L 66.1448,-1546.42 L 65.6871,-1546.85 L 65.1791,-1547.22 L 64.6289,-1547.52 L 64.0451,-1547.76 L 63.4369,-1547.91
 L 62.8139,-1547.99 L -62.8139,-1547.99 L -63.4369,-1547.91 L -64.0451,-1547.76 L -64.6289,-1547.52 L -65.1791,-1547.22
 L -65.6871,-1546.85 L -66.1448,-1546.42 L -66.5451,-1545.94 L -66.8815,-1545.41 L -67.1489,-1544.84 L -67.3429,-1544.24
 L -67.4606,-1543.63 L -67.5,-1543 L -67.5,-1493 L -67.4606,-1492.37 L -67.3429,-1491.76 L -67.1489,-1491.16
 L -66.8815,-1490.59 L -66.5451,-1490.06 L -66.1448,-1489.58 L -65.6871,-1489.15 L -65.1791,-1488.78 L -64.6289,-1488.48
 L -64.0451,-1488.24 L -63.4369,-1488.09 L -62.8139,-1488.01 L 62.8139,-1488.01 z
M -62.5482,-1488.51 L -63.1401,-1488.58 L -63.7178,-1488.73 L -64.2724,-1488.95 L -64.7952,-1489.24 L -65.2778,-1489.59
 L -65.7126,-1490 L -66.0928,-1490.46 L -66.4125,-1490.96 L -66.6664,-1491.5 L -66.8508,-1492.07 L -66.9625,-1492.65
 L -67,-1493.25 L -67,-1542.75 L -66.9625,-1543.35 L -66.8508,-1543.93 L -66.6664,-1544.5 L -66.4125,-1545.04
 L -66.0928,-1545.54 L -65.7126,-1546 L -65.2778,-1546.41 L -64.7952,-1546.76 L -64.2724,-1547.05 L -63.7178,-1547.27
 L -63.1401,-1547.42 L -62.5482,-1547.49 L 62.5482,-1547.49 L 63.1401,-1547.42 L 63.7178,-1547.27 L 64.2724,-1547.05
 L 64.7952,-1546.76 L 65.2778,-1546.41 L 65.7126,-1546 L 66.0928,-1545.54 L 66.4125,-1545.04 L 66.6664,-1544.5
 L 66.8508,-1543.93 L 66.9625,-1543.35 L 67,-1542.75 L 67,-1493.25 L 66.9625,-1492.65 L 66.8508,-1492.07
 L 66.6664,-1491.5 L 66.4125,-1490.96 L 66.0928,-1490.46 L 65.7126,-1490 L 65.2778,-1489.59 L 64.7952,-1489.24
 L 64.2724,-1488.95 L 63.7178,-1488.73 L 63.1401,-1488.58 L 62.5482,-1488.51 z
M 63.4369,-1419.09 L 64.0451,-1419.24 L 64.6289,-1419.48 L 65.1791,-1419.78 L 65.6871,-1420.15 L 66.1448,-1420.58
 L 66.5451,-1421.06 L 66.8815,-1421.59 L 67.1489,-1422.16 L 67.3429,-1422.76 L 67.4606,-1423.37 L 67.5,-1424
 L 67.5,-1474 L 67.4606,-1474.63 L 67.3429,-1475.24 L 67.1489,-1475.84 L 66.8815,-1476.41 L 66.5451,-1476.94
 L 66.1448,-1477.42 L 65.6871,-1477.85 L 65.1791,-1478.22 L 64.6289,-1478.52 L 64.0451,-1478.76 L 63.4369,-1478.91
 L 62.8139,-1478.99 L -62.8139,-1478.99 L -63.4369,-1478.91 L -64.0451,-1478.76 L -64.6289,-1478.52 L -65.1791,-1478.22
 L -65.6871,-1477.85 L -66.1448,-1477.42 L -66.5451,-1476.94 L -66.8815,-1476.41 L -67.1489,-1475.84 L -67.3429,-1475.24
 L -67.4606,-1474.63 L -67.5,-1474 L -67.5,-1424 L -67.4606,-1423.37 L -67.3429,-1422.76 L -67.1489,-1422.16
 L -66.8815,-1421.59 L -66.5451,-1421.06 L -66.1448,-1420.58 L -65.6871,-1420.15 L -65.1791,-1419.78 L -64.6289,-1419.48
 L -64.0451,-1419.24 L -63.4369,-1419.09 L -62.8139,-1419.01 L 62.8139,-1419.01 z
M -62.5482,-1419.51 L -63.1401,-1419.58 L -63.7178,-1419.73 L -64.2724,-1419.95 L -64.7952,-1420.24 L -65.2778,-1420.59
 L -65.7126,-1421 L -66.0928,-1421.46 L -66.4125,-1421.96 L -66.6664,-1422.5 L -66.8508,-1423.07 L -66.9625,-1423.65
 L -67,-1424.25 L -67,-1473.75 L -66.9625,-1474.35 L -66.8508,-1474.93 L -66.6664,-1475.5 L -66.4125,-1476.04
 L -66.0928,-1476.54 L -65.7126,-1477 L -65.2778,-1477.41 L -64.7952,-1477.76 L -64.2724,-1478.05 L -63.7178,-1478.27
 L -63.1401,-1478.42 L -62.5482,-1478.49 L 62.5482,-1478.49 L 63.1401,-1478.42 L 63.7178,-1478.27 L 64.2724,-1478.05
 L 64.7952,-1477.76 L 65.2778,-1477.41 L 65.7126,-1477 L 66.0928,-1476.54 L 66.4125,-1476.04 L 66.6664,-1475.5
 L 66.8508,-1474.93 L 66.9625,-1474.35 L 67,-1473.75 L 67,-1424.25 L 66.9625,-1423.65 L 66.8508,-1423.07
 L 66.6664,-1422.5 L 66.4125,-1421.96 L 66.0928,-1421.46 L 65.7126,-1421 L 65.2778,-1420.59 L 64.7952,-1420.24
 L 64.2724,-1419.95 L 63.7178,-1419.73 L 63.1401,-1419.58 L 62.5482,-1419.51 z
M 63.4369,-1350.09 L 64.0451,-1350.24 L 64.6289,-1350.48 L 65.1791,-1350.78 L 65.6871,-1351.15 L 66.1448,-1351.58
 L 66.5451,-1352.06 L 66.8815,-1352.59 L 67.1489,-1353.16 L 67.3429,-1353.76 L 67.4606,-1354.37 L 67.5,-1355
 L 67.5,-1405 L 67.4606,-1405.63 L 67.3429,-1406.24 L 67.1489,-1406.84 L 66.8815,-1407.41 L 66.5451,-1407.94
 L 66.1448,-1408.42 L 65.6871,-1408.85 L 65.1791,-1409.22 L 64.6289,-1409.52 L 64.0451,-1409.76 L 63.4369,-1409.91
 L 62.8139,-1409.99 L -62.8139,-1409.99 L -63.4369,-1409.91 L -64.0451,-1409.76 L -64.6289,-1409.52 L -65.1791,-1409.22
 L -65.6871,-1408.85 L -66.1448,-1408.42 L -66.5451,-1407.94 L -66.8815,-1407.41 L -67.1489,-1406.84 L -67.3429,-1406.24
 L -67.4606,-1405.63 L -67.5,-1405 L -67.5,-1355 L -67.4606,-1354.37 L -67.3429,-1353.76 L -67.1489,-1353.16
 L -66.8815,-1352.59 L -66.5451,-1352.06 L -66.1448,-1351.58 L -65.6871,-1351.15 L -65.1791,-1350.78 L -64.6289,-1350.48
 L -64.0451,-1350.24 L -63.4369,-1350.09 L -62.8139,-1350.01 L 62.8139,-1350.01 z
M -62.5482,-1350.51 L -63.1401,-1350.58 L -63.7178,-1350.73 L -64.2724,-1350.95 L -64.7952,-1351.24 L -65.2778,-1351.59
 L -65.7126,-1352 L -66.0928,-1352.46 L -66.4125,-1352.96 L -66.6664,-1353.5 L -66.8508,-1354.07 L -66.9625,-1354.65
 L -67,-1355.25 L -67,-1404.75 L -66.9625,-1405.35 L -66.8508,-1405.93 L -66.6664,-1406.5 L -66.4125,-1407.04
 L -66.0928,-1407.54 L -65.7126,-1408 L -65.2778,-1408.41 L -64.7952,-1408.76 L -64.2724,-1409.05 L -63.7178,-1409.27
 L -63.1401,-1409.42 L -62.5482,-1409.49 L 62.5482,-1409.49 L 63.1401,-1409.42 L 63.7178,-1409.27 L 64.2724,-1409.05
 L 64.7952,-1408.76 L 65.2778,-1408.41 L 65.7126,-1408 L 66.0928,-1407.54 L 66.4125,-1407.04 L 66.6664,-1406.5
 L 66.8508,-1405.93 L 66.9625,-1405.35 L 67,-1404.75 L 67,-1355.25 L 66.9625,-1354.65 L 66.8508,-1354.07
 L 66.6664,-1353.5 L 66.4125,-1352.96 L 66.0928,-1352.46 L 65.7126,-1352 L 65.2778,-1351.59 L 64.7952,-1351.24
 L 64.2724,-1350.95 L 63.7178,-1350.73 L 63.1401,-1350.58 L 62.5482,-1350.51 z
M 63.4369,-1281.09 L 64.0451,-1281.24 L 64.6289,-1281.48 L 65.1791,-1281.78 L 65.6871,-1282.15 L 66.1448,-1282.58
 L 66.5451,-1283.06 L 66.8815,-1283.59 L 67.1489,-1284.16 L 67.3429,-1284.76 L 67.4606,-1285.37 L 67.5,-1286
 L 67.5,-1336 L 67.4606,-1336.63 L 67.3429,-1337.24 L 67.1489,-1337.84 L 66.8815,-1338.41 L 66.5451,-1338.94
 L 66.1448,-1339.42 L 65.6871,-1339.85 L 65.1791,-1340.22 L 64.6289,-1340.52 L 64.0451,-1340.76 L 63.4369,-1340.91
 L 62.8139,-1340.99 L -62.8139,-1340.99 L -63.4369,-1340.91 L -64.0451,-1340.76 L -64.6289,-1340.52 L -65.1791,-1340.22
 L -65.6871,-1339.85 L -66.1448,-1339.42 L -66.5451,-1338.94 L -66.8815,-1338.41 L -67.1489,-1337.84 L -67.3429,-1337.24
 L -67.4606,-1336.63 L -67.5,-1336 L -67.5,-1286 L -67.4606,-1285.37 L -67.3429,-1284.76 L -67.1489,-1284.16
 L -66.8815,-1283.59 L -66.5451,-1283.06 L -66.1448,-1282.58 L -65.6871,-1282.15 L -65.1791,-1281.78 L -64.6289,-1281.48
 L -64.0451,-1281.24 L -63.4369,-1281.09 L -62.8139,-1281.01 L 62.8139,-1281.01 z
M -62.5482,-1281.51 L -63.1401,-1281.58 L -63.7178,-1281.73 L -64.2724,-1281.95 L -64.7952,-1282.24 L -65.2778,-1282.59
 L -65.7126,-1283 L -66.0928,-1283.46 L -66.4125,-1283.96 L -66.6664,-1284.5 L -66.8508,-1285.07 L -66.9625,-1285.65
 L -67,-1286.25 L -67,-1335.75 L -66.9625,-1336.35 L -66.8508,-1336.93 L -66.6664,-1337.5 L -66.4125,-1338.04
 L -66.0928,-1338.54 L -65.7126,-1339 L -65.2778,-1339.41 L -64.7952,-1339.76 L -64.2724,-1340.05 L -63.7178,-1340.27
 L -63.1401,-1340.42 L -62.5482,-1340.49 L 62.5482,-1340.49 L 63.1401,-1340.42 L 63.7178,-1340.27 L 64.2724,-1340.05
 L 64.7952,-1339.76 L 65.2778,-1339.41 L 65.7126,-1339 L 66.0928,-1338.54 L 66.4125,-1338.04 L 66.6664,-1337.5
 L 66.8508,-1336.93 L 66.9625,-1336.35 L 67,-1335.75 L 67,-1286.25 L 66.9625,-1285.65 L 66.8508,-1285.07
 L 66.6664,-1284.5 L 66.4125,-1283.96 L 66.0928,-1283.46 L 65.7126,-1283 L 65.2778,-1282.59 L 64.7952,-1282.24
 L 64.2724,-1281.95 L 63.7178,-1281.73 L 63.1401,-1281.58 L 62.5482,-1281.51 z
M 63.4369,-1212.09 L 64.0451,-1212.24 L 64.6289,-1212.48 L 65.1791,-1212.78 L 65.6871,-1213.15 L 66.1448,-1213.58
 L 66.5451,-1214.06 L 66.8815,-1214.59 L 67.1489,-1215.16 L 67.3429,-1215.76 L 67.4606,-1216.37 L 67.5,-1217
 L 67.5,-1267 L 67.4606,-1267.63 L 67.3429,-1268.24 L 67.1489,-1268.84 L 66.8815,-1269.41 L 66.5451,-1269.94
 L 66.1448,-1270.42 L 65.6871,-1270.85 L 65.1791,-1271.22 L 64.6289,-1271.52 L 64.0451,-1271.76 L 63.4369,-1271.91
 L 62.8139,-1271.99 L -62.8139,-1271.99 L -63.4369,-1271.91 L -64.0451,-1271.76 L -64.6289,-1271.52 L -65.1791,-1271.22
 L -65.6871,-1270.85 L -66.1448,-1270.42 L -66.5451,-1269.94 L -66.8815,-1269.41 L -67.1489,-1268.84 L -67.3429,-1268.24
 L -67.4606,-1267.63 L -67.5,-1267 L -67.5,-1217 L -67.4606,-1216.37 L -67.3429,-1215.76 L -67.1489,-1215.16
 L -66.8815,-1214.59 L -66.5451,-1214.06 L -66.1448,-1213.58 L -65.6871,-1213.15 L -65.1791,-1212.78 L -64.6289,-1212.48
 L -64.0451,-1212.24 L -63.4369,-1212.09 L -62.8139,-1212.01 L 62.8139,-1212.01 z
M -62.5482,-1212.51 L -63.1401,-1212.58 L -63.7178,-1212.73 L -64.2724,-1212.95 L -64.7952,-1213.24 L -65.2778,-1213.59
 L -65.7126,-1214 L -66.0928,-1214.46 L -66.4125,-1214.96 L -66.6664,-1215.5 L -66.8508,-1216.07 L -66.9625,-1216.65
 L -67,-1217.25 L -67,-1266.75 L -66.9625,-1267.35 L -66.8508,-1267.93 L -66.6664,-1268.5 L -66.4125,-1269.04
 L -66.0928,-1269.54 L -65.7126,-1270 L -65.2778,-1270.41 L -64.7952,-1270.76 L -64.2724,-1271.05 L -63.7178,-1271.27
 L -63.1401,-1271.42 L -62.5482,-1271.49 L 62.5482,-1271.49 L 63.1401,-1271.42 L 63.7178,-1271.27 L 64.2724,-1271.05
 L 64.7952,-1270.76 L 65.2778,-1270.41 L 65.7126,-1270 L 66.0928,-1269.54 L 66.4125,-1269.04 L 66.6664,-1268.5
 L 66.8508,-1267.93 L 66.9625,-1267.35 L 67,-1266.75 L 67,-1217.25 L 66.9625,-1216.65 L 66.8508,-1216.07
 L 66.6664,-1215.5 L 66.4125,-1214.96 L 66.0928,-1214.46 L 65.7126,-1214 L 65.2778,-1213.59 L 64.7952,-1213.24
 L 64.2724,-1212.95 L 63.7178,-1212.73 L 63.1401,-1212.58 L 62.5482,-1212.51 z
M 63.4369,-1143.09 L 64.0451,-1143.24 L 64.6289,-1143.48 L 65.1791,-1143.78 L 65.6871,-1144.15 L 66.1448,-1144.58
 L 66.5451,-1145.06 L 66.8815,-1145.59 L 67.1489,-1146.16 L 67.3429,-1146.76 L 67.4606,-1147.37 L 67.5,-1148
 L 67.5,-1198 L 67.4606,-1198.63 L 67.3429,-1199.24 L 67.1489,-1199.84 L 66.8815,-1200.41 L 66.5451,-1200.94
 L 66.1448,-1201.42 L 65.6871,-1201.85 L 65.1791,-1202.22 L 64.6289,-1202.52 L 64.0451,-1202.76 L 63.4369,-1202.91
 L 62.8139,-1202.99 L -62.8139,-1202.99 L -63.4369,-1202.91 L -64.0451,-1202.76 L -64.6289,-1202.52 L -65.1791,-1202.22
 L -65.6871,-1201.85 L -66.1448,-1201.42 L -66.5451,-1200.94 L -66.8815,-1200.41 L -67.1489,-1199.84 L -67.3429,-1199.24
 L -67.4606,-1198.63 L -67.5,-1198 L -67.5,-1148 L -67.4606,-1147.37 L -67.3429,-1146.76 L -67.1489,-1146.16
 L -66.8815,-1145.59 L -66.5451,-1145.06 L -66.1448,-1144.58 L -65.6871,-1144.15 L -65.1791,-1143.78 L -64.6289,-1143.48
 L -64.0451,-1143.24 L -63.4369,-1143.09 L -62.8139,-1143.01 L 62.8139,-1143.01 z
M -62.5482,-1143.51 L -63.1401,-1143.58 L -63.7178,-1143.73 L -64.2724,-1143.95 L -64.7952,-1144.24 L -65.2778,-1144.59
 L -65.7126,-1145 L -66.0928,-1145.46 L -66.4125,-1145.96 L -66.6664,-1146.5 L -66.8508,-1147.07 L -66.9625,-1147.65
 L -67,-1148.25 L -67,-1197.75 L -66.9625,-1198.35 L -66.8508,-1198.93 L -66.6664,-1199.5 L -66.4125,-1200.04
 L -66.0928,-1200.54 L -65.7126,-1201 L -65.2778,-1201.41 L -64.7952,-1201.76 L -64.2724,-1202.05 L -63.7178,-1202.27
 L -63.1401,-1202.42 L -62.5482,-1202.49 L 62.5482,-1202.49 L 63.1401,-1202.42 L 63.7178,-1202.27 L 64.2724,-1202.05
 L 64.7952,-1201.76 L 65.2778,-1201.41 L 65.7126,-1201 L 66.0928,-1200.54 L 66.4125,-1200.04 L 66.6664,-1199.5
 L 66.8508,-1198.93 L 66.9625,-1198.35 L 67,-1197.75 L 67,-1148.25 L 66.9625,-1147.65 L 66.8508,-1147.07
 L 66.6664,-1146.5 L 66.4125,-1145.96 L 66.0928,-1145.46 L 65.7126,-1145 L 65.2778,-1144.59 L 64.7952,-1144.24
 L 64.2724,-1143.95 L 63.7178,-1143.73 L 63.1401,-1143.58 L 62.5482,-1143.51 z
M 63.4369,-1074.09 L 64.0451,-1074.24 L 64.6289,-1074.48 L 65.1791,-1074.78 L 65.6871,-1075.15 L 66.1448,-1075.58
 L 66.5451,-1076.06 L 66.8815,-1076.59 L 67.1489,-1077.16 L 67.3429,-1077.76 L 67.4606,-1078.37 L 67.5,-1079
 L 67.5,-1129 L 67.4606,-1129.63 L 67.3429,-1130.24 L 67.1489,-1130.84 L 66.8815,-1131.41 L 66.5451,-1131.94
 L 66.1448,-1132.42 L 65.6871,-1132.85 L 65.1791,-1133.22 L 64.6289,-1133.52 L 64.0451,-1133.76 L 63.4369,-1133.91
 L 62.8139,-1133.99 L -62.8139,-1133.99 L -63.4369,-1133.91 L -64.0451,-1133.76 L -64.6289,-1133.52 L -65.1791,-1133.22
 L -65.6871,-1132.85 L -66.1448,-1132.42 L -66.5451,-1131.94 L -66.8815,-1131.41 L -67.1489,-1130.84 L -67.3429,-1130.24
 L -67.4606,-1129.63 L -67.5,-1129 L -67.5,-1079 L -67.4606,-1078.37 L -67.3429,-1077.76 L -67.1489,-1077.16
 L -66.8815,-1076.59 L -66.5451,-1076.06 L -66.1448,-1075.58 L -65.6871,-1075.15 L -65.1791,-1074.78 L -64.6289,-1074.48
 L -64.0451,-1074.24 L -63.4369,-1074.09 L -62.8139,-1074.01 L 62.8139,-1074.01 z
M -62.5375,-1074.68 L -63.1079,-1074.75 L -63.6648,-1074.9 L -64.1994,-1075.11 L -64.7032,-1075.38 L -65.1684,-1075.72
 L -65.5875,-1076.12 L -65.954,-1076.56 L -66.2621,-1077.04 L -66.5069,-1077.56 L -66.6846,-1078.11 L -66.7923,-1078.68
 L -66.8284,-1079.25 L -66.8284,-1128.75 L -66.7923,-1129.32 L -66.6846,-1129.89 L -66.5069,-1130.44 L -66.2621,-1130.96
 L -65.954,-1131.44 L -65.5875,-1131.88 L -65.1684,-1132.28 L -64.7032,-1132.62 L -64.1994,-1132.89 L -63.6648,-1133.1
 L -63.1079,-1133.25 L -62.5375,-1133.32 L 62.5375,-1133.32 L 63.1079,-1133.25 L 63.6648,-1133.1 L 64.1994,-1132.89
 L 64.7032,-1132.62 L 65.1684,-1132.28 L 65.5875,-1131.88 L 65.954,-1131.44 L 66.2621,-1130.96 L 66.5069,-1130.44
 L 66.6846,-1129.89 L 66.7923,-1129.32 L 66.8284,-1128.75 L 66.8284,-1079.25 L 66.7923,-1078.68 L 66.6846,-1078.11
 L 66.5069,-1077.56 L 66.2621,-1077.04 L 65.954,-1076.56 L 65.5875,-1076.12 L 65.1684,-1075.72 L 64.7032,-1075.38
 L 64.1994,-1075.11 L 63.6648,-1074.9 L 63.1079,-1074.75 L 62.5375,-1074.68 z
M 63.4369,-1005.09 L 64.0451,-1005.24 L 64.6289,-1005.48 L 65.1791,-1005.78 L 65.6871,-1006.15 L 66.1448,-1006.58
 L 66.5451,-1007.06 L 66.8815,-1007.59 L 67.1489,-1008.16 L 67.3429,-1008.76 L 67.4606,-1009.37 L 67.5,-1010
 L 67.5,-1060 L 67.4606,-1060.63 L 67.3429,-1061.24 L 67.1489,-1061.84 L 66.8815,-1062.41 L 66.5451,-1062.94
 L 66.1448,-1063.42 L 65.6871,-1063.85 L 65.1791,-1064.22 L 64.6289,-1064.52 L 64.0451,-1064.76 L 63.4369,-1064.91
 L 62.8139,-1064.99 L -62.8139,-1064.99 L -63.4369,-1064.91 L -64.0451,-1064.76 L -64.6289,-1064.52 L -65.1791,-1064.22
 L -65.6871,-1063.85 L -66.1448,-1063.42 L -66.5451,-1062.94 L -66.8815,-1062.41 L -67.1489,-1061.84 L -67.3429,-1061.24
 L -67.4606,-1060.63 L -67.5,-1060 L -67.5,-1010 L -67.4606,-1009.37 L -67.3429,-1008.76 L -67.1489,-1008.16
 L -66.8815,-1007.59 L -66.5451,-1007.06 L -66.1448,-1006.58 L -65.6871,-1006.15 L -65.1791,-1005.78 L -64.6289,-1005.48
 L -64.0451,-1005.24 L -63.4369,-1005.09 L -62.8139,-1005.01 L 62.8139,-1005.01 z
M -62.3825,-1008.14 L -62.6453,-1008.18 L -62.9019,-1008.24 L -63.1482,-1008.34 L -63.3804,-1008.47 L -63.5947,-1008.62
 L -63.7879,-1008.81 L -63.9567,-1009.01 L -64.0987,-1009.23 L -64.2115,-1009.47 L -64.2934,-1009.73 L -64.343,-1009.99
 L -64.3596,-1010.25 L -64.3596,-1059.75 L -64.343,-1060.01 L -64.2934,-1060.27 L -64.2115,-1060.53 L -64.0987,-1060.77
 L -63.9567,-1060.99 L -63.7879,-1061.19 L -63.5947,-1061.38 L -63.3804,-1061.53 L -63.1482,-1061.66 L -62.9019,-1061.76
 L -62.6453,-1061.82 L -62.3825,-1061.86 L 62.3825,-1061.86 L 62.6453,-1061.82 L 62.9019,-1061.76 L 63.1482,-1061.66
 L 63.3804,-1061.53 L 63.5947,-1061.38 L 63.7879,-1061.19 L 63.9567,-1060.99 L 64.0987,-1060.77 L 64.2115,-1060.53
 L 64.2934,-1060.27 L 64.343,-1060.01 L 64.3596,-1059.75 L 64.3596,-1010.25 L 64.343,-1009.99 L 64.2934,-1009.73
 L 64.2115,-1009.47 L 64.0987,-1009.23 L 63.9567,-1009.01 L 63.7879,-1008.81 L 63.5947,-1008.62 L 63.3804,-1008.47
 L 63.1482,-1008.34 L 62.9019,-1008.24 L 62.6453,-1008.18 L 62.3825,-1008.14 z
" stroke="black" fill="lightgray" stroke-width="0.5"/>
</svg>
