<?xml version="1.0" standalone="no"?>
<!DOCTYPE svg PUBLIC "-//W3C//DTD SVG 1.1//EN" "http://www.w3.org/Graphics/SVG/1.1/DTD/svg11.dtd">
<svg width="74mm" height="65mm" viewBox="-37 -7 74 65" xmlns="http://www.w3.org/2000/svg" version="1.1">
<title>OpenSCAD Model</title>
<path d="
M 3.13049,57.416 L 5.51907,57.1628 L 7.74042,56.7408 L 9.79454,56.1499 L 11.6814,55.3902 L 13.4011,54.4618
 L 14.9535,53.3645 L 16.3174,52.1189 L 17.4715,50.7456 L 18.4157,49.2444 L 19.1501,47.6155 L 19.6747,45.8589
 L 19.9894,43.9744 L 20.0943,41.9622 L 20.0328,40.5501 L 19.8482,39.2075 L 19.5405,37.9342 L 19.1097,36.7305
 L 18.5559,35.5962 L 17.879,34.5313 L 17.079,33.5359 L 16.1727,32.6263 L 15.1765,31.8193 L 14.0903,31.1148
 L 12.9143,30.5129 L 11.6483,30.0135 L 10.2924,29.6167 L 8.84651,29.3225 L 8.84651,29.168 L 10.0715,28.8658
 L 11.2287,28.4674 L 12.318,27.9728 L 13.3395,27.382 L 14.2932,26.6949 L 15.1791,25.9116 L 15.9972,25.0321
 L 16.7253,24.0869 L 17.3414,23.1071 L 17.8455,22.0926 L 18.2376,21.0434 L 18.5177,19.9595 L 18.6857,18.8409
 L 18.7417,17.6876 L 18.6443,15.8497 L 18.352,14.1349 L 17.8649,12.5431 L 17.1829,11.0744 L 16.3061,9.72873
 L 15.2345,8.5061 L 13.968,7.40654 L 13.3436,6.99013 L 32.3139,6.99013 L 32.9369,6.91142 L 33.5451,6.75528
 L 34.1289,6.52412 L 34.6791,6.22163 L 35.1871,5.85255 L 35.6448,5.42273 L 36.0451,4.93892 L 36.3815,4.40877
 L 36.6489,3.84062 L 36.8429,3.24344 L 36.9606,2.62666 L 37,2 L 37,-2 L 36.9606,-2.62666
 L 36.8429,-3.24344 L 36.6489,-3.84062 L 36.3815,-4.40877 L 36.0451,-4.93892 L 35.6448,-5.42273 L 35.1871,-5.85255
 L 34.6791,-6.22163 L 34.1289,-6.52412 L 33.5451,-6.75528 L 32.9369,-6.91142 L 32.3139,-6.99013 L -32.3139,-6.99013
 L -32.9369,-6.91142 L -33.5451,-6.75528 L -34.1289,-6.52412 L -34.6791,-6.22163 L -35.1871,-5.85255 L -35.6448,-5.42273
 L -36.0451,-4.93892 L -36.3815,-4.40877 L -36.6489,-3.84062 L -36.8429,-3.24344 L -36.9606,-2.62666 L -37,-2
 L -37,2 L -36.9606,2.62666 L -36.8429,3.24344 L -36.6489,3.84062 L -36.3815,4.40877 L -36.0451,4.93892
 L -35.6448,5.42273 L -35.1871,5.85255 L -34.6791,6.22163 L -34.1289,6.52412 L -33.5451,6.75528 L -32.9369,6.91142
 L -32.3139,6.99013 L -12.1203,6.99013 L -12.8961,7.52225 L -14.1729,8.64622 L -15.2533,9.87595 L -16.1372,11.2114
 L -16.8247,12.6526 L -17.3158,14.1996 L -17.6104,15.8522 L -17.7086,17.6107 L -17.653,18.8041 L -17.4862,19.955
 L -17.2081,21.0633 L -16.8188,22.1291 L -16.3182,23.1522 L -15.7065,24.1328 L -14.9835,25.0708 L -14.1713,25.9416
 L -13.2921,26.7209 L -12.3459,27.4088 L -11.3326,28.0051 L -10.2522,28.5099 L -9.10483,28.9231 L -7.89038,29.2449
 L -7.89038,29.4 L -9.26572,29.6855 L -10.5645,30.0784 L -11.7868,30.5784 L -12.9326,31.1858 L -14.0019,31.9005
 L -14.9946,32.7224 L -15.9108,33.6516 L -16.7261,34.6652 L -17.4159,35.7404 L -17.9803,36.8771 L -18.4193,38.0753
 L -18.7329,39.335 L -18.921,40.6563 L -18.9837,42.0392 L -18.8776,44.0507 L -18.5594,45.9329 L -18.0289,47.6858
 L -17.2863,49.3092 L -16.3315,50.8033 L -15.1645,52.168 L -13.7853,53.4033 L -12.219,54.4902 L -10.491,55.41
 L -8.60133,56.1626 L -6.5499,56.7479 L -4.33675,57.166 L -1.96188,57.4168 L 0.574677,57.5004 z
M -15.1884,2.99408 L -15.5621,2.94685 L -15.927,2.85316 L -16.2773,2.71448 L -16.6075,2.53297 L -16.9123,2.31154
 L -17.1869,2.05363 L -17.427,1.76335 L -17.6289,1.44525 L -17.7893,1.10437 L -17.9057,0.746063 L -17.9763,0.375992
 L -18,-0 L -17.9763,-0.375992 L -17.9057,-0.746063 L -17.7893,-1.10437 L -17.6289,-1.44525 L -17.427,-1.76335
 L -17.1869,-2.05363 L -16.9123,-2.31154 L -16.6075,-2.53297 L -16.2773,-2.71448 L -15.927,-2.85316 L -15.5621,-2.94685
 L -15.1884,-2.99408 L -14.8116,-2.99408 L -14.4379,-2.94685 L -14.0729,-2.85316 L -13.7227,-2.71448 L -13.3925,-2.53297
 L -13.0877,-2.31154 L -12.8131,-2.05363 L -12.5729,-1.76335 L -12.3711,-1.44525 L -12.2107,-1.10437 L -12.0942,-0.746063
 L -12.0237,-0.375992 L -12,-0 L -12.0237,0.375992 L -12.0942,0.746063 L -12.2107,1.10437 L -12.3711,1.44525
 L -12.5729,1.76335 L -12.8131,2.05363 L -13.0877,2.31154 L -13.3925,2.53297 L -13.7227,2.71448 L -14.0729,2.85316
 L -14.4379,2.94685 L -14.8116,2.99408 z
M 29.8116,2.99408 L 29.4379,2.94685 L 29.0729,2.85316 L 28.7227,2.71448 L 28.3925,2.53297 L 28.0877,2.31154
 L 27.8131,2.05363 L 27.5729,1.76335 L 27.3711,1.44525 L 27.2107,1.10437 L 27.0942,0.746063 L 27.0237,0.375992
 L 27,-0 L 27.0237,-0.375992 L 27.0942,-0.746063 L 27.2107,-1.10437 L 27.3711,-1.44525 L 27.5729,-1.76335
 L 27.8131,-2.05363 L 28.0877,-2.31154 L 28.3925,-2.53297 L 28.7227,-2.71448 L 29.0729,-2.85316 L 29.4379,-2.94685
 L 29.8116,-2.99408 L 30.1884,-2.99408 L 30.5621,-2.94685 L 30.927,-2.85316 L 31.2773,-2.71448 L 31.6075,-2.53297
 L 31.9123,-2.31154 L 32.1869,-2.05363 L 32.427,-1.76335 L 32.6289,-1.44525 L 32.7893,-1.10437 L 32.9057,-0.746063
 L 32.9763,-0.375992 L 33,-0 L 32.9763,0.375992 L 32.9057,0.746063 L 32.7893,1.10437 L 32.6289,1.44525
 L 32.427,1.76335 L 32.1869,2.05363 L 31.9123,2.31154 L 31.6075,2.53297 L 31.2773,2.71448 L 30.927,2.85316
 L 30.5621,2.94685 L 30.1884,2.99408 z
M 14.8116,2.99408 L 14.4379,2.94685 L 14.0729,2.85316 L 13.7227,2.71448 L 13.3925,2.53297 L 13.0877,2.31154
 L 12.8131,2.05363 L 12.5729,1.76335 L 12.3711,1.44525 L 12.2107,1.10437 L 12.0942,0.746063 L 12.0237,0.375992
 L 12,-0 L 12.0237,-0.375992 L 12.0942,-0.746063 L 12.2107,-1.10437 L 12.3711,-1.44525 L 12.5729,-1.76335
 L 12.8131,-2.05363 L 13.0877,-2.31154 L 13.3925,-2.53297 L 13.7227,-2.71448 L 14.0729,-2.85316 L 14.4379,-2.94685
 L 14.8116,-2.99408 L 15.1884,-2.99408 L 15.5621,-2.94685 L 15.927,-2.85316 L 16.2773,-2.71448 L 16.6075,-2.53297
 L 16.9123,-2.31154 L 17.1869,-2.05363 L 17.427,-1.76335 L 17.6289,-1.44525 L 17.7893,-1.10437 L 17.9057,-0.746063
 L 17.9763,-0.375992 L 18,-0 L 17.9763,0.375992 L 17.9057,0.746063 L 17.7893,1.10437 L 17.6289,1.44525
 L 17.427,1.76335 L 17.1869,2.05363 L 16.9123,2.31154 L 16.6075,2.53297 L 16.2773,2.71448 L 15.927,2.85316
 L 15.5621,2.94685 L 15.1884,2.99408 z
M -0.18837,2.99408 L -0.562134,2.94685 L -0.927048,2.85316 L -1.27733,2.71448 L -1.60747,2.53297 L -1.91226,2.31154
 L -2.1869,2.05363 L -2.42705,1.76335 L -2.62891,1.44525 L -2.78932,1.10437 L -2.90575,0.746063 L -2.97633,0.375992
 L -3,-0 L -2.97633,-0.375992 L -2.90575,-0.746063 L -2.78932,-1.10437 L -2.62891,-1.44525 L -2.42705,-1.76335
 L -2.1869,-2.05363 L -1.91226,-2.31154 L -1.60747,-2.53297 L -1.27733,-2.71448 L -0.927048,-2.85316 L -0.562134,-2.94685
 L -0.18837,-2.99408 L 0.18837,-2.99408 L 0.562134,-2.94685 L 0.927048,-2.85316 L 1.27733,-2.71448 L 1.60747,-2.53297
 L 1.91226,-2.31154 L 2.1869,-2.05363 L 2.42705,-1.76335 L 2.62891,-1.44525 L 2.78932,-1.10437 L 2.90575,-0.746063
 L 2.97633,-0.375992 L 3,-0 L 2.97633,0.375992 L 2.90575,0.746063 L 2.78932,1.10437 L 2.62891,1.44525
 L 2.42705,1.76335 L 2.1869,2.05363 L 1.91226,2.31154 L 1.60747,2.53297 L 1.27733,2.71448 L 0.927048,2.85316
 L 0.562134,2.94685 L 0.18837,2.99408 z
M -30.1884,2.99408 L -30.5621,2.94685 L -30.927,2.85316 L -31.2773,2.71448 L -31.6075,2.53297 L -31.9123,2.31154
 L -32.1869,2.05363 L -32.427,1.76335 L -32.6289,1.44525 L -32.7893,1.10437 L -32.9057,0.746063 L -32.9763,0.375992
 L -33,-0 L -32.9763,-0.375992 L -32.9057,-0.746063 L -32.7893,-1.10437 L -32.6289,-1.44525 L -32.427,-1.76335
 L -32.1869,-2.05363 L -31.9123,-2.31154 L -31.6075,-2.53297 L -31.2773,-2.71448 L -30.927,-2.85316 L -30.5621,-2.94685
 L -30.1884,-2.99408 L -29.8116,-2.99408 L -29.4379,-2.94685 L -29.0729,-2.85316 L -28.7227,-2.71448 L -28.3925,-2.53297
 L -28.0877,-2.31154 L -27.8131,-2.05363 L -27.5729,-1.76335 L -27.3711,-1.44525 L -27.2107,-1.10437 L -27.0942,-0.746063
 L -27.0237,-0.375992 L -27,-0 L -27.0237,0.375992 L -27.0942,0.746063 L -27.2107,1.10437 L -27.3711,1.44525
 L -27.5729,1.76335 L -27.8131,2.05363 L -28.0877,2.31154 L -28.3925,2.53297 L -28.7227,2.71448 L -29.0729,2.85316
 L -29.4379,2.94685 L -29.8116,2.99408 z
M -7.59418,1.49704 L -7.78107,1.47342 L -7.96352,1.42657 L -8.13866,1.35724 L -8.30373,1.26648 L -8.45613,1.15576
 L -8.59344,1.02681 L -8.71352,0.881668 L -8.81445,0.722626 L -8.89465,0.552185 L -8.95287,0.373032 L -8.98816,0.187988
 L -9,-0 L -8.98816,-0.187988 L -8.95287,-0.373032 L -8.89465,-0.552185 L -8.81445,-0.722626 L -8.71352,-0.881668
 L -8.59344,-1.02681 L -8.45613,-1.15576 L -8.30373,-1.26648 L -8.13866,-1.35724 L -7.96352,-1.42657 L -7.78107,-1.47342
 L -7.59418,-1.49704 L -7.40581,-1.49704 L -7.21892,-1.47342 L -7.03647,-1.42657 L -6.86133,-1.35724 L -6.69626,-1.26648
 L -6.54385,-1.15576 L -6.40654,-1.02681 L -6.28647,-0.881668 L -6.18553,-0.722626 L -6.10533,-0.552185 L -6.04712,-0.373032
 L -6.01183,-0.187988 L -6,-0 L -6.01183,0.187988 L -6.04712,0.373032 L -6.10533,0.552185 L -6.18553,0.722626
 L -6.28647,0.881668 L -6.40654,1.02681 L -6.54385,1.15576 L -6.69626,1.26648 L -6.86133,1.35724 L -7.03647,1.42657
 L -7.21892,1.47342 L -7.40581,1.49704 z
M 7.40581,1.49704 L 7.21892,1.47342 L 7.03647,1.42657 L 6.86133,1.35724 L 6.69626,1.26648 L 6.54385,1.15576
 L 6.40654,1.02681 L 6.28647,0.881668 L 6.18553,0.722626 L 6.10533,0.552185 L 6.04712,0.373032 L 6.01183,0.187988
 L 6,-0 L 6.01183,-0.187988 L 6.04712,-0.373032 L 6.10533,-0.552185 L 6.18553,-0.722626 L 6.28647,-0.881668
 L 6.40654,-1.02681 L 6.54385,-1.15576 L 6.69626,-1.26648 L 6.86133,-1.35724 L 7.03647,-1.42657 L 7.21892,-1.47342
 L 7.40581,-1.49704 L 7.59418,-1.49704 L 7.78107,-1.47342 L 7.96352,-1.42657 L 8.13866,-1.35724 L 8.30373,-1.26648
 L 8.45613,-1.15576 L 8.59344,-1.02681 L 8.71352,-0.881668 L 8.81445,-0.722626 L 8.89465,-0.552185 L 8.95287,-0.373032
 L 8.98816,-0.187988 L 9,-0 L 8.98816,0.187988 L 8.95287,0.373032 L 8.89465,0.552185 L 8.81445,0.722626
 L 8.71352,0.881668 L 8.59344,1.02681 L 8.45613,1.15576 L 8.30373,1.26648 L 8.13866,1.35724 L 7.96352,1.42657
 L 7.78107,1.47342 L 7.59418,1.49704 z
M 22.4058,1.49704 L 22.2189,1.47342 L 22.0365,1.42657 L 21.8613,1.35724 L 21.6963,1.26648 L 21.5439,1.15576
 L 21.4065,1.02681 L 21.2865,0.881668 L 21.1855,0.722626 L 21.1053,0.552185 L 21.0471,0.373032 L 21.0118,0.187988
 L 21,-0 L 21.0118,-0.187988 L 21.0471,-0.373032 L 21.1053,-0.552185 L 21.1855,-0.722626 L 21.2865,-0.881668
 L 21.4065,-1.02681 L 21.5439,-1.15576 L 21.6963,-1.26648 L 21.8613,-1.35724 L 22.0365,-1.42657 L 22.2189,-1.47342
 L 22.4058,-1.49704 L 22.5942,-1.49704 L 22.7811,-1.47342 L 22.9635,-1.42657 L 23.1387,-1.35724 L 23.3037,-1.26648
 L 23.4561,-1.15576 L 23.5934,-1.02681 L 23.7135,-0.881668 L 23.8145,-0.722626 L 23.8947,-0.552185 L 23.9529,-0.373032
 L 23.9882,-0.187988 L 24,-0 L 23.9882,0.187988 L 23.9529,0.373032 L 23.8947,0.552185 L 23.8145,0.722626
 L 23.7135,0.881668 L 23.5934,1.02681 L 23.4561,1.15576 L 23.3037,1.26648 L 23.1387,1.35724 L 22.9635,1.42657
 L 22.7811,1.47342 L 22.5942,1.49704 z
M -22.5942,1.49704 L -22.7811,1.47342 L -22.9635,1.42657 L -23.1387,1.35724 L -23.3037,1.26648 L -23.4561,1.15576
 L -23.5934,1.02681 L -23.7135,0.881668 L -23.8145,0.722626 L -23.8947,0.552185 L -23.9529,0.373032 L -23.9882,0.187988
 L -24,-0 L -23.9882,-0.187988 L -23.9529,-0.373032 L -23.8947,-0.552185 L -23.8145,-0.722626 L -23.7135,-0.881668
 L -23.5934,-1.02681 L -23.4561,-1.15576 L -23.3037,-1.26648 L -23.1387,-1.35724 L -22.9635,-1.42657 L -22.7811,-1.47342
 L -22.5942,-1.49704 L -22.4058,-1.49704 L -22.2189,-1.47342 L -22.0365,-1.42657 L -21.8613,-1.35724 L -21.6963,-1.26648
 L -21.5439,-1.15576 L -21.4065,-1.02681 L -21.2865,-0.881668 L -21.1855,-0.722626 L -21.1053,-0.552185 L -21.0471,-0.373032
 L -21.0118,-0.187988 L -21,-0 L -21.0118,0.187988 L -21.0471,0.373032 L -21.1053,0.552185 L -21.1855,0.722626
 L -21.2865,0.881668 L -21.4065,1.02681 L -21.5439,1.15576 L -21.6963,1.26648 L -21.8613,1.35724 L -22.0365,1.42657
 L -22.2189,1.47342 L -22.4058,1.49704 z
M -0.452927,25.4576 L -1.33757,25.344 L -2.15674,25.1547 L -2.91045,24.8896 L -3.59868,24.5489 L -4.22145,24.1324
 L -4.77875,23.6401 L -5.26584,23.0761 L -5.67799,22.4443 L -6.01521,21.7446 L -6.2775,20.9772 L -6.46484,20.1419
 L -6.57724,19.2388 L -6.61472,18.2679 L -6.47116,16.4425 L -6.04048,14.8979 L -5.32269,13.6341 L -4.31778,12.6512
 L -3.02576,11.9491 L -1.44661,11.5278 L 0.419632,11.3874 L 2.31689,11.5278 L 3.92227,11.9491 L 5.23576,12.6512
 L 6.25737,13.6341 L 6.98709,14.8979 L 7.42491,16.4425 L 7.57086,18.2679 L 7.4265,20.1854 L 6.99341,21.8079
 L 6.27161,23.1355 L 5.26108,24.168 L 3.96182,24.9055 L 2.37386,25.348 L 0.497162,25.4955 z
M -1.59419,49.6711 L -3.49451,49.1434 L -5.04932,48.2638 L -6.25862,47.0325 L -7.12241,45.4493 L -7.64067,43.5143
 L -7.81343,41.2275 L -7.77003,40.1685 L -7.63986,39.1782 L -7.42291,38.2565 L -7.11919,37.4035 L -6.72868,36.6191
 L -6.25139,35.9033 L -5.68733,35.2562 L -5.04358,34.687 L -4.32729,34.2053 L -3.53841,33.8112 L -2.67699,33.5047
 L -1.74298,33.2858 L -0.73642,33.1545 L 0.342682,33.1107 L 1.50418,33.1521 L 2.58128,33.2763 L 3.57399,33.4834
 L 4.48233,33.7733 L 5.30629,34.146 L 6.04585,34.6015 L 6.70103,35.1399 L 7.27025,35.7579 L 7.75189,36.4525
 L 8.14595,37.2235 L 8.45245,38.0711 L 8.67137,38.9952 L 8.80273,39.9959 L 8.84651,41.073 L 8.8047,42.336
 L 8.67924,43.4964 L 8.47014,44.5543 L 8.17741,45.5096 L 7.80104,46.3624 L 7.34102,47.1126 L 6.79736,47.7603
 L 6.17026,48.3139 L 5.45952,48.7823 L 4.66518,49.1656 L 3.78722,49.4637 L 2.82564,49.6767 L 1.78044,49.8044
 L 0.651627,49.847 z
" stroke="black" fill="lightgray" stroke-width="0.5"/>
</svg>
