<?xml version="1.0" standalone="no"?>
<!DOCTYPE svg PUBLIC "-//W3C//DTD SVG 1.1//EN" "http://www.w3.org/Graphics/SVG/1.1/DTD/svg11.dtd">
<svg width="50mm" height="160mm" viewBox="-25 -245 50 160" xmlns="http://www.w3.org/2000/svg" version="1.1">
<title>OpenSCAD Model</title>
<path d="
M 0.88736,-196.332 L 1.07262,-196.761 L 1.22226,-197.157 L 1.33978,-197.517 L 1.42883,-197.839 L 1.49315,-198.121
 L 1.53658,-198.362 L 1.56306,-198.561 L 1.57658,-198.716 L 1.58121,-198.827 L 1.58098,-198.894 L 1.57999,-198.916
 L 1.50261,-199.949 L 3.7406,-200.231 L 3.93077,-199.226 L 3.93558,-199.204 L 3.95264,-199.139 L 3.98589,-199.033
 L 4.03912,-198.887 L 4.11612,-198.702 L 4.22044,-198.48 L 4.35561,-198.224 L 4.52492,-197.936 L 4.73155,-197.619
 L 4.9785,-197.276 L 5.26854,-196.909 L 5.60429,-196.522 L 6.88533,-196.866 L 6.98279,-197.368 L 7.05064,-197.831
 L 7.09277,-198.252 L 7.11319,-198.63 L 7.11589,-198.964 L 7.105,-199.253 L 7.08455,-199.497 L 7.05875,-199.696
 L 7.03162,-199.849 L 7.00729,-199.958 L 6.98979,-200.022 L 6.98308,-200.043 L 6.64108,-201.021 L 8.72983,-201.872
 L 9.17366,-200.951 L 9.18393,-200.931 L 9.21712,-200.873 L 9.27673,-200.779 L 9.36607,-200.651 L 9.48831,-200.493
 L 9.64644,-200.306 L 9.84322,-200.093 L 10.0813,-199.859 L 10.3629,-199.606 L 10.6904,-199.339 L 11.0654,-199.059
 L 11.4898,-198.773 L 12.6383,-199.436 L 12.6024,-199.947 L 12.5482,-200.411 L 12.4799,-200.829 L 12.4018,-201.199
 L 12.318,-201.522 L 12.2326,-201.799 L 12.1497,-202.029 L 12.0734,-202.214 L 12.0075,-202.356 L 11.9559,-202.454
 L 11.9223,-202.512 L 11.9103,-202.531 L 11.327,-203.386 L 13.1241,-204.75 L 13.7914,-203.974 L 13.8064,-203.958
 L 13.8535,-203.91 L 13.9354,-203.835 L 14.0547,-203.735 L 14.2139,-203.613 L 14.415,-203.473 L 14.66,-203.319
 L 14.9506,-203.155 L 15.2881,-202.983 L 15.6737,-202.809 L 16.1082,-202.637 L 16.5923,-202.47 L 17.5301,-203.408
 L 17.3631,-203.892 L 17.1906,-204.326 L 17.0166,-204.712 L 16.8453,-205.049 L 16.6807,-205.34 L 16.5267,-205.585
 L 16.3869,-205.786 L 16.2652,-205.945 L 16.165,-206.065 L 16.0896,-206.147 L 16.0423,-206.194 L 16.0258,-206.209
 L 15.241,-206.884 L 16.6241,-208.666 L 17.4692,-208.09 L 17.488,-208.078 L 17.5457,-208.044 L 17.6444,-207.993
 L 17.7856,-207.927 L 17.9708,-207.85 L 18.2013,-207.767 L 18.4778,-207.682 L 18.8011,-207.598 L 19.1714,-207.52
 L 19.5889,-207.452 L 20.0532,-207.398 L 20.564,-207.362 L 21.2271,-208.51 L 20.9406,-208.935 L 20.6615,-209.31
 L 20.3936,-209.637 L 20.1408,-209.919 L 19.9066,-210.157 L 19.6944,-210.354 L 19.5074,-210.512 L 19.3486,-210.634
 L 19.2209,-210.723 L 19.1269,-210.783 L 19.069,-210.816 L 19.0492,-210.826 L 18.1163,-211.276 L 18.9911,-213.355
 L 19.9566,-213.017 L 19.9778,-213.01 L 20.0423,-212.993 L 20.1509,-212.968 L 20.3044,-212.941 L 20.5031,-212.915
 L 20.7471,-212.895 L 21.0363,-212.884 L 21.3703,-212.887 L 21.7482,-212.907 L 22.1691,-212.949 L 22.6317,-213.017
 L 23.1344,-213.115 L 23.4776,-214.396 L 23.091,-214.731 L 22.7243,-215.021 L 22.3809,-215.268 L 22.0638,-215.475
 L 21.7759,-215.644 L 21.52,-215.78 L 21.2985,-215.884 L 21.1135,-215.961 L 20.967,-216.014 L 20.8608,-216.047
 L 20.7962,-216.064 L 20.7745,-216.069 L 19.757,-216.262 L 20.0639,-218.496 L 21.084,-218.42 L 21.1062,-218.419
 L 21.173,-218.419 L 21.2842,-218.423 L 21.4395,-218.437 L 21.6381,-218.463 L 21.8791,-218.507 L 22.1613,-218.571
 L 22.4831,-218.66 L 22.8429,-218.778 L 23.2385,-218.927 L 23.6678,-219.113 L 24.1281,-219.337 L 24.1281,-220.663
 L 23.6678,-220.887 L 23.2385,-221.073 L 22.8429,-221.222 L 22.4831,-221.34 L 22.1613,-221.429 L 21.8791,-221.493
 L 21.6381,-221.537 L 21.4395,-221.563 L 21.2842,-221.577 L 21.173,-221.581 L 21.1062,-221.581 L 21.084,-221.58
 L 20.0514,-221.503 L 19.7694,-223.741 L 20.7745,-223.931 L 20.7962,-223.936 L 20.8608,-223.953 L 20.967,-223.986
 L 21.1135,-224.039 L 21.2985,-224.116 L 21.52,-224.22 L 21.7759,-224.356 L 22.0638,-224.525 L 22.3809,-224.732
 L 22.7243,-224.979 L 23.091,-225.269 L 23.4776,-225.604 L 23.1344,-226.885 L 22.6317,-226.983 L 22.1691,-227.051
 L 21.7482,-227.093 L 21.3703,-227.113 L 21.0363,-227.116 L 20.7471,-227.105 L 20.5031,-227.085 L 20.3044,-227.059
 L 20.1509,-227.032 L 20.0423,-227.007 L 19.9778,-226.99 L 19.9566,-226.983 L 18.9792,-226.641 L 18.1276,-228.73
 L 19.0492,-229.174 L 19.069,-229.184 L 19.1269,-229.217 L 19.2209,-229.277 L 19.3486,-229.366 L 19.5074,-229.488
 L 19.6944,-229.646 L 19.9066,-229.843 L 20.1408,-230.081 L 20.3936,-230.363 L 20.6615,-230.69 L 20.9406,-231.065
 L 21.2271,-231.49 L 20.564,-232.638 L 20.0532,-232.602 L 19.5889,-232.548 L 19.1714,-232.48 L 18.8011,-232.402
 L 18.4778,-232.318 L 18.2013,-232.233 L 17.9708,-232.15 L 17.7856,-232.073 L 17.6444,-232.007 L 17.5457,-231.956
 L 17.488,-231.922 L 17.4692,-231.91 L 16.6137,-231.327 L 15.2505,-233.124 L 16.0258,-233.791 L 16.0423,-233.806
 L 16.0896,-233.853 L 16.165,-233.935 L 16.2652,-234.055 L 16.3869,-234.214 L 16.5267,-234.415 L 16.6807,-234.66
 L 16.8453,-234.951 L 17.0166,-235.288 L 17.1906,-235.674 L 17.3631,-236.108 L 17.5301,-236.592 L 16.5923,-237.53
 L 16.1082,-237.363 L 15.6737,-237.191 L 15.2881,-237.017 L 14.9506,-236.845 L 14.66,-236.681 L 14.415,-236.527
 L 14.2139,-236.387 L 14.0547,-236.265 L 13.9354,-236.165 L 13.8535,-236.09 L 13.8064,-236.042 L 13.7914,-236.026
 L 13.116,-235.241 L 11.334,-236.624 L 11.9103,-237.469 L 11.9223,-237.488 L 11.9559,-237.546 L 12.0075,-237.644
 L 12.0734,-237.786 L 12.1497,-237.971 L 12.2326,-238.201 L 12.318,-238.478 L 12.4018,-238.801 L 12.4799,-239.171
 L 12.5482,-239.589 L 12.6024,-240.053 L 12.6383,-240.564 L 11.4898,-241.227 L 11.0654,-240.941 L 10.6904,-240.661
 L 10.3629,-240.394 L 10.0813,-240.141 L 9.84322,-239.907 L 9.64644,-239.694 L 9.48831,-239.507 L 9.36607,-239.349
 L 9.27673,-239.221 L 9.21712,-239.127 L 9.18393,-239.069 L 9.17366,-239.049 L 8.72438,-238.116 L 6.64522,-238.991
 L 6.98308,-239.957 L 6.98979,-239.978 L 7.00729,-240.042 L 7.03162,-240.151 L 7.05875,-240.304 L 7.08455,-240.503
 L 7.105,-240.747 L 7.11589,-241.036 L 7.11319,-241.37 L 7.09277,-241.748 L 7.05064,-242.169 L 6.98279,-242.632
 L 6.88533,-243.134 L 5.60429,-243.478 L 5.26854,-243.091 L 4.9785,-242.724 L 4.73155,-242.381 L 4.52492,-242.064
 L 4.35561,-241.776 L 4.22044,-241.52 L 4.11612,-241.298 L 4.03912,-241.113 L 3.98589,-240.967 L 3.95264,-240.861
 L 3.93558,-240.796 L 3.93077,-240.774 L 3.73827,-239.757 L 1.50354,-240.064 L 1.57999,-241.084 L 1.58098,-241.106
 L 1.58121,-241.173 L 1.57658,-241.284 L 1.56306,-241.439 L 1.53658,-241.638 L 1.49315,-241.879 L 1.42883,-242.161
 L 1.33978,-242.483 L 1.22226,-242.843 L 1.07262,-243.239 L 0.88736,-243.668 L 0.663116,-244.128 L -0.663116,-244.128
 L -0.88736,-243.668 L -1.07262,-243.239 L -1.22226,-242.843 L -1.33978,-242.483 L -1.42883,-242.161 L -1.49315,-241.879
 L -1.53658,-241.638 L -1.56306,-241.439 L -1.57658,-241.284 L -1.58121,-241.173 L -1.58098,-241.106 L -1.57999,-241.084
 L -1.50261,-240.051 L -3.7406,-239.769 L -3.93077,-240.774 L -3.93558,-240.796 L -3.95264,-240.861 L -3.98589,-240.967
 L -4.03912,-241.113 L -4.11612,-241.298 L -4.22044,-241.52 L -4.35561,-241.776 L -4.52492,-242.064 L -4.73155,-242.381
 L -4.9785,-242.724 L -5.26854,-243.091 L -5.60429,-243.478 L -6.88533,-243.134 L -6.98279,-242.632 L -7.05064,-242.169
 L -7.09277,-241.748 L -7.11319,-241.37 L -7.11589,-241.036 L -7.105,-240.747 L -7.08455,-240.503 L -7.05875,-240.304
 L -7.03162,-240.151 L -7.00729,-240.042 L -6.98979,-239.978 L -6.98308,-239.957 L -6.64108,-238.979 L -8.72983,-238.128
 L -9.17366,-239.049 L -9.18393,-239.069 L -9.21712,-239.127 L -9.27673,-239.221 L -9.36607,-239.349 L -9.48831,-239.507
 L -9.64644,-239.694 L -9.84322,-239.907 L -10.0813,-240.141 L -10.3629,-240.394 L -10.6904,-240.661 L -11.0654,-240.941
 L -11.4898,-241.227 L -12.6383,-240.564 L -12.6024,-240.053 L -12.5482,-239.589 L -12.4799,-239.171 L -12.4018,-238.801
 L -12.318,-238.478 L -12.2326,-238.201 L -12.1497,-237.971 L -12.0734,-237.786 L -12.0075,-237.644 L -11.9559,-237.546
 L -11.9223,-237.488 L -11.9103,-237.469 L -11.327,-236.614 L -13.1241,-235.25 L -13.7914,-236.026 L -13.8064,-236.042
 L -13.8535,-236.09 L -13.9354,-236.165 L -14.0547,-236.265 L -14.2139,-236.387 L -14.415,-236.527 L -14.66,-236.681
 L -14.9506,-236.845 L -15.2881,-237.017 L -15.6737,-237.191 L -16.1082,-237.363 L -16.5923,-237.53 L -17.5301,-236.592
 L -17.3631,-236.108 L -17.1906,-235.674 L -17.0166,-235.288 L -16.8453,-234.951 L -16.6807,-234.66 L -16.5267,-234.415
 L -16.3869,-234.214 L -16.2652,-234.055 L -16.165,-233.935 L -16.0896,-233.853 L -16.0423,-233.806 L -16.0258,-233.791
 L -15.241,-233.116 L -16.6241,-231.334 L -17.4692,-231.91 L -17.488,-231.922 L -17.5457,-231.956 L -17.6444,-232.007
 L -17.7856,-232.073 L -17.9708,-232.15 L -18.2013,-232.233 L -18.4778,-232.318 L -18.8011,-232.402 L -19.1714,-232.48
 L -19.5889,-232.548 L -20.0532,-232.602 L -20.564,-232.638 L -21.2271,-231.49 L -20.9406,-231.065 L -20.6615,-230.69
 L -20.3936,-230.363 L -20.1408,-230.081 L -19.9066,-229.843 L -19.6944,-229.646 L -19.5074,-229.488 L -19.3486,-229.366
 L -19.2209,-229.277 L -19.1269,-229.217 L -19.069,-229.184 L -19.0492,-229.174 L -18.1163,-228.724 L -18.9911,-226.645
 L -19.9566,-226.983 L -19.9778,-226.99 L -20.0423,-227.007 L -20.1509,-227.032 L -20.3044,-227.059 L -20.5031,-227.085
 L -20.7471,-227.105 L -21.0363,-227.116 L -21.3703,-227.113 L -21.7482,-227.093 L -22.1691,-227.051 L -22.6317,-226.983
 L -23.1344,-226.885 L -23.4776,-225.604 L -23.091,-225.269 L -22.7243,-224.979 L -22.3809,-224.732 L -22.0638,-224.525
 L -21.7759,-224.356 L -21.52,-224.22 L -21.2985,-224.116 L -21.1135,-224.039 L -20.967,-223.986 L -20.8608,-223.953
 L -20.7962,-223.936 L -20.7745,-223.931 L -19.757,-223.738 L -20.0639,-221.504 L -21.084,-221.58 L -21.1062,-221.581
 L -21.173,-221.581 L -21.2842,-221.577 L -21.4395,-221.563 L -21.6381,-221.537 L -21.8791,-221.493 L -22.1613,-221.429
 L -22.4831,-221.34 L -22.8429,-221.222 L -23.2385,-221.073 L -23.6678,-220.887 L -24.1281,-220.663 L -24.1281,-219.337
 L -23.6678,-219.113 L -23.2385,-218.927 L -22.8429,-218.778 L -22.4831,-218.66 L -22.1613,-218.571 L -21.8791,-218.507
 L -21.6381,-218.463 L -21.4395,-218.437 L -21.2842,-218.423 L -21.173,-218.419 L -21.1062,-218.419 L -21.084,-218.42
 L -20.0514,-218.497 L -19.7694,-216.259 L -20.7745,-216.069 L -20.7962,-216.064 L -20.8608,-216.047 L -20.967,-216.014
 L -21.1135,-215.961 L -21.2985,-215.884 L -21.52,-215.78 L -21.7759,-215.644 L -22.0638,-215.475 L -22.3809,-215.268
 L -22.7243,-215.021 L -23.091,-214.731 L -23.4776,-214.396 L -23.1344,-213.115 L -22.6317,-213.017 L -22.1691,-212.949
 L -21.7482,-212.907 L -21.3703,-212.887 L -21.0363,-212.884 L -20.7471,-212.895 L -20.5031,-212.915 L -20.3044,-212.941
 L -20.1509,-212.968 L -20.0423,-212.993 L -19.9778,-213.01 L -19.9566,-213.017 L -18.9792,-213.359 L -18.1276,-211.27
 L -19.0492,-210.826 L -19.069,-210.816 L -19.1269,-210.783 L -19.2209,-210.723 L -19.3486,-210.634 L -19.5074,-210.512
 L -19.6944,-210.354 L -19.9066,-210.157 L -20.1408,-209.919 L -20.3936,-209.637 L -20.6615,-209.31 L -20.9406,-208.935
 L -21.2271,-208.51 L -20.564,-207.362 L -20.0532,-207.398 L -19.5889,-207.452 L -19.1714,-207.52 L -18.8011,-207.598
 L -18.4778,-207.682 L -18.2013,-207.767 L -17.9708,-207.85 L -17.7856,-207.927 L -17.6444,-207.993 L -17.5457,-208.044
 L -17.488,-208.078 L -17.4692,-208.09 L -16.6137,-208.673 L -15.2505,-206.876 L -16.0258,-206.209 L -16.0423,-206.194
 L -16.0896,-206.147 L -16.165,-206.065 L -16.2652,-205.945 L -16.3869,-205.786 L -16.5267,-205.585 L -16.6807,-205.34
 L -16.8453,-205.049 L -17.0166,-204.712 L -17.1906,-204.326 L -17.3631,-203.892 L -17.5301,-203.408 L -16.5923,-202.47
 L -16.1082,-202.637 L -15.6737,-202.809 L -15.2881,-202.983 L -14.9506,-203.155 L -14.66,-203.319 L -14.415,-203.473
 L -14.2139,-203.613 L -14.0547,-203.735 L -13.9354,-203.835 L -13.8535,-203.91 L -13.8064,-203.958 L -13.7914,-203.974
 L -13.116,-204.759 L -11.334,-203.376 L -11.9103,-202.531 L -11.9223,-202.512 L -11.9559,-202.454 L -12.0075,-202.356
 L -12.0734,-202.214 L -12.1497,-202.029 L -12.2326,-201.799 L -12.318,-201.522 L -12.4018,-201.199 L -12.4799,-200.829
 L -12.5482,-200.411 L -12.6024,-199.947 L -12.6383,-199.436 L -11.4898,-198.773 L -11.0654,-199.059 L -10.6904,-199.339
 L -10.3629,-199.606 L -10.0813,-199.859 L -9.84322,-200.093 L -9.64644,-200.306 L -9.48831,-200.493 L -9.36607,-200.651
 L -9.27673,-200.779 L -9.21712,-200.873 L -9.18393,-200.931 L -9.17366,-200.951 L -8.72438,-201.884 L -6.64522,-201.009
 L -6.98308,-200.043 L -6.98979,-200.022 L -7.00729,-199.958 L -7.03162,-199.849 L -7.05875,-199.696 L -7.08455,-199.497
 L -7.105,-199.253 L -7.11589,-198.964 L -7.11319,-198.63 L -7.09277,-198.252 L -7.05064,-197.831 L -6.98279,-197.368
 L -6.88533,-196.866 L -5.60429,-196.522 L -5.26854,-196.909 L -4.9785,-197.276 L -4.73155,-197.619 L -4.52492,-197.936
 L -4.35561,-198.224 L -4.22044,-198.48 L -4.11612,-198.702 L -4.03912,-198.887 L -3.98589,-199.033 L -3.95264,-199.139
 L -3.93558,-199.204 L -3.93077,-199.226 L -3.73827,-200.243 L -1.50354,-199.936 L -1.57999,-198.916 L -1.58098,-198.894
 L -1.58121,-198.827 L -1.57658,-198.716 L -1.56306,-198.561 L -1.53658,-198.362 L -1.49315,-198.121 L -1.42883,-197.839
 L -1.33978,-197.517 L -1.22226,-197.157 L -1.07262,-196.761 L -0.88736,-196.332 L -0.663116,-195.872 L 0.663116,-195.872
 z
M -0.18837,-232.006 L -0.562134,-232.053 L -0.927048,-232.147 L -1.27733,-232.286 L -1.60747,-232.467 L -1.91226,-232.688
 L -2.1869,-232.946 L -2.42705,-233.237 L -2.62891,-233.555 L -2.78932,-233.896 L -2.90575,-234.254 L -2.97633,-234.624
 L -3,-235 L -2.97633,-235.376 L -2.90575,-235.746 L -2.78932,-236.104 L -2.62891,-236.445 L -2.42705,-236.763
 L -2.1869,-237.054 L -1.91226,-237.312 L -1.60747,-237.533 L -1.27733,-237.714 L -0.927048,-237.853 L -0.562134,-237.947
 L -0.18837,-237.994 L 0.18837,-237.994 L 0.562134,-237.947 L 0.927048,-237.853 L 1.27733,-237.714 L 1.60747,-237.533
 L 1.91226,-237.312 L 2.1869,-237.054 L 2.42705,-236.763 L 2.62891,-236.445 L 2.78932,-236.104 L 2.90575,-235.746
 L 2.97633,-235.376 L 3,-235 L 2.97633,-234.624 L 2.90575,-234.254 L 2.78932,-233.896 L 2.62891,-233.555
 L 2.42705,-233.237 L 2.1869,-232.946 L 1.91226,-232.688 L 1.60747,-232.467 L 1.27733,-232.286 L 0.927048,-232.147
 L 0.562134,-232.053 L 0.18837,-232.006 z
M -7.59418,-233.503 L -7.78107,-233.527 L -7.96352,-233.573 L -8.13866,-233.643 L -8.30373,-233.734 L -8.45613,-233.844
 L -8.59344,-233.973 L -8.71352,-234.118 L -8.81445,-234.277 L -8.89465,-234.448 L -8.95287,-234.627 L -8.98816,-234.812
 L -9,-235 L -8.98816,-235.188 L -8.95287,-235.373 L -8.89465,-235.552 L -8.81445,-235.723 L -8.71352,-235.882
 L -8.59344,-236.027 L -8.45613,-236.156 L -8.30373,-236.266 L -8.13866,-236.357 L -7.96352,-236.427 L -7.78107,-236.473
 L -7.59418,-236.497 L -7.40581,-236.497 L -7.21892,-236.473 L -7.03647,-236.427 L -6.86133,-236.357 L -6.69626,-236.266
 L -6.54385,-236.156 L -6.40654,-236.027 L -6.28647,-235.882 L -6.18553,-235.723 L -6.10533,-235.552 L -6.04712,-235.373
 L -6.01183,-235.188 L -6,-235 L -6.01183,-234.812 L -6.04712,-234.627 L -6.10533,-234.448 L -6.18553,-234.277
 L -6.28647,-234.118 L -6.40654,-233.973 L -6.54385,-233.844 L -6.69626,-233.734 L -6.86133,-233.643 L -7.03647,-233.573
 L -7.21892,-233.527 L -7.40581,-233.503 z
M 7.40581,-233.503 L 7.21892,-233.527 L 7.03647,-233.573 L 6.86133,-233.643 L 6.69626,-233.734 L 6.54385,-233.844
 L 6.40654,-233.973 L 6.28647,-234.118 L 6.18553,-234.277 L 6.10533,-234.448 L 6.04712,-234.627 L 6.01183,-234.812
 L 6,-235 L 6.01183,-235.188 L 6.04712,-235.373 L 6.10533,-235.552 L 6.18553,-235.723 L 6.28647,-235.882
 L 6.40654,-236.027 L 6.54385,-236.156 L 6.69626,-236.266 L 6.86133,-236.357 L 7.03647,-236.427 L 7.21892,-236.473
 L 7.40581,-236.497 L 7.59418,-236.497 L 7.78107,-236.473 L 7.96352,-236.427 L 8.13866,-236.357 L 8.30373,-236.266
 L 8.45613,-236.156 L 8.59344,-236.027 L 8.71352,-235.882 L 8.81445,-235.723 L 8.89465,-235.552 L 8.95287,-235.373
 L 8.98816,-235.188 L 9,-235 L 8.98816,-234.812 L 8.95287,-234.627 L 8.89465,-234.448 L 8.81445,-234.277
 L 8.71352,-234.118 L 8.59344,-233.973 L 8.45613,-233.844 L 8.30373,-233.734 L 8.13866,-233.643 L 7.96352,-233.573
 L 7.78107,-233.527 L 7.59418,-233.503 z
M 14.9058,-226.003 L 14.7189,-226.027 L 14.5365,-226.073 L 14.3613,-226.143 L 14.1963,-226.234 L 14.0439,-226.344
 L 13.9065,-226.473 L 13.7865,-226.618 L 13.6855,-226.777 L 13.6053,-226.948 L 13.5471,-227.127 L 13.5118,-227.312
 L 13.5,-227.5 L 13.5118,-227.688 L 13.5471,-227.873 L 13.6053,-228.052 L 13.6855,-228.223 L 13.7865,-228.382
 L 13.9065,-228.527 L 14.0439,-228.656 L 14.1963,-228.766 L 14.3613,-228.857 L 14.5365,-228.927 L 14.7189,-228.973
 L 14.9058,-228.997 L 15.0942,-228.997 L 15.2811,-228.973 L 15.4635,-228.927 L 15.6387,-228.857 L 15.8037,-228.766
 L 15.9561,-228.656 L 16.0934,-228.527 L 16.2135,-228.382 L 16.3145,-228.223 L 16.3947,-228.052 L 16.4529,-227.873
 L 16.4882,-227.688 L 16.5,-227.5 L 16.4882,-227.312 L 16.4529,-227.127 L 16.3947,-226.948 L 16.3145,-226.777
 L 16.2135,-226.618 L 16.0934,-226.473 L 15.9561,-226.344 L 15.8037,-226.234 L 15.6387,-226.143 L 15.4635,-226.073
 L 15.2811,-226.027 L 15.0942,-226.003 z
M -15.0942,-226.003 L -15.2811,-226.027 L -15.4635,-226.073 L -15.6387,-226.143 L -15.8037,-226.234 L -15.9561,-226.344
 L -16.0934,-226.473 L -16.2135,-226.618 L -16.3145,-226.777 L -16.3947,-226.948 L -16.4529,-227.127 L -16.4882,-227.312
 L -16.5,-227.5 L -16.4882,-227.688 L -16.4529,-227.873 L -16.3947,-228.052 L -16.3145,-228.223 L -16.2135,-228.382
 L -16.0934,-228.527 L -15.9561,-228.656 L -15.8037,-228.766 L -15.6387,-228.857 L -15.4635,-228.927 L -15.2811,-228.973
 L -15.0942,-228.997 L -14.9058,-228.997 L -14.7189,-228.973 L -14.5365,-228.927 L -14.3613,-228.857 L -14.1963,-228.766
 L -14.0439,-228.656 L -13.9065,-228.527 L -13.7865,-228.382 L -13.6855,-228.223 L -13.6053,-228.052 L -13.5471,-227.873
 L -13.5118,-227.688 L -13.5,-227.5 L -13.5118,-227.312 L -13.5471,-227.127 L -13.6053,-226.948 L -13.6855,-226.777
 L -13.7865,-226.618 L -13.9065,-226.473 L -14.0439,-226.344 L -14.1963,-226.234 L -14.3613,-226.143 L -14.5365,-226.073
 L -14.7189,-226.027 L -14.9058,-226.003 z
M 14.8116,-217.006 L 14.4379,-217.053 L 14.0729,-217.147 L 13.7227,-217.286 L 13.3925,-217.467 L 13.0877,-217.688
 L 12.8131,-217.946 L 12.5729,-218.237 L 12.3711,-218.555 L 12.2107,-218.896 L 12.0942,-219.254 L 12.0237,-219.624
 L 12,-220 L 12.0237,-220.376 L 12.0942,-220.746 L 12.2107,-221.104 L 12.3711,-221.445 L 12.5729,-221.763
 L 12.8131,-222.054 L 13.0877,-222.312 L 13.3925,-222.533 L 13.7227,-222.714 L 14.0729,-222.853 L 14.4379,-222.947
 L 14.8116,-222.994 L 15.1884,-222.994 L 15.5621,-222.947 L 15.927,-222.853 L 16.2773,-222.714 L 16.6075,-222.533
 L 16.9123,-222.312 L 17.1869,-222.054 L 17.427,-221.763 L 17.6289,-221.445 L 17.7893,-221.104 L 17.9057,-220.746
 L 17.9763,-220.376 L 18,-220 L 17.9763,-219.624 L 17.9057,-219.254 L 17.7893,-218.896 L 17.6289,-218.555
 L 17.427,-218.237 L 17.1869,-217.946 L 16.9123,-217.688 L 16.6075,-217.467 L 16.2773,-217.286 L 15.927,-217.147
 L 15.5621,-217.053 L 15.1884,-217.006 z
M -15.1884,-217.006 L -15.5621,-217.053 L -15.927,-217.147 L -16.2773,-217.286 L -16.6075,-217.467 L -16.9123,-217.688
 L -17.1869,-217.946 L -17.427,-218.237 L -17.6289,-218.555 L -17.7893,-218.896 L -17.9057,-219.254 L -17.9763,-219.624
 L -18,-220 L -17.9763,-220.376 L -17.9057,-220.746 L -17.7893,-221.104 L -17.6289,-221.445 L -17.427,-221.763
 L -17.1869,-222.054 L -16.9123,-222.312 L -16.6075,-222.533 L -16.2773,-222.714 L -15.927,-222.853 L -15.5621,-222.947
 L -15.1884,-222.994 L -14.8116,-222.994 L -14.4379,-222.947 L -14.0729,-222.853 L -13.7227,-222.714 L -13.3925,-222.533
 L -13.0877,-222.312 L -12.8131,-222.054 L -12.5729,-221.763 L -12.3711,-221.445 L -12.2107,-221.104 L -12.0942,-220.746
 L -12.0237,-220.376 L -12,-220 L -12.0237,-219.624 L -12.0942,-219.254 L -12.2107,-218.896 L -12.3711,-218.555
 L -12.5729,-218.237 L -12.8131,-217.946 L -13.0877,-217.688 L -13.3925,-217.467 L -13.7227,-217.286 L -14.0729,-217.147
 L -14.4379,-217.053 L -14.8116,-217.006 z
M -0.18837,-217.006 L -0.562134,-217.053 L -0.927048,-217.147 L -1.27733,-217.286 L -1.60747,-217.467 L -1.91226,-217.688
 L -2.1869,-217.946 L -2.42705,-218.237 L -2.62891,-218.555 L -2.78932,-218.896 L -2.90575,-219.254 L -2.97633,-219.624
 L -3,-220 L -2.97633,-220.376 L -2.90575,-220.746 L -2.78932,-221.104 L -2.62891,-221.445 L -2.42705,-221.763
 L -2.1869,-222.054 L -1.91226,-222.312 L -1.60747,-222.533 L -1.27733,-222.714 L -0.927048,-222.853 L -0.562134,-222.947
 L -0.18837,-222.994 L 0.18837,-222.994 L 0.562134,-222.947 L 0.927048,-222.853 L 1.27733,-222.714 L 1.60747,-222.533
 L 1.91226,-222.312 L 2.1869,-222.054 L 2.42705,-221.763 L 2.62891,-221.445 L 2.78932,-221.104 L 2.90575,-220.746
 L 2.97633,-220.376 L 3,-220 L 2.97633,-219.624 L 2.90575,-219.254 L 2.78932,-218.896 L 2.62891,-218.555
 L 2.42705,-218.237 L 2.1869,-217.946 L 1.91226,-217.688 L 1.60747,-217.467 L 1.27733,-217.286 L 0.927048,-217.147
 L 0.562134,-217.053 L 0.18837,-217.006 z
M -15.0942,-211.003 L -15.2811,-211.027 L -15.4635,-211.073 L -15.6387,-211.143 L -15.8037,-211.234 L -15.9561,-211.344
 L -16.0934,-211.473 L -16.2135,-211.618 L -16.3145,-211.777 L -16.3947,-211.948 L -16.4529,-212.127 L -16.4882,-212.312
 L -16.5,-212.5 L -16.4882,-212.688 L -16.4529,-212.873 L -16.3947,-213.052 L -16.3145,-213.223 L -16.2135,-213.382
 L -16.0934,-213.527 L -15.9561,-213.656 L -15.8037,-213.766 L -15.6387,-213.857 L -15.4635,-213.927 L -15.2811,-213.973
 L -15.0942,-213.997 L -14.9058,-213.997 L -14.7189,-213.973 L -14.5365,-213.927 L -14.3613,-213.857 L -14.1963,-213.766
 L -14.0439,-213.656 L -13.9065,-213.527 L -13.7865,-213.382 L -13.6855,-213.223 L -13.6053,-213.052 L -13.5471,-212.873
 L -13.5118,-212.688 L -13.5,-212.5 L -13.5118,-212.312 L -13.5471,-212.127 L -13.6053,-211.948 L -13.6855,-211.777
 L -13.7865,-211.618 L -13.9065,-211.473 L -14.0439,-211.344 L -14.1963,-211.234 L -14.3613,-211.143 L -14.5365,-211.073
 L -14.7189,-211.027 L -14.9058,-211.003 z
M 14.9058,-211.003 L 14.7189,-211.027 L 14.5365,-211.073 L 14.3613,-211.143 L 14.1963,-211.234 L 14.0439,-211.344
 L 13.9065,-211.473 L 13.7865,-211.618 L 13.6855,-211.777 L 13.6053,-211.948 L 13.5471,-212.127 L 13.5118,-212.312
 L 13.5,-212.5 L 13.5118,-212.688 L 13.5471,-212.873 L 13.6053,-213.052 L 13.6855,-213.223 L 13.7865,-213.382
 L 13.9065,-213.527 L 14.0439,-213.656 L 14.1963,-213.766 L 14.3613,-213.857 L 14.5365,-213.927 L 14.7189,-213.973
 L 14.9058,-213.997 L 15.0942,-213.997 L 15.2811,-213.973 L 15.4635,-213.927 L 15.6387,-213.857 L 15.8037,-213.766
 L 15.9561,-213.656 L 16.0934,-213.527 L 16.2135,-213.382 L 16.3145,-213.223 L 16.3947,-213.052 L 16.4529,-212.873
 L 16.4882,-212.688 L 16.5,-212.5 L 16.4882,-212.312 L 16.4529,-212.127 L 16.3947,-211.948 L 16.3145,-211.777
 L 16.2135,-211.618 L 16.0934,-211.473 L 15.9561,-211.344 L 15.8037,-211.234 L 15.6387,-211.143 L 15.4635,-211.073
 L 15.2811,-211.027 L 15.0942,-211.003 z
M -0.18837,-202.006 L -0.562134,-202.053 L -0.927048,-202.147 L -1.27733,-202.286 L -1.60747,-202.467 L -1.91226,-202.688
 L -2.1869,-202.946 L -2.42705,-203.237 L -2.62891,-203.555 L -2.78932,-203.896 L -2.90575,-204.254 L -2.97633,-204.624
 L -3,-205 L -2.97633,-205.376 L -2.90575,-205.746 L -2.78932,-206.104 L -2.62891,-206.445 L -2.42705,-206.763
 L -2.1869,-207.054 L -1.91226,-207.312 L -1.60747,-207.533 L -1.27733,-207.714 L -0.927048,-207.853 L -0.562134,-207.947
 L -0.18837,-207.994 L 0.18837,-207.994 L 0.562134,-207.947 L 0.927048,-207.853 L 1.27733,-207.714 L 1.60747,-207.533
 L 1.91226,-207.312 L 2.1869,-207.054 L 2.42705,-206.763 L 2.62891,-206.445 L 2.78932,-206.104 L 2.90575,-205.746
 L 2.97633,-205.376 L 3,-205 L 2.97633,-204.624 L 2.90575,-204.254 L 2.78932,-203.896 L 2.62891,-203.555
 L 2.42705,-203.237 L 2.1869,-202.946 L 1.91226,-202.688 L 1.60747,-202.467 L 1.27733,-202.286 L 0.927048,-202.147
 L 0.562134,-202.053 L 0.18837,-202.006 z
M 7.40581,-203.503 L 7.21892,-203.527 L 7.03647,-203.573 L 6.86133,-203.643 L 6.69626,-203.734 L 6.54385,-203.844
 L 6.40654,-203.973 L 6.28647,-204.118 L 6.18553,-204.277 L 6.10533,-204.448 L 6.04712,-204.627 L 6.01183,-204.812
 L 6,-205 L 6.01183,-205.188 L 6.04712,-205.373 L 6.10533,-205.552 L 6.18553,-205.723 L 6.28647,-205.882
 L 6.40654,-206.027 L 6.54385,-206.156 L 6.69626,-206.266 L 6.86133,-206.357 L 7.03647,-206.427 L 7.21892,-206.473
 L 7.40581,-206.497 L 7.59418,-206.497 L 7.78107,-206.473 L 7.96352,-206.427 L 8.13866,-206.357 L 8.30373,-206.266
 L 8.45613,-206.156 L 8.59344,-206.027 L 8.71352,-205.882 L 8.81445,-205.723 L 8.89465,-205.552 L 8.95287,-205.373
 L 8.98816,-205.188 L 9,-205 L 8.98816,-204.812 L 8.95287,-204.627 L 8.89465,-204.448 L 8.81445,-204.277
 L 8.71352,-204.118 L 8.59344,-203.973 L 8.45613,-203.844 L 8.30373,-203.734 L 8.13866,-203.643 L 7.96352,-203.573
 L 7.78107,-203.527 L 7.59418,-203.503 z
M -7.59418,-203.503 L -7.78107,-203.527 L -7.96352,-203.573 L -8.13866,-203.643 L -8.30373,-203.734 L -8.45613,-203.844
 L -8.59344,-203.973 L -8.71352,-204.118 L -8.81445,-204.277 L -8.89465,-204.448 L -8.95287,-204.627 L -8.98816,-204.812
 L -9,-205 L -8.98816,-205.188 L -8.95287,-205.373 L -8.89465,-205.552 L -8.81445,-205.723 L -8.71352,-205.882
 L -8.59344,-206.027 L -8.45613,-206.156 L -8.30373,-206.266 L -8.13866,-206.357 L -7.96352,-206.427 L -7.78107,-206.473
 L -7.59418,-206.497 L -7.40581,-206.497 L -7.21892,-206.473 L -7.03647,-206.427 L -6.86133,-206.357 L -6.69626,-206.266
 L -6.54385,-206.156 L -6.40654,-206.027 L -6.28647,-205.882 L -6.18553,-205.723 L -6.10533,-205.552 L -6.04712,-205.373
 L -6.01183,-205.188 L -6,-205 L -6.01183,-204.812 L -6.04712,-204.627 L -6.10533,-204.448 L -6.18553,-204.277
 L -6.28647,-204.118 L -6.40654,-203.973 L -6.54385,-203.844 L -6.69626,-203.734 L -6.86133,-203.643 L -7.03647,-203.573
 L -7.21892,-203.527 L -7.40581,-203.503 z
M 0.88736,-86.3322 L 1.07262,-86.7615 L 1.22226,-87.1571 L 1.33978,-87.5169 L 1.42883,-87.8387 L 1.49315,-88.1209
 L 1.53658,-88.3619 L 1.56306,-88.5605 L 1.57658,-88.7158 L 1.58121,-88.827 L 1.58098,-88.8938 L 1.57999,-88.916
 L 1.50261,-89.9486 L 3.7406,-90.2306 L 3.93077,-89.2255 L 3.93558,-89.2038 L 3.95264,-89.1392 L 3.98589,-89.033
 L 4.03912,-88.8865 L 4.11612,-88.7015 L 4.22044,-88.48 L 4.35561,-88.2241 L 4.52492,-87.9362 L 4.73155,-87.6191
 L 4.9785,-87.2757 L 5.26854,-86.909 L 5.60429,-86.5224 L 6.88533,-86.8656 L 6.98279,-87.3683 L 7.05064,-87.8309
 L 7.09277,-88.2518 L 7.11319,-88.6297 L 7.11589,-88.9637 L 7.105,-89.2529 L 7.08455,-89.4969 L 7.05875,-89.6956
 L 7.03162,-89.8491 L 7.00729,-89.9577 L 6.98979,-90.0222 L 6.98308,-90.0434 L 6.64108,-91.0208 L 8.72983,-91.8724
 L 9.17366,-90.9508 L 9.18393,-90.931 L 9.21712,-90.8731 L 9.27673,-90.7791 L 9.36607,-90.6514 L 9.48831,-90.4926
 L 9.64644,-90.3056 L 9.84322,-90.0934 L 10.0813,-89.8592 L 10.3629,-89.6064 L 10.6904,-89.3385 L 11.0654,-89.0594
 L 11.4898,-88.7729 L 12.6383,-89.436 L 12.6024,-89.9468 L 12.5482,-90.4111 L 12.4799,-90.8286 L 12.4018,-91.1989
 L 12.318,-91.5222 L 12.2326,-91.7987 L 12.1497,-92.0292 L 12.0734,-92.2144 L 12.0075,-92.3556 L 11.9559,-92.4543
 L 11.9223,-92.512 L 11.9103,-92.5308 L 11.327,-93.3863 L 13.1241,-94.7495 L 13.7914,-93.9742 L 13.8064,-93.9577
 L 13.8535,-93.9104 L 13.9354,-93.835 L 14.0547,-93.7348 L 14.2139,-93.6131 L 14.415,-93.4733 L 14.66,-93.3193
 L 14.9506,-93.1547 L 15.2881,-92.9834 L 15.6737,-92.8094 L 16.1082,-92.6369 L 16.5923,-92.4699 L 17.5301,-93.4077
 L 17.3631,-93.8918 L 17.1906,-94.3263 L 17.0166,-94.7119 L 16.8453,-95.0494 L 16.6807,-95.34 L 16.5267,-95.585
 L 16.3869,-95.7861 L 16.2652,-95.9453 L 16.165,-96.0646 L 16.0896,-96.1465 L 16.0423,-96.1936 L 16.0258,-96.2086
 L 15.241,-96.884 L 16.6241,-98.666 L 17.4692,-98.0897 L 17.488,-98.0777 L 17.5457,-98.0441 L 17.6444,-97.9925
 L 17.7856,-97.9266 L 17.9708,-97.8503 L 18.2013,-97.7674 L 18.4778,-97.682 L 18.8011,-97.5982 L 19.1714,-97.5201
 L 19.5889,-97.4518 L 20.0532,-97.3976 L 20.564,-97.3617 L 21.2271,-98.5102 L 20.9406,-98.9346 L 20.6615,-99.3096
 L 20.3936,-99.6371 L 20.1408,-99.9187 L 19.9066,-100.157 L 19.6944,-100.354 L 19.5074,-100.512 L 19.3486,-100.634
 L 19.2209,-100.723 L 19.1269,-100.783 L 19.069,-100.816 L 19.0492,-100.826 L 18.1163,-101.276 L 18.9911,-103.355
 L 19.9566,-103.017 L 19.9778,-103.01 L 20.0423,-102.993 L 20.1509,-102.968 L 20.3044,-102.941 L 20.5031,-102.915
 L 20.7471,-102.895 L 21.0363,-102.884 L 21.3703,-102.887 L 21.7482,-102.907 L 22.1691,-102.949 L 22.6317,-103.017
 L 23.1344,-103.115 L 23.4776,-104.396 L 23.091,-104.731 L 22.7243,-105.021 L 22.3809,-105.268 L 22.0638,-105.475
 L 21.7759,-105.644 L 21.52,-105.78 L 21.2985,-105.884 L 21.1135,-105.961 L 20.967,-106.014 L 20.8608,-106.047
 L 20.7962,-106.064 L 20.7745,-106.069 L 19.757,-106.262 L 20.0639,-108.496 L 21.084,-108.42 L 21.1062,-108.419
 L 21.173,-108.419 L 21.2842,-108.423 L 21.4395,-108.437 L 21.6381,-108.463 L 21.8791,-108.507 L 22.1613,-108.571
 L 22.4831,-108.66 L 22.8429,-108.778 L 23.2385,-108.927 L 23.6678,-109.113 L 24.1281,-109.337 L 24.1281,-110.663
 L 23.6678,-110.887 L 23.2385,-111.073 L 22.8429,-111.222 L 22.4831,-111.34 L 22.1613,-111.429 L 21.8791,-111.493
 L 21.6381,-111.537 L 21.4395,-111.563 L 21.2842,-111.577 L 21.173,-111.581 L 21.1062,-111.581 L 21.084,-111.58
 L 20.0514,-111.503 L 19.7694,-113.741 L 20.7745,-113.931 L 20.7962,-113.936 L 20.8608,-113.953 L 20.967,-113.986
 L 21.1135,-114.039 L 21.2985,-114.116 L 21.52,-114.22 L 21.7759,-114.356 L 22.0638,-114.525 L 22.3809,-114.732
 L 22.7243,-114.979 L 23.091,-115.269 L 23.4776,-115.604 L 23.1344,-116.885 L 22.6317,-116.983 L 22.1691,-117.051
 L 21.7482,-117.093 L 21.3703,-117.113 L 21.0363,-117.116 L 20.7471,-117.105 L 20.5031,-117.085 L 20.3044,-117.059
 L 20.1509,-117.032 L 20.0423,-117.007 L 19.9778,-116.99 L 19.9566,-116.983 L 18.9792,-116.641 L 18.1276,-118.73
 L 19.0492,-119.174 L 19.069,-119.184 L 19.1269,-119.217 L 19.2209,-119.277 L 19.3486,-119.366 L 19.5074,-119.488
 L 19.6944,-119.646 L 19.9066,-119.843 L 20.1408,-120.081 L 20.3936,-120.363 L 20.6615,-120.69 L 20.9406,-121.065
 L 21.2271,-121.49 L 20.564,-122.638 L 20.0532,-122.602 L 19.5889,-122.548 L 19.1714,-122.48 L 18.8011,-122.402
 L 18.4778,-122.318 L 18.2013,-122.233 L 17.9708,-122.15 L 17.7856,-122.073 L 17.6444,-122.007 L 17.5457,-121.956
 L 17.488,-121.922 L 17.4692,-121.91 L 16.6137,-121.327 L 15.2505,-123.124 L 16.0258,-123.791 L 16.0423,-123.806
 L 16.0896,-123.853 L 16.165,-123.935 L 16.2652,-124.055 L 16.3869,-124.214 L 16.5267,-124.415 L 16.6807,-124.66
 L 16.8453,-124.951 L 17.0166,-125.288 L 17.1906,-125.674 L 17.3631,-126.108 L 17.5301,-126.592 L 16.5923,-127.53
 L 16.1082,-127.363 L 15.6737,-127.191 L 15.2881,-127.017 L 14.9506,-126.845 L 14.66,-126.681 L 14.415,-126.527
 L 14.2139,-126.387 L 14.0547,-126.265 L 13.9354,-126.165 L 13.8535,-126.09 L 13.8064,-126.042 L 13.7914,-126.026
 L 13.116,-125.241 L 11.334,-126.624 L 11.9103,-127.469 L 11.9223,-127.488 L 11.9559,-127.546 L 12.0075,-127.644
 L 12.0734,-127.786 L 12.1497,-127.971 L 12.2326,-128.201 L 12.318,-128.478 L 12.4018,-128.801 L 12.4799,-129.171
 L 12.5482,-129.589 L 12.6024,-130.053 L 12.6383,-130.564 L 11.4898,-131.227 L 11.0654,-130.941 L 10.6904,-130.661
 L 10.3629,-130.394 L 10.0813,-130.141 L 9.84322,-129.907 L 9.64644,-129.694 L 9.48831,-129.507 L 9.36607,-129.349
 L 9.27673,-129.221 L 9.21712,-129.127 L 9.18393,-129.069 L 9.17366,-129.049 L 8.72438,-128.116 L 6.64522,-128.991
 L 6.98308,-129.957 L 6.98979,-129.978 L 7.00729,-130.042 L 7.03162,-130.151 L 7.05875,-130.304 L 7.08455,-130.503
 L 7.105,-130.747 L 7.11589,-131.036 L 7.11319,-131.37 L 7.09277,-131.748 L 7.05064,-132.169 L 6.98279,-132.632
 L 6.88533,-133.134 L 5.60429,-133.478 L 5.26854,-133.091 L 4.9785,-132.724 L 4.73155,-132.381 L 4.52492,-132.064
 L 4.35561,-131.776 L 4.22044,-131.52 L 4.11612,-131.298 L 4.03912,-131.113 L 3.98589,-130.967 L 3.95264,-130.861
 L 3.93558,-130.796 L 3.93077,-130.774 L 3.73827,-129.757 L 1.50354,-130.064 L 1.57999,-131.084 L 1.58098,-131.106
 L 1.58121,-131.173 L 1.57658,-131.284 L 1.56306,-131.439 L 1.53658,-131.638 L 1.49315,-131.879 L 1.42883,-132.161
 L 1.33978,-132.483 L 1.22226,-132.843 L 1.07262,-133.239 L 0.88736,-133.668 L 0.663116,-134.128 L -0.663116,-134.128
 L -0.88736,-133.668 L -1.07262,-133.239 L -1.22226,-132.843 L -1.33978,-132.483 L -1.42883,-132.161 L -1.49315,-131.879
 L -1.53658,-131.638 L -1.56306,-131.439 L -1.57658,-131.284 L -1.58121,-131.173 L -1.58098,-131.106 L -1.57999,-131.084
 L -1.50261,-130.051 L -3.7406,-129.769 L -3.93077,-130.774 L -3.93558,-130.796 L -3.95264,-130.861 L -3.98589,-130.967
 L -4.03912,-131.113 L -4.11612,-131.298 L -4.22044,-131.52 L -4.35561,-131.776 L -4.52492,-132.064 L -4.73155,-132.381
 L -4.9785,-132.724 L -5.26854,-133.091 L -5.60429,-133.478 L -6.88533,-133.134 L -6.98279,-132.632 L -7.05064,-132.169
 L -7.09277,-131.748 L -7.11319,-131.37 L -7.11589,-131.036 L -7.105,-130.747 L -7.08455,-130.503 L -7.05875,-130.304
 L -7.03162,-130.151 L -7.00729,-130.042 L -6.98979,-129.978 L -6.98308,-129.957 L -6.64108,-128.979 L -8.72983,-128.128
 L -9.17366,-129.049 L -9.18393,-129.069 L -9.21712,-129.127 L -9.27673,-129.221 L -9.36607,-129.349 L -9.48831,-129.507
 L -9.64644,-129.694 L -9.84322,-129.907 L -10.0813,-130.141 L -10.3629,-130.394 L -10.6904,-130.661 L -11.0654,-130.941
 L -11.4898,-131.227 L -12.6383,-130.564 L -12.6024,-130.053 L -12.5482,-129.589 L -12.4799,-129.171 L -12.4018,-128.801
 L -12.318,-128.478 L -12.2326,-128.201 L -12.1497,-127.971 L -12.0734,-127.786 L -12.0075,-127.644 L -11.9559,-127.546
 L -11.9223,-127.488 L -11.9103,-127.469 L -11.327,-126.614 L -13.1241,-125.25 L -13.7914,-126.026 L -13.8064,-126.042
 L -13.8535,-126.09 L -13.9354,-126.165 L -14.0547,-126.265 L -14.2139,-126.387 L -14.415,-126.527 L -14.66,-126.681
 L -14.9506,-126.845 L -15.2881,-127.017 L -15.6737,-127.191 L -16.1082,-127.363 L -16.5923,-127.53 L -17.5301,-126.592
 L -17.3631,-126.108 L -17.1906,-125.674 L -17.0166,-125.288 L -16.8453,-124.951 L -16.6807,-124.66 L -16.5267,-124.415
 L -16.3869,-124.214 L -16.2652,-124.055 L -16.165,-123.935 L -16.0896,-123.853 L -16.0423,-123.806 L -16.0258,-123.791
 L -15.241,-123.116 L -16.6241,-121.334 L -17.4692,-121.91 L -17.488,-121.922 L -17.5457,-121.956 L -17.6444,-122.007
 L -17.7856,-122.073 L -17.9708,-122.15 L -18.2013,-122.233 L -18.4778,-122.318 L -18.8011,-122.402 L -19.1714,-122.48
 L -19.5889,-122.548 L -20.0532,-122.602 L -20.564,-122.638 L -21.2271,-121.49 L -20.9406,-121.065 L -20.6615,-120.69
 L -20.3936,-120.363 L -20.1408,-120.081 L -19.9066,-119.843 L -19.6944,-119.646 L -19.5074,-119.488 L -19.3486,-119.366
 L -19.2209,-119.277 L -19.1269,-119.217 L -19.069,-119.184 L -19.0492,-119.174 L -18.1163,-118.724 L -18.9911,-116.645
 L -19.9566,-116.983 L -19.9778,-116.99 L -20.0423,-117.007 L -20.1509,-117.032 L -20.3044,-117.059 L -20.5031,-117.085
 L -20.7471,-117.105 L -21.0363,-117.116 L -21.3703,-117.113 L -21.7482,-117.093 L -22.1691,-117.051 L -22.6317,-116.983
 L -23.1344,-116.885 L -23.4776,-115.604 L -23.091,-115.269 L -22.7243,-114.979 L -22.3809,-114.732 L -22.0638,-114.525
 L -21.7759,-114.356 L -21.52,-114.22 L -21.2985,-114.116 L -21.1135,-114.039 L -20.967,-113.986 L -20.8608,-113.953
 L -20.7962,-113.936 L -20.7745,-113.931 L -19.757,-113.738 L -20.0639,-111.504 L -21.084,-111.58 L -21.1062,-111.581
 L -21.173,-111.581 L -21.2842,-111.577 L -21.4395,-111.563 L -21.6381,-111.537 L -21.8791,-111.493 L -22.1613,-111.429
 L -22.4831,-111.34 L -22.8429,-111.222 L -23.2385,-111.073 L -23.6678,-110.887 L -24.1281,-110.663 L -24.1281,-109.337
 L -23.6678,-109.113 L -23.2385,-108.927 L -22.8429,-108.778 L -22.4831,-108.66 L -22.1613,-108.571 L -21.8791,-108.507
 L -21.6381,-108.463 L -21.4395,-108.437 L -21.2842,-108.423 L -21.173,-108.419 L -21.1062,-108.419 L -21.084,-108.42
 L -20.0514,-108.497 L -19.7694,-106.259 L -20.7745,-106.069 L -20.7962,-106.064 L -20.8608,-106.047 L -20.967,-106.014
 L -21.1135,-105.961 L -21.2985,-105.884 L -21.52,-105.78 L -21.7759,-105.644 L -22.0638,-105.475 L -22.3809,-105.268
 L -22.7243,-105.021 L -23.091,-104.731 L -23.4776,-104.396 L -23.1344,-103.115 L -22.6317,-103.017 L -22.1691,-102.949
 L -21.7482,-102.907 L -21.3703,-102.887 L -21.0363,-102.884 L -20.7471,-102.895 L -20.5031,-102.915 L -20.3044,-102.941
 L -20.1509,-102.968 L -20.0423,-102.993 L -19.9778,-103.01 L -19.9566,-103.017 L -18.9792,-103.359 L -18.1276,-101.27
 L -19.0492,-100.826 L -19.069,-100.816 L -19.1269,-100.783 L -19.2209,-100.723 L -19.3486,-100.634 L -19.5074,-100.512
 L -19.6944,-100.354 L -19.9066,-100.157 L -20.1408,-99.9187 L -20.3936,-99.6371 L -20.6615,-99.3096 L -20.9406,-98.9346
 L -21.2271,-98.5102 L -20.564,-97.3617 L -20.0532,-97.3976 L -19.5889,-97.4518 L -19.1714,-97.5201 L -18.8011,-97.5982
 L -18.4778,-97.682 L -18.2013,-97.7674 L -17.9708,-97.8503 L -17.7856,-97.9266 L -17.6444,-97.9925 L -17.5457,-98.0441
 L -17.488,-98.0777 L -17.4692,-98.0897 L -16.6137,-98.673 L -15.2505,-96.8759 L -16.0258,-96.2086 L -16.0423,-96.1936
 L -16.0896,-96.1465 L -16.165,-96.0646 L -16.2652,-95.9453 L -16.3869,-95.7861 L -16.5267,-95.585 L -16.6807,-95.34
 L -16.8453,-95.0494 L -17.0166,-94.7119 L -17.1906,-94.3263 L -17.3631,-93.8918 L -17.5301,-93.4077 L -16.5923,-92.4699
 L -16.1082,-92.6369 L -15.6737,-92.8094 L -15.2881,-92.9834 L -14.9506,-93.1547 L -14.66,-93.3193 L -14.415,-93.4733
 L -14.2139,-93.6131 L -14.0547,-93.7348 L -13.9354,-93.835 L -13.8535,-93.9104 L -13.8064,-93.9577 L -13.7914,-93.9742
 L -13.116,-94.759 L -11.334,-93.3759 L -11.9103,-92.5308 L -11.9223,-92.512 L -11.9559,-92.4543 L -12.0075,-92.3556
 L -12.0734,-92.2144 L -12.1497,-92.0292 L -12.2326,-91.7987 L -12.318,-91.5222 L -12.4018,-91.1989 L -12.4799,-90.8286
 L -12.5482,-90.4111 L -12.6024,-89.9468 L -12.6383,-89.436 L -11.4898,-88.7729 L -11.0654,-89.0594 L -10.6904,-89.3385
 L -10.3629,-89.6064 L -10.0813,-89.8592 L -9.84322,-90.0934 L -9.64644,-90.3056 L -9.48831,-90.4926 L -9.36607,-90.6514
 L -9.27673,-90.7791 L -9.21712,-90.8731 L -9.18393,-90.931 L -9.17366,-90.9508 L -8.72438,-91.8837 L -6.64522,-91.0089
 L -6.98308,-90.0434 L -6.98979,-90.0222 L -7.00729,-89.9577 L -7.03162,-89.8491 L -7.05875,-89.6956 L -7.08455,-89.4969
 L -7.105,-89.2529 L -7.11589,-88.9637 L -7.11319,-88.6297 L -7.09277,-88.2518 L -7.05064,-87.8309 L -6.98279,-87.3683
 L -6.88533,-86.8656 L -5.60429,-86.5224 L -5.26854,-86.909 L -4.9785,-87.2757 L -4.73155,-87.6191 L -4.52492,-87.9362
 L -4.35561,-88.2241 L -4.22044,-88.48 L -4.11612,-88.7015 L -4.03912,-88.8865 L -3.98589,-89.033 L -3.95264,-89.1392
 L -3.93558,-89.2038 L -3.93077,-89.2255 L -3.73827,-90.243 L -1.50354,-89.9361 L -1.57999,-88.916 L -1.58098,-88.8938
 L -1.58121,-88.827 L -1.57658,-88.7158 L -1.56306,-88.5605 L -1.53658,-88.3619 L -1.49315,-88.1209 L -1.42883,-87.8387
 L -1.33978,-87.5169 L -1.22226,-87.1571 L -1.07262,-86.7615 L -0.88736,-86.3322 L -0.663116,-85.8719 L 0.663116,-85.8719
 z
M -0.18837,-122.006 L -0.562134,-122.053 L -0.927048,-122.147 L -1.27733,-122.286 L -1.60747,-122.467 L -1.91226,-122.688
 L -2.1869,-122.946 L -2.42705,-123.237 L -2.62891,-123.555 L -2.78932,-123.896 L -2.90575,-124.254 L -2.97633,-124.624
 L -3,-125 L -2.97633,-125.376 L -2.90575,-125.746 L -2.78932,-126.104 L -2.62891,-126.445 L -2.42705,-126.763
 L -2.1869,-127.054 L -1.91226,-127.312 L -1.60747,-127.533 L -1.27733,-127.714 L -0.927048,-127.853 L -0.562134,-127.947
 L -0.18837,-127.994 L 0.18837,-127.994 L 0.562134,-127.947 L 0.927048,-127.853 L 1.27733,-127.714 L 1.60747,-127.533
 L 1.91226,-127.312 L 2.1869,-127.054 L 2.42705,-126.763 L 2.62891,-126.445 L 2.78932,-126.104 L 2.90575,-125.746
 L 2.97633,-125.376 L 3,-125 L 2.97633,-124.624 L 2.90575,-124.254 L 2.78932,-123.896 L 2.62891,-123.555
 L 2.42705,-123.237 L 2.1869,-122.946 L 1.91226,-122.688 L 1.60747,-122.467 L 1.27733,-122.286 L 0.927048,-122.147
 L 0.562134,-122.053 L 0.18837,-122.006 z
M -7.59418,-123.503 L -7.78107,-123.527 L -7.96352,-123.573 L -8.13866,-123.643 L -8.30373,-123.734 L -8.45613,-123.844
 L -8.59344,-123.973 L -8.71352,-124.118 L -8.81445,-124.277 L -8.89465,-124.448 L -8.95287,-124.627 L -8.98816,-124.812
 L -9,-125 L -8.98816,-125.188 L -8.95287,-125.373 L -8.89465,-125.552 L -8.81445,-125.723 L -8.71352,-125.882
 L -8.59344,-126.027 L -8.45613,-126.156 L -8.30373,-126.266 L -8.13866,-126.357 L -7.96352,-126.427 L -7.78107,-126.473
 L -7.59418,-126.497 L -7.40581,-126.497 L -7.21892,-126.473 L -7.03647,-126.427 L -6.86133,-126.357 L -6.69626,-126.266
 L -6.54385,-126.156 L -6.40654,-126.027 L -6.28647,-125.882 L -6.18553,-125.723 L -6.10533,-125.552 L -6.04712,-125.373
 L -6.01183,-125.188 L -6,-125 L -6.01183,-124.812 L -6.04712,-124.627 L -6.10533,-124.448 L -6.18553,-124.277
 L -6.28647,-124.118 L -6.40654,-123.973 L -6.54385,-123.844 L -6.69626,-123.734 L -6.86133,-123.643 L -7.03647,-123.573
 L -7.21892,-123.527 L -7.40581,-123.503 z
M 7.40581,-123.503 L 7.21892,-123.527 L 7.03647,-123.573 L 6.86133,-123.643 L 6.69626,-123.734 L 6.54385,-123.844
 L 6.40654,-123.973 L 6.28647,-124.118 L 6.18553,-124.277 L 6.10533,-124.448 L 6.04712,-124.627 L 6.01183,-124.812
 L 6,-125 L 6.01183,-125.188 L 6.04712,-125.373 L 6.10533,-125.552 L 6.18553,-125.723 L 6.28647,-125.882
 L 6.40654,-126.027 L 6.54385,-126.156 L 6.69626,-126.266 L 6.86133,-126.357 L 7.03647,-126.427 L 7.21892,-126.473
 L 7.40581,-126.497 L 7.59418,-126.497 L 7.78107,-126.473 L 7.96352,-126.427 L 8.13866,-126.357 L 8.30373,-126.266
 L 8.45613,-126.156 L 8.59344,-126.027 L 8.71352,-125.882 L 8.81445,-125.723 L 8.89465,-125.552 L 8.95287,-125.373
 L 8.98816,-125.188 L 9,-125 L 8.98816,-124.812 L 8.95287,-124.627 L 8.89465,-124.448 L 8.81445,-124.277
 L 8.71352,-124.118 L 8.59344,-123.973 L 8.45613,-123.844 L 8.30373,-123.734 L 8.13866,-123.643 L 7.96352,-123.573
 L 7.78107,-123.527 L 7.59418,-123.503 z
M 14.9058,-116.003 L 14.7189,-116.027 L 14.5365,-116.073 L 14.3613,-116.143 L 14.1963,-116.234 L 14.0439,-116.344
 L 13.9065,-116.473 L 13.7865,-116.618 L 13.6855,-116.777 L 13.6053,-116.948 L 13.5471,-117.127 L 13.5118,-117.312
 L 13.5,-117.5 L 13.5118,-117.688 L 13.5471,-117.873 L 13.6053,-118.052 L 13.6855,-118.223 L 13.7865,-118.382
 L 13.9065,-118.527 L 14.0439,-118.656 L 14.1963,-118.766 L 14.3613,-118.857 L 14.5365,-118.927 L 14.7189,-118.973
 L 14.9058,-118.997 L 15.0942,-118.997 L 15.2811,-118.973 L 15.4635,-118.927 L 15.6387,-118.857 L 15.8037,-118.766
 L 15.9561,-118.656 L 16.0934,-118.527 L 16.2135,-118.382 L 16.3145,-118.223 L 16.3947,-118.052 L 16.4529,-117.873
 L 16.4882,-117.688 L 16.5,-117.5 L 16.4882,-117.312 L 16.4529,-117.127 L 16.3947,-116.948 L 16.3145,-116.777
 L 16.2135,-116.618 L 16.0934,-116.473 L 15.9561,-116.344 L 15.8037,-116.234 L 15.6387,-116.143 L 15.4635,-116.073
 L 15.2811,-116.027 L 15.0942,-116.003 z
M -15.0942,-116.003 L -15.2811,-116.027 L -15.4635,-116.073 L -15.6387,-116.143 L -15.8037,-116.234 L -15.9561,-116.344
 L -16.0934,-116.473 L -16.2135,-116.618 L -16.3145,-116.777 L -16.3947,-116.948 L -16.4529,-117.127 L -16.4882,-117.312
 L -16.5,-117.5 L -16.4882,-117.688 L -16.4529,-117.873 L -16.3947,-118.052 L -16.3145,-118.223 L -16.2135,-118.382
 L -16.0934,-118.527 L -15.9561,-118.656 L -15.8037,-118.766 L -15.6387,-118.857 L -15.4635,-118.927 L -15.2811,-118.973
 L -15.0942,-118.997 L -14.9058,-118.997 L -14.7189,-118.973 L -14.5365,-118.927 L -14.3613,-118.857 L -14.1963,-118.766
 L -14.0439,-118.656 L -13.9065,-118.527 L -13.7865,-118.382 L -13.6855,-118.223 L -13.6053,-118.052 L -13.5471,-117.873
 L -13.5118,-117.688 L -13.5,-117.5 L -13.5118,-117.312 L -13.5471,-117.127 L -13.6053,-116.948 L -13.6855,-116.777
 L -13.7865,-116.618 L -13.9065,-116.473 L -14.0439,-116.344 L -14.1963,-116.234 L -14.3613,-116.143 L -14.5365,-116.073
 L -14.7189,-116.027 L -14.9058,-116.003 z
M 14.8116,-107.006 L 14.4379,-107.053 L 14.0729,-107.147 L 13.7227,-107.286 L 13.3925,-107.467 L 13.0877,-107.688
 L 12.8131,-107.946 L 12.5729,-108.237 L 12.3711,-108.555 L 12.2107,-108.896 L 12.0942,-109.254 L 12.0237,-109.624
 L 12,-110 L 12.0237,-110.376 L 12.0942,-110.746 L 12.2107,-111.104 L 12.3711,-111.445 L 12.5729,-111.763
 L 12.8131,-112.054 L 13.0877,-112.312 L 13.3925,-112.533 L 13.7227,-112.714 L 14.0729,-112.853 L 14.4379,-112.947
 L 14.8116,-112.994 L 15.1884,-112.994 L 15.5621,-112.947 L 15.927,-112.853 L 16.2773,-112.714 L 16.6075,-112.533
 L 16.9123,-112.312 L 17.1869,-112.054 L 17.427,-111.763 L 17.6289,-111.445 L 17.7893,-111.104 L 17.9057,-110.746
 L 17.9763,-110.376 L 18,-110 L 17.9763,-109.624 L 17.9057,-109.254 L 17.7893,-108.896 L 17.6289,-108.555
 L 17.427,-108.237 L 17.1869,-107.946 L 16.9123,-107.688 L 16.6075,-107.467 L 16.2773,-107.286 L 15.927,-107.147
 L 15.5621,-107.053 L 15.1884,-107.006 z
M -0.18837,-107.006 L -0.562134,-107.053 L -0.927048,-107.147 L -1.27733,-107.286 L -1.60747,-107.467 L -1.91226,-107.688
 L -2.1869,-107.946 L -2.42705,-108.237 L -2.62891,-108.555 L -2.78932,-108.896 L -2.90575,-109.254 L -2.97633,-109.624
 L -3,-110 L -2.97633,-110.376 L -2.90575,-110.746 L -2.78932,-111.104 L -2.62891,-111.445 L -2.42705,-111.763
 L -2.1869,-112.054 L -1.91226,-112.312 L -1.60747,-112.533 L -1.27733,-112.714 L -0.927048,-112.853 L -0.562134,-112.947
 L -0.18837,-112.994 L 0.18837,-112.994 L 0.562134,-112.947 L 0.927048,-112.853 L 1.27733,-112.714 L 1.60747,-112.533
 L 1.91226,-112.312 L 2.1869,-112.054 L 2.42705,-111.763 L 2.62891,-111.445 L 2.78932,-111.104 L 2.90575,-110.746
 L 2.97633,-110.376 L 3,-110 L 2.97633,-109.624 L 2.90575,-109.254 L 2.78932,-108.896 L 2.62891,-108.555
 L 2.42705,-108.237 L 2.1869,-107.946 L 1.91226,-107.688 L 1.60747,-107.467 L 1.27733,-107.286 L 0.927048,-107.147
 L 0.562134,-107.053 L 0.18837,-107.006 z
M -15.1884,-107.006 L -15.5621,-107.053 L -15.927,-107.147 L -16.2773,-107.286 L -16.6075,-107.467 L -16.9123,-107.688
 L -17.1869,-107.946 L -17.427,-108.237 L -17.6289,-108.555 L -17.7893,-108.896 L -17.9057,-109.254 L -17.9763,-109.624
 L -18,-110 L -17.9763,-110.376 L -17.9057,-110.746 L -17.7893,-111.104 L -17.6289,-111.445 L -17.427,-111.763
 L -17.1869,-112.054 L -16.9123,-112.312 L -16.6075,-112.533 L -16.2773,-112.714 L -15.927,-112.853 L -15.5621,-112.947
 L -15.1884,-112.994 L -14.8116,-112.994 L -14.4379,-112.947 L -14.0729,-112.853 L -13.7227,-112.714 L -13.3925,-112.533
 L -13.0877,-112.312 L -12.8131,-112.054 L -12.5729,-111.763 L -12.3711,-111.445 L -12.2107,-111.104 L -12.0942,-110.746
 L -12.0237,-110.376 L -12,-110 L -12.0237,-109.624 L -12.0942,-109.254 L -12.2107,-108.896 L -12.3711,-108.555
 L -12.5729,-108.237 L -12.8131,-107.946 L -13.0877,-107.688 L -13.3925,-107.467 L -13.7227,-107.286 L -14.0729,-107.147
 L -14.4379,-107.053 L -14.8116,-107.006 z
M -15.0942,-101.003 L -15.2811,-101.027 L -15.4635,-101.073 L -15.6387,-101.143 L -15.8037,-101.234 L -15.9561,-101.344
 L -16.0934,-101.473 L -16.2135,-101.618 L -16.3145,-101.777 L -16.3947,-101.948 L -16.4529,-102.127 L -16.4882,-102.312
 L -16.5,-102.5 L -16.4882,-102.688 L -16.4529,-102.873 L -16.3947,-103.052 L -16.3145,-103.223 L -16.2135,-103.382
 L -16.0934,-103.527 L -15.9561,-103.656 L -15.8037,-103.766 L -15.6387,-103.857 L -15.4635,-103.927 L -15.2811,-103.973
 L -15.0942,-103.997 L -14.9058,-103.997 L -14.7189,-103.973 L -14.5365,-103.927 L -14.3613,-103.857 L -14.1963,-103.766
 L -14.0439,-103.656 L -13.9065,-103.527 L -13.7865,-103.382 L -13.6855,-103.223 L -13.6053,-103.052 L -13.5471,-102.873
 L -13.5118,-102.688 L -13.5,-102.5 L -13.5118,-102.312 L -13.5471,-102.127 L -13.6053,-101.948 L -13.6855,-101.777
 L -13.7865,-101.618 L -13.9065,-101.473 L -14.0439,-101.344 L -14.1963,-101.234 L -14.3613,-101.143 L -14.5365,-101.073
 L -14.7189,-101.027 L -14.9058,-101.003 z
M 14.9058,-101.003 L 14.7189,-101.027 L 14.5365,-101.073 L 14.3613,-101.143 L 14.1963,-101.234 L 14.0439,-101.344
 L 13.9065,-101.473 L 13.7865,-101.618 L 13.6855,-101.777 L 13.6053,-101.948 L 13.5471,-102.127 L 13.5118,-102.312
 L 13.5,-102.5 L 13.5118,-102.688 L 13.5471,-102.873 L 13.6053,-103.052 L 13.6855,-103.223 L 13.7865,-103.382
 L 13.9065,-103.527 L 14.0439,-103.656 L 14.1963,-103.766 L 14.3613,-103.857 L 14.5365,-103.927 L 14.7189,-103.973
 L 14.9058,-103.997 L 15.0942,-103.997 L 15.2811,-103.973 L 15.4635,-103.927 L 15.6387,-103.857 L 15.8037,-103.766
 L 15.9561,-103.656 L 16.0934,-103.527 L 16.2135,-103.382 L 16.3145,-103.223 L 16.3947,-103.052 L 16.4529,-102.873
 L 16.4882,-102.688 L 16.5,-102.5 L 16.4882,-102.312 L 16.4529,-102.127 L 16.3947,-101.948 L 16.3145,-101.777
 L 16.2135,-101.618 L 16.0934,-101.473 L 15.9561,-101.344 L 15.8037,-101.234 L 15.6387,-101.143 L 15.4635,-101.073
 L 15.2811,-101.027 L 15.0942,-101.003 z
M -0.18837,-92.0059 L -0.562134,-92.0531 L -0.927048,-92.1468 L -1.27733,-92.2855 L -1.60747,-92.467 L -1.91226,-92.6885
 L -2.1869,-92.9464 L -2.42705,-93.2366 L -2.62891,-93.5547 L -2.78932,-93.8956 L -2.90575,-94.2539 L -2.97633,-94.624
 L -3,-95 L -2.97633,-95.376 L -2.90575,-95.7461 L -2.78932,-96.1044 L -2.62891,-96.4453 L -2.42705,-96.7634
 L -2.1869,-97.0536 L -1.91226,-97.3116 L -1.60747,-97.533 L -1.27733,-97.7145 L -0.927048,-97.8532 L -0.562134,-97.9469
 L -0.18837,-97.9941 L 0.18837,-97.9941 L 0.562134,-97.9469 L 0.927048,-97.8532 L 1.27733,-97.7145 L 1.60747,-97.533
 L 1.91226,-97.3116 L 2.1869,-97.0536 L 2.42705,-96.7634 L 2.62891,-96.4453 L 2.78932,-96.1044 L 2.90575,-95.7461
 L 2.97633,-95.376 L 3,-95 L 2.97633,-94.624 L 2.90575,-94.2539 L 2.78932,-93.8956 L 2.62891,-93.5547
 L 2.42705,-93.2366 L 2.1869,-92.9464 L 1.91226,-92.6885 L 1.60747,-92.467 L 1.27733,-92.2855 L 0.927048,-92.1468
 L 0.562134,-92.0531 L 0.18837,-92.0059 z
M 7.40581,-93.503 L 7.21892,-93.5266 L 7.03647,-93.5734 L 6.86133,-93.6428 L 6.69626,-93.7335 L 6.54385,-93.8442
 L 6.40654,-93.9732 L 6.28647,-94.1183 L 6.18553,-94.2774 L 6.10533,-94.4478 L 6.04712,-94.627 L 6.01183,-94.812
 L 6,-95 L 6.01183,-95.188 L 6.04712,-95.373 L 6.10533,-95.5522 L 6.18553,-95.7226 L 6.28647,-95.8817
 L 6.40654,-96.0268 L 6.54385,-96.1558 L 6.69626,-96.2665 L 6.86133,-96.3573 L 7.03647,-96.4266 L 7.21892,-96.4734
 L 7.40581,-96.4971 L 7.59418,-96.4971 L 7.78107,-96.4734 L 7.96352,-96.4266 L 8.13866,-96.3573 L 8.30373,-96.2665
 L 8.45613,-96.1558 L 8.59344,-96.0268 L 8.71352,-95.8817 L 8.81445,-95.7226 L 8.89465,-95.5522 L 8.95287,-95.373
 L 8.98816,-95.188 L 9,-95 L 8.98816,-94.812 L 8.95287,-94.627 L 8.89465,-94.4478 L 8.81445,-94.2774
 L 8.71352,-94.1183 L 8.59344,-93.9732 L 8.45613,-93.8442 L 8.30373,-93.7335 L 8.13866,-93.6428 L 7.96352,-93.5734
 L 7.78107,-93.5266 L 7.59418,-93.503 z
M -7.59418,-93.503 L -7.78107,-93.5266 L -7.96352,-93.5734 L -8.13866,-93.6428 L -8.30373,-93.7335 L -8.45613,-93.8442
 L -8.59344,-93.9732 L -8.71352,-94.1183 L -8.81445,-94.2774 L -8.89465,-94.4478 L -8.95287,-94.627 L -8.98816,-94.812
 L -9,-95 L -8.98816,-95.188 L -8.95287,-95.373 L -8.89465,-95.5522 L -8.81445,-95.7226 L -8.71352,-95.8817
 L -8.59344,-96.0268 L -8.45613,-96.1558 L -8.30373,-96.2665 L -8.13866,-96.3573 L -7.96352,-96.4266 L -7.78107,-96.4734
 L -7.59418,-96.4971 L -7.40581,-96.4971 L -7.21892,-96.4734 L -7.03647,-96.4266 L -6.86133,-96.3573 L -6.69626,-96.2665
 L -6.54385,-96.1558 L -6.40654,-96.0268 L -6.28647,-95.8817 L -6.18553,-95.7226 L -6.10533,-95.5522 L -6.04712,-95.373
 L -6.01183,-95.188 L -6,-95 L -6.01183,-94.812 L -6.04712,-94.627 L -6.10533,-94.4478 L -6.18553,-94.2774
 L -6.28647,-94.1183 L -6.40654,-93.9732 L -6.54385,-93.8442 L -6.69626,-93.7335 L -6.86133,-93.6428 L -7.03647,-93.5734
 L -7.21892,-93.5266 L -7.40581,-93.503 z
" stroke="black" fill="lightgray" stroke-width="0.5"/>
</svg>
