<?xml version="1.0" standalone="no"?>
<!DOCTYPE svg PUBLIC "-//W3C//DTD SVG 1.1//EN" "http://www.w3.org/Graphics/SVG/1.1/DTD/svg11.dtd">
<svg width="76mm" height="149mm" viewBox="-38 -295 76 149" xmlns="http://www.w3.org/2000/svg" version="1.1">
<title>OpenSCAD Model</title>
<path d="
M 33.4369,-272.339 L 34.0451,-272.495 L 34.6289,-272.726 L 35.1791,-273.028 L 35.6871,-273.397 L 36.1448,-273.827
 L 36.5451,-274.311 L 36.8815,-274.841 L 37.1489,-275.409 L 37.3429,-276.007 L 37.4606,-276.623 L 37.5,-277.25
 L 37.5,-289.75 L 37.4606,-290.377 L 37.3429,-290.993 L 37.1489,-291.591 L 36.8815,-292.159 L 36.5451,-292.689
 L 36.1448,-293.173 L 35.6871,-293.603 L 35.1791,-293.972 L 34.6289,-294.274 L 34.0451,-294.505 L 33.4369,-294.661
 L 32.8139,-294.74 L -32.8139,-294.74 L -33.4369,-294.661 L -34.0451,-294.505 L -34.6289,-294.274 L -35.1791,-293.972
 L -35.6871,-293.603 L -36.1448,-293.173 L -36.5451,-292.689 L -36.8815,-292.159 L -37.1489,-291.591 L -37.3429,-290.993
 L -37.4606,-290.377 L -37.5,-289.75 L -37.5,-277.25 L -37.4606,-276.623 L -37.3429,-276.007 L -37.1489,-275.409
 L -36.8815,-274.841 L -36.5451,-274.311 L -36.1448,-273.827 L -35.6871,-273.397 L -35.1791,-273.028 L -34.6289,-272.726
 L -34.0451,-272.495 L -33.4369,-272.339 L -32.8139,-272.26 L 32.8139,-272.26 z
M -32.5482,-272.759 L -33.1401,-272.834 L -33.7178,-272.982 L -34.2724,-273.202 L -34.7952,-273.489 L -35.2778,-273.84
 L -35.7126,-274.248 L -36.0928,-274.708 L -36.4124,-275.212 L -36.6664,-275.751 L -36.8508,-276.319 L -36.9625,-276.905
 L -37,-277.5 L -37,-289.5 L -36.9625,-290.095 L -36.8508,-290.681 L -36.6664,-291.249 L -36.4124,-291.788
 L -36.0928,-292.292 L -35.7126,-292.752 L -35.2778,-293.16 L -34.7952,-293.511 L -34.2724,-293.798 L -33.7178,-294.018
 L -33.1401,-294.166 L -32.5482,-294.241 L 32.5482,-294.241 L 33.1401,-294.166 L 33.7178,-294.018 L 34.2724,-293.798
 L 34.7952,-293.511 L 35.2778,-293.16 L 35.7126,-292.752 L 36.0928,-292.292 L 36.4124,-291.788 L 36.6664,-291.249
 L 36.8508,-290.681 L 36.9625,-290.095 L 37,-289.5 L 37,-277.5 L 36.9625,-276.905 L 36.8508,-276.319
 L 36.6664,-275.751 L 36.4124,-275.212 L 36.0928,-274.708 L 35.7126,-274.248 L 35.2778,-273.84 L 34.7952,-273.489
 L 34.2724,-273.202 L 33.7178,-272.982 L 33.1401,-272.834 L 32.5482,-272.759 z
M 33.4369,-240.839 L 34.0451,-240.995 L 34.6289,-241.226 L 35.1791,-241.528 L 35.6871,-241.897 L 36.1448,-242.327
 L 36.5451,-242.811 L 36.8815,-243.341 L 37.1489,-243.909 L 37.3429,-244.507 L 37.4606,-245.123 L 37.5,-245.75
 L 37.5,-258.25 L 37.4606,-258.877 L 37.3429,-259.493 L 37.1489,-260.091 L 36.8815,-260.659 L 36.5451,-261.189
 L 36.1448,-261.673 L 35.6871,-262.103 L 35.1791,-262.472 L 34.6289,-262.774 L 34.0451,-263.005 L 33.4369,-263.161
 L 32.8139,-263.24 L -32.8139,-263.24 L -33.4369,-263.161 L -34.0451,-263.005 L -34.6289,-262.774 L -35.1791,-262.472
 L -35.6871,-262.103 L -36.1448,-261.673 L -36.5451,-261.189 L -36.8815,-260.659 L -37.1489,-260.091 L -37.3429,-259.493
 L -37.4606,-258.877 L -37.5,-258.25 L -37.5,-245.75 L -37.4606,-245.123 L -37.3429,-244.507 L -37.1489,-243.909
 L -36.8815,-243.341 L -36.5451,-242.811 L -36.1448,-242.327 L -35.6871,-241.897 L -35.1791,-241.528 L -34.6289,-241.226
 L -34.0451,-240.995 L -33.4369,-240.839 L -32.8139,-240.76 L 32.8139,-240.76 z
M -32.5482,-241.259 L -33.1401,-241.334 L -33.7178,-241.482 L -34.2724,-241.702 L -34.7952,-241.989 L -35.2778,-242.34
 L -35.7126,-242.748 L -36.0928,-243.208 L -36.4124,-243.712 L -36.6664,-244.251 L -36.8508,-244.819 L -36.9625,-245.405
 L -37,-246 L -37,-258 L -36.9625,-258.595 L -36.8508,-259.181 L -36.6664,-259.749 L -36.4124,-260.288
 L -36.0928,-260.792 L -35.7126,-261.252 L -35.2778,-261.66 L -34.7952,-262.011 L -34.2724,-262.298 L -33.7178,-262.518
 L -33.1401,-262.666 L -32.5482,-262.741 L 32.5482,-262.741 L 33.1401,-262.666 L 33.7178,-262.518 L 34.2724,-262.298
 L 34.7952,-262.011 L 35.2778,-261.66 L 35.7126,-261.252 L 36.0928,-260.792 L 36.4124,-260.288 L 36.6664,-259.749
 L 36.8508,-259.181 L 36.9625,-258.595 L 37,-258 L 37,-246 L 36.9625,-245.405 L 36.8508,-244.819
 L 36.6664,-244.251 L 36.4124,-243.712 L 36.0928,-243.208 L 35.7126,-242.748 L 35.2778,-242.34 L 34.7952,-241.989
 L 34.2724,-241.702 L 33.7178,-241.482 L 33.1401,-241.334 L 32.5482,-241.259 z
M 33.4369,-209.339 L 34.0451,-209.495 L 34.6289,-209.726 L 35.1791,-210.028 L 35.6871,-210.397 L 36.1448,-210.827
 L 36.5451,-211.311 L 36.8815,-211.841 L 37.1489,-212.409 L 37.3429,-213.007 L 37.4606,-213.623 L 37.5,-214.25
 L 37.5,-226.75 L 37.4606,-227.377 L 37.3429,-227.993 L 37.1489,-228.591 L 36.8815,-229.159 L 36.5451,-229.689
 L 36.1448,-230.173 L 35.6871,-230.603 L 35.1791,-230.972 L 34.6289,-231.274 L 34.0451,-231.505 L 33.4369,-231.661
 L 32.8139,-231.74 L -32.8139,-231.74 L -33.4369,-231.661 L -34.0451,-231.505 L -34.6289,-231.274 L -35.1791,-230.972
 L -35.6871,-230.603 L -36.1448,-230.173 L -36.5451,-229.689 L -36.8815,-229.159 L -37.1489,-228.591 L -37.3429,-227.993
 L -37.4606,-227.377 L -37.5,-226.75 L -37.5,-214.25 L -37.4606,-213.623 L -37.3429,-213.007 L -37.1489,-212.409
 L -36.8815,-211.841 L -36.5451,-211.311 L -36.1448,-210.827 L -35.6871,-210.397 L -35.1791,-210.028 L -34.6289,-209.726
 L -34.0451,-209.495 L -33.4369,-209.339 L -32.8139,-209.26 L 32.8139,-209.26 z
M -32.5482,-209.759 L -33.1401,-209.834 L -33.7178,-209.982 L -34.2724,-210.202 L -34.7952,-210.489 L -35.2778,-210.84
 L -35.7126,-211.248 L -36.0928,-211.708 L -36.4124,-212.212 L -36.6664,-212.751 L -36.8508,-213.319 L -36.9625,-213.905
 L -37,-214.5 L -37,-226.5 L -36.9625,-227.095 L -36.8508,-227.681 L -36.6664,-228.249 L -36.4124,-228.788
 L -36.0928,-229.292 L -35.7126,-229.752 L -35.2778,-230.16 L -34.7952,-230.511 L -34.2724,-230.798 L -33.7178,-231.018
 L -33.1401,-231.166 L -32.5482,-231.241 L 32.5482,-231.241 L 33.1401,-231.166 L 33.7178,-231.018 L 34.2724,-230.798
 L 34.7952,-230.511 L 35.2778,-230.16 L 35.7126,-229.752 L 36.0928,-229.292 L 36.4124,-228.788 L 36.6664,-228.249
 L 36.8508,-227.681 L 36.9625,-227.095 L 37,-226.5 L 37,-214.5 L 36.9625,-213.905 L 36.8508,-213.319
 L 36.6664,-212.751 L 36.4124,-212.212 L 36.0928,-211.708 L 35.7126,-211.248 L 35.2778,-210.84 L 34.7952,-210.489
 L 34.2724,-210.202 L 33.7178,-209.982 L 33.1401,-209.834 L 32.5482,-209.759 z
M 33.4369,-177.839 L 34.0451,-177.995 L 34.6289,-178.226 L 35.1791,-178.528 L 35.6871,-178.897 L 36.1448,-179.327
 L 36.5451,-179.811 L 36.8815,-180.341 L 37.1489,-180.909 L 37.3429,-181.507 L 37.4606,-182.123 L 37.5,-182.75
 L 37.5,-195.25 L 37.4606,-195.877 L 37.3429,-196.493 L 37.1489,-197.091 L 36.8815,-197.659 L 36.5451,-198.189
 L 36.1448,-198.673 L 35.6871,-199.103 L 35.1791,-199.472 L 34.6289,-199.774 L 34.0451,-200.005 L 33.4369,-200.161
 L 32.8139,-200.24 L -32.8139,-200.24 L -33.4369,-200.161 L -34.0451,-200.005 L -34.6289,-199.774 L -35.1791,-199.472
 L -35.6871,-199.103 L -36.1448,-198.673 L -36.5451,-198.189 L -36.8815,-197.659 L -37.1489,-197.091 L -37.3429,-196.493
 L -37.4606,-195.877 L -37.5,-195.25 L -37.5,-182.75 L -37.4606,-182.123 L -37.3429,-181.507 L -37.1489,-180.909
 L -36.8815,-180.341 L -36.5451,-179.811 L -36.1448,-179.327 L -35.6871,-178.897 L -35.1791,-178.528 L -34.6289,-178.226
 L -34.0451,-177.995 L -33.4369,-177.839 L -32.8139,-177.76 L 32.8139,-177.76 z
M -32.5375,-178.431 L -33.1079,-178.503 L -33.6648,-178.646 L -34.1994,-178.857 L -34.7032,-179.134 L -35.1684,-179.472
 L -35.5875,-179.866 L -35.954,-180.309 L -36.2621,-180.794 L -36.5069,-181.315 L -36.6846,-181.861 L -36.7923,-182.426
 L -36.8284,-183 L -36.8284,-195 L -36.7923,-195.574 L -36.6846,-196.139 L -36.5069,-196.685 L -36.2621,-197.206
 L -35.954,-197.691 L -35.5875,-198.134 L -35.1684,-198.528 L -34.7032,-198.866 L -34.1994,-199.143 L -33.6648,-199.354
 L -33.1079,-199.497 L -32.5375,-199.569 L 32.5375,-199.569 L 33.1079,-199.497 L 33.6648,-199.354 L 34.1994,-199.143
 L 34.7032,-198.866 L 35.1684,-198.528 L 35.5875,-198.134 L 35.954,-197.691 L 36.2621,-197.206 L 36.5069,-196.685
 L 36.6846,-196.139 L 36.7923,-195.574 L 36.8284,-195 L 36.8284,-183 L 36.7923,-182.426 L 36.6846,-181.861
 L 36.5069,-181.315 L 36.2621,-180.794 L 35.954,-180.309 L 35.5875,-179.866 L 35.1684,-179.472 L 34.7032,-179.134
 L 34.1994,-178.857 L 33.6648,-178.646 L 33.1079,-178.503 L 32.5375,-178.431 z
M 33.4369,-146.339 L 34.0451,-146.495 L 34.6289,-146.726 L 35.1791,-147.028 L 35.6871,-147.397 L 36.1448,-147.827
 L 36.5451,-148.311 L 36.8815,-148.841 L 37.1489,-149.409 L 37.3429,-150.007 L 37.4606,-150.623 L 37.5,-151.25
 L 37.5,-163.75 L 37.4606,-164.377 L 37.3429,-164.993 L 37.1489,-165.591 L 36.8815,-166.159 L 36.5451,-166.689
 L 36.1448,-167.173 L 35.6871,-167.603 L 35.1791,-167.972 L 34.6289,-168.274 L 34.0451,-168.505 L 33.4369,-168.661
 L 32.8139,-168.74 L -32.8139,-168.74 L -33.4369,-168.661 L -34.0451,-168.505 L -34.6289,-168.274 L -35.1791,-167.972
 L -35.6871,-167.603 L -36.1448,-167.173 L -36.5451,-166.689 L -36.8815,-166.159 L -37.1489,-165.591 L -37.3429,-164.993
 L -37.4606,-164.377 L -37.5,-163.75 L -37.5,-151.25 L -37.4606,-150.623 L -37.3429,-150.007 L -37.1489,-149.409
 L -36.8815,-148.841 L -36.5451,-148.311 L -36.1448,-147.827 L -35.6871,-147.397 L -35.1791,-147.028 L -34.6289,-146.726
 L -34.0451,-146.495 L -33.4369,-146.339 L -32.8139,-146.26 L 32.8139,-146.26 z
M -32.3825,-149.395 L -32.6453,-149.428 L -32.9019,-149.494 L -33.1482,-149.591 L -33.3804,-149.719 L -33.5947,-149.875
 L -33.7879,-150.056 L -33.9567,-150.26 L -34.0987,-150.484 L -34.2115,-150.723 L -34.2934,-150.975 L -34.343,-151.236
 L -34.3596,-151.5 L -34.3596,-163.5 L -34.343,-163.764 L -34.2934,-164.025 L -34.2115,-164.277 L -34.0987,-164.516
 L -33.9567,-164.74 L -33.7879,-164.944 L -33.5947,-165.125 L -33.3804,-165.281 L -33.1482,-165.409 L -32.9019,-165.506
 L -32.6453,-165.572 L -32.3825,-165.605 L 32.3825,-165.605 L 32.6453,-165.572 L 32.9019,-165.506 L 33.1482,-165.409
 L 33.3804,-165.281 L 33.5947,-165.125 L 33.7879,-164.944 L 33.9567,-164.74 L 34.0987,-164.516 L 34.2115,-164.277
 L 34.2934,-164.025 L 34.343,-163.764 L 34.3596,-163.5 L 34.3596,-151.5 L 34.343,-151.236 L 34.2934,-150.975
 L 34.2115,-150.723 L 34.0987,-150.484 L 33.9567,-150.26 L 33.7879,-150.056 L 33.5947,-149.875 L 33.3804,-149.719
 L 33.1482,-149.591 L 32.9019,-149.494 L 32.6453,-149.428 L 32.3825,-149.395 z
" stroke="black" fill="lightgray" stroke-width="0.5"/>
</svg>
