<?xml version="1.0" standalone="no"?>
<!DOCTYPE svg PUBLIC "-//W3C//DTD SVG 1.1//EN" "http://www.w3.org/Graphics/SVG/1.1/DTD/svg11.dtd">
<svg width="210mm" height="424mm" viewBox="-105 -644 210 424" xmlns="http://www.w3.org/2000/svg" version="1.1">
<title>OpenSCAD Model</title>
<path d="
M 100.937,-508.589 L 101.545,-508.745 L 102.129,-508.976 L 102.679,-509.278 L 103.187,-509.647 L 103.645,-510.077
 L 104.045,-510.561 L 104.382,-511.091 L 104.649,-511.659 L 104.843,-512.257 L 104.961,-512.873 L 105,-513.5
 L 105,-638.5 L 104.961,-639.127 L 104.843,-639.743 L 104.649,-640.341 L 104.382,-640.909 L 104.045,-641.439
 L 103.645,-641.923 L 103.187,-642.353 L 102.679,-642.722 L 102.129,-643.024 L 101.545,-643.255 L 100.937,-643.411
 L 100.314,-643.49 L -100.314,-643.49 L -100.937,-643.411 L -101.545,-643.255 L -102.129,-643.024 L -102.679,-642.722
 L -103.187,-642.353 L -103.645,-641.923 L -104.045,-641.439 L -104.382,-640.909 L -104.649,-640.341 L -104.843,-639.743
 L -104.961,-639.127 L -105,-638.5 L -105,-513.5 L -104.961,-512.873 L -104.843,-512.257 L -104.649,-511.659
 L -104.382,-511.091 L -104.045,-510.561 L -103.645,-510.077 L -103.187,-509.647 L -102.679,-509.278 L -102.129,-508.976
 L -101.545,-508.745 L -100.937,-508.589 L -100.314,-508.51 L 100.314,-508.51 z
M -100.048,-509.009 L -100.64,-509.084 L -101.218,-509.232 L -101.772,-509.452 L -102.295,-509.739 L -102.778,-510.09
 L -103.213,-510.498 L -103.593,-510.958 L -103.912,-511.462 L -104.166,-512.001 L -104.351,-512.569 L -104.463,-513.155
 L -104.5,-513.75 L -104.5,-638.25 L -104.463,-638.845 L -104.351,-639.431 L -104.166,-639.999 L -103.912,-640.538
 L -103.593,-641.042 L -103.213,-641.502 L -102.778,-641.91 L -102.295,-642.261 L -101.772,-642.548 L -101.218,-642.768
 L -100.64,-642.916 L -100.048,-642.991 L 100.048,-642.991 L 100.64,-642.916 L 101.218,-642.768 L 101.772,-642.548
 L 102.295,-642.261 L 102.778,-641.91 L 103.213,-641.502 L 103.593,-641.042 L 103.912,-640.538 L 104.166,-639.999
 L 104.351,-639.431 L 104.463,-638.845 L 104.5,-638.25 L 104.5,-513.75 L 104.463,-513.155 L 104.351,-512.569
 L 104.166,-512.001 L 103.912,-511.462 L 103.593,-510.958 L 103.213,-510.498 L 102.778,-510.09 L 102.295,-509.739
 L 101.772,-509.452 L 101.218,-509.232 L 100.64,-509.084 L 100.048,-509.009 z
M 100.937,-364.589 L 101.545,-364.745 L 102.129,-364.976 L 102.679,-365.278 L 103.187,-365.647 L 103.645,-366.077
 L 104.045,-366.561 L 104.382,-367.091 L 104.649,-367.659 L 104.843,-368.257 L 104.961,-368.873 L 105,-369.5
 L 105,-494.5 L 104.961,-495.127 L 104.843,-495.743 L 104.649,-496.341 L 104.382,-496.909 L 104.045,-497.439
 L 103.645,-497.923 L 103.187,-498.353 L 102.679,-498.722 L 102.129,-499.024 L 101.545,-499.255 L 100.937,-499.411
 L 100.314,-499.49 L -100.314,-499.49 L -100.937,-499.411 L -101.545,-499.255 L -102.129,-499.024 L -102.679,-498.722
 L -103.187,-498.353 L -103.645,-497.923 L -104.045,-497.439 L -104.382,-496.909 L -104.649,-496.341 L -104.843,-495.743
 L -104.961,-495.127 L -105,-494.5 L -105,-369.5 L -104.961,-368.873 L -104.843,-368.257 L -104.649,-367.659
 L -104.382,-367.091 L -104.045,-366.561 L -103.645,-366.077 L -103.187,-365.647 L -102.679,-365.278 L -102.129,-364.976
 L -101.545,-364.745 L -100.937,-364.589 L -100.314,-364.51 L 100.314,-364.51 z
M -99.993,-365.888 L -100.475,-365.949 L -100.946,-366.07 L -101.398,-366.249 L -101.823,-366.483 L -102.216,-366.769
 L -102.571,-367.101 L -102.88,-367.476 L -103.141,-367.886 L -103.348,-368.326 L -103.498,-368.788 L -103.589,-369.265
 L -103.619,-369.75 L -103.619,-494.25 L -103.589,-494.735 L -103.498,-495.212 L -103.348,-495.674 L -103.141,-496.114
 L -102.88,-496.524 L -102.571,-496.899 L -102.216,-497.231 L -101.823,-497.517 L -101.398,-497.751 L -100.946,-497.93
 L -100.475,-498.051 L -99.993,-498.112 L 99.993,-498.112 L 100.475,-498.051 L 100.946,-497.93 L 101.398,-497.751
 L 101.823,-497.517 L 102.216,-497.231 L 102.571,-496.899 L 102.88,-496.524 L 103.141,-496.114 L 103.348,-495.674
 L 103.498,-495.212 L 103.589,-494.735 L 103.619,-494.25 L 103.619,-369.75 L 103.589,-369.265 L 103.498,-368.788
 L 103.348,-368.326 L 103.141,-367.886 L 102.88,-367.476 L 102.571,-367.101 L 102.216,-366.769 L 101.823,-366.483
 L 101.398,-366.249 L 100.946,-366.07 L 100.475,-365.949 L 99.993,-365.888 z
M 100.937,-220.589 L 101.545,-220.745 L 102.129,-220.976 L 102.679,-221.278 L 103.187,-221.647 L 103.645,-222.077
 L 104.045,-222.561 L 104.382,-223.091 L 104.649,-223.659 L 104.843,-224.257 L 104.961,-224.873 L 105,-225.5
 L 105,-350.5 L 104.961,-351.127 L 104.843,-351.743 L 104.649,-352.341 L 104.382,-352.909 L 104.045,-353.439
 L 103.645,-353.923 L 103.187,-354.353 L 102.679,-354.722 L 102.129,-355.024 L 101.545,-355.255 L 100.937,-355.411
 L 100.314,-355.49 L -100.314,-355.49 L -100.937,-355.411 L -101.545,-355.255 L -102.129,-355.024 L -102.679,-354.722
 L -103.187,-354.353 L -103.645,-353.923 L -104.045,-353.439 L -104.382,-352.909 L -104.649,-352.341 L -104.843,-351.743
 L -104.961,-351.127 L -105,-350.5 L -105,-225.5 L -104.961,-224.873 L -104.843,-224.257 L -104.649,-223.659
 L -104.382,-223.091 L -104.045,-222.561 L -103.645,-222.077 L -103.187,-221.647 L -102.679,-221.278 L -102.129,-220.976
 L -101.545,-220.745 L -100.937,-220.589 L -100.314,-220.51 L 100.314,-220.51 z
M -97.613,-346.204 L -97.8373,-346.232 L -98.0562,-346.288 L -98.2664,-346.371 L -98.4645,-346.48 L -98.6474,-346.613
 L -98.8121,-346.768 L -98.9562,-346.942 L -99.0773,-347.133 L -99.1736,-347.337 L -99.2434,-347.552 L -99.2858,-347.774
 L -99.3,-348 L -99.2858,-348.226 L -99.2434,-348.448 L -99.1736,-348.663 L -99.0773,-348.867 L -98.9562,-349.058
 L -98.8121,-349.232 L -98.6474,-349.387 L -98.4645,-349.52 L -98.2664,-349.629 L -98.0562,-349.712 L -97.8373,-349.768
 L -97.613,-349.796 L -97.387,-349.796 L -97.1627,-349.768 L -96.9438,-349.712 L -96.7336,-349.629 L -96.5355,-349.52
 L -96.3526,-349.387 L -96.1879,-349.232 L -96.0438,-349.058 L -95.9226,-348.867 L -95.8264,-348.663 L -95.7565,-348.448
 L -95.7142,-348.226 L -95.7,-348 L -95.7142,-347.774 L -95.7565,-347.552 L -95.8264,-347.337 L -95.9226,-347.133
 L -96.0438,-346.942 L -96.1879,-346.768 L -96.3526,-346.613 L -96.5355,-346.48 L -96.7336,-346.371 L -96.9438,-346.288
 L -97.1627,-346.232 L -97.387,-346.204 z
M 97.387,-346.204 L 97.1627,-346.232 L 96.9438,-346.288 L 96.7336,-346.371 L 96.5355,-346.48 L 96.3526,-346.613
 L 96.1879,-346.768 L 96.0438,-346.942 L 95.9226,-347.133 L 95.8264,-347.337 L 95.7565,-347.552 L 95.7142,-347.774
 L 95.7,-348 L 95.7142,-348.226 L 95.7565,-348.448 L 95.8264,-348.663 L 95.9226,-348.867 L 96.0438,-349.058
 L 96.1879,-349.232 L 96.3526,-349.387 L 96.5355,-349.52 L 96.7336,-349.629 L 96.9438,-349.712 L 97.1627,-349.768
 L 97.387,-349.796 L 97.613,-349.796 L 97.8373,-349.768 L 98.0562,-349.712 L 98.2664,-349.629 L 98.4645,-349.52
 L 98.6474,-349.387 L 98.8121,-349.232 L 98.9562,-349.058 L 99.0773,-348.867 L 99.1736,-348.663 L 99.2434,-348.448
 L 99.2858,-348.226 L 99.3,-348 L 99.2858,-347.774 L 99.2434,-347.552 L 99.1736,-347.337 L 99.0773,-347.133
 L 98.9562,-346.942 L 98.8121,-346.768 L 98.6474,-346.613 L 98.4645,-346.48 L 98.2664,-346.371 L 98.0562,-346.288
 L 97.8373,-346.232 L 97.613,-346.204 z
M -97.613,-226.204 L -97.8373,-226.232 L -98.0562,-226.288 L -98.2664,-226.371 L -98.4645,-226.48 L -98.6474,-226.613
 L -98.8121,-226.768 L -98.9562,-226.942 L -99.0773,-227.133 L -99.1736,-227.337 L -99.2434,-227.552 L -99.2858,-227.774
 L -99.3,-228 L -99.2858,-228.226 L -99.2434,-228.448 L -99.1736,-228.663 L -99.0773,-228.867 L -98.9562,-229.058
 L -98.8121,-229.232 L -98.6474,-229.387 L -98.4645,-229.52 L -98.2664,-229.629 L -98.0562,-229.712 L -97.8373,-229.768
 L -97.613,-229.796 L -97.387,-229.796 L -97.1627,-229.768 L -96.9438,-229.712 L -96.7336,-229.629 L -96.5355,-229.52
 L -96.3526,-229.387 L -96.1879,-229.232 L -96.0438,-229.058 L -95.9226,-228.867 L -95.8264,-228.663 L -95.7565,-228.448
 L -95.7142,-228.226 L -95.7,-228 L -95.7142,-227.774 L -95.7565,-227.552 L -95.8264,-227.337 L -95.9226,-227.133
 L -96.0438,-226.942 L -96.1879,-226.768 L -96.3526,-226.613 L -96.5355,-226.48 L -96.7336,-226.371 L -96.9438,-226.288
 L -97.1627,-226.232 L -97.387,-226.204 z
M 97.387,-226.204 L 97.1627,-226.232 L 96.9438,-226.288 L 96.7336,-226.371 L 96.5355,-226.48 L 96.3526,-226.613
 L 96.1879,-226.768 L 96.0438,-226.942 L 95.9226,-227.133 L 95.8264,-227.337 L 95.7565,-227.552 L 95.7142,-227.774
 L 95.7,-228 L 95.7142,-228.226 L 95.7565,-228.448 L 95.8264,-228.663 L 95.9226,-228.867 L 96.0438,-229.058
 L 96.1879,-229.232 L 96.3526,-229.387 L 96.5355,-229.52 L 96.7336,-229.629 L 96.9438,-229.712 L 97.1627,-229.768
 L 97.387,-229.796 L 97.613,-229.796 L 97.8373,-229.768 L 98.0562,-229.712 L 98.2664,-229.629 L 98.4645,-229.52
 L 98.6474,-229.387 L 98.8121,-229.232 L 98.9562,-229.058 L 99.0773,-228.867 L 99.1736,-228.663 L 99.2434,-228.448
 L 99.2858,-228.226 L 99.3,-228 L 99.2858,-227.774 L 99.2434,-227.552 L 99.1736,-227.337 L 99.0773,-227.133
 L 98.9562,-226.942 L 98.8121,-226.768 L 98.6474,-226.613 L 98.4645,-226.48 L 98.2664,-226.371 L 98.0562,-226.288
 L 97.8373,-226.232 L 97.613,-226.204 z
" stroke="black" fill="lightgray" stroke-width="0.5"/>
</svg>
