  0
SECTION
  2
BLOCKS
  0
ENDSEC
  0
SECTION
  2
ENTITIES
  0
LINE
  8
0
 10
7.1869
 20
403.589
 11
7.79507
 21
403.745
  0
LINE
  8
0
 10
7.79507
 20
403.745
 11
8.37889
 21
403.976
  0
LINE
  8
0
 10
8.37889
 20
403.976
 11
8.92912
 21
404.278
  0
LINE
  8
0
 10
8.92912
 20
404.278
 11
9.43712
 21
404.647
  0
LINE
  8
0
 10
9.43712
 20
404.647
 11
9.89484
 21
405.077
  0
LINE
  8
0
 10
9.89484
 20
405.077
 11
10.2951
 21
405.561
  0
LINE
  8
0
 10
10.2951
 20
405.561
 11
10.6315
 21
406.091
  0
LINE
  8
0
 10
10.6315
 20
406.091
 11
10.8989
 21
406.659
  0
LINE
  8
0
 10
10.8989
 20
406.659
 11
11.0929
 21
407.257
  0
LINE
  8
0
 10
11.0929
 20
407.257
 11
11.2106
 21
407.873
  0
LINE
  8
0
 10
11.2106
 20
407.873
 11
11.25
 21
408.5
  0
LINE
  8
0
 10
11.25
 20
408.5
 11
11.25
 21
503.5
  0
LINE
  8
0
 10
11.25
 20
503.5
 11
11.2106
 21
504.127
  0
LINE
  8
0
 10
11.2106
 20
504.127
 11
11.0929
 21
504.743
  0
LINE
  8
0
 10
11.0929
 20
504.743
 11
10.8989
 21
505.341
  0
LINE
  8
0
 10
10.8989
 20
505.341
 11
10.6315
 21
505.909
  0
LINE
  8
0
 10
10.6315
 20
505.909
 11
10.2951
 21
506.439
  0
LINE
  8
0
 10
10.2951
 20
506.439
 11
9.89484
 21
506.923
  0
LINE
  8
0
 10
9.89484
 20
506.923
 11
9.43712
 21
507.353
  0
LINE
  8
0
 10
9.43712
 20
507.353
 11
8.92912
 21
507.722
  0
LINE
  8
0
 10
8.92912
 20
507.722
 11
8.37889
 21
508.024
  0
LINE
  8
0
 10
8.37889
 20
508.024
 11
7.79507
 21
508.255
  0
LINE
  8
0
 10
7.79507
 20
508.255
 11
7.1869
 21
508.411
  0
LINE
  8
0
 10
7.1869
 20
508.411
 11
6.56395
 21
508.49
  0
LINE
  8
0
 10
6.56395
 20
508.49
 11
-6.56395
 21
508.49
  0
LINE
  8
0
 10
-6.56395
 20
508.49
 11
-7.1869
 21
508.411
  0
LINE
  8
0
 10
-7.1869
 20
508.411
 11
-7.79507
 21
508.255
  0
LINE
  8
0
 10
-7.79507
 20
508.255
 11
-8.37889
 21
508.024
  0
LINE
  8
0
 10
-8.37889
 20
508.024
 11
-8.92912
 21
507.722
  0
LINE
  8
0
 10
-8.92912
 20
507.722
 11
-9.43712
 21
507.353
  0
LINE
  8
0
 10
-9.43712
 20
507.353
 11
-9.89484
 21
506.923
  0
LINE
  8
0
 10
-9.89484
 20
506.923
 11
-10.2951
 21
506.439
  0
LINE
  8
0
 10
-10.2951
 20
506.439
 11
-10.6315
 21
505.909
  0
LINE
  8
0
 10
-10.6315
 20
505.909
 11
-10.8989
 21
505.341
  0
LINE
  8
0
 10
-10.8989
 20
505.341
 11
-11.0929
 21
504.743
  0
LINE
  8
0
 10
-11.0929
 20
504.743
 11
-11.2106
 21
504.127
  0
LINE
  8
0
 10
-11.2106
 20
504.127
 11
-11.25
 21
503.5
  0
LINE
  8
0
 10
-11.25
 20
503.5
 11
-11.25
 21
408.5
  0
LINE
  8
0
 10
-11.25
 20
408.5
 11
-11.2106
 21
407.873
  0
LINE
  8
0
 10
-11.2106
 20
407.873
 11
-11.0929
 21
407.257
  0
LINE
  8
0
 10
-11.0929
 20
407.257
 11
-10.8989
 21
406.659
  0
LINE
  8
0
 10
-10.8989
 20
406.659
 11
-10.6315
 21
406.091
  0
LINE
  8
0
 10
-10.6315
 20
406.091
 11
-10.2951
 21
405.561
  0
LINE
  8
0
 10
-10.2951
 20
405.561
 11
-9.89484
 21
405.077
  0
LINE
  8
0
 10
-9.89484
 20
405.077
 11
-9.43712
 21
404.647
  0
LINE
  8
0
 10
-9.43712
 20
404.647
 11
-8.92912
 21
404.278
  0
LINE
  8
0
 10
-8.92912
 20
404.278
 11
-8.37889
 21
403.976
  0
LINE
  8
0
 10
-8.37889
 20
403.976
 11
-7.79507
 21
403.745
  0
LINE
  8
0
 10
-7.79507
 20
403.745
 11
-7.1869
 21
403.589
  0
LINE
  8
0
 10
-7.1869
 20
403.589
 11
-6.56395
 21
403.51
  0
LINE
  8
0
 10
-6.56395
 20
403.51
 11
6.56395
 21
403.51
  0
LINE
  8
0
 10
6.56395
 20
403.51
 11
7.1869
 21
403.589
  0
LINE
  8
0
 10
-5.99316
 20
405.135
 11
-6.47565
 21
405.196
  0
LINE
  8
0
 10
-6.47565
 20
405.196
 11
-6.9467
 21
405.317
  0
LINE
  8
0
 10
-6.9467
 20
405.317
 11
-7.39888
 21
405.496
  0
LINE
  8
0
 10
-7.39888
 20
405.496
 11
-7.82506
 21
405.73
  0
LINE
  8
0
 10
-7.82506
 20
405.73
 11
-8.21851
 21
406.016
  0
LINE
  8
0
 10
-8.21851
 20
406.016
 11
-8.57301
 21
406.349
  0
LINE
  8
0
 10
-8.57301
 20
406.349
 11
-8.88301
 21
406.724
  0
LINE
  8
0
 10
-8.88301
 20
406.724
 11
-9.1436
 21
407.134
  0
LINE
  8
0
 10
-9.1436
 20
407.134
 11
-9.35068
 21
407.574
  0
LINE
  8
0
 10
-9.35068
 20
407.574
 11
-9.50096
 21
408.037
  0
LINE
  8
0
 10
-9.50096
 20
408.037
 11
-9.59209
 21
408.515
  0
LINE
  8
0
 10
-9.59209
 20
408.515
 11
-9.62262
 21
409
  0
LINE
  8
0
 10
-9.62262
 20
409
 11
-9.62262
 21
503
  0
LINE
  8
0
 10
-9.62262
 20
503
 11
-9.59209
 21
503.485
  0
LINE
  8
0
 10
-9.59209
 20
503.485
 11
-9.50096
 21
503.963
  0
LINE
  8
0
 10
-9.50096
 20
503.963
 11
-9.35068
 21
504.426
  0
LINE
  8
0
 10
-9.35068
 20
504.426
 11
-9.1436
 21
504.866
  0
LINE
  8
0
 10
-9.1436
 20
504.866
 11
-8.88301
 21
505.276
  0
LINE
  8
0
 10
-8.88301
 20
505.276
 11
-8.57301
 21
505.651
  0
LINE
  8
0
 10
-8.57301
 20
505.651
 11
-8.21851
 21
505.984
  0
LINE
  8
0
 10
-8.21851
 20
505.984
 11
-7.82506
 21
506.27
  0
LINE
  8
0
 10
-7.82506
 20
506.27
 11
-7.39888
 21
506.504
  0
LINE
  8
0
 10
-7.39888
 20
506.504
 11
-6.9467
 21
506.683
  0
LINE
  8
0
 10
-6.9467
 20
506.683
 11
-6.47565
 21
506.804
  0
LINE
  8
0
 10
-6.47565
 20
506.804
 11
-5.99316
 21
506.865
  0
LINE
  8
0
 10
-5.99316
 20
506.865
 11
5.99316
 21
506.865
  0
LINE
  8
0
 10
5.99316
 20
506.865
 11
6.47565
 21
506.804
  0
LINE
  8
0
 10
6.47565
 20
506.804
 11
6.9467
 21
506.683
  0
LINE
  8
0
 10
6.9467
 20
506.683
 11
7.39888
 21
506.504
  0
LINE
  8
0
 10
7.39888
 20
506.504
 11
7.82506
 21
506.27
  0
LINE
  8
0
 10
7.82506
 20
506.27
 11
8.21851
 21
505.984
  0
LINE
  8
0
 10
8.21851
 20
505.984
 11
8.57301
 21
505.651
  0
LINE
  8
0
 10
8.57301
 20
505.651
 11
8.88301
 21
505.276
  0
LINE
  8
0
 10
8.88301
 20
505.276
 11
9.1436
 21
504.866
  0
LINE
  8
0
 10
9.1436
 20
504.866
 11
9.35068
 21
504.426
  0
LINE
  8
0
 10
9.35068
 20
504.426
 11
9.50096
 21
503.963
  0
LINE
  8
0
 10
9.50096
 20
503.963
 11
9.59209
 21
503.485
  0
LINE
  8
0
 10
9.59209
 20
503.485
 11
9.62262
 21
503
  0
LINE
  8
0
 10
9.62262
 20
503
 11
9.62262
 21
409
  0
LINE
  8
0
 10
9.62262
 20
409
 11
9.59209
 21
408.515
  0
LINE
  8
0
 10
9.59209
 20
408.515
 11
9.50096
 21
408.037
  0
LINE
  8
0
 10
9.50096
 20
408.037
 11
9.35068
 21
407.574
  0
LINE
  8
0
 10
9.35068
 20
407.574
 11
9.1436
 21
407.134
  0
LINE
  8
0
 10
9.1436
 20
407.134
 11
8.88301
 21
406.724
  0
LINE
  8
0
 10
8.88301
 20
406.724
 11
8.57301
 21
406.349
  0
LINE
  8
0
 10
8.57301
 20
406.349
 11
8.21851
 21
406.016
  0
LINE
  8
0
 10
8.21851
 20
406.016
 11
7.82506
 21
405.73
  0
LINE
  8
0
 10
7.82506
 20
405.73
 11
7.39888
 21
405.496
  0
LINE
  8
0
 10
7.39888
 20
405.496
 11
6.9467
 21
405.317
  0
LINE
  8
0
 10
6.9467
 20
405.317
 11
6.47565
 21
405.196
  0
LINE
  8
0
 10
6.47565
 20
405.196
 11
5.99316
 21
405.135
  0
LINE
  8
0
 10
5.99316
 20
405.135
 11
-5.99316
 21
405.135
  0
LINE
  8
0
 10
7.1869
 20
289.589
 11
7.79507
 21
289.745
  0
LINE
  8
0
 10
7.79507
 20
289.745
 11
8.37889
 21
289.976
  0
LINE
  8
0
 10
8.37889
 20
289.976
 11
8.92912
 21
290.278
  0
LINE
  8
0
 10
8.92912
 20
290.278
 11
9.43712
 21
290.647
  0
LINE
  8
0
 10
9.43712
 20
290.647
 11
9.89484
 21
291.077
  0
LINE
  8
0
 10
9.89484
 20
291.077
 11
10.2951
 21
291.561
  0
LINE
  8
0
 10
10.2951
 20
291.561
 11
10.6315
 21
292.091
  0
LINE
  8
0
 10
10.6315
 20
292.091
 11
10.8989
 21
292.659
  0
LINE
  8
0
 10
10.8989
 20
292.659
 11
11.0929
 21
293.257
  0
LINE
  8
0
 10
11.0929
 20
293.257
 11
11.2106
 21
293.873
  0
LINE
  8
0
 10
11.2106
 20
293.873
 11
11.25
 21
294.5
  0
LINE
  8
0
 10
11.25
 20
294.5
 11
11.25
 21
389.5
  0
LINE
  8
0
 10
11.25
 20
389.5
 11
11.2106
 21
390.127
  0
LINE
  8
0
 10
11.2106
 20
390.127
 11
11.0929
 21
390.743
  0
LINE
  8
0
 10
11.0929
 20
390.743
 11
10.8989
 21
391.341
  0
LINE
  8
0
 10
10.8989
 20
391.341
 11
10.6315
 21
391.909
  0
LINE
  8
0
 10
10.6315
 20
391.909
 11
10.2951
 21
392.439
  0
LINE
  8
0
 10
10.2951
 20
392.439
 11
9.89484
 21
392.923
  0
LINE
  8
0
 10
9.89484
 20
392.923
 11
9.43712
 21
393.353
  0
LINE
  8
0
 10
9.43712
 20
393.353
 11
8.92912
 21
393.722
  0
LINE
  8
0
 10
8.92912
 20
393.722
 11
8.37889
 21
394.024
  0
LINE
  8
0
 10
8.37889
 20
394.024
 11
7.79507
 21
394.255
  0
LINE
  8
0
 10
7.79507
 20
394.255
 11
7.1869
 21
394.411
  0
LINE
  8
0
 10
7.1869
 20
394.411
 11
6.56395
 21
394.49
  0
LINE
  8
0
 10
6.56395
 20
394.49
 11
-6.56395
 21
394.49
  0
LINE
  8
0
 10
-6.56395
 20
394.49
 11
-7.1869
 21
394.411
  0
LINE
  8
0
 10
-7.1869
 20
394.411
 11
-7.79507
 21
394.255
  0
LINE
  8
0
 10
-7.79507
 20
394.255
 11
-8.37889
 21
394.024
  0
LINE
  8
0
 10
-8.37889
 20
394.024
 11
-8.92912
 21
393.722
  0
LINE
  8
0
 10
-8.92912
 20
393.722
 11
-9.43712
 21
393.353
  0
LINE
  8
0
 10
-9.43712
 20
393.353
 11
-9.89484
 21
392.923
  0
LINE
  8
0
 10
-9.89484
 20
392.923
 11
-10.2951
 21
392.439
  0
LINE
  8
0
 10
-10.2951
 20
392.439
 11
-10.6315
 21
391.909
  0
LINE
  8
0
 10
-10.6315
 20
391.909
 11
-10.8989
 21
391.341
  0
LINE
  8
0
 10
-10.8989
 20
391.341
 11
-11.0929
 21
390.743
  0
LINE
  8
0
 10
-11.0929
 20
390.743
 11
-11.2106
 21
390.127
  0
LINE
  8
0
 10
-11.2106
 20
390.127
 11
-11.25
 21
389.5
  0
LINE
  8
0
 10
-11.25
 20
389.5
 11
-11.25
 21
294.5
  0
LINE
  8
0
 10
-11.25
 20
294.5
 11
-11.2106
 21
293.873
  0
LINE
  8
0
 10
-11.2106
 20
293.873
 11
-11.0929
 21
293.257
  0
LINE
  8
0
 10
-11.0929
 20
293.257
 11
-10.8989
 21
292.659
  0
LINE
  8
0
 10
-10.8989
 20
292.659
 11
-10.6315
 21
292.091
  0
LINE
  8
0
 10
-10.6315
 20
292.091
 11
-10.2951
 21
291.561
  0
LINE
  8
0
 10
-10.2951
 20
291.561
 11
-9.89484
 21
291.077
  0
LINE
  8
0
 10
-9.89484
 20
291.077
 11
-9.43712
 21
290.647
  0
LINE
  8
0
 10
-9.43712
 20
290.647
 11
-8.92912
 21
290.278
  0
LINE
  8
0
 10
-8.92912
 20
290.278
 11
-8.37889
 21
289.976
  0
LINE
  8
0
 10
-8.37889
 20
289.976
 11
-7.79507
 21
289.745
  0
LINE
  8
0
 10
-7.79507
 20
289.745
 11
-7.1869
 21
289.589
  0
LINE
  8
0
 10
-7.1869
 20
289.589
 11
-6.56395
 21
289.51
  0
LINE
  8
0
 10
-6.56395
 20
289.51
 11
6.56395
 21
289.51
  0
LINE
  8
0
 10
6.56395
 20
289.51
 11
7.1869
 21
289.589
  0
LINE
  8
0
 10
7.1869
 20
175.589
 11
7.79507
 21
175.745
  0
LINE
  8
0
 10
7.79507
 20
175.745
 11
8.37889
 21
175.976
  0
LINE
  8
0
 10
8.37889
 20
175.976
 11
8.92912
 21
176.278
  0
LINE
  8
0
 10
8.92912
 20
176.278
 11
9.43712
 21
176.647
  0
LINE
  8
0
 10
9.43712
 20
176.647
 11
9.89484
 21
177.077
  0
LINE
  8
0
 10
9.89484
 20
177.077
 11
10.2951
 21
177.561
  0
LINE
  8
0
 10
10.2951
 20
177.561
 11
10.6315
 21
178.091
  0
LINE
  8
0
 10
10.6315
 20
178.091
 11
10.8989
 21
178.659
  0
LINE
  8
0
 10
10.8989
 20
178.659
 11
11.0929
 21
179.257
  0
LINE
  8
0
 10
11.0929
 20
179.257
 11
11.2106
 21
179.873
  0
LINE
  8
0
 10
11.2106
 20
179.873
 11
11.25
 21
180.5
  0
LINE
  8
0
 10
11.25
 20
180.5
 11
11.25
 21
275.5
  0
LINE
  8
0
 10
11.25
 20
275.5
 11
11.2106
 21
276.127
  0
LINE
  8
0
 10
11.2106
 20
276.127
 11
11.0929
 21
276.743
  0
LINE
  8
0
 10
11.0929
 20
276.743
 11
10.8989
 21
277.341
  0
LINE
  8
0
 10
10.8989
 20
277.341
 11
10.6315
 21
277.909
  0
LINE
  8
0
 10
10.6315
 20
277.909
 11
10.2951
 21
278.439
  0
LINE
  8
0
 10
10.2951
 20
278.439
 11
9.89484
 21
278.923
  0
LINE
  8
0
 10
9.89484
 20
278.923
 11
9.43712
 21
279.353
  0
LINE
  8
0
 10
9.43712
 20
279.353
 11
8.92912
 21
279.722
  0
LINE
  8
0
 10
8.92912
 20
279.722
 11
8.37889
 21
280.024
  0
LINE
  8
0
 10
8.37889
 20
280.024
 11
7.79507
 21
280.255
  0
LINE
  8
0
 10
7.79507
 20
280.255
 11
7.1869
 21
280.411
  0
LINE
  8
0
 10
7.1869
 20
280.411
 11
6.56395
 21
280.49
  0
LINE
  8
0
 10
6.56395
 20
280.49
 11
-6.56395
 21
280.49
  0
LINE
  8
0
 10
-6.56395
 20
280.49
 11
-7.1869
 21
280.411
  0
LINE
  8
0
 10
-7.1869
 20
280.411
 11
-7.79507
 21
280.255
  0
LINE
  8
0
 10
-7.79507
 20
280.255
 11
-8.37889
 21
280.024
  0
LINE
  8
0
 10
-8.37889
 20
280.024
 11
-8.92912
 21
279.722
  0
LINE
  8
0
 10
-8.92912
 20
279.722
 11
-9.43712
 21
279.353
  0
LINE
  8
0
 10
-9.43712
 20
279.353
 11
-9.89484
 21
278.923
  0
LINE
  8
0
 10
-9.89484
 20
278.923
 11
-10.2951
 21
278.439
  0
LINE
  8
0
 10
-10.2951
 20
278.439
 11
-10.6315
 21
277.909
  0
LINE
  8
0
 10
-10.6315
 20
277.909
 11
-10.8989
 21
277.341
  0
LINE
  8
0
 10
-10.8989
 20
277.341
 11
-11.0929
 21
276.743
  0
LINE
  8
0
 10
-11.0929
 20
276.743
 11
-11.2106
 21
276.127
  0
LINE
  8
0
 10
-11.2106
 20
276.127
 11
-11.25
 21
275.5
  0
LINE
  8
0
 10
-11.25
 20
275.5
 11
-11.25
 21
180.5
  0
LINE
  8
0
 10
-11.25
 20
180.5
 11
-11.2106
 21
179.873
  0
LINE
  8
0
 10
-11.2106
 20
179.873
 11
-11.0929
 21
179.257
  0
LINE
  8
0
 10
-11.0929
 20
179.257
 11
-10.8989
 21
178.659
  0
LINE
  8
0
 10
-10.8989
 20
178.659
 11
-10.6315
 21
178.091
  0
LINE
  8
0
 10
-10.6315
 20
178.091
 11
-10.2951
 21
177.561
  0
LINE
  8
0
 10
-10.2951
 20
177.561
 11
-9.89484
 21
177.077
  0
LINE
  8
0
 10
-9.89484
 20
177.077
 11
-9.43712
 21
176.647
  0
LINE
  8
0
 10
-9.43712
 20
176.647
 11
-8.92912
 21
176.278
  0
LINE
  8
0
 10
-8.92912
 20
176.278
 11
-8.37889
 21
175.976
  0
LINE
  8
0
 10
-8.37889
 20
175.976
 11
-7.79507
 21
175.745
  0
LINE
  8
0
 10
-7.79507
 20
175.745
 11
-7.1869
 21
175.589
  0
LINE
  8
0
 10
-7.1869
 20
175.589
 11
-6.56395
 21
175.51
  0
LINE
  8
0
 10
-6.56395
 20
175.51
 11
6.56395
 21
175.51
  0
LINE
  8
0
 10
6.56395
 20
175.51
 11
7.1869
 21
175.589
  0
LINE
  8
0
 10
3.63696
 20
271.204
 11
3.4127
 21
271.232
  0
LINE
  8
0
 10
3.4127
 20
271.232
 11
3.19376
 21
271.288
  0
LINE
  8
0
 10
3.19376
 20
271.288
 11
2.9836
 21
271.371
  0
LINE
  8
0
 10
2.9836
 20
271.371
 11
2.78551
 21
271.48
  0
LINE
  8
0
 10
2.78551
 20
271.48
 11
2.60263
 21
271.613
  0
LINE
  8
0
 10
2.60263
 20
271.613
 11
2.43785
 21
271.768
  0
LINE
  8
0
 10
2.43785
 20
271.768
 11
2.29376
 21
271.942
  0
LINE
  8
0
 10
2.29376
 20
271.942
 11
2.17264
 21
272.133
  0
LINE
  8
0
 10
2.17264
 20
272.133
 11
2.0764
 21
272.337
  0
LINE
  8
0
 10
2.0764
 20
272.337
 11
2.00655
 21
272.552
  0
LINE
  8
0
 10
2.00655
 20
272.552
 11
1.96419
 21
272.774
  0
LINE
  8
0
 10
1.96419
 20
272.774
 11
1.95
 21
273
  0
LINE
  8
0
 10
1.95
 20
273
 11
1.96419
 21
273.226
  0
LINE
  8
0
 10
1.96419
 20
273.226
 11
2.00655
 21
273.448
  0
LINE
  8
0
 10
2.00655
 20
273.448
 11
2.0764
 21
273.663
  0
LINE
  8
0
 10
2.0764
 20
273.663
 11
2.17264
 21
273.867
  0
LINE
  8
0
 10
2.17264
 20
273.867
 11
2.29376
 21
274.058
  0
LINE
  8
0
 10
2.29376
 20
274.058
 11
2.43785
 21
274.232
  0
LINE
  8
0
 10
2.43785
 20
274.232
 11
2.60263
 21
274.387
  0
LINE
  8
0
 10
2.60263
 20
274.387
 11
2.78551
 21
274.52
  0
LINE
  8
0
 10
2.78551
 20
274.52
 11
2.9836
 21
274.629
  0
LINE
  8
0
 10
2.9836
 20
274.629
 11
3.19376
 21
274.712
  0
LINE
  8
0
 10
3.19376
 20
274.712
 11
3.4127
 21
274.768
  0
LINE
  8
0
 10
3.4127
 20
274.768
 11
3.63696
 21
274.796
  0
LINE
  8
0
 10
3.63696
 20
274.796
 11
3.86302
 21
274.796
  0
LINE
  8
0
 10
3.86302
 20
274.796
 11
4.08728
 21
274.768
  0
LINE
  8
0
 10
4.08728
 20
274.768
 11
4.30623
 21
274.712
  0
LINE
  8
0
 10
4.30623
 20
274.712
 11
4.51639
 21
274.629
  0
LINE
  8
0
 10
4.51639
 20
274.629
 11
4.71448
 21
274.52
  0
LINE
  8
0
 10
4.71448
 20
274.52
 11
4.89735
 21
274.387
  0
LINE
  8
0
 10
4.89735
 20
274.387
 11
5.06213
 21
274.232
  0
LINE
  8
0
 10
5.06213
 20
274.232
 11
5.20622
 21
274.058
  0
LINE
  8
0
 10
5.20622
 20
274.058
 11
5.32735
 21
273.867
  0
LINE
  8
0
 10
5.32735
 20
273.867
 11
5.42358
 21
273.663
  0
LINE
  8
0
 10
5.42358
 20
273.663
 11
5.49344
 21
273.448
  0
LINE
  8
0
 10
5.49344
 20
273.448
 11
5.5358
 21
273.226
  0
LINE
  8
0
 10
5.5358
 20
273.226
 11
5.54999
 21
273
  0
LINE
  8
0
 10
5.54999
 20
273
 11
5.5358
 21
272.774
  0
LINE
  8
0
 10
5.5358
 20
272.774
 11
5.49344
 21
272.552
  0
LINE
  8
0
 10
5.49344
 20
272.552
 11
5.42358
 21
272.337
  0
LINE
  8
0
 10
5.42358
 20
272.337
 11
5.32735
 21
272.133
  0
LINE
  8
0
 10
5.32735
 20
272.133
 11
5.20622
 21
271.942
  0
LINE
  8
0
 10
5.20622
 20
271.942
 11
5.06213
 21
271.768
  0
LINE
  8
0
 10
5.06213
 20
271.768
 11
4.89735
 21
271.613
  0
LINE
  8
0
 10
4.89735
 20
271.613
 11
4.71448
 21
271.48
  0
LINE
  8
0
 10
4.71448
 20
271.48
 11
4.51639
 21
271.371
  0
LINE
  8
0
 10
4.51639
 20
271.371
 11
4.30623
 21
271.288
  0
LINE
  8
0
 10
4.30623
 20
271.288
 11
4.08728
 21
271.232
  0
LINE
  8
0
 10
4.08728
 20
271.232
 11
3.86302
 21
271.204
  0
LINE
  8
0
 10
3.86302
 20
271.204
 11
3.63696
 21
271.204
  0
LINE
  8
0
 10
-3.86302
 20
271.204
 11
-4.08728
 21
271.232
  0
LINE
  8
0
 10
-4.08728
 20
271.232
 11
-4.30623
 21
271.288
  0
LINE
  8
0
 10
-4.30623
 20
271.288
 11
-4.51639
 21
271.371
  0
LINE
  8
0
 10
-4.51639
 20
271.371
 11
-4.71448
 21
271.48
  0
LINE
  8
0
 10
-4.71448
 20
271.48
 11
-4.89735
 21
271.613
  0
LINE
  8
0
 10
-4.89735
 20
271.613
 11
-5.06213
 21
271.768
  0
LINE
  8
0
 10
-5.06213
 20
271.768
 11
-5.20622
 21
271.942
  0
LINE
  8
0
 10
-5.20622
 20
271.942
 11
-5.32735
 21
272.133
  0
LINE
  8
0
 10
-5.32735
 20
272.133
 11
-5.42358
 21
272.337
  0
LINE
  8
0
 10
-5.42358
 20
272.337
 11
-5.49344
 21
272.552
  0
LINE
  8
0
 10
-5.49344
 20
272.552
 11
-5.5358
 21
272.774
  0
LINE
  8
0
 10
-5.5358
 20
272.774
 11
-5.54999
 21
273
  0
LINE
  8
0
 10
-5.54999
 20
273
 11
-5.5358
 21
273.226
  0
LINE
  8
0
 10
-5.5358
 20
273.226
 11
-5.49344
 21
273.448
  0
LINE
  8
0
 10
-5.49344
 20
273.448
 11
-5.42358
 21
273.663
  0
LINE
  8
0
 10
-5.42358
 20
273.663
 11
-5.32735
 21
273.867
  0
LINE
  8
0
 10
-5.32735
 20
273.867
 11
-5.20622
 21
274.058
  0
LINE
  8
0
 10
-5.20622
 20
274.058
 11
-5.06213
 21
274.232
  0
LINE
  8
0
 10
-5.06213
 20
274.232
 11
-4.89735
 21
274.387
  0
LINE
  8
0
 10
-4.89735
 20
274.387
 11
-4.71448
 21
274.52
  0
LINE
  8
0
 10
-4.71448
 20
274.52
 11
-4.51639
 21
274.629
  0
LINE
  8
0
 10
-4.51639
 20
274.629
 11
-4.30623
 21
274.712
  0
LINE
  8
0
 10
-4.30623
 20
274.712
 11
-4.08728
 21
274.768
  0
LINE
  8
0
 10
-4.08728
 20
274.768
 11
-3.86302
 21
274.796
  0
LINE
  8
0
 10
-3.86302
 20
274.796
 11
-3.63696
 21
274.796
  0
LINE
  8
0
 10
-3.63696
 20
274.796
 11
-3.4127
 21
274.768
  0
LINE
  8
0
 10
-3.4127
 20
274.768
 11
-3.19376
 21
274.712
  0
LINE
  8
0
 10
-3.19376
 20
274.712
 11
-2.9836
 21
274.629
  0
LINE
  8
0
 10
-2.9836
 20
274.629
 11
-2.78551
 21
274.52
  0
LINE
  8
0
 10
-2.78551
 20
274.52
 11
-2.60263
 21
274.387
  0
LINE
  8
0
 10
-2.60263
 20
274.387
 11
-2.43785
 21
274.232
  0
LINE
  8
0
 10
-2.43785
 20
274.232
 11
-2.29376
 21
274.058
  0
LINE
  8
0
 10
-2.29376
 20
274.058
 11
-2.17264
 21
273.867
  0
LINE
  8
0
 10
-2.17264
 20
273.867
 11
-2.0764
 21
273.663
  0
LINE
  8
0
 10
-2.0764
 20
273.663
 11
-2.00655
 21
273.448
  0
LINE
  8
0
 10
-2.00655
 20
273.448
 11
-1.96419
 21
273.226
  0
LINE
  8
0
 10
-1.96419
 20
273.226
 11
-1.95
 21
273
  0
LINE
  8
0
 10
-1.95
 20
273
 11
-1.96419
 21
272.774
  0
LINE
  8
0
 10
-1.96419
 20
272.774
 11
-2.00655
 21
272.552
  0
LINE
  8
0
 10
-2.00655
 20
272.552
 11
-2.0764
 21
272.337
  0
LINE
  8
0
 10
-2.0764
 20
272.337
 11
-2.17264
 21
272.133
  0
LINE
  8
0
 10
-2.17264
 20
272.133
 11
-2.29376
 21
271.942
  0
LINE
  8
0
 10
-2.29376
 20
271.942
 11
-2.43785
 21
271.768
  0
LINE
  8
0
 10
-2.43785
 20
271.768
 11
-2.60263
 21
271.613
  0
LINE
  8
0
 10
-2.60263
 20
271.613
 11
-2.78551
 21
271.48
  0
LINE
  8
0
 10
-2.78551
 20
271.48
 11
-2.9836
 21
271.371
  0
LINE
  8
0
 10
-2.9836
 20
271.371
 11
-3.19376
 21
271.288
  0
LINE
  8
0
 10
-3.19376
 20
271.288
 11
-3.4127
 21
271.232
  0
LINE
  8
0
 10
-3.4127
 20
271.232
 11
-3.63696
 21
271.204
  0
LINE
  8
0
 10
-3.63696
 20
271.204
 11
-3.86302
 21
271.204
  0
LINE
  8
0
 10
-3.86302
 20
181.204
 11
-4.08728
 21
181.232
  0
LINE
  8
0
 10
-4.08728
 20
181.232
 11
-4.30623
 21
181.288
  0
LINE
  8
0
 10
-4.30623
 20
181.288
 11
-4.51639
 21
181.371
  0
LINE
  8
0
 10
-4.51639
 20
181.371
 11
-4.71448
 21
181.48
  0
LINE
  8
0
 10
-4.71448
 20
181.48
 11
-4.89735
 21
181.613
  0
LINE
  8
0
 10
-4.89735
 20
181.613
 11
-5.06213
 21
181.768
  0
LINE
  8
0
 10
-5.06213
 20
181.768
 11
-5.20622
 21
181.942
  0
LINE
  8
0
 10
-5.20622
 20
181.942
 11
-5.32735
 21
182.133
  0
LINE
  8
0
 10
-5.32735
 20
182.133
 11
-5.42358
 21
182.337
  0
LINE
  8
0
 10
-5.42358
 20
182.337
 11
-5.49344
 21
182.552
  0
LINE
  8
0
 10
-5.49344
 20
182.552
 11
-5.5358
 21
182.774
  0
LINE
  8
0
 10
-5.5358
 20
182.774
 11
-5.54999
 21
183
  0
LINE
  8
0
 10
-5.54999
 20
183
 11
-5.5358
 21
183.226
  0
LINE
  8
0
 10
-5.5358
 20
183.226
 11
-5.49344
 21
183.448
  0
LINE
  8
0
 10
-5.49344
 20
183.448
 11
-5.42358
 21
183.663
  0
LINE
  8
0
 10
-5.42358
 20
183.663
 11
-5.32735
 21
183.867
  0
LINE
  8
0
 10
-5.32735
 20
183.867
 11
-5.20622
 21
184.058
  0
LINE
  8
0
 10
-5.20622
 20
184.058
 11
-5.06213
 21
184.232
  0
LINE
  8
0
 10
-5.06213
 20
184.232
 11
-4.89735
 21
184.387
  0
LINE
  8
0
 10
-4.89735
 20
184.387
 11
-4.71448
 21
184.52
  0
LINE
  8
0
 10
-4.71448
 20
184.52
 11
-4.51639
 21
184.629
  0
LINE
  8
0
 10
-4.51639
 20
184.629
 11
-4.30623
 21
184.712
  0
LINE
  8
0
 10
-4.30623
 20
184.712
 11
-4.08728
 21
184.768
  0
LINE
  8
0
 10
-4.08728
 20
184.768
 11
-3.86302
 21
184.796
  0
LINE
  8
0
 10
-3.86302
 20
184.796
 11
-3.63696
 21
184.796
  0
LINE
  8
0
 10
-3.63696
 20
184.796
 11
-3.4127
 21
184.768
  0
LINE
  8
0
 10
-3.4127
 20
184.768
 11
-3.19376
 21
184.712
  0
LINE
  8
0
 10
-3.19376
 20
184.712
 11
-2.9836
 21
184.629
  0
LINE
  8
0
 10
-2.9836
 20
184.629
 11
-2.78551
 21
184.52
  0
LINE
  8
0
 10
-2.78551
 20
184.52
 11
-2.60263
 21
184.387
  0
LINE
  8
0
 10
-2.60263
 20
184.387
 11
-2.43785
 21
184.232
  0
LINE
  8
0
 10
-2.43785
 20
184.232
 11
-2.29376
 21
184.058
  0
LINE
  8
0
 10
-2.29376
 20
184.058
 11
-2.17264
 21
183.867
  0
LINE
  8
0
 10
-2.17264
 20
183.867
 11
-2.0764
 21
183.663
  0
LINE
  8
0
 10
-2.0764
 20
183.663
 11
-2.00655
 21
183.448
  0
LINE
  8
0
 10
-2.00655
 20
183.448
 11
-1.96419
 21
183.226
  0
LINE
  8
0
 10
-1.96419
 20
183.226
 11
-1.95
 21
183
  0
LINE
  8
0
 10
-1.95
 20
183
 11
-1.96419
 21
182.774
  0
LINE
  8
0
 10
-1.96419
 20
182.774
 11
-2.00655
 21
182.552
  0
LINE
  8
0
 10
-2.00655
 20
182.552
 11
-2.0764
 21
182.337
  0
LINE
  8
0
 10
-2.0764
 20
182.337
 11
-2.17264
 21
182.133
  0
LINE
  8
0
 10
-2.17264
 20
182.133
 11
-2.29376
 21
181.942
  0
LINE
  8
0
 10
-2.29376
 20
181.942
 11
-2.43785
 21
181.768
  0
LINE
  8
0
 10
-2.43785
 20
181.768
 11
-2.60263
 21
181.613
  0
LINE
  8
0
 10
-2.60263
 20
181.613
 11
-2.78551
 21
181.48
  0
LINE
  8
0
 10
-2.78551
 20
181.48
 11
-2.9836
 21
181.371
  0
LINE
  8
0
 10
-2.9836
 20
181.371
 11
-3.19376
 21
181.288
  0
LINE
  8
0
 10
-3.19376
 20
181.288
 11
-3.4127
 21
181.232
  0
LINE
  8
0
 10
-3.4127
 20
181.232
 11
-3.63696
 21
181.204
  0
LINE
  8
0
 10
-3.63696
 20
181.204
 11
-3.86302
 21
181.204
  0
LINE
  8
0
 10
3.63696
 20
181.204
 11
3.4127
 21
181.232
  0
LINE
  8
0
 10
3.4127
 20
181.232
 11
3.19376
 21
181.288
  0
LINE
  8
0
 10
3.19376
 20
181.288
 11
2.9836
 21
181.371
  0
LINE
  8
0
 10
2.9836
 20
181.371
 11
2.78551
 21
181.48
  0
LINE
  8
0
 10
2.78551
 20
181.48
 11
2.60263
 21
181.613
  0
LINE
  8
0
 10
2.60263
 20
181.613
 11
2.43785
 21
181.768
  0
LINE
  8
0
 10
2.43785
 20
181.768
 11
2.29376
 21
181.942
  0
LINE
  8
0
 10
2.29376
 20
181.942
 11
2.17264
 21
182.133
  0
LINE
  8
0
 10
2.17264
 20
182.133
 11
2.0764
 21
182.337
  0
LINE
  8
0
 10
2.0764
 20
182.337
 11
2.00655
 21
182.552
  0
LINE
  8
0
 10
2.00655
 20
182.552
 11
1.96419
 21
182.774
  0
LINE
  8
0
 10
1.96419
 20
182.774
 11
1.95
 21
183
  0
LINE
  8
0
 10
1.95
 20
183
 11
1.96419
 21
183.226
  0
LINE
  8
0
 10
1.96419
 20
183.226
 11
2.00655
 21
183.448
  0
LINE
  8
0
 10
2.00655
 20
183.448
 11
2.0764
 21
183.663
  0
LINE
  8
0
 10
2.0764
 20
183.663
 11
2.17264
 21
183.867
  0
LINE
  8
0
 10
2.17264
 20
183.867
 11
2.29376
 21
184.058
  0
LINE
  8
0
 10
2.29376
 20
184.058
 11
2.43785
 21
184.232
  0
LINE
  8
0
 10
2.43785
 20
184.232
 11
2.60263
 21
184.387
  0
LINE
  8
0
 10
2.60263
 20
184.387
 11
2.78551
 21
184.52
  0
LINE
  8
0
 10
2.78551
 20
184.52
 11
2.9836
 21
184.629
  0
LINE
  8
0
 10
2.9836
 20
184.629
 11
3.19376
 21
184.712
  0
LINE
  8
0
 10
3.19376
 20
184.712
 11
3.4127
 21
184.768
  0
LINE
  8
0
 10
3.4127
 20
184.768
 11
3.63696
 21
184.796
  0
LINE
  8
0
 10
3.63696
 20
184.796
 11
3.86302
 21
184.796
  0
LINE
  8
0
 10
3.86302
 20
184.796
 11
4.08728
 21
184.768
  0
LINE
  8
0
 10
4.08728
 20
184.768
 11
4.30623
 21
184.712
  0
LINE
  8
0
 10
4.30623
 20
184.712
 11
4.51639
 21
184.629
  0
LINE
  8
0
 10
4.51639
 20
184.629
 11
4.71448
 21
184.52
  0
LINE
  8
0
 10
4.71448
 20
184.52
 11
4.89735
 21
184.387
  0
LINE
  8
0
 10
4.89735
 20
184.387
 11
5.06213
 21
184.232
  0
LINE
  8
0
 10
5.06213
 20
184.232
 11
5.20622
 21
184.058
  0
LINE
  8
0
 10
5.20622
 20
184.058
 11
5.32735
 21
183.867
  0
LINE
  8
0
 10
5.32735
 20
183.867
 11
5.42358
 21
183.663
  0
LINE
  8
0
 10
5.42358
 20
183.663
 11
5.49344
 21
183.448
  0
LINE
  8
0
 10
5.49344
 20
183.448
 11
5.5358
 21
183.226
  0
LINE
  8
0
 10
5.5358
 20
183.226
 11
5.54999
 21
183
  0
LINE
  8
0
 10
5.54999
 20
183
 11
5.5358
 21
182.774
  0
LINE
  8
0
 10
5.5358
 20
182.774
 11
5.49344
 21
182.552
  0
LINE
  8
0
 10
5.49344
 20
182.552
 11
5.42358
 21
182.337
  0
LINE
  8
0
 10
5.42358
 20
182.337
 11
5.32735
 21
182.133
  0
LINE
  8
0
 10
5.32735
 20
182.133
 11
5.20622
 21
181.942
  0
LINE
  8
0
 10
5.20622
 20
181.942
 11
5.06213
 21
181.768
  0
LINE
  8
0
 10
5.06213
 20
181.768
 11
4.89735
 21
181.613
  0
LINE
  8
0
 10
4.89735
 20
181.613
 11
4.71448
 21
181.48
  0
LINE
  8
0
 10
4.71448
 20
181.48
 11
4.51639
 21
181.371
  0
LINE
  8
0
 10
4.51639
 20
181.371
 11
4.30623
 21
181.288
  0
LINE
  8
0
 10
4.30623
 20
181.288
 11
4.08728
 21
181.232
  0
LINE
  8
0
 10
4.08728
 20
181.232
 11
3.86302
 21
181.204
  0
LINE
  8
0
 10
3.86302
 20
181.204
 11
3.63696
 21
181.204
  0
ENDSEC
  0
SECTION
  2
OBJECTS
  0
DICTIONARY
  0
ENDSEC
  0
EOF
