<?xml version="1.0" standalone="no"?>
<!DOCTYPE svg PUBLIC "-//W3C//DTD SVG 1.1//EN" "http://www.w3.org/Graphics/SVG/1.1/DTD/svg11.dtd">
<svg width="106mm" height="514mm" viewBox="-53 -431 106 514" xmlns="http://www.w3.org/2000/svg" version="1.1">
<title>OpenSCAD Model</title>
<path d="
M -49.5,-265.925 L -49.0451,-265.745 L -48.4369,-265.589 L -47.8139,-265.51 L 47.8139,-265.51 L 48.4369,-265.589
 L 49.0451,-265.745 L 49.6289,-265.976 L 50.1791,-266.278 L 50.6871,-266.647 L 51.1448,-267.077 L 51.5451,-267.561
 L 51.8815,-268.091 L 52.1489,-268.659 L 52.3429,-269.257 L 52.4606,-269.873 L 52.5,-270.5 L 52.5,-425.5
 L 52.4606,-426.127 L 52.3429,-426.743 L 52.1489,-427.341 L 51.8815,-427.909 L 51.5451,-428.439 L 51.1448,-428.923
 L 50.6871,-429.353 L 50.1791,-429.722 L 49.6289,-430.024 L 49.0451,-430.255 L 48.4369,-430.411 L 47.8139,-430.49
 L -47.8139,-430.49 L -48.4369,-430.411 L -49.0451,-430.255 L -49.5,-430.075 L -49.5,-430.49 L -52.5,-430.49
 L -52.5,-265.51 L -49.5,-265.51 z
M 44.8493,-420.605 L 44.5503,-420.643 L 44.2584,-420.717 L 43.9781,-420.828 L 43.714,-420.974 L 43.4702,-421.151
 L 43.2505,-421.357 L 43.0583,-421.589 L 42.8969,-421.844 L 42.7685,-422.117 L 42.6754,-422.403 L 42.6189,-422.699
 L 42.6,-423 L 42.6189,-423.301 L 42.6754,-423.597 L 42.7685,-423.883 L 42.8969,-424.156 L 43.0583,-424.411
 L 43.2505,-424.643 L 43.4702,-424.849 L 43.714,-425.026 L 43.9781,-425.172 L 44.2584,-425.283 L 44.5503,-425.357
 L 44.8493,-425.395 L 45.1507,-425.395 L 45.4497,-425.357 L 45.7416,-425.283 L 46.0219,-425.172 L 46.286,-425.026
 L 46.5298,-424.849 L 46.7495,-424.643 L 46.9416,-424.411 L 47.1031,-424.156 L 47.2315,-423.883 L 47.3246,-423.597
 L 47.3811,-423.301 L 47.4,-423 L 47.3811,-422.699 L 47.3246,-422.403 L 47.2315,-422.117 L 47.1031,-421.844
 L 46.9416,-421.589 L 46.7495,-421.357 L 46.5298,-421.151 L 46.286,-420.974 L 46.0219,-420.828 L 45.7416,-420.717
 L 45.4497,-420.643 L 45.1507,-420.605 z
M -45.1507,-420.605 L -45.4497,-420.643 L -45.7416,-420.717 L -46.0219,-420.828 L -46.286,-420.974 L -46.5298,-421.151
 L -46.7495,-421.357 L -46.9416,-421.589 L -47.1031,-421.844 L -47.2315,-422.117 L -47.3246,-422.403 L -47.3811,-422.699
 L -47.4,-423 L -47.3811,-423.301 L -47.3246,-423.597 L -47.2315,-423.883 L -47.1031,-424.156 L -46.9416,-424.411
 L -46.7495,-424.643 L -46.5298,-424.849 L -46.286,-425.026 L -46.0219,-425.172 L -45.7416,-425.283 L -45.4497,-425.357
 L -45.1507,-425.395 L -44.8493,-425.395 L -44.5503,-425.357 L -44.2584,-425.283 L -43.9781,-425.172 L -43.714,-425.026
 L -43.4702,-424.849 L -43.2505,-424.643 L -43.0583,-424.411 L -42.8969,-424.156 L -42.7685,-423.883 L -42.6754,-423.597
 L -42.6189,-423.301 L -42.6,-423 L -42.6189,-422.699 L -42.6754,-422.403 L -42.7685,-422.117 L -42.8969,-421.844
 L -43.0583,-421.589 L -43.2505,-421.357 L -43.4702,-421.151 L -43.714,-420.974 L -43.9781,-420.828 L -44.2584,-420.717
 L -44.5503,-420.643 L -44.8493,-420.605 z
M 44.8493,-270.605 L 44.5503,-270.643 L 44.2584,-270.717 L 43.9781,-270.828 L 43.714,-270.974 L 43.4702,-271.151
 L 43.2505,-271.357 L 43.0583,-271.589 L 42.8969,-271.844 L 42.7685,-272.117 L 42.6754,-272.403 L 42.6189,-272.699
 L 42.6,-273 L 42.6189,-273.301 L 42.6754,-273.597 L 42.7685,-273.883 L 42.8969,-274.156 L 43.0583,-274.411
 L 43.2505,-274.643 L 43.4702,-274.849 L 43.714,-275.026 L 43.9781,-275.172 L 44.2584,-275.283 L 44.5503,-275.357
 L 44.8493,-275.395 L 45.1507,-275.395 L 45.4497,-275.357 L 45.7416,-275.283 L 46.0219,-275.172 L 46.286,-275.026
 L 46.5298,-274.849 L 46.7495,-274.643 L 46.9416,-274.411 L 47.1031,-274.156 L 47.2315,-273.883 L 47.3246,-273.597
 L 47.3811,-273.301 L 47.4,-273 L 47.3811,-272.699 L 47.3246,-272.403 L 47.2315,-272.117 L 47.1031,-271.844
 L 46.9416,-271.589 L 46.7495,-271.357 L 46.5298,-271.151 L 46.286,-270.974 L 46.0219,-270.828 L 45.7416,-270.717
 L 45.4497,-270.643 L 45.1507,-270.605 z
M -45.1507,-270.605 L -45.4497,-270.643 L -45.7416,-270.717 L -46.0219,-270.828 L -46.286,-270.974 L -46.5298,-271.151
 L -46.7495,-271.357 L -46.9416,-271.589 L -47.1031,-271.844 L -47.2315,-272.117 L -47.3246,-272.403 L -47.3811,-272.699
 L -47.4,-273 L -47.3811,-273.301 L -47.3246,-273.597 L -47.2315,-273.883 L -47.1031,-274.156 L -46.9416,-274.411
 L -46.7495,-274.643 L -46.5298,-274.849 L -46.286,-275.026 L -46.0219,-275.172 L -45.7416,-275.283 L -45.4497,-275.357
 L -45.1507,-275.395 L -44.8493,-275.395 L -44.5503,-275.357 L -44.2584,-275.283 L -43.9781,-275.172 L -43.714,-275.026
 L -43.4702,-274.849 L -43.2505,-274.643 L -43.0583,-274.411 L -42.8969,-274.156 L -42.7685,-273.883 L -42.6754,-273.597
 L -42.6189,-273.301 L -42.6,-273 L -42.6189,-272.699 L -42.6754,-272.403 L -42.7685,-272.117 L -42.8969,-271.844
 L -43.0583,-271.589 L -43.2505,-271.357 L -43.4702,-271.151 L -43.714,-270.974 L -43.9781,-270.828 L -44.2584,-270.717
 L -44.5503,-270.643 L -44.8493,-270.605 z
M -49.5,-91.9248 L -49.0451,-91.7447 L -48.4369,-91.5886 L -47.8139,-91.5099 L 47.8139,-91.5099 L 48.4369,-91.5886
 L 49.0451,-91.7447 L 49.6289,-91.9759 L 50.1791,-92.2784 L 50.6871,-92.6474 L 51.1448,-93.0773 L 51.5451,-93.5611
 L 51.8815,-94.0912 L 52.1489,-94.6594 L 52.3429,-95.2566 L 52.4606,-95.8733 L 52.5,-96.5 L 52.5,-251.5
 L 52.4606,-252.127 L 52.3429,-252.743 L 52.1489,-253.341 L 51.8815,-253.909 L 51.5451,-254.439 L 51.1448,-254.923
 L 50.6871,-255.353 L 50.1791,-255.722 L 49.6289,-256.024 L 49.0451,-256.255 L 48.4369,-256.411 L 47.8139,-256.49
 L -47.8139,-256.49 L -48.4369,-256.411 L -49.0451,-256.255 L -49.5,-256.075 L -49.5,-256.49 L -52.5,-256.49
 L -52.5,-91.5099 L -49.5,-91.5099 z
M 44.887,-247.204 L 44.6627,-247.232 L 44.4438,-247.288 L 44.2336,-247.371 L 44.0355,-247.48 L 43.8526,-247.613
 L 43.6879,-247.768 L 43.5438,-247.942 L 43.4226,-248.133 L 43.3264,-248.337 L 43.2565,-248.552 L 43.2142,-248.774
 L 43.2,-249 L 43.2142,-249.226 L 43.2565,-249.448 L 43.3264,-249.663 L 43.4226,-249.867 L 43.5438,-250.058
 L 43.6879,-250.232 L 43.8526,-250.387 L 44.0355,-250.52 L 44.2336,-250.629 L 44.4438,-250.712 L 44.6627,-250.768
 L 44.887,-250.796 L 45.113,-250.796 L 45.3373,-250.768 L 45.5562,-250.712 L 45.7664,-250.629 L 45.9645,-250.52
 L 46.1474,-250.387 L 46.3121,-250.232 L 46.4562,-250.058 L 46.5773,-249.867 L 46.6736,-249.663 L 46.7434,-249.448
 L 46.7858,-249.226 L 46.8,-249 L 46.7858,-248.774 L 46.7434,-248.552 L 46.6736,-248.337 L 46.5773,-248.133
 L 46.4562,-247.942 L 46.3121,-247.768 L 46.1474,-247.613 L 45.9645,-247.48 L 45.7664,-247.371 L 45.5562,-247.288
 L 45.3373,-247.232 L 45.113,-247.204 z
M -45.113,-247.204 L -45.3373,-247.232 L -45.5562,-247.288 L -45.7664,-247.371 L -45.9645,-247.48 L -46.1474,-247.613
 L -46.3121,-247.768 L -46.4562,-247.942 L -46.5773,-248.133 L -46.6736,-248.337 L -46.7434,-248.552 L -46.7858,-248.774
 L -46.8,-249 L -46.7858,-249.226 L -46.7434,-249.448 L -46.6736,-249.663 L -46.5773,-249.867 L -46.4562,-250.058
 L -46.3121,-250.232 L -46.1474,-250.387 L -45.9645,-250.52 L -45.7664,-250.629 L -45.5562,-250.712 L -45.3373,-250.768
 L -45.113,-250.796 L -44.887,-250.796 L -44.6627,-250.768 L -44.4438,-250.712 L -44.2336,-250.629 L -44.0355,-250.52
 L -43.8526,-250.387 L -43.6879,-250.232 L -43.5438,-250.058 L -43.4226,-249.867 L -43.3264,-249.663 L -43.2565,-249.448
 L -43.2142,-249.226 L -43.2,-249 L -43.2142,-248.774 L -43.2565,-248.552 L -43.3264,-248.337 L -43.4226,-248.133
 L -43.5438,-247.942 L -43.6879,-247.768 L -43.8526,-247.613 L -44.0355,-247.48 L -44.2336,-247.371 L -44.4438,-247.288
 L -44.6627,-247.232 L -44.887,-247.204 z
M -45.113,-97.2036 L -45.3373,-97.2319 L -45.5562,-97.2881 L -45.7664,-97.3713 L -45.9645,-97.4802 L -46.1474,-97.6131
 L -46.3121,-97.7678 L -46.4562,-97.942 L -46.5773,-98.1328 L -46.6736,-98.3374 L -46.7434,-98.5524 L -46.7858,-98.7744
 L -46.8,-99 L -46.7858,-99.2256 L -46.7434,-99.4476 L -46.6736,-99.6626 L -46.5773,-99.8672 L -46.4562,-100.058
 L -46.3121,-100.232 L -46.1474,-100.387 L -45.9645,-100.52 L -45.7664,-100.629 L -45.5562,-100.712 L -45.3373,-100.768
 L -45.113,-100.796 L -44.887,-100.796 L -44.6627,-100.768 L -44.4438,-100.712 L -44.2336,-100.629 L -44.0355,-100.52
 L -43.8526,-100.387 L -43.6879,-100.232 L -43.5438,-100.058 L -43.4226,-99.8672 L -43.3264,-99.6626 L -43.2565,-99.4476
 L -43.2142,-99.2256 L -43.2,-99 L -43.2142,-98.7744 L -43.2565,-98.5524 L -43.3264,-98.3374 L -43.4226,-98.1328
 L -43.5438,-97.942 L -43.6879,-97.7678 L -43.8526,-97.6131 L -44.0355,-97.4802 L -44.2336,-97.3713 L -44.4438,-97.2881
 L -44.6627,-97.2319 L -44.887,-97.2036 z
M 44.887,-97.2036 L 44.6627,-97.2319 L 44.4438,-97.2881 L 44.2336,-97.3713 L 44.0355,-97.4802 L 43.8526,-97.6131
 L 43.6879,-97.7678 L 43.5438,-97.942 L 43.4226,-98.1328 L 43.3264,-98.3374 L 43.2565,-98.5524 L 43.2142,-98.7744
 L 43.2,-99 L 43.2142,-99.2256 L 43.2565,-99.4476 L 43.3264,-99.6626 L 43.4226,-99.8672 L 43.5438,-100.058
 L 43.6879,-100.232 L 43.8526,-100.387 L 44.0355,-100.52 L 44.2336,-100.629 L 44.4438,-100.712 L 44.6627,-100.768
 L 44.887,-100.796 L 45.113,-100.796 L 45.3373,-100.768 L 45.5562,-100.712 L 45.7664,-100.629 L 45.9645,-100.52
 L 46.1474,-100.387 L 46.3121,-100.232 L 46.4562,-100.058 L 46.5773,-99.8672 L 46.6736,-99.6626 L 46.7434,-99.4476
 L 46.7858,-99.2256 L 46.8,-99 L 46.7858,-98.7744 L 46.7434,-98.5524 L 46.6736,-98.3374 L 46.5773,-98.1328
 L 46.4562,-97.942 L 46.3121,-97.7678 L 46.1474,-97.6131 L 45.9645,-97.4802 L 45.7664,-97.3713 L 45.5562,-97.2881
 L 45.3373,-97.2319 L 45.113,-97.2036 z
M -49.5,-82.1148 L -52.5,-82.1148 L -52.5,82.1148 L -49.5,82.1148 z
" stroke="black" fill="lightgray" stroke-width="0.5"/>
</svg>
