  0
SECTION
  2
BLOCKS
  0
ENDSEC
  0
SECTION
  2
ENTITIES
  0
LINE
  8
0
 10
10.9369
 20
306.839
 11
11.5451
 21
306.995
  0
LINE
  8
0
 10
11.5451
 20
306.995
 11
12.1289
 21
307.226
  0
LINE
  8
0
 10
12.1289
 20
307.226
 11
12.6791
 21
307.528
  0
LINE
  8
0
 10
12.6791
 20
307.528
 11
13.1871
 21
307.897
  0
LINE
  8
0
 10
13.1871
 20
307.897
 11
13.6448
 21
308.327
  0
LINE
  8
0
 10
13.6448
 20
308.327
 11
14.0451
 21
308.811
  0
LINE
  8
0
 10
14.0451
 20
308.811
 11
14.3815
 21
309.341
  0
LINE
  8
0
 10
14.3815
 20
309.341
 11
14.6489
 21
309.909
  0
LINE
  8
0
 10
14.6489
 20
309.909
 11
14.8429
 21
310.507
  0
LINE
  8
0
 10
14.8429
 20
310.507
 11
14.9606
 21
311.123
  0
LINE
  8
0
 10
14.9606
 20
311.123
 11
15
 21
311.75
  0
LINE
  8
0
 10
15
 20
311.75
 11
15
 21
339.25
  0
LINE
  8
0
 10
15
 20
339.25
 11
14.9606
 21
339.877
  0
LINE
  8
0
 10
14.9606
 20
339.877
 11
14.8429
 21
340.493
  0
LINE
  8
0
 10
14.8429
 20
340.493
 11
14.6489
 21
341.091
  0
LINE
  8
0
 10
14.6489
 20
341.091
 11
14.3815
 21
341.659
  0
LINE
  8
0
 10
14.3815
 20
341.659
 11
14.0451
 21
342.189
  0
LINE
  8
0
 10
14.0451
 20
342.189
 11
13.6448
 21
342.673
  0
LINE
  8
0
 10
13.6448
 20
342.673
 11
13.1871
 21
343.103
  0
LINE
  8
0
 10
13.1871
 20
343.103
 11
12.6791
 21
343.472
  0
LINE
  8
0
 10
12.6791
 20
343.472
 11
12.1289
 21
343.774
  0
LINE
  8
0
 10
12.1289
 20
343.774
 11
11.5451
 21
344.005
  0
LINE
  8
0
 10
11.5451
 20
344.005
 11
10.9369
 21
344.161
  0
LINE
  8
0
 10
10.9369
 20
344.161
 11
10.3139
 21
344.24
  0
LINE
  8
0
 10
10.3139
 20
344.24
 11
-10.3139
 21
344.24
  0
LINE
  8
0
 10
-10.3139
 20
344.24
 11
-10.9369
 21
344.161
  0
LINE
  8
0
 10
-10.9369
 20
344.161
 11
-11.5451
 21
344.005
  0
LINE
  8
0
 10
-11.5451
 20
344.005
 11
-12.1289
 21
343.774
  0
LINE
  8
0
 10
-12.1289
 20
343.774
 11
-12.6791
 21
343.472
  0
LINE
  8
0
 10
-12.6791
 20
343.472
 11
-13.1871
 21
343.103
  0
LINE
  8
0
 10
-13.1871
 20
343.103
 11
-13.6448
 21
342.673
  0
LINE
  8
0
 10
-13.6448
 20
342.673
 11
-14.0451
 21
342.189
  0
LINE
  8
0
 10
-14.0451
 20
342.189
 11
-14.3815
 21
341.659
  0
LINE
  8
0
 10
-14.3815
 20
341.659
 11
-14.6489
 21
341.091
  0
LINE
  8
0
 10
-14.6489
 20
341.091
 11
-14.8429
 21
340.493
  0
LINE
  8
0
 10
-14.8429
 20
340.493
 11
-14.9606
 21
339.877
  0
LINE
  8
0
 10
-14.9606
 20
339.877
 11
-15
 21
339.25
  0
LINE
  8
0
 10
-15
 20
339.25
 11
-15
 21
311.75
  0
LINE
  8
0
 10
-15
 20
311.75
 11
-14.9606
 21
311.123
  0
LINE
  8
0
 10
-14.9606
 20
311.123
 11
-14.8429
 21
310.507
  0
LINE
  8
0
 10
-14.8429
 20
310.507
 11
-14.6489
 21
309.909
  0
LINE
  8
0
 10
-14.6489
 20
309.909
 11
-14.3815
 21
309.341
  0
LINE
  8
0
 10
-14.3815
 20
309.341
 11
-14.0451
 21
308.811
  0
LINE
  8
0
 10
-14.0451
 20
308.811
 11
-13.6448
 21
308.327
  0
LINE
  8
0
 10
-13.6448
 20
308.327
 11
-13.1871
 21
307.897
  0
LINE
  8
0
 10
-13.1871
 20
307.897
 11
-12.6791
 21
307.528
  0
LINE
  8
0
 10
-12.6791
 20
307.528
 11
-12.1289
 21
307.226
  0
LINE
  8
0
 10
-12.1289
 20
307.226
 11
-11.5451
 21
306.995
  0
LINE
  8
0
 10
-11.5451
 20
306.995
 11
-10.9369
 21
306.839
  0
LINE
  8
0
 10
-10.9369
 20
306.839
 11
-10.3139
 21
306.76
  0
LINE
  8
0
 10
-10.3139
 20
306.76
 11
10.3139
 21
306.76
  0
LINE
  8
0
 10
10.3139
 20
306.76
 11
10.9369
 21
306.839
  0
LINE
  8
0
 10
-9.75116
 20
308.258
 11
-10.2495
 21
308.321
  0
LINE
  8
0
 10
-10.2495
 20
308.321
 11
-10.7361
 21
308.446
  0
LINE
  8
0
 10
-10.7361
 20
308.446
 11
-11.2031
 21
308.631
  0
LINE
  8
0
 10
-11.2031
 20
308.631
 11
-11.6433
 21
308.873
  0
LINE
  8
0
 10
-11.6433
 20
308.873
 11
-12.0497
 21
309.168
  0
LINE
  8
0
 10
-12.0497
 20
309.168
 11
-12.4159
 21
309.512
  0
LINE
  8
0
 10
-12.4159
 20
309.512
 11
-12.7361
 21
309.899
  0
LINE
  8
0
 10
-12.7361
 20
309.899
 11
-13.0052
 21
310.323
  0
LINE
  8
0
 10
-13.0052
 20
310.323
 11
-13.2191
 21
310.778
  0
LINE
  8
0
 10
-13.2191
 20
310.778
 11
-13.3743
 21
311.255
  0
LINE
  8
0
 10
-13.3743
 20
311.255
 11
-13.4684
 21
311.749
  0
LINE
  8
0
 10
-13.4684
 20
311.749
 11
-13.5
 21
312.25
  0
LINE
  8
0
 10
-13.5
 20
312.25
 11
-13.5
 21
338.75
  0
LINE
  8
0
 10
-13.5
 20
338.75
 11
-13.4684
 21
339.251
  0
LINE
  8
0
 10
-13.4684
 20
339.251
 11
-13.3743
 21
339.745
  0
LINE
  8
0
 10
-13.3743
 20
339.745
 11
-13.2191
 21
340.222
  0
LINE
  8
0
 10
-13.2191
 20
340.222
 11
-13.0052
 21
340.677
  0
LINE
  8
0
 10
-13.0052
 20
340.677
 11
-12.7361
 21
341.101
  0
LINE
  8
0
 10
-12.7361
 20
341.101
 11
-12.4159
 21
341.488
  0
LINE
  8
0
 10
-12.4159
 20
341.488
 11
-12.0497
 21
341.832
  0
LINE
  8
0
 10
-12.0497
 20
341.832
 11
-11.6433
 21
342.127
  0
LINE
  8
0
 10
-11.6433
 20
342.127
 11
-11.2031
 21
342.369
  0
LINE
  8
0
 10
-11.2031
 20
342.369
 11
-10.7361
 21
342.554
  0
LINE
  8
0
 10
-10.7361
 20
342.554
 11
-10.2495
 21
342.679
  0
LINE
  8
0
 10
-10.2495
 20
342.679
 11
-9.75116
 21
342.742
  0
LINE
  8
0
 10
-9.75116
 20
342.742
 11
9.75116
 21
342.742
  0
LINE
  8
0
 10
9.75116
 20
342.742
 11
10.2495
 21
342.679
  0
LINE
  8
0
 10
10.2495
 20
342.679
 11
10.7361
 21
342.554
  0
LINE
  8
0
 10
10.7361
 20
342.554
 11
11.2031
 21
342.369
  0
LINE
  8
0
 10
11.2031
 20
342.369
 11
11.6433
 21
342.127
  0
LINE
  8
0
 10
11.6433
 20
342.127
 11
12.0497
 21
341.832
  0
LINE
  8
0
 10
12.0497
 20
341.832
 11
12.4159
 21
341.488
  0
LINE
  8
0
 10
12.4159
 20
341.488
 11
12.7361
 21
341.101
  0
LINE
  8
0
 10
12.7361
 20
341.101
 11
13.0052
 21
340.677
  0
LINE
  8
0
 10
13.0052
 20
340.677
 11
13.2191
 21
340.222
  0
LINE
  8
0
 10
13.2191
 20
340.222
 11
13.3743
 21
339.745
  0
LINE
  8
0
 10
13.3743
 20
339.745
 11
13.4684
 21
339.251
  0
LINE
  8
0
 10
13.4684
 20
339.251
 11
13.5
 21
338.75
  0
LINE
  8
0
 10
13.5
 20
338.75
 11
13.5
 21
312.25
  0
LINE
  8
0
 10
13.5
 20
312.25
 11
13.4684
 21
311.749
  0
LINE
  8
0
 10
13.4684
 20
311.749
 11
13.3743
 21
311.255
  0
LINE
  8
0
 10
13.3743
 20
311.255
 11
13.2191
 21
310.778
  0
LINE
  8
0
 10
13.2191
 20
310.778
 11
13.0052
 21
310.323
  0
LINE
  8
0
 10
13.0052
 20
310.323
 11
12.7361
 21
309.899
  0
LINE
  8
0
 10
12.7361
 20
309.899
 11
12.4159
 21
309.512
  0
LINE
  8
0
 10
12.4159
 20
309.512
 11
12.0497
 21
309.168
  0
LINE
  8
0
 10
12.0497
 20
309.168
 11
11.6433
 21
308.873
  0
LINE
  8
0
 10
11.6433
 20
308.873
 11
11.2031
 21
308.631
  0
LINE
  8
0
 10
11.2031
 20
308.631
 11
10.7361
 21
308.446
  0
LINE
  8
0
 10
10.7361
 20
308.446
 11
10.2495
 21
308.321
  0
LINE
  8
0
 10
10.2495
 20
308.321
 11
9.75116
 21
308.258
  0
LINE
  8
0
 10
9.75116
 20
308.258
 11
-9.75116
 21
308.258
  0
LINE
  8
0
 10
10.9369
 20
260.339
 11
11.5451
 21
260.495
  0
LINE
  8
0
 10
11.5451
 20
260.495
 11
12.1289
 21
260.726
  0
LINE
  8
0
 10
12.1289
 20
260.726
 11
12.6791
 21
261.028
  0
LINE
  8
0
 10
12.6791
 20
261.028
 11
13.1871
 21
261.397
  0
LINE
  8
0
 10
13.1871
 20
261.397
 11
13.6448
 21
261.827
  0
LINE
  8
0
 10
13.6448
 20
261.827
 11
14.0451
 21
262.311
  0
LINE
  8
0
 10
14.0451
 20
262.311
 11
14.3815
 21
262.841
  0
LINE
  8
0
 10
14.3815
 20
262.841
 11
14.6489
 21
263.409
  0
LINE
  8
0
 10
14.6489
 20
263.409
 11
14.8429
 21
264.007
  0
LINE
  8
0
 10
14.8429
 20
264.007
 11
14.9606
 21
264.623
  0
LINE
  8
0
 10
14.9606
 20
264.623
 11
15
 21
265.25
  0
LINE
  8
0
 10
15
 20
265.25
 11
15
 21
292.75
  0
LINE
  8
0
 10
15
 20
292.75
 11
14.9606
 21
293.377
  0
LINE
  8
0
 10
14.9606
 20
293.377
 11
14.8429
 21
293.993
  0
LINE
  8
0
 10
14.8429
 20
293.993
 11
14.6489
 21
294.591
  0
LINE
  8
0
 10
14.6489
 20
294.591
 11
14.3815
 21
295.159
  0
LINE
  8
0
 10
14.3815
 20
295.159
 11
14.0451
 21
295.689
  0
LINE
  8
0
 10
14.0451
 20
295.689
 11
13.6448
 21
296.173
  0
LINE
  8
0
 10
13.6448
 20
296.173
 11
13.1871
 21
296.603
  0
LINE
  8
0
 10
13.1871
 20
296.603
 11
12.6791
 21
296.972
  0
LINE
  8
0
 10
12.6791
 20
296.972
 11
12.1289
 21
297.274
  0
LINE
  8
0
 10
12.1289
 20
297.274
 11
11.5451
 21
297.505
  0
LINE
  8
0
 10
11.5451
 20
297.505
 11
10.9369
 21
297.661
  0
LINE
  8
0
 10
10.9369
 20
297.661
 11
10.3139
 21
297.74
  0
LINE
  8
0
 10
10.3139
 20
297.74
 11
-10.3139
 21
297.74
  0
LINE
  8
0
 10
-10.3139
 20
297.74
 11
-10.9369
 21
297.661
  0
LINE
  8
0
 10
-10.9369
 20
297.661
 11
-11.5451
 21
297.505
  0
LINE
  8
0
 10
-11.5451
 20
297.505
 11
-12.1289
 21
297.274
  0
LINE
  8
0
 10
-12.1289
 20
297.274
 11
-12.6791
 21
296.972
  0
LINE
  8
0
 10
-12.6791
 20
296.972
 11
-13.1871
 21
296.603
  0
LINE
  8
0
 10
-13.1871
 20
296.603
 11
-13.6448
 21
296.173
  0
LINE
  8
0
 10
-13.6448
 20
296.173
 11
-14.0451
 21
295.689
  0
LINE
  8
0
 10
-14.0451
 20
295.689
 11
-14.3815
 21
295.159
  0
LINE
  8
0
 10
-14.3815
 20
295.159
 11
-14.6489
 21
294.591
  0
LINE
  8
0
 10
-14.6489
 20
294.591
 11
-14.8429
 21
293.993
  0
LINE
  8
0
 10
-14.8429
 20
293.993
 11
-14.9606
 21
293.377
  0
LINE
  8
0
 10
-14.9606
 20
293.377
 11
-15
 21
292.75
  0
LINE
  8
0
 10
-15
 20
292.75
 11
-15
 21
265.25
  0
LINE
  8
0
 10
-15
 20
265.25
 11
-14.9606
 21
264.623
  0
LINE
  8
0
 10
-14.9606
 20
264.623
 11
-14.8429
 21
264.007
  0
LINE
  8
0
 10
-14.8429
 20
264.007
 11
-14.6489
 21
263.409
  0
LINE
  8
0
 10
-14.6489
 20
263.409
 11
-14.3815
 21
262.841
  0
LINE
  8
0
 10
-14.3815
 20
262.841
 11
-14.0451
 21
262.311
  0
LINE
  8
0
 10
-14.0451
 20
262.311
 11
-13.6448
 21
261.827
  0
LINE
  8
0
 10
-13.6448
 20
261.827
 11
-13.1871
 21
261.397
  0
LINE
  8
0
 10
-13.1871
 20
261.397
 11
-12.6791
 21
261.028
  0
LINE
  8
0
 10
-12.6791
 20
261.028
 11
-12.1289
 21
260.726
  0
LINE
  8
0
 10
-12.1289
 20
260.726
 11
-11.5451
 21
260.495
  0
LINE
  8
0
 10
-11.5451
 20
260.495
 11
-10.9369
 21
260.339
  0
LINE
  8
0
 10
-10.9369
 20
260.339
 11
-10.3139
 21
260.26
  0
LINE
  8
0
 10
-10.3139
 20
260.26
 11
10.3139
 21
260.26
  0
LINE
  8
0
 10
10.3139
 20
260.26
 11
10.9369
 21
260.339
  0
LINE
  8
0
 10
-9.75116
 20
261.758
 11
-10.2495
 21
261.821
  0
LINE
  8
0
 10
-10.2495
 20
261.821
 11
-10.7361
 21
261.946
  0
LINE
  8
0
 10
-10.7361
 20
261.946
 11
-11.2031
 21
262.131
  0
LINE
  8
0
 10
-11.2031
 20
262.131
 11
-11.6433
 21
262.373
  0
LINE
  8
0
 10
-11.6433
 20
262.373
 11
-12.0497
 21
262.668
  0
LINE
  8
0
 10
-12.0497
 20
262.668
 11
-12.4159
 21
263.012
  0
LINE
  8
0
 10
-12.4159
 20
263.012
 11
-12.7361
 21
263.399
  0
LINE
  8
0
 10
-12.7361
 20
263.399
 11
-13.0052
 21
263.823
  0
LINE
  8
0
 10
-13.0052
 20
263.823
 11
-13.2191
 21
264.278
  0
LINE
  8
0
 10
-13.2191
 20
264.278
 11
-13.3743
 21
264.755
  0
LINE
  8
0
 10
-13.3743
 20
264.755
 11
-13.4684
 21
265.249
  0
LINE
  8
0
 10
-13.4684
 20
265.249
 11
-13.5
 21
265.75
  0
LINE
  8
0
 10
-13.5
 20
265.75
 11
-13.5
 21
292.25
  0
LINE
  8
0
 10
-13.5
 20
292.25
 11
-13.4684
 21
292.751
  0
LINE
  8
0
 10
-13.4684
 20
292.751
 11
-13.3743
 21
293.245
  0
LINE
  8
0
 10
-13.3743
 20
293.245
 11
-13.2191
 21
293.722
  0
LINE
  8
0
 10
-13.2191
 20
293.722
 11
-13.0052
 21
294.177
  0
LINE
  8
0
 10
-13.0052
 20
294.177
 11
-12.7361
 21
294.601
  0
LINE
  8
0
 10
-12.7361
 20
294.601
 11
-12.4159
 21
294.988
  0
LINE
  8
0
 10
-12.4159
 20
294.988
 11
-12.0497
 21
295.332
  0
LINE
  8
0
 10
-12.0497
 20
295.332
 11
-11.6433
 21
295.627
  0
LINE
  8
0
 10
-11.6433
 20
295.627
 11
-11.2031
 21
295.869
  0
LINE
  8
0
 10
-11.2031
 20
295.869
 11
-10.7361
 21
296.054
  0
LINE
  8
0
 10
-10.7361
 20
296.054
 11
-10.2495
 21
296.179
  0
LINE
  8
0
 10
-10.2495
 20
296.179
 11
-9.75116
 21
296.242
  0
LINE
  8
0
 10
-9.75116
 20
296.242
 11
9.75116
 21
296.242
  0
LINE
  8
0
 10
9.75116
 20
296.242
 11
10.2495
 21
296.179
  0
LINE
  8
0
 10
10.2495
 20
296.179
 11
10.7361
 21
296.054
  0
LINE
  8
0
 10
10.7361
 20
296.054
 11
11.2031
 21
295.869
  0
LINE
  8
0
 10
11.2031
 20
295.869
 11
11.6433
 21
295.627
  0
LINE
  8
0
 10
11.6433
 20
295.627
 11
12.0497
 21
295.332
  0
LINE
  8
0
 10
12.0497
 20
295.332
 11
12.4159
 21
294.988
  0
LINE
  8
0
 10
12.4159
 20
294.988
 11
12.7361
 21
294.601
  0
LINE
  8
0
 10
12.7361
 20
294.601
 11
13.0052
 21
294.177
  0
LINE
  8
0
 10
13.0052
 20
294.177
 11
13.2191
 21
293.722
  0
LINE
  8
0
 10
13.2191
 20
293.722
 11
13.3743
 21
293.245
  0
LINE
  8
0
 10
13.3743
 20
293.245
 11
13.4684
 21
292.751
  0
LINE
  8
0
 10
13.4684
 20
292.751
 11
13.5
 21
292.25
  0
LINE
  8
0
 10
13.5
 20
292.25
 11
13.5
 21
265.75
  0
LINE
  8
0
 10
13.5
 20
265.75
 11
13.4684
 21
265.249
  0
LINE
  8
0
 10
13.4684
 20
265.249
 11
13.3743
 21
264.755
  0
LINE
  8
0
 10
13.3743
 20
264.755
 11
13.2191
 21
264.278
  0
LINE
  8
0
 10
13.2191
 20
264.278
 11
13.0052
 21
263.823
  0
LINE
  8
0
 10
13.0052
 20
263.823
 11
12.7361
 21
263.399
  0
LINE
  8
0
 10
12.7361
 20
263.399
 11
12.4159
 21
263.012
  0
LINE
  8
0
 10
12.4159
 20
263.012
 11
12.0497
 21
262.668
  0
LINE
  8
0
 10
12.0497
 20
262.668
 11
11.6433
 21
262.373
  0
LINE
  8
0
 10
11.6433
 20
262.373
 11
11.2031
 21
262.131
  0
LINE
  8
0
 10
11.2031
 20
262.131
 11
10.7361
 21
261.946
  0
LINE
  8
0
 10
10.7361
 20
261.946
 11
10.2495
 21
261.821
  0
LINE
  8
0
 10
10.2495
 20
261.821
 11
9.75116
 21
261.758
  0
LINE
  8
0
 10
9.75116
 20
261.758
 11
-9.75116
 21
261.758
  0
LINE
  8
0
 10
10.9369
 20
213.839
 11
11.5451
 21
213.995
  0
LINE
  8
0
 10
11.5451
 20
213.995
 11
12.1289
 21
214.226
  0
LINE
  8
0
 10
12.1289
 20
214.226
 11
12.6791
 21
214.528
  0
LINE
  8
0
 10
12.6791
 20
214.528
 11
13.1871
 21
214.897
  0
LINE
  8
0
 10
13.1871
 20
214.897
 11
13.6448
 21
215.327
  0
LINE
  8
0
 10
13.6448
 20
215.327
 11
14.0451
 21
215.811
  0
LINE
  8
0
 10
14.0451
 20
215.811
 11
14.3815
 21
216.341
  0
LINE
  8
0
 10
14.3815
 20
216.341
 11
14.6489
 21
216.909
  0
LINE
  8
0
 10
14.6489
 20
216.909
 11
14.8429
 21
217.507
  0
LINE
  8
0
 10
14.8429
 20
217.507
 11
14.9606
 21
218.123
  0
LINE
  8
0
 10
14.9606
 20
218.123
 11
15
 21
218.75
  0
LINE
  8
0
 10
15
 20
218.75
 11
15
 21
246.25
  0
LINE
  8
0
 10
15
 20
246.25
 11
14.9606
 21
246.877
  0
LINE
  8
0
 10
14.9606
 20
246.877
 11
14.8429
 21
247.493
  0
LINE
  8
0
 10
14.8429
 20
247.493
 11
14.6489
 21
248.091
  0
LINE
  8
0
 10
14.6489
 20
248.091
 11
14.3815
 21
248.659
  0
LINE
  8
0
 10
14.3815
 20
248.659
 11
14.0451
 21
249.189
  0
LINE
  8
0
 10
14.0451
 20
249.189
 11
13.6448
 21
249.673
  0
LINE
  8
0
 10
13.6448
 20
249.673
 11
13.1871
 21
250.103
  0
LINE
  8
0
 10
13.1871
 20
250.103
 11
12.6791
 21
250.472
  0
LINE
  8
0
 10
12.6791
 20
250.472
 11
12.1289
 21
250.774
  0
LINE
  8
0
 10
12.1289
 20
250.774
 11
11.5451
 21
251.005
  0
LINE
  8
0
 10
11.5451
 20
251.005
 11
10.9369
 21
251.161
  0
LINE
  8
0
 10
10.9369
 20
251.161
 11
10.3139
 21
251.24
  0
LINE
  8
0
 10
10.3139
 20
251.24
 11
-10.3139
 21
251.24
  0
LINE
  8
0
 10
-10.3139
 20
251.24
 11
-10.9369
 21
251.161
  0
LINE
  8
0
 10
-10.9369
 20
251.161
 11
-11.5451
 21
251.005
  0
LINE
  8
0
 10
-11.5451
 20
251.005
 11
-12.1289
 21
250.774
  0
LINE
  8
0
 10
-12.1289
 20
250.774
 11
-12.6791
 21
250.472
  0
LINE
  8
0
 10
-12.6791
 20
250.472
 11
-13.1871
 21
250.103
  0
LINE
  8
0
 10
-13.1871
 20
250.103
 11
-13.6448
 21
249.673
  0
LINE
  8
0
 10
-13.6448
 20
249.673
 11
-14.0451
 21
249.189
  0
LINE
  8
0
 10
-14.0451
 20
249.189
 11
-14.3815
 21
248.659
  0
LINE
  8
0
 10
-14.3815
 20
248.659
 11
-14.6489
 21
248.091
  0
LINE
  8
0
 10
-14.6489
 20
248.091
 11
-14.8429
 21
247.493
  0
LINE
  8
0
 10
-14.8429
 20
247.493
 11
-14.9606
 21
246.877
  0
LINE
  8
0
 10
-14.9606
 20
246.877
 11
-15
 21
246.25
  0
LINE
  8
0
 10
-15
 20
246.25
 11
-15
 21
218.75
  0
LINE
  8
0
 10
-15
 20
218.75
 11
-14.9606
 21
218.123
  0
LINE
  8
0
 10
-14.9606
 20
218.123
 11
-14.8429
 21
217.507
  0
LINE
  8
0
 10
-14.8429
 20
217.507
 11
-14.6489
 21
216.909
  0
LINE
  8
0
 10
-14.6489
 20
216.909
 11
-14.3815
 21
216.341
  0
LINE
  8
0
 10
-14.3815
 20
216.341
 11
-14.0451
 21
215.811
  0
LINE
  8
0
 10
-14.0451
 20
215.811
 11
-13.6448
 21
215.327
  0
LINE
  8
0
 10
-13.6448
 20
215.327
 11
-13.1871
 21
214.897
  0
LINE
  8
0
 10
-13.1871
 20
214.897
 11
-12.6791
 21
214.528
  0
LINE
  8
0
 10
-12.6791
 20
214.528
 11
-12.1289
 21
214.226
  0
LINE
  8
0
 10
-12.1289
 20
214.226
 11
-11.5451
 21
213.995
  0
LINE
  8
0
 10
-11.5451
 20
213.995
 11
-10.9369
 21
213.839
  0
LINE
  8
0
 10
-10.9369
 20
213.839
 11
-10.3139
 21
213.76
  0
LINE
  8
0
 10
-10.3139
 20
213.76
 11
10.3139
 21
213.76
  0
LINE
  8
0
 10
10.3139
 20
213.76
 11
10.9369
 21
213.839
  0
LINE
  8
0
 10
-9.69545
 20
216.143
 11
-10.0833
 21
216.192
  0
LINE
  8
0
 10
-10.0833
 20
216.192
 11
-10.4619
 21
216.289
  0
LINE
  8
0
 10
-10.4619
 20
216.289
 11
-10.8254
 21
216.433
  0
LINE
  8
0
 10
-10.8254
 20
216.433
 11
-11.168
 21
216.622
  0
LINE
  8
0
 10
-11.168
 20
216.622
 11
-11.4842
 21
216.851
  0
LINE
  8
0
 10
-11.4842
 20
216.851
 11
-11.7692
 21
217.119
  0
LINE
  8
0
 10
-11.7692
 20
217.119
 11
-12.0184
 21
217.42
  0
LINE
  8
0
 10
-12.0184
 20
217.42
 11
-12.2279
 21
217.75
  0
LINE
  8
0
 10
-12.2279
 20
217.75
 11
-12.3943
 21
218.104
  0
LINE
  8
0
 10
-12.3943
 20
218.104
 11
-12.5151
 21
218.476
  0
LINE
  8
0
 10
-12.5151
 20
218.476
 11
-12.5884
 21
218.86
  0
LINE
  8
0
 10
-12.5884
 20
218.86
 11
-12.6129
 21
219.25
  0
LINE
  8
0
 10
-12.6129
 20
219.25
 11
-12.6129
 21
245.75
  0
LINE
  8
0
 10
-12.6129
 20
245.75
 11
-12.5884
 21
246.14
  0
LINE
  8
0
 10
-12.5884
 20
246.14
 11
-12.5151
 21
246.524
  0
LINE
  8
0
 10
-12.5151
 20
246.524
 11
-12.3943
 21
246.896
  0
LINE
  8
0
 10
-12.3943
 20
246.896
 11
-12.2279
 21
247.25
  0
LINE
  8
0
 10
-12.2279
 20
247.25
 11
-12.0184
 21
247.58
  0
LINE
  8
0
 10
-12.0184
 20
247.58
 11
-11.7692
 21
247.881
  0
LINE
  8
0
 10
-11.7692
 20
247.881
 11
-11.4842
 21
248.149
  0
LINE
  8
0
 10
-11.4842
 20
248.149
 11
-11.168
 21
248.378
  0
LINE
  8
0
 10
-11.168
 20
248.378
 11
-10.8254
 21
248.567
  0
LINE
  8
0
 10
-10.8254
 20
248.567
 11
-10.4619
 21
248.711
  0
LINE
  8
0
 10
-10.4619
 20
248.711
 11
-10.0833
 21
248.808
  0
LINE
  8
0
 10
-10.0833
 20
248.808
 11
-9.69545
 21
248.857
  0
LINE
  8
0
 10
-9.69545
 20
248.857
 11
9.69545
 21
248.857
  0
LINE
  8
0
 10
9.69545
 20
248.857
 11
10.0833
 21
248.808
  0
LINE
  8
0
 10
10.0833
 20
248.808
 11
10.4619
 21
248.711
  0
LINE
  8
0
 10
10.4619
 20
248.711
 11
10.8254
 21
248.567
  0
LINE
  8
0
 10
10.8254
 20
248.567
 11
11.168
 21
248.378
  0
LINE
  8
0
 10
11.168
 20
248.378
 11
11.4842
 21
248.149
  0
LINE
  8
0
 10
11.4842
 20
248.149
 11
11.7692
 21
247.881
  0
LINE
  8
0
 10
11.7692
 20
247.881
 11
12.0184
 21
247.58
  0
LINE
  8
0
 10
12.0184
 20
247.58
 11
12.2279
 21
247.25
  0
LINE
  8
0
 10
12.2279
 20
247.25
 11
12.3943
 21
246.896
  0
LINE
  8
0
 10
12.3943
 20
246.896
 11
12.5151
 21
246.524
  0
LINE
  8
0
 10
12.5151
 20
246.524
 11
12.5884
 21
246.14
  0
LINE
  8
0
 10
12.5884
 20
246.14
 11
12.6129
 21
245.75
  0
LINE
  8
0
 10
12.6129
 20
245.75
 11
12.6129
 21
219.25
  0
LINE
  8
0
 10
12.6129
 20
219.25
 11
12.5884
 21
218.86
  0
LINE
  8
0
 10
12.5884
 20
218.86
 11
12.5151
 21
218.476
  0
LINE
  8
0
 10
12.5151
 20
218.476
 11
12.3943
 21
218.104
  0
LINE
  8
0
 10
12.3943
 20
218.104
 11
12.2279
 21
217.75
  0
LINE
  8
0
 10
12.2279
 20
217.75
 11
12.0184
 21
217.42
  0
LINE
  8
0
 10
12.0184
 20
217.42
 11
11.7692
 21
217.119
  0
LINE
  8
0
 10
11.7692
 20
217.119
 11
11.4842
 21
216.851
  0
LINE
  8
0
 10
11.4842
 20
216.851
 11
11.168
 21
216.622
  0
LINE
  8
0
 10
11.168
 20
216.622
 11
10.8254
 21
216.433
  0
LINE
  8
0
 10
10.8254
 20
216.433
 11
10.4619
 21
216.289
  0
LINE
  8
0
 10
10.4619
 20
216.289
 11
10.0833
 21
216.192
  0
LINE
  8
0
 10
10.0833
 20
216.192
 11
9.69545
 21
216.143
  0
LINE
  8
0
 10
9.69545
 20
216.143
 11
-9.69545
 21
216.143
  0
LINE
  8
0
 10
10.9369
 20
167.339
 11
11.5451
 21
167.495
  0
LINE
  8
0
 10
11.5451
 20
167.495
 11
12.1289
 21
167.726
  0
LINE
  8
0
 10
12.1289
 20
167.726
 11
12.6791
 21
168.028
  0
LINE
  8
0
 10
12.6791
 20
168.028
 11
13.1871
 21
168.397
  0
LINE
  8
0
 10
13.1871
 20
168.397
 11
13.6448
 21
168.827
  0
LINE
  8
0
 10
13.6448
 20
168.827
 11
14.0451
 21
169.311
  0
LINE
  8
0
 10
14.0451
 20
169.311
 11
14.3815
 21
169.841
  0
LINE
  8
0
 10
14.3815
 20
169.841
 11
14.6489
 21
170.409
  0
LINE
  8
0
 10
14.6489
 20
170.409
 11
14.8429
 21
171.007
  0
LINE
  8
0
 10
14.8429
 20
171.007
 11
14.9606
 21
171.623
  0
LINE
  8
0
 10
14.9606
 20
171.623
 11
15
 21
172.25
  0
LINE
  8
0
 10
15
 20
172.25
 11
15
 21
199.75
  0
LINE
  8
0
 10
15
 20
199.75
 11
14.9606
 21
200.377
  0
LINE
  8
0
 10
14.9606
 20
200.377
 11
14.8429
 21
200.993
  0
LINE
  8
0
 10
14.8429
 20
200.993
 11
14.6489
 21
201.591
  0
LINE
  8
0
 10
14.6489
 20
201.591
 11
14.3815
 21
202.159
  0
LINE
  8
0
 10
14.3815
 20
202.159
 11
14.0451
 21
202.689
  0
LINE
  8
0
 10
14.0451
 20
202.689
 11
13.6448
 21
203.173
  0
LINE
  8
0
 10
13.6448
 20
203.173
 11
13.1871
 21
203.603
  0
LINE
  8
0
 10
13.1871
 20
203.603
 11
12.6791
 21
203.972
  0
LINE
  8
0
 10
12.6791
 20
203.972
 11
12.1289
 21
204.274
  0
LINE
  8
0
 10
12.1289
 20
204.274
 11
11.5451
 21
204.505
  0
LINE
  8
0
 10
11.5451
 20
204.505
 11
10.9369
 21
204.661
  0
LINE
  8
0
 10
10.9369
 20
204.661
 11
10.3139
 21
204.74
  0
LINE
  8
0
 10
10.3139
 20
204.74
 11
-10.3139
 21
204.74
  0
LINE
  8
0
 10
-10.3139
 20
204.74
 11
-10.9369
 21
204.661
  0
LINE
  8
0
 10
-10.9369
 20
204.661
 11
-11.5451
 21
204.505
  0
LINE
  8
0
 10
-11.5451
 20
204.505
 11
-12.1289
 21
204.274
  0
LINE
  8
0
 10
-12.1289
 20
204.274
 11
-12.6791
 21
203.972
  0
LINE
  8
0
 10
-12.6791
 20
203.972
 11
-13.1871
 21
203.603
  0
LINE
  8
0
 10
-13.1871
 20
203.603
 11
-13.6448
 21
203.173
  0
LINE
  8
0
 10
-13.6448
 20
203.173
 11
-14.0451
 21
202.689
  0
LINE
  8
0
 10
-14.0451
 20
202.689
 11
-14.3815
 21
202.159
  0
LINE
  8
0
 10
-14.3815
 20
202.159
 11
-14.6489
 21
201.591
  0
LINE
  8
0
 10
-14.6489
 20
201.591
 11
-14.8429
 21
200.993
  0
LINE
  8
0
 10
-14.8429
 20
200.993
 11
-14.9606
 21
200.377
  0
LINE
  8
0
 10
-14.9606
 20
200.377
 11
-15
 21
199.75
  0
LINE
  8
0
 10
-15
 20
199.75
 11
-15
 21
172.25
  0
LINE
  8
0
 10
-15
 20
172.25
 11
-14.9606
 21
171.623
  0
LINE
  8
0
 10
-14.9606
 20
171.623
 11
-14.8429
 21
171.007
  0
LINE
  8
0
 10
-14.8429
 20
171.007
 11
-14.6489
 21
170.409
  0
LINE
  8
0
 10
-14.6489
 20
170.409
 11
-14.3815
 21
169.841
  0
LINE
  8
0
 10
-14.3815
 20
169.841
 11
-14.0451
 21
169.311
  0
LINE
  8
0
 10
-14.0451
 20
169.311
 11
-13.6448
 21
168.827
  0
LINE
  8
0
 10
-13.6448
 20
168.827
 11
-13.1871
 21
168.397
  0
LINE
  8
0
 10
-13.1871
 20
168.397
 11
-12.6791
 21
168.028
  0
LINE
  8
0
 10
-12.6791
 20
168.028
 11
-12.1289
 21
167.726
  0
LINE
  8
0
 10
-12.1289
 20
167.726
 11
-11.5451
 21
167.495
  0
LINE
  8
0
 10
-11.5451
 20
167.495
 11
-10.9369
 21
167.339
  0
LINE
  8
0
 10
-10.9369
 20
167.339
 11
-10.3139
 21
167.26
  0
LINE
  8
0
 10
-10.3139
 20
167.26
 11
10.3139
 21
167.26
  0
LINE
  8
0
 10
10.3139
 20
167.26
 11
10.9369
 21
167.339
  0
LINE
  8
0
 10
7.36592
 20
195.119
 11
7.09988
 21
195.153
  0
LINE
  8
0
 10
7.09988
 20
195.153
 11
6.84015
 21
195.219
  0
LINE
  8
0
 10
6.84015
 20
195.219
 11
6.59084
 21
195.318
  0
LINE
  8
0
 10
6.59084
 20
195.318
 11
6.35585
 21
195.447
  0
LINE
  8
0
 10
6.35585
 20
195.447
 11
6.1389
 21
195.605
  0
LINE
  8
0
 10
6.1389
 20
195.605
 11
5.94344
 21
195.788
  0
LINE
  8
0
 10
5.94344
 20
195.788
 11
5.77251
 21
195.995
  0
LINE
  8
0
 10
5.77251
 20
195.995
 11
5.62881
 21
196.221
  0
LINE
  8
0
 10
5.62881
 20
196.221
 11
5.51465
 21
196.464
  0
LINE
  8
0
 10
5.51465
 20
196.464
 11
5.43178
 21
196.719
  0
LINE
  8
0
 10
5.43178
 20
196.719
 11
5.38153
 21
196.982
  0
LINE
  8
0
 10
5.38153
 20
196.982
 11
5.3647
 21
197.25
  0
LINE
  8
0
 10
5.3647
 20
197.25
 11
5.38153
 21
197.518
  0
LINE
  8
0
 10
5.38153
 20
197.518
 11
5.43178
 21
197.781
  0
LINE
  8
0
 10
5.43178
 20
197.781
 11
5.51465
 21
198.036
  0
LINE
  8
0
 10
5.51465
 20
198.036
 11
5.62881
 21
198.279
  0
LINE
  8
0
 10
5.62881
 20
198.279
 11
5.77251
 21
198.505
  0
LINE
  8
0
 10
5.77251
 20
198.505
 11
5.94344
 21
198.712
  0
LINE
  8
0
 10
5.94344
 20
198.712
 11
6.1389
 21
198.895
  0
LINE
  8
0
 10
6.1389
 20
198.895
 11
6.35585
 21
199.053
  0
LINE
  8
0
 10
6.35585
 20
199.053
 11
6.59084
 21
199.182
  0
LINE
  8
0
 10
6.59084
 20
199.182
 11
6.84015
 21
199.281
  0
LINE
  8
0
 10
6.84015
 20
199.281
 11
7.09988
 21
199.347
  0
LINE
  8
0
 10
7.09988
 20
199.347
 11
7.36592
 21
199.381
  0
LINE
  8
0
 10
7.36592
 20
199.381
 11
7.63406
 21
199.381
  0
LINE
  8
0
 10
7.63406
 20
199.381
 11
7.9001
 21
199.347
  0
LINE
  8
0
 10
7.9001
 20
199.347
 11
8.15984
 21
199.281
  0
LINE
  8
0
 10
8.15984
 20
199.281
 11
8.40915
 21
199.182
  0
LINE
  8
0
 10
8.40915
 20
199.182
 11
8.64413
 21
199.053
  0
LINE
  8
0
 10
8.64413
 20
199.053
 11
8.86108
 21
198.895
  0
LINE
  8
0
 10
8.86108
 20
198.895
 11
9.05655
 21
198.712
  0
LINE
  8
0
 10
9.05655
 20
198.712
 11
9.22748
 21
198.505
  0
LINE
  8
0
 10
9.22748
 20
198.505
 11
9.37117
 21
198.279
  0
LINE
  8
0
 10
9.37117
 20
198.279
 11
9.48534
 21
198.036
  0
LINE
  8
0
 10
9.48534
 20
198.036
 11
9.56821
 21
197.781
  0
LINE
  8
0
 10
9.56821
 20
197.781
 11
9.61845
 21
197.518
  0
LINE
  8
0
 10
9.61845
 20
197.518
 11
9.63528
 21
197.25
  0
LINE
  8
0
 10
9.63528
 20
197.25
 11
9.61845
 21
196.982
  0
LINE
  8
0
 10
9.61845
 20
196.982
 11
9.56821
 21
196.719
  0
LINE
  8
0
 10
9.56821
 20
196.719
 11
9.48534
 21
196.464
  0
LINE
  8
0
 10
9.48534
 20
196.464
 11
9.37117
 21
196.221
  0
LINE
  8
0
 10
9.37117
 20
196.221
 11
9.22748
 21
195.995
  0
LINE
  8
0
 10
9.22748
 20
195.995
 11
9.05655
 21
195.788
  0
LINE
  8
0
 10
9.05655
 20
195.788
 11
8.86108
 21
195.605
  0
LINE
  8
0
 10
8.86108
 20
195.605
 11
8.64413
 21
195.447
  0
LINE
  8
0
 10
8.64413
 20
195.447
 11
8.40915
 21
195.318
  0
LINE
  8
0
 10
8.40915
 20
195.318
 11
8.15984
 21
195.219
  0
LINE
  8
0
 10
8.15984
 20
195.219
 11
7.9001
 21
195.153
  0
LINE
  8
0
 10
7.9001
 20
195.153
 11
7.63406
 21
195.119
  0
LINE
  8
0
 10
7.63406
 20
195.119
 11
7.36592
 21
195.119
  0
LINE
  8
0
 10
-7.63406
 20
195.119
 11
-7.9001
 21
195.153
  0
LINE
  8
0
 10
-7.9001
 20
195.153
 11
-8.15984
 21
195.219
  0
LINE
  8
0
 10
-8.15984
 20
195.219
 11
-8.40915
 21
195.318
  0
LINE
  8
0
 10
-8.40915
 20
195.318
 11
-8.64413
 21
195.447
  0
LINE
  8
0
 10
-8.64413
 20
195.447
 11
-8.86108
 21
195.605
  0
LINE
  8
0
 10
-8.86108
 20
195.605
 11
-9.05655
 21
195.788
  0
LINE
  8
0
 10
-9.05655
 20
195.788
 11
-9.22748
 21
195.995
  0
LINE
  8
0
 10
-9.22748
 20
195.995
 11
-9.37117
 21
196.221
  0
LINE
  8
0
 10
-9.37117
 20
196.221
 11
-9.48534
 21
196.464
  0
LINE
  8
0
 10
-9.48534
 20
196.464
 11
-9.56821
 21
196.719
  0
LINE
  8
0
 10
-9.56821
 20
196.719
 11
-9.61845
 21
196.982
  0
LINE
  8
0
 10
-9.61845
 20
196.982
 11
-9.63528
 21
197.25
  0
LINE
  8
0
 10
-9.63528
 20
197.25
 11
-9.61845
 21
197.518
  0
LINE
  8
0
 10
-9.61845
 20
197.518
 11
-9.56821
 21
197.781
  0
LINE
  8
0
 10
-9.56821
 20
197.781
 11
-9.48534
 21
198.036
  0
LINE
  8
0
 10
-9.48534
 20
198.036
 11
-9.37117
 21
198.279
  0
LINE
  8
0
 10
-9.37117
 20
198.279
 11
-9.22748
 21
198.505
  0
LINE
  8
0
 10
-9.22748
 20
198.505
 11
-9.05655
 21
198.712
  0
LINE
  8
0
 10
-9.05655
 20
198.712
 11
-8.86108
 21
198.895
  0
LINE
  8
0
 10
-8.86108
 20
198.895
 11
-8.64413
 21
199.053
  0
LINE
  8
0
 10
-8.64413
 20
199.053
 11
-8.40915
 21
199.182
  0
LINE
  8
0
 10
-8.40915
 20
199.182
 11
-8.15984
 21
199.281
  0
LINE
  8
0
 10
-8.15984
 20
199.281
 11
-7.9001
 21
199.347
  0
LINE
  8
0
 10
-7.9001
 20
199.347
 11
-7.63406
 21
199.381
  0
LINE
  8
0
 10
-7.63406
 20
199.381
 11
-7.36592
 21
199.381
  0
LINE
  8
0
 10
-7.36592
 20
199.381
 11
-7.09988
 21
199.347
  0
LINE
  8
0
 10
-7.09988
 20
199.347
 11
-6.84015
 21
199.281
  0
LINE
  8
0
 10
-6.84015
 20
199.281
 11
-6.59084
 21
199.182
  0
LINE
  8
0
 10
-6.59084
 20
199.182
 11
-6.35585
 21
199.053
  0
LINE
  8
0
 10
-6.35585
 20
199.053
 11
-6.1389
 21
198.895
  0
LINE
  8
0
 10
-6.1389
 20
198.895
 11
-5.94344
 21
198.712
  0
LINE
  8
0
 10
-5.94344
 20
198.712
 11
-5.77251
 21
198.505
  0
LINE
  8
0
 10
-5.77251
 20
198.505
 11
-5.62881
 21
198.279
  0
LINE
  8
0
 10
-5.62881
 20
198.279
 11
-5.51465
 21
198.036
  0
LINE
  8
0
 10
-5.51465
 20
198.036
 11
-5.43178
 21
197.781
  0
LINE
  8
0
 10
-5.43178
 20
197.781
 11
-5.38153
 21
197.518
  0
LINE
  8
0
 10
-5.38153
 20
197.518
 11
-5.3647
 21
197.25
  0
LINE
  8
0
 10
-5.3647
 20
197.25
 11
-5.38153
 21
196.982
  0
LINE
  8
0
 10
-5.38153
 20
196.982
 11
-5.43178
 21
196.719
  0
LINE
  8
0
 10
-5.43178
 20
196.719
 11
-5.51465
 21
196.464
  0
LINE
  8
0
 10
-5.51465
 20
196.464
 11
-5.62881
 21
196.221
  0
LINE
  8
0
 10
-5.62881
 20
196.221
 11
-5.77251
 21
195.995
  0
LINE
  8
0
 10
-5.77251
 20
195.995
 11
-5.94344
 21
195.788
  0
LINE
  8
0
 10
-5.94344
 20
195.788
 11
-6.1389
 21
195.605
  0
LINE
  8
0
 10
-6.1389
 20
195.605
 11
-6.35585
 21
195.447
  0
LINE
  8
0
 10
-6.35585
 20
195.447
 11
-6.59084
 21
195.318
  0
LINE
  8
0
 10
-6.59084
 20
195.318
 11
-6.84015
 21
195.219
  0
LINE
  8
0
 10
-6.84015
 20
195.219
 11
-7.09988
 21
195.153
  0
LINE
  8
0
 10
-7.09988
 20
195.153
 11
-7.36592
 21
195.119
  0
LINE
  8
0
 10
-7.36592
 20
195.119
 11
-7.63406
 21
195.119
  0
LINE
  8
0
 10
7.36592
 20
172.619
 11
7.09988
 21
172.653
  0
LINE
  8
0
 10
7.09988
 20
172.653
 11
6.84015
 21
172.719
  0
LINE
  8
0
 10
6.84015
 20
172.719
 11
6.59084
 21
172.818
  0
LINE
  8
0
 10
6.59084
 20
172.818
 11
6.35585
 21
172.947
  0
LINE
  8
0
 10
6.35585
 20
172.947
 11
6.1389
 21
173.105
  0
LINE
  8
0
 10
6.1389
 20
173.105
 11
5.94344
 21
173.288
  0
LINE
  8
0
 10
5.94344
 20
173.288
 11
5.77251
 21
173.495
  0
LINE
  8
0
 10
5.77251
 20
173.495
 11
5.62881
 21
173.721
  0
LINE
  8
0
 10
5.62881
 20
173.721
 11
5.51465
 21
173.964
  0
LINE
  8
0
 10
5.51465
 20
173.964
 11
5.43178
 21
174.219
  0
LINE
  8
0
 10
5.43178
 20
174.219
 11
5.38153
 21
174.482
  0
LINE
  8
0
 10
5.38153
 20
174.482
 11
5.3647
 21
174.75
  0
LINE
  8
0
 10
5.3647
 20
174.75
 11
5.38153
 21
175.018
  0
LINE
  8
0
 10
5.38153
 20
175.018
 11
5.43178
 21
175.281
  0
LINE
  8
0
 10
5.43178
 20
175.281
 11
5.51465
 21
175.536
  0
LINE
  8
0
 10
5.51465
 20
175.536
 11
5.62881
 21
175.779
  0
LINE
  8
0
 10
5.62881
 20
175.779
 11
5.77251
 21
176.005
  0
LINE
  8
0
 10
5.77251
 20
176.005
 11
5.94344
 21
176.212
  0
LINE
  8
0
 10
5.94344
 20
176.212
 11
6.1389
 21
176.395
  0
LINE
  8
0
 10
6.1389
 20
176.395
 11
6.35585
 21
176.553
  0
LINE
  8
0
 10
6.35585
 20
176.553
 11
6.59084
 21
176.682
  0
LINE
  8
0
 10
6.59084
 20
176.682
 11
6.84015
 21
176.781
  0
LINE
  8
0
 10
6.84015
 20
176.781
 11
7.09988
 21
176.847
  0
LINE
  8
0
 10
7.09988
 20
176.847
 11
7.36592
 21
176.881
  0
LINE
  8
0
 10
7.36592
 20
176.881
 11
7.63406
 21
176.881
  0
LINE
  8
0
 10
7.63406
 20
176.881
 11
7.9001
 21
176.847
  0
LINE
  8
0
 10
7.9001
 20
176.847
 11
8.15984
 21
176.781
  0
LINE
  8
0
 10
8.15984
 20
176.781
 11
8.40915
 21
176.682
  0
LINE
  8
0
 10
8.40915
 20
176.682
 11
8.64413
 21
176.553
  0
LINE
  8
0
 10
8.64413
 20
176.553
 11
8.86108
 21
176.395
  0
LINE
  8
0
 10
8.86108
 20
176.395
 11
9.05655
 21
176.212
  0
LINE
  8
0
 10
9.05655
 20
176.212
 11
9.22748
 21
176.005
  0
LINE
  8
0
 10
9.22748
 20
176.005
 11
9.37117
 21
175.779
  0
LINE
  8
0
 10
9.37117
 20
175.779
 11
9.48534
 21
175.536
  0
LINE
  8
0
 10
9.48534
 20
175.536
 11
9.56821
 21
175.281
  0
LINE
  8
0
 10
9.56821
 20
175.281
 11
9.61845
 21
175.018
  0
LINE
  8
0
 10
9.61845
 20
175.018
 11
9.63528
 21
174.75
  0
LINE
  8
0
 10
9.63528
 20
174.75
 11
9.61845
 21
174.482
  0
LINE
  8
0
 10
9.61845
 20
174.482
 11
9.56821
 21
174.219
  0
LINE
  8
0
 10
9.56821
 20
174.219
 11
9.48534
 21
173.964
  0
LINE
  8
0
 10
9.48534
 20
173.964
 11
9.37117
 21
173.721
  0
LINE
  8
0
 10
9.37117
 20
173.721
 11
9.22748
 21
173.495
  0
LINE
  8
0
 10
9.22748
 20
173.495
 11
9.05655
 21
173.288
  0
LINE
  8
0
 10
9.05655
 20
173.288
 11
8.86108
 21
173.105
  0
LINE
  8
0
 10
8.86108
 20
173.105
 11
8.64413
 21
172.947
  0
LINE
  8
0
 10
8.64413
 20
172.947
 11
8.40915
 21
172.818
  0
LINE
  8
0
 10
8.40915
 20
172.818
 11
8.15984
 21
172.719
  0
LINE
  8
0
 10
8.15984
 20
172.719
 11
7.9001
 21
172.653
  0
LINE
  8
0
 10
7.9001
 20
172.653
 11
7.63406
 21
172.619
  0
LINE
  8
0
 10
7.63406
 20
172.619
 11
7.36592
 21
172.619
  0
LINE
  8
0
 10
-7.63406
 20
172.619
 11
-7.9001
 21
172.653
  0
LINE
  8
0
 10
-7.9001
 20
172.653
 11
-8.15984
 21
172.719
  0
LINE
  8
0
 10
-8.15984
 20
172.719
 11
-8.40915
 21
172.818
  0
LINE
  8
0
 10
-8.40915
 20
172.818
 11
-8.64413
 21
172.947
  0
LINE
  8
0
 10
-8.64413
 20
172.947
 11
-8.86108
 21
173.105
  0
LINE
  8
0
 10
-8.86108
 20
173.105
 11
-9.05655
 21
173.288
  0
LINE
  8
0
 10
-9.05655
 20
173.288
 11
-9.22748
 21
173.495
  0
LINE
  8
0
 10
-9.22748
 20
173.495
 11
-9.37117
 21
173.721
  0
LINE
  8
0
 10
-9.37117
 20
173.721
 11
-9.48534
 21
173.964
  0
LINE
  8
0
 10
-9.48534
 20
173.964
 11
-9.56821
 21
174.219
  0
LINE
  8
0
 10
-9.56821
 20
174.219
 11
-9.61845
 21
174.482
  0
LINE
  8
0
 10
-9.61845
 20
174.482
 11
-9.63528
 21
174.75
  0
LINE
  8
0
 10
-9.63528
 20
174.75
 11
-9.61845
 21
175.018
  0
LINE
  8
0
 10
-9.61845
 20
175.018
 11
-9.56821
 21
175.281
  0
LINE
  8
0
 10
-9.56821
 20
175.281
 11
-9.48534
 21
175.536
  0
LINE
  8
0
 10
-9.48534
 20
175.536
 11
-9.37117
 21
175.779
  0
LINE
  8
0
 10
-9.37117
 20
175.779
 11
-9.22748
 21
176.005
  0
LINE
  8
0
 10
-9.22748
 20
176.005
 11
-9.05655
 21
176.212
  0
LINE
  8
0
 10
-9.05655
 20
176.212
 11
-8.86108
 21
176.395
  0
LINE
  8
0
 10
-8.86108
 20
176.395
 11
-8.64413
 21
176.553
  0
LINE
  8
0
 10
-8.64413
 20
176.553
 11
-8.40915
 21
176.682
  0
LINE
  8
0
 10
-8.40915
 20
176.682
 11
-8.15984
 21
176.781
  0
LINE
  8
0
 10
-8.15984
 20
176.781
 11
-7.9001
 21
176.847
  0
LINE
  8
0
 10
-7.9001
 20
176.847
 11
-7.63406
 21
176.881
  0
LINE
  8
0
 10
-7.63406
 20
176.881
 11
-7.36592
 21
176.881
  0
LINE
  8
0
 10
-7.36592
 20
176.881
 11
-7.09988
 21
176.847
  0
LINE
  8
0
 10
-7.09988
 20
176.847
 11
-6.84015
 21
176.781
  0
LINE
  8
0
 10
-6.84015
 20
176.781
 11
-6.59084
 21
176.682
  0
LINE
  8
0
 10
-6.59084
 20
176.682
 11
-6.35585
 21
176.553
  0
LINE
  8
0
 10
-6.35585
 20
176.553
 11
-6.1389
 21
176.395
  0
LINE
  8
0
 10
-6.1389
 20
176.395
 11
-5.94344
 21
176.212
  0
LINE
  8
0
 10
-5.94344
 20
176.212
 11
-5.77251
 21
176.005
  0
LINE
  8
0
 10
-5.77251
 20
176.005
 11
-5.62881
 21
175.779
  0
LINE
  8
0
 10
-5.62881
 20
175.779
 11
-5.51465
 21
175.536
  0
LINE
  8
0
 10
-5.51465
 20
175.536
 11
-5.43178
 21
175.281
  0
LINE
  8
0
 10
-5.43178
 20
175.281
 11
-5.38153
 21
175.018
  0
LINE
  8
0
 10
-5.38153
 20
175.018
 11
-5.3647
 21
174.75
  0
LINE
  8
0
 10
-5.3647
 20
174.75
 11
-5.38153
 21
174.482
  0
LINE
  8
0
 10
-5.38153
 20
174.482
 11
-5.43178
 21
174.219
  0
LINE
  8
0
 10
-5.43178
 20
174.219
 11
-5.51465
 21
173.964
  0
LINE
  8
0
 10
-5.51465
 20
173.964
 11
-5.62881
 21
173.721
  0
LINE
  8
0
 10
-5.62881
 20
173.721
 11
-5.77251
 21
173.495
  0
LINE
  8
0
 10
-5.77251
 20
173.495
 11
-5.94344
 21
173.288
  0
LINE
  8
0
 10
-5.94344
 20
173.288
 11
-6.1389
 21
173.105
  0
LINE
  8
0
 10
-6.1389
 20
173.105
 11
-6.35585
 21
172.947
  0
LINE
  8
0
 10
-6.35585
 20
172.947
 11
-6.59084
 21
172.818
  0
LINE
  8
0
 10
-6.59084
 20
172.818
 11
-6.84015
 21
172.719
  0
LINE
  8
0
 10
-6.84015
 20
172.719
 11
-7.09988
 21
172.653
  0
LINE
  8
0
 10
-7.09988
 20
172.653
 11
-7.36592
 21
172.619
  0
LINE
  8
0
 10
-7.36592
 20
172.619
 11
-7.63406
 21
172.619
  0
ENDSEC
  0
SECTION
  2
OBJECTS
  0
DICTIONARY
  0
ENDSEC
  0
EOF
