<?xml version="1.0" standalone="no"?>
<!DOCTYPE svg PUBLIC "-//W3C//DTD SVG 1.1//EN" "http://www.w3.org/Graphics/SVG/1.1/DTD/svg11.dtd">
<svg width="180mm" height="334mm" viewBox="-90 -623 180 334" xmlns="http://www.w3.org/2000/svg" version="1.1">
<title>OpenSCAD Model</title>
<path d="
M 85.9369,-517.589 L 86.5451,-517.745 L 87.1289,-517.976 L 87.6791,-518.278 L 88.1871,-518.647 L 88.6448,-519.077
 L 89.0451,-519.561 L 89.3815,-520.091 L 89.6489,-520.659 L 89.8429,-521.257 L 89.9606,-521.873 L 90,-522.5
 L 90,-617.5 L 89.9606,-618.127 L 89.8429,-618.743 L 89.6489,-619.341 L 89.3815,-619.909 L 89.0451,-620.439
 L 88.6448,-620.923 L 88.1871,-621.353 L 87.6791,-621.722 L 87.1289,-622.024 L 86.5451,-622.255 L 85.9369,-622.411
 L 85.3139,-622.49 L -85.3139,-622.49 L -85.9369,-622.411 L -86.5451,-622.255 L -87.1289,-622.024 L -87.6791,-621.722
 L -88.1871,-621.353 L -88.6448,-620.923 L -89.0451,-620.439 L -89.3815,-619.909 L -89.6489,-619.341 L -89.8429,-618.743
 L -89.9606,-618.127 L -90,-617.5 L -90,-522.5 L -89.9606,-521.873 L -89.8429,-521.257 L -89.6489,-520.659
 L -89.3815,-520.091 L -89.0451,-519.561 L -88.6448,-519.077 L -88.1871,-518.647 L -87.6791,-518.278 L -87.1289,-517.976
 L -86.5451,-517.745 L -85.9369,-517.589 L -85.3139,-517.51 L 85.3139,-517.51 z
M -85.0482,-518.009 L -85.6401,-518.084 L -86.2178,-518.232 L -86.7724,-518.452 L -87.2952,-518.739 L -87.7778,-519.09
 L -88.2126,-519.498 L -88.5928,-519.958 L -88.9125,-520.462 L -89.1664,-521.001 L -89.3508,-521.569 L -89.4625,-522.155
 L -89.5,-522.75 L -89.5,-617.25 L -89.4625,-617.845 L -89.3508,-618.431 L -89.1664,-618.999 L -88.9125,-619.538
 L -88.5928,-620.042 L -88.2126,-620.502 L -87.7778,-620.91 L -87.2952,-621.261 L -86.7724,-621.548 L -86.2178,-621.768
 L -85.6401,-621.916 L -85.0482,-621.991 L 85.0482,-621.991 L 85.6401,-621.916 L 86.2178,-621.768 L 86.7724,-621.548
 L 87.2952,-621.261 L 87.7778,-620.91 L 88.2126,-620.502 L 88.5928,-620.042 L 88.9125,-619.538 L 89.1664,-618.999
 L 89.3508,-618.431 L 89.4625,-617.845 L 89.5,-617.25 L 89.5,-522.75 L 89.4625,-522.155 L 89.3508,-521.569
 L 89.1664,-521.001 L 88.9125,-520.462 L 88.5928,-519.958 L 88.2126,-519.498 L 87.7778,-519.09 L 87.2952,-518.739
 L 86.7724,-518.452 L 86.2178,-518.232 L 85.6401,-518.084 L 85.0482,-518.009 z
M 85.9369,-403.589 L 86.5451,-403.745 L 87.1289,-403.976 L 87.6791,-404.278 L 88.1871,-404.647 L 88.6448,-405.077
 L 89.0451,-405.561 L 89.3815,-406.091 L 89.6489,-406.659 L 89.8429,-407.257 L 89.9606,-407.873 L 90,-408.5
 L 90,-503.5 L 89.9606,-504.127 L 89.8429,-504.743 L 89.6489,-505.341 L 89.3815,-505.909 L 89.0451,-506.439
 L 88.6448,-506.923 L 88.1871,-507.353 L 87.6791,-507.722 L 87.1289,-508.024 L 86.5451,-508.255 L 85.9369,-508.411
 L 85.3139,-508.49 L -85.3139,-508.49 L -85.9369,-508.411 L -86.5451,-508.255 L -87.1289,-508.024 L -87.6791,-507.722
 L -88.1871,-507.353 L -88.6448,-506.923 L -89.0451,-506.439 L -89.3815,-505.909 L -89.6489,-505.341 L -89.8429,-504.743
 L -89.9606,-504.127 L -90,-503.5 L -90,-408.5 L -89.9606,-407.873 L -89.8429,-407.257 L -89.6489,-406.659
 L -89.3815,-406.091 L -89.0451,-405.561 L -88.6448,-405.077 L -88.1871,-404.647 L -87.6791,-404.278 L -87.1289,-403.976
 L -86.5451,-403.745 L -85.9369,-403.589 L -85.3139,-403.51 L 85.3139,-403.51 z
M -85.0375,-404.181 L -85.6079,-404.253 L -86.1648,-404.396 L -86.6994,-404.607 L -87.2032,-404.884 L -87.6684,-405.222
 L -88.0875,-405.616 L -88.454,-406.059 L -88.7621,-406.544 L -89.0069,-407.065 L -89.1846,-407.611 L -89.2923,-408.176
 L -89.3284,-408.75 L -89.3284,-503.25 L -89.2923,-503.824 L -89.1846,-504.389 L -89.0069,-504.935 L -88.7621,-505.456
 L -88.454,-505.941 L -88.0875,-506.384 L -87.6684,-506.778 L -87.2032,-507.116 L -86.6994,-507.393 L -86.1648,-507.604
 L -85.6079,-507.747 L -85.0375,-507.819 L 85.0375,-507.819 L 85.6079,-507.747 L 86.1648,-507.604 L 86.6994,-507.393
 L 87.2032,-507.116 L 87.6684,-506.778 L 88.0875,-506.384 L 88.454,-505.941 L 88.7621,-505.456 L 89.0069,-504.935
 L 89.1846,-504.389 L 89.2923,-503.824 L 89.3284,-503.25 L 89.3284,-408.75 L 89.2923,-408.176 L 89.1846,-407.611
 L 89.0069,-407.065 L 88.7621,-406.544 L 88.454,-406.059 L 88.0875,-405.616 L 87.6684,-405.222 L 87.2032,-404.884
 L 86.6994,-404.607 L 86.1648,-404.396 L 85.6079,-404.253 L 85.0375,-404.181 z
M 85.9369,-289.589 L 86.5451,-289.745 L 87.1289,-289.976 L 87.6791,-290.278 L 88.1871,-290.647 L 88.6448,-291.077
 L 89.0451,-291.561 L 89.3815,-292.091 L 89.6489,-292.659 L 89.8429,-293.257 L 89.9606,-293.873 L 90,-294.5
 L 90,-389.5 L 89.9606,-390.127 L 89.8429,-390.743 L 89.6489,-391.341 L 89.3815,-391.909 L 89.0451,-392.439
 L 88.6448,-392.923 L 88.1871,-393.353 L 87.6791,-393.722 L 87.1289,-394.024 L 86.5451,-394.255 L 85.9369,-394.411
 L 85.3139,-394.49 L -85.3139,-394.49 L -85.9369,-394.411 L -86.5451,-394.255 L -87.1289,-394.024 L -87.6791,-393.722
 L -88.1871,-393.353 L -88.6448,-392.923 L -89.0451,-392.439 L -89.3815,-391.909 L -89.6489,-391.341 L -89.8429,-390.743
 L -89.9606,-390.127 L -90,-389.5 L -90,-294.5 L -89.9606,-293.873 L -89.8429,-293.257 L -89.6489,-292.659
 L -89.3815,-292.091 L -89.0451,-291.561 L -88.6448,-291.077 L -88.1871,-290.647 L -87.6791,-290.278 L -87.1289,-289.976
 L -86.5451,-289.745 L -85.9369,-289.589 L -85.3139,-289.51 L 85.3139,-289.51 z
M -84.8825,-292.645 L -85.1453,-292.678 L -85.4019,-292.744 L -85.6482,-292.841 L -85.8804,-292.969 L -86.0947,-293.125
 L -86.2879,-293.306 L -86.4567,-293.51 L -86.5987,-293.734 L -86.7115,-293.973 L -86.7934,-294.225 L -86.843,-294.486
 L -86.8596,-294.75 L -86.8596,-389.25 L -86.843,-389.514 L -86.7934,-389.775 L -86.7115,-390.027 L -86.5987,-390.266
 L -86.4567,-390.49 L -86.2879,-390.694 L -86.0947,-390.875 L -85.8804,-391.031 L -85.6482,-391.159 L -85.4019,-391.256
 L -85.1453,-391.322 L -84.8825,-391.355 L 84.8825,-391.355 L 85.1453,-391.322 L 85.4019,-391.256 L 85.6482,-391.159
 L 85.8804,-391.031 L 86.0947,-390.875 L 86.2879,-390.694 L 86.4567,-390.49 L 86.5987,-390.266 L 86.7115,-390.027
 L 86.7934,-389.775 L 86.843,-389.514 L 86.8596,-389.25 L 86.8596,-294.75 L 86.843,-294.486 L 86.7934,-294.225
 L 86.7115,-293.973 L 86.5987,-293.734 L 86.4567,-293.51 L 86.2879,-293.306 L 86.0947,-293.125 L 85.8804,-292.969
 L 85.6482,-292.841 L 85.4019,-292.744 L 85.1453,-292.678 L 84.8825,-292.645 z
" stroke="black" fill="lightgray" stroke-width="0.5"/>
</svg>
