  0
SECTION
  2
BLOCKS
  0
ENDSEC
  0
SECTION
  2
ENTITIES
  0
LINE
  8
0
 10
100.937
 20
702.089
 11
101.545
 21
702.245
  0
LINE
  8
0
 10
101.545
 20
702.245
 11
102.129
 21
702.476
  0
LINE
  8
0
 10
102.129
 20
702.476
 11
102.679
 21
702.778
  0
LINE
  8
0
 10
102.679
 20
702.778
 11
103.187
 21
703.147
  0
LINE
  8
0
 10
103.187
 20
703.147
 11
103.645
 21
703.577
  0
LINE
  8
0
 10
103.645
 20
703.577
 11
104.045
 21
704.061
  0
LINE
  8
0
 10
104.045
 20
704.061
 11
104.382
 21
704.591
  0
LINE
  8
0
 10
104.382
 20
704.591
 11
104.649
 21
705.159
  0
LINE
  8
0
 10
104.649
 20
705.159
 11
104.843
 21
705.757
  0
LINE
  8
0
 10
104.843
 20
705.757
 11
104.961
 21
706.373
  0
LINE
  8
0
 10
104.961
 20
706.373
 11
105
 21
707
  0
LINE
  8
0
 10
105
 20
707
 11
105
 21
967
  0
LINE
  8
0
 10
105
 20
967
 11
104.961
 21
967.627
  0
LINE
  8
0
 10
104.961
 20
967.627
 11
104.843
 21
968.243
  0
LINE
  8
0
 10
104.843
 20
968.243
 11
104.649
 21
968.841
  0
LINE
  8
0
 10
104.649
 20
968.841
 11
104.382
 21
969.409
  0
LINE
  8
0
 10
104.382
 20
969.409
 11
104.045
 21
969.939
  0
LINE
  8
0
 10
104.045
 20
969.939
 11
103.645
 21
970.423
  0
LINE
  8
0
 10
103.645
 20
970.423
 11
103.187
 21
970.853
  0
LINE
  8
0
 10
103.187
 20
970.853
 11
102.679
 21
971.222
  0
LINE
  8
0
 10
102.679
 20
971.222
 11
102.129
 21
971.524
  0
LINE
  8
0
 10
102.129
 20
971.524
 11
101.545
 21
971.755
  0
LINE
  8
0
 10
101.545
 20
971.755
 11
100.937
 21
971.911
  0
LINE
  8
0
 10
100.937
 20
971.911
 11
100.314
 21
971.99
  0
LINE
  8
0
 10
100.314
 20
971.99
 11
-100.314
 21
971.99
  0
LINE
  8
0
 10
-100.314
 20
971.99
 11
-100.937
 21
971.911
  0
LINE
  8
0
 10
-100.937
 20
971.911
 11
-101.545
 21
971.755
  0
LINE
  8
0
 10
-101.545
 20
971.755
 11
-102.129
 21
971.524
  0
LINE
  8
0
 10
-102.129
 20
971.524
 11
-102.679
 21
971.222
  0
LINE
  8
0
 10
-102.679
 20
971.222
 11
-103.187
 21
970.853
  0
LINE
  8
0
 10
-103.187
 20
970.853
 11
-103.645
 21
970.423
  0
LINE
  8
0
 10
-103.645
 20
970.423
 11
-104.045
 21
969.939
  0
LINE
  8
0
 10
-104.045
 20
969.939
 11
-104.382
 21
969.409
  0
LINE
  8
0
 10
-104.382
 20
969.409
 11
-104.649
 21
968.841
  0
LINE
  8
0
 10
-104.649
 20
968.841
 11
-104.843
 21
968.243
  0
LINE
  8
0
 10
-104.843
 20
968.243
 11
-104.961
 21
967.627
  0
LINE
  8
0
 10
-104.961
 20
967.627
 11
-105
 21
967
  0
LINE
  8
0
 10
-105
 20
967
 11
-105
 21
707
  0
LINE
  8
0
 10
-105
 20
707
 11
-104.961
 21
706.373
  0
LINE
  8
0
 10
-104.961
 20
706.373
 11
-104.843
 21
705.757
  0
LINE
  8
0
 10
-104.843
 20
705.757
 11
-104.649
 21
705.159
  0
LINE
  8
0
 10
-104.649
 20
705.159
 11
-104.382
 21
704.591
  0
LINE
  8
0
 10
-104.382
 20
704.591
 11
-104.045
 21
704.061
  0
LINE
  8
0
 10
-104.045
 20
704.061
 11
-103.645
 21
703.577
  0
LINE
  8
0
 10
-103.645
 20
703.577
 11
-103.187
 21
703.147
  0
LINE
  8
0
 10
-103.187
 20
703.147
 11
-102.679
 21
702.778
  0
LINE
  8
0
 10
-102.679
 20
702.778
 11
-102.129
 21
702.476
  0
LINE
  8
0
 10
-102.129
 20
702.476
 11
-101.545
 21
702.245
  0
LINE
  8
0
 10
-101.545
 20
702.245
 11
-100.937
 21
702.089
  0
LINE
  8
0
 10
-100.937
 20
702.089
 11
-100.314
 21
702.01
  0
LINE
  8
0
 10
-100.314
 20
702.01
 11
100.314
 21
702.01
  0
LINE
  8
0
 10
100.314
 20
702.01
 11
100.937
 21
702.089
  0
LINE
  8
0
 10
-99.6955
 20
704.393
 11
-100.083
 21
704.442
  0
LINE
  8
0
 10
-100.083
 20
704.442
 11
-100.462
 21
704.539
  0
LINE
  8
0
 10
-100.462
 20
704.539
 11
-100.825
 21
704.683
  0
LINE
  8
0
 10
-100.825
 20
704.683
 11
-101.168
 21
704.872
  0
LINE
  8
0
 10
-101.168
 20
704.872
 11
-101.484
 21
705.101
  0
LINE
  8
0
 10
-101.484
 20
705.101
 11
-101.769
 21
705.369
  0
LINE
  8
0
 10
-101.769
 20
705.369
 11
-102.018
 21
705.67
  0
LINE
  8
0
 10
-102.018
 20
705.67
 11
-102.228
 21
706
  0
LINE
  8
0
 10
-102.228
 20
706
 11
-102.394
 21
706.354
  0
LINE
  8
0
 10
-102.394
 20
706.354
 11
-102.515
 21
706.726
  0
LINE
  8
0
 10
-102.515
 20
706.726
 11
-102.588
 21
707.11
  0
LINE
  8
0
 10
-102.588
 20
707.11
 11
-102.613
 21
707.5
  0
LINE
  8
0
 10
-102.613
 20
707.5
 11
-102.613
 21
966.5
  0
LINE
  8
0
 10
-102.613
 20
966.5
 11
-102.588
 21
966.89
  0
LINE
  8
0
 10
-102.588
 20
966.89
 11
-102.515
 21
967.274
  0
LINE
  8
0
 10
-102.515
 20
967.274
 11
-102.394
 21
967.646
  0
LINE
  8
0
 10
-102.394
 20
967.646
 11
-102.228
 21
968
  0
LINE
  8
0
 10
-102.228
 20
968
 11
-102.018
 21
968.33
  0
LINE
  8
0
 10
-102.018
 20
968.33
 11
-101.769
 21
968.631
  0
LINE
  8
0
 10
-101.769
 20
968.631
 11
-101.484
 21
968.899
  0
LINE
  8
0
 10
-101.484
 20
968.899
 11
-101.168
 21
969.128
  0
LINE
  8
0
 10
-101.168
 20
969.128
 11
-100.825
 21
969.317
  0
LINE
  8
0
 10
-100.825
 20
969.317
 11
-100.462
 21
969.461
  0
LINE
  8
0
 10
-100.462
 20
969.461
 11
-100.083
 21
969.558
  0
LINE
  8
0
 10
-100.083
 20
969.558
 11
-99.6955
 21
969.607
  0
LINE
  8
0
 10
-99.6955
 20
969.607
 11
99.6955
 21
969.607
  0
LINE
  8
0
 10
99.6955
 20
969.607
 11
100.083
 21
969.558
  0
LINE
  8
0
 10
100.083
 20
969.558
 11
100.462
 21
969.461
  0
LINE
  8
0
 10
100.462
 20
969.461
 11
100.825
 21
969.317
  0
LINE
  8
0
 10
100.825
 20
969.317
 11
101.168
 21
969.128
  0
LINE
  8
0
 10
101.168
 20
969.128
 11
101.484
 21
968.899
  0
LINE
  8
0
 10
101.484
 20
968.899
 11
101.769
 21
968.631
  0
LINE
  8
0
 10
101.769
 20
968.631
 11
102.018
 21
968.33
  0
LINE
  8
0
 10
102.018
 20
968.33
 11
102.228
 21
968
  0
LINE
  8
0
 10
102.228
 20
968
 11
102.394
 21
967.646
  0
LINE
  8
0
 10
102.394
 20
967.646
 11
102.515
 21
967.274
  0
LINE
  8
0
 10
102.515
 20
967.274
 11
102.588
 21
966.89
  0
LINE
  8
0
 10
102.588
 20
966.89
 11
102.613
 21
966.5
  0
LINE
  8
0
 10
102.613
 20
966.5
 11
102.613
 21
707.5
  0
LINE
  8
0
 10
102.613
 20
707.5
 11
102.588
 21
707.11
  0
LINE
  8
0
 10
102.588
 20
707.11
 11
102.515
 21
706.726
  0
LINE
  8
0
 10
102.515
 20
706.726
 11
102.394
 21
706.354
  0
LINE
  8
0
 10
102.394
 20
706.354
 11
102.228
 21
706
  0
LINE
  8
0
 10
102.228
 20
706
 11
102.018
 21
705.67
  0
LINE
  8
0
 10
102.018
 20
705.67
 11
101.769
 21
705.369
  0
LINE
  8
0
 10
101.769
 20
705.369
 11
101.484
 21
705.101
  0
LINE
  8
0
 10
101.484
 20
705.101
 11
101.168
 21
704.872
  0
LINE
  8
0
 10
101.168
 20
704.872
 11
100.825
 21
704.683
  0
LINE
  8
0
 10
100.825
 20
704.683
 11
100.462
 21
704.539
  0
LINE
  8
0
 10
100.462
 20
704.539
 11
100.083
 21
704.442
  0
LINE
  8
0
 10
100.083
 20
704.442
 11
99.6955
 21
704.393
  0
LINE
  8
0
 10
99.6955
 20
704.393
 11
-99.6955
 21
704.393
  0
LINE
  8
0
 10
100.937
 20
423.089
 11
101.545
 21
423.245
  0
LINE
  8
0
 10
101.545
 20
423.245
 11
102.129
 21
423.476
  0
LINE
  8
0
 10
102.129
 20
423.476
 11
102.679
 21
423.778
  0
LINE
  8
0
 10
102.679
 20
423.778
 11
103.187
 21
424.147
  0
LINE
  8
0
 10
103.187
 20
424.147
 11
103.645
 21
424.577
  0
LINE
  8
0
 10
103.645
 20
424.577
 11
104.045
 21
425.061
  0
LINE
  8
0
 10
104.045
 20
425.061
 11
104.382
 21
425.591
  0
LINE
  8
0
 10
104.382
 20
425.591
 11
104.649
 21
426.159
  0
LINE
  8
0
 10
104.649
 20
426.159
 11
104.843
 21
426.757
  0
LINE
  8
0
 10
104.843
 20
426.757
 11
104.961
 21
427.373
  0
LINE
  8
0
 10
104.961
 20
427.373
 11
105
 21
428
  0
LINE
  8
0
 10
105
 20
428
 11
105
 21
688
  0
LINE
  8
0
 10
105
 20
688
 11
104.961
 21
688.627
  0
LINE
  8
0
 10
104.961
 20
688.627
 11
104.843
 21
689.243
  0
LINE
  8
0
 10
104.843
 20
689.243
 11
104.649
 21
689.841
  0
LINE
  8
0
 10
104.649
 20
689.841
 11
104.382
 21
690.409
  0
LINE
  8
0
 10
104.382
 20
690.409
 11
104.045
 21
690.939
  0
LINE
  8
0
 10
104.045
 20
690.939
 11
103.645
 21
691.423
  0
LINE
  8
0
 10
103.645
 20
691.423
 11
103.187
 21
691.853
  0
LINE
  8
0
 10
103.187
 20
691.853
 11
102.679
 21
692.222
  0
LINE
  8
0
 10
102.679
 20
692.222
 11
102.129
 21
692.524
  0
LINE
  8
0
 10
102.129
 20
692.524
 11
101.545
 21
692.755
  0
LINE
  8
0
 10
101.545
 20
692.755
 11
100.937
 21
692.911
  0
LINE
  8
0
 10
100.937
 20
692.911
 11
100.314
 21
692.99
  0
LINE
  8
0
 10
100.314
 20
692.99
 11
-100.314
 21
692.99
  0
LINE
  8
0
 10
-100.314
 20
692.99
 11
-100.937
 21
692.911
  0
LINE
  8
0
 10
-100.937
 20
692.911
 11
-101.545
 21
692.755
  0
LINE
  8
0
 10
-101.545
 20
692.755
 11
-102.129
 21
692.524
  0
LINE
  8
0
 10
-102.129
 20
692.524
 11
-102.679
 21
692.222
  0
LINE
  8
0
 10
-102.679
 20
692.222
 11
-103.187
 21
691.853
  0
LINE
  8
0
 10
-103.187
 20
691.853
 11
-103.645
 21
691.423
  0
LINE
  8
0
 10
-103.645
 20
691.423
 11
-104.045
 21
690.939
  0
LINE
  8
0
 10
-104.045
 20
690.939
 11
-104.382
 21
690.409
  0
LINE
  8
0
 10
-104.382
 20
690.409
 11
-104.649
 21
689.841
  0
LINE
  8
0
 10
-104.649
 20
689.841
 11
-104.843
 21
689.243
  0
LINE
  8
0
 10
-104.843
 20
689.243
 11
-104.961
 21
688.627
  0
LINE
  8
0
 10
-104.961
 20
688.627
 11
-105
 21
688
  0
LINE
  8
0
 10
-105
 20
688
 11
-105
 21
428
  0
LINE
  8
0
 10
-105
 20
428
 11
-104.961
 21
427.373
  0
LINE
  8
0
 10
-104.961
 20
427.373
 11
-104.843
 21
426.757
  0
LINE
  8
0
 10
-104.843
 20
426.757
 11
-104.649
 21
426.159
  0
LINE
  8
0
 10
-104.649
 20
426.159
 11
-104.382
 21
425.591
  0
LINE
  8
0
 10
-104.382
 20
425.591
 11
-104.045
 21
425.061
  0
LINE
  8
0
 10
-104.045
 20
425.061
 11
-103.645
 21
424.577
  0
LINE
  8
0
 10
-103.645
 20
424.577
 11
-103.187
 21
424.147
  0
LINE
  8
0
 10
-103.187
 20
424.147
 11
-102.679
 21
423.778
  0
LINE
  8
0
 10
-102.679
 20
423.778
 11
-102.129
 21
423.476
  0
LINE
  8
0
 10
-102.129
 20
423.476
 11
-101.545
 21
423.245
  0
LINE
  8
0
 10
-101.545
 20
423.245
 11
-100.937
 21
423.089
  0
LINE
  8
0
 10
-100.937
 20
423.089
 11
-100.314
 21
423.01
  0
LINE
  8
0
 10
-100.314
 20
423.01
 11
100.314
 21
423.01
  0
LINE
  8
0
 10
100.314
 20
423.01
 11
100.937
 21
423.089
  0
LINE
  8
0
 10
97.3659
 20
683.369
 11
97.0999
 21
683.403
  0
LINE
  8
0
 10
97.0999
 20
683.403
 11
96.8401
 21
683.469
  0
LINE
  8
0
 10
96.8401
 20
683.469
 11
96.5908
 21
683.568
  0
LINE
  8
0
 10
96.5908
 20
683.568
 11
96.3559
 21
683.697
  0
LINE
  8
0
 10
96.3559
 20
683.697
 11
96.1389
 21
683.855
  0
LINE
  8
0
 10
96.1389
 20
683.855
 11
95.9434
 21
684.038
  0
LINE
  8
0
 10
95.9434
 20
684.038
 11
95.7725
 21
684.245
  0
LINE
  8
0
 10
95.7725
 20
684.245
 11
95.6288
 21
684.471
  0
LINE
  8
0
 10
95.6288
 20
684.471
 11
95.5146
 21
684.714
  0
LINE
  8
0
 10
95.5146
 20
684.714
 11
95.4318
 21
684.969
  0
LINE
  8
0
 10
95.4318
 20
684.969
 11
95.3815
 21
685.232
  0
LINE
  8
0
 10
95.3815
 20
685.232
 11
95.3647
 21
685.5
  0
LINE
  8
0
 10
95.3647
 20
685.5
 11
95.3815
 21
685.768
  0
LINE
  8
0
 10
95.3815
 20
685.768
 11
95.4318
 21
686.031
  0
LINE
  8
0
 10
95.4318
 20
686.031
 11
95.5146
 21
686.286
  0
LINE
  8
0
 10
95.5146
 20
686.286
 11
95.6288
 21
686.529
  0
LINE
  8
0
 10
95.6288
 20
686.529
 11
95.7725
 21
686.755
  0
LINE
  8
0
 10
95.7725
 20
686.755
 11
95.9434
 21
686.962
  0
LINE
  8
0
 10
95.9434
 20
686.962
 11
96.1389
 21
687.145
  0
LINE
  8
0
 10
96.1389
 20
687.145
 11
96.3559
 21
687.303
  0
LINE
  8
0
 10
96.3559
 20
687.303
 11
96.5908
 21
687.432
  0
LINE
  8
0
 10
96.5908
 20
687.432
 11
96.8401
 21
687.531
  0
LINE
  8
0
 10
96.8401
 20
687.531
 11
97.0999
 21
687.597
  0
LINE
  8
0
 10
97.0999
 20
687.597
 11
97.3659
 21
687.631
  0
LINE
  8
0
 10
97.3659
 20
687.631
 11
97.6341
 21
687.631
  0
LINE
  8
0
 10
97.6341
 20
687.631
 11
97.9001
 21
687.597
  0
LINE
  8
0
 10
97.9001
 20
687.597
 11
98.1598
 21
687.531
  0
LINE
  8
0
 10
98.1598
 20
687.531
 11
98.4092
 21
687.432
  0
LINE
  8
0
 10
98.4092
 20
687.432
 11
98.6441
 21
687.303
  0
LINE
  8
0
 10
98.6441
 20
687.303
 11
98.8611
 21
687.145
  0
LINE
  8
0
 10
98.8611
 20
687.145
 11
99.0566
 21
686.962
  0
LINE
  8
0
 10
99.0566
 20
686.962
 11
99.2275
 21
686.755
  0
LINE
  8
0
 10
99.2275
 20
686.755
 11
99.3712
 21
686.529
  0
LINE
  8
0
 10
99.3712
 20
686.529
 11
99.4853
 21
686.286
  0
LINE
  8
0
 10
99.4853
 20
686.286
 11
99.5682
 21
686.031
  0
LINE
  8
0
 10
99.5682
 20
686.031
 11
99.6185
 21
685.768
  0
LINE
  8
0
 10
99.6185
 20
685.768
 11
99.6353
 21
685.5
  0
LINE
  8
0
 10
99.6353
 20
685.5
 11
99.6185
 21
685.232
  0
LINE
  8
0
 10
99.6185
 20
685.232
 11
99.5682
 21
684.969
  0
LINE
  8
0
 10
99.5682
 20
684.969
 11
99.4853
 21
684.714
  0
LINE
  8
0
 10
99.4853
 20
684.714
 11
99.3712
 21
684.471
  0
LINE
  8
0
 10
99.3712
 20
684.471
 11
99.2275
 21
684.245
  0
LINE
  8
0
 10
99.2275
 20
684.245
 11
99.0566
 21
684.038
  0
LINE
  8
0
 10
99.0566
 20
684.038
 11
98.8611
 21
683.855
  0
LINE
  8
0
 10
98.8611
 20
683.855
 11
98.6441
 21
683.697
  0
LINE
  8
0
 10
98.6441
 20
683.697
 11
98.4092
 21
683.568
  0
LINE
  8
0
 10
98.4092
 20
683.568
 11
98.1598
 21
683.469
  0
LINE
  8
0
 10
98.1598
 20
683.469
 11
97.9001
 21
683.403
  0
LINE
  8
0
 10
97.9001
 20
683.403
 11
97.6341
 21
683.369
  0
LINE
  8
0
 10
97.6341
 20
683.369
 11
97.3659
 21
683.369
  0
LINE
  8
0
 10
-97.6341
 20
683.369
 11
-97.9001
 21
683.403
  0
LINE
  8
0
 10
-97.9001
 20
683.403
 11
-98.1598
 21
683.469
  0
LINE
  8
0
 10
-98.1598
 20
683.469
 11
-98.4092
 21
683.568
  0
LINE
  8
0
 10
-98.4092
 20
683.568
 11
-98.6441
 21
683.697
  0
LINE
  8
0
 10
-98.6441
 20
683.697
 11
-98.8611
 21
683.855
  0
LINE
  8
0
 10
-98.8611
 20
683.855
 11
-99.0566
 21
684.038
  0
LINE
  8
0
 10
-99.0566
 20
684.038
 11
-99.2275
 21
684.245
  0
LINE
  8
0
 10
-99.2275
 20
684.245
 11
-99.3712
 21
684.471
  0
LINE
  8
0
 10
-99.3712
 20
684.471
 11
-99.4853
 21
684.714
  0
LINE
  8
0
 10
-99.4853
 20
684.714
 11
-99.5682
 21
684.969
  0
LINE
  8
0
 10
-99.5682
 20
684.969
 11
-99.6185
 21
685.232
  0
LINE
  8
0
 10
-99.6185
 20
685.232
 11
-99.6353
 21
685.5
  0
LINE
  8
0
 10
-99.6353
 20
685.5
 11
-99.6185
 21
685.768
  0
LINE
  8
0
 10
-99.6185
 20
685.768
 11
-99.5682
 21
686.031
  0
LINE
  8
0
 10
-99.5682
 20
686.031
 11
-99.4853
 21
686.286
  0
LINE
  8
0
 10
-99.4853
 20
686.286
 11
-99.3712
 21
686.529
  0
LINE
  8
0
 10
-99.3712
 20
686.529
 11
-99.2275
 21
686.755
  0
LINE
  8
0
 10
-99.2275
 20
686.755
 11
-99.0566
 21
686.962
  0
LINE
  8
0
 10
-99.0566
 20
686.962
 11
-98.8611
 21
687.145
  0
LINE
  8
0
 10
-98.8611
 20
687.145
 11
-98.6441
 21
687.303
  0
LINE
  8
0
 10
-98.6441
 20
687.303
 11
-98.4092
 21
687.432
  0
LINE
  8
0
 10
-98.4092
 20
687.432
 11
-98.1598
 21
687.531
  0
LINE
  8
0
 10
-98.1598
 20
687.531
 11
-97.9001
 21
687.597
  0
LINE
  8
0
 10
-97.9001
 20
687.597
 11
-97.6341
 21
687.631
  0
LINE
  8
0
 10
-97.6341
 20
687.631
 11
-97.3659
 21
687.631
  0
LINE
  8
0
 10
-97.3659
 20
687.631
 11
-97.0999
 21
687.597
  0
LINE
  8
0
 10
-97.0999
 20
687.597
 11
-96.8401
 21
687.531
  0
LINE
  8
0
 10
-96.8401
 20
687.531
 11
-96.5908
 21
687.432
  0
LINE
  8
0
 10
-96.5908
 20
687.432
 11
-96.3559
 21
687.303
  0
LINE
  8
0
 10
-96.3559
 20
687.303
 11
-96.1389
 21
687.145
  0
LINE
  8
0
 10
-96.1389
 20
687.145
 11
-95.9434
 21
686.962
  0
LINE
  8
0
 10
-95.9434
 20
686.962
 11
-95.7725
 21
686.755
  0
LINE
  8
0
 10
-95.7725
 20
686.755
 11
-95.6288
 21
686.529
  0
LINE
  8
0
 10
-95.6288
 20
686.529
 11
-95.5146
 21
686.286
  0
LINE
  8
0
 10
-95.5146
 20
686.286
 11
-95.4318
 21
686.031
  0
LINE
  8
0
 10
-95.4318
 20
686.031
 11
-95.3815
 21
685.768
  0
LINE
  8
0
 10
-95.3815
 20
685.768
 11
-95.3647
 21
685.5
  0
LINE
  8
0
 10
-95.3647
 20
685.5
 11
-95.3815
 21
685.232
  0
LINE
  8
0
 10
-95.3815
 20
685.232
 11
-95.4318
 21
684.969
  0
LINE
  8
0
 10
-95.4318
 20
684.969
 11
-95.5146
 21
684.714
  0
LINE
  8
0
 10
-95.5146
 20
684.714
 11
-95.6288
 21
684.471
  0
LINE
  8
0
 10
-95.6288
 20
684.471
 11
-95.7725
 21
684.245
  0
LINE
  8
0
 10
-95.7725
 20
684.245
 11
-95.9434
 21
684.038
  0
LINE
  8
0
 10
-95.9434
 20
684.038
 11
-96.1389
 21
683.855
  0
LINE
  8
0
 10
-96.1389
 20
683.855
 11
-96.3559
 21
683.697
  0
LINE
  8
0
 10
-96.3559
 20
683.697
 11
-96.5908
 21
683.568
  0
LINE
  8
0
 10
-96.5908
 20
683.568
 11
-96.8401
 21
683.469
  0
LINE
  8
0
 10
-96.8401
 20
683.469
 11
-97.0999
 21
683.403
  0
LINE
  8
0
 10
-97.0999
 20
683.403
 11
-97.3659
 21
683.369
  0
LINE
  8
0
 10
-97.3659
 20
683.369
 11
-97.6341
 21
683.369
  0
LINE
  8
0
 10
97.3659
 20
428.369
 11
97.0999
 21
428.403
  0
LINE
  8
0
 10
97.0999
 20
428.403
 11
96.8401
 21
428.469
  0
LINE
  8
0
 10
96.8401
 20
428.469
 11
96.5908
 21
428.568
  0
LINE
  8
0
 10
96.5908
 20
428.568
 11
96.3559
 21
428.697
  0
LINE
  8
0
 10
96.3559
 20
428.697
 11
96.1389
 21
428.855
  0
LINE
  8
0
 10
96.1389
 20
428.855
 11
95.9434
 21
429.038
  0
LINE
  8
0
 10
95.9434
 20
429.038
 11
95.7725
 21
429.245
  0
LINE
  8
0
 10
95.7725
 20
429.245
 11
95.6288
 21
429.471
  0
LINE
  8
0
 10
95.6288
 20
429.471
 11
95.5146
 21
429.714
  0
LINE
  8
0
 10
95.5146
 20
429.714
 11
95.4318
 21
429.969
  0
LINE
  8
0
 10
95.4318
 20
429.969
 11
95.3815
 21
430.232
  0
LINE
  8
0
 10
95.3815
 20
430.232
 11
95.3647
 21
430.5
  0
LINE
  8
0
 10
95.3647
 20
430.5
 11
95.3815
 21
430.768
  0
LINE
  8
0
 10
95.3815
 20
430.768
 11
95.4318
 21
431.031
  0
LINE
  8
0
 10
95.4318
 20
431.031
 11
95.5146
 21
431.286
  0
LINE
  8
0
 10
95.5146
 20
431.286
 11
95.6288
 21
431.529
  0
LINE
  8
0
 10
95.6288
 20
431.529
 11
95.7725
 21
431.755
  0
LINE
  8
0
 10
95.7725
 20
431.755
 11
95.9434
 21
431.962
  0
LINE
  8
0
 10
95.9434
 20
431.962
 11
96.1389
 21
432.145
  0
LINE
  8
0
 10
96.1389
 20
432.145
 11
96.3559
 21
432.303
  0
LINE
  8
0
 10
96.3559
 20
432.303
 11
96.5908
 21
432.432
  0
LINE
  8
0
 10
96.5908
 20
432.432
 11
96.8401
 21
432.531
  0
LINE
  8
0
 10
96.8401
 20
432.531
 11
97.0999
 21
432.597
  0
LINE
  8
0
 10
97.0999
 20
432.597
 11
97.3659
 21
432.631
  0
LINE
  8
0
 10
97.3659
 20
432.631
 11
97.6341
 21
432.631
  0
LINE
  8
0
 10
97.6341
 20
432.631
 11
97.9001
 21
432.597
  0
LINE
  8
0
 10
97.9001
 20
432.597
 11
98.1598
 21
432.531
  0
LINE
  8
0
 10
98.1598
 20
432.531
 11
98.4092
 21
432.432
  0
LINE
  8
0
 10
98.4092
 20
432.432
 11
98.6441
 21
432.303
  0
LINE
  8
0
 10
98.6441
 20
432.303
 11
98.8611
 21
432.145
  0
LINE
  8
0
 10
98.8611
 20
432.145
 11
99.0566
 21
431.962
  0
LINE
  8
0
 10
99.0566
 20
431.962
 11
99.2275
 21
431.755
  0
LINE
  8
0
 10
99.2275
 20
431.755
 11
99.3712
 21
431.529
  0
LINE
  8
0
 10
99.3712
 20
431.529
 11
99.4853
 21
431.286
  0
LINE
  8
0
 10
99.4853
 20
431.286
 11
99.5682
 21
431.031
  0
LINE
  8
0
 10
99.5682
 20
431.031
 11
99.6185
 21
430.768
  0
LINE
  8
0
 10
99.6185
 20
430.768
 11
99.6353
 21
430.5
  0
LINE
  8
0
 10
99.6353
 20
430.5
 11
99.6185
 21
430.232
  0
LINE
  8
0
 10
99.6185
 20
430.232
 11
99.5682
 21
429.969
  0
LINE
  8
0
 10
99.5682
 20
429.969
 11
99.4853
 21
429.714
  0
LINE
  8
0
 10
99.4853
 20
429.714
 11
99.3712
 21
429.471
  0
LINE
  8
0
 10
99.3712
 20
429.471
 11
99.2275
 21
429.245
  0
LINE
  8
0
 10
99.2275
 20
429.245
 11
99.0566
 21
429.038
  0
LINE
  8
0
 10
99.0566
 20
429.038
 11
98.8611
 21
428.855
  0
LINE
  8
0
 10
98.8611
 20
428.855
 11
98.6441
 21
428.697
  0
LINE
  8
0
 10
98.6441
 20
428.697
 11
98.4092
 21
428.568
  0
LINE
  8
0
 10
98.4092
 20
428.568
 11
98.1598
 21
428.469
  0
LINE
  8
0
 10
98.1598
 20
428.469
 11
97.9001
 21
428.403
  0
LINE
  8
0
 10
97.9001
 20
428.403
 11
97.6341
 21
428.369
  0
LINE
  8
0
 10
97.6341
 20
428.369
 11
97.3659
 21
428.369
  0
LINE
  8
0
 10
-97.6341
 20
428.369
 11
-97.9001
 21
428.403
  0
LINE
  8
0
 10
-97.9001
 20
428.403
 11
-98.1598
 21
428.469
  0
LINE
  8
0
 10
-98.1598
 20
428.469
 11
-98.4092
 21
428.568
  0
LINE
  8
0
 10
-98.4092
 20
428.568
 11
-98.6441
 21
428.697
  0
LINE
  8
0
 10
-98.6441
 20
428.697
 11
-98.8611
 21
428.855
  0
LINE
  8
0
 10
-98.8611
 20
428.855
 11
-99.0566
 21
429.038
  0
LINE
  8
0
 10
-99.0566
 20
429.038
 11
-99.2275
 21
429.245
  0
LINE
  8
0
 10
-99.2275
 20
429.245
 11
-99.3712
 21
429.471
  0
LINE
  8
0
 10
-99.3712
 20
429.471
 11
-99.4853
 21
429.714
  0
LINE
  8
0
 10
-99.4853
 20
429.714
 11
-99.5682
 21
429.969
  0
LINE
  8
0
 10
-99.5682
 20
429.969
 11
-99.6185
 21
430.232
  0
LINE
  8
0
 10
-99.6185
 20
430.232
 11
-99.6353
 21
430.5
  0
LINE
  8
0
 10
-99.6353
 20
430.5
 11
-99.6185
 21
430.768
  0
LINE
  8
0
 10
-99.6185
 20
430.768
 11
-99.5682
 21
431.031
  0
LINE
  8
0
 10
-99.5682
 20
431.031
 11
-99.4853
 21
431.286
  0
LINE
  8
0
 10
-99.4853
 20
431.286
 11
-99.3712
 21
431.529
  0
LINE
  8
0
 10
-99.3712
 20
431.529
 11
-99.2275
 21
431.755
  0
LINE
  8
0
 10
-99.2275
 20
431.755
 11
-99.0566
 21
431.962
  0
LINE
  8
0
 10
-99.0566
 20
431.962
 11
-98.8611
 21
432.145
  0
LINE
  8
0
 10
-98.8611
 20
432.145
 11
-98.6441
 21
432.303
  0
LINE
  8
0
 10
-98.6441
 20
432.303
 11
-98.4092
 21
432.432
  0
LINE
  8
0
 10
-98.4092
 20
432.432
 11
-98.1598
 21
432.531
  0
LINE
  8
0
 10
-98.1598
 20
432.531
 11
-97.9001
 21
432.597
  0
LINE
  8
0
 10
-97.9001
 20
432.597
 11
-97.6341
 21
432.631
  0
LINE
  8
0
 10
-97.6341
 20
432.631
 11
-97.3659
 21
432.631
  0
LINE
  8
0
 10
-97.3659
 20
432.631
 11
-97.0999
 21
432.597
  0
LINE
  8
0
 10
-97.0999
 20
432.597
 11
-96.8401
 21
432.531
  0
LINE
  8
0
 10
-96.8401
 20
432.531
 11
-96.5908
 21
432.432
  0
LINE
  8
0
 10
-96.5908
 20
432.432
 11
-96.3559
 21
432.303
  0
LINE
  8
0
 10
-96.3559
 20
432.303
 11
-96.1389
 21
432.145
  0
LINE
  8
0
 10
-96.1389
 20
432.145
 11
-95.9434
 21
431.962
  0
LINE
  8
0
 10
-95.9434
 20
431.962
 11
-95.7725
 21
431.755
  0
LINE
  8
0
 10
-95.7725
 20
431.755
 11
-95.6288
 21
431.529
  0
LINE
  8
0
 10
-95.6288
 20
431.529
 11
-95.5146
 21
431.286
  0
LINE
  8
0
 10
-95.5146
 20
431.286
 11
-95.4318
 21
431.031
  0
LINE
  8
0
 10
-95.4318
 20
431.031
 11
-95.3815
 21
430.768
  0
LINE
  8
0
 10
-95.3815
 20
430.768
 11
-95.3647
 21
430.5
  0
LINE
  8
0
 10
-95.3647
 20
430.5
 11
-95.3815
 21
430.232
  0
LINE
  8
0
 10
-95.3815
 20
430.232
 11
-95.4318
 21
429.969
  0
LINE
  8
0
 10
-95.4318
 20
429.969
 11
-95.5146
 21
429.714
  0
LINE
  8
0
 10
-95.5146
 20
429.714
 11
-95.6288
 21
429.471
  0
LINE
  8
0
 10
-95.6288
 20
429.471
 11
-95.7725
 21
429.245
  0
LINE
  8
0
 10
-95.7725
 20
429.245
 11
-95.9434
 21
429.038
  0
LINE
  8
0
 10
-95.9434
 20
429.038
 11
-96.1389
 21
428.855
  0
LINE
  8
0
 10
-96.1389
 20
428.855
 11
-96.3559
 21
428.697
  0
LINE
  8
0
 10
-96.3559
 20
428.697
 11
-96.5908
 21
428.568
  0
LINE
  8
0
 10
-96.5908
 20
428.568
 11
-96.8401
 21
428.469
  0
LINE
  8
0
 10
-96.8401
 20
428.469
 11
-97.0999
 21
428.403
  0
LINE
  8
0
 10
-97.0999
 20
428.403
 11
-97.3659
 21
428.369
  0
LINE
  8
0
 10
-97.3659
 20
428.369
 11
-97.6341
 21
428.369
  0
ENDSEC
  0
SECTION
  2
OBJECTS
  0
DICTIONARY
  0
ENDSEC
  0
EOF
