  0
SECTION
  2
BLOCKS
  0
ENDSEC
  0
SECTION
  2
ENTITIES
  0
LINE
  8
0
 10
10.9369
 20
1033.59
 11
11.5451
 21
1033.74
  0
LINE
  8
0
 10
11.5451
 20
1033.74
 11
12.1289
 21
1033.98
  0
LINE
  8
0
 10
12.1289
 20
1033.98
 11
12.6791
 21
1034.28
  0
LINE
  8
0
 10
12.6791
 20
1034.28
 11
13.1871
 21
1034.65
  0
LINE
  8
0
 10
13.1871
 20
1034.65
 11
13.6448
 21
1035.08
  0
LINE
  8
0
 10
13.6448
 20
1035.08
 11
14.0451
 21
1035.56
  0
LINE
  8
0
 10
14.0451
 20
1035.56
 11
14.3815
 21
1036.09
  0
LINE
  8
0
 10
14.3815
 20
1036.09
 11
14.6489
 21
1036.66
  0
LINE
  8
0
 10
14.6489
 20
1036.66
 11
14.8429
 21
1037.26
  0
LINE
  8
0
 10
14.8429
 20
1037.26
 11
14.9606
 21
1037.87
  0
LINE
  8
0
 10
14.9606
 20
1037.87
 11
15
 21
1038.5
  0
LINE
  8
0
 10
15
 20
1038.5
 11
15
 21
1313.5
  0
LINE
  8
0
 10
15
 20
1313.5
 11
14.9606
 21
1314.13
  0
LINE
  8
0
 10
14.9606
 20
1314.13
 11
14.8429
 21
1314.74
  0
LINE
  8
0
 10
14.8429
 20
1314.74
 11
14.6489
 21
1315.34
  0
LINE
  8
0
 10
14.6489
 20
1315.34
 11
14.3815
 21
1315.91
  0
LINE
  8
0
 10
14.3815
 20
1315.91
 11
14.0451
 21
1316.44
  0
LINE
  8
0
 10
14.0451
 20
1316.44
 11
13.6448
 21
1316.92
  0
LINE
  8
0
 10
13.6448
 20
1316.92
 11
13.1871
 21
1317.35
  0
LINE
  8
0
 10
13.1871
 20
1317.35
 11
12.6791
 21
1317.72
  0
LINE
  8
0
 10
12.6791
 20
1317.72
 11
12.1289
 21
1318.02
  0
LINE
  8
0
 10
12.1289
 20
1318.02
 11
11.5451
 21
1318.26
  0
LINE
  8
0
 10
11.5451
 20
1318.26
 11
10.9369
 21
1318.41
  0
LINE
  8
0
 10
10.9369
 20
1318.41
 11
10.3139
 21
1318.49
  0
LINE
  8
0
 10
10.3139
 20
1318.49
 11
-10.3139
 21
1318.49
  0
LINE
  8
0
 10
-10.3139
 20
1318.49
 11
-10.9369
 21
1318.41
  0
LINE
  8
0
 10
-10.9369
 20
1318.41
 11
-11.5451
 21
1318.26
  0
LINE
  8
0
 10
-11.5451
 20
1318.26
 11
-12.1289
 21
1318.02
  0
LINE
  8
0
 10
-12.1289
 20
1318.02
 11
-12.6791
 21
1317.72
  0
LINE
  8
0
 10
-12.6791
 20
1317.72
 11
-13.1871
 21
1317.35
  0
LINE
  8
0
 10
-13.1871
 20
1317.35
 11
-13.6448
 21
1316.92
  0
LINE
  8
0
 10
-13.6448
 20
1316.92
 11
-14.0451
 21
1316.44
  0
LINE
  8
0
 10
-14.0451
 20
1316.44
 11
-14.3815
 21
1315.91
  0
LINE
  8
0
 10
-14.3815
 20
1315.91
 11
-14.6489
 21
1315.34
  0
LINE
  8
0
 10
-14.6489
 20
1315.34
 11
-14.8429
 21
1314.74
  0
LINE
  8
0
 10
-14.8429
 20
1314.74
 11
-14.9606
 21
1314.13
  0
LINE
  8
0
 10
-14.9606
 20
1314.13
 11
-15
 21
1313.5
  0
LINE
  8
0
 10
-15
 20
1313.5
 11
-15
 21
1038.5
  0
LINE
  8
0
 10
-15
 20
1038.5
 11
-14.9606
 21
1037.87
  0
LINE
  8
0
 10
-14.9606
 20
1037.87
 11
-14.8429
 21
1037.26
  0
LINE
  8
0
 10
-14.8429
 20
1037.26
 11
-14.6489
 21
1036.66
  0
LINE
  8
0
 10
-14.6489
 20
1036.66
 11
-14.3815
 21
1036.09
  0
LINE
  8
0
 10
-14.3815
 20
1036.09
 11
-14.0451
 21
1035.56
  0
LINE
  8
0
 10
-14.0451
 20
1035.56
 11
-13.6448
 21
1035.08
  0
LINE
  8
0
 10
-13.6448
 20
1035.08
 11
-13.1871
 21
1034.65
  0
LINE
  8
0
 10
-13.1871
 20
1034.65
 11
-12.6791
 21
1034.28
  0
LINE
  8
0
 10
-12.6791
 20
1034.28
 11
-12.1289
 21
1033.98
  0
LINE
  8
0
 10
-12.1289
 20
1033.98
 11
-11.5451
 21
1033.74
  0
LINE
  8
0
 10
-11.5451
 20
1033.74
 11
-10.9369
 21
1033.59
  0
LINE
  8
0
 10
-10.9369
 20
1033.59
 11
-10.3139
 21
1033.51
  0
LINE
  8
0
 10
-10.3139
 20
1033.51
 11
10.3139
 21
1033.51
  0
LINE
  8
0
 10
10.3139
 20
1033.51
 11
10.9369
 21
1033.59
  0
LINE
  8
0
 10
-9.74316
 20
1035.14
 11
-10.2256
 21
1035.2
  0
LINE
  8
0
 10
-10.2256
 20
1035.2
 11
-10.6967
 21
1035.32
  0
LINE
  8
0
 10
-10.6967
 20
1035.32
 11
-11.1489
 21
1035.5
  0
LINE
  8
0
 10
-11.1489
 20
1035.5
 11
-11.5751
 21
1035.73
  0
LINE
  8
0
 10
-11.5751
 20
1035.73
 11
-11.9685
 21
1036.02
  0
LINE
  8
0
 10
-11.9685
 20
1036.02
 11
-12.323
 21
1036.35
  0
LINE
  8
0
 10
-12.323
 20
1036.35
 11
-12.633
 21
1036.72
  0
LINE
  8
0
 10
-12.633
 20
1036.72
 11
-12.8936
 21
1037.13
  0
LINE
  8
0
 10
-12.8936
 20
1037.13
 11
-13.1007
 21
1037.57
  0
LINE
  8
0
 10
-13.1007
 20
1037.57
 11
-13.251
 21
1038.04
  0
LINE
  8
0
 10
-13.251
 20
1038.04
 11
-13.3421
 21
1038.51
  0
LINE
  8
0
 10
-13.3421
 20
1038.51
 11
-13.3726
 21
1039
  0
LINE
  8
0
 10
-13.3726
 20
1039
 11
-13.3726
 21
1313
  0
LINE
  8
0
 10
-13.3726
 20
1313
 11
-13.3421
 21
1313.49
  0
LINE
  8
0
 10
-13.3421
 20
1313.49
 11
-13.251
 21
1313.96
  0
LINE
  8
0
 10
-13.251
 20
1313.96
 11
-13.1007
 21
1314.43
  0
LINE
  8
0
 10
-13.1007
 20
1314.43
 11
-12.8936
 21
1314.87
  0
LINE
  8
0
 10
-12.8936
 20
1314.87
 11
-12.633
 21
1315.28
  0
LINE
  8
0
 10
-12.633
 20
1315.28
 11
-12.323
 21
1315.65
  0
LINE
  8
0
 10
-12.323
 20
1315.65
 11
-11.9685
 21
1315.98
  0
LINE
  8
0
 10
-11.9685
 20
1315.98
 11
-11.5751
 21
1316.27
  0
LINE
  8
0
 10
-11.5751
 20
1316.27
 11
-11.1489
 21
1316.5
  0
LINE
  8
0
 10
-11.1489
 20
1316.5
 11
-10.6967
 21
1316.68
  0
LINE
  8
0
 10
-10.6967
 20
1316.68
 11
-10.2256
 21
1316.8
  0
LINE
  8
0
 10
-10.2256
 20
1316.8
 11
-9.74316
 21
1316.86
  0
LINE
  8
0
 10
-9.74316
 20
1316.86
 11
9.74316
 21
1316.86
  0
LINE
  8
0
 10
9.74316
 20
1316.86
 11
10.2256
 21
1316.8
  0
LINE
  8
0
 10
10.2256
 20
1316.8
 11
10.6967
 21
1316.68
  0
LINE
  8
0
 10
10.6967
 20
1316.68
 11
11.1489
 21
1316.5
  0
LINE
  8
0
 10
11.1489
 20
1316.5
 11
11.5751
 21
1316.27
  0
LINE
  8
0
 10
11.5751
 20
1316.27
 11
11.9685
 21
1315.98
  0
LINE
  8
0
 10
11.9685
 20
1315.98
 11
12.323
 21
1315.65
  0
LINE
  8
0
 10
12.323
 20
1315.65
 11
12.633
 21
1315.28
  0
LINE
  8
0
 10
12.633
 20
1315.28
 11
12.8936
 21
1314.87
  0
LINE
  8
0
 10
12.8936
 20
1314.87
 11
13.1007
 21
1314.43
  0
LINE
  8
0
 10
13.1007
 20
1314.43
 11
13.251
 21
1313.96
  0
LINE
  8
0
 10
13.251
 20
1313.96
 11
13.3421
 21
1313.49
  0
LINE
  8
0
 10
13.3421
 20
1313.49
 11
13.3726
 21
1313
  0
LINE
  8
0
 10
13.3726
 20
1313
 11
13.3726
 21
1039
  0
LINE
  8
0
 10
13.3726
 20
1039
 11
13.3421
 21
1038.51
  0
LINE
  8
0
 10
13.3421
 20
1038.51
 11
13.251
 21
1038.04
  0
LINE
  8
0
 10
13.251
 20
1038.04
 11
13.1007
 21
1037.57
  0
LINE
  8
0
 10
13.1007
 20
1037.57
 11
12.8936
 21
1037.13
  0
LINE
  8
0
 10
12.8936
 20
1037.13
 11
12.633
 21
1036.72
  0
LINE
  8
0
 10
12.633
 20
1036.72
 11
12.323
 21
1036.35
  0
LINE
  8
0
 10
12.323
 20
1036.35
 11
11.9685
 21
1036.02
  0
LINE
  8
0
 10
11.9685
 20
1036.02
 11
11.5751
 21
1035.73
  0
LINE
  8
0
 10
11.5751
 20
1035.73
 11
11.1489
 21
1035.5
  0
LINE
  8
0
 10
11.1489
 20
1035.5
 11
10.6967
 21
1035.32
  0
LINE
  8
0
 10
10.6967
 20
1035.32
 11
10.2256
 21
1035.2
  0
LINE
  8
0
 10
10.2256
 20
1035.2
 11
9.74316
 21
1035.14
  0
LINE
  8
0
 10
9.74316
 20
1035.14
 11
-9.74316
 21
1035.14
  0
LINE
  8
0
 10
10.9369
 20
739.589
 11
11.5451
 21
739.745
  0
LINE
  8
0
 10
11.5451
 20
739.745
 11
12.1289
 21
739.976
  0
LINE
  8
0
 10
12.1289
 20
739.976
 11
12.6791
 21
740.278
  0
LINE
  8
0
 10
12.6791
 20
740.278
 11
13.1871
 21
740.647
  0
LINE
  8
0
 10
13.1871
 20
740.647
 11
13.6448
 21
741.077
  0
LINE
  8
0
 10
13.6448
 20
741.077
 11
14.0451
 21
741.561
  0
LINE
  8
0
 10
14.0451
 20
741.561
 11
14.3815
 21
742.091
  0
LINE
  8
0
 10
14.3815
 20
742.091
 11
14.6489
 21
742.659
  0
LINE
  8
0
 10
14.6489
 20
742.659
 11
14.8429
 21
743.257
  0
LINE
  8
0
 10
14.8429
 20
743.257
 11
14.9606
 21
743.873
  0
LINE
  8
0
 10
14.9606
 20
743.873
 11
15
 21
744.5
  0
LINE
  8
0
 10
15
 20
744.5
 11
15
 21
1019.5
  0
LINE
  8
0
 10
15
 20
1019.5
 11
14.9606
 21
1020.13
  0
LINE
  8
0
 10
14.9606
 20
1020.13
 11
14.8429
 21
1020.74
  0
LINE
  8
0
 10
14.8429
 20
1020.74
 11
14.6489
 21
1021.34
  0
LINE
  8
0
 10
14.6489
 20
1021.34
 11
14.3815
 21
1021.91
  0
LINE
  8
0
 10
14.3815
 20
1021.91
 11
14.0451
 21
1022.44
  0
LINE
  8
0
 10
14.0451
 20
1022.44
 11
13.6448
 21
1022.92
  0
LINE
  8
0
 10
13.6448
 20
1022.92
 11
13.1871
 21
1023.35
  0
LINE
  8
0
 10
13.1871
 20
1023.35
 11
12.6791
 21
1023.72
  0
LINE
  8
0
 10
12.6791
 20
1023.72
 11
12.1289
 21
1024.02
  0
LINE
  8
0
 10
12.1289
 20
1024.02
 11
11.5451
 21
1024.26
  0
LINE
  8
0
 10
11.5451
 20
1024.26
 11
10.9369
 21
1024.41
  0
LINE
  8
0
 10
10.9369
 20
1024.41
 11
10.3139
 21
1024.49
  0
LINE
  8
0
 10
10.3139
 20
1024.49
 11
-10.3139
 21
1024.49
  0
LINE
  8
0
 10
-10.3139
 20
1024.49
 11
-10.9369
 21
1024.41
  0
LINE
  8
0
 10
-10.9369
 20
1024.41
 11
-11.5451
 21
1024.26
  0
LINE
  8
0
 10
-11.5451
 20
1024.26
 11
-12.1289
 21
1024.02
  0
LINE
  8
0
 10
-12.1289
 20
1024.02
 11
-12.6791
 21
1023.72
  0
LINE
  8
0
 10
-12.6791
 20
1023.72
 11
-13.1871
 21
1023.35
  0
LINE
  8
0
 10
-13.1871
 20
1023.35
 11
-13.6448
 21
1022.92
  0
LINE
  8
0
 10
-13.6448
 20
1022.92
 11
-14.0451
 21
1022.44
  0
LINE
  8
0
 10
-14.0451
 20
1022.44
 11
-14.3815
 21
1021.91
  0
LINE
  8
0
 10
-14.3815
 20
1021.91
 11
-14.6489
 21
1021.34
  0
LINE
  8
0
 10
-14.6489
 20
1021.34
 11
-14.8429
 21
1020.74
  0
LINE
  8
0
 10
-14.8429
 20
1020.74
 11
-14.9606
 21
1020.13
  0
LINE
  8
0
 10
-14.9606
 20
1020.13
 11
-15
 21
1019.5
  0
LINE
  8
0
 10
-15
 20
1019.5
 11
-15
 21
744.5
  0
LINE
  8
0
 10
-15
 20
744.5
 11
-14.9606
 21
743.873
  0
LINE
  8
0
 10
-14.9606
 20
743.873
 11
-14.8429
 21
743.257
  0
LINE
  8
0
 10
-14.8429
 20
743.257
 11
-14.6489
 21
742.659
  0
LINE
  8
0
 10
-14.6489
 20
742.659
 11
-14.3815
 21
742.091
  0
LINE
  8
0
 10
-14.3815
 20
742.091
 11
-14.0451
 21
741.561
  0
LINE
  8
0
 10
-14.0451
 20
741.561
 11
-13.6448
 21
741.077
  0
LINE
  8
0
 10
-13.6448
 20
741.077
 11
-13.1871
 21
740.647
  0
LINE
  8
0
 10
-13.1871
 20
740.647
 11
-12.6791
 21
740.278
  0
LINE
  8
0
 10
-12.6791
 20
740.278
 11
-12.1289
 21
739.976
  0
LINE
  8
0
 10
-12.1289
 20
739.976
 11
-11.5451
 21
739.745
  0
LINE
  8
0
 10
-11.5451
 20
739.745
 11
-10.9369
 21
739.589
  0
LINE
  8
0
 10
-10.9369
 20
739.589
 11
-10.3139
 21
739.51
  0
LINE
  8
0
 10
-10.3139
 20
739.51
 11
10.3139
 21
739.51
  0
LINE
  8
0
 10
10.3139
 20
739.51
 11
10.9369
 21
739.589
  0
LINE
  8
0
 10
7.34929
 20
1014.6
 11
7.05028
 21
1014.64
  0
LINE
  8
0
 10
7.05028
 20
1014.64
 11
6.75835
 21
1014.72
  0
LINE
  8
0
 10
6.75835
 20
1014.72
 11
6.47812
 21
1014.83
  0
LINE
  8
0
 10
6.47812
 20
1014.83
 11
6.214
 21
1014.97
  0
LINE
  8
0
 10
6.214
 20
1014.97
 11
5.97017
 21
1015.15
  0
LINE
  8
0
 10
5.97017
 20
1015.15
 11
5.75047
 21
1015.36
  0
LINE
  8
0
 10
5.75047
 20
1015.36
 11
5.55835
 21
1015.59
  0
LINE
  8
0
 10
5.55835
 20
1015.59
 11
5.39685
 21
1015.84
  0
LINE
  8
0
 10
5.39685
 20
1015.84
 11
5.26852
 21
1016.12
  0
LINE
  8
0
 10
5.26852
 20
1016.12
 11
5.1754
 21
1016.4
  0
LINE
  8
0
 10
5.1754
 20
1016.4
 11
5.11891
 21
1016.7
  0
LINE
  8
0
 10
5.11891
 20
1016.7
 11
5.09999
 21
1017
  0
LINE
  8
0
 10
5.09999
 20
1017
 11
5.11891
 21
1017.3
  0
LINE
  8
0
 10
5.11891
 20
1017.3
 11
5.1754
 21
1017.6
  0
LINE
  8
0
 10
5.1754
 20
1017.6
 11
5.26852
 21
1017.88
  0
LINE
  8
0
 10
5.26852
 20
1017.88
 11
5.39685
 21
1018.16
  0
LINE
  8
0
 10
5.39685
 20
1018.16
 11
5.55835
 21
1018.41
  0
LINE
  8
0
 10
5.55835
 20
1018.41
 11
5.75047
 21
1018.64
  0
LINE
  8
0
 10
5.75047
 20
1018.64
 11
5.97017
 21
1018.85
  0
LINE
  8
0
 10
5.97017
 20
1018.85
 11
6.214
 21
1019.03
  0
LINE
  8
0
 10
6.214
 20
1019.03
 11
6.47812
 21
1019.17
  0
LINE
  8
0
 10
6.47812
 20
1019.17
 11
6.75835
 21
1019.28
  0
LINE
  8
0
 10
6.75835
 20
1019.28
 11
7.05028
 21
1019.36
  0
LINE
  8
0
 10
7.05028
 20
1019.36
 11
7.34929
 21
1019.4
  0
LINE
  8
0
 10
7.34929
 20
1019.4
 11
7.6507
 21
1019.4
  0
LINE
  8
0
 10
7.6507
 20
1019.4
 11
7.94971
 21
1019.36
  0
LINE
  8
0
 10
7.94971
 20
1019.36
 11
8.24164
 21
1019.28
  0
LINE
  8
0
 10
8.24164
 20
1019.28
 11
8.52187
 21
1019.17
  0
LINE
  8
0
 10
8.52187
 20
1019.17
 11
8.78598
 21
1019.03
  0
LINE
  8
0
 10
8.78598
 20
1019.03
 11
9.02982
 21
1018.85
  0
LINE
  8
0
 10
9.02982
 20
1018.85
 11
9.24951
 21
1018.64
  0
LINE
  8
0
 10
9.24951
 20
1018.64
 11
9.44164
 21
1018.41
  0
LINE
  8
0
 10
9.44164
 20
1018.41
 11
9.60313
 21
1018.16
  0
LINE
  8
0
 10
9.60313
 20
1018.16
 11
9.73146
 21
1017.88
  0
LINE
  8
0
 10
9.73146
 20
1017.88
 11
9.82458
 21
1017.6
  0
LINE
  8
0
 10
9.82458
 20
1017.6
 11
9.88107
 21
1017.3
  0
LINE
  8
0
 10
9.88107
 20
1017.3
 11
9.89999
 21
1017
  0
LINE
  8
0
 10
9.89999
 20
1017
 11
9.88107
 21
1016.7
  0
LINE
  8
0
 10
9.88107
 20
1016.7
 11
9.82458
 21
1016.4
  0
LINE
  8
0
 10
9.82458
 20
1016.4
 11
9.73146
 21
1016.12
  0
LINE
  8
0
 10
9.73146
 20
1016.12
 11
9.60313
 21
1015.84
  0
LINE
  8
0
 10
9.60313
 20
1015.84
 11
9.44164
 21
1015.59
  0
LINE
  8
0
 10
9.44164
 20
1015.59
 11
9.24951
 21
1015.36
  0
LINE
  8
0
 10
9.24951
 20
1015.36
 11
9.02982
 21
1015.15
  0
LINE
  8
0
 10
9.02982
 20
1015.15
 11
8.78598
 21
1014.97
  0
LINE
  8
0
 10
8.78598
 20
1014.97
 11
8.52187
 21
1014.83
  0
LINE
  8
0
 10
8.52187
 20
1014.83
 11
8.24164
 21
1014.72
  0
LINE
  8
0
 10
8.24164
 20
1014.72
 11
7.94971
 21
1014.64
  0
LINE
  8
0
 10
7.94971
 20
1014.64
 11
7.6507
 21
1014.6
  0
LINE
  8
0
 10
7.6507
 20
1014.6
 11
7.34929
 21
1014.6
  0
LINE
  8
0
 10
-7.6507
 20
1014.6
 11
-7.94971
 21
1014.64
  0
LINE
  8
0
 10
-7.94971
 20
1014.64
 11
-8.24164
 21
1014.72
  0
LINE
  8
0
 10
-8.24164
 20
1014.72
 11
-8.52187
 21
1014.83
  0
LINE
  8
0
 10
-8.52187
 20
1014.83
 11
-8.78598
 21
1014.97
  0
LINE
  8
0
 10
-8.78598
 20
1014.97
 11
-9.02982
 21
1015.15
  0
LINE
  8
0
 10
-9.02982
 20
1015.15
 11
-9.24951
 21
1015.36
  0
LINE
  8
0
 10
-9.24951
 20
1015.36
 11
-9.44164
 21
1015.59
  0
LINE
  8
0
 10
-9.44164
 20
1015.59
 11
-9.60313
 21
1015.84
  0
LINE
  8
0
 10
-9.60313
 20
1015.84
 11
-9.73146
 21
1016.12
  0
LINE
  8
0
 10
-9.73146
 20
1016.12
 11
-9.82458
 21
1016.4
  0
LINE
  8
0
 10
-9.82458
 20
1016.4
 11
-9.88107
 21
1016.7
  0
LINE
  8
0
 10
-9.88107
 20
1016.7
 11
-9.89999
 21
1017
  0
LINE
  8
0
 10
-9.89999
 20
1017
 11
-9.88107
 21
1017.3
  0
LINE
  8
0
 10
-9.88107
 20
1017.3
 11
-9.82458
 21
1017.6
  0
LINE
  8
0
 10
-9.82458
 20
1017.6
 11
-9.73146
 21
1017.88
  0
LINE
  8
0
 10
-9.73146
 20
1017.88
 11
-9.60313
 21
1018.16
  0
LINE
  8
0
 10
-9.60313
 20
1018.16
 11
-9.44164
 21
1018.41
  0
LINE
  8
0
 10
-9.44164
 20
1018.41
 11
-9.24951
 21
1018.64
  0
LINE
  8
0
 10
-9.24951
 20
1018.64
 11
-9.02982
 21
1018.85
  0
LINE
  8
0
 10
-9.02982
 20
1018.85
 11
-8.78598
 21
1019.03
  0
LINE
  8
0
 10
-8.78598
 20
1019.03
 11
-8.52187
 21
1019.17
  0
LINE
  8
0
 10
-8.52187
 20
1019.17
 11
-8.24164
 21
1019.28
  0
LINE
  8
0
 10
-8.24164
 20
1019.28
 11
-7.94971
 21
1019.36
  0
LINE
  8
0
 10
-7.94971
 20
1019.36
 11
-7.6507
 21
1019.4
  0
LINE
  8
0
 10
-7.6507
 20
1019.4
 11
-7.34929
 21
1019.4
  0
LINE
  8
0
 10
-7.34929
 20
1019.4
 11
-7.05028
 21
1019.36
  0
LINE
  8
0
 10
-7.05028
 20
1019.36
 11
-6.75835
 21
1019.28
  0
LINE
  8
0
 10
-6.75835
 20
1019.28
 11
-6.47812
 21
1019.17
  0
LINE
  8
0
 10
-6.47812
 20
1019.17
 11
-6.214
 21
1019.03
  0
LINE
  8
0
 10
-6.214
 20
1019.03
 11
-5.97017
 21
1018.85
  0
LINE
  8
0
 10
-5.97017
 20
1018.85
 11
-5.75047
 21
1018.64
  0
LINE
  8
0
 10
-5.75047
 20
1018.64
 11
-5.55835
 21
1018.41
  0
LINE
  8
0
 10
-5.55835
 20
1018.41
 11
-5.39685
 21
1018.16
  0
LINE
  8
0
 10
-5.39685
 20
1018.16
 11
-5.26852
 21
1017.88
  0
LINE
  8
0
 10
-5.26852
 20
1017.88
 11
-5.1754
 21
1017.6
  0
LINE
  8
0
 10
-5.1754
 20
1017.6
 11
-5.11891
 21
1017.3
  0
LINE
  8
0
 10
-5.11891
 20
1017.3
 11
-5.09999
 21
1017
  0
LINE
  8
0
 10
-5.09999
 20
1017
 11
-5.11891
 21
1016.7
  0
LINE
  8
0
 10
-5.11891
 20
1016.7
 11
-5.1754
 21
1016.4
  0
LINE
  8
0
 10
-5.1754
 20
1016.4
 11
-5.26852
 21
1016.12
  0
LINE
  8
0
 10
-5.26852
 20
1016.12
 11
-5.39685
 21
1015.84
  0
LINE
  8
0
 10
-5.39685
 20
1015.84
 11
-5.55835
 21
1015.59
  0
LINE
  8
0
 10
-5.55835
 20
1015.59
 11
-5.75047
 21
1015.36
  0
LINE
  8
0
 10
-5.75047
 20
1015.36
 11
-5.97017
 21
1015.15
  0
LINE
  8
0
 10
-5.97017
 20
1015.15
 11
-6.214
 21
1014.97
  0
LINE
  8
0
 10
-6.214
 20
1014.97
 11
-6.47812
 21
1014.83
  0
LINE
  8
0
 10
-6.47812
 20
1014.83
 11
-6.75835
 21
1014.72
  0
LINE
  8
0
 10
-6.75835
 20
1014.72
 11
-7.05028
 21
1014.64
  0
LINE
  8
0
 10
-7.05028
 20
1014.64
 11
-7.34929
 21
1014.6
  0
LINE
  8
0
 10
-7.34929
 20
1014.6
 11
-7.6507
 21
1014.6
  0
LINE
  8
0
 10
7.34929
 20
744.605
 11
7.05028
 21
744.643
  0
LINE
  8
0
 10
7.05028
 20
744.643
 11
6.75835
 21
744.717
  0
LINE
  8
0
 10
6.75835
 20
744.717
 11
6.47812
 21
744.828
  0
LINE
  8
0
 10
6.47812
 20
744.828
 11
6.214
 21
744.974
  0
LINE
  8
0
 10
6.214
 20
744.974
 11
5.97017
 21
745.151
  0
LINE
  8
0
 10
5.97017
 20
745.151
 11
5.75047
 21
745.357
  0
LINE
  8
0
 10
5.75047
 20
745.357
 11
5.55835
 21
745.589
  0
LINE
  8
0
 10
5.55835
 20
745.589
 11
5.39685
 21
745.844
  0
LINE
  8
0
 10
5.39685
 20
745.844
 11
5.26852
 21
746.117
  0
LINE
  8
0
 10
5.26852
 20
746.117
 11
5.1754
 21
746.403
  0
LINE
  8
0
 10
5.1754
 20
746.403
 11
5.11891
 21
746.699
  0
LINE
  8
0
 10
5.11891
 20
746.699
 11
5.09999
 21
747
  0
LINE
  8
0
 10
5.09999
 20
747
 11
5.11891
 21
747.301
  0
LINE
  8
0
 10
5.11891
 20
747.301
 11
5.1754
 21
747.597
  0
LINE
  8
0
 10
5.1754
 20
747.597
 11
5.26852
 21
747.883
  0
LINE
  8
0
 10
5.26852
 20
747.883
 11
5.39685
 21
748.156
  0
LINE
  8
0
 10
5.39685
 20
748.156
 11
5.55835
 21
748.411
  0
LINE
  8
0
 10
5.55835
 20
748.411
 11
5.75047
 21
748.643
  0
LINE
  8
0
 10
5.75047
 20
748.643
 11
5.97017
 21
748.849
  0
LINE
  8
0
 10
5.97017
 20
748.849
 11
6.214
 21
749.026
  0
LINE
  8
0
 10
6.214
 20
749.026
 11
6.47812
 21
749.172
  0
LINE
  8
0
 10
6.47812
 20
749.172
 11
6.75835
 21
749.283
  0
LINE
  8
0
 10
6.75835
 20
749.283
 11
7.05028
 21
749.357
  0
LINE
  8
0
 10
7.05028
 20
749.357
 11
7.34929
 21
749.395
  0
LINE
  8
0
 10
7.34929
 20
749.395
 11
7.6507
 21
749.395
  0
LINE
  8
0
 10
7.6507
 20
749.395
 11
7.94971
 21
749.357
  0
LINE
  8
0
 10
7.94971
 20
749.357
 11
8.24164
 21
749.283
  0
LINE
  8
0
 10
8.24164
 20
749.283
 11
8.52187
 21
749.172
  0
LINE
  8
0
 10
8.52187
 20
749.172
 11
8.78598
 21
749.026
  0
LINE
  8
0
 10
8.78598
 20
749.026
 11
9.02982
 21
748.849
  0
LINE
  8
0
 10
9.02982
 20
748.849
 11
9.24951
 21
748.643
  0
LINE
  8
0
 10
9.24951
 20
748.643
 11
9.44164
 21
748.411
  0
LINE
  8
0
 10
9.44164
 20
748.411
 11
9.60313
 21
748.156
  0
LINE
  8
0
 10
9.60313
 20
748.156
 11
9.73146
 21
747.883
  0
LINE
  8
0
 10
9.73146
 20
747.883
 11
9.82458
 21
747.597
  0
LINE
  8
0
 10
9.82458
 20
747.597
 11
9.88107
 21
747.301
  0
LINE
  8
0
 10
9.88107
 20
747.301
 11
9.89999
 21
747
  0
LINE
  8
0
 10
9.89999
 20
747
 11
9.88107
 21
746.699
  0
LINE
  8
0
 10
9.88107
 20
746.699
 11
9.82458
 21
746.403
  0
LINE
  8
0
 10
9.82458
 20
746.403
 11
9.73146
 21
746.117
  0
LINE
  8
0
 10
9.73146
 20
746.117
 11
9.60313
 21
745.844
  0
LINE
  8
0
 10
9.60313
 20
745.844
 11
9.44164
 21
745.589
  0
LINE
  8
0
 10
9.44164
 20
745.589
 11
9.24951
 21
745.357
  0
LINE
  8
0
 10
9.24951
 20
745.357
 11
9.02982
 21
745.151
  0
LINE
  8
0
 10
9.02982
 20
745.151
 11
8.78598
 21
744.974
  0
LINE
  8
0
 10
8.78598
 20
744.974
 11
8.52187
 21
744.828
  0
LINE
  8
0
 10
8.52187
 20
744.828
 11
8.24164
 21
744.717
  0
LINE
  8
0
 10
8.24164
 20
744.717
 11
7.94971
 21
744.643
  0
LINE
  8
0
 10
7.94971
 20
744.643
 11
7.6507
 21
744.605
  0
LINE
  8
0
 10
7.6507
 20
744.605
 11
7.34929
 21
744.605
  0
LINE
  8
0
 10
-7.6507
 20
744.605
 11
-7.94971
 21
744.643
  0
LINE
  8
0
 10
-7.94971
 20
744.643
 11
-8.24164
 21
744.717
  0
LINE
  8
0
 10
-8.24164
 20
744.717
 11
-8.52187
 21
744.828
  0
LINE
  8
0
 10
-8.52187
 20
744.828
 11
-8.78598
 21
744.974
  0
LINE
  8
0
 10
-8.78598
 20
744.974
 11
-9.02982
 21
745.151
  0
LINE
  8
0
 10
-9.02982
 20
745.151
 11
-9.24951
 21
745.357
  0
LINE
  8
0
 10
-9.24951
 20
745.357
 11
-9.44164
 21
745.589
  0
LINE
  8
0
 10
-9.44164
 20
745.589
 11
-9.60313
 21
745.844
  0
LINE
  8
0
 10
-9.60313
 20
745.844
 11
-9.73146
 21
746.117
  0
LINE
  8
0
 10
-9.73146
 20
746.117
 11
-9.82458
 21
746.403
  0
LINE
  8
0
 10
-9.82458
 20
746.403
 11
-9.88107
 21
746.699
  0
LINE
  8
0
 10
-9.88107
 20
746.699
 11
-9.89999
 21
747
  0
LINE
  8
0
 10
-9.89999
 20
747
 11
-9.88107
 21
747.301
  0
LINE
  8
0
 10
-9.88107
 20
747.301
 11
-9.82458
 21
747.597
  0
LINE
  8
0
 10
-9.82458
 20
747.597
 11
-9.73146
 21
747.883
  0
LINE
  8
0
 10
-9.73146
 20
747.883
 11
-9.60313
 21
748.156
  0
LINE
  8
0
 10
-9.60313
 20
748.156
 11
-9.44164
 21
748.411
  0
LINE
  8
0
 10
-9.44164
 20
748.411
 11
-9.24951
 21
748.643
  0
LINE
  8
0
 10
-9.24951
 20
748.643
 11
-9.02982
 21
748.849
  0
LINE
  8
0
 10
-9.02982
 20
748.849
 11
-8.78598
 21
749.026
  0
LINE
  8
0
 10
-8.78598
 20
749.026
 11
-8.52187
 21
749.172
  0
LINE
  8
0
 10
-8.52187
 20
749.172
 11
-8.24164
 21
749.283
  0
LINE
  8
0
 10
-8.24164
 20
749.283
 11
-7.94971
 21
749.357
  0
LINE
  8
0
 10
-7.94971
 20
749.357
 11
-7.6507
 21
749.395
  0
LINE
  8
0
 10
-7.6507
 20
749.395
 11
-7.34929
 21
749.395
  0
LINE
  8
0
 10
-7.34929
 20
749.395
 11
-7.05028
 21
749.357
  0
LINE
  8
0
 10
-7.05028
 20
749.357
 11
-6.75835
 21
749.283
  0
LINE
  8
0
 10
-6.75835
 20
749.283
 11
-6.47812
 21
749.172
  0
LINE
  8
0
 10
-6.47812
 20
749.172
 11
-6.214
 21
749.026
  0
LINE
  8
0
 10
-6.214
 20
749.026
 11
-5.97017
 21
748.849
  0
LINE
  8
0
 10
-5.97017
 20
748.849
 11
-5.75047
 21
748.643
  0
LINE
  8
0
 10
-5.75047
 20
748.643
 11
-5.55835
 21
748.411
  0
LINE
  8
0
 10
-5.55835
 20
748.411
 11
-5.39685
 21
748.156
  0
LINE
  8
0
 10
-5.39685
 20
748.156
 11
-5.26852
 21
747.883
  0
LINE
  8
0
 10
-5.26852
 20
747.883
 11
-5.1754
 21
747.597
  0
LINE
  8
0
 10
-5.1754
 20
747.597
 11
-5.11891
 21
747.301
  0
LINE
  8
0
 10
-5.11891
 20
747.301
 11
-5.09999
 21
747
  0
LINE
  8
0
 10
-5.09999
 20
747
 11
-5.11891
 21
746.699
  0
LINE
  8
0
 10
-5.11891
 20
746.699
 11
-5.1754
 21
746.403
  0
LINE
  8
0
 10
-5.1754
 20
746.403
 11
-5.26852
 21
746.117
  0
LINE
  8
0
 10
-5.26852
 20
746.117
 11
-5.39685
 21
745.844
  0
LINE
  8
0
 10
-5.39685
 20
745.844
 11
-5.55835
 21
745.589
  0
LINE
  8
0
 10
-5.55835
 20
745.589
 11
-5.75047
 21
745.357
  0
LINE
  8
0
 10
-5.75047
 20
745.357
 11
-5.97017
 21
745.151
  0
LINE
  8
0
 10
-5.97017
 20
745.151
 11
-6.214
 21
744.974
  0
LINE
  8
0
 10
-6.214
 20
744.974
 11
-6.47812
 21
744.828
  0
LINE
  8
0
 10
-6.47812
 20
744.828
 11
-6.75835
 21
744.717
  0
LINE
  8
0
 10
-6.75835
 20
744.717
 11
-7.05028
 21
744.643
  0
LINE
  8
0
 10
-7.05028
 20
744.643
 11
-7.34929
 21
744.605
  0
LINE
  8
0
 10
-7.34929
 20
744.605
 11
-7.6507
 21
744.605
  0
LINE
  8
0
 10
10.9369
 20
445.589
 11
11.5451
 21
445.745
  0
LINE
  8
0
 10
11.5451
 20
445.745
 11
12.1289
 21
445.976
  0
LINE
  8
0
 10
12.1289
 20
445.976
 11
12.6791
 21
446.278
  0
LINE
  8
0
 10
12.6791
 20
446.278
 11
13.1871
 21
446.647
  0
LINE
  8
0
 10
13.1871
 20
446.647
 11
13.6448
 21
447.077
  0
LINE
  8
0
 10
13.6448
 20
447.077
 11
14.0451
 21
447.561
  0
LINE
  8
0
 10
14.0451
 20
447.561
 11
14.3815
 21
448.091
  0
LINE
  8
0
 10
14.3815
 20
448.091
 11
14.6489
 21
448.659
  0
LINE
  8
0
 10
14.6489
 20
448.659
 11
14.8429
 21
449.257
  0
LINE
  8
0
 10
14.8429
 20
449.257
 11
14.9606
 21
449.873
  0
LINE
  8
0
 10
14.9606
 20
449.873
 11
15
 21
450.5
  0
LINE
  8
0
 10
15
 20
450.5
 11
15
 21
725.5
  0
LINE
  8
0
 10
15
 20
725.5
 11
14.9606
 21
726.127
  0
LINE
  8
0
 10
14.9606
 20
726.127
 11
14.8429
 21
726.743
  0
LINE
  8
0
 10
14.8429
 20
726.743
 11
14.6489
 21
727.341
  0
LINE
  8
0
 10
14.6489
 20
727.341
 11
14.3815
 21
727.909
  0
LINE
  8
0
 10
14.3815
 20
727.909
 11
14.0451
 21
728.439
  0
LINE
  8
0
 10
14.0451
 20
728.439
 11
13.6448
 21
728.923
  0
LINE
  8
0
 10
13.6448
 20
728.923
 11
13.1871
 21
729.353
  0
LINE
  8
0
 10
13.1871
 20
729.353
 11
12.6791
 21
729.722
  0
LINE
  8
0
 10
12.6791
 20
729.722
 11
12.1289
 21
730.024
  0
LINE
  8
0
 10
12.1289
 20
730.024
 11
11.5451
 21
730.255
  0
LINE
  8
0
 10
11.5451
 20
730.255
 11
10.9369
 21
730.411
  0
LINE
  8
0
 10
10.9369
 20
730.411
 11
10.3139
 21
730.49
  0
LINE
  8
0
 10
10.3139
 20
730.49
 11
-10.3139
 21
730.49
  0
LINE
  8
0
 10
-10.3139
 20
730.49
 11
-10.9369
 21
730.411
  0
LINE
  8
0
 10
-10.9369
 20
730.411
 11
-11.5451
 21
730.255
  0
LINE
  8
0
 10
-11.5451
 20
730.255
 11
-12.1289
 21
730.024
  0
LINE
  8
0
 10
-12.1289
 20
730.024
 11
-12.6791
 21
729.722
  0
LINE
  8
0
 10
-12.6791
 20
729.722
 11
-13.1871
 21
729.353
  0
LINE
  8
0
 10
-13.1871
 20
729.353
 11
-13.6448
 21
728.923
  0
LINE
  8
0
 10
-13.6448
 20
728.923
 11
-14.0451
 21
728.439
  0
LINE
  8
0
 10
-14.0451
 20
728.439
 11
-14.3815
 21
727.909
  0
LINE
  8
0
 10
-14.3815
 20
727.909
 11
-14.6489
 21
727.341
  0
LINE
  8
0
 10
-14.6489
 20
727.341
 11
-14.8429
 21
726.743
  0
LINE
  8
0
 10
-14.8429
 20
726.743
 11
-14.9606
 21
726.127
  0
LINE
  8
0
 10
-14.9606
 20
726.127
 11
-15
 21
725.5
  0
LINE
  8
0
 10
-15
 20
725.5
 11
-15
 21
450.5
  0
LINE
  8
0
 10
-15
 20
450.5
 11
-14.9606
 21
449.873
  0
LINE
  8
0
 10
-14.9606
 20
449.873
 11
-14.8429
 21
449.257
  0
LINE
  8
0
 10
-14.8429
 20
449.257
 11
-14.6489
 21
448.659
  0
LINE
  8
0
 10
-14.6489
 20
448.659
 11
-14.3815
 21
448.091
  0
LINE
  8
0
 10
-14.3815
 20
448.091
 11
-14.0451
 21
447.561
  0
LINE
  8
0
 10
-14.0451
 20
447.561
 11
-13.6448
 21
447.077
  0
LINE
  8
0
 10
-13.6448
 20
447.077
 11
-13.1871
 21
446.647
  0
LINE
  8
0
 10
-13.1871
 20
446.647
 11
-12.6791
 21
446.278
  0
LINE
  8
0
 10
-12.6791
 20
446.278
 11
-12.1289
 21
445.976
  0
LINE
  8
0
 10
-12.1289
 20
445.976
 11
-11.5451
 21
445.745
  0
LINE
  8
0
 10
-11.5451
 20
445.745
 11
-10.9369
 21
445.589
  0
LINE
  8
0
 10
-10.9369
 20
445.589
 11
-10.3139
 21
445.51
  0
LINE
  8
0
 10
-10.3139
 20
445.51
 11
10.3139
 21
445.51
  0
LINE
  8
0
 10
10.3139
 20
445.51
 11
10.9369
 21
445.589
  0
LINE
  8
0
 10
7.38696
 20
721.204
 11
7.1627
 21
721.232
  0
LINE
  8
0
 10
7.1627
 20
721.232
 11
6.94376
 21
721.288
  0
LINE
  8
0
 10
6.94376
 20
721.288
 11
6.7336
 21
721.371
  0
LINE
  8
0
 10
6.7336
 20
721.371
 11
6.53551
 21
721.48
  0
LINE
  8
0
 10
6.53551
 20
721.48
 11
6.35263
 21
721.613
  0
LINE
  8
0
 10
6.35263
 20
721.613
 11
6.18785
 21
721.768
  0
LINE
  8
0
 10
6.18785
 20
721.768
 11
6.04376
 21
721.942
  0
LINE
  8
0
 10
6.04376
 20
721.942
 11
5.92264
 21
722.133
  0
LINE
  8
0
 10
5.92264
 20
722.133
 11
5.8264
 21
722.337
  0
LINE
  8
0
 10
5.8264
 20
722.337
 11
5.75655
 21
722.552
  0
LINE
  8
0
 10
5.75655
 20
722.552
 11
5.71419
 21
722.774
  0
LINE
  8
0
 10
5.71419
 20
722.774
 11
5.7
 21
723
  0
LINE
  8
0
 10
5.7
 20
723
 11
5.71419
 21
723.226
  0
LINE
  8
0
 10
5.71419
 20
723.226
 11
5.75655
 21
723.448
  0
LINE
  8
0
 10
5.75655
 20
723.448
 11
5.8264
 21
723.663
  0
LINE
  8
0
 10
5.8264
 20
723.663
 11
5.92264
 21
723.867
  0
LINE
  8
0
 10
5.92264
 20
723.867
 11
6.04376
 21
724.058
  0
LINE
  8
0
 10
6.04376
 20
724.058
 11
6.18785
 21
724.232
  0
LINE
  8
0
 10
6.18785
 20
724.232
 11
6.35263
 21
724.387
  0
LINE
  8
0
 10
6.35263
 20
724.387
 11
6.53551
 21
724.52
  0
LINE
  8
0
 10
6.53551
 20
724.52
 11
6.7336
 21
724.629
  0
LINE
  8
0
 10
6.7336
 20
724.629
 11
6.94376
 21
724.712
  0
LINE
  8
0
 10
6.94376
 20
724.712
 11
7.1627
 21
724.768
  0
LINE
  8
0
 10
7.1627
 20
724.768
 11
7.38696
 21
724.796
  0
LINE
  8
0
 10
7.38696
 20
724.796
 11
7.61302
 21
724.796
  0
LINE
  8
0
 10
7.61302
 20
724.796
 11
7.83728
 21
724.768
  0
LINE
  8
0
 10
7.83728
 20
724.768
 11
8.05623
 21
724.712
  0
LINE
  8
0
 10
8.05623
 20
724.712
 11
8.26639
 21
724.629
  0
LINE
  8
0
 10
8.26639
 20
724.629
 11
8.46448
 21
724.52
  0
LINE
  8
0
 10
8.46448
 20
724.52
 11
8.64735
 21
724.387
  0
LINE
  8
0
 10
8.64735
 20
724.387
 11
8.81213
 21
724.232
  0
LINE
  8
0
 10
8.81213
 20
724.232
 11
8.95622
 21
724.058
  0
LINE
  8
0
 10
8.95622
 20
724.058
 11
9.07735
 21
723.867
  0
LINE
  8
0
 10
9.07735
 20
723.867
 11
9.17358
 21
723.663
  0
LINE
  8
0
 10
9.17358
 20
723.663
 11
9.24344
 21
723.448
  0
LINE
  8
0
 10
9.24344
 20
723.448
 11
9.2858
 21
723.226
  0
LINE
  8
0
 10
9.2858
 20
723.226
 11
9.29999
 21
723
  0
LINE
  8
0
 10
9.29999
 20
723
 11
9.2858
 21
722.774
  0
LINE
  8
0
 10
9.2858
 20
722.774
 11
9.24344
 21
722.552
  0
LINE
  8
0
 10
9.24344
 20
722.552
 11
9.17358
 21
722.337
  0
LINE
  8
0
 10
9.17358
 20
722.337
 11
9.07735
 21
722.133
  0
LINE
  8
0
 10
9.07735
 20
722.133
 11
8.95622
 21
721.942
  0
LINE
  8
0
 10
8.95622
 20
721.942
 11
8.81213
 21
721.768
  0
LINE
  8
0
 10
8.81213
 20
721.768
 11
8.64735
 21
721.613
  0
LINE
  8
0
 10
8.64735
 20
721.613
 11
8.46448
 21
721.48
  0
LINE
  8
0
 10
8.46448
 20
721.48
 11
8.26639
 21
721.371
  0
LINE
  8
0
 10
8.26639
 20
721.371
 11
8.05623
 21
721.288
  0
LINE
  8
0
 10
8.05623
 20
721.288
 11
7.83728
 21
721.232
  0
LINE
  8
0
 10
7.83728
 20
721.232
 11
7.61302
 21
721.204
  0
LINE
  8
0
 10
7.61302
 20
721.204
 11
7.38696
 21
721.204
  0
LINE
  8
0
 10
-7.61302
 20
721.204
 11
-7.83728
 21
721.232
  0
LINE
  8
0
 10
-7.83728
 20
721.232
 11
-8.05623
 21
721.288
  0
LINE
  8
0
 10
-8.05623
 20
721.288
 11
-8.26639
 21
721.371
  0
LINE
  8
0
 10
-8.26639
 20
721.371
 11
-8.46448
 21
721.48
  0
LINE
  8
0
 10
-8.46448
 20
721.48
 11
-8.64735
 21
721.613
  0
LINE
  8
0
 10
-8.64735
 20
721.613
 11
-8.81213
 21
721.768
  0
LINE
  8
0
 10
-8.81213
 20
721.768
 11
-8.95622
 21
721.942
  0
LINE
  8
0
 10
-8.95622
 20
721.942
 11
-9.07735
 21
722.133
  0
LINE
  8
0
 10
-9.07735
 20
722.133
 11
-9.17358
 21
722.337
  0
LINE
  8
0
 10
-9.17358
 20
722.337
 11
-9.24344
 21
722.552
  0
LINE
  8
0
 10
-9.24344
 20
722.552
 11
-9.2858
 21
722.774
  0
LINE
  8
0
 10
-9.2858
 20
722.774
 11
-9.29999
 21
723
  0
LINE
  8
0
 10
-9.29999
 20
723
 11
-9.2858
 21
723.226
  0
LINE
  8
0
 10
-9.2858
 20
723.226
 11
-9.24344
 21
723.448
  0
LINE
  8
0
 10
-9.24344
 20
723.448
 11
-9.17358
 21
723.663
  0
LINE
  8
0
 10
-9.17358
 20
723.663
 11
-9.07735
 21
723.867
  0
LINE
  8
0
 10
-9.07735
 20
723.867
 11
-8.95622
 21
724.058
  0
LINE
  8
0
 10
-8.95622
 20
724.058
 11
-8.81213
 21
724.232
  0
LINE
  8
0
 10
-8.81213
 20
724.232
 11
-8.64735
 21
724.387
  0
LINE
  8
0
 10
-8.64735
 20
724.387
 11
-8.46448
 21
724.52
  0
LINE
  8
0
 10
-8.46448
 20
724.52
 11
-8.26639
 21
724.629
  0
LINE
  8
0
 10
-8.26639
 20
724.629
 11
-8.05623
 21
724.712
  0
LINE
  8
0
 10
-8.05623
 20
724.712
 11
-7.83728
 21
724.768
  0
LINE
  8
0
 10
-7.83728
 20
724.768
 11
-7.61302
 21
724.796
  0
LINE
  8
0
 10
-7.61302
 20
724.796
 11
-7.38696
 21
724.796
  0
LINE
  8
0
 10
-7.38696
 20
724.796
 11
-7.1627
 21
724.768
  0
LINE
  8
0
 10
-7.1627
 20
724.768
 11
-6.94376
 21
724.712
  0
LINE
  8
0
 10
-6.94376
 20
724.712
 11
-6.7336
 21
724.629
  0
LINE
  8
0
 10
-6.7336
 20
724.629
 11
-6.53551
 21
724.52
  0
LINE
  8
0
 10
-6.53551
 20
724.52
 11
-6.35263
 21
724.387
  0
LINE
  8
0
 10
-6.35263
 20
724.387
 11
-6.18785
 21
724.232
  0
LINE
  8
0
 10
-6.18785
 20
724.232
 11
-6.04376
 21
724.058
  0
LINE
  8
0
 10
-6.04376
 20
724.058
 11
-5.92264
 21
723.867
  0
LINE
  8
0
 10
-5.92264
 20
723.867
 11
-5.8264
 21
723.663
  0
LINE
  8
0
 10
-5.8264
 20
723.663
 11
-5.75655
 21
723.448
  0
LINE
  8
0
 10
-5.75655
 20
723.448
 11
-5.71419
 21
723.226
  0
LINE
  8
0
 10
-5.71419
 20
723.226
 11
-5.7
 21
723
  0
LINE
  8
0
 10
-5.7
 20
723
 11
-5.71419
 21
722.774
  0
LINE
  8
0
 10
-5.71419
 20
722.774
 11
-5.75655
 21
722.552
  0
LINE
  8
0
 10
-5.75655
 20
722.552
 11
-5.8264
 21
722.337
  0
LINE
  8
0
 10
-5.8264
 20
722.337
 11
-5.92264
 21
722.133
  0
LINE
  8
0
 10
-5.92264
 20
722.133
 11
-6.04376
 21
721.942
  0
LINE
  8
0
 10
-6.04376
 20
721.942
 11
-6.18785
 21
721.768
  0
LINE
  8
0
 10
-6.18785
 20
721.768
 11
-6.35263
 21
721.613
  0
LINE
  8
0
 10
-6.35263
 20
721.613
 11
-6.53551
 21
721.48
  0
LINE
  8
0
 10
-6.53551
 20
721.48
 11
-6.7336
 21
721.371
  0
LINE
  8
0
 10
-6.7336
 20
721.371
 11
-6.94376
 21
721.288
  0
LINE
  8
0
 10
-6.94376
 20
721.288
 11
-7.1627
 21
721.232
  0
LINE
  8
0
 10
-7.1627
 20
721.232
 11
-7.38696
 21
721.204
  0
LINE
  8
0
 10
-7.38696
 20
721.204
 11
-7.61302
 21
721.204
  0
LINE
  8
0
 10
-7.61302
 20
451.204
 11
-7.83728
 21
451.232
  0
LINE
  8
0
 10
-7.83728
 20
451.232
 11
-8.05623
 21
451.288
  0
LINE
  8
0
 10
-8.05623
 20
451.288
 11
-8.26639
 21
451.371
  0
LINE
  8
0
 10
-8.26639
 20
451.371
 11
-8.46448
 21
451.48
  0
LINE
  8
0
 10
-8.46448
 20
451.48
 11
-8.64735
 21
451.613
  0
LINE
  8
0
 10
-8.64735
 20
451.613
 11
-8.81213
 21
451.768
  0
LINE
  8
0
 10
-8.81213
 20
451.768
 11
-8.95622
 21
451.942
  0
LINE
  8
0
 10
-8.95622
 20
451.942
 11
-9.07735
 21
452.133
  0
LINE
  8
0
 10
-9.07735
 20
452.133
 11
-9.17358
 21
452.337
  0
LINE
  8
0
 10
-9.17358
 20
452.337
 11
-9.24344
 21
452.552
  0
LINE
  8
0
 10
-9.24344
 20
452.552
 11
-9.2858
 21
452.774
  0
LINE
  8
0
 10
-9.2858
 20
452.774
 11
-9.29999
 21
453
  0
LINE
  8
0
 10
-9.29999
 20
453
 11
-9.2858
 21
453.226
  0
LINE
  8
0
 10
-9.2858
 20
453.226
 11
-9.24344
 21
453.448
  0
LINE
  8
0
 10
-9.24344
 20
453.448
 11
-9.17358
 21
453.663
  0
LINE
  8
0
 10
-9.17358
 20
453.663
 11
-9.07735
 21
453.867
  0
LINE
  8
0
 10
-9.07735
 20
453.867
 11
-8.95622
 21
454.058
  0
LINE
  8
0
 10
-8.95622
 20
454.058
 11
-8.81213
 21
454.232
  0
LINE
  8
0
 10
-8.81213
 20
454.232
 11
-8.64735
 21
454.387
  0
LINE
  8
0
 10
-8.64735
 20
454.387
 11
-8.46448
 21
454.52
  0
LINE
  8
0
 10
-8.46448
 20
454.52
 11
-8.26639
 21
454.629
  0
LINE
  8
0
 10
-8.26639
 20
454.629
 11
-8.05623
 21
454.712
  0
LINE
  8
0
 10
-8.05623
 20
454.712
 11
-7.83728
 21
454.768
  0
LINE
  8
0
 10
-7.83728
 20
454.768
 11
-7.61302
 21
454.796
  0
LINE
  8
0
 10
-7.61302
 20
454.796
 11
-7.38696
 21
454.796
  0
LINE
  8
0
 10
-7.38696
 20
454.796
 11
-7.1627
 21
454.768
  0
LINE
  8
0
 10
-7.1627
 20
454.768
 11
-6.94376
 21
454.712
  0
LINE
  8
0
 10
-6.94376
 20
454.712
 11
-6.7336
 21
454.629
  0
LINE
  8
0
 10
-6.7336
 20
454.629
 11
-6.53551
 21
454.52
  0
LINE
  8
0
 10
-6.53551
 20
454.52
 11
-6.35263
 21
454.387
  0
LINE
  8
0
 10
-6.35263
 20
454.387
 11
-6.18785
 21
454.232
  0
LINE
  8
0
 10
-6.18785
 20
454.232
 11
-6.04376
 21
454.058
  0
LINE
  8
0
 10
-6.04376
 20
454.058
 11
-5.92264
 21
453.867
  0
LINE
  8
0
 10
-5.92264
 20
453.867
 11
-5.8264
 21
453.663
  0
LINE
  8
0
 10
-5.8264
 20
453.663
 11
-5.75655
 21
453.448
  0
LINE
  8
0
 10
-5.75655
 20
453.448
 11
-5.71419
 21
453.226
  0
LINE
  8
0
 10
-5.71419
 20
453.226
 11
-5.7
 21
453
  0
LINE
  8
0
 10
-5.7
 20
453
 11
-5.71419
 21
452.774
  0
LINE
  8
0
 10
-5.71419
 20
452.774
 11
-5.75655
 21
452.552
  0
LINE
  8
0
 10
-5.75655
 20
452.552
 11
-5.8264
 21
452.337
  0
LINE
  8
0
 10
-5.8264
 20
452.337
 11
-5.92264
 21
452.133
  0
LINE
  8
0
 10
-5.92264
 20
452.133
 11
-6.04376
 21
451.942
  0
LINE
  8
0
 10
-6.04376
 20
451.942
 11
-6.18785
 21
451.768
  0
LINE
  8
0
 10
-6.18785
 20
451.768
 11
-6.35263
 21
451.613
  0
LINE
  8
0
 10
-6.35263
 20
451.613
 11
-6.53551
 21
451.48
  0
LINE
  8
0
 10
-6.53551
 20
451.48
 11
-6.7336
 21
451.371
  0
LINE
  8
0
 10
-6.7336
 20
451.371
 11
-6.94376
 21
451.288
  0
LINE
  8
0
 10
-6.94376
 20
451.288
 11
-7.1627
 21
451.232
  0
LINE
  8
0
 10
-7.1627
 20
451.232
 11
-7.38696
 21
451.204
  0
LINE
  8
0
 10
-7.38696
 20
451.204
 11
-7.61302
 21
451.204
  0
LINE
  8
0
 10
7.38696
 20
451.204
 11
7.1627
 21
451.232
  0
LINE
  8
0
 10
7.1627
 20
451.232
 11
6.94376
 21
451.288
  0
LINE
  8
0
 10
6.94376
 20
451.288
 11
6.7336
 21
451.371
  0
LINE
  8
0
 10
6.7336
 20
451.371
 11
6.53551
 21
451.48
  0
LINE
  8
0
 10
6.53551
 20
451.48
 11
6.35263
 21
451.613
  0
LINE
  8
0
 10
6.35263
 20
451.613
 11
6.18785
 21
451.768
  0
LINE
  8
0
 10
6.18785
 20
451.768
 11
6.04376
 21
451.942
  0
LINE
  8
0
 10
6.04376
 20
451.942
 11
5.92264
 21
452.133
  0
LINE
  8
0
 10
5.92264
 20
452.133
 11
5.8264
 21
452.337
  0
LINE
  8
0
 10
5.8264
 20
452.337
 11
5.75655
 21
452.552
  0
LINE
  8
0
 10
5.75655
 20
452.552
 11
5.71419
 21
452.774
  0
LINE
  8
0
 10
5.71419
 20
452.774
 11
5.7
 21
453
  0
LINE
  8
0
 10
5.7
 20
453
 11
5.71419
 21
453.226
  0
LINE
  8
0
 10
5.71419
 20
453.226
 11
5.75655
 21
453.448
  0
LINE
  8
0
 10
5.75655
 20
453.448
 11
5.8264
 21
453.663
  0
LINE
  8
0
 10
5.8264
 20
453.663
 11
5.92264
 21
453.867
  0
LINE
  8
0
 10
5.92264
 20
453.867
 11
6.04376
 21
454.058
  0
LINE
  8
0
 10
6.04376
 20
454.058
 11
6.18785
 21
454.232
  0
LINE
  8
0
 10
6.18785
 20
454.232
 11
6.35263
 21
454.387
  0
LINE
  8
0
 10
6.35263
 20
454.387
 11
6.53551
 21
454.52
  0
LINE
  8
0
 10
6.53551
 20
454.52
 11
6.7336
 21
454.629
  0
LINE
  8
0
 10
6.7336
 20
454.629
 11
6.94376
 21
454.712
  0
LINE
  8
0
 10
6.94376
 20
454.712
 11
7.1627
 21
454.768
  0
LINE
  8
0
 10
7.1627
 20
454.768
 11
7.38696
 21
454.796
  0
LINE
  8
0
 10
7.38696
 20
454.796
 11
7.61302
 21
454.796
  0
LINE
  8
0
 10
7.61302
 20
454.796
 11
7.83728
 21
454.768
  0
LINE
  8
0
 10
7.83728
 20
454.768
 11
8.05623
 21
454.712
  0
LINE
  8
0
 10
8.05623
 20
454.712
 11
8.26639
 21
454.629
  0
LINE
  8
0
 10
8.26639
 20
454.629
 11
8.46448
 21
454.52
  0
LINE
  8
0
 10
8.46448
 20
454.52
 11
8.64735
 21
454.387
  0
LINE
  8
0
 10
8.64735
 20
454.387
 11
8.81213
 21
454.232
  0
LINE
  8
0
 10
8.81213
 20
454.232
 11
8.95622
 21
454.058
  0
LINE
  8
0
 10
8.95622
 20
454.058
 11
9.07735
 21
453.867
  0
LINE
  8
0
 10
9.07735
 20
453.867
 11
9.17358
 21
453.663
  0
LINE
  8
0
 10
9.17358
 20
453.663
 11
9.24344
 21
453.448
  0
LINE
  8
0
 10
9.24344
 20
453.448
 11
9.2858
 21
453.226
  0
LINE
  8
0
 10
9.2858
 20
453.226
 11
9.29999
 21
453
  0
LINE
  8
0
 10
9.29999
 20
453
 11
9.2858
 21
452.774
  0
LINE
  8
0
 10
9.2858
 20
452.774
 11
9.24344
 21
452.552
  0
LINE
  8
0
 10
9.24344
 20
452.552
 11
9.17358
 21
452.337
  0
LINE
  8
0
 10
9.17358
 20
452.337
 11
9.07735
 21
452.133
  0
LINE
  8
0
 10
9.07735
 20
452.133
 11
8.95622
 21
451.942
  0
LINE
  8
0
 10
8.95622
 20
451.942
 11
8.81213
 21
451.768
  0
LINE
  8
0
 10
8.81213
 20
451.768
 11
8.64735
 21
451.613
  0
LINE
  8
0
 10
8.64735
 20
451.613
 11
8.46448
 21
451.48
  0
LINE
  8
0
 10
8.46448
 20
451.48
 11
8.26639
 21
451.371
  0
LINE
  8
0
 10
8.26639
 20
451.371
 11
8.05623
 21
451.288
  0
LINE
  8
0
 10
8.05623
 20
451.288
 11
7.83728
 21
451.232
  0
LINE
  8
0
 10
7.83728
 20
451.232
 11
7.61302
 21
451.204
  0
LINE
  8
0
 10
7.61302
 20
451.204
 11
7.38696
 21
451.204
  0
ENDSEC
  0
SECTION
  2
OBJECTS
  0
DICTIONARY
  0
ENDSEC
  0
EOF
