<?xml version="1.0" standalone="no"?>
<!DOCTYPE svg PUBLIC "-//W3C//DTD SVG 1.1//EN" "http://www.w3.org/Graphics/SVG/1.1/DTD/svg11.dtd">
<svg width="24mm" height="340mm" viewBox="-12 -431 24 340" xmlns="http://www.w3.org/2000/svg" version="1.1">
<title>OpenSCAD Model</title>
<path d="
M 7.1869,-265.589 L 7.79507,-265.745 L 8.37889,-265.976 L 8.92912,-266.278 L 9.43712,-266.647 L 9.89484,-267.077
 L 10.2951,-267.561 L 10.6315,-268.091 L 10.8989,-268.659 L 11.0929,-269.257 L 11.2106,-269.873 L 11.25,-270.5
 L 11.25,-425.5 L 11.2106,-426.127 L 11.0929,-426.743 L 10.8989,-427.341 L 10.6315,-427.909 L 10.2951,-428.439
 L 9.89484,-428.923 L 9.43712,-429.353 L 8.92912,-429.722 L 8.37889,-430.024 L 7.79507,-430.255 L 7.1869,-430.411
 L 6.56395,-430.49 L -6.56395,-430.49 L -7.1869,-430.411 L -7.79507,-430.255 L -8.37889,-430.024 L -8.92912,-429.722
 L -9.43712,-429.353 L -9.89484,-428.923 L -10.2951,-428.439 L -10.6315,-427.909 L -10.8989,-427.341 L -11.0929,-426.743
 L -11.2106,-426.127 L -11.25,-425.5 L -11.25,-270.5 L -11.2106,-269.873 L -11.0929,-269.257 L -10.8989,-268.659
 L -10.6315,-268.091 L -10.2951,-267.561 L -9.89484,-267.077 L -9.43712,-266.647 L -8.92912,-266.278 L -8.37889,-265.976
 L -7.79507,-265.745 L -7.1869,-265.589 L -6.56395,-265.51 L 6.56395,-265.51 z
M 7.1869,-91.5886 L 7.79507,-91.7447 L 8.37889,-91.9759 L 8.92912,-92.2784 L 9.43712,-92.6474 L 9.89484,-93.0773
 L 10.2951,-93.5611 L 10.6315,-94.0912 L 10.8989,-94.6594 L 11.0929,-95.2566 L 11.2106,-95.8733 L 11.25,-96.5
 L 11.25,-251.5 L 11.2106,-252.127 L 11.0929,-252.743 L 10.8989,-253.341 L 10.6315,-253.909 L 10.2951,-254.439
 L 9.89484,-254.923 L 9.43712,-255.353 L 8.92912,-255.722 L 8.37889,-256.024 L 7.79507,-256.255 L 7.1869,-256.411
 L 6.56395,-256.49 L -6.56395,-256.49 L -7.1869,-256.411 L -7.79507,-256.255 L -8.37889,-256.024 L -8.92912,-255.722
 L -9.43712,-255.353 L -9.89484,-254.923 L -10.2951,-254.439 L -10.6315,-253.909 L -10.8989,-253.341 L -11.0929,-252.743
 L -11.2106,-252.127 L -11.25,-251.5 L -11.25,-96.5 L -11.2106,-95.8733 L -11.0929,-95.2566 L -10.8989,-94.6594
 L -10.6315,-94.0912 L -10.2951,-93.5611 L -9.89484,-93.0773 L -9.43712,-92.6474 L -8.92912,-92.2784 L -8.37889,-91.9759
 L -7.79507,-91.7447 L -7.1869,-91.5886 L -6.56395,-91.5099 L 6.56395,-91.5099 z
M 3.63696,-247.204 L 3.4127,-247.232 L 3.19376,-247.288 L 2.9836,-247.371 L 2.78551,-247.48 L 2.60263,-247.613
 L 2.43785,-247.768 L 2.29376,-247.942 L 2.17264,-248.133 L 2.0764,-248.337 L 2.00655,-248.552 L 1.96419,-248.774
 L 1.95,-249 L 1.96419,-249.226 L 2.00655,-249.448 L 2.0764,-249.663 L 2.17264,-249.867 L 2.29376,-250.058
 L 2.43785,-250.232 L 2.60263,-250.387 L 2.78551,-250.52 L 2.9836,-250.629 L 3.19376,-250.712 L 3.4127,-250.768
 L 3.63696,-250.796 L 3.86302,-250.796 L 4.08728,-250.768 L 4.30623,-250.712 L 4.51639,-250.629 L 4.71448,-250.52
 L 4.89735,-250.387 L 5.06213,-250.232 L 5.20622,-250.058 L 5.32735,-249.867 L 5.42358,-249.663 L 5.49344,-249.448
 L 5.5358,-249.226 L 5.54999,-249 L 5.5358,-248.774 L 5.49344,-248.552 L 5.42358,-248.337 L 5.32735,-248.133
 L 5.20622,-247.942 L 5.06213,-247.768 L 4.89735,-247.613 L 4.71448,-247.48 L 4.51639,-247.371 L 4.30623,-247.288
 L 4.08728,-247.232 L 3.86302,-247.204 z
M -3.86302,-247.204 L -4.08728,-247.232 L -4.30623,-247.288 L -4.51639,-247.371 L -4.71448,-247.48 L -4.89735,-247.613
 L -5.06213,-247.768 L -5.20622,-247.942 L -5.32735,-248.133 L -5.42358,-248.337 L -5.49344,-248.552 L -5.5358,-248.774
 L -5.54999,-249 L -5.5358,-249.226 L -5.49344,-249.448 L -5.42358,-249.663 L -5.32735,-249.867 L -5.20622,-250.058
 L -5.06213,-250.232 L -4.89735,-250.387 L -4.71448,-250.52 L -4.51639,-250.629 L -4.30623,-250.712 L -4.08728,-250.768
 L -3.86302,-250.796 L -3.63696,-250.796 L -3.4127,-250.768 L -3.19376,-250.712 L -2.9836,-250.629 L -2.78551,-250.52
 L -2.60263,-250.387 L -2.43785,-250.232 L -2.29376,-250.058 L -2.17264,-249.867 L -2.0764,-249.663 L -2.00655,-249.448
 L -1.96419,-249.226 L -1.95,-249 L -1.96419,-248.774 L -2.00655,-248.552 L -2.0764,-248.337 L -2.17264,-248.133
 L -2.29376,-247.942 L -2.43785,-247.768 L -2.60263,-247.613 L -2.78551,-247.48 L -2.9836,-247.371 L -3.19376,-247.288
 L -3.4127,-247.232 L -3.63696,-247.204 z
M -3.86302,-97.2036 L -4.08728,-97.2319 L -4.30623,-97.2881 L -4.51639,-97.3713 L -4.71448,-97.4802 L -4.89735,-97.6131
 L -5.06213,-97.7678 L -5.20622,-97.942 L -5.32735,-98.1328 L -5.42358,-98.3374 L -5.49344,-98.5524 L -5.5358,-98.7744
 L -5.54999,-99 L -5.5358,-99.2256 L -5.49344,-99.4476 L -5.42358,-99.6626 L -5.32735,-99.8672 L -5.20622,-100.058
 L -5.06213,-100.232 L -4.89735,-100.387 L -4.71448,-100.52 L -4.51639,-100.629 L -4.30623,-100.712 L -4.08728,-100.768
 L -3.86302,-100.796 L -3.63696,-100.796 L -3.4127,-100.768 L -3.19376,-100.712 L -2.9836,-100.629 L -2.78551,-100.52
 L -2.60263,-100.387 L -2.43785,-100.232 L -2.29376,-100.058 L -2.17264,-99.8672 L -2.0764,-99.6626 L -2.00655,-99.4476
 L -1.96419,-99.2256 L -1.95,-99 L -1.96419,-98.7744 L -2.00655,-98.5524 L -2.0764,-98.3374 L -2.17264,-98.1328
 L -2.29376,-97.942 L -2.43785,-97.7678 L -2.60263,-97.6131 L -2.78551,-97.4802 L -2.9836,-97.3713 L -3.19376,-97.2881
 L -3.4127,-97.2319 L -3.63696,-97.2036 z
M 3.63696,-97.2036 L 3.4127,-97.2319 L 3.19376,-97.2881 L 2.9836,-97.3713 L 2.78551,-97.4802 L 2.60263,-97.6131
 L 2.43785,-97.7678 L 2.29376,-97.942 L 2.17264,-98.1328 L 2.0764,-98.3374 L 2.00655,-98.5524 L 1.96419,-98.7744
 L 1.95,-99 L 1.96419,-99.2256 L 2.00655,-99.4476 L 2.0764,-99.6626 L 2.17264,-99.8672 L 2.29376,-100.058
 L 2.43785,-100.232 L 2.60263,-100.387 L 2.78551,-100.52 L 2.9836,-100.629 L 3.19376,-100.712 L 3.4127,-100.768
 L 3.63696,-100.796 L 3.86302,-100.796 L 4.08728,-100.768 L 4.30623,-100.712 L 4.51639,-100.629 L 4.71448,-100.52
 L 4.89735,-100.387 L 5.06213,-100.232 L 5.20622,-100.058 L 5.32735,-99.8672 L 5.42358,-99.6626 L 5.49344,-99.4476
 L 5.5358,-99.2256 L 5.54999,-99 L 5.5358,-98.7744 L 5.49344,-98.5524 L 5.42358,-98.3374 L 5.32735,-98.1328
 L 5.20622,-97.942 L 5.06213,-97.7678 L 4.89735,-97.6131 L 4.71448,-97.4802 L 4.51639,-97.3713 L 4.30623,-97.2881
 L 4.08728,-97.2319 L 3.86302,-97.2036 z
" stroke="black" fill="lightgray" stroke-width="0.5"/>
</svg>
