<?xml version="1.0" standalone="no"?>
<!DOCTYPE svg PUBLIC "-//W3C//DTD SVG 1.1//EN" "http://www.w3.org/Graphics/SVG/1.1/DTD/svg11.dtd">
<svg width="76mm" height="558mm" viewBox="-38 -468 76 558" xmlns="http://www.w3.org/2000/svg" version="1.1">
<title>OpenSCAD Model</title>
<path d="
M -34.5,-288.425 L -34.0451,-288.245 L -33.4369,-288.089 L -32.8139,-288.01 L 32.8139,-288.01 L 33.4369,-288.089
 L 34.0451,-288.245 L 34.6289,-288.476 L 35.1791,-288.778 L 35.6871,-289.147 L 36.1448,-289.577 L 36.5451,-290.061
 L 36.8815,-290.591 L 37.1489,-291.159 L 37.3429,-291.757 L 37.4606,-292.373 L 37.5,-293 L 37.5,-463
 L 37.4606,-463.627 L 37.3429,-464.243 L 37.1489,-464.841 L 36.8815,-465.409 L 36.5451,-465.939 L 36.1448,-466.423
 L 35.6871,-466.853 L 35.1791,-467.222 L 34.6289,-467.524 L 34.0451,-467.755 L 33.4369,-467.911 L 32.8139,-467.99
 L -32.8139,-467.99 L -33.4369,-467.911 L -34.0451,-467.755 L -34.5,-467.575 L -34.5,-467.99 L -37.5,-467.99
 L -37.5,-288.01 L -34.5,-288.01 z
M 29.8493,-458.105 L 29.5503,-458.143 L 29.2583,-458.217 L 28.9781,-458.328 L 28.714,-458.474 L 28.4702,-458.651
 L 28.2505,-458.857 L 28.0583,-459.089 L 27.8969,-459.344 L 27.7685,-459.617 L 27.6754,-459.903 L 27.6189,-460.199
 L 27.6,-460.5 L 27.6189,-460.801 L 27.6754,-461.097 L 27.7685,-461.383 L 27.8969,-461.656 L 28.0583,-461.911
 L 28.2505,-462.143 L 28.4702,-462.349 L 28.714,-462.526 L 28.9781,-462.672 L 29.2583,-462.783 L 29.5503,-462.857
 L 29.8493,-462.895 L 30.1507,-462.895 L 30.4497,-462.857 L 30.7416,-462.783 L 31.0219,-462.672 L 31.286,-462.526
 L 31.5298,-462.349 L 31.7495,-462.143 L 31.9416,-461.911 L 32.1031,-461.656 L 32.2315,-461.383 L 32.3246,-461.097
 L 32.3811,-460.801 L 32.4,-460.5 L 32.3811,-460.199 L 32.3246,-459.903 L 32.2315,-459.617 L 32.1031,-459.344
 L 31.9416,-459.089 L 31.7495,-458.857 L 31.5298,-458.651 L 31.286,-458.474 L 31.0219,-458.328 L 30.7416,-458.217
 L 30.4497,-458.143 L 30.1507,-458.105 z
M -30.1507,-458.105 L -30.4497,-458.143 L -30.7416,-458.217 L -31.0219,-458.328 L -31.286,-458.474 L -31.5298,-458.651
 L -31.7495,-458.857 L -31.9416,-459.089 L -32.1031,-459.344 L -32.2315,-459.617 L -32.3246,-459.903 L -32.3811,-460.199
 L -32.4,-460.5 L -32.3811,-460.801 L -32.3246,-461.097 L -32.2315,-461.383 L -32.1031,-461.656 L -31.9416,-461.911
 L -31.7495,-462.143 L -31.5298,-462.349 L -31.286,-462.526 L -31.0219,-462.672 L -30.7416,-462.783 L -30.4497,-462.857
 L -30.1507,-462.895 L -29.8493,-462.895 L -29.5503,-462.857 L -29.2583,-462.783 L -28.9781,-462.672 L -28.714,-462.526
 L -28.4702,-462.349 L -28.2505,-462.143 L -28.0583,-461.911 L -27.8969,-461.656 L -27.7685,-461.383 L -27.6754,-461.097
 L -27.6189,-460.801 L -27.6,-460.5 L -27.6189,-460.199 L -27.6754,-459.903 L -27.7685,-459.617 L -27.8969,-459.344
 L -28.0583,-459.089 L -28.2505,-458.857 L -28.4702,-458.651 L -28.714,-458.474 L -28.9781,-458.328 L -29.2583,-458.217
 L -29.5503,-458.143 L -29.8493,-458.105 z
M 29.8493,-293.105 L 29.5503,-293.143 L 29.2583,-293.217 L 28.9781,-293.328 L 28.714,-293.474 L 28.4702,-293.651
 L 28.2505,-293.857 L 28.0583,-294.089 L 27.8969,-294.344 L 27.7685,-294.617 L 27.6754,-294.903 L 27.6189,-295.199
 L 27.6,-295.5 L 27.6189,-295.801 L 27.6754,-296.097 L 27.7685,-296.383 L 27.8969,-296.656 L 28.0583,-296.911
 L 28.2505,-297.143 L 28.4702,-297.349 L 28.714,-297.526 L 28.9781,-297.672 L 29.2583,-297.783 L 29.5503,-297.857
 L 29.8493,-297.895 L 30.1507,-297.895 L 30.4497,-297.857 L 30.7416,-297.783 L 31.0219,-297.672 L 31.286,-297.526
 L 31.5298,-297.349 L 31.7495,-297.143 L 31.9416,-296.911 L 32.1031,-296.656 L 32.2315,-296.383 L 32.3246,-296.097
 L 32.3811,-295.801 L 32.4,-295.5 L 32.3811,-295.199 L 32.3246,-294.903 L 32.2315,-294.617 L 32.1031,-294.344
 L 31.9416,-294.089 L 31.7495,-293.857 L 31.5298,-293.651 L 31.286,-293.474 L 31.0219,-293.328 L 30.7416,-293.217
 L 30.4497,-293.143 L 30.1507,-293.105 z
M -30.1507,-293.105 L -30.4497,-293.143 L -30.7416,-293.217 L -31.0219,-293.328 L -31.286,-293.474 L -31.5298,-293.651
 L -31.7495,-293.857 L -31.9416,-294.089 L -32.1031,-294.344 L -32.2315,-294.617 L -32.3246,-294.903 L -32.3811,-295.199
 L -32.4,-295.5 L -32.3811,-295.801 L -32.3246,-296.097 L -32.2315,-296.383 L -32.1031,-296.656 L -31.9416,-296.911
 L -31.7495,-297.143 L -31.5298,-297.349 L -31.286,-297.526 L -31.0219,-297.672 L -30.7416,-297.783 L -30.4497,-297.857
 L -30.1507,-297.895 L -29.8493,-297.895 L -29.5503,-297.857 L -29.2583,-297.783 L -28.9781,-297.672 L -28.714,-297.526
 L -28.4702,-297.349 L -28.2505,-297.143 L -28.0583,-296.911 L -27.8969,-296.656 L -27.7685,-296.383 L -27.6754,-296.097
 L -27.6189,-295.801 L -27.6,-295.5 L -27.6189,-295.199 L -27.6754,-294.903 L -27.7685,-294.617 L -27.8969,-294.344
 L -28.0583,-294.089 L -28.2505,-293.857 L -28.4702,-293.651 L -28.714,-293.474 L -28.9781,-293.328 L -29.2583,-293.217
 L -29.5503,-293.143 L -29.8493,-293.105 z
M -34.5,-99.4248 L -34.0451,-99.2447 L -33.4369,-99.0886 L -32.8139,-99.0099 L 32.8139,-99.0099 L 33.4369,-99.0886
 L 34.0451,-99.2447 L 34.6289,-99.4759 L 35.1791,-99.7784 L 35.6871,-100.147 L 36.1448,-100.577 L 36.5451,-101.061
 L 36.8815,-101.591 L 37.1489,-102.159 L 37.3429,-102.757 L 37.4606,-103.373 L 37.5,-104 L 37.5,-274
 L 37.4606,-274.627 L 37.3429,-275.243 L 37.1489,-275.841 L 36.8815,-276.409 L 36.5451,-276.939 L 36.1448,-277.423
 L 35.6871,-277.853 L 35.1791,-278.222 L 34.6289,-278.524 L 34.0451,-278.755 L 33.4369,-278.911 L 32.8139,-278.99
 L -32.8139,-278.99 L -33.4369,-278.911 L -34.0451,-278.755 L -34.5,-278.575 L -34.5,-278.99 L -37.5,-278.99
 L -37.5,-99.0099 L -34.5,-99.0099 z
M -30.113,-269.704 L -30.3373,-269.732 L -30.5562,-269.788 L -30.7664,-269.871 L -30.9645,-269.98 L -31.1474,-270.113
 L -31.3121,-270.268 L -31.4562,-270.442 L -31.5773,-270.633 L -31.6736,-270.837 L -31.7434,-271.052 L -31.7858,-271.274
 L -31.8,-271.5 L -31.7858,-271.726 L -31.7434,-271.948 L -31.6736,-272.163 L -31.5773,-272.367 L -31.4562,-272.558
 L -31.3121,-272.732 L -31.1474,-272.887 L -30.9645,-273.02 L -30.7664,-273.129 L -30.5562,-273.212 L -30.3373,-273.268
 L -30.113,-273.296 L -29.887,-273.296 L -29.6627,-273.268 L -29.4438,-273.212 L -29.2336,-273.129 L -29.0355,-273.02
 L -28.8526,-272.887 L -28.6879,-272.732 L -28.5438,-272.558 L -28.4226,-272.367 L -28.3264,-272.163 L -28.2565,-271.948
 L -28.2142,-271.726 L -28.2,-271.5 L -28.2142,-271.274 L -28.2565,-271.052 L -28.3264,-270.837 L -28.4226,-270.633
 L -28.5438,-270.442 L -28.6879,-270.268 L -28.8526,-270.113 L -29.0355,-269.98 L -29.2336,-269.871 L -29.4438,-269.788
 L -29.6627,-269.732 L -29.887,-269.704 z
M 29.887,-269.704 L 29.6627,-269.732 L 29.4438,-269.788 L 29.2336,-269.871 L 29.0355,-269.98 L 28.8526,-270.113
 L 28.6879,-270.268 L 28.5438,-270.442 L 28.4226,-270.633 L 28.3264,-270.837 L 28.2565,-271.052 L 28.2142,-271.274
 L 28.2,-271.5 L 28.2142,-271.726 L 28.2565,-271.948 L 28.3264,-272.163 L 28.4226,-272.367 L 28.5438,-272.558
 L 28.6879,-272.732 L 28.8526,-272.887 L 29.0355,-273.02 L 29.2336,-273.129 L 29.4438,-273.212 L 29.6627,-273.268
 L 29.887,-273.296 L 30.113,-273.296 L 30.3373,-273.268 L 30.5562,-273.212 L 30.7664,-273.129 L 30.9645,-273.02
 L 31.1474,-272.887 L 31.3121,-272.732 L 31.4562,-272.558 L 31.5773,-272.367 L 31.6736,-272.163 L 31.7434,-271.948
 L 31.7858,-271.726 L 31.8,-271.5 L 31.7858,-271.274 L 31.7434,-271.052 L 31.6736,-270.837 L 31.5773,-270.633
 L 31.4562,-270.442 L 31.3121,-270.268 L 31.1474,-270.113 L 30.9645,-269.98 L 30.7664,-269.871 L 30.5562,-269.788
 L 30.3373,-269.732 L 30.113,-269.704 z
M -30.113,-104.704 L -30.3373,-104.732 L -30.5562,-104.788 L -30.7664,-104.871 L -30.9645,-104.98 L -31.1474,-105.113
 L -31.3121,-105.268 L -31.4562,-105.442 L -31.5773,-105.633 L -31.6736,-105.837 L -31.7434,-106.052 L -31.7858,-106.274
 L -31.8,-106.5 L -31.7858,-106.726 L -31.7434,-106.948 L -31.6736,-107.163 L -31.5773,-107.367 L -31.4562,-107.558
 L -31.3121,-107.732 L -31.1474,-107.887 L -30.9645,-108.02 L -30.7664,-108.129 L -30.5562,-108.212 L -30.3373,-108.268
 L -30.113,-108.296 L -29.887,-108.296 L -29.6627,-108.268 L -29.4438,-108.212 L -29.2336,-108.129 L -29.0355,-108.02
 L -28.8526,-107.887 L -28.6879,-107.732 L -28.5438,-107.558 L -28.4226,-107.367 L -28.3264,-107.163 L -28.2565,-106.948
 L -28.2142,-106.726 L -28.2,-106.5 L -28.2142,-106.274 L -28.2565,-106.052 L -28.3264,-105.837 L -28.4226,-105.633
 L -28.5438,-105.442 L -28.6879,-105.268 L -28.8526,-105.113 L -29.0355,-104.98 L -29.2336,-104.871 L -29.4438,-104.788
 L -29.6627,-104.732 L -29.887,-104.704 z
M 29.887,-104.704 L 29.6627,-104.732 L 29.4438,-104.788 L 29.2336,-104.871 L 29.0355,-104.98 L 28.8526,-105.113
 L 28.6879,-105.268 L 28.5438,-105.442 L 28.4226,-105.633 L 28.3264,-105.837 L 28.2565,-106.052 L 28.2142,-106.274
 L 28.2,-106.5 L 28.2142,-106.726 L 28.2565,-106.948 L 28.3264,-107.163 L 28.4226,-107.367 L 28.5438,-107.558
 L 28.6879,-107.732 L 28.8526,-107.887 L 29.0355,-108.02 L 29.2336,-108.129 L 29.4438,-108.212 L 29.6627,-108.268
 L 29.887,-108.296 L 30.113,-108.296 L 30.3373,-108.268 L 30.5562,-108.212 L 30.7664,-108.129 L 30.9645,-108.02
 L 31.1474,-107.887 L 31.3121,-107.732 L 31.4562,-107.558 L 31.5773,-107.367 L 31.6736,-107.163 L 31.7434,-106.948
 L 31.7858,-106.726 L 31.8,-106.5 L 31.7858,-106.274 L 31.7434,-106.052 L 31.6736,-105.837 L 31.5773,-105.633
 L 31.4562,-105.442 L 31.3121,-105.268 L 31.1474,-105.113 L 30.9645,-104.98 L 30.7664,-104.871 L 30.5562,-104.788
 L 30.3373,-104.732 L 30.113,-104.704 z
M -34.5,-89.6148 L -37.5,-89.6148 L -37.5,89.6148 L -34.5,89.6148 z
" stroke="black" fill="lightgray" stroke-width="0.5"/>
</svg>
