<?xml version="1.0" standalone="no"?>
<!DOCTYPE svg PUBLIC "-//W3C//DTD SVG 1.1//EN" "http://www.w3.org/Graphics/SVG/1.1/DTD/svg11.dtd">
<svg width="180mm" height="400mm" viewBox="-90 -710 180 400" xmlns="http://www.w3.org/2000/svg" version="1.1">
<title>OpenSCAD Model</title>
<path d="
M 85.9369,-514.589 L 86.5451,-514.745 L 87.1289,-514.976 L 87.6791,-515.278 L 88.1871,-515.647 L 88.6448,-516.077
 L 89.0451,-516.561 L 89.3815,-517.091 L 89.6489,-517.659 L 89.8429,-518.257 L 89.9606,-518.873 L 90,-519.5
 L 90,-704.5 L 89.9606,-705.127 L 89.8429,-705.743 L 89.6489,-706.341 L 89.3815,-706.909 L 89.0451,-707.439
 L 88.6448,-707.923 L 88.1871,-708.353 L 87.6791,-708.722 L 87.1289,-709.024 L 86.5451,-709.255 L 85.9369,-709.411
 L 85.3139,-709.49 L -85.3139,-709.49 L -85.9369,-709.411 L -86.5451,-709.255 L -87.1289,-709.024 L -87.6791,-708.722
 L -88.1871,-708.353 L -88.6448,-707.923 L -89.0451,-707.439 L -89.3815,-706.909 L -89.6489,-706.341 L -89.8429,-705.743
 L -89.9606,-705.127 L -90,-704.5 L -90,-519.5 L -89.9606,-518.873 L -89.8429,-518.257 L -89.6489,-517.659
 L -89.3815,-517.091 L -89.0451,-516.561 L -88.6448,-516.077 L -88.1871,-515.647 L -87.6791,-515.278 L -87.1289,-514.976
 L -86.5451,-514.745 L -85.9369,-514.589 L -85.3139,-514.51 L 85.3139,-514.51 z
M -84.6955,-516.893 L -85.0833,-516.942 L -85.4619,-517.039 L -85.8254,-517.183 L -86.168,-517.372 L -86.4843,-517.601
 L -86.7692,-517.869 L -87.0184,-518.17 L -87.2279,-518.5 L -87.3943,-518.854 L -87.5151,-519.226 L -87.5884,-519.61
 L -87.6129,-520 L -87.6129,-704 L -87.5884,-704.39 L -87.5151,-704.774 L -87.3943,-705.146 L -87.2279,-705.5
 L -87.0184,-705.83 L -86.7692,-706.131 L -86.4843,-706.399 L -86.168,-706.628 L -85.8254,-706.817 L -85.4619,-706.961
 L -85.0833,-707.058 L -84.6955,-707.107 L 84.6955,-707.107 L 85.0833,-707.058 L 85.4619,-706.961 L 85.8254,-706.817
 L 86.168,-706.628 L 86.4843,-706.399 L 86.7692,-706.131 L 87.0184,-705.83 L 87.2279,-705.5 L 87.3943,-705.146
 L 87.5151,-704.774 L 87.5884,-704.39 L 87.6129,-704 L 87.6129,-520 L 87.5884,-519.61 L 87.5151,-519.226
 L 87.3943,-518.854 L 87.2279,-518.5 L 87.0184,-518.17 L 86.7692,-517.869 L 86.4843,-517.601 L 86.168,-517.372
 L 85.8254,-517.183 L 85.4619,-517.039 L 85.0833,-516.942 L 84.6955,-516.893 z
M 85.9369,-310.589 L 86.5451,-310.745 L 87.1289,-310.976 L 87.6791,-311.278 L 88.1871,-311.647 L 88.6448,-312.077
 L 89.0451,-312.561 L 89.3815,-313.091 L 89.6489,-313.659 L 89.8429,-314.257 L 89.9606,-314.873 L 90,-315.5
 L 90,-500.5 L 89.9606,-501.127 L 89.8429,-501.743 L 89.6489,-502.341 L 89.3815,-502.909 L 89.0451,-503.439
 L 88.6448,-503.923 L 88.1871,-504.353 L 87.6791,-504.722 L 87.1289,-505.024 L 86.5451,-505.255 L 85.9369,-505.411
 L 85.3139,-505.49 L -85.3139,-505.49 L -85.9369,-505.411 L -86.5451,-505.255 L -87.1289,-505.024 L -87.6791,-504.722
 L -88.1871,-504.353 L -88.6448,-503.923 L -89.0451,-503.439 L -89.3815,-502.909 L -89.6489,-502.341 L -89.8429,-501.743
 L -89.9606,-501.127 L -90,-500.5 L -90,-315.5 L -89.9606,-314.873 L -89.8429,-314.257 L -89.6489,-313.659
 L -89.3815,-313.091 L -89.0451,-312.561 L -88.6448,-312.077 L -88.1871,-311.647 L -87.6791,-311.278 L -87.1289,-310.976
 L -86.5451,-310.745 L -85.9369,-310.589 L -85.3139,-310.51 L 85.3139,-310.51 z
M 82.3659,-495.869 L 82.0999,-495.903 L 81.8401,-495.969 L 81.5908,-496.068 L 81.3559,-496.197 L 81.1389,-496.355
 L 80.9434,-496.538 L 80.7725,-496.745 L 80.6288,-496.971 L 80.5146,-497.214 L 80.4318,-497.469 L 80.3815,-497.732
 L 80.3647,-498 L 80.3815,-498.268 L 80.4318,-498.531 L 80.5146,-498.786 L 80.6288,-499.029 L 80.7725,-499.255
 L 80.9434,-499.462 L 81.1389,-499.645 L 81.3559,-499.803 L 81.5908,-499.932 L 81.8401,-500.031 L 82.0999,-500.097
 L 82.3659,-500.131 L 82.6341,-500.131 L 82.9001,-500.097 L 83.1598,-500.031 L 83.4092,-499.932 L 83.6441,-499.803
 L 83.8611,-499.645 L 84.0566,-499.462 L 84.2275,-499.255 L 84.3712,-499.029 L 84.4853,-498.786 L 84.5682,-498.531
 L 84.6185,-498.268 L 84.6353,-498 L 84.6185,-497.732 L 84.5682,-497.469 L 84.4853,-497.214 L 84.3712,-496.971
 L 84.2275,-496.745 L 84.0566,-496.538 L 83.8611,-496.355 L 83.6441,-496.197 L 83.4092,-496.068 L 83.1598,-495.969
 L 82.9001,-495.903 L 82.6341,-495.869 z
M -82.6341,-495.869 L -82.9001,-495.903 L -83.1598,-495.969 L -83.4092,-496.068 L -83.6441,-496.197 L -83.8611,-496.355
 L -84.0566,-496.538 L -84.2275,-496.745 L -84.3712,-496.971 L -84.4853,-497.214 L -84.5682,-497.469 L -84.6185,-497.732
 L -84.6353,-498 L -84.6185,-498.268 L -84.5682,-498.531 L -84.4853,-498.786 L -84.3712,-499.029 L -84.2275,-499.255
 L -84.0566,-499.462 L -83.8611,-499.645 L -83.6441,-499.803 L -83.4092,-499.932 L -83.1598,-500.031 L -82.9001,-500.097
 L -82.6341,-500.131 L -82.3659,-500.131 L -82.0999,-500.097 L -81.8401,-500.031 L -81.5908,-499.932 L -81.3559,-499.803
 L -81.1389,-499.645 L -80.9434,-499.462 L -80.7725,-499.255 L -80.6288,-499.029 L -80.5146,-498.786 L -80.4318,-498.531
 L -80.3815,-498.268 L -80.3647,-498 L -80.3815,-497.732 L -80.4318,-497.469 L -80.5146,-497.214 L -80.6288,-496.971
 L -80.7725,-496.745 L -80.9434,-496.538 L -81.1389,-496.355 L -81.3559,-496.197 L -81.5908,-496.068 L -81.8401,-495.969
 L -82.0999,-495.903 L -82.3659,-495.869 z
M 82.3659,-315.869 L 82.0999,-315.903 L 81.8401,-315.969 L 81.5908,-316.068 L 81.3559,-316.197 L 81.1389,-316.355
 L 80.9434,-316.538 L 80.7725,-316.745 L 80.6288,-316.971 L 80.5146,-317.214 L 80.4318,-317.469 L 80.3815,-317.732
 L 80.3647,-318 L 80.3815,-318.268 L 80.4318,-318.531 L 80.5146,-318.786 L 80.6288,-319.029 L 80.7725,-319.255
 L 80.9434,-319.462 L 81.1389,-319.645 L 81.3559,-319.803 L 81.5908,-319.932 L 81.8401,-320.031 L 82.0999,-320.097
 L 82.3659,-320.131 L 82.6341,-320.131 L 82.9001,-320.097 L 83.1598,-320.031 L 83.4092,-319.932 L 83.6441,-319.803
 L 83.8611,-319.645 L 84.0566,-319.462 L 84.2275,-319.255 L 84.3712,-319.029 L 84.4853,-318.786 L 84.5682,-318.531
 L 84.6185,-318.268 L 84.6353,-318 L 84.6185,-317.732 L 84.5682,-317.469 L 84.4853,-317.214 L 84.3712,-316.971
 L 84.2275,-316.745 L 84.0566,-316.538 L 83.8611,-316.355 L 83.6441,-316.197 L 83.4092,-316.068 L 83.1598,-315.969
 L 82.9001,-315.903 L 82.6341,-315.869 z
M -82.6341,-315.869 L -82.9001,-315.903 L -83.1598,-315.969 L -83.4092,-316.068 L -83.6441,-316.197 L -83.8611,-316.355
 L -84.0566,-316.538 L -84.2275,-316.745 L -84.3712,-316.971 L -84.4853,-317.214 L -84.5682,-317.469 L -84.6185,-317.732
 L -84.6353,-318 L -84.6185,-318.268 L -84.5682,-318.531 L -84.4853,-318.786 L -84.3712,-319.029 L -84.2275,-319.255
 L -84.0566,-319.462 L -83.8611,-319.645 L -83.6441,-319.803 L -83.4092,-319.932 L -83.1598,-320.031 L -82.9001,-320.097
 L -82.6341,-320.131 L -82.3659,-320.131 L -82.0999,-320.097 L -81.8401,-320.031 L -81.5908,-319.932 L -81.3559,-319.803
 L -81.1389,-319.645 L -80.9434,-319.462 L -80.7725,-319.255 L -80.6288,-319.029 L -80.5146,-318.786 L -80.4318,-318.531
 L -80.3815,-318.268 L -80.3647,-318 L -80.3815,-317.732 L -80.4318,-317.469 L -80.5146,-317.214 L -80.6288,-316.971
 L -80.7725,-316.745 L -80.9434,-316.538 L -81.1389,-316.355 L -81.3559,-316.197 L -81.5908,-316.068 L -81.8401,-315.969
 L -82.0999,-315.903 L -82.3659,-315.869 z
" stroke="black" fill="lightgray" stroke-width="0.5"/>
</svg>
