solid OpenSCAD_Model
  facet normal 0.998026 0.0628001 -9.47935e-19
    outer loop
      vertex 18.5 0 4
      vertex 18.3541 2.31866 0
      vertex 18.3541 2.31866 4
    endloop
  endfacet
  facet normal 0.998026 0.0628001 -9.47935e-19
    outer loop
      vertex 18.3541 2.31866 0
      vertex 18.5 0 4
      vertex 18.5 0 0
    endloop
  endfacet
  facet normal -0.998026 0.0628001 9.47935e-19
    outer loop
      vertex -18.5 0 0
      vertex -18.3541 2.31866 4
      vertex -18.3541 2.31866 0
    endloop
  endfacet
  facet normal -0.998026 0.0628001 9.47935e-19
    outer loop
      vertex -18.3541 2.31866 4
      vertex -18.5 0 0
      vertex -18.5 0 4
    endloop
  endfacet
  facet normal 0 1 -0
    outer loop
      vertex 1.16162 18.4635 0
      vertex -1.16162 18.4635 4
      vertex 1.16162 18.4635 4
    endloop
  endfacet
  facet normal 0 1 0
    outer loop
      vertex -1.16162 18.4635 4
      vertex 1.16162 18.4635 0
      vertex -1.16162 18.4635 0
    endloop
  endfacet
  facet normal 0 -1 0
    outer loop
      vertex -1.16162 -18.4635 0
      vertex 1.16162 -18.4635 4
      vertex -1.16162 -18.4635 4
    endloop
  endfacet
  facet normal 0 -1 -0
    outer loop
      vertex 1.16162 -18.4635 4
      vertex -1.16162 -18.4635 0
      vertex 1.16162 -18.4635 0
    endloop
  endfacet
  facet normal 0.684548 0.728968 -0
    outer loop
      vertex 13.4859 12.6641 0
      vertex 11.7923 14.2545 4
      vertex 13.4859 12.6641 4
    endloop
  endfacet
  facet normal 0.684548 0.728968 0
    outer loop
      vertex 11.7923 14.2545 4
      vertex 13.4859 12.6641 0
      vertex 11.7923 14.2545 0
    endloop
  endfacet
  facet normal -0.684548 0.728968 0
    outer loop
      vertex -11.7923 14.2545 0
      vertex -13.4859 12.6641 4
      vertex -11.7923 14.2545 4
    endloop
  endfacet
  facet normal -0.684548 0.728968 0
    outer loop
      vertex -13.4859 12.6641 4
      vertex -11.7923 14.2545 0
      vertex -13.4859 12.6641 0
    endloop
  endfacet
  facet normal -0.368107 0.929784 0
    outer loop
      vertex -5.71681 17.5945 0
      vertex -7.87692 16.7393 4
      vertex -5.71681 17.5945 4
    endloop
  endfacet
  facet normal -0.368107 0.929784 0
    outer loop
      vertex -7.87692 16.7393 4
      vertex -5.71681 17.5945 0
      vertex -7.87692 16.7393 0
    endloop
  endfacet
  facet normal 0.904826 0.425782 4.76007e-18
    outer loop
      vertex 17.2009 6.8103 4
      vertex 16.2117 8.91244 0
      vertex 16.2117 8.91244 4
    endloop
  endfacet
  facet normal 0.904826 0.425782 4.76007e-18
    outer loop
      vertex 16.2117 8.91244 0
      vertex 17.2009 6.8103 4
      vertex 17.2009 6.8103 0
    endloop
  endfacet
  facet normal 0.844317 0.535844 -2.33337e-20
    outer loop
      vertex 16.2117 8.91244 4
      vertex 14.9668 10.874 0
      vertex 14.9668 10.874 4
    endloop
  endfacet
  facet normal 0.844317 0.535844 -2.33337e-20
    outer loop
      vertex 14.9668 10.874 0
      vertex 16.2117 8.91244 4
      vertex 16.2117 8.91244 0
    endloop
  endfacet
  facet normal 0.368107 0.929784 -0
    outer loop
      vertex 7.87692 16.7393 0
      vertex 5.71681 17.5945 4
      vertex 7.87692 16.7393 4
    endloop
  endfacet
  facet normal 0.368107 0.929784 0
    outer loop
      vertex 5.71681 17.5945 4
      vertex 7.87692 16.7393 0
      vertex 5.71681 17.5945 0
    endloop
  endfacet
  facet normal 0.481742 0.876313 -0
    outer loop
      vertex 9.9128 15.6201 0
      vertex 7.87692 16.7393 4
      vertex 9.9128 15.6201 4
    endloop
  endfacet
  facet normal 0.481742 0.876313 0
    outer loop
      vertex 7.87692 16.7393 4
      vertex 9.9128 15.6201 0
      vertex 7.87692 16.7393 0
    endloop
  endfacet
  facet normal -0.904826 0.425782 -4.76007e-18
    outer loop
      vertex -17.2009 6.8103 0
      vertex -16.2117 8.91244 4
      vertex -16.2117 8.91244 0
    endloop
  endfacet
  facet normal -0.904826 0.425782 -4.76007e-18
    outer loop
      vertex -16.2117 8.91244 4
      vertex -17.2009 6.8103 0
      vertex -17.2009 6.8103 4
    endloop
  endfacet
  facet normal -0.770513 0.637424 -1.08735e-17
    outer loop
      vertex -14.9668 10.874 0
      vertex -13.4859 12.6641 4
      vertex -13.4859 12.6641 0
    endloop
  endfacet
  facet normal -0.770513 0.637424 -1.08735e-17
    outer loop
      vertex -13.4859 12.6641 4
      vertex -14.9668 10.874 0
      vertex -14.9668 10.874 4
    endloop
  endfacet
  facet normal -0.951059 0.309008 -1.16552e-17
    outer loop
      vertex -17.9188 4.60076 0
      vertex -17.2009 6.8103 4
      vertex -17.2009 6.8103 0
    endloop
  endfacet
  facet normal -0.951059 0.309008 -1.16552e-17
    outer loop
      vertex -17.2009 6.8103 4
      vertex -17.9188 4.60076 0
      vertex -17.9188 4.60076 4
    endloop
  endfacet
  facet normal -0.248703 0.96858 0
    outer loop
      vertex -3.46655 18.1723 0
      vertex -5.71681 17.5945 4
      vertex -3.46655 18.1723 4
    endloop
  endfacet
  facet normal -0.248703 0.96858 0
    outer loop
      vertex -5.71681 17.5945 4
      vertex -3.46655 18.1723 0
      vertex -5.71681 17.5945 0
    endloop
  endfacet
  facet normal 0.951059 0.309008 1.16552e-17
    outer loop
      vertex 17.9188 4.60076 4
      vertex 17.2009 6.8103 0
      vertex 17.2009 6.8103 4
    endloop
  endfacet
  facet normal 0.951059 0.309008 1.16552e-17
    outer loop
      vertex 17.2009 6.8103 0
      vertex 17.9188 4.60076 4
      vertex 17.9188 4.60076 0
    endloop
  endfacet
  facet normal 0.98229 0.187367 4.35175e-18
    outer loop
      vertex 18.3541 2.31866 4
      vertex 17.9188 4.60076 0
      vertex 17.9188 4.60076 4
    endloop
  endfacet
  facet normal 0.98229 0.187367 4.35175e-18
    outer loop
      vertex 17.9188 4.60076 0
      vertex 18.3541 2.31866 4
      vertex 18.3541 2.31866 0
    endloop
  endfacet
  facet normal 0.770513 0.637424 1.08735e-17
    outer loop
      vertex 14.9668 10.874 4
      vertex 13.4859 12.6641 0
      vertex 13.4859 12.6641 4
    endloop
  endfacet
  facet normal 0.770513 0.637424 1.08735e-17
    outer loop
      vertex 13.4859 12.6641 0
      vertex 14.9668 10.874 4
      vertex 14.9668 10.874 0
    endloop
  endfacet
  facet normal 0.248703 0.96858 -0
    outer loop
      vertex 5.71681 17.5945 0
      vertex 3.46655 18.1723 4
      vertex 5.71681 17.5945 4
    endloop
  endfacet
  facet normal 0.248703 0.96858 0
    outer loop
      vertex 3.46655 18.1723 4
      vertex 5.71681 17.5945 0
      vertex 3.46655 18.1723 0
    endloop
  endfacet
  facet normal 0.125342 0.992114 -0
    outer loop
      vertex 3.46655 18.1723 0
      vertex 1.16162 18.4635 4
      vertex 3.46655 18.1723 4
    endloop
  endfacet
  facet normal 0.125342 0.992114 0
    outer loop
      vertex 1.16162 18.4635 4
      vertex 3.46655 18.1723 0
      vertex 1.16162 18.4635 0
    endloop
  endfacet
  facet normal 0.587803 0.809004 -0
    outer loop
      vertex 11.7923 14.2545 0
      vertex 9.9128 15.6201 4
      vertex 11.7923 14.2545 4
    endloop
  endfacet
  facet normal 0.587803 0.809004 0
    outer loop
      vertex 9.9128 15.6201 4
      vertex 11.7923 14.2545 0
      vertex 9.9128 15.6201 0
    endloop
  endfacet
  facet normal -0.844317 0.535844 2.33337e-20
    outer loop
      vertex -16.2117 8.91244 0
      vertex -14.9668 10.874 4
      vertex -14.9668 10.874 0
    endloop
  endfacet
  facet normal -0.844317 0.535844 2.33337e-20
    outer loop
      vertex -14.9668 10.874 4
      vertex -16.2117 8.91244 0
      vertex -16.2117 8.91244 4
    endloop
  endfacet
  facet normal -0.98229 0.187367 -4.35175e-18
    outer loop
      vertex -18.3541 2.31866 0
      vertex -17.9188 4.60076 4
      vertex -17.9188 4.60076 0
    endloop
  endfacet
  facet normal -0.98229 0.187367 -4.35175e-18
    outer loop
      vertex -17.9188 4.60076 4
      vertex -18.3541 2.31866 0
      vertex -18.3541 2.31866 4
    endloop
  endfacet
  facet normal 0 0 1
    outer loop
      vertex 15 0 4
      vertex 18.5 0 4
      vertex 18.3541 2.31866 4
    endloop
  endfacet
  facet normal 0 0 1
    outer loop
      vertex 14.8817 1.88 4
      vertex 18.3541 2.31866 4
      vertex 17.9188 4.60076 4
    endloop
  endfacet
  facet normal 0 0 1
    outer loop
      vertex 18.5 0 4
      vertex 15 0 4
      vertex 18.3541 -2.31866 4
    endloop
  endfacet
  facet normal 0 0 1
    outer loop
      vertex 14.5287 3.73035 4
      vertex 17.9188 4.60076 4
      vertex 17.2009 6.8103 4
    endloop
  endfacet
  facet normal -0 0 1
    outer loop
      vertex 14.8817 -1.88 4
      vertex 18.3541 -2.31866 4
      vertex 15 0 4
    endloop
  endfacet
  facet normal 0 0 1
    outer loop
      vertex 13.9466 5.52187 4
      vertex 17.2009 6.8103 4
      vertex 16.2117 8.91244 4
    endloop
  endfacet
  facet normal 0 0 1
    outer loop
      vertex 18.3541 -2.31866 4
      vertex 14.8817 -1.88 4
      vertex 17.9188 -4.60076 4
    endloop
  endfacet
  facet normal -0 0 1
    outer loop
      vertex 14.5287 -3.73035 4
      vertex 17.9188 -4.60076 4
      vertex 14.8817 -1.88 4
    endloop
  endfacet
  facet normal 0 0 1
    outer loop
      vertex 13.1446 7.22631 4
      vertex 16.2117 8.91244 4
      vertex 14.9668 10.874 4
    endloop
  endfacet
  facet normal 0 0 1
    outer loop
      vertex 18.3541 2.31866 4
      vertex 14.8817 1.88 4
      vertex 15 0 4
    endloop
  endfacet
  facet normal 0 0 1
    outer loop
      vertex 17.9188 4.60076 4
      vertex 14.5287 3.73035 4
      vertex 14.8817 1.88 4
    endloop
  endfacet
  facet normal 0 0 1
    outer loop
      vertex 17.2009 6.8103 4
      vertex 13.9466 5.52187 4
      vertex 14.5287 3.73035 4
    endloop
  endfacet
  facet normal 0 0 1
    outer loop
      vertex 12.1353 8.81678 4
      vertex 14.9668 10.874 4
      vertex 13.4859 12.6641 4
    endloop
  endfacet
  facet normal 0 0 1
    outer loop
      vertex 16.2117 8.91244 4
      vertex 13.1446 7.22631 4
      vertex 13.9466 5.52187 4
    endloop
  endfacet
  facet normal 0 0 1
    outer loop
      vertex 14.9668 10.874 4
      vertex 12.1353 8.81678 4
      vertex 13.1446 7.22631 4
    endloop
  endfacet
  facet normal 0 0 1
    outer loop
      vertex 10.9345 10.2682 4
      vertex 13.4859 12.6641 4
      vertex 11.7923 14.2545 4
    endloop
  endfacet
  facet normal 0 0 1
    outer loop
      vertex 13.4859 12.6641 4
      vertex 10.9345 10.2682 4
      vertex 12.1353 8.81678 4
    endloop
  endfacet
  facet normal 0 0 1
    outer loop
      vertex 9.56136 11.5577 4
      vertex 11.7923 14.2545 4
      vertex 9.9128 15.6201 4
    endloop
  endfacet
  facet normal 0 0 1
    outer loop
      vertex 11.7923 14.2545 4
      vertex 9.56136 11.5577 4
      vertex 10.9345 10.2682 4
    endloop
  endfacet
  facet normal 0 0 1
    outer loop
      vertex 9.9128 15.6201 4
      vertex 8.0374 12.6649 4
      vertex 9.56136 11.5577 4
    endloop
  endfacet
  facet normal 0 0 1
    outer loop
      vertex 7.87692 16.7393 4
      vertex 8.0374 12.6649 4
      vertex 9.9128 15.6201 4
    endloop
  endfacet
  facet normal 0 0 1
    outer loop
      vertex 7.87692 16.7393 4
      vertex 6.38669 13.5724 4
      vertex 8.0374 12.6649 4
    endloop
  endfacet
  facet normal 0 0 1
    outer loop
      vertex 5.71681 17.5945 4
      vertex 6.38669 13.5724 4
      vertex 7.87692 16.7393 4
    endloop
  endfacet
  facet normal 0 0 1
    outer loop
      vertex 5.71681 17.5945 4
      vertex 4.63525 14.2658 4
      vertex 6.38669 13.5724 4
    endloop
  endfacet
  facet normal 0 0 1
    outer loop
      vertex 3.46655 18.1723 4
      vertex 4.63525 14.2658 4
      vertex 5.71681 17.5945 4
    endloop
  endfacet
  facet normal 0 0 1
    outer loop
      vertex 3.46655 18.1723 4
      vertex 2.81072 14.7343 4
      vertex 4.63525 14.2658 4
    endloop
  endfacet
  facet normal 0 0 1
    outer loop
      vertex 1.16162 18.4635 4
      vertex 2.81072 14.7343 4
      vertex 3.46655 18.1723 4
    endloop
  endfacet
  facet normal 0 0 1
    outer loop
      vertex 1.16162 18.4635 4
      vertex 0.941857 14.9704 4
      vertex 2.81072 14.7343 4
    endloop
  endfacet
  facet normal 0 0 1
    outer loop
      vertex 1.16162 18.4635 4
      vertex -0.941857 14.9704 4
      vertex 0.941857 14.9704 4
    endloop
  endfacet
  facet normal -0 0 1
    outer loop
      vertex -1.16162 18.4635 4
      vertex -0.941857 14.9704 4
      vertex 1.16162 18.4635 4
    endloop
  endfacet
  facet normal 0 0 1
    outer loop
      vertex -1.16162 18.4635 4
      vertex -2.81072 14.7343 4
      vertex -0.941857 14.9704 4
    endloop
  endfacet
  facet normal -0 0 1
    outer loop
      vertex -3.46655 18.1723 4
      vertex -2.81072 14.7343 4
      vertex -1.16162 18.4635 4
    endloop
  endfacet
  facet normal 0 0 1
    outer loop
      vertex -3.46655 18.1723 4
      vertex -4.63525 14.2658 4
      vertex -2.81072 14.7343 4
    endloop
  endfacet
  facet normal -0 0 1
    outer loop
      vertex -5.71681 17.5945 4
      vertex -4.63525 14.2658 4
      vertex -3.46655 18.1723 4
    endloop
  endfacet
  facet normal 0 0 1
    outer loop
      vertex -5.71681 17.5945 4
      vertex -6.38669 13.5724 4
      vertex -4.63525 14.2658 4
    endloop
  endfacet
  facet normal -0 0 1
    outer loop
      vertex -7.87692 16.7393 4
      vertex -6.38669 13.5724 4
      vertex -5.71681 17.5945 4
    endloop
  endfacet
  facet normal 0 0 1
    outer loop
      vertex -7.87692 16.7393 4
      vertex -8.0374 12.6649 4
      vertex -6.38669 13.5724 4
    endloop
  endfacet
  facet normal -0 0 1
    outer loop
      vertex -9.9128 15.6201 4
      vertex -8.0374 12.6649 4
      vertex -7.87692 16.7393 4
    endloop
  endfacet
  facet normal 0 0 1
    outer loop
      vertex -8.0374 12.6649 4
      vertex -9.9128 15.6201 4
      vertex -9.56136 11.5577 4
    endloop
  endfacet
  facet normal -0 0 1
    outer loop
      vertex -11.7923 14.2545 4
      vertex -9.56136 11.5577 4
      vertex -9.9128 15.6201 4
    endloop
  endfacet
  facet normal 0 0 1
    outer loop
      vertex -9.56136 11.5577 4
      vertex -11.7923 14.2545 4
      vertex -10.9345 10.2682 4
    endloop
  endfacet
  facet normal -0 0 1
    outer loop
      vertex -13.4859 12.6641 4
      vertex -10.9345 10.2682 4
      vertex -11.7923 14.2545 4
    endloop
  endfacet
  facet normal 0 0 1
    outer loop
      vertex -10.9345 10.2682 4
      vertex -13.4859 12.6641 4
      vertex -12.1353 8.81678 4
    endloop
  endfacet
  facet normal -0 0 1
    outer loop
      vertex -14.9668 10.874 4
      vertex -12.1353 8.81678 4
      vertex -13.4859 12.6641 4
    endloop
  endfacet
  facet normal 0 0 1
    outer loop
      vertex -12.1353 8.81678 4
      vertex -14.9668 10.874 4
      vertex -13.1446 7.22631 4
    endloop
  endfacet
  facet normal -0 0 1
    outer loop
      vertex -16.2117 8.91244 4
      vertex -13.1446 7.22631 4
      vertex -14.9668 10.874 4
    endloop
  endfacet
  facet normal 0 0 1
    outer loop
      vertex -13.1446 7.22631 4
      vertex -16.2117 8.91244 4
      vertex -13.9466 5.52187 4
    endloop
  endfacet
  facet normal -0 0 1
    outer loop
      vertex -17.2009 6.8103 4
      vertex -13.9466 5.52187 4
      vertex -16.2117 8.91244 4
    endloop
  endfacet
  facet normal 0 0 1
    outer loop
      vertex -13.9466 5.52187 4
      vertex -17.2009 6.8103 4
      vertex -14.5287 3.73035 4
    endloop
  endfacet
  facet normal -0 0 1
    outer loop
      vertex -17.9188 4.60076 4
      vertex -14.5287 3.73035 4
      vertex -17.2009 6.8103 4
    endloop
  endfacet
  facet normal 0 0 1
    outer loop
      vertex 17.9188 -4.60076 4
      vertex 14.5287 -3.73035 4
      vertex 17.2009 -6.8103 4
    endloop
  endfacet
  facet normal -0 0 1
    outer loop
      vertex 13.9466 -5.52187 4
      vertex 17.2009 -6.8103 4
      vertex 14.5287 -3.73035 4
    endloop
  endfacet
  facet normal 0 0 1
    outer loop
      vertex 17.2009 -6.8103 4
      vertex 13.9466 -5.52187 4
      vertex 16.2117 -8.91244 4
    endloop
  endfacet
  facet normal -0 0 1
    outer loop
      vertex 13.1446 -7.22631 4
      vertex 16.2117 -8.91244 4
      vertex 13.9466 -5.52187 4
    endloop
  endfacet
  facet normal 0 0 1
    outer loop
      vertex 16.2117 -8.91244 4
      vertex 13.1446 -7.22631 4
      vertex 14.9668 -10.874 4
    endloop
  endfacet
  facet normal -0 0 1
    outer loop
      vertex 12.1353 -8.81678 4
      vertex 14.9668 -10.874 4
      vertex 13.1446 -7.22631 4
    endloop
  endfacet
  facet normal 0 0 1
    outer loop
      vertex 14.9668 -10.874 4
      vertex 12.1353 -8.81678 4
      vertex 13.4859 -12.6641 4
    endloop
  endfacet
  facet normal -0 0 1
    outer loop
      vertex 10.9345 -10.2682 4
      vertex 13.4859 -12.6641 4
      vertex 12.1353 -8.81678 4
    endloop
  endfacet
  facet normal 0 0 1
    outer loop
      vertex 13.4859 -12.6641 4
      vertex 10.9345 -10.2682 4
      vertex 11.7923 -14.2545 4
    endloop
  endfacet
  facet normal -0 0 1
    outer loop
      vertex 9.56136 -11.5577 4
      vertex 11.7923 -14.2545 4
      vertex 10.9345 -10.2682 4
    endloop
  endfacet
  facet normal 0 0 1
    outer loop
      vertex 11.7923 -14.2545 4
      vertex 9.56136 -11.5577 4
      vertex 9.9128 -15.6201 4
    endloop
  endfacet
  facet normal -0 0 1
    outer loop
      vertex 8.0374 -12.6649 4
      vertex 9.9128 -15.6201 4
      vertex 9.56136 -11.5577 4
    endloop
  endfacet
  facet normal 0 0 1
    outer loop
      vertex 8.0374 -12.6649 4
      vertex 7.87692 -16.7393 4
      vertex 9.9128 -15.6201 4
    endloop
  endfacet
  facet normal -0 0 1
    outer loop
      vertex 6.38669 -13.5724 4
      vertex 7.87692 -16.7393 4
      vertex 8.0374 -12.6649 4
    endloop
  endfacet
  facet normal 0 0 1
    outer loop
      vertex 6.38669 -13.5724 4
      vertex 5.71681 -17.5945 4
      vertex 7.87692 -16.7393 4
    endloop
  endfacet
  facet normal -0 0 1
    outer loop
      vertex 4.63525 -14.2658 4
      vertex 5.71681 -17.5945 4
      vertex 6.38669 -13.5724 4
    endloop
  endfacet
  facet normal 0 0 1
    outer loop
      vertex 4.63525 -14.2658 4
      vertex 3.46655 -18.1723 4
      vertex 5.71681 -17.5945 4
    endloop
  endfacet
  facet normal -0 0 1
    outer loop
      vertex 2.81072 -14.7343 4
      vertex 3.46655 -18.1723 4
      vertex 4.63525 -14.2658 4
    endloop
  endfacet
  facet normal 0 0 1
    outer loop
      vertex 2.81072 -14.7343 4
      vertex 1.16162 -18.4635 4
      vertex 3.46655 -18.1723 4
    endloop
  endfacet
  facet normal -0 0 1
    outer loop
      vertex 0.941857 -14.9704 4
      vertex 1.16162 -18.4635 4
      vertex 2.81072 -14.7343 4
    endloop
  endfacet
  facet normal -0 0 1
    outer loop
      vertex -0.941857 -14.9704 4
      vertex 1.16162 -18.4635 4
      vertex 0.941857 -14.9704 4
    endloop
  endfacet
  facet normal 0 0 1
    outer loop
      vertex -0.941857 -14.9704 4
      vertex -1.16162 -18.4635 4
      vertex 1.16162 -18.4635 4
    endloop
  endfacet
  facet normal 0 0 1
    outer loop
      vertex -2.81072 -14.7343 4
      vertex -1.16162 -18.4635 4
      vertex -0.941857 -14.9704 4
    endloop
  endfacet
  facet normal 0 0 1
    outer loop
      vertex -2.81072 -14.7343 4
      vertex -3.46655 -18.1723 4
      vertex -1.16162 -18.4635 4
    endloop
  endfacet
  facet normal 0 0 1
    outer loop
      vertex -4.63525 -14.2658 4
      vertex -3.46655 -18.1723 4
      vertex -2.81072 -14.7343 4
    endloop
  endfacet
  facet normal 0 0 1
    outer loop
      vertex -4.63525 -14.2658 4
      vertex -5.71681 -17.5945 4
      vertex -3.46655 -18.1723 4
    endloop
  endfacet
  facet normal 0 0 1
    outer loop
      vertex -6.38669 -13.5724 4
      vertex -5.71681 -17.5945 4
      vertex -4.63525 -14.2658 4
    endloop
  endfacet
  facet normal 0 0 1
    outer loop
      vertex -6.38669 -13.5724 4
      vertex -7.87692 -16.7393 4
      vertex -5.71681 -17.5945 4
    endloop
  endfacet
  facet normal 0 0 1
    outer loop
      vertex -8.0374 -12.6649 4
      vertex -7.87692 -16.7393 4
      vertex -6.38669 -13.5724 4
    endloop
  endfacet
  facet normal 0 0 1
    outer loop
      vertex -9.9128 -15.6201 4
      vertex -8.0374 -12.6649 4
      vertex -9.56136 -11.5577 4
    endloop
  endfacet
  facet normal 0 0 1
    outer loop
      vertex -8.0374 -12.6649 4
      vertex -9.9128 -15.6201 4
      vertex -7.87692 -16.7393 4
    endloop
  endfacet
  facet normal 0 0 1
    outer loop
      vertex -11.7923 -14.2545 4
      vertex -9.56136 -11.5577 4
      vertex -10.9345 -10.2682 4
    endloop
  endfacet
  facet normal 0 0 1
    outer loop
      vertex -9.56136 -11.5577 4
      vertex -11.7923 -14.2545 4
      vertex -9.9128 -15.6201 4
    endloop
  endfacet
  facet normal 0 0 1
    outer loop
      vertex -13.4859 -12.6641 4
      vertex -10.9345 -10.2682 4
      vertex -12.1353 -8.81678 4
    endloop
  endfacet
  facet normal 0 0 1
    outer loop
      vertex -14.9668 -10.874 4
      vertex -12.1353 -8.81678 4
      vertex -13.1446 -7.22631 4
    endloop
  endfacet
  facet normal 0 0 1
    outer loop
      vertex -10.9345 -10.2682 4
      vertex -13.4859 -12.6641 4
      vertex -11.7923 -14.2545 4
    endloop
  endfacet
  facet normal 0 0 1
    outer loop
      vertex -16.2117 -8.91244 4
      vertex -13.1446 -7.22631 4
      vertex -13.9466 -5.52187 4
    endloop
  endfacet
  facet normal 0 0 1
    outer loop
      vertex -17.2009 -6.8103 4
      vertex -13.9466 -5.52187 4
      vertex -14.5287 -3.73035 4
    endloop
  endfacet
  facet normal 0 0 1
    outer loop
      vertex -17.9188 -4.60076 4
      vertex -14.5287 -3.73035 4
      vertex -14.8817 -1.88 4
    endloop
  endfacet
  facet normal 0 0 1
    outer loop
      vertex -12.1353 -8.81678 4
      vertex -14.9668 -10.874 4
      vertex -13.4859 -12.6641 4
    endloop
  endfacet
  facet normal 0 0 1
    outer loop
      vertex -18.3541 -2.31866 4
      vertex -14.8817 -1.88 4
      vertex -15 0 4
    endloop
  endfacet
  facet normal 0 0 1
    outer loop
      vertex -14.5287 3.73035 4
      vertex -17.9188 4.60076 4
      vertex -14.8817 1.88 4
    endloop
  endfacet
  facet normal 0 0 1
    outer loop
      vertex -13.1446 -7.22631 4
      vertex -16.2117 -8.91244 4
      vertex -14.9668 -10.874 4
    endloop
  endfacet
  facet normal -0 0 1
    outer loop
      vertex -18.3541 2.31866 4
      vertex -14.8817 1.88 4
      vertex -17.9188 4.60076 4
    endloop
  endfacet
  facet normal 0 0 1
    outer loop
      vertex -13.9466 -5.52187 4
      vertex -17.2009 -6.8103 4
      vertex -16.2117 -8.91244 4
    endloop
  endfacet
  facet normal 0 0 1
    outer loop
      vertex -14.8817 1.88 4
      vertex -18.3541 2.31866 4
      vertex -15 0 4
    endloop
  endfacet
  facet normal 0 0 1
    outer loop
      vertex -14.5287 -3.73035 4
      vertex -17.9188 -4.60076 4
      vertex -17.2009 -6.8103 4
    endloop
  endfacet
  facet normal 0 0 1
    outer loop
      vertex -18.5 0 4
      vertex -15 0 4
      vertex -18.3541 2.31866 4
    endloop
  endfacet
  facet normal 0 0 1
    outer loop
      vertex -14.8817 -1.88 4
      vertex -18.3541 -2.31866 4
      vertex -17.9188 -4.60076 4
    endloop
  endfacet
  facet normal 0 0 1
    outer loop
      vertex -15 0 4
      vertex -18.5 0 4
      vertex -18.3541 -2.31866 4
    endloop
  endfacet
  facet normal -0.481742 0.876313 0
    outer loop
      vertex -7.87692 16.7393 0
      vertex -9.9128 15.6201 4
      vertex -7.87692 16.7393 4
    endloop
  endfacet
  facet normal -0.481742 0.876313 0
    outer loop
      vertex -9.9128 15.6201 4
      vertex -7.87692 16.7393 0
      vertex -9.9128 15.6201 0
    endloop
  endfacet
  facet normal -0.587803 0.809004 0
    outer loop
      vertex -9.9128 15.6201 0
      vertex -11.7923 14.2545 4
      vertex -9.9128 15.6201 4
    endloop
  endfacet
  facet normal -0.587803 0.809004 0
    outer loop
      vertex -11.7923 14.2545 4
      vertex -9.9128 15.6201 0
      vertex -11.7923 14.2545 0
    endloop
  endfacet
  facet normal -0.125342 0.992114 0
    outer loop
      vertex -1.16162 18.4635 0
      vertex -3.46655 18.1723 4
      vertex -1.16162 18.4635 4
    endloop
  endfacet
  facet normal -0.125342 0.992114 0
    outer loop
      vertex -3.46655 18.1723 4
      vertex -1.16162 18.4635 0
      vertex -3.46655 18.1723 0
    endloop
  endfacet
  facet normal 0.998026 -0.0628001 9.47935e-19
    outer loop
      vertex 18.3541 -2.31866 4
      vertex 18.5 0 0
      vertex 18.5 0 4
    endloop
  endfacet
  facet normal 0.998026 -0.0628001 9.47935e-19
    outer loop
      vertex 18.5 0 0
      vertex 18.3541 -2.31866 4
      vertex 18.3541 -2.31866 0
    endloop
  endfacet
  facet normal 0.770513 -0.637424 -1.08735e-17
    outer loop
      vertex 13.4859 -12.6641 4
      vertex 14.9668 -10.874 0
      vertex 14.9668 -10.874 4
    endloop
  endfacet
  facet normal 0.770513 -0.637424 -1.08735e-17
    outer loop
      vertex 14.9668 -10.874 0
      vertex 13.4859 -12.6641 4
      vertex 13.4859 -12.6641 0
    endloop
  endfacet
  facet normal 0.951059 -0.309008 -1.16552e-17
    outer loop
      vertex 17.2009 -6.8103 4
      vertex 17.9188 -4.60076 0
      vertex 17.9188 -4.60076 4
    endloop
  endfacet
  facet normal 0.951059 -0.309008 -1.16552e-17
    outer loop
      vertex 17.9188 -4.60076 0
      vertex 17.2009 -6.8103 4
      vertex 17.2009 -6.8103 0
    endloop
  endfacet
  facet normal 0.98229 -0.187367 -4.35175e-18
    outer loop
      vertex 17.9188 -4.60076 4
      vertex 18.3541 -2.31866 0
      vertex 18.3541 -2.31866 4
    endloop
  endfacet
  facet normal 0.98229 -0.187367 -4.35175e-18
    outer loop
      vertex 18.3541 -2.31866 0
      vertex 17.9188 -4.60076 4
      vertex 17.9188 -4.60076 0
    endloop
  endfacet
  facet normal -0.904826 -0.425782 4.76007e-18
    outer loop
      vertex -16.2117 -8.91244 0
      vertex -17.2009 -6.8103 4
      vertex -17.2009 -6.8103 0
    endloop
  endfacet
  facet normal -0.904826 -0.425782 4.76007e-18
    outer loop
      vertex -17.2009 -6.8103 4
      vertex -16.2117 -8.91244 0
      vertex -16.2117 -8.91244 4
    endloop
  endfacet
  facet normal 0 0 -1
    outer loop
      vertex 15 0 0
      vertex 18.5 0 0
      vertex 18.3541 -2.31866 0
    endloop
  endfacet
  facet normal 0 0 -1
    outer loop
      vertex 14.8817 -1.88 0
      vertex 18.3541 -2.31866 0
      vertex 17.9188 -4.60076 0
    endloop
  endfacet
  facet normal 0 0 -1
    outer loop
      vertex 18.5 0 0
      vertex 15 0 0
      vertex 18.3541 2.31866 0
    endloop
  endfacet
  facet normal 0 0 -1
    outer loop
      vertex 14.5287 -3.73035 0
      vertex 17.9188 -4.60076 0
      vertex 17.2009 -6.8103 0
    endloop
  endfacet
  facet normal 0 0 -1
    outer loop
      vertex 14.8817 1.88 0
      vertex 18.3541 2.31866 0
      vertex 15 0 0
    endloop
  endfacet
  facet normal 0 0 -1
    outer loop
      vertex 13.9466 -5.52187 0
      vertex 17.2009 -6.8103 0
      vertex 16.2117 -8.91244 0
    endloop
  endfacet
  facet normal -0 0 -1
    outer loop
      vertex 18.3541 2.31866 0
      vertex 14.8817 1.88 0
      vertex 17.9188 4.60076 0
    endloop
  endfacet
  facet normal 0 0 -1
    outer loop
      vertex 14.5287 3.73035 0
      vertex 17.9188 4.60076 0
      vertex 14.8817 1.88 0
    endloop
  endfacet
  facet normal 0 0 -1
    outer loop
      vertex 13.1446 -7.22631 0
      vertex 16.2117 -8.91244 0
      vertex 14.9668 -10.874 0
    endloop
  endfacet
  facet normal 0 0 -1
    outer loop
      vertex 18.3541 -2.31866 0
      vertex 14.8817 -1.88 0
      vertex 15 0 0
    endloop
  endfacet
  facet normal 0 0 -1
    outer loop
      vertex 17.9188 -4.60076 0
      vertex 14.5287 -3.73035 0
      vertex 14.8817 -1.88 0
    endloop
  endfacet
  facet normal 0 0 -1
    outer loop
      vertex 17.2009 -6.8103 0
      vertex 13.9466 -5.52187 0
      vertex 14.5287 -3.73035 0
    endloop
  endfacet
  facet normal 0 0 -1
    outer loop
      vertex 12.1353 -8.81678 0
      vertex 14.9668 -10.874 0
      vertex 13.4859 -12.6641 0
    endloop
  endfacet
  facet normal 0 0 -1
    outer loop
      vertex 16.2117 -8.91244 0
      vertex 13.1446 -7.22631 0
      vertex 13.9466 -5.52187 0
    endloop
  endfacet
  facet normal 0 0 -1
    outer loop
      vertex 14.9668 -10.874 0
      vertex 12.1353 -8.81678 0
      vertex 13.1446 -7.22631 0
    endloop
  endfacet
  facet normal 0 0 -1
    outer loop
      vertex 10.9345 -10.2682 0
      vertex 13.4859 -12.6641 0
      vertex 11.7923 -14.2545 0
    endloop
  endfacet
  facet normal 0 0 -1
    outer loop
      vertex 13.4859 -12.6641 0
      vertex 10.9345 -10.2682 0
      vertex 12.1353 -8.81678 0
    endloop
  endfacet
  facet normal 0 0 -1
    outer loop
      vertex 9.56136 -11.5577 0
      vertex 11.7923 -14.2545 0
      vertex 9.9128 -15.6201 0
    endloop
  endfacet
  facet normal 0 0 -1
    outer loop
      vertex 11.7923 -14.2545 0
      vertex 9.56136 -11.5577 0
      vertex 10.9345 -10.2682 0
    endloop
  endfacet
  facet normal 0 0 -1
    outer loop
      vertex 9.9128 -15.6201 0
      vertex 8.0374 -12.6649 0
      vertex 9.56136 -11.5577 0
    endloop
  endfacet
  facet normal 0 0 -1
    outer loop
      vertex 7.87692 -16.7393 0
      vertex 8.0374 -12.6649 0
      vertex 9.9128 -15.6201 0
    endloop
  endfacet
  facet normal 0 0 -1
    outer loop
      vertex 7.87692 -16.7393 0
      vertex 6.38669 -13.5724 0
      vertex 8.0374 -12.6649 0
    endloop
  endfacet
  facet normal 0 0 -1
    outer loop
      vertex 5.71681 -17.5945 0
      vertex 6.38669 -13.5724 0
      vertex 7.87692 -16.7393 0
    endloop
  endfacet
  facet normal 0 0 -1
    outer loop
      vertex 5.71681 -17.5945 0
      vertex 4.63525 -14.2658 0
      vertex 6.38669 -13.5724 0
    endloop
  endfacet
  facet normal 0 0 -1
    outer loop
      vertex 3.46655 -18.1723 0
      vertex 4.63525 -14.2658 0
      vertex 5.71681 -17.5945 0
    endloop
  endfacet
  facet normal 0 0 -1
    outer loop
      vertex 3.46655 -18.1723 0
      vertex 2.81072 -14.7343 0
      vertex 4.63525 -14.2658 0
    endloop
  endfacet
  facet normal 0 0 -1
    outer loop
      vertex 1.16162 -18.4635 0
      vertex 2.81072 -14.7343 0
      vertex 3.46655 -18.1723 0
    endloop
  endfacet
  facet normal 0 0 -1
    outer loop
      vertex 1.16162 -18.4635 0
      vertex 0.941857 -14.9704 0
      vertex 2.81072 -14.7343 0
    endloop
  endfacet
  facet normal 0 0 -1
    outer loop
      vertex 1.16162 -18.4635 0
      vertex -0.941857 -14.9704 0
      vertex 0.941857 -14.9704 0
    endloop
  endfacet
  facet normal 0 0 -1
    outer loop
      vertex -1.16162 -18.4635 0
      vertex -0.941857 -14.9704 0
      vertex 1.16162 -18.4635 0
    endloop
  endfacet
  facet normal 0 0 -1
    outer loop
      vertex -1.16162 -18.4635 0
      vertex -2.81072 -14.7343 0
      vertex -0.941857 -14.9704 0
    endloop
  endfacet
  facet normal 0 0 -1
    outer loop
      vertex -3.46655 -18.1723 0
      vertex -2.81072 -14.7343 0
      vertex -1.16162 -18.4635 0
    endloop
  endfacet
  facet normal 0 0 -1
    outer loop
      vertex -3.46655 -18.1723 0
      vertex -4.63525 -14.2658 0
      vertex -2.81072 -14.7343 0
    endloop
  endfacet
  facet normal 0 0 -1
    outer loop
      vertex -5.71681 -17.5945 0
      vertex -4.63525 -14.2658 0
      vertex -3.46655 -18.1723 0
    endloop
  endfacet
  facet normal 0 0 -1
    outer loop
      vertex -5.71681 -17.5945 0
      vertex -6.38669 -13.5724 0
      vertex -4.63525 -14.2658 0
    endloop
  endfacet
  facet normal 0 0 -1
    outer loop
      vertex -7.87692 -16.7393 0
      vertex -6.38669 -13.5724 0
      vertex -5.71681 -17.5945 0
    endloop
  endfacet
  facet normal 0 0 -1
    outer loop
      vertex -7.87692 -16.7393 0
      vertex -8.0374 -12.6649 0
      vertex -6.38669 -13.5724 0
    endloop
  endfacet
  facet normal 0 0 -1
    outer loop
      vertex -9.9128 -15.6201 0
      vertex -8.0374 -12.6649 0
      vertex -7.87692 -16.7393 0
    endloop
  endfacet
  facet normal -0 0 -1
    outer loop
      vertex -8.0374 -12.6649 0
      vertex -9.9128 -15.6201 0
      vertex -9.56136 -11.5577 0
    endloop
  endfacet
  facet normal 0 0 -1
    outer loop
      vertex -11.7923 -14.2545 0
      vertex -9.56136 -11.5577 0
      vertex -9.9128 -15.6201 0
    endloop
  endfacet
  facet normal -0 0 -1
    outer loop
      vertex -9.56136 -11.5577 0
      vertex -11.7923 -14.2545 0
      vertex -10.9345 -10.2682 0
    endloop
  endfacet
  facet normal 0 0 -1
    outer loop
      vertex -13.4859 -12.6641 0
      vertex -10.9345 -10.2682 0
      vertex -11.7923 -14.2545 0
    endloop
  endfacet
  facet normal -0 0 -1
    outer loop
      vertex -10.9345 -10.2682 0
      vertex -13.4859 -12.6641 0
      vertex -12.1353 -8.81678 0
    endloop
  endfacet
  facet normal 0 0 -1
    outer loop
      vertex -14.9668 -10.874 0
      vertex -12.1353 -8.81678 0
      vertex -13.4859 -12.6641 0
    endloop
  endfacet
  facet normal -0 0 -1
    outer loop
      vertex -12.1353 -8.81678 0
      vertex -14.9668 -10.874 0
      vertex -13.1446 -7.22631 0
    endloop
  endfacet
  facet normal 0 0 -1
    outer loop
      vertex -16.2117 -8.91244 0
      vertex -13.1446 -7.22631 0
      vertex -14.9668 -10.874 0
    endloop
  endfacet
  facet normal -0 0 -1
    outer loop
      vertex -13.1446 -7.22631 0
      vertex -16.2117 -8.91244 0
      vertex -13.9466 -5.52187 0
    endloop
  endfacet
  facet normal 0 0 -1
    outer loop
      vertex -17.2009 -6.8103 0
      vertex -13.9466 -5.52187 0
      vertex -16.2117 -8.91244 0
    endloop
  endfacet
  facet normal -0 0 -1
    outer loop
      vertex -13.9466 -5.52187 0
      vertex -17.2009 -6.8103 0
      vertex -14.5287 -3.73035 0
    endloop
  endfacet
  facet normal 0 0 -1
    outer loop
      vertex -17.9188 -4.60076 0
      vertex -14.5287 -3.73035 0
      vertex -17.2009 -6.8103 0
    endloop
  endfacet
  facet normal -0 0 -1
    outer loop
      vertex 17.9188 4.60076 0
      vertex 14.5287 3.73035 0
      vertex 17.2009 6.8103 0
    endloop
  endfacet
  facet normal 0 0 -1
    outer loop
      vertex 13.9466 5.52187 0
      vertex 17.2009 6.8103 0
      vertex 14.5287 3.73035 0
    endloop
  endfacet
  facet normal -0 0 -1
    outer loop
      vertex 17.2009 6.8103 0
      vertex 13.9466 5.52187 0
      vertex 16.2117 8.91244 0
    endloop
  endfacet
  facet normal 0 0 -1
    outer loop
      vertex 13.1446 7.22631 0
      vertex 16.2117 8.91244 0
      vertex 13.9466 5.52187 0
    endloop
  endfacet
  facet normal -0 0 -1
    outer loop
      vertex 16.2117 8.91244 0
      vertex 13.1446 7.22631 0
      vertex 14.9668 10.874 0
    endloop
  endfacet
  facet normal 0 0 -1
    outer loop
      vertex 12.1353 8.81678 0
      vertex 14.9668 10.874 0
      vertex 13.1446 7.22631 0
    endloop
  endfacet
  facet normal -0 0 -1
    outer loop
      vertex 14.9668 10.874 0
      vertex 12.1353 8.81678 0
      vertex 13.4859 12.6641 0
    endloop
  endfacet
  facet normal 0 0 -1
    outer loop
      vertex 10.9345 10.2682 0
      vertex 13.4859 12.6641 0
      vertex 12.1353 8.81678 0
    endloop
  endfacet
  facet normal -0 0 -1
    outer loop
      vertex 13.4859 12.6641 0
      vertex 10.9345 10.2682 0
      vertex 11.7923 14.2545 0
    endloop
  endfacet
  facet normal 0 0 -1
    outer loop
      vertex 9.56136 11.5577 0
      vertex 11.7923 14.2545 0
      vertex 10.9345 10.2682 0
    endloop
  endfacet
  facet normal -0 0 -1
    outer loop
      vertex 11.7923 14.2545 0
      vertex 9.56136 11.5577 0
      vertex 9.9128 15.6201 0
    endloop
  endfacet
  facet normal 0 0 -1
    outer loop
      vertex 8.0374 12.6649 0
      vertex 9.9128 15.6201 0
      vertex 9.56136 11.5577 0
    endloop
  endfacet
  facet normal 0 0 -1
    outer loop
      vertex 8.0374 12.6649 0
      vertex 7.87692 16.7393 0
      vertex 9.9128 15.6201 0
    endloop
  endfacet
  facet normal 0 0 -1
    outer loop
      vertex 6.38669 13.5724 0
      vertex 7.87692 16.7393 0
      vertex 8.0374 12.6649 0
    endloop
  endfacet
  facet normal 0 0 -1
    outer loop
      vertex 6.38669 13.5724 0
      vertex 5.71681 17.5945 0
      vertex 7.87692 16.7393 0
    endloop
  endfacet
  facet normal 0 0 -1
    outer loop
      vertex 4.63525 14.2658 0
      vertex 5.71681 17.5945 0
      vertex 6.38669 13.5724 0
    endloop
  endfacet
  facet normal 0 0 -1
    outer loop
      vertex 4.63525 14.2658 0
      vertex 3.46655 18.1723 0
      vertex 5.71681 17.5945 0
    endloop
  endfacet
  facet normal 0 0 -1
    outer loop
      vertex 2.81072 14.7343 0
      vertex 3.46655 18.1723 0
      vertex 4.63525 14.2658 0
    endloop
  endfacet
  facet normal 0 0 -1
    outer loop
      vertex 2.81072 14.7343 0
      vertex 1.16162 18.4635 0
      vertex 3.46655 18.1723 0
    endloop
  endfacet
  facet normal 0 0 -1
    outer loop
      vertex 0.941857 14.9704 0
      vertex 1.16162 18.4635 0
      vertex 2.81072 14.7343 0
    endloop
  endfacet
  facet normal 0 0 -1
    outer loop
      vertex -0.941857 14.9704 0
      vertex 1.16162 18.4635 0
      vertex 0.941857 14.9704 0
    endloop
  endfacet
  facet normal 0 0 -1
    outer loop
      vertex -0.941857 14.9704 0
      vertex -1.16162 18.4635 0
      vertex 1.16162 18.4635 0
    endloop
  endfacet
  facet normal 0 0 -1
    outer loop
      vertex -2.81072 14.7343 0
      vertex -1.16162 18.4635 0
      vertex -0.941857 14.9704 0
    endloop
  endfacet
  facet normal 0 0 -1
    outer loop
      vertex -2.81072 14.7343 0
      vertex -3.46655 18.1723 0
      vertex -1.16162 18.4635 0
    endloop
  endfacet
  facet normal 0 0 -1
    outer loop
      vertex -4.63525 14.2658 0
      vertex -3.46655 18.1723 0
      vertex -2.81072 14.7343 0
    endloop
  endfacet
  facet normal 0 0 -1
    outer loop
      vertex -4.63525 14.2658 0
      vertex -5.71681 17.5945 0
      vertex -3.46655 18.1723 0
    endloop
  endfacet
  facet normal 0 0 -1
    outer loop
      vertex -6.38669 13.5724 0
      vertex -5.71681 17.5945 0
      vertex -4.63525 14.2658 0
    endloop
  endfacet
  facet normal 0 0 -1
    outer loop
      vertex -6.38669 13.5724 0
      vertex -7.87692 16.7393 0
      vertex -5.71681 17.5945 0
    endloop
  endfacet
  facet normal 0 0 -1
    outer loop
      vertex -8.0374 12.6649 0
      vertex -7.87692 16.7393 0
      vertex -6.38669 13.5724 0
    endloop
  endfacet
  facet normal 0 0 -1
    outer loop
      vertex -9.9128 15.6201 0
      vertex -8.0374 12.6649 0
      vertex -9.56136 11.5577 0
    endloop
  endfacet
  facet normal 0 0 -1
    outer loop
      vertex -8.0374 12.6649 0
      vertex -9.9128 15.6201 0
      vertex -7.87692 16.7393 0
    endloop
  endfacet
  facet normal 0 0 -1
    outer loop
      vertex -11.7923 14.2545 0
      vertex -9.56136 11.5577 0
      vertex -10.9345 10.2682 0
    endloop
  endfacet
  facet normal 0 0 -1
    outer loop
      vertex -9.56136 11.5577 0
      vertex -11.7923 14.2545 0
      vertex -9.9128 15.6201 0
    endloop
  endfacet
  facet normal 0 0 -1
    outer loop
      vertex -13.4859 12.6641 0
      vertex -10.9345 10.2682 0
      vertex -12.1353 8.81678 0
    endloop
  endfacet
  facet normal 0 0 -1
    outer loop
      vertex -14.9668 10.874 0
      vertex -12.1353 8.81678 0
      vertex -13.1446 7.22631 0
    endloop
  endfacet
  facet normal 0 0 -1
    outer loop
      vertex -10.9345 10.2682 0
      vertex -13.4859 12.6641 0
      vertex -11.7923 14.2545 0
    endloop
  endfacet
  facet normal 0 0 -1
    outer loop
      vertex -16.2117 8.91244 0
      vertex -13.1446 7.22631 0
      vertex -13.9466 5.52187 0
    endloop
  endfacet
  facet normal 0 0 -1
    outer loop
      vertex -17.2009 6.8103 0
      vertex -13.9466 5.52187 0
      vertex -14.5287 3.73035 0
    endloop
  endfacet
  facet normal 0 0 -1
    outer loop
      vertex -17.9188 4.60076 0
      vertex -14.5287 3.73035 0
      vertex -14.8817 1.88 0
    endloop
  endfacet
  facet normal 0 0 -1
    outer loop
      vertex -12.1353 8.81678 0
      vertex -14.9668 10.874 0
      vertex -13.4859 12.6641 0
    endloop
  endfacet
  facet normal 0 0 -1
    outer loop
      vertex -18.3541 2.31866 0
      vertex -14.8817 1.88 0
      vertex -15 0 0
    endloop
  endfacet
  facet normal -0 0 -1
    outer loop
      vertex -14.5287 -3.73035 0
      vertex -17.9188 -4.60076 0
      vertex -14.8817 -1.88 0
    endloop
  endfacet
  facet normal 0 0 -1
    outer loop
      vertex -13.1446 7.22631 0
      vertex -16.2117 8.91244 0
      vertex -14.9668 10.874 0
    endloop
  endfacet
  facet normal 0 0 -1
    outer loop
      vertex -18.3541 -2.31866 0
      vertex -14.8817 -1.88 0
      vertex -17.9188 -4.60076 0
    endloop
  endfacet
  facet normal 0 0 -1
    outer loop
      vertex -13.9466 5.52187 0
      vertex -17.2009 6.8103 0
      vertex -16.2117 8.91244 0
    endloop
  endfacet
  facet normal -0 0 -1
    outer loop
      vertex -14.8817 -1.88 0
      vertex -18.3541 -2.31866 0
      vertex -15 0 0
    endloop
  endfacet
  facet normal 0 0 -1
    outer loop
      vertex -14.5287 3.73035 0
      vertex -17.9188 4.60076 0
      vertex -17.2009 6.8103 0
    endloop
  endfacet
  facet normal 0 0 -1
    outer loop
      vertex -18.5 0 0
      vertex -15 0 0
      vertex -18.3541 -2.31866 0
    endloop
  endfacet
  facet normal 0 0 -1
    outer loop
      vertex -14.8817 1.88 0
      vertex -18.3541 2.31866 0
      vertex -17.9188 4.60076 0
    endloop
  endfacet
  facet normal 0 0 -1
    outer loop
      vertex -15 0 0
      vertex -18.5 0 0
      vertex -18.3541 2.31866 0
    endloop
  endfacet
  facet normal 0.481742 -0.876313 0
    outer loop
      vertex 7.87692 -16.7393 0
      vertex 9.9128 -15.6201 4
      vertex 7.87692 -16.7393 4
    endloop
  endfacet
  facet normal 0.481742 -0.876313 0
    outer loop
      vertex 9.9128 -15.6201 4
      vertex 7.87692 -16.7393 0
      vertex 9.9128 -15.6201 0
    endloop
  endfacet
  facet normal 0.684548 -0.728968 0
    outer loop
      vertex 11.7923 -14.2545 0
      vertex 13.4859 -12.6641 4
      vertex 11.7923 -14.2545 4
    endloop
  endfacet
  facet normal 0.684548 -0.728968 0
    outer loop
      vertex 13.4859 -12.6641 4
      vertex 11.7923 -14.2545 0
      vertex 13.4859 -12.6641 0
    endloop
  endfacet
  facet normal 0.844317 -0.535844 2.33337e-20
    outer loop
      vertex 14.9668 -10.874 4
      vertex 16.2117 -8.91244 0
      vertex 16.2117 -8.91244 4
    endloop
  endfacet
  facet normal 0.844317 -0.535844 2.33337e-20
    outer loop
      vertex 16.2117 -8.91244 0
      vertex 14.9668 -10.874 4
      vertex 14.9668 -10.874 0
    endloop
  endfacet
  facet normal -0.951059 -0.309008 1.16552e-17
    outer loop
      vertex -17.2009 -6.8103 0
      vertex -17.9188 -4.60076 4
      vertex -17.9188 -4.60076 0
    endloop
  endfacet
  facet normal -0.951059 -0.309008 1.16552e-17
    outer loop
      vertex -17.9188 -4.60076 4
      vertex -17.2009 -6.8103 0
      vertex -17.2009 -6.8103 4
    endloop
  endfacet
  facet normal 0.368107 -0.929784 0
    outer loop
      vertex 5.71681 -17.5945 0
      vertex 7.87692 -16.7393 4
      vertex 5.71681 -17.5945 4
    endloop
  endfacet
  facet normal 0.368107 -0.929784 0
    outer loop
      vertex 7.87692 -16.7393 4
      vertex 5.71681 -17.5945 0
      vertex 7.87692 -16.7393 0
    endloop
  endfacet
  facet normal 0.248703 -0.96858 0
    outer loop
      vertex 3.46655 -18.1723 0
      vertex 5.71681 -17.5945 4
      vertex 3.46655 -18.1723 4
    endloop
  endfacet
  facet normal 0.248703 -0.96858 0
    outer loop
      vertex 5.71681 -17.5945 4
      vertex 3.46655 -18.1723 0
      vertex 5.71681 -17.5945 0
    endloop
  endfacet
  facet normal 0.125342 -0.992114 0
    outer loop
      vertex 1.16162 -18.4635 0
      vertex 3.46655 -18.1723 4
      vertex 1.16162 -18.4635 4
    endloop
  endfacet
  facet normal 0.125342 -0.992114 0
    outer loop
      vertex 3.46655 -18.1723 4
      vertex 1.16162 -18.4635 0
      vertex 3.46655 -18.1723 0
    endloop
  endfacet
  facet normal 0.904826 -0.425782 -4.76007e-18
    outer loop
      vertex 16.2117 -8.91244 4
      vertex 17.2009 -6.8103 0
      vertex 17.2009 -6.8103 4
    endloop
  endfacet
  facet normal 0.904826 -0.425782 -4.76007e-18
    outer loop
      vertex 17.2009 -6.8103 0
      vertex 16.2117 -8.91244 4
      vertex 16.2117 -8.91244 0
    endloop
  endfacet
  facet normal -0.125342 -0.992114 0
    outer loop
      vertex -3.46655 -18.1723 0
      vertex -1.16162 -18.4635 4
      vertex -3.46655 -18.1723 4
    endloop
  endfacet
  facet normal -0.125342 -0.992114 -0
    outer loop
      vertex -1.16162 -18.4635 4
      vertex -3.46655 -18.1723 0
      vertex -1.16162 -18.4635 0
    endloop
  endfacet
  facet normal -0.368107 -0.929784 0
    outer loop
      vertex -7.87692 -16.7393 0
      vertex -5.71681 -17.5945 4
      vertex -7.87692 -16.7393 4
    endloop
  endfacet
  facet normal -0.368107 -0.929784 -0
    outer loop
      vertex -5.71681 -17.5945 4
      vertex -7.87692 -16.7393 0
      vertex -5.71681 -17.5945 0
    endloop
  endfacet
  facet normal -0.248703 -0.96858 0
    outer loop
      vertex -5.71681 -17.5945 0
      vertex -3.46655 -18.1723 4
      vertex -5.71681 -17.5945 4
    endloop
  endfacet
  facet normal -0.248703 -0.96858 -0
    outer loop
      vertex -3.46655 -18.1723 4
      vertex -5.71681 -17.5945 0
      vertex -3.46655 -18.1723 0
    endloop
  endfacet
  facet normal -0.770513 -0.637424 1.08735e-17
    outer loop
      vertex -13.4859 -12.6641 0
      vertex -14.9668 -10.874 4
      vertex -14.9668 -10.874 0
    endloop
  endfacet
  facet normal -0.770513 -0.637424 1.08735e-17
    outer loop
      vertex -14.9668 -10.874 4
      vertex -13.4859 -12.6641 0
      vertex -13.4859 -12.6641 4
    endloop
  endfacet
  facet normal -0.684548 -0.728968 0
    outer loop
      vertex -13.4859 -12.6641 0
      vertex -11.7923 -14.2545 4
      vertex -13.4859 -12.6641 4
    endloop
  endfacet
  facet normal -0.684548 -0.728968 -0
    outer loop
      vertex -11.7923 -14.2545 4
      vertex -13.4859 -12.6641 0
      vertex -11.7923 -14.2545 0
    endloop
  endfacet
  facet normal -0.98229 -0.187367 4.35175e-18
    outer loop
      vertex -17.9188 -4.60076 0
      vertex -18.3541 -2.31866 4
      vertex -18.3541 -2.31866 0
    endloop
  endfacet
  facet normal -0.98229 -0.187367 4.35175e-18
    outer loop
      vertex -18.3541 -2.31866 4
      vertex -17.9188 -4.60076 0
      vertex -17.9188 -4.60076 4
    endloop
  endfacet
  facet normal -0.998026 -0.0628001 -9.47935e-19
    outer loop
      vertex -18.3541 -2.31866 0
      vertex -18.5 0 4
      vertex -18.5 0 0
    endloop
  endfacet
  facet normal -0.998026 -0.0628001 -9.47935e-19
    outer loop
      vertex -18.5 0 4
      vertex -18.3541 -2.31866 0
      vertex -18.3541 -2.31866 4
    endloop
  endfacet
  facet normal 0.587803 -0.809004 0
    outer loop
      vertex 9.9128 -15.6201 0
      vertex 11.7923 -14.2545 4
      vertex 9.9128 -15.6201 4
    endloop
  endfacet
  facet normal 0.587803 -0.809004 0
    outer loop
      vertex 11.7923 -14.2545 4
      vertex 9.9128 -15.6201 0
      vertex 11.7923 -14.2545 0
    endloop
  endfacet
  facet normal -0.844317 -0.535844 -2.33337e-20
    outer loop
      vertex -14.9668 -10.874 0
      vertex -16.2117 -8.91244 4
      vertex -16.2117 -8.91244 0
    endloop
  endfacet
  facet normal -0.844317 -0.535844 -2.33337e-20
    outer loop
      vertex -16.2117 -8.91244 4
      vertex -14.9668 -10.874 0
      vertex -14.9668 -10.874 4
    endloop
  endfacet
  facet normal -0.481742 -0.876313 0
    outer loop
      vertex -9.9128 -15.6201 0
      vertex -7.87692 -16.7393 4
      vertex -9.9128 -15.6201 4
    endloop
  endfacet
  facet normal -0.481742 -0.876313 -0
    outer loop
      vertex -7.87692 -16.7393 4
      vertex -9.9128 -15.6201 0
      vertex -7.87692 -16.7393 0
    endloop
  endfacet
  facet normal -0.587803 -0.809004 0
    outer loop
      vertex -11.7923 -14.2545 0
      vertex -9.9128 -15.6201 4
      vertex -11.7923 -14.2545 4
    endloop
  endfacet
  facet normal -0.587803 -0.809004 -0
    outer loop
      vertex -9.9128 -15.6201 4
      vertex -11.7923 -14.2545 0
      vertex -9.9128 -15.6201 0
    endloop
  endfacet
  facet normal -0.998026 -0.0628013 -1.23207e-18
    outer loop
      vertex 15 0 0
      vertex 14.8817 1.88 4
      vertex 14.8817 1.88 0
    endloop
  endfacet
  facet normal -0.998026 -0.0628013 -1.23207e-18
    outer loop
      vertex 14.8817 1.88 4
      vertex 15 0 0
      vertex 15 0 4
    endloop
  endfacet
  facet normal 0.998026 -0.0628013 1.23207e-18
    outer loop
      vertex -15 0 4
      vertex -14.8817 1.88 0
      vertex -14.8817 1.88 4
    endloop
  endfacet
  facet normal 0.998026 -0.0628013 1.23207e-18
    outer loop
      vertex -14.8817 1.88 0
      vertex -15 0 4
      vertex -15 0 0
    endloop
  endfacet
  facet normal 0 -1 0
    outer loop
      vertex -0.941857 14.9704 0
      vertex 0.941857 14.9704 4
      vertex -0.941857 14.9704 4
    endloop
  endfacet
  facet normal 0 -1 -0
    outer loop
      vertex 0.941857 14.9704 4
      vertex -0.941857 14.9704 0
      vertex 0.941857 14.9704 0
    endloop
  endfacet
  facet normal 0 1 -0
    outer loop
      vertex 0.941857 -14.9704 0
      vertex -0.941857 -14.9704 4
      vertex 0.941857 -14.9704 4
    endloop
  endfacet
  facet normal 0 1 0
    outer loop
      vertex -0.941857 -14.9704 4
      vertex 0.941857 -14.9704 0
      vertex -0.941857 -14.9704 0
    endloop
  endfacet
  facet normal -0.684557 -0.728959 0
    outer loop
      vertex 9.56136 11.5577 0
      vertex 10.9345 10.2682 4
      vertex 9.56136 11.5577 4
    endloop
  endfacet
  facet normal -0.684557 -0.728959 -0
    outer loop
      vertex 10.9345 10.2682 4
      vertex 9.56136 11.5577 0
      vertex 10.9345 10.2682 0
    endloop
  endfacet
  facet normal 0.684557 -0.728959 0
    outer loop
      vertex -10.9345 10.2682 0
      vertex -9.56136 11.5577 4
      vertex -10.9345 10.2682 4
    endloop
  endfacet
  facet normal 0.684557 -0.728959 0
    outer loop
      vertex -9.56136 11.5577 4
      vertex -10.9345 10.2682 0
      vertex -9.56136 11.5577 0
    endloop
  endfacet
  facet normal 0.368104 -0.929785 0
    outer loop
      vertex -6.38669 13.5724 0
      vertex -4.63525 14.2658 4
      vertex -6.38669 13.5724 4
    endloop
  endfacet
  facet normal 0.368104 -0.929785 0
    outer loop
      vertex -4.63525 14.2658 4
      vertex -6.38669 13.5724 0
      vertex -4.63525 14.2658 0
    endloop
  endfacet
  facet normal -0.951057 0.309017 1.35258e-17
    outer loop
      vertex 13.9466 -5.52187 0
      vertex 14.5287 -3.73035 4
      vertex 14.5287 -3.73035 0
    endloop
  endfacet
  facet normal -0.951057 0.309017 1.35258e-17
    outer loop
      vertex 14.5287 -3.73035 4
      vertex 13.9466 -5.52187 0
      vertex 13.9466 -5.52187 4
    endloop
  endfacet
  facet normal -0.904837 -0.425758 2.40301e-18
    outer loop
      vertex 13.9466 5.52187 0
      vertex 13.1446 7.22631 4
      vertex 13.1446 7.22631 0
    endloop
  endfacet
  facet normal -0.904837 -0.425758 2.40301e-18
    outer loop
      vertex 13.1446 7.22631 4
      vertex 13.9466 5.52187 0
      vertex 13.9466 5.52187 4
    endloop
  endfacet
  facet normal -0.844338 -0.535811 5.55429e-18
    outer loop
      vertex 13.1446 7.22631 0
      vertex 12.1353 8.81678 4
      vertex 12.1353 8.81678 0
    endloop
  endfacet
  facet normal -0.844338 -0.535811 5.55429e-18
    outer loop
      vertex 12.1353 8.81678 4
      vertex 13.1446 7.22631 0
      vertex 13.1446 7.22631 4
    endloop
  endfacet
  facet normal -0.368104 -0.929785 0
    outer loop
      vertex 4.63525 14.2658 0
      vertex 6.38669 13.5724 4
      vertex 4.63525 14.2658 4
    endloop
  endfacet
  facet normal -0.368104 -0.929785 -0
    outer loop
      vertex 6.38669 13.5724 4
      vertex 4.63525 14.2658 0
      vertex 6.38669 13.5724 0
    endloop
  endfacet
  facet normal -0.48176 -0.876303 0
    outer loop
      vertex 6.38669 13.5724 0
      vertex 8.0374 12.6649 4
      vertex 6.38669 13.5724 4
    endloop
  endfacet
  facet normal -0.48176 -0.876303 -0
    outer loop
      vertex 8.0374 12.6649 4
      vertex 6.38669 13.5724 0
      vertex 8.0374 12.6649 0
    endloop
  endfacet
  facet normal 0.904837 -0.425758 -2.40301e-18
    outer loop
      vertex -13.9466 5.52187 4
      vertex -13.1446 7.22631 0
      vertex -13.1446 7.22631 4
    endloop
  endfacet
  facet normal 0.904837 -0.425758 -2.40301e-18
    outer loop
      vertex -13.1446 7.22631 0
      vertex -13.9466 5.52187 4
      vertex -13.9466 5.52187 0
    endloop
  endfacet
  facet normal 0.951057 -0.309017 1.35258e-17
    outer loop
      vertex -14.5287 3.73035 4
      vertex -13.9466 5.52187 0
      vertex -13.9466 5.52187 4
    endloop
  endfacet
  facet normal 0.951057 -0.309017 1.35258e-17
    outer loop
      vertex -13.9466 5.52187 0
      vertex -14.5287 3.73035 4
      vertex -14.5287 3.73035 0
    endloop
  endfacet
  facet normal 0.24871 -0.968578 0
    outer loop
      vertex -4.63525 14.2658 0
      vertex -2.81072 14.7343 4
      vertex -4.63525 14.2658 4
    endloop
  endfacet
  facet normal 0.24871 -0.968578 0
    outer loop
      vertex -2.81072 14.7343 4
      vertex -4.63525 14.2658 0
      vertex -2.81072 14.7343 0
    endloop
  endfacet
  facet normal -0.125337 0.992114 0
    outer loop
      vertex 2.81072 -14.7343 0
      vertex 0.941857 -14.9704 4
      vertex 2.81072 -14.7343 4
    endloop
  endfacet
  facet normal -0.125337 0.992114 0
    outer loop
      vertex 0.941857 -14.9704 4
      vertex 2.81072 -14.7343 0
      vertex 0.941857 -14.9704 0
    endloop
  endfacet
  facet normal -0.951057 -0.309017 -1.35258e-17
    outer loop
      vertex 14.5287 3.73035 0
      vertex 13.9466 5.52187 4
      vertex 13.9466 5.52187 0
    endloop
  endfacet
  facet normal -0.951057 -0.309017 -1.35258e-17
    outer loop
      vertex 13.9466 5.52187 4
      vertex 14.5287 3.73035 0
      vertex 14.5287 3.73035 4
    endloop
  endfacet
  facet normal -0.982285 -0.187395 -6.46071e-18
    outer loop
      vertex 14.8817 1.88 0
      vertex 14.5287 3.73035 4
      vertex 14.5287 3.73035 0
    endloop
  endfacet
  facet normal -0.982285 -0.187395 -6.46071e-18
    outer loop
      vertex 14.5287 3.73035 4
      vertex 14.8817 1.88 0
      vertex 14.8817 1.88 4
    endloop
  endfacet
  facet normal -0.770492 -0.63745 1.35974e-17
    outer loop
      vertex 12.1353 8.81678 0
      vertex 10.9345 10.2682 4
      vertex 10.9345 10.2682 0
    endloop
  endfacet
  facet normal -0.770492 -0.63745 1.35974e-17
    outer loop
      vertex 10.9345 10.2682 4
      vertex 12.1353 8.81678 0
      vertex 12.1353 8.81678 4
    endloop
  endfacet
  facet normal -0.24871 -0.968578 0
    outer loop
      vertex 2.81072 14.7343 0
      vertex 4.63525 14.2658 4
      vertex 2.81072 14.7343 4
    endloop
  endfacet
  facet normal -0.24871 -0.968578 -0
    outer loop
      vertex 4.63525 14.2658 4
      vertex 2.81072 14.7343 0
      vertex 4.63525 14.2658 0
    endloop
  endfacet
  facet normal -0.125337 -0.992114 0
    outer loop
      vertex 0.941857 14.9704 0
      vertex 2.81072 14.7343 4
      vertex 0.941857 14.9704 4
    endloop
  endfacet
  facet normal -0.125337 -0.992114 -0
    outer loop
      vertex 2.81072 14.7343 4
      vertex 0.941857 14.9704 0
      vertex 2.81072 14.7343 0
    endloop
  endfacet
  facet normal -0.587778 -0.809022 0
    outer loop
      vertex 8.0374 12.6649 0
      vertex 9.56136 11.5577 4
      vertex 8.0374 12.6649 4
    endloop
  endfacet
  facet normal -0.587778 -0.809022 -0
    outer loop
      vertex 9.56136 11.5577 4
      vertex 8.0374 12.6649 0
      vertex 9.56136 11.5577 0
    endloop
  endfacet
  facet normal 0.844338 -0.535811 -5.55429e-18
    outer loop
      vertex -13.1446 7.22631 4
      vertex -12.1353 8.81678 0
      vertex -12.1353 8.81678 4
    endloop
  endfacet
  facet normal 0.844338 -0.535811 -5.55429e-18
    outer loop
      vertex -12.1353 8.81678 0
      vertex -13.1446 7.22631 4
      vertex -13.1446 7.22631 0
    endloop
  endfacet
  facet normal 0.770492 -0.63745 -1.35974e-17
    outer loop
      vertex -12.1353 8.81678 4
      vertex -10.9345 10.2682 0
      vertex -10.9345 10.2682 4
    endloop
  endfacet
  facet normal 0.770492 -0.63745 -1.35974e-17
    outer loop
      vertex -10.9345 10.2682 0
      vertex -12.1353 8.81678 4
      vertex -12.1353 8.81678 0
    endloop
  endfacet
  facet normal 0.982285 -0.187395 6.46071e-18
    outer loop
      vertex -14.8817 1.88 4
      vertex -14.5287 3.73035 0
      vertex -14.5287 3.73035 4
    endloop
  endfacet
  facet normal 0.982285 -0.187395 6.46071e-18
    outer loop
      vertex -14.5287 3.73035 0
      vertex -14.8817 1.88 4
      vertex -14.8817 1.88 0
    endloop
  endfacet
  facet normal 0.48176 -0.876303 0
    outer loop
      vertex -8.0374 12.6649 0
      vertex -6.38669 13.5724 4
      vertex -8.0374 12.6649 4
    endloop
  endfacet
  facet normal 0.48176 -0.876303 0
    outer loop
      vertex -6.38669 13.5724 4
      vertex -8.0374 12.6649 0
      vertex -6.38669 13.5724 0
    endloop
  endfacet
  facet normal 0.587778 -0.809022 0
    outer loop
      vertex -9.56136 11.5577 0
      vertex -8.0374 12.6649 4
      vertex -9.56136 11.5577 4
    endloop
  endfacet
  facet normal 0.587778 -0.809022 0
    outer loop
      vertex -8.0374 12.6649 4
      vertex -9.56136 11.5577 0
      vertex -8.0374 12.6649 0
    endloop
  endfacet
  facet normal 0.125337 -0.992114 0
    outer loop
      vertex -2.81072 14.7343 0
      vertex -0.941857 14.9704 4
      vertex -2.81072 14.7343 4
    endloop
  endfacet
  facet normal 0.125337 -0.992114 0
    outer loop
      vertex -0.941857 14.9704 4
      vertex -2.81072 14.7343 0
      vertex -0.941857 14.9704 0
    endloop
  endfacet
  facet normal -0.770492 0.63745 -1.35974e-17
    outer loop
      vertex 10.9345 -10.2682 0
      vertex 12.1353 -8.81678 4
      vertex 12.1353 -8.81678 0
    endloop
  endfacet
  facet normal -0.770492 0.63745 -1.35974e-17
    outer loop
      vertex 12.1353 -8.81678 4
      vertex 10.9345 -10.2682 0
      vertex 10.9345 -10.2682 4
    endloop
  endfacet
  facet normal -0.904837 0.425758 -2.40301e-18
    outer loop
      vertex 13.1446 -7.22631 0
      vertex 13.9466 -5.52187 4
      vertex 13.9466 -5.52187 0
    endloop
  endfacet
  facet normal -0.904837 0.425758 -2.40301e-18
    outer loop
      vertex 13.9466 -5.52187 4
      vertex 13.1446 -7.22631 0
      vertex 13.1446 -7.22631 4
    endloop
  endfacet
  facet normal -0.982285 0.187395 6.46071e-18
    outer loop
      vertex 14.5287 -3.73035 0
      vertex 14.8817 -1.88 4
      vertex 14.8817 -1.88 0
    endloop
  endfacet
  facet normal -0.982285 0.187395 6.46071e-18
    outer loop
      vertex 14.8817 -1.88 4
      vertex 14.5287 -3.73035 0
      vertex 14.5287 -3.73035 4
    endloop
  endfacet
  facet normal -0.48176 0.876303 0
    outer loop
      vertex 8.0374 -12.6649 0
      vertex 6.38669 -13.5724 4
      vertex 8.0374 -12.6649 4
    endloop
  endfacet
  facet normal -0.48176 0.876303 0
    outer loop
      vertex 6.38669 -13.5724 4
      vertex 8.0374 -12.6649 0
      vertex 6.38669 -13.5724 0
    endloop
  endfacet
  facet normal -0.684557 0.728959 0
    outer loop
      vertex 10.9345 -10.2682 0
      vertex 9.56136 -11.5577 4
      vertex 10.9345 -10.2682 4
    endloop
  endfacet
  facet normal -0.684557 0.728959 0
    outer loop
      vertex 9.56136 -11.5577 4
      vertex 10.9345 -10.2682 0
      vertex 9.56136 -11.5577 0
    endloop
  endfacet
  facet normal -0.844338 0.535811 -5.55429e-18
    outer loop
      vertex 12.1353 -8.81678 0
      vertex 13.1446 -7.22631 4
      vertex 13.1446 -7.22631 0
    endloop
  endfacet
  facet normal -0.844338 0.535811 -5.55429e-18
    outer loop
      vertex 13.1446 -7.22631 4
      vertex 12.1353 -8.81678 0
      vertex 12.1353 -8.81678 4
    endloop
  endfacet
  facet normal -0.998026 0.0628013 1.23207e-18
    outer loop
      vertex 14.8817 -1.88 0
      vertex 15 0 4
      vertex 15 0 0
    endloop
  endfacet
  facet normal -0.998026 0.0628013 1.23207e-18
    outer loop
      vertex 15 0 4
      vertex 14.8817 -1.88 0
      vertex 14.8817 -1.88 4
    endloop
  endfacet
  facet normal 0.844338 0.535811 5.55429e-18
    outer loop
      vertex -12.1353 -8.81678 4
      vertex -13.1446 -7.22631 0
      vertex -13.1446 -7.22631 4
    endloop
  endfacet
  facet normal 0.844338 0.535811 5.55429e-18
    outer loop
      vertex -13.1446 -7.22631 0
      vertex -12.1353 -8.81678 4
      vertex -12.1353 -8.81678 0
    endloop
  endfacet
  facet normal 0.951057 0.309017 -1.35258e-17
    outer loop
      vertex -13.9466 -5.52187 4
      vertex -14.5287 -3.73035 0
      vertex -14.5287 -3.73035 4
    endloop
  endfacet
  facet normal 0.951057 0.309017 -1.35258e-17
    outer loop
      vertex -14.5287 -3.73035 0
      vertex -13.9466 -5.52187 4
      vertex -13.9466 -5.52187 0
    endloop
  endfacet
  facet normal -0.368104 0.929785 0
    outer loop
      vertex 6.38669 -13.5724 0
      vertex 4.63525 -14.2658 4
      vertex 6.38669 -13.5724 4
    endloop
  endfacet
  facet normal -0.368104 0.929785 0
    outer loop
      vertex 4.63525 -14.2658 4
      vertex 6.38669 -13.5724 0
      vertex 4.63525 -14.2658 0
    endloop
  endfacet
  facet normal -0.24871 0.968578 0
    outer loop
      vertex 4.63525 -14.2658 0
      vertex 2.81072 -14.7343 4
      vertex 4.63525 -14.2658 4
    endloop
  endfacet
  facet normal -0.24871 0.968578 0
    outer loop
      vertex 2.81072 -14.7343 4
      vertex 4.63525 -14.2658 0
      vertex 2.81072 -14.7343 0
    endloop
  endfacet
  facet normal 0.125337 0.992114 -0
    outer loop
      vertex -0.941857 -14.9704 0
      vertex -2.81072 -14.7343 4
      vertex -0.941857 -14.9704 4
    endloop
  endfacet
  facet normal 0.125337 0.992114 0
    outer loop
      vertex -2.81072 -14.7343 4
      vertex -0.941857 -14.9704 0
      vertex -2.81072 -14.7343 0
    endloop
  endfacet
  facet normal 0.368104 0.929785 -0
    outer loop
      vertex -4.63525 -14.2658 0
      vertex -6.38669 -13.5724 4
      vertex -4.63525 -14.2658 4
    endloop
  endfacet
  facet normal 0.368104 0.929785 0
    outer loop
      vertex -6.38669 -13.5724 4
      vertex -4.63525 -14.2658 0
      vertex -6.38669 -13.5724 0
    endloop
  endfacet
  facet normal 0.24871 0.968578 -0
    outer loop
      vertex -2.81072 -14.7343 0
      vertex -4.63525 -14.2658 4
      vertex -2.81072 -14.7343 4
    endloop
  endfacet
  facet normal 0.24871 0.968578 0
    outer loop
      vertex -4.63525 -14.2658 4
      vertex -2.81072 -14.7343 0
      vertex -4.63525 -14.2658 0
    endloop
  endfacet
  facet normal 0.684557 0.728959 -0
    outer loop
      vertex -9.56136 -11.5577 0
      vertex -10.9345 -10.2682 4
      vertex -9.56136 -11.5577 4
    endloop
  endfacet
  facet normal 0.684557 0.728959 0
    outer loop
      vertex -10.9345 -10.2682 4
      vertex -9.56136 -11.5577 0
      vertex -10.9345 -10.2682 0
    endloop
  endfacet
  facet normal 0.770492 0.63745 1.35974e-17
    outer loop
      vertex -10.9345 -10.2682 4
      vertex -12.1353 -8.81678 0
      vertex -12.1353 -8.81678 4
    endloop
  endfacet
  facet normal 0.770492 0.63745 1.35974e-17
    outer loop
      vertex -12.1353 -8.81678 0
      vertex -10.9345 -10.2682 4
      vertex -10.9345 -10.2682 0
    endloop
  endfacet
  facet normal 0.904837 0.425758 2.40301e-18
    outer loop
      vertex -13.1446 -7.22631 4
      vertex -13.9466 -5.52187 0
      vertex -13.9466 -5.52187 4
    endloop
  endfacet
  facet normal 0.904837 0.425758 2.40301e-18
    outer loop
      vertex -13.9466 -5.52187 0
      vertex -13.1446 -7.22631 4
      vertex -13.1446 -7.22631 0
    endloop
  endfacet
  facet normal 0.982285 0.187395 -6.46071e-18
    outer loop
      vertex -14.5287 -3.73035 4
      vertex -14.8817 -1.88 0
      vertex -14.8817 -1.88 4
    endloop
  endfacet
  facet normal 0.982285 0.187395 -6.46071e-18
    outer loop
      vertex -14.8817 -1.88 0
      vertex -14.5287 -3.73035 4
      vertex -14.5287 -3.73035 0
    endloop
  endfacet
  facet normal 0.998026 0.0628013 -1.23207e-18
    outer loop
      vertex -14.8817 -1.88 4
      vertex -15 0 0
      vertex -15 0 4
    endloop
  endfacet
  facet normal 0.998026 0.0628013 -1.23207e-18
    outer loop
      vertex -15 0 0
      vertex -14.8817 -1.88 4
      vertex -14.8817 -1.88 0
    endloop
  endfacet
  facet normal -0.587778 0.809022 0
    outer loop
      vertex 9.56136 -11.5577 0
      vertex 8.0374 -12.6649 4
      vertex 9.56136 -11.5577 4
    endloop
  endfacet
  facet normal -0.587778 0.809022 0
    outer loop
      vertex 8.0374 -12.6649 4
      vertex 9.56136 -11.5577 0
      vertex 8.0374 -12.6649 0
    endloop
  endfacet
  facet normal 0.48176 0.876303 -0
    outer loop
      vertex -6.38669 -13.5724 0
      vertex -8.0374 -12.6649 4
      vertex -6.38669 -13.5724 4
    endloop
  endfacet
  facet normal 0.48176 0.876303 0
    outer loop
      vertex -8.0374 -12.6649 4
      vertex -6.38669 -13.5724 0
      vertex -8.0374 -12.6649 0
    endloop
  endfacet
  facet normal 0.587778 0.809022 -0
    outer loop
      vertex -8.0374 -12.6649 0
      vertex -9.56136 -11.5577 4
      vertex -8.0374 -12.6649 4
    endloop
  endfacet
  facet normal 0.587778 0.809022 0
    outer loop
      vertex -9.56136 -11.5577 4
      vertex -8.0374 -12.6649 0
      vertex -9.56136 -11.5577 0
    endloop
  endfacet
endsolid OpenSCAD_Model
