<?xml version="1.0" standalone="no"?>
<!DOCTYPE svg PUBLIC "-//W3C//DTD SVG 1.1//EN" "http://www.w3.org/Graphics/SVG/1.1/DTD/svg11.dtd">
<svg width="38mm" height="636mm" viewBox="-19 -1221 38 636" xmlns="http://www.w3.org/2000/svg" version="1.1">
<title>OpenSCAD Model</title>
<path d="
M 14.6869,-1101.09 L 15.2951,-1101.24 L 15.8789,-1101.48 L 16.4291,-1101.78 L 16.9371,-1102.15 L 17.3948,-1102.58
 L 17.7951,-1103.06 L 18.1315,-1103.59 L 18.3989,-1104.16 L 18.5929,-1104.76 L 18.7106,-1105.37 L 18.75,-1106
 L 18.75,-1216 L 18.7106,-1216.63 L 18.5929,-1217.24 L 18.3989,-1217.84 L 18.1315,-1218.41 L 17.7951,-1218.94
 L 17.3948,-1219.42 L 16.9371,-1219.85 L 16.4291,-1220.22 L 15.8789,-1220.52 L 15.2951,-1220.76 L 14.6869,-1220.91
 L 14.0639,-1220.99 L -14.0639,-1220.99 L -14.6869,-1220.91 L -15.2951,-1220.76 L -15.8789,-1220.52 L -16.4291,-1220.22
 L -16.9371,-1219.85 L -17.3948,-1219.42 L -17.7951,-1218.94 L -18.1315,-1218.41 L -18.3989,-1217.84 L -18.5929,-1217.24
 L -18.7106,-1216.63 L -18.75,-1216 L -18.75,-1106 L -18.7106,-1105.37 L -18.5929,-1104.76 L -18.3989,-1104.16
 L -18.1315,-1103.59 L -17.7951,-1103.06 L -17.3948,-1102.58 L -16.9371,-1102.15 L -16.4291,-1101.78 L -15.8789,-1101.48
 L -15.2951,-1101.24 L -14.6869,-1101.09 L -14.0639,-1101.01 L 14.0639,-1101.01 z
M -13.7982,-1101.51 L -14.3901,-1101.58 L -14.9678,-1101.73 L -15.5224,-1101.95 L -16.0452,-1102.24 L -16.5278,-1102.59
 L -16.9626,-1103 L -17.3428,-1103.46 L -17.6624,-1103.96 L -17.9164,-1104.5 L -18.1008,-1105.07 L -18.2125,-1105.65
 L -18.25,-1106.25 L -18.25,-1215.75 L -18.2125,-1216.35 L -18.1008,-1216.93 L -17.9164,-1217.5 L -17.6624,-1218.04
 L -17.3428,-1218.54 L -16.9626,-1219 L -16.5278,-1219.41 L -16.0452,-1219.76 L -15.5224,-1220.05 L -14.9678,-1220.27
 L -14.3901,-1220.42 L -13.7982,-1220.49 L 13.7982,-1220.49 L 14.3901,-1220.42 L 14.9678,-1220.27 L 15.5224,-1220.05
 L 16.0452,-1219.76 L 16.5278,-1219.41 L 16.9626,-1219 L 17.3428,-1218.54 L 17.6624,-1218.04 L 17.9164,-1217.5
 L 18.1008,-1216.93 L 18.2125,-1216.35 L 18.25,-1215.75 L 18.25,-1106.25 L 18.2125,-1105.65 L 18.1008,-1105.07
 L 17.9164,-1104.5 L 17.6624,-1103.96 L 17.3428,-1103.46 L 16.9626,-1103 L 16.5278,-1102.59 L 16.0452,-1102.24
 L 15.5224,-1101.95 L 14.9678,-1101.73 L 14.3901,-1101.58 L 13.7982,-1101.51 z
M 14.6869,-972.089 L 15.2951,-972.245 L 15.8789,-972.476 L 16.4291,-972.778 L 16.9371,-973.147 L 17.3948,-973.577
 L 17.7951,-974.061 L 18.1315,-974.591 L 18.3989,-975.159 L 18.5929,-975.757 L 18.7106,-976.373 L 18.75,-977
 L 18.75,-1087 L 18.7106,-1087.63 L 18.5929,-1088.24 L 18.3989,-1088.84 L 18.1315,-1089.41 L 17.7951,-1089.94
 L 17.3948,-1090.42 L 16.9371,-1090.85 L 16.4291,-1091.22 L 15.8789,-1091.52 L 15.2951,-1091.76 L 14.6869,-1091.91
 L 14.0639,-1091.99 L -14.0639,-1091.99 L -14.6869,-1091.91 L -15.2951,-1091.76 L -15.8789,-1091.52 L -16.4291,-1091.22
 L -16.9371,-1090.85 L -17.3948,-1090.42 L -17.7951,-1089.94 L -18.1315,-1089.41 L -18.3989,-1088.84 L -18.5929,-1088.24
 L -18.7106,-1087.63 L -18.75,-1087 L -18.75,-977 L -18.7106,-976.373 L -18.5929,-975.757 L -18.3989,-975.159
 L -18.1315,-974.591 L -17.7951,-974.061 L -17.3948,-973.577 L -16.9371,-973.147 L -16.4291,-972.778 L -15.8789,-972.476
 L -15.2951,-972.245 L -14.6869,-972.089 L -14.0639,-972.01 L 14.0639,-972.01 z
M -13.7982,-972.509 L -14.3901,-972.584 L -14.9678,-972.732 L -15.5224,-972.952 L -16.0452,-973.239 L -16.5278,-973.59
 L -16.9626,-973.998 L -17.3428,-974.458 L -17.6624,-974.962 L -17.9164,-975.501 L -18.1008,-976.069 L -18.2125,-976.655
 L -18.25,-977.25 L -18.25,-1086.75 L -18.2125,-1087.35 L -18.1008,-1087.93 L -17.9164,-1088.5 L -17.6624,-1089.04
 L -17.3428,-1089.54 L -16.9626,-1090 L -16.5278,-1090.41 L -16.0452,-1090.76 L -15.5224,-1091.05 L -14.9678,-1091.27
 L -14.3901,-1091.42 L -13.7982,-1091.49 L 13.7982,-1091.49 L 14.3901,-1091.42 L 14.9678,-1091.27 L 15.5224,-1091.05
 L 16.0452,-1090.76 L 16.5278,-1090.41 L 16.9626,-1090 L 17.3428,-1089.54 L 17.6624,-1089.04 L 17.9164,-1088.5
 L 18.1008,-1087.93 L 18.2125,-1087.35 L 18.25,-1086.75 L 18.25,-977.25 L 18.2125,-976.655 L 18.1008,-976.069
 L 17.9164,-975.501 L 17.6624,-974.962 L 17.3428,-974.458 L 16.9626,-973.998 L 16.5278,-973.59 L 16.0452,-973.239
 L 15.5224,-972.952 L 14.9678,-972.732 L 14.3901,-972.584 L 13.7982,-972.509 z
M 14.6869,-843.089 L 15.2951,-843.245 L 15.8789,-843.476 L 16.4291,-843.778 L 16.9371,-844.147 L 17.3948,-844.577
 L 17.7951,-845.061 L 18.1315,-845.591 L 18.3989,-846.159 L 18.5929,-846.757 L 18.7106,-847.373 L 18.75,-848
 L 18.75,-958 L 18.7106,-958.627 L 18.5929,-959.243 L 18.3989,-959.841 L 18.1315,-960.409 L 17.7951,-960.939
 L 17.3948,-961.423 L 16.9371,-961.853 L 16.4291,-962.222 L 15.8789,-962.524 L 15.2951,-962.755 L 14.6869,-962.911
 L 14.0639,-962.99 L -14.0639,-962.99 L -14.6869,-962.911 L -15.2951,-962.755 L -15.8789,-962.524 L -16.4291,-962.222
 L -16.9371,-961.853 L -17.3948,-961.423 L -17.7951,-960.939 L -18.1315,-960.409 L -18.3989,-959.841 L -18.5929,-959.243
 L -18.7106,-958.627 L -18.75,-958 L -18.75,-848 L -18.7106,-847.373 L -18.5929,-846.757 L -18.3989,-846.159
 L -18.1315,-845.591 L -17.7951,-845.061 L -17.3948,-844.577 L -16.9371,-844.147 L -16.4291,-843.778 L -15.8789,-843.476
 L -15.2951,-843.245 L -14.6869,-843.089 L -14.0639,-843.01 L 14.0639,-843.01 z
M -13.7982,-843.509 L -14.3901,-843.584 L -14.9678,-843.732 L -15.5224,-843.952 L -16.0452,-844.239 L -16.5278,-844.59
 L -16.9626,-844.998 L -17.3428,-845.458 L -17.6624,-845.962 L -17.9164,-846.501 L -18.1008,-847.069 L -18.2125,-847.655
 L -18.25,-848.25 L -18.25,-957.75 L -18.2125,-958.345 L -18.1008,-958.931 L -17.9164,-959.499 L -17.6624,-960.038
 L -17.3428,-960.542 L -16.9626,-961.002 L -16.5278,-961.41 L -16.0452,-961.761 L -15.5224,-962.048 L -14.9678,-962.268
 L -14.3901,-962.416 L -13.7982,-962.491 L 13.7982,-962.491 L 14.3901,-962.416 L 14.9678,-962.268 L 15.5224,-962.048
 L 16.0452,-961.761 L 16.5278,-961.41 L 16.9626,-961.002 L 17.3428,-960.542 L 17.6624,-960.038 L 17.9164,-959.499
 L 18.1008,-958.931 L 18.2125,-958.345 L 18.25,-957.75 L 18.25,-848.25 L 18.2125,-847.655 L 18.1008,-847.069
 L 17.9164,-846.501 L 17.6624,-845.962 L 17.3428,-845.458 L 16.9626,-844.998 L 16.5278,-844.59 L 16.0452,-844.239
 L 15.5224,-843.952 L 14.9678,-843.732 L 14.3901,-843.584 L 13.7982,-843.509 z
M 14.6869,-714.089 L 15.2951,-714.245 L 15.8789,-714.476 L 16.4291,-714.778 L 16.9371,-715.147 L 17.3948,-715.577
 L 17.7951,-716.061 L 18.1315,-716.591 L 18.3989,-717.159 L 18.5929,-717.757 L 18.7106,-718.373 L 18.75,-719
 L 18.75,-829 L 18.7106,-829.627 L 18.5929,-830.243 L 18.3989,-830.841 L 18.1315,-831.409 L 17.7951,-831.939
 L 17.3948,-832.423 L 16.9371,-832.853 L 16.4291,-833.222 L 15.8789,-833.524 L 15.2951,-833.755 L 14.6869,-833.911
 L 14.0639,-833.99 L -14.0639,-833.99 L -14.6869,-833.911 L -15.2951,-833.755 L -15.8789,-833.524 L -16.4291,-833.222
 L -16.9371,-832.853 L -17.3948,-832.423 L -17.7951,-831.939 L -18.1315,-831.409 L -18.3989,-830.841 L -18.5929,-830.243
 L -18.7106,-829.627 L -18.75,-829 L -18.75,-719 L -18.7106,-718.373 L -18.5929,-717.757 L -18.3989,-717.159
 L -18.1315,-716.591 L -17.7951,-716.061 L -17.3948,-715.577 L -16.9371,-715.147 L -16.4291,-714.778 L -15.8789,-714.476
 L -15.2951,-714.245 L -14.6869,-714.089 L -14.0639,-714.01 L 14.0639,-714.01 z
M -13.7875,-714.681 L -14.3579,-714.753 L -14.9148,-714.896 L -15.4494,-715.107 L -15.9532,-715.384 L -16.4184,-715.722
 L -16.8375,-716.116 L -17.204,-716.559 L -17.5121,-717.044 L -17.7569,-717.565 L -17.9346,-718.111 L -18.0423,-718.676
 L -18.0784,-719.25 L -18.0784,-828.75 L -18.0423,-829.324 L -17.9346,-829.889 L -17.7569,-830.435 L -17.5121,-830.956
 L -17.204,-831.441 L -16.8375,-831.884 L -16.4184,-832.278 L -15.9532,-832.616 L -15.4494,-832.893 L -14.9148,-833.104
 L -14.3579,-833.247 L -13.7875,-833.319 L 13.7875,-833.319 L 14.3579,-833.247 L 14.9148,-833.104 L 15.4494,-832.893
 L 15.9532,-832.616 L 16.4184,-832.278 L 16.8375,-831.884 L 17.204,-831.441 L 17.5121,-830.956 L 17.7569,-830.435
 L 17.9346,-829.889 L 18.0423,-829.324 L 18.0784,-828.75 L 18.0784,-719.25 L 18.0423,-718.676 L 17.9346,-718.111
 L 17.7569,-717.565 L 17.5121,-717.044 L 17.204,-716.559 L 16.8375,-716.116 L 16.4184,-715.722 L 15.9532,-715.384
 L 15.4494,-715.107 L 14.9148,-714.896 L 14.3579,-714.753 L 13.7875,-714.681 z
M 14.6869,-585.089 L 15.2951,-585.245 L 15.8789,-585.476 L 16.4291,-585.778 L 16.9371,-586.147 L 17.3948,-586.577
 L 17.7951,-587.061 L 18.1315,-587.591 L 18.3989,-588.159 L 18.5929,-588.757 L 18.7106,-589.373 L 18.75,-590
 L 18.75,-700 L 18.7106,-700.627 L 18.5929,-701.243 L 18.3989,-701.841 L 18.1315,-702.409 L 17.7951,-702.939
 L 17.3948,-703.423 L 16.9371,-703.853 L 16.4291,-704.222 L 15.8789,-704.524 L 15.2951,-704.755 L 14.6869,-704.911
 L 14.0639,-704.99 L -14.0639,-704.99 L -14.6869,-704.911 L -15.2951,-704.755 L -15.8789,-704.524 L -16.4291,-704.222
 L -16.9371,-703.853 L -17.3948,-703.423 L -17.7951,-702.939 L -18.1315,-702.409 L -18.3989,-701.841 L -18.5929,-701.243
 L -18.7106,-700.627 L -18.75,-700 L -18.75,-590 L -18.7106,-589.373 L -18.5929,-588.757 L -18.3989,-588.159
 L -18.1315,-587.591 L -17.7951,-587.061 L -17.3948,-586.577 L -16.9371,-586.147 L -16.4291,-585.778 L -15.8789,-585.476
 L -15.2951,-585.245 L -14.6869,-585.089 L -14.0639,-585.01 L 14.0639,-585.01 z
M -13.6325,-588.145 L -13.8953,-588.178 L -14.1519,-588.244 L -14.3982,-588.341 L -14.6304,-588.469 L -14.8447,-588.625
 L -15.0378,-588.806 L -15.2067,-589.01 L -15.3487,-589.234 L -15.4615,-589.473 L -15.5434,-589.725 L -15.593,-589.986
 L -15.6096,-590.25 L -15.6096,-699.75 L -15.593,-700.014 L -15.5434,-700.275 L -15.4615,-700.527 L -15.3487,-700.766
 L -15.2067,-700.99 L -15.0378,-701.194 L -14.8447,-701.375 L -14.6304,-701.531 L -14.3982,-701.659 L -14.1519,-701.756
 L -13.8953,-701.822 L -13.6325,-701.855 L 13.6325,-701.855 L 13.8953,-701.822 L 14.1519,-701.756 L 14.3982,-701.659
 L 14.6304,-701.531 L 14.8447,-701.375 L 15.0378,-701.194 L 15.2067,-700.99 L 15.3487,-700.766 L 15.4615,-700.527
 L 15.5434,-700.275 L 15.593,-700.014 L 15.6096,-699.75 L 15.6096,-590.25 L 15.593,-589.986 L 15.5434,-589.725
 L 15.4615,-589.473 L 15.3487,-589.234 L 15.2067,-589.01 L 15.0378,-588.806 L 14.8447,-588.625 L 14.6304,-588.469
 L 14.3982,-588.341 L 14.1519,-588.244 L 13.8953,-588.178 L 13.6325,-588.145 z
" stroke="black" fill="lightgray" stroke-width="0.5"/>
</svg>
