<?xml version="1.0" standalone="no"?>
<!DOCTYPE svg PUBLIC "-//W3C//DTD SVG 1.1//EN" "http://www.w3.org/Graphics/SVG/1.1/DTD/svg11.dtd">
<svg width="60mm" height="262mm" viewBox="-30 -455 60 262" xmlns="http://www.w3.org/2000/svg" version="1.1">
<title>OpenSCAD Model</title>
<path d="
M 25.9369,-409.589 L 26.5451,-409.745 L 27.1289,-409.976 L 27.6791,-410.278 L 28.1871,-410.647 L 28.6448,-411.077
 L 29.0451,-411.561 L 29.3815,-412.091 L 29.6489,-412.659 L 29.8429,-413.257 L 29.9606,-413.873 L 30,-414.5
 L 30,-449.5 L 29.9606,-450.127 L 29.8429,-450.743 L 29.6489,-451.341 L 29.3815,-451.909 L 29.0451,-452.439
 L 28.6448,-452.923 L 28.1871,-453.353 L 27.6791,-453.722 L 27.1289,-454.024 L 26.5451,-454.255 L 25.9369,-454.411
 L 25.3139,-454.49 L -25.3139,-454.49 L -25.9369,-454.411 L -26.5451,-454.255 L -27.1289,-454.024 L -27.6791,-453.722
 L -28.1871,-453.353 L -28.6448,-452.923 L -29.0451,-452.439 L -29.3815,-451.909 L -29.6489,-451.341 L -29.8429,-450.743
 L -29.9,-450.444 L -30,-450.444 L -30,-413.556 L -29.9,-413.556 L -29.8429,-413.257 L -29.6489,-412.659
 L -29.3815,-412.091 L -29.0451,-411.561 L -28.6448,-411.077 L -28.1871,-410.647 L -27.6791,-410.278 L -27.1289,-409.976
 L -26.5451,-409.745 L -25.9369,-409.589 L -25.3139,-409.51 L 25.3139,-409.51 z
M -24.7512,-411.008 L -25.2495,-411.071 L -25.7361,-411.196 L -26.2031,-411.381 L -26.6433,-411.623 L -27.0497,-411.918
 L -27.4159,-412.262 L -27.7361,-412.649 L -28.0052,-413.073 L -28.2191,-413.528 L -28.3743,-414.005 L -28.4684,-414.499
 L -28.5,-415 L -28.5,-449 L -28.4684,-449.501 L -28.3743,-449.995 L -28.2191,-450.472 L -28.0052,-450.927
 L -27.7361,-451.351 L -27.4159,-451.738 L -27.0497,-452.082 L -26.6433,-452.377 L -26.2031,-452.619 L -25.7361,-452.804
 L -25.2495,-452.929 L -24.7512,-452.992 L 24.7512,-452.992 L 25.2495,-452.929 L 25.7361,-452.804 L 26.2031,-452.619
 L 26.6433,-452.377 L 27.0497,-452.082 L 27.4159,-451.738 L 27.7361,-451.351 L 28.0052,-450.927 L 28.2191,-450.472
 L 28.3743,-449.995 L 28.4684,-449.501 L 28.5,-449 L 28.5,-415 L 28.4684,-414.499 L 28.3743,-414.005
 L 28.2191,-413.528 L 28.0052,-413.073 L 27.7361,-412.649 L 27.4159,-412.262 L 27.0497,-411.918 L 26.6433,-411.623
 L 26.2031,-411.381 L 25.7361,-411.196 L 25.2495,-411.071 L 24.7512,-411.008 z
M 25.9369,-355.589 L 26.5451,-355.745 L 27.1289,-355.976 L 27.6791,-356.278 L 28.1871,-356.647 L 28.6448,-357.077
 L 29.0451,-357.561 L 29.3815,-358.091 L 29.6489,-358.659 L 29.8429,-359.257 L 29.9606,-359.873 L 30,-360.5
 L 30,-395.5 L 29.9606,-396.127 L 29.8429,-396.743 L 29.6489,-397.341 L 29.3815,-397.909 L 29.0451,-398.439
 L 28.6448,-398.923 L 28.1871,-399.353 L 27.6791,-399.722 L 27.1289,-400.024 L 26.5451,-400.255 L 25.9369,-400.411
 L 25.3139,-400.49 L -25.3139,-400.49 L -25.9369,-400.411 L -26.5451,-400.255 L -27.1289,-400.024 L -27.6791,-399.722
 L -28.1871,-399.353 L -28.6448,-398.923 L -29.0451,-398.439 L -29.3815,-397.909 L -29.6489,-397.341 L -29.8429,-396.743
 L -29.9606,-396.127 L -30,-395.5 L -30,-360.5 L -29.9606,-359.873 L -29.8429,-359.257 L -29.6489,-358.659
 L -29.3815,-358.091 L -29.0451,-357.561 L -28.6448,-357.077 L -28.1871,-356.647 L -27.6791,-356.278 L -27.1289,-355.976
 L -26.5451,-355.745 L -25.9369,-355.589 L -25.3139,-355.51 L 25.3139,-355.51 z
M -24.7512,-357.008 L -25.2495,-357.071 L -25.7361,-357.196 L -26.2031,-357.381 L -26.6433,-357.623 L -27.0497,-357.918
 L -27.4159,-358.262 L -27.7361,-358.649 L -28.0052,-359.073 L -28.2191,-359.528 L -28.3743,-360.005 L -28.4684,-360.499
 L -28.5,-361 L -28.5,-395 L -28.4684,-395.501 L -28.3743,-395.995 L -28.2191,-396.472 L -28.0052,-396.927
 L -27.7361,-397.351 L -27.4159,-397.738 L -27.0497,-398.082 L -26.6433,-398.377 L -26.2031,-398.619 L -25.7361,-398.804
 L -25.2495,-398.929 L -24.7512,-398.992 L 24.7512,-398.992 L 25.2495,-398.929 L 25.7361,-398.804 L 26.2031,-398.619
 L 26.6433,-398.377 L 27.0497,-398.082 L 27.4159,-397.738 L 27.7361,-397.351 L 28.0052,-396.927 L 28.2191,-396.472
 L 28.3743,-395.995 L 28.4684,-395.501 L 28.5,-395 L 28.5,-361 L 28.4684,-360.499 L 28.3743,-360.005
 L 28.2191,-359.528 L 28.0052,-359.073 L 27.7361,-358.649 L 27.4159,-358.262 L 27.0497,-357.918 L 26.6433,-357.623
 L 26.2031,-357.381 L 25.7361,-357.196 L 25.2495,-357.071 L 24.7512,-357.008 z
M 25.9369,-301.589 L 26.5451,-301.745 L 27.1289,-301.976 L 27.6791,-302.278 L 28.1871,-302.647 L 28.6448,-303.077
 L 29.0451,-303.561 L 29.3815,-304.091 L 29.6489,-304.659 L 29.8429,-305.257 L 29.9606,-305.873 L 30,-306.5
 L 30,-341.5 L 29.9606,-342.127 L 29.8429,-342.743 L 29.6489,-343.341 L 29.3815,-343.909 L 29.0451,-344.439
 L 28.6448,-344.923 L 28.1871,-345.353 L 27.6791,-345.722 L 27.1289,-346.024 L 26.5451,-346.255 L 25.9369,-346.411
 L 25.3139,-346.49 L -25.3139,-346.49 L -25.9369,-346.411 L -26.5451,-346.255 L -27.1289,-346.024 L -27.6791,-345.722
 L -28.1871,-345.353 L -28.6448,-344.923 L -29.0451,-344.439 L -29.3815,-343.909 L -29.6489,-343.341 L -29.8429,-342.743
 L -29.9606,-342.127 L -30,-341.5 L -30,-306.5 L -29.9606,-305.873 L -29.8429,-305.257 L -29.6489,-304.659
 L -29.3815,-304.091 L -29.0451,-303.561 L -28.6448,-303.077 L -28.1871,-302.647 L -27.6791,-302.278 L -27.1289,-301.976
 L -26.5451,-301.745 L -25.9369,-301.589 L -25.3139,-301.51 L 25.3139,-301.51 z
M -24.7432,-303.135 L -25.2256,-303.196 L -25.6967,-303.317 L -26.1489,-303.496 L -26.5751,-303.73 L -26.9685,-304.016
 L -27.323,-304.349 L -27.633,-304.724 L -27.8936,-305.134 L -28.1007,-305.574 L -28.251,-306.037 L -28.3421,-306.515
 L -28.3726,-307 L -28.3726,-341 L -28.3421,-341.485 L -28.251,-341.963 L -28.1007,-342.426 L -27.8936,-342.866
 L -27.633,-343.276 L -27.323,-343.651 L -26.9685,-343.984 L -26.5751,-344.27 L -26.1489,-344.504 L -25.6967,-344.683
 L -25.2256,-344.804 L -24.7432,-344.865 L 24.7432,-344.865 L 25.2256,-344.804 L 25.6967,-344.683 L 26.1489,-344.504
 L 26.5751,-344.27 L 26.9685,-343.984 L 27.323,-343.651 L 27.633,-343.276 L 27.8936,-342.866 L 28.1007,-342.426
 L 28.251,-341.963 L 28.3421,-341.485 L 28.3726,-341 L 28.3726,-307 L 28.3421,-306.515 L 28.251,-306.037
 L 28.1007,-305.574 L 27.8936,-305.134 L 27.633,-304.724 L 27.323,-304.349 L 26.9685,-304.016 L 26.5751,-303.73
 L 26.1489,-303.496 L 25.6967,-303.317 L 25.2256,-303.196 L 24.7432,-303.135 z
M 25.9369,-247.589 L 26.5451,-247.745 L 27.1289,-247.976 L 27.6791,-248.278 L 28.1871,-248.647 L 28.6448,-249.077
 L 29.0451,-249.561 L 29.3815,-250.091 L 29.6489,-250.659 L 29.8429,-251.257 L 29.9606,-251.873 L 30,-252.5
 L 30,-287.5 L 29.9606,-288.127 L 29.8429,-288.743 L 29.6489,-289.341 L 29.3815,-289.909 L 29.0451,-290.439
 L 28.6448,-290.923 L 28.1871,-291.353 L 27.6791,-291.722 L 27.1289,-292.024 L 26.5451,-292.255 L 25.9369,-292.411
 L 25.3139,-292.49 L -25.3139,-292.49 L -25.9369,-292.411 L -26.5451,-292.255 L -27.1289,-292.024 L -27.6791,-291.722
 L -28.1871,-291.353 L -28.6448,-290.923 L -29.0451,-290.439 L -29.3815,-289.909 L -29.6489,-289.341 L -29.8429,-288.743
 L -29.9606,-288.127 L -30,-287.5 L -30,-252.5 L -29.9606,-251.873 L -29.8429,-251.257 L -29.6489,-250.659
 L -29.3815,-250.091 L -29.0451,-249.561 L -28.6448,-249.077 L -28.1871,-248.647 L -27.6791,-248.278 L -27.1289,-247.976
 L -26.5451,-247.745 L -25.9369,-247.589 L -25.3139,-247.51 L 25.3139,-247.51 z
M 22.3493,-282.605 L 22.0503,-282.643 L 21.7583,-282.717 L 21.4781,-282.828 L 21.214,-282.974 L 20.9702,-283.151
 L 20.7505,-283.357 L 20.5583,-283.589 L 20.3969,-283.844 L 20.2685,-284.117 L 20.1754,-284.403 L 20.1189,-284.699
 L 20.1,-285 L 20.1189,-285.301 L 20.1754,-285.597 L 20.2685,-285.883 L 20.3969,-286.156 L 20.5583,-286.411
 L 20.7505,-286.643 L 20.9702,-286.849 L 21.214,-287.026 L 21.4781,-287.172 L 21.7583,-287.283 L 22.0503,-287.357
 L 22.3493,-287.395 L 22.6507,-287.395 L 22.9497,-287.357 L 23.2416,-287.283 L 23.5219,-287.172 L 23.786,-287.026
 L 24.0298,-286.849 L 24.2495,-286.643 L 24.4416,-286.411 L 24.6031,-286.156 L 24.7315,-285.883 L 24.8246,-285.597
 L 24.8811,-285.301 L 24.9,-285 L 24.8811,-284.699 L 24.8246,-284.403 L 24.7315,-284.117 L 24.6031,-283.844
 L 24.4416,-283.589 L 24.2495,-283.357 L 24.0298,-283.151 L 23.786,-282.974 L 23.5219,-282.828 L 23.2416,-282.717
 L 22.9497,-282.643 L 22.6507,-282.605 z
M -22.6507,-282.605 L -22.9497,-282.643 L -23.2416,-282.717 L -23.5219,-282.828 L -23.786,-282.974 L -24.0298,-283.151
 L -24.2495,-283.357 L -24.4416,-283.589 L -24.6031,-283.844 L -24.7315,-284.117 L -24.8246,-284.403 L -24.8811,-284.699
 L -24.9,-285 L -24.8811,-285.301 L -24.8246,-285.597 L -24.7315,-285.883 L -24.6031,-286.156 L -24.4416,-286.411
 L -24.2495,-286.643 L -24.0298,-286.849 L -23.786,-287.026 L -23.5219,-287.172 L -23.2416,-287.283 L -22.9497,-287.357
 L -22.6507,-287.395 L -22.3493,-287.395 L -22.0503,-287.357 L -21.7583,-287.283 L -21.4781,-287.172 L -21.214,-287.026
 L -20.9702,-286.849 L -20.7505,-286.643 L -20.5583,-286.411 L -20.3969,-286.156 L -20.2685,-285.883 L -20.1754,-285.597
 L -20.1189,-285.301 L -20.1,-285 L -20.1189,-284.699 L -20.1754,-284.403 L -20.2685,-284.117 L -20.3969,-283.844
 L -20.5583,-283.589 L -20.7505,-283.357 L -20.9702,-283.151 L -21.214,-282.974 L -21.4781,-282.828 L -21.7583,-282.717
 L -22.0503,-282.643 L -22.3493,-282.605 z
M 22.3493,-252.605 L 22.0503,-252.643 L 21.7583,-252.717 L 21.4781,-252.828 L 21.214,-252.974 L 20.9702,-253.151
 L 20.7505,-253.357 L 20.5583,-253.589 L 20.3969,-253.844 L 20.2685,-254.117 L 20.1754,-254.403 L 20.1189,-254.699
 L 20.1,-255 L 20.1189,-255.301 L 20.1754,-255.597 L 20.2685,-255.883 L 20.3969,-256.156 L 20.5583,-256.411
 L 20.7505,-256.643 L 20.9702,-256.849 L 21.214,-257.026 L 21.4781,-257.172 L 21.7583,-257.283 L 22.0503,-257.357
 L 22.3493,-257.395 L 22.6507,-257.395 L 22.9497,-257.357 L 23.2416,-257.283 L 23.5219,-257.172 L 23.786,-257.026
 L 24.0298,-256.849 L 24.2495,-256.643 L 24.4416,-256.411 L 24.6031,-256.156 L 24.7315,-255.883 L 24.8246,-255.597
 L 24.8811,-255.301 L 24.9,-255 L 24.8811,-254.699 L 24.8246,-254.403 L 24.7315,-254.117 L 24.6031,-253.844
 L 24.4416,-253.589 L 24.2495,-253.357 L 24.0298,-253.151 L 23.786,-252.974 L 23.5219,-252.828 L 23.2416,-252.717
 L 22.9497,-252.643 L 22.6507,-252.605 z
M -22.6507,-252.605 L -22.9497,-252.643 L -23.2416,-252.717 L -23.5219,-252.828 L -23.786,-252.974 L -24.0298,-253.151
 L -24.2495,-253.357 L -24.4416,-253.589 L -24.6031,-253.844 L -24.7315,-254.117 L -24.8246,-254.403 L -24.8811,-254.699
 L -24.9,-255 L -24.8811,-255.301 L -24.8246,-255.597 L -24.7315,-255.883 L -24.6031,-256.156 L -24.4416,-256.411
 L -24.2495,-256.643 L -24.0298,-256.849 L -23.786,-257.026 L -23.5219,-257.172 L -23.2416,-257.283 L -22.9497,-257.357
 L -22.6507,-257.395 L -22.3493,-257.395 L -22.0503,-257.357 L -21.7583,-257.283 L -21.4781,-257.172 L -21.214,-257.026
 L -20.9702,-256.849 L -20.7505,-256.643 L -20.5583,-256.411 L -20.3969,-256.156 L -20.2685,-255.883 L -20.1754,-255.597
 L -20.1189,-255.301 L -20.1,-255 L -20.1189,-254.699 L -20.1754,-254.403 L -20.2685,-254.117 L -20.3969,-253.844
 L -20.5583,-253.589 L -20.7505,-253.357 L -20.9702,-253.151 L -21.214,-252.974 L -21.4781,-252.828 L -21.7583,-252.717
 L -22.0503,-252.643 L -22.3493,-252.605 z
M 25.9369,-193.589 L 26.5451,-193.745 L 27.1289,-193.976 L 27.6791,-194.278 L 28.1871,-194.647 L 28.6448,-195.077
 L 29.0451,-195.561 L 29.3815,-196.091 L 29.6489,-196.659 L 29.8429,-197.257 L 29.9606,-197.873 L 30,-198.5
 L 30,-233.5 L 29.9606,-234.127 L 29.8429,-234.743 L 29.6489,-235.341 L 29.3815,-235.909 L 29.0451,-236.439
 L 28.6448,-236.923 L 28.1871,-237.353 L 27.6791,-237.722 L 27.1289,-238.024 L 26.5451,-238.255 L 25.9369,-238.411
 L 25.3139,-238.49 L -25.3139,-238.49 L -25.9369,-238.411 L -26.5451,-238.255 L -27.1289,-238.024 L -27.6791,-237.722
 L -28.1871,-237.353 L -28.6448,-236.923 L -29.0451,-236.439 L -29.3815,-235.909 L -29.6489,-235.341 L -29.8429,-234.743
 L -29.9606,-234.127 L -30,-233.5 L -30,-198.5 L -29.9606,-197.873 L -29.8429,-197.257 L -29.6489,-196.659
 L -29.3815,-196.091 L -29.0451,-195.561 L -28.6448,-195.077 L -28.1871,-194.647 L -27.6791,-194.278 L -27.1289,-193.976
 L -26.5451,-193.745 L -25.9369,-193.589 L -25.3139,-193.51 L 25.3139,-193.51 z
M 22.387,-229.204 L 22.1627,-229.232 L 21.9438,-229.288 L 21.7336,-229.371 L 21.5355,-229.48 L 21.3526,-229.613
 L 21.1879,-229.768 L 21.0438,-229.942 L 20.9226,-230.133 L 20.8264,-230.337 L 20.7565,-230.552 L 20.7142,-230.774
 L 20.7,-231 L 20.7142,-231.226 L 20.7565,-231.448 L 20.8264,-231.663 L 20.9226,-231.867 L 21.0438,-232.058
 L 21.1879,-232.232 L 21.3526,-232.387 L 21.5355,-232.52 L 21.7336,-232.629 L 21.9438,-232.712 L 22.1627,-232.768
 L 22.387,-232.796 L 22.613,-232.796 L 22.8373,-232.768 L 23.0562,-232.712 L 23.2664,-232.629 L 23.4645,-232.52
 L 23.6474,-232.387 L 23.8121,-232.232 L 23.9562,-232.058 L 24.0773,-231.867 L 24.1736,-231.663 L 24.2434,-231.448
 L 24.2858,-231.226 L 24.3,-231 L 24.2858,-230.774 L 24.2434,-230.552 L 24.1736,-230.337 L 24.0773,-230.133
 L 23.9562,-229.942 L 23.8121,-229.768 L 23.6474,-229.613 L 23.4645,-229.48 L 23.2664,-229.371 L 23.0562,-229.288
 L 22.8373,-229.232 L 22.613,-229.204 z
M -22.613,-229.204 L -22.8373,-229.232 L -23.0562,-229.288 L -23.2664,-229.371 L -23.4645,-229.48 L -23.6474,-229.613
 L -23.8121,-229.768 L -23.9562,-229.942 L -24.0773,-230.133 L -24.1736,-230.337 L -24.2434,-230.552 L -24.2858,-230.774
 L -24.3,-231 L -24.2858,-231.226 L -24.2434,-231.448 L -24.1736,-231.663 L -24.0773,-231.867 L -23.9562,-232.058
 L -23.8121,-232.232 L -23.6474,-232.387 L -23.4645,-232.52 L -23.2664,-232.629 L -23.0562,-232.712 L -22.8373,-232.768
 L -22.613,-232.796 L -22.387,-232.796 L -22.1627,-232.768 L -21.9438,-232.712 L -21.7336,-232.629 L -21.5355,-232.52
 L -21.3526,-232.387 L -21.1879,-232.232 L -21.0438,-232.058 L -20.9226,-231.867 L -20.8264,-231.663 L -20.7565,-231.448
 L -20.7142,-231.226 L -20.7,-231 L -20.7142,-230.774 L -20.7565,-230.552 L -20.8264,-230.337 L -20.9226,-230.133
 L -21.0438,-229.942 L -21.1879,-229.768 L -21.3526,-229.613 L -21.5355,-229.48 L -21.7336,-229.371 L -21.9438,-229.288
 L -22.1627,-229.232 L -22.387,-229.204 z
M 22.387,-199.204 L 22.1627,-199.232 L 21.9438,-199.288 L 21.7336,-199.371 L 21.5355,-199.48 L 21.3526,-199.613
 L 21.1879,-199.768 L 21.0438,-199.942 L 20.9226,-200.133 L 20.8264,-200.337 L 20.7565,-200.552 L 20.7142,-200.774
 L 20.7,-201 L 20.7142,-201.226 L 20.7565,-201.448 L 20.8264,-201.663 L 20.9226,-201.867 L 21.0438,-202.058
 L 21.1879,-202.232 L 21.3526,-202.387 L 21.5355,-202.52 L 21.7336,-202.629 L 21.9438,-202.712 L 22.1627,-202.768
 L 22.387,-202.796 L 22.613,-202.796 L 22.8373,-202.768 L 23.0562,-202.712 L 23.2664,-202.629 L 23.4645,-202.52
 L 23.6474,-202.387 L 23.8121,-202.232 L 23.9562,-202.058 L 24.0773,-201.867 L 24.1736,-201.663 L 24.2434,-201.448
 L 24.2858,-201.226 L 24.3,-201 L 24.2858,-200.774 L 24.2434,-200.552 L 24.1736,-200.337 L 24.0773,-200.133
 L 23.9562,-199.942 L 23.8121,-199.768 L 23.6474,-199.613 L 23.4645,-199.48 L 23.2664,-199.371 L 23.0562,-199.288
 L 22.8373,-199.232 L 22.613,-199.204 z
M -22.613,-199.204 L -22.8373,-199.232 L -23.0562,-199.288 L -23.2664,-199.371 L -23.4645,-199.48 L -23.6474,-199.613
 L -23.8121,-199.768 L -23.9562,-199.942 L -24.0773,-200.133 L -24.1736,-200.337 L -24.2434,-200.552 L -24.2858,-200.774
 L -24.3,-201 L -24.2858,-201.226 L -24.2434,-201.448 L -24.1736,-201.663 L -24.0773,-201.867 L -23.9562,-202.058
 L -23.8121,-202.232 L -23.6474,-202.387 L -23.4645,-202.52 L -23.2664,-202.629 L -23.0562,-202.712 L -22.8373,-202.768
 L -22.613,-202.796 L -22.387,-202.796 L -22.1627,-202.768 L -21.9438,-202.712 L -21.7336,-202.629 L -21.5355,-202.52
 L -21.3526,-202.387 L -21.1879,-202.232 L -21.0438,-202.058 L -20.9226,-201.867 L -20.8264,-201.663 L -20.7565,-201.448
 L -20.7142,-201.226 L -20.7,-201 L -20.7142,-200.774 L -20.7565,-200.552 L -20.8264,-200.337 L -20.9226,-200.133
 L -21.0438,-199.942 L -21.1879,-199.768 L -21.3526,-199.613 L -21.5355,-199.48 L -21.7336,-199.371 L -21.9438,-199.288
 L -22.1627,-199.232 L -22.387,-199.204 z
" stroke="black" fill="lightgray" stroke-width="0.5"/>
</svg>
