<?xml version="1.0" standalone="no"?>
<!DOCTYPE svg PUBLIC "-//W3C//DTD SVG 1.1//EN" "http://www.w3.org/Graphics/SVG/1.1/DTD/svg11.dtd">
<svg width="180mm" height="87mm" viewBox="-90 -138 180 87" xmlns="http://www.w3.org/2000/svg" version="1.1">
<title>OpenSCAD Model</title>
<path d="
M 85.9369,-114.839 L 86.5451,-114.995 L 87.1289,-115.226 L 87.6791,-115.528 L 88.1871,-115.897 L 88.6448,-116.327
 L 89.0451,-116.811 L 89.3815,-117.341 L 89.6489,-117.909 L 89.8429,-118.507 L 89.9606,-119.123 L 90,-119.75
 L 90,-132.25 L 89.9606,-132.877 L 89.8429,-133.493 L 89.6489,-134.091 L 89.3815,-134.659 L 89.0451,-135.189
 L 88.6448,-135.673 L 88.1871,-136.103 L 87.6791,-136.472 L 87.1289,-136.774 L 86.5451,-137.005 L 85.9369,-137.161
 L 85.3139,-137.24 L -85.3139,-137.24 L -85.9369,-137.161 L -86.5451,-137.005 L -87.1289,-136.774 L -87.6791,-136.472
 L -88.1871,-136.103 L -88.6448,-135.673 L -89.0451,-135.189 L -89.3815,-134.659 L -89.6489,-134.091 L -89.8429,-133.493
 L -89.9606,-132.877 L -90,-132.25 L -90,-119.75 L -89.9606,-119.123 L -89.8429,-118.507 L -89.6489,-117.909
 L -89.3815,-117.341 L -89.0451,-116.811 L -88.6448,-116.327 L -88.1871,-115.897 L -87.6791,-115.528 L -87.1289,-115.226
 L -86.5451,-114.995 L -85.9369,-114.839 L -85.3139,-114.76 L 85.3139,-114.76 z
M -85.0482,-115.259 L -85.6401,-115.334 L -86.2178,-115.482 L -86.7724,-115.702 L -87.2952,-115.989 L -87.7778,-116.34
 L -88.2126,-116.748 L -88.5928,-117.208 L -88.9125,-117.712 L -89.1664,-118.251 L -89.3508,-118.819 L -89.4625,-119.405
 L -89.5,-120 L -89.5,-132 L -89.4625,-132.595 L -89.3508,-133.181 L -89.1664,-133.749 L -88.9125,-134.288
 L -88.5928,-134.792 L -88.2126,-135.252 L -87.7778,-135.66 L -87.2952,-136.011 L -86.7724,-136.298 L -86.2178,-136.518
 L -85.6401,-136.666 L -85.0482,-136.741 L 85.0482,-136.741 L 85.6401,-136.666 L 86.2178,-136.518 L 86.7724,-136.298
 L 87.2952,-136.011 L 87.7778,-135.66 L 88.2126,-135.252 L 88.5928,-134.792 L 88.9125,-134.288 L 89.1664,-133.749
 L 89.3508,-133.181 L 89.4625,-132.595 L 89.5,-132 L 89.5,-120 L 89.4625,-119.405 L 89.3508,-118.819
 L 89.1664,-118.251 L 88.9125,-117.712 L 88.5928,-117.208 L 88.2126,-116.748 L 87.7778,-116.34 L 87.2952,-115.989
 L 86.7724,-115.702 L 86.2178,-115.482 L 85.6401,-115.334 L 85.0482,-115.259 z
M 85.9369,-83.3386 L 86.5451,-83.4947 L 87.1289,-83.7259 L 87.6791,-84.0284 L 88.1871,-84.3974 L 88.6448,-84.8273
 L 89.0451,-85.3111 L 89.3815,-85.8412 L 89.6489,-86.4094 L 89.8429,-87.0066 L 89.9606,-87.6233 L 90,-88.25
 L 90,-100.75 L 89.9606,-101.377 L 89.8429,-101.993 L 89.6489,-102.591 L 89.3815,-103.159 L 89.0451,-103.689
 L 88.6448,-104.173 L 88.1871,-104.603 L 87.6791,-104.972 L 87.1289,-105.274 L 86.5451,-105.505 L 85.9369,-105.661
 L 85.3139,-105.74 L -85.3139,-105.74 L -85.9369,-105.661 L -86.5451,-105.505 L -87.1289,-105.274 L -87.6791,-104.972
 L -88.1871,-104.603 L -88.6448,-104.173 L -89.0451,-103.689 L -89.3815,-103.159 L -89.6489,-102.591 L -89.8429,-101.993
 L -89.9606,-101.377 L -90,-100.75 L -90,-88.25 L -89.9606,-87.6233 L -89.8429,-87.0066 L -89.6489,-86.4094
 L -89.3815,-85.8412 L -89.0451,-85.3111 L -88.6448,-84.8273 L -88.1871,-84.3974 L -87.6791,-84.0284 L -87.1289,-83.7259
 L -86.5451,-83.4947 L -85.9369,-83.3386 L -85.3139,-83.2599 L 85.3139,-83.2599 z
M -84.993,-84.6382 L -85.4751,-84.6991 L -85.9457,-84.8199 L -86.3975,-84.9988 L -86.8234,-85.2329 L -87.2165,-85.5185
 L -87.5707,-85.8512 L -87.8805,-86.2256 L -88.1408,-86.6359 L -88.3477,-87.0756 L -88.4979,-87.5377 L -88.589,-88.015
 L -88.6195,-88.5 L -88.6195,-100.5 L -88.589,-100.985 L -88.4979,-101.462 L -88.3477,-101.924 L -88.1408,-102.364
 L -87.8805,-102.774 L -87.5707,-103.149 L -87.2165,-103.481 L -86.8234,-103.767 L -86.3975,-104.001 L -85.9457,-104.18
 L -85.4751,-104.301 L -84.993,-104.362 L 84.993,-104.362 L 85.4751,-104.301 L 85.9457,-104.18 L 86.3975,-104.001
 L 86.8234,-103.767 L 87.2165,-103.481 L 87.5707,-103.149 L 87.8805,-102.774 L 88.1408,-102.364 L 88.3477,-101.924
 L 88.4979,-101.462 L 88.589,-100.985 L 88.6195,-100.5 L 88.6195,-88.5 L 88.589,-88.015 L 88.4979,-87.5377
 L 88.3477,-87.0756 L 88.1408,-86.6359 L 87.8805,-86.2256 L 87.5707,-85.8512 L 87.2165,-85.5185 L 86.8234,-85.2329
 L 86.3975,-84.9988 L 85.9457,-84.8199 L 85.4751,-84.6991 L 84.993,-84.6382 z
M 85.9369,-51.8386 L 86.5451,-51.9947 L 87.1289,-52.2259 L 87.6791,-52.5284 L 88.1871,-52.8974 L 88.6448,-53.3273
 L 89.0451,-53.8111 L 89.3815,-54.3412 L 89.6489,-54.9094 L 89.8429,-55.5066 L 89.9606,-56.1233 L 90,-56.75
 L 90,-69.25 L 89.9606,-69.8767 L 89.8429,-70.4934 L 89.6489,-71.0906 L 89.3815,-71.6588 L 89.0451,-72.1889
 L 88.6448,-72.6727 L 88.1871,-73.1026 L 87.6791,-73.4716 L 87.1289,-73.7741 L 86.5451,-74.0053 L 85.9369,-74.1614
 L 85.3139,-74.2401 L -85.3139,-74.2401 L -85.9369,-74.1614 L -86.5451,-74.0053 L -87.1289,-73.7741 L -87.6791,-73.4716
 L -88.1871,-73.1026 L -88.6448,-72.6727 L -89.0451,-72.1889 L -89.3815,-71.6588 L -89.6489,-71.0906 L -89.8429,-70.4934
 L -89.9606,-69.8767 L -90,-69.25 L -90,-56.75 L -89.9606,-56.1233 L -89.8429,-55.5066 L -89.6489,-54.9094
 L -89.3815,-54.3412 L -89.0451,-53.8111 L -88.6448,-53.3273 L -88.1871,-52.8974 L -87.6791,-52.5284 L -87.1289,-52.2259
 L -86.5451,-51.9947 L -85.9369,-51.8386 L -85.3139,-51.7599 L 85.3139,-51.7599 z
M -82.613,-64.9536 L -82.8373,-64.9819 L -83.0562,-65.0381 L -83.2664,-65.1213 L -83.4645,-65.2302 L -83.6474,-65.3631
 L -83.8121,-65.5178 L -83.9562,-65.692 L -84.0773,-65.8828 L -84.1736,-66.0874 L -84.2434,-66.3024 L -84.2858,-66.5244
 L -84.3,-66.75 L -84.2858,-66.9756 L -84.2434,-67.1976 L -84.1736,-67.4126 L -84.0773,-67.6171 L -83.9562,-67.808
 L -83.8121,-67.9822 L -83.6474,-68.1369 L -83.4645,-68.2698 L -83.2664,-68.3787 L -83.0562,-68.4619 L -82.8373,-68.5181
 L -82.613,-68.5464 L -82.387,-68.5464 L -82.1627,-68.5181 L -81.9438,-68.4619 L -81.7336,-68.3787 L -81.5355,-68.2698
 L -81.3526,-68.1369 L -81.1879,-67.9822 L -81.0438,-67.808 L -80.9226,-67.6171 L -80.8264,-67.4126 L -80.7565,-67.1976
 L -80.7142,-66.9756 L -80.7,-66.75 L -80.7142,-66.5244 L -80.7565,-66.3024 L -80.8264,-66.0874 L -80.9226,-65.8828
 L -81.0438,-65.692 L -81.1879,-65.5178 L -81.3526,-65.3631 L -81.5355,-65.2302 L -81.7336,-65.1213 L -81.9438,-65.0381
 L -82.1627,-64.9819 L -82.387,-64.9536 z
M 82.387,-64.9536 L 82.1627,-64.9819 L 81.9438,-65.0381 L 81.7336,-65.1213 L 81.5355,-65.2302 L 81.3526,-65.3631
 L 81.1879,-65.5178 L 81.0438,-65.692 L 80.9226,-65.8828 L 80.8264,-66.0874 L 80.7565,-66.3024 L 80.7142,-66.5244
 L 80.7,-66.75 L 80.7142,-66.9756 L 80.7565,-67.1976 L 80.8264,-67.4126 L 80.9226,-67.6171 L 81.0438,-67.808
 L 81.1879,-67.9822 L 81.3526,-68.1369 L 81.5355,-68.2698 L 81.7336,-68.3787 L 81.9438,-68.4619 L 82.1627,-68.5181
 L 82.387,-68.5464 L 82.613,-68.5464 L 82.8373,-68.5181 L 83.0562,-68.4619 L 83.2664,-68.3787 L 83.4645,-68.2698
 L 83.6474,-68.1369 L 83.8121,-67.9822 L 83.9562,-67.808 L 84.0773,-67.6171 L 84.1736,-67.4126 L 84.2434,-67.1976
 L 84.2858,-66.9756 L 84.3,-66.75 L 84.2858,-66.5244 L 84.2434,-66.3024 L 84.1736,-66.0874 L 84.0773,-65.8828
 L 83.9562,-65.692 L 83.8121,-65.5178 L 83.6474,-65.3631 L 83.4645,-65.2302 L 83.2664,-65.1213 L 83.0562,-65.0381
 L 82.8373,-64.9819 L 82.613,-64.9536 z
M 82.387,-57.4536 L 82.1627,-57.4819 L 81.9438,-57.5381 L 81.7336,-57.6213 L 81.5355,-57.7302 L 81.3526,-57.8631
 L 81.1879,-58.0178 L 81.0438,-58.192 L 80.9226,-58.3829 L 80.8264,-58.5874 L 80.7565,-58.8024 L 80.7142,-59.0244
 L 80.7,-59.25 L 80.7142,-59.4756 L 80.7565,-59.6976 L 80.8264,-59.9126 L 80.9226,-60.1172 L 81.0438,-60.308
 L 81.1879,-60.4822 L 81.3526,-60.6369 L 81.5355,-60.7698 L 81.7336,-60.8787 L 81.9438,-60.9619 L 82.1627,-61.0181
 L 82.387,-61.0464 L 82.613,-61.0464 L 82.8373,-61.0181 L 83.0562,-60.9619 L 83.2664,-60.8787 L 83.4645,-60.7698
 L 83.6474,-60.6369 L 83.8121,-60.4822 L 83.9562,-60.308 L 84.0773,-60.1172 L 84.1736,-59.9126 L 84.2434,-59.6976
 L 84.2858,-59.4756 L 84.3,-59.25 L 84.2858,-59.0244 L 84.2434,-58.8024 L 84.1736,-58.5874 L 84.0773,-58.3829
 L 83.9562,-58.192 L 83.8121,-58.0178 L 83.6474,-57.8631 L 83.4645,-57.7302 L 83.2664,-57.6213 L 83.0562,-57.5381
 L 82.8373,-57.4819 L 82.613,-57.4536 z
M -82.613,-57.4536 L -82.8373,-57.4819 L -83.0562,-57.5381 L -83.2664,-57.6213 L -83.4645,-57.7302 L -83.6474,-57.8631
 L -83.8121,-58.0178 L -83.9562,-58.192 L -84.0773,-58.3829 L -84.1736,-58.5874 L -84.2434,-58.8024 L -84.2858,-59.0244
 L -84.3,-59.25 L -84.2858,-59.4756 L -84.2434,-59.6976 L -84.1736,-59.9126 L -84.0773,-60.1172 L -83.9562,-60.308
 L -83.8121,-60.4822 L -83.6474,-60.6369 L -83.4645,-60.7698 L -83.2664,-60.8787 L -83.0562,-60.9619 L -82.8373,-61.0181
 L -82.613,-61.0464 L -82.387,-61.0464 L -82.1627,-61.0181 L -81.9438,-60.9619 L -81.7336,-60.8787 L -81.5355,-60.7698
 L -81.3526,-60.6369 L -81.1879,-60.4822 L -81.0438,-60.308 L -80.9226,-60.1172 L -80.8264,-59.9126 L -80.7565,-59.6976
 L -80.7142,-59.4756 L -80.7,-59.25 L -80.7142,-59.0244 L -80.7565,-58.8024 L -80.8264,-58.5874 L -80.9226,-58.3829
 L -81.0438,-58.192 L -81.1879,-58.0178 L -81.3526,-57.8631 L -81.5355,-57.7302 L -81.7336,-57.6213 L -81.9438,-57.5381
 L -82.1627,-57.4819 L -82.387,-57.4536 z
" stroke="black" fill="lightgray" stroke-width="0.5"/>
</svg>
