<?xml version="1.0" standalone="no"?>
<!DOCTYPE svg PUBLIC "-//W3C//DTD SVG 1.1//EN" "http://www.w3.org/Graphics/SVG/1.1/DTD/svg11.dtd">
<svg width="38mm" height="129mm" viewBox="-19 -237 38 129" xmlns="http://www.w3.org/2000/svg" version="1.1">
<title>OpenSCAD Model</title>
<path d="
M 14.6869,-177.089 L 15.2951,-177.245 L 15.8789,-177.476 L 16.4291,-177.778 L 16.9371,-178.147 L 17.3948,-178.577
 L 17.7951,-179.061 L 18.1315,-179.591 L 18.3989,-180.159 L 18.5929,-180.757 L 18.7106,-181.373 L 18.75,-182
 L 18.75,-232 L 18.7106,-232.627 L 18.5929,-233.243 L 18.3989,-233.841 L 18.1315,-234.409 L 17.7951,-234.939
 L 17.3948,-235.423 L 16.9371,-235.853 L 16.4291,-236.222 L 15.8789,-236.524 L 15.2951,-236.755 L 14.6869,-236.911
 L 14.0639,-236.99 L -14.0639,-236.99 L -14.6869,-236.911 L -15.2951,-236.755 L -15.8789,-236.524 L -16.4291,-236.222
 L -16.9371,-235.853 L -17.3948,-235.423 L -17.7951,-234.939 L -18.1315,-234.409 L -18.3989,-233.841 L -18.5929,-233.243
 L -18.7106,-232.627 L -18.75,-232 L -18.75,-182 L -18.7106,-181.373 L -18.5929,-180.757 L -18.3989,-180.159
 L -18.1315,-179.591 L -17.7951,-179.061 L -17.3948,-178.577 L -16.9371,-178.147 L -16.4291,-177.778 L -15.8789,-177.476
 L -15.2951,-177.245 L -14.6869,-177.089 L -14.0639,-177.01 L 14.0639,-177.01 z
M -13.7875,-177.681 L -14.3579,-177.753 L -14.9148,-177.896 L -15.4494,-178.107 L -15.9532,-178.384 L -16.4184,-178.722
 L -16.8375,-179.116 L -17.204,-179.559 L -17.5121,-180.044 L -17.7569,-180.565 L -17.9346,-181.111 L -18.0423,-181.676
 L -18.0784,-182.25 L -18.0784,-231.75 L -18.0423,-232.324 L -17.9346,-232.889 L -17.7569,-233.435 L -17.5121,-233.956
 L -17.204,-234.441 L -16.8375,-234.884 L -16.4184,-235.278 L -15.9532,-235.616 L -15.4494,-235.893 L -14.9148,-236.104
 L -14.3579,-236.247 L -13.7875,-236.319 L 13.7875,-236.319 L 14.3579,-236.247 L 14.9148,-236.104 L 15.4494,-235.893
 L 15.9532,-235.616 L 16.4184,-235.278 L 16.8375,-234.884 L 17.204,-234.441 L 17.5121,-233.956 L 17.7569,-233.435
 L 17.9346,-232.889 L 18.0423,-232.324 L 18.0784,-231.75 L 18.0784,-182.25 L 18.0423,-181.676 L 17.9346,-181.111
 L 17.7569,-180.565 L 17.5121,-180.044 L 17.204,-179.559 L 16.8375,-179.116 L 16.4184,-178.722 L 15.9532,-178.384
 L 15.4494,-178.107 L 14.9148,-177.896 L 14.3579,-177.753 L 13.7875,-177.681 z
M 14.6869,-108.089 L 15.2951,-108.245 L 15.8789,-108.476 L 16.4291,-108.778 L 16.9371,-109.147 L 17.3948,-109.577
 L 17.7951,-110.061 L 18.1315,-110.591 L 18.3989,-111.159 L 18.5929,-111.757 L 18.7106,-112.373 L 18.75,-113
 L 18.75,-163 L 18.7106,-163.627 L 18.5929,-164.243 L 18.3989,-164.841 L 18.1315,-165.409 L 17.7951,-165.939
 L 17.3948,-166.423 L 16.9371,-166.853 L 16.4291,-167.222 L 15.8789,-167.524 L 15.2951,-167.755 L 14.6869,-167.911
 L 14.0639,-167.99 L -14.0639,-167.99 L -14.6869,-167.911 L -15.2951,-167.755 L -15.8789,-167.524 L -16.4291,-167.222
 L -16.9371,-166.853 L -17.3948,-166.423 L -17.7951,-165.939 L -18.1315,-165.409 L -18.3989,-164.841 L -18.5929,-164.243
 L -18.7106,-163.627 L -18.75,-163 L -18.75,-113 L -18.7106,-112.373 L -18.5929,-111.757 L -18.3989,-111.159
 L -18.1315,-110.591 L -17.7951,-110.061 L -17.3948,-109.577 L -16.9371,-109.147 L -16.4291,-108.778 L -15.8789,-108.476
 L -15.2951,-108.245 L -14.6869,-108.089 L -14.0639,-108.01 L 14.0639,-108.01 z
M -13.6325,-111.145 L -13.8953,-111.178 L -14.1519,-111.244 L -14.3982,-111.341 L -14.6304,-111.469 L -14.8447,-111.625
 L -15.0378,-111.806 L -15.2067,-112.01 L -15.3487,-112.234 L -15.4615,-112.473 L -15.5434,-112.725 L -15.593,-112.986
 L -15.6096,-113.25 L -15.6096,-162.75 L -15.593,-163.014 L -15.5434,-163.275 L -15.4615,-163.527 L -15.3487,-163.766
 L -15.2067,-163.99 L -15.0378,-164.194 L -14.8447,-164.375 L -14.6304,-164.531 L -14.3982,-164.659 L -14.1519,-164.756
 L -13.8953,-164.822 L -13.6325,-164.855 L 13.6325,-164.855 L 13.8953,-164.822 L 14.1519,-164.756 L 14.3982,-164.659
 L 14.6304,-164.531 L 14.8447,-164.375 L 15.0378,-164.194 L 15.2067,-163.99 L 15.3487,-163.766 L 15.4615,-163.527
 L 15.5434,-163.275 L 15.593,-163.014 L 15.6096,-162.75 L 15.6096,-113.25 L 15.593,-112.986 L 15.5434,-112.725
 L 15.4615,-112.473 L 15.3487,-112.234 L 15.2067,-112.01 L 15.0378,-111.806 L 14.8447,-111.625 L 14.6304,-111.469
 L 14.3982,-111.341 L 14.1519,-111.244 L 13.8953,-111.178 L 13.6325,-111.145 z
" stroke="black" fill="lightgray" stroke-width="0.5"/>
</svg>
