<?xml version="1.0" standalone="no"?>
<!DOCTYPE svg PUBLIC "-//W3C//DTD SVG 1.1//EN" "http://www.w3.org/Graphics/SVG/1.1/DTD/svg11.dtd">
<svg width="120mm" height="377mm" viewBox="-60 -447 120 377" xmlns="http://www.w3.org/2000/svg" version="1.1">
<title>OpenSCAD Model</title>
<path d="
M -57,-327.425 L -56.5451,-327.245 L -55.9369,-327.089 L -55.3139,-327.01 L 55.3139,-327.01 L 55.9369,-327.089
 L 56.5451,-327.245 L 57.1289,-327.476 L 57.6791,-327.778 L 58.1871,-328.147 L 58.6448,-328.577 L 59.0451,-329.061
 L 59.3815,-329.591 L 59.6489,-330.159 L 59.8429,-330.757 L 59.9606,-331.373 L 60,-332 L 60,-442
 L 59.9606,-442.627 L 59.8429,-443.243 L 59.6489,-443.841 L 59.3815,-444.409 L 59.0451,-444.939 L 58.6448,-445.423
 L 58.1871,-445.853 L 57.6791,-446.222 L 57.1289,-446.524 L 56.5451,-446.755 L 55.9369,-446.911 L 55.3139,-446.99
 L -55.3139,-446.99 L -55.9369,-446.911 L -56.5451,-446.755 L -57,-446.575 L -57,-446.99 L -60,-446.99
 L -60,-327.01 L -57,-327.01 z
M -54.6954,-329.393 L -55.0833,-329.442 L -55.4619,-329.539 L -55.8254,-329.683 L -56.168,-329.872 L -56.4842,-330.101
 L -56.7692,-330.369 L -57.0184,-330.67 L -57.2279,-331 L -57.3943,-331.354 L -57.5151,-331.726 L -57.5884,-332.11
 L -57.6129,-332.5 L -57.6129,-441.5 L -57.5884,-441.89 L -57.5151,-442.274 L -57.3943,-442.646 L -57.2279,-443
 L -57.0184,-443.33 L -56.7692,-443.631 L -56.4842,-443.899 L -56.168,-444.128 L -55.8254,-444.317 L -55.4619,-444.461
 L -55.0833,-444.558 L -54.6954,-444.607 L 54.6954,-444.607 L 55.0833,-444.558 L 55.4619,-444.461 L 55.8254,-444.317
 L 56.168,-444.128 L 56.4842,-443.899 L 56.7692,-443.631 L 57.0184,-443.33 L 57.2279,-443 L 57.3943,-442.646
 L 57.5151,-442.274 L 57.5884,-441.89 L 57.6129,-441.5 L 57.6129,-332.5 L 57.5884,-332.11 L 57.5151,-331.726
 L 57.3943,-331.354 L 57.2279,-331 L 57.0184,-330.67 L 56.7692,-330.369 L 56.4842,-330.101 L 56.168,-329.872
 L 55.8254,-329.683 L 55.4619,-329.539 L 55.0833,-329.442 L 54.6954,-329.393 z
M 55.9369,-198.089 L 56.5451,-198.245 L 57.1289,-198.476 L 57.6791,-198.778 L 58.1871,-199.147 L 58.6448,-199.577
 L 59.0451,-200.061 L 59.3815,-200.591 L 59.6489,-201.159 L 59.8429,-201.757 L 59.9606,-202.373 L 60,-203
 L 60,-313 L 59.9606,-313.627 L 59.8429,-314.243 L 59.6489,-314.841 L 59.3815,-315.409 L 59.0451,-315.939
 L 58.6448,-316.423 L 58.1871,-316.853 L 57.6791,-317.222 L 57.1289,-317.524 L 56.5451,-317.755 L 55.9369,-317.911
 L 55.3139,-317.99 L -55.3139,-317.99 L -55.9369,-317.911 L -56.5451,-317.755 L -57,-317.575 L -57,-317.979
 L -60,-317.979 L -60,-198.021 L -57,-198.021 L -57,-198.425 L -56.5451,-198.245 L -55.9369,-198.089
 L -55.3139,-198.01 L 55.3139,-198.01 z
M 52.3659,-308.369 L 52.0999,-308.403 L 51.8401,-308.469 L 51.5908,-308.568 L 51.3559,-308.697 L 51.1389,-308.855
 L 50.9434,-309.038 L 50.7725,-309.245 L 50.6288,-309.471 L 50.5146,-309.714 L 50.4318,-309.969 L 50.3815,-310.232
 L 50.3647,-310.5 L 50.3815,-310.768 L 50.4318,-311.031 L 50.5146,-311.286 L 50.6288,-311.529 L 50.7725,-311.755
 L 50.9434,-311.962 L 51.1389,-312.145 L 51.3559,-312.303 L 51.5908,-312.432 L 51.8401,-312.531 L 52.0999,-312.597
 L 52.3659,-312.631 L 52.6341,-312.631 L 52.9001,-312.597 L 53.1598,-312.531 L 53.4092,-312.432 L 53.6441,-312.303
 L 53.8611,-312.145 L 54.0565,-311.962 L 54.2275,-311.755 L 54.3712,-311.529 L 54.4853,-311.286 L 54.5682,-311.031
 L 54.6185,-310.768 L 54.6353,-310.5 L 54.6185,-310.232 L 54.5682,-309.969 L 54.4853,-309.714 L 54.3712,-309.471
 L 54.2275,-309.245 L 54.0565,-309.038 L 53.8611,-308.855 L 53.6441,-308.697 L 53.4092,-308.568 L 53.1598,-308.469
 L 52.9001,-308.403 L 52.6341,-308.369 z
M -52.6341,-308.369 L -52.9001,-308.403 L -53.1598,-308.469 L -53.4092,-308.568 L -53.6441,-308.697 L -53.8611,-308.855
 L -54.0565,-309.038 L -54.2275,-309.245 L -54.3712,-309.471 L -54.4853,-309.714 L -54.5682,-309.969 L -54.6185,-310.232
 L -54.6353,-310.5 L -54.6185,-310.768 L -54.5682,-311.031 L -54.4853,-311.286 L -54.3712,-311.529 L -54.2275,-311.755
 L -54.0565,-311.962 L -53.8611,-312.145 L -53.6441,-312.303 L -53.4092,-312.432 L -53.1598,-312.531 L -52.9001,-312.597
 L -52.6341,-312.631 L -52.3659,-312.631 L -52.0999,-312.597 L -51.8401,-312.531 L -51.5908,-312.432 L -51.3559,-312.303
 L -51.1389,-312.145 L -50.9434,-311.962 L -50.7725,-311.755 L -50.6288,-311.529 L -50.5146,-311.286 L -50.4318,-311.031
 L -50.3815,-310.768 L -50.3647,-310.5 L -50.3815,-310.232 L -50.4318,-309.969 L -50.5146,-309.714 L -50.6288,-309.471
 L -50.7725,-309.245 L -50.9434,-309.038 L -51.1389,-308.855 L -51.3559,-308.697 L -51.5908,-308.568 L -51.8401,-308.469
 L -52.0999,-308.403 L -52.3659,-308.369 z
M 52.3659,-203.369 L 52.0999,-203.403 L 51.8401,-203.469 L 51.5908,-203.568 L 51.3559,-203.697 L 51.1389,-203.855
 L 50.9434,-204.038 L 50.7725,-204.245 L 50.6288,-204.471 L 50.5146,-204.714 L 50.4318,-204.969 L 50.3815,-205.232
 L 50.3647,-205.5 L 50.3815,-205.768 L 50.4318,-206.031 L 50.5146,-206.286 L 50.6288,-206.529 L 50.7725,-206.755
 L 50.9434,-206.962 L 51.1389,-207.145 L 51.3559,-207.303 L 51.5908,-207.432 L 51.8401,-207.531 L 52.0999,-207.597
 L 52.3659,-207.631 L 52.6341,-207.631 L 52.9001,-207.597 L 53.1598,-207.531 L 53.4092,-207.432 L 53.6441,-207.303
 L 53.8611,-207.145 L 54.0565,-206.962 L 54.2275,-206.755 L 54.3712,-206.529 L 54.4853,-206.286 L 54.5682,-206.031
 L 54.6185,-205.768 L 54.6353,-205.5 L 54.6185,-205.232 L 54.5682,-204.969 L 54.4853,-204.714 L 54.3712,-204.471
 L 54.2275,-204.245 L 54.0565,-204.038 L 53.8611,-203.855 L 53.6441,-203.697 L 53.4092,-203.568 L 53.1598,-203.469
 L 52.9001,-203.403 L 52.6341,-203.369 z
M -52.6341,-203.369 L -52.9001,-203.403 L -53.1598,-203.469 L -53.4092,-203.568 L -53.6441,-203.697 L -53.8611,-203.855
 L -54.0565,-204.038 L -54.2275,-204.245 L -54.3712,-204.471 L -54.4853,-204.714 L -54.5682,-204.969 L -54.6185,-205.232
 L -54.6353,-205.5 L -54.6185,-205.768 L -54.5682,-206.031 L -54.4853,-206.286 L -54.3712,-206.529 L -54.2275,-206.755
 L -54.0565,-206.962 L -53.8611,-207.145 L -53.6441,-207.303 L -53.4092,-207.432 L -53.1598,-207.531 L -52.9001,-207.597
 L -52.6341,-207.631 L -52.3659,-207.631 L -52.0999,-207.597 L -51.8401,-207.531 L -51.5908,-207.432 L -51.3559,-207.303
 L -51.1389,-207.145 L -50.9434,-206.962 L -50.7725,-206.755 L -50.6288,-206.529 L -50.5146,-206.286 L -50.4318,-206.031
 L -50.3815,-205.768 L -50.3647,-205.5 L -50.3815,-205.232 L -50.4318,-204.969 L -50.5146,-204.714 L -50.6288,-204.471
 L -50.7725,-204.245 L -50.9434,-204.038 L -51.1389,-203.855 L -51.3559,-203.697 L -51.5908,-203.568 L -51.8401,-203.469
 L -52.0999,-203.403 L -52.3659,-203.369 z
M -57,-187.653 L -60,-187.653 L -60,-70.3474 L -57,-70.3474 z
" stroke="black" fill="lightgray" stroke-width="0.5"/>
</svg>
