<?xml version="1.0" standalone="no"?>
<!DOCTYPE svg PUBLIC "-//W3C//DTD SVG 1.1//EN" "http://www.w3.org/Graphics/SVG/1.1/DTD/svg11.dtd">
<svg width="136mm" height="1732mm" viewBox="-68 -3389 136 1732" xmlns="http://www.w3.org/2000/svg" version="1.1">
<title>OpenSCAD Model</title>
<path d="
M 63.4369,-3223.59 L 64.0451,-3223.74 L 64.6289,-3223.98 L 65.1791,-3224.28 L 65.6871,-3224.65 L 66.1448,-3225.08
 L 66.5451,-3225.56 L 66.8815,-3226.09 L 67.1489,-3226.66 L 67.3429,-3227.26 L 67.4606,-3227.87 L 67.5,-3228.5
 L 67.5,-3383.5 L 67.4606,-3384.13 L 67.3429,-3384.74 L 67.1489,-3385.34 L 66.8815,-3385.91 L 66.5451,-3386.44
 L 66.1448,-3386.92 L 65.6871,-3387.35 L 65.1791,-3387.72 L 64.6289,-3388.02 L 64.0451,-3388.26 L 63.4369,-3388.41
 L 62.8139,-3388.49 L -62.8139,-3388.49 L -63.4369,-3388.41 L -64.0451,-3388.26 L -64.6289,-3388.02 L -65.1791,-3387.72
 L -65.6871,-3387.35 L -66.1448,-3386.92 L -66.5451,-3386.44 L -66.8815,-3385.91 L -67.1489,-3385.34 L -67.3429,-3384.74
 L -67.4606,-3384.13 L -67.5,-3383.5 L -67.5,-3228.5 L -67.4606,-3227.87 L -67.3429,-3227.26 L -67.1489,-3226.66
 L -66.8815,-3226.09 L -66.5451,-3225.56 L -66.1448,-3225.08 L -65.6871,-3224.65 L -65.1791,-3224.28 L -64.6289,-3223.98
 L -64.0451,-3223.74 L -63.4369,-3223.59 L -62.8139,-3223.51 L 62.8139,-3223.51 z
M -62.2512,-3225.01 L -62.7495,-3225.07 L -63.2361,-3225.2 L -63.7031,-3225.38 L -64.1433,-3225.62 L -64.5497,-3225.92
 L -64.9159,-3226.26 L -65.2361,-3226.65 L -65.5052,-3227.07 L -65.7191,-3227.53 L -65.8743,-3228.01 L -65.9685,-3228.5
 L -66,-3229 L -66,-3383 L -65.9685,-3383.5 L -65.8743,-3383.99 L -65.7191,-3384.47 L -65.5052,-3384.93
 L -65.2361,-3385.35 L -64.9159,-3385.74 L -64.5497,-3386.08 L -64.1433,-3386.38 L -63.7031,-3386.62 L -63.2361,-3386.8
 L -62.7495,-3386.93 L -62.2512,-3386.99 L 62.2512,-3386.99 L 62.7495,-3386.93 L 63.2361,-3386.8 L 63.7031,-3386.62
 L 64.1433,-3386.38 L 64.5497,-3386.08 L 64.9159,-3385.74 L 65.2361,-3385.35 L 65.5052,-3384.93 L 65.7191,-3384.47
 L 65.8743,-3383.99 L 65.9685,-3383.5 L 66,-3383 L 66,-3229 L 65.9685,-3228.5 L 65.8743,-3228.01
 L 65.7191,-3227.53 L 65.5052,-3227.07 L 65.2361,-3226.65 L 64.9159,-3226.26 L 64.5497,-3225.92 L 64.1433,-3225.62
 L 63.7031,-3225.38 L 63.2361,-3225.2 L 62.7495,-3225.07 L 62.2512,-3225.01 z
M 63.4369,-3049.59 L 64.0451,-3049.74 L 64.6289,-3049.98 L 65.1791,-3050.28 L 65.6871,-3050.65 L 66.1448,-3051.08
 L 66.5451,-3051.56 L 66.8815,-3052.09 L 67.1489,-3052.66 L 67.3429,-3053.26 L 67.4606,-3053.87 L 67.5,-3054.5
 L 67.5,-3209.5 L 67.4606,-3210.13 L 67.3429,-3210.74 L 67.1489,-3211.34 L 66.8815,-3211.91 L 66.5451,-3212.44
 L 66.1448,-3212.92 L 65.6871,-3213.35 L 65.1791,-3213.72 L 64.6289,-3214.02 L 64.0451,-3214.26 L 63.4369,-3214.41
 L 62.8139,-3214.49 L -62.8139,-3214.49 L -63.4369,-3214.41 L -64.0451,-3214.26 L -64.6289,-3214.02 L -65.1791,-3213.72
 L -65.6871,-3213.35 L -66.1448,-3212.92 L -66.5451,-3212.44 L -66.8815,-3211.91 L -67.1489,-3211.34 L -67.3429,-3210.74
 L -67.4606,-3210.13 L -67.5,-3209.5 L -67.5,-3054.5 L -67.4606,-3053.87 L -67.3429,-3053.26 L -67.1489,-3052.66
 L -66.8815,-3052.09 L -66.5451,-3051.56 L -66.1448,-3051.08 L -65.6871,-3050.65 L -65.1791,-3050.28 L -64.6289,-3049.98
 L -64.0451,-3049.74 L -63.4369,-3049.59 L -62.8139,-3049.51 L 62.8139,-3049.51 z
M -62.2512,-3051.01 L -62.7495,-3051.07 L -63.2361,-3051.2 L -63.7031,-3051.38 L -64.1433,-3051.62 L -64.5497,-3051.92
 L -64.9159,-3052.26 L -65.2361,-3052.65 L -65.5052,-3053.07 L -65.7191,-3053.53 L -65.8743,-3054.01 L -65.9685,-3054.5
 L -66,-3055 L -66,-3209 L -65.9685,-3209.5 L -65.8743,-3209.99 L -65.7191,-3210.47 L -65.5052,-3210.93
 L -65.2361,-3211.35 L -64.9159,-3211.74 L -64.5497,-3212.08 L -64.1433,-3212.38 L -63.7031,-3212.62 L -63.2361,-3212.8
 L -62.7495,-3212.93 L -62.2512,-3212.99 L 62.2512,-3212.99 L 62.7495,-3212.93 L 63.2361,-3212.8 L 63.7031,-3212.62
 L 64.1433,-3212.38 L 64.5497,-3212.08 L 64.9159,-3211.74 L 65.2361,-3211.35 L 65.5052,-3210.93 L 65.7191,-3210.47
 L 65.8743,-3209.99 L 65.9685,-3209.5 L 66,-3209 L 66,-3055 L 65.9685,-3054.5 L 65.8743,-3054.01
 L 65.7191,-3053.53 L 65.5052,-3053.07 L 65.2361,-3052.65 L 64.9159,-3052.26 L 64.5497,-3051.92 L 64.1433,-3051.62
 L 63.7031,-3051.38 L 63.2361,-3051.2 L 62.7495,-3051.07 L 62.2512,-3051.01 z
M 63.4369,-2875.59 L 64.0451,-2875.74 L 64.6289,-2875.98 L 65.1791,-2876.28 L 65.6871,-2876.65 L 66.1448,-2877.08
 L 66.5451,-2877.56 L 66.8815,-2878.09 L 67.1489,-2878.66 L 67.3429,-2879.26 L 67.4606,-2879.87 L 67.5,-2880.5
 L 67.5,-3035.5 L 67.4606,-3036.13 L 67.3429,-3036.74 L 67.1489,-3037.34 L 66.8815,-3037.91 L 66.5451,-3038.44
 L 66.1448,-3038.92 L 65.6871,-3039.35 L 65.1791,-3039.72 L 64.6289,-3040.02 L 64.0451,-3040.26 L 63.4369,-3040.41
 L 62.8139,-3040.49 L -62.8139,-3040.49 L -63.4369,-3040.41 L -64.0451,-3040.26 L -64.6289,-3040.02 L -65.1791,-3039.72
 L -65.6871,-3039.35 L -66.1448,-3038.92 L -66.5451,-3038.44 L -66.8815,-3037.91 L -67.1489,-3037.34 L -67.3429,-3036.74
 L -67.4606,-3036.13 L -67.5,-3035.5 L -67.5,-2880.5 L -67.4606,-2879.87 L -67.3429,-2879.26 L -67.1489,-2878.66
 L -66.8815,-2878.09 L -66.5451,-2877.56 L -66.1448,-2877.08 L -65.6871,-2876.65 L -65.1791,-2876.28 L -64.6289,-2875.98
 L -64.0451,-2875.74 L -63.4369,-2875.59 L -62.8139,-2875.51 L 62.8139,-2875.51 z
M -62.2512,-2877.01 L -62.7495,-2877.07 L -63.2361,-2877.2 L -63.7031,-2877.38 L -64.1433,-2877.62 L -64.5497,-2877.92
 L -64.9159,-2878.26 L -65.2361,-2878.65 L -65.5052,-2879.07 L -65.7191,-2879.53 L -65.8743,-2880.01 L -65.9685,-2880.5
 L -66,-2881 L -66,-3035 L -65.9685,-3035.5 L -65.8743,-3035.99 L -65.7191,-3036.47 L -65.5052,-3036.93
 L -65.2361,-3037.35 L -64.9159,-3037.74 L -64.5497,-3038.08 L -64.1433,-3038.38 L -63.7031,-3038.62 L -63.2361,-3038.8
 L -62.7495,-3038.93 L -62.2512,-3038.99 L 62.2512,-3038.99 L 62.7495,-3038.93 L 63.2361,-3038.8 L 63.7031,-3038.62
 L 64.1433,-3038.38 L 64.5497,-3038.08 L 64.9159,-3037.74 L 65.2361,-3037.35 L 65.5052,-3036.93 L 65.7191,-3036.47
 L 65.8743,-3035.99 L 65.9685,-3035.5 L 66,-3035 L 66,-2881 L 65.9685,-2880.5 L 65.8743,-2880.01
 L 65.7191,-2879.53 L 65.5052,-2879.07 L 65.2361,-2878.65 L 64.9159,-2878.26 L 64.5497,-2877.92 L 64.1433,-2877.62
 L 63.7031,-2877.38 L 63.2361,-2877.2 L 62.7495,-2877.07 L 62.2512,-2877.01 z
M 63.4369,-2701.59 L 64.0451,-2701.74 L 64.6289,-2701.98 L 65.1791,-2702.28 L 65.6871,-2702.65 L 66.1448,-2703.08
 L 66.5451,-2703.56 L 66.8815,-2704.09 L 67.1489,-2704.66 L 67.3429,-2705.26 L 67.4606,-2705.87 L 67.5,-2706.5
 L 67.5,-2861.5 L 67.4606,-2862.13 L 67.3429,-2862.74 L 67.1489,-2863.34 L 66.8815,-2863.91 L 66.5451,-2864.44
 L 66.1448,-2864.92 L 65.6871,-2865.35 L 65.1791,-2865.72 L 64.6289,-2866.02 L 64.0451,-2866.26 L 63.4369,-2866.41
 L 62.8139,-2866.49 L -62.8139,-2866.49 L -63.4369,-2866.41 L -64.0451,-2866.26 L -64.6289,-2866.02 L -65.1791,-2865.72
 L -65.6871,-2865.35 L -66.1448,-2864.92 L -66.5451,-2864.44 L -66.8815,-2863.91 L -67.1489,-2863.34 L -67.3429,-2862.74
 L -67.4606,-2862.13 L -67.5,-2861.5 L -67.5,-2706.5 L -67.4606,-2705.87 L -67.3429,-2705.26 L -67.1489,-2704.66
 L -66.8815,-2704.09 L -66.5451,-2703.56 L -66.1448,-2703.08 L -65.6871,-2702.65 L -65.1791,-2702.28 L -64.6289,-2701.98
 L -64.0451,-2701.74 L -63.4369,-2701.59 L -62.8139,-2701.51 L 62.8139,-2701.51 z
M -62.2512,-2703.01 L -62.7495,-2703.07 L -63.2361,-2703.2 L -63.7031,-2703.38 L -64.1433,-2703.62 L -64.5497,-2703.92
 L -64.9159,-2704.26 L -65.2361,-2704.65 L -65.5052,-2705.07 L -65.7191,-2705.53 L -65.8743,-2706.01 L -65.9685,-2706.5
 L -66,-2707 L -66,-2861 L -65.9685,-2861.5 L -65.8743,-2861.99 L -65.7191,-2862.47 L -65.5052,-2862.93
 L -65.2361,-2863.35 L -64.9159,-2863.74 L -64.5497,-2864.08 L -64.1433,-2864.38 L -63.7031,-2864.62 L -63.2361,-2864.8
 L -62.7495,-2864.93 L -62.2512,-2864.99 L 62.2512,-2864.99 L 62.7495,-2864.93 L 63.2361,-2864.8 L 63.7031,-2864.62
 L 64.1433,-2864.38 L 64.5497,-2864.08 L 64.9159,-2863.74 L 65.2361,-2863.35 L 65.5052,-2862.93 L 65.7191,-2862.47
 L 65.8743,-2861.99 L 65.9685,-2861.5 L 66,-2861 L 66,-2707 L 65.9685,-2706.5 L 65.8743,-2706.01
 L 65.7191,-2705.53 L 65.5052,-2705.07 L 65.2361,-2704.65 L 64.9159,-2704.26 L 64.5497,-2703.92 L 64.1433,-2703.62
 L 63.7031,-2703.38 L 63.2361,-2703.2 L 62.7495,-2703.07 L 62.2512,-2703.01 z
M 63.4369,-2527.59 L 64.0451,-2527.74 L 64.6289,-2527.98 L 65.1791,-2528.28 L 65.6871,-2528.65 L 66.1448,-2529.08
 L 66.5451,-2529.56 L 66.8815,-2530.09 L 67.1489,-2530.66 L 67.3429,-2531.26 L 67.4606,-2531.87 L 67.5,-2532.5
 L 67.5,-2687.5 L 67.4606,-2688.13 L 67.3429,-2688.74 L 67.1489,-2689.34 L 66.8815,-2689.91 L 66.5451,-2690.44
 L 66.1448,-2690.92 L 65.6871,-2691.35 L 65.1791,-2691.72 L 64.6289,-2692.02 L 64.0451,-2692.26 L 63.4369,-2692.41
 L 62.8139,-2692.49 L -62.8139,-2692.49 L -63.4369,-2692.41 L -64.0451,-2692.26 L -64.6289,-2692.02 L -65.1791,-2691.72
 L -65.6871,-2691.35 L -66.1448,-2690.92 L -66.5451,-2690.44 L -66.8815,-2689.91 L -67.1489,-2689.34 L -67.3429,-2688.74
 L -67.4606,-2688.13 L -67.5,-2687.5 L -67.5,-2532.5 L -67.4606,-2531.87 L -67.3429,-2531.26 L -67.1489,-2530.66
 L -66.8815,-2530.09 L -66.5451,-2529.56 L -66.1448,-2529.08 L -65.6871,-2528.65 L -65.1791,-2528.28 L -64.6289,-2527.98
 L -64.0451,-2527.74 L -63.4369,-2527.59 L -62.8139,-2527.51 L 62.8139,-2527.51 z
M -62.2512,-2529.01 L -62.7495,-2529.07 L -63.2361,-2529.2 L -63.7031,-2529.38 L -64.1433,-2529.62 L -64.5497,-2529.92
 L -64.9159,-2530.26 L -65.2361,-2530.65 L -65.5052,-2531.07 L -65.7191,-2531.53 L -65.8743,-2532.01 L -65.9685,-2532.5
 L -66,-2533 L -66,-2687 L -65.9685,-2687.5 L -65.8743,-2687.99 L -65.7191,-2688.47 L -65.5052,-2688.93
 L -65.2361,-2689.35 L -64.9159,-2689.74 L -64.5497,-2690.08 L -64.1433,-2690.38 L -63.7031,-2690.62 L -63.2361,-2690.8
 L -62.7495,-2690.93 L -62.2512,-2690.99 L 62.2512,-2690.99 L 62.7495,-2690.93 L 63.2361,-2690.8 L 63.7031,-2690.62
 L 64.1433,-2690.38 L 64.5497,-2690.08 L 64.9159,-2689.74 L 65.2361,-2689.35 L 65.5052,-2688.93 L 65.7191,-2688.47
 L 65.8743,-2687.99 L 65.9685,-2687.5 L 66,-2687 L 66,-2533 L 65.9685,-2532.5 L 65.8743,-2532.01
 L 65.7191,-2531.53 L 65.5052,-2531.07 L 65.2361,-2530.65 L 64.9159,-2530.26 L 64.5497,-2529.92 L 64.1433,-2529.62
 L 63.7031,-2529.38 L 63.2361,-2529.2 L 62.7495,-2529.07 L 62.2512,-2529.01 z
M 63.4369,-2353.59 L 64.0451,-2353.74 L 64.6289,-2353.98 L 65.1791,-2354.28 L 65.6871,-2354.65 L 66.1448,-2355.08
 L 66.5451,-2355.56 L 66.8815,-2356.09 L 67.1489,-2356.66 L 67.3429,-2357.26 L 67.4606,-2357.87 L 67.5,-2358.5
 L 67.5,-2513.5 L 67.4606,-2514.13 L 67.3429,-2514.74 L 67.1489,-2515.34 L 66.8815,-2515.91 L 66.5451,-2516.44
 L 66.1448,-2516.92 L 65.6871,-2517.35 L 65.1791,-2517.72 L 64.6289,-2518.02 L 64.0451,-2518.26 L 63.4369,-2518.41
 L 62.8139,-2518.49 L -62.8139,-2518.49 L -63.4369,-2518.41 L -64.0451,-2518.26 L -64.6289,-2518.02 L -65.1791,-2517.72
 L -65.6871,-2517.35 L -66.1448,-2516.92 L -66.5451,-2516.44 L -66.8815,-2515.91 L -67.1489,-2515.34 L -67.3429,-2514.74
 L -67.4606,-2514.13 L -67.5,-2513.5 L -67.5,-2358.5 L -67.4606,-2357.87 L -67.3429,-2357.26 L -67.1489,-2356.66
 L -66.8815,-2356.09 L -66.5451,-2355.56 L -66.1448,-2355.08 L -65.6871,-2354.65 L -65.1791,-2354.28 L -64.6289,-2353.98
 L -64.0451,-2353.74 L -63.4369,-2353.59 L -62.8139,-2353.51 L 62.8139,-2353.51 z
M -62.2512,-2355.01 L -62.7495,-2355.07 L -63.2361,-2355.2 L -63.7031,-2355.38 L -64.1433,-2355.62 L -64.5497,-2355.92
 L -64.9159,-2356.26 L -65.2361,-2356.65 L -65.5052,-2357.07 L -65.7191,-2357.53 L -65.8743,-2358.01 L -65.9685,-2358.5
 L -66,-2359 L -66,-2513 L -65.9685,-2513.5 L -65.8743,-2513.99 L -65.7191,-2514.47 L -65.5052,-2514.93
 L -65.2361,-2515.35 L -64.9159,-2515.74 L -64.5497,-2516.08 L -64.1433,-2516.38 L -63.7031,-2516.62 L -63.2361,-2516.8
 L -62.7495,-2516.93 L -62.2512,-2516.99 L 62.2512,-2516.99 L 62.7495,-2516.93 L 63.2361,-2516.8 L 63.7031,-2516.62
 L 64.1433,-2516.38 L 64.5497,-2516.08 L 64.9159,-2515.74 L 65.2361,-2515.35 L 65.5052,-2514.93 L 65.7191,-2514.47
 L 65.8743,-2513.99 L 65.9685,-2513.5 L 66,-2513 L 66,-2359 L 65.9685,-2358.5 L 65.8743,-2358.01
 L 65.7191,-2357.53 L 65.5052,-2357.07 L 65.2361,-2356.65 L 64.9159,-2356.26 L 64.5497,-2355.92 L 64.1433,-2355.62
 L 63.7031,-2355.38 L 63.2361,-2355.2 L 62.7495,-2355.07 L 62.2512,-2355.01 z
M 63.4369,-2179.59 L 64.0451,-2179.74 L 64.6289,-2179.98 L 65.1791,-2180.28 L 65.6871,-2180.65 L 66.1448,-2181.08
 L 66.5451,-2181.56 L 66.8815,-2182.09 L 67.1489,-2182.66 L 67.3429,-2183.26 L 67.4606,-2183.87 L 67.5,-2184.5
 L 67.5,-2339.5 L 67.4606,-2340.13 L 67.3429,-2340.74 L 67.1489,-2341.34 L 66.8815,-2341.91 L 66.5451,-2342.44
 L 66.1448,-2342.92 L 65.6871,-2343.35 L 65.1791,-2343.72 L 64.6289,-2344.02 L 64.0451,-2344.26 L 63.4369,-2344.41
 L 62.8139,-2344.49 L -62.8139,-2344.49 L -63.4369,-2344.41 L -64.0451,-2344.26 L -64.6289,-2344.02 L -65.1791,-2343.72
 L -65.6871,-2343.35 L -66.1448,-2342.92 L -66.5451,-2342.44 L -66.8815,-2341.91 L -67.1489,-2341.34 L -67.3429,-2340.74
 L -67.4606,-2340.13 L -67.5,-2339.5 L -67.5,-2184.5 L -67.4606,-2183.87 L -67.3429,-2183.26 L -67.1489,-2182.66
 L -66.8815,-2182.09 L -66.5451,-2181.56 L -66.1448,-2181.08 L -65.6871,-2180.65 L -65.1791,-2180.28 L -64.6289,-2179.98
 L -64.0451,-2179.74 L -63.4369,-2179.59 L -62.8139,-2179.51 L 62.8139,-2179.51 z
M -62.2512,-2181.01 L -62.7495,-2181.07 L -63.2361,-2181.2 L -63.7031,-2181.38 L -64.1433,-2181.62 L -64.5497,-2181.92
 L -64.9159,-2182.26 L -65.2361,-2182.65 L -65.5052,-2183.07 L -65.7191,-2183.53 L -65.8743,-2184.01 L -65.9685,-2184.5
 L -66,-2185 L -66,-2339 L -65.9685,-2339.5 L -65.8743,-2339.99 L -65.7191,-2340.47 L -65.5052,-2340.93
 L -65.2361,-2341.35 L -64.9159,-2341.74 L -64.5497,-2342.08 L -64.1433,-2342.38 L -63.7031,-2342.62 L -63.2361,-2342.8
 L -62.7495,-2342.93 L -62.2512,-2342.99 L 62.2512,-2342.99 L 62.7495,-2342.93 L 63.2361,-2342.8 L 63.7031,-2342.62
 L 64.1433,-2342.38 L 64.5497,-2342.08 L 64.9159,-2341.74 L 65.2361,-2341.35 L 65.5052,-2340.93 L 65.7191,-2340.47
 L 65.8743,-2339.99 L 65.9685,-2339.5 L 66,-2339 L 66,-2185 L 65.9685,-2184.5 L 65.8743,-2184.01
 L 65.7191,-2183.53 L 65.5052,-2183.07 L 65.2361,-2182.65 L 64.9159,-2182.26 L 64.5497,-2181.92 L 64.1433,-2181.62
 L 63.7031,-2181.38 L 63.2361,-2181.2 L 62.7495,-2181.07 L 62.2512,-2181.01 z
M 63.4369,-2005.59 L 64.0451,-2005.74 L 64.6289,-2005.98 L 65.1791,-2006.28 L 65.6871,-2006.65 L 66.1448,-2007.08
 L 66.5451,-2007.56 L 66.8815,-2008.09 L 67.1489,-2008.66 L 67.3429,-2009.26 L 67.4606,-2009.87 L 67.5,-2010.5
 L 67.5,-2165.5 L 67.4606,-2166.13 L 67.3429,-2166.74 L 67.1489,-2167.34 L 66.8815,-2167.91 L 66.5451,-2168.44
 L 66.1448,-2168.92 L 65.6871,-2169.35 L 65.1791,-2169.72 L 64.6289,-2170.02 L 64.0451,-2170.26 L 63.4369,-2170.41
 L 62.8139,-2170.49 L -62.8139,-2170.49 L -63.4369,-2170.41 L -64.0451,-2170.26 L -64.6289,-2170.02 L -65.1791,-2169.72
 L -65.6871,-2169.35 L -66.1448,-2168.92 L -66.5451,-2168.44 L -66.8815,-2167.91 L -67.1489,-2167.34 L -67.3429,-2166.74
 L -67.4606,-2166.13 L -67.5,-2165.5 L -67.5,-2010.5 L -67.4606,-2009.87 L -67.3429,-2009.26 L -67.1489,-2008.66
 L -66.8815,-2008.09 L -66.5451,-2007.56 L -66.1448,-2007.08 L -65.6871,-2006.65 L -65.1791,-2006.28 L -64.6289,-2005.98
 L -64.0451,-2005.74 L -63.4369,-2005.59 L -62.8139,-2005.51 L 62.8139,-2005.51 z
M -62.2512,-2007.01 L -62.7495,-2007.07 L -63.2361,-2007.2 L -63.7031,-2007.38 L -64.1433,-2007.62 L -64.5497,-2007.92
 L -64.9159,-2008.26 L -65.2361,-2008.65 L -65.5052,-2009.07 L -65.7191,-2009.53 L -65.8743,-2010.01 L -65.9685,-2010.5
 L -66,-2011 L -66,-2165 L -65.9685,-2165.5 L -65.8743,-2165.99 L -65.7191,-2166.47 L -65.5052,-2166.93
 L -65.2361,-2167.35 L -64.9159,-2167.74 L -64.5497,-2168.08 L -64.1433,-2168.38 L -63.7031,-2168.62 L -63.2361,-2168.8
 L -62.7495,-2168.93 L -62.2512,-2168.99 L 62.2512,-2168.99 L 62.7495,-2168.93 L 63.2361,-2168.8 L 63.7031,-2168.62
 L 64.1433,-2168.38 L 64.5497,-2168.08 L 64.9159,-2167.74 L 65.2361,-2167.35 L 65.5052,-2166.93 L 65.7191,-2166.47
 L 65.8743,-2165.99 L 65.9685,-2165.5 L 66,-2165 L 66,-2011 L 65.9685,-2010.5 L 65.8743,-2010.01
 L 65.7191,-2009.53 L 65.5052,-2009.07 L 65.2361,-2008.65 L 64.9159,-2008.26 L 64.5497,-2007.92 L 64.1433,-2007.62
 L 63.7031,-2007.38 L 63.2361,-2007.2 L 62.7495,-2007.07 L 62.2512,-2007.01 z
M 63.4369,-1831.59 L 64.0451,-1831.74 L 64.6289,-1831.98 L 65.1791,-1832.28 L 65.6871,-1832.65 L 66.1448,-1833.08
 L 66.5451,-1833.56 L 66.8815,-1834.09 L 67.1489,-1834.66 L 67.3429,-1835.26 L 67.4606,-1835.87 L 67.5,-1836.5
 L 67.5,-1991.5 L 67.4606,-1992.13 L 67.3429,-1992.74 L 67.1489,-1993.34 L 66.8815,-1993.91 L 66.5451,-1994.44
 L 66.1448,-1994.92 L 65.6871,-1995.35 L 65.1791,-1995.72 L 64.6289,-1996.02 L 64.0451,-1996.26 L 63.4369,-1996.41
 L 62.8139,-1996.49 L -62.8139,-1996.49 L -63.4369,-1996.41 L -64.0451,-1996.26 L -64.6289,-1996.02 L -65.1791,-1995.72
 L -65.6871,-1995.35 L -66.1448,-1994.92 L -66.5451,-1994.44 L -66.8815,-1993.91 L -67.1489,-1993.34 L -67.3429,-1992.74
 L -67.4606,-1992.13 L -67.5,-1991.5 L -67.5,-1836.5 L -67.4606,-1835.87 L -67.3429,-1835.26 L -67.1489,-1834.66
 L -66.8815,-1834.09 L -66.5451,-1833.56 L -66.1448,-1833.08 L -65.6871,-1832.65 L -65.1791,-1832.28 L -64.6289,-1831.98
 L -64.0451,-1831.74 L -63.4369,-1831.59 L -62.8139,-1831.51 L 62.8139,-1831.51 z
M -62.1954,-1833.89 L -62.5833,-1833.94 L -62.9619,-1834.04 L -63.3254,-1834.18 L -63.668,-1834.37 L -63.9842,-1834.6
 L -64.2692,-1834.87 L -64.5184,-1835.17 L -64.7279,-1835.5 L -64.8943,-1835.85 L -65.0151,-1836.23 L -65.0884,-1836.61
 L -65.1129,-1837 L -65.1129,-1991 L -65.0884,-1991.39 L -65.0151,-1991.77 L -64.8943,-1992.15 L -64.7279,-1992.5
 L -64.5184,-1992.83 L -64.2692,-1993.13 L -63.9842,-1993.4 L -63.668,-1993.63 L -63.3254,-1993.82 L -62.9619,-1993.96
 L -62.5833,-1994.06 L -62.1954,-1994.11 L 62.1954,-1994.11 L 62.5833,-1994.06 L 62.9619,-1993.96 L 63.3254,-1993.82
 L 63.668,-1993.63 L 63.9842,-1993.4 L 64.2692,-1993.13 L 64.5184,-1992.83 L 64.7279,-1992.5 L 64.8943,-1992.15
 L 65.0151,-1991.77 L 65.0884,-1991.39 L 65.1129,-1991 L 65.1129,-1837 L 65.0884,-1836.61 L 65.0151,-1836.23
 L 64.8943,-1835.85 L 64.7279,-1835.5 L 64.5184,-1835.17 L 64.2692,-1834.87 L 63.9842,-1834.6 L 63.668,-1834.37
 L 63.3254,-1834.18 L 62.9619,-1834.04 L 62.5833,-1833.94 L 62.1954,-1833.89 z
M 63.4369,-1657.59 L 64.0451,-1657.74 L 64.6289,-1657.98 L 65.1791,-1658.28 L 65.6871,-1658.65 L 66.1448,-1659.08
 L 66.5451,-1659.56 L 66.8815,-1660.09 L 67.1489,-1660.66 L 67.3429,-1661.26 L 67.4606,-1661.87 L 67.5,-1662.5
 L 67.5,-1817.5 L 67.4606,-1818.13 L 67.3429,-1818.74 L 67.1489,-1819.34 L 66.8815,-1819.91 L 66.5451,-1820.44
 L 66.1448,-1820.92 L 65.6871,-1821.35 L 65.1791,-1821.72 L 64.6289,-1822.02 L 64.0451,-1822.26 L 63.4369,-1822.41
 L 62.8139,-1822.49 L -62.8139,-1822.49 L -63.4369,-1822.41 L -64.0451,-1822.26 L -64.6289,-1822.02 L -65.1791,-1821.72
 L -65.6871,-1821.35 L -66.1448,-1820.92 L -66.5451,-1820.44 L -66.8815,-1819.91 L -67.1489,-1819.34 L -67.3429,-1818.74
 L -67.4606,-1818.13 L -67.5,-1817.5 L -67.5,-1662.5 L -67.4606,-1661.87 L -67.3429,-1661.26 L -67.1489,-1660.66
 L -66.8815,-1660.09 L -66.5451,-1659.56 L -66.1448,-1659.08 L -65.6871,-1658.65 L -65.1791,-1658.28 L -64.6289,-1657.98
 L -64.0451,-1657.74 L -63.4369,-1657.59 L -62.8139,-1657.51 L 62.8139,-1657.51 z
M -60.1341,-1812.87 L -60.4001,-1812.9 L -60.6598,-1812.97 L -60.9092,-1813.07 L -61.1441,-1813.2 L -61.3611,-1813.35
 L -61.5565,-1813.54 L -61.7275,-1813.74 L -61.8712,-1813.97 L -61.9853,-1814.21 L -62.0682,-1814.47 L -62.1185,-1814.73
 L -62.1353,-1815 L -62.1185,-1815.27 L -62.0682,-1815.53 L -61.9853,-1815.79 L -61.8712,-1816.03 L -61.7275,-1816.26
 L -61.5565,-1816.46 L -61.3611,-1816.65 L -61.1441,-1816.8 L -60.9092,-1816.93 L -60.6598,-1817.03 L -60.4001,-1817.1
 L -60.1341,-1817.13 L -59.8659,-1817.13 L -59.5999,-1817.1 L -59.3401,-1817.03 L -59.0908,-1816.93 L -58.8559,-1816.8
 L -58.6389,-1816.65 L -58.4434,-1816.46 L -58.2725,-1816.26 L -58.1288,-1816.03 L -58.0146,-1815.79 L -57.9318,-1815.53
 L -57.8815,-1815.27 L -57.8647,-1815 L -57.8815,-1814.73 L -57.9318,-1814.47 L -58.0146,-1814.21 L -58.1288,-1813.97
 L -58.2725,-1813.74 L -58.4434,-1813.54 L -58.6389,-1813.35 L -58.8559,-1813.2 L -59.0908,-1813.07 L -59.3401,-1812.97
 L -59.5999,-1812.9 L -59.8659,-1812.87 z
M 59.8659,-1812.87 L 59.5999,-1812.9 L 59.3401,-1812.97 L 59.0908,-1813.07 L 58.8559,-1813.2 L 58.6389,-1813.35
 L 58.4434,-1813.54 L 58.2725,-1813.74 L 58.1288,-1813.97 L 58.0146,-1814.21 L 57.9318,-1814.47 L 57.8815,-1814.73
 L 57.8647,-1815 L 57.8815,-1815.27 L 57.9318,-1815.53 L 58.0146,-1815.79 L 58.1288,-1816.03 L 58.2725,-1816.26
 L 58.4434,-1816.46 L 58.6389,-1816.65 L 58.8559,-1816.8 L 59.0908,-1816.93 L 59.3401,-1817.03 L 59.5999,-1817.1
 L 59.8659,-1817.13 L 60.1341,-1817.13 L 60.4001,-1817.1 L 60.6598,-1817.03 L 60.9092,-1816.93 L 61.1441,-1816.8
 L 61.3611,-1816.65 L 61.5565,-1816.46 L 61.7275,-1816.26 L 61.8712,-1816.03 L 61.9853,-1815.79 L 62.0682,-1815.53
 L 62.1185,-1815.27 L 62.1353,-1815 L 62.1185,-1814.73 L 62.0682,-1814.47 L 61.9853,-1814.21 L 61.8712,-1813.97
 L 61.7275,-1813.74 L 61.5565,-1813.54 L 61.3611,-1813.35 L 61.1441,-1813.2 L 60.9092,-1813.07 L 60.6598,-1812.97
 L 60.4001,-1812.9 L 60.1341,-1812.87 z
M -60.1341,-1662.87 L -60.4001,-1662.9 L -60.6598,-1662.97 L -60.9092,-1663.07 L -61.1441,-1663.2 L -61.3611,-1663.35
 L -61.5565,-1663.54 L -61.7275,-1663.74 L -61.8712,-1663.97 L -61.9853,-1664.21 L -62.0682,-1664.47 L -62.1185,-1664.73
 L -62.1353,-1665 L -62.1185,-1665.27 L -62.0682,-1665.53 L -61.9853,-1665.79 L -61.8712,-1666.03 L -61.7275,-1666.26
 L -61.5565,-1666.46 L -61.3611,-1666.65 L -61.1441,-1666.8 L -60.9092,-1666.93 L -60.6598,-1667.03 L -60.4001,-1667.1
 L -60.1341,-1667.13 L -59.8659,-1667.13 L -59.5999,-1667.1 L -59.3401,-1667.03 L -59.0908,-1666.93 L -58.8559,-1666.8
 L -58.6389,-1666.65 L -58.4434,-1666.46 L -58.2725,-1666.26 L -58.1288,-1666.03 L -58.0146,-1665.79 L -57.9318,-1665.53
 L -57.8815,-1665.27 L -57.8647,-1665 L -57.8815,-1664.73 L -57.9318,-1664.47 L -58.0146,-1664.21 L -58.1288,-1663.97
 L -58.2725,-1663.74 L -58.4434,-1663.54 L -58.6389,-1663.35 L -58.8559,-1663.2 L -59.0908,-1663.07 L -59.3401,-1662.97
 L -59.5999,-1662.9 L -59.8659,-1662.87 z
M 59.8659,-1662.87 L 59.5999,-1662.9 L 59.3401,-1662.97 L 59.0908,-1663.07 L 58.8559,-1663.2 L 58.6389,-1663.35
 L 58.4434,-1663.54 L 58.2725,-1663.74 L 58.1288,-1663.97 L 58.0146,-1664.21 L 57.9318,-1664.47 L 57.8815,-1664.73
 L 57.8647,-1665 L 57.8815,-1665.27 L 57.9318,-1665.53 L 58.0146,-1665.79 L 58.1288,-1666.03 L 58.2725,-1666.26
 L 58.4434,-1666.46 L 58.6389,-1666.65 L 58.8559,-1666.8 L 59.0908,-1666.93 L 59.3401,-1667.03 L 59.5999,-1667.1
 L 59.8659,-1667.13 L 60.1341,-1667.13 L 60.4001,-1667.1 L 60.6598,-1667.03 L 60.9092,-1666.93 L 61.1441,-1666.8
 L 61.3611,-1666.65 L 61.5565,-1666.46 L 61.7275,-1666.26 L 61.8712,-1666.03 L 61.9853,-1665.79 L 62.0682,-1665.53
 L 62.1185,-1665.27 L 62.1353,-1665 L 62.1185,-1664.73 L 62.0682,-1664.47 L 61.9853,-1664.21 L 61.8712,-1663.97
 L 61.7275,-1663.74 L 61.5565,-1663.54 L 61.3611,-1663.35 L 61.1441,-1663.2 L 60.9092,-1663.07 L 60.6598,-1662.97
 L 60.4001,-1662.9 L 60.1341,-1662.87 z
" stroke="black" fill="lightgray" stroke-width="0.5"/>
</svg>
