<?xml version="1.0" standalone="no"?>
<!DOCTYPE svg PUBLIC "-//W3C//DTD SVG 1.1//EN" "http://www.w3.org/Graphics/SVG/1.1/DTD/svg11.dtd">
<svg width="10mm" height="10mm" viewBox="-5 -5 10 10" xmlns="http://www.w3.org/2000/svg" version="1.1">
<title>OpenSCAD Model</title>
<path d="
M 0.936905,4.91142 L 1.54507,4.75528 L 2.12889,4.52412 L 2.67912,4.22163 L 3.18712,3.85255 L 3.64484,3.42273
 L 4.04507,2.93892 L 4.38153,2.40877 L 4.64888,1.84062 L 4.84291,1.24344 L 4.96057,0.626663 L 5,-0
 L 4.96057,-0.626663 L 4.84291,-1.24344 L 4.64888,-1.84062 L 4.38153,-2.40877 L 4.04507,-2.93892 L 3.64484,-3.42273
 L 3.18712,-3.85255 L 2.67912,-4.22163 L 2.12889,-4.52412 L 1.54507,-4.75528 L 0.936905,-4.91142 L 0.31395,-4.99013
 L -0.31395,-4.99013 L -0.936905,-4.91142 L -1.54507,-4.75528 L -2.12889,-4.52412 L -2.67912,-4.22163 L -3.18712,-3.85255
 L -3.64484,-3.42273 L -4.04507,-2.93892 L -4.38153,-2.40877 L -4.64888,-1.84062 L -4.84291,-1.24344 L -4.96057,-0.626663
 L -5,-0 L -4.96057,0.626663 L -4.84291,1.24344 L -4.64888,1.84062 L -4.38153,2.40877 L -4.04507,2.93892
 L -3.64484,3.42273 L -3.18712,3.85255 L -2.67912,4.22163 L -2.12889,4.52412 L -1.54507,4.75528 L -0.936905,4.91142
 L -0.31395,4.99013 L 0.31395,4.99013 z
M -0.0941772,1.49704 L -0.281067,1.47342 L -0.463516,1.42657 L -0.638657,1.35724 L -0.803726,1.26648 L -0.956131,1.15576
 L -1.09344,1.02681 L -1.21352,0.881668 L -1.31445,0.722626 L -1.39465,0.552185 L -1.45287,0.373032 L -1.48816,0.187988
 L -1.5,-0 L -1.48816,-0.187988 L -1.45287,-0.373032 L -1.39465,-0.552185 L -1.31445,-0.722626 L -1.21352,-0.881668
 L -1.09344,-1.02681 L -0.956131,-1.15576 L -0.803726,-1.26648 L -0.638657,-1.35724 L -0.463516,-1.42657 L -0.281067,-1.47342
 L -0.0941772,-1.49704 L 0.0941772,-1.49704 L 0.281067,-1.47342 L 0.463516,-1.42657 L 0.638657,-1.35724 L 0.803726,-1.26648
 L 0.956131,-1.15576 L 1.09344,-1.02681 L 1.21352,-0.881668 L 1.31445,-0.722626 L 1.39465,-0.552185 L 1.45287,-0.373032
 L 1.48816,-0.187988 L 1.5,-0 L 1.48816,0.187988 L 1.45287,0.373032 L 1.39465,0.552185 L 1.31445,0.722626
 L 1.21352,0.881668 L 1.09344,1.02681 L 0.956131,1.15576 L 0.803726,1.26648 L 0.638657,1.35724 L 0.463516,1.42657
 L 0.281067,1.47342 L 0.0941772,1.49704 z
" stroke="black" fill="lightgray" stroke-width="0.5"/>
</svg>
