<?xml version="1.0" standalone="no"?>
<!DOCTYPE svg PUBLIC "-//W3C//DTD SVG 1.1//EN" "http://www.w3.org/Graphics/SVG/1.1/DTD/svg11.dtd">
<svg width="46mm" height="208mm" viewBox="-23 -347 46 208" xmlns="http://www.w3.org/2000/svg" version="1.1">
<title>OpenSCAD Model</title>
<path d="
M 18.4369,-301.589 L 19.0451,-301.745 L 19.6289,-301.976 L 20.1791,-302.278 L 20.6871,-302.647 L 21.1448,-303.077
 L 21.5451,-303.561 L 21.8815,-304.091 L 22.1489,-304.659 L 22.3429,-305.257 L 22.4606,-305.873 L 22.5,-306.5
 L 22.5,-341.5 L 22.4606,-342.127 L 22.3429,-342.743 L 22.1489,-343.341 L 21.8815,-343.909 L 21.5451,-344.439
 L 21.1448,-344.923 L 20.6871,-345.353 L 20.1791,-345.722 L 19.6289,-346.024 L 19.0451,-346.255 L 18.4369,-346.411
 L 17.8139,-346.49 L -17.8139,-346.49 L -18.4369,-346.411 L -19.0451,-346.255 L -19.6289,-346.024 L -20.1791,-345.722
 L -20.6871,-345.353 L -21.1448,-344.923 L -21.5451,-344.439 L -21.8815,-343.909 L -22.1489,-343.341 L -22.3429,-342.743
 L -22.4606,-342.127 L -22.5,-341.5 L -22.5,-306.5 L -22.4606,-305.873 L -22.3429,-305.257 L -22.1489,-304.659
 L -21.8815,-304.091 L -21.5451,-303.561 L -21.1448,-303.077 L -20.6871,-302.647 L -20.1791,-302.278 L -19.6289,-301.976
 L -19.0451,-301.745 L -18.4369,-301.589 L -17.8139,-301.51 L 17.8139,-301.51 z
M -17.2512,-303.008 L -17.7495,-303.071 L -18.2361,-303.196 L -18.7031,-303.381 L -19.1433,-303.623 L -19.5497,-303.918
 L -19.9159,-304.262 L -20.2361,-304.649 L -20.5052,-305.073 L -20.7191,-305.528 L -20.8743,-306.005 L -20.9684,-306.499
 L -21,-307 L -21,-341 L -20.9684,-341.501 L -20.8743,-341.995 L -20.7191,-342.472 L -20.5052,-342.927
 L -20.2361,-343.351 L -19.9159,-343.738 L -19.5497,-344.082 L -19.1433,-344.377 L -18.7031,-344.619 L -18.2361,-344.804
 L -17.7495,-344.929 L -17.2512,-344.992 L 17.2512,-344.992 L 17.7495,-344.929 L 18.2361,-344.804 L 18.7031,-344.619
 L 19.1433,-344.377 L 19.5497,-344.082 L 19.9159,-343.738 L 20.2361,-343.351 L 20.5052,-342.927 L 20.7191,-342.472
 L 20.8743,-341.995 L 20.9684,-341.501 L 21,-341 L 21,-307 L 20.9684,-306.499 L 20.8743,-306.005
 L 20.7191,-305.528 L 20.5052,-305.073 L 20.2361,-304.649 L 19.9159,-304.262 L 19.5497,-303.918 L 19.1433,-303.623
 L 18.7031,-303.381 L 18.2361,-303.196 L 17.7495,-303.071 L 17.2512,-303.008 z
M 18.4369,-247.589 L 19.0451,-247.745 L 19.6289,-247.976 L 20.1791,-248.278 L 20.6871,-248.647 L 21.1448,-249.077
 L 21.5451,-249.561 L 21.8815,-250.091 L 22.1489,-250.659 L 22.3429,-251.257 L 22.4606,-251.873 L 22.5,-252.5
 L 22.5,-287.5 L 22.4606,-288.127 L 22.3429,-288.743 L 22.1489,-289.341 L 21.8815,-289.909 L 21.5451,-290.439
 L 21.1448,-290.923 L 20.6871,-291.353 L 20.1791,-291.722 L 19.6289,-292.024 L 19.0451,-292.255 L 18.4369,-292.411
 L 17.8139,-292.49 L -17.8139,-292.49 L -18.4369,-292.411 L -19.0451,-292.255 L -19.6289,-292.024 L -20.1791,-291.722
 L -20.6871,-291.353 L -21.1448,-290.923 L -21.5451,-290.439 L -21.8815,-289.909 L -22.1489,-289.341 L -22.3429,-288.743
 L -22.4606,-288.127 L -22.5,-287.5 L -22.5,-252.5 L -22.4606,-251.873 L -22.3429,-251.257 L -22.1489,-250.659
 L -21.8815,-250.091 L -21.5451,-249.561 L -21.1448,-249.077 L -20.6871,-248.647 L -20.1791,-248.278 L -19.6289,-247.976
 L -19.0451,-247.745 L -18.4369,-247.589 L -17.8139,-247.51 L 17.8139,-247.51 z
M -17.2432,-249.135 L -17.7256,-249.196 L -18.1967,-249.317 L -18.6489,-249.496 L -19.0751,-249.73 L -19.4685,-250.016
 L -19.823,-250.349 L -20.133,-250.724 L -20.3936,-251.134 L -20.6007,-251.574 L -20.751,-252.037 L -20.8421,-252.515
 L -20.8726,-253 L -20.8726,-287 L -20.8421,-287.485 L -20.751,-287.963 L -20.6007,-288.426 L -20.3936,-288.866
 L -20.133,-289.276 L -19.823,-289.651 L -19.4685,-289.984 L -19.0751,-290.27 L -18.6489,-290.504 L -18.1967,-290.683
 L -17.7256,-290.804 L -17.2432,-290.865 L 17.2432,-290.865 L 17.7256,-290.804 L 18.1967,-290.683 L 18.6489,-290.504
 L 19.0751,-290.27 L 19.4685,-289.984 L 19.823,-289.651 L 20.133,-289.276 L 20.3936,-288.866 L 20.6007,-288.426
 L 20.751,-287.963 L 20.8421,-287.485 L 20.8726,-287 L 20.8726,-253 L 20.8421,-252.515 L 20.751,-252.037
 L 20.6007,-251.574 L 20.3936,-251.134 L 20.133,-250.724 L 19.823,-250.349 L 19.4685,-250.016 L 19.0751,-249.73
 L 18.6489,-249.496 L 18.1967,-249.317 L 17.7256,-249.196 L 17.2432,-249.135 z
M 18.4369,-193.589 L 19.0451,-193.745 L 19.6289,-193.976 L 20.1791,-194.278 L 20.6871,-194.647 L 21.1448,-195.077
 L 21.5451,-195.561 L 21.8815,-196.091 L 22.1489,-196.659 L 22.3429,-197.257 L 22.4606,-197.873 L 22.5,-198.5
 L 22.5,-233.5 L 22.4606,-234.127 L 22.3429,-234.743 L 22.1489,-235.341 L 21.8815,-235.909 L 21.5451,-236.439
 L 21.1448,-236.923 L 20.6871,-237.353 L 20.1791,-237.722 L 19.6289,-238.024 L 19.0451,-238.255 L 18.4369,-238.411
 L 17.8139,-238.49 L -17.8139,-238.49 L -18.4369,-238.411 L -19.0451,-238.255 L -19.6289,-238.024 L -20.1791,-237.722
 L -20.6871,-237.353 L -21.1448,-236.923 L -21.5451,-236.439 L -21.8815,-235.909 L -22.1489,-235.341 L -22.3429,-234.743
 L -22.4606,-234.127 L -22.5,-233.5 L -22.5,-198.5 L -22.4606,-197.873 L -22.3429,-197.257 L -22.1489,-196.659
 L -21.8815,-196.091 L -21.5451,-195.561 L -21.1448,-195.077 L -20.6871,-194.647 L -20.1791,-194.278 L -19.6289,-193.976
 L -19.0451,-193.745 L -18.4369,-193.589 L -17.8139,-193.51 L 17.8139,-193.51 z
M -15.1507,-228.605 L -15.4497,-228.643 L -15.7416,-228.717 L -16.0219,-228.828 L -16.286,-228.974 L -16.5298,-229.151
 L -16.7495,-229.357 L -16.9416,-229.589 L -17.1031,-229.844 L -17.2315,-230.117 L -17.3246,-230.403 L -17.3811,-230.699
 L -17.4,-231 L -17.3811,-231.301 L -17.3246,-231.597 L -17.2315,-231.883 L -17.1031,-232.156 L -16.9416,-232.411
 L -16.7495,-232.643 L -16.5298,-232.849 L -16.286,-233.026 L -16.0219,-233.172 L -15.7416,-233.283 L -15.4497,-233.357
 L -15.1507,-233.395 L -14.8493,-233.395 L -14.5503,-233.357 L -14.2583,-233.283 L -13.9781,-233.172 L -13.714,-233.026
 L -13.4702,-232.849 L -13.2505,-232.643 L -13.0583,-232.411 L -12.8969,-232.156 L -12.7685,-231.883 L -12.6754,-231.597
 L -12.6189,-231.301 L -12.6,-231 L -12.6189,-230.699 L -12.6754,-230.403 L -12.7685,-230.117 L -12.8969,-229.844
 L -13.0583,-229.589 L -13.2505,-229.357 L -13.4702,-229.151 L -13.714,-228.974 L -13.9781,-228.828 L -14.2583,-228.717
 L -14.5503,-228.643 L -14.8493,-228.605 z
M 14.8493,-228.605 L 14.5503,-228.643 L 14.2583,-228.717 L 13.9781,-228.828 L 13.714,-228.974 L 13.4702,-229.151
 L 13.2505,-229.357 L 13.0583,-229.589 L 12.8969,-229.844 L 12.7685,-230.117 L 12.6754,-230.403 L 12.6189,-230.699
 L 12.6,-231 L 12.6189,-231.301 L 12.6754,-231.597 L 12.7685,-231.883 L 12.8969,-232.156 L 13.0583,-232.411
 L 13.2505,-232.643 L 13.4702,-232.849 L 13.714,-233.026 L 13.9781,-233.172 L 14.2583,-233.283 L 14.5503,-233.357
 L 14.8493,-233.395 L 15.1507,-233.395 L 15.4497,-233.357 L 15.7416,-233.283 L 16.0219,-233.172 L 16.286,-233.026
 L 16.5298,-232.849 L 16.7495,-232.643 L 16.9416,-232.411 L 17.1031,-232.156 L 17.2315,-231.883 L 17.3246,-231.597
 L 17.3811,-231.301 L 17.4,-231 L 17.3811,-230.699 L 17.3246,-230.403 L 17.2315,-230.117 L 17.1031,-229.844
 L 16.9416,-229.589 L 16.7495,-229.357 L 16.5298,-229.151 L 16.286,-228.974 L 16.0219,-228.828 L 15.7416,-228.717
 L 15.4497,-228.643 L 15.1507,-228.605 z
M 14.8493,-198.605 L 14.5503,-198.643 L 14.2583,-198.717 L 13.9781,-198.828 L 13.714,-198.974 L 13.4702,-199.151
 L 13.2505,-199.357 L 13.0583,-199.589 L 12.8969,-199.844 L 12.7685,-200.117 L 12.6754,-200.403 L 12.6189,-200.699
 L 12.6,-201 L 12.6189,-201.301 L 12.6754,-201.597 L 12.7685,-201.883 L 12.8969,-202.156 L 13.0583,-202.411
 L 13.2505,-202.643 L 13.4702,-202.849 L 13.714,-203.026 L 13.9781,-203.172 L 14.2583,-203.283 L 14.5503,-203.357
 L 14.8493,-203.395 L 15.1507,-203.395 L 15.4497,-203.357 L 15.7416,-203.283 L 16.0219,-203.172 L 16.286,-203.026
 L 16.5298,-202.849 L 16.7495,-202.643 L 16.9416,-202.411 L 17.1031,-202.156 L 17.2315,-201.883 L 17.3246,-201.597
 L 17.3811,-201.301 L 17.4,-201 L 17.3811,-200.699 L 17.3246,-200.403 L 17.2315,-200.117 L 17.1031,-199.844
 L 16.9416,-199.589 L 16.7495,-199.357 L 16.5298,-199.151 L 16.286,-198.974 L 16.0219,-198.828 L 15.7416,-198.717
 L 15.4497,-198.643 L 15.1507,-198.605 z
M -15.1507,-198.605 L -15.4497,-198.643 L -15.7416,-198.717 L -16.0219,-198.828 L -16.286,-198.974 L -16.5298,-199.151
 L -16.7495,-199.357 L -16.9416,-199.589 L -17.1031,-199.844 L -17.2315,-200.117 L -17.3246,-200.403 L -17.3811,-200.699
 L -17.4,-201 L -17.3811,-201.301 L -17.3246,-201.597 L -17.2315,-201.883 L -17.1031,-202.156 L -16.9416,-202.411
 L -16.7495,-202.643 L -16.5298,-202.849 L -16.286,-203.026 L -16.0219,-203.172 L -15.7416,-203.283 L -15.4497,-203.357
 L -15.1507,-203.395 L -14.8493,-203.395 L -14.5503,-203.357 L -14.2583,-203.283 L -13.9781,-203.172 L -13.714,-203.026
 L -13.4702,-202.849 L -13.2505,-202.643 L -13.0583,-202.411 L -12.8969,-202.156 L -12.7685,-201.883 L -12.6754,-201.597
 L -12.6189,-201.301 L -12.6,-201 L -12.6189,-200.699 L -12.6754,-200.403 L -12.7685,-200.117 L -12.8969,-199.844
 L -13.0583,-199.589 L -13.2505,-199.357 L -13.4702,-199.151 L -13.714,-198.974 L -13.9781,-198.828 L -14.2583,-198.717
 L -14.5503,-198.643 L -14.8493,-198.605 z
M 18.4369,-139.589 L 19.0451,-139.745 L 19.6289,-139.976 L 20.1791,-140.278 L 20.6871,-140.647 L 21.1448,-141.077
 L 21.5451,-141.561 L 21.8815,-142.091 L 22.1489,-142.659 L 22.3429,-143.257 L 22.4606,-143.873 L 22.5,-144.5
 L 22.5,-179.5 L 22.4606,-180.127 L 22.3429,-180.743 L 22.1489,-181.341 L 21.8815,-181.909 L 21.5451,-182.439
 L 21.1448,-182.923 L 20.6871,-183.353 L 20.1791,-183.722 L 19.6289,-184.024 L 19.0451,-184.255 L 18.4369,-184.411
 L 17.8139,-184.49 L -17.8139,-184.49 L -18.4369,-184.411 L -19.0451,-184.255 L -19.6289,-184.024 L -20.1791,-183.722
 L -20.6871,-183.353 L -21.1448,-182.923 L -21.5451,-182.439 L -21.8815,-181.909 L -22.1489,-181.341 L -22.3429,-180.743
 L -22.4606,-180.127 L -22.5,-179.5 L -22.5,-144.5 L -22.4606,-143.873 L -22.3429,-143.257 L -22.1489,-142.659
 L -21.8815,-142.091 L -21.5451,-141.561 L -21.1448,-141.077 L -20.6871,-140.647 L -20.1791,-140.278 L -19.6289,-139.976
 L -19.0451,-139.745 L -18.4369,-139.589 L -17.8139,-139.51 L 17.8139,-139.51 z
M 14.887,-175.204 L 14.6627,-175.232 L 14.4438,-175.288 L 14.2336,-175.371 L 14.0355,-175.48 L 13.8526,-175.613
 L 13.6879,-175.768 L 13.5438,-175.942 L 13.4226,-176.133 L 13.3264,-176.337 L 13.2565,-176.552 L 13.2142,-176.774
 L 13.2,-177 L 13.2142,-177.226 L 13.2565,-177.448 L 13.3264,-177.663 L 13.4226,-177.867 L 13.5438,-178.058
 L 13.6879,-178.232 L 13.8526,-178.387 L 14.0355,-178.52 L 14.2336,-178.629 L 14.4438,-178.712 L 14.6627,-178.768
 L 14.887,-178.796 L 15.113,-178.796 L 15.3373,-178.768 L 15.5562,-178.712 L 15.7664,-178.629 L 15.9645,-178.52
 L 16.1474,-178.387 L 16.3121,-178.232 L 16.4562,-178.058 L 16.5773,-177.867 L 16.6736,-177.663 L 16.7434,-177.448
 L 16.7858,-177.226 L 16.8,-177 L 16.7858,-176.774 L 16.7434,-176.552 L 16.6736,-176.337 L 16.5773,-176.133
 L 16.4562,-175.942 L 16.3121,-175.768 L 16.1474,-175.613 L 15.9645,-175.48 L 15.7664,-175.371 L 15.5562,-175.288
 L 15.3373,-175.232 L 15.113,-175.204 z
M -15.113,-175.204 L -15.3373,-175.232 L -15.5562,-175.288 L -15.7664,-175.371 L -15.9645,-175.48 L -16.1474,-175.613
 L -16.3121,-175.768 L -16.4562,-175.942 L -16.5773,-176.133 L -16.6736,-176.337 L -16.7434,-176.552 L -16.7858,-176.774
 L -16.8,-177 L -16.7858,-177.226 L -16.7434,-177.448 L -16.6736,-177.663 L -16.5773,-177.867 L -16.4562,-178.058
 L -16.3121,-178.232 L -16.1474,-178.387 L -15.9645,-178.52 L -15.7664,-178.629 L -15.5562,-178.712 L -15.3373,-178.768
 L -15.113,-178.796 L -14.887,-178.796 L -14.6627,-178.768 L -14.4438,-178.712 L -14.2336,-178.629 L -14.0355,-178.52
 L -13.8526,-178.387 L -13.6879,-178.232 L -13.5438,-178.058 L -13.4226,-177.867 L -13.3264,-177.663 L -13.2565,-177.448
 L -13.2142,-177.226 L -13.2,-177 L -13.2142,-176.774 L -13.2565,-176.552 L -13.3264,-176.337 L -13.4226,-176.133
 L -13.5438,-175.942 L -13.6879,-175.768 L -13.8526,-175.613 L -14.0355,-175.48 L -14.2336,-175.371 L -14.4438,-175.288
 L -14.6627,-175.232 L -14.887,-175.204 z
M 14.887,-145.204 L 14.6627,-145.232 L 14.4438,-145.288 L 14.2336,-145.371 L 14.0355,-145.48 L 13.8526,-145.613
 L 13.6879,-145.768 L 13.5438,-145.942 L 13.4226,-146.133 L 13.3264,-146.337 L 13.2565,-146.552 L 13.2142,-146.774
 L 13.2,-147 L 13.2142,-147.226 L 13.2565,-147.448 L 13.3264,-147.663 L 13.4226,-147.867 L 13.5438,-148.058
 L 13.6879,-148.232 L 13.8526,-148.387 L 14.0355,-148.52 L 14.2336,-148.629 L 14.4438,-148.712 L 14.6627,-148.768
 L 14.887,-148.796 L 15.113,-148.796 L 15.3373,-148.768 L 15.5562,-148.712 L 15.7664,-148.629 L 15.9645,-148.52
 L 16.1474,-148.387 L 16.3121,-148.232 L 16.4562,-148.058 L 16.5773,-147.867 L 16.6736,-147.663 L 16.7434,-147.448
 L 16.7858,-147.226 L 16.8,-147 L 16.7858,-146.774 L 16.7434,-146.552 L 16.6736,-146.337 L 16.5773,-146.133
 L 16.4562,-145.942 L 16.3121,-145.768 L 16.1474,-145.613 L 15.9645,-145.48 L 15.7664,-145.371 L 15.5562,-145.288
 L 15.3373,-145.232 L 15.113,-145.204 z
M -15.113,-145.204 L -15.3373,-145.232 L -15.5562,-145.288 L -15.7664,-145.371 L -15.9645,-145.48 L -16.1474,-145.613
 L -16.3121,-145.768 L -16.4562,-145.942 L -16.5773,-146.133 L -16.6736,-146.337 L -16.7434,-146.552 L -16.7858,-146.774
 L -16.8,-147 L -16.7858,-147.226 L -16.7434,-147.448 L -16.6736,-147.663 L -16.5773,-147.867 L -16.4562,-148.058
 L -16.3121,-148.232 L -16.1474,-148.387 L -15.9645,-148.52 L -15.7664,-148.629 L -15.5562,-148.712 L -15.3373,-148.768
 L -15.113,-148.796 L -14.887,-148.796 L -14.6627,-148.768 L -14.4438,-148.712 L -14.2336,-148.629 L -14.0355,-148.52
 L -13.8526,-148.387 L -13.6879,-148.232 L -13.5438,-148.058 L -13.4226,-147.867 L -13.3264,-147.663 L -13.2565,-147.448
 L -13.2142,-147.226 L -13.2,-147 L -13.2142,-146.774 L -13.2565,-146.552 L -13.3264,-146.337 L -13.4226,-146.133
 L -13.5438,-145.942 L -13.6879,-145.768 L -13.8526,-145.613 L -14.0355,-145.48 L -14.2336,-145.371 L -14.4438,-145.288
 L -14.6627,-145.232 L -14.887,-145.204 z
" stroke="black" fill="lightgray" stroke-width="0.5"/>
</svg>
