<?xml version="1.0" standalone="no"?>
<!DOCTYPE svg PUBLIC "-//W3C//DTD SVG 1.1//EN" "http://www.w3.org/Graphics/SVG/1.1/DTD/svg11.dtd">
<svg width="74mm" height="158mm" viewBox="-37 -289 74 158" xmlns="http://www.w3.org/2000/svg" version="1.1">
<title>OpenSCAD Model</title>
<path d="
M 32.9369,-215.089 L 33.5451,-215.245 L 34.1289,-215.476 L 34.6791,-215.778 L 35.1871,-216.147 L 35.6448,-216.577
 L 36.0451,-217.061 L 36.3815,-217.591 L 36.6489,-218.159 L 36.8429,-218.757 L 36.9606,-219.373 L 37,-220
 L 37,-284 L 36.9606,-284.627 L 36.8429,-285.243 L 36.6489,-285.841 L 36.3815,-286.409 L 36.0451,-286.939
 L 35.6448,-287.423 L 35.1871,-287.853 L 34.6791,-288.222 L 34.1289,-288.524 L 33.5451,-288.755 L 33.24,-288.834
 L 33,-287.5 L 30.7605,-284.896 L 30.927,-284.853 L 31.2773,-284.714 L 31.6075,-284.533 L 31.9123,-284.312
 L 32.1869,-284.054 L 32.427,-283.763 L 32.6289,-283.445 L 32.7893,-283.104 L 32.9057,-282.746 L 32.9763,-282.376
 L 33,-282 L 32.9763,-281.624 L 32.9057,-281.254 L 32.7893,-280.896 L 32.6289,-280.555 L 32.427,-280.237
 L 32.1869,-279.946 L 31.9123,-279.688 L 31.6075,-279.467 L 31.2773,-279.286 L 30.927,-279.147 L 30.5621,-279.053
 L 30.1884,-279.006 L 29.8116,-279.006 L 29.4379,-279.053 L 29.0729,-279.147 L 28.7227,-279.286 L 28.3925,-279.467
 L 28.0877,-279.688 L 27.8131,-279.946 L 27.5729,-280.237 L 27.3711,-280.555 L 27.2494,-280.813 L 11.5,-262.5
 L 11.5,-227.5 L -11.5,-227.5 L -11.5,-262.5 L -27.2494,-280.813 L -27.3711,-280.555 L -27.5729,-280.237
 L -27.8131,-279.946 L -28.0877,-279.688 L -28.3925,-279.467 L -28.7227,-279.286 L -29.0729,-279.147 L -29.4379,-279.053
 L -29.8116,-279.006 L -30.1884,-279.006 L -30.5621,-279.053 L -30.927,-279.147 L -31.2773,-279.286 L -31.6075,-279.467
 L -31.9123,-279.688 L -32.1869,-279.946 L -32.427,-280.237 L -32.6289,-280.555 L -32.7893,-280.896 L -32.9057,-281.254
 L -32.9763,-281.624 L -33,-282 L -32.9763,-282.376 L -32.9057,-282.746 L -32.7893,-283.104 L -32.6289,-283.445
 L -32.427,-283.763 L -32.1869,-284.054 L -31.9123,-284.312 L -31.6075,-284.533 L -31.2773,-284.714 L -30.927,-284.853
 L -30.7605,-284.896 L -33,-287.5 L -33.24,-288.834 L -33.5451,-288.755 L -34.1289,-288.524 L -34.6791,-288.222
 L -35.1871,-287.853 L -35.6448,-287.423 L -36.0451,-286.939 L -36.3815,-286.409 L -36.6489,-285.841 L -36.8429,-285.243
 L -36.9606,-284.627 L -37,-284 L -37,-220 L -36.9606,-219.373 L -36.8429,-218.757 L -36.6489,-218.159
 L -36.3815,-217.591 L -36.0451,-217.061 L -35.6448,-216.577 L -35.1871,-216.147 L -34.6791,-215.778 L -34.1289,-215.476
 L -33.5451,-215.245 L -32.9369,-215.089 L -32.3139,-215.01 L 32.3139,-215.01 z
M -30.0942,-273.003 L -30.2811,-273.027 L -30.4635,-273.073 L -30.6387,-273.143 L -30.8037,-273.234 L -30.9561,-273.344
 L -31.0934,-273.473 L -31.2135,-273.618 L -31.3145,-273.777 L -31.3947,-273.948 L -31.4529,-274.127 L -31.4882,-274.312
 L -31.5,-274.5 L -31.4882,-274.688 L -31.4529,-274.873 L -31.3947,-275.052 L -31.3145,-275.223 L -31.2135,-275.382
 L -31.0934,-275.527 L -30.9561,-275.656 L -30.8037,-275.766 L -30.6387,-275.857 L -30.4635,-275.927 L -30.2811,-275.973
 L -30.0942,-275.997 L -29.9058,-275.997 L -29.7189,-275.973 L -29.5365,-275.927 L -29.3613,-275.857 L -29.1963,-275.766
 L -29.0439,-275.656 L -28.9065,-275.527 L -28.7865,-275.382 L -28.6855,-275.223 L -28.6053,-275.052 L -28.5471,-274.873
 L -28.5118,-274.688 L -28.5,-274.5 L -28.5118,-274.312 L -28.5471,-274.127 L -28.6053,-273.948 L -28.6855,-273.777
 L -28.7865,-273.618 L -28.9065,-273.473 L -29.0439,-273.344 L -29.1963,-273.234 L -29.3613,-273.143 L -29.5365,-273.073
 L -29.7189,-273.027 L -29.9058,-273.003 z
M 29.9058,-273.003 L 29.7189,-273.027 L 29.5365,-273.073 L 29.3613,-273.143 L 29.1963,-273.234 L 29.0439,-273.344
 L 28.9065,-273.473 L 28.7865,-273.618 L 28.6855,-273.777 L 28.6053,-273.948 L 28.5471,-274.127 L 28.5118,-274.312
 L 28.5,-274.5 L 28.5118,-274.688 L 28.5471,-274.873 L 28.6053,-275.052 L 28.6855,-275.223 L 28.7865,-275.382
 L 28.9065,-275.527 L 29.0439,-275.656 L 29.1963,-275.766 L 29.3613,-275.857 L 29.5365,-275.927 L 29.7189,-275.973
 L 29.9058,-275.997 L 30.0942,-275.997 L 30.2811,-275.973 L 30.4635,-275.927 L 30.6387,-275.857 L 30.8037,-275.766
 L 30.9561,-275.656 L 31.0934,-275.527 L 31.2135,-275.382 L 31.3145,-275.223 L 31.3947,-275.052 L 31.4529,-274.873
 L 31.4882,-274.688 L 31.5,-274.5 L 31.4882,-274.312 L 31.4529,-274.127 L 31.3947,-273.948 L 31.3145,-273.777
 L 31.2135,-273.618 L 31.0934,-273.473 L 30.9561,-273.344 L 30.8037,-273.234 L 30.6387,-273.143 L 30.4635,-273.073
 L 30.2811,-273.027 L 30.0942,-273.003 z
M -30.1884,-264.006 L -30.5621,-264.053 L -30.927,-264.147 L -31.2773,-264.286 L -31.6075,-264.467 L -31.9123,-264.688
 L -32.1869,-264.946 L -32.427,-265.237 L -32.6289,-265.555 L -32.7893,-265.896 L -32.9057,-266.254 L -32.9763,-266.624
 L -33,-267 L -32.9763,-267.376 L -32.9057,-267.746 L -32.7893,-268.104 L -32.6289,-268.445 L -32.427,-268.763
 L -32.1869,-269.054 L -31.9123,-269.312 L -31.6075,-269.533 L -31.2773,-269.714 L -30.927,-269.853 L -30.5621,-269.947
 L -30.1884,-269.994 L -29.8116,-269.994 L -29.4379,-269.947 L -29.0729,-269.853 L -28.7227,-269.714 L -28.3925,-269.533
 L -28.0877,-269.312 L -27.8131,-269.054 L -27.5729,-268.763 L -27.3711,-268.445 L -27.2107,-268.104 L -27.0942,-267.746
 L -27.0237,-267.376 L -27,-267 L -27.0237,-266.624 L -27.0942,-266.254 L -27.2107,-265.896 L -27.3711,-265.555
 L -27.5729,-265.237 L -27.8131,-264.946 L -28.0877,-264.688 L -28.3925,-264.467 L -28.7227,-264.286 L -29.0729,-264.147
 L -29.4379,-264.053 L -29.8116,-264.006 z
M 29.8116,-264.006 L 29.4379,-264.053 L 29.0729,-264.147 L 28.7227,-264.286 L 28.3925,-264.467 L 28.0877,-264.688
 L 27.8131,-264.946 L 27.5729,-265.237 L 27.3711,-265.555 L 27.2107,-265.896 L 27.0942,-266.254 L 27.0237,-266.624
 L 27,-267 L 27.0237,-267.376 L 27.0942,-267.746 L 27.2107,-268.104 L 27.3711,-268.445 L 27.5729,-268.763
 L 27.8131,-269.054 L 28.0877,-269.312 L 28.3925,-269.533 L 28.7227,-269.714 L 29.0729,-269.853 L 29.4379,-269.947
 L 29.8116,-269.994 L 30.1884,-269.994 L 30.5621,-269.947 L 30.927,-269.853 L 31.2773,-269.714 L 31.6075,-269.533
 L 31.9123,-269.312 L 32.1869,-269.054 L 32.427,-268.763 L 32.6289,-268.445 L 32.7893,-268.104 L 32.9057,-267.746
 L 32.9763,-267.376 L 33,-267 L 32.9763,-266.624 L 32.9057,-266.254 L 32.7893,-265.896 L 32.6289,-265.555
 L 32.427,-265.237 L 32.1869,-264.946 L 31.9123,-264.688 L 31.6075,-264.467 L 31.2773,-264.286 L 30.927,-264.147
 L 30.5621,-264.053 L 30.1884,-264.006 z
M -30.0942,-258.003 L -30.2811,-258.027 L -30.4635,-258.073 L -30.6387,-258.143 L -30.8037,-258.234 L -30.9561,-258.344
 L -31.0934,-258.473 L -31.2135,-258.618 L -31.3145,-258.777 L -31.3947,-258.948 L -31.4529,-259.127 L -31.4882,-259.312
 L -31.5,-259.5 L -31.4882,-259.688 L -31.4529,-259.873 L -31.3947,-260.052 L -31.3145,-260.223 L -31.2135,-260.382
 L -31.0934,-260.527 L -30.9561,-260.656 L -30.8037,-260.766 L -30.6387,-260.857 L -30.4635,-260.927 L -30.2811,-260.973
 L -30.0942,-260.997 L -29.9058,-260.997 L -29.7189,-260.973 L -29.5365,-260.927 L -29.3613,-260.857 L -29.1963,-260.766
 L -29.0439,-260.656 L -28.9065,-260.527 L -28.7865,-260.382 L -28.6855,-260.223 L -28.6053,-260.052 L -28.5471,-259.873
 L -28.5118,-259.688 L -28.5,-259.5 L -28.5118,-259.312 L -28.5471,-259.127 L -28.6053,-258.948 L -28.6855,-258.777
 L -28.7865,-258.618 L -28.9065,-258.473 L -29.0439,-258.344 L -29.1963,-258.234 L -29.3613,-258.143 L -29.5365,-258.073
 L -29.7189,-258.027 L -29.9058,-258.003 z
M 29.9058,-258.003 L 29.7189,-258.027 L 29.5365,-258.073 L 29.3613,-258.143 L 29.1963,-258.234 L 29.0439,-258.344
 L 28.9065,-258.473 L 28.7865,-258.618 L 28.6855,-258.777 L 28.6053,-258.948 L 28.5471,-259.127 L 28.5118,-259.312
 L 28.5,-259.5 L 28.5118,-259.688 L 28.5471,-259.873 L 28.6053,-260.052 L 28.6855,-260.223 L 28.7865,-260.382
 L 28.9065,-260.527 L 29.0439,-260.656 L 29.1963,-260.766 L 29.3613,-260.857 L 29.5365,-260.927 L 29.7189,-260.973
 L 29.9058,-260.997 L 30.0942,-260.997 L 30.2811,-260.973 L 30.4635,-260.927 L 30.6387,-260.857 L 30.8037,-260.766
 L 30.9561,-260.656 L 31.0934,-260.527 L 31.2135,-260.382 L 31.3145,-260.223 L 31.3947,-260.052 L 31.4529,-259.873
 L 31.4882,-259.688 L 31.5,-259.5 L 31.4882,-259.312 L 31.4529,-259.127 L 31.3947,-258.948 L 31.3145,-258.777
 L 31.2135,-258.618 L 31.0934,-258.473 L 30.9561,-258.344 L 30.8037,-258.234 L 30.6387,-258.143 L 30.4635,-258.073
 L 30.2811,-258.027 L 30.0942,-258.003 z
M 29.8116,-249.006 L 29.4379,-249.053 L 29.0729,-249.147 L 28.7227,-249.286 L 28.3925,-249.467 L 28.0877,-249.688
 L 27.8131,-249.946 L 27.5729,-250.237 L 27.3711,-250.555 L 27.2107,-250.896 L 27.0942,-251.254 L 27.0237,-251.624
 L 27,-252 L 27.0237,-252.376 L 27.0942,-252.746 L 27.2107,-253.104 L 27.3711,-253.445 L 27.5729,-253.763
 L 27.8131,-254.054 L 28.0877,-254.312 L 28.3925,-254.533 L 28.7227,-254.714 L 29.0729,-254.853 L 29.4379,-254.947
 L 29.8116,-254.994 L 30.1884,-254.994 L 30.5621,-254.947 L 30.927,-254.853 L 31.2773,-254.714 L 31.6075,-254.533
 L 31.9123,-254.312 L 32.1869,-254.054 L 32.427,-253.763 L 32.6289,-253.445 L 32.7893,-253.104 L 32.9057,-252.746
 L 32.9763,-252.376 L 33,-252 L 32.9763,-251.624 L 32.9057,-251.254 L 32.7893,-250.896 L 32.6289,-250.555
 L 32.427,-250.237 L 32.1869,-249.946 L 31.9123,-249.688 L 31.6075,-249.467 L 31.2773,-249.286 L 30.927,-249.147
 L 30.5621,-249.053 L 30.1884,-249.006 z
M -30.1884,-249.006 L -30.5621,-249.053 L -30.927,-249.147 L -31.2773,-249.286 L -31.6075,-249.467 L -31.9123,-249.688
 L -32.1869,-249.946 L -32.427,-250.237 L -32.6289,-250.555 L -32.7893,-250.896 L -32.9057,-251.254 L -32.9763,-251.624
 L -33,-252 L -32.9763,-252.376 L -32.9057,-252.746 L -32.7893,-253.104 L -32.6289,-253.445 L -32.427,-253.763
 L -32.1869,-254.054 L -31.9123,-254.312 L -31.6075,-254.533 L -31.2773,-254.714 L -30.927,-254.853 L -30.5621,-254.947
 L -30.1884,-254.994 L -29.8116,-254.994 L -29.4379,-254.947 L -29.0729,-254.853 L -28.7227,-254.714 L -28.3925,-254.533
 L -28.0877,-254.312 L -27.8131,-254.054 L -27.5729,-253.763 L -27.3711,-253.445 L -27.2107,-253.104 L -27.0942,-252.746
 L -27.0237,-252.376 L -27,-252 L -27.0237,-251.624 L -27.0942,-251.254 L -27.2107,-250.896 L -27.3711,-250.555
 L -27.5729,-250.237 L -27.8131,-249.946 L -28.0877,-249.688 L -28.3925,-249.467 L -28.7227,-249.286 L -29.0729,-249.147
 L -29.4379,-249.053 L -29.8116,-249.006 z
M -30.0942,-243.003 L -30.2811,-243.027 L -30.4635,-243.073 L -30.6387,-243.143 L -30.8037,-243.234 L -30.9561,-243.344
 L -31.0934,-243.473 L -31.2135,-243.618 L -31.3145,-243.777 L -31.3947,-243.948 L -31.4529,-244.127 L -31.4882,-244.312
 L -31.5,-244.5 L -31.4882,-244.688 L -31.4529,-244.873 L -31.3947,-245.052 L -31.3145,-245.223 L -31.2135,-245.382
 L -31.0934,-245.527 L -30.9561,-245.656 L -30.8037,-245.766 L -30.6387,-245.857 L -30.4635,-245.927 L -30.2811,-245.973
 L -30.0942,-245.997 L -29.9058,-245.997 L -29.7189,-245.973 L -29.5365,-245.927 L -29.3613,-245.857 L -29.1963,-245.766
 L -29.0439,-245.656 L -28.9065,-245.527 L -28.7865,-245.382 L -28.6855,-245.223 L -28.6053,-245.052 L -28.5471,-244.873
 L -28.5118,-244.688 L -28.5,-244.5 L -28.5118,-244.312 L -28.5471,-244.127 L -28.6053,-243.948 L -28.6855,-243.777
 L -28.7865,-243.618 L -28.9065,-243.473 L -29.0439,-243.344 L -29.1963,-243.234 L -29.3613,-243.143 L -29.5365,-243.073
 L -29.7189,-243.027 L -29.9058,-243.003 z
M 29.9058,-243.003 L 29.7189,-243.027 L 29.5365,-243.073 L 29.3613,-243.143 L 29.1963,-243.234 L 29.0439,-243.344
 L 28.9065,-243.473 L 28.7865,-243.618 L 28.6855,-243.777 L 28.6053,-243.948 L 28.5471,-244.127 L 28.5118,-244.312
 L 28.5,-244.5 L 28.5118,-244.688 L 28.5471,-244.873 L 28.6053,-245.052 L 28.6855,-245.223 L 28.7865,-245.382
 L 28.9065,-245.527 L 29.0439,-245.656 L 29.1963,-245.766 L 29.3613,-245.857 L 29.5365,-245.927 L 29.7189,-245.973
 L 29.9058,-245.997 L 30.0942,-245.997 L 30.2811,-245.973 L 30.4635,-245.927 L 30.6387,-245.857 L 30.8037,-245.766
 L 30.9561,-245.656 L 31.0934,-245.527 L 31.2135,-245.382 L 31.3145,-245.223 L 31.3947,-245.052 L 31.4529,-244.873
 L 31.4882,-244.688 L 31.5,-244.5 L 31.4882,-244.312 L 31.4529,-244.127 L 31.3947,-243.948 L 31.3145,-243.777
 L 31.2135,-243.618 L 31.0934,-243.473 L 30.9561,-243.344 L 30.8037,-243.234 L 30.6387,-243.143 L 30.4635,-243.073
 L 30.2811,-243.027 L 30.0942,-243.003 z
M -30.1884,-234.006 L -30.5621,-234.053 L -30.927,-234.147 L -31.2773,-234.286 L -31.6075,-234.467 L -31.9123,-234.688
 L -32.1869,-234.946 L -32.427,-235.237 L -32.6289,-235.555 L -32.7893,-235.896 L -32.9057,-236.254 L -32.9763,-236.624
 L -33,-237 L -32.9763,-237.376 L -32.9057,-237.746 L -32.7893,-238.104 L -32.6289,-238.445 L -32.427,-238.763
 L -32.1869,-239.054 L -31.9123,-239.312 L -31.6075,-239.533 L -31.2773,-239.714 L -30.927,-239.853 L -30.5621,-239.947
 L -30.1884,-239.994 L -29.8116,-239.994 L -29.4379,-239.947 L -29.0729,-239.853 L -28.7227,-239.714 L -28.3925,-239.533
 L -28.0877,-239.312 L -27.8131,-239.054 L -27.5729,-238.763 L -27.3711,-238.445 L -27.2107,-238.104 L -27.0942,-237.746
 L -27.0237,-237.376 L -27,-237 L -27.0237,-236.624 L -27.0942,-236.254 L -27.2107,-235.896 L -27.3711,-235.555
 L -27.5729,-235.237 L -27.8131,-234.946 L -28.0877,-234.688 L -28.3925,-234.467 L -28.7227,-234.286 L -29.0729,-234.147
 L -29.4379,-234.053 L -29.8116,-234.006 z
M 29.8116,-234.006 L 29.4379,-234.053 L 29.0729,-234.147 L 28.7227,-234.286 L 28.3925,-234.467 L 28.0877,-234.688
 L 27.8131,-234.946 L 27.5729,-235.237 L 27.3711,-235.555 L 27.2107,-235.896 L 27.0942,-236.254 L 27.0237,-236.624
 L 27,-237 L 27.0237,-237.376 L 27.0942,-237.746 L 27.2107,-238.104 L 27.3711,-238.445 L 27.5729,-238.763
 L 27.8131,-239.054 L 28.0877,-239.312 L 28.3925,-239.533 L 28.7227,-239.714 L 29.0729,-239.853 L 29.4379,-239.947
 L 29.8116,-239.994 L 30.1884,-239.994 L 30.5621,-239.947 L 30.927,-239.853 L 31.2773,-239.714 L 31.6075,-239.533
 L 31.9123,-239.312 L 32.1869,-239.054 L 32.427,-238.763 L 32.6289,-238.445 L 32.7893,-238.104 L 32.9057,-237.746
 L 32.9763,-237.376 L 33,-237 L 32.9763,-236.624 L 32.9057,-236.254 L 32.7893,-235.896 L 32.6289,-235.555
 L 32.427,-235.237 L 32.1869,-234.946 L 31.9123,-234.688 L 31.6075,-234.467 L 31.2773,-234.286 L 30.927,-234.147
 L 30.5621,-234.053 L 30.1884,-234.006 z
M -30.0942,-228.003 L -30.2811,-228.027 L -30.4635,-228.073 L -30.6387,-228.143 L -30.8037,-228.234 L -30.9561,-228.344
 L -31.0934,-228.473 L -31.2135,-228.618 L -31.3145,-228.777 L -31.3947,-228.948 L -31.4529,-229.127 L -31.4882,-229.312
 L -31.5,-229.5 L -31.4882,-229.688 L -31.4529,-229.873 L -31.3947,-230.052 L -31.3145,-230.223 L -31.2135,-230.382
 L -31.0934,-230.527 L -30.9561,-230.656 L -30.8037,-230.766 L -30.6387,-230.857 L -30.4635,-230.927 L -30.2811,-230.973
 L -30.0942,-230.997 L -29.9058,-230.997 L -29.7189,-230.973 L -29.5365,-230.927 L -29.3613,-230.857 L -29.1963,-230.766
 L -29.0439,-230.656 L -28.9065,-230.527 L -28.7865,-230.382 L -28.6855,-230.223 L -28.6053,-230.052 L -28.5471,-229.873
 L -28.5118,-229.688 L -28.5,-229.5 L -28.5118,-229.312 L -28.5471,-229.127 L -28.6053,-228.948 L -28.6855,-228.777
 L -28.7865,-228.618 L -28.9065,-228.473 L -29.0439,-228.344 L -29.1963,-228.234 L -29.3613,-228.143 L -29.5365,-228.073
 L -29.7189,-228.027 L -29.9058,-228.003 z
M 29.9058,-228.003 L 29.7189,-228.027 L 29.5365,-228.073 L 29.3613,-228.143 L 29.1963,-228.234 L 29.0439,-228.344
 L 28.9065,-228.473 L 28.7865,-228.618 L 28.6855,-228.777 L 28.6053,-228.948 L 28.5471,-229.127 L 28.5118,-229.312
 L 28.5,-229.5 L 28.5118,-229.688 L 28.5471,-229.873 L 28.6053,-230.052 L 28.6855,-230.223 L 28.7865,-230.382
 L 28.9065,-230.527 L 29.0439,-230.656 L 29.1963,-230.766 L 29.3613,-230.857 L 29.5365,-230.927 L 29.7189,-230.973
 L 29.9058,-230.997 L 30.0942,-230.997 L 30.2811,-230.973 L 30.4635,-230.927 L 30.6387,-230.857 L 30.8037,-230.766
 L 30.9561,-230.656 L 31.0934,-230.527 L 31.2135,-230.382 L 31.3145,-230.223 L 31.3947,-230.052 L 31.4529,-229.873
 L 31.4882,-229.688 L 31.5,-229.5 L 31.4882,-229.312 L 31.4529,-229.127 L 31.3947,-228.948 L 31.3145,-228.777
 L 31.2135,-228.618 L 31.0934,-228.473 L 30.9561,-228.344 L 30.8037,-228.234 L 30.6387,-228.143 L 30.4635,-228.073
 L 30.2811,-228.027 L 30.0942,-228.003 z
M -30.1884,-219.006 L -30.5621,-219.053 L -30.927,-219.147 L -31.2773,-219.286 L -31.6075,-219.467 L -31.9123,-219.688
 L -32.1869,-219.946 L -32.427,-220.237 L -32.6289,-220.555 L -32.7893,-220.896 L -32.9057,-221.254 L -32.9763,-221.624
 L -33,-222 L -32.9763,-222.376 L -32.9057,-222.746 L -32.7893,-223.104 L -32.6289,-223.445 L -32.427,-223.763
 L -32.1869,-224.054 L -31.9123,-224.312 L -31.6075,-224.533 L -31.2773,-224.714 L -30.927,-224.853 L -30.5621,-224.947
 L -30.1884,-224.994 L -29.8116,-224.994 L -29.4379,-224.947 L -29.0729,-224.853 L -28.7227,-224.714 L -28.3925,-224.533
 L -28.0877,-224.312 L -27.8131,-224.054 L -27.5729,-223.763 L -27.3711,-223.445 L -27.2107,-223.104 L -27.0942,-222.746
 L -27.0237,-222.376 L -27,-222 L -27.0237,-221.624 L -27.0942,-221.254 L -27.2107,-220.896 L -27.3711,-220.555
 L -27.5729,-220.237 L -27.8131,-219.946 L -28.0877,-219.688 L -28.3925,-219.467 L -28.7227,-219.286 L -29.0729,-219.147
 L -29.4379,-219.053 L -29.8116,-219.006 z
M 14.8116,-219.006 L 14.4379,-219.053 L 14.0729,-219.147 L 13.7227,-219.286 L 13.3925,-219.467 L 13.0877,-219.688
 L 12.8131,-219.946 L 12.5729,-220.237 L 12.3711,-220.555 L 12.2107,-220.896 L 12.0942,-221.254 L 12.0237,-221.624
 L 12,-222 L 12.0237,-222.376 L 12.0942,-222.746 L 12.2107,-223.104 L 12.3711,-223.445 L 12.5729,-223.763
 L 12.8131,-224.054 L 13.0877,-224.312 L 13.3925,-224.533 L 13.7227,-224.714 L 14.0729,-224.853 L 14.4379,-224.947
 L 14.8116,-224.994 L 15.1884,-224.994 L 15.5621,-224.947 L 15.927,-224.853 L 16.2773,-224.714 L 16.6075,-224.533
 L 16.9123,-224.312 L 17.1869,-224.054 L 17.427,-223.763 L 17.6289,-223.445 L 17.7893,-223.104 L 17.9057,-222.746
 L 17.9763,-222.376 L 18,-222 L 17.9763,-221.624 L 17.9057,-221.254 L 17.7893,-220.896 L 17.6289,-220.555
 L 17.427,-220.237 L 17.1869,-219.946 L 16.9123,-219.688 L 16.6075,-219.467 L 16.2773,-219.286 L 15.927,-219.147
 L 15.5621,-219.053 L 15.1884,-219.006 z
M 29.8116,-219.006 L 29.4379,-219.053 L 29.0729,-219.147 L 28.7227,-219.286 L 28.3925,-219.467 L 28.0877,-219.688
 L 27.8131,-219.946 L 27.5729,-220.237 L 27.3711,-220.555 L 27.2107,-220.896 L 27.0942,-221.254 L 27.0237,-221.624
 L 27,-222 L 27.0237,-222.376 L 27.0942,-222.746 L 27.2107,-223.104 L 27.3711,-223.445 L 27.5729,-223.763
 L 27.8131,-224.054 L 28.0877,-224.312 L 28.3925,-224.533 L 28.7227,-224.714 L 29.0729,-224.853 L 29.4379,-224.947
 L 29.8116,-224.994 L 30.1884,-224.994 L 30.5621,-224.947 L 30.927,-224.853 L 31.2773,-224.714 L 31.6075,-224.533
 L 31.9123,-224.312 L 32.1869,-224.054 L 32.427,-223.763 L 32.6289,-223.445 L 32.7893,-223.104 L 32.9057,-222.746
 L 32.9763,-222.376 L 33,-222 L 32.9763,-221.624 L 32.9057,-221.254 L 32.7893,-220.896 L 32.6289,-220.555
 L 32.427,-220.237 L 32.1869,-219.946 L 31.9123,-219.688 L 31.6075,-219.467 L 31.2773,-219.286 L 30.927,-219.147
 L 30.5621,-219.053 L 30.1884,-219.006 z
M -15.1884,-219.006 L -15.5621,-219.053 L -15.927,-219.147 L -16.2773,-219.286 L -16.6075,-219.467 L -16.9123,-219.688
 L -17.1869,-219.946 L -17.427,-220.237 L -17.6289,-220.555 L -17.7893,-220.896 L -17.9057,-221.254 L -17.9763,-221.624
 L -18,-222 L -17.9763,-222.376 L -17.9057,-222.746 L -17.7893,-223.104 L -17.6289,-223.445 L -17.427,-223.763
 L -17.1869,-224.054 L -16.9123,-224.312 L -16.6075,-224.533 L -16.2773,-224.714 L -15.927,-224.853 L -15.5621,-224.947
 L -15.1884,-224.994 L -14.8116,-224.994 L -14.4379,-224.947 L -14.0729,-224.853 L -13.7227,-224.714 L -13.3925,-224.533
 L -13.0877,-224.312 L -12.8131,-224.054 L -12.5729,-223.763 L -12.3711,-223.445 L -12.2107,-223.104 L -12.0942,-222.746
 L -12.0237,-222.376 L -12,-222 L -12.0237,-221.624 L -12.0942,-221.254 L -12.2107,-220.896 L -12.3711,-220.555
 L -12.5729,-220.237 L -12.8131,-219.946 L -13.0877,-219.688 L -13.3925,-219.467 L -13.7227,-219.286 L -14.0729,-219.147
 L -14.4379,-219.053 L -14.8116,-219.006 z
M -0.18837,-219.006 L -0.562134,-219.053 L -0.927048,-219.147 L -1.27733,-219.286 L -1.60747,-219.467 L -1.91226,-219.688
 L -2.1869,-219.946 L -2.42705,-220.237 L -2.62891,-220.555 L -2.78932,-220.896 L -2.90575,-221.254 L -2.97633,-221.624
 L -3,-222 L -2.97633,-222.376 L -2.90575,-222.746 L -2.78932,-223.104 L -2.62891,-223.445 L -2.42705,-223.763
 L -2.1869,-224.054 L -1.91226,-224.312 L -1.60747,-224.533 L -1.27733,-224.714 L -0.927048,-224.853 L -0.562134,-224.947
 L -0.18837,-224.994 L 0.18837,-224.994 L 0.562134,-224.947 L 0.927048,-224.853 L 1.27733,-224.714 L 1.60747,-224.533
 L 1.91226,-224.312 L 2.1869,-224.054 L 2.42705,-223.763 L 2.62891,-223.445 L 2.78932,-223.104 L 2.90575,-222.746
 L 2.97633,-222.376 L 3,-222 L 2.97633,-221.624 L 2.90575,-221.254 L 2.78932,-220.896 L 2.62891,-220.555
 L 2.42705,-220.237 L 2.1869,-219.946 L 1.91226,-219.688 L 1.60747,-219.467 L 1.27733,-219.286 L 0.927048,-219.147
 L 0.562134,-219.053 L 0.18837,-219.006 z
M 7.40581,-220.503 L 7.21892,-220.527 L 7.03647,-220.573 L 6.86133,-220.643 L 6.69626,-220.734 L 6.54385,-220.844
 L 6.40654,-220.973 L 6.28647,-221.118 L 6.18553,-221.277 L 6.10533,-221.448 L 6.04712,-221.627 L 6.01183,-221.812
 L 6,-222 L 6.01183,-222.188 L 6.04712,-222.373 L 6.10533,-222.552 L 6.18553,-222.723 L 6.28647,-222.882
 L 6.40654,-223.027 L 6.54385,-223.156 L 6.69626,-223.266 L 6.86133,-223.357 L 7.03647,-223.427 L 7.21892,-223.473
 L 7.40581,-223.497 L 7.59418,-223.497 L 7.78107,-223.473 L 7.96352,-223.427 L 8.13866,-223.357 L 8.30373,-223.266
 L 8.45613,-223.156 L 8.59344,-223.027 L 8.71352,-222.882 L 8.81445,-222.723 L 8.89465,-222.552 L 8.95287,-222.373
 L 8.98816,-222.188 L 9,-222 L 8.98816,-221.812 L 8.95287,-221.627 L 8.89465,-221.448 L 8.81445,-221.277
 L 8.71352,-221.118 L 8.59344,-220.973 L 8.45613,-220.844 L 8.30373,-220.734 L 8.13866,-220.643 L 7.96352,-220.573
 L 7.78107,-220.527 L 7.59418,-220.503 z
M -22.5942,-220.503 L -22.7811,-220.527 L -22.9635,-220.573 L -23.1387,-220.643 L -23.3037,-220.734 L -23.4561,-220.844
 L -23.5934,-220.973 L -23.7135,-221.118 L -23.8145,-221.277 L -23.8947,-221.448 L -23.9529,-221.627 L -23.9882,-221.812
 L -24,-222 L -23.9882,-222.188 L -23.9529,-222.373 L -23.8947,-222.552 L -23.8145,-222.723 L -23.7135,-222.882
 L -23.5934,-223.027 L -23.4561,-223.156 L -23.3037,-223.266 L -23.1387,-223.357 L -22.9635,-223.427 L -22.7811,-223.473
 L -22.5942,-223.497 L -22.4058,-223.497 L -22.2189,-223.473 L -22.0365,-223.427 L -21.8613,-223.357 L -21.6963,-223.266
 L -21.5439,-223.156 L -21.4065,-223.027 L -21.2865,-222.882 L -21.1855,-222.723 L -21.1053,-222.552 L -21.0471,-222.373
 L -21.0118,-222.188 L -21,-222 L -21.0118,-221.812 L -21.0471,-221.627 L -21.1053,-221.448 L -21.1855,-221.277
 L -21.2865,-221.118 L -21.4065,-220.973 L -21.5439,-220.844 L -21.6963,-220.734 L -21.8613,-220.643 L -22.0365,-220.573
 L -22.2189,-220.527 L -22.4058,-220.503 z
M 22.4058,-220.503 L 22.2189,-220.527 L 22.0365,-220.573 L 21.8613,-220.643 L 21.6963,-220.734 L 21.5439,-220.844
 L 21.4065,-220.973 L 21.2865,-221.118 L 21.1855,-221.277 L 21.1053,-221.448 L 21.0471,-221.627 L 21.0118,-221.812
 L 21,-222 L 21.0118,-222.188 L 21.0471,-222.373 L 21.1053,-222.552 L 21.1855,-222.723 L 21.2865,-222.882
 L 21.4065,-223.027 L 21.5439,-223.156 L 21.6963,-223.266 L 21.8613,-223.357 L 22.0365,-223.427 L 22.2189,-223.473
 L 22.4058,-223.497 L 22.5942,-223.497 L 22.7811,-223.473 L 22.9635,-223.427 L 23.1387,-223.357 L 23.3037,-223.266
 L 23.4561,-223.156 L 23.5934,-223.027 L 23.7135,-222.882 L 23.8145,-222.723 L 23.8947,-222.552 L 23.9529,-222.373
 L 23.9882,-222.188 L 24,-222 L 23.9882,-221.812 L 23.9529,-221.627 L 23.8947,-221.448 L 23.8145,-221.277
 L 23.7135,-221.118 L 23.5934,-220.973 L 23.4561,-220.844 L 23.3037,-220.734 L 23.1387,-220.643 L 22.9635,-220.573
 L 22.7811,-220.527 L 22.5942,-220.503 z
M -7.59418,-220.503 L -7.78107,-220.527 L -7.96352,-220.573 L -8.13866,-220.643 L -8.30373,-220.734 L -8.45613,-220.844
 L -8.59344,-220.973 L -8.71352,-221.118 L -8.81445,-221.277 L -8.89465,-221.448 L -8.95287,-221.627 L -8.98816,-221.812
 L -9,-222 L -8.98816,-222.188 L -8.95287,-222.373 L -8.89465,-222.552 L -8.81445,-222.723 L -8.71352,-222.882
 L -8.59344,-223.027 L -8.45613,-223.156 L -8.30373,-223.266 L -8.13866,-223.357 L -7.96352,-223.427 L -7.78107,-223.473
 L -7.59418,-223.497 L -7.40581,-223.497 L -7.21892,-223.473 L -7.03647,-223.427 L -6.86133,-223.357 L -6.69626,-223.266
 L -6.54385,-223.156 L -6.40654,-223.027 L -6.28647,-222.882 L -6.18553,-222.723 L -6.10533,-222.552 L -6.04712,-222.373
 L -6.01183,-222.188 L -6,-222 L -6.01183,-221.812 L -6.04712,-221.627 L -6.10533,-221.448 L -6.18553,-221.277
 L -6.28647,-221.118 L -6.40654,-220.973 L -6.54385,-220.844 L -6.69626,-220.734 L -6.86133,-220.643 L -7.03647,-220.573
 L -7.21892,-220.527 L -7.40581,-220.503 z
M 32.9369,-131.089 L 33.5451,-131.245 L 34.1289,-131.476 L 34.6791,-131.778 L 35.1871,-132.147 L 35.6448,-132.577
 L 36.0451,-133.061 L 36.3815,-133.591 L 36.6489,-134.159 L 36.8429,-134.757 L 36.9606,-135.373 L 37,-136
 L 37,-200 L 36.9606,-200.627 L 36.8429,-201.243 L 36.6489,-201.841 L 36.3815,-202.409 L 36.0451,-202.939
 L 35.6448,-203.423 L 35.1871,-203.853 L 34.6791,-204.222 L 34.1289,-204.524 L 33.5451,-204.755 L 33.24,-204.834
 L 33,-203.5 L 30.7605,-200.896 L 30.927,-200.853 L 31.2773,-200.714 L 31.6075,-200.533 L 31.9123,-200.312
 L 32.1869,-200.054 L 32.427,-199.763 L 32.6289,-199.445 L 32.7893,-199.104 L 32.9057,-198.746 L 32.9763,-198.376
 L 33,-198 L 32.9763,-197.624 L 32.9057,-197.254 L 32.7893,-196.896 L 32.6289,-196.555 L 32.427,-196.237
 L 32.1869,-195.946 L 31.9123,-195.688 L 31.6075,-195.467 L 31.2773,-195.286 L 30.927,-195.147 L 30.5621,-195.053
 L 30.1884,-195.006 L 29.8116,-195.006 L 29.4379,-195.053 L 29.0729,-195.147 L 28.7227,-195.286 L 28.3925,-195.467
 L 28.0877,-195.688 L 27.8131,-195.946 L 27.5729,-196.237 L 27.3711,-196.555 L 27.2494,-196.813 L 11.5,-178.5
 L 11.5,-143.5 L -11.5,-143.5 L -11.5,-178.5 L -27.2494,-196.813 L -27.3711,-196.555 L -27.5729,-196.237
 L -27.8131,-195.946 L -28.0877,-195.688 L -28.3925,-195.467 L -28.7227,-195.286 L -29.0729,-195.147 L -29.4379,-195.053
 L -29.8116,-195.006 L -30.1884,-195.006 L -30.5621,-195.053 L -30.927,-195.147 L -31.2773,-195.286 L -31.6075,-195.467
 L -31.9123,-195.688 L -32.1869,-195.946 L -32.427,-196.237 L -32.6289,-196.555 L -32.7893,-196.896 L -32.9057,-197.254
 L -32.9763,-197.624 L -33,-198 L -32.9763,-198.376 L -32.9057,-198.746 L -32.7893,-199.104 L -32.6289,-199.445
 L -32.427,-199.763 L -32.1869,-200.054 L -31.9123,-200.312 L -31.6075,-200.533 L -31.2773,-200.714 L -30.927,-200.853
 L -30.7605,-200.896 L -33,-203.5 L -33.24,-204.834 L -33.5451,-204.755 L -34.1289,-204.524 L -34.6791,-204.222
 L -35.1871,-203.853 L -35.6448,-203.423 L -36.0451,-202.939 L -36.3815,-202.409 L -36.6489,-201.841 L -36.8429,-201.243
 L -36.9606,-200.627 L -37,-200 L -37,-136 L -36.9606,-135.373 L -36.8429,-134.757 L -36.6489,-134.159
 L -36.3815,-133.591 L -36.0451,-133.061 L -35.6448,-132.577 L -35.1871,-132.147 L -34.6791,-131.778 L -34.1289,-131.476
 L -33.5451,-131.245 L -32.9369,-131.089 L -32.3139,-131.01 L 32.3139,-131.01 z
M -30.0942,-189.003 L -30.2811,-189.027 L -30.4635,-189.073 L -30.6387,-189.143 L -30.8037,-189.234 L -30.9561,-189.344
 L -31.0934,-189.473 L -31.2135,-189.618 L -31.3145,-189.777 L -31.3947,-189.948 L -31.4529,-190.127 L -31.4882,-190.312
 L -31.5,-190.5 L -31.4882,-190.688 L -31.4529,-190.873 L -31.3947,-191.052 L -31.3145,-191.223 L -31.2135,-191.382
 L -31.0934,-191.527 L -30.9561,-191.656 L -30.8037,-191.766 L -30.6387,-191.857 L -30.4635,-191.927 L -30.2811,-191.973
 L -30.0942,-191.997 L -29.9058,-191.997 L -29.7189,-191.973 L -29.5365,-191.927 L -29.3613,-191.857 L -29.1963,-191.766
 L -29.0439,-191.656 L -28.9065,-191.527 L -28.7865,-191.382 L -28.6855,-191.223 L -28.6053,-191.052 L -28.5471,-190.873
 L -28.5118,-190.688 L -28.5,-190.5 L -28.5118,-190.312 L -28.5471,-190.127 L -28.6053,-189.948 L -28.6855,-189.777
 L -28.7865,-189.618 L -28.9065,-189.473 L -29.0439,-189.344 L -29.1963,-189.234 L -29.3613,-189.143 L -29.5365,-189.073
 L -29.7189,-189.027 L -29.9058,-189.003 z
M 29.9058,-189.003 L 29.7189,-189.027 L 29.5365,-189.073 L 29.3613,-189.143 L 29.1963,-189.234 L 29.0439,-189.344
 L 28.9065,-189.473 L 28.7865,-189.618 L 28.6855,-189.777 L 28.6053,-189.948 L 28.5471,-190.127 L 28.5118,-190.312
 L 28.5,-190.5 L 28.5118,-190.688 L 28.5471,-190.873 L 28.6053,-191.052 L 28.6855,-191.223 L 28.7865,-191.382
 L 28.9065,-191.527 L 29.0439,-191.656 L 29.1963,-191.766 L 29.3613,-191.857 L 29.5365,-191.927 L 29.7189,-191.973
 L 29.9058,-191.997 L 30.0942,-191.997 L 30.2811,-191.973 L 30.4635,-191.927 L 30.6387,-191.857 L 30.8037,-191.766
 L 30.9561,-191.656 L 31.0934,-191.527 L 31.2135,-191.382 L 31.3145,-191.223 L 31.3947,-191.052 L 31.4529,-190.873
 L 31.4882,-190.688 L 31.5,-190.5 L 31.4882,-190.312 L 31.4529,-190.127 L 31.3947,-189.948 L 31.3145,-189.777
 L 31.2135,-189.618 L 31.0934,-189.473 L 30.9561,-189.344 L 30.8037,-189.234 L 30.6387,-189.143 L 30.4635,-189.073
 L 30.2811,-189.027 L 30.0942,-189.003 z
M -30.1884,-180.006 L -30.5621,-180.053 L -30.927,-180.147 L -31.2773,-180.286 L -31.6075,-180.467 L -31.9123,-180.688
 L -32.1869,-180.946 L -32.427,-181.237 L -32.6289,-181.555 L -32.7893,-181.896 L -32.9057,-182.254 L -32.9763,-182.624
 L -33,-183 L -32.9763,-183.376 L -32.9057,-183.746 L -32.7893,-184.104 L -32.6289,-184.445 L -32.427,-184.763
 L -32.1869,-185.054 L -31.9123,-185.312 L -31.6075,-185.533 L -31.2773,-185.714 L -30.927,-185.853 L -30.5621,-185.947
 L -30.1884,-185.994 L -29.8116,-185.994 L -29.4379,-185.947 L -29.0729,-185.853 L -28.7227,-185.714 L -28.3925,-185.533
 L -28.0877,-185.312 L -27.8131,-185.054 L -27.5729,-184.763 L -27.3711,-184.445 L -27.2107,-184.104 L -27.0942,-183.746
 L -27.0237,-183.376 L -27,-183 L -27.0237,-182.624 L -27.0942,-182.254 L -27.2107,-181.896 L -27.3711,-181.555
 L -27.5729,-181.237 L -27.8131,-180.946 L -28.0877,-180.688 L -28.3925,-180.467 L -28.7227,-180.286 L -29.0729,-180.147
 L -29.4379,-180.053 L -29.8116,-180.006 z
M 29.8116,-180.006 L 29.4379,-180.053 L 29.0729,-180.147 L 28.7227,-180.286 L 28.3925,-180.467 L 28.0877,-180.688
 L 27.8131,-180.946 L 27.5729,-181.237 L 27.3711,-181.555 L 27.2107,-181.896 L 27.0942,-182.254 L 27.0237,-182.624
 L 27,-183 L 27.0237,-183.376 L 27.0942,-183.746 L 27.2107,-184.104 L 27.3711,-184.445 L 27.5729,-184.763
 L 27.8131,-185.054 L 28.0877,-185.312 L 28.3925,-185.533 L 28.7227,-185.714 L 29.0729,-185.853 L 29.4379,-185.947
 L 29.8116,-185.994 L 30.1884,-185.994 L 30.5621,-185.947 L 30.927,-185.853 L 31.2773,-185.714 L 31.6075,-185.533
 L 31.9123,-185.312 L 32.1869,-185.054 L 32.427,-184.763 L 32.6289,-184.445 L 32.7893,-184.104 L 32.9057,-183.746
 L 32.9763,-183.376 L 33,-183 L 32.9763,-182.624 L 32.9057,-182.254 L 32.7893,-181.896 L 32.6289,-181.555
 L 32.427,-181.237 L 32.1869,-180.946 L 31.9123,-180.688 L 31.6075,-180.467 L 31.2773,-180.286 L 30.927,-180.147
 L 30.5621,-180.053 L 30.1884,-180.006 z
M -30.0942,-174.003 L -30.2811,-174.027 L -30.4635,-174.073 L -30.6387,-174.143 L -30.8037,-174.234 L -30.9561,-174.344
 L -31.0934,-174.473 L -31.2135,-174.618 L -31.3145,-174.777 L -31.3947,-174.948 L -31.4529,-175.127 L -31.4882,-175.312
 L -31.5,-175.5 L -31.4882,-175.688 L -31.4529,-175.873 L -31.3947,-176.052 L -31.3145,-176.223 L -31.2135,-176.382
 L -31.0934,-176.527 L -30.9561,-176.656 L -30.8037,-176.766 L -30.6387,-176.857 L -30.4635,-176.927 L -30.2811,-176.973
 L -30.0942,-176.997 L -29.9058,-176.997 L -29.7189,-176.973 L -29.5365,-176.927 L -29.3613,-176.857 L -29.1963,-176.766
 L -29.0439,-176.656 L -28.9065,-176.527 L -28.7865,-176.382 L -28.6855,-176.223 L -28.6053,-176.052 L -28.5471,-175.873
 L -28.5118,-175.688 L -28.5,-175.5 L -28.5118,-175.312 L -28.5471,-175.127 L -28.6053,-174.948 L -28.6855,-174.777
 L -28.7865,-174.618 L -28.9065,-174.473 L -29.0439,-174.344 L -29.1963,-174.234 L -29.3613,-174.143 L -29.5365,-174.073
 L -29.7189,-174.027 L -29.9058,-174.003 z
M 29.9058,-174.003 L 29.7189,-174.027 L 29.5365,-174.073 L 29.3613,-174.143 L 29.1963,-174.234 L 29.0439,-174.344
 L 28.9065,-174.473 L 28.7865,-174.618 L 28.6855,-174.777 L 28.6053,-174.948 L 28.5471,-175.127 L 28.5118,-175.312
 L 28.5,-175.5 L 28.5118,-175.688 L 28.5471,-175.873 L 28.6053,-176.052 L 28.6855,-176.223 L 28.7865,-176.382
 L 28.9065,-176.527 L 29.0439,-176.656 L 29.1963,-176.766 L 29.3613,-176.857 L 29.5365,-176.927 L 29.7189,-176.973
 L 29.9058,-176.997 L 30.0942,-176.997 L 30.2811,-176.973 L 30.4635,-176.927 L 30.6387,-176.857 L 30.8037,-176.766
 L 30.9561,-176.656 L 31.0934,-176.527 L 31.2135,-176.382 L 31.3145,-176.223 L 31.3947,-176.052 L 31.4529,-175.873
 L 31.4882,-175.688 L 31.5,-175.5 L 31.4882,-175.312 L 31.4529,-175.127 L 31.3947,-174.948 L 31.3145,-174.777
 L 31.2135,-174.618 L 31.0934,-174.473 L 30.9561,-174.344 L 30.8037,-174.234 L 30.6387,-174.143 L 30.4635,-174.073
 L 30.2811,-174.027 L 30.0942,-174.003 z
M 29.8116,-165.006 L 29.4379,-165.053 L 29.0729,-165.147 L 28.7227,-165.286 L 28.3925,-165.467 L 28.0877,-165.688
 L 27.8131,-165.946 L 27.5729,-166.237 L 27.3711,-166.555 L 27.2107,-166.896 L 27.0942,-167.254 L 27.0237,-167.624
 L 27,-168 L 27.0237,-168.376 L 27.0942,-168.746 L 27.2107,-169.104 L 27.3711,-169.445 L 27.5729,-169.763
 L 27.8131,-170.054 L 28.0877,-170.312 L 28.3925,-170.533 L 28.7227,-170.714 L 29.0729,-170.853 L 29.4379,-170.947
 L 29.8116,-170.994 L 30.1884,-170.994 L 30.5621,-170.947 L 30.927,-170.853 L 31.2773,-170.714 L 31.6075,-170.533
 L 31.9123,-170.312 L 32.1869,-170.054 L 32.427,-169.763 L 32.6289,-169.445 L 32.7893,-169.104 L 32.9057,-168.746
 L 32.9763,-168.376 L 33,-168 L 32.9763,-167.624 L 32.9057,-167.254 L 32.7893,-166.896 L 32.6289,-166.555
 L 32.427,-166.237 L 32.1869,-165.946 L 31.9123,-165.688 L 31.6075,-165.467 L 31.2773,-165.286 L 30.927,-165.147
 L 30.5621,-165.053 L 30.1884,-165.006 z
M -30.1884,-165.006 L -30.5621,-165.053 L -30.927,-165.147 L -31.2773,-165.286 L -31.6075,-165.467 L -31.9123,-165.688
 L -32.1869,-165.946 L -32.427,-166.237 L -32.6289,-166.555 L -32.7893,-166.896 L -32.9057,-167.254 L -32.9763,-167.624
 L -33,-168 L -32.9763,-168.376 L -32.9057,-168.746 L -32.7893,-169.104 L -32.6289,-169.445 L -32.427,-169.763
 L -32.1869,-170.054 L -31.9123,-170.312 L -31.6075,-170.533 L -31.2773,-170.714 L -30.927,-170.853 L -30.5621,-170.947
 L -30.1884,-170.994 L -29.8116,-170.994 L -29.4379,-170.947 L -29.0729,-170.853 L -28.7227,-170.714 L -28.3925,-170.533
 L -28.0877,-170.312 L -27.8131,-170.054 L -27.5729,-169.763 L -27.3711,-169.445 L -27.2107,-169.104 L -27.0942,-168.746
 L -27.0237,-168.376 L -27,-168 L -27.0237,-167.624 L -27.0942,-167.254 L -27.2107,-166.896 L -27.3711,-166.555
 L -27.5729,-166.237 L -27.8131,-165.946 L -28.0877,-165.688 L -28.3925,-165.467 L -28.7227,-165.286 L -29.0729,-165.147
 L -29.4379,-165.053 L -29.8116,-165.006 z
M -30.0942,-159.003 L -30.2811,-159.027 L -30.4635,-159.073 L -30.6387,-159.143 L -30.8037,-159.234 L -30.9561,-159.344
 L -31.0934,-159.473 L -31.2135,-159.618 L -31.3145,-159.777 L -31.3947,-159.948 L -31.4529,-160.127 L -31.4882,-160.312
 L -31.5,-160.5 L -31.4882,-160.688 L -31.4529,-160.873 L -31.3947,-161.052 L -31.3145,-161.223 L -31.2135,-161.382
 L -31.0934,-161.527 L -30.9561,-161.656 L -30.8037,-161.766 L -30.6387,-161.857 L -30.4635,-161.927 L -30.2811,-161.973
 L -30.0942,-161.997 L -29.9058,-161.997 L -29.7189,-161.973 L -29.5365,-161.927 L -29.3613,-161.857 L -29.1963,-161.766
 L -29.0439,-161.656 L -28.9065,-161.527 L -28.7865,-161.382 L -28.6855,-161.223 L -28.6053,-161.052 L -28.5471,-160.873
 L -28.5118,-160.688 L -28.5,-160.5 L -28.5118,-160.312 L -28.5471,-160.127 L -28.6053,-159.948 L -28.6855,-159.777
 L -28.7865,-159.618 L -28.9065,-159.473 L -29.0439,-159.344 L -29.1963,-159.234 L -29.3613,-159.143 L -29.5365,-159.073
 L -29.7189,-159.027 L -29.9058,-159.003 z
M 29.9058,-159.003 L 29.7189,-159.027 L 29.5365,-159.073 L 29.3613,-159.143 L 29.1963,-159.234 L 29.0439,-159.344
 L 28.9065,-159.473 L 28.7865,-159.618 L 28.6855,-159.777 L 28.6053,-159.948 L 28.5471,-160.127 L 28.5118,-160.312
 L 28.5,-160.5 L 28.5118,-160.688 L 28.5471,-160.873 L 28.6053,-161.052 L 28.6855,-161.223 L 28.7865,-161.382
 L 28.9065,-161.527 L 29.0439,-161.656 L 29.1963,-161.766 L 29.3613,-161.857 L 29.5365,-161.927 L 29.7189,-161.973
 L 29.9058,-161.997 L 30.0942,-161.997 L 30.2811,-161.973 L 30.4635,-161.927 L 30.6387,-161.857 L 30.8037,-161.766
 L 30.9561,-161.656 L 31.0934,-161.527 L 31.2135,-161.382 L 31.3145,-161.223 L 31.3947,-161.052 L 31.4529,-160.873
 L 31.4882,-160.688 L 31.5,-160.5 L 31.4882,-160.312 L 31.4529,-160.127 L 31.3947,-159.948 L 31.3145,-159.777
 L 31.2135,-159.618 L 31.0934,-159.473 L 30.9561,-159.344 L 30.8037,-159.234 L 30.6387,-159.143 L 30.4635,-159.073
 L 30.2811,-159.027 L 30.0942,-159.003 z
M -30.1884,-150.006 L -30.5621,-150.053 L -30.927,-150.147 L -31.2773,-150.286 L -31.6075,-150.467 L -31.9123,-150.688
 L -32.1869,-150.946 L -32.427,-151.237 L -32.6289,-151.555 L -32.7893,-151.896 L -32.9057,-152.254 L -32.9763,-152.624
 L -33,-153 L -32.9763,-153.376 L -32.9057,-153.746 L -32.7893,-154.104 L -32.6289,-154.445 L -32.427,-154.763
 L -32.1869,-155.054 L -31.9123,-155.312 L -31.6075,-155.533 L -31.2773,-155.714 L -30.927,-155.853 L -30.5621,-155.947
 L -30.1884,-155.994 L -29.8116,-155.994 L -29.4379,-155.947 L -29.0729,-155.853 L -28.7227,-155.714 L -28.3925,-155.533
 L -28.0877,-155.312 L -27.8131,-155.054 L -27.5729,-154.763 L -27.3711,-154.445 L -27.2107,-154.104 L -27.0942,-153.746
 L -27.0237,-153.376 L -27,-153 L -27.0237,-152.624 L -27.0942,-152.254 L -27.2107,-151.896 L -27.3711,-151.555
 L -27.5729,-151.237 L -27.8131,-150.946 L -28.0877,-150.688 L -28.3925,-150.467 L -28.7227,-150.286 L -29.0729,-150.147
 L -29.4379,-150.053 L -29.8116,-150.006 z
M 29.8116,-150.006 L 29.4379,-150.053 L 29.0729,-150.147 L 28.7227,-150.286 L 28.3925,-150.467 L 28.0877,-150.688
 L 27.8131,-150.946 L 27.5729,-151.237 L 27.3711,-151.555 L 27.2107,-151.896 L 27.0942,-152.254 L 27.0237,-152.624
 L 27,-153 L 27.0237,-153.376 L 27.0942,-153.746 L 27.2107,-154.104 L 27.3711,-154.445 L 27.5729,-154.763
 L 27.8131,-155.054 L 28.0877,-155.312 L 28.3925,-155.533 L 28.7227,-155.714 L 29.0729,-155.853 L 29.4379,-155.947
 L 29.8116,-155.994 L 30.1884,-155.994 L 30.5621,-155.947 L 30.927,-155.853 L 31.2773,-155.714 L 31.6075,-155.533
 L 31.9123,-155.312 L 32.1869,-155.054 L 32.427,-154.763 L 32.6289,-154.445 L 32.7893,-154.104 L 32.9057,-153.746
 L 32.9763,-153.376 L 33,-153 L 32.9763,-152.624 L 32.9057,-152.254 L 32.7893,-151.896 L 32.6289,-151.555
 L 32.427,-151.237 L 32.1869,-150.946 L 31.9123,-150.688 L 31.6075,-150.467 L 31.2773,-150.286 L 30.927,-150.147
 L 30.5621,-150.053 L 30.1884,-150.006 z
M -30.0942,-144.003 L -30.2811,-144.027 L -30.4635,-144.073 L -30.6387,-144.143 L -30.8037,-144.234 L -30.9561,-144.344
 L -31.0934,-144.473 L -31.2135,-144.618 L -31.3145,-144.777 L -31.3947,-144.948 L -31.4529,-145.127 L -31.4882,-145.312
 L -31.5,-145.5 L -31.4882,-145.688 L -31.4529,-145.873 L -31.3947,-146.052 L -31.3145,-146.223 L -31.2135,-146.382
 L -31.0934,-146.527 L -30.9561,-146.656 L -30.8037,-146.766 L -30.6387,-146.857 L -30.4635,-146.927 L -30.2811,-146.973
 L -30.0942,-146.997 L -29.9058,-146.997 L -29.7189,-146.973 L -29.5365,-146.927 L -29.3613,-146.857 L -29.1963,-146.766
 L -29.0439,-146.656 L -28.9065,-146.527 L -28.7865,-146.382 L -28.6855,-146.223 L -28.6053,-146.052 L -28.5471,-145.873
 L -28.5118,-145.688 L -28.5,-145.5 L -28.5118,-145.312 L -28.5471,-145.127 L -28.6053,-144.948 L -28.6855,-144.777
 L -28.7865,-144.618 L -28.9065,-144.473 L -29.0439,-144.344 L -29.1963,-144.234 L -29.3613,-144.143 L -29.5365,-144.073
 L -29.7189,-144.027 L -29.9058,-144.003 z
M 29.9058,-144.003 L 29.7189,-144.027 L 29.5365,-144.073 L 29.3613,-144.143 L 29.1963,-144.234 L 29.0439,-144.344
 L 28.9065,-144.473 L 28.7865,-144.618 L 28.6855,-144.777 L 28.6053,-144.948 L 28.5471,-145.127 L 28.5118,-145.312
 L 28.5,-145.5 L 28.5118,-145.688 L 28.5471,-145.873 L 28.6053,-146.052 L 28.6855,-146.223 L 28.7865,-146.382
 L 28.9065,-146.527 L 29.0439,-146.656 L 29.1963,-146.766 L 29.3613,-146.857 L 29.5365,-146.927 L 29.7189,-146.973
 L 29.9058,-146.997 L 30.0942,-146.997 L 30.2811,-146.973 L 30.4635,-146.927 L 30.6387,-146.857 L 30.8037,-146.766
 L 30.9561,-146.656 L 31.0934,-146.527 L 31.2135,-146.382 L 31.3145,-146.223 L 31.3947,-146.052 L 31.4529,-145.873
 L 31.4882,-145.688 L 31.5,-145.5 L 31.4882,-145.312 L 31.4529,-145.127 L 31.3947,-144.948 L 31.3145,-144.777
 L 31.2135,-144.618 L 31.0934,-144.473 L 30.9561,-144.344 L 30.8037,-144.234 L 30.6387,-144.143 L 30.4635,-144.073
 L 30.2811,-144.027 L 30.0942,-144.003 z
M -30.1884,-135.006 L -30.5621,-135.053 L -30.927,-135.147 L -31.2773,-135.286 L -31.6075,-135.467 L -31.9123,-135.688
 L -32.1869,-135.946 L -32.427,-136.237 L -32.6289,-136.555 L -32.7893,-136.896 L -32.9057,-137.254 L -32.9763,-137.624
 L -33,-138 L -32.9763,-138.376 L -32.9057,-138.746 L -32.7893,-139.104 L -32.6289,-139.445 L -32.427,-139.763
 L -32.1869,-140.054 L -31.9123,-140.312 L -31.6075,-140.533 L -31.2773,-140.714 L -30.927,-140.853 L -30.5621,-140.947
 L -30.1884,-140.994 L -29.8116,-140.994 L -29.4379,-140.947 L -29.0729,-140.853 L -28.7227,-140.714 L -28.3925,-140.533
 L -28.0877,-140.312 L -27.8131,-140.054 L -27.5729,-139.763 L -27.3711,-139.445 L -27.2107,-139.104 L -27.0942,-138.746
 L -27.0237,-138.376 L -27,-138 L -27.0237,-137.624 L -27.0942,-137.254 L -27.2107,-136.896 L -27.3711,-136.555
 L -27.5729,-136.237 L -27.8131,-135.946 L -28.0877,-135.688 L -28.3925,-135.467 L -28.7227,-135.286 L -29.0729,-135.147
 L -29.4379,-135.053 L -29.8116,-135.006 z
M 14.8116,-135.006 L 14.4379,-135.053 L 14.0729,-135.147 L 13.7227,-135.286 L 13.3925,-135.467 L 13.0877,-135.688
 L 12.8131,-135.946 L 12.5729,-136.237 L 12.3711,-136.555 L 12.2107,-136.896 L 12.0942,-137.254 L 12.0237,-137.624
 L 12,-138 L 12.0237,-138.376 L 12.0942,-138.746 L 12.2107,-139.104 L 12.3711,-139.445 L 12.5729,-139.763
 L 12.8131,-140.054 L 13.0877,-140.312 L 13.3925,-140.533 L 13.7227,-140.714 L 14.0729,-140.853 L 14.4379,-140.947
 L 14.8116,-140.994 L 15.1884,-140.994 L 15.5621,-140.947 L 15.927,-140.853 L 16.2773,-140.714 L 16.6075,-140.533
 L 16.9123,-140.312 L 17.1869,-140.054 L 17.427,-139.763 L 17.6289,-139.445 L 17.7893,-139.104 L 17.9057,-138.746
 L 17.9763,-138.376 L 18,-138 L 17.9763,-137.624 L 17.9057,-137.254 L 17.7893,-136.896 L 17.6289,-136.555
 L 17.427,-136.237 L 17.1869,-135.946 L 16.9123,-135.688 L 16.6075,-135.467 L 16.2773,-135.286 L 15.927,-135.147
 L 15.5621,-135.053 L 15.1884,-135.006 z
M 29.8116,-135.006 L 29.4379,-135.053 L 29.0729,-135.147 L 28.7227,-135.286 L 28.3925,-135.467 L 28.0877,-135.688
 L 27.8131,-135.946 L 27.5729,-136.237 L 27.3711,-136.555 L 27.2107,-136.896 L 27.0942,-137.254 L 27.0237,-137.624
 L 27,-138 L 27.0237,-138.376 L 27.0942,-138.746 L 27.2107,-139.104 L 27.3711,-139.445 L 27.5729,-139.763
 L 27.8131,-140.054 L 28.0877,-140.312 L 28.3925,-140.533 L 28.7227,-140.714 L 29.0729,-140.853 L 29.4379,-140.947
 L 29.8116,-140.994 L 30.1884,-140.994 L 30.5621,-140.947 L 30.927,-140.853 L 31.2773,-140.714 L 31.6075,-140.533
 L 31.9123,-140.312 L 32.1869,-140.054 L 32.427,-139.763 L 32.6289,-139.445 L 32.7893,-139.104 L 32.9057,-138.746
 L 32.9763,-138.376 L 33,-138 L 32.9763,-137.624 L 32.9057,-137.254 L 32.7893,-136.896 L 32.6289,-136.555
 L 32.427,-136.237 L 32.1869,-135.946 L 31.9123,-135.688 L 31.6075,-135.467 L 31.2773,-135.286 L 30.927,-135.147
 L 30.5621,-135.053 L 30.1884,-135.006 z
M -15.1884,-135.006 L -15.5621,-135.053 L -15.927,-135.147 L -16.2773,-135.286 L -16.6075,-135.467 L -16.9123,-135.688
 L -17.1869,-135.946 L -17.427,-136.237 L -17.6289,-136.555 L -17.7893,-136.896 L -17.9057,-137.254 L -17.9763,-137.624
 L -18,-138 L -17.9763,-138.376 L -17.9057,-138.746 L -17.7893,-139.104 L -17.6289,-139.445 L -17.427,-139.763
 L -17.1869,-140.054 L -16.9123,-140.312 L -16.6075,-140.533 L -16.2773,-140.714 L -15.927,-140.853 L -15.5621,-140.947
 L -15.1884,-140.994 L -14.8116,-140.994 L -14.4379,-140.947 L -14.0729,-140.853 L -13.7227,-140.714 L -13.3925,-140.533
 L -13.0877,-140.312 L -12.8131,-140.054 L -12.5729,-139.763 L -12.3711,-139.445 L -12.2107,-139.104 L -12.0942,-138.746
 L -12.0237,-138.376 L -12,-138 L -12.0237,-137.624 L -12.0942,-137.254 L -12.2107,-136.896 L -12.3711,-136.555
 L -12.5729,-136.237 L -12.8131,-135.946 L -13.0877,-135.688 L -13.3925,-135.467 L -13.7227,-135.286 L -14.0729,-135.147
 L -14.4379,-135.053 L -14.8116,-135.006 z
M -0.18837,-135.006 L -0.562134,-135.053 L -0.927048,-135.147 L -1.27733,-135.286 L -1.60747,-135.467 L -1.91226,-135.688
 L -2.1869,-135.946 L -2.42705,-136.237 L -2.62891,-136.555 L -2.78932,-136.896 L -2.90575,-137.254 L -2.97633,-137.624
 L -3,-138 L -2.97633,-138.376 L -2.90575,-138.746 L -2.78932,-139.104 L -2.62891,-139.445 L -2.42705,-139.763
 L -2.1869,-140.054 L -1.91226,-140.312 L -1.60747,-140.533 L -1.27733,-140.714 L -0.927048,-140.853 L -0.562134,-140.947
 L -0.18837,-140.994 L 0.18837,-140.994 L 0.562134,-140.947 L 0.927048,-140.853 L 1.27733,-140.714 L 1.60747,-140.533
 L 1.91226,-140.312 L 2.1869,-140.054 L 2.42705,-139.763 L 2.62891,-139.445 L 2.78932,-139.104 L 2.90575,-138.746
 L 2.97633,-138.376 L 3,-138 L 2.97633,-137.624 L 2.90575,-137.254 L 2.78932,-136.896 L 2.62891,-136.555
 L 2.42705,-136.237 L 2.1869,-135.946 L 1.91226,-135.688 L 1.60747,-135.467 L 1.27733,-135.286 L 0.927048,-135.147
 L 0.562134,-135.053 L 0.18837,-135.006 z
M 7.40581,-136.503 L 7.21892,-136.527 L 7.03647,-136.573 L 6.86133,-136.643 L 6.69626,-136.734 L 6.54385,-136.844
 L 6.40654,-136.973 L 6.28647,-137.118 L 6.18553,-137.277 L 6.10533,-137.448 L 6.04712,-137.627 L 6.01183,-137.812
 L 6,-138 L 6.01183,-138.188 L 6.04712,-138.373 L 6.10533,-138.552 L 6.18553,-138.723 L 6.28647,-138.882
 L 6.40654,-139.027 L 6.54385,-139.156 L 6.69626,-139.266 L 6.86133,-139.357 L 7.03647,-139.427 L 7.21892,-139.473
 L 7.40581,-139.497 L 7.59418,-139.497 L 7.78107,-139.473 L 7.96352,-139.427 L 8.13866,-139.357 L 8.30373,-139.266
 L 8.45613,-139.156 L 8.59344,-139.027 L 8.71352,-138.882 L 8.81445,-138.723 L 8.89465,-138.552 L 8.95287,-138.373
 L 8.98816,-138.188 L 9,-138 L 8.98816,-137.812 L 8.95287,-137.627 L 8.89465,-137.448 L 8.81445,-137.277
 L 8.71352,-137.118 L 8.59344,-136.973 L 8.45613,-136.844 L 8.30373,-136.734 L 8.13866,-136.643 L 7.96352,-136.573
 L 7.78107,-136.527 L 7.59418,-136.503 z
M -22.5942,-136.503 L -22.7811,-136.527 L -22.9635,-136.573 L -23.1387,-136.643 L -23.3037,-136.734 L -23.4561,-136.844
 L -23.5934,-136.973 L -23.7135,-137.118 L -23.8145,-137.277 L -23.8947,-137.448 L -23.9529,-137.627 L -23.9882,-137.812
 L -24,-138 L -23.9882,-138.188 L -23.9529,-138.373 L -23.8947,-138.552 L -23.8145,-138.723 L -23.7135,-138.882
 L -23.5934,-139.027 L -23.4561,-139.156 L -23.3037,-139.266 L -23.1387,-139.357 L -22.9635,-139.427 L -22.7811,-139.473
 L -22.5942,-139.497 L -22.4058,-139.497 L -22.2189,-139.473 L -22.0365,-139.427 L -21.8613,-139.357 L -21.6963,-139.266
 L -21.5439,-139.156 L -21.4065,-139.027 L -21.2865,-138.882 L -21.1855,-138.723 L -21.1053,-138.552 L -21.0471,-138.373
 L -21.0118,-138.188 L -21,-138 L -21.0118,-137.812 L -21.0471,-137.627 L -21.1053,-137.448 L -21.1855,-137.277
 L -21.2865,-137.118 L -21.4065,-136.973 L -21.5439,-136.844 L -21.6963,-136.734 L -21.8613,-136.643 L -22.0365,-136.573
 L -22.2189,-136.527 L -22.4058,-136.503 z
M 22.4058,-136.503 L 22.2189,-136.527 L 22.0365,-136.573 L 21.8613,-136.643 L 21.6963,-136.734 L 21.5439,-136.844
 L 21.4065,-136.973 L 21.2865,-137.118 L 21.1855,-137.277 L 21.1053,-137.448 L 21.0471,-137.627 L 21.0118,-137.812
 L 21,-138 L 21.0118,-138.188 L 21.0471,-138.373 L 21.1053,-138.552 L 21.1855,-138.723 L 21.2865,-138.882
 L 21.4065,-139.027 L 21.5439,-139.156 L 21.6963,-139.266 L 21.8613,-139.357 L 22.0365,-139.427 L 22.2189,-139.473
 L 22.4058,-139.497 L 22.5942,-139.497 L 22.7811,-139.473 L 22.9635,-139.427 L 23.1387,-139.357 L 23.3037,-139.266
 L 23.4561,-139.156 L 23.5934,-139.027 L 23.7135,-138.882 L 23.8145,-138.723 L 23.8947,-138.552 L 23.9529,-138.373
 L 23.9882,-138.188 L 24,-138 L 23.9882,-137.812 L 23.9529,-137.627 L 23.8947,-137.448 L 23.8145,-137.277
 L 23.7135,-137.118 L 23.5934,-136.973 L 23.4561,-136.844 L 23.3037,-136.734 L 23.1387,-136.643 L 22.9635,-136.573
 L 22.7811,-136.527 L 22.5942,-136.503 z
M -7.59418,-136.503 L -7.78107,-136.527 L -7.96352,-136.573 L -8.13866,-136.643 L -8.30373,-136.734 L -8.45613,-136.844
 L -8.59344,-136.973 L -8.71352,-137.118 L -8.81445,-137.277 L -8.89465,-137.448 L -8.95287,-137.627 L -8.98816,-137.812
 L -9,-138 L -8.98816,-138.188 L -8.95287,-138.373 L -8.89465,-138.552 L -8.81445,-138.723 L -8.71352,-138.882
 L -8.59344,-139.027 L -8.45613,-139.156 L -8.30373,-139.266 L -8.13866,-139.357 L -7.96352,-139.427 L -7.78107,-139.473
 L -7.59418,-139.497 L -7.40581,-139.497 L -7.21892,-139.473 L -7.03647,-139.427 L -6.86133,-139.357 L -6.69626,-139.266
 L -6.54385,-139.156 L -6.40654,-139.027 L -6.28647,-138.882 L -6.18553,-138.723 L -6.10533,-138.552 L -6.04712,-138.373
 L -6.01183,-138.188 L -6,-138 L -6.01183,-137.812 L -6.04712,-137.627 L -6.10533,-137.448 L -6.18553,-137.277
 L -6.28647,-137.118 L -6.40654,-136.973 L -6.54385,-136.844 L -6.69626,-136.734 L -6.86133,-136.643 L -7.03647,-136.573
 L -7.21892,-136.527 L -7.40581,-136.503 z
" stroke="black" fill="lightgray" stroke-width="0.5"/>
</svg>
