<?xml version="1.0" standalone="no"?>
<!DOCTYPE svg PUBLIC "-//W3C//DTD SVG 1.1//EN" "http://www.w3.org/Graphics/SVG/1.1/DTD/svg11.dtd">
<svg width="38mm" height="249mm" viewBox="-19 -318 38 249" xmlns="http://www.w3.org/2000/svg" version="1.1">
<title>OpenSCAD Model</title>
<path d="
M 14.6869,-198.089 L 15.2951,-198.245 L 15.8789,-198.476 L 16.4291,-198.778 L 16.9371,-199.147 L 17.3948,-199.577
 L 17.7951,-200.061 L 18.1315,-200.591 L 18.3989,-201.159 L 18.5929,-201.757 L 18.7106,-202.373 L 18.75,-203
 L 18.75,-313 L 18.7106,-313.627 L 18.5929,-314.243 L 18.3989,-314.841 L 18.1315,-315.409 L 17.7951,-315.939
 L 17.3948,-316.423 L 16.9371,-316.853 L 16.4291,-317.222 L 15.8789,-317.524 L 15.2951,-317.755 L 14.6869,-317.911
 L 14.0639,-317.99 L -14.0639,-317.99 L -14.6869,-317.911 L -15.2951,-317.755 L -15.8789,-317.524 L -16.4291,-317.222
 L -16.9371,-316.853 L -17.3948,-316.423 L -17.7951,-315.939 L -18.1315,-315.409 L -18.3989,-314.841 L -18.5929,-314.243
 L -18.7106,-313.627 L -18.75,-313 L -18.75,-203 L -18.7106,-202.373 L -18.5929,-201.757 L -18.3989,-201.159
 L -18.1315,-200.591 L -17.7951,-200.061 L -17.3948,-199.577 L -16.9371,-199.147 L -16.4291,-198.778 L -15.8789,-198.476
 L -15.2951,-198.245 L -14.6869,-198.089 L -14.0639,-198.01 L 14.0639,-198.01 z
M -13.743,-199.388 L -14.2251,-199.449 L -14.6957,-199.57 L -15.1475,-199.749 L -15.5734,-199.983 L -15.9665,-200.269
 L -16.3207,-200.601 L -16.6305,-200.976 L -16.8908,-201.386 L -17.0977,-201.826 L -17.2479,-202.288 L -17.339,-202.765
 L -17.3695,-203.25 L -17.3695,-312.75 L -17.339,-313.235 L -17.2479,-313.712 L -17.0977,-314.174 L -16.8908,-314.614
 L -16.6305,-315.024 L -16.3207,-315.399 L -15.9665,-315.731 L -15.5734,-316.017 L -15.1475,-316.251 L -14.6957,-316.43
 L -14.2251,-316.551 L -13.743,-316.612 L 13.743,-316.612 L 14.2251,-316.551 L 14.6957,-316.43 L 15.1475,-316.251
 L 15.5734,-316.017 L 15.9665,-315.731 L 16.3207,-315.399 L 16.6305,-315.024 L 16.8908,-314.614 L 17.0977,-314.174
 L 17.2479,-313.712 L 17.339,-313.235 L 17.3695,-312.75 L 17.3695,-203.25 L 17.339,-202.765 L 17.2479,-202.288
 L 17.0977,-201.826 L 16.8908,-201.386 L 16.6305,-200.976 L 16.3207,-200.601 L 15.9665,-200.269 L 15.5734,-199.983
 L 15.1475,-199.749 L 14.6957,-199.57 L 14.2251,-199.449 L 13.743,-199.388 z
M 14.6869,-69.0886 L 15.2951,-69.2447 L 15.8789,-69.4759 L 16.4291,-69.7784 L 16.9371,-70.1474 L 17.3948,-70.5773
 L 17.7951,-71.0611 L 18.1315,-71.5912 L 18.3989,-72.1594 L 18.5929,-72.7566 L 18.7106,-73.3733 L 18.75,-74
 L 18.75,-184 L 18.7106,-184.627 L 18.5929,-185.243 L 18.3989,-185.841 L 18.1315,-186.409 L 17.7951,-186.939
 L 17.3948,-187.423 L 16.9371,-187.853 L 16.4291,-188.222 L 15.8789,-188.524 L 15.2951,-188.755 L 14.6869,-188.911
 L 14.0639,-188.99 L -14.0639,-188.99 L -14.6869,-188.911 L -15.2951,-188.755 L -15.8789,-188.524 L -16.4291,-188.222
 L -16.9371,-187.853 L -17.3948,-187.423 L -17.7951,-186.939 L -18.1315,-186.409 L -18.3989,-185.841 L -18.5929,-185.243
 L -18.7106,-184.627 L -18.75,-184 L -18.75,-74 L -18.7106,-73.3733 L -18.5929,-72.7566 L -18.3989,-72.1594
 L -18.1315,-71.5912 L -17.7951,-71.0611 L -17.3948,-70.5773 L -16.9371,-70.1474 L -16.4291,-69.7784 L -15.8789,-69.4759
 L -15.2951,-69.2447 L -14.6869,-69.0886 L -14.0639,-69.0099 L 14.0639,-69.0099 z
M 11.137,-179.704 L 10.9127,-179.732 L 10.6938,-179.788 L 10.4836,-179.871 L 10.2855,-179.98 L 10.1026,-180.113
 L 9.93785,-180.268 L 9.79376,-180.442 L 9.67264,-180.633 L 9.5764,-180.837 L 9.50655,-181.052 L 9.46419,-181.274
 L 9.45,-181.5 L 9.46419,-181.726 L 9.50655,-181.948 L 9.5764,-182.163 L 9.67264,-182.367 L 9.79376,-182.558
 L 9.93785,-182.732 L 10.1026,-182.887 L 10.2855,-183.02 L 10.4836,-183.129 L 10.6938,-183.212 L 10.9127,-183.268
 L 11.137,-183.296 L 11.363,-183.296 L 11.5873,-183.268 L 11.8062,-183.212 L 12.0164,-183.129 L 12.2145,-183.02
 L 12.3974,-182.887 L 12.5621,-182.732 L 12.7062,-182.558 L 12.8273,-182.367 L 12.9236,-182.163 L 12.9934,-181.948
 L 13.0358,-181.726 L 13.05,-181.5 L 13.0358,-181.274 L 12.9934,-181.052 L 12.9236,-180.837 L 12.8273,-180.633
 L 12.7062,-180.442 L 12.5621,-180.268 L 12.3974,-180.113 L 12.2145,-179.98 L 12.0164,-179.871 L 11.8062,-179.788
 L 11.5873,-179.732 L 11.363,-179.704 z
M -11.363,-179.704 L -11.5873,-179.732 L -11.8062,-179.788 L -12.0164,-179.871 L -12.2145,-179.98 L -12.3974,-180.113
 L -12.5621,-180.268 L -12.7062,-180.442 L -12.8273,-180.633 L -12.9236,-180.837 L -12.9934,-181.052 L -13.0358,-181.274
 L -13.05,-181.5 L -13.0358,-181.726 L -12.9934,-181.948 L -12.9236,-182.163 L -12.8273,-182.367 L -12.7062,-182.558
 L -12.5621,-182.732 L -12.3974,-182.887 L -12.2145,-183.02 L -12.0164,-183.129 L -11.8062,-183.212 L -11.5873,-183.268
 L -11.363,-183.296 L -11.137,-183.296 L -10.9127,-183.268 L -10.6938,-183.212 L -10.4836,-183.129 L -10.2855,-183.02
 L -10.1026,-182.887 L -9.93785,-182.732 L -9.79376,-182.558 L -9.67264,-182.367 L -9.5764,-182.163 L -9.50655,-181.948
 L -9.46419,-181.726 L -9.45,-181.5 L -9.46419,-181.274 L -9.50655,-181.052 L -9.5764,-180.837 L -9.67264,-180.633
 L -9.79376,-180.442 L -9.93785,-180.268 L -10.1026,-180.113 L -10.2855,-179.98 L -10.4836,-179.871 L -10.6938,-179.788
 L -10.9127,-179.732 L -11.137,-179.704 z
M -11.363,-74.7036 L -11.5873,-74.7319 L -11.8062,-74.7881 L -12.0164,-74.8713 L -12.2145,-74.9802 L -12.3974,-75.1131
 L -12.5621,-75.2678 L -12.7062,-75.442 L -12.8273,-75.6328 L -12.9236,-75.8374 L -12.9934,-76.0524 L -13.0358,-76.2744
 L -13.05,-76.5 L -13.0358,-76.7256 L -12.9934,-76.9476 L -12.9236,-77.1626 L -12.8273,-77.3672 L -12.7062,-77.558
 L -12.5621,-77.7322 L -12.3974,-77.8869 L -12.2145,-78.0198 L -12.0164,-78.1287 L -11.8062,-78.2119 L -11.5873,-78.2681
 L -11.363,-78.2964 L -11.137,-78.2964 L -10.9127,-78.2681 L -10.6938,-78.2119 L -10.4836,-78.1287 L -10.2855,-78.0198
 L -10.1026,-77.8869 L -9.93785,-77.7322 L -9.79376,-77.558 L -9.67264,-77.3672 L -9.5764,-77.1626 L -9.50655,-76.9476
 L -9.46419,-76.7256 L -9.45,-76.5 L -9.46419,-76.2744 L -9.50655,-76.0524 L -9.5764,-75.8374 L -9.67264,-75.6328
 L -9.79376,-75.442 L -9.93785,-75.2678 L -10.1026,-75.1131 L -10.2855,-74.9802 L -10.4836,-74.8713 L -10.6938,-74.7881
 L -10.9127,-74.7319 L -11.137,-74.7036 z
M 11.137,-74.7036 L 10.9127,-74.7319 L 10.6938,-74.7881 L 10.4836,-74.8713 L 10.2855,-74.9802 L 10.1026,-75.1131
 L 9.93785,-75.2678 L 9.79376,-75.442 L 9.67264,-75.6328 L 9.5764,-75.8374 L 9.50655,-76.0524 L 9.46419,-76.2744
 L 9.45,-76.5 L 9.46419,-76.7256 L 9.50655,-76.9476 L 9.5764,-77.1626 L 9.67264,-77.3672 L 9.79376,-77.558
 L 9.93785,-77.7322 L 10.1026,-77.8869 L 10.2855,-78.0198 L 10.4836,-78.1287 L 10.6938,-78.2119 L 10.9127,-78.2681
 L 11.137,-78.2964 L 11.363,-78.2964 L 11.5873,-78.2681 L 11.8062,-78.2119 L 12.0164,-78.1287 L 12.2145,-78.0198
 L 12.3974,-77.8869 L 12.5621,-77.7322 L 12.7062,-77.558 L 12.8273,-77.3672 L 12.9236,-77.1626 L 12.9934,-76.9476
 L 13.0358,-76.7256 L 13.05,-76.5 L 13.0358,-76.2744 L 12.9934,-76.0524 L 12.9236,-75.8374 L 12.8273,-75.6328
 L 12.7062,-75.442 L 12.5621,-75.2678 L 12.3974,-75.1131 L 12.2145,-74.9802 L 12.0164,-74.8713 L 11.8062,-74.7881
 L 11.5873,-74.7319 L 11.363,-74.7036 z
" stroke="black" fill="lightgray" stroke-width="0.5"/>
</svg>
