  0
SECTION
  2
BLOCKS
  0
ENDSEC
  0
SECTION
  2
ENTITIES
  0
LINE
  8
0
 10
93.4369
 20
1135.59
 11
94.0451
 21
1135.74
  0
LINE
  8
0
 10
94.0451
 20
1135.74
 11
94.6289
 21
1135.98
  0
LINE
  8
0
 10
94.6289
 20
1135.98
 11
95.1791
 21
1136.28
  0
LINE
  8
0
 10
95.1791
 20
1136.28
 11
95.6871
 21
1136.65
  0
LINE
  8
0
 10
95.6871
 20
1136.65
 11
96.1448
 21
1137.08
  0
LINE
  8
0
 10
96.1448
 20
1137.08
 11
96.5451
 21
1137.56
  0
LINE
  8
0
 10
96.5451
 20
1137.56
 11
96.8815
 21
1138.09
  0
LINE
  8
0
 10
96.8815
 20
1138.09
 11
97.1489
 21
1138.66
  0
LINE
  8
0
 10
97.1489
 20
1138.66
 11
97.3429
 21
1139.26
  0
LINE
  8
0
 10
97.3429
 20
1139.26
 11
97.4606
 21
1139.87
  0
LINE
  8
0
 10
97.4606
 20
1139.87
 11
97.5
 21
1140.5
  0
LINE
  8
0
 10
97.5
 20
1140.5
 11
97.5
 21
1295.5
  0
LINE
  8
0
 10
97.5
 20
1295.5
 11
97.4606
 21
1296.13
  0
LINE
  8
0
 10
97.4606
 20
1296.13
 11
97.3429
 21
1296.74
  0
LINE
  8
0
 10
97.3429
 20
1296.74
 11
97.1489
 21
1297.34
  0
LINE
  8
0
 10
97.1489
 20
1297.34
 11
96.8815
 21
1297.91
  0
LINE
  8
0
 10
96.8815
 20
1297.91
 11
96.5451
 21
1298.44
  0
LINE
  8
0
 10
96.5451
 20
1298.44
 11
96.1448
 21
1298.92
  0
LINE
  8
0
 10
96.1448
 20
1298.92
 11
95.6871
 21
1299.35
  0
LINE
  8
0
 10
95.6871
 20
1299.35
 11
95.1791
 21
1299.72
  0
LINE
  8
0
 10
95.1791
 20
1299.72
 11
94.6289
 21
1300.02
  0
LINE
  8
0
 10
94.6289
 20
1300.02
 11
94.0451
 21
1300.26
  0
LINE
  8
0
 10
94.0451
 20
1300.26
 11
93.4369
 21
1300.41
  0
LINE
  8
0
 10
93.4369
 20
1300.41
 11
92.8139
 21
1300.49
  0
LINE
  8
0
 10
92.8139
 20
1300.49
 11
-92.8139
 21
1300.49
  0
LINE
  8
0
 10
-92.8139
 20
1300.49
 11
-93.4369
 21
1300.41
  0
LINE
  8
0
 10
-93.4369
 20
1300.41
 11
-94.0451
 21
1300.26
  0
LINE
  8
0
 10
-94.0451
 20
1300.26
 11
-94.6289
 21
1300.02
  0
LINE
  8
0
 10
-94.6289
 20
1300.02
 11
-95.1791
 21
1299.72
  0
LINE
  8
0
 10
-95.1791
 20
1299.72
 11
-95.6871
 21
1299.35
  0
LINE
  8
0
 10
-95.6871
 20
1299.35
 11
-95.9
 21
1299.15
  0
LINE
  8
0
 10
-95.9
 20
1299.15
 11
-97.5
 21
1299.15
  0
LINE
  8
0
 10
-97.5
 20
1299.15
 11
-97.5
 21
1136.85
  0
LINE
  8
0
 10
-97.5
 20
1136.85
 11
-95.9
 21
1136.85
  0
LINE
  8
0
 10
-95.9
 20
1136.85
 11
-95.6871
 21
1136.65
  0
LINE
  8
0
 10
-95.6871
 20
1136.65
 11
-95.1791
 21
1136.28
  0
LINE
  8
0
 10
-95.1791
 20
1136.28
 11
-94.6289
 21
1135.98
  0
LINE
  8
0
 10
-94.6289
 20
1135.98
 11
-94.0451
 21
1135.74
  0
LINE
  8
0
 10
-94.0451
 20
1135.74
 11
-93.4369
 21
1135.59
  0
LINE
  8
0
 10
-93.4369
 20
1135.59
 11
-92.8139
 21
1135.51
  0
LINE
  8
0
 10
-92.8139
 20
1135.51
 11
92.8139
 21
1135.51
  0
LINE
  8
0
 10
92.8139
 20
1135.51
 11
93.4369
 21
1135.59
  0
LINE
  8
0
 10
-92.2512
 20
1137.01
 11
-92.7495
 21
1137.07
  0
LINE
  8
0
 10
-92.7495
 20
1137.07
 11
-93.2361
 21
1137.2
  0
LINE
  8
0
 10
-93.2361
 20
1137.2
 11
-93.7031
 21
1137.38
  0
LINE
  8
0
 10
-93.7031
 20
1137.38
 11
-94.1433
 21
1137.62
  0
LINE
  8
0
 10
-94.1433
 20
1137.62
 11
-94.5497
 21
1137.92
  0
LINE
  8
0
 10
-94.5497
 20
1137.92
 11
-94.9159
 21
1138.26
  0
LINE
  8
0
 10
-94.9159
 20
1138.26
 11
-95.2361
 21
1138.65
  0
LINE
  8
0
 10
-95.2361
 20
1138.65
 11
-95.5052
 21
1139.07
  0
LINE
  8
0
 10
-95.5052
 20
1139.07
 11
-95.7191
 21
1139.53
  0
LINE
  8
0
 10
-95.7191
 20
1139.53
 11
-95.8743
 21
1140.01
  0
LINE
  8
0
 10
-95.8743
 20
1140.01
 11
-95.9685
 21
1140.5
  0
LINE
  8
0
 10
-95.9685
 20
1140.5
 11
-96
 21
1141
  0
LINE
  8
0
 10
-96
 20
1141
 11
-96
 21
1295
  0
LINE
  8
0
 10
-96
 20
1295
 11
-95.9685
 21
1295.5
  0
LINE
  8
0
 10
-95.9685
 20
1295.5
 11
-95.8743
 21
1295.99
  0
LINE
  8
0
 10
-95.8743
 20
1295.99
 11
-95.7191
 21
1296.47
  0
LINE
  8
0
 10
-95.7191
 20
1296.47
 11
-95.5052
 21
1296.93
  0
LINE
  8
0
 10
-95.5052
 20
1296.93
 11
-95.2361
 21
1297.35
  0
LINE
  8
0
 10
-95.2361
 20
1297.35
 11
-94.9159
 21
1297.74
  0
LINE
  8
0
 10
-94.9159
 20
1297.74
 11
-94.5497
 21
1298.08
  0
LINE
  8
0
 10
-94.5497
 20
1298.08
 11
-94.1433
 21
1298.38
  0
LINE
  8
0
 10
-94.1433
 20
1298.38
 11
-93.7031
 21
1298.62
  0
LINE
  8
0
 10
-93.7031
 20
1298.62
 11
-93.2361
 21
1298.8
  0
LINE
  8
0
 10
-93.2361
 20
1298.8
 11
-92.7495
 21
1298.93
  0
LINE
  8
0
 10
-92.7495
 20
1298.93
 11
-92.2512
 21
1298.99
  0
LINE
  8
0
 10
-92.2512
 20
1298.99
 11
92.2512
 21
1298.99
  0
LINE
  8
0
 10
92.2512
 20
1298.99
 11
92.7495
 21
1298.93
  0
LINE
  8
0
 10
92.7495
 20
1298.93
 11
93.2361
 21
1298.8
  0
LINE
  8
0
 10
93.2361
 20
1298.8
 11
93.7031
 21
1298.62
  0
LINE
  8
0
 10
93.7031
 20
1298.62
 11
94.1433
 21
1298.38
  0
LINE
  8
0
 10
94.1433
 20
1298.38
 11
94.5497
 21
1298.08
  0
LINE
  8
0
 10
94.5497
 20
1298.08
 11
94.9159
 21
1297.74
  0
LINE
  8
0
 10
94.9159
 20
1297.74
 11
95.2361
 21
1297.35
  0
LINE
  8
0
 10
95.2361
 20
1297.35
 11
95.5052
 21
1296.93
  0
LINE
  8
0
 10
95.5052
 20
1296.93
 11
95.7191
 21
1296.47
  0
LINE
  8
0
 10
95.7191
 20
1296.47
 11
95.8743
 21
1295.99
  0
LINE
  8
0
 10
95.8743
 20
1295.99
 11
95.9685
 21
1295.5
  0
LINE
  8
0
 10
95.9685
 20
1295.5
 11
96
 21
1295
  0
LINE
  8
0
 10
96
 20
1295
 11
96
 21
1141
  0
LINE
  8
0
 10
96
 20
1141
 11
95.9685
 21
1140.5
  0
LINE
  8
0
 10
95.9685
 20
1140.5
 11
95.8743
 21
1140.01
  0
LINE
  8
0
 10
95.8743
 20
1140.01
 11
95.7191
 21
1139.53
  0
LINE
  8
0
 10
95.7191
 20
1139.53
 11
95.5052
 21
1139.07
  0
LINE
  8
0
 10
95.5052
 20
1139.07
 11
95.2361
 21
1138.65
  0
LINE
  8
0
 10
95.2361
 20
1138.65
 11
94.9159
 21
1138.26
  0
LINE
  8
0
 10
94.9159
 20
1138.26
 11
94.5497
 21
1137.92
  0
LINE
  8
0
 10
94.5497
 20
1137.92
 11
94.1433
 21
1137.62
  0
LINE
  8
0
 10
94.1433
 20
1137.62
 11
93.7031
 21
1137.38
  0
LINE
  8
0
 10
93.7031
 20
1137.38
 11
93.2361
 21
1137.2
  0
LINE
  8
0
 10
93.2361
 20
1137.2
 11
92.7495
 21
1137.07
  0
LINE
  8
0
 10
92.7495
 20
1137.07
 11
92.2512
 21
1137.01
  0
LINE
  8
0
 10
92.2512
 20
1137.01
 11
-92.2512
 21
1137.01
  0
LINE
  8
0
 10
93.4369
 20
961.589
 11
94.0451
 21
961.745
  0
LINE
  8
0
 10
94.0451
 20
961.745
 11
94.6289
 21
961.976
  0
LINE
  8
0
 10
94.6289
 20
961.976
 11
95.1791
 21
962.278
  0
LINE
  8
0
 10
95.1791
 20
962.278
 11
95.6871
 21
962.647
  0
LINE
  8
0
 10
95.6871
 20
962.647
 11
96.1448
 21
963.077
  0
LINE
  8
0
 10
96.1448
 20
963.077
 11
96.5451
 21
963.561
  0
LINE
  8
0
 10
96.5451
 20
963.561
 11
96.8815
 21
964.091
  0
LINE
  8
0
 10
96.8815
 20
964.091
 11
97.1489
 21
964.659
  0
LINE
  8
0
 10
97.1489
 20
964.659
 11
97.3429
 21
965.257
  0
LINE
  8
0
 10
97.3429
 20
965.257
 11
97.4606
 21
965.873
  0
LINE
  8
0
 10
97.4606
 20
965.873
 11
97.5
 21
966.5
  0
LINE
  8
0
 10
97.5
 20
966.5
 11
97.5
 21
1121.5
  0
LINE
  8
0
 10
97.5
 20
1121.5
 11
97.4606
 21
1122.13
  0
LINE
  8
0
 10
97.4606
 20
1122.13
 11
97.3429
 21
1122.74
  0
LINE
  8
0
 10
97.3429
 20
1122.74
 11
97.1489
 21
1123.34
  0
LINE
  8
0
 10
97.1489
 20
1123.34
 11
96.8815
 21
1123.91
  0
LINE
  8
0
 10
96.8815
 20
1123.91
 11
96.5451
 21
1124.44
  0
LINE
  8
0
 10
96.5451
 20
1124.44
 11
96.1448
 21
1124.92
  0
LINE
  8
0
 10
96.1448
 20
1124.92
 11
95.6871
 21
1125.35
  0
LINE
  8
0
 10
95.6871
 20
1125.35
 11
95.1791
 21
1125.72
  0
LINE
  8
0
 10
95.1791
 20
1125.72
 11
94.6289
 21
1126.02
  0
LINE
  8
0
 10
94.6289
 20
1126.02
 11
94.0451
 21
1126.26
  0
LINE
  8
0
 10
94.0451
 20
1126.26
 11
93.4369
 21
1126.41
  0
LINE
  8
0
 10
93.4369
 20
1126.41
 11
92.8139
 21
1126.49
  0
LINE
  8
0
 10
92.8139
 20
1126.49
 11
-92.8139
 21
1126.49
  0
LINE
  8
0
 10
-92.8139
 20
1126.49
 11
-93.4369
 21
1126.41
  0
LINE
  8
0
 10
-93.4369
 20
1126.41
 11
-94.0451
 21
1126.26
  0
LINE
  8
0
 10
-94.0451
 20
1126.26
 11
-94.6289
 21
1126.02
  0
LINE
  8
0
 10
-94.6289
 20
1126.02
 11
-95.1791
 21
1125.72
  0
LINE
  8
0
 10
-95.1791
 20
1125.72
 11
-95.6871
 21
1125.35
  0
LINE
  8
0
 10
-95.6871
 20
1125.35
 11
-96.1448
 21
1124.92
  0
LINE
  8
0
 10
-96.1448
 20
1124.92
 11
-96.5451
 21
1124.44
  0
LINE
  8
0
 10
-96.5451
 20
1124.44
 11
-96.8815
 21
1123.91
  0
LINE
  8
0
 10
-96.8815
 20
1123.91
 11
-97.1489
 21
1123.34
  0
LINE
  8
0
 10
-97.1489
 20
1123.34
 11
-97.3429
 21
1122.74
  0
LINE
  8
0
 10
-97.3429
 20
1122.74
 11
-97.4606
 21
1122.13
  0
LINE
  8
0
 10
-97.4606
 20
1122.13
 11
-97.5
 21
1121.5
  0
LINE
  8
0
 10
-97.5
 20
1121.5
 11
-97.5
 21
966.5
  0
LINE
  8
0
 10
-97.5
 20
966.5
 11
-97.4606
 21
965.873
  0
LINE
  8
0
 10
-97.4606
 20
965.873
 11
-97.3429
 21
965.257
  0
LINE
  8
0
 10
-97.3429
 20
965.257
 11
-97.1489
 21
964.659
  0
LINE
  8
0
 10
-97.1489
 20
964.659
 11
-96.8815
 21
964.091
  0
LINE
  8
0
 10
-96.8815
 20
964.091
 11
-96.5451
 21
963.561
  0
LINE
  8
0
 10
-96.5451
 20
963.561
 11
-96.1448
 21
963.077
  0
LINE
  8
0
 10
-96.1448
 20
963.077
 11
-95.6871
 21
962.647
  0
LINE
  8
0
 10
-95.6871
 20
962.647
 11
-95.1791
 21
962.278
  0
LINE
  8
0
 10
-95.1791
 20
962.278
 11
-94.6289
 21
961.976
  0
LINE
  8
0
 10
-94.6289
 20
961.976
 11
-94.0451
 21
961.745
  0
LINE
  8
0
 10
-94.0451
 20
961.745
 11
-93.4369
 21
961.589
  0
LINE
  8
0
 10
-93.4369
 20
961.589
 11
-92.8139
 21
961.51
  0
LINE
  8
0
 10
-92.8139
 20
961.51
 11
92.8139
 21
961.51
  0
LINE
  8
0
 10
92.8139
 20
961.51
 11
93.4369
 21
961.589
  0
LINE
  8
0
 10
-92.2512
 20
963.008
 11
-92.7495
 21
963.071
  0
LINE
  8
0
 10
-92.7495
 20
963.071
 11
-93.2361
 21
963.196
  0
LINE
  8
0
 10
-93.2361
 20
963.196
 11
-93.7031
 21
963.381
  0
LINE
  8
0
 10
-93.7031
 20
963.381
 11
-94.1433
 21
963.623
  0
LINE
  8
0
 10
-94.1433
 20
963.623
 11
-94.5497
 21
963.918
  0
LINE
  8
0
 10
-94.5497
 20
963.918
 11
-94.9159
 21
964.262
  0
LINE
  8
0
 10
-94.9159
 20
964.262
 11
-95.2361
 21
964.649
  0
LINE
  8
0
 10
-95.2361
 20
964.649
 11
-95.5052
 21
965.073
  0
LINE
  8
0
 10
-95.5052
 20
965.073
 11
-95.7191
 21
965.528
  0
LINE
  8
0
 10
-95.7191
 20
965.528
 11
-95.8743
 21
966.005
  0
LINE
  8
0
 10
-95.8743
 20
966.005
 11
-95.9685
 21
966.499
  0
LINE
  8
0
 10
-95.9685
 20
966.499
 11
-96
 21
967
  0
LINE
  8
0
 10
-96
 20
967
 11
-96
 21
1121
  0
LINE
  8
0
 10
-96
 20
1121
 11
-95.9685
 21
1121.5
  0
LINE
  8
0
 10
-95.9685
 20
1121.5
 11
-95.8743
 21
1121.99
  0
LINE
  8
0
 10
-95.8743
 20
1121.99
 11
-95.7191
 21
1122.47
  0
LINE
  8
0
 10
-95.7191
 20
1122.47
 11
-95.5052
 21
1122.93
  0
LINE
  8
0
 10
-95.5052
 20
1122.93
 11
-95.2361
 21
1123.35
  0
LINE
  8
0
 10
-95.2361
 20
1123.35
 11
-94.9159
 21
1123.74
  0
LINE
  8
0
 10
-94.9159
 20
1123.74
 11
-94.5497
 21
1124.08
  0
LINE
  8
0
 10
-94.5497
 20
1124.08
 11
-94.1433
 21
1124.38
  0
LINE
  8
0
 10
-94.1433
 20
1124.38
 11
-93.7031
 21
1124.62
  0
LINE
  8
0
 10
-93.7031
 20
1124.62
 11
-93.2361
 21
1124.8
  0
LINE
  8
0
 10
-93.2361
 20
1124.8
 11
-92.7495
 21
1124.93
  0
LINE
  8
0
 10
-92.7495
 20
1124.93
 11
-92.2512
 21
1124.99
  0
LINE
  8
0
 10
-92.2512
 20
1124.99
 11
92.2512
 21
1124.99
  0
LINE
  8
0
 10
92.2512
 20
1124.99
 11
92.7495
 21
1124.93
  0
LINE
  8
0
 10
92.7495
 20
1124.93
 11
93.2361
 21
1124.8
  0
LINE
  8
0
 10
93.2361
 20
1124.8
 11
93.7031
 21
1124.62
  0
LINE
  8
0
 10
93.7031
 20
1124.62
 11
94.1433
 21
1124.38
  0
LINE
  8
0
 10
94.1433
 20
1124.38
 11
94.5497
 21
1124.08
  0
LINE
  8
0
 10
94.5497
 20
1124.08
 11
94.9159
 21
1123.74
  0
LINE
  8
0
 10
94.9159
 20
1123.74
 11
95.2361
 21
1123.35
  0
LINE
  8
0
 10
95.2361
 20
1123.35
 11
95.5052
 21
1122.93
  0
LINE
  8
0
 10
95.5052
 20
1122.93
 11
95.7191
 21
1122.47
  0
LINE
  8
0
 10
95.7191
 20
1122.47
 11
95.8743
 21
1121.99
  0
LINE
  8
0
 10
95.8743
 20
1121.99
 11
95.9685
 21
1121.5
  0
LINE
  8
0
 10
95.9685
 20
1121.5
 11
96
 21
1121
  0
LINE
  8
0
 10
96
 20
1121
 11
96
 21
967
  0
LINE
  8
0
 10
96
 20
967
 11
95.9685
 21
966.499
  0
LINE
  8
0
 10
95.9685
 20
966.499
 11
95.8743
 21
966.005
  0
LINE
  8
0
 10
95.8743
 20
966.005
 11
95.7191
 21
965.528
  0
LINE
  8
0
 10
95.7191
 20
965.528
 11
95.5052
 21
965.073
  0
LINE
  8
0
 10
95.5052
 20
965.073
 11
95.2361
 21
964.649
  0
LINE
  8
0
 10
95.2361
 20
964.649
 11
94.9159
 21
964.262
  0
LINE
  8
0
 10
94.9159
 20
964.262
 11
94.5497
 21
963.918
  0
LINE
  8
0
 10
94.5497
 20
963.918
 11
94.1433
 21
963.623
  0
LINE
  8
0
 10
94.1433
 20
963.623
 11
93.7031
 21
963.381
  0
LINE
  8
0
 10
93.7031
 20
963.381
 11
93.2361
 21
963.196
  0
LINE
  8
0
 10
93.2361
 20
963.196
 11
92.7495
 21
963.071
  0
LINE
  8
0
 10
92.7495
 20
963.071
 11
92.2512
 21
963.008
  0
LINE
  8
0
 10
92.2512
 20
963.008
 11
-92.2512
 21
963.008
  0
LINE
  8
0
 10
93.4369
 20
787.589
 11
94.0451
 21
787.745
  0
LINE
  8
0
 10
94.0451
 20
787.745
 11
94.6289
 21
787.976
  0
LINE
  8
0
 10
94.6289
 20
787.976
 11
95.1791
 21
788.278
  0
LINE
  8
0
 10
95.1791
 20
788.278
 11
95.6871
 21
788.647
  0
LINE
  8
0
 10
95.6871
 20
788.647
 11
96.1448
 21
789.077
  0
LINE
  8
0
 10
96.1448
 20
789.077
 11
96.5451
 21
789.561
  0
LINE
  8
0
 10
96.5451
 20
789.561
 11
96.8815
 21
790.091
  0
LINE
  8
0
 10
96.8815
 20
790.091
 11
97.1489
 21
790.659
  0
LINE
  8
0
 10
97.1489
 20
790.659
 11
97.3429
 21
791.257
  0
LINE
  8
0
 10
97.3429
 20
791.257
 11
97.4606
 21
791.873
  0
LINE
  8
0
 10
97.4606
 20
791.873
 11
97.5
 21
792.5
  0
LINE
  8
0
 10
97.5
 20
792.5
 11
97.5
 21
947.5
  0
LINE
  8
0
 10
97.5
 20
947.5
 11
97.4606
 21
948.127
  0
LINE
  8
0
 10
97.4606
 20
948.127
 11
97.3429
 21
948.743
  0
LINE
  8
0
 10
97.3429
 20
948.743
 11
97.1489
 21
949.341
  0
LINE
  8
0
 10
97.1489
 20
949.341
 11
96.8815
 21
949.909
  0
LINE
  8
0
 10
96.8815
 20
949.909
 11
96.5451
 21
950.439
  0
LINE
  8
0
 10
96.5451
 20
950.439
 11
96.1448
 21
950.923
  0
LINE
  8
0
 10
96.1448
 20
950.923
 11
95.6871
 21
951.353
  0
LINE
  8
0
 10
95.6871
 20
951.353
 11
95.1791
 21
951.722
  0
LINE
  8
0
 10
95.1791
 20
951.722
 11
94.6289
 21
952.024
  0
LINE
  8
0
 10
94.6289
 20
952.024
 11
94.0451
 21
952.255
  0
LINE
  8
0
 10
94.0451
 20
952.255
 11
93.4369
 21
952.411
  0
LINE
  8
0
 10
93.4369
 20
952.411
 11
92.8139
 21
952.49
  0
LINE
  8
0
 10
92.8139
 20
952.49
 11
-92.8139
 21
952.49
  0
LINE
  8
0
 10
-92.8139
 20
952.49
 11
-93.4369
 21
952.411
  0
LINE
  8
0
 10
-93.4369
 20
952.411
 11
-94.0451
 21
952.255
  0
LINE
  8
0
 10
-94.0451
 20
952.255
 11
-94.6289
 21
952.024
  0
LINE
  8
0
 10
-94.6289
 20
952.024
 11
-95.1791
 21
951.722
  0
LINE
  8
0
 10
-95.1791
 20
951.722
 11
-95.6871
 21
951.353
  0
LINE
  8
0
 10
-95.6871
 20
951.353
 11
-96.1448
 21
950.923
  0
LINE
  8
0
 10
-96.1448
 20
950.923
 11
-96.5451
 21
950.439
  0
LINE
  8
0
 10
-96.5451
 20
950.439
 11
-96.8815
 21
949.909
  0
LINE
  8
0
 10
-96.8815
 20
949.909
 11
-97.1489
 21
949.341
  0
LINE
  8
0
 10
-97.1489
 20
949.341
 11
-97.3429
 21
948.743
  0
LINE
  8
0
 10
-97.3429
 20
948.743
 11
-97.4606
 21
948.127
  0
LINE
  8
0
 10
-97.4606
 20
948.127
 11
-97.5
 21
947.5
  0
LINE
  8
0
 10
-97.5
 20
947.5
 11
-97.5
 21
792.5
  0
LINE
  8
0
 10
-97.5
 20
792.5
 11
-97.4606
 21
791.873
  0
LINE
  8
0
 10
-97.4606
 20
791.873
 11
-97.3429
 21
791.257
  0
LINE
  8
0
 10
-97.3429
 20
791.257
 11
-97.1489
 21
790.659
  0
LINE
  8
0
 10
-97.1489
 20
790.659
 11
-96.8815
 21
790.091
  0
LINE
  8
0
 10
-96.8815
 20
790.091
 11
-96.5451
 21
789.561
  0
LINE
  8
0
 10
-96.5451
 20
789.561
 11
-96.1448
 21
789.077
  0
LINE
  8
0
 10
-96.1448
 20
789.077
 11
-95.6871
 21
788.647
  0
LINE
  8
0
 10
-95.6871
 20
788.647
 11
-95.1791
 21
788.278
  0
LINE
  8
0
 10
-95.1791
 20
788.278
 11
-94.6289
 21
787.976
  0
LINE
  8
0
 10
-94.6289
 20
787.976
 11
-94.0451
 21
787.745
  0
LINE
  8
0
 10
-94.0451
 20
787.745
 11
-93.4369
 21
787.589
  0
LINE
  8
0
 10
-93.4369
 20
787.589
 11
-92.8139
 21
787.51
  0
LINE
  8
0
 10
-92.8139
 20
787.51
 11
92.8139
 21
787.51
  0
LINE
  8
0
 10
92.8139
 20
787.51
 11
93.4369
 21
787.589
  0
LINE
  8
0
 10
-92.1955
 20
789.893
 11
-92.5833
 21
789.942
  0
LINE
  8
0
 10
-92.5833
 20
789.942
 11
-92.9619
 21
790.039
  0
LINE
  8
0
 10
-92.9619
 20
790.039
 11
-93.3254
 21
790.183
  0
LINE
  8
0
 10
-93.3254
 20
790.183
 11
-93.668
 21
790.372
  0
LINE
  8
0
 10
-93.668
 20
790.372
 11
-93.9843
 21
790.601
  0
LINE
  8
0
 10
-93.9843
 20
790.601
 11
-94.2692
 21
790.869
  0
LINE
  8
0
 10
-94.2692
 20
790.869
 11
-94.5184
 21
791.17
  0
LINE
  8
0
 10
-94.5184
 20
791.17
 11
-94.7279
 21
791.5
  0
LINE
  8
0
 10
-94.7279
 20
791.5
 11
-94.8943
 21
791.854
  0
LINE
  8
0
 10
-94.8943
 20
791.854
 11
-95.0151
 21
792.226
  0
LINE
  8
0
 10
-95.0151
 20
792.226
 11
-95.0884
 21
792.61
  0
LINE
  8
0
 10
-95.0884
 20
792.61
 11
-95.1129
 21
793
  0
LINE
  8
0
 10
-95.1129
 20
793
 11
-95.1129
 21
947
  0
LINE
  8
0
 10
-95.1129
 20
947
 11
-95.0884
 21
947.39
  0
LINE
  8
0
 10
-95.0884
 20
947.39
 11
-95.0151
 21
947.774
  0
LINE
  8
0
 10
-95.0151
 20
947.774
 11
-94.8943
 21
948.146
  0
LINE
  8
0
 10
-94.8943
 20
948.146
 11
-94.7279
 21
948.5
  0
LINE
  8
0
 10
-94.7279
 20
948.5
 11
-94.5184
 21
948.83
  0
LINE
  8
0
 10
-94.5184
 20
948.83
 11
-94.2692
 21
949.131
  0
LINE
  8
0
 10
-94.2692
 20
949.131
 11
-93.9843
 21
949.399
  0
LINE
  8
0
 10
-93.9843
 20
949.399
 11
-93.668
 21
949.628
  0
LINE
  8
0
 10
-93.668
 20
949.628
 11
-93.3254
 21
949.817
  0
LINE
  8
0
 10
-93.3254
 20
949.817
 11
-92.9619
 21
949.961
  0
LINE
  8
0
 10
-92.9619
 20
949.961
 11
-92.5833
 21
950.058
  0
LINE
  8
0
 10
-92.5833
 20
950.058
 11
-92.1955
 21
950.107
  0
LINE
  8
0
 10
-92.1955
 20
950.107
 11
92.1955
 21
950.107
  0
LINE
  8
0
 10
92.1955
 20
950.107
 11
92.5833
 21
950.058
  0
LINE
  8
0
 10
92.5833
 20
950.058
 11
92.9619
 21
949.961
  0
LINE
  8
0
 10
92.9619
 20
949.961
 11
93.3254
 21
949.817
  0
LINE
  8
0
 10
93.3254
 20
949.817
 11
93.668
 21
949.628
  0
LINE
  8
0
 10
93.668
 20
949.628
 11
93.9843
 21
949.399
  0
LINE
  8
0
 10
93.9843
 20
949.399
 11
94.2692
 21
949.131
  0
LINE
  8
0
 10
94.2692
 20
949.131
 11
94.5184
 21
948.83
  0
LINE
  8
0
 10
94.5184
 20
948.83
 11
94.7279
 21
948.5
  0
LINE
  8
0
 10
94.7279
 20
948.5
 11
94.8943
 21
948.146
  0
LINE
  8
0
 10
94.8943
 20
948.146
 11
95.0151
 21
947.774
  0
LINE
  8
0
 10
95.0151
 20
947.774
 11
95.0884
 21
947.39
  0
LINE
  8
0
 10
95.0884
 20
947.39
 11
95.1129
 21
947
  0
LINE
  8
0
 10
95.1129
 20
947
 11
95.1129
 21
793
  0
LINE
  8
0
 10
95.1129
 20
793
 11
95.0884
 21
792.61
  0
LINE
  8
0
 10
95.0884
 20
792.61
 11
95.0151
 21
792.226
  0
LINE
  8
0
 10
95.0151
 20
792.226
 11
94.8943
 21
791.854
  0
LINE
  8
0
 10
94.8943
 20
791.854
 11
94.7279
 21
791.5
  0
LINE
  8
0
 10
94.7279
 20
791.5
 11
94.5184
 21
791.17
  0
LINE
  8
0
 10
94.5184
 20
791.17
 11
94.2692
 21
790.869
  0
LINE
  8
0
 10
94.2692
 20
790.869
 11
93.9843
 21
790.601
  0
LINE
  8
0
 10
93.9843
 20
790.601
 11
93.668
 21
790.372
  0
LINE
  8
0
 10
93.668
 20
790.372
 11
93.3254
 21
790.183
  0
LINE
  8
0
 10
93.3254
 20
790.183
 11
92.9619
 21
790.039
  0
LINE
  8
0
 10
92.9619
 20
790.039
 11
92.5833
 21
789.942
  0
LINE
  8
0
 10
92.5833
 20
789.942
 11
92.1955
 21
789.893
  0
LINE
  8
0
 10
92.1955
 20
789.893
 11
-92.1955
 21
789.893
  0
LINE
  8
0
 10
93.4369
 20
613.589
 11
94.0451
 21
613.745
  0
LINE
  8
0
 10
94.0451
 20
613.745
 11
94.6289
 21
613.976
  0
LINE
  8
0
 10
94.6289
 20
613.976
 11
95.1791
 21
614.278
  0
LINE
  8
0
 10
95.1791
 20
614.278
 11
95.6871
 21
614.647
  0
LINE
  8
0
 10
95.6871
 20
614.647
 11
96.1448
 21
615.077
  0
LINE
  8
0
 10
96.1448
 20
615.077
 11
96.5451
 21
615.561
  0
LINE
  8
0
 10
96.5451
 20
615.561
 11
96.8815
 21
616.091
  0
LINE
  8
0
 10
96.8815
 20
616.091
 11
97.1489
 21
616.659
  0
LINE
  8
0
 10
97.1489
 20
616.659
 11
97.3429
 21
617.257
  0
LINE
  8
0
 10
97.3429
 20
617.257
 11
97.4606
 21
617.873
  0
LINE
  8
0
 10
97.4606
 20
617.873
 11
97.5
 21
618.5
  0
LINE
  8
0
 10
97.5
 20
618.5
 11
97.5
 21
773.5
  0
LINE
  8
0
 10
97.5
 20
773.5
 11
97.4606
 21
774.127
  0
LINE
  8
0
 10
97.4606
 20
774.127
 11
97.3429
 21
774.743
  0
LINE
  8
0
 10
97.3429
 20
774.743
 11
97.1489
 21
775.341
  0
LINE
  8
0
 10
97.1489
 20
775.341
 11
96.8815
 21
775.909
  0
LINE
  8
0
 10
96.8815
 20
775.909
 11
96.5451
 21
776.439
  0
LINE
  8
0
 10
96.5451
 20
776.439
 11
96.1448
 21
776.923
  0
LINE
  8
0
 10
96.1448
 20
776.923
 11
95.6871
 21
777.353
  0
LINE
  8
0
 10
95.6871
 20
777.353
 11
95.1791
 21
777.722
  0
LINE
  8
0
 10
95.1791
 20
777.722
 11
94.6289
 21
778.024
  0
LINE
  8
0
 10
94.6289
 20
778.024
 11
94.0451
 21
778.255
  0
LINE
  8
0
 10
94.0451
 20
778.255
 11
93.4369
 21
778.411
  0
LINE
  8
0
 10
93.4369
 20
778.411
 11
92.8139
 21
778.49
  0
LINE
  8
0
 10
92.8139
 20
778.49
 11
-92.8139
 21
778.49
  0
LINE
  8
0
 10
-92.8139
 20
778.49
 11
-93.4369
 21
778.411
  0
LINE
  8
0
 10
-93.4369
 20
778.411
 11
-94.0451
 21
778.255
  0
LINE
  8
0
 10
-94.0451
 20
778.255
 11
-94.6289
 21
778.024
  0
LINE
  8
0
 10
-94.6289
 20
778.024
 11
-95.1791
 21
777.722
  0
LINE
  8
0
 10
-95.1791
 20
777.722
 11
-95.6871
 21
777.353
  0
LINE
  8
0
 10
-95.6871
 20
777.353
 11
-96.1448
 21
776.923
  0
LINE
  8
0
 10
-96.1448
 20
776.923
 11
-96.5451
 21
776.439
  0
LINE
  8
0
 10
-96.5451
 20
776.439
 11
-96.8815
 21
775.909
  0
LINE
  8
0
 10
-96.8815
 20
775.909
 11
-97.1489
 21
775.341
  0
LINE
  8
0
 10
-97.1489
 20
775.341
 11
-97.3429
 21
774.743
  0
LINE
  8
0
 10
-97.3429
 20
774.743
 11
-97.4606
 21
774.127
  0
LINE
  8
0
 10
-97.4606
 20
774.127
 11
-97.5
 21
773.5
  0
LINE
  8
0
 10
-97.5
 20
773.5
 11
-97.5
 21
618.5
  0
LINE
  8
0
 10
-97.5
 20
618.5
 11
-97.4606
 21
617.873
  0
LINE
  8
0
 10
-97.4606
 20
617.873
 11
-97.3429
 21
617.257
  0
LINE
  8
0
 10
-97.3429
 20
617.257
 11
-97.1489
 21
616.659
  0
LINE
  8
0
 10
-97.1489
 20
616.659
 11
-96.8815
 21
616.091
  0
LINE
  8
0
 10
-96.8815
 20
616.091
 11
-96.5451
 21
615.561
  0
LINE
  8
0
 10
-96.5451
 20
615.561
 11
-96.1448
 21
615.077
  0
LINE
  8
0
 10
-96.1448
 20
615.077
 11
-95.6871
 21
614.647
  0
LINE
  8
0
 10
-95.6871
 20
614.647
 11
-95.1791
 21
614.278
  0
LINE
  8
0
 10
-95.1791
 20
614.278
 11
-94.6289
 21
613.976
  0
LINE
  8
0
 10
-94.6289
 20
613.976
 11
-94.0451
 21
613.745
  0
LINE
  8
0
 10
-94.0451
 20
613.745
 11
-93.4369
 21
613.589
  0
LINE
  8
0
 10
-93.4369
 20
613.589
 11
-92.8139
 21
613.51
  0
LINE
  8
0
 10
-92.8139
 20
613.51
 11
92.8139
 21
613.51
  0
LINE
  8
0
 10
92.8139
 20
613.51
 11
93.4369
 21
613.589
  0
LINE
  8
0
 10
89.8659
 20
768.869
 11
89.5999
 21
768.903
  0
LINE
  8
0
 10
89.5999
 20
768.903
 11
89.3401
 21
768.969
  0
LINE
  8
0
 10
89.3401
 20
768.969
 11
89.0908
 21
769.068
  0
LINE
  8
0
 10
89.0908
 20
769.068
 11
88.8559
 21
769.197
  0
LINE
  8
0
 10
88.8559
 20
769.197
 11
88.6389
 21
769.355
  0
LINE
  8
0
 10
88.6389
 20
769.355
 11
88.4434
 21
769.538
  0
LINE
  8
0
 10
88.4434
 20
769.538
 11
88.2725
 21
769.745
  0
LINE
  8
0
 10
88.2725
 20
769.745
 11
88.1288
 21
769.971
  0
LINE
  8
0
 10
88.1288
 20
769.971
 11
88.0146
 21
770.214
  0
LINE
  8
0
 10
88.0146
 20
770.214
 11
87.9318
 21
770.469
  0
LINE
  8
0
 10
87.9318
 20
770.469
 11
87.8815
 21
770.732
  0
LINE
  8
0
 10
87.8815
 20
770.732
 11
87.8647
 21
771
  0
LINE
  8
0
 10
87.8647
 20
771
 11
87.8815
 21
771.268
  0
LINE
  8
0
 10
87.8815
 20
771.268
 11
87.9318
 21
771.531
  0
LINE
  8
0
 10
87.9318
 20
771.531
 11
88.0146
 21
771.786
  0
LINE
  8
0
 10
88.0146
 20
771.786
 11
88.1288
 21
772.029
  0
LINE
  8
0
 10
88.1288
 20
772.029
 11
88.2725
 21
772.255
  0
LINE
  8
0
 10
88.2725
 20
772.255
 11
88.4434
 21
772.462
  0
LINE
  8
0
 10
88.4434
 20
772.462
 11
88.6389
 21
772.645
  0
LINE
  8
0
 10
88.6389
 20
772.645
 11
88.8559
 21
772.803
  0
LINE
  8
0
 10
88.8559
 20
772.803
 11
89.0908
 21
772.932
  0
LINE
  8
0
 10
89.0908
 20
772.932
 11
89.3401
 21
773.031
  0
LINE
  8
0
 10
89.3401
 20
773.031
 11
89.5999
 21
773.097
  0
LINE
  8
0
 10
89.5999
 20
773.097
 11
89.8659
 21
773.131
  0
LINE
  8
0
 10
89.8659
 20
773.131
 11
90.1341
 21
773.131
  0
LINE
  8
0
 10
90.1341
 20
773.131
 11
90.4001
 21
773.097
  0
LINE
  8
0
 10
90.4001
 20
773.097
 11
90.6598
 21
773.031
  0
LINE
  8
0
 10
90.6598
 20
773.031
 11
90.9092
 21
772.932
  0
LINE
  8
0
 10
90.9092
 20
772.932
 11
91.1441
 21
772.803
  0
LINE
  8
0
 10
91.1441
 20
772.803
 11
91.3611
 21
772.645
  0
LINE
  8
0
 10
91.3611
 20
772.645
 11
91.5566
 21
772.462
  0
LINE
  8
0
 10
91.5566
 20
772.462
 11
91.7275
 21
772.255
  0
LINE
  8
0
 10
91.7275
 20
772.255
 11
91.8712
 21
772.029
  0
LINE
  8
0
 10
91.8712
 20
772.029
 11
91.9853
 21
771.786
  0
LINE
  8
0
 10
91.9853
 20
771.786
 11
92.0682
 21
771.531
  0
LINE
  8
0
 10
92.0682
 20
771.531
 11
92.1185
 21
771.268
  0
LINE
  8
0
 10
92.1185
 20
771.268
 11
92.1353
 21
771
  0
LINE
  8
0
 10
92.1353
 20
771
 11
92.1185
 21
770.732
  0
LINE
  8
0
 10
92.1185
 20
770.732
 11
92.0682
 21
770.469
  0
LINE
  8
0
 10
92.0682
 20
770.469
 11
91.9853
 21
770.214
  0
LINE
  8
0
 10
91.9853
 20
770.214
 11
91.8712
 21
769.971
  0
LINE
  8
0
 10
91.8712
 20
769.971
 11
91.7275
 21
769.745
  0
LINE
  8
0
 10
91.7275
 20
769.745
 11
91.5566
 21
769.538
  0
LINE
  8
0
 10
91.5566
 20
769.538
 11
91.3611
 21
769.355
  0
LINE
  8
0
 10
91.3611
 20
769.355
 11
91.1441
 21
769.197
  0
LINE
  8
0
 10
91.1441
 20
769.197
 11
90.9092
 21
769.068
  0
LINE
  8
0
 10
90.9092
 20
769.068
 11
90.6598
 21
768.969
  0
LINE
  8
0
 10
90.6598
 20
768.969
 11
90.4001
 21
768.903
  0
LINE
  8
0
 10
90.4001
 20
768.903
 11
90.1341
 21
768.869
  0
LINE
  8
0
 10
90.1341
 20
768.869
 11
89.8659
 21
768.869
  0
LINE
  8
0
 10
-90.1341
 20
768.869
 11
-90.4001
 21
768.903
  0
LINE
  8
0
 10
-90.4001
 20
768.903
 11
-90.6598
 21
768.969
  0
LINE
  8
0
 10
-90.6598
 20
768.969
 11
-90.9092
 21
769.068
  0
LINE
  8
0
 10
-90.9092
 20
769.068
 11
-91.1441
 21
769.197
  0
LINE
  8
0
 10
-91.1441
 20
769.197
 11
-91.3611
 21
769.355
  0
LINE
  8
0
 10
-91.3611
 20
769.355
 11
-91.5566
 21
769.538
  0
LINE
  8
0
 10
-91.5566
 20
769.538
 11
-91.7275
 21
769.745
  0
LINE
  8
0
 10
-91.7275
 20
769.745
 11
-91.8712
 21
769.971
  0
LINE
  8
0
 10
-91.8712
 20
769.971
 11
-91.9853
 21
770.214
  0
LINE
  8
0
 10
-91.9853
 20
770.214
 11
-92.0682
 21
770.469
  0
LINE
  8
0
 10
-92.0682
 20
770.469
 11
-92.1185
 21
770.732
  0
LINE
  8
0
 10
-92.1185
 20
770.732
 11
-92.1353
 21
771
  0
LINE
  8
0
 10
-92.1353
 20
771
 11
-92.1185
 21
771.268
  0
LINE
  8
0
 10
-92.1185
 20
771.268
 11
-92.0682
 21
771.531
  0
LINE
  8
0
 10
-92.0682
 20
771.531
 11
-91.9853
 21
771.786
  0
LINE
  8
0
 10
-91.9853
 20
771.786
 11
-91.8712
 21
772.029
  0
LINE
  8
0
 10
-91.8712
 20
772.029
 11
-91.7275
 21
772.255
  0
LINE
  8
0
 10
-91.7275
 20
772.255
 11
-91.5566
 21
772.462
  0
LINE
  8
0
 10
-91.5566
 20
772.462
 11
-91.3611
 21
772.645
  0
LINE
  8
0
 10
-91.3611
 20
772.645
 11
-91.1441
 21
772.803
  0
LINE
  8
0
 10
-91.1441
 20
772.803
 11
-90.9092
 21
772.932
  0
LINE
  8
0
 10
-90.9092
 20
772.932
 11
-90.6598
 21
773.031
  0
LINE
  8
0
 10
-90.6598
 20
773.031
 11
-90.4001
 21
773.097
  0
LINE
  8
0
 10
-90.4001
 20
773.097
 11
-90.1341
 21
773.131
  0
LINE
  8
0
 10
-90.1341
 20
773.131
 11
-89.8659
 21
773.131
  0
LINE
  8
0
 10
-89.8659
 20
773.131
 11
-89.5999
 21
773.097
  0
LINE
  8
0
 10
-89.5999
 20
773.097
 11
-89.3401
 21
773.031
  0
LINE
  8
0
 10
-89.3401
 20
773.031
 11
-89.0908
 21
772.932
  0
LINE
  8
0
 10
-89.0908
 20
772.932
 11
-88.8559
 21
772.803
  0
LINE
  8
0
 10
-88.8559
 20
772.803
 11
-88.6389
 21
772.645
  0
LINE
  8
0
 10
-88.6389
 20
772.645
 11
-88.4434
 21
772.462
  0
LINE
  8
0
 10
-88.4434
 20
772.462
 11
-88.2725
 21
772.255
  0
LINE
  8
0
 10
-88.2725
 20
772.255
 11
-88.1288
 21
772.029
  0
LINE
  8
0
 10
-88.1288
 20
772.029
 11
-88.0146
 21
771.786
  0
LINE
  8
0
 10
-88.0146
 20
771.786
 11
-87.9318
 21
771.531
  0
LINE
  8
0
 10
-87.9318
 20
771.531
 11
-87.8815
 21
771.268
  0
LINE
  8
0
 10
-87.8815
 20
771.268
 11
-87.8647
 21
771
  0
LINE
  8
0
 10
-87.8647
 20
771
 11
-87.8815
 21
770.732
  0
LINE
  8
0
 10
-87.8815
 20
770.732
 11
-87.9318
 21
770.469
  0
LINE
  8
0
 10
-87.9318
 20
770.469
 11
-88.0146
 21
770.214
  0
LINE
  8
0
 10
-88.0146
 20
770.214
 11
-88.1288
 21
769.971
  0
LINE
  8
0
 10
-88.1288
 20
769.971
 11
-88.2725
 21
769.745
  0
LINE
  8
0
 10
-88.2725
 20
769.745
 11
-88.4434
 21
769.538
  0
LINE
  8
0
 10
-88.4434
 20
769.538
 11
-88.6389
 21
769.355
  0
LINE
  8
0
 10
-88.6389
 20
769.355
 11
-88.8559
 21
769.197
  0
LINE
  8
0
 10
-88.8559
 20
769.197
 11
-89.0908
 21
769.068
  0
LINE
  8
0
 10
-89.0908
 20
769.068
 11
-89.3401
 21
768.969
  0
LINE
  8
0
 10
-89.3401
 20
768.969
 11
-89.5999
 21
768.903
  0
LINE
  8
0
 10
-89.5999
 20
768.903
 11
-89.8659
 21
768.869
  0
LINE
  8
0
 10
-89.8659
 20
768.869
 11
-90.1341
 21
768.869
  0
LINE
  8
0
 10
89.8659
 20
618.869
 11
89.5999
 21
618.903
  0
LINE
  8
0
 10
89.5999
 20
618.903
 11
89.3401
 21
618.969
  0
LINE
  8
0
 10
89.3401
 20
618.969
 11
89.0908
 21
619.068
  0
LINE
  8
0
 10
89.0908
 20
619.068
 11
88.8559
 21
619.197
  0
LINE
  8
0
 10
88.8559
 20
619.197
 11
88.6389
 21
619.355
  0
LINE
  8
0
 10
88.6389
 20
619.355
 11
88.4434
 21
619.538
  0
LINE
  8
0
 10
88.4434
 20
619.538
 11
88.2725
 21
619.745
  0
LINE
  8
0
 10
88.2725
 20
619.745
 11
88.1288
 21
619.971
  0
LINE
  8
0
 10
88.1288
 20
619.971
 11
88.0146
 21
620.214
  0
LINE
  8
0
 10
88.0146
 20
620.214
 11
87.9318
 21
620.469
  0
LINE
  8
0
 10
87.9318
 20
620.469
 11
87.8815
 21
620.732
  0
LINE
  8
0
 10
87.8815
 20
620.732
 11
87.8647
 21
621
  0
LINE
  8
0
 10
87.8647
 20
621
 11
87.8815
 21
621.268
  0
LINE
  8
0
 10
87.8815
 20
621.268
 11
87.9318
 21
621.531
  0
LINE
  8
0
 10
87.9318
 20
621.531
 11
88.0146
 21
621.786
  0
LINE
  8
0
 10
88.0146
 20
621.786
 11
88.1288
 21
622.029
  0
LINE
  8
0
 10
88.1288
 20
622.029
 11
88.2725
 21
622.255
  0
LINE
  8
0
 10
88.2725
 20
622.255
 11
88.4434
 21
622.462
  0
LINE
  8
0
 10
88.4434
 20
622.462
 11
88.6389
 21
622.645
  0
LINE
  8
0
 10
88.6389
 20
622.645
 11
88.8559
 21
622.803
  0
LINE
  8
0
 10
88.8559
 20
622.803
 11
89.0908
 21
622.932
  0
LINE
  8
0
 10
89.0908
 20
622.932
 11
89.3401
 21
623.031
  0
LINE
  8
0
 10
89.3401
 20
623.031
 11
89.5999
 21
623.097
  0
LINE
  8
0
 10
89.5999
 20
623.097
 11
89.8659
 21
623.131
  0
LINE
  8
0
 10
89.8659
 20
623.131
 11
90.1341
 21
623.131
  0
LINE
  8
0
 10
90.1341
 20
623.131
 11
90.4001
 21
623.097
  0
LINE
  8
0
 10
90.4001
 20
623.097
 11
90.6598
 21
623.031
  0
LINE
  8
0
 10
90.6598
 20
623.031
 11
90.9092
 21
622.932
  0
LINE
  8
0
 10
90.9092
 20
622.932
 11
91.1441
 21
622.803
  0
LINE
  8
0
 10
91.1441
 20
622.803
 11
91.3611
 21
622.645
  0
LINE
  8
0
 10
91.3611
 20
622.645
 11
91.5566
 21
622.462
  0
LINE
  8
0
 10
91.5566
 20
622.462
 11
91.7275
 21
622.255
  0
LINE
  8
0
 10
91.7275
 20
622.255
 11
91.8712
 21
622.029
  0
LINE
  8
0
 10
91.8712
 20
622.029
 11
91.9853
 21
621.786
  0
LINE
  8
0
 10
91.9853
 20
621.786
 11
92.0682
 21
621.531
  0
LINE
  8
0
 10
92.0682
 20
621.531
 11
92.1185
 21
621.268
  0
LINE
  8
0
 10
92.1185
 20
621.268
 11
92.1353
 21
621
  0
LINE
  8
0
 10
92.1353
 20
621
 11
92.1185
 21
620.732
  0
LINE
  8
0
 10
92.1185
 20
620.732
 11
92.0682
 21
620.469
  0
LINE
  8
0
 10
92.0682
 20
620.469
 11
91.9853
 21
620.214
  0
LINE
  8
0
 10
91.9853
 20
620.214
 11
91.8712
 21
619.971
  0
LINE
  8
0
 10
91.8712
 20
619.971
 11
91.7275
 21
619.745
  0
LINE
  8
0
 10
91.7275
 20
619.745
 11
91.5566
 21
619.538
  0
LINE
  8
0
 10
91.5566
 20
619.538
 11
91.3611
 21
619.355
  0
LINE
  8
0
 10
91.3611
 20
619.355
 11
91.1441
 21
619.197
  0
LINE
  8
0
 10
91.1441
 20
619.197
 11
90.9092
 21
619.068
  0
LINE
  8
0
 10
90.9092
 20
619.068
 11
90.6598
 21
618.969
  0
LINE
  8
0
 10
90.6598
 20
618.969
 11
90.4001
 21
618.903
  0
LINE
  8
0
 10
90.4001
 20
618.903
 11
90.1341
 21
618.869
  0
LINE
  8
0
 10
90.1341
 20
618.869
 11
89.8659
 21
618.869
  0
LINE
  8
0
 10
-90.1341
 20
618.869
 11
-90.4001
 21
618.903
  0
LINE
  8
0
 10
-90.4001
 20
618.903
 11
-90.6598
 21
618.969
  0
LINE
  8
0
 10
-90.6598
 20
618.969
 11
-90.9092
 21
619.068
  0
LINE
  8
0
 10
-90.9092
 20
619.068
 11
-91.1441
 21
619.197
  0
LINE
  8
0
 10
-91.1441
 20
619.197
 11
-91.3611
 21
619.355
  0
LINE
  8
0
 10
-91.3611
 20
619.355
 11
-91.5566
 21
619.538
  0
LINE
  8
0
 10
-91.5566
 20
619.538
 11
-91.7275
 21
619.745
  0
LINE
  8
0
 10
-91.7275
 20
619.745
 11
-91.8712
 21
619.971
  0
LINE
  8
0
 10
-91.8712
 20
619.971
 11
-91.9853
 21
620.214
  0
LINE
  8
0
 10
-91.9853
 20
620.214
 11
-92.0682
 21
620.469
  0
LINE
  8
0
 10
-92.0682
 20
620.469
 11
-92.1185
 21
620.732
  0
LINE
  8
0
 10
-92.1185
 20
620.732
 11
-92.1353
 21
621
  0
LINE
  8
0
 10
-92.1353
 20
621
 11
-92.1185
 21
621.268
  0
LINE
  8
0
 10
-92.1185
 20
621.268
 11
-92.0682
 21
621.531
  0
LINE
  8
0
 10
-92.0682
 20
621.531
 11
-91.9853
 21
621.786
  0
LINE
  8
0
 10
-91.9853
 20
621.786
 11
-91.8712
 21
622.029
  0
LINE
  8
0
 10
-91.8712
 20
622.029
 11
-91.7275
 21
622.255
  0
LINE
  8
0
 10
-91.7275
 20
622.255
 11
-91.5566
 21
622.462
  0
LINE
  8
0
 10
-91.5566
 20
622.462
 11
-91.3611
 21
622.645
  0
LINE
  8
0
 10
-91.3611
 20
622.645
 11
-91.1441
 21
622.803
  0
LINE
  8
0
 10
-91.1441
 20
622.803
 11
-90.9092
 21
622.932
  0
LINE
  8
0
 10
-90.9092
 20
622.932
 11
-90.6598
 21
623.031
  0
LINE
  8
0
 10
-90.6598
 20
623.031
 11
-90.4001
 21
623.097
  0
LINE
  8
0
 10
-90.4001
 20
623.097
 11
-90.1341
 21
623.131
  0
LINE
  8
0
 10
-90.1341
 20
623.131
 11
-89.8659
 21
623.131
  0
LINE
  8
0
 10
-89.8659
 20
623.131
 11
-89.5999
 21
623.097
  0
LINE
  8
0
 10
-89.5999
 20
623.097
 11
-89.3401
 21
623.031
  0
LINE
  8
0
 10
-89.3401
 20
623.031
 11
-89.0908
 21
622.932
  0
LINE
  8
0
 10
-89.0908
 20
622.932
 11
-88.8559
 21
622.803
  0
LINE
  8
0
 10
-88.8559
 20
622.803
 11
-88.6389
 21
622.645
  0
LINE
  8
0
 10
-88.6389
 20
622.645
 11
-88.4434
 21
622.462
  0
LINE
  8
0
 10
-88.4434
 20
622.462
 11
-88.2725
 21
622.255
  0
LINE
  8
0
 10
-88.2725
 20
622.255
 11
-88.1288
 21
622.029
  0
LINE
  8
0
 10
-88.1288
 20
622.029
 11
-88.0146
 21
621.786
  0
LINE
  8
0
 10
-88.0146
 20
621.786
 11
-87.9318
 21
621.531
  0
LINE
  8
0
 10
-87.9318
 20
621.531
 11
-87.8815
 21
621.268
  0
LINE
  8
0
 10
-87.8815
 20
621.268
 11
-87.8647
 21
621
  0
LINE
  8
0
 10
-87.8647
 20
621
 11
-87.8815
 21
620.732
  0
LINE
  8
0
 10
-87.8815
 20
620.732
 11
-87.9318
 21
620.469
  0
LINE
  8
0
 10
-87.9318
 20
620.469
 11
-88.0146
 21
620.214
  0
LINE
  8
0
 10
-88.0146
 20
620.214
 11
-88.1288
 21
619.971
  0
LINE
  8
0
 10
-88.1288
 20
619.971
 11
-88.2725
 21
619.745
  0
LINE
  8
0
 10
-88.2725
 20
619.745
 11
-88.4434
 21
619.538
  0
LINE
  8
0
 10
-88.4434
 20
619.538
 11
-88.6389
 21
619.355
  0
LINE
  8
0
 10
-88.6389
 20
619.355
 11
-88.8559
 21
619.197
  0
LINE
  8
0
 10
-88.8559
 20
619.197
 11
-89.0908
 21
619.068
  0
LINE
  8
0
 10
-89.0908
 20
619.068
 11
-89.3401
 21
618.969
  0
LINE
  8
0
 10
-89.3401
 20
618.969
 11
-89.5999
 21
618.903
  0
LINE
  8
0
 10
-89.5999
 20
618.903
 11
-89.8659
 21
618.869
  0
LINE
  8
0
 10
-89.8659
 20
618.869
 11
-90.1341
 21
618.869
  0
ENDSEC
  0
SECTION
  2
OBJECTS
  0
DICTIONARY
  0
ENDSEC
  0
EOF
