  0
SECTION
  2
BLOCKS
  0
ENDSEC
  0
SECTION
  2
ENTITIES
  0
LINE
  8
0
 10
55.9369
 20
1704.09
 11
56.5451
 21
1704.24
  0
LINE
  8
0
 10
56.5451
 20
1704.24
 11
57.1289
 21
1704.48
  0
LINE
  8
0
 10
57.1289
 20
1704.48
 11
57.6791
 21
1704.78
  0
LINE
  8
0
 10
57.6791
 20
1704.78
 11
58.1871
 21
1705.15
  0
LINE
  8
0
 10
58.1871
 20
1705.15
 11
58.6448
 21
1705.58
  0
LINE
  8
0
 10
58.6448
 20
1705.58
 11
59.0451
 21
1706.06
  0
LINE
  8
0
 10
59.0451
 20
1706.06
 11
59.3815
 21
1706.59
  0
LINE
  8
0
 10
59.3815
 20
1706.59
 11
59.6489
 21
1707.16
  0
LINE
  8
0
 10
59.6489
 20
1707.16
 11
59.8429
 21
1707.76
  0
LINE
  8
0
 10
59.8429
 20
1707.76
 11
59.9606
 21
1708.37
  0
LINE
  8
0
 10
59.9606
 20
1708.37
 11
60
 21
1709
  0
LINE
  8
0
 10
60
 20
1709
 11
60
 21
1999
  0
LINE
  8
0
 10
60
 20
1999
 11
59.9606
 21
1999.63
  0
LINE
  8
0
 10
59.9606
 20
1999.63
 11
59.8429
 21
2000.24
  0
LINE
  8
0
 10
59.8429
 20
2000.24
 11
59.6489
 21
2000.84
  0
LINE
  8
0
 10
59.6489
 20
2000.84
 11
59.3815
 21
2001.41
  0
LINE
  8
0
 10
59.3815
 20
2001.41
 11
59.0451
 21
2001.94
  0
LINE
  8
0
 10
59.0451
 20
2001.94
 11
58.6448
 21
2002.42
  0
LINE
  8
0
 10
58.6448
 20
2002.42
 11
58.1871
 21
2002.85
  0
LINE
  8
0
 10
58.1871
 20
2002.85
 11
57.6791
 21
2003.22
  0
LINE
  8
0
 10
57.6791
 20
2003.22
 11
57.1289
 21
2003.52
  0
LINE
  8
0
 10
57.1289
 20
2003.52
 11
56.5451
 21
2003.76
  0
LINE
  8
0
 10
56.5451
 20
2003.76
 11
55.9369
 21
2003.91
  0
LINE
  8
0
 10
55.9369
 20
2003.91
 11
55.3139
 21
2003.99
  0
LINE
  8
0
 10
55.3139
 20
2003.99
 11
-55.3139
 21
2003.99
  0
LINE
  8
0
 10
-55.3139
 20
2003.99
 11
-55.9369
 21
2003.91
  0
LINE
  8
0
 10
-55.9369
 20
2003.91
 11
-56.5451
 21
2003.76
  0
LINE
  8
0
 10
-56.5451
 20
2003.76
 11
-57.1289
 21
2003.52
  0
LINE
  8
0
 10
-57.1289
 20
2003.52
 11
-57.6791
 21
2003.22
  0
LINE
  8
0
 10
-57.6791
 20
2003.22
 11
-58.1871
 21
2002.85
  0
LINE
  8
0
 10
-58.1871
 20
2002.85
 11
-58.6448
 21
2002.42
  0
LINE
  8
0
 10
-58.6448
 20
2002.42
 11
-59.0451
 21
2001.94
  0
LINE
  8
0
 10
-59.0451
 20
2001.94
 11
-59.3815
 21
2001.41
  0
LINE
  8
0
 10
-59.3815
 20
2001.41
 11
-59.6489
 21
2000.84
  0
LINE
  8
0
 10
-59.6489
 20
2000.84
 11
-59.8429
 21
2000.24
  0
LINE
  8
0
 10
-59.8429
 20
2000.24
 11
-59.9606
 21
1999.63
  0
LINE
  8
0
 10
-59.9606
 20
1999.63
 11
-60
 21
1999
  0
LINE
  8
0
 10
-60
 20
1999
 11
-60
 21
1709
  0
LINE
  8
0
 10
-60
 20
1709
 11
-59.9606
 21
1708.37
  0
LINE
  8
0
 10
-59.9606
 20
1708.37
 11
-59.8429
 21
1707.76
  0
LINE
  8
0
 10
-59.8429
 20
1707.76
 11
-59.6489
 21
1707.16
  0
LINE
  8
0
 10
-59.6489
 20
1707.16
 11
-59.3815
 21
1706.59
  0
LINE
  8
0
 10
-59.3815
 20
1706.59
 11
-59.0451
 21
1706.06
  0
LINE
  8
0
 10
-59.0451
 20
1706.06
 11
-58.6448
 21
1705.58
  0
LINE
  8
0
 10
-58.6448
 20
1705.58
 11
-58.1871
 21
1705.15
  0
LINE
  8
0
 10
-58.1871
 20
1705.15
 11
-57.6791
 21
1704.78
  0
LINE
  8
0
 10
-57.6791
 20
1704.78
 11
-57.1289
 21
1704.48
  0
LINE
  8
0
 10
-57.1289
 20
1704.48
 11
-56.5451
 21
1704.24
  0
LINE
  8
0
 10
-56.5451
 20
1704.24
 11
-55.9369
 21
1704.09
  0
LINE
  8
0
 10
-55.9369
 20
1704.09
 11
-55.3139
 21
1704.01
  0
LINE
  8
0
 10
-55.3139
 20
1704.01
 11
55.3139
 21
1704.01
  0
LINE
  8
0
 10
55.3139
 20
1704.01
 11
55.9369
 21
1704.09
  0
LINE
  8
0
 10
-54.7512
 20
1705.51
 11
-55.2495
 21
1705.57
  0
LINE
  8
0
 10
-55.2495
 20
1705.57
 11
-55.7361
 21
1705.7
  0
LINE
  8
0
 10
-55.7361
 20
1705.7
 11
-56.2031
 21
1705.88
  0
LINE
  8
0
 10
-56.2031
 20
1705.88
 11
-56.6433
 21
1706.12
  0
LINE
  8
0
 10
-56.6433
 20
1706.12
 11
-57.0497
 21
1706.42
  0
LINE
  8
0
 10
-57.0497
 20
1706.42
 11
-57.4159
 21
1706.76
  0
LINE
  8
0
 10
-57.4159
 20
1706.76
 11
-57.7361
 21
1707.15
  0
LINE
  8
0
 10
-57.7361
 20
1707.15
 11
-58.0052
 21
1707.57
  0
LINE
  8
0
 10
-58.0052
 20
1707.57
 11
-58.2191
 21
1708.03
  0
LINE
  8
0
 10
-58.2191
 20
1708.03
 11
-58.3743
 21
1708.51
  0
LINE
  8
0
 10
-58.3743
 20
1708.51
 11
-58.4685
 21
1709
  0
LINE
  8
0
 10
-58.4685
 20
1709
 11
-58.5
 21
1709.5
  0
LINE
  8
0
 10
-58.5
 20
1709.5
 11
-58.5
 21
1998.5
  0
LINE
  8
0
 10
-58.5
 20
1998.5
 11
-58.4685
 21
1999
  0
LINE
  8
0
 10
-58.4685
 20
1999
 11
-58.3743
 21
1999.49
  0
LINE
  8
0
 10
-58.3743
 20
1999.49
 11
-58.2191
 21
1999.97
  0
LINE
  8
0
 10
-58.2191
 20
1999.97
 11
-58.0052
 21
2000.43
  0
LINE
  8
0
 10
-58.0052
 20
2000.43
 11
-57.7361
 21
2000.85
  0
LINE
  8
0
 10
-57.7361
 20
2000.85
 11
-57.4159
 21
2001.24
  0
LINE
  8
0
 10
-57.4159
 20
2001.24
 11
-57.0497
 21
2001.58
  0
LINE
  8
0
 10
-57.0497
 20
2001.58
 11
-56.6433
 21
2001.88
  0
LINE
  8
0
 10
-56.6433
 20
2001.88
 11
-56.2031
 21
2002.12
  0
LINE
  8
0
 10
-56.2031
 20
2002.12
 11
-55.7361
 21
2002.3
  0
LINE
  8
0
 10
-55.7361
 20
2002.3
 11
-55.2495
 21
2002.43
  0
LINE
  8
0
 10
-55.2495
 20
2002.43
 11
-54.7512
 21
2002.49
  0
LINE
  8
0
 10
-54.7512
 20
2002.49
 11
54.7512
 21
2002.49
  0
LINE
  8
0
 10
54.7512
 20
2002.49
 11
55.2495
 21
2002.43
  0
LINE
  8
0
 10
55.2495
 20
2002.43
 11
55.7361
 21
2002.3
  0
LINE
  8
0
 10
55.7361
 20
2002.3
 11
56.2031
 21
2002.12
  0
LINE
  8
0
 10
56.2031
 20
2002.12
 11
56.6433
 21
2001.88
  0
LINE
  8
0
 10
56.6433
 20
2001.88
 11
57.0497
 21
2001.58
  0
LINE
  8
0
 10
57.0497
 20
2001.58
 11
57.4159
 21
2001.24
  0
LINE
  8
0
 10
57.4159
 20
2001.24
 11
57.7361
 21
2000.85
  0
LINE
  8
0
 10
57.7361
 20
2000.85
 11
58.0052
 21
2000.43
  0
LINE
  8
0
 10
58.0052
 20
2000.43
 11
58.2191
 21
1999.97
  0
LINE
  8
0
 10
58.2191
 20
1999.97
 11
58.3743
 21
1999.49
  0
LINE
  8
0
 10
58.3743
 20
1999.49
 11
58.4685
 21
1999
  0
LINE
  8
0
 10
58.4685
 20
1999
 11
58.5
 21
1998.5
  0
LINE
  8
0
 10
58.5
 20
1998.5
 11
58.5
 21
1709.5
  0
LINE
  8
0
 10
58.5
 20
1709.5
 11
58.4685
 21
1709
  0
LINE
  8
0
 10
58.4685
 20
1709
 11
58.3743
 21
1708.51
  0
LINE
  8
0
 10
58.3743
 20
1708.51
 11
58.2191
 21
1708.03
  0
LINE
  8
0
 10
58.2191
 20
1708.03
 11
58.0052
 21
1707.57
  0
LINE
  8
0
 10
58.0052
 20
1707.57
 11
57.7361
 21
1707.15
  0
LINE
  8
0
 10
57.7361
 20
1707.15
 11
57.4159
 21
1706.76
  0
LINE
  8
0
 10
57.4159
 20
1706.76
 11
57.0497
 21
1706.42
  0
LINE
  8
0
 10
57.0497
 20
1706.42
 11
56.6433
 21
1706.12
  0
LINE
  8
0
 10
56.6433
 20
1706.12
 11
56.2031
 21
1705.88
  0
LINE
  8
0
 10
56.2031
 20
1705.88
 11
55.7361
 21
1705.7
  0
LINE
  8
0
 10
55.7361
 20
1705.7
 11
55.2495
 21
1705.57
  0
LINE
  8
0
 10
55.2495
 20
1705.57
 11
54.7512
 21
1705.51
  0
LINE
  8
0
 10
54.7512
 20
1705.51
 11
-54.7512
 21
1705.51
  0
LINE
  8
0
 10
55.9369
 20
1395.09
 11
56.5451
 21
1395.24
  0
LINE
  8
0
 10
56.5451
 20
1395.24
 11
57.1289
 21
1395.48
  0
LINE
  8
0
 10
57.1289
 20
1395.48
 11
57.6791
 21
1395.78
  0
LINE
  8
0
 10
57.6791
 20
1395.78
 11
58.1871
 21
1396.15
  0
LINE
  8
0
 10
58.1871
 20
1396.15
 11
58.6448
 21
1396.58
  0
LINE
  8
0
 10
58.6448
 20
1396.58
 11
59.0451
 21
1397.06
  0
LINE
  8
0
 10
59.0451
 20
1397.06
 11
59.3815
 21
1397.59
  0
LINE
  8
0
 10
59.3815
 20
1397.59
 11
59.6489
 21
1398.16
  0
LINE
  8
0
 10
59.6489
 20
1398.16
 11
59.8429
 21
1398.76
  0
LINE
  8
0
 10
59.8429
 20
1398.76
 11
59.9606
 21
1399.37
  0
LINE
  8
0
 10
59.9606
 20
1399.37
 11
60
 21
1400
  0
LINE
  8
0
 10
60
 20
1400
 11
60
 21
1690
  0
LINE
  8
0
 10
60
 20
1690
 11
59.9606
 21
1690.63
  0
LINE
  8
0
 10
59.9606
 20
1690.63
 11
59.8429
 21
1691.24
  0
LINE
  8
0
 10
59.8429
 20
1691.24
 11
59.6489
 21
1691.84
  0
LINE
  8
0
 10
59.6489
 20
1691.84
 11
59.3815
 21
1692.41
  0
LINE
  8
0
 10
59.3815
 20
1692.41
 11
59.0451
 21
1692.94
  0
LINE
  8
0
 10
59.0451
 20
1692.94
 11
58.6448
 21
1693.42
  0
LINE
  8
0
 10
58.6448
 20
1693.42
 11
58.1871
 21
1693.85
  0
LINE
  8
0
 10
58.1871
 20
1693.85
 11
57.6791
 21
1694.22
  0
LINE
  8
0
 10
57.6791
 20
1694.22
 11
57.1289
 21
1694.52
  0
LINE
  8
0
 10
57.1289
 20
1694.52
 11
56.5451
 21
1694.76
  0
LINE
  8
0
 10
56.5451
 20
1694.76
 11
55.9369
 21
1694.91
  0
LINE
  8
0
 10
55.9369
 20
1694.91
 11
55.3139
 21
1694.99
  0
LINE
  8
0
 10
55.3139
 20
1694.99
 11
-55.3139
 21
1694.99
  0
LINE
  8
0
 10
-55.3139
 20
1694.99
 11
-55.9369
 21
1694.91
  0
LINE
  8
0
 10
-55.9369
 20
1694.91
 11
-56.5451
 21
1694.76
  0
LINE
  8
0
 10
-56.5451
 20
1694.76
 11
-57.1289
 21
1694.52
  0
LINE
  8
0
 10
-57.1289
 20
1694.52
 11
-57.6791
 21
1694.22
  0
LINE
  8
0
 10
-57.6791
 20
1694.22
 11
-58.1871
 21
1693.85
  0
LINE
  8
0
 10
-58.1871
 20
1693.85
 11
-58.6448
 21
1693.42
  0
LINE
  8
0
 10
-58.6448
 20
1693.42
 11
-59.0451
 21
1692.94
  0
LINE
  8
0
 10
-59.0451
 20
1692.94
 11
-59.3815
 21
1692.41
  0
LINE
  8
0
 10
-59.3815
 20
1692.41
 11
-59.6489
 21
1691.84
  0
LINE
  8
0
 10
-59.6489
 20
1691.84
 11
-59.8429
 21
1691.24
  0
LINE
  8
0
 10
-59.8429
 20
1691.24
 11
-59.9606
 21
1690.63
  0
LINE
  8
0
 10
-59.9606
 20
1690.63
 11
-60
 21
1690
  0
LINE
  8
0
 10
-60
 20
1690
 11
-60
 21
1400
  0
LINE
  8
0
 10
-60
 20
1400
 11
-59.9606
 21
1399.37
  0
LINE
  8
0
 10
-59.9606
 20
1399.37
 11
-59.8429
 21
1398.76
  0
LINE
  8
0
 10
-59.8429
 20
1398.76
 11
-59.6489
 21
1398.16
  0
LINE
  8
0
 10
-59.6489
 20
1398.16
 11
-59.3815
 21
1397.59
  0
LINE
  8
0
 10
-59.3815
 20
1397.59
 11
-59.0451
 21
1397.06
  0
LINE
  8
0
 10
-59.0451
 20
1397.06
 11
-58.6448
 21
1396.58
  0
LINE
  8
0
 10
-58.6448
 20
1396.58
 11
-58.1871
 21
1396.15
  0
LINE
  8
0
 10
-58.1871
 20
1396.15
 11
-57.6791
 21
1395.78
  0
LINE
  8
0
 10
-57.6791
 20
1395.78
 11
-57.1289
 21
1395.48
  0
LINE
  8
0
 10
-57.1289
 20
1395.48
 11
-56.5451
 21
1395.24
  0
LINE
  8
0
 10
-56.5451
 20
1395.24
 11
-55.9369
 21
1395.09
  0
LINE
  8
0
 10
-55.9369
 20
1395.09
 11
-55.3139
 21
1395.01
  0
LINE
  8
0
 10
-55.3139
 20
1395.01
 11
55.3139
 21
1395.01
  0
LINE
  8
0
 10
55.3139
 20
1395.01
 11
55.9369
 21
1395.09
  0
LINE
  8
0
 10
-54.7432
 20
1396.64
 11
-55.2256
 21
1396.7
  0
LINE
  8
0
 10
-55.2256
 20
1396.7
 11
-55.6967
 21
1396.82
  0
LINE
  8
0
 10
-55.6967
 20
1396.82
 11
-56.1489
 21
1397
  0
LINE
  8
0
 10
-56.1489
 20
1397
 11
-56.5751
 21
1397.23
  0
LINE
  8
0
 10
-56.5751
 20
1397.23
 11
-56.9685
 21
1397.52
  0
LINE
  8
0
 10
-56.9685
 20
1397.52
 11
-57.323
 21
1397.85
  0
LINE
  8
0
 10
-57.323
 20
1397.85
 11
-57.633
 21
1398.22
  0
LINE
  8
0
 10
-57.633
 20
1398.22
 11
-57.8936
 21
1398.63
  0
LINE
  8
0
 10
-57.8936
 20
1398.63
 11
-58.1007
 21
1399.07
  0
LINE
  8
0
 10
-58.1007
 20
1399.07
 11
-58.251
 21
1399.54
  0
LINE
  8
0
 10
-58.251
 20
1399.54
 11
-58.3421
 21
1400.01
  0
LINE
  8
0
 10
-58.3421
 20
1400.01
 11
-58.3726
 21
1400.5
  0
LINE
  8
0
 10
-58.3726
 20
1400.5
 11
-58.3726
 21
1689.5
  0
LINE
  8
0
 10
-58.3726
 20
1689.5
 11
-58.3421
 21
1689.99
  0
LINE
  8
0
 10
-58.3421
 20
1689.99
 11
-58.251
 21
1690.46
  0
LINE
  8
0
 10
-58.251
 20
1690.46
 11
-58.1007
 21
1690.93
  0
LINE
  8
0
 10
-58.1007
 20
1690.93
 11
-57.8936
 21
1691.37
  0
LINE
  8
0
 10
-57.8936
 20
1691.37
 11
-57.633
 21
1691.78
  0
LINE
  8
0
 10
-57.633
 20
1691.78
 11
-57.323
 21
1692.15
  0
LINE
  8
0
 10
-57.323
 20
1692.15
 11
-56.9685
 21
1692.48
  0
LINE
  8
0
 10
-56.9685
 20
1692.48
 11
-56.5751
 21
1692.77
  0
LINE
  8
0
 10
-56.5751
 20
1692.77
 11
-56.1489
 21
1693
  0
LINE
  8
0
 10
-56.1489
 20
1693
 11
-55.6967
 21
1693.18
  0
LINE
  8
0
 10
-55.6967
 20
1693.18
 11
-55.2256
 21
1693.3
  0
LINE
  8
0
 10
-55.2256
 20
1693.3
 11
-54.7432
 21
1693.36
  0
LINE
  8
0
 10
-54.7432
 20
1693.36
 11
54.7432
 21
1693.36
  0
LINE
  8
0
 10
54.7432
 20
1693.36
 11
55.2256
 21
1693.3
  0
LINE
  8
0
 10
55.2256
 20
1693.3
 11
55.6967
 21
1693.18
  0
LINE
  8
0
 10
55.6967
 20
1693.18
 11
56.1489
 21
1693
  0
LINE
  8
0
 10
56.1489
 20
1693
 11
56.5751
 21
1692.77
  0
LINE
  8
0
 10
56.5751
 20
1692.77
 11
56.9685
 21
1692.48
  0
LINE
  8
0
 10
56.9685
 20
1692.48
 11
57.323
 21
1692.15
  0
LINE
  8
0
 10
57.323
 20
1692.15
 11
57.633
 21
1691.78
  0
LINE
  8
0
 10
57.633
 20
1691.78
 11
57.8936
 21
1691.37
  0
LINE
  8
0
 10
57.8936
 20
1691.37
 11
58.1007
 21
1690.93
  0
LINE
  8
0
 10
58.1007
 20
1690.93
 11
58.251
 21
1690.46
  0
LINE
  8
0
 10
58.251
 20
1690.46
 11
58.3421
 21
1689.99
  0
LINE
  8
0
 10
58.3421
 20
1689.99
 11
58.3726
 21
1689.5
  0
LINE
  8
0
 10
58.3726
 20
1689.5
 11
58.3726
 21
1400.5
  0
LINE
  8
0
 10
58.3726
 20
1400.5
 11
58.3421
 21
1400.01
  0
LINE
  8
0
 10
58.3421
 20
1400.01
 11
58.251
 21
1399.54
  0
LINE
  8
0
 10
58.251
 20
1399.54
 11
58.1007
 21
1399.07
  0
LINE
  8
0
 10
58.1007
 20
1399.07
 11
57.8936
 21
1398.63
  0
LINE
  8
0
 10
57.8936
 20
1398.63
 11
57.633
 21
1398.22
  0
LINE
  8
0
 10
57.633
 20
1398.22
 11
57.323
 21
1397.85
  0
LINE
  8
0
 10
57.323
 20
1397.85
 11
56.9685
 21
1397.52
  0
LINE
  8
0
 10
56.9685
 20
1397.52
 11
56.5751
 21
1397.23
  0
LINE
  8
0
 10
56.5751
 20
1397.23
 11
56.1489
 21
1397
  0
LINE
  8
0
 10
56.1489
 20
1397
 11
55.6967
 21
1396.82
  0
LINE
  8
0
 10
55.6967
 20
1396.82
 11
55.2256
 21
1396.7
  0
LINE
  8
0
 10
55.2256
 20
1396.7
 11
54.7432
 21
1396.64
  0
LINE
  8
0
 10
54.7432
 20
1396.64
 11
-54.7432
 21
1396.64
  0
LINE
  8
0
 10
55.9369
 20
1086.09
 11
56.5451
 21
1086.24
  0
LINE
  8
0
 10
56.5451
 20
1086.24
 11
57.1289
 21
1086.48
  0
LINE
  8
0
 10
57.1289
 20
1086.48
 11
57.6791
 21
1086.78
  0
LINE
  8
0
 10
57.6791
 20
1086.78
 11
58.1871
 21
1087.15
  0
LINE
  8
0
 10
58.1871
 20
1087.15
 11
58.6448
 21
1087.58
  0
LINE
  8
0
 10
58.6448
 20
1087.58
 11
59.0451
 21
1088.06
  0
LINE
  8
0
 10
59.0451
 20
1088.06
 11
59.3815
 21
1088.59
  0
LINE
  8
0
 10
59.3815
 20
1088.59
 11
59.6489
 21
1089.16
  0
LINE
  8
0
 10
59.6489
 20
1089.16
 11
59.8429
 21
1089.76
  0
LINE
  8
0
 10
59.8429
 20
1089.76
 11
59.9606
 21
1090.37
  0
LINE
  8
0
 10
59.9606
 20
1090.37
 11
60
 21
1091
  0
LINE
  8
0
 10
60
 20
1091
 11
60
 21
1381
  0
LINE
  8
0
 10
60
 20
1381
 11
59.9606
 21
1381.63
  0
LINE
  8
0
 10
59.9606
 20
1381.63
 11
59.8429
 21
1382.24
  0
LINE
  8
0
 10
59.8429
 20
1382.24
 11
59.6489
 21
1382.84
  0
LINE
  8
0
 10
59.6489
 20
1382.84
 11
59.3815
 21
1383.41
  0
LINE
  8
0
 10
59.3815
 20
1383.41
 11
59.0451
 21
1383.94
  0
LINE
  8
0
 10
59.0451
 20
1383.94
 11
58.6448
 21
1384.42
  0
LINE
  8
0
 10
58.6448
 20
1384.42
 11
58.1871
 21
1384.85
  0
LINE
  8
0
 10
58.1871
 20
1384.85
 11
57.6791
 21
1385.22
  0
LINE
  8
0
 10
57.6791
 20
1385.22
 11
57.1289
 21
1385.52
  0
LINE
  8
0
 10
57.1289
 20
1385.52
 11
56.5451
 21
1385.76
  0
LINE
  8
0
 10
56.5451
 20
1385.76
 11
55.9369
 21
1385.91
  0
LINE
  8
0
 10
55.9369
 20
1385.91
 11
55.3139
 21
1385.99
  0
LINE
  8
0
 10
55.3139
 20
1385.99
 11
-55.3139
 21
1385.99
  0
LINE
  8
0
 10
-55.3139
 20
1385.99
 11
-55.9369
 21
1385.91
  0
LINE
  8
0
 10
-55.9369
 20
1385.91
 11
-56.5451
 21
1385.76
  0
LINE
  8
0
 10
-56.5451
 20
1385.76
 11
-57.1289
 21
1385.52
  0
LINE
  8
0
 10
-57.1289
 20
1385.52
 11
-57.6791
 21
1385.22
  0
LINE
  8
0
 10
-57.6791
 20
1385.22
 11
-58.1871
 21
1384.85
  0
LINE
  8
0
 10
-58.1871
 20
1384.85
 11
-58.6448
 21
1384.42
  0
LINE
  8
0
 10
-58.6448
 20
1384.42
 11
-59.0451
 21
1383.94
  0
LINE
  8
0
 10
-59.0451
 20
1383.94
 11
-59.3815
 21
1383.41
  0
LINE
  8
0
 10
-59.3815
 20
1383.41
 11
-59.6489
 21
1382.84
  0
LINE
  8
0
 10
-59.6489
 20
1382.84
 11
-59.8429
 21
1382.24
  0
LINE
  8
0
 10
-59.8429
 20
1382.24
 11
-59.9606
 21
1381.63
  0
LINE
  8
0
 10
-59.9606
 20
1381.63
 11
-60
 21
1381
  0
LINE
  8
0
 10
-60
 20
1381
 11
-60
 21
1091
  0
LINE
  8
0
 10
-60
 20
1091
 11
-59.9606
 21
1090.37
  0
LINE
  8
0
 10
-59.9606
 20
1090.37
 11
-59.8429
 21
1089.76
  0
LINE
  8
0
 10
-59.8429
 20
1089.76
 11
-59.6489
 21
1089.16
  0
LINE
  8
0
 10
-59.6489
 20
1089.16
 11
-59.3815
 21
1088.59
  0
LINE
  8
0
 10
-59.3815
 20
1088.59
 11
-59.0451
 21
1088.06
  0
LINE
  8
0
 10
-59.0451
 20
1088.06
 11
-58.6448
 21
1087.58
  0
LINE
  8
0
 10
-58.6448
 20
1087.58
 11
-58.1871
 21
1087.15
  0
LINE
  8
0
 10
-58.1871
 20
1087.15
 11
-57.6791
 21
1086.78
  0
LINE
  8
0
 10
-57.6791
 20
1086.78
 11
-57.1289
 21
1086.48
  0
LINE
  8
0
 10
-57.1289
 20
1086.48
 11
-56.5451
 21
1086.24
  0
LINE
  8
0
 10
-56.5451
 20
1086.24
 11
-55.9369
 21
1086.09
  0
LINE
  8
0
 10
-55.9369
 20
1086.09
 11
-55.3139
 21
1086.01
  0
LINE
  8
0
 10
-55.3139
 20
1086.01
 11
55.3139
 21
1086.01
  0
LINE
  8
0
 10
55.3139
 20
1086.01
 11
55.9369
 21
1086.09
  0
LINE
  8
0
 10
52.3493
 20
1376.1
 11
52.0503
 21
1376.14
  0
LINE
  8
0
 10
52.0503
 20
1376.14
 11
51.7584
 21
1376.22
  0
LINE
  8
0
 10
51.7584
 20
1376.22
 11
51.4781
 21
1376.33
  0
LINE
  8
0
 10
51.4781
 20
1376.33
 11
51.214
 21
1376.47
  0
LINE
  8
0
 10
51.214
 20
1376.47
 11
50.9702
 21
1376.65
  0
LINE
  8
0
 10
50.9702
 20
1376.65
 11
50.7505
 21
1376.86
  0
LINE
  8
0
 10
50.7505
 20
1376.86
 11
50.5583
 21
1377.09
  0
LINE
  8
0
 10
50.5583
 20
1377.09
 11
50.3969
 21
1377.34
  0
LINE
  8
0
 10
50.3969
 20
1377.34
 11
50.2685
 21
1377.62
  0
LINE
  8
0
 10
50.2685
 20
1377.62
 11
50.1754
 21
1377.9
  0
LINE
  8
0
 10
50.1754
 20
1377.9
 11
50.1189
 21
1378.2
  0
LINE
  8
0
 10
50.1189
 20
1378.2
 11
50.1
 21
1378.5
  0
LINE
  8
0
 10
50.1
 20
1378.5
 11
50.1189
 21
1378.8
  0
LINE
  8
0
 10
50.1189
 20
1378.8
 11
50.1754
 21
1379.1
  0
LINE
  8
0
 10
50.1754
 20
1379.1
 11
50.2685
 21
1379.38
  0
LINE
  8
0
 10
50.2685
 20
1379.38
 11
50.3969
 21
1379.66
  0
LINE
  8
0
 10
50.3969
 20
1379.66
 11
50.5583
 21
1379.91
  0
LINE
  8
0
 10
50.5583
 20
1379.91
 11
50.7505
 21
1380.14
  0
LINE
  8
0
 10
50.7505
 20
1380.14
 11
50.9702
 21
1380.35
  0
LINE
  8
0
 10
50.9702
 20
1380.35
 11
51.214
 21
1380.53
  0
LINE
  8
0
 10
51.214
 20
1380.53
 11
51.4781
 21
1380.67
  0
LINE
  8
0
 10
51.4781
 20
1380.67
 11
51.7584
 21
1380.78
  0
LINE
  8
0
 10
51.7584
 20
1380.78
 11
52.0503
 21
1380.86
  0
LINE
  8
0
 10
52.0503
 20
1380.86
 11
52.3493
 21
1380.9
  0
LINE
  8
0
 10
52.3493
 20
1380.9
 11
52.6507
 21
1380.9
  0
LINE
  8
0
 10
52.6507
 20
1380.9
 11
52.9497
 21
1380.86
  0
LINE
  8
0
 10
52.9497
 20
1380.86
 11
53.2416
 21
1380.78
  0
LINE
  8
0
 10
53.2416
 20
1380.78
 11
53.5219
 21
1380.67
  0
LINE
  8
0
 10
53.5219
 20
1380.67
 11
53.786
 21
1380.53
  0
LINE
  8
0
 10
53.786
 20
1380.53
 11
54.0298
 21
1380.35
  0
LINE
  8
0
 10
54.0298
 20
1380.35
 11
54.2495
 21
1380.14
  0
LINE
  8
0
 10
54.2495
 20
1380.14
 11
54.4416
 21
1379.91
  0
LINE
  8
0
 10
54.4416
 20
1379.91
 11
54.6031
 21
1379.66
  0
LINE
  8
0
 10
54.6031
 20
1379.66
 11
54.7315
 21
1379.38
  0
LINE
  8
0
 10
54.7315
 20
1379.38
 11
54.8246
 21
1379.1
  0
LINE
  8
0
 10
54.8246
 20
1379.1
 11
54.8811
 21
1378.8
  0
LINE
  8
0
 10
54.8811
 20
1378.8
 11
54.9
 21
1378.5
  0
LINE
  8
0
 10
54.9
 20
1378.5
 11
54.8811
 21
1378.2
  0
LINE
  8
0
 10
54.8811
 20
1378.2
 11
54.8246
 21
1377.9
  0
LINE
  8
0
 10
54.8246
 20
1377.9
 11
54.7315
 21
1377.62
  0
LINE
  8
0
 10
54.7315
 20
1377.62
 11
54.6031
 21
1377.34
  0
LINE
  8
0
 10
54.6031
 20
1377.34
 11
54.4416
 21
1377.09
  0
LINE
  8
0
 10
54.4416
 20
1377.09
 11
54.2495
 21
1376.86
  0
LINE
  8
0
 10
54.2495
 20
1376.86
 11
54.0298
 21
1376.65
  0
LINE
  8
0
 10
54.0298
 20
1376.65
 11
53.786
 21
1376.47
  0
LINE
  8
0
 10
53.786
 20
1376.47
 11
53.5219
 21
1376.33
  0
LINE
  8
0
 10
53.5219
 20
1376.33
 11
53.2416
 21
1376.22
  0
LINE
  8
0
 10
53.2416
 20
1376.22
 11
52.9497
 21
1376.14
  0
LINE
  8
0
 10
52.9497
 20
1376.14
 11
52.6507
 21
1376.1
  0
LINE
  8
0
 10
52.6507
 20
1376.1
 11
52.3493
 21
1376.1
  0
LINE
  8
0
 10
-52.6507
 20
1376.1
 11
-52.9497
 21
1376.14
  0
LINE
  8
0
 10
-52.9497
 20
1376.14
 11
-53.2416
 21
1376.22
  0
LINE
  8
0
 10
-53.2416
 20
1376.22
 11
-53.5219
 21
1376.33
  0
LINE
  8
0
 10
-53.5219
 20
1376.33
 11
-53.786
 21
1376.47
  0
LINE
  8
0
 10
-53.786
 20
1376.47
 11
-54.0298
 21
1376.65
  0
LINE
  8
0
 10
-54.0298
 20
1376.65
 11
-54.2495
 21
1376.86
  0
LINE
  8
0
 10
-54.2495
 20
1376.86
 11
-54.4416
 21
1377.09
  0
LINE
  8
0
 10
-54.4416
 20
1377.09
 11
-54.6031
 21
1377.34
  0
LINE
  8
0
 10
-54.6031
 20
1377.34
 11
-54.7315
 21
1377.62
  0
LINE
  8
0
 10
-54.7315
 20
1377.62
 11
-54.8246
 21
1377.9
  0
LINE
  8
0
 10
-54.8246
 20
1377.9
 11
-54.8811
 21
1378.2
  0
LINE
  8
0
 10
-54.8811
 20
1378.2
 11
-54.9
 21
1378.5
  0
LINE
  8
0
 10
-54.9
 20
1378.5
 11
-54.8811
 21
1378.8
  0
LINE
  8
0
 10
-54.8811
 20
1378.8
 11
-54.8246
 21
1379.1
  0
LINE
  8
0
 10
-54.8246
 20
1379.1
 11
-54.7315
 21
1379.38
  0
LINE
  8
0
 10
-54.7315
 20
1379.38
 11
-54.6031
 21
1379.66
  0
LINE
  8
0
 10
-54.6031
 20
1379.66
 11
-54.4416
 21
1379.91
  0
LINE
  8
0
 10
-54.4416
 20
1379.91
 11
-54.2495
 21
1380.14
  0
LINE
  8
0
 10
-54.2495
 20
1380.14
 11
-54.0298
 21
1380.35
  0
LINE
  8
0
 10
-54.0298
 20
1380.35
 11
-53.786
 21
1380.53
  0
LINE
  8
0
 10
-53.786
 20
1380.53
 11
-53.5219
 21
1380.67
  0
LINE
  8
0
 10
-53.5219
 20
1380.67
 11
-53.2416
 21
1380.78
  0
LINE
  8
0
 10
-53.2416
 20
1380.78
 11
-52.9497
 21
1380.86
  0
LINE
  8
0
 10
-52.9497
 20
1380.86
 11
-52.6507
 21
1380.9
  0
LINE
  8
0
 10
-52.6507
 20
1380.9
 11
-52.3493
 21
1380.9
  0
LINE
  8
0
 10
-52.3493
 20
1380.9
 11
-52.0503
 21
1380.86
  0
LINE
  8
0
 10
-52.0503
 20
1380.86
 11
-51.7584
 21
1380.78
  0
LINE
  8
0
 10
-51.7584
 20
1380.78
 11
-51.4781
 21
1380.67
  0
LINE
  8
0
 10
-51.4781
 20
1380.67
 11
-51.214
 21
1380.53
  0
LINE
  8
0
 10
-51.214
 20
1380.53
 11
-50.9702
 21
1380.35
  0
LINE
  8
0
 10
-50.9702
 20
1380.35
 11
-50.7505
 21
1380.14
  0
LINE
  8
0
 10
-50.7505
 20
1380.14
 11
-50.5583
 21
1379.91
  0
LINE
  8
0
 10
-50.5583
 20
1379.91
 11
-50.3969
 21
1379.66
  0
LINE
  8
0
 10
-50.3969
 20
1379.66
 11
-50.2685
 21
1379.38
  0
LINE
  8
0
 10
-50.2685
 20
1379.38
 11
-50.1754
 21
1379.1
  0
LINE
  8
0
 10
-50.1754
 20
1379.1
 11
-50.1189
 21
1378.8
  0
LINE
  8
0
 10
-50.1189
 20
1378.8
 11
-50.1
 21
1378.5
  0
LINE
  8
0
 10
-50.1
 20
1378.5
 11
-50.1189
 21
1378.2
  0
LINE
  8
0
 10
-50.1189
 20
1378.2
 11
-50.1754
 21
1377.9
  0
LINE
  8
0
 10
-50.1754
 20
1377.9
 11
-50.2685
 21
1377.62
  0
LINE
  8
0
 10
-50.2685
 20
1377.62
 11
-50.3969
 21
1377.34
  0
LINE
  8
0
 10
-50.3969
 20
1377.34
 11
-50.5583
 21
1377.09
  0
LINE
  8
0
 10
-50.5583
 20
1377.09
 11
-50.7505
 21
1376.86
  0
LINE
  8
0
 10
-50.7505
 20
1376.86
 11
-50.9702
 21
1376.65
  0
LINE
  8
0
 10
-50.9702
 20
1376.65
 11
-51.214
 21
1376.47
  0
LINE
  8
0
 10
-51.214
 20
1376.47
 11
-51.4781
 21
1376.33
  0
LINE
  8
0
 10
-51.4781
 20
1376.33
 11
-51.7584
 21
1376.22
  0
LINE
  8
0
 10
-51.7584
 20
1376.22
 11
-52.0503
 21
1376.14
  0
LINE
  8
0
 10
-52.0503
 20
1376.14
 11
-52.3493
 21
1376.1
  0
LINE
  8
0
 10
-52.3493
 20
1376.1
 11
-52.6507
 21
1376.1
  0
LINE
  8
0
 10
52.3493
 20
1091.1
 11
52.0503
 21
1091.14
  0
LINE
  8
0
 10
52.0503
 20
1091.14
 11
51.7584
 21
1091.22
  0
LINE
  8
0
 10
51.7584
 20
1091.22
 11
51.4781
 21
1091.33
  0
LINE
  8
0
 10
51.4781
 20
1091.33
 11
51.214
 21
1091.47
  0
LINE
  8
0
 10
51.214
 20
1091.47
 11
50.9702
 21
1091.65
  0
LINE
  8
0
 10
50.9702
 20
1091.65
 11
50.7505
 21
1091.86
  0
LINE
  8
0
 10
50.7505
 20
1091.86
 11
50.5583
 21
1092.09
  0
LINE
  8
0
 10
50.5583
 20
1092.09
 11
50.3969
 21
1092.34
  0
LINE
  8
0
 10
50.3969
 20
1092.34
 11
50.2685
 21
1092.62
  0
LINE
  8
0
 10
50.2685
 20
1092.62
 11
50.1754
 21
1092.9
  0
LINE
  8
0
 10
50.1754
 20
1092.9
 11
50.1189
 21
1093.2
  0
LINE
  8
0
 10
50.1189
 20
1093.2
 11
50.1
 21
1093.5
  0
LINE
  8
0
 10
50.1
 20
1093.5
 11
50.1189
 21
1093.8
  0
LINE
  8
0
 10
50.1189
 20
1093.8
 11
50.1754
 21
1094.1
  0
LINE
  8
0
 10
50.1754
 20
1094.1
 11
50.2685
 21
1094.38
  0
LINE
  8
0
 10
50.2685
 20
1094.38
 11
50.3969
 21
1094.66
  0
LINE
  8
0
 10
50.3969
 20
1094.66
 11
50.5583
 21
1094.91
  0
LINE
  8
0
 10
50.5583
 20
1094.91
 11
50.7505
 21
1095.14
  0
LINE
  8
0
 10
50.7505
 20
1095.14
 11
50.9702
 21
1095.35
  0
LINE
  8
0
 10
50.9702
 20
1095.35
 11
51.214
 21
1095.53
  0
LINE
  8
0
 10
51.214
 20
1095.53
 11
51.4781
 21
1095.67
  0
LINE
  8
0
 10
51.4781
 20
1095.67
 11
51.7584
 21
1095.78
  0
LINE
  8
0
 10
51.7584
 20
1095.78
 11
52.0503
 21
1095.86
  0
LINE
  8
0
 10
52.0503
 20
1095.86
 11
52.3493
 21
1095.9
  0
LINE
  8
0
 10
52.3493
 20
1095.9
 11
52.6507
 21
1095.9
  0
LINE
  8
0
 10
52.6507
 20
1095.9
 11
52.9497
 21
1095.86
  0
LINE
  8
0
 10
52.9497
 20
1095.86
 11
53.2416
 21
1095.78
  0
LINE
  8
0
 10
53.2416
 20
1095.78
 11
53.5219
 21
1095.67
  0
LINE
  8
0
 10
53.5219
 20
1095.67
 11
53.786
 21
1095.53
  0
LINE
  8
0
 10
53.786
 20
1095.53
 11
54.0298
 21
1095.35
  0
LINE
  8
0
 10
54.0298
 20
1095.35
 11
54.2495
 21
1095.14
  0
LINE
  8
0
 10
54.2495
 20
1095.14
 11
54.4416
 21
1094.91
  0
LINE
  8
0
 10
54.4416
 20
1094.91
 11
54.6031
 21
1094.66
  0
LINE
  8
0
 10
54.6031
 20
1094.66
 11
54.7315
 21
1094.38
  0
LINE
  8
0
 10
54.7315
 20
1094.38
 11
54.8246
 21
1094.1
  0
LINE
  8
0
 10
54.8246
 20
1094.1
 11
54.8811
 21
1093.8
  0
LINE
  8
0
 10
54.8811
 20
1093.8
 11
54.9
 21
1093.5
  0
LINE
  8
0
 10
54.9
 20
1093.5
 11
54.8811
 21
1093.2
  0
LINE
  8
0
 10
54.8811
 20
1093.2
 11
54.8246
 21
1092.9
  0
LINE
  8
0
 10
54.8246
 20
1092.9
 11
54.7315
 21
1092.62
  0
LINE
  8
0
 10
54.7315
 20
1092.62
 11
54.6031
 21
1092.34
  0
LINE
  8
0
 10
54.6031
 20
1092.34
 11
54.4416
 21
1092.09
  0
LINE
  8
0
 10
54.4416
 20
1092.09
 11
54.2495
 21
1091.86
  0
LINE
  8
0
 10
54.2495
 20
1091.86
 11
54.0298
 21
1091.65
  0
LINE
  8
0
 10
54.0298
 20
1091.65
 11
53.786
 21
1091.47
  0
LINE
  8
0
 10
53.786
 20
1091.47
 11
53.5219
 21
1091.33
  0
LINE
  8
0
 10
53.5219
 20
1091.33
 11
53.2416
 21
1091.22
  0
LINE
  8
0
 10
53.2416
 20
1091.22
 11
52.9497
 21
1091.14
  0
LINE
  8
0
 10
52.9497
 20
1091.14
 11
52.6507
 21
1091.1
  0
LINE
  8
0
 10
52.6507
 20
1091.1
 11
52.3493
 21
1091.1
  0
LINE
  8
0
 10
-52.6507
 20
1091.1
 11
-52.9497
 21
1091.14
  0
LINE
  8
0
 10
-52.9497
 20
1091.14
 11
-53.2416
 21
1091.22
  0
LINE
  8
0
 10
-53.2416
 20
1091.22
 11
-53.5219
 21
1091.33
  0
LINE
  8
0
 10
-53.5219
 20
1091.33
 11
-53.786
 21
1091.47
  0
LINE
  8
0
 10
-53.786
 20
1091.47
 11
-54.0298
 21
1091.65
  0
LINE
  8
0
 10
-54.0298
 20
1091.65
 11
-54.2495
 21
1091.86
  0
LINE
  8
0
 10
-54.2495
 20
1091.86
 11
-54.4416
 21
1092.09
  0
LINE
  8
0
 10
-54.4416
 20
1092.09
 11
-54.6031
 21
1092.34
  0
LINE
  8
0
 10
-54.6031
 20
1092.34
 11
-54.7315
 21
1092.62
  0
LINE
  8
0
 10
-54.7315
 20
1092.62
 11
-54.8246
 21
1092.9
  0
LINE
  8
0
 10
-54.8246
 20
1092.9
 11
-54.8811
 21
1093.2
  0
LINE
  8
0
 10
-54.8811
 20
1093.2
 11
-54.9
 21
1093.5
  0
LINE
  8
0
 10
-54.9
 20
1093.5
 11
-54.8811
 21
1093.8
  0
LINE
  8
0
 10
-54.8811
 20
1093.8
 11
-54.8246
 21
1094.1
  0
LINE
  8
0
 10
-54.8246
 20
1094.1
 11
-54.7315
 21
1094.38
  0
LINE
  8
0
 10
-54.7315
 20
1094.38
 11
-54.6031
 21
1094.66
  0
LINE
  8
0
 10
-54.6031
 20
1094.66
 11
-54.4416
 21
1094.91
  0
LINE
  8
0
 10
-54.4416
 20
1094.91
 11
-54.2495
 21
1095.14
  0
LINE
  8
0
 10
-54.2495
 20
1095.14
 11
-54.0298
 21
1095.35
  0
LINE
  8
0
 10
-54.0298
 20
1095.35
 11
-53.786
 21
1095.53
  0
LINE
  8
0
 10
-53.786
 20
1095.53
 11
-53.5219
 21
1095.67
  0
LINE
  8
0
 10
-53.5219
 20
1095.67
 11
-53.2416
 21
1095.78
  0
LINE
  8
0
 10
-53.2416
 20
1095.78
 11
-52.9497
 21
1095.86
  0
LINE
  8
0
 10
-52.9497
 20
1095.86
 11
-52.6507
 21
1095.9
  0
LINE
  8
0
 10
-52.6507
 20
1095.9
 11
-52.3493
 21
1095.9
  0
LINE
  8
0
 10
-52.3493
 20
1095.9
 11
-52.0503
 21
1095.86
  0
LINE
  8
0
 10
-52.0503
 20
1095.86
 11
-51.7584
 21
1095.78
  0
LINE
  8
0
 10
-51.7584
 20
1095.78
 11
-51.4781
 21
1095.67
  0
LINE
  8
0
 10
-51.4781
 20
1095.67
 11
-51.214
 21
1095.53
  0
LINE
  8
0
 10
-51.214
 20
1095.53
 11
-50.9702
 21
1095.35
  0
LINE
  8
0
 10
-50.9702
 20
1095.35
 11
-50.7505
 21
1095.14
  0
LINE
  8
0
 10
-50.7505
 20
1095.14
 11
-50.5583
 21
1094.91
  0
LINE
  8
0
 10
-50.5583
 20
1094.91
 11
-50.3969
 21
1094.66
  0
LINE
  8
0
 10
-50.3969
 20
1094.66
 11
-50.2685
 21
1094.38
  0
LINE
  8
0
 10
-50.2685
 20
1094.38
 11
-50.1754
 21
1094.1
  0
LINE
  8
0
 10
-50.1754
 20
1094.1
 11
-50.1189
 21
1093.8
  0
LINE
  8
0
 10
-50.1189
 20
1093.8
 11
-50.1
 21
1093.5
  0
LINE
  8
0
 10
-50.1
 20
1093.5
 11
-50.1189
 21
1093.2
  0
LINE
  8
0
 10
-50.1189
 20
1093.2
 11
-50.1754
 21
1092.9
  0
LINE
  8
0
 10
-50.1754
 20
1092.9
 11
-50.2685
 21
1092.62
  0
LINE
  8
0
 10
-50.2685
 20
1092.62
 11
-50.3969
 21
1092.34
  0
LINE
  8
0
 10
-50.3969
 20
1092.34
 11
-50.5583
 21
1092.09
  0
LINE
  8
0
 10
-50.5583
 20
1092.09
 11
-50.7505
 21
1091.86
  0
LINE
  8
0
 10
-50.7505
 20
1091.86
 11
-50.9702
 21
1091.65
  0
LINE
  8
0
 10
-50.9702
 20
1091.65
 11
-51.214
 21
1091.47
  0
LINE
  8
0
 10
-51.214
 20
1091.47
 11
-51.4781
 21
1091.33
  0
LINE
  8
0
 10
-51.4781
 20
1091.33
 11
-51.7584
 21
1091.22
  0
LINE
  8
0
 10
-51.7584
 20
1091.22
 11
-52.0503
 21
1091.14
  0
LINE
  8
0
 10
-52.0503
 20
1091.14
 11
-52.3493
 21
1091.1
  0
LINE
  8
0
 10
-52.3493
 20
1091.1
 11
-52.6507
 21
1091.1
  0
LINE
  8
0
 10
55.9369
 20
777.089
 11
56.5451
 21
777.245
  0
LINE
  8
0
 10
56.5451
 20
777.245
 11
57.1289
 21
777.476
  0
LINE
  8
0
 10
57.1289
 20
777.476
 11
57.6791
 21
777.778
  0
LINE
  8
0
 10
57.6791
 20
777.778
 11
58.1871
 21
778.147
  0
LINE
  8
0
 10
58.1871
 20
778.147
 11
58.6448
 21
778.577
  0
LINE
  8
0
 10
58.6448
 20
778.577
 11
59.0451
 21
779.061
  0
LINE
  8
0
 10
59.0451
 20
779.061
 11
59.3815
 21
779.591
  0
LINE
  8
0
 10
59.3815
 20
779.591
 11
59.6489
 21
780.159
  0
LINE
  8
0
 10
59.6489
 20
780.159
 11
59.8429
 21
780.757
  0
LINE
  8
0
 10
59.8429
 20
780.757
 11
59.9606
 21
781.373
  0
LINE
  8
0
 10
59.9606
 20
781.373
 11
60
 21
782
  0
LINE
  8
0
 10
60
 20
782
 11
60
 21
1072
  0
LINE
  8
0
 10
60
 20
1072
 11
59.9606
 21
1072.63
  0
LINE
  8
0
 10
59.9606
 20
1072.63
 11
59.8429
 21
1073.24
  0
LINE
  8
0
 10
59.8429
 20
1073.24
 11
59.6489
 21
1073.84
  0
LINE
  8
0
 10
59.6489
 20
1073.84
 11
59.3815
 21
1074.41
  0
LINE
  8
0
 10
59.3815
 20
1074.41
 11
59.0451
 21
1074.94
  0
LINE
  8
0
 10
59.0451
 20
1074.94
 11
58.6448
 21
1075.42
  0
LINE
  8
0
 10
58.6448
 20
1075.42
 11
58.1871
 21
1075.85
  0
LINE
  8
0
 10
58.1871
 20
1075.85
 11
57.6791
 21
1076.22
  0
LINE
  8
0
 10
57.6791
 20
1076.22
 11
57.1289
 21
1076.52
  0
LINE
  8
0
 10
57.1289
 20
1076.52
 11
56.5451
 21
1076.76
  0
LINE
  8
0
 10
56.5451
 20
1076.76
 11
55.9369
 21
1076.91
  0
LINE
  8
0
 10
55.9369
 20
1076.91
 11
55.3139
 21
1076.99
  0
LINE
  8
0
 10
55.3139
 20
1076.99
 11
-55.3139
 21
1076.99
  0
LINE
  8
0
 10
-55.3139
 20
1076.99
 11
-55.9369
 21
1076.91
  0
LINE
  8
0
 10
-55.9369
 20
1076.91
 11
-56.5451
 21
1076.76
  0
LINE
  8
0
 10
-56.5451
 20
1076.76
 11
-57.1289
 21
1076.52
  0
LINE
  8
0
 10
-57.1289
 20
1076.52
 11
-57.6791
 21
1076.22
  0
LINE
  8
0
 10
-57.6791
 20
1076.22
 11
-58.1871
 21
1075.85
  0
LINE
  8
0
 10
-58.1871
 20
1075.85
 11
-58.6448
 21
1075.42
  0
LINE
  8
0
 10
-58.6448
 20
1075.42
 11
-59.0451
 21
1074.94
  0
LINE
  8
0
 10
-59.0451
 20
1074.94
 11
-59.3815
 21
1074.41
  0
LINE
  8
0
 10
-59.3815
 20
1074.41
 11
-59.6489
 21
1073.84
  0
LINE
  8
0
 10
-59.6489
 20
1073.84
 11
-59.8429
 21
1073.24
  0
LINE
  8
0
 10
-59.8429
 20
1073.24
 11
-59.9606
 21
1072.63
  0
LINE
  8
0
 10
-59.9606
 20
1072.63
 11
-60
 21
1072
  0
LINE
  8
0
 10
-60
 20
1072
 11
-60
 21
782
  0
LINE
  8
0
 10
-60
 20
782
 11
-59.9606
 21
781.373
  0
LINE
  8
0
 10
-59.9606
 20
781.373
 11
-59.8429
 21
780.757
  0
LINE
  8
0
 10
-59.8429
 20
780.757
 11
-59.6489
 21
780.159
  0
LINE
  8
0
 10
-59.6489
 20
780.159
 11
-59.3815
 21
779.591
  0
LINE
  8
0
 10
-59.3815
 20
779.591
 11
-59.0451
 21
779.061
  0
LINE
  8
0
 10
-59.0451
 20
779.061
 11
-58.6448
 21
778.577
  0
LINE
  8
0
 10
-58.6448
 20
778.577
 11
-58.1871
 21
778.147
  0
LINE
  8
0
 10
-58.1871
 20
778.147
 11
-57.6791
 21
777.778
  0
LINE
  8
0
 10
-57.6791
 20
777.778
 11
-57.1289
 21
777.476
  0
LINE
  8
0
 10
-57.1289
 20
777.476
 11
-56.5451
 21
777.245
  0
LINE
  8
0
 10
-56.5451
 20
777.245
 11
-55.9369
 21
777.089
  0
LINE
  8
0
 10
-55.9369
 20
777.089
 11
-55.3139
 21
777.01
  0
LINE
  8
0
 10
-55.3139
 20
777.01
 11
55.3139
 21
777.01
  0
LINE
  8
0
 10
55.3139
 20
777.01
 11
55.9369
 21
777.089
  0
LINE
  8
0
 10
52.387
 20
1067.7
 11
52.1627
 21
1067.73
  0
LINE
  8
0
 10
52.1627
 20
1067.73
 11
51.9438
 21
1067.79
  0
LINE
  8
0
 10
51.9438
 20
1067.79
 11
51.7336
 21
1067.87
  0
LINE
  8
0
 10
51.7336
 20
1067.87
 11
51.5355
 21
1067.98
  0
LINE
  8
0
 10
51.5355
 20
1067.98
 11
51.3526
 21
1068.11
  0
LINE
  8
0
 10
51.3526
 20
1068.11
 11
51.1879
 21
1068.27
  0
LINE
  8
0
 10
51.1879
 20
1068.27
 11
51.0438
 21
1068.44
  0
LINE
  8
0
 10
51.0438
 20
1068.44
 11
50.9226
 21
1068.63
  0
LINE
  8
0
 10
50.9226
 20
1068.63
 11
50.8264
 21
1068.84
  0
LINE
  8
0
 10
50.8264
 20
1068.84
 11
50.7565
 21
1069.05
  0
LINE
  8
0
 10
50.7565
 20
1069.05
 11
50.7142
 21
1069.27
  0
LINE
  8
0
 10
50.7142
 20
1069.27
 11
50.7
 21
1069.5
  0
LINE
  8
0
 10
50.7
 20
1069.5
 11
50.7142
 21
1069.73
  0
LINE
  8
0
 10
50.7142
 20
1069.73
 11
50.7565
 21
1069.95
  0
LINE
  8
0
 10
50.7565
 20
1069.95
 11
50.8264
 21
1070.16
  0
LINE
  8
0
 10
50.8264
 20
1070.16
 11
50.9226
 21
1070.37
  0
LINE
  8
0
 10
50.9226
 20
1070.37
 11
51.0438
 21
1070.56
  0
LINE
  8
0
 10
51.0438
 20
1070.56
 11
51.1879
 21
1070.73
  0
LINE
  8
0
 10
51.1879
 20
1070.73
 11
51.3526
 21
1070.89
  0
LINE
  8
0
 10
51.3526
 20
1070.89
 11
51.5355
 21
1071.02
  0
LINE
  8
0
 10
51.5355
 20
1071.02
 11
51.7336
 21
1071.13
  0
LINE
  8
0
 10
51.7336
 20
1071.13
 11
51.9438
 21
1071.21
  0
LINE
  8
0
 10
51.9438
 20
1071.21
 11
52.1627
 21
1071.27
  0
LINE
  8
0
 10
52.1627
 20
1071.27
 11
52.387
 21
1071.3
  0
LINE
  8
0
 10
52.387
 20
1071.3
 11
52.613
 21
1071.3
  0
LINE
  8
0
 10
52.613
 20
1071.3
 11
52.8373
 21
1071.27
  0
LINE
  8
0
 10
52.8373
 20
1071.27
 11
53.0562
 21
1071.21
  0
LINE
  8
0
 10
53.0562
 20
1071.21
 11
53.2664
 21
1071.13
  0
LINE
  8
0
 10
53.2664
 20
1071.13
 11
53.4645
 21
1071.02
  0
LINE
  8
0
 10
53.4645
 20
1071.02
 11
53.6474
 21
1070.89
  0
LINE
  8
0
 10
53.6474
 20
1070.89
 11
53.8121
 21
1070.73
  0
LINE
  8
0
 10
53.8121
 20
1070.73
 11
53.9562
 21
1070.56
  0
LINE
  8
0
 10
53.9562
 20
1070.56
 11
54.0773
 21
1070.37
  0
LINE
  8
0
 10
54.0773
 20
1070.37
 11
54.1736
 21
1070.16
  0
LINE
  8
0
 10
54.1736
 20
1070.16
 11
54.2434
 21
1069.95
  0
LINE
  8
0
 10
54.2434
 20
1069.95
 11
54.2858
 21
1069.73
  0
LINE
  8
0
 10
54.2858
 20
1069.73
 11
54.3
 21
1069.5
  0
LINE
  8
0
 10
54.3
 20
1069.5
 11
54.2858
 21
1069.27
  0
LINE
  8
0
 10
54.2858
 20
1069.27
 11
54.2434
 21
1069.05
  0
LINE
  8
0
 10
54.2434
 20
1069.05
 11
54.1736
 21
1068.84
  0
LINE
  8
0
 10
54.1736
 20
1068.84
 11
54.0773
 21
1068.63
  0
LINE
  8
0
 10
54.0773
 20
1068.63
 11
53.9562
 21
1068.44
  0
LINE
  8
0
 10
53.9562
 20
1068.44
 11
53.8121
 21
1068.27
  0
LINE
  8
0
 10
53.8121
 20
1068.27
 11
53.6474
 21
1068.11
  0
LINE
  8
0
 10
53.6474
 20
1068.11
 11
53.4645
 21
1067.98
  0
LINE
  8
0
 10
53.4645
 20
1067.98
 11
53.2664
 21
1067.87
  0
LINE
  8
0
 10
53.2664
 20
1067.87
 11
53.0562
 21
1067.79
  0
LINE
  8
0
 10
53.0562
 20
1067.79
 11
52.8373
 21
1067.73
  0
LINE
  8
0
 10
52.8373
 20
1067.73
 11
52.613
 21
1067.7
  0
LINE
  8
0
 10
52.613
 20
1067.7
 11
52.387
 21
1067.7
  0
LINE
  8
0
 10
-52.613
 20
1067.7
 11
-52.8373
 21
1067.73
  0
LINE
  8
0
 10
-52.8373
 20
1067.73
 11
-53.0562
 21
1067.79
  0
LINE
  8
0
 10
-53.0562
 20
1067.79
 11
-53.2664
 21
1067.87
  0
LINE
  8
0
 10
-53.2664
 20
1067.87
 11
-53.4645
 21
1067.98
  0
LINE
  8
0
 10
-53.4645
 20
1067.98
 11
-53.6474
 21
1068.11
  0
LINE
  8
0
 10
-53.6474
 20
1068.11
 11
-53.8121
 21
1068.27
  0
LINE
  8
0
 10
-53.8121
 20
1068.27
 11
-53.9562
 21
1068.44
  0
LINE
  8
0
 10
-53.9562
 20
1068.44
 11
-54.0773
 21
1068.63
  0
LINE
  8
0
 10
-54.0773
 20
1068.63
 11
-54.1736
 21
1068.84
  0
LINE
  8
0
 10
-54.1736
 20
1068.84
 11
-54.2434
 21
1069.05
  0
LINE
  8
0
 10
-54.2434
 20
1069.05
 11
-54.2858
 21
1069.27
  0
LINE
  8
0
 10
-54.2858
 20
1069.27
 11
-54.3
 21
1069.5
  0
LINE
  8
0
 10
-54.3
 20
1069.5
 11
-54.2858
 21
1069.73
  0
LINE
  8
0
 10
-54.2858
 20
1069.73
 11
-54.2434
 21
1069.95
  0
LINE
  8
0
 10
-54.2434
 20
1069.95
 11
-54.1736
 21
1070.16
  0
LINE
  8
0
 10
-54.1736
 20
1070.16
 11
-54.0773
 21
1070.37
  0
LINE
  8
0
 10
-54.0773
 20
1070.37
 11
-53.9562
 21
1070.56
  0
LINE
  8
0
 10
-53.9562
 20
1070.56
 11
-53.8121
 21
1070.73
  0
LINE
  8
0
 10
-53.8121
 20
1070.73
 11
-53.6474
 21
1070.89
  0
LINE
  8
0
 10
-53.6474
 20
1070.89
 11
-53.4645
 21
1071.02
  0
LINE
  8
0
 10
-53.4645
 20
1071.02
 11
-53.2664
 21
1071.13
  0
LINE
  8
0
 10
-53.2664
 20
1071.13
 11
-53.0562
 21
1071.21
  0
LINE
  8
0
 10
-53.0562
 20
1071.21
 11
-52.8373
 21
1071.27
  0
LINE
  8
0
 10
-52.8373
 20
1071.27
 11
-52.613
 21
1071.3
  0
LINE
  8
0
 10
-52.613
 20
1071.3
 11
-52.387
 21
1071.3
  0
LINE
  8
0
 10
-52.387
 20
1071.3
 11
-52.1627
 21
1071.27
  0
LINE
  8
0
 10
-52.1627
 20
1071.27
 11
-51.9438
 21
1071.21
  0
LINE
  8
0
 10
-51.9438
 20
1071.21
 11
-51.7336
 21
1071.13
  0
LINE
  8
0
 10
-51.7336
 20
1071.13
 11
-51.5355
 21
1071.02
  0
LINE
  8
0
 10
-51.5355
 20
1071.02
 11
-51.3526
 21
1070.89
  0
LINE
  8
0
 10
-51.3526
 20
1070.89
 11
-51.1879
 21
1070.73
  0
LINE
  8
0
 10
-51.1879
 20
1070.73
 11
-51.0438
 21
1070.56
  0
LINE
  8
0
 10
-51.0438
 20
1070.56
 11
-50.9226
 21
1070.37
  0
LINE
  8
0
 10
-50.9226
 20
1070.37
 11
-50.8264
 21
1070.16
  0
LINE
  8
0
 10
-50.8264
 20
1070.16
 11
-50.7565
 21
1069.95
  0
LINE
  8
0
 10
-50.7565
 20
1069.95
 11
-50.7142
 21
1069.73
  0
LINE
  8
0
 10
-50.7142
 20
1069.73
 11
-50.7
 21
1069.5
  0
LINE
  8
0
 10
-50.7
 20
1069.5
 11
-50.7142
 21
1069.27
  0
LINE
  8
0
 10
-50.7142
 20
1069.27
 11
-50.7565
 21
1069.05
  0
LINE
  8
0
 10
-50.7565
 20
1069.05
 11
-50.8264
 21
1068.84
  0
LINE
  8
0
 10
-50.8264
 20
1068.84
 11
-50.9226
 21
1068.63
  0
LINE
  8
0
 10
-50.9226
 20
1068.63
 11
-51.0438
 21
1068.44
  0
LINE
  8
0
 10
-51.0438
 20
1068.44
 11
-51.1879
 21
1068.27
  0
LINE
  8
0
 10
-51.1879
 20
1068.27
 11
-51.3526
 21
1068.11
  0
LINE
  8
0
 10
-51.3526
 20
1068.11
 11
-51.5355
 21
1067.98
  0
LINE
  8
0
 10
-51.5355
 20
1067.98
 11
-51.7336
 21
1067.87
  0
LINE
  8
0
 10
-51.7336
 20
1067.87
 11
-51.9438
 21
1067.79
  0
LINE
  8
0
 10
-51.9438
 20
1067.79
 11
-52.1627
 21
1067.73
  0
LINE
  8
0
 10
-52.1627
 20
1067.73
 11
-52.387
 21
1067.7
  0
LINE
  8
0
 10
-52.387
 20
1067.7
 11
-52.613
 21
1067.7
  0
LINE
  8
0
 10
52.387
 20
782.704
 11
52.1627
 21
782.732
  0
LINE
  8
0
 10
52.1627
 20
782.732
 11
51.9438
 21
782.788
  0
LINE
  8
0
 10
51.9438
 20
782.788
 11
51.7336
 21
782.871
  0
LINE
  8
0
 10
51.7336
 20
782.871
 11
51.5355
 21
782.98
  0
LINE
  8
0
 10
51.5355
 20
782.98
 11
51.3526
 21
783.113
  0
LINE
  8
0
 10
51.3526
 20
783.113
 11
51.1879
 21
783.268
  0
LINE
  8
0
 10
51.1879
 20
783.268
 11
51.0438
 21
783.442
  0
LINE
  8
0
 10
51.0438
 20
783.442
 11
50.9226
 21
783.633
  0
LINE
  8
0
 10
50.9226
 20
783.633
 11
50.8264
 21
783.837
  0
LINE
  8
0
 10
50.8264
 20
783.837
 11
50.7565
 21
784.052
  0
LINE
  8
0
 10
50.7565
 20
784.052
 11
50.7142
 21
784.274
  0
LINE
  8
0
 10
50.7142
 20
784.274
 11
50.7
 21
784.5
  0
LINE
  8
0
 10
50.7
 20
784.5
 11
50.7142
 21
784.726
  0
LINE
  8
0
 10
50.7142
 20
784.726
 11
50.7565
 21
784.948
  0
LINE
  8
0
 10
50.7565
 20
784.948
 11
50.8264
 21
785.163
  0
LINE
  8
0
 10
50.8264
 20
785.163
 11
50.9226
 21
785.367
  0
LINE
  8
0
 10
50.9226
 20
785.367
 11
51.0438
 21
785.558
  0
LINE
  8
0
 10
51.0438
 20
785.558
 11
51.1879
 21
785.732
  0
LINE
  8
0
 10
51.1879
 20
785.732
 11
51.3526
 21
785.887
  0
LINE
  8
0
 10
51.3526
 20
785.887
 11
51.5355
 21
786.02
  0
LINE
  8
0
 10
51.5355
 20
786.02
 11
51.7336
 21
786.129
  0
LINE
  8
0
 10
51.7336
 20
786.129
 11
51.9438
 21
786.212
  0
LINE
  8
0
 10
51.9438
 20
786.212
 11
52.1627
 21
786.268
  0
LINE
  8
0
 10
52.1627
 20
786.268
 11
52.387
 21
786.296
  0
LINE
  8
0
 10
52.387
 20
786.296
 11
52.613
 21
786.296
  0
LINE
  8
0
 10
52.613
 20
786.296
 11
52.8373
 21
786.268
  0
LINE
  8
0
 10
52.8373
 20
786.268
 11
53.0562
 21
786.212
  0
LINE
  8
0
 10
53.0562
 20
786.212
 11
53.2664
 21
786.129
  0
LINE
  8
0
 10
53.2664
 20
786.129
 11
53.4645
 21
786.02
  0
LINE
  8
0
 10
53.4645
 20
786.02
 11
53.6474
 21
785.887
  0
LINE
  8
0
 10
53.6474
 20
785.887
 11
53.8121
 21
785.732
  0
LINE
  8
0
 10
53.8121
 20
785.732
 11
53.9562
 21
785.558
  0
LINE
  8
0
 10
53.9562
 20
785.558
 11
54.0773
 21
785.367
  0
LINE
  8
0
 10
54.0773
 20
785.367
 11
54.1736
 21
785.163
  0
LINE
  8
0
 10
54.1736
 20
785.163
 11
54.2434
 21
784.948
  0
LINE
  8
0
 10
54.2434
 20
784.948
 11
54.2858
 21
784.726
  0
LINE
  8
0
 10
54.2858
 20
784.726
 11
54.3
 21
784.5
  0
LINE
  8
0
 10
54.3
 20
784.5
 11
54.2858
 21
784.274
  0
LINE
  8
0
 10
54.2858
 20
784.274
 11
54.2434
 21
784.052
  0
LINE
  8
0
 10
54.2434
 20
784.052
 11
54.1736
 21
783.837
  0
LINE
  8
0
 10
54.1736
 20
783.837
 11
54.0773
 21
783.633
  0
LINE
  8
0
 10
54.0773
 20
783.633
 11
53.9562
 21
783.442
  0
LINE
  8
0
 10
53.9562
 20
783.442
 11
53.8121
 21
783.268
  0
LINE
  8
0
 10
53.8121
 20
783.268
 11
53.6474
 21
783.113
  0
LINE
  8
0
 10
53.6474
 20
783.113
 11
53.4645
 21
782.98
  0
LINE
  8
0
 10
53.4645
 20
782.98
 11
53.2664
 21
782.871
  0
LINE
  8
0
 10
53.2664
 20
782.871
 11
53.0562
 21
782.788
  0
LINE
  8
0
 10
53.0562
 20
782.788
 11
52.8373
 21
782.732
  0
LINE
  8
0
 10
52.8373
 20
782.732
 11
52.613
 21
782.704
  0
LINE
  8
0
 10
52.613
 20
782.704
 11
52.387
 21
782.704
  0
LINE
  8
0
 10
-52.613
 20
782.704
 11
-52.8373
 21
782.732
  0
LINE
  8
0
 10
-52.8373
 20
782.732
 11
-53.0562
 21
782.788
  0
LINE
  8
0
 10
-53.0562
 20
782.788
 11
-53.2664
 21
782.871
  0
LINE
  8
0
 10
-53.2664
 20
782.871
 11
-53.4645
 21
782.98
  0
LINE
  8
0
 10
-53.4645
 20
782.98
 11
-53.6474
 21
783.113
  0
LINE
  8
0
 10
-53.6474
 20
783.113
 11
-53.8121
 21
783.268
  0
LINE
  8
0
 10
-53.8121
 20
783.268
 11
-53.9562
 21
783.442
  0
LINE
  8
0
 10
-53.9562
 20
783.442
 11
-54.0773
 21
783.633
  0
LINE
  8
0
 10
-54.0773
 20
783.633
 11
-54.1736
 21
783.837
  0
LINE
  8
0
 10
-54.1736
 20
783.837
 11
-54.2434
 21
784.052
  0
LINE
  8
0
 10
-54.2434
 20
784.052
 11
-54.2858
 21
784.274
  0
LINE
  8
0
 10
-54.2858
 20
784.274
 11
-54.3
 21
784.5
  0
LINE
  8
0
 10
-54.3
 20
784.5
 11
-54.2858
 21
784.726
  0
LINE
  8
0
 10
-54.2858
 20
784.726
 11
-54.2434
 21
784.948
  0
LINE
  8
0
 10
-54.2434
 20
784.948
 11
-54.1736
 21
785.163
  0
LINE
  8
0
 10
-54.1736
 20
785.163
 11
-54.0773
 21
785.367
  0
LINE
  8
0
 10
-54.0773
 20
785.367
 11
-53.9562
 21
785.558
  0
LINE
  8
0
 10
-53.9562
 20
785.558
 11
-53.8121
 21
785.732
  0
LINE
  8
0
 10
-53.8121
 20
785.732
 11
-53.6474
 21
785.887
  0
LINE
  8
0
 10
-53.6474
 20
785.887
 11
-53.4645
 21
786.02
  0
LINE
  8
0
 10
-53.4645
 20
786.02
 11
-53.2664
 21
786.129
  0
LINE
  8
0
 10
-53.2664
 20
786.129
 11
-53.0562
 21
786.212
  0
LINE
  8
0
 10
-53.0562
 20
786.212
 11
-52.8373
 21
786.268
  0
LINE
  8
0
 10
-52.8373
 20
786.268
 11
-52.613
 21
786.296
  0
LINE
  8
0
 10
-52.613
 20
786.296
 11
-52.387
 21
786.296
  0
LINE
  8
0
 10
-52.387
 20
786.296
 11
-52.1627
 21
786.268
  0
LINE
  8
0
 10
-52.1627
 20
786.268
 11
-51.9438
 21
786.212
  0
LINE
  8
0
 10
-51.9438
 20
786.212
 11
-51.7336
 21
786.129
  0
LINE
  8
0
 10
-51.7336
 20
786.129
 11
-51.5355
 21
786.02
  0
LINE
  8
0
 10
-51.5355
 20
786.02
 11
-51.3526
 21
785.887
  0
LINE
  8
0
 10
-51.3526
 20
785.887
 11
-51.1879
 21
785.732
  0
LINE
  8
0
 10
-51.1879
 20
785.732
 11
-51.0438
 21
785.558
  0
LINE
  8
0
 10
-51.0438
 20
785.558
 11
-50.9226
 21
785.367
  0
LINE
  8
0
 10
-50.9226
 20
785.367
 11
-50.8264
 21
785.163
  0
LINE
  8
0
 10
-50.8264
 20
785.163
 11
-50.7565
 21
784.948
  0
LINE
  8
0
 10
-50.7565
 20
784.948
 11
-50.7142
 21
784.726
  0
LINE
  8
0
 10
-50.7142
 20
784.726
 11
-50.7
 21
784.5
  0
LINE
  8
0
 10
-50.7
 20
784.5
 11
-50.7142
 21
784.274
  0
LINE
  8
0
 10
-50.7142
 20
784.274
 11
-50.7565
 21
784.052
  0
LINE
  8
0
 10
-50.7565
 20
784.052
 11
-50.8264
 21
783.837
  0
LINE
  8
0
 10
-50.8264
 20
783.837
 11
-50.9226
 21
783.633
  0
LINE
  8
0
 10
-50.9226
 20
783.633
 11
-51.0438
 21
783.442
  0
LINE
  8
0
 10
-51.0438
 20
783.442
 11
-51.1879
 21
783.268
  0
LINE
  8
0
 10
-51.1879
 20
783.268
 11
-51.3526
 21
783.113
  0
LINE
  8
0
 10
-51.3526
 20
783.113
 11
-51.5355
 21
782.98
  0
LINE
  8
0
 10
-51.5355
 20
782.98
 11
-51.7336
 21
782.871
  0
LINE
  8
0
 10
-51.7336
 20
782.871
 11
-51.9438
 21
782.788
  0
LINE
  8
0
 10
-51.9438
 20
782.788
 11
-52.1627
 21
782.732
  0
LINE
  8
0
 10
-52.1627
 20
782.732
 11
-52.387
 21
782.704
  0
LINE
  8
0
 10
-52.387
 20
782.704
 11
-52.613
 21
782.704
  0
ENDSEC
  0
SECTION
  2
OBJECTS
  0
DICTIONARY
  0
ENDSEC
  0
EOF
