<?xml version="1.0" standalone="no"?>
<!DOCTYPE svg PUBLIC "-//W3C//DTD SVG 1.1//EN" "http://www.w3.org/Graphics/SVG/1.1/DTD/svg11.dtd">
<svg width="16mm" height="747mm" viewBox="-8 -1413 16 747" xmlns="http://www.w3.org/2000/svg" version="1.1">
<title>OpenSCAD Model</title>
<path d="
M 3.4369,-1233.09 L 4.04507,-1233.24 L 4.62889,-1233.48 L 5.17912,-1233.78 L 5.68712,-1234.15 L 6.14484,-1234.58
 L 6.54507,-1235.06 L 6.88153,-1235.59 L 7.14888,-1236.16 L 7.34291,-1236.76 L 7.46057,-1237.37 L 7.5,-1238
 L 7.5,-1408 L 7.46057,-1408.63 L 7.34291,-1409.24 L 7.14888,-1409.84 L 6.88153,-1410.41 L 6.54507,-1410.94
 L 6.14484,-1411.42 L 5.68712,-1411.85 L 5.17912,-1412.22 L 4.62889,-1412.52 L 4.04507,-1412.76 L 3.4369,-1412.91
 L 2.81395,-1412.99 L -2.81395,-1412.99 L -3.4369,-1412.91 L -4.04507,-1412.76 L -4.62889,-1412.52 L -5.17912,-1412.22
 L -5.68712,-1411.85 L -6.14484,-1411.42 L -6.54507,-1410.94 L -6.88153,-1410.41 L -7.14888,-1409.84 L -7.34291,-1409.24
 L -7.46057,-1408.63 L -7.5,-1408 L -7.5,-1238 L -7.46057,-1237.37 L -7.34291,-1236.76 L -7.14888,-1236.16
 L -6.88153,-1235.59 L -6.54507,-1235.06 L -6.14484,-1234.58 L -5.68712,-1234.15 L -5.17912,-1233.78 L -4.62889,-1233.48
 L -4.04507,-1233.24 L -3.4369,-1233.09 L -2.81395,-1233.01 L 2.81395,-1233.01 z
M -2.25116,-1234.51 L -2.74951,-1234.57 L -3.23605,-1234.7 L -3.70311,-1234.88 L -4.1433,-1235.12 L -4.54968,-1235.42
 L -4.91586,-1235.76 L -5.23605,-1236.15 L -5.50522,-1236.57 L -5.7191,-1237.03 L -5.87433,-1237.51 L -5.96844,-1238
 L -6,-1238.5 L -6,-1407.5 L -5.96844,-1408 L -5.87433,-1408.49 L -5.7191,-1408.97 L -5.50522,-1409.43
 L -5.23605,-1409.85 L -4.91586,-1410.24 L -4.54968,-1410.58 L -4.1433,-1410.88 L -3.70311,-1411.12 L -3.23605,-1411.3
 L -2.74951,-1411.43 L -2.25116,-1411.49 L 2.25116,-1411.49 L 2.74951,-1411.43 L 3.23605,-1411.3 L 3.70311,-1411.12
 L 4.1433,-1410.88 L 4.54968,-1410.58 L 4.91586,-1410.24 L 5.23605,-1409.85 L 5.50522,-1409.43 L 5.7191,-1408.97
 L 5.87433,-1408.49 L 5.96844,-1408 L 6,-1407.5 L 6,-1238.5 L 5.96844,-1238 L 5.87433,-1237.51
 L 5.7191,-1237.03 L 5.50522,-1236.57 L 5.23605,-1236.15 L 4.91586,-1235.76 L 4.54968,-1235.42 L 4.1433,-1235.12
 L 3.70311,-1234.88 L 3.23605,-1234.7 L 2.74951,-1234.57 L 2.25116,-1234.51 z
M 3.4369,-1044.09 L 4.04507,-1044.24 L 4.62889,-1044.48 L 5.17912,-1044.78 L 5.68712,-1045.15 L 6.14484,-1045.58
 L 6.54507,-1046.06 L 6.88153,-1046.59 L 7.14888,-1047.16 L 7.34291,-1047.76 L 7.46057,-1048.37 L 7.5,-1049
 L 7.5,-1219 L 7.46057,-1219.63 L 7.34291,-1220.24 L 7.14888,-1220.84 L 6.88153,-1221.41 L 6.54507,-1221.94
 L 6.14484,-1222.42 L 5.68712,-1222.85 L 5.17912,-1223.22 L 4.62889,-1223.52 L 4.04507,-1223.76 L 3.4369,-1223.91
 L 2.81395,-1223.99 L -2.81395,-1223.99 L -3.4369,-1223.91 L -4.04507,-1223.76 L -4.62889,-1223.52 L -5.17912,-1223.22
 L -5.68712,-1222.85 L -6.14484,-1222.42 L -6.54507,-1221.94 L -6.88153,-1221.41 L -7.14888,-1220.84 L -7.34291,-1220.24
 L -7.46057,-1219.63 L -7.5,-1219 L -7.5,-1049 L -7.46057,-1048.37 L -7.34291,-1047.76 L -7.14888,-1047.16
 L -6.88153,-1046.59 L -6.54507,-1046.06 L -6.14484,-1045.58 L -5.68712,-1045.15 L -5.17912,-1044.78 L -4.62889,-1044.48
 L -4.04507,-1044.24 L -3.4369,-1044.09 L -2.81395,-1044.01 L 2.81395,-1044.01 z
M -2.25116,-1045.51 L -2.74951,-1045.57 L -3.23605,-1045.7 L -3.70311,-1045.88 L -4.1433,-1046.12 L -4.54968,-1046.42
 L -4.91586,-1046.76 L -5.23605,-1047.15 L -5.50522,-1047.57 L -5.7191,-1048.03 L -5.87433,-1048.51 L -5.96844,-1049
 L -6,-1049.5 L -6,-1218.5 L -5.96844,-1219 L -5.87433,-1219.49 L -5.7191,-1219.97 L -5.50522,-1220.43
 L -5.23605,-1220.85 L -4.91586,-1221.24 L -4.54968,-1221.58 L -4.1433,-1221.88 L -3.70311,-1222.12 L -3.23605,-1222.3
 L -2.74951,-1222.43 L -2.25116,-1222.49 L 2.25116,-1222.49 L 2.74951,-1222.43 L 3.23605,-1222.3 L 3.70311,-1222.12
 L 4.1433,-1221.88 L 4.54968,-1221.58 L 4.91586,-1221.24 L 5.23605,-1220.85 L 5.50522,-1220.43 L 5.7191,-1219.97
 L 5.87433,-1219.49 L 5.96844,-1219 L 6,-1218.5 L 6,-1049.5 L 5.96844,-1049 L 5.87433,-1048.51
 L 5.7191,-1048.03 L 5.50522,-1047.57 L 5.23605,-1047.15 L 4.91586,-1046.76 L 4.54968,-1046.42 L 4.1433,-1046.12
 L 3.70311,-1045.88 L 3.23605,-1045.7 L 2.74951,-1045.57 L 2.25116,-1045.51 z
M 3.4369,-855.089 L 4.04507,-855.245 L 4.62889,-855.476 L 5.17912,-855.778 L 5.68712,-856.147 L 6.14484,-856.577
 L 6.54507,-857.061 L 6.88153,-857.591 L 7.14888,-858.159 L 7.34291,-858.757 L 7.46057,-859.373 L 7.5,-860
 L 7.5,-1030 L 7.46057,-1030.63 L 7.34291,-1031.24 L 7.14888,-1031.84 L 6.88153,-1032.41 L 6.54507,-1032.94
 L 6.14484,-1033.42 L 5.68712,-1033.85 L 5.17912,-1034.22 L 4.62889,-1034.52 L 4.04507,-1034.76 L 3.4369,-1034.91
 L 2.81395,-1034.99 L -2.81395,-1034.99 L -3.4369,-1034.91 L -4.04507,-1034.76 L -4.62889,-1034.52 L -5.17912,-1034.22
 L -5.68712,-1033.85 L -6.14484,-1033.42 L -6.54507,-1032.94 L -6.88153,-1032.41 L -7.14888,-1031.84 L -7.34291,-1031.24
 L -7.46057,-1030.63 L -7.5,-1030 L -7.5,-860 L -7.46057,-859.373 L -7.34291,-858.757 L -7.14888,-858.159
 L -6.88153,-857.591 L -6.54507,-857.061 L -6.14484,-856.577 L -5.68712,-856.147 L -5.17912,-855.778 L -4.62889,-855.476
 L -4.04507,-855.245 L -3.4369,-855.089 L -2.81395,-855.01 L 2.81395,-855.01 z
M -2.19545,-857.393 L -2.5833,-857.442 L -2.96194,-857.539 L -3.32541,-857.683 L -3.66798,-857.872 L -3.98424,-858.101
 L -4.26921,-858.369 L -4.5184,-858.67 L -4.72786,-859 L -4.89432,-859.354 L -5.01512,-859.726 L -5.08836,-860.11
 L -5.11292,-860.5 L -5.11292,-1029.5 L -5.08836,-1029.89 L -5.01512,-1030.27 L -4.89432,-1030.65 L -4.72786,-1031
 L -4.5184,-1031.33 L -4.26921,-1031.63 L -3.98424,-1031.9 L -3.66798,-1032.13 L -3.32541,-1032.32 L -2.96194,-1032.46
 L -2.5833,-1032.56 L -2.19545,-1032.61 L 2.19545,-1032.61 L 2.5833,-1032.56 L 2.96194,-1032.46 L 3.32541,-1032.32
 L 3.66798,-1032.13 L 3.98424,-1031.9 L 4.26921,-1031.63 L 4.5184,-1031.33 L 4.72786,-1031 L 4.89432,-1030.65
 L 5.01512,-1030.27 L 5.08836,-1029.89 L 5.11292,-1029.5 L 5.11292,-860.5 L 5.08836,-860.11 L 5.01512,-859.726
 L 4.89432,-859.354 L 4.72786,-859 L 4.5184,-858.67 L 4.26921,-858.369 L 3.98424,-858.101 L 3.66798,-857.872
 L 3.32541,-857.683 L 2.96194,-857.539 L 2.5833,-857.442 L 2.19545,-857.393 z
M 3.4369,-666.089 L 4.04507,-666.245 L 4.62889,-666.476 L 5.17912,-666.778 L 5.68712,-667.147 L 6.14484,-667.577
 L 6.54507,-668.061 L 6.88153,-668.591 L 7.14888,-669.159 L 7.34291,-669.757 L 7.46057,-670.373 L 7.5,-671
 L 7.5,-841 L 7.46057,-841.627 L 7.34291,-842.243 L 7.14888,-842.841 L 6.88153,-843.409 L 6.54507,-843.939
 L 6.14484,-844.423 L 5.68712,-844.853 L 5.17912,-845.222 L 4.62889,-845.524 L 4.04507,-845.755 L 3.4369,-845.911
 L 2.81395,-845.99 L -2.81395,-845.99 L -3.4369,-845.911 L -4.04507,-845.755 L -4.62889,-845.524 L -5.17912,-845.222
 L -5.68712,-844.853 L -6.14484,-844.423 L -6.54507,-843.939 L -6.88153,-843.409 L -7.14888,-842.841 L -7.34291,-842.243
 L -7.46057,-841.627 L -7.5,-841 L -7.5,-671 L -7.46057,-670.373 L -7.34291,-669.757 L -7.14888,-669.159
 L -6.88153,-668.591 L -6.54507,-668.061 L -6.14484,-667.577 L -5.68712,-667.147 L -5.17912,-666.778 L -4.62889,-666.476
 L -4.04507,-666.245 L -3.4369,-666.089 L -2.81395,-666.01 L 2.81395,-666.01 z
M -0.134064,-836.369 L -0.400101,-836.403 L -0.659836,-836.469 L -0.909149,-836.568 L -1.14413,-836.697 L -1.36108,-836.855
 L -1.55655,-837.038 L -1.72748,-837.245 L -1.87117,-837.471 L -1.98534,-837.714 L -2.06821,-837.969 L -2.11845,-838.232
 L -2.13528,-838.5 L -2.11845,-838.768 L -2.06821,-839.031 L -1.98534,-839.286 L -1.87117,-839.529 L -1.72748,-839.755
 L -1.55655,-839.962 L -1.36108,-840.145 L -1.14413,-840.303 L -0.909149,-840.432 L -0.659836,-840.531 L -0.400101,-840.597
 L -0.134064,-840.631 L 0.134064,-840.631 L 0.400101,-840.597 L 0.659836,-840.531 L 0.909149,-840.432 L 1.14413,-840.303
 L 1.36108,-840.145 L 1.55655,-839.962 L 1.72748,-839.755 L 1.87117,-839.529 L 1.98534,-839.286 L 2.06821,-839.031
 L 2.11845,-838.768 L 2.13528,-838.5 L 2.11845,-838.232 L 2.06821,-837.969 L 1.98534,-837.714 L 1.87117,-837.471
 L 1.72748,-837.245 L 1.55655,-837.038 L 1.36108,-836.855 L 1.14413,-836.697 L 0.909149,-836.568 L 0.659836,-836.469
 L 0.400101,-836.403 L 0.134064,-836.369 z
M -0.134064,-671.369 L -0.400101,-671.403 L -0.659836,-671.469 L -0.909149,-671.568 L -1.14413,-671.697 L -1.36108,-671.855
 L -1.55655,-672.038 L -1.72748,-672.245 L -1.87117,-672.471 L -1.98534,-672.714 L -2.06821,-672.969 L -2.11845,-673.232
 L -2.13528,-673.5 L -2.11845,-673.768 L -2.06821,-674.031 L -1.98534,-674.286 L -1.87117,-674.529 L -1.72748,-674.755
 L -1.55655,-674.962 L -1.36108,-675.145 L -1.14413,-675.303 L -0.909149,-675.432 L -0.659836,-675.531 L -0.400101,-675.597
 L -0.134064,-675.631 L 0.134064,-675.631 L 0.400101,-675.597 L 0.659836,-675.531 L 0.909149,-675.432 L 1.14413,-675.303
 L 1.36108,-675.145 L 1.55655,-674.962 L 1.72748,-674.755 L 1.87117,-674.529 L 1.98534,-674.286 L 2.06821,-674.031
 L 2.11845,-673.768 L 2.13528,-673.5 L 2.11845,-673.232 L 2.06821,-672.969 L 1.98534,-672.714 L 1.87117,-672.471
 L 1.72748,-672.245 L 1.55655,-672.038 L 1.36108,-671.855 L 1.14413,-671.697 L 0.909149,-671.568 L 0.659836,-671.469
 L 0.400101,-671.403 L 0.134064,-671.369 z
" stroke="black" fill="lightgray" stroke-width="0.5"/>
</svg>
