<?xml version="1.0" standalone="no"?>
<!DOCTYPE svg PUBLIC "-//W3C//DTD SVG 1.1//EN" "http://www.w3.org/Graphics/SVG/1.1/DTD/svg11.dtd">
<svg width="210mm" height="867mm" viewBox="-105 -1419 210 867" xmlns="http://www.w3.org/2000/svg" version="1.1">
<title>OpenSCAD Model</title>
<path d="
M 100.937,-1209.09 L 101.545,-1209.24 L 102.129,-1209.48 L 102.679,-1209.78 L 103.187,-1210.15 L 103.645,-1210.58
 L 104.045,-1211.06 L 104.382,-1211.59 L 104.649,-1212.16 L 104.843,-1212.76 L 104.961,-1213.37 L 105,-1214
 L 105,-1414 L 104.961,-1414.63 L 104.843,-1415.24 L 104.649,-1415.84 L 104.382,-1416.41 L 104.045,-1416.94
 L 103.645,-1417.42 L 103.187,-1417.85 L 102.679,-1418.22 L 102.129,-1418.52 L 101.545,-1418.76 L 100.937,-1418.91
 L 100.314,-1418.99 L -100.314,-1418.99 L -100.937,-1418.91 L -101.545,-1418.76 L -102,-1418.58 L -102,-1418.61
 L -105,-1418.61 L -105,-1209.39 L -102,-1209.39 L -102,-1209.42 L -101.545,-1209.24 L -100.937,-1209.09
 L -100.314,-1209.01 L 100.314,-1209.01 z
M -99.7512,-1210.51 L -100.25,-1210.57 L -100.736,-1210.7 L -101.203,-1210.88 L -101.643,-1211.12 L -102.05,-1211.42
 L -102.416,-1211.76 L -102.736,-1212.15 L -103.005,-1212.57 L -103.219,-1213.03 L -103.374,-1213.51 L -103.468,-1214
 L -103.5,-1214.5 L -103.5,-1413.5 L -103.468,-1414 L -103.374,-1414.49 L -103.219,-1414.97 L -103.005,-1415.43
 L -102.736,-1415.85 L -102.416,-1416.24 L -102.05,-1416.58 L -101.643,-1416.88 L -101.203,-1417.12 L -100.736,-1417.3
 L -100.25,-1417.43 L -99.7512,-1417.49 L 99.7512,-1417.49 L 100.25,-1417.43 L 100.736,-1417.3 L 101.203,-1417.12
 L 101.643,-1416.88 L 102.05,-1416.58 L 102.416,-1416.24 L 102.736,-1415.85 L 103.005,-1415.43 L 103.219,-1414.97
 L 103.374,-1414.49 L 103.468,-1414 L 103.5,-1413.5 L 103.5,-1214.5 L 103.468,-1214 L 103.374,-1213.51
 L 103.219,-1213.03 L 103.005,-1212.57 L 102.736,-1212.15 L 102.416,-1211.76 L 102.05,-1211.42 L 101.643,-1211.12
 L 101.203,-1210.88 L 100.736,-1210.7 L 100.25,-1210.57 L 99.7512,-1210.51 z
M 100.937,-990.089 L 101.545,-990.245 L 102.129,-990.476 L 102.679,-990.778 L 103.187,-991.147 L 103.645,-991.577
 L 104.045,-992.061 L 104.382,-992.591 L 104.649,-993.159 L 104.843,-993.757 L 104.961,-994.373 L 105,-995
 L 105,-1195 L 104.961,-1195.63 L 104.843,-1196.24 L 104.649,-1196.84 L 104.382,-1197.41 L 104.045,-1197.94
 L 103.645,-1198.42 L 103.187,-1198.85 L 102.679,-1199.22 L 102.129,-1199.52 L 101.545,-1199.76 L 100.937,-1199.91
 L 100.314,-1199.99 L -100.314,-1199.99 L -100.937,-1199.91 L -101.545,-1199.76 L -102.129,-1199.52 L -102.679,-1199.22
 L -103.187,-1198.85 L -103.645,-1198.42 L -104.045,-1197.94 L -104.382,-1197.41 L -104.649,-1196.84 L -104.843,-1196.24
 L -104.9,-1195.94 L -105,-1195.94 L -105,-994.056 L -104.9,-994.056 L -104.843,-993.757 L -104.649,-993.159
 L -104.382,-992.591 L -104.045,-992.061 L -103.645,-991.577 L -103.187,-991.147 L -102.679,-990.778 L -102.129,-990.476
 L -101.545,-990.245 L -100.937,-990.089 L -100.314,-990.01 L 100.314,-990.01 z
M -99.7432,-991.635 L -100.226,-991.696 L -100.697,-991.817 L -101.149,-991.996 L -101.575,-992.23 L -101.969,-992.516
 L -102.323,-992.849 L -102.633,-993.224 L -102.894,-993.634 L -103.101,-994.074 L -103.251,-994.537 L -103.342,-995.015
 L -103.373,-995.5 L -103.373,-1194.5 L -103.342,-1194.99 L -103.251,-1195.46 L -103.101,-1195.93 L -102.894,-1196.37
 L -102.633,-1196.78 L -102.323,-1197.15 L -101.969,-1197.48 L -101.575,-1197.77 L -101.149,-1198 L -100.697,-1198.18
 L -100.226,-1198.3 L -99.7432,-1198.36 L 99.7432,-1198.36 L 100.226,-1198.3 L 100.697,-1198.18 L 101.149,-1198
 L 101.575,-1197.77 L 101.969,-1197.48 L 102.323,-1197.15 L 102.633,-1196.78 L 102.894,-1196.37 L 103.101,-1195.93
 L 103.251,-1195.46 L 103.342,-1194.99 L 103.373,-1194.5 L 103.373,-995.5 L 103.342,-995.015 L 103.251,-994.537
 L 103.101,-994.074 L 102.894,-993.634 L 102.633,-993.224 L 102.323,-992.849 L 101.969,-992.516 L 101.575,-992.23
 L 101.149,-991.996 L 100.697,-991.817 L 100.226,-991.696 L 99.7432,-991.635 z
M 100.937,-771.089 L 101.545,-771.245 L 102.129,-771.476 L 102.679,-771.778 L 103.187,-772.147 L 103.645,-772.577
 L 104.045,-773.061 L 104.382,-773.591 L 104.649,-774.159 L 104.843,-774.757 L 104.961,-775.373 L 105,-776
 L 105,-976 L 104.961,-976.627 L 104.843,-977.243 L 104.649,-977.841 L 104.382,-978.409 L 104.045,-978.939
 L 103.645,-979.423 L 103.187,-979.853 L 102.679,-980.222 L 102.129,-980.524 L 101.545,-980.755 L 100.937,-980.911
 L 100.314,-980.99 L -100.314,-980.99 L -100.937,-980.911 L -101.545,-980.755 L -102.129,-980.524 L -102.679,-980.222
 L -103.187,-979.853 L -103.645,-979.423 L -104.045,-978.939 L -104.382,-978.409 L -104.649,-977.841 L -104.843,-977.243
 L -104.961,-976.627 L -105,-976 L -105,-776 L -104.961,-775.373 L -104.843,-774.757 L -104.649,-774.159
 L -104.382,-773.591 L -104.045,-773.061 L -103.645,-772.577 L -103.187,-772.147 L -102.679,-771.778 L -102.129,-771.476
 L -101.545,-771.245 L -100.937,-771.089 L -100.314,-771.01 L 100.314,-771.01 z
M 97.3493,-971.105 L 97.0503,-971.143 L 96.7584,-971.217 L 96.4781,-971.328 L 96.214,-971.474 L 95.9702,-971.651
 L 95.7505,-971.857 L 95.5583,-972.089 L 95.3969,-972.344 L 95.2685,-972.617 L 95.1754,-972.903 L 95.1189,-973.199
 L 95.1,-973.5 L 95.1189,-973.801 L 95.1754,-974.097 L 95.2685,-974.383 L 95.3969,-974.656 L 95.5583,-974.911
 L 95.7505,-975.143 L 95.9702,-975.349 L 96.214,-975.526 L 96.4781,-975.672 L 96.7584,-975.783 L 97.0503,-975.857
 L 97.3493,-975.895 L 97.6507,-975.895 L 97.9497,-975.857 L 98.2416,-975.783 L 98.5219,-975.672 L 98.786,-975.526
 L 99.0298,-975.349 L 99.2495,-975.143 L 99.4416,-974.911 L 99.6031,-974.656 L 99.7315,-974.383 L 99.8246,-974.097
 L 99.8811,-973.801 L 99.9,-973.5 L 99.8811,-973.199 L 99.8246,-972.903 L 99.7315,-972.617 L 99.6031,-972.344
 L 99.4416,-972.089 L 99.2495,-971.857 L 99.0298,-971.651 L 98.786,-971.474 L 98.5219,-971.328 L 98.2416,-971.217
 L 97.9497,-971.143 L 97.6507,-971.105 z
M -97.6507,-971.105 L -97.9497,-971.143 L -98.2416,-971.217 L -98.5219,-971.328 L -98.786,-971.474 L -99.0298,-971.651
 L -99.2495,-971.857 L -99.4416,-972.089 L -99.6031,-972.344 L -99.7315,-972.617 L -99.8246,-972.903 L -99.8811,-973.199
 L -99.9,-973.5 L -99.8811,-973.801 L -99.8246,-974.097 L -99.7315,-974.383 L -99.6031,-974.656 L -99.4416,-974.911
 L -99.2495,-975.143 L -99.0298,-975.349 L -98.786,-975.526 L -98.5219,-975.672 L -98.2416,-975.783 L -97.9497,-975.857
 L -97.6507,-975.895 L -97.3493,-975.895 L -97.0503,-975.857 L -96.7584,-975.783 L -96.4781,-975.672 L -96.214,-975.526
 L -95.9702,-975.349 L -95.7505,-975.143 L -95.5583,-974.911 L -95.3969,-974.656 L -95.2685,-974.383 L -95.1754,-974.097
 L -95.1189,-973.801 L -95.1,-973.5 L -95.1189,-973.199 L -95.1754,-972.903 L -95.2685,-972.617 L -95.3969,-972.344
 L -95.5583,-972.089 L -95.7505,-971.857 L -95.9702,-971.651 L -96.214,-971.474 L -96.4781,-971.328 L -96.7584,-971.217
 L -97.0503,-971.143 L -97.3493,-971.105 z
M 97.3493,-776.105 L 97.0503,-776.143 L 96.7584,-776.217 L 96.4781,-776.328 L 96.214,-776.474 L 95.9702,-776.651
 L 95.7505,-776.857 L 95.5583,-777.089 L 95.3969,-777.344 L 95.2685,-777.617 L 95.1754,-777.903 L 95.1189,-778.199
 L 95.1,-778.5 L 95.1189,-778.801 L 95.1754,-779.097 L 95.2685,-779.383 L 95.3969,-779.656 L 95.5583,-779.911
 L 95.7505,-780.143 L 95.9702,-780.349 L 96.214,-780.526 L 96.4781,-780.672 L 96.7584,-780.783 L 97.0503,-780.857
 L 97.3493,-780.895 L 97.6507,-780.895 L 97.9497,-780.857 L 98.2416,-780.783 L 98.5219,-780.672 L 98.786,-780.526
 L 99.0298,-780.349 L 99.2495,-780.143 L 99.4416,-779.911 L 99.6031,-779.656 L 99.7315,-779.383 L 99.8246,-779.097
 L 99.8811,-778.801 L 99.9,-778.5 L 99.8811,-778.199 L 99.8246,-777.903 L 99.7315,-777.617 L 99.6031,-777.344
 L 99.4416,-777.089 L 99.2495,-776.857 L 99.0298,-776.651 L 98.786,-776.474 L 98.5219,-776.328 L 98.2416,-776.217
 L 97.9497,-776.143 L 97.6507,-776.105 z
M -97.6507,-776.105 L -97.9497,-776.143 L -98.2416,-776.217 L -98.5219,-776.328 L -98.786,-776.474 L -99.0298,-776.651
 L -99.2495,-776.857 L -99.4416,-777.089 L -99.6031,-777.344 L -99.7315,-777.617 L -99.8246,-777.903 L -99.8811,-778.199
 L -99.9,-778.5 L -99.8811,-778.801 L -99.8246,-779.097 L -99.7315,-779.383 L -99.6031,-779.656 L -99.4416,-779.911
 L -99.2495,-780.143 L -99.0298,-780.349 L -98.786,-780.526 L -98.5219,-780.672 L -98.2416,-780.783 L -97.9497,-780.857
 L -97.6507,-780.895 L -97.3493,-780.895 L -97.0503,-780.857 L -96.7584,-780.783 L -96.4781,-780.672 L -96.214,-780.526
 L -95.9702,-780.349 L -95.7505,-780.143 L -95.5583,-779.911 L -95.3969,-779.656 L -95.2685,-779.383 L -95.1754,-779.097
 L -95.1189,-778.801 L -95.1,-778.5 L -95.1189,-778.199 L -95.1754,-777.903 L -95.2685,-777.617 L -95.3969,-777.344
 L -95.5583,-777.089 L -95.7505,-776.857 L -95.9702,-776.651 L -96.214,-776.474 L -96.4781,-776.328 L -96.7584,-776.217
 L -97.0503,-776.143 L -97.3493,-776.105 z
M 100.937,-552.089 L 101.545,-552.245 L 102.129,-552.476 L 102.679,-552.778 L 103.187,-553.147 L 103.645,-553.577
 L 104.045,-554.061 L 104.382,-554.591 L 104.649,-555.159 L 104.843,-555.757 L 104.961,-556.373 L 105,-557
 L 105,-757 L 104.961,-757.627 L 104.843,-758.243 L 104.649,-758.841 L 104.382,-759.409 L 104.045,-759.939
 L 103.645,-760.423 L 103.187,-760.853 L 102.679,-761.222 L 102.129,-761.524 L 101.545,-761.755 L 100.937,-761.911
 L 100.314,-761.99 L -100.314,-761.99 L -100.937,-761.911 L -101.545,-761.755 L -102.129,-761.524 L -102.679,-761.222
 L -103.187,-760.853 L -103.645,-760.423 L -104.045,-759.939 L -104.382,-759.409 L -104.649,-758.841 L -104.843,-758.243
 L -104.961,-757.627 L -105,-757 L -105,-557 L -104.961,-556.373 L -104.843,-555.757 L -104.649,-555.159
 L -104.382,-554.591 L -104.045,-554.061 L -103.645,-553.577 L -103.187,-553.147 L -102.679,-552.778 L -102.129,-552.476
 L -101.545,-552.245 L -100.937,-552.089 L -100.314,-552.01 L 100.314,-552.01 z
M 97.387,-752.704 L 97.1627,-752.732 L 96.9438,-752.788 L 96.7336,-752.871 L 96.5355,-752.98 L 96.3526,-753.113
 L 96.1879,-753.268 L 96.0438,-753.442 L 95.9226,-753.633 L 95.8264,-753.837 L 95.7565,-754.052 L 95.7142,-754.274
 L 95.7,-754.5 L 95.7142,-754.726 L 95.7565,-754.948 L 95.8264,-755.163 L 95.9226,-755.367 L 96.0438,-755.558
 L 96.1879,-755.732 L 96.3526,-755.887 L 96.5355,-756.02 L 96.7336,-756.129 L 96.9438,-756.212 L 97.1627,-756.268
 L 97.387,-756.296 L 97.613,-756.296 L 97.8373,-756.268 L 98.0562,-756.212 L 98.2664,-756.129 L 98.4645,-756.02
 L 98.6474,-755.887 L 98.8121,-755.732 L 98.9562,-755.558 L 99.0773,-755.367 L 99.1736,-755.163 L 99.2434,-754.948
 L 99.2858,-754.726 L 99.3,-754.5 L 99.2858,-754.274 L 99.2434,-754.052 L 99.1736,-753.837 L 99.0773,-753.633
 L 98.9562,-753.442 L 98.8121,-753.268 L 98.6474,-753.113 L 98.4645,-752.98 L 98.2664,-752.871 L 98.0562,-752.788
 L 97.8373,-752.732 L 97.613,-752.704 z
M -97.613,-752.704 L -97.8373,-752.732 L -98.0562,-752.788 L -98.2664,-752.871 L -98.4645,-752.98 L -98.6474,-753.113
 L -98.8121,-753.268 L -98.9562,-753.442 L -99.0773,-753.633 L -99.1736,-753.837 L -99.2434,-754.052 L -99.2858,-754.274
 L -99.3,-754.5 L -99.2858,-754.726 L -99.2434,-754.948 L -99.1736,-755.163 L -99.0773,-755.367 L -98.9562,-755.558
 L -98.8121,-755.732 L -98.6474,-755.887 L -98.4645,-756.02 L -98.2664,-756.129 L -98.0562,-756.212 L -97.8373,-756.268
 L -97.613,-756.296 L -97.387,-756.296 L -97.1627,-756.268 L -96.9438,-756.212 L -96.7336,-756.129 L -96.5355,-756.02
 L -96.3526,-755.887 L -96.1879,-755.732 L -96.0438,-755.558 L -95.9226,-755.367 L -95.8264,-755.163 L -95.7565,-754.948
 L -95.7142,-754.726 L -95.7,-754.5 L -95.7142,-754.274 L -95.7565,-754.052 L -95.8264,-753.837 L -95.9226,-753.633
 L -96.0438,-753.442 L -96.1879,-753.268 L -96.3526,-753.113 L -96.5355,-752.98 L -96.7336,-752.871 L -96.9438,-752.788
 L -97.1627,-752.732 L -97.387,-752.704 z
M -97.613,-557.704 L -97.8373,-557.732 L -98.0562,-557.788 L -98.2664,-557.871 L -98.4645,-557.98 L -98.6474,-558.113
 L -98.8121,-558.268 L -98.9562,-558.442 L -99.0773,-558.633 L -99.1736,-558.837 L -99.2434,-559.052 L -99.2858,-559.274
 L -99.3,-559.5 L -99.2858,-559.726 L -99.2434,-559.948 L -99.1736,-560.163 L -99.0773,-560.367 L -98.9562,-560.558
 L -98.8121,-560.732 L -98.6474,-560.887 L -98.4645,-561.02 L -98.2664,-561.129 L -98.0562,-561.212 L -97.8373,-561.268
 L -97.613,-561.296 L -97.387,-561.296 L -97.1627,-561.268 L -96.9438,-561.212 L -96.7336,-561.129 L -96.5355,-561.02
 L -96.3526,-560.887 L -96.1879,-560.732 L -96.0438,-560.558 L -95.9226,-560.367 L -95.8264,-560.163 L -95.7565,-559.948
 L -95.7142,-559.726 L -95.7,-559.5 L -95.7142,-559.274 L -95.7565,-559.052 L -95.8264,-558.837 L -95.9226,-558.633
 L -96.0438,-558.442 L -96.1879,-558.268 L -96.3526,-558.113 L -96.5355,-557.98 L -96.7336,-557.871 L -96.9438,-557.788
 L -97.1627,-557.732 L -97.387,-557.704 z
M 97.387,-557.704 L 97.1627,-557.732 L 96.9438,-557.788 L 96.7336,-557.871 L 96.5355,-557.98 L 96.3526,-558.113
 L 96.1879,-558.268 L 96.0438,-558.442 L 95.9226,-558.633 L 95.8264,-558.837 L 95.7565,-559.052 L 95.7142,-559.274
 L 95.7,-559.5 L 95.7142,-559.726 L 95.7565,-559.948 L 95.8264,-560.163 L 95.9226,-560.367 L 96.0438,-560.558
 L 96.1879,-560.732 L 96.3526,-560.887 L 96.5355,-561.02 L 96.7336,-561.129 L 96.9438,-561.212 L 97.1627,-561.268
 L 97.387,-561.296 L 97.613,-561.296 L 97.8373,-561.268 L 98.0562,-561.212 L 98.2664,-561.129 L 98.4645,-561.02
 L 98.6474,-560.887 L 98.8121,-560.732 L 98.9562,-560.558 L 99.0773,-560.367 L 99.1736,-560.163 L 99.2434,-559.948
 L 99.2858,-559.726 L 99.3,-559.5 L 99.2858,-559.274 L 99.2434,-559.052 L 99.1736,-558.837 L 99.0773,-558.633
 L 98.9562,-558.442 L 98.8121,-558.268 L 98.6474,-558.113 L 98.4645,-557.98 L 98.2664,-557.871 L 98.0562,-557.788
 L 97.8373,-557.732 L 97.613,-557.704 z
" stroke="black" fill="lightgray" stroke-width="0.5"/>
</svg>
