<?xml version="1.0" standalone="no"?>
<!DOCTYPE svg PUBLIC "-//W3C//DTD SVG 1.1//EN" "http://www.w3.org/Graphics/SVG/1.1/DTD/svg11.dtd">
<svg width="16mm" height="1026mm" viewBox="-8 -2031 16 1026" xmlns="http://www.w3.org/2000/svg" version="1.1">
<title>OpenSCAD Model</title>
<path d="
M 3.4369,-1971.09 L 4.04507,-1971.24 L 4.62889,-1971.48 L 5.17912,-1971.78 L 5.68712,-1972.15 L 6.14484,-1972.58
 L 6.54507,-1973.06 L 6.88153,-1973.59 L 7.14888,-1974.16 L 7.34291,-1974.76 L 7.46057,-1975.37 L 7.5,-1976
 L 7.5,-2026 L 7.46057,-2026.63 L 7.34291,-2027.24 L 7.14888,-2027.84 L 6.88153,-2028.41 L 6.54507,-2028.94
 L 6.14484,-2029.42 L 5.68712,-2029.85 L 5.17912,-2030.22 L 4.62889,-2030.52 L 4.04507,-2030.76 L 3.4369,-2030.91
 L 2.81395,-2030.99 L -2.81395,-2030.99 L -3.4369,-2030.91 L -4.04507,-2030.76 L -4.62889,-2030.52 L -5.17912,-2030.22
 L -5.68712,-2029.85 L -6.14484,-2029.42 L -6.54507,-2028.94 L -6.88153,-2028.41 L -7.14888,-2027.84 L -7.34291,-2027.24
 L -7.46057,-2026.63 L -7.5,-2026 L -7.5,-1976 L -7.46057,-1975.37 L -7.34291,-1974.76 L -7.14888,-1974.16
 L -6.88153,-1973.59 L -6.54507,-1973.06 L -6.14484,-1972.58 L -5.68712,-1972.15 L -5.17912,-1971.78 L -4.62889,-1971.48
 L -4.04507,-1971.24 L -3.4369,-1971.09 L -2.81395,-1971.01 L 2.81395,-1971.01 z
M -2.25116,-1972.51 L -2.74951,-1972.57 L -3.23605,-1972.7 L -3.70311,-1972.88 L -4.1433,-1973.12 L -4.54968,-1973.42
 L -4.91586,-1973.76 L -5.23605,-1974.15 L -5.50522,-1974.57 L -5.7191,-1975.03 L -5.87433,-1975.51 L -5.96844,-1976
 L -6,-1976.5 L -6,-2025.5 L -5.96844,-2026 L -5.87433,-2026.49 L -5.7191,-2026.97 L -5.50522,-2027.43
 L -5.23605,-2027.85 L -4.91586,-2028.24 L -4.54968,-2028.58 L -4.1433,-2028.88 L -3.70311,-2029.12 L -3.23605,-2029.3
 L -2.74951,-2029.43 L -2.25116,-2029.49 L 2.25116,-2029.49 L 2.74951,-2029.43 L 3.23605,-2029.3 L 3.70311,-2029.12
 L 4.1433,-2028.88 L 4.54968,-2028.58 L 4.91586,-2028.24 L 5.23605,-2027.85 L 5.50522,-2027.43 L 5.7191,-2026.97
 L 5.87433,-2026.49 L 5.96844,-2026 L 6,-2025.5 L 6,-1976.5 L 5.96844,-1976 L 5.87433,-1975.51
 L 5.7191,-1975.03 L 5.50522,-1974.57 L 5.23605,-1974.15 L 4.91586,-1973.76 L 4.54968,-1973.42 L 4.1433,-1973.12
 L 3.70311,-1972.88 L 3.23605,-1972.7 L 2.74951,-1972.57 L 2.25116,-1972.51 z
M 3.4369,-1902.09 L 4.04507,-1902.24 L 4.62889,-1902.48 L 5.17912,-1902.78 L 5.68712,-1903.15 L 6.14484,-1903.58
 L 6.54507,-1904.06 L 6.88153,-1904.59 L 7.14888,-1905.16 L 7.34291,-1905.76 L 7.46057,-1906.37 L 7.5,-1907
 L 7.5,-1957 L 7.46057,-1957.63 L 7.34291,-1958.24 L 7.14888,-1958.84 L 6.88153,-1959.41 L 6.54507,-1959.94
 L 6.14484,-1960.42 L 5.68712,-1960.85 L 5.17912,-1961.22 L 4.62889,-1961.52 L 4.04507,-1961.76 L 3.4369,-1961.91
 L 2.81395,-1961.99 L -2.81395,-1961.99 L -3.4369,-1961.91 L -4.04507,-1961.76 L -4.62889,-1961.52 L -5.17912,-1961.22
 L -5.68712,-1960.85 L -6.14484,-1960.42 L -6.54507,-1959.94 L -6.88153,-1959.41 L -7.14888,-1958.84 L -7.34291,-1958.24
 L -7.46057,-1957.63 L -7.5,-1957 L -7.5,-1907 L -7.46057,-1906.37 L -7.34291,-1905.76 L -7.14888,-1905.16
 L -6.88153,-1904.59 L -6.54507,-1904.06 L -6.14484,-1903.58 L -5.68712,-1903.15 L -5.17912,-1902.78 L -4.62889,-1902.48
 L -4.04507,-1902.24 L -3.4369,-1902.09 L -2.81395,-1902.01 L 2.81395,-1902.01 z
M -2.25116,-1903.51 L -2.74951,-1903.57 L -3.23605,-1903.7 L -3.70311,-1903.88 L -4.1433,-1904.12 L -4.54968,-1904.42
 L -4.91586,-1904.76 L -5.23605,-1905.15 L -5.50522,-1905.57 L -5.7191,-1906.03 L -5.87433,-1906.51 L -5.96844,-1907
 L -6,-1907.5 L -6,-1956.5 L -5.96844,-1957 L -5.87433,-1957.49 L -5.7191,-1957.97 L -5.50522,-1958.43
 L -5.23605,-1958.85 L -4.91586,-1959.24 L -4.54968,-1959.58 L -4.1433,-1959.88 L -3.70311,-1960.12 L -3.23605,-1960.3
 L -2.74951,-1960.43 L -2.25116,-1960.49 L 2.25116,-1960.49 L 2.74951,-1960.43 L 3.23605,-1960.3 L 3.70311,-1960.12
 L 4.1433,-1959.88 L 4.54968,-1959.58 L 4.91586,-1959.24 L 5.23605,-1958.85 L 5.50522,-1958.43 L 5.7191,-1957.97
 L 5.87433,-1957.49 L 5.96844,-1957 L 6,-1956.5 L 6,-1907.5 L 5.96844,-1907 L 5.87433,-1906.51
 L 5.7191,-1906.03 L 5.50522,-1905.57 L 5.23605,-1905.15 L 4.91586,-1904.76 L 4.54968,-1904.42 L 4.1433,-1904.12
 L 3.70311,-1903.88 L 3.23605,-1903.7 L 2.74951,-1903.57 L 2.25116,-1903.51 z
M 3.4369,-1833.09 L 4.04507,-1833.24 L 4.62889,-1833.48 L 5.17912,-1833.78 L 5.68712,-1834.15 L 6.14484,-1834.58
 L 6.54507,-1835.06 L 6.88153,-1835.59 L 7.14888,-1836.16 L 7.34291,-1836.76 L 7.46057,-1837.37 L 7.5,-1838
 L 7.5,-1888 L 7.46057,-1888.63 L 7.34291,-1889.24 L 7.14888,-1889.84 L 6.88153,-1890.41 L 6.54507,-1890.94
 L 6.14484,-1891.42 L 5.68712,-1891.85 L 5.17912,-1892.22 L 4.62889,-1892.52 L 4.04507,-1892.76 L 3.4369,-1892.91
 L 2.81395,-1892.99 L -2.81395,-1892.99 L -3.4369,-1892.91 L -4.04507,-1892.76 L -4.62889,-1892.52 L -5.17912,-1892.22
 L -5.68712,-1891.85 L -6.14484,-1891.42 L -6.54507,-1890.94 L -6.88153,-1890.41 L -7.14888,-1889.84 L -7.34291,-1889.24
 L -7.46057,-1888.63 L -7.5,-1888 L -7.5,-1838 L -7.46057,-1837.37 L -7.34291,-1836.76 L -7.14888,-1836.16
 L -6.88153,-1835.59 L -6.54507,-1835.06 L -6.14484,-1834.58 L -5.68712,-1834.15 L -5.17912,-1833.78 L -4.62889,-1833.48
 L -4.04507,-1833.24 L -3.4369,-1833.09 L -2.81395,-1833.01 L 2.81395,-1833.01 z
M -2.25116,-1834.51 L -2.74951,-1834.57 L -3.23605,-1834.7 L -3.70311,-1834.88 L -4.1433,-1835.12 L -4.54968,-1835.42
 L -4.91586,-1835.76 L -5.23605,-1836.15 L -5.50522,-1836.57 L -5.7191,-1837.03 L -5.87433,-1837.51 L -5.96844,-1838
 L -6,-1838.5 L -6,-1887.5 L -5.96844,-1888 L -5.87433,-1888.49 L -5.7191,-1888.97 L -5.50522,-1889.43
 L -5.23605,-1889.85 L -4.91586,-1890.24 L -4.54968,-1890.58 L -4.1433,-1890.88 L -3.70311,-1891.12 L -3.23605,-1891.3
 L -2.74951,-1891.43 L -2.25116,-1891.49 L 2.25116,-1891.49 L 2.74951,-1891.43 L 3.23605,-1891.3 L 3.70311,-1891.12
 L 4.1433,-1890.88 L 4.54968,-1890.58 L 4.91586,-1890.24 L 5.23605,-1889.85 L 5.50522,-1889.43 L 5.7191,-1888.97
 L 5.87433,-1888.49 L 5.96844,-1888 L 6,-1887.5 L 6,-1838.5 L 5.96844,-1838 L 5.87433,-1837.51
 L 5.7191,-1837.03 L 5.50522,-1836.57 L 5.23605,-1836.15 L 4.91586,-1835.76 L 4.54968,-1835.42 L 4.1433,-1835.12
 L 3.70311,-1834.88 L 3.23605,-1834.7 L 2.74951,-1834.57 L 2.25116,-1834.51 z
M 3.4369,-1764.09 L 4.04507,-1764.24 L 4.62889,-1764.48 L 5.17912,-1764.78 L 5.68712,-1765.15 L 6.14484,-1765.58
 L 6.54507,-1766.06 L 6.88153,-1766.59 L 7.14888,-1767.16 L 7.34291,-1767.76 L 7.46057,-1768.37 L 7.5,-1769
 L 7.5,-1819 L 7.46057,-1819.63 L 7.34291,-1820.24 L 7.14888,-1820.84 L 6.88153,-1821.41 L 6.54507,-1821.94
 L 6.14484,-1822.42 L 5.68712,-1822.85 L 5.17912,-1823.22 L 4.62889,-1823.52 L 4.04507,-1823.76 L 3.4369,-1823.91
 L 2.81395,-1823.99 L -2.81395,-1823.99 L -3.4369,-1823.91 L -4.04507,-1823.76 L -4.62889,-1823.52 L -5.17912,-1823.22
 L -5.68712,-1822.85 L -6.14484,-1822.42 L -6.54507,-1821.94 L -6.88153,-1821.41 L -7.14888,-1820.84 L -7.34291,-1820.24
 L -7.46057,-1819.63 L -7.5,-1819 L -7.5,-1769 L -7.46057,-1768.37 L -7.34291,-1767.76 L -7.14888,-1767.16
 L -6.88153,-1766.59 L -6.54507,-1766.06 L -6.14484,-1765.58 L -5.68712,-1765.15 L -5.17912,-1764.78 L -4.62889,-1764.48
 L -4.04507,-1764.24 L -3.4369,-1764.09 L -2.81395,-1764.01 L 2.81395,-1764.01 z
M -2.25116,-1765.51 L -2.74951,-1765.57 L -3.23605,-1765.7 L -3.70311,-1765.88 L -4.1433,-1766.12 L -4.54968,-1766.42
 L -4.91586,-1766.76 L -5.23605,-1767.15 L -5.50522,-1767.57 L -5.7191,-1768.03 L -5.87433,-1768.51 L -5.96844,-1769
 L -6,-1769.5 L -6,-1818.5 L -5.96844,-1819 L -5.87433,-1819.49 L -5.7191,-1819.97 L -5.50522,-1820.43
 L -5.23605,-1820.85 L -4.91586,-1821.24 L -4.54968,-1821.58 L -4.1433,-1821.88 L -3.70311,-1822.12 L -3.23605,-1822.3
 L -2.74951,-1822.43 L -2.25116,-1822.49 L 2.25116,-1822.49 L 2.74951,-1822.43 L 3.23605,-1822.3 L 3.70311,-1822.12
 L 4.1433,-1821.88 L 4.54968,-1821.58 L 4.91586,-1821.24 L 5.23605,-1820.85 L 5.50522,-1820.43 L 5.7191,-1819.97
 L 5.87433,-1819.49 L 5.96844,-1819 L 6,-1818.5 L 6,-1769.5 L 5.96844,-1769 L 5.87433,-1768.51
 L 5.7191,-1768.03 L 5.50522,-1767.57 L 5.23605,-1767.15 L 4.91586,-1766.76 L 4.54968,-1766.42 L 4.1433,-1766.12
 L 3.70311,-1765.88 L 3.23605,-1765.7 L 2.74951,-1765.57 L 2.25116,-1765.51 z
M 3.4369,-1695.09 L 4.04507,-1695.24 L 4.62889,-1695.48 L 5.17912,-1695.78 L 5.68712,-1696.15 L 6.14484,-1696.58
 L 6.54507,-1697.06 L 6.88153,-1697.59 L 7.14888,-1698.16 L 7.34291,-1698.76 L 7.46057,-1699.37 L 7.5,-1700
 L 7.5,-1750 L 7.46057,-1750.63 L 7.34291,-1751.24 L 7.14888,-1751.84 L 6.88153,-1752.41 L 6.54507,-1752.94
 L 6.14484,-1753.42 L 5.68712,-1753.85 L 5.17912,-1754.22 L 4.62889,-1754.52 L 4.04507,-1754.76 L 3.4369,-1754.91
 L 2.81395,-1754.99 L -2.81395,-1754.99 L -3.4369,-1754.91 L -4.04507,-1754.76 L -4.62889,-1754.52 L -5.17912,-1754.22
 L -5.68712,-1753.85 L -6.14484,-1753.42 L -6.54507,-1752.94 L -6.88153,-1752.41 L -7.14888,-1751.84 L -7.34291,-1751.24
 L -7.46057,-1750.63 L -7.5,-1750 L -7.5,-1700 L -7.46057,-1699.37 L -7.34291,-1698.76 L -7.14888,-1698.16
 L -6.88153,-1697.59 L -6.54507,-1697.06 L -6.14484,-1696.58 L -5.68712,-1696.15 L -5.17912,-1695.78 L -4.62889,-1695.48
 L -4.04507,-1695.24 L -3.4369,-1695.09 L -2.81395,-1695.01 L 2.81395,-1695.01 z
M -2.25116,-1696.51 L -2.74951,-1696.57 L -3.23605,-1696.7 L -3.70311,-1696.88 L -4.1433,-1697.12 L -4.54968,-1697.42
 L -4.91586,-1697.76 L -5.23605,-1698.15 L -5.50522,-1698.57 L -5.7191,-1699.03 L -5.87433,-1699.51 L -5.96844,-1700
 L -6,-1700.5 L -6,-1749.5 L -5.96844,-1750 L -5.87433,-1750.49 L -5.7191,-1750.97 L -5.50522,-1751.43
 L -5.23605,-1751.85 L -4.91586,-1752.24 L -4.54968,-1752.58 L -4.1433,-1752.88 L -3.70311,-1753.12 L -3.23605,-1753.3
 L -2.74951,-1753.43 L -2.25116,-1753.49 L 2.25116,-1753.49 L 2.74951,-1753.43 L 3.23605,-1753.3 L 3.70311,-1753.12
 L 4.1433,-1752.88 L 4.54968,-1752.58 L 4.91586,-1752.24 L 5.23605,-1751.85 L 5.50522,-1751.43 L 5.7191,-1750.97
 L 5.87433,-1750.49 L 5.96844,-1750 L 6,-1749.5 L 6,-1700.5 L 5.96844,-1700 L 5.87433,-1699.51
 L 5.7191,-1699.03 L 5.50522,-1698.57 L 5.23605,-1698.15 L 4.91586,-1697.76 L 4.54968,-1697.42 L 4.1433,-1697.12
 L 3.70311,-1696.88 L 3.23605,-1696.7 L 2.74951,-1696.57 L 2.25116,-1696.51 z
M 3.4369,-1626.09 L 4.04507,-1626.24 L 4.62889,-1626.48 L 5.17912,-1626.78 L 5.68712,-1627.15 L 6.14484,-1627.58
 L 6.54507,-1628.06 L 6.88153,-1628.59 L 7.14888,-1629.16 L 7.34291,-1629.76 L 7.46057,-1630.37 L 7.5,-1631
 L 7.5,-1681 L 7.46057,-1681.63 L 7.34291,-1682.24 L 7.14888,-1682.84 L 6.88153,-1683.41 L 6.54507,-1683.94
 L 6.14484,-1684.42 L 5.68712,-1684.85 L 5.17912,-1685.22 L 4.62889,-1685.52 L 4.04507,-1685.76 L 3.4369,-1685.91
 L 2.81395,-1685.99 L -2.81395,-1685.99 L -3.4369,-1685.91 L -4.04507,-1685.76 L -4.62889,-1685.52 L -5.17912,-1685.22
 L -5.68712,-1684.85 L -6.14484,-1684.42 L -6.54507,-1683.94 L -6.88153,-1683.41 L -7.14888,-1682.84 L -7.34291,-1682.24
 L -7.46057,-1681.63 L -7.5,-1681 L -7.5,-1631 L -7.46057,-1630.37 L -7.34291,-1629.76 L -7.14888,-1629.16
 L -6.88153,-1628.59 L -6.54507,-1628.06 L -6.14484,-1627.58 L -5.68712,-1627.15 L -5.17912,-1626.78 L -4.62889,-1626.48
 L -4.04507,-1626.24 L -3.4369,-1626.09 L -2.81395,-1626.01 L 2.81395,-1626.01 z
M -2.25116,-1627.51 L -2.74951,-1627.57 L -3.23605,-1627.7 L -3.70311,-1627.88 L -4.1433,-1628.12 L -4.54968,-1628.42
 L -4.91586,-1628.76 L -5.23605,-1629.15 L -5.50522,-1629.57 L -5.7191,-1630.03 L -5.87433,-1630.51 L -5.96844,-1631
 L -6,-1631.5 L -6,-1680.5 L -5.96844,-1681 L -5.87433,-1681.49 L -5.7191,-1681.97 L -5.50522,-1682.43
 L -5.23605,-1682.85 L -4.91586,-1683.24 L -4.54968,-1683.58 L -4.1433,-1683.88 L -3.70311,-1684.12 L -3.23605,-1684.3
 L -2.74951,-1684.43 L -2.25116,-1684.49 L 2.25116,-1684.49 L 2.74951,-1684.43 L 3.23605,-1684.3 L 3.70311,-1684.12
 L 4.1433,-1683.88 L 4.54968,-1683.58 L 4.91586,-1683.24 L 5.23605,-1682.85 L 5.50522,-1682.43 L 5.7191,-1681.97
 L 5.87433,-1681.49 L 5.96844,-1681 L 6,-1680.5 L 6,-1631.5 L 5.96844,-1631 L 5.87433,-1630.51
 L 5.7191,-1630.03 L 5.50522,-1629.57 L 5.23605,-1629.15 L 4.91586,-1628.76 L 4.54968,-1628.42 L 4.1433,-1628.12
 L 3.70311,-1627.88 L 3.23605,-1627.7 L 2.74951,-1627.57 L 2.25116,-1627.51 z
M 3.4369,-1557.09 L 4.04507,-1557.24 L 4.62889,-1557.48 L 5.17912,-1557.78 L 5.68712,-1558.15 L 6.14484,-1558.58
 L 6.54507,-1559.06 L 6.88153,-1559.59 L 7.14888,-1560.16 L 7.34291,-1560.76 L 7.46057,-1561.37 L 7.5,-1562
 L 7.5,-1612 L 7.46057,-1612.63 L 7.34291,-1613.24 L 7.14888,-1613.84 L 6.88153,-1614.41 L 6.54507,-1614.94
 L 6.14484,-1615.42 L 5.68712,-1615.85 L 5.17912,-1616.22 L 4.62889,-1616.52 L 4.04507,-1616.76 L 3.4369,-1616.91
 L 2.81395,-1616.99 L -2.81395,-1616.99 L -3.4369,-1616.91 L -4.04507,-1616.76 L -4.62889,-1616.52 L -5.17912,-1616.22
 L -5.68712,-1615.85 L -6.14484,-1615.42 L -6.54507,-1614.94 L -6.88153,-1614.41 L -7.14888,-1613.84 L -7.34291,-1613.24
 L -7.46057,-1612.63 L -7.5,-1612 L -7.5,-1562 L -7.46057,-1561.37 L -7.34291,-1560.76 L -7.14888,-1560.16
 L -6.88153,-1559.59 L -6.54507,-1559.06 L -6.14484,-1558.58 L -5.68712,-1558.15 L -5.17912,-1557.78 L -4.62889,-1557.48
 L -4.04507,-1557.24 L -3.4369,-1557.09 L -2.81395,-1557.01 L 2.81395,-1557.01 z
M -2.25116,-1558.51 L -2.74951,-1558.57 L -3.23605,-1558.7 L -3.70311,-1558.88 L -4.1433,-1559.12 L -4.54968,-1559.42
 L -4.91586,-1559.76 L -5.23605,-1560.15 L -5.50522,-1560.57 L -5.7191,-1561.03 L -5.87433,-1561.51 L -5.96844,-1562
 L -6,-1562.5 L -6,-1611.5 L -5.96844,-1612 L -5.87433,-1612.49 L -5.7191,-1612.97 L -5.50522,-1613.43
 L -5.23605,-1613.85 L -4.91586,-1614.24 L -4.54968,-1614.58 L -4.1433,-1614.88 L -3.70311,-1615.12 L -3.23605,-1615.3
 L -2.74951,-1615.43 L -2.25116,-1615.49 L 2.25116,-1615.49 L 2.74951,-1615.43 L 3.23605,-1615.3 L 3.70311,-1615.12
 L 4.1433,-1614.88 L 4.54968,-1614.58 L 4.91586,-1614.24 L 5.23605,-1613.85 L 5.50522,-1613.43 L 5.7191,-1612.97
 L 5.87433,-1612.49 L 5.96844,-1612 L 6,-1611.5 L 6,-1562.5 L 5.96844,-1562 L 5.87433,-1561.51
 L 5.7191,-1561.03 L 5.50522,-1560.57 L 5.23605,-1560.15 L 4.91586,-1559.76 L 4.54968,-1559.42 L 4.1433,-1559.12
 L 3.70311,-1558.88 L 3.23605,-1558.7 L 2.74951,-1558.57 L 2.25116,-1558.51 z
M 3.4369,-1488.09 L 4.04507,-1488.24 L 4.62889,-1488.48 L 5.17912,-1488.78 L 5.68712,-1489.15 L 6.14484,-1489.58
 L 6.54507,-1490.06 L 6.88153,-1490.59 L 7.14888,-1491.16 L 7.34291,-1491.76 L 7.46057,-1492.37 L 7.5,-1493
 L 7.5,-1543 L 7.46057,-1543.63 L 7.34291,-1544.24 L 7.14888,-1544.84 L 6.88153,-1545.41 L 6.54507,-1545.94
 L 6.14484,-1546.42 L 5.68712,-1546.85 L 5.17912,-1547.22 L 4.62889,-1547.52 L 4.04507,-1547.76 L 3.4369,-1547.91
 L 2.81395,-1547.99 L -2.81395,-1547.99 L -3.4369,-1547.91 L -4.04507,-1547.76 L -4.62889,-1547.52 L -5.17912,-1547.22
 L -5.68712,-1546.85 L -6.14484,-1546.42 L -6.54507,-1545.94 L -6.88153,-1545.41 L -7.14888,-1544.84 L -7.34291,-1544.24
 L -7.46057,-1543.63 L -7.5,-1543 L -7.5,-1493 L -7.46057,-1492.37 L -7.34291,-1491.76 L -7.14888,-1491.16
 L -6.88153,-1490.59 L -6.54507,-1490.06 L -6.14484,-1489.58 L -5.68712,-1489.15 L -5.17912,-1488.78 L -4.62889,-1488.48
 L -4.04507,-1488.24 L -3.4369,-1488.09 L -2.81395,-1488.01 L 2.81395,-1488.01 z
M -2.25116,-1489.51 L -2.74951,-1489.57 L -3.23605,-1489.7 L -3.70311,-1489.88 L -4.1433,-1490.12 L -4.54968,-1490.42
 L -4.91586,-1490.76 L -5.23605,-1491.15 L -5.50522,-1491.57 L -5.7191,-1492.03 L -5.87433,-1492.51 L -5.96844,-1493
 L -6,-1493.5 L -6,-1542.5 L -5.96844,-1543 L -5.87433,-1543.49 L -5.7191,-1543.97 L -5.50522,-1544.43
 L -5.23605,-1544.85 L -4.91586,-1545.24 L -4.54968,-1545.58 L -4.1433,-1545.88 L -3.70311,-1546.12 L -3.23605,-1546.3
 L -2.74951,-1546.43 L -2.25116,-1546.49 L 2.25116,-1546.49 L 2.74951,-1546.43 L 3.23605,-1546.3 L 3.70311,-1546.12
 L 4.1433,-1545.88 L 4.54968,-1545.58 L 4.91586,-1545.24 L 5.23605,-1544.85 L 5.50522,-1544.43 L 5.7191,-1543.97
 L 5.87433,-1543.49 L 5.96844,-1543 L 6,-1542.5 L 6,-1493.5 L 5.96844,-1493 L 5.87433,-1492.51
 L 5.7191,-1492.03 L 5.50522,-1491.57 L 5.23605,-1491.15 L 4.91586,-1490.76 L 4.54968,-1490.42 L 4.1433,-1490.12
 L 3.70311,-1489.88 L 3.23605,-1489.7 L 2.74951,-1489.57 L 2.25116,-1489.51 z
M 3.4369,-1419.09 L 4.04507,-1419.24 L 4.62889,-1419.48 L 5.17912,-1419.78 L 5.68712,-1420.15 L 6.14484,-1420.58
 L 6.54507,-1421.06 L 6.88153,-1421.59 L 7.14888,-1422.16 L 7.34291,-1422.76 L 7.46057,-1423.37 L 7.5,-1424
 L 7.5,-1474 L 7.46057,-1474.63 L 7.34291,-1475.24 L 7.14888,-1475.84 L 6.88153,-1476.41 L 6.54507,-1476.94
 L 6.14484,-1477.42 L 5.68712,-1477.85 L 5.17912,-1478.22 L 4.62889,-1478.52 L 4.04507,-1478.76 L 3.4369,-1478.91
 L 2.81395,-1478.99 L -2.81395,-1478.99 L -3.4369,-1478.91 L -4.04507,-1478.76 L -4.62889,-1478.52 L -5.17912,-1478.22
 L -5.68712,-1477.85 L -6.14484,-1477.42 L -6.54507,-1476.94 L -6.88153,-1476.41 L -7.14888,-1475.84 L -7.34291,-1475.24
 L -7.46057,-1474.63 L -7.5,-1474 L -7.5,-1424 L -7.46057,-1423.37 L -7.34291,-1422.76 L -7.14888,-1422.16
 L -6.88153,-1421.59 L -6.54507,-1421.06 L -6.14484,-1420.58 L -5.68712,-1420.15 L -5.17912,-1419.78 L -4.62889,-1419.48
 L -4.04507,-1419.24 L -3.4369,-1419.09 L -2.81395,-1419.01 L 2.81395,-1419.01 z
M -2.25116,-1420.51 L -2.74951,-1420.57 L -3.23605,-1420.7 L -3.70311,-1420.88 L -4.1433,-1421.12 L -4.54968,-1421.42
 L -4.91586,-1421.76 L -5.23605,-1422.15 L -5.50522,-1422.57 L -5.7191,-1423.03 L -5.87433,-1423.51 L -5.96844,-1424
 L -6,-1424.5 L -6,-1473.5 L -5.96844,-1474 L -5.87433,-1474.49 L -5.7191,-1474.97 L -5.50522,-1475.43
 L -5.23605,-1475.85 L -4.91586,-1476.24 L -4.54968,-1476.58 L -4.1433,-1476.88 L -3.70311,-1477.12 L -3.23605,-1477.3
 L -2.74951,-1477.43 L -2.25116,-1477.49 L 2.25116,-1477.49 L 2.74951,-1477.43 L 3.23605,-1477.3 L 3.70311,-1477.12
 L 4.1433,-1476.88 L 4.54968,-1476.58 L 4.91586,-1476.24 L 5.23605,-1475.85 L 5.50522,-1475.43 L 5.7191,-1474.97
 L 5.87433,-1474.49 L 5.96844,-1474 L 6,-1473.5 L 6,-1424.5 L 5.96844,-1424 L 5.87433,-1423.51
 L 5.7191,-1423.03 L 5.50522,-1422.57 L 5.23605,-1422.15 L 4.91586,-1421.76 L 4.54968,-1421.42 L 4.1433,-1421.12
 L 3.70311,-1420.88 L 3.23605,-1420.7 L 2.74951,-1420.57 L 2.25116,-1420.51 z
M 3.4369,-1350.09 L 4.04507,-1350.24 L 4.62889,-1350.48 L 5.17912,-1350.78 L 5.68712,-1351.15 L 6.14484,-1351.58
 L 6.54507,-1352.06 L 6.88153,-1352.59 L 7.14888,-1353.16 L 7.34291,-1353.76 L 7.46057,-1354.37 L 7.5,-1355
 L 7.5,-1405 L 7.46057,-1405.63 L 7.34291,-1406.24 L 7.14888,-1406.84 L 6.88153,-1407.41 L 6.54507,-1407.94
 L 6.14484,-1408.42 L 5.68712,-1408.85 L 5.17912,-1409.22 L 4.62889,-1409.52 L 4.04507,-1409.76 L 3.4369,-1409.91
 L 2.81395,-1409.99 L -2.81395,-1409.99 L -3.4369,-1409.91 L -4.04507,-1409.76 L -4.62889,-1409.52 L -5.17912,-1409.22
 L -5.68712,-1408.85 L -6.14484,-1408.42 L -6.54507,-1407.94 L -6.88153,-1407.41 L -7.14888,-1406.84 L -7.34291,-1406.24
 L -7.46057,-1405.63 L -7.5,-1405 L -7.5,-1355 L -7.46057,-1354.37 L -7.34291,-1353.76 L -7.14888,-1353.16
 L -6.88153,-1352.59 L -6.54507,-1352.06 L -6.14484,-1351.58 L -5.68712,-1351.15 L -5.17912,-1350.78 L -4.62889,-1350.48
 L -4.04507,-1350.24 L -3.4369,-1350.09 L -2.81395,-1350.01 L 2.81395,-1350.01 z
M -2.25116,-1351.51 L -2.74951,-1351.57 L -3.23605,-1351.7 L -3.70311,-1351.88 L -4.1433,-1352.12 L -4.54968,-1352.42
 L -4.91586,-1352.76 L -5.23605,-1353.15 L -5.50522,-1353.57 L -5.7191,-1354.03 L -5.87433,-1354.51 L -5.96844,-1355
 L -6,-1355.5 L -6,-1404.5 L -5.96844,-1405 L -5.87433,-1405.49 L -5.7191,-1405.97 L -5.50522,-1406.43
 L -5.23605,-1406.85 L -4.91586,-1407.24 L -4.54968,-1407.58 L -4.1433,-1407.88 L -3.70311,-1408.12 L -3.23605,-1408.3
 L -2.74951,-1408.43 L -2.25116,-1408.49 L 2.25116,-1408.49 L 2.74951,-1408.43 L 3.23605,-1408.3 L 3.70311,-1408.12
 L 4.1433,-1407.88 L 4.54968,-1407.58 L 4.91586,-1407.24 L 5.23605,-1406.85 L 5.50522,-1406.43 L 5.7191,-1405.97
 L 5.87433,-1405.49 L 5.96844,-1405 L 6,-1404.5 L 6,-1355.5 L 5.96844,-1355 L 5.87433,-1354.51
 L 5.7191,-1354.03 L 5.50522,-1353.57 L 5.23605,-1353.15 L 4.91586,-1352.76 L 4.54968,-1352.42 L 4.1433,-1352.12
 L 3.70311,-1351.88 L 3.23605,-1351.7 L 2.74951,-1351.57 L 2.25116,-1351.51 z
M 3.4369,-1281.09 L 4.04507,-1281.24 L 4.62889,-1281.48 L 5.17912,-1281.78 L 5.68712,-1282.15 L 6.14484,-1282.58
 L 6.54507,-1283.06 L 6.88153,-1283.59 L 7.14888,-1284.16 L 7.34291,-1284.76 L 7.46057,-1285.37 L 7.5,-1286
 L 7.5,-1336 L 7.46057,-1336.63 L 7.34291,-1337.24 L 7.14888,-1337.84 L 6.88153,-1338.41 L 6.54507,-1338.94
 L 6.14484,-1339.42 L 5.68712,-1339.85 L 5.17912,-1340.22 L 4.62889,-1340.52 L 4.04507,-1340.76 L 3.4369,-1340.91
 L 2.81395,-1340.99 L -2.81395,-1340.99 L -3.4369,-1340.91 L -4.04507,-1340.76 L -4.62889,-1340.52 L -5.17912,-1340.22
 L -5.68712,-1339.85 L -6.14484,-1339.42 L -6.54507,-1338.94 L -6.88153,-1338.41 L -7.14888,-1337.84 L -7.34291,-1337.24
 L -7.46057,-1336.63 L -7.5,-1336 L -7.5,-1286 L -7.46057,-1285.37 L -7.34291,-1284.76 L -7.14888,-1284.16
 L -6.88153,-1283.59 L -6.54507,-1283.06 L -6.14484,-1282.58 L -5.68712,-1282.15 L -5.17912,-1281.78 L -4.62889,-1281.48
 L -4.04507,-1281.24 L -3.4369,-1281.09 L -2.81395,-1281.01 L 2.81395,-1281.01 z
M -2.25116,-1282.51 L -2.74951,-1282.57 L -3.23605,-1282.7 L -3.70311,-1282.88 L -4.1433,-1283.12 L -4.54968,-1283.42
 L -4.91586,-1283.76 L -5.23605,-1284.15 L -5.50522,-1284.57 L -5.7191,-1285.03 L -5.87433,-1285.51 L -5.96844,-1286
 L -6,-1286.5 L -6,-1335.5 L -5.96844,-1336 L -5.87433,-1336.49 L -5.7191,-1336.97 L -5.50522,-1337.43
 L -5.23605,-1337.85 L -4.91586,-1338.24 L -4.54968,-1338.58 L -4.1433,-1338.88 L -3.70311,-1339.12 L -3.23605,-1339.3
 L -2.74951,-1339.43 L -2.25116,-1339.49 L 2.25116,-1339.49 L 2.74951,-1339.43 L 3.23605,-1339.3 L 3.70311,-1339.12
 L 4.1433,-1338.88 L 4.54968,-1338.58 L 4.91586,-1338.24 L 5.23605,-1337.85 L 5.50522,-1337.43 L 5.7191,-1336.97
 L 5.87433,-1336.49 L 5.96844,-1336 L 6,-1335.5 L 6,-1286.5 L 5.96844,-1286 L 5.87433,-1285.51
 L 5.7191,-1285.03 L 5.50522,-1284.57 L 5.23605,-1284.15 L 4.91586,-1283.76 L 4.54968,-1283.42 L 4.1433,-1283.12
 L 3.70311,-1282.88 L 3.23605,-1282.7 L 2.74951,-1282.57 L 2.25116,-1282.51 z
M 3.4369,-1212.09 L 4.04507,-1212.24 L 4.62889,-1212.48 L 5.17912,-1212.78 L 5.68712,-1213.15 L 6.14484,-1213.58
 L 6.54507,-1214.06 L 6.88153,-1214.59 L 7.14888,-1215.16 L 7.34291,-1215.76 L 7.46057,-1216.37 L 7.5,-1217
 L 7.5,-1267 L 7.46057,-1267.63 L 7.34291,-1268.24 L 7.14888,-1268.84 L 6.88153,-1269.41 L 6.54507,-1269.94
 L 6.14484,-1270.42 L 5.68712,-1270.85 L 5.17912,-1271.22 L 4.62889,-1271.52 L 4.04507,-1271.76 L 3.4369,-1271.91
 L 2.81395,-1271.99 L -2.81395,-1271.99 L -3.4369,-1271.91 L -4.04507,-1271.76 L -4.62889,-1271.52 L -5.17912,-1271.22
 L -5.68712,-1270.85 L -6.14484,-1270.42 L -6.54507,-1269.94 L -6.88153,-1269.41 L -7.14888,-1268.84 L -7.34291,-1268.24
 L -7.46057,-1267.63 L -7.5,-1267 L -7.5,-1217 L -7.46057,-1216.37 L -7.34291,-1215.76 L -7.14888,-1215.16
 L -6.88153,-1214.59 L -6.54507,-1214.06 L -6.14484,-1213.58 L -5.68712,-1213.15 L -5.17912,-1212.78 L -4.62889,-1212.48
 L -4.04507,-1212.24 L -3.4369,-1212.09 L -2.81395,-1212.01 L 2.81395,-1212.01 z
M -2.25116,-1213.51 L -2.74951,-1213.57 L -3.23605,-1213.7 L -3.70311,-1213.88 L -4.1433,-1214.12 L -4.54968,-1214.42
 L -4.91586,-1214.76 L -5.23605,-1215.15 L -5.50522,-1215.57 L -5.7191,-1216.03 L -5.87433,-1216.51 L -5.96844,-1217
 L -6,-1217.5 L -6,-1266.5 L -5.96844,-1267 L -5.87433,-1267.49 L -5.7191,-1267.97 L -5.50522,-1268.43
 L -5.23605,-1268.85 L -4.91586,-1269.24 L -4.54968,-1269.58 L -4.1433,-1269.88 L -3.70311,-1270.12 L -3.23605,-1270.3
 L -2.74951,-1270.43 L -2.25116,-1270.49 L 2.25116,-1270.49 L 2.74951,-1270.43 L 3.23605,-1270.3 L 3.70311,-1270.12
 L 4.1433,-1269.88 L 4.54968,-1269.58 L 4.91586,-1269.24 L 5.23605,-1268.85 L 5.50522,-1268.43 L 5.7191,-1267.97
 L 5.87433,-1267.49 L 5.96844,-1267 L 6,-1266.5 L 6,-1217.5 L 5.96844,-1217 L 5.87433,-1216.51
 L 5.7191,-1216.03 L 5.50522,-1215.57 L 5.23605,-1215.15 L 4.91586,-1214.76 L 4.54968,-1214.42 L 4.1433,-1214.12
 L 3.70311,-1213.88 L 3.23605,-1213.7 L 2.74951,-1213.57 L 2.25116,-1213.51 z
M 3.4369,-1143.09 L 4.04507,-1143.24 L 4.62889,-1143.48 L 5.17912,-1143.78 L 5.68712,-1144.15 L 6.14484,-1144.58
 L 6.54507,-1145.06 L 6.88153,-1145.59 L 7.14888,-1146.16 L 7.34291,-1146.76 L 7.46057,-1147.37 L 7.5,-1148
 L 7.5,-1198 L 7.46057,-1198.63 L 7.34291,-1199.24 L 7.14888,-1199.84 L 6.88153,-1200.41 L 6.54507,-1200.94
 L 6.14484,-1201.42 L 5.68712,-1201.85 L 5.17912,-1202.22 L 4.62889,-1202.52 L 4.04507,-1202.76 L 3.4369,-1202.91
 L 2.81395,-1202.99 L -2.81395,-1202.99 L -3.4369,-1202.91 L -4.04507,-1202.76 L -4.62889,-1202.52 L -5.17912,-1202.22
 L -5.68712,-1201.85 L -6.14484,-1201.42 L -6.54507,-1200.94 L -6.88153,-1200.41 L -7.14888,-1199.84 L -7.34291,-1199.24
 L -7.46057,-1198.63 L -7.5,-1198 L -7.5,-1148 L -7.46057,-1147.37 L -7.34291,-1146.76 L -7.14888,-1146.16
 L -6.88153,-1145.59 L -6.54507,-1145.06 L -6.14484,-1144.58 L -5.68712,-1144.15 L -5.17912,-1143.78 L -4.62889,-1143.48
 L -4.04507,-1143.24 L -3.4369,-1143.09 L -2.81395,-1143.01 L 2.81395,-1143.01 z
M -2.25116,-1144.51 L -2.74951,-1144.57 L -3.23605,-1144.7 L -3.70311,-1144.88 L -4.1433,-1145.12 L -4.54968,-1145.42
 L -4.91586,-1145.76 L -5.23605,-1146.15 L -5.50522,-1146.57 L -5.7191,-1147.03 L -5.87433,-1147.51 L -5.96844,-1148
 L -6,-1148.5 L -6,-1197.5 L -5.96844,-1198 L -5.87433,-1198.49 L -5.7191,-1198.97 L -5.50522,-1199.43
 L -5.23605,-1199.85 L -4.91586,-1200.24 L -4.54968,-1200.58 L -4.1433,-1200.88 L -3.70311,-1201.12 L -3.23605,-1201.3
 L -2.74951,-1201.43 L -2.25116,-1201.49 L 2.25116,-1201.49 L 2.74951,-1201.43 L 3.23605,-1201.3 L 3.70311,-1201.12
 L 4.1433,-1200.88 L 4.54968,-1200.58 L 4.91586,-1200.24 L 5.23605,-1199.85 L 5.50522,-1199.43 L 5.7191,-1198.97
 L 5.87433,-1198.49 L 5.96844,-1198 L 6,-1197.5 L 6,-1148.5 L 5.96844,-1148 L 5.87433,-1147.51
 L 5.7191,-1147.03 L 5.50522,-1146.57 L 5.23605,-1146.15 L 4.91586,-1145.76 L 4.54968,-1145.42 L 4.1433,-1145.12
 L 3.70311,-1144.88 L 3.23605,-1144.7 L 2.74951,-1144.57 L 2.25116,-1144.51 z
M 3.4369,-1074.09 L 4.04507,-1074.24 L 4.62889,-1074.48 L 5.17912,-1074.78 L 5.68712,-1075.15 L 6.14484,-1075.58
 L 6.54507,-1076.06 L 6.88153,-1076.59 L 7.14888,-1077.16 L 7.34291,-1077.76 L 7.46057,-1078.37 L 7.5,-1079
 L 7.5,-1129 L 7.46057,-1129.63 L 7.34291,-1130.24 L 7.14888,-1130.84 L 6.88153,-1131.41 L 6.54507,-1131.94
 L 6.14484,-1132.42 L 5.68712,-1132.85 L 5.17912,-1133.22 L 4.62889,-1133.52 L 4.04507,-1133.76 L 3.4369,-1133.91
 L 2.81395,-1133.99 L -2.81395,-1133.99 L -3.4369,-1133.91 L -4.04507,-1133.76 L -4.62889,-1133.52 L -5.17912,-1133.22
 L -5.68712,-1132.85 L -6.14484,-1132.42 L -6.54507,-1131.94 L -6.88153,-1131.41 L -7.14888,-1130.84 L -7.34291,-1130.24
 L -7.46057,-1129.63 L -7.5,-1129 L -7.5,-1079 L -7.46057,-1078.37 L -7.34291,-1077.76 L -7.14888,-1077.16
 L -6.88153,-1076.59 L -6.54507,-1076.06 L -6.14484,-1075.58 L -5.68712,-1075.15 L -5.17912,-1074.78 L -4.62889,-1074.48
 L -4.04507,-1074.24 L -3.4369,-1074.09 L -2.81395,-1074.01 L 2.81395,-1074.01 z
M -2.19545,-1076.39 L -2.5833,-1076.44 L -2.96194,-1076.54 L -3.32541,-1076.68 L -3.66798,-1076.87 L -3.98424,-1077.1
 L -4.26921,-1077.37 L -4.5184,-1077.67 L -4.72786,-1078 L -4.89432,-1078.35 L -5.01512,-1078.73 L -5.08836,-1079.11
 L -5.11292,-1079.5 L -5.11292,-1128.5 L -5.08836,-1128.89 L -5.01512,-1129.27 L -4.89432,-1129.65 L -4.72786,-1130
 L -4.5184,-1130.33 L -4.26921,-1130.63 L -3.98424,-1130.9 L -3.66798,-1131.13 L -3.32541,-1131.32 L -2.96194,-1131.46
 L -2.5833,-1131.56 L -2.19545,-1131.61 L 2.19545,-1131.61 L 2.5833,-1131.56 L 2.96194,-1131.46 L 3.32541,-1131.32
 L 3.66798,-1131.13 L 3.98424,-1130.9 L 4.26921,-1130.63 L 4.5184,-1130.33 L 4.72786,-1130 L 4.89432,-1129.65
 L 5.01512,-1129.27 L 5.08836,-1128.89 L 5.11292,-1128.5 L 5.11292,-1079.5 L 5.08836,-1079.11 L 5.01512,-1078.73
 L 4.89432,-1078.35 L 4.72786,-1078 L 4.5184,-1077.67 L 4.26921,-1077.37 L 3.98424,-1077.1 L 3.66798,-1076.87
 L 3.32541,-1076.68 L 2.96194,-1076.54 L 2.5833,-1076.44 L 2.19545,-1076.39 z
M 3.4369,-1005.09 L 4.04507,-1005.24 L 4.62889,-1005.48 L 5.17912,-1005.78 L 5.68712,-1006.15 L 6.14484,-1006.58
 L 6.54507,-1007.06 L 6.88153,-1007.59 L 7.14888,-1008.16 L 7.34291,-1008.76 L 7.46057,-1009.37 L 7.5,-1010
 L 7.5,-1060 L 7.46057,-1060.63 L 7.34291,-1061.24 L 7.14888,-1061.84 L 6.88153,-1062.41 L 6.54507,-1062.94
 L 6.14484,-1063.42 L 5.68712,-1063.85 L 5.17912,-1064.22 L 4.62889,-1064.52 L 4.04507,-1064.76 L 3.4369,-1064.91
 L 2.81395,-1064.99 L -2.81395,-1064.99 L -3.4369,-1064.91 L -4.04507,-1064.76 L -4.62889,-1064.52 L -5.17912,-1064.22
 L -5.68712,-1063.85 L -6.14484,-1063.42 L -6.54507,-1062.94 L -6.88153,-1062.41 L -7.14888,-1061.84 L -7.34291,-1061.24
 L -7.46057,-1060.63 L -7.5,-1060 L -7.5,-1010 L -7.46057,-1009.37 L -7.34291,-1008.76 L -7.14888,-1008.16
 L -6.88153,-1007.59 L -6.54507,-1007.06 L -6.14484,-1006.58 L -5.68712,-1006.15 L -5.17912,-1005.78 L -4.62889,-1005.48
 L -4.04507,-1005.24 L -3.4369,-1005.09 L -2.81395,-1005.01 L 2.81395,-1005.01 z
M -0.134064,-1055.37 L -0.400101,-1055.4 L -0.659836,-1055.47 L -0.909149,-1055.57 L -1.14413,-1055.7 L -1.36108,-1055.85
 L -1.55655,-1056.04 L -1.72748,-1056.24 L -1.87117,-1056.47 L -1.98534,-1056.71 L -2.06821,-1056.97 L -2.11845,-1057.23
 L -2.13528,-1057.5 L -2.11845,-1057.77 L -2.06821,-1058.03 L -1.98534,-1058.29 L -1.87117,-1058.53 L -1.72748,-1058.76
 L -1.55655,-1058.96 L -1.36108,-1059.15 L -1.14413,-1059.3 L -0.909149,-1059.43 L -0.659836,-1059.53 L -0.400101,-1059.6
 L -0.134064,-1059.63 L 0.134064,-1059.63 L 0.400101,-1059.6 L 0.659836,-1059.53 L 0.909149,-1059.43 L 1.14413,-1059.3
 L 1.36108,-1059.15 L 1.55655,-1058.96 L 1.72748,-1058.76 L 1.87117,-1058.53 L 1.98534,-1058.29 L 2.06821,-1058.03
 L 2.11845,-1057.77 L 2.13528,-1057.5 L 2.11845,-1057.23 L 2.06821,-1056.97 L 1.98534,-1056.71 L 1.87117,-1056.47
 L 1.72748,-1056.24 L 1.55655,-1056.04 L 1.36108,-1055.85 L 1.14413,-1055.7 L 0.909149,-1055.57 L 0.659836,-1055.47
 L 0.400101,-1055.4 L 0.134064,-1055.37 z
M -0.134064,-1010.37 L -0.400101,-1010.4 L -0.659836,-1010.47 L -0.909149,-1010.57 L -1.14413,-1010.7 L -1.36108,-1010.85
 L -1.55655,-1011.04 L -1.72748,-1011.24 L -1.87117,-1011.47 L -1.98534,-1011.71 L -2.06821,-1011.97 L -2.11845,-1012.23
 L -2.13528,-1012.5 L -2.11845,-1012.77 L -2.06821,-1013.03 L -1.98534,-1013.29 L -1.87117,-1013.53 L -1.72748,-1013.76
 L -1.55655,-1013.96 L -1.36108,-1014.15 L -1.14413,-1014.3 L -0.909149,-1014.43 L -0.659836,-1014.53 L -0.400101,-1014.6
 L -0.134064,-1014.63 L 0.134064,-1014.63 L 0.400101,-1014.6 L 0.659836,-1014.53 L 0.909149,-1014.43 L 1.14413,-1014.3
 L 1.36108,-1014.15 L 1.55655,-1013.96 L 1.72748,-1013.76 L 1.87117,-1013.53 L 1.98534,-1013.29 L 2.06821,-1013.03
 L 2.11845,-1012.77 L 2.13528,-1012.5 L 2.11845,-1012.23 L 2.06821,-1011.97 L 1.98534,-1011.71 L 1.87117,-1011.47
 L 1.72748,-1011.24 L 1.55655,-1011.04 L 1.36108,-1010.85 L 1.14413,-1010.7 L 0.909149,-1010.57 L 0.659836,-1010.47
 L 0.400101,-1010.4 L 0.134064,-1010.37 z
" stroke="black" fill="lightgray" stroke-width="0.5"/>
</svg>
