<?xml version="1.0" standalone="no"?>
<!DOCTYPE svg PUBLIC "-//W3C//DTD SVG 1.1//EN" "http://www.w3.org/Graphics/SVG/1.1/DTD/svg11.dtd">
<svg width="76mm" height="513mm" viewBox="-38 -605 76 513" xmlns="http://www.w3.org/2000/svg" version="1.1">
<title>OpenSCAD Model</title>
<path d="
M -34.5,-439.925 L -34.0451,-439.745 L -33.4369,-439.589 L -32.8139,-439.51 L 32.8139,-439.51 L 33.4369,-439.589
 L 34.0451,-439.745 L 34.6289,-439.976 L 35.1791,-440.278 L 35.6871,-440.647 L 36.1448,-441.077 L 36.5451,-441.561
 L 36.8815,-442.091 L 37.1489,-442.659 L 37.3429,-443.257 L 37.4606,-443.873 L 37.5,-444.5 L 37.5,-599.5
 L 37.4606,-600.127 L 37.3429,-600.743 L 37.1489,-601.341 L 36.8815,-601.909 L 36.5451,-602.439 L 36.1448,-602.923
 L 35.6871,-603.353 L 35.1791,-603.722 L 34.6289,-604.024 L 34.0451,-604.255 L 33.4369,-604.411 L 32.8139,-604.49
 L -32.8139,-604.49 L -33.4369,-604.411 L -34.0451,-604.255 L -34.5,-604.075 L -34.5,-604.49 L -37.5,-604.49
 L -37.5,-439.51 L -34.5,-439.51 z
M -32.1954,-441.893 L -32.5833,-441.942 L -32.9619,-442.039 L -33.3254,-442.183 L -33.668,-442.372 L -33.9842,-442.601
 L -34.2692,-442.869 L -34.5184,-443.17 L -34.7279,-443.5 L -34.8943,-443.854 L -35.0151,-444.226 L -35.0884,-444.61
 L -35.1129,-445 L -35.1129,-599 L -35.0884,-599.39 L -35.0151,-599.774 L -34.8943,-600.146 L -34.7279,-600.5
 L -34.5184,-600.83 L -34.2692,-601.131 L -33.9842,-601.399 L -33.668,-601.628 L -33.3254,-601.817 L -32.9619,-601.961
 L -32.5833,-602.058 L -32.1954,-602.107 L 32.1954,-602.107 L 32.5833,-602.058 L 32.9619,-601.961 L 33.3254,-601.817
 L 33.668,-601.628 L 33.9842,-601.399 L 34.2692,-601.131 L 34.5184,-600.83 L 34.7279,-600.5 L 34.8943,-600.146
 L 35.0151,-599.774 L 35.0884,-599.39 L 35.1129,-599 L 35.1129,-445 L 35.0884,-444.61 L 35.0151,-444.226
 L 34.8943,-443.854 L 34.7279,-443.5 L 34.5184,-443.17 L 34.2692,-442.869 L 33.9842,-442.601 L 33.668,-442.372
 L 33.3254,-442.183 L 32.9619,-442.039 L 32.5833,-441.942 L 32.1954,-441.893 z
M 33.4369,-265.589 L 34.0451,-265.745 L 34.6289,-265.976 L 35.1791,-266.278 L 35.6871,-266.647 L 36.1448,-267.077
 L 36.5451,-267.561 L 36.8815,-268.091 L 37.1489,-268.659 L 37.3429,-269.257 L 37.4606,-269.873 L 37.5,-270.5
 L 37.5,-425.5 L 37.4606,-426.127 L 37.3429,-426.743 L 37.1489,-427.341 L 36.8815,-427.909 L 36.5451,-428.439
 L 36.1448,-428.923 L 35.6871,-429.353 L 35.1791,-429.722 L 34.6289,-430.024 L 34.0451,-430.255 L 33.4369,-430.411
 L 32.8139,-430.49 L -32.8139,-430.49 L -33.4369,-430.411 L -34.0451,-430.255 L -34.5,-430.075 L -34.5,-430.479
 L -37.5,-430.479 L -37.5,-265.521 L -34.5,-265.521 L -34.5,-265.925 L -34.0451,-265.745 L -33.4369,-265.589
 L -32.8139,-265.51 L 32.8139,-265.51 z
M 29.8659,-420.869 L 29.5999,-420.903 L 29.3401,-420.969 L 29.0908,-421.068 L 28.8559,-421.197 L 28.6389,-421.355
 L 28.4434,-421.538 L 28.2725,-421.745 L 28.1288,-421.971 L 28.0146,-422.214 L 27.9318,-422.469 L 27.8815,-422.732
 L 27.8647,-423 L 27.8815,-423.268 L 27.9318,-423.531 L 28.0146,-423.786 L 28.1288,-424.029 L 28.2725,-424.255
 L 28.4434,-424.462 L 28.6389,-424.645 L 28.8559,-424.803 L 29.0908,-424.932 L 29.3401,-425.031 L 29.5999,-425.097
 L 29.8659,-425.131 L 30.1341,-425.131 L 30.4001,-425.097 L 30.6598,-425.031 L 30.9091,-424.932 L 31.1441,-424.803
 L 31.3611,-424.645 L 31.5565,-424.462 L 31.7275,-424.255 L 31.8712,-424.029 L 31.9853,-423.786 L 32.0682,-423.531
 L 32.1185,-423.268 L 32.1353,-423 L 32.1185,-422.732 L 32.0682,-422.469 L 31.9853,-422.214 L 31.8712,-421.971
 L 31.7275,-421.745 L 31.5565,-421.538 L 31.3611,-421.355 L 31.1441,-421.197 L 30.9091,-421.068 L 30.6598,-420.969
 L 30.4001,-420.903 L 30.1341,-420.869 z
M -30.1341,-420.869 L -30.4001,-420.903 L -30.6598,-420.969 L -30.9091,-421.068 L -31.1441,-421.197 L -31.3611,-421.355
 L -31.5565,-421.538 L -31.7275,-421.745 L -31.8712,-421.971 L -31.9853,-422.214 L -32.0682,-422.469 L -32.1185,-422.732
 L -32.1353,-423 L -32.1185,-423.268 L -32.0682,-423.531 L -31.9853,-423.786 L -31.8712,-424.029 L -31.7275,-424.255
 L -31.5565,-424.462 L -31.3611,-424.645 L -31.1441,-424.803 L -30.9091,-424.932 L -30.6598,-425.031 L -30.4001,-425.097
 L -30.1341,-425.131 L -29.8659,-425.131 L -29.5999,-425.097 L -29.3401,-425.031 L -29.0908,-424.932 L -28.8559,-424.803
 L -28.6389,-424.645 L -28.4434,-424.462 L -28.2725,-424.255 L -28.1288,-424.029 L -28.0146,-423.786 L -27.9318,-423.531
 L -27.8815,-423.268 L -27.8647,-423 L -27.8815,-422.732 L -27.9318,-422.469 L -28.0146,-422.214 L -28.1288,-421.971
 L -28.2725,-421.745 L -28.4434,-421.538 L -28.6389,-421.355 L -28.8559,-421.197 L -29.0908,-421.068 L -29.3401,-420.969
 L -29.5999,-420.903 L -29.8659,-420.869 z
M 29.8659,-270.869 L 29.5999,-270.903 L 29.3401,-270.969 L 29.0908,-271.068 L 28.8559,-271.197 L 28.6389,-271.355
 L 28.4434,-271.538 L 28.2725,-271.745 L 28.1288,-271.971 L 28.0146,-272.214 L 27.9318,-272.469 L 27.8815,-272.732
 L 27.8647,-273 L 27.8815,-273.268 L 27.9318,-273.531 L 28.0146,-273.786 L 28.1288,-274.029 L 28.2725,-274.255
 L 28.4434,-274.462 L 28.6389,-274.645 L 28.8559,-274.803 L 29.0908,-274.932 L 29.3401,-275.031 L 29.5999,-275.097
 L 29.8659,-275.131 L 30.1341,-275.131 L 30.4001,-275.097 L 30.6598,-275.031 L 30.9091,-274.932 L 31.1441,-274.803
 L 31.3611,-274.645 L 31.5565,-274.462 L 31.7275,-274.255 L 31.8712,-274.029 L 31.9853,-273.786 L 32.0682,-273.531
 L 32.1185,-273.268 L 32.1353,-273 L 32.1185,-272.732 L 32.0682,-272.469 L 31.9853,-272.214 L 31.8712,-271.971
 L 31.7275,-271.745 L 31.5565,-271.538 L 31.3611,-271.355 L 31.1441,-271.197 L 30.9091,-271.068 L 30.6598,-270.969
 L 30.4001,-270.903 L 30.1341,-270.869 z
M -30.1341,-270.869 L -30.4001,-270.903 L -30.6598,-270.969 L -30.9091,-271.068 L -31.1441,-271.197 L -31.3611,-271.355
 L -31.5565,-271.538 L -31.7275,-271.745 L -31.8712,-271.971 L -31.9853,-272.214 L -32.0682,-272.469 L -32.1185,-272.732
 L -32.1353,-273 L -32.1185,-273.268 L -32.0682,-273.531 L -31.9853,-273.786 L -31.8712,-274.029 L -31.7275,-274.255
 L -31.5565,-274.462 L -31.3611,-274.645 L -31.1441,-274.803 L -30.9091,-274.932 L -30.6598,-275.031 L -30.4001,-275.097
 L -30.1341,-275.131 L -29.8659,-275.131 L -29.5999,-275.097 L -29.3401,-275.031 L -29.0908,-274.932 L -28.8559,-274.803
 L -28.6389,-274.645 L -28.4434,-274.462 L -28.2725,-274.255 L -28.1288,-274.029 L -28.0146,-273.786 L -27.9318,-273.531
 L -27.8815,-273.268 L -27.8647,-273 L -27.8815,-272.732 L -27.9318,-272.469 L -28.0146,-272.214 L -28.1288,-271.971
 L -28.2725,-271.745 L -28.4434,-271.538 L -28.6389,-271.355 L -28.8559,-271.197 L -29.0908,-271.068 L -29.3401,-270.969
 L -29.5999,-270.903 L -29.8659,-270.869 z
M -34.5,-255.153 L -37.5,-255.153 L -37.5,-92.8474 L -34.5,-92.8474 z
" stroke="black" fill="lightgray" stroke-width="0.5"/>
</svg>
