<?xml version="1.0" standalone="no"?>
<!DOCTYPE svg PUBLIC "-//W3C//DTD SVG 1.1//EN" "http://www.w3.org/Graphics/SVG/1.1/DTD/svg11.dtd">
<svg width="16mm" height="609mm" viewBox="-8 -1077 16 609" xmlns="http://www.w3.org/2000/svg" version="1.1">
<title>OpenSCAD Model</title>
<path d="
M 3.4369,-777.089 L 4.04507,-777.245 L 4.62889,-777.476 L 5.17912,-777.778 L 5.68712,-778.147 L 6.14484,-778.577
 L 6.54507,-779.061 L 6.88153,-779.591 L 7.14888,-780.159 L 7.34291,-780.757 L 7.46057,-781.373 L 7.5,-782
 L 7.5,-1072 L 7.46057,-1072.63 L 7.34291,-1073.24 L 7.14888,-1073.84 L 6.88153,-1074.41 L 6.54507,-1074.94
 L 6.14484,-1075.42 L 5.68712,-1075.85 L 5.17912,-1076.22 L 4.62889,-1076.52 L 4.04507,-1076.76 L 3.4369,-1076.91
 L 2.81395,-1076.99 L -2.81395,-1076.99 L -3.4369,-1076.91 L -4.04507,-1076.76 L -4.62889,-1076.52 L -5.17912,-1076.22
 L -5.68712,-1075.85 L -6.14484,-1075.42 L -6.54507,-1074.94 L -6.88153,-1074.41 L -7.14888,-1073.84 L -7.34291,-1073.24
 L -7.46057,-1072.63 L -7.5,-1072 L -7.5,-782 L -7.46057,-781.373 L -7.34291,-780.757 L -7.14888,-780.159
 L -6.88153,-779.591 L -6.54507,-779.061 L -6.14484,-778.577 L -5.68712,-778.147 L -5.17912,-777.778 L -4.62889,-777.476
 L -4.04507,-777.245 L -3.4369,-777.089 L -2.81395,-777.01 L 2.81395,-777.01 z
M -2.19545,-779.393 L -2.5833,-779.442 L -2.96194,-779.539 L -3.32541,-779.683 L -3.66798,-779.872 L -3.98424,-780.101
 L -4.26921,-780.369 L -4.5184,-780.67 L -4.72786,-781 L -4.89432,-781.354 L -5.01512,-781.726 L -5.08836,-782.11
 L -5.11292,-782.5 L -5.11292,-1071.5 L -5.08836,-1071.89 L -5.01512,-1072.27 L -4.89432,-1072.65 L -4.72786,-1073
 L -4.5184,-1073.33 L -4.26921,-1073.63 L -3.98424,-1073.9 L -3.66798,-1074.13 L -3.32541,-1074.32 L -2.96194,-1074.46
 L -2.5833,-1074.56 L -2.19545,-1074.61 L 2.19545,-1074.61 L 2.5833,-1074.56 L 2.96194,-1074.46 L 3.32541,-1074.32
 L 3.66798,-1074.13 L 3.98424,-1073.9 L 4.26921,-1073.63 L 4.5184,-1073.33 L 4.72786,-1073 L 4.89432,-1072.65
 L 5.01512,-1072.27 L 5.08836,-1071.89 L 5.11292,-1071.5 L 5.11292,-782.5 L 5.08836,-782.11 L 5.01512,-781.726
 L 4.89432,-781.354 L 4.72786,-781 L 4.5184,-780.67 L 4.26921,-780.369 L 3.98424,-780.101 L 3.66798,-779.872
 L 3.32541,-779.683 L 2.96194,-779.539 L 2.5833,-779.442 L 2.19545,-779.393 z
M 3.4369,-468.089 L 4.04507,-468.245 L 4.62889,-468.476 L 5.17912,-468.778 L 5.68712,-469.147 L 6.14484,-469.577
 L 6.54507,-470.061 L 6.88153,-470.591 L 7.14888,-471.159 L 7.34291,-471.757 L 7.46057,-472.373 L 7.5,-473
 L 7.5,-763 L 7.46057,-763.627 L 7.34291,-764.243 L 7.14888,-764.841 L 6.88153,-765.409 L 6.54507,-765.939
 L 6.14484,-766.423 L 5.68712,-766.853 L 5.17912,-767.222 L 4.62889,-767.524 L 4.04507,-767.755 L 3.4369,-767.911
 L 2.81395,-767.99 L -2.81395,-767.99 L -3.4369,-767.911 L -4.04507,-767.755 L -4.62889,-767.524 L -5.17912,-767.222
 L -5.68712,-766.853 L -6.14484,-766.423 L -6.54507,-765.939 L -6.88153,-765.409 L -7.14888,-764.841 L -7.34291,-764.243
 L -7.46057,-763.627 L -7.5,-763 L -7.5,-473 L -7.46057,-472.373 L -7.34291,-471.757 L -7.14888,-471.159
 L -6.88153,-470.591 L -6.54507,-470.061 L -6.14484,-469.577 L -5.68712,-469.147 L -5.17912,-468.778 L -4.62889,-468.476
 L -4.04507,-468.245 L -3.4369,-468.089 L -2.81395,-468.01 L 2.81395,-468.01 z
M -0.134064,-758.369 L -0.400101,-758.403 L -0.659836,-758.469 L -0.909149,-758.568 L -1.14413,-758.697 L -1.36108,-758.855
 L -1.55655,-759.038 L -1.72748,-759.245 L -1.87117,-759.471 L -1.98534,-759.714 L -2.06821,-759.969 L -2.11845,-760.232
 L -2.13528,-760.5 L -2.11845,-760.768 L -2.06821,-761.031 L -1.98534,-761.286 L -1.87117,-761.529 L -1.72748,-761.755
 L -1.55655,-761.962 L -1.36108,-762.145 L -1.14413,-762.303 L -0.909149,-762.432 L -0.659836,-762.531 L -0.400101,-762.597
 L -0.134064,-762.631 L 0.134064,-762.631 L 0.400101,-762.597 L 0.659836,-762.531 L 0.909149,-762.432 L 1.14413,-762.303
 L 1.36108,-762.145 L 1.55655,-761.962 L 1.72748,-761.755 L 1.87117,-761.529 L 1.98534,-761.286 L 2.06821,-761.031
 L 2.11845,-760.768 L 2.13528,-760.5 L 2.11845,-760.232 L 2.06821,-759.969 L 1.98534,-759.714 L 1.87117,-759.471
 L 1.72748,-759.245 L 1.55655,-759.038 L 1.36108,-758.855 L 1.14413,-758.697 L 0.909149,-758.568 L 0.659836,-758.469
 L 0.400101,-758.403 L 0.134064,-758.369 z
M -0.134064,-473.369 L -0.400101,-473.403 L -0.659836,-473.469 L -0.909149,-473.568 L -1.14413,-473.697 L -1.36108,-473.855
 L -1.55655,-474.038 L -1.72748,-474.245 L -1.87117,-474.471 L -1.98534,-474.714 L -2.06821,-474.969 L -2.11845,-475.232
 L -2.13528,-475.5 L -2.11845,-475.768 L -2.06821,-476.031 L -1.98534,-476.286 L -1.87117,-476.529 L -1.72748,-476.755
 L -1.55655,-476.962 L -1.36108,-477.145 L -1.14413,-477.303 L -0.909149,-477.432 L -0.659836,-477.531 L -0.400101,-477.597
 L -0.134064,-477.631 L 0.134064,-477.631 L 0.400101,-477.597 L 0.659836,-477.531 L 0.909149,-477.432 L 1.14413,-477.303
 L 1.36108,-477.145 L 1.55655,-476.962 L 1.72748,-476.755 L 1.87117,-476.529 L 1.98534,-476.286 L 2.06821,-476.031
 L 2.11845,-475.768 L 2.13528,-475.5 L 2.11845,-475.232 L 2.06821,-474.969 L 1.98534,-474.714 L 1.87117,-474.471
 L 1.72748,-474.245 L 1.55655,-474.038 L 1.36108,-473.855 L 1.14413,-473.697 L 0.909149,-473.568 L 0.659836,-473.469
 L 0.400101,-473.403 L 0.134064,-473.369 z
" stroke="black" fill="lightgray" stroke-width="0.5"/>
</svg>
