<?xml version="1.0" standalone="no"?>
<!DOCTYPE svg PUBLIC "-//W3C//DTD SVG 1.1//EN" "http://www.w3.org/Graphics/SVG/1.1/DTD/svg11.dtd">
<svg width="60mm" height="88mm" viewBox="-30 -176 60 88" xmlns="http://www.w3.org/2000/svg" version="1.1">
<title>OpenSCAD Model</title>
<path d="
M 25.9369,-160.589 L 26.5451,-160.745 L 27.1289,-160.976 L 27.6791,-161.278 L 28.1871,-161.647 L 28.6448,-162.077
 L 29.0451,-162.561 L 29.3815,-163.091 L 29.6489,-163.659 L 29.8429,-164.257 L 29.9606,-164.873 L 30,-165.5
 L 30,-170.5 L 29.9606,-171.127 L 29.8429,-171.743 L 29.6489,-172.341 L 29.3815,-172.909 L 29.0451,-173.439
 L 28.6448,-173.923 L 28.1871,-174.353 L 27.6791,-174.722 L 27.1289,-175.024 L 26.5451,-175.255 L 25.9369,-175.411
 L 25.3139,-175.49 L -25.3139,-175.49 L -25.9369,-175.411 L -26.5451,-175.255 L -27.1289,-175.024 L -27.6791,-174.722
 L -28.1871,-174.353 L -28.4,-174.153 L -30,-174.153 L -30,-161.847 L -28.4,-161.847 L -28.1871,-161.647
 L -27.6791,-161.278 L -27.1289,-160.976 L -26.5451,-160.745 L -25.9369,-160.589 L -25.3139,-160.51 L 25.3139,-160.51
 z
M -24.7512,-162.008 L -25.2495,-162.071 L -25.7361,-162.196 L -26.2031,-162.381 L -26.6433,-162.623 L -27.0497,-162.918
 L -27.4159,-163.262 L -27.7361,-163.649 L -28.0052,-164.073 L -28.2191,-164.528 L -28.3743,-165.005 L -28.4684,-165.499
 L -28.5,-166 L -28.5,-170 L -28.4684,-170.501 L -28.3743,-170.995 L -28.2191,-171.472 L -28.0052,-171.927
 L -27.7361,-172.351 L -27.4159,-172.738 L -27.0497,-173.082 L -26.6433,-173.377 L -26.2031,-173.619 L -25.7361,-173.804
 L -25.2495,-173.929 L -24.7512,-173.992 L 24.7512,-173.992 L 25.2495,-173.929 L 25.7361,-173.804 L 26.2031,-173.619
 L 26.6433,-173.377 L 27.0497,-173.082 L 27.4159,-172.738 L 27.7361,-172.351 L 28.0052,-171.927 L 28.2191,-171.472
 L 28.3743,-170.995 L 28.4684,-170.501 L 28.5,-170 L 28.5,-166 L 28.4684,-165.499 L 28.3743,-165.005
 L 28.2191,-164.528 L 28.0052,-164.073 L 27.7361,-163.649 L 27.4159,-163.262 L 27.0497,-162.918 L 26.6433,-162.623
 L 26.2031,-162.381 L 25.7361,-162.196 L 25.2495,-162.071 L 24.7512,-162.008 z
M 25.9369,-136.589 L 26.5451,-136.745 L 27.1289,-136.976 L 27.6791,-137.278 L 28.1871,-137.647 L 28.6448,-138.077
 L 29.0451,-138.561 L 29.3815,-139.091 L 29.6489,-139.659 L 29.8429,-140.257 L 29.9606,-140.873 L 30,-141.5
 L 30,-146.5 L 29.9606,-147.127 L 29.8429,-147.743 L 29.6489,-148.341 L 29.3815,-148.909 L 29.0451,-149.439
 L 28.6448,-149.923 L 28.1871,-150.353 L 27.6791,-150.722 L 27.1289,-151.024 L 26.5451,-151.255 L 25.9369,-151.411
 L 25.3139,-151.49 L -25.3139,-151.49 L -25.9369,-151.411 L -26.5451,-151.255 L -27.1289,-151.024 L -27.6791,-150.722
 L -28.1871,-150.353 L -28.6448,-149.923 L -29.0451,-149.439 L -29.3815,-148.909 L -29.6489,-148.341 L -29.8429,-147.743
 L -29.9606,-147.127 L -30,-146.5 L -30,-141.5 L -29.9606,-140.873 L -29.8429,-140.257 L -29.6489,-139.659
 L -29.3815,-139.091 L -29.0451,-138.561 L -28.6448,-138.077 L -28.1871,-137.647 L -27.6791,-137.278 L -27.1289,-136.976
 L -26.5451,-136.745 L -25.9369,-136.589 L -25.3139,-136.51 L 25.3139,-136.51 z
M -24.7512,-138.008 L -25.2495,-138.071 L -25.7361,-138.196 L -26.2031,-138.381 L -26.6433,-138.623 L -27.0497,-138.918
 L -27.4159,-139.262 L -27.7361,-139.649 L -28.0052,-140.073 L -28.2191,-140.528 L -28.3743,-141.005 L -28.4684,-141.499
 L -28.5,-142 L -28.5,-146 L -28.4684,-146.501 L -28.3743,-146.995 L -28.2191,-147.472 L -28.0052,-147.927
 L -27.7361,-148.351 L -27.4159,-148.738 L -27.0497,-149.082 L -26.6433,-149.377 L -26.2031,-149.619 L -25.7361,-149.804
 L -25.2495,-149.929 L -24.7512,-149.992 L 24.7512,-149.992 L 25.2495,-149.929 L 25.7361,-149.804 L 26.2031,-149.619
 L 26.6433,-149.377 L 27.0497,-149.082 L 27.4159,-148.738 L 27.7361,-148.351 L 28.0052,-147.927 L 28.2191,-147.472
 L 28.3743,-146.995 L 28.4684,-146.501 L 28.5,-146 L 28.5,-142 L 28.4684,-141.499 L 28.3743,-141.005
 L 28.2191,-140.528 L 28.0052,-140.073 L 27.7361,-139.649 L 27.4159,-139.262 L 27.0497,-138.918 L 26.6433,-138.623
 L 26.2031,-138.381 L 25.7361,-138.196 L 25.2495,-138.071 L 24.7512,-138.008 z
M 25.9369,-112.589 L 26.5451,-112.745 L 27.1289,-112.976 L 27.6791,-113.278 L 28.1871,-113.647 L 28.6448,-114.077
 L 29.0451,-114.561 L 29.3815,-115.091 L 29.6489,-115.659 L 29.8429,-116.257 L 29.9606,-116.873 L 30,-117.5
 L 30,-122.5 L 29.9606,-123.127 L 29.8429,-123.743 L 29.6489,-124.341 L 29.3815,-124.909 L 29.0451,-125.439
 L 28.6448,-125.923 L 28.1871,-126.353 L 27.6791,-126.722 L 27.1289,-127.024 L 26.5451,-127.255 L 25.9369,-127.411
 L 25.3139,-127.49 L -25.3139,-127.49 L -25.9369,-127.411 L -26.5451,-127.255 L -27.1289,-127.024 L -27.6791,-126.722
 L -28.1871,-126.353 L -28.6448,-125.923 L -29.0451,-125.439 L -29.3815,-124.909 L -29.6489,-124.341 L -29.8429,-123.743
 L -29.9606,-123.127 L -30,-122.5 L -30,-117.5 L -29.9606,-116.873 L -29.8429,-116.257 L -29.6489,-115.659
 L -29.3815,-115.091 L -29.0451,-114.561 L -28.6448,-114.077 L -28.1871,-113.647 L -27.6791,-113.278 L -27.1289,-112.976
 L -26.5451,-112.745 L -25.9369,-112.589 L -25.3139,-112.51 L 25.3139,-112.51 z
M -24.6954,-114.893 L -25.0833,-114.942 L -25.4619,-115.039 L -25.8254,-115.183 L -26.168,-115.372 L -26.4842,-115.601
 L -26.7692,-115.869 L -27.0184,-116.17 L -27.2279,-116.5 L -27.3943,-116.854 L -27.5151,-117.226 L -27.5884,-117.61
 L -27.6129,-118 L -27.6129,-122 L -27.5884,-122.39 L -27.5151,-122.774 L -27.3943,-123.146 L -27.2279,-123.5
 L -27.0184,-123.83 L -26.7692,-124.131 L -26.4842,-124.399 L -26.168,-124.628 L -25.8254,-124.817 L -25.4619,-124.961
 L -25.0833,-125.058 L -24.6954,-125.107 L 24.6954,-125.107 L 25.0833,-125.058 L 25.4619,-124.961 L 25.8254,-124.817
 L 26.168,-124.628 L 26.4842,-124.399 L 26.7692,-124.131 L 27.0184,-123.83 L 27.2279,-123.5 L 27.3943,-123.146
 L 27.5151,-122.774 L 27.5884,-122.39 L 27.6129,-122 L 27.6129,-118 L 27.5884,-117.61 L 27.5151,-117.226
 L 27.3943,-116.854 L 27.2279,-116.5 L 27.0184,-116.17 L 26.7692,-115.869 L 26.4842,-115.601 L 26.168,-115.372
 L 25.8254,-115.183 L 25.4619,-115.039 L 25.0833,-114.942 L 24.6954,-114.893 z
M 25.9369,-88.5886 L 26.5451,-88.7447 L 27.1289,-88.9759 L 27.6791,-89.2784 L 28.1871,-89.6474 L 28.6448,-90.0773
 L 29.0451,-90.5611 L 29.3815,-91.0912 L 29.6489,-91.6594 L 29.8429,-92.2566 L 29.9606,-92.8733 L 30,-93.5
 L 30,-98.5 L 29.9606,-99.1267 L 29.8429,-99.7434 L 29.6489,-100.341 L 29.3815,-100.909 L 29.0451,-101.439
 L 28.6448,-101.923 L 28.1871,-102.353 L 27.6791,-102.722 L 27.1289,-103.024 L 26.5451,-103.255 L 25.9369,-103.411
 L 25.3139,-103.49 L -25.3139,-103.49 L -25.9369,-103.411 L -26.5451,-103.255 L -27.1289,-103.024 L -27.6791,-102.722
 L -28.1871,-102.353 L -28.6448,-101.923 L -29.0451,-101.439 L -29.3815,-100.909 L -29.6489,-100.341 L -29.8429,-99.7434
 L -29.9606,-99.1267 L -30,-98.5 L -30,-93.5 L -29.9606,-92.8733 L -29.8429,-92.2566 L -29.6489,-91.6594
 L -29.3815,-91.0912 L -29.0451,-90.5611 L -28.6448,-90.0773 L -28.1871,-89.6474 L -27.6791,-89.2784 L -27.1289,-88.9759
 L -26.5451,-88.7447 L -25.9369,-88.5886 L -25.3139,-88.5099 L 25.3139,-88.5099 z
M 22.3659,-93.8689 L 22.0999,-93.9025 L 21.8401,-93.9692 L 21.5908,-94.0679 L 21.3559,-94.1971 L 21.1389,-94.3547
 L 20.9434,-94.5383 L 20.7725,-94.7449 L 20.6288,-94.9713 L 20.5146,-95.214 L 20.4318,-95.469 L 20.3815,-95.7324
 L 20.3647,-96 L 20.3815,-96.2676 L 20.4318,-96.531 L 20.5146,-96.786 L 20.6288,-97.0287 L 20.7725,-97.2551
 L 20.9434,-97.4617 L 21.1389,-97.6453 L 21.3559,-97.8029 L 21.5908,-97.9321 L 21.8401,-98.0308 L 22.0999,-98.0975
 L 22.3659,-98.1311 L 22.6341,-98.1311 L 22.9001,-98.0975 L 23.1598,-98.0308 L 23.4091,-97.9321 L 23.6441,-97.8029
 L 23.8611,-97.6453 L 24.0565,-97.4617 L 24.2275,-97.2551 L 24.3712,-97.0287 L 24.4853,-96.786 L 24.5682,-96.531
 L 24.6185,-96.2676 L 24.6353,-96 L 24.6185,-95.7324 L 24.5682,-95.469 L 24.4853,-95.214 L 24.3712,-94.9713
 L 24.2275,-94.7449 L 24.0565,-94.5383 L 23.8611,-94.3547 L 23.6441,-94.1971 L 23.4091,-94.0679 L 23.1598,-93.9692
 L 22.9001,-93.9025 L 22.6341,-93.8689 z
M -22.6341,-93.8689 L -22.9001,-93.9025 L -23.1598,-93.9692 L -23.4091,-94.0679 L -23.6441,-94.1971 L -23.8611,-94.3547
 L -24.0565,-94.5383 L -24.2275,-94.7449 L -24.3712,-94.9713 L -24.4853,-95.214 L -24.5682,-95.469 L -24.6185,-95.7324
 L -24.6353,-96 L -24.6185,-96.2676 L -24.5682,-96.531 L -24.4853,-96.786 L -24.3712,-97.0287 L -24.2275,-97.2551
 L -24.0565,-97.4617 L -23.8611,-97.6453 L -23.6441,-97.8029 L -23.4091,-97.9321 L -23.1598,-98.0308 L -22.9001,-98.0975
 L -22.6341,-98.1311 L -22.3659,-98.1311 L -22.0999,-98.0975 L -21.8401,-98.0308 L -21.5908,-97.9321 L -21.3559,-97.8029
 L -21.1389,-97.6453 L -20.9434,-97.4617 L -20.7725,-97.2551 L -20.6288,-97.0287 L -20.5146,-96.786 L -20.4318,-96.531
 L -20.3815,-96.2676 L -20.3647,-96 L -20.3815,-95.7324 L -20.4318,-95.469 L -20.5146,-95.214 L -20.6288,-94.9713
 L -20.7725,-94.7449 L -20.9434,-94.5383 L -21.1389,-94.3547 L -21.3559,-94.1971 L -21.5908,-94.0679 L -21.8401,-93.9692
 L -22.0999,-93.9025 L -22.3659,-93.8689 z
" stroke="black" fill="lightgray" stroke-width="0.5"/>
</svg>
