<?xml version="1.0" standalone="no"?>
<!DOCTYPE svg PUBLIC "-//W3C//DTD SVG 1.1//EN" "http://www.w3.org/Graphics/SVG/1.1/DTD/svg11.dtd">
<svg width="60mm" height="147mm" viewBox="-30 -168 60 147" xmlns="http://www.w3.org/2000/svg" version="1.1">
<title>OpenSCAD Model</title>
<path d="
M 25.4369,-108.589 L 26.0451,-108.745 L 26.6289,-108.976 L 27.1791,-109.278 L 27.6871,-109.647 L 28.1448,-110.077
 L 28.5451,-110.561 L 28.8815,-111.091 L 29.1489,-111.659 L 29.3429,-112.257 L 29.4606,-112.873 L 29.5,-113.5
 L 29.5,-161.5 L 12.561,-161.5 L 12.561,-161.498 L 11.7482,-161.498 L 11.6236,-161.482 L 11.502,-161.451
 L 11.3852,-161.405 L 11.2752,-161.344 L 11.1736,-161.271 L 11.082,-161.185 L 11.002,-161.088 L 10.9347,-160.982
 L 10.8812,-160.868 L 10.8424,-160.749 L 10.8189,-160.625 L 10.811,-160.5 L 10.8189,-160.375 L 10.8424,-160.251
 L 10.8812,-160.132 L 10.9347,-160.018 L 11.002,-159.912 L 11.082,-159.815 L 11.1736,-159.729 L 11.2752,-159.656
 L 11.3852,-159.595 L 11.502,-159.549 L 11.6236,-159.518 L 11.7482,-159.502 L 15.4006,-159.502 L 16.8917,-158.419
 L 19.3177,-156.14 L 21.4389,-153.576 L 23.2221,-150.766 L 24.6391,-147.755 L 25.6674,-144.59 L 26.291,-141.321
 L 26.5,-138 L 26.291,-134.679 L 25.6674,-131.41 L 24.6391,-128.245 L 23.2221,-125.234 L 21.4389,-122.424
 L 19.3177,-119.86 L 16.8917,-117.581 L 14.1994,-115.625 L 11.2831,-114.022 L 8.18895,-112.797 L 4.96559,-111.969
 L 1.66394,-111.552 L -1.66394,-111.552 L -4.96559,-111.969 L -8.18895,-112.797 L -11.2831,-114.022 L -14.1994,-115.625
 L -16.8917,-117.581 L -19.3177,-119.86 L -21.4389,-122.424 L -23.2221,-125.234 L -24.6391,-128.245 L -25.6674,-131.41
 L -26.291,-134.679 L -26.5,-138 L -26.291,-141.321 L -25.6674,-144.59 L -24.6391,-147.755 L -23.2221,-150.766
 L -21.4389,-153.576 L -19.3177,-156.14 L -16.8917,-158.419 L -14.1994,-160.375 L -11.2831,-161.978 L -8.18895,-163.203
 L -4.96559,-164.031 L -1.66394,-164.448 L 0,-164.448 L 0,-164.5 L 9.49998,-164.5 L 6.50986,-167.49
 L 3,-167.49 L 3,-166.5 L -29,-166.5 L -29,-167.5 L -29.5,-167.5 L -29.5,-113.5
 L -29.4606,-112.873 L -29.3429,-112.257 L -29.1489,-111.659 L -28.8815,-111.091 L -28.5451,-110.561 L -28.1448,-110.077
 L -27.6871,-109.647 L -27.1791,-109.278 L -26.6289,-108.976 L -26.0451,-108.745 L -25.4369,-108.589 L -24.8139,-108.51
 L 24.8139,-108.51 z
M 22.3116,-112.506 L 21.9379,-112.553 L 21.5729,-112.647 L 21.2227,-112.786 L 20.8925,-112.967 L 20.5877,-113.188
 L 20.3131,-113.446 L 20.0729,-113.737 L 19.8711,-114.055 L 19.7107,-114.396 L 19.5942,-114.754 L 19.5237,-115.124
 L 19.5,-115.5 L 19.5237,-115.876 L 19.5942,-116.246 L 19.7107,-116.604 L 19.8711,-116.945 L 20.0729,-117.263
 L 20.3131,-117.554 L 20.5877,-117.812 L 20.8925,-118.033 L 21.2227,-118.214 L 21.5729,-118.353 L 21.9379,-118.447
 L 22.3116,-118.494 L 22.6884,-118.494 L 23.0621,-118.447 L 23.427,-118.353 L 23.7773,-118.214 L 24.1075,-118.033
 L 24.4123,-117.812 L 24.6869,-117.554 L 24.927,-117.263 L 25.1289,-116.945 L 25.2893,-116.604 L 25.4057,-116.246
 L 25.4763,-115.876 L 25.5,-115.5 L 25.4763,-115.124 L 25.4057,-114.754 L 25.2893,-114.396 L 25.1289,-114.055
 L 24.927,-113.737 L 24.6869,-113.446 L 24.4123,-113.188 L 24.1075,-112.967 L 23.7773,-112.786 L 23.427,-112.647
 L 23.0621,-112.553 L 22.6884,-112.506 z
M 19.5,-167.49 L 8.63118,-167.49 L 11.6213,-164.5 L 19.5,-164.5 z
M 16.9984,-90.5177 L 17.12,-90.5489 L 17.2368,-90.5952 L 17.3468,-90.6557 L 17.4484,-90.7295 L 17.54,-90.8154
 L 17.62,-90.9122 L 17.6873,-91.0182 L 17.7408,-91.1319 L 17.7796,-91.2513 L 17.8031,-91.3747 L 17.811,-91.5
 L 17.8031,-91.6253 L 17.7796,-91.7487 L 17.7408,-91.8681 L 17.6873,-91.9818 L 17.62,-92.0878 L 17.54,-92.1845
 L 17.4484,-92.2705 L 17.3468,-92.3443 L 17.2368,-92.4048 L 17.12,-92.451 L 16.9984,-92.4823 L 16.8738,-92.498
 L 11.7482,-92.498 L 11.6236,-92.4823 L 11.502,-92.451 L 11.3852,-92.4048 L 11.2752,-92.3443 L 11.1736,-92.2705
 L 11.082,-92.1845 L 11.002,-92.0878 L 10.9347,-91.9818 L 10.8812,-91.8681 L 10.8424,-91.7487 L 10.8189,-91.6253
 L 10.811,-91.5 L 10.8189,-91.3747 L 10.8424,-91.2513 L 10.8812,-91.1319 L 10.9347,-91.0182 L 11.002,-90.9122
 L 11.082,-90.8154 L 11.1736,-90.7295 L 11.2752,-90.6557 L 11.3852,-90.5952 L 11.502,-90.5489 L 11.6236,-90.5177
 L 11.7482,-90.502 L 16.8738,-90.502 z
M 16.9984,-21.5177 L 17.12,-21.5489 L 17.2368,-21.5952 L 17.3468,-21.6557 L 17.4484,-21.7295 L 17.54,-21.8154
 L 17.62,-21.9122 L 17.6873,-22.0182 L 17.7408,-22.1319 L 17.7796,-22.2513 L 17.8031,-22.3747 L 17.811,-22.5
 L 17.8031,-22.6253 L 17.7796,-22.7487 L 17.7408,-22.8681 L 17.6873,-22.9818 L 17.62,-23.0878 L 17.54,-23.1845
 L 17.4484,-23.2705 L 17.3468,-23.3443 L 17.2368,-23.4048 L 17.12,-23.451 L 16.9984,-23.4823 L 16.8738,-23.498
 L 11.7482,-23.498 L 11.6236,-23.4823 L 11.502,-23.451 L 11.3852,-23.4048 L 11.2752,-23.3443 L 11.1736,-23.2705
 L 11.082,-23.1845 L 11.002,-23.0878 L 10.9347,-22.9818 L 10.8812,-22.8681 L 10.8424,-22.7487 L 10.8189,-22.6253
 L 10.811,-22.5 L 10.8189,-22.3747 L 10.8424,-22.2513 L 10.8812,-22.1319 L 10.9347,-22.0182 L 11.002,-21.9122
 L 11.082,-21.8154 L 11.1736,-21.7295 L 11.2752,-21.6557 L 11.3852,-21.5952 L 11.502,-21.5489 L 11.6236,-21.5177
 L 11.7482,-21.502 L 16.8738,-21.502 z
" stroke="black" fill="lightgray" stroke-width="0.5"/>
</svg>
