solid OpenSCAD_Model
  facet normal 0.998027 0.0627852 1.18047e-18
    outer loop
      vertex 13 0 5
      vertex 12.8975 1.62933 0
      vertex 12.8975 1.62933 5
    endloop
  endfacet
  facet normal 0.998027 0.0627852 1.18047e-18
    outer loop
      vertex 12.8975 1.62933 0
      vertex 13 0 5
      vertex 13 0 0
    endloop
  endfacet
  facet normal -0.998027 0.0627852 -1.18047e-18
    outer loop
      vertex -13 0 0
      vertex -12.8975 1.62933 5
      vertex -12.8975 1.62933 0
    endloop
  endfacet
  facet normal -0.998027 0.0627852 -1.18047e-18
    outer loop
      vertex -12.8975 1.62933 5
      vertex -13 0 0
      vertex -13 0 5
    endloop
  endfacet
  facet normal 0 1 -0
    outer loop
      vertex 0.816277 12.9743 0
      vertex -0.816277 12.9743 5
      vertex 0.816277 12.9743 5
    endloop
  endfacet
  facet normal 0 1 0
    outer loop
      vertex -0.816277 12.9743 5
      vertex 0.816277 12.9743 0
      vertex -0.816277 12.9743 0
    endloop
  endfacet
  facet normal 0 -1 0
    outer loop
      vertex -0.816277 -12.9743 0
      vertex 0.816277 -12.9743 5
      vertex -0.816277 -12.9743 5
    endloop
  endfacet
  facet normal 0 -1 -0
    outer loop
      vertex 0.816277 -12.9743 5
      vertex -0.816277 -12.9743 0
      vertex 0.816277 -12.9743 0
    endloop
  endfacet
  facet normal 0.770518 -0.637418 -1.22995e-17
    outer loop
      vertex 9.47659 -8.89911 5
      vertex 10.5172 -7.64121 0
      vertex 10.5172 -7.64121 5
    endloop
  endfacet
  facet normal 0.770518 -0.637418 -1.22995e-17
    outer loop
      vertex 10.5172 -7.64121 0
      vertex 9.47659 -8.89911 5
      vertex 9.47659 -8.89911 0
    endloop
  endfacet
  facet normal 0.684557 0.728959 -0
    outer loop
      vertex 9.47659 8.89911 0
      vertex 8.28651 10.0167 5
      vertex 9.47659 8.89911 5
    endloop
  endfacet
  facet normal 0.684557 0.728959 0
    outer loop
      vertex 8.28651 10.0167 5
      vertex 9.47659 8.89911 0
      vertex 8.28651 10.0167 0
    endloop
  endfacet
  facet normal -0.684557 0.728959 0
    outer loop
      vertex -8.28651 10.0167 0
      vertex -9.47659 8.89911 5
      vertex -8.28651 10.0167 5
    endloop
  endfacet
  facet normal -0.684557 0.728959 0
    outer loop
      vertex -9.47659 8.89911 5
      vertex -8.28651 10.0167 0
      vertex -9.47659 8.89911 0
    endloop
  endfacet
  facet normal -0.368081 0.929794 0
    outer loop
      vertex -4.01722 12.3637 0
      vertex -5.53513 11.7628 5
      vertex -4.01722 12.3637 5
    endloop
  endfacet
  facet normal -0.368081 0.929794 0
    outer loop
      vertex -5.53513 11.7628 5
      vertex -4.01722 12.3637 0
      vertex -5.53513 11.7628 0
    endloop
  endfacet
  facet normal 0.904829 0.425775 -2.84241e-18
    outer loop
      vertex 12.0871 4.78562 5
      vertex 11.392 6.2628 0
      vertex 11.392 6.2628 5
    endloop
  endfacet
  facet normal 0.904829 0.425775 -2.84241e-18
    outer loop
      vertex 11.392 6.2628 0
      vertex 12.0871 4.78562 5
      vertex 12.0871 4.78562 0
    endloop
  endfacet
  facet normal 0.368081 0.929794 -0
    outer loop
      vertex 5.53513 11.7628 0
      vertex 4.01722 12.3637 5
      vertex 5.53513 11.7628 5
    endloop
  endfacet
  facet normal 0.368081 0.929794 0
    outer loop
      vertex 4.01722 12.3637 5
      vertex 5.53513 11.7628 0
      vertex 4.01722 12.3637 0
    endloop
  endfacet
  facet normal 0.481758 0.876304 -0
    outer loop
      vertex 6.96575 10.9763 0
      vertex 5.53513 11.7628 5
      vertex 6.96575 10.9763 5
    endloop
  endfacet
  facet normal 0.481758 0.876304 0
    outer loop
      vertex 5.53513 11.7628 5
      vertex 6.96575 10.9763 0
      vertex 5.53513 11.7628 0
    endloop
  endfacet
  facet normal -0.904829 0.425775 2.84241e-18
    outer loop
      vertex -12.0871 4.78562 0
      vertex -11.392 6.2628 5
      vertex -11.392 6.2628 0
    endloop
  endfacet
  facet normal -0.904829 0.425775 2.84241e-18
    outer loop
      vertex -11.392 6.2628 5
      vertex -12.0871 4.78562 0
      vertex -12.0871 4.78562 5
    endloop
  endfacet
  facet normal -0.770518 0.637418 -1.22995e-17
    outer loop
      vertex -10.5172 7.64121 0
      vertex -9.47659 8.89911 5
      vertex -9.47659 8.89911 0
    endloop
  endfacet
  facet normal -0.770518 0.637418 -1.22995e-17
    outer loop
      vertex -9.47659 8.89911 5
      vertex -10.5172 7.64121 0
      vertex -10.5172 7.64121 5
    endloop
  endfacet
  facet normal 0 0 1
    outer loop
      vertex 8.5 0 5
      vertex 13 0 5
      vertex 12.8975 1.62933 5
    endloop
  endfacet
  facet normal 0 0 1
    outer loop
      vertex 8.43297 1.06533 5
      vertex 12.8975 1.62933 5
      vertex 12.5916 3.23297 5
    endloop
  endfacet
  facet normal 0 0 1
    outer loop
      vertex 13 0 5
      vertex 8.5 0 5
      vertex 12.8975 -1.62933 5
    endloop
  endfacet
  facet normal 0 0 1
    outer loop
      vertex 8.23296 2.11386 5
      vertex 12.5916 3.23297 5
      vertex 12.0871 4.78562 5
    endloop
  endfacet
  facet normal -0 0 1
    outer loop
      vertex 8.43297 -1.06533 5
      vertex 12.8975 -1.62933 5
      vertex 8.5 0 5
    endloop
  endfacet
  facet normal 0 0 1
    outer loop
      vertex 7.9031 3.12906 5
      vertex 12.0871 4.78562 5
      vertex 11.392 6.2628 5
    endloop
  endfacet
  facet normal 0 0 1
    outer loop
      vertex 12.8975 -1.62933 5
      vertex 8.43297 -1.06533 5
      vertex 12.5916 -3.23297 5
    endloop
  endfacet
  facet normal 0 0 1
    outer loop
      vertex 7.44861 4.09491 5
      vertex 11.392 6.2628 5
      vertex 10.5172 7.64121 5
    endloop
  endfacet
  facet normal -0 0 1
    outer loop
      vertex 8.23296 -2.11386 5
      vertex 12.5916 -3.23297 5
      vertex 8.43297 -1.06533 5
    endloop
  endfacet
  facet normal 0 0 1
    outer loop
      vertex 6.87664 4.99617 5
      vertex 10.5172 7.64121 5
      vertex 9.47659 8.89911 5
    endloop
  endfacet
  facet normal 0 0 1
    outer loop
      vertex 12.5916 -3.23297 5
      vertex 8.23296 -2.11386 5
      vertex 12.0871 -4.78562 5
    endloop
  endfacet
  facet normal -0 0 1
    outer loop
      vertex 7.9031 -3.12906 5
      vertex 12.0871 -4.78562 5
      vertex 8.23296 -2.11386 5
    endloop
  endfacet
  facet normal 0 0 1
    outer loop
      vertex 12.8975 1.62933 5
      vertex 8.43297 1.06533 5
      vertex 8.5 0 5
    endloop
  endfacet
  facet normal 0 0 1
    outer loop
      vertex 6.19623 5.81865 5
      vertex 9.47659 8.89911 5
      vertex 8.28651 10.0167 5
    endloop
  endfacet
  facet normal 0 0 1
    outer loop
      vertex 12.5916 3.23297 5
      vertex 8.23296 2.11386 5
      vertex 8.43297 1.06533 5
    endloop
  endfacet
  facet normal 0 0 1
    outer loop
      vertex 12.0871 4.78562 5
      vertex 7.9031 3.12906 5
      vertex 8.23296 2.11386 5
    endloop
  endfacet
  facet normal 0 0 1
    outer loop
      vertex 11.392 6.2628 5
      vertex 7.44861 4.09491 5
      vertex 7.9031 3.12906 5
    endloop
  endfacet
  facet normal 0 0 1
    outer loop
      vertex 5.4181 6.54936 5
      vertex 8.28651 10.0167 5
      vertex 6.96575 10.9763 5
    endloop
  endfacet
  facet normal 0 0 1
    outer loop
      vertex 10.5172 7.64121 5
      vertex 6.87664 4.99617 5
      vertex 7.44861 4.09491 5
    endloop
  endfacet
  facet normal 0 0 1
    outer loop
      vertex 9.47659 8.89911 5
      vertex 6.19623 5.81865 5
      vertex 6.87664 4.99617 5
    endloop
  endfacet
  facet normal 0 0 1
    outer loop
      vertex 4.55453 7.17679 5
      vertex 6.96575 10.9763 5
      vertex 5.53513 11.7628 5
    endloop
  endfacet
  facet normal 0 0 1
    outer loop
      vertex 8.28651 10.0167 5
      vertex 5.4181 6.54936 5
      vertex 6.19623 5.81865 5
    endloop
  endfacet
  facet normal 0 0 1
    outer loop
      vertex 6.96575 10.9763 5
      vertex 4.55453 7.17679 5
      vertex 5.4181 6.54936 5
    endloop
  endfacet
  facet normal 0 0 1
    outer loop
      vertex 3.61912 7.69103 5
      vertex 5.53513 11.7628 5
      vertex 4.01722 12.3637 5
    endloop
  endfacet
  facet normal 0 0 1
    outer loop
      vertex 5.53513 11.7628 5
      vertex 3.61912 7.69103 5
      vertex 4.55453 7.17679 5
    endloop
  endfacet
  facet normal 0 0 1
    outer loop
      vertex 4.01722 12.3637 5
      vertex 2.62664 8.08398 5
      vertex 3.61912 7.69103 5
    endloop
  endfacet
  facet normal 0 0 1
    outer loop
      vertex 2.43596 12.7697 5
      vertex 2.62664 8.08398 5
      vertex 4.01722 12.3637 5
    endloop
  endfacet
  facet normal 0 0 1
    outer loop
      vertex 2.43596 12.7697 5
      vertex 1.59274 8.34944 5
      vertex 2.62664 8.08398 5
    endloop
  endfacet
  facet normal 0 0 1
    outer loop
      vertex 0.816277 12.9743 5
      vertex 1.59274 8.34944 5
      vertex 2.43596 12.7697 5
    endloop
  endfacet
  facet normal 0 0 1
    outer loop
      vertex 0.816277 12.9743 5
      vertex 0.533719 8.48323 5
      vertex 1.59274 8.34944 5
    endloop
  endfacet
  facet normal 0 0 1
    outer loop
      vertex 0.816277 12.9743 5
      vertex -0.533719 8.48323 5
      vertex 0.533719 8.48323 5
    endloop
  endfacet
  facet normal -0 0 1
    outer loop
      vertex -0.816277 12.9743 5
      vertex -0.533719 8.48323 5
      vertex 0.816277 12.9743 5
    endloop
  endfacet
  facet normal 0 0 1
    outer loop
      vertex -0.816277 12.9743 5
      vertex -1.59274 8.34944 5
      vertex -0.533719 8.48323 5
    endloop
  endfacet
  facet normal -0 0 1
    outer loop
      vertex -2.43596 12.7697 5
      vertex -1.59274 8.34944 5
      vertex -0.816277 12.9743 5
    endloop
  endfacet
  facet normal 0 0 1
    outer loop
      vertex -2.43596 12.7697 5
      vertex -2.62664 8.08398 5
      vertex -1.59274 8.34944 5
    endloop
  endfacet
  facet normal -0 0 1
    outer loop
      vertex -4.01722 12.3637 5
      vertex -2.62664 8.08398 5
      vertex -2.43596 12.7697 5
    endloop
  endfacet
  facet normal 0 0 1
    outer loop
      vertex -2.62664 8.08398 5
      vertex -4.01722 12.3637 5
      vertex -3.61912 7.69103 5
    endloop
  endfacet
  facet normal -0 0 1
    outer loop
      vertex -5.53513 11.7628 5
      vertex -3.61912 7.69103 5
      vertex -4.01722 12.3637 5
    endloop
  endfacet
  facet normal 0 0 1
    outer loop
      vertex -3.61912 7.69103 5
      vertex -5.53513 11.7628 5
      vertex -4.55453 7.17679 5
    endloop
  endfacet
  facet normal -0 0 1
    outer loop
      vertex -6.96575 10.9763 5
      vertex -4.55453 7.17679 5
      vertex -5.53513 11.7628 5
    endloop
  endfacet
  facet normal 0 0 1
    outer loop
      vertex -4.55453 7.17679 5
      vertex -6.96575 10.9763 5
      vertex -5.4181 6.54936 5
    endloop
  endfacet
  facet normal -0 0 1
    outer loop
      vertex -8.28651 10.0167 5
      vertex -5.4181 6.54936 5
      vertex -6.96575 10.9763 5
    endloop
  endfacet
  facet normal 0 0 1
    outer loop
      vertex -5.4181 6.54936 5
      vertex -8.28651 10.0167 5
      vertex -6.19623 5.81865 5
    endloop
  endfacet
  facet normal -0 0 1
    outer loop
      vertex -9.47659 8.89911 5
      vertex -6.19623 5.81865 5
      vertex -8.28651 10.0167 5
    endloop
  endfacet
  facet normal 0 0 1
    outer loop
      vertex -6.19623 5.81865 5
      vertex -9.47659 8.89911 5
      vertex -6.87664 4.99617 5
    endloop
  endfacet
  facet normal -0 0 1
    outer loop
      vertex -10.5172 7.64121 5
      vertex -6.87664 4.99617 5
      vertex -9.47659 8.89911 5
    endloop
  endfacet
  facet normal 0 0 1
    outer loop
      vertex -6.87664 4.99617 5
      vertex -10.5172 7.64121 5
      vertex -7.44861 4.09491 5
    endloop
  endfacet
  facet normal -0 0 1
    outer loop
      vertex -11.392 6.2628 5
      vertex -7.44861 4.09491 5
      vertex -10.5172 7.64121 5
    endloop
  endfacet
  facet normal 0 0 1
    outer loop
      vertex -7.44861 4.09491 5
      vertex -11.392 6.2628 5
      vertex -7.9031 3.12906 5
    endloop
  endfacet
  facet normal -0 0 1
    outer loop
      vertex -12.0871 4.78562 5
      vertex -7.9031 3.12906 5
      vertex -11.392 6.2628 5
    endloop
  endfacet
  facet normal 0 0 1
    outer loop
      vertex 12.0871 -4.78562 5
      vertex 7.9031 -3.12906 5
      vertex 11.392 -6.2628 5
    endloop
  endfacet
  facet normal -0 0 1
    outer loop
      vertex 7.44861 -4.09491 5
      vertex 11.392 -6.2628 5
      vertex 7.9031 -3.12906 5
    endloop
  endfacet
  facet normal 0 0 1
    outer loop
      vertex 11.392 -6.2628 5
      vertex 7.44861 -4.09491 5
      vertex 10.5172 -7.64121 5
    endloop
  endfacet
  facet normal -0 0 1
    outer loop
      vertex 6.87664 -4.99617 5
      vertex 10.5172 -7.64121 5
      vertex 7.44861 -4.09491 5
    endloop
  endfacet
  facet normal 0 0 1
    outer loop
      vertex 10.5172 -7.64121 5
      vertex 6.87664 -4.99617 5
      vertex 9.47659 -8.89911 5
    endloop
  endfacet
  facet normal -0 0 1
    outer loop
      vertex 6.19623 -5.81865 5
      vertex 9.47659 -8.89911 5
      vertex 6.87664 -4.99617 5
    endloop
  endfacet
  facet normal 0 0 1
    outer loop
      vertex 9.47659 -8.89911 5
      vertex 6.19623 -5.81865 5
      vertex 8.28651 -10.0167 5
    endloop
  endfacet
  facet normal -0 0 1
    outer loop
      vertex 5.4181 -6.54936 5
      vertex 8.28651 -10.0167 5
      vertex 6.19623 -5.81865 5
    endloop
  endfacet
  facet normal 0 0 1
    outer loop
      vertex 8.28651 -10.0167 5
      vertex 5.4181 -6.54936 5
      vertex 6.96575 -10.9763 5
    endloop
  endfacet
  facet normal -0 0 1
    outer loop
      vertex 4.55453 -7.17679 5
      vertex 6.96575 -10.9763 5
      vertex 5.4181 -6.54936 5
    endloop
  endfacet
  facet normal 0 0 1
    outer loop
      vertex 6.96575 -10.9763 5
      vertex 4.55453 -7.17679 5
      vertex 5.53513 -11.7628 5
    endloop
  endfacet
  facet normal -0 0 1
    outer loop
      vertex 3.61912 -7.69103 5
      vertex 5.53513 -11.7628 5
      vertex 4.55453 -7.17679 5
    endloop
  endfacet
  facet normal 0 0 1
    outer loop
      vertex 5.53513 -11.7628 5
      vertex 3.61912 -7.69103 5
      vertex 4.01722 -12.3637 5
    endloop
  endfacet
  facet normal -0 0 1
    outer loop
      vertex 2.62664 -8.08398 5
      vertex 4.01722 -12.3637 5
      vertex 3.61912 -7.69103 5
    endloop
  endfacet
  facet normal 0 0 1
    outer loop
      vertex 2.62664 -8.08398 5
      vertex 2.43596 -12.7697 5
      vertex 4.01722 -12.3637 5
    endloop
  endfacet
  facet normal -0 0 1
    outer loop
      vertex 1.59274 -8.34944 5
      vertex 2.43596 -12.7697 5
      vertex 2.62664 -8.08398 5
    endloop
  endfacet
  facet normal 0 0 1
    outer loop
      vertex 1.59274 -8.34944 5
      vertex 0.816277 -12.9743 5
      vertex 2.43596 -12.7697 5
    endloop
  endfacet
  facet normal -0 0 1
    outer loop
      vertex 0.533719 -8.48323 5
      vertex 0.816277 -12.9743 5
      vertex 1.59274 -8.34944 5
    endloop
  endfacet
  facet normal -0 0 1
    outer loop
      vertex -0.533719 -8.48323 5
      vertex 0.816277 -12.9743 5
      vertex 0.533719 -8.48323 5
    endloop
  endfacet
  facet normal 0 0 1
    outer loop
      vertex -0.533719 -8.48323 5
      vertex -0.816277 -12.9743 5
      vertex 0.816277 -12.9743 5
    endloop
  endfacet
  facet normal 0 0 1
    outer loop
      vertex -1.59274 -8.34944 5
      vertex -0.816277 -12.9743 5
      vertex -0.533719 -8.48323 5
    endloop
  endfacet
  facet normal 0 0 1
    outer loop
      vertex -1.59274 -8.34944 5
      vertex -2.43596 -12.7697 5
      vertex -0.816277 -12.9743 5
    endloop
  endfacet
  facet normal 0 0 1
    outer loop
      vertex -2.62664 -8.08398 5
      vertex -2.43596 -12.7697 5
      vertex -1.59274 -8.34944 5
    endloop
  endfacet
  facet normal 0 0 1
    outer loop
      vertex -4.01722 -12.3637 5
      vertex -2.62664 -8.08398 5
      vertex -3.61912 -7.69103 5
    endloop
  endfacet
  facet normal 0 0 1
    outer loop
      vertex -2.62664 -8.08398 5
      vertex -4.01722 -12.3637 5
      vertex -2.43596 -12.7697 5
    endloop
  endfacet
  facet normal 0 0 1
    outer loop
      vertex -5.53513 -11.7628 5
      vertex -3.61912 -7.69103 5
      vertex -4.55453 -7.17679 5
    endloop
  endfacet
  facet normal 0 0 1
    outer loop
      vertex -6.96575 -10.9763 5
      vertex -4.55453 -7.17679 5
      vertex -5.4181 -6.54936 5
    endloop
  endfacet
  facet normal 0 0 1
    outer loop
      vertex -3.61912 -7.69103 5
      vertex -5.53513 -11.7628 5
      vertex -4.01722 -12.3637 5
    endloop
  endfacet
  facet normal 0 0 1
    outer loop
      vertex -8.28651 -10.0167 5
      vertex -5.4181 -6.54936 5
      vertex -6.19623 -5.81865 5
    endloop
  endfacet
  facet normal 0 0 1
    outer loop
      vertex -9.47659 -8.89911 5
      vertex -6.19623 -5.81865 5
      vertex -6.87664 -4.99617 5
    endloop
  endfacet
  facet normal 0 0 1
    outer loop
      vertex -4.55453 -7.17679 5
      vertex -6.96575 -10.9763 5
      vertex -5.53513 -11.7628 5
    endloop
  endfacet
  facet normal 0 0 1
    outer loop
      vertex -10.5172 -7.64121 5
      vertex -6.87664 -4.99617 5
      vertex -7.44861 -4.09491 5
    endloop
  endfacet
  facet normal 0 0 1
    outer loop
      vertex -11.392 -6.2628 5
      vertex -7.44861 -4.09491 5
      vertex -7.9031 -3.12906 5
    endloop
  endfacet
  facet normal 0 0 1
    outer loop
      vertex -12.0871 -4.78562 5
      vertex -7.9031 -3.12906 5
      vertex -8.23296 -2.11386 5
    endloop
  endfacet
  facet normal 0 0 1
    outer loop
      vertex -5.4181 -6.54936 5
      vertex -8.28651 -10.0167 5
      vertex -6.96575 -10.9763 5
    endloop
  endfacet
  facet normal 0 0 1
    outer loop
      vertex -12.5916 -3.23297 5
      vertex -8.23296 -2.11386 5
      vertex -8.43297 -1.06533 5
    endloop
  endfacet
  facet normal 0 0 1
    outer loop
      vertex -12.8975 -1.62933 5
      vertex -8.43297 -1.06533 5
      vertex -8.5 0 5
    endloop
  endfacet
  facet normal 0 0 1
    outer loop
      vertex -7.9031 3.12906 5
      vertex -12.0871 4.78562 5
      vertex -8.23296 2.11386 5
    endloop
  endfacet
  facet normal 0 0 1
    outer loop
      vertex -6.19623 -5.81865 5
      vertex -9.47659 -8.89911 5
      vertex -8.28651 -10.0167 5
    endloop
  endfacet
  facet normal -0 0 1
    outer loop
      vertex -12.5916 3.23297 5
      vertex -8.23296 2.11386 5
      vertex -12.0871 4.78562 5
    endloop
  endfacet
  facet normal 0 0 1
    outer loop
      vertex -6.87664 -4.99617 5
      vertex -10.5172 -7.64121 5
      vertex -9.47659 -8.89911 5
    endloop
  endfacet
  facet normal 0 0 1
    outer loop
      vertex -8.23296 2.11386 5
      vertex -12.5916 3.23297 5
      vertex -8.43297 1.06533 5
    endloop
  endfacet
  facet normal 0 0 1
    outer loop
      vertex -7.44861 -4.09491 5
      vertex -11.392 -6.2628 5
      vertex -10.5172 -7.64121 5
    endloop
  endfacet
  facet normal -0 0 1
    outer loop
      vertex -12.8975 1.62933 5
      vertex -8.43297 1.06533 5
      vertex -12.5916 3.23297 5
    endloop
  endfacet
  facet normal 0 0 1
    outer loop
      vertex -7.9031 -3.12906 5
      vertex -12.0871 -4.78562 5
      vertex -11.392 -6.2628 5
    endloop
  endfacet
  facet normal 0 0 1
    outer loop
      vertex -8.43297 1.06533 5
      vertex -12.8975 1.62933 5
      vertex -8.5 0 5
    endloop
  endfacet
  facet normal 0 0 1
    outer loop
      vertex -8.23296 -2.11386 5
      vertex -12.5916 -3.23297 5
      vertex -12.0871 -4.78562 5
    endloop
  endfacet
  facet normal 0 0 1
    outer loop
      vertex -13 0 5
      vertex -8.5 0 5
      vertex -12.8975 1.62933 5
    endloop
  endfacet
  facet normal 0 0 1
    outer loop
      vertex -8.43297 -1.06533 5
      vertex -12.8975 -1.62933 5
      vertex -12.5916 -3.23297 5
    endloop
  endfacet
  facet normal 0 0 1
    outer loop
      vertex -8.5 0 5
      vertex -13 0 5
      vertex -12.8975 -1.62933 5
    endloop
  endfacet
  facet normal -0.248691 0.968583 0
    outer loop
      vertex -2.43596 12.7697 0
      vertex -4.01722 12.3637 5
      vertex -2.43596 12.7697 5
    endloop
  endfacet
  facet normal -0.248691 0.968583 0
    outer loop
      vertex -4.01722 12.3637 5
      vertex -2.43596 12.7697 0
      vertex -4.01722 12.3637 0
    endloop
  endfacet
  facet normal 0 0 -1
    outer loop
      vertex 8.5 0 0
      vertex 13 0 0
      vertex 12.8975 -1.62933 0
    endloop
  endfacet
  facet normal 0 0 -1
    outer loop
      vertex 8.43297 -1.06533 0
      vertex 12.8975 -1.62933 0
      vertex 12.5916 -3.23297 0
    endloop
  endfacet
  facet normal 0 0 -1
    outer loop
      vertex 13 0 0
      vertex 8.5 0 0
      vertex 12.8975 1.62933 0
    endloop
  endfacet
  facet normal 0 0 -1
    outer loop
      vertex 8.23296 -2.11386 0
      vertex 12.5916 -3.23297 0
      vertex 12.0871 -4.78562 0
    endloop
  endfacet
  facet normal 0 0 -1
    outer loop
      vertex 8.43297 1.06533 0
      vertex 12.8975 1.62933 0
      vertex 8.5 0 0
    endloop
  endfacet
  facet normal 0 0 -1
    outer loop
      vertex 7.9031 -3.12906 0
      vertex 12.0871 -4.78562 0
      vertex 11.392 -6.2628 0
    endloop
  endfacet
  facet normal -0 0 -1
    outer loop
      vertex 12.8975 1.62933 0
      vertex 8.43297 1.06533 0
      vertex 12.5916 3.23297 0
    endloop
  endfacet
  facet normal 0 0 -1
    outer loop
      vertex 7.44861 -4.09491 0
      vertex 11.392 -6.2628 0
      vertex 10.5172 -7.64121 0
    endloop
  endfacet
  facet normal 0 0 -1
    outer loop
      vertex 8.23296 2.11386 0
      vertex 12.5916 3.23297 0
      vertex 8.43297 1.06533 0
    endloop
  endfacet
  facet normal 0 0 -1
    outer loop
      vertex 6.87664 -4.99617 0
      vertex 10.5172 -7.64121 0
      vertex 9.47659 -8.89911 0
    endloop
  endfacet
  facet normal -0 0 -1
    outer loop
      vertex 12.5916 3.23297 0
      vertex 8.23296 2.11386 0
      vertex 12.0871 4.78562 0
    endloop
  endfacet
  facet normal 0 0 -1
    outer loop
      vertex 7.9031 3.12906 0
      vertex 12.0871 4.78562 0
      vertex 8.23296 2.11386 0
    endloop
  endfacet
  facet normal 0 0 -1
    outer loop
      vertex 12.8975 -1.62933 0
      vertex 8.43297 -1.06533 0
      vertex 8.5 0 0
    endloop
  endfacet
  facet normal 0 0 -1
    outer loop
      vertex 6.19623 -5.81865 0
      vertex 9.47659 -8.89911 0
      vertex 8.28651 -10.0167 0
    endloop
  endfacet
  facet normal 0 0 -1
    outer loop
      vertex 12.5916 -3.23297 0
      vertex 8.23296 -2.11386 0
      vertex 8.43297 -1.06533 0
    endloop
  endfacet
  facet normal 0 0 -1
    outer loop
      vertex 12.0871 -4.78562 0
      vertex 7.9031 -3.12906 0
      vertex 8.23296 -2.11386 0
    endloop
  endfacet
  facet normal 0 0 -1
    outer loop
      vertex 11.392 -6.2628 0
      vertex 7.44861 -4.09491 0
      vertex 7.9031 -3.12906 0
    endloop
  endfacet
  facet normal 0 0 -1
    outer loop
      vertex 5.4181 -6.54936 0
      vertex 8.28651 -10.0167 0
      vertex 6.96575 -10.9763 0
    endloop
  endfacet
  facet normal 0 0 -1
    outer loop
      vertex 10.5172 -7.64121 0
      vertex 6.87664 -4.99617 0
      vertex 7.44861 -4.09491 0
    endloop
  endfacet
  facet normal 0 0 -1
    outer loop
      vertex 9.47659 -8.89911 0
      vertex 6.19623 -5.81865 0
      vertex 6.87664 -4.99617 0
    endloop
  endfacet
  facet normal 0 0 -1
    outer loop
      vertex 4.55453 -7.17679 0
      vertex 6.96575 -10.9763 0
      vertex 5.53513 -11.7628 0
    endloop
  endfacet
  facet normal 0 0 -1
    outer loop
      vertex 8.28651 -10.0167 0
      vertex 5.4181 -6.54936 0
      vertex 6.19623 -5.81865 0
    endloop
  endfacet
  facet normal 0 0 -1
    outer loop
      vertex 6.96575 -10.9763 0
      vertex 4.55453 -7.17679 0
      vertex 5.4181 -6.54936 0
    endloop
  endfacet
  facet normal 0 0 -1
    outer loop
      vertex 3.61912 -7.69103 0
      vertex 5.53513 -11.7628 0
      vertex 4.01722 -12.3637 0
    endloop
  endfacet
  facet normal 0 0 -1
    outer loop
      vertex 5.53513 -11.7628 0
      vertex 3.61912 -7.69103 0
      vertex 4.55453 -7.17679 0
    endloop
  endfacet
  facet normal 0 0 -1
    outer loop
      vertex 4.01722 -12.3637 0
      vertex 2.62664 -8.08398 0
      vertex 3.61912 -7.69103 0
    endloop
  endfacet
  facet normal 0 0 -1
    outer loop
      vertex 2.43596 -12.7697 0
      vertex 2.62664 -8.08398 0
      vertex 4.01722 -12.3637 0
    endloop
  endfacet
  facet normal 0 0 -1
    outer loop
      vertex 2.43596 -12.7697 0
      vertex 1.59274 -8.34944 0
      vertex 2.62664 -8.08398 0
    endloop
  endfacet
  facet normal 0 0 -1
    outer loop
      vertex 0.816277 -12.9743 0
      vertex 1.59274 -8.34944 0
      vertex 2.43596 -12.7697 0
    endloop
  endfacet
  facet normal 0 0 -1
    outer loop
      vertex 0.816277 -12.9743 0
      vertex 0.533719 -8.48323 0
      vertex 1.59274 -8.34944 0
    endloop
  endfacet
  facet normal 0 0 -1
    outer loop
      vertex 0.816277 -12.9743 0
      vertex -0.533719 -8.48323 0
      vertex 0.533719 -8.48323 0
    endloop
  endfacet
  facet normal 0 0 -1
    outer loop
      vertex -0.816277 -12.9743 0
      vertex -0.533719 -8.48323 0
      vertex 0.816277 -12.9743 0
    endloop
  endfacet
  facet normal 0 0 -1
    outer loop
      vertex -0.816277 -12.9743 0
      vertex -1.59274 -8.34944 0
      vertex -0.533719 -8.48323 0
    endloop
  endfacet
  facet normal 0 0 -1
    outer loop
      vertex -2.43596 -12.7697 0
      vertex -1.59274 -8.34944 0
      vertex -0.816277 -12.9743 0
    endloop
  endfacet
  facet normal 0 0 -1
    outer loop
      vertex -2.43596 -12.7697 0
      vertex -2.62664 -8.08398 0
      vertex -1.59274 -8.34944 0
    endloop
  endfacet
  facet normal 0 0 -1
    outer loop
      vertex -4.01722 -12.3637 0
      vertex -2.62664 -8.08398 0
      vertex -2.43596 -12.7697 0
    endloop
  endfacet
  facet normal -0 0 -1
    outer loop
      vertex -2.62664 -8.08398 0
      vertex -4.01722 -12.3637 0
      vertex -3.61912 -7.69103 0
    endloop
  endfacet
  facet normal 0 0 -1
    outer loop
      vertex -5.53513 -11.7628 0
      vertex -3.61912 -7.69103 0
      vertex -4.01722 -12.3637 0
    endloop
  endfacet
  facet normal -0 0 -1
    outer loop
      vertex -3.61912 -7.69103 0
      vertex -5.53513 -11.7628 0
      vertex -4.55453 -7.17679 0
    endloop
  endfacet
  facet normal 0 0 -1
    outer loop
      vertex -6.96575 -10.9763 0
      vertex -4.55453 -7.17679 0
      vertex -5.53513 -11.7628 0
    endloop
  endfacet
  facet normal -0 0 -1
    outer loop
      vertex -4.55453 -7.17679 0
      vertex -6.96575 -10.9763 0
      vertex -5.4181 -6.54936 0
    endloop
  endfacet
  facet normal 0 0 -1
    outer loop
      vertex -8.28651 -10.0167 0
      vertex -5.4181 -6.54936 0
      vertex -6.96575 -10.9763 0
    endloop
  endfacet
  facet normal -0 0 -1
    outer loop
      vertex -5.4181 -6.54936 0
      vertex -8.28651 -10.0167 0
      vertex -6.19623 -5.81865 0
    endloop
  endfacet
  facet normal 0 0 -1
    outer loop
      vertex -9.47659 -8.89911 0
      vertex -6.19623 -5.81865 0
      vertex -8.28651 -10.0167 0
    endloop
  endfacet
  facet normal -0 0 -1
    outer loop
      vertex -6.19623 -5.81865 0
      vertex -9.47659 -8.89911 0
      vertex -6.87664 -4.99617 0
    endloop
  endfacet
  facet normal 0 0 -1
    outer loop
      vertex -10.5172 -7.64121 0
      vertex -6.87664 -4.99617 0
      vertex -9.47659 -8.89911 0
    endloop
  endfacet
  facet normal -0 0 -1
    outer loop
      vertex -6.87664 -4.99617 0
      vertex -10.5172 -7.64121 0
      vertex -7.44861 -4.09491 0
    endloop
  endfacet
  facet normal 0 0 -1
    outer loop
      vertex -11.392 -6.2628 0
      vertex -7.44861 -4.09491 0
      vertex -10.5172 -7.64121 0
    endloop
  endfacet
  facet normal -0 0 -1
    outer loop
      vertex -7.44861 -4.09491 0
      vertex -11.392 -6.2628 0
      vertex -7.9031 -3.12906 0
    endloop
  endfacet
  facet normal 0 0 -1
    outer loop
      vertex -12.0871 -4.78562 0
      vertex -7.9031 -3.12906 0
      vertex -11.392 -6.2628 0
    endloop
  endfacet
  facet normal -0 0 -1
    outer loop
      vertex 12.0871 4.78562 0
      vertex 7.9031 3.12906 0
      vertex 11.392 6.2628 0
    endloop
  endfacet
  facet normal 0 0 -1
    outer loop
      vertex 7.44861 4.09491 0
      vertex 11.392 6.2628 0
      vertex 7.9031 3.12906 0
    endloop
  endfacet
  facet normal -0 0 -1
    outer loop
      vertex 11.392 6.2628 0
      vertex 7.44861 4.09491 0
      vertex 10.5172 7.64121 0
    endloop
  endfacet
  facet normal 0 0 -1
    outer loop
      vertex 6.87664 4.99617 0
      vertex 10.5172 7.64121 0
      vertex 7.44861 4.09491 0
    endloop
  endfacet
  facet normal -0 0 -1
    outer loop
      vertex 10.5172 7.64121 0
      vertex 6.87664 4.99617 0
      vertex 9.47659 8.89911 0
    endloop
  endfacet
  facet normal 0 0 -1
    outer loop
      vertex 6.19623 5.81865 0
      vertex 9.47659 8.89911 0
      vertex 6.87664 4.99617 0
    endloop
  endfacet
  facet normal -0 0 -1
    outer loop
      vertex 9.47659 8.89911 0
      vertex 6.19623 5.81865 0
      vertex 8.28651 10.0167 0
    endloop
  endfacet
  facet normal 0 0 -1
    outer loop
      vertex 5.4181 6.54936 0
      vertex 8.28651 10.0167 0
      vertex 6.19623 5.81865 0
    endloop
  endfacet
  facet normal -0 0 -1
    outer loop
      vertex 8.28651 10.0167 0
      vertex 5.4181 6.54936 0
      vertex 6.96575 10.9763 0
    endloop
  endfacet
  facet normal 0 0 -1
    outer loop
      vertex 4.55453 7.17679 0
      vertex 6.96575 10.9763 0
      vertex 5.4181 6.54936 0
    endloop
  endfacet
  facet normal -0 0 -1
    outer loop
      vertex 6.96575 10.9763 0
      vertex 4.55453 7.17679 0
      vertex 5.53513 11.7628 0
    endloop
  endfacet
  facet normal 0 0 -1
    outer loop
      vertex 3.61912 7.69103 0
      vertex 5.53513 11.7628 0
      vertex 4.55453 7.17679 0
    endloop
  endfacet
  facet normal -0 0 -1
    outer loop
      vertex 5.53513 11.7628 0
      vertex 3.61912 7.69103 0
      vertex 4.01722 12.3637 0
    endloop
  endfacet
  facet normal 0 0 -1
    outer loop
      vertex 2.62664 8.08398 0
      vertex 4.01722 12.3637 0
      vertex 3.61912 7.69103 0
    endloop
  endfacet
  facet normal 0 0 -1
    outer loop
      vertex 2.62664 8.08398 0
      vertex 2.43596 12.7697 0
      vertex 4.01722 12.3637 0
    endloop
  endfacet
  facet normal 0 0 -1
    outer loop
      vertex 1.59274 8.34944 0
      vertex 2.43596 12.7697 0
      vertex 2.62664 8.08398 0
    endloop
  endfacet
  facet normal 0 0 -1
    outer loop
      vertex 1.59274 8.34944 0
      vertex 0.816277 12.9743 0
      vertex 2.43596 12.7697 0
    endloop
  endfacet
  facet normal 0 0 -1
    outer loop
      vertex 0.533719 8.48323 0
      vertex 0.816277 12.9743 0
      vertex 1.59274 8.34944 0
    endloop
  endfacet
  facet normal 0 0 -1
    outer loop
      vertex -0.533719 8.48323 0
      vertex 0.816277 12.9743 0
      vertex 0.533719 8.48323 0
    endloop
  endfacet
  facet normal 0 0 -1
    outer loop
      vertex -0.533719 8.48323 0
      vertex -0.816277 12.9743 0
      vertex 0.816277 12.9743 0
    endloop
  endfacet
  facet normal 0 0 -1
    outer loop
      vertex -1.59274 8.34944 0
      vertex -0.816277 12.9743 0
      vertex -0.533719 8.48323 0
    endloop
  endfacet
  facet normal 0 0 -1
    outer loop
      vertex -1.59274 8.34944 0
      vertex -2.43596 12.7697 0
      vertex -0.816277 12.9743 0
    endloop
  endfacet
  facet normal 0 0 -1
    outer loop
      vertex -2.62664 8.08398 0
      vertex -2.43596 12.7697 0
      vertex -1.59274 8.34944 0
    endloop
  endfacet
  facet normal 0 0 -1
    outer loop
      vertex -4.01722 12.3637 0
      vertex -2.62664 8.08398 0
      vertex -3.61912 7.69103 0
    endloop
  endfacet
  facet normal 0 0 -1
    outer loop
      vertex -2.62664 8.08398 0
      vertex -4.01722 12.3637 0
      vertex -2.43596 12.7697 0
    endloop
  endfacet
  facet normal 0 0 -1
    outer loop
      vertex -5.53513 11.7628 0
      vertex -3.61912 7.69103 0
      vertex -4.55453 7.17679 0
    endloop
  endfacet
  facet normal 0 0 -1
    outer loop
      vertex -6.96575 10.9763 0
      vertex -4.55453 7.17679 0
      vertex -5.4181 6.54936 0
    endloop
  endfacet
  facet normal 0 0 -1
    outer loop
      vertex -3.61912 7.69103 0
      vertex -5.53513 11.7628 0
      vertex -4.01722 12.3637 0
    endloop
  endfacet
  facet normal 0 0 -1
    outer loop
      vertex -8.28651 10.0167 0
      vertex -5.4181 6.54936 0
      vertex -6.19623 5.81865 0
    endloop
  endfacet
  facet normal 0 0 -1
    outer loop
      vertex -9.47659 8.89911 0
      vertex -6.19623 5.81865 0
      vertex -6.87664 4.99617 0
    endloop
  endfacet
  facet normal 0 0 -1
    outer loop
      vertex -4.55453 7.17679 0
      vertex -6.96575 10.9763 0
      vertex -5.53513 11.7628 0
    endloop
  endfacet
  facet normal 0 0 -1
    outer loop
      vertex -10.5172 7.64121 0
      vertex -6.87664 4.99617 0
      vertex -7.44861 4.09491 0
    endloop
  endfacet
  facet normal 0 0 -1
    outer loop
      vertex -11.392 6.2628 0
      vertex -7.44861 4.09491 0
      vertex -7.9031 3.12906 0
    endloop
  endfacet
  facet normal 0 0 -1
    outer loop
      vertex -12.0871 4.78562 0
      vertex -7.9031 3.12906 0
      vertex -8.23296 2.11386 0
    endloop
  endfacet
  facet normal 0 0 -1
    outer loop
      vertex -5.4181 6.54936 0
      vertex -8.28651 10.0167 0
      vertex -6.96575 10.9763 0
    endloop
  endfacet
  facet normal 0 0 -1
    outer loop
      vertex -12.5916 3.23297 0
      vertex -8.23296 2.11386 0
      vertex -8.43297 1.06533 0
    endloop
  endfacet
  facet normal 0 0 -1
    outer loop
      vertex -12.8975 1.62933 0
      vertex -8.43297 1.06533 0
      vertex -8.5 0 0
    endloop
  endfacet
  facet normal -0 0 -1
    outer loop
      vertex -7.9031 -3.12906 0
      vertex -12.0871 -4.78562 0
      vertex -8.23296 -2.11386 0
    endloop
  endfacet
  facet normal 0 0 -1
    outer loop
      vertex -6.19623 5.81865 0
      vertex -9.47659 8.89911 0
      vertex -8.28651 10.0167 0
    endloop
  endfacet
  facet normal 0 0 -1
    outer loop
      vertex -12.5916 -3.23297 0
      vertex -8.23296 -2.11386 0
      vertex -12.0871 -4.78562 0
    endloop
  endfacet
  facet normal 0 0 -1
    outer loop
      vertex -6.87664 4.99617 0
      vertex -10.5172 7.64121 0
      vertex -9.47659 8.89911 0
    endloop
  endfacet
  facet normal -0 0 -1
    outer loop
      vertex -8.23296 -2.11386 0
      vertex -12.5916 -3.23297 0
      vertex -8.43297 -1.06533 0
    endloop
  endfacet
  facet normal 0 0 -1
    outer loop
      vertex -7.44861 4.09491 0
      vertex -11.392 6.2628 0
      vertex -10.5172 7.64121 0
    endloop
  endfacet
  facet normal 0 0 -1
    outer loop
      vertex -12.8975 -1.62933 0
      vertex -8.43297 -1.06533 0
      vertex -12.5916 -3.23297 0
    endloop
  endfacet
  facet normal 0 0 -1
    outer loop
      vertex -7.9031 3.12906 0
      vertex -12.0871 4.78562 0
      vertex -11.392 6.2628 0
    endloop
  endfacet
  facet normal -0 0 -1
    outer loop
      vertex -8.43297 -1.06533 0
      vertex -12.8975 -1.62933 0
      vertex -8.5 0 0
    endloop
  endfacet
  facet normal 0 0 -1
    outer loop
      vertex -8.23296 2.11386 0
      vertex -12.5916 3.23297 0
      vertex -12.0871 4.78562 0
    endloop
  endfacet
  facet normal 0 0 -1
    outer loop
      vertex -13 0 0
      vertex -8.5 0 0
      vertex -12.8975 -1.62933 0
    endloop
  endfacet
  facet normal 0 0 -1
    outer loop
      vertex -8.43297 1.06533 0
      vertex -12.8975 1.62933 0
      vertex -12.5916 3.23297 0
    endloop
  endfacet
  facet normal 0 0 -1
    outer loop
      vertex -8.5 0 0
      vertex -13 0 0
      vertex -12.8975 1.62933 0
    endloop
  endfacet
  facet normal 0.951054 0.309024 -5.64496e-18
    outer loop
      vertex 12.5916 3.23297 5
      vertex 12.0871 4.78562 0
      vertex 12.0871 4.78562 5
    endloop
  endfacet
  facet normal 0.951054 0.309024 -5.64496e-18
    outer loop
      vertex 12.0871 4.78562 0
      vertex 12.5916 3.23297 5
      vertex 12.5916 3.23297 0
    endloop
  endfacet
  facet normal 0.982288 0.187375 -1.44777e-18
    outer loop
      vertex 12.8975 1.62933 5
      vertex 12.5916 3.23297 0
      vertex 12.5916 3.23297 5
    endloop
  endfacet
  facet normal 0.982288 0.187375 -1.44777e-18
    outer loop
      vertex 12.5916 3.23297 0
      vertex 12.8975 1.62933 5
      vertex 12.8975 1.62933 0
    endloop
  endfacet
  facet normal 0.770518 0.637418 1.22995e-17
    outer loop
      vertex 10.5172 7.64121 5
      vertex 9.47659 8.89911 0
      vertex 9.47659 8.89911 5
    endloop
  endfacet
  facet normal 0.770518 0.637418 1.22995e-17
    outer loop
      vertex 9.47659 8.89911 0
      vertex 10.5172 7.64121 5
      vertex 10.5172 7.64121 0
    endloop
  endfacet
  facet normal 0.844318 0.535842 -1.05195e-17
    outer loop
      vertex 11.392 6.2628 5
      vertex 10.5172 7.64121 0
      vertex 10.5172 7.64121 5
    endloop
  endfacet
  facet normal 0.844318 0.535842 -1.05195e-17
    outer loop
      vertex 10.5172 7.64121 0
      vertex 11.392 6.2628 5
      vertex 11.392 6.2628 0
    endloop
  endfacet
  facet normal 0.248691 0.968583 -0
    outer loop
      vertex 4.01722 12.3637 0
      vertex 2.43596 12.7697 5
      vertex 4.01722 12.3637 5
    endloop
  endfacet
  facet normal 0.248691 0.968583 0
    outer loop
      vertex 2.43596 12.7697 5
      vertex 4.01722 12.3637 0
      vertex 2.43596 12.7697 0
    endloop
  endfacet
  facet normal 0.125325 0.992116 -0
    outer loop
      vertex 2.43596 12.7697 0
      vertex 0.816277 12.9743 5
      vertex 2.43596 12.7697 5
    endloop
  endfacet
  facet normal 0.125325 0.992116 0
    outer loop
      vertex 0.816277 12.9743 5
      vertex 2.43596 12.7697 0
      vertex 0.816277 12.9743 0
    endloop
  endfacet
  facet normal 0.58779 0.809014 -0
    outer loop
      vertex 8.28651 10.0167 0
      vertex 6.96575 10.9763 5
      vertex 8.28651 10.0167 5
    endloop
  endfacet
  facet normal 0.58779 0.809014 0
    outer loop
      vertex 6.96575 10.9763 5
      vertex 8.28651 10.0167 0
      vertex 6.96575 10.9763 0
    endloop
  endfacet
  facet normal -0.844318 0.535842 1.05195e-17
    outer loop
      vertex -11.392 6.2628 0
      vertex -10.5172 7.64121 5
      vertex -10.5172 7.64121 0
    endloop
  endfacet
  facet normal -0.844318 0.535842 1.05195e-17
    outer loop
      vertex -10.5172 7.64121 5
      vertex -11.392 6.2628 0
      vertex -11.392 6.2628 5
    endloop
  endfacet
  facet normal -0.951054 0.309024 5.64496e-18
    outer loop
      vertex -12.5916 3.23297 0
      vertex -12.0871 4.78562 5
      vertex -12.0871 4.78562 0
    endloop
  endfacet
  facet normal -0.951054 0.309024 5.64496e-18
    outer loop
      vertex -12.0871 4.78562 5
      vertex -12.5916 3.23297 0
      vertex -12.5916 3.23297 5
    endloop
  endfacet
  facet normal -0.982288 0.187375 1.44777e-18
    outer loop
      vertex -12.8975 1.62933 0
      vertex -12.5916 3.23297 5
      vertex -12.5916 3.23297 0
    endloop
  endfacet
  facet normal -0.982288 0.187375 1.44777e-18
    outer loop
      vertex -12.5916 3.23297 5
      vertex -12.8975 1.62933 0
      vertex -12.8975 1.62933 5
    endloop
  endfacet
  facet normal -0.481758 0.876304 0
    outer loop
      vertex -5.53513 11.7628 0
      vertex -6.96575 10.9763 5
      vertex -5.53513 11.7628 5
    endloop
  endfacet
  facet normal -0.481758 0.876304 0
    outer loop
      vertex -6.96575 10.9763 5
      vertex -5.53513 11.7628 0
      vertex -6.96575 10.9763 0
    endloop
  endfacet
  facet normal -0.58779 0.809014 0
    outer loop
      vertex -6.96575 10.9763 0
      vertex -8.28651 10.0167 5
      vertex -6.96575 10.9763 5
    endloop
  endfacet
  facet normal -0.58779 0.809014 0
    outer loop
      vertex -8.28651 10.0167 5
      vertex -6.96575 10.9763 0
      vertex -8.28651 10.0167 0
    endloop
  endfacet
  facet normal -0.125325 0.992116 0
    outer loop
      vertex -0.816277 12.9743 0
      vertex -2.43596 12.7697 5
      vertex -0.816277 12.9743 5
    endloop
  endfacet
  facet normal -0.125325 0.992116 0
    outer loop
      vertex -2.43596 12.7697 5
      vertex -0.816277 12.9743 0
      vertex -2.43596 12.7697 0
    endloop
  endfacet
  facet normal 0.998027 -0.0627852 -1.18047e-18
    outer loop
      vertex 12.8975 -1.62933 5
      vertex 13 0 0
      vertex 13 0 5
    endloop
  endfacet
  facet normal 0.998027 -0.0627852 -1.18047e-18
    outer loop
      vertex 13 0 0
      vertex 12.8975 -1.62933 5
      vertex 12.8975 -1.62933 0
    endloop
  endfacet
  facet normal -0.904829 -0.425775 -2.84241e-18
    outer loop
      vertex -11.392 -6.2628 0
      vertex -12.0871 -4.78562 5
      vertex -12.0871 -4.78562 0
    endloop
  endfacet
  facet normal -0.904829 -0.425775 -2.84241e-18
    outer loop
      vertex -12.0871 -4.78562 5
      vertex -11.392 -6.2628 0
      vertex -11.392 -6.2628 5
    endloop
  endfacet
  facet normal 0.481758 -0.876304 0
    outer loop
      vertex 5.53513 -11.7628 0
      vertex 6.96575 -10.9763 5
      vertex 5.53513 -11.7628 5
    endloop
  endfacet
  facet normal 0.481758 -0.876304 0
    outer loop
      vertex 6.96575 -10.9763 5
      vertex 5.53513 -11.7628 0
      vertex 6.96575 -10.9763 0
    endloop
  endfacet
  facet normal 0.951054 -0.309024 5.64496e-18
    outer loop
      vertex 12.0871 -4.78562 5
      vertex 12.5916 -3.23297 0
      vertex 12.5916 -3.23297 5
    endloop
  endfacet
  facet normal 0.951054 -0.309024 5.64496e-18
    outer loop
      vertex 12.5916 -3.23297 0
      vertex 12.0871 -4.78562 5
      vertex 12.0871 -4.78562 0
    endloop
  endfacet
  facet normal -0.982288 -0.187375 -1.44777e-18
    outer loop
      vertex -12.5916 -3.23297 0
      vertex -12.8975 -1.62933 5
      vertex -12.8975 -1.62933 0
    endloop
  endfacet
  facet normal -0.982288 -0.187375 -1.44777e-18
    outer loop
      vertex -12.8975 -1.62933 5
      vertex -12.5916 -3.23297 0
      vertex -12.5916 -3.23297 5
    endloop
  endfacet
  facet normal -0.998027 -0.0627852 1.18047e-18
    outer loop
      vertex -12.8975 -1.62933 0
      vertex -13 0 5
      vertex -13 0 0
    endloop
  endfacet
  facet normal -0.998027 -0.0627852 1.18047e-18
    outer loop
      vertex -13 0 5
      vertex -12.8975 -1.62933 0
      vertex -12.8975 -1.62933 5
    endloop
  endfacet
  facet normal -0.951054 -0.309024 -5.64496e-18
    outer loop
      vertex -12.0871 -4.78562 0
      vertex -12.5916 -3.23297 5
      vertex -12.5916 -3.23297 0
    endloop
  endfacet
  facet normal -0.951054 -0.309024 -5.64496e-18
    outer loop
      vertex -12.5916 -3.23297 5
      vertex -12.0871 -4.78562 0
      vertex -12.0871 -4.78562 5
    endloop
  endfacet
  facet normal 0.684557 -0.728959 0
    outer loop
      vertex 8.28651 -10.0167 0
      vertex 9.47659 -8.89911 5
      vertex 8.28651 -10.0167 5
    endloop
  endfacet
  facet normal 0.684557 -0.728959 0
    outer loop
      vertex 9.47659 -8.89911 5
      vertex 8.28651 -10.0167 0
      vertex 9.47659 -8.89911 0
    endloop
  endfacet
  facet normal 0.368081 -0.929794 0
    outer loop
      vertex 4.01722 -12.3637 0
      vertex 5.53513 -11.7628 5
      vertex 4.01722 -12.3637 5
    endloop
  endfacet
  facet normal 0.368081 -0.929794 0
    outer loop
      vertex 5.53513 -11.7628 5
      vertex 4.01722 -12.3637 0
      vertex 5.53513 -11.7628 0
    endloop
  endfacet
  facet normal 0.248691 -0.968583 0
    outer loop
      vertex 2.43596 -12.7697 0
      vertex 4.01722 -12.3637 5
      vertex 2.43596 -12.7697 5
    endloop
  endfacet
  facet normal 0.248691 -0.968583 0
    outer loop
      vertex 4.01722 -12.3637 5
      vertex 2.43596 -12.7697 0
      vertex 4.01722 -12.3637 0
    endloop
  endfacet
  facet normal 0.125325 -0.992116 0
    outer loop
      vertex 0.816277 -12.9743 0
      vertex 2.43596 -12.7697 5
      vertex 0.816277 -12.9743 5
    endloop
  endfacet
  facet normal 0.125325 -0.992116 0
    outer loop
      vertex 2.43596 -12.7697 5
      vertex 0.816277 -12.9743 0
      vertex 2.43596 -12.7697 0
    endloop
  endfacet
  facet normal 0.844318 -0.535842 1.05195e-17
    outer loop
      vertex 10.5172 -7.64121 5
      vertex 11.392 -6.2628 0
      vertex 11.392 -6.2628 5
    endloop
  endfacet
  facet normal 0.844318 -0.535842 1.05195e-17
    outer loop
      vertex 11.392 -6.2628 0
      vertex 10.5172 -7.64121 5
      vertex 10.5172 -7.64121 0
    endloop
  endfacet
  facet normal 0.982288 -0.187375 1.44777e-18
    outer loop
      vertex 12.5916 -3.23297 5
      vertex 12.8975 -1.62933 0
      vertex 12.8975 -1.62933 5
    endloop
  endfacet
  facet normal 0.982288 -0.187375 1.44777e-18
    outer loop
      vertex 12.8975 -1.62933 0
      vertex 12.5916 -3.23297 5
      vertex 12.5916 -3.23297 0
    endloop
  endfacet
  facet normal -0.125325 -0.992116 0
    outer loop
      vertex -2.43596 -12.7697 0
      vertex -0.816277 -12.9743 5
      vertex -2.43596 -12.7697 5
    endloop
  endfacet
  facet normal -0.125325 -0.992116 -0
    outer loop
      vertex -0.816277 -12.9743 5
      vertex -2.43596 -12.7697 0
      vertex -0.816277 -12.9743 0
    endloop
  endfacet
  facet normal -0.368081 -0.929794 0
    outer loop
      vertex -5.53513 -11.7628 0
      vertex -4.01722 -12.3637 5
      vertex -5.53513 -11.7628 5
    endloop
  endfacet
  facet normal -0.368081 -0.929794 -0
    outer loop
      vertex -4.01722 -12.3637 5
      vertex -5.53513 -11.7628 0
      vertex -4.01722 -12.3637 0
    endloop
  endfacet
  facet normal -0.248691 -0.968583 0
    outer loop
      vertex -4.01722 -12.3637 0
      vertex -2.43596 -12.7697 5
      vertex -4.01722 -12.3637 5
    endloop
  endfacet
  facet normal -0.248691 -0.968583 -0
    outer loop
      vertex -2.43596 -12.7697 5
      vertex -4.01722 -12.3637 0
      vertex -2.43596 -12.7697 0
    endloop
  endfacet
  facet normal -0.770518 -0.637418 1.22995e-17
    outer loop
      vertex -9.47659 -8.89911 0
      vertex -10.5172 -7.64121 5
      vertex -10.5172 -7.64121 0
    endloop
  endfacet
  facet normal -0.770518 -0.637418 1.22995e-17
    outer loop
      vertex -10.5172 -7.64121 5
      vertex -9.47659 -8.89911 0
      vertex -9.47659 -8.89911 5
    endloop
  endfacet
  facet normal -0.684557 -0.728959 0
    outer loop
      vertex -9.47659 -8.89911 0
      vertex -8.28651 -10.0167 5
      vertex -9.47659 -8.89911 5
    endloop
  endfacet
  facet normal -0.684557 -0.728959 -0
    outer loop
      vertex -8.28651 -10.0167 5
      vertex -9.47659 -8.89911 0
      vertex -8.28651 -10.0167 0
    endloop
  endfacet
  facet normal 0.58779 -0.809014 0
    outer loop
      vertex 6.96575 -10.9763 0
      vertex 8.28651 -10.0167 5
      vertex 6.96575 -10.9763 5
    endloop
  endfacet
  facet normal 0.58779 -0.809014 0
    outer loop
      vertex 8.28651 -10.0167 5
      vertex 6.96575 -10.9763 0
      vertex 8.28651 -10.0167 0
    endloop
  endfacet
  facet normal 0.904829 -0.425775 2.84241e-18
    outer loop
      vertex 11.392 -6.2628 5
      vertex 12.0871 -4.78562 0
      vertex 12.0871 -4.78562 5
    endloop
  endfacet
  facet normal 0.904829 -0.425775 2.84241e-18
    outer loop
      vertex 12.0871 -4.78562 0
      vertex 11.392 -6.2628 5
      vertex 11.392 -6.2628 0
    endloop
  endfacet
  facet normal -0.844318 -0.535842 -1.05195e-17
    outer loop
      vertex -10.5172 -7.64121 0
      vertex -11.392 -6.2628 5
      vertex -11.392 -6.2628 0
    endloop
  endfacet
  facet normal -0.844318 -0.535842 -1.05195e-17
    outer loop
      vertex -11.392 -6.2628 5
      vertex -10.5172 -7.64121 0
      vertex -10.5172 -7.64121 5
    endloop
  endfacet
  facet normal -0.481758 -0.876304 0
    outer loop
      vertex -6.96575 -10.9763 0
      vertex -5.53513 -11.7628 5
      vertex -6.96575 -10.9763 5
    endloop
  endfacet
  facet normal -0.481758 -0.876304 -0
    outer loop
      vertex -5.53513 -11.7628 5
      vertex -6.96575 -10.9763 0
      vertex -5.53513 -11.7628 0
    endloop
  endfacet
  facet normal -0.58779 -0.809014 0
    outer loop
      vertex -8.28651 -10.0167 0
      vertex -6.96575 -10.9763 5
      vertex -8.28651 -10.0167 5
    endloop
  endfacet
  facet normal -0.58779 -0.809014 -0
    outer loop
      vertex -6.96575 -10.9763 5
      vertex -8.28651 -10.0167 0
      vertex -6.96575 -10.9763 0
    endloop
  endfacet
  facet normal -0.998026 -0.0627953 8.76047e-20
    outer loop
      vertex 8.5 0 0
      vertex 8.43297 1.06533 5
      vertex 8.43297 1.06533 0
    endloop
  endfacet
  facet normal -0.998026 -0.0627953 8.76047e-20
    outer loop
      vertex 8.43297 1.06533 5
      vertex 8.5 0 0
      vertex 8.5 0 5
    endloop
  endfacet
  facet normal 0.998026 -0.0627953 -8.76047e-20
    outer loop
      vertex -8.5 0 5
      vertex -8.43297 1.06533 0
      vertex -8.43297 1.06533 5
    endloop
  endfacet
  facet normal 0.998026 -0.0627953 -8.76047e-20
    outer loop
      vertex -8.43297 1.06533 0
      vertex -8.5 0 5
      vertex -8.5 0 0
    endloop
  endfacet
  facet normal 0 -1 0
    outer loop
      vertex -0.533719 8.48323 0
      vertex 0.533719 8.48323 5
      vertex -0.533719 8.48323 5
    endloop
  endfacet
  facet normal 0 -1 -0
    outer loop
      vertex 0.533719 8.48323 5
      vertex -0.533719 8.48323 0
      vertex 0.533719 8.48323 0
    endloop
  endfacet
  facet normal 0 1 -0
    outer loop
      vertex 0.533719 -8.48323 0
      vertex -0.533719 -8.48323 5
      vertex 0.533719 -8.48323 5
    endloop
  endfacet
  facet normal 0 1 0
    outer loop
      vertex -0.533719 -8.48323 5
      vertex 0.533719 -8.48323 0
      vertex -0.533719 -8.48323 0
    endloop
  endfacet
  facet normal -0.684546 -0.72897 0
    outer loop
      vertex 5.4181 6.54936 0
      vertex 6.19623 5.81865 5
      vertex 5.4181 6.54936 5
    endloop
  endfacet
  facet normal -0.684546 -0.72897 -0
    outer loop
      vertex 6.19623 5.81865 5
      vertex 5.4181 6.54936 0
      vertex 6.19623 5.81865 0
    endloop
  endfacet
  facet normal 0.684546 -0.72897 0
    outer loop
      vertex -6.19623 5.81865 0
      vertex -5.4181 6.54936 5
      vertex -6.19623 5.81865 5
    endloop
  endfacet
  facet normal 0.684546 -0.72897 0
    outer loop
      vertex -5.4181 6.54936 5
      vertex -6.19623 5.81865 0
      vertex -5.4181 6.54936 0
    endloop
  endfacet
  facet normal 0.368124 -0.929777 0
    outer loop
      vertex -3.61912 7.69103 0
      vertex -2.62664 8.08398 5
      vertex -3.61912 7.69103 5
    endloop
  endfacet
  facet normal 0.368124 -0.929777 0
    outer loop
      vertex -2.62664 8.08398 5
      vertex -3.61912 7.69103 0
      vertex -2.62664 8.08398 0
    endloop
  endfacet
  facet normal -0.904829 -0.425776 2.23963e-18
    outer loop
      vertex 7.9031 3.12906 0
      vertex 7.44861 4.09491 5
      vertex 7.44861 4.09491 0
    endloop
  endfacet
  facet normal -0.904829 -0.425776 2.23963e-18
    outer loop
      vertex 7.44861 4.09491 5
      vertex 7.9031 3.12906 0
      vertex 7.9031 3.12906 5
    endloop
  endfacet
  facet normal -0.368124 -0.929777 0
    outer loop
      vertex 2.62664 8.08398 0
      vertex 3.61912 7.69103 5
      vertex 2.62664 8.08398 5
    endloop
  endfacet
  facet normal -0.368124 -0.929777 -0
    outer loop
      vertex 3.61912 7.69103 5
      vertex 2.62664 8.08398 0
      vertex 3.61912 7.69103 0
    endloop
  endfacet
  facet normal -0.24869 -0.968583 0
    outer loop
      vertex 1.59274 8.34944 0
      vertex 2.62664 8.08398 5
      vertex 1.59274 8.34944 5
    endloop
  endfacet
  facet normal -0.24869 -0.968583 -0
    outer loop
      vertex 2.62664 8.08398 5
      vertex 1.59274 8.34944 0
      vertex 2.62664 8.08398 0
    endloop
  endfacet
  facet normal -0.481749 -0.876309 0
    outer loop
      vertex 3.61912 7.69103 0
      vertex 4.55453 7.17679 5
      vertex 3.61912 7.69103 5
    endloop
  endfacet
  facet normal -0.481749 -0.876309 -0
    outer loop
      vertex 4.55453 7.17679 5
      vertex 3.61912 7.69103 0
      vertex 4.55453 7.17679 0
    endloop
  endfacet
  facet normal 0.904829 -0.425776 -2.23963e-18
    outer loop
      vertex -7.9031 3.12906 5
      vertex -7.44861 4.09491 0
      vertex -7.44861 4.09491 5
    endloop
  endfacet
  facet normal 0.904829 -0.425776 -2.23963e-18
    outer loop
      vertex -7.44861 4.09491 0
      vertex -7.9031 3.12906 5
      vertex -7.9031 3.12906 0
    endloop
  endfacet
  facet normal 0.844322 -0.535835 -9.9133e-18
    outer loop
      vertex -7.44861 4.09491 5
      vertex -6.87664 4.99617 0
      vertex -6.87664 4.99617 5
    endloop
  endfacet
  facet normal 0.844322 -0.535835 -9.9133e-18
    outer loop
      vertex -6.87664 4.99617 0
      vertex -7.44861 4.09491 5
      vertex -7.44861 4.09491 0
    endloop
  endfacet
  facet normal 0.587791 -0.809013 0
    outer loop
      vertex -5.4181 6.54936 0
      vertex -4.55453 7.17679 5
      vertex -5.4181 6.54936 5
    endloop
  endfacet
  facet normal 0.587791 -0.809013 0
    outer loop
      vertex -4.55453 7.17679 5
      vertex -5.4181 6.54936 0
      vertex -4.55453 7.17679 0
    endloop
  endfacet
  facet normal 0.125337 -0.992114 0
    outer loop
      vertex -1.59274 8.34944 0
      vertex -0.533719 8.48323 5
      vertex -1.59274 8.34944 5
    endloop
  endfacet
  facet normal 0.125337 -0.992114 0
    outer loop
      vertex -0.533719 8.48323 5
      vertex -1.59274 8.34944 0
      vertex -0.533719 8.48323 0
    endloop
  endfacet
  facet normal -0.125337 0.992114 0
    outer loop
      vertex 1.59274 -8.34944 0
      vertex 0.533719 -8.48323 5
      vertex 1.59274 -8.34944 5
    endloop
  endfacet
  facet normal -0.125337 0.992114 0
    outer loop
      vertex 0.533719 -8.48323 5
      vertex 1.59274 -8.34944 0
      vertex 0.533719 -8.48323 0
    endloop
  endfacet
  facet normal -0.951056 -0.309018 7.66852e-19
    outer loop
      vertex 8.23296 2.11386 0
      vertex 7.9031 3.12906 5
      vertex 7.9031 3.12906 0
    endloop
  endfacet
  facet normal -0.951056 -0.309018 7.66852e-19
    outer loop
      vertex 7.9031 3.12906 5
      vertex 8.23296 2.11386 0
      vertex 8.23296 2.11386 5
    endloop
  endfacet
  facet normal -0.982289 -0.187374 -1.04618e-18
    outer loop
      vertex 8.43297 1.06533 0
      vertex 8.23296 2.11386 5
      vertex 8.23296 2.11386 0
    endloop
  endfacet
  facet normal -0.982289 -0.187374 -1.04618e-18
    outer loop
      vertex 8.23296 2.11386 5
      vertex 8.43297 1.06533 0
      vertex 8.43297 1.06533 5
    endloop
  endfacet
  facet normal -0.770515 -0.637421 -5.73872e-18
    outer loop
      vertex 6.87664 4.99617 0
      vertex 6.19623 5.81865 5
      vertex 6.19623 5.81865 0
    endloop
  endfacet
  facet normal -0.770515 -0.637421 -5.73872e-18
    outer loop
      vertex 6.19623 5.81865 5
      vertex 6.87664 4.99617 0
      vertex 6.87664 4.99617 5
    endloop
  endfacet
  facet normal -0.844322 -0.535835 9.9133e-18
    outer loop
      vertex 7.44861 4.09491 0
      vertex 6.87664 4.99617 5
      vertex 6.87664 4.99617 0
    endloop
  endfacet
  facet normal -0.844322 -0.535835 9.9133e-18
    outer loop
      vertex 6.87664 4.99617 5
      vertex 7.44861 4.09491 0
      vertex 7.44861 4.09491 5
    endloop
  endfacet
  facet normal -0.125337 -0.992114 0
    outer loop
      vertex 0.533719 8.48323 0
      vertex 1.59274 8.34944 5
      vertex 0.533719 8.48323 5
    endloop
  endfacet
  facet normal -0.125337 -0.992114 -0
    outer loop
      vertex 1.59274 8.34944 5
      vertex 0.533719 8.48323 0
      vertex 1.59274 8.34944 0
    endloop
  endfacet
  facet normal -0.587791 -0.809013 0
    outer loop
      vertex 4.55453 7.17679 0
      vertex 5.4181 6.54936 5
      vertex 4.55453 7.17679 5
    endloop
  endfacet
  facet normal -0.587791 -0.809013 -0
    outer loop
      vertex 5.4181 6.54936 5
      vertex 4.55453 7.17679 0
      vertex 5.4181 6.54936 0
    endloop
  endfacet
  facet normal 0.770515 -0.637421 5.73872e-18
    outer loop
      vertex -6.87664 4.99617 5
      vertex -6.19623 5.81865 0
      vertex -6.19623 5.81865 5
    endloop
  endfacet
  facet normal 0.770515 -0.637421 5.73872e-18
    outer loop
      vertex -6.19623 5.81865 0
      vertex -6.87664 4.99617 5
      vertex -6.87664 4.99617 0
    endloop
  endfacet
  facet normal 0.982289 -0.187374 1.04618e-18
    outer loop
      vertex -8.43297 1.06533 5
      vertex -8.23296 2.11386 0
      vertex -8.23296 2.11386 5
    endloop
  endfacet
  facet normal 0.982289 -0.187374 1.04618e-18
    outer loop
      vertex -8.23296 2.11386 0
      vertex -8.43297 1.06533 5
      vertex -8.43297 1.06533 0
    endloop
  endfacet
  facet normal 0.24869 -0.968583 0
    outer loop
      vertex -2.62664 8.08398 0
      vertex -1.59274 8.34944 5
      vertex -2.62664 8.08398 5
    endloop
  endfacet
  facet normal 0.24869 -0.968583 0
    outer loop
      vertex -1.59274 8.34944 5
      vertex -2.62664 8.08398 0
      vertex -1.59274 8.34944 0
    endloop
  endfacet
  facet normal -0.998026 0.0627953 -8.76047e-20
    outer loop
      vertex 8.43297 -1.06533 0
      vertex 8.5 0 5
      vertex 8.5 0 0
    endloop
  endfacet
  facet normal -0.998026 0.0627953 -8.76047e-20
    outer loop
      vertex 8.5 0 5
      vertex 8.43297 -1.06533 0
      vertex 8.43297 -1.06533 5
    endloop
  endfacet
  facet normal -0.904829 0.425776 -2.23963e-18
    outer loop
      vertex 7.44861 -4.09491 0
      vertex 7.9031 -3.12906 5
      vertex 7.9031 -3.12906 0
    endloop
  endfacet
  facet normal -0.904829 0.425776 -2.23963e-18
    outer loop
      vertex 7.9031 -3.12906 5
      vertex 7.44861 -4.09491 0
      vertex 7.44861 -4.09491 5
    endloop
  endfacet
  facet normal 0.904829 0.425776 2.23963e-18
    outer loop
      vertex -7.44861 -4.09491 5
      vertex -7.9031 -3.12906 0
      vertex -7.9031 -3.12906 5
    endloop
  endfacet
  facet normal 0.904829 0.425776 2.23963e-18
    outer loop
      vertex -7.9031 -3.12906 0
      vertex -7.44861 -4.09491 5
      vertex -7.44861 -4.09491 0
    endloop
  endfacet
  facet normal 0.998026 0.0627953 8.76047e-20
    outer loop
      vertex -8.43297 -1.06533 5
      vertex -8.5 0 0
      vertex -8.5 0 5
    endloop
  endfacet
  facet normal 0.998026 0.0627953 8.76047e-20
    outer loop
      vertex -8.5 0 0
      vertex -8.43297 -1.06533 5
      vertex -8.43297 -1.06533 0
    endloop
  endfacet
  facet normal -0.368124 0.929777 0
    outer loop
      vertex 3.61912 -7.69103 0
      vertex 2.62664 -8.08398 5
      vertex 3.61912 -7.69103 5
    endloop
  endfacet
  facet normal -0.368124 0.929777 0
    outer loop
      vertex 2.62664 -8.08398 5
      vertex 3.61912 -7.69103 0
      vertex 2.62664 -8.08398 0
    endloop
  endfacet
  facet normal 0.951056 -0.309018 -7.66852e-19
    outer loop
      vertex -8.23296 2.11386 5
      vertex -7.9031 3.12906 0
      vertex -7.9031 3.12906 5
    endloop
  endfacet
  facet normal 0.951056 -0.309018 -7.66852e-19
    outer loop
      vertex -7.9031 3.12906 0
      vertex -8.23296 2.11386 5
      vertex -8.23296 2.11386 0
    endloop
  endfacet
  facet normal 0.481749 -0.876309 0
    outer loop
      vertex -4.55453 7.17679 0
      vertex -3.61912 7.69103 5
      vertex -4.55453 7.17679 5
    endloop
  endfacet
  facet normal 0.481749 -0.876309 0
    outer loop
      vertex -3.61912 7.69103 5
      vertex -4.55453 7.17679 0
      vertex -3.61912 7.69103 0
    endloop
  endfacet
  facet normal -0.951056 0.309018 -7.66852e-19
    outer loop
      vertex 7.9031 -3.12906 0
      vertex 8.23296 -2.11386 5
      vertex 8.23296 -2.11386 0
    endloop
  endfacet
  facet normal -0.951056 0.309018 -7.66852e-19
    outer loop
      vertex 8.23296 -2.11386 5
      vertex 7.9031 -3.12906 0
      vertex 7.9031 -3.12906 5
    endloop
  endfacet
  facet normal -0.770515 0.637421 5.73872e-18
    outer loop
      vertex 6.19623 -5.81865 0
      vertex 6.87664 -4.99617 5
      vertex 6.87664 -4.99617 0
    endloop
  endfacet
  facet normal -0.770515 0.637421 5.73872e-18
    outer loop
      vertex 6.87664 -4.99617 5
      vertex 6.19623 -5.81865 0
      vertex 6.19623 -5.81865 5
    endloop
  endfacet
  facet normal 0.481749 0.876309 -0
    outer loop
      vertex -3.61912 -7.69103 0
      vertex -4.55453 -7.17679 5
      vertex -3.61912 -7.69103 5
    endloop
  endfacet
  facet normal 0.481749 0.876309 0
    outer loop
      vertex -4.55453 -7.17679 5
      vertex -3.61912 -7.69103 0
      vertex -4.55453 -7.17679 0
    endloop
  endfacet
  facet normal 0.368124 0.929777 -0
    outer loop
      vertex -2.62664 -8.08398 0
      vertex -3.61912 -7.69103 5
      vertex -2.62664 -8.08398 5
    endloop
  endfacet
  facet normal 0.368124 0.929777 0
    outer loop
      vertex -3.61912 -7.69103 5
      vertex -2.62664 -8.08398 0
      vertex -3.61912 -7.69103 0
    endloop
  endfacet
  facet normal 0.684546 0.72897 -0
    outer loop
      vertex -5.4181 -6.54936 0
      vertex -6.19623 -5.81865 5
      vertex -5.4181 -6.54936 5
    endloop
  endfacet
  facet normal 0.684546 0.72897 0
    outer loop
      vertex -6.19623 -5.81865 5
      vertex -5.4181 -6.54936 0
      vertex -6.19623 -5.81865 0
    endloop
  endfacet
  facet normal 0.982289 0.187374 -1.04618e-18
    outer loop
      vertex -8.23296 -2.11386 5
      vertex -8.43297 -1.06533 0
      vertex -8.43297 -1.06533 5
    endloop
  endfacet
  facet normal 0.982289 0.187374 -1.04618e-18
    outer loop
      vertex -8.43297 -1.06533 0
      vertex -8.23296 -2.11386 5
      vertex -8.23296 -2.11386 0
    endloop
  endfacet
  facet normal 0.951056 0.309018 7.66852e-19
    outer loop
      vertex -7.9031 -3.12906 5
      vertex -8.23296 -2.11386 0
      vertex -8.23296 -2.11386 5
    endloop
  endfacet
  facet normal 0.951056 0.309018 7.66852e-19
    outer loop
      vertex -8.23296 -2.11386 0
      vertex -7.9031 -3.12906 5
      vertex -7.9031 -3.12906 0
    endloop
  endfacet
  facet normal -0.684546 0.72897 0
    outer loop
      vertex 6.19623 -5.81865 0
      vertex 5.4181 -6.54936 5
      vertex 6.19623 -5.81865 5
    endloop
  endfacet
  facet normal -0.684546 0.72897 0
    outer loop
      vertex 5.4181 -6.54936 5
      vertex 6.19623 -5.81865 0
      vertex 5.4181 -6.54936 0
    endloop
  endfacet
  facet normal -0.481749 0.876309 0
    outer loop
      vertex 4.55453 -7.17679 0
      vertex 3.61912 -7.69103 5
      vertex 4.55453 -7.17679 5
    endloop
  endfacet
  facet normal -0.481749 0.876309 0
    outer loop
      vertex 3.61912 -7.69103 5
      vertex 4.55453 -7.17679 0
      vertex 3.61912 -7.69103 0
    endloop
  endfacet
  facet normal -0.24869 0.968583 0
    outer loop
      vertex 2.62664 -8.08398 0
      vertex 1.59274 -8.34944 5
      vertex 2.62664 -8.08398 5
    endloop
  endfacet
  facet normal -0.24869 0.968583 0
    outer loop
      vertex 1.59274 -8.34944 5
      vertex 2.62664 -8.08398 0
      vertex 1.59274 -8.34944 0
    endloop
  endfacet
  facet normal -0.982289 0.187374 1.04618e-18
    outer loop
      vertex 8.23296 -2.11386 0
      vertex 8.43297 -1.06533 5
      vertex 8.43297 -1.06533 0
    endloop
  endfacet
  facet normal -0.982289 0.187374 1.04618e-18
    outer loop
      vertex 8.43297 -1.06533 5
      vertex 8.23296 -2.11386 0
      vertex 8.23296 -2.11386 5
    endloop
  endfacet
  facet normal -0.844322 0.535835 -9.9133e-18
    outer loop
      vertex 6.87664 -4.99617 0
      vertex 7.44861 -4.09491 5
      vertex 7.44861 -4.09491 0
    endloop
  endfacet
  facet normal -0.844322 0.535835 -9.9133e-18
    outer loop
      vertex 7.44861 -4.09491 5
      vertex 6.87664 -4.99617 0
      vertex 6.87664 -4.99617 5
    endloop
  endfacet
  facet normal 0.125337 0.992114 -0
    outer loop
      vertex -0.533719 -8.48323 0
      vertex -1.59274 -8.34944 5
      vertex -0.533719 -8.48323 5
    endloop
  endfacet
  facet normal 0.125337 0.992114 0
    outer loop
      vertex -1.59274 -8.34944 5
      vertex -0.533719 -8.48323 0
      vertex -1.59274 -8.34944 0
    endloop
  endfacet
  facet normal 0.587791 0.809013 -0
    outer loop
      vertex -4.55453 -7.17679 0
      vertex -5.4181 -6.54936 5
      vertex -4.55453 -7.17679 5
    endloop
  endfacet
  facet normal 0.587791 0.809013 0
    outer loop
      vertex -5.4181 -6.54936 5
      vertex -4.55453 -7.17679 0
      vertex -5.4181 -6.54936 0
    endloop
  endfacet
  facet normal 0.770515 0.637421 -5.73872e-18
    outer loop
      vertex -6.19623 -5.81865 5
      vertex -6.87664 -4.99617 0
      vertex -6.87664 -4.99617 5
    endloop
  endfacet
  facet normal 0.770515 0.637421 -5.73872e-18
    outer loop
      vertex -6.87664 -4.99617 0
      vertex -6.19623 -5.81865 5
      vertex -6.19623 -5.81865 0
    endloop
  endfacet
  facet normal 0.844322 0.535835 9.9133e-18
    outer loop
      vertex -6.87664 -4.99617 5
      vertex -7.44861 -4.09491 0
      vertex -7.44861 -4.09491 5
    endloop
  endfacet
  facet normal 0.844322 0.535835 9.9133e-18
    outer loop
      vertex -7.44861 -4.09491 0
      vertex -6.87664 -4.99617 5
      vertex -6.87664 -4.99617 0
    endloop
  endfacet
  facet normal -0.587791 0.809013 0
    outer loop
      vertex 5.4181 -6.54936 0
      vertex 4.55453 -7.17679 5
      vertex 5.4181 -6.54936 5
    endloop
  endfacet
  facet normal -0.587791 0.809013 0
    outer loop
      vertex 4.55453 -7.17679 5
      vertex 5.4181 -6.54936 0
      vertex 4.55453 -7.17679 0
    endloop
  endfacet
  facet normal 0.24869 0.968583 -0
    outer loop
      vertex -1.59274 -8.34944 0
      vertex -2.62664 -8.08398 5
      vertex -1.59274 -8.34944 5
    endloop
  endfacet
  facet normal 0.24869 0.968583 0
    outer loop
      vertex -2.62664 -8.08398 5
      vertex -1.59274 -8.34944 0
      vertex -2.62664 -8.08398 0
    endloop
  endfacet
endsolid OpenSCAD_Model
