<?xml version="1.0" standalone="no"?>
<!DOCTYPE svg PUBLIC "-//W3C//DTD SVG 1.1//EN" "http://www.w3.org/Graphics/SVG/1.1/DTD/svg11.dtd">
<svg width="30mm" height="808mm" viewBox="-15 -1526 30 808" xmlns="http://www.w3.org/2000/svg" version="1.1">
<title>OpenSCAD Model</title>
<path d="
M 10.9369,-1330.59 L 11.5451,-1330.74 L 12.1289,-1330.98 L 12.6791,-1331.28 L 13.1871,-1331.65 L 13.6448,-1332.08
 L 14.0451,-1332.56 L 14.3815,-1333.09 L 14.6489,-1333.66 L 14.8429,-1334.26 L 14.9606,-1334.87 L 15,-1335.5
 L 15,-1520.5 L 14.9606,-1521.13 L 14.8429,-1521.74 L 14.6489,-1522.34 L 14.3815,-1522.91 L 14.0451,-1523.44
 L 13.6448,-1523.92 L 13.1871,-1524.35 L 12.6791,-1524.72 L 12.1289,-1525.02 L 11.5451,-1525.26 L 10.9369,-1525.41
 L 10.3139,-1525.49 L -10.3139,-1525.49 L -10.9369,-1525.41 L -11.5451,-1525.26 L -12.1289,-1525.02 L -12.6791,-1524.72
 L -13.1871,-1524.35 L -13.4,-1524.15 L -15,-1524.15 L -15,-1331.85 L -13.4,-1331.85 L -13.1871,-1331.65
 L -12.6791,-1331.28 L -12.1289,-1330.98 L -11.5451,-1330.74 L -10.9369,-1330.59 L -10.3139,-1330.51 L 10.3139,-1330.51
 z
M -9.75116,-1332.01 L -10.2495,-1332.07 L -10.7361,-1332.2 L -11.2031,-1332.38 L -11.6433,-1332.62 L -12.0497,-1332.92
 L -12.4159,-1333.26 L -12.7361,-1333.65 L -13.0052,-1334.07 L -13.2191,-1334.53 L -13.3743,-1335.01 L -13.4684,-1335.5
 L -13.5,-1336 L -13.5,-1520 L -13.4684,-1520.5 L -13.3743,-1520.99 L -13.2191,-1521.47 L -13.0052,-1521.93
 L -12.7361,-1522.35 L -12.4159,-1522.74 L -12.0497,-1523.08 L -11.6433,-1523.38 L -11.2031,-1523.62 L -10.7361,-1523.8
 L -10.2495,-1523.93 L -9.75116,-1523.99 L 9.75116,-1523.99 L 10.2495,-1523.93 L 10.7361,-1523.8 L 11.2031,-1523.62
 L 11.6433,-1523.38 L 12.0497,-1523.08 L 12.4159,-1522.74 L 12.7361,-1522.35 L 13.0052,-1521.93 L 13.2191,-1521.47
 L 13.3743,-1520.99 L 13.4684,-1520.5 L 13.5,-1520 L 13.5,-1336 L 13.4684,-1335.5 L 13.3743,-1335.01
 L 13.2191,-1334.53 L 13.0052,-1334.07 L 12.7361,-1333.65 L 12.4159,-1333.26 L 12.0497,-1332.92 L 11.6433,-1332.62
 L 11.2031,-1332.38 L 10.7361,-1332.2 L 10.2495,-1332.07 L 9.75116,-1332.01 z
M 10.9369,-1126.59 L 11.5451,-1126.74 L 12.1289,-1126.98 L 12.6791,-1127.28 L 13.1871,-1127.65 L 13.6448,-1128.08
 L 14.0451,-1128.56 L 14.3815,-1129.09 L 14.6489,-1129.66 L 14.8429,-1130.26 L 14.9606,-1130.87 L 15,-1131.5
 L 15,-1316.5 L 14.9606,-1317.13 L 14.8429,-1317.74 L 14.6489,-1318.34 L 14.3815,-1318.91 L 14.0451,-1319.44
 L 13.6448,-1319.92 L 13.1871,-1320.35 L 12.6791,-1320.72 L 12.1289,-1321.02 L 11.5451,-1321.26 L 10.9369,-1321.41
 L 10.3139,-1321.49 L -10.3139,-1321.49 L -10.9369,-1321.41 L -11.5451,-1321.26 L -12.1289,-1321.02 L -12.6791,-1320.72
 L -13.1871,-1320.35 L -13.6448,-1319.92 L -14.0451,-1319.44 L -14.3815,-1318.91 L -14.6489,-1318.34 L -14.8429,-1317.74
 L -14.9606,-1317.13 L -15,-1316.5 L -15,-1131.5 L -14.9606,-1130.87 L -14.8429,-1130.26 L -14.6489,-1129.66
 L -14.3815,-1129.09 L -14.0451,-1128.56 L -13.6448,-1128.08 L -13.1871,-1127.65 L -12.6791,-1127.28 L -12.1289,-1126.98
 L -11.5451,-1126.74 L -10.9369,-1126.59 L -10.3139,-1126.51 L 10.3139,-1126.51 z
M -9.75116,-1128.01 L -10.2495,-1128.07 L -10.7361,-1128.2 L -11.2031,-1128.38 L -11.6433,-1128.62 L -12.0497,-1128.92
 L -12.4159,-1129.26 L -12.7361,-1129.65 L -13.0052,-1130.07 L -13.2191,-1130.53 L -13.3743,-1131.01 L -13.4684,-1131.5
 L -13.5,-1132 L -13.5,-1316 L -13.4684,-1316.5 L -13.3743,-1316.99 L -13.2191,-1317.47 L -13.0052,-1317.93
 L -12.7361,-1318.35 L -12.4159,-1318.74 L -12.0497,-1319.08 L -11.6433,-1319.38 L -11.2031,-1319.62 L -10.7361,-1319.8
 L -10.2495,-1319.93 L -9.75116,-1319.99 L 9.75116,-1319.99 L 10.2495,-1319.93 L 10.7361,-1319.8 L 11.2031,-1319.62
 L 11.6433,-1319.38 L 12.0497,-1319.08 L 12.4159,-1318.74 L 12.7361,-1318.35 L 13.0052,-1317.93 L 13.2191,-1317.47
 L 13.3743,-1316.99 L 13.4684,-1316.5 L 13.5,-1316 L 13.5,-1132 L 13.4684,-1131.5 L 13.3743,-1131.01
 L 13.2191,-1130.53 L 13.0052,-1130.07 L 12.7361,-1129.65 L 12.4159,-1129.26 L 12.0497,-1128.92 L 11.6433,-1128.62
 L 11.2031,-1128.38 L 10.7361,-1128.2 L 10.2495,-1128.07 L 9.75116,-1128.01 z
M 10.9369,-922.589 L 11.5451,-922.745 L 12.1289,-922.976 L 12.6791,-923.278 L 13.1871,-923.647 L 13.6448,-924.077
 L 14.0451,-924.561 L 14.3815,-925.091 L 14.6489,-925.659 L 14.8429,-926.257 L 14.9606,-926.873 L 15,-927.5
 L 15,-1112.5 L 14.9606,-1113.13 L 14.8429,-1113.74 L 14.6489,-1114.34 L 14.3815,-1114.91 L 14.0451,-1115.44
 L 13.6448,-1115.92 L 13.1871,-1116.35 L 12.6791,-1116.72 L 12.1289,-1117.02 L 11.5451,-1117.26 L 10.9369,-1117.41
 L 10.3139,-1117.49 L -10.3139,-1117.49 L -10.9369,-1117.41 L -11.5451,-1117.26 L -12.1289,-1117.02 L -12.6791,-1116.72
 L -13.1871,-1116.35 L -13.6448,-1115.92 L -14.0451,-1115.44 L -14.3815,-1114.91 L -14.6489,-1114.34 L -14.8429,-1113.74
 L -14.9606,-1113.13 L -15,-1112.5 L -15,-927.5 L -14.9606,-926.873 L -14.8429,-926.257 L -14.6489,-925.659
 L -14.3815,-925.091 L -14.0451,-924.561 L -13.6448,-924.077 L -13.1871,-923.647 L -12.6791,-923.278 L -12.1289,-922.976
 L -11.5451,-922.745 L -10.9369,-922.589 L -10.3139,-922.51 L 10.3139,-922.51 z
M -9.69545,-924.893 L -10.0833,-924.942 L -10.4619,-925.039 L -10.8254,-925.183 L -11.168,-925.372 L -11.4842,-925.601
 L -11.7692,-925.869 L -12.0184,-926.17 L -12.2279,-926.5 L -12.3943,-926.854 L -12.5151,-927.226 L -12.5884,-927.61
 L -12.6129,-928 L -12.6129,-1112 L -12.5884,-1112.39 L -12.5151,-1112.77 L -12.3943,-1113.15 L -12.2279,-1113.5
 L -12.0184,-1113.83 L -11.7692,-1114.13 L -11.4842,-1114.4 L -11.168,-1114.63 L -10.8254,-1114.82 L -10.4619,-1114.96
 L -10.0833,-1115.06 L -9.69545,-1115.11 L 9.69545,-1115.11 L 10.0833,-1115.06 L 10.4619,-1114.96 L 10.8254,-1114.82
 L 11.168,-1114.63 L 11.4842,-1114.4 L 11.7692,-1114.13 L 12.0184,-1113.83 L 12.2279,-1113.5 L 12.3943,-1113.15
 L 12.5151,-1112.77 L 12.5884,-1112.39 L 12.6129,-1112 L 12.6129,-928 L 12.5884,-927.61 L 12.5151,-927.226
 L 12.3943,-926.854 L 12.2279,-926.5 L 12.0184,-926.17 L 11.7692,-925.869 L 11.4842,-925.601 L 11.168,-925.372
 L 10.8254,-925.183 L 10.4619,-925.039 L 10.0833,-924.942 L 9.69545,-924.893 z
M 10.9369,-718.589 L 11.5451,-718.745 L 12.1289,-718.976 L 12.6791,-719.278 L 13.1871,-719.647 L 13.6448,-720.077
 L 14.0451,-720.561 L 14.3815,-721.091 L 14.6489,-721.659 L 14.8429,-722.257 L 14.9606,-722.873 L 15,-723.5
 L 15,-908.5 L 14.9606,-909.127 L 14.8429,-909.743 L 14.6489,-910.341 L 14.3815,-910.909 L 14.0451,-911.439
 L 13.6448,-911.923 L 13.1871,-912.353 L 12.6791,-912.722 L 12.1289,-913.024 L 11.5451,-913.255 L 10.9369,-913.411
 L 10.3139,-913.49 L -10.3139,-913.49 L -10.9369,-913.411 L -11.5451,-913.255 L -12.1289,-913.024 L -12.6791,-912.722
 L -13.1871,-912.353 L -13.6448,-911.923 L -14.0451,-911.439 L -14.3815,-910.909 L -14.6489,-910.341 L -14.8429,-909.743
 L -14.9606,-909.127 L -15,-908.5 L -15,-723.5 L -14.9606,-722.873 L -14.8429,-722.257 L -14.6489,-721.659
 L -14.3815,-721.091 L -14.0451,-720.561 L -13.6448,-720.077 L -13.1871,-719.647 L -12.6791,-719.278 L -12.1289,-718.976
 L -11.5451,-718.745 L -10.9369,-718.589 L -10.3139,-718.51 L 10.3139,-718.51 z
M 7.36592,-903.869 L 7.09988,-903.903 L 6.84015,-903.969 L 6.59084,-904.068 L 6.35585,-904.197 L 6.1389,-904.355
 L 5.94344,-904.538 L 5.77251,-904.745 L 5.62881,-904.971 L 5.51465,-905.214 L 5.43178,-905.469 L 5.38153,-905.732
 L 5.3647,-906 L 5.38153,-906.268 L 5.43178,-906.531 L 5.51465,-906.786 L 5.62881,-907.029 L 5.77251,-907.255
 L 5.94344,-907.462 L 6.1389,-907.645 L 6.35585,-907.803 L 6.59084,-907.932 L 6.84015,-908.031 L 7.09988,-908.097
 L 7.36592,-908.131 L 7.63406,-908.131 L 7.9001,-908.097 L 8.15984,-908.031 L 8.40915,-907.932 L 8.64413,-907.803
 L 8.86108,-907.645 L 9.05655,-907.462 L 9.22748,-907.255 L 9.37117,-907.029 L 9.48534,-906.786 L 9.56821,-906.531
 L 9.61845,-906.268 L 9.63528,-906 L 9.61845,-905.732 L 9.56821,-905.469 L 9.48534,-905.214 L 9.37117,-904.971
 L 9.22748,-904.745 L 9.05655,-904.538 L 8.86108,-904.355 L 8.64413,-904.197 L 8.40915,-904.068 L 8.15984,-903.969
 L 7.9001,-903.903 L 7.63406,-903.869 z
M -7.63406,-903.869 L -7.9001,-903.903 L -8.15984,-903.969 L -8.40915,-904.068 L -8.64413,-904.197 L -8.86108,-904.355
 L -9.05655,-904.538 L -9.22748,-904.745 L -9.37117,-904.971 L -9.48534,-905.214 L -9.56821,-905.469 L -9.61845,-905.732
 L -9.63528,-906 L -9.61845,-906.268 L -9.56821,-906.531 L -9.48534,-906.786 L -9.37117,-907.029 L -9.22748,-907.255
 L -9.05655,-907.462 L -8.86108,-907.645 L -8.64413,-907.803 L -8.40915,-907.932 L -8.15984,-908.031 L -7.9001,-908.097
 L -7.63406,-908.131 L -7.36592,-908.131 L -7.09988,-908.097 L -6.84015,-908.031 L -6.59084,-907.932 L -6.35585,-907.803
 L -6.1389,-907.645 L -5.94344,-907.462 L -5.77251,-907.255 L -5.62881,-907.029 L -5.51465,-906.786 L -5.43178,-906.531
 L -5.38153,-906.268 L -5.3647,-906 L -5.38153,-905.732 L -5.43178,-905.469 L -5.51465,-905.214 L -5.62881,-904.971
 L -5.77251,-904.745 L -5.94344,-904.538 L -6.1389,-904.355 L -6.35585,-904.197 L -6.59084,-904.068 L -6.84015,-903.969
 L -7.09988,-903.903 L -7.36592,-903.869 z
M 7.36592,-723.869 L 7.09988,-723.903 L 6.84015,-723.969 L 6.59084,-724.068 L 6.35585,-724.197 L 6.1389,-724.355
 L 5.94344,-724.538 L 5.77251,-724.745 L 5.62881,-724.971 L 5.51465,-725.214 L 5.43178,-725.469 L 5.38153,-725.732
 L 5.3647,-726 L 5.38153,-726.268 L 5.43178,-726.531 L 5.51465,-726.786 L 5.62881,-727.029 L 5.77251,-727.255
 L 5.94344,-727.462 L 6.1389,-727.645 L 6.35585,-727.803 L 6.59084,-727.932 L 6.84015,-728.031 L 7.09988,-728.097
 L 7.36592,-728.131 L 7.63406,-728.131 L 7.9001,-728.097 L 8.15984,-728.031 L 8.40915,-727.932 L 8.64413,-727.803
 L 8.86108,-727.645 L 9.05655,-727.462 L 9.22748,-727.255 L 9.37117,-727.029 L 9.48534,-726.786 L 9.56821,-726.531
 L 9.61845,-726.268 L 9.63528,-726 L 9.61845,-725.732 L 9.56821,-725.469 L 9.48534,-725.214 L 9.37117,-724.971
 L 9.22748,-724.745 L 9.05655,-724.538 L 8.86108,-724.355 L 8.64413,-724.197 L 8.40915,-724.068 L 8.15984,-723.969
 L 7.9001,-723.903 L 7.63406,-723.869 z
M -7.63406,-723.869 L -7.9001,-723.903 L -8.15984,-723.969 L -8.40915,-724.068 L -8.64413,-724.197 L -8.86108,-724.355
 L -9.05655,-724.538 L -9.22748,-724.745 L -9.37117,-724.971 L -9.48534,-725.214 L -9.56821,-725.469 L -9.61845,-725.732
 L -9.63528,-726 L -9.61845,-726.268 L -9.56821,-726.531 L -9.48534,-726.786 L -9.37117,-727.029 L -9.22748,-727.255
 L -9.05655,-727.462 L -8.86108,-727.645 L -8.64413,-727.803 L -8.40915,-727.932 L -8.15984,-728.031 L -7.9001,-728.097
 L -7.63406,-728.131 L -7.36592,-728.131 L -7.09988,-728.097 L -6.84015,-728.031 L -6.59084,-727.932 L -6.35585,-727.803
 L -6.1389,-727.645 L -5.94344,-727.462 L -5.77251,-727.255 L -5.62881,-727.029 L -5.51465,-726.786 L -5.43178,-726.531
 L -5.38153,-726.268 L -5.3647,-726 L -5.38153,-725.732 L -5.43178,-725.469 L -5.51465,-725.214 L -5.62881,-724.971
 L -5.77251,-724.745 L -5.94344,-724.538 L -6.1389,-724.355 L -6.35585,-724.197 L -6.59084,-724.068 L -6.84015,-723.969
 L -7.09988,-723.903 L -7.36592,-723.869 z
" stroke="black" fill="lightgray" stroke-width="0.5"/>
</svg>
