<?xml version="1.0" standalone="no"?>
<!DOCTYPE svg PUBLIC "-//W3C//DTD SVG 1.1//EN" "http://www.w3.org/Graphics/SVG/1.1/DTD/svg11.dtd">
<svg width="136mm" height="808mm" viewBox="-68 -1322 136 808" xmlns="http://www.w3.org/2000/svg" version="1.1">
<title>OpenSCAD Model</title>
<path d="
M 63.4369,-1126.59 L 64.0451,-1126.74 L 64.6289,-1126.98 L 65.1791,-1127.28 L 65.6871,-1127.65 L 66.1448,-1128.08
 L 66.5451,-1128.56 L 66.8815,-1129.09 L 67.1489,-1129.66 L 67.3429,-1130.26 L 67.4606,-1130.87 L 67.5,-1131.5
 L 67.5,-1316.5 L 67.4606,-1317.13 L 67.3429,-1317.74 L 67.1489,-1318.34 L 66.8815,-1318.91 L 66.5451,-1319.44
 L 66.1448,-1319.92 L 65.6871,-1320.35 L 65.1791,-1320.72 L 64.6289,-1321.02 L 64.0451,-1321.26 L 63.4369,-1321.41
 L 62.8139,-1321.49 L -62.8139,-1321.49 L -63.4369,-1321.41 L -64.0451,-1321.26 L -64.5,-1321.08 L -64.5,-1321.11
 L -67.5,-1321.11 L -67.5,-1126.89 L -64.5,-1126.89 L -64.5,-1126.92 L -64.0451,-1126.74 L -63.4369,-1126.59
 L -62.8139,-1126.51 L 62.8139,-1126.51 z
M -62.2512,-1128.01 L -62.7495,-1128.07 L -63.2361,-1128.2 L -63.7031,-1128.38 L -64.1433,-1128.62 L -64.5497,-1128.92
 L -64.9159,-1129.26 L -65.2361,-1129.65 L -65.5052,-1130.07 L -65.7191,-1130.53 L -65.8743,-1131.01 L -65.9685,-1131.5
 L -66,-1132 L -66,-1316 L -65.9685,-1316.5 L -65.8743,-1316.99 L -65.7191,-1317.47 L -65.5052,-1317.93
 L -65.2361,-1318.35 L -64.9159,-1318.74 L -64.5497,-1319.08 L -64.1433,-1319.38 L -63.7031,-1319.62 L -63.2361,-1319.8
 L -62.7495,-1319.93 L -62.2512,-1319.99 L 62.2512,-1319.99 L 62.7495,-1319.93 L 63.2361,-1319.8 L 63.7031,-1319.62
 L 64.1433,-1319.38 L 64.5497,-1319.08 L 64.9159,-1318.74 L 65.2361,-1318.35 L 65.5052,-1317.93 L 65.7191,-1317.47
 L 65.8743,-1316.99 L 65.9685,-1316.5 L 66,-1316 L 66,-1132 L 65.9685,-1131.5 L 65.8743,-1131.01
 L 65.7191,-1130.53 L 65.5052,-1130.07 L 65.2361,-1129.65 L 64.9159,-1129.26 L 64.5497,-1128.92 L 64.1433,-1128.62
 L 63.7031,-1128.38 L 63.2361,-1128.2 L 62.7495,-1128.07 L 62.2512,-1128.01 z
M 63.4369,-922.589 L 64.0451,-922.745 L 64.6289,-922.976 L 65.1791,-923.278 L 65.6871,-923.647 L 66.1448,-924.077
 L 66.5451,-924.561 L 66.8815,-925.091 L 67.1489,-925.659 L 67.3429,-926.257 L 67.4606,-926.873 L 67.5,-927.5
 L 67.5,-1112.5 L 67.4606,-1113.13 L 67.3429,-1113.74 L 67.1489,-1114.34 L 66.8815,-1114.91 L 66.5451,-1115.44
 L 66.1448,-1115.92 L 65.6871,-1116.35 L 65.1791,-1116.72 L 64.6289,-1117.02 L 64.0451,-1117.26 L 63.4369,-1117.41
 L 62.8139,-1117.49 L -62.8139,-1117.49 L -63.4369,-1117.41 L -64.0451,-1117.26 L -64.6289,-1117.02 L -65.1791,-1116.72
 L -65.6871,-1116.35 L -66.1448,-1115.92 L -66.5451,-1115.44 L -66.8815,-1114.91 L -67.1489,-1114.34 L -67.3429,-1113.74
 L -67.4,-1113.44 L -67.5,-1113.44 L -67.5,-926.556 L -67.4,-926.556 L -67.3429,-926.257 L -67.1489,-925.659
 L -66.8815,-925.091 L -66.5451,-924.561 L -66.1448,-924.077 L -65.6871,-923.647 L -65.1791,-923.278 L -64.6289,-922.976
 L -64.0451,-922.745 L -63.4369,-922.589 L -62.8139,-922.51 L 62.8139,-922.51 z
M -62.2432,-924.135 L -62.7256,-924.196 L -63.1967,-924.317 L -63.6489,-924.496 L -64.0751,-924.73 L -64.4685,-925.016
 L -64.823,-925.349 L -65.133,-925.724 L -65.3936,-926.134 L -65.6007,-926.574 L -65.751,-927.037 L -65.8421,-927.515
 L -65.8726,-928 L -65.8726,-1112 L -65.8421,-1112.49 L -65.751,-1112.96 L -65.6007,-1113.43 L -65.3936,-1113.87
 L -65.133,-1114.28 L -64.823,-1114.65 L -64.4685,-1114.98 L -64.0751,-1115.27 L -63.6489,-1115.5 L -63.1967,-1115.68
 L -62.7256,-1115.8 L -62.2432,-1115.86 L 62.2432,-1115.86 L 62.7256,-1115.8 L 63.1967,-1115.68 L 63.6489,-1115.5
 L 64.0751,-1115.27 L 64.4685,-1114.98 L 64.823,-1114.65 L 65.133,-1114.28 L 65.3936,-1113.87 L 65.6007,-1113.43
 L 65.751,-1112.96 L 65.8421,-1112.49 L 65.8726,-1112 L 65.8726,-928 L 65.8421,-927.515 L 65.751,-927.037
 L 65.6007,-926.574 L 65.3936,-926.134 L 65.133,-925.724 L 64.823,-925.349 L 64.4685,-925.016 L 64.0751,-924.73
 L 63.6489,-924.496 L 63.1967,-924.317 L 62.7256,-924.196 L 62.2432,-924.135 z
M 63.4369,-718.589 L 64.0451,-718.745 L 64.6289,-718.976 L 65.1791,-719.278 L 65.6871,-719.647 L 66.1448,-720.077
 L 66.5451,-720.561 L 66.8815,-721.091 L 67.1489,-721.659 L 67.3429,-722.257 L 67.4606,-722.873 L 67.5,-723.5
 L 67.5,-908.5 L 67.4606,-909.127 L 67.3429,-909.743 L 67.1489,-910.341 L 66.8815,-910.909 L 66.5451,-911.439
 L 66.1448,-911.923 L 65.6871,-912.353 L 65.1791,-912.722 L 64.6289,-913.024 L 64.0451,-913.255 L 63.4369,-913.411
 L 62.8139,-913.49 L -62.8139,-913.49 L -63.4369,-913.411 L -64.0451,-913.255 L -64.6289,-913.024 L -65.1791,-912.722
 L -65.6871,-912.353 L -66.1448,-911.923 L -66.5451,-911.439 L -66.8815,-910.909 L -67.1489,-910.341 L -67.3429,-909.743
 L -67.4606,-909.127 L -67.5,-908.5 L -67.5,-723.5 L -67.4606,-722.873 L -67.3429,-722.257 L -67.1489,-721.659
 L -66.8815,-721.091 L -66.5451,-720.561 L -66.1448,-720.077 L -65.6871,-719.647 L -65.1791,-719.278 L -64.6289,-718.976
 L -64.0451,-718.745 L -63.4369,-718.589 L -62.8139,-718.51 L 62.8139,-718.51 z
M 59.8493,-903.605 L 59.5503,-903.643 L 59.2584,-903.717 L 58.9781,-903.828 L 58.714,-903.974 L 58.4702,-904.151
 L 58.2505,-904.357 L 58.0583,-904.589 L 57.8969,-904.844 L 57.7685,-905.117 L 57.6754,-905.403 L 57.6189,-905.699
 L 57.6,-906 L 57.6189,-906.301 L 57.6754,-906.597 L 57.7685,-906.883 L 57.8969,-907.156 L 58.0583,-907.411
 L 58.2505,-907.643 L 58.4702,-907.849 L 58.714,-908.026 L 58.9781,-908.172 L 59.2584,-908.283 L 59.5503,-908.357
 L 59.8493,-908.395 L 60.1507,-908.395 L 60.4497,-908.357 L 60.7416,-908.283 L 61.0219,-908.172 L 61.286,-908.026
 L 61.5298,-907.849 L 61.7495,-907.643 L 61.9416,-907.411 L 62.1031,-907.156 L 62.2315,-906.883 L 62.3246,-906.597
 L 62.3811,-906.301 L 62.4,-906 L 62.3811,-905.699 L 62.3246,-905.403 L 62.2315,-905.117 L 62.1031,-904.844
 L 61.9416,-904.589 L 61.7495,-904.357 L 61.5298,-904.151 L 61.286,-903.974 L 61.0219,-903.828 L 60.7416,-903.717
 L 60.4497,-903.643 L 60.1507,-903.605 z
M -60.1507,-903.605 L -60.4497,-903.643 L -60.7416,-903.717 L -61.0219,-903.828 L -61.286,-903.974 L -61.5298,-904.151
 L -61.7495,-904.357 L -61.9416,-904.589 L -62.1031,-904.844 L -62.2315,-905.117 L -62.3246,-905.403 L -62.3811,-905.699
 L -62.4,-906 L -62.3811,-906.301 L -62.3246,-906.597 L -62.2315,-906.883 L -62.1031,-907.156 L -61.9416,-907.411
 L -61.7495,-907.643 L -61.5298,-907.849 L -61.286,-908.026 L -61.0219,-908.172 L -60.7416,-908.283 L -60.4497,-908.357
 L -60.1507,-908.395 L -59.8493,-908.395 L -59.5503,-908.357 L -59.2584,-908.283 L -58.9781,-908.172 L -58.714,-908.026
 L -58.4702,-907.849 L -58.2505,-907.643 L -58.0583,-907.411 L -57.8969,-907.156 L -57.7685,-906.883 L -57.6754,-906.597
 L -57.6189,-906.301 L -57.6,-906 L -57.6189,-905.699 L -57.6754,-905.403 L -57.7685,-905.117 L -57.8969,-904.844
 L -58.0583,-904.589 L -58.2505,-904.357 L -58.4702,-904.151 L -58.714,-903.974 L -58.9781,-903.828 L -59.2584,-903.717
 L -59.5503,-903.643 L -59.8493,-903.605 z
M 59.8493,-723.605 L 59.5503,-723.643 L 59.2584,-723.717 L 58.9781,-723.828 L 58.714,-723.974 L 58.4702,-724.151
 L 58.2505,-724.357 L 58.0583,-724.589 L 57.8969,-724.844 L 57.7685,-725.117 L 57.6754,-725.403 L 57.6189,-725.699
 L 57.6,-726 L 57.6189,-726.301 L 57.6754,-726.597 L 57.7685,-726.883 L 57.8969,-727.156 L 58.0583,-727.411
 L 58.2505,-727.643 L 58.4702,-727.849 L 58.714,-728.026 L 58.9781,-728.172 L 59.2584,-728.283 L 59.5503,-728.357
 L 59.8493,-728.395 L 60.1507,-728.395 L 60.4497,-728.357 L 60.7416,-728.283 L 61.0219,-728.172 L 61.286,-728.026
 L 61.5298,-727.849 L 61.7495,-727.643 L 61.9416,-727.411 L 62.1031,-727.156 L 62.2315,-726.883 L 62.3246,-726.597
 L 62.3811,-726.301 L 62.4,-726 L 62.3811,-725.699 L 62.3246,-725.403 L 62.2315,-725.117 L 62.1031,-724.844
 L 61.9416,-724.589 L 61.7495,-724.357 L 61.5298,-724.151 L 61.286,-723.974 L 61.0219,-723.828 L 60.7416,-723.717
 L 60.4497,-723.643 L 60.1507,-723.605 z
M -60.1507,-723.605 L -60.4497,-723.643 L -60.7416,-723.717 L -61.0219,-723.828 L -61.286,-723.974 L -61.5298,-724.151
 L -61.7495,-724.357 L -61.9416,-724.589 L -62.1031,-724.844 L -62.2315,-725.117 L -62.3246,-725.403 L -62.3811,-725.699
 L -62.4,-726 L -62.3811,-726.301 L -62.3246,-726.597 L -62.2315,-726.883 L -62.1031,-727.156 L -61.9416,-727.411
 L -61.7495,-727.643 L -61.5298,-727.849 L -61.286,-728.026 L -61.0219,-728.172 L -60.7416,-728.283 L -60.4497,-728.357
 L -60.1507,-728.395 L -59.8493,-728.395 L -59.5503,-728.357 L -59.2584,-728.283 L -58.9781,-728.172 L -58.714,-728.026
 L -58.4702,-727.849 L -58.2505,-727.643 L -58.0583,-727.411 L -57.8969,-727.156 L -57.7685,-726.883 L -57.6754,-726.597
 L -57.6189,-726.301 L -57.6,-726 L -57.6189,-725.699 L -57.6754,-725.403 L -57.7685,-725.117 L -57.8969,-724.844
 L -58.0583,-724.589 L -58.2505,-724.357 L -58.4702,-724.151 L -58.714,-723.974 L -58.9781,-723.828 L -59.2584,-723.717
 L -59.5503,-723.643 L -59.8493,-723.605 z
M 63.4369,-514.589 L 64.0451,-514.745 L 64.6289,-514.976 L 65.1791,-515.278 L 65.6871,-515.647 L 66.1448,-516.077
 L 66.5451,-516.561 L 66.8815,-517.091 L 67.1489,-517.659 L 67.3429,-518.257 L 67.4606,-518.873 L 67.5,-519.5
 L 67.5,-704.5 L 67.4606,-705.127 L 67.3429,-705.743 L 67.1489,-706.341 L 66.8815,-706.909 L 66.5451,-707.439
 L 66.1448,-707.923 L 65.6871,-708.353 L 65.1791,-708.722 L 64.6289,-709.024 L 64.0451,-709.255 L 63.4369,-709.411
 L 62.8139,-709.49 L -62.8139,-709.49 L -63.4369,-709.411 L -64.0451,-709.255 L -64.6289,-709.024 L -65.1791,-708.722
 L -65.6871,-708.353 L -66.1448,-707.923 L -66.5451,-707.439 L -66.8815,-706.909 L -67.1489,-706.341 L -67.3429,-705.743
 L -67.4606,-705.127 L -67.5,-704.5 L -67.5,-519.5 L -67.4606,-518.873 L -67.3429,-518.257 L -67.1489,-517.659
 L -66.8815,-517.091 L -66.5451,-516.561 L -66.1448,-516.077 L -65.6871,-515.647 L -65.1791,-515.278 L -64.6289,-514.976
 L -64.0451,-514.745 L -63.4369,-514.589 L -62.8139,-514.51 L 62.8139,-514.51 z
M 59.887,-700.204 L 59.6627,-700.232 L 59.4438,-700.288 L 59.2336,-700.371 L 59.0355,-700.48 L 58.8526,-700.613
 L 58.6879,-700.768 L 58.5438,-700.942 L 58.4226,-701.133 L 58.3264,-701.337 L 58.2565,-701.552 L 58.2142,-701.774
 L 58.2,-702 L 58.2142,-702.226 L 58.2565,-702.448 L 58.3264,-702.663 L 58.4226,-702.867 L 58.5438,-703.058
 L 58.6879,-703.232 L 58.8526,-703.387 L 59.0355,-703.52 L 59.2336,-703.629 L 59.4438,-703.712 L 59.6627,-703.768
 L 59.887,-703.796 L 60.113,-703.796 L 60.3373,-703.768 L 60.5562,-703.712 L 60.7664,-703.629 L 60.9645,-703.52
 L 61.1474,-703.387 L 61.3121,-703.232 L 61.4562,-703.058 L 61.5773,-702.867 L 61.6736,-702.663 L 61.7434,-702.448
 L 61.7858,-702.226 L 61.8,-702 L 61.7858,-701.774 L 61.7434,-701.552 L 61.6736,-701.337 L 61.5773,-701.133
 L 61.4562,-700.942 L 61.3121,-700.768 L 61.1474,-700.613 L 60.9645,-700.48 L 60.7664,-700.371 L 60.5562,-700.288
 L 60.3373,-700.232 L 60.113,-700.204 z
M -60.113,-700.204 L -60.3373,-700.232 L -60.5562,-700.288 L -60.7664,-700.371 L -60.9645,-700.48 L -61.1474,-700.613
 L -61.3121,-700.768 L -61.4562,-700.942 L -61.5773,-701.133 L -61.6736,-701.337 L -61.7434,-701.552 L -61.7858,-701.774
 L -61.8,-702 L -61.7858,-702.226 L -61.7434,-702.448 L -61.6736,-702.663 L -61.5773,-702.867 L -61.4562,-703.058
 L -61.3121,-703.232 L -61.1474,-703.387 L -60.9645,-703.52 L -60.7664,-703.629 L -60.5562,-703.712 L -60.3373,-703.768
 L -60.113,-703.796 L -59.887,-703.796 L -59.6627,-703.768 L -59.4438,-703.712 L -59.2336,-703.629 L -59.0355,-703.52
 L -58.8526,-703.387 L -58.6879,-703.232 L -58.5438,-703.058 L -58.4226,-702.867 L -58.3264,-702.663 L -58.2565,-702.448
 L -58.2142,-702.226 L -58.2,-702 L -58.2142,-701.774 L -58.2565,-701.552 L -58.3264,-701.337 L -58.4226,-701.133
 L -58.5438,-700.942 L -58.6879,-700.768 L -58.8526,-700.613 L -59.0355,-700.48 L -59.2336,-700.371 L -59.4438,-700.288
 L -59.6627,-700.232 L -59.887,-700.204 z
M -60.113,-520.204 L -60.3373,-520.232 L -60.5562,-520.288 L -60.7664,-520.371 L -60.9645,-520.48 L -61.1474,-520.613
 L -61.3121,-520.768 L -61.4562,-520.942 L -61.5773,-521.133 L -61.6736,-521.337 L -61.7434,-521.552 L -61.7858,-521.774
 L -61.8,-522 L -61.7858,-522.226 L -61.7434,-522.448 L -61.6736,-522.663 L -61.5773,-522.867 L -61.4562,-523.058
 L -61.3121,-523.232 L -61.1474,-523.387 L -60.9645,-523.52 L -60.7664,-523.629 L -60.5562,-523.712 L -60.3373,-523.768
 L -60.113,-523.796 L -59.887,-523.796 L -59.6627,-523.768 L -59.4438,-523.712 L -59.2336,-523.629 L -59.0355,-523.52
 L -58.8526,-523.387 L -58.6879,-523.232 L -58.5438,-523.058 L -58.4226,-522.867 L -58.3264,-522.663 L -58.2565,-522.448
 L -58.2142,-522.226 L -58.2,-522 L -58.2142,-521.774 L -58.2565,-521.552 L -58.3264,-521.337 L -58.4226,-521.133
 L -58.5438,-520.942 L -58.6879,-520.768 L -58.8526,-520.613 L -59.0355,-520.48 L -59.2336,-520.371 L -59.4438,-520.288
 L -59.6627,-520.232 L -59.887,-520.204 z
M 59.887,-520.204 L 59.6627,-520.232 L 59.4438,-520.288 L 59.2336,-520.371 L 59.0355,-520.48 L 58.8526,-520.613
 L 58.6879,-520.768 L 58.5438,-520.942 L 58.4226,-521.133 L 58.3264,-521.337 L 58.2565,-521.552 L 58.2142,-521.774
 L 58.2,-522 L 58.2142,-522.226 L 58.2565,-522.448 L 58.3264,-522.663 L 58.4226,-522.867 L 58.5438,-523.058
 L 58.6879,-523.232 L 58.8526,-523.387 L 59.0355,-523.52 L 59.2336,-523.629 L 59.4438,-523.712 L 59.6627,-523.768
 L 59.887,-523.796 L 60.113,-523.796 L 60.3373,-523.768 L 60.5562,-523.712 L 60.7664,-523.629 L 60.9645,-523.52
 L 61.1474,-523.387 L 61.3121,-523.232 L 61.4562,-523.058 L 61.5773,-522.867 L 61.6736,-522.663 L 61.7434,-522.448
 L 61.7858,-522.226 L 61.8,-522 L 61.7858,-521.774 L 61.7434,-521.552 L 61.6736,-521.337 L 61.5773,-521.133
 L 61.4562,-520.942 L 61.3121,-520.768 L 61.1474,-520.613 L 60.9645,-520.48 L 60.7664,-520.371 L 60.5562,-520.288
 L 60.3373,-520.232 L 60.113,-520.204 z
" stroke="black" fill="lightgray" stroke-width="0.5"/>
</svg>
