solid OpenSCAD_Model
  facet normal 0.998026 0.0627969 2.17169e-18
    outer loop
      vertex 36 0 9
      vertex 35.7161 4.512 0
      vertex 35.7161 4.512 9
    endloop
  endfacet
  facet normal 0.998026 0.0627969 2.17169e-18
    outer loop
      vertex 35.7161 4.512 0
      vertex 36 0 9
      vertex 36 0 0
    endloop
  endfacet
  facet normal -0.998026 0.0627969 -2.17169e-18
    outer loop
      vertex -36 0 0
      vertex -35.7161 4.512 9
      vertex -35.7161 4.512 0
    endloop
  endfacet
  facet normal -0.998026 0.0627969 -2.17169e-18
    outer loop
      vertex -35.7161 4.512 9
      vertex -36 0 0
      vertex -36 0 9
    endloop
  endfacet
  facet normal 0 1 -0
    outer loop
      vertex 2.26046 35.929 0
      vertex -2.26046 35.929 9
      vertex 2.26046 35.929 9
    endloop
  endfacet
  facet normal 0 1 0
    outer loop
      vertex -2.26046 35.929 9
      vertex 2.26046 35.929 0
      vertex -2.26046 35.929 0
    endloop
  endfacet
  facet normal 0 -1 0
    outer loop
      vertex -2.26046 -35.929 0
      vertex 2.26046 -35.929 9
      vertex -2.26046 -35.929 9
    endloop
  endfacet
  facet normal 0 -1 -0
    outer loop
      vertex 2.26046 -35.929 9
      vertex -2.26046 -35.929 0
      vertex 2.26046 -35.929 0
    endloop
  endfacet
  facet normal 0.68455 0.728966 -0
    outer loop
      vertex 26.2429 24.6437 0
      vertex 22.9473 27.7385 9
      vertex 26.2429 24.6437 9
    endloop
  endfacet
  facet normal 0.68455 0.728966 0
    outer loop
      vertex 22.9473 27.7385 9
      vertex 26.2429 24.6437 0
      vertex 22.9473 27.7385 0
    endloop
  endfacet
  facet normal -0.68455 0.728966 0
    outer loop
      vertex -22.9473 27.7385 0
      vertex -26.2429 24.6437 9
      vertex -22.9473 27.7385 9
    endloop
  endfacet
  facet normal -0.68455 0.728966 0
    outer loop
      vertex -26.2429 24.6437 9
      vertex -22.9473 27.7385 0
      vertex -26.2429 24.6437 0
    endloop
  endfacet
  facet normal -0.368109 0.929783 0
    outer loop
      vertex -11.1246 34.238 0
      vertex -15.3281 32.5738 9
      vertex -11.1246 34.238 9
    endloop
  endfacet
  facet normal -0.368109 0.929783 0
    outer loop
      vertex -15.3281 32.5738 9
      vertex -11.1246 34.238 0
      vertex -15.3281 32.5738 0
    endloop
  endfacet
  facet normal 0.904818 0.425799 9.21972e-18
    outer loop
      vertex 33.472 13.2525 9
      vertex 31.547 17.3431 0
      vertex 31.547 17.3431 9
    endloop
  endfacet
  facet normal 0.904818 0.425799 9.21972e-18
    outer loop
      vertex 31.547 17.3431 0
      vertex 33.472 13.2525 9
      vertex 33.472 13.2525 0
    endloop
  endfacet
  facet normal 0.982289 0.187374 1.33766e-18
    outer loop
      vertex 35.7161 4.512 9
      vertex 34.869 8.95284 0
      vertex 34.869 8.95284 9
    endloop
  endfacet
  facet normal 0.982289 0.187374 1.33766e-18
    outer loop
      vertex 34.869 8.95284 0
      vertex 35.7161 4.512 9
      vertex 35.7161 4.512 0
    endloop
  endfacet
  facet normal 0.368109 0.929783 -0
    outer loop
      vertex 15.3281 32.5738 0
      vertex 11.1246 34.238 9
      vertex 15.3281 32.5738 9
    endloop
  endfacet
  facet normal 0.368109 0.929783 0
    outer loop
      vertex 11.1246 34.238 9
      vertex 15.3281 32.5738 0
      vertex 11.1246 34.238 0
    endloop
  endfacet
  facet normal 0.248689 0.968583 -0
    outer loop
      vertex 11.1246 34.238 0
      vertex 6.74573 35.3623 9
      vertex 11.1246 34.238 9
    endloop
  endfacet
  facet normal 0.248689 0.968583 0
    outer loop
      vertex 6.74573 35.3623 9
      vertex 11.1246 34.238 0
      vertex 6.74573 35.3623 0
    endloop
  endfacet
  facet normal 0.48176 0.876303 -0
    outer loop
      vertex 19.2898 30.3958 0
      vertex 15.3281 32.5738 9
      vertex 19.2898 30.3958 9
    endloop
  endfacet
  facet normal 0.48176 0.876303 0
    outer loop
      vertex 15.3281 32.5738 9
      vertex 19.2898 30.3958 0
      vertex 15.3281 32.5738 0
    endloop
  endfacet
  facet normal -0.904818 0.425799 -9.21972e-18
    outer loop
      vertex -33.472 13.2525 0
      vertex -31.547 17.3431 9
      vertex -31.547 17.3431 0
    endloop
  endfacet
  facet normal -0.904818 0.425799 -9.21972e-18
    outer loop
      vertex -31.547 17.3431 9
      vertex -33.472 13.2525 0
      vertex -33.472 13.2525 9
    endloop
  endfacet
  facet normal -0.951059 0.309008 -2.22765e-18
    outer loop
      vertex -34.869 8.95284 0
      vertex -33.472 13.2525 9
      vertex -33.472 13.2525 0
    endloop
  endfacet
  facet normal -0.951059 0.309008 -2.22765e-18
    outer loop
      vertex -33.472 13.2525 9
      vertex -34.869 8.95284 0
      vertex -34.869 8.95284 9
    endloop
  endfacet
  facet normal -0.48176 0.876303 0
    outer loop
      vertex -15.3281 32.5738 0
      vertex -19.2898 30.3958 9
      vertex -15.3281 32.5738 9
    endloop
  endfacet
  facet normal -0.48176 0.876303 0
    outer loop
      vertex -19.2898 30.3958 9
      vertex -15.3281 32.5738 0
      vertex -19.2898 30.3958 0
    endloop
  endfacet
  facet normal -0.12535 0.992113 0
    outer loop
      vertex -2.26046 35.929 0
      vertex -6.74573 35.3623 9
      vertex -2.26046 35.929 9
    endloop
  endfacet
  facet normal -0.12535 0.992113 0
    outer loop
      vertex -6.74573 35.3623 9
      vertex -2.26046 35.929 0
      vertex -6.74573 35.3623 0
    endloop
  endfacet
  facet normal 0.12535 -0.992113 0
    outer loop
      vertex 2.26046 -35.929 0
      vertex 6.74573 -35.3623 9
      vertex 2.26046 -35.929 9
    endloop
  endfacet
  facet normal 0.12535 -0.992113 0
    outer loop
      vertex 6.74573 -35.3623 9
      vertex 2.26046 -35.929 0
      vertex 6.74573 -35.3623 0
    endloop
  endfacet
  facet normal 0.951059 0.309008 2.22765e-18
    outer loop
      vertex 34.869 8.95284 9
      vertex 33.472 13.2525 0
      vertex 33.472 13.2525 9
    endloop
  endfacet
  facet normal 0.951059 0.309008 2.22765e-18
    outer loop
      vertex 33.472 13.2525 0
      vertex 34.869 8.95284 9
      vertex 34.869 8.95284 0
    endloop
  endfacet
  facet normal 0.770515 0.637421 -1.26626e-17
    outer loop
      vertex 29.1246 21.1603 9
      vertex 26.2429 24.6437 0
      vertex 26.2429 24.6437 9
    endloop
  endfacet
  facet normal 0.770515 0.637421 -1.26626e-17
    outer loop
      vertex 26.2429 24.6437 0
      vertex 29.1246 21.1603 9
      vertex 29.1246 21.1603 0
    endloop
  endfacet
  facet normal 0.844335 0.535816 1.37921e-17
    outer loop
      vertex 31.547 17.3431 9
      vertex 29.1246 21.1603 0
      vertex 29.1246 21.1603 9
    endloop
  endfacet
  facet normal 0.844335 0.535816 1.37921e-17
    outer loop
      vertex 29.1246 21.1603 0
      vertex 31.547 17.3431 9
      vertex 31.547 17.3431 0
    endloop
  endfacet
  facet normal 0.12535 0.992113 -0
    outer loop
      vertex 6.74573 35.3623 0
      vertex 2.26046 35.929 9
      vertex 6.74573 35.3623 9
    endloop
  endfacet
  facet normal 0.12535 0.992113 0
    outer loop
      vertex 2.26046 35.929 9
      vertex 6.74573 35.3623 0
      vertex 2.26046 35.929 0
    endloop
  endfacet
  facet normal 0.587781 0.80902 -0
    outer loop
      vertex 22.9473 27.7385 0
      vertex 19.2898 30.3958 9
      vertex 22.9473 27.7385 9
    endloop
  endfacet
  facet normal 0.587781 0.80902 0
    outer loop
      vertex 19.2898 30.3958 9
      vertex 22.9473 27.7385 0
      vertex 19.2898 30.3958 0
    endloop
  endfacet
  facet normal -0.844335 0.535816 -1.37921e-17
    outer loop
      vertex -31.547 17.3431 0
      vertex -29.1246 21.1603 9
      vertex -29.1246 21.1603 0
    endloop
  endfacet
  facet normal -0.844335 0.535816 -1.37921e-17
    outer loop
      vertex -29.1246 21.1603 9
      vertex -31.547 17.3431 0
      vertex -31.547 17.3431 9
    endloop
  endfacet
  facet normal -0.770515 0.637421 1.26626e-17
    outer loop
      vertex -29.1246 21.1603 0
      vertex -26.2429 24.6437 9
      vertex -26.2429 24.6437 0
    endloop
  endfacet
  facet normal -0.770515 0.637421 1.26626e-17
    outer loop
      vertex -26.2429 24.6437 9
      vertex -29.1246 21.1603 0
      vertex -29.1246 21.1603 9
    endloop
  endfacet
  facet normal -0.982289 0.187374 -1.33766e-18
    outer loop
      vertex -35.7161 4.512 0
      vertex -34.869 8.95284 9
      vertex -34.869 8.95284 0
    endloop
  endfacet
  facet normal -0.982289 0.187374 -1.33766e-18
    outer loop
      vertex -34.869 8.95284 9
      vertex -35.7161 4.512 0
      vertex -35.7161 4.512 9
    endloop
  endfacet
  facet normal 0 0 1
    outer loop
      vertex 27.5 0 9
      vertex 36 0 9
      vertex 35.7161 4.512 9
    endloop
  endfacet
  facet normal 0 0 1
    outer loop
      vertex 27.2832 3.44666 9
      vertex 35.7161 4.512 9
      vertex 34.869 8.95284 9
    endloop
  endfacet
  facet normal 0 0 1
    outer loop
      vertex 36 0 9
      vertex 27.5 0 9
      vertex 35.7161 -4.512 9
    endloop
  endfacet
  facet normal 0 0 1
    outer loop
      vertex 26.636 6.83897 9
      vertex 34.869 8.95284 9
      vertex 33.472 13.2525 9
    endloop
  endfacet
  facet normal -0 0 1
    outer loop
      vertex 27.2832 -3.44666 9
      vertex 35.7161 -4.512 9
      vertex 27.5 0 9
    endloop
  endfacet
  facet normal 0 0 1
    outer loop
      vertex 25.5689 10.1234 9
      vertex 33.472 13.2525 9
      vertex 31.547 17.3431 9
    endloop
  endfacet
  facet normal 0 0 1
    outer loop
      vertex 35.7161 -4.512 9
      vertex 27.2832 -3.44666 9
      vertex 34.869 -8.95284 9
    endloop
  endfacet
  facet normal 0 0 1
    outer loop
      vertex 24.0984 13.2482 9
      vertex 31.547 17.3431 9
      vertex 29.1246 21.1603 9
    endloop
  endfacet
  facet normal -0 0 1
    outer loop
      vertex 26.636 -6.83897 9
      vertex 34.869 -8.95284 9
      vertex 27.2832 -3.44666 9
    endloop
  endfacet
  facet normal 0 0 1
    outer loop
      vertex 34.869 -8.95284 9
      vertex 26.636 -6.83897 9
      vertex 33.472 -13.2525 9
    endloop
  endfacet
  facet normal 0 0 1
    outer loop
      vertex 35.7161 4.512 9
      vertex 27.2832 3.44666 9
      vertex 27.5 0 9
    endloop
  endfacet
  facet normal 0 0 1
    outer loop
      vertex 34.869 8.95284 9
      vertex 26.636 6.83897 9
      vertex 27.2832 3.44666 9
    endloop
  endfacet
  facet normal 0 0 1
    outer loop
      vertex 22.248 16.1641 9
      vertex 29.1246 21.1603 9
      vertex 26.2429 24.6437 9
    endloop
  endfacet
  facet normal 0 0 1
    outer loop
      vertex 33.472 13.2525 9
      vertex 25.5689 10.1234 9
      vertex 26.636 6.83897 9
    endloop
  endfacet
  facet normal 0 0 1
    outer loop
      vertex 31.547 17.3431 9
      vertex 24.0984 13.2482 9
      vertex 25.5689 10.1234 9
    endloop
  endfacet
  facet normal 0 0 1
    outer loop
      vertex 20.0466 18.825 9
      vertex 26.2429 24.6437 9
      vertex 22.9473 27.7385 9
    endloop
  endfacet
  facet normal 0 0 1
    outer loop
      vertex 29.1246 21.1603 9
      vertex 22.248 16.1641 9
      vertex 24.0984 13.2482 9
    endloop
  endfacet
  facet normal 0 0 1
    outer loop
      vertex 26.2429 24.6437 9
      vertex 20.0466 18.825 9
      vertex 22.248 16.1641 9
    endloop
  endfacet
  facet normal 0 0 1
    outer loop
      vertex 17.5292 21.1891 9
      vertex 22.9473 27.7385 9
      vertex 19.2898 30.3958 9
    endloop
  endfacet
  facet normal 0 0 1
    outer loop
      vertex 22.9473 27.7385 9
      vertex 17.5292 21.1891 9
      vertex 20.0466 18.825 9
    endloop
  endfacet
  facet normal 0 0 1
    outer loop
      vertex 14.7352 23.219 9
      vertex 19.2898 30.3958 9
      vertex 15.3281 32.5738 9
    endloop
  endfacet
  facet normal 0 0 1
    outer loop
      vertex 19.2898 30.3958 9
      vertex 14.7352 23.219 9
      vertex 17.5292 21.1891 9
    endloop
  endfacet
  facet normal 0 0 1
    outer loop
      vertex 15.3281 32.5738 9
      vertex 11.7089 24.8827 9
      vertex 14.7352 23.219 9
    endloop
  endfacet
  facet normal 0 0 1
    outer loop
      vertex 11.1246 34.238 9
      vertex 11.7089 24.8827 9
      vertex 15.3281 32.5738 9
    endloop
  endfacet
  facet normal 0 0 1
    outer loop
      vertex 11.1246 34.238 9
      vertex 8.49797 26.1541 9
      vertex 11.7089 24.8827 9
    endloop
  endfacet
  facet normal 0 0 1
    outer loop
      vertex 6.74573 35.3623 9
      vertex 8.49797 26.1541 9
      vertex 11.1246 34.238 9
    endloop
  endfacet
  facet normal 0 0 1
    outer loop
      vertex 6.74573 35.3623 9
      vertex 5.15299 27.0129 9
      vertex 8.49797 26.1541 9
    endloop
  endfacet
  facet normal 0 0 1
    outer loop
      vertex 2.26046 35.929 9
      vertex 5.15299 27.0129 9
      vertex 6.74573 35.3623 9
    endloop
  endfacet
  facet normal 0 0 1
    outer loop
      vertex 2.26046 35.929 9
      vertex 1.72674 27.4457 9
      vertex 5.15299 27.0129 9
    endloop
  endfacet
  facet normal 0 0 1
    outer loop
      vertex 2.26046 35.929 9
      vertex -1.72674 27.4457 9
      vertex 1.72674 27.4457 9
    endloop
  endfacet
  facet normal -0 0 1
    outer loop
      vertex -2.26046 35.929 9
      vertex -1.72674 27.4457 9
      vertex 2.26046 35.929 9
    endloop
  endfacet
  facet normal 0 0 1
    outer loop
      vertex -2.26046 35.929 9
      vertex -5.15299 27.0129 9
      vertex -1.72674 27.4457 9
    endloop
  endfacet
  facet normal -0 0 1
    outer loop
      vertex -6.74573 35.3623 9
      vertex -5.15299 27.0129 9
      vertex -2.26046 35.929 9
    endloop
  endfacet
  facet normal 0 0 1
    outer loop
      vertex -6.74573 35.3623 9
      vertex -8.49797 26.1541 9
      vertex -5.15299 27.0129 9
    endloop
  endfacet
  facet normal -0 0 1
    outer loop
      vertex -11.1246 34.238 9
      vertex -8.49797 26.1541 9
      vertex -6.74573 35.3623 9
    endloop
  endfacet
  facet normal 0 0 1
    outer loop
      vertex -11.1246 34.238 9
      vertex -11.7089 24.8827 9
      vertex -8.49797 26.1541 9
    endloop
  endfacet
  facet normal -0 0 1
    outer loop
      vertex -15.3281 32.5738 9
      vertex -11.7089 24.8827 9
      vertex -11.1246 34.238 9
    endloop
  endfacet
  facet normal 0 0 1
    outer loop
      vertex -11.7089 24.8827 9
      vertex -15.3281 32.5738 9
      vertex -14.7352 23.219 9
    endloop
  endfacet
  facet normal -0 0 1
    outer loop
      vertex -19.2898 30.3958 9
      vertex -14.7352 23.219 9
      vertex -15.3281 32.5738 9
    endloop
  endfacet
  facet normal 0 0 1
    outer loop
      vertex -14.7352 23.219 9
      vertex -19.2898 30.3958 9
      vertex -17.5292 21.1891 9
    endloop
  endfacet
  facet normal -0 0 1
    outer loop
      vertex -22.9473 27.7385 9
      vertex -17.5292 21.1891 9
      vertex -19.2898 30.3958 9
    endloop
  endfacet
  facet normal 0 0 1
    outer loop
      vertex -17.5292 21.1891 9
      vertex -22.9473 27.7385 9
      vertex -20.0466 18.825 9
    endloop
  endfacet
  facet normal -0 0 1
    outer loop
      vertex -26.2429 24.6437 9
      vertex -20.0466 18.825 9
      vertex -22.9473 27.7385 9
    endloop
  endfacet
  facet normal 0 0 1
    outer loop
      vertex -20.0466 18.825 9
      vertex -26.2429 24.6437 9
      vertex -22.248 16.1641 9
    endloop
  endfacet
  facet normal -0 0 1
    outer loop
      vertex -29.1246 21.1603 9
      vertex -22.248 16.1641 9
      vertex -26.2429 24.6437 9
    endloop
  endfacet
  facet normal 0 0 1
    outer loop
      vertex -22.248 16.1641 9
      vertex -29.1246 21.1603 9
      vertex -24.0984 13.2482 9
    endloop
  endfacet
  facet normal -0 0 1
    outer loop
      vertex -31.547 17.3431 9
      vertex -24.0984 13.2482 9
      vertex -29.1246 21.1603 9
    endloop
  endfacet
  facet normal 0 0 1
    outer loop
      vertex -24.0984 13.2482 9
      vertex -31.547 17.3431 9
      vertex -25.5689 10.1234 9
    endloop
  endfacet
  facet normal -0 0 1
    outer loop
      vertex -33.472 13.2525 9
      vertex -25.5689 10.1234 9
      vertex -31.547 17.3431 9
    endloop
  endfacet
  facet normal 0 0 1
    outer loop
      vertex -25.5689 10.1234 9
      vertex -33.472 13.2525 9
      vertex -26.636 6.83897 9
    endloop
  endfacet
  facet normal -0 0 1
    outer loop
      vertex 25.5689 -10.1234 9
      vertex 33.472 -13.2525 9
      vertex 26.636 -6.83897 9
    endloop
  endfacet
  facet normal 0 0 1
    outer loop
      vertex 33.472 -13.2525 9
      vertex 25.5689 -10.1234 9
      vertex 31.547 -17.3431 9
    endloop
  endfacet
  facet normal -0 0 1
    outer loop
      vertex 24.0984 -13.2482 9
      vertex 31.547 -17.3431 9
      vertex 25.5689 -10.1234 9
    endloop
  endfacet
  facet normal 0 0 1
    outer loop
      vertex 31.547 -17.3431 9
      vertex 24.0984 -13.2482 9
      vertex 29.1246 -21.1603 9
    endloop
  endfacet
  facet normal -0 0 1
    outer loop
      vertex 22.248 -16.1641 9
      vertex 29.1246 -21.1603 9
      vertex 24.0984 -13.2482 9
    endloop
  endfacet
  facet normal 0 0 1
    outer loop
      vertex 29.1246 -21.1603 9
      vertex 22.248 -16.1641 9
      vertex 26.2429 -24.6437 9
    endloop
  endfacet
  facet normal -0 0 1
    outer loop
      vertex 20.0466 -18.825 9
      vertex 26.2429 -24.6437 9
      vertex 22.248 -16.1641 9
    endloop
  endfacet
  facet normal 0 0 1
    outer loop
      vertex 26.2429 -24.6437 9
      vertex 20.0466 -18.825 9
      vertex 22.9473 -27.7385 9
    endloop
  endfacet
  facet normal -0 0 1
    outer loop
      vertex 17.5292 -21.1891 9
      vertex 22.9473 -27.7385 9
      vertex 20.0466 -18.825 9
    endloop
  endfacet
  facet normal 0 0 1
    outer loop
      vertex 22.9473 -27.7385 9
      vertex 17.5292 -21.1891 9
      vertex 19.2898 -30.3958 9
    endloop
  endfacet
  facet normal -0 0 1
    outer loop
      vertex 14.7352 -23.219 9
      vertex 19.2898 -30.3958 9
      vertex 17.5292 -21.1891 9
    endloop
  endfacet
  facet normal 0 0 1
    outer loop
      vertex 19.2898 -30.3958 9
      vertex 14.7352 -23.219 9
      vertex 15.3281 -32.5738 9
    endloop
  endfacet
  facet normal -0 0 1
    outer loop
      vertex 11.7089 -24.8827 9
      vertex 15.3281 -32.5738 9
      vertex 14.7352 -23.219 9
    endloop
  endfacet
  facet normal 0 0 1
    outer loop
      vertex 11.7089 -24.8827 9
      vertex 11.1246 -34.238 9
      vertex 15.3281 -32.5738 9
    endloop
  endfacet
  facet normal -0 0 1
    outer loop
      vertex 8.49797 -26.1541 9
      vertex 11.1246 -34.238 9
      vertex 11.7089 -24.8827 9
    endloop
  endfacet
  facet normal 0 0 1
    outer loop
      vertex 8.49797 -26.1541 9
      vertex 6.74573 -35.3623 9
      vertex 11.1246 -34.238 9
    endloop
  endfacet
  facet normal -0 0 1
    outer loop
      vertex 5.15299 -27.0129 9
      vertex 6.74573 -35.3623 9
      vertex 8.49797 -26.1541 9
    endloop
  endfacet
  facet normal 0 0 1
    outer loop
      vertex 5.15299 -27.0129 9
      vertex 2.26046 -35.929 9
      vertex 6.74573 -35.3623 9
    endloop
  endfacet
  facet normal -0 0 1
    outer loop
      vertex 1.72674 -27.4457 9
      vertex 2.26046 -35.929 9
      vertex 5.15299 -27.0129 9
    endloop
  endfacet
  facet normal -0 0 1
    outer loop
      vertex -1.72674 -27.4457 9
      vertex 2.26046 -35.929 9
      vertex 1.72674 -27.4457 9
    endloop
  endfacet
  facet normal 0 0 1
    outer loop
      vertex -1.72674 -27.4457 9
      vertex -2.26046 -35.929 9
      vertex 2.26046 -35.929 9
    endloop
  endfacet
  facet normal 0 0 1
    outer loop
      vertex -5.15299 -27.0129 9
      vertex -2.26046 -35.929 9
      vertex -1.72674 -27.4457 9
    endloop
  endfacet
  facet normal 0 0 1
    outer loop
      vertex -5.15299 -27.0129 9
      vertex -6.74573 -35.3623 9
      vertex -2.26046 -35.929 9
    endloop
  endfacet
  facet normal 0 0 1
    outer loop
      vertex -8.49797 -26.1541 9
      vertex -6.74573 -35.3623 9
      vertex -5.15299 -27.0129 9
    endloop
  endfacet
  facet normal 0 0 1
    outer loop
      vertex -8.49797 -26.1541 9
      vertex -11.1246 -34.238 9
      vertex -6.74573 -35.3623 9
    endloop
  endfacet
  facet normal 0 0 1
    outer loop
      vertex -11.7089 -24.8827 9
      vertex -11.1246 -34.238 9
      vertex -8.49797 -26.1541 9
    endloop
  endfacet
  facet normal 0 0 1
    outer loop
      vertex -15.3281 -32.5738 9
      vertex -11.7089 -24.8827 9
      vertex -14.7352 -23.219 9
    endloop
  endfacet
  facet normal 0 0 1
    outer loop
      vertex -11.7089 -24.8827 9
      vertex -15.3281 -32.5738 9
      vertex -11.1246 -34.238 9
    endloop
  endfacet
  facet normal 0 0 1
    outer loop
      vertex -19.2898 -30.3958 9
      vertex -14.7352 -23.219 9
      vertex -17.5292 -21.1891 9
    endloop
  endfacet
  facet normal 0 0 1
    outer loop
      vertex -14.7352 -23.219 9
      vertex -19.2898 -30.3958 9
      vertex -15.3281 -32.5738 9
    endloop
  endfacet
  facet normal 0 0 1
    outer loop
      vertex -22.9473 -27.7385 9
      vertex -17.5292 -21.1891 9
      vertex -20.0466 -18.825 9
    endloop
  endfacet
  facet normal 0 0 1
    outer loop
      vertex -26.2429 -24.6437 9
      vertex -20.0466 -18.825 9
      vertex -22.248 -16.1641 9
    endloop
  endfacet
  facet normal 0 0 1
    outer loop
      vertex -17.5292 -21.1891 9
      vertex -22.9473 -27.7385 9
      vertex -19.2898 -30.3958 9
    endloop
  endfacet
  facet normal 0 0 1
    outer loop
      vertex -29.1246 -21.1603 9
      vertex -22.248 -16.1641 9
      vertex -24.0984 -13.2482 9
    endloop
  endfacet
  facet normal 0 0 1
    outer loop
      vertex -31.547 -17.3431 9
      vertex -24.0984 -13.2482 9
      vertex -25.5689 -10.1234 9
    endloop
  endfacet
  facet normal 0 0 1
    outer loop
      vertex -20.0466 -18.825 9
      vertex -26.2429 -24.6437 9
      vertex -22.9473 -27.7385 9
    endloop
  endfacet
  facet normal 0 0 1
    outer loop
      vertex -33.472 -13.2525 9
      vertex -25.5689 -10.1234 9
      vertex -26.636 -6.83897 9
    endloop
  endfacet
  facet normal 0 0 1
    outer loop
      vertex -34.869 -8.95284 9
      vertex -26.636 -6.83897 9
      vertex -27.2832 -3.44666 9
    endloop
  endfacet
  facet normal 0 0 1
    outer loop
      vertex -35.7161 -4.512 9
      vertex -27.2832 -3.44666 9
      vertex -27.5 0 9
    endloop
  endfacet
  facet normal -0 0 1
    outer loop
      vertex -34.869 8.95284 9
      vertex -26.636 6.83897 9
      vertex -33.472 13.2525 9
    endloop
  endfacet
  facet normal 0 0 1
    outer loop
      vertex -22.248 -16.1641 9
      vertex -29.1246 -21.1603 9
      vertex -26.2429 -24.6437 9
    endloop
  endfacet
  facet normal 0 0 1
    outer loop
      vertex -26.636 6.83897 9
      vertex -34.869 8.95284 9
      vertex -27.2832 3.44666 9
    endloop
  endfacet
  facet normal 0 0 1
    outer loop
      vertex -24.0984 -13.2482 9
      vertex -31.547 -17.3431 9
      vertex -29.1246 -21.1603 9
    endloop
  endfacet
  facet normal -0 0 1
    outer loop
      vertex -35.7161 4.512 9
      vertex -27.2832 3.44666 9
      vertex -34.869 8.95284 9
    endloop
  endfacet
  facet normal 0 0 1
    outer loop
      vertex -25.5689 -10.1234 9
      vertex -33.472 -13.2525 9
      vertex -31.547 -17.3431 9
    endloop
  endfacet
  facet normal 0 0 1
    outer loop
      vertex -27.2832 3.44666 9
      vertex -35.7161 4.512 9
      vertex -27.5 0 9
    endloop
  endfacet
  facet normal 0 0 1
    outer loop
      vertex -26.636 -6.83897 9
      vertex -34.869 -8.95284 9
      vertex -33.472 -13.2525 9
    endloop
  endfacet
  facet normal 0 0 1
    outer loop
      vertex -36 0 9
      vertex -27.5 0 9
      vertex -35.7161 4.512 9
    endloop
  endfacet
  facet normal 0 0 1
    outer loop
      vertex -27.2832 -3.44666 9
      vertex -35.7161 -4.512 9
      vertex -34.869 -8.95284 9
    endloop
  endfacet
  facet normal 0 0 1
    outer loop
      vertex -27.5 0 9
      vertex -36 0 9
      vertex -35.7161 -4.512 9
    endloop
  endfacet
  facet normal -0.587781 0.80902 0
    outer loop
      vertex -19.2898 30.3958 0
      vertex -22.9473 27.7385 9
      vertex -19.2898 30.3958 9
    endloop
  endfacet
  facet normal -0.587781 0.80902 0
    outer loop
      vertex -22.9473 27.7385 9
      vertex -19.2898 30.3958 0
      vertex -22.9473 27.7385 0
    endloop
  endfacet
  facet normal -0.248689 0.968583 0
    outer loop
      vertex -6.74573 35.3623 0
      vertex -11.1246 34.238 9
      vertex -6.74573 35.3623 9
    endloop
  endfacet
  facet normal -0.248689 0.968583 0
    outer loop
      vertex -11.1246 34.238 9
      vertex -6.74573 35.3623 0
      vertex -11.1246 34.238 0
    endloop
  endfacet
  facet normal 0.998026 -0.0627969 -2.17169e-18
    outer loop
      vertex 35.7161 -4.512 9
      vertex 36 0 0
      vertex 36 0 9
    endloop
  endfacet
  facet normal 0.998026 -0.0627969 -2.17169e-18
    outer loop
      vertex 36 0 0
      vertex 35.7161 -4.512 9
      vertex 35.7161 -4.512 0
    endloop
  endfacet
  facet normal -0.68455 -0.728966 0
    outer loop
      vertex -26.2429 -24.6437 0
      vertex -22.9473 -27.7385 9
      vertex -26.2429 -24.6437 9
    endloop
  endfacet
  facet normal -0.68455 -0.728966 -0
    outer loop
      vertex -22.9473 -27.7385 9
      vertex -26.2429 -24.6437 0
      vertex -22.9473 -27.7385 0
    endloop
  endfacet
  facet normal -0.904818 -0.425799 9.21972e-18
    outer loop
      vertex -31.547 -17.3431 0
      vertex -33.472 -13.2525 9
      vertex -33.472 -13.2525 0
    endloop
  endfacet
  facet normal -0.904818 -0.425799 9.21972e-18
    outer loop
      vertex -33.472 -13.2525 9
      vertex -31.547 -17.3431 0
      vertex -31.547 -17.3431 9
    endloop
  endfacet
  facet normal -0.844335 -0.535816 1.37921e-17
    outer loop
      vertex -29.1246 -21.1603 0
      vertex -31.547 -17.3431 9
      vertex -31.547 -17.3431 0
    endloop
  endfacet
  facet normal -0.844335 -0.535816 1.37921e-17
    outer loop
      vertex -31.547 -17.3431 9
      vertex -29.1246 -21.1603 0
      vertex -29.1246 -21.1603 9
    endloop
  endfacet
  facet normal 0 0 -1
    outer loop
      vertex 27.5 0 0
      vertex 36 0 0
      vertex 35.7161 -4.512 0
    endloop
  endfacet
  facet normal 0 0 -1
    outer loop
      vertex 27.2832 -3.44666 0
      vertex 35.7161 -4.512 0
      vertex 34.869 -8.95284 0
    endloop
  endfacet
  facet normal 0 0 -1
    outer loop
      vertex 36 0 0
      vertex 27.5 0 0
      vertex 35.7161 4.512 0
    endloop
  endfacet
  facet normal 0 0 -1
    outer loop
      vertex 26.636 -6.83897 0
      vertex 34.869 -8.95284 0
      vertex 33.472 -13.2525 0
    endloop
  endfacet
  facet normal 0 0 -1
    outer loop
      vertex 27.2832 3.44666 0
      vertex 35.7161 4.512 0
      vertex 27.5 0 0
    endloop
  endfacet
  facet normal 0 0 -1
    outer loop
      vertex 25.5689 -10.1234 0
      vertex 33.472 -13.2525 0
      vertex 31.547 -17.3431 0
    endloop
  endfacet
  facet normal -0 0 -1
    outer loop
      vertex 35.7161 4.512 0
      vertex 27.2832 3.44666 0
      vertex 34.869 8.95284 0
    endloop
  endfacet
  facet normal 0 0 -1
    outer loop
      vertex 24.0984 -13.2482 0
      vertex 31.547 -17.3431 0
      vertex 29.1246 -21.1603 0
    endloop
  endfacet
  facet normal 0 0 -1
    outer loop
      vertex 26.636 6.83897 0
      vertex 34.869 8.95284 0
      vertex 27.2832 3.44666 0
    endloop
  endfacet
  facet normal -0 0 -1
    outer loop
      vertex 34.869 8.95284 0
      vertex 26.636 6.83897 0
      vertex 33.472 13.2525 0
    endloop
  endfacet
  facet normal 0 0 -1
    outer loop
      vertex 35.7161 -4.512 0
      vertex 27.2832 -3.44666 0
      vertex 27.5 0 0
    endloop
  endfacet
  facet normal 0 0 -1
    outer loop
      vertex 34.869 -8.95284 0
      vertex 26.636 -6.83897 0
      vertex 27.2832 -3.44666 0
    endloop
  endfacet
  facet normal 0 0 -1
    outer loop
      vertex 22.248 -16.1641 0
      vertex 29.1246 -21.1603 0
      vertex 26.2429 -24.6437 0
    endloop
  endfacet
  facet normal 0 0 -1
    outer loop
      vertex 33.472 -13.2525 0
      vertex 25.5689 -10.1234 0
      vertex 26.636 -6.83897 0
    endloop
  endfacet
  facet normal 0 0 -1
    outer loop
      vertex 31.547 -17.3431 0
      vertex 24.0984 -13.2482 0
      vertex 25.5689 -10.1234 0
    endloop
  endfacet
  facet normal 0 0 -1
    outer loop
      vertex 20.0466 -18.825 0
      vertex 26.2429 -24.6437 0
      vertex 22.9473 -27.7385 0
    endloop
  endfacet
  facet normal 0 0 -1
    outer loop
      vertex 29.1246 -21.1603 0
      vertex 22.248 -16.1641 0
      vertex 24.0984 -13.2482 0
    endloop
  endfacet
  facet normal 0 0 -1
    outer loop
      vertex 26.2429 -24.6437 0
      vertex 20.0466 -18.825 0
      vertex 22.248 -16.1641 0
    endloop
  endfacet
  facet normal 0 0 -1
    outer loop
      vertex 17.5292 -21.1891 0
      vertex 22.9473 -27.7385 0
      vertex 19.2898 -30.3958 0
    endloop
  endfacet
  facet normal 0 0 -1
    outer loop
      vertex 22.9473 -27.7385 0
      vertex 17.5292 -21.1891 0
      vertex 20.0466 -18.825 0
    endloop
  endfacet
  facet normal 0 0 -1
    outer loop
      vertex 14.7352 -23.219 0
      vertex 19.2898 -30.3958 0
      vertex 15.3281 -32.5738 0
    endloop
  endfacet
  facet normal 0 0 -1
    outer loop
      vertex 19.2898 -30.3958 0
      vertex 14.7352 -23.219 0
      vertex 17.5292 -21.1891 0
    endloop
  endfacet
  facet normal 0 0 -1
    outer loop
      vertex 15.3281 -32.5738 0
      vertex 11.7089 -24.8827 0
      vertex 14.7352 -23.219 0
    endloop
  endfacet
  facet normal 0 0 -1
    outer loop
      vertex 11.1246 -34.238 0
      vertex 11.7089 -24.8827 0
      vertex 15.3281 -32.5738 0
    endloop
  endfacet
  facet normal 0 0 -1
    outer loop
      vertex 11.1246 -34.238 0
      vertex 8.49797 -26.1541 0
      vertex 11.7089 -24.8827 0
    endloop
  endfacet
  facet normal 0 0 -1
    outer loop
      vertex 6.74573 -35.3623 0
      vertex 8.49797 -26.1541 0
      vertex 11.1246 -34.238 0
    endloop
  endfacet
  facet normal 0 0 -1
    outer loop
      vertex 6.74573 -35.3623 0
      vertex 5.15299 -27.0129 0
      vertex 8.49797 -26.1541 0
    endloop
  endfacet
  facet normal 0 0 -1
    outer loop
      vertex 2.26046 -35.929 0
      vertex 5.15299 -27.0129 0
      vertex 6.74573 -35.3623 0
    endloop
  endfacet
  facet normal 0 0 -1
    outer loop
      vertex 2.26046 -35.929 0
      vertex 1.72674 -27.4457 0
      vertex 5.15299 -27.0129 0
    endloop
  endfacet
  facet normal 0 0 -1
    outer loop
      vertex 2.26046 -35.929 0
      vertex -1.72674 -27.4457 0
      vertex 1.72674 -27.4457 0
    endloop
  endfacet
  facet normal 0 0 -1
    outer loop
      vertex -2.26046 -35.929 0
      vertex -1.72674 -27.4457 0
      vertex 2.26046 -35.929 0
    endloop
  endfacet
  facet normal 0 0 -1
    outer loop
      vertex -2.26046 -35.929 0
      vertex -5.15299 -27.0129 0
      vertex -1.72674 -27.4457 0
    endloop
  endfacet
  facet normal 0 0 -1
    outer loop
      vertex -6.74573 -35.3623 0
      vertex -5.15299 -27.0129 0
      vertex -2.26046 -35.929 0
    endloop
  endfacet
  facet normal 0 0 -1
    outer loop
      vertex -6.74573 -35.3623 0
      vertex -8.49797 -26.1541 0
      vertex -5.15299 -27.0129 0
    endloop
  endfacet
  facet normal 0 0 -1
    outer loop
      vertex -11.1246 -34.238 0
      vertex -8.49797 -26.1541 0
      vertex -6.74573 -35.3623 0
    endloop
  endfacet
  facet normal 0 0 -1
    outer loop
      vertex -11.1246 -34.238 0
      vertex -11.7089 -24.8827 0
      vertex -8.49797 -26.1541 0
    endloop
  endfacet
  facet normal 0 0 -1
    outer loop
      vertex -15.3281 -32.5738 0
      vertex -11.7089 -24.8827 0
      vertex -11.1246 -34.238 0
    endloop
  endfacet
  facet normal -0 0 -1
    outer loop
      vertex -11.7089 -24.8827 0
      vertex -15.3281 -32.5738 0
      vertex -14.7352 -23.219 0
    endloop
  endfacet
  facet normal 0 0 -1
    outer loop
      vertex -19.2898 -30.3958 0
      vertex -14.7352 -23.219 0
      vertex -15.3281 -32.5738 0
    endloop
  endfacet
  facet normal -0 0 -1
    outer loop
      vertex -14.7352 -23.219 0
      vertex -19.2898 -30.3958 0
      vertex -17.5292 -21.1891 0
    endloop
  endfacet
  facet normal 0 0 -1
    outer loop
      vertex -22.9473 -27.7385 0
      vertex -17.5292 -21.1891 0
      vertex -19.2898 -30.3958 0
    endloop
  endfacet
  facet normal -0 0 -1
    outer loop
      vertex -17.5292 -21.1891 0
      vertex -22.9473 -27.7385 0
      vertex -20.0466 -18.825 0
    endloop
  endfacet
  facet normal 0 0 -1
    outer loop
      vertex -26.2429 -24.6437 0
      vertex -20.0466 -18.825 0
      vertex -22.9473 -27.7385 0
    endloop
  endfacet
  facet normal -0 0 -1
    outer loop
      vertex -20.0466 -18.825 0
      vertex -26.2429 -24.6437 0
      vertex -22.248 -16.1641 0
    endloop
  endfacet
  facet normal 0 0 -1
    outer loop
      vertex -29.1246 -21.1603 0
      vertex -22.248 -16.1641 0
      vertex -26.2429 -24.6437 0
    endloop
  endfacet
  facet normal -0 0 -1
    outer loop
      vertex -22.248 -16.1641 0
      vertex -29.1246 -21.1603 0
      vertex -24.0984 -13.2482 0
    endloop
  endfacet
  facet normal 0 0 -1
    outer loop
      vertex -31.547 -17.3431 0
      vertex -24.0984 -13.2482 0
      vertex -29.1246 -21.1603 0
    endloop
  endfacet
  facet normal -0 0 -1
    outer loop
      vertex -24.0984 -13.2482 0
      vertex -31.547 -17.3431 0
      vertex -25.5689 -10.1234 0
    endloop
  endfacet
  facet normal 0 0 -1
    outer loop
      vertex -33.472 -13.2525 0
      vertex -25.5689 -10.1234 0
      vertex -31.547 -17.3431 0
    endloop
  endfacet
  facet normal -0 0 -1
    outer loop
      vertex -25.5689 -10.1234 0
      vertex -33.472 -13.2525 0
      vertex -26.636 -6.83897 0
    endloop
  endfacet
  facet normal 0 0 -1
    outer loop
      vertex 25.5689 10.1234 0
      vertex 33.472 13.2525 0
      vertex 26.636 6.83897 0
    endloop
  endfacet
  facet normal -0 0 -1
    outer loop
      vertex 33.472 13.2525 0
      vertex 25.5689 10.1234 0
      vertex 31.547 17.3431 0
    endloop
  endfacet
  facet normal 0 0 -1
    outer loop
      vertex 24.0984 13.2482 0
      vertex 31.547 17.3431 0
      vertex 25.5689 10.1234 0
    endloop
  endfacet
  facet normal -0 0 -1
    outer loop
      vertex 31.547 17.3431 0
      vertex 24.0984 13.2482 0
      vertex 29.1246 21.1603 0
    endloop
  endfacet
  facet normal 0 0 -1
    outer loop
      vertex 22.248 16.1641 0
      vertex 29.1246 21.1603 0
      vertex 24.0984 13.2482 0
    endloop
  endfacet
  facet normal -0 0 -1
    outer loop
      vertex 29.1246 21.1603 0
      vertex 22.248 16.1641 0
      vertex 26.2429 24.6437 0
    endloop
  endfacet
  facet normal 0 0 -1
    outer loop
      vertex 20.0466 18.825 0
      vertex 26.2429 24.6437 0
      vertex 22.248 16.1641 0
    endloop
  endfacet
  facet normal -0 0 -1
    outer loop
      vertex 26.2429 24.6437 0
      vertex 20.0466 18.825 0
      vertex 22.9473 27.7385 0
    endloop
  endfacet
  facet normal 0 0 -1
    outer loop
      vertex 17.5292 21.1891 0
      vertex 22.9473 27.7385 0
      vertex 20.0466 18.825 0
    endloop
  endfacet
  facet normal -0 0 -1
    outer loop
      vertex 22.9473 27.7385 0
      vertex 17.5292 21.1891 0
      vertex 19.2898 30.3958 0
    endloop
  endfacet
  facet normal 0 0 -1
    outer loop
      vertex 14.7352 23.219 0
      vertex 19.2898 30.3958 0
      vertex 17.5292 21.1891 0
    endloop
  endfacet
  facet normal -0 0 -1
    outer loop
      vertex 19.2898 30.3958 0
      vertex 14.7352 23.219 0
      vertex 15.3281 32.5738 0
    endloop
  endfacet
  facet normal 0 0 -1
    outer loop
      vertex 11.7089 24.8827 0
      vertex 15.3281 32.5738 0
      vertex 14.7352 23.219 0
    endloop
  endfacet
  facet normal 0 0 -1
    outer loop
      vertex 11.7089 24.8827 0
      vertex 11.1246 34.238 0
      vertex 15.3281 32.5738 0
    endloop
  endfacet
  facet normal 0 0 -1
    outer loop
      vertex 8.49797 26.1541 0
      vertex 11.1246 34.238 0
      vertex 11.7089 24.8827 0
    endloop
  endfacet
  facet normal 0 0 -1
    outer loop
      vertex 8.49797 26.1541 0
      vertex 6.74573 35.3623 0
      vertex 11.1246 34.238 0
    endloop
  endfacet
  facet normal 0 0 -1
    outer loop
      vertex 5.15299 27.0129 0
      vertex 6.74573 35.3623 0
      vertex 8.49797 26.1541 0
    endloop
  endfacet
  facet normal 0 0 -1
    outer loop
      vertex 5.15299 27.0129 0
      vertex 2.26046 35.929 0
      vertex 6.74573 35.3623 0
    endloop
  endfacet
  facet normal 0 0 -1
    outer loop
      vertex 1.72674 27.4457 0
      vertex 2.26046 35.929 0
      vertex 5.15299 27.0129 0
    endloop
  endfacet
  facet normal 0 0 -1
    outer loop
      vertex -1.72674 27.4457 0
      vertex 2.26046 35.929 0
      vertex 1.72674 27.4457 0
    endloop
  endfacet
  facet normal 0 0 -1
    outer loop
      vertex -1.72674 27.4457 0
      vertex -2.26046 35.929 0
      vertex 2.26046 35.929 0
    endloop
  endfacet
  facet normal 0 0 -1
    outer loop
      vertex -5.15299 27.0129 0
      vertex -2.26046 35.929 0
      vertex -1.72674 27.4457 0
    endloop
  endfacet
  facet normal 0 0 -1
    outer loop
      vertex -5.15299 27.0129 0
      vertex -6.74573 35.3623 0
      vertex -2.26046 35.929 0
    endloop
  endfacet
  facet normal 0 0 -1
    outer loop
      vertex -8.49797 26.1541 0
      vertex -6.74573 35.3623 0
      vertex -5.15299 27.0129 0
    endloop
  endfacet
  facet normal 0 0 -1
    outer loop
      vertex -8.49797 26.1541 0
      vertex -11.1246 34.238 0
      vertex -6.74573 35.3623 0
    endloop
  endfacet
  facet normal 0 0 -1
    outer loop
      vertex -11.7089 24.8827 0
      vertex -11.1246 34.238 0
      vertex -8.49797 26.1541 0
    endloop
  endfacet
  facet normal 0 0 -1
    outer loop
      vertex -15.3281 32.5738 0
      vertex -11.7089 24.8827 0
      vertex -14.7352 23.219 0
    endloop
  endfacet
  facet normal 0 0 -1
    outer loop
      vertex -11.7089 24.8827 0
      vertex -15.3281 32.5738 0
      vertex -11.1246 34.238 0
    endloop
  endfacet
  facet normal 0 0 -1
    outer loop
      vertex -19.2898 30.3958 0
      vertex -14.7352 23.219 0
      vertex -17.5292 21.1891 0
    endloop
  endfacet
  facet normal 0 0 -1
    outer loop
      vertex -14.7352 23.219 0
      vertex -19.2898 30.3958 0
      vertex -15.3281 32.5738 0
    endloop
  endfacet
  facet normal 0 0 -1
    outer loop
      vertex -22.9473 27.7385 0
      vertex -17.5292 21.1891 0
      vertex -20.0466 18.825 0
    endloop
  endfacet
  facet normal 0 0 -1
    outer loop
      vertex -26.2429 24.6437 0
      vertex -20.0466 18.825 0
      vertex -22.248 16.1641 0
    endloop
  endfacet
  facet normal 0 0 -1
    outer loop
      vertex -17.5292 21.1891 0
      vertex -22.9473 27.7385 0
      vertex -19.2898 30.3958 0
    endloop
  endfacet
  facet normal 0 0 -1
    outer loop
      vertex -29.1246 21.1603 0
      vertex -22.248 16.1641 0
      vertex -24.0984 13.2482 0
    endloop
  endfacet
  facet normal 0 0 -1
    outer loop
      vertex -31.547 17.3431 0
      vertex -24.0984 13.2482 0
      vertex -25.5689 10.1234 0
    endloop
  endfacet
  facet normal 0 0 -1
    outer loop
      vertex -20.0466 18.825 0
      vertex -26.2429 24.6437 0
      vertex -22.9473 27.7385 0
    endloop
  endfacet
  facet normal 0 0 -1
    outer loop
      vertex -33.472 13.2525 0
      vertex -25.5689 10.1234 0
      vertex -26.636 6.83897 0
    endloop
  endfacet
  facet normal 0 0 -1
    outer loop
      vertex -34.869 8.95284 0
      vertex -26.636 6.83897 0
      vertex -27.2832 3.44666 0
    endloop
  endfacet
  facet normal 0 0 -1
    outer loop
      vertex -35.7161 4.512 0
      vertex -27.2832 3.44666 0
      vertex -27.5 0 0
    endloop
  endfacet
  facet normal 0 0 -1
    outer loop
      vertex -34.869 -8.95284 0
      vertex -26.636 -6.83897 0
      vertex -33.472 -13.2525 0
    endloop
  endfacet
  facet normal 0 0 -1
    outer loop
      vertex -22.248 16.1641 0
      vertex -29.1246 21.1603 0
      vertex -26.2429 24.6437 0
    endloop
  endfacet
  facet normal -0 0 -1
    outer loop
      vertex -26.636 -6.83897 0
      vertex -34.869 -8.95284 0
      vertex -27.2832 -3.44666 0
    endloop
  endfacet
  facet normal 0 0 -1
    outer loop
      vertex -24.0984 13.2482 0
      vertex -31.547 17.3431 0
      vertex -29.1246 21.1603 0
    endloop
  endfacet
  facet normal 0 0 -1
    outer loop
      vertex -35.7161 -4.512 0
      vertex -27.2832 -3.44666 0
      vertex -34.869 -8.95284 0
    endloop
  endfacet
  facet normal 0 0 -1
    outer loop
      vertex -25.5689 10.1234 0
      vertex -33.472 13.2525 0
      vertex -31.547 17.3431 0
    endloop
  endfacet
  facet normal -0 0 -1
    outer loop
      vertex -27.2832 -3.44666 0
      vertex -35.7161 -4.512 0
      vertex -27.5 0 0
    endloop
  endfacet
  facet normal 0 0 -1
    outer loop
      vertex -26.636 6.83897 0
      vertex -34.869 8.95284 0
      vertex -33.472 13.2525 0
    endloop
  endfacet
  facet normal 0 0 -1
    outer loop
      vertex -36 0 0
      vertex -27.5 0 0
      vertex -35.7161 -4.512 0
    endloop
  endfacet
  facet normal 0 0 -1
    outer loop
      vertex -27.2832 3.44666 0
      vertex -35.7161 4.512 0
      vertex -34.869 8.95284 0
    endloop
  endfacet
  facet normal 0 0 -1
    outer loop
      vertex -27.5 0 0
      vertex -36 0 0
      vertex -35.7161 4.512 0
    endloop
  endfacet
  facet normal 0.48176 -0.876303 0
    outer loop
      vertex 15.3281 -32.5738 0
      vertex 19.2898 -30.3958 9
      vertex 15.3281 -32.5738 9
    endloop
  endfacet
  facet normal 0.48176 -0.876303 0
    outer loop
      vertex 19.2898 -30.3958 9
      vertex 15.3281 -32.5738 0
      vertex 19.2898 -30.3958 0
    endloop
  endfacet
  facet normal 0.904818 -0.425799 -9.21972e-18
    outer loop
      vertex 31.547 -17.3431 9
      vertex 33.472 -13.2525 0
      vertex 33.472 -13.2525 9
    endloop
  endfacet
  facet normal 0.904818 -0.425799 -9.21972e-18
    outer loop
      vertex 33.472 -13.2525 0
      vertex 31.547 -17.3431 9
      vertex 31.547 -17.3431 0
    endloop
  endfacet
  facet normal 0.951059 -0.309008 -2.22765e-18
    outer loop
      vertex 33.472 -13.2525 9
      vertex 34.869 -8.95284 0
      vertex 34.869 -8.95284 9
    endloop
  endfacet
  facet normal 0.951059 -0.309008 -2.22765e-18
    outer loop
      vertex 34.869 -8.95284 0
      vertex 33.472 -13.2525 9
      vertex 33.472 -13.2525 0
    endloop
  endfacet
  facet normal -0.770515 -0.637421 -1.26626e-17
    outer loop
      vertex -26.2429 -24.6437 0
      vertex -29.1246 -21.1603 9
      vertex -29.1246 -21.1603 0
    endloop
  endfacet
  facet normal -0.770515 -0.637421 -1.26626e-17
    outer loop
      vertex -29.1246 -21.1603 9
      vertex -26.2429 -24.6437 0
      vertex -26.2429 -24.6437 9
    endloop
  endfacet
  facet normal -0.951059 -0.309008 2.22765e-18
    outer loop
      vertex -33.472 -13.2525 0
      vertex -34.869 -8.95284 9
      vertex -34.869 -8.95284 0
    endloop
  endfacet
  facet normal -0.951059 -0.309008 2.22765e-18
    outer loop
      vertex -34.869 -8.95284 9
      vertex -33.472 -13.2525 0
      vertex -33.472 -13.2525 9
    endloop
  endfacet
  facet normal 0.368109 -0.929783 0
    outer loop
      vertex 11.1246 -34.238 0
      vertex 15.3281 -32.5738 9
      vertex 11.1246 -34.238 9
    endloop
  endfacet
  facet normal 0.368109 -0.929783 0
    outer loop
      vertex 15.3281 -32.5738 9
      vertex 11.1246 -34.238 0
      vertex 15.3281 -32.5738 0
    endloop
  endfacet
  facet normal 0.248689 -0.968583 0
    outer loop
      vertex 6.74573 -35.3623 0
      vertex 11.1246 -34.238 9
      vertex 6.74573 -35.3623 9
    endloop
  endfacet
  facet normal 0.248689 -0.968583 0
    outer loop
      vertex 11.1246 -34.238 9
      vertex 6.74573 -35.3623 0
      vertex 11.1246 -34.238 0
    endloop
  endfacet
  facet normal 0.587781 -0.80902 0
    outer loop
      vertex 19.2898 -30.3958 0
      vertex 22.9473 -27.7385 9
      vertex 19.2898 -30.3958 9
    endloop
  endfacet
  facet normal 0.587781 -0.80902 0
    outer loop
      vertex 22.9473 -27.7385 9
      vertex 19.2898 -30.3958 0
      vertex 22.9473 -27.7385 0
    endloop
  endfacet
  facet normal 0.982289 -0.187374 -1.33766e-18
    outer loop
      vertex 34.869 -8.95284 9
      vertex 35.7161 -4.512 0
      vertex 35.7161 -4.512 9
    endloop
  endfacet
  facet normal 0.982289 -0.187374 -1.33766e-18
    outer loop
      vertex 35.7161 -4.512 0
      vertex 34.869 -8.95284 9
      vertex 34.869 -8.95284 0
    endloop
  endfacet
  facet normal -0.12535 -0.992113 0
    outer loop
      vertex -6.74573 -35.3623 0
      vertex -2.26046 -35.929 9
      vertex -6.74573 -35.3623 9
    endloop
  endfacet
  facet normal -0.12535 -0.992113 -0
    outer loop
      vertex -2.26046 -35.929 9
      vertex -6.74573 -35.3623 0
      vertex -2.26046 -35.929 0
    endloop
  endfacet
  facet normal -0.368109 -0.929783 0
    outer loop
      vertex -15.3281 -32.5738 0
      vertex -11.1246 -34.238 9
      vertex -15.3281 -32.5738 9
    endloop
  endfacet
  facet normal -0.368109 -0.929783 -0
    outer loop
      vertex -11.1246 -34.238 9
      vertex -15.3281 -32.5738 0
      vertex -11.1246 -34.238 0
    endloop
  endfacet
  facet normal -0.48176 -0.876303 0
    outer loop
      vertex -19.2898 -30.3958 0
      vertex -15.3281 -32.5738 9
      vertex -19.2898 -30.3958 9
    endloop
  endfacet
  facet normal -0.48176 -0.876303 -0
    outer loop
      vertex -15.3281 -32.5738 9
      vertex -19.2898 -30.3958 0
      vertex -15.3281 -32.5738 0
    endloop
  endfacet
  facet normal -0.982289 -0.187374 1.33766e-18
    outer loop
      vertex -34.869 -8.95284 0
      vertex -35.7161 -4.512 9
      vertex -35.7161 -4.512 0
    endloop
  endfacet
  facet normal -0.982289 -0.187374 1.33766e-18
    outer loop
      vertex -35.7161 -4.512 9
      vertex -34.869 -8.95284 0
      vertex -34.869 -8.95284 9
    endloop
  endfacet
  facet normal -0.998026 -0.0627969 2.17169e-18
    outer loop
      vertex -35.7161 -4.512 0
      vertex -36 0 9
      vertex -36 0 0
    endloop
  endfacet
  facet normal -0.998026 -0.0627969 2.17169e-18
    outer loop
      vertex -36 0 9
      vertex -35.7161 -4.512 0
      vertex -35.7161 -4.512 9
    endloop
  endfacet
  facet normal 0.844335 -0.535816 -1.37921e-17
    outer loop
      vertex 29.1246 -21.1603 9
      vertex 31.547 -17.3431 0
      vertex 31.547 -17.3431 9
    endloop
  endfacet
  facet normal 0.844335 -0.535816 -1.37921e-17
    outer loop
      vertex 31.547 -17.3431 0
      vertex 29.1246 -21.1603 9
      vertex 29.1246 -21.1603 0
    endloop
  endfacet
  facet normal 0.770515 -0.637421 1.26626e-17
    outer loop
      vertex 26.2429 -24.6437 9
      vertex 29.1246 -21.1603 0
      vertex 29.1246 -21.1603 9
    endloop
  endfacet
  facet normal 0.770515 -0.637421 1.26626e-17
    outer loop
      vertex 29.1246 -21.1603 0
      vertex 26.2429 -24.6437 9
      vertex 26.2429 -24.6437 0
    endloop
  endfacet
  facet normal 0.68455 -0.728966 0
    outer loop
      vertex 22.9473 -27.7385 0
      vertex 26.2429 -24.6437 9
      vertex 22.9473 -27.7385 9
    endloop
  endfacet
  facet normal 0.68455 -0.728966 0
    outer loop
      vertex 26.2429 -24.6437 9
      vertex 22.9473 -27.7385 0
      vertex 26.2429 -24.6437 0
    endloop
  endfacet
  facet normal -0.248689 -0.968583 0
    outer loop
      vertex -11.1246 -34.238 0
      vertex -6.74573 -35.3623 9
      vertex -11.1246 -34.238 9
    endloop
  endfacet
  facet normal -0.248689 -0.968583 -0
    outer loop
      vertex -6.74573 -35.3623 9
      vertex -11.1246 -34.238 0
      vertex -6.74573 -35.3623 0
    endloop
  endfacet
  facet normal -0.587781 -0.80902 0
    outer loop
      vertex -22.9473 -27.7385 0
      vertex -19.2898 -30.3958 9
      vertex -22.9473 -27.7385 9
    endloop
  endfacet
  facet normal -0.587781 -0.80902 -0
    outer loop
      vertex -19.2898 -30.3958 9
      vertex -22.9473 -27.7385 0
      vertex -19.2898 -30.3958 0
    endloop
  endfacet
  facet normal -0.998028 -0.0627774 4.48245e-19
    outer loop
      vertex 27.5 0 0
      vertex 27.2832 3.44666 9
      vertex 27.2832 3.44666 0
    endloop
  endfacet
  facet normal -0.998028 -0.0627774 4.48245e-19
    outer loop
      vertex 27.2832 3.44666 9
      vertex 27.5 0 0
      vertex 27.5 0 9
    endloop
  endfacet
  facet normal 0.998028 -0.0627774 -4.48245e-19
    outer loop
      vertex -27.5 0 9
      vertex -27.2832 3.44666 0
      vertex -27.2832 3.44666 9
    endloop
  endfacet
  facet normal 0.998028 -0.0627774 -4.48245e-19
    outer loop
      vertex -27.2832 3.44666 0
      vertex -27.5 0 9
      vertex -27.5 0 0
    endloop
  endfacet
  facet normal 0 -1 0
    outer loop
      vertex -1.72674 27.4457 0
      vertex 1.72674 27.4457 9
      vertex -1.72674 27.4457 9
    endloop
  endfacet
  facet normal 0 -1 -0
    outer loop
      vertex 1.72674 27.4457 9
      vertex -1.72674 27.4457 0
      vertex 1.72674 27.4457 0
    endloop
  endfacet
  facet normal -0.684563 -0.728954 0
    outer loop
      vertex 17.5292 21.1891 0
      vertex 20.0466 18.825 9
      vertex 17.5292 21.1891 9
    endloop
  endfacet
  facet normal -0.684563 -0.728954 -0
    outer loop
      vertex 20.0466 18.825 9
      vertex 17.5292 21.1891 0
      vertex 20.0466 18.825 0
    endloop
  endfacet
  facet normal 0.684563 -0.728954 0
    outer loop
      vertex -20.0466 18.825 0
      vertex -17.5292 21.1891 9
      vertex -20.0466 18.825 9
    endloop
  endfacet
  facet normal 0.684563 -0.728954 0
    outer loop
      vertex -17.5292 21.1891 9
      vertex -20.0466 18.825 0
      vertex -17.5292 21.1891 0
    endloop
  endfacet
  facet normal 0.36815 -0.929766 0
    outer loop
      vertex -11.7089 24.8827 0
      vertex -8.49797 26.1541 9
      vertex -11.7089 24.8827 9
    endloop
  endfacet
  facet normal 0.36815 -0.929766 0
    outer loop
      vertex -8.49797 26.1541 9
      vertex -11.7089 24.8827 0
      vertex -8.49797 26.1541 0
    endloop
  endfacet
  facet normal -0.904818 -0.425798 -4.10217e-18
    outer loop
      vertex 25.5689 10.1234 0
      vertex 24.0984 13.2482 9
      vertex 24.0984 13.2482 0
    endloop
  endfacet
  facet normal -0.904818 -0.425798 -4.10217e-18
    outer loop
      vertex 24.0984 13.2482 9
      vertex 25.5689 10.1234 0
      vertex 25.5689 10.1234 9
    endloop
  endfacet
  facet normal -0.982283 -0.187404 -6.92071e-18
    outer loop
      vertex 27.2832 3.44666 0
      vertex 26.636 6.83897 9
      vertex 26.636 6.83897 0
    endloop
  endfacet
  facet normal -0.982283 -0.187404 -6.92071e-18
    outer loop
      vertex 26.636 6.83897 9
      vertex 27.2832 3.44666 0
      vertex 27.2832 3.44666 9
    endloop
  endfacet
  facet normal -0.844339 -0.535809 1.05207e-17
    outer loop
      vertex 24.0984 13.2482 0
      vertex 22.248 16.1641 9
      vertex 22.248 16.1641 0
    endloop
  endfacet
  facet normal -0.844339 -0.535809 1.05207e-17
    outer loop
      vertex 22.248 16.1641 9
      vertex 24.0984 13.2482 0
      vertex 24.0984 13.2482 9
    endloop
  endfacet
  facet normal -0.36815 -0.929766 0
    outer loop
      vertex 8.49797 26.1541 0
      vertex 11.7089 24.8827 9
      vertex 8.49797 26.1541 9
    endloop
  endfacet
  facet normal -0.36815 -0.929766 -0
    outer loop
      vertex 11.7089 24.8827 9
      vertex 8.49797 26.1541 0
      vertex 11.7089 24.8827 0
    endloop
  endfacet
  facet normal -0.587774 -0.809025 0
    outer loop
      vertex 14.7352 23.219 0
      vertex 17.5292 21.1891 9
      vertex 14.7352 23.219 9
    endloop
  endfacet
  facet normal -0.587774 -0.809025 -0
    outer loop
      vertex 17.5292 21.1891 9
      vertex 14.7352 23.219 0
      vertex 17.5292 21.1891 0
    endloop
  endfacet
  facet normal 0.904818 -0.425798 4.10217e-18
    outer loop
      vertex -25.5689 10.1234 9
      vertex -24.0984 13.2482 0
      vertex -24.0984 13.2482 9
    endloop
  endfacet
  facet normal 0.904818 -0.425798 4.10217e-18
    outer loop
      vertex -24.0984 13.2482 0
      vertex -25.5689 10.1234 9
      vertex -25.5689 10.1234 0
    endloop
  endfacet
  facet normal 0.844339 -0.535809 -1.05207e-17
    outer loop
      vertex -24.0984 13.2482 9
      vertex -22.248 16.1641 0
      vertex -22.248 16.1641 9
    endloop
  endfacet
  facet normal 0.844339 -0.535809 -1.05207e-17
    outer loop
      vertex -22.248 16.1641 0
      vertex -24.0984 13.2482 9
      vertex -24.0984 13.2482 0
    endloop
  endfacet
  facet normal 0.951063 -0.308997 2.26741e-18
    outer loop
      vertex -26.636 6.83897 9
      vertex -25.5689 10.1234 0
      vertex -25.5689 10.1234 9
    endloop
  endfacet
  facet normal 0.951063 -0.308997 2.26741e-18
    outer loop
      vertex -25.5689 10.1234 0
      vertex -26.636 6.83897 9
      vertex -26.636 6.83897 0
    endloop
  endfacet
  facet normal 0.587774 -0.809025 0
    outer loop
      vertex -17.5292 21.1891 0
      vertex -14.7352 23.219 9
      vertex -17.5292 21.1891 9
    endloop
  endfacet
  facet normal 0.587774 -0.809025 0
    outer loop
      vertex -14.7352 23.219 9
      vertex -17.5292 21.1891 0
      vertex -14.7352 23.219 0
    endloop
  endfacet
  facet normal 0.125323 -0.992116 0
    outer loop
      vertex -5.15299 27.0129 0
      vertex -1.72674 27.4457 9
      vertex -5.15299 27.0129 9
    endloop
  endfacet
  facet normal 0.125323 -0.992116 0
    outer loop
      vertex -1.72674 27.4457 9
      vertex -5.15299 27.0129 0
      vertex -1.72674 27.4457 0
    endloop
  endfacet
  facet normal -0.998028 0.0627774 -4.48245e-19
    outer loop
      vertex 27.2832 -3.44666 0
      vertex 27.5 0 9
      vertex 27.5 0 0
    endloop
  endfacet
  facet normal -0.998028 0.0627774 -4.48245e-19
    outer loop
      vertex 27.5 0 9
      vertex 27.2832 -3.44666 0
      vertex 27.2832 -3.44666 9
    endloop
  endfacet
  facet normal 0.248678 0.968586 -0
    outer loop
      vertex -5.15299 -27.0129 0
      vertex -8.49797 -26.1541 9
      vertex -5.15299 -27.0129 9
    endloop
  endfacet
  facet normal 0.248678 0.968586 0
    outer loop
      vertex -8.49797 -26.1541 9
      vertex -5.15299 -27.0129 0
      vertex -8.49797 -26.1541 0
    endloop
  endfacet
  facet normal 0.904818 0.425798 -4.10217e-18
    outer loop
      vertex -24.0984 -13.2482 9
      vertex -25.5689 -10.1234 0
      vertex -25.5689 -10.1234 9
    endloop
  endfacet
  facet normal 0.904818 0.425798 -4.10217e-18
    outer loop
      vertex -25.5689 -10.1234 0
      vertex -24.0984 -13.2482 9
      vertex -24.0984 -13.2482 0
    endloop
  endfacet
  facet normal -0.125323 0.992116 0
    outer loop
      vertex 5.15299 -27.0129 0
      vertex 1.72674 -27.4457 9
      vertex 5.15299 -27.0129 9
    endloop
  endfacet
  facet normal -0.125323 0.992116 0
    outer loop
      vertex 1.72674 -27.4457 9
      vertex 5.15299 -27.0129 0
      vertex 1.72674 -27.4457 0
    endloop
  endfacet
  facet normal -0.951063 -0.308997 -2.26741e-18
    outer loop
      vertex 26.636 6.83897 0
      vertex 25.5689 10.1234 9
      vertex 25.5689 10.1234 0
    endloop
  endfacet
  facet normal -0.951063 -0.308997 -2.26741e-18
    outer loop
      vertex 25.5689 10.1234 9
      vertex 26.636 6.83897 0
      vertex 26.636 6.83897 9
    endloop
  endfacet
  facet normal -0.770497 -0.637443 1.40089e-17
    outer loop
      vertex 22.248 16.1641 0
      vertex 20.0466 18.825 9
      vertex 20.0466 18.825 0
    endloop
  endfacet
  facet normal -0.770497 -0.637443 1.40089e-17
    outer loop
      vertex 20.0466 18.825 9
      vertex 22.248 16.1641 0
      vertex 22.248 16.1641 9
    endloop
  endfacet
  facet normal -0.248678 -0.968586 0
    outer loop
      vertex 5.15299 27.0129 0
      vertex 8.49797 26.1541 9
      vertex 5.15299 27.0129 9
    endloop
  endfacet
  facet normal -0.248678 -0.968586 -0
    outer loop
      vertex 8.49797 26.1541 9
      vertex 5.15299 27.0129 0
      vertex 8.49797 26.1541 0
    endloop
  endfacet
  facet normal -0.125323 -0.992116 0
    outer loop
      vertex 1.72674 27.4457 0
      vertex 5.15299 27.0129 9
      vertex 1.72674 27.4457 9
    endloop
  endfacet
  facet normal -0.125323 -0.992116 -0
    outer loop
      vertex 5.15299 27.0129 9
      vertex 1.72674 27.4457 0
      vertex 5.15299 27.0129 0
    endloop
  endfacet
  facet normal -0.481749 -0.876309 0
    outer loop
      vertex 11.7089 24.8827 0
      vertex 14.7352 23.219 9
      vertex 11.7089 24.8827 9
    endloop
  endfacet
  facet normal -0.481749 -0.876309 -0
    outer loop
      vertex 14.7352 23.219 9
      vertex 11.7089 24.8827 0
      vertex 14.7352 23.219 0
    endloop
  endfacet
  facet normal 0.770497 -0.637443 -1.40089e-17
    outer loop
      vertex -22.248 16.1641 9
      vertex -20.0466 18.825 0
      vertex -20.0466 18.825 9
    endloop
  endfacet
  facet normal 0.770497 -0.637443 -1.40089e-17
    outer loop
      vertex -20.0466 18.825 0
      vertex -22.248 16.1641 9
      vertex -22.248 16.1641 0
    endloop
  endfacet
  facet normal 0.982283 -0.187404 6.92071e-18
    outer loop
      vertex -27.2832 3.44666 9
      vertex -26.636 6.83897 0
      vertex -26.636 6.83897 9
    endloop
  endfacet
  facet normal 0.982283 -0.187404 6.92071e-18
    outer loop
      vertex -26.636 6.83897 0
      vertex -27.2832 3.44666 9
      vertex -27.2832 3.44666 0
    endloop
  endfacet
  facet normal 0.481749 -0.876309 0
    outer loop
      vertex -14.7352 23.219 0
      vertex -11.7089 24.8827 9
      vertex -14.7352 23.219 9
    endloop
  endfacet
  facet normal 0.481749 -0.876309 0
    outer loop
      vertex -11.7089 24.8827 9
      vertex -14.7352 23.219 0
      vertex -11.7089 24.8827 0
    endloop
  endfacet
  facet normal 0.248678 -0.968586 0
    outer loop
      vertex -8.49797 26.1541 0
      vertex -5.15299 27.0129 9
      vertex -8.49797 26.1541 9
    endloop
  endfacet
  facet normal 0.248678 -0.968586 0
    outer loop
      vertex -5.15299 27.0129 9
      vertex -8.49797 26.1541 0
      vertex -5.15299 27.0129 0
    endloop
  endfacet
  facet normal -0.844339 0.535809 -1.05207e-17
    outer loop
      vertex 22.248 -16.1641 0
      vertex 24.0984 -13.2482 9
      vertex 24.0984 -13.2482 0
    endloop
  endfacet
  facet normal -0.844339 0.535809 -1.05207e-17
    outer loop
      vertex 24.0984 -13.2482 9
      vertex 22.248 -16.1641 0
      vertex 22.248 -16.1641 9
    endloop
  endfacet
  facet normal -0.982283 0.187404 6.92071e-18
    outer loop
      vertex 26.636 -6.83897 0
      vertex 27.2832 -3.44666 9
      vertex 27.2832 -3.44666 0
    endloop
  endfacet
  facet normal -0.982283 0.187404 6.92071e-18
    outer loop
      vertex 27.2832 -3.44666 9
      vertex 26.636 -6.83897 0
      vertex 26.636 -6.83897 9
    endloop
  endfacet
  facet normal 0.844339 0.535809 1.05207e-17
    outer loop
      vertex -22.248 -16.1641 9
      vertex -24.0984 -13.2482 0
      vertex -24.0984 -13.2482 9
    endloop
  endfacet
  facet normal 0.844339 0.535809 1.05207e-17
    outer loop
      vertex -24.0984 -13.2482 0
      vertex -22.248 -16.1641 9
      vertex -22.248 -16.1641 0
    endloop
  endfacet
  facet normal 0.951063 0.308997 -2.26741e-18
    outer loop
      vertex -25.5689 -10.1234 9
      vertex -26.636 -6.83897 0
      vertex -26.636 -6.83897 9
    endloop
  endfacet
  facet normal 0.951063 0.308997 -2.26741e-18
    outer loop
      vertex -26.636 -6.83897 0
      vertex -25.5689 -10.1234 9
      vertex -25.5689 -10.1234 0
    endloop
  endfacet
  facet normal -0.36815 0.929766 0
    outer loop
      vertex 11.7089 -24.8827 0
      vertex 8.49797 -26.1541 9
      vertex 11.7089 -24.8827 9
    endloop
  endfacet
  facet normal -0.36815 0.929766 0
    outer loop
      vertex 8.49797 -26.1541 9
      vertex 11.7089 -24.8827 0
      vertex 8.49797 -26.1541 0
    endloop
  endfacet
  facet normal -0.248678 0.968586 0
    outer loop
      vertex 8.49797 -26.1541 0
      vertex 5.15299 -27.0129 9
      vertex 8.49797 -26.1541 9
    endloop
  endfacet
  facet normal -0.248678 0.968586 0
    outer loop
      vertex 5.15299 -27.0129 9
      vertex 8.49797 -26.1541 0
      vertex 5.15299 -27.0129 0
    endloop
  endfacet
  facet normal -0.684563 0.728954 0
    outer loop
      vertex 20.0466 -18.825 0
      vertex 17.5292 -21.1891 9
      vertex 20.0466 -18.825 9
    endloop
  endfacet
  facet normal -0.684563 0.728954 0
    outer loop
      vertex 17.5292 -21.1891 9
      vertex 20.0466 -18.825 0
      vertex 17.5292 -21.1891 0
    endloop
  endfacet
  facet normal -0.904818 0.425798 4.10217e-18
    outer loop
      vertex 24.0984 -13.2482 0
      vertex 25.5689 -10.1234 9
      vertex 25.5689 -10.1234 0
    endloop
  endfacet
  facet normal -0.904818 0.425798 4.10217e-18
    outer loop
      vertex 25.5689 -10.1234 9
      vertex 24.0984 -13.2482 0
      vertex 24.0984 -13.2482 9
    endloop
  endfacet
  facet normal -0.951063 0.308997 2.26741e-18
    outer loop
      vertex 25.5689 -10.1234 0
      vertex 26.636 -6.83897 9
      vertex 26.636 -6.83897 0
    endloop
  endfacet
  facet normal -0.951063 0.308997 2.26741e-18
    outer loop
      vertex 26.636 -6.83897 9
      vertex 25.5689 -10.1234 0
      vertex 25.5689 -10.1234 9
    endloop
  endfacet
  facet normal 0 1 -0
    outer loop
      vertex 1.72674 -27.4457 0
      vertex -1.72674 -27.4457 9
      vertex 1.72674 -27.4457 9
    endloop
  endfacet
  facet normal 0 1 0
    outer loop
      vertex -1.72674 -27.4457 9
      vertex 1.72674 -27.4457 0
      vertex -1.72674 -27.4457 0
    endloop
  endfacet
  facet normal 0.36815 0.929766 -0
    outer loop
      vertex -8.49797 -26.1541 0
      vertex -11.7089 -24.8827 9
      vertex -8.49797 -26.1541 9
    endloop
  endfacet
  facet normal 0.36815 0.929766 0
    outer loop
      vertex -11.7089 -24.8827 9
      vertex -8.49797 -26.1541 0
      vertex -11.7089 -24.8827 0
    endloop
  endfacet
  facet normal 0.770497 0.637443 1.40089e-17
    outer loop
      vertex -20.0466 -18.825 9
      vertex -22.248 -16.1641 0
      vertex -22.248 -16.1641 9
    endloop
  endfacet
  facet normal 0.770497 0.637443 1.40089e-17
    outer loop
      vertex -22.248 -16.1641 0
      vertex -20.0466 -18.825 9
      vertex -20.0466 -18.825 0
    endloop
  endfacet
  facet normal 0.998028 0.0627774 4.48245e-19
    outer loop
      vertex -27.2832 -3.44666 9
      vertex -27.5 0 0
      vertex -27.5 0 9
    endloop
  endfacet
  facet normal 0.998028 0.0627774 4.48245e-19
    outer loop
      vertex -27.5 0 0
      vertex -27.2832 -3.44666 9
      vertex -27.2832 -3.44666 0
    endloop
  endfacet
  facet normal 0.982283 0.187404 -6.92071e-18
    outer loop
      vertex -26.636 -6.83897 9
      vertex -27.2832 -3.44666 0
      vertex -27.2832 -3.44666 9
    endloop
  endfacet
  facet normal 0.982283 0.187404 -6.92071e-18
    outer loop
      vertex -27.2832 -3.44666 0
      vertex -26.636 -6.83897 9
      vertex -26.636 -6.83897 0
    endloop
  endfacet
  facet normal -0.481749 0.876309 0
    outer loop
      vertex 14.7352 -23.219 0
      vertex 11.7089 -24.8827 9
      vertex 14.7352 -23.219 9
    endloop
  endfacet
  facet normal -0.481749 0.876309 0
    outer loop
      vertex 11.7089 -24.8827 9
      vertex 14.7352 -23.219 0
      vertex 11.7089 -24.8827 0
    endloop
  endfacet
  facet normal 0.125323 0.992116 -0
    outer loop
      vertex -1.72674 -27.4457 0
      vertex -5.15299 -27.0129 9
      vertex -1.72674 -27.4457 9
    endloop
  endfacet
  facet normal 0.125323 0.992116 0
    outer loop
      vertex -5.15299 -27.0129 9
      vertex -1.72674 -27.4457 0
      vertex -5.15299 -27.0129 0
    endloop
  endfacet
  facet normal 0.587774 0.809025 -0
    outer loop
      vertex -14.7352 -23.219 0
      vertex -17.5292 -21.1891 9
      vertex -14.7352 -23.219 9
    endloop
  endfacet
  facet normal 0.587774 0.809025 0
    outer loop
      vertex -17.5292 -21.1891 9
      vertex -14.7352 -23.219 0
      vertex -17.5292 -21.1891 0
    endloop
  endfacet
  facet normal 0.684563 0.728954 -0
    outer loop
      vertex -17.5292 -21.1891 0
      vertex -20.0466 -18.825 9
      vertex -17.5292 -21.1891 9
    endloop
  endfacet
  facet normal 0.684563 0.728954 0
    outer loop
      vertex -20.0466 -18.825 9
      vertex -17.5292 -21.1891 0
      vertex -20.0466 -18.825 0
    endloop
  endfacet
  facet normal -0.587774 0.809025 0
    outer loop
      vertex 17.5292 -21.1891 0
      vertex 14.7352 -23.219 9
      vertex 17.5292 -21.1891 9
    endloop
  endfacet
  facet normal -0.587774 0.809025 0
    outer loop
      vertex 14.7352 -23.219 9
      vertex 17.5292 -21.1891 0
      vertex 14.7352 -23.219 0
    endloop
  endfacet
  facet normal -0.770497 0.637443 -1.40089e-17
    outer loop
      vertex 20.0466 -18.825 0
      vertex 22.248 -16.1641 9
      vertex 22.248 -16.1641 0
    endloop
  endfacet
  facet normal -0.770497 0.637443 -1.40089e-17
    outer loop
      vertex 22.248 -16.1641 9
      vertex 20.0466 -18.825 0
      vertex 20.0466 -18.825 9
    endloop
  endfacet
  facet normal 0.481749 0.876309 -0
    outer loop
      vertex -11.7089 -24.8827 0
      vertex -14.7352 -23.219 9
      vertex -11.7089 -24.8827 9
    endloop
  endfacet
  facet normal 0.481749 0.876309 0
    outer loop
      vertex -14.7352 -23.219 9
      vertex -11.7089 -24.8827 0
      vertex -14.7352 -23.219 0
    endloop
  endfacet
endsolid OpenSCAD_Model
