<?xml version="1.0" standalone="no"?>
<!DOCTYPE svg PUBLIC "-//W3C//DTD SVG 1.1//EN" "http://www.w3.org/Graphics/SVG/1.1/DTD/svg11.dtd">
<svg width="150mm" height="636mm" viewBox="-75 -1092 150 636" xmlns="http://www.w3.org/2000/svg" version="1.1">
<title>OpenSCAD Model</title>
<path d="
M 70.9369,-972.089 L 71.5451,-972.245 L 72.1289,-972.476 L 72.6791,-972.778 L 73.1871,-973.147 L 73.6448,-973.577
 L 74.0451,-974.061 L 74.3815,-974.591 L 74.6489,-975.159 L 74.8429,-975.757 L 74.9606,-976.373 L 75,-977
 L 75,-1087 L 74.9606,-1087.63 L 74.8429,-1088.24 L 74.6489,-1088.84 L 74.3815,-1089.41 L 74.0451,-1089.94
 L 73.6448,-1090.42 L 73.1871,-1090.85 L 72.6791,-1091.22 L 72.1289,-1091.52 L 71.5451,-1091.76 L 70.9369,-1091.91
 L 70.3139,-1091.99 L -70.3139,-1091.99 L -70.9369,-1091.91 L -71.5451,-1091.76 L -72.1289,-1091.52 L -72.6791,-1091.22
 L -73.1871,-1090.85 L -73.6448,-1090.42 L -74.0451,-1089.94 L -74.3815,-1089.41 L -74.6489,-1088.84 L -74.8429,-1088.24
 L -74.9606,-1087.63 L -75,-1087 L -75,-977 L -74.9606,-976.373 L -74.8429,-975.757 L -74.6489,-975.159
 L -74.3815,-974.591 L -74.0451,-974.061 L -73.6448,-973.577 L -73.1871,-973.147 L -72.6791,-972.778 L -72.1289,-972.476
 L -71.5451,-972.245 L -70.9369,-972.089 L -70.3139,-972.01 L 70.3139,-972.01 z
M -70.0482,-972.509 L -70.6401,-972.584 L -71.2178,-972.732 L -71.7724,-972.952 L -72.2952,-973.239 L -72.7778,-973.59
 L -73.2126,-973.998 L -73.5928,-974.458 L -73.9125,-974.962 L -74.1664,-975.501 L -74.3508,-976.069 L -74.4625,-976.655
 L -74.5,-977.25 L -74.5,-1086.75 L -74.4625,-1087.35 L -74.3508,-1087.93 L -74.1664,-1088.5 L -73.9125,-1089.04
 L -73.5928,-1089.54 L -73.2126,-1090 L -72.7778,-1090.41 L -72.2952,-1090.76 L -71.7724,-1091.05 L -71.2178,-1091.27
 L -70.6401,-1091.42 L -70.0482,-1091.49 L 70.0482,-1091.49 L 70.6401,-1091.42 L 71.2178,-1091.27 L 71.7724,-1091.05
 L 72.2952,-1090.76 L 72.7778,-1090.41 L 73.2126,-1090 L 73.5928,-1089.54 L 73.9125,-1089.04 L 74.1664,-1088.5
 L 74.3508,-1087.93 L 74.4625,-1087.35 L 74.5,-1086.75 L 74.5,-977.25 L 74.4625,-976.655 L 74.3508,-976.069
 L 74.1664,-975.501 L 73.9125,-974.962 L 73.5928,-974.458 L 73.2126,-973.998 L 72.7778,-973.59 L 72.2952,-973.239
 L 71.7724,-972.952 L 71.2178,-972.732 L 70.6401,-972.584 L 70.0482,-972.509 z
M 70.9369,-843.089 L 71.5451,-843.245 L 72.1289,-843.476 L 72.6791,-843.778 L 73.1871,-844.147 L 73.6448,-844.577
 L 74.0451,-845.061 L 74.3815,-845.591 L 74.6489,-846.159 L 74.8429,-846.757 L 74.9606,-847.373 L 75,-848
 L 75,-958 L 74.9606,-958.627 L 74.8429,-959.243 L 74.6489,-959.841 L 74.3815,-960.409 L 74.0451,-960.939
 L 73.6448,-961.423 L 73.1871,-961.853 L 72.6791,-962.222 L 72.1289,-962.524 L 71.5451,-962.755 L 70.9369,-962.911
 L 70.3139,-962.99 L -70.3139,-962.99 L -70.9369,-962.911 L -71.5451,-962.755 L -72.1289,-962.524 L -72.6791,-962.222
 L -73.1871,-961.853 L -73.6448,-961.423 L -74.0451,-960.939 L -74.3815,-960.409 L -74.6489,-959.841 L -74.8429,-959.243
 L -74.9606,-958.627 L -75,-958 L -75,-848 L -74.9606,-847.373 L -74.8429,-846.757 L -74.6489,-846.159
 L -74.3815,-845.591 L -74.0451,-845.061 L -73.6448,-844.577 L -73.1871,-844.147 L -72.6791,-843.778 L -72.1289,-843.476
 L -71.5451,-843.245 L -70.9369,-843.089 L -70.3139,-843.01 L 70.3139,-843.01 z
M -70.0482,-843.509 L -70.6401,-843.584 L -71.2178,-843.732 L -71.7724,-843.952 L -72.2952,-844.239 L -72.7778,-844.59
 L -73.2126,-844.998 L -73.5928,-845.458 L -73.9125,-845.962 L -74.1664,-846.501 L -74.3508,-847.069 L -74.4625,-847.655
 L -74.5,-848.25 L -74.5,-957.75 L -74.4625,-958.345 L -74.3508,-958.931 L -74.1664,-959.499 L -73.9125,-960.038
 L -73.5928,-960.542 L -73.2126,-961.002 L -72.7778,-961.41 L -72.2952,-961.761 L -71.7724,-962.048 L -71.2178,-962.268
 L -70.6401,-962.416 L -70.0482,-962.491 L 70.0482,-962.491 L 70.6401,-962.416 L 71.2178,-962.268 L 71.7724,-962.048
 L 72.2952,-961.761 L 72.7778,-961.41 L 73.2126,-961.002 L 73.5928,-960.542 L 73.9125,-960.038 L 74.1664,-959.499
 L 74.3508,-958.931 L 74.4625,-958.345 L 74.5,-957.75 L 74.5,-848.25 L 74.4625,-847.655 L 74.3508,-847.069
 L 74.1664,-846.501 L 73.9125,-845.962 L 73.5928,-845.458 L 73.2126,-844.998 L 72.7778,-844.59 L 72.2952,-844.239
 L 71.7724,-843.952 L 71.2178,-843.732 L 70.6401,-843.584 L 70.0482,-843.509 z
M 70.9369,-714.089 L 71.5451,-714.245 L 72.1289,-714.476 L 72.6791,-714.778 L 73.1871,-715.147 L 73.6448,-715.577
 L 74.0451,-716.061 L 74.3815,-716.591 L 74.6489,-717.159 L 74.8429,-717.757 L 74.9606,-718.373 L 75,-719
 L 75,-829 L 74.9606,-829.627 L 74.8429,-830.243 L 74.6489,-830.841 L 74.3815,-831.409 L 74.0451,-831.939
 L 73.6448,-832.423 L 73.1871,-832.853 L 72.6791,-833.222 L 72.1289,-833.524 L 71.5451,-833.755 L 70.9369,-833.911
 L 70.3139,-833.99 L -70.3139,-833.99 L -70.9369,-833.911 L -71.5451,-833.755 L -72.1289,-833.524 L -72.6791,-833.222
 L -73.1871,-832.853 L -73.6448,-832.423 L -74.0451,-831.939 L -74.3815,-831.409 L -74.6489,-830.841 L -74.8429,-830.243
 L -74.9606,-829.627 L -75,-829 L -75,-719 L -74.9606,-718.373 L -74.8429,-717.757 L -74.6489,-717.159
 L -74.3815,-716.591 L -74.0451,-716.061 L -73.6448,-715.577 L -73.1871,-715.147 L -72.6791,-714.778 L -72.1289,-714.476
 L -71.5451,-714.245 L -70.9369,-714.089 L -70.3139,-714.01 L 70.3139,-714.01 z
M -70.0482,-714.509 L -70.6401,-714.584 L -71.2178,-714.732 L -71.7724,-714.952 L -72.2952,-715.239 L -72.7778,-715.59
 L -73.2126,-715.998 L -73.5928,-716.458 L -73.9125,-716.962 L -74.1664,-717.501 L -74.3508,-718.069 L -74.4625,-718.655
 L -74.5,-719.25 L -74.5,-828.75 L -74.4625,-829.345 L -74.3508,-829.931 L -74.1664,-830.499 L -73.9125,-831.038
 L -73.5928,-831.542 L -73.2126,-832.002 L -72.7778,-832.41 L -72.2952,-832.761 L -71.7724,-833.048 L -71.2178,-833.268
 L -70.6401,-833.416 L -70.0482,-833.491 L 70.0482,-833.491 L 70.6401,-833.416 L 71.2178,-833.268 L 71.7724,-833.048
 L 72.2952,-832.761 L 72.7778,-832.41 L 73.2126,-832.002 L 73.5928,-831.542 L 73.9125,-831.038 L 74.1664,-830.499
 L 74.3508,-829.931 L 74.4625,-829.345 L 74.5,-828.75 L 74.5,-719.25 L 74.4625,-718.655 L 74.3508,-718.069
 L 74.1664,-717.501 L 73.9125,-716.962 L 73.5928,-716.458 L 73.2126,-715.998 L 72.7778,-715.59 L 72.2952,-715.239
 L 71.7724,-714.952 L 71.2178,-714.732 L 70.6401,-714.584 L 70.0482,-714.509 z
M 70.9369,-585.089 L 71.5451,-585.245 L 72.1289,-585.476 L 72.6791,-585.778 L 73.1871,-586.147 L 73.6448,-586.577
 L 74.0451,-587.061 L 74.3815,-587.591 L 74.6489,-588.159 L 74.8429,-588.757 L 74.9606,-589.373 L 75,-590
 L 75,-700 L 74.9606,-700.627 L 74.8429,-701.243 L 74.6489,-701.841 L 74.3815,-702.409 L 74.0451,-702.939
 L 73.6448,-703.423 L 73.1871,-703.853 L 72.6791,-704.222 L 72.1289,-704.524 L 71.5451,-704.755 L 70.9369,-704.911
 L 70.3139,-704.99 L -70.3139,-704.99 L -70.9369,-704.911 L -71.5451,-704.755 L -72.1289,-704.524 L -72.6791,-704.222
 L -73.1871,-703.853 L -73.6448,-703.423 L -74.0451,-702.939 L -74.3815,-702.409 L -74.6489,-701.841 L -74.8429,-701.243
 L -74.9606,-700.627 L -75,-700 L -75,-590 L -74.9606,-589.373 L -74.8429,-588.757 L -74.6489,-588.159
 L -74.3815,-587.591 L -74.0451,-587.061 L -73.6448,-586.577 L -73.1871,-586.147 L -72.6791,-585.778 L -72.1289,-585.476
 L -71.5451,-585.245 L -70.9369,-585.089 L -70.3139,-585.01 L 70.3139,-585.01 z
M -69.993,-586.388 L -70.4751,-586.449 L -70.9457,-586.57 L -71.3975,-586.749 L -71.8234,-586.983 L -72.2165,-587.269
 L -72.5707,-587.601 L -72.8805,-587.976 L -73.1408,-588.386 L -73.3477,-588.826 L -73.4979,-589.288 L -73.589,-589.765
 L -73.6195,-590.25 L -73.6195,-699.75 L -73.589,-700.235 L -73.4979,-700.712 L -73.3477,-701.174 L -73.1408,-701.614
 L -72.8805,-702.024 L -72.5707,-702.399 L -72.2165,-702.731 L -71.8234,-703.017 L -71.3975,-703.251 L -70.9457,-703.43
 L -70.4751,-703.551 L -69.993,-703.612 L 69.993,-703.612 L 70.4751,-703.551 L 70.9457,-703.43 L 71.3975,-703.251
 L 71.8234,-703.017 L 72.2165,-702.731 L 72.5707,-702.399 L 72.8805,-702.024 L 73.1408,-701.614 L 73.3477,-701.174
 L 73.4979,-700.712 L 73.589,-700.235 L 73.6195,-699.75 L 73.6195,-590.25 L 73.589,-589.765 L 73.4979,-589.288
 L 73.3477,-588.826 L 73.1408,-588.386 L 72.8805,-587.976 L 72.5707,-587.601 L 72.2165,-587.269 L 71.8234,-586.983
 L 71.3975,-586.749 L 70.9457,-586.57 L 70.4751,-586.449 L 69.993,-586.388 z
M 70.9369,-456.089 L 71.5451,-456.245 L 72.1289,-456.476 L 72.6791,-456.778 L 73.1871,-457.147 L 73.6448,-457.577
 L 74.0451,-458.061 L 74.3815,-458.591 L 74.6489,-459.159 L 74.8429,-459.757 L 74.9606,-460.373 L 75,-461
 L 75,-571 L 74.9606,-571.627 L 74.8429,-572.243 L 74.6489,-572.841 L 74.3815,-573.409 L 74.0451,-573.939
 L 73.6448,-574.423 L 73.1871,-574.853 L 72.6791,-575.222 L 72.1289,-575.524 L 71.5451,-575.755 L 70.9369,-575.911
 L 70.3139,-575.99 L -70.3139,-575.99 L -70.9369,-575.911 L -71.5451,-575.755 L -72.1289,-575.524 L -72.6791,-575.222
 L -73.1871,-574.853 L -73.6448,-574.423 L -74.0451,-573.939 L -74.3815,-573.409 L -74.6489,-572.841 L -74.8429,-572.243
 L -74.9606,-571.627 L -75,-571 L -75,-461 L -74.9606,-460.373 L -74.8429,-459.757 L -74.6489,-459.159
 L -74.3815,-458.591 L -74.0451,-458.061 L -73.6448,-457.577 L -73.1871,-457.147 L -72.6791,-456.778 L -72.1289,-456.476
 L -71.5451,-456.245 L -70.9369,-456.089 L -70.3139,-456.01 L 70.3139,-456.01 z
M 67.387,-566.704 L 67.1627,-566.732 L 66.9438,-566.788 L 66.7336,-566.871 L 66.5355,-566.98 L 66.3526,-567.113
 L 66.1879,-567.268 L 66.0438,-567.442 L 65.9226,-567.633 L 65.8264,-567.837 L 65.7565,-568.052 L 65.7142,-568.274
 L 65.7,-568.5 L 65.7142,-568.726 L 65.7565,-568.948 L 65.8264,-569.163 L 65.9226,-569.367 L 66.0438,-569.558
 L 66.1879,-569.732 L 66.3526,-569.887 L 66.5355,-570.02 L 66.7336,-570.129 L 66.9438,-570.212 L 67.1627,-570.268
 L 67.387,-570.296 L 67.613,-570.296 L 67.8373,-570.268 L 68.0562,-570.212 L 68.2664,-570.129 L 68.4645,-570.02
 L 68.6474,-569.887 L 68.8121,-569.732 L 68.9562,-569.558 L 69.0773,-569.367 L 69.1736,-569.163 L 69.2434,-568.948
 L 69.2858,-568.726 L 69.3,-568.5 L 69.2858,-568.274 L 69.2434,-568.052 L 69.1736,-567.837 L 69.0773,-567.633
 L 68.9562,-567.442 L 68.8121,-567.268 L 68.6474,-567.113 L 68.4645,-566.98 L 68.2664,-566.871 L 68.0562,-566.788
 L 67.8373,-566.732 L 67.613,-566.704 z
M -67.613,-566.704 L -67.8373,-566.732 L -68.0562,-566.788 L -68.2664,-566.871 L -68.4645,-566.98 L -68.6474,-567.113
 L -68.8121,-567.268 L -68.9562,-567.442 L -69.0773,-567.633 L -69.1736,-567.837 L -69.2434,-568.052 L -69.2858,-568.274
 L -69.3,-568.5 L -69.2858,-568.726 L -69.2434,-568.948 L -69.1736,-569.163 L -69.0773,-569.367 L -68.9562,-569.558
 L -68.8121,-569.732 L -68.6474,-569.887 L -68.4645,-570.02 L -68.2664,-570.129 L -68.0562,-570.212 L -67.8373,-570.268
 L -67.613,-570.296 L -67.387,-570.296 L -67.1627,-570.268 L -66.9438,-570.212 L -66.7336,-570.129 L -66.5355,-570.02
 L -66.3526,-569.887 L -66.1879,-569.732 L -66.0438,-569.558 L -65.9226,-569.367 L -65.8264,-569.163 L -65.7565,-568.948
 L -65.7142,-568.726 L -65.7,-568.5 L -65.7142,-568.274 L -65.7565,-568.052 L -65.8264,-567.837 L -65.9226,-567.633
 L -66.0438,-567.442 L -66.1879,-567.268 L -66.3526,-567.113 L -66.5355,-566.98 L -66.7336,-566.871 L -66.9438,-566.788
 L -67.1627,-566.732 L -67.387,-566.704 z
M -67.613,-461.704 L -67.8373,-461.732 L -68.0562,-461.788 L -68.2664,-461.871 L -68.4645,-461.98 L -68.6474,-462.113
 L -68.8121,-462.268 L -68.9562,-462.442 L -69.0773,-462.633 L -69.1736,-462.837 L -69.2434,-463.052 L -69.2858,-463.274
 L -69.3,-463.5 L -69.2858,-463.726 L -69.2434,-463.948 L -69.1736,-464.163 L -69.0773,-464.367 L -68.9562,-464.558
 L -68.8121,-464.732 L -68.6474,-464.887 L -68.4645,-465.02 L -68.2664,-465.129 L -68.0562,-465.212 L -67.8373,-465.268
 L -67.613,-465.296 L -67.387,-465.296 L -67.1627,-465.268 L -66.9438,-465.212 L -66.7336,-465.129 L -66.5355,-465.02
 L -66.3526,-464.887 L -66.1879,-464.732 L -66.0438,-464.558 L -65.9226,-464.367 L -65.8264,-464.163 L -65.7565,-463.948
 L -65.7142,-463.726 L -65.7,-463.5 L -65.7142,-463.274 L -65.7565,-463.052 L -65.8264,-462.837 L -65.9226,-462.633
 L -66.0438,-462.442 L -66.1879,-462.268 L -66.3526,-462.113 L -66.5355,-461.98 L -66.7336,-461.871 L -66.9438,-461.788
 L -67.1627,-461.732 L -67.387,-461.704 z
M 67.387,-461.704 L 67.1627,-461.732 L 66.9438,-461.788 L 66.7336,-461.871 L 66.5355,-461.98 L 66.3526,-462.113
 L 66.1879,-462.268 L 66.0438,-462.442 L 65.9226,-462.633 L 65.8264,-462.837 L 65.7565,-463.052 L 65.7142,-463.274
 L 65.7,-463.5 L 65.7142,-463.726 L 65.7565,-463.948 L 65.8264,-464.163 L 65.9226,-464.367 L 66.0438,-464.558
 L 66.1879,-464.732 L 66.3526,-464.887 L 66.5355,-465.02 L 66.7336,-465.129 L 66.9438,-465.212 L 67.1627,-465.268
 L 67.387,-465.296 L 67.613,-465.296 L 67.8373,-465.268 L 68.0562,-465.212 L 68.2664,-465.129 L 68.4645,-465.02
 L 68.6474,-464.887 L 68.8121,-464.732 L 68.9562,-464.558 L 69.0773,-464.367 L 69.1736,-464.163 L 69.2434,-463.948
 L 69.2858,-463.726 L 69.3,-463.5 L 69.2858,-463.274 L 69.2434,-463.052 L 69.1736,-462.837 L 69.0773,-462.633
 L 68.9562,-462.442 L 68.8121,-462.268 L 68.6474,-462.113 L 68.4645,-461.98 L 68.2664,-461.871 L 68.0562,-461.788
 L 67.8373,-461.732 L 67.613,-461.704 z
" stroke="black" fill="lightgray" stroke-width="0.5"/>
</svg>
