<?xml version="1.0" standalone="no"?>
<!DOCTYPE svg PUBLIC "-//W3C//DTD SVG 1.1//EN" "http://www.w3.org/Graphics/SVG/1.1/DTD/svg11.dtd">
<svg width="210mm" height="507mm" viewBox="-105 -963 210 507" xmlns="http://www.w3.org/2000/svg" version="1.1">
<title>OpenSCAD Model</title>
<path d="
M 100.937,-843.089 L 101.545,-843.245 L 102.129,-843.476 L 102.679,-843.778 L 103.187,-844.147 L 103.645,-844.577
 L 104.045,-845.061 L 104.382,-845.591 L 104.649,-846.159 L 104.843,-846.757 L 104.961,-847.373 L 105,-848
 L 105,-958 L 104.961,-958.627 L 104.843,-959.243 L 104.649,-959.841 L 104.382,-960.409 L 104.045,-960.939
 L 103.645,-961.423 L 103.187,-961.853 L 102.679,-962.222 L 102.129,-962.524 L 101.545,-962.755 L 100.937,-962.911
 L 100.314,-962.99 L -100.314,-962.99 L -100.937,-962.911 L -101.545,-962.755 L -102.129,-962.524 L -102.679,-962.222
 L -103.187,-961.853 L -103.4,-961.653 L -105,-961.653 L -105,-844.347 L -103.4,-844.347 L -103.187,-844.147
 L -102.679,-843.778 L -102.129,-843.476 L -101.545,-843.245 L -100.937,-843.089 L -100.314,-843.01 L 100.314,-843.01
 z
M -99.7512,-844.508 L -100.25,-844.571 L -100.736,-844.696 L -101.203,-844.881 L -101.643,-845.123 L -102.05,-845.418
 L -102.416,-845.762 L -102.736,-846.149 L -103.005,-846.573 L -103.219,-847.028 L -103.374,-847.505 L -103.468,-847.999
 L -103.5,-848.5 L -103.5,-957.5 L -103.468,-958.001 L -103.374,-958.495 L -103.219,-958.972 L -103.005,-959.427
 L -102.736,-959.851 L -102.416,-960.238 L -102.05,-960.582 L -101.643,-960.877 L -101.203,-961.119 L -100.736,-961.304
 L -100.25,-961.429 L -99.7512,-961.492 L 99.7512,-961.492 L 100.25,-961.429 L 100.736,-961.304 L 101.203,-961.119
 L 101.643,-960.877 L 102.05,-960.582 L 102.416,-960.238 L 102.736,-959.851 L 103.005,-959.427 L 103.219,-958.972
 L 103.374,-958.495 L 103.468,-958.001 L 103.5,-957.5 L 103.5,-848.5 L 103.468,-847.999 L 103.374,-847.505
 L 103.219,-847.028 L 103.005,-846.573 L 102.736,-846.149 L 102.416,-845.762 L 102.05,-845.418 L 101.643,-845.123
 L 101.203,-844.881 L 100.736,-844.696 L 100.25,-844.571 L 99.7512,-844.508 z
M 100.937,-714.089 L 101.545,-714.245 L 102.129,-714.476 L 102.679,-714.778 L 103.187,-715.147 L 103.645,-715.577
 L 104.045,-716.061 L 104.382,-716.591 L 104.649,-717.159 L 104.843,-717.757 L 104.961,-718.373 L 105,-719
 L 105,-829 L 104.961,-829.627 L 104.843,-830.243 L 104.649,-830.841 L 104.382,-831.409 L 104.045,-831.939
 L 103.645,-832.423 L 103.187,-832.853 L 102.679,-833.222 L 102.129,-833.524 L 101.545,-833.755 L 100.937,-833.911
 L 100.314,-833.99 L -100.314,-833.99 L -100.937,-833.911 L -101.545,-833.755 L -102.129,-833.524 L -102.679,-833.222
 L -103.187,-832.853 L -103.645,-832.423 L -104.045,-831.939 L -104.382,-831.409 L -104.649,-830.841 L -104.843,-830.243
 L -104.961,-829.627 L -105,-829 L -105,-719 L -104.961,-718.373 L -104.843,-717.757 L -104.649,-717.159
 L -104.382,-716.591 L -104.045,-716.061 L -103.645,-715.577 L -103.187,-715.147 L -102.679,-714.778 L -102.129,-714.476
 L -101.545,-714.245 L -100.937,-714.089 L -100.314,-714.01 L 100.314,-714.01 z
M -99.7512,-715.508 L -100.25,-715.571 L -100.736,-715.696 L -101.203,-715.881 L -101.643,-716.123 L -102.05,-716.418
 L -102.416,-716.762 L -102.736,-717.149 L -103.005,-717.573 L -103.219,-718.028 L -103.374,-718.505 L -103.468,-718.999
 L -103.5,-719.5 L -103.5,-828.5 L -103.468,-829.001 L -103.374,-829.495 L -103.219,-829.972 L -103.005,-830.427
 L -102.736,-830.851 L -102.416,-831.238 L -102.05,-831.582 L -101.643,-831.877 L -101.203,-832.119 L -100.736,-832.304
 L -100.25,-832.429 L -99.7512,-832.492 L 99.7512,-832.492 L 100.25,-832.429 L 100.736,-832.304 L 101.203,-832.119
 L 101.643,-831.877 L 102.05,-831.582 L 102.416,-831.238 L 102.736,-830.851 L 103.005,-830.427 L 103.219,-829.972
 L 103.374,-829.495 L 103.468,-829.001 L 103.5,-828.5 L 103.5,-719.5 L 103.468,-718.999 L 103.374,-718.505
 L 103.219,-718.028 L 103.005,-717.573 L 102.736,-717.149 L 102.416,-716.762 L 102.05,-716.418 L 101.643,-716.123
 L 101.203,-715.881 L 100.736,-715.696 L 100.25,-715.571 L 99.7512,-715.508 z
M 100.937,-585.089 L 101.545,-585.245 L 102.129,-585.476 L 102.679,-585.778 L 103.187,-586.147 L 103.645,-586.577
 L 104.045,-587.061 L 104.382,-587.591 L 104.649,-588.159 L 104.843,-588.757 L 104.961,-589.373 L 105,-590
 L 105,-700 L 104.961,-700.627 L 104.843,-701.243 L 104.649,-701.841 L 104.382,-702.409 L 104.045,-702.939
 L 103.645,-703.423 L 103.187,-703.853 L 102.679,-704.222 L 102.129,-704.524 L 101.545,-704.755 L 100.937,-704.911
 L 100.314,-704.99 L -100.314,-704.99 L -100.937,-704.911 L -101.545,-704.755 L -102.129,-704.524 L -102.679,-704.222
 L -103.187,-703.853 L -103.645,-703.423 L -104.045,-702.939 L -104.382,-702.409 L -104.649,-701.841 L -104.843,-701.243
 L -104.961,-700.627 L -105,-700 L -105,-590 L -104.961,-589.373 L -104.843,-588.757 L -104.649,-588.159
 L -104.382,-587.591 L -104.045,-587.061 L -103.645,-586.577 L -103.187,-586.147 L -102.679,-585.778 L -102.129,-585.476
 L -101.545,-585.245 L -100.937,-585.089 L -100.314,-585.01 L 100.314,-585.01 z
M -99.6955,-587.393 L -100.083,-587.442 L -100.462,-587.539 L -100.825,-587.683 L -101.168,-587.872 L -101.484,-588.101
 L -101.769,-588.369 L -102.018,-588.67 L -102.228,-589 L -102.394,-589.354 L -102.515,-589.726 L -102.588,-590.11
 L -102.613,-590.5 L -102.613,-699.5 L -102.588,-699.89 L -102.515,-700.274 L -102.394,-700.646 L -102.228,-701
 L -102.018,-701.33 L -101.769,-701.631 L -101.484,-701.899 L -101.168,-702.128 L -100.825,-702.317 L -100.462,-702.461
 L -100.083,-702.558 L -99.6955,-702.607 L 99.6955,-702.607 L 100.083,-702.558 L 100.462,-702.461 L 100.825,-702.317
 L 101.168,-702.128 L 101.484,-701.899 L 101.769,-701.631 L 102.018,-701.33 L 102.228,-701 L 102.394,-700.646
 L 102.515,-700.274 L 102.588,-699.89 L 102.613,-699.5 L 102.613,-590.5 L 102.588,-590.11 L 102.515,-589.726
 L 102.394,-589.354 L 102.228,-589 L 102.018,-588.67 L 101.769,-588.369 L 101.484,-588.101 L 101.168,-587.872
 L 100.825,-587.683 L 100.462,-587.539 L 100.083,-587.442 L 99.6955,-587.393 z
M 100.937,-456.089 L 101.545,-456.245 L 102.129,-456.476 L 102.679,-456.778 L 103.187,-457.147 L 103.645,-457.577
 L 104.045,-458.061 L 104.382,-458.591 L 104.649,-459.159 L 104.843,-459.757 L 104.961,-460.373 L 105,-461
 L 105,-571 L 104.961,-571.627 L 104.843,-572.243 L 104.649,-572.841 L 104.382,-573.409 L 104.045,-573.939
 L 103.645,-574.423 L 103.187,-574.853 L 102.679,-575.222 L 102.129,-575.524 L 101.545,-575.755 L 100.937,-575.911
 L 100.314,-575.99 L -100.314,-575.99 L -100.937,-575.911 L -101.545,-575.755 L -102.129,-575.524 L -102.679,-575.222
 L -103.187,-574.853 L -103.645,-574.423 L -104.045,-573.939 L -104.382,-573.409 L -104.649,-572.841 L -104.843,-572.243
 L -104.961,-571.627 L -105,-571 L -105,-461 L -104.961,-460.373 L -104.843,-459.757 L -104.649,-459.159
 L -104.382,-458.591 L -104.045,-458.061 L -103.645,-457.577 L -103.187,-457.147 L -102.679,-456.778 L -102.129,-456.476
 L -101.545,-456.245 L -100.937,-456.089 L -100.314,-456.01 L 100.314,-456.01 z
M 97.3659,-566.369 L 97.0999,-566.403 L 96.8401,-566.469 L 96.5908,-566.568 L 96.3559,-566.697 L 96.1389,-566.855
 L 95.9434,-567.038 L 95.7725,-567.245 L 95.6288,-567.471 L 95.5146,-567.714 L 95.4318,-567.969 L 95.3815,-568.232
 L 95.3647,-568.5 L 95.3815,-568.768 L 95.4318,-569.031 L 95.5146,-569.286 L 95.6288,-569.529 L 95.7725,-569.755
 L 95.9434,-569.962 L 96.1389,-570.145 L 96.3559,-570.303 L 96.5908,-570.432 L 96.8401,-570.531 L 97.0999,-570.597
 L 97.3659,-570.631 L 97.6341,-570.631 L 97.9001,-570.597 L 98.1598,-570.531 L 98.4092,-570.432 L 98.6441,-570.303
 L 98.8611,-570.145 L 99.0566,-569.962 L 99.2275,-569.755 L 99.3712,-569.529 L 99.4853,-569.286 L 99.5682,-569.031
 L 99.6185,-568.768 L 99.6353,-568.5 L 99.6185,-568.232 L 99.5682,-567.969 L 99.4853,-567.714 L 99.3712,-567.471
 L 99.2275,-567.245 L 99.0566,-567.038 L 98.8611,-566.855 L 98.6441,-566.697 L 98.4092,-566.568 L 98.1598,-566.469
 L 97.9001,-566.403 L 97.6341,-566.369 z
M -97.6341,-566.369 L -97.9001,-566.403 L -98.1598,-566.469 L -98.4092,-566.568 L -98.6441,-566.697 L -98.8611,-566.855
 L -99.0566,-567.038 L -99.2275,-567.245 L -99.3712,-567.471 L -99.4853,-567.714 L -99.5682,-567.969 L -99.6185,-568.232
 L -99.6353,-568.5 L -99.6185,-568.768 L -99.5682,-569.031 L -99.4853,-569.286 L -99.3712,-569.529 L -99.2275,-569.755
 L -99.0566,-569.962 L -98.8611,-570.145 L -98.6441,-570.303 L -98.4092,-570.432 L -98.1598,-570.531 L -97.9001,-570.597
 L -97.6341,-570.631 L -97.3659,-570.631 L -97.0999,-570.597 L -96.8401,-570.531 L -96.5908,-570.432 L -96.3559,-570.303
 L -96.1389,-570.145 L -95.9434,-569.962 L -95.7725,-569.755 L -95.6288,-569.529 L -95.5146,-569.286 L -95.4318,-569.031
 L -95.3815,-568.768 L -95.3647,-568.5 L -95.3815,-568.232 L -95.4318,-567.969 L -95.5146,-567.714 L -95.6288,-567.471
 L -95.7725,-567.245 L -95.9434,-567.038 L -96.1389,-566.855 L -96.3559,-566.697 L -96.5908,-566.568 L -96.8401,-566.469
 L -97.0999,-566.403 L -97.3659,-566.369 z
M 97.3659,-461.369 L 97.0999,-461.403 L 96.8401,-461.469 L 96.5908,-461.568 L 96.3559,-461.697 L 96.1389,-461.855
 L 95.9434,-462.038 L 95.7725,-462.245 L 95.6288,-462.471 L 95.5146,-462.714 L 95.4318,-462.969 L 95.3815,-463.232
 L 95.3647,-463.5 L 95.3815,-463.768 L 95.4318,-464.031 L 95.5146,-464.286 L 95.6288,-464.529 L 95.7725,-464.755
 L 95.9434,-464.962 L 96.1389,-465.145 L 96.3559,-465.303 L 96.5908,-465.432 L 96.8401,-465.531 L 97.0999,-465.597
 L 97.3659,-465.631 L 97.6341,-465.631 L 97.9001,-465.597 L 98.1598,-465.531 L 98.4092,-465.432 L 98.6441,-465.303
 L 98.8611,-465.145 L 99.0566,-464.962 L 99.2275,-464.755 L 99.3712,-464.529 L 99.4853,-464.286 L 99.5682,-464.031
 L 99.6185,-463.768 L 99.6353,-463.5 L 99.6185,-463.232 L 99.5682,-462.969 L 99.4853,-462.714 L 99.3712,-462.471
 L 99.2275,-462.245 L 99.0566,-462.038 L 98.8611,-461.855 L 98.6441,-461.697 L 98.4092,-461.568 L 98.1598,-461.469
 L 97.9001,-461.403 L 97.6341,-461.369 z
M -97.6341,-461.369 L -97.9001,-461.403 L -98.1598,-461.469 L -98.4092,-461.568 L -98.6441,-461.697 L -98.8611,-461.855
 L -99.0566,-462.038 L -99.2275,-462.245 L -99.3712,-462.471 L -99.4853,-462.714 L -99.5682,-462.969 L -99.6185,-463.232
 L -99.6353,-463.5 L -99.6185,-463.768 L -99.5682,-464.031 L -99.4853,-464.286 L -99.3712,-464.529 L -99.2275,-464.755
 L -99.0566,-464.962 L -98.8611,-465.145 L -98.6441,-465.303 L -98.4092,-465.432 L -98.1598,-465.531 L -97.9001,-465.597
 L -97.6341,-465.631 L -97.3659,-465.631 L -97.0999,-465.597 L -96.8401,-465.531 L -96.5908,-465.432 L -96.3559,-465.303
 L -96.1389,-465.145 L -95.9434,-464.962 L -95.7725,-464.755 L -95.6288,-464.529 L -95.5146,-464.286 L -95.4318,-464.031
 L -95.3815,-463.768 L -95.3647,-463.5 L -95.3815,-463.232 L -95.4318,-462.969 L -95.5146,-462.714 L -95.6288,-462.471
 L -95.7725,-462.245 L -95.9434,-462.038 L -96.1389,-461.855 L -96.3559,-461.697 L -96.5908,-461.568 L -96.8401,-461.469
 L -97.0999,-461.403 L -97.3659,-461.369 z
" stroke="black" fill="lightgray" stroke-width="0.5"/>
</svg>
