<?xml version="1.0" standalone="no"?>
<!DOCTYPE svg PUBLIC "-//W3C//DTD SVG 1.1//EN" "http://www.w3.org/Graphics/SVG/1.1/DTD/svg11.dtd">
<svg width="14mm" height="124mm" viewBox="-7 -117 14 124" xmlns="http://www.w3.org/2000/svg" version="1.1">
<title>OpenSCAD Model</title>
<path d="
M 1.31166,-103.124 L 2.16312,-103.343 L 2.98045,-103.666 L 3.75078,-104.09 L 4.46196,-104.606 L 5.10277,-105.208
 L 5.66312,-105.886 L 6.13414,-106.628 L 6.50842,-107.423 L 6.78008,-108.259 L 6.94479,-109.123 L 7,-110
 L 6.94479,-110.877 L 6.78008,-111.741 L 6.50842,-112.577 L 6.13414,-113.372 L 5.66312,-114.114 L 5.10277,-114.792
 L 4.46196,-115.394 L 3.75078,-115.91 L 2.98045,-116.334 L 2.16312,-116.657 L 1.31166,-116.876 L 0.439529,-116.986
 L -0.439529,-116.986 L -1.31166,-116.876 L -2.16312,-116.657 L -2.98045,-116.334 L -3.75078,-115.91 L -4.46196,-115.394
 L -5.10277,-114.792 L -5.66312,-114.114 L -6.13414,-113.372 L -6.50842,-112.577 L -6.78008,-111.741 L -6.94479,-110.877
 L -7,-110 L -6.94479,-109.123 L -6.78008,-108.259 L -6.50842,-107.423 L -6.13414,-106.628 L -5.66312,-105.886
 L -5.10277,-105.208 L -4.46196,-104.606 L -3.75078,-104.09 L -2.98045,-103.666 L -2.16312,-103.343 L -1.31166,-103.124
 L -0.439529,-103.014 L 0.439529,-103.014 z
M -0.113022,-108.204 L -0.33728,-108.232 L -0.556229,-108.288 L -0.766388,-108.371 L -0.964478,-108.48 L -1.14735,-108.613
 L -1.31213,-108.768 L -1.45622,-108.942 L -1.57735,-109.133 L -1.67358,-109.337 L -1.74344,-109.552 L -1.7858,-109.774
 L -1.79999,-110 L -1.7858,-110.226 L -1.74344,-110.448 L -1.67358,-110.663 L -1.57735,-110.867 L -1.45622,-111.058
 L -1.31213,-111.232 L -1.14735,-111.387 L -0.964478,-111.52 L -0.766388,-111.629 L -0.556229,-111.712 L -0.33728,-111.768
 L -0.113022,-111.796 L 0.113022,-111.796 L 0.33728,-111.768 L 0.556229,-111.712 L 0.766388,-111.629 L 0.964478,-111.52
 L 1.14735,-111.387 L 1.31213,-111.232 L 1.45622,-111.058 L 1.57735,-110.867 L 1.67358,-110.663 L 1.74344,-110.448
 L 1.7858,-110.226 L 1.79999,-110 L 1.7858,-109.774 L 1.74344,-109.552 L 1.67358,-109.337 L 1.57735,-109.133
 L 1.45622,-108.942 L 1.31213,-108.768 L 1.14735,-108.613 L 0.964478,-108.48 L 0.766388,-108.371 L 0.556229,-108.288
 L 0.33728,-108.232 L 0.113022,-108.204 z
M 1.31166,6.87601 L 2.16312,6.65739 L 2.98045,6.33379 L 3.75078,5.91029 L 4.46196,5.39359 L 5.10277,4.79182
 L 5.66312,4.11449 L 6.13414,3.37227 L 6.50842,2.57686 L 6.78008,1.74081 L 6.94479,0.877319 L 7,-0
 L 6.94479,-0.877319 L 6.78008,-1.74081 L 6.50842,-2.57686 L 6.13414,-3.37227 L 5.66312,-4.11449 L 5.10277,-4.79182
 L 4.46196,-5.39359 L 3.75078,-5.91029 L 2.98045,-6.33379 L 2.16312,-6.65739 L 1.31166,-6.87601 L 0.439529,-6.98618
 L -0.439529,-6.98618 L -1.31166,-6.87601 L -2.16312,-6.65739 L -2.98045,-6.33379 L -3.75078,-5.91029 L -4.46196,-5.39359
 L -5.10277,-4.79182 L -5.66312,-4.11449 L -6.13414,-3.37227 L -6.50842,-2.57686 L -6.78008,-1.74081 L -6.94479,-0.877319
 L -7,-0 L -6.94479,0.877319 L -6.78008,1.74081 L -6.50842,2.57686 L -6.13414,3.37227 L -5.66312,4.11449
 L -5.10277,4.79182 L -4.46196,5.39359 L -3.75078,5.91029 L -2.98045,6.33379 L -2.16312,6.65739 L -1.31166,6.87601
 L -0.439529,6.98618 L 0.439529,6.98618 z
M -0.147369,2.34242 L -0.439789,2.30548 L -0.725266,2.23218 L -0.999313,2.12367 L -1.25761,1.98167 L -1.49606,1.80843
 L -1.71092,1.60666 L -1.8988,1.37956 L -2.05673,1.13069 L -2.18224,0.863998 L -2.27332,0.583679 L -2.32854,0.294159
 L -2.34705,-0 L -2.32854,-0.294159 L -2.27332,-0.583679 L -2.18224,-0.863998 L -2.05673,-1.13069 L -1.8988,-1.37956
 L -1.71092,-1.60666 L -1.49606,-1.80843 L -1.25761,-1.98167 L -0.999313,-2.12367 L -0.725266,-2.23218 L -0.439789,-2.30548
 L -0.147369,-2.34242 L 0.147369,-2.34242 L 0.439789,-2.30548 L 0.725266,-2.23218 L 0.999313,-2.12367 L 1.25761,-1.98167
 L 1.49606,-1.80843 L 1.71092,-1.60666 L 1.8988,-1.37956 L 2.05673,-1.13069 L 2.18224,-0.863998 L 2.27332,-0.583679
 L 2.32854,-0.294159 L 2.34705,-0 L 2.32854,0.294159 L 2.27332,0.583679 L 2.18224,0.863998 L 2.05673,1.13069
 L 1.8988,1.37956 L 1.71092,1.60666 L 1.49606,1.80843 L 1.25761,1.98167 L 0.999313,2.12367 L 0.725266,2.23218
 L 0.439789,2.30548 L 0.147369,2.34242 z
" stroke="black" fill="lightgray" stroke-width="0.5"/>
</svg>
