  0
SECTION
  2
BLOCKS
  0
ENDSEC
  0
SECTION
  2
ENTITIES
  0
LINE
  8
0
 10
18.4369
 20
85.5886
 11
19.0451
 21
85.7447
  0
LINE
  8
0
 10
19.0451
 20
85.7447
 11
19.6289
 21
85.9759
  0
LINE
  8
0
 10
19.6289
 20
85.9759
 11
20.1791
 21
86.2784
  0
LINE
  8
0
 10
20.1791
 20
86.2784
 11
20.6871
 21
86.6474
  0
LINE
  8
0
 10
20.6871
 20
86.6474
 11
21.1448
 21
87.0773
  0
LINE
  8
0
 10
21.1448
 20
87.0773
 11
21.5451
 21
87.5611
  0
LINE
  8
0
 10
21.5451
 20
87.5611
 11
21.8815
 21
88.0912
  0
LINE
  8
0
 10
21.8815
 20
88.0912
 11
22.1489
 21
88.6594
  0
LINE
  8
0
 10
22.1489
 20
88.6594
 11
22.3429
 21
89.2566
  0
LINE
  8
0
 10
22.3429
 20
89.2566
 11
22.4606
 21
89.8733
  0
LINE
  8
0
 10
22.4606
 20
89.8733
 11
22.5
 21
90.5
  0
LINE
  8
0
 10
22.5
 20
90.5
 11
22.5
 21
125.5
  0
LINE
  8
0
 10
22.5
 20
125.5
 11
22.4606
 21
126.127
  0
LINE
  8
0
 10
22.4606
 20
126.127
 11
22.3429
 21
126.743
  0
LINE
  8
0
 10
22.3429
 20
126.743
 11
22.1489
 21
127.341
  0
LINE
  8
0
 10
22.1489
 20
127.341
 11
21.8815
 21
127.909
  0
LINE
  8
0
 10
21.8815
 20
127.909
 11
21.5451
 21
128.439
  0
LINE
  8
0
 10
21.5451
 20
128.439
 11
21.1448
 21
128.923
  0
LINE
  8
0
 10
21.1448
 20
128.923
 11
20.6871
 21
129.353
  0
LINE
  8
0
 10
20.6871
 20
129.353
 11
20.1791
 21
129.722
  0
LINE
  8
0
 10
20.1791
 20
129.722
 11
19.6289
 21
130.024
  0
LINE
  8
0
 10
19.6289
 20
130.024
 11
19.0451
 21
130.255
  0
LINE
  8
0
 10
19.0451
 20
130.255
 11
18.4369
 21
130.411
  0
LINE
  8
0
 10
18.4369
 20
130.411
 11
17.8139
 21
130.49
  0
LINE
  8
0
 10
17.8139
 20
130.49
 11
-47.8139
 21
130.49
  0
LINE
  8
0
 10
-47.8139
 20
130.49
 11
-48.4369
 21
130.411
  0
LINE
  8
0
 10
-48.4369
 20
130.411
 11
-49.0451
 21
130.255
  0
LINE
  8
0
 10
-49.0451
 20
130.255
 11
-49.6289
 21
130.024
  0
LINE
  8
0
 10
-49.6289
 20
130.024
 11
-50.1791
 21
129.722
  0
LINE
  8
0
 10
-50.1791
 20
129.722
 11
-50.6871
 21
129.353
  0
LINE
  8
0
 10
-50.6871
 20
129.353
 11
-51.1448
 21
128.923
  0
LINE
  8
0
 10
-51.1448
 20
128.923
 11
-51.5451
 21
128.439
  0
LINE
  8
0
 10
-51.5451
 20
128.439
 11
-51.8815
 21
127.909
  0
LINE
  8
0
 10
-51.8815
 20
127.909
 11
-52.1489
 21
127.341
  0
LINE
  8
0
 10
-52.1489
 20
127.341
 11
-52.3429
 21
126.743
  0
LINE
  8
0
 10
-52.3429
 20
126.743
 11
-52.4606
 21
126.127
  0
LINE
  8
0
 10
-52.4606
 20
126.127
 11
-52.5
 21
125.5
  0
LINE
  8
0
 10
-52.5
 20
125.5
 11
-52.5
 21
90.5
  0
LINE
  8
0
 10
-52.5
 20
90.5
 11
-52.4606
 21
89.8733
  0
LINE
  8
0
 10
-52.4606
 20
89.8733
 11
-52.3429
 21
89.2566
  0
LINE
  8
0
 10
-52.3429
 20
89.2566
 11
-52.1489
 21
88.6594
  0
LINE
  8
0
 10
-52.1489
 20
88.6594
 11
-51.8815
 21
88.0912
  0
LINE
  8
0
 10
-51.8815
 20
88.0912
 11
-51.5451
 21
87.5611
  0
LINE
  8
0
 10
-51.5451
 20
87.5611
 11
-51.1448
 21
87.0773
  0
LINE
  8
0
 10
-51.1448
 20
87.0773
 11
-50.6871
 21
86.6474
  0
LINE
  8
0
 10
-50.6871
 20
86.6474
 11
-50.1791
 21
86.2784
  0
LINE
  8
0
 10
-50.1791
 20
86.2784
 11
-49.6289
 21
85.9759
  0
LINE
  8
0
 10
-49.6289
 20
85.9759
 11
-49.0451
 21
85.7447
  0
LINE
  8
0
 10
-49.0451
 20
85.7447
 11
-48.4369
 21
85.5886
  0
LINE
  8
0
 10
-48.4369
 20
85.5886
 11
-47.8139
 21
85.5099
  0
LINE
  8
0
 10
-47.8139
 20
85.5099
 11
17.8139
 21
85.5099
  0
LINE
  8
0
 10
17.8139
 20
85.5099
 11
18.4369
 21
85.5886
  0
LINE
  8
0
 10
-45.1884
 20
120.006
 11
-45.5621
 21
120.053
  0
LINE
  8
0
 10
-45.5621
 20
120.053
 11
-45.927
 21
120.147
  0
LINE
  8
0
 10
-45.927
 20
120.147
 11
-46.2773
 21
120.286
  0
LINE
  8
0
 10
-46.2773
 20
120.286
 11
-46.6075
 21
120.467
  0
LINE
  8
0
 10
-46.6075
 20
120.467
 11
-46.9123
 21
120.688
  0
LINE
  8
0
 10
-46.9123
 20
120.688
 11
-47.1869
 21
120.946
  0
LINE
  8
0
 10
-47.1869
 20
120.946
 11
-47.427
 21
121.237
  0
LINE
  8
0
 10
-47.427
 20
121.237
 11
-47.6289
 21
121.555
  0
LINE
  8
0
 10
-47.6289
 20
121.555
 11
-47.7893
 21
121.896
  0
LINE
  8
0
 10
-47.7893
 20
121.896
 11
-47.9057
 21
122.254
  0
LINE
  8
0
 10
-47.9057
 20
122.254
 11
-47.9763
 21
122.624
  0
LINE
  8
0
 10
-47.9763
 20
122.624
 11
-48
 21
123
  0
LINE
  8
0
 10
-48
 20
123
 11
-47.9763
 21
123.376
  0
LINE
  8
0
 10
-47.9763
 20
123.376
 11
-47.9057
 21
123.746
  0
LINE
  8
0
 10
-47.9057
 20
123.746
 11
-47.7893
 21
124.104
  0
LINE
  8
0
 10
-47.7893
 20
124.104
 11
-47.6289
 21
124.445
  0
LINE
  8
0
 10
-47.6289
 20
124.445
 11
-47.427
 21
124.763
  0
LINE
  8
0
 10
-47.427
 20
124.763
 11
-47.1869
 21
125.054
  0
LINE
  8
0
 10
-47.1869
 20
125.054
 11
-46.9123
 21
125.312
  0
LINE
  8
0
 10
-46.9123
 20
125.312
 11
-46.6075
 21
125.533
  0
LINE
  8
0
 10
-46.6075
 20
125.533
 11
-46.2773
 21
125.714
  0
LINE
  8
0
 10
-46.2773
 20
125.714
 11
-45.927
 21
125.853
  0
LINE
  8
0
 10
-45.927
 20
125.853
 11
-45.5621
 21
125.947
  0
LINE
  8
0
 10
-45.5621
 20
125.947
 11
-45.1884
 21
125.994
  0
LINE
  8
0
 10
-45.1884
 20
125.994
 11
-44.8116
 21
125.994
  0
LINE
  8
0
 10
-44.8116
 20
125.994
 11
-44.4379
 21
125.947
  0
LINE
  8
0
 10
-44.4379
 20
125.947
 11
-44.0729
 21
125.853
  0
LINE
  8
0
 10
-44.0729
 20
125.853
 11
-43.7227
 21
125.714
  0
LINE
  8
0
 10
-43.7227
 20
125.714
 11
-43.3925
 21
125.533
  0
LINE
  8
0
 10
-43.3925
 20
125.533
 11
-43.0877
 21
125.312
  0
LINE
  8
0
 10
-43.0877
 20
125.312
 11
-42.8131
 21
125.054
  0
LINE
  8
0
 10
-42.8131
 20
125.054
 11
-42.5729
 21
124.763
  0
LINE
  8
0
 10
-42.5729
 20
124.763
 11
-42.3711
 21
124.445
  0
LINE
  8
0
 10
-42.3711
 20
124.445
 11
-42.2107
 21
124.104
  0
LINE
  8
0
 10
-42.2107
 20
124.104
 11
-42.0942
 21
123.746
  0
LINE
  8
0
 10
-42.0942
 20
123.746
 11
-42.0237
 21
123.376
  0
LINE
  8
0
 10
-42.0237
 20
123.376
 11
-42
 21
123
  0
LINE
  8
0
 10
-42
 20
123
 11
-42.0237
 21
122.624
  0
LINE
  8
0
 10
-42.0237
 20
122.624
 11
-42.0942
 21
122.254
  0
LINE
  8
0
 10
-42.0942
 20
122.254
 11
-42.2107
 21
121.896
  0
LINE
  8
0
 10
-42.2107
 20
121.896
 11
-42.3711
 21
121.555
  0
LINE
  8
0
 10
-42.3711
 20
121.555
 11
-42.5729
 21
121.237
  0
LINE
  8
0
 10
-42.5729
 20
121.237
 11
-42.8131
 21
120.946
  0
LINE
  8
0
 10
-42.8131
 20
120.946
 11
-43.0877
 21
120.688
  0
LINE
  8
0
 10
-43.0877
 20
120.688
 11
-43.3925
 21
120.467
  0
LINE
  8
0
 10
-43.3925
 20
120.467
 11
-43.7227
 21
120.286
  0
LINE
  8
0
 10
-43.7227
 20
120.286
 11
-44.0729
 21
120.147
  0
LINE
  8
0
 10
-44.0729
 20
120.147
 11
-44.4379
 21
120.053
  0
LINE
  8
0
 10
-44.4379
 20
120.053
 11
-44.8116
 21
120.006
  0
LINE
  8
0
 10
-44.8116
 20
120.006
 11
-45.1884
 21
120.006
  0
LINE
  8
0
 10
-30.1884
 20
120.006
 11
-30.5621
 21
120.053
  0
LINE
  8
0
 10
-30.5621
 20
120.053
 11
-30.927
 21
120.147
  0
LINE
  8
0
 10
-30.927
 20
120.147
 11
-31.2773
 21
120.286
  0
LINE
  8
0
 10
-31.2773
 20
120.286
 11
-31.6075
 21
120.467
  0
LINE
  8
0
 10
-31.6075
 20
120.467
 11
-31.9123
 21
120.688
  0
LINE
  8
0
 10
-31.9123
 20
120.688
 11
-32.1869
 21
120.946
  0
LINE
  8
0
 10
-32.1869
 20
120.946
 11
-32.427
 21
121.237
  0
LINE
  8
0
 10
-32.427
 20
121.237
 11
-32.6289
 21
121.555
  0
LINE
  8
0
 10
-32.6289
 20
121.555
 11
-32.7893
 21
121.896
  0
LINE
  8
0
 10
-32.7893
 20
121.896
 11
-32.9057
 21
122.254
  0
LINE
  8
0
 10
-32.9057
 20
122.254
 11
-32.9763
 21
122.624
  0
LINE
  8
0
 10
-32.9763
 20
122.624
 11
-33
 21
123
  0
LINE
  8
0
 10
-33
 20
123
 11
-32.9763
 21
123.376
  0
LINE
  8
0
 10
-32.9763
 20
123.376
 11
-32.9057
 21
123.746
  0
LINE
  8
0
 10
-32.9057
 20
123.746
 11
-32.7893
 21
124.104
  0
LINE
  8
0
 10
-32.7893
 20
124.104
 11
-32.6289
 21
124.445
  0
LINE
  8
0
 10
-32.6289
 20
124.445
 11
-32.427
 21
124.763
  0
LINE
  8
0
 10
-32.427
 20
124.763
 11
-32.1869
 21
125.054
  0
LINE
  8
0
 10
-32.1869
 20
125.054
 11
-31.9123
 21
125.312
  0
LINE
  8
0
 10
-31.9123
 20
125.312
 11
-31.6075
 21
125.533
  0
LINE
  8
0
 10
-31.6075
 20
125.533
 11
-31.2773
 21
125.714
  0
LINE
  8
0
 10
-31.2773
 20
125.714
 11
-30.927
 21
125.853
  0
LINE
  8
0
 10
-30.927
 20
125.853
 11
-30.5621
 21
125.947
  0
LINE
  8
0
 10
-30.5621
 20
125.947
 11
-30.1884
 21
125.994
  0
LINE
  8
0
 10
-30.1884
 20
125.994
 11
-29.8116
 21
125.994
  0
LINE
  8
0
 10
-29.8116
 20
125.994
 11
-29.4379
 21
125.947
  0
LINE
  8
0
 10
-29.4379
 20
125.947
 11
-29.0729
 21
125.853
  0
LINE
  8
0
 10
-29.0729
 20
125.853
 11
-28.7227
 21
125.714
  0
LINE
  8
0
 10
-28.7227
 20
125.714
 11
-28.3925
 21
125.533
  0
LINE
  8
0
 10
-28.3925
 20
125.533
 11
-28.0877
 21
125.312
  0
LINE
  8
0
 10
-28.0877
 20
125.312
 11
-27.8131
 21
125.054
  0
LINE
  8
0
 10
-27.8131
 20
125.054
 11
-27.5729
 21
124.763
  0
LINE
  8
0
 10
-27.5729
 20
124.763
 11
-27.3711
 21
124.445
  0
LINE
  8
0
 10
-27.3711
 20
124.445
 11
-27.2107
 21
124.104
  0
LINE
  8
0
 10
-27.2107
 20
124.104
 11
-27.0942
 21
123.746
  0
LINE
  8
0
 10
-27.0942
 20
123.746
 11
-27.0237
 21
123.376
  0
LINE
  8
0
 10
-27.0237
 20
123.376
 11
-27
 21
123
  0
LINE
  8
0
 10
-27
 20
123
 11
-27.0237
 21
122.624
  0
LINE
  8
0
 10
-27.0237
 20
122.624
 11
-27.0942
 21
122.254
  0
LINE
  8
0
 10
-27.0942
 20
122.254
 11
-27.2107
 21
121.896
  0
LINE
  8
0
 10
-27.2107
 20
121.896
 11
-27.3711
 21
121.555
  0
LINE
  8
0
 10
-27.3711
 20
121.555
 11
-27.5729
 21
121.237
  0
LINE
  8
0
 10
-27.5729
 20
121.237
 11
-27.8131
 21
120.946
  0
LINE
  8
0
 10
-27.8131
 20
120.946
 11
-28.0877
 21
120.688
  0
LINE
  8
0
 10
-28.0877
 20
120.688
 11
-28.3925
 21
120.467
  0
LINE
  8
0
 10
-28.3925
 20
120.467
 11
-28.7227
 21
120.286
  0
LINE
  8
0
 10
-28.7227
 20
120.286
 11
-29.0729
 21
120.147
  0
LINE
  8
0
 10
-29.0729
 20
120.147
 11
-29.4379
 21
120.053
  0
LINE
  8
0
 10
-29.4379
 20
120.053
 11
-29.8116
 21
120.006
  0
LINE
  8
0
 10
-29.8116
 20
120.006
 11
-30.1884
 21
120.006
  0
LINE
  8
0
 10
-15.613
 20
121.704
 11
-15.8373
 21
121.732
  0
LINE
  8
0
 10
-15.8373
 20
121.732
 11
-16.0562
 21
121.788
  0
LINE
  8
0
 10
-16.0562
 20
121.788
 11
-16.2664
 21
121.871
  0
LINE
  8
0
 10
-16.2664
 20
121.871
 11
-16.4645
 21
121.98
  0
LINE
  8
0
 10
-16.4645
 20
121.98
 11
-16.6474
 21
122.113
  0
LINE
  8
0
 10
-16.6474
 20
122.113
 11
-16.8121
 21
122.268
  0
LINE
  8
0
 10
-16.8121
 20
122.268
 11
-16.9562
 21
122.442
  0
LINE
  8
0
 10
-16.9562
 20
122.442
 11
-17.0773
 21
122.633
  0
LINE
  8
0
 10
-17.0773
 20
122.633
 11
-17.1736
 21
122.837
  0
LINE
  8
0
 10
-17.1736
 20
122.837
 11
-17.2434
 21
123.052
  0
LINE
  8
0
 10
-17.2434
 20
123.052
 11
-17.2858
 21
123.274
  0
LINE
  8
0
 10
-17.2858
 20
123.274
 11
-17.3
 21
123.5
  0
LINE
  8
0
 10
-17.3
 20
123.5
 11
-17.2858
 21
123.726
  0
LINE
  8
0
 10
-17.2858
 20
123.726
 11
-17.2434
 21
123.948
  0
LINE
  8
0
 10
-17.2434
 20
123.948
 11
-17.1736
 21
124.163
  0
LINE
  8
0
 10
-17.1736
 20
124.163
 11
-17.0773
 21
124.367
  0
LINE
  8
0
 10
-17.0773
 20
124.367
 11
-16.9562
 21
124.558
  0
LINE
  8
0
 10
-16.9562
 20
124.558
 11
-16.8121
 21
124.732
  0
LINE
  8
0
 10
-16.8121
 20
124.732
 11
-16.6474
 21
124.887
  0
LINE
  8
0
 10
-16.6474
 20
124.887
 11
-16.4645
 21
125.02
  0
LINE
  8
0
 10
-16.4645
 20
125.02
 11
-16.2664
 21
125.129
  0
LINE
  8
0
 10
-16.2664
 20
125.129
 11
-16.0562
 21
125.212
  0
LINE
  8
0
 10
-16.0562
 20
125.212
 11
-15.8373
 21
125.268
  0
LINE
  8
0
 10
-15.8373
 20
125.268
 11
-15.613
 21
125.296
  0
LINE
  8
0
 10
-15.613
 20
125.296
 11
-15.387
 21
125.296
  0
LINE
  8
0
 10
-15.387
 20
125.296
 11
-15.1627
 21
125.268
  0
LINE
  8
0
 10
-15.1627
 20
125.268
 11
-14.9438
 21
125.212
  0
LINE
  8
0
 10
-14.9438
 20
125.212
 11
-14.7336
 21
125.129
  0
LINE
  8
0
 10
-14.7336
 20
125.129
 11
-14.5355
 21
125.02
  0
LINE
  8
0
 10
-14.5355
 20
125.02
 11
-14.3526
 21
124.887
  0
LINE
  8
0
 10
-14.3526
 20
124.887
 11
-14.1879
 21
124.732
  0
LINE
  8
0
 10
-14.1879
 20
124.732
 11
-14.0438
 21
124.558
  0
LINE
  8
0
 10
-14.0438
 20
124.558
 11
-13.9226
 21
124.367
  0
LINE
  8
0
 10
-13.9226
 20
124.367
 11
-13.8264
 21
124.163
  0
LINE
  8
0
 10
-13.8264
 20
124.163
 11
-13.7565
 21
123.948
  0
LINE
  8
0
 10
-13.7565
 20
123.948
 11
-13.7142
 21
123.726
  0
LINE
  8
0
 10
-13.7142
 20
123.726
 11
-13.7
 21
123.5
  0
LINE
  8
0
 10
-13.7
 20
123.5
 11
-13.7142
 21
123.274
  0
LINE
  8
0
 10
-13.7142
 20
123.274
 11
-13.7565
 21
123.052
  0
LINE
  8
0
 10
-13.7565
 20
123.052
 11
-13.8264
 21
122.837
  0
LINE
  8
0
 10
-13.8264
 20
122.837
 11
-13.9226
 21
122.633
  0
LINE
  8
0
 10
-13.9226
 20
122.633
 11
-14.0438
 21
122.442
  0
LINE
  8
0
 10
-14.0438
 20
122.442
 11
-14.1879
 21
122.268
  0
LINE
  8
0
 10
-14.1879
 20
122.268
 11
-14.3526
 21
122.113
  0
LINE
  8
0
 10
-14.3526
 20
122.113
 11
-14.5355
 21
121.98
  0
LINE
  8
0
 10
-14.5355
 20
121.98
 11
-14.7336
 21
121.871
  0
LINE
  8
0
 10
-14.7336
 20
121.871
 11
-14.9438
 21
121.788
  0
LINE
  8
0
 10
-14.9438
 20
121.788
 11
-15.1627
 21
121.732
  0
LINE
  8
0
 10
-15.1627
 20
121.732
 11
-15.387
 21
121.704
  0
LINE
  8
0
 10
-15.387
 20
121.704
 11
-15.613
 21
121.704
  0
LINE
  8
0
 10
15.387
 20
121.704
 11
15.1627
 21
121.732
  0
LINE
  8
0
 10
15.1627
 20
121.732
 11
14.9438
 21
121.788
  0
LINE
  8
0
 10
14.9438
 20
121.788
 11
14.7336
 21
121.871
  0
LINE
  8
0
 10
14.7336
 20
121.871
 11
14.5355
 21
121.98
  0
LINE
  8
0
 10
14.5355
 20
121.98
 11
14.3526
 21
122.113
  0
LINE
  8
0
 10
14.3526
 20
122.113
 11
14.1879
 21
122.268
  0
LINE
  8
0
 10
14.1879
 20
122.268
 11
14.0438
 21
122.442
  0
LINE
  8
0
 10
14.0438
 20
122.442
 11
13.9226
 21
122.633
  0
LINE
  8
0
 10
13.9226
 20
122.633
 11
13.8264
 21
122.837
  0
LINE
  8
0
 10
13.8264
 20
122.837
 11
13.7565
 21
123.052
  0
LINE
  8
0
 10
13.7565
 20
123.052
 11
13.7142
 21
123.274
  0
LINE
  8
0
 10
13.7142
 20
123.274
 11
13.7
 21
123.5
  0
LINE
  8
0
 10
13.7
 20
123.5
 11
13.7142
 21
123.726
  0
LINE
  8
0
 10
13.7142
 20
123.726
 11
13.7565
 21
123.948
  0
LINE
  8
0
 10
13.7565
 20
123.948
 11
13.8264
 21
124.163
  0
LINE
  8
0
 10
13.8264
 20
124.163
 11
13.9226
 21
124.367
  0
LINE
  8
0
 10
13.9226
 20
124.367
 11
14.0438
 21
124.558
  0
LINE
  8
0
 10
14.0438
 20
124.558
 11
14.1879
 21
124.732
  0
LINE
  8
0
 10
14.1879
 20
124.732
 11
14.3526
 21
124.887
  0
LINE
  8
0
 10
14.3526
 20
124.887
 11
14.5355
 21
125.02
  0
LINE
  8
0
 10
14.5355
 20
125.02
 11
14.7336
 21
125.129
  0
LINE
  8
0
 10
14.7336
 20
125.129
 11
14.9438
 21
125.212
  0
LINE
  8
0
 10
14.9438
 20
125.212
 11
15.1627
 21
125.268
  0
LINE
  8
0
 10
15.1627
 20
125.268
 11
15.387
 21
125.296
  0
LINE
  8
0
 10
15.387
 20
125.296
 11
15.613
 21
125.296
  0
LINE
  8
0
 10
15.613
 20
125.296
 11
15.8373
 21
125.268
  0
LINE
  8
0
 10
15.8373
 20
125.268
 11
16.0562
 21
125.212
  0
LINE
  8
0
 10
16.0562
 20
125.212
 11
16.2664
 21
125.129
  0
LINE
  8
0
 10
16.2664
 20
125.129
 11
16.4645
 21
125.02
  0
LINE
  8
0
 10
16.4645
 20
125.02
 11
16.6474
 21
124.887
  0
LINE
  8
0
 10
16.6474
 20
124.887
 11
16.8121
 21
124.732
  0
LINE
  8
0
 10
16.8121
 20
124.732
 11
16.9562
 21
124.558
  0
LINE
  8
0
 10
16.9562
 20
124.558
 11
17.0773
 21
124.367
  0
LINE
  8
0
 10
17.0773
 20
124.367
 11
17.1736
 21
124.163
  0
LINE
  8
0
 10
17.1736
 20
124.163
 11
17.2434
 21
123.948
  0
LINE
  8
0
 10
17.2434
 20
123.948
 11
17.2858
 21
123.726
  0
LINE
  8
0
 10
17.2858
 20
123.726
 11
17.3
 21
123.5
  0
LINE
  8
0
 10
17.3
 20
123.5
 11
17.2858
 21
123.274
  0
LINE
  8
0
 10
17.2858
 20
123.274
 11
17.2434
 21
123.052
  0
LINE
  8
0
 10
17.2434
 20
123.052
 11
17.1736
 21
122.837
  0
LINE
  8
0
 10
17.1736
 20
122.837
 11
17.0773
 21
122.633
  0
LINE
  8
0
 10
17.0773
 20
122.633
 11
16.9562
 21
122.442
  0
LINE
  8
0
 10
16.9562
 20
122.442
 11
16.8121
 21
122.268
  0
LINE
  8
0
 10
16.8121
 20
122.268
 11
16.6474
 21
122.113
  0
LINE
  8
0
 10
16.6474
 20
122.113
 11
16.4645
 21
121.98
  0
LINE
  8
0
 10
16.4645
 20
121.98
 11
16.2664
 21
121.871
  0
LINE
  8
0
 10
16.2664
 20
121.871
 11
16.0562
 21
121.788
  0
LINE
  8
0
 10
16.0562
 20
121.788
 11
15.8373
 21
121.732
  0
LINE
  8
0
 10
15.8373
 20
121.732
 11
15.613
 21
121.704
  0
LINE
  8
0
 10
15.613
 20
121.704
 11
15.387
 21
121.704
  0
LINE
  8
0
 10
-37.5942
 20
121.503
 11
-37.7811
 21
121.527
  0
LINE
  8
0
 10
-37.7811
 20
121.527
 11
-37.9635
 21
121.573
  0
LINE
  8
0
 10
-37.9635
 20
121.573
 11
-38.1387
 21
121.643
  0
LINE
  8
0
 10
-38.1387
 20
121.643
 11
-38.3037
 21
121.734
  0
LINE
  8
0
 10
-38.3037
 20
121.734
 11
-38.4561
 21
121.844
  0
LINE
  8
0
 10
-38.4561
 20
121.844
 11
-38.5934
 21
121.973
  0
LINE
  8
0
 10
-38.5934
 20
121.973
 11
-38.7135
 21
122.118
  0
LINE
  8
0
 10
-38.7135
 20
122.118
 11
-38.8145
 21
122.277
  0
LINE
  8
0
 10
-38.8145
 20
122.277
 11
-38.8947
 21
122.448
  0
LINE
  8
0
 10
-38.8947
 20
122.448
 11
-38.9529
 21
122.627
  0
LINE
  8
0
 10
-38.9529
 20
122.627
 11
-38.9882
 21
122.812
  0
LINE
  8
0
 10
-38.9882
 20
122.812
 11
-39
 21
123
  0
LINE
  8
0
 10
-39
 20
123
 11
-38.9882
 21
123.188
  0
LINE
  8
0
 10
-38.9882
 20
123.188
 11
-38.9529
 21
123.373
  0
LINE
  8
0
 10
-38.9529
 20
123.373
 11
-38.8947
 21
123.552
  0
LINE
  8
0
 10
-38.8947
 20
123.552
 11
-38.8145
 21
123.723
  0
LINE
  8
0
 10
-38.8145
 20
123.723
 11
-38.7135
 21
123.882
  0
LINE
  8
0
 10
-38.7135
 20
123.882
 11
-38.5934
 21
124.027
  0
LINE
  8
0
 10
-38.5934
 20
124.027
 11
-38.4561
 21
124.156
  0
LINE
  8
0
 10
-38.4561
 20
124.156
 11
-38.3037
 21
124.266
  0
LINE
  8
0
 10
-38.3037
 20
124.266
 11
-38.1387
 21
124.357
  0
LINE
  8
0
 10
-38.1387
 20
124.357
 11
-37.9635
 21
124.427
  0
LINE
  8
0
 10
-37.9635
 20
124.427
 11
-37.7811
 21
124.473
  0
LINE
  8
0
 10
-37.7811
 20
124.473
 11
-37.5942
 21
124.497
  0
LINE
  8
0
 10
-37.5942
 20
124.497
 11
-37.4058
 21
124.497
  0
LINE
  8
0
 10
-37.4058
 20
124.497
 11
-37.2189
 21
124.473
  0
LINE
  8
0
 10
-37.2189
 20
124.473
 11
-37.0365
 21
124.427
  0
LINE
  8
0
 10
-37.0365
 20
124.427
 11
-36.8613
 21
124.357
  0
LINE
  8
0
 10
-36.8613
 20
124.357
 11
-36.6963
 21
124.266
  0
LINE
  8
0
 10
-36.6963
 20
124.266
 11
-36.5439
 21
124.156
  0
LINE
  8
0
 10
-36.5439
 20
124.156
 11
-36.4065
 21
124.027
  0
LINE
  8
0
 10
-36.4065
 20
124.027
 11
-36.2865
 21
123.882
  0
LINE
  8
0
 10
-36.2865
 20
123.882
 11
-36.1855
 21
123.723
  0
LINE
  8
0
 10
-36.1855
 20
123.723
 11
-36.1053
 21
123.552
  0
LINE
  8
0
 10
-36.1053
 20
123.552
 11
-36.0471
 21
123.373
  0
LINE
  8
0
 10
-36.0471
 20
123.373
 11
-36.0118
 21
123.188
  0
LINE
  8
0
 10
-36.0118
 20
123.188
 11
-36
 21
123
  0
LINE
  8
0
 10
-36
 20
123
 11
-36.0118
 21
122.812
  0
LINE
  8
0
 10
-36.0118
 20
122.812
 11
-36.0471
 21
122.627
  0
LINE
  8
0
 10
-36.0471
 20
122.627
 11
-36.1053
 21
122.448
  0
LINE
  8
0
 10
-36.1053
 20
122.448
 11
-36.1855
 21
122.277
  0
LINE
  8
0
 10
-36.1855
 20
122.277
 11
-36.2865
 21
122.118
  0
LINE
  8
0
 10
-36.2865
 20
122.118
 11
-36.4065
 21
121.973
  0
LINE
  8
0
 10
-36.4065
 20
121.973
 11
-36.5439
 21
121.844
  0
LINE
  8
0
 10
-36.5439
 20
121.844
 11
-36.6963
 21
121.734
  0
LINE
  8
0
 10
-36.6963
 20
121.734
 11
-36.8613
 21
121.643
  0
LINE
  8
0
 10
-36.8613
 20
121.643
 11
-37.0365
 21
121.573
  0
LINE
  8
0
 10
-37.0365
 20
121.573
 11
-37.2189
 21
121.527
  0
LINE
  8
0
 10
-37.2189
 20
121.527
 11
-37.4058
 21
121.503
  0
LINE
  8
0
 10
-37.4058
 20
121.503
 11
-37.5942
 21
121.503
  0
LINE
  8
0
 10
-22.5942
 20
121.503
 11
-22.7811
 21
121.527
  0
LINE
  8
0
 10
-22.7811
 20
121.527
 11
-22.9635
 21
121.573
  0
LINE
  8
0
 10
-22.9635
 20
121.573
 11
-23.1387
 21
121.643
  0
LINE
  8
0
 10
-23.1387
 20
121.643
 11
-23.3037
 21
121.734
  0
LINE
  8
0
 10
-23.3037
 20
121.734
 11
-23.4561
 21
121.844
  0
LINE
  8
0
 10
-23.4561
 20
121.844
 11
-23.5934
 21
121.973
  0
LINE
  8
0
 10
-23.5934
 20
121.973
 11
-23.7135
 21
122.118
  0
LINE
  8
0
 10
-23.7135
 20
122.118
 11
-23.8145
 21
122.277
  0
LINE
  8
0
 10
-23.8145
 20
122.277
 11
-23.8947
 21
122.448
  0
LINE
  8
0
 10
-23.8947
 20
122.448
 11
-23.9529
 21
122.627
  0
LINE
  8
0
 10
-23.9529
 20
122.627
 11
-23.9882
 21
122.812
  0
LINE
  8
0
 10
-23.9882
 20
122.812
 11
-24
 21
123
  0
LINE
  8
0
 10
-24
 20
123
 11
-23.9882
 21
123.188
  0
LINE
  8
0
 10
-23.9882
 20
123.188
 11
-23.9529
 21
123.373
  0
LINE
  8
0
 10
-23.9529
 20
123.373
 11
-23.8947
 21
123.552
  0
LINE
  8
0
 10
-23.8947
 20
123.552
 11
-23.8145
 21
123.723
  0
LINE
  8
0
 10
-23.8145
 20
123.723
 11
-23.7135
 21
123.882
  0
LINE
  8
0
 10
-23.7135
 20
123.882
 11
-23.5934
 21
124.027
  0
LINE
  8
0
 10
-23.5934
 20
124.027
 11
-23.4561
 21
124.156
  0
LINE
  8
0
 10
-23.4561
 20
124.156
 11
-23.3037
 21
124.266
  0
LINE
  8
0
 10
-23.3037
 20
124.266
 11
-23.1387
 21
124.357
  0
LINE
  8
0
 10
-23.1387
 20
124.357
 11
-22.9635
 21
124.427
  0
LINE
  8
0
 10
-22.9635
 20
124.427
 11
-22.7811
 21
124.473
  0
LINE
  8
0
 10
-22.7811
 20
124.473
 11
-22.5942
 21
124.497
  0
LINE
  8
0
 10
-22.5942
 20
124.497
 11
-22.4058
 21
124.497
  0
LINE
  8
0
 10
-22.4058
 20
124.497
 11
-22.2189
 21
124.473
  0
LINE
  8
0
 10
-22.2189
 20
124.473
 11
-22.0365
 21
124.427
  0
LINE
  8
0
 10
-22.0365
 20
124.427
 11
-21.8613
 21
124.357
  0
LINE
  8
0
 10
-21.8613
 20
124.357
 11
-21.6963
 21
124.266
  0
LINE
  8
0
 10
-21.6963
 20
124.266
 11
-21.5439
 21
124.156
  0
LINE
  8
0
 10
-21.5439
 20
124.156
 11
-21.4065
 21
124.027
  0
LINE
  8
0
 10
-21.4065
 20
124.027
 11
-21.2865
 21
123.882
  0
LINE
  8
0
 10
-21.2865
 20
123.882
 11
-21.1855
 21
123.723
  0
LINE
  8
0
 10
-21.1855
 20
123.723
 11
-21.1053
 21
123.552
  0
LINE
  8
0
 10
-21.1053
 20
123.552
 11
-21.0471
 21
123.373
  0
LINE
  8
0
 10
-21.0471
 20
123.373
 11
-21.0118
 21
123.188
  0
LINE
  8
0
 10
-21.0118
 20
123.188
 11
-21
 21
123
  0
LINE
  8
0
 10
-21
 20
123
 11
-21.0118
 21
122.812
  0
LINE
  8
0
 10
-21.0118
 20
122.812
 11
-21.0471
 21
122.627
  0
LINE
  8
0
 10
-21.0471
 20
122.627
 11
-21.1053
 21
122.448
  0
LINE
  8
0
 10
-21.1053
 20
122.448
 11
-21.1855
 21
122.277
  0
LINE
  8
0
 10
-21.1855
 20
122.277
 11
-21.2865
 21
122.118
  0
LINE
  8
0
 10
-21.2865
 20
122.118
 11
-21.4065
 21
121.973
  0
LINE
  8
0
 10
-21.4065
 20
121.973
 11
-21.5439
 21
121.844
  0
LINE
  8
0
 10
-21.5439
 20
121.844
 11
-21.6963
 21
121.734
  0
LINE
  8
0
 10
-21.6963
 20
121.734
 11
-21.8613
 21
121.643
  0
LINE
  8
0
 10
-21.8613
 20
121.643
 11
-22.0365
 21
121.573
  0
LINE
  8
0
 10
-22.0365
 20
121.573
 11
-22.2189
 21
121.527
  0
LINE
  8
0
 10
-22.2189
 20
121.527
 11
-22.4058
 21
121.503
  0
LINE
  8
0
 10
-22.4058
 20
121.503
 11
-22.5942
 21
121.503
  0
LINE
  8
0
 10
-0.910461
 20
93.5286
 11
-2.71703
 21
93.7568
  0
LINE
  8
0
 10
-2.71703
 20
93.7568
 11
-4.48074
 21
94.2097
  0
LINE
  8
0
 10
-4.48074
 20
94.2097
 11
-6.1738
 21
94.88
  0
LINE
  8
0
 10
-6.1738
 20
94.88
 11
-7.76949
 21
95.7572
  0
LINE
  8
0
 10
-7.76949
 20
95.7572
 11
-9.24265
 21
96.8276
  0
LINE
  8
0
 10
-9.24265
 20
96.8276
 11
-10.57
 21
98.0741
  0
LINE
  8
0
 10
-10.57
 20
98.0741
 11
-11.7307
 21
99.4771
  0
LINE
  8
0
 10
-11.7307
 20
99.4771
 11
-12.7064
 21
101.015
  0
LINE
  8
0
 10
-12.7064
 20
101.015
 11
-13.4818
 21
102.662
  0
LINE
  8
0
 10
-13.4818
 20
102.662
 11
-14.0444
 21
104.394
  0
LINE
  8
0
 10
-14.0444
 20
104.394
 11
-14.3857
 21
106.183
  0
LINE
  8
0
 10
-14.3857
 20
106.183
 11
-14.5
 21
108
  0
LINE
  8
0
 10
-14.5
 20
108
 11
-14.3857
 21
109.817
  0
LINE
  8
0
 10
-14.3857
 20
109.817
 11
-14.0444
 21
111.606
  0
LINE
  8
0
 10
-14.0444
 20
111.606
 11
-13.4818
 21
113.338
  0
LINE
  8
0
 10
-13.4818
 20
113.338
 11
-12.7064
 21
114.985
  0
LINE
  8
0
 10
-12.7064
 20
114.985
 11
-11.7307
 21
116.523
  0
LINE
  8
0
 10
-11.7307
 20
116.523
 11
-10.57
 21
117.926
  0
LINE
  8
0
 10
-10.57
 20
117.926
 11
-9.24265
 21
119.172
  0
LINE
  8
0
 10
-9.24265
 20
119.172
 11
-7.76949
 21
120.243
  0
LINE
  8
0
 10
-7.76949
 20
120.243
 11
-6.1738
 21
121.12
  0
LINE
  8
0
 10
-6.1738
 20
121.12
 11
-4.48074
 21
121.79
  0
LINE
  8
0
 10
-4.48074
 20
121.79
 11
-2.71703
 21
122.243
  0
LINE
  8
0
 10
-2.71703
 20
122.243
 11
-0.910461
 21
122.471
  0
LINE
  8
0
 10
-0.910461
 20
122.471
 11
0.910461
 21
122.471
  0
LINE
  8
0
 10
0.910461
 20
122.471
 11
2.71703
 21
122.243
  0
LINE
  8
0
 10
2.71703
 20
122.243
 11
4.48074
 21
121.79
  0
LINE
  8
0
 10
4.48074
 20
121.79
 11
6.1738
 21
121.12
  0
LINE
  8
0
 10
6.1738
 20
121.12
 11
7.76949
 21
120.243
  0
LINE
  8
0
 10
7.76949
 20
120.243
 11
9.24265
 21
119.172
  0
LINE
  8
0
 10
9.24265
 20
119.172
 11
10.57
 21
117.926
  0
LINE
  8
0
 10
10.57
 20
117.926
 11
11.7307
 21
116.523
  0
LINE
  8
0
 10
11.7307
 20
116.523
 11
12.7064
 21
114.985
  0
LINE
  8
0
 10
12.7064
 20
114.985
 11
13.4818
 21
113.338
  0
LINE
  8
0
 10
13.4818
 20
113.338
 11
14.0444
 21
111.606
  0
LINE
  8
0
 10
14.0444
 20
111.606
 11
14.3857
 21
109.817
  0
LINE
  8
0
 10
14.3857
 20
109.817
 11
14.5
 21
108
  0
LINE
  8
0
 10
14.5
 20
108
 11
14.3857
 21
106.183
  0
LINE
  8
0
 10
14.3857
 20
106.183
 11
14.0444
 21
104.394
  0
LINE
  8
0
 10
14.0444
 20
104.394
 11
13.4818
 21
102.662
  0
LINE
  8
0
 10
13.4818
 20
102.662
 11
12.7064
 21
101.015
  0
LINE
  8
0
 10
12.7064
 20
101.015
 11
11.7307
 21
99.4771
  0
LINE
  8
0
 10
11.7307
 20
99.4771
 11
10.57
 21
98.0741
  0
LINE
  8
0
 10
10.57
 20
98.0741
 11
9.24265
 21
96.8276
  0
LINE
  8
0
 10
9.24265
 20
96.8276
 11
7.76949
 21
95.7572
  0
LINE
  8
0
 10
7.76949
 20
95.7572
 11
6.1738
 21
94.88
  0
LINE
  8
0
 10
6.1738
 20
94.88
 11
4.48074
 21
94.2097
  0
LINE
  8
0
 10
4.48074
 20
94.2097
 11
2.71703
 21
93.7568
  0
LINE
  8
0
 10
2.71703
 20
93.7568
 11
0.910461
 21
93.5286
  0
LINE
  8
0
 10
0.910461
 20
93.5286
 11
-0.910461
 21
93.5286
  0
LINE
  8
0
 10
-45.0942
 20
114.003
 11
-45.2811
 21
114.027
  0
LINE
  8
0
 10
-45.2811
 20
114.027
 11
-45.4635
 21
114.073
  0
LINE
  8
0
 10
-45.4635
 20
114.073
 11
-45.6387
 21
114.143
  0
LINE
  8
0
 10
-45.6387
 20
114.143
 11
-45.8037
 21
114.234
  0
LINE
  8
0
 10
-45.8037
 20
114.234
 11
-45.9561
 21
114.344
  0
LINE
  8
0
 10
-45.9561
 20
114.344
 11
-46.0934
 21
114.473
  0
LINE
  8
0
 10
-46.0934
 20
114.473
 11
-46.2135
 21
114.618
  0
LINE
  8
0
 10
-46.2135
 20
114.618
 11
-46.3145
 21
114.777
  0
LINE
  8
0
 10
-46.3145
 20
114.777
 11
-46.3947
 21
114.948
  0
LINE
  8
0
 10
-46.3947
 20
114.948
 11
-46.4529
 21
115.127
  0
LINE
  8
0
 10
-46.4529
 20
115.127
 11
-46.4882
 21
115.312
  0
LINE
  8
0
 10
-46.4882
 20
115.312
 11
-46.5
 21
115.5
  0
LINE
  8
0
 10
-46.5
 20
115.5
 11
-46.4882
 21
115.688
  0
LINE
  8
0
 10
-46.4882
 20
115.688
 11
-46.4529
 21
115.873
  0
LINE
  8
0
 10
-46.4529
 20
115.873
 11
-46.3947
 21
116.052
  0
LINE
  8
0
 10
-46.3947
 20
116.052
 11
-46.3145
 21
116.223
  0
LINE
  8
0
 10
-46.3145
 20
116.223
 11
-46.2135
 21
116.382
  0
LINE
  8
0
 10
-46.2135
 20
116.382
 11
-46.0934
 21
116.527
  0
LINE
  8
0
 10
-46.0934
 20
116.527
 11
-45.9561
 21
116.656
  0
LINE
  8
0
 10
-45.9561
 20
116.656
 11
-45.8037
 21
116.766
  0
LINE
  8
0
 10
-45.8037
 20
116.766
 11
-45.6387
 21
116.857
  0
LINE
  8
0
 10
-45.6387
 20
116.857
 11
-45.4635
 21
116.927
  0
LINE
  8
0
 10
-45.4635
 20
116.927
 11
-45.2811
 21
116.973
  0
LINE
  8
0
 10
-45.2811
 20
116.973
 11
-45.0942
 21
116.997
  0
LINE
  8
0
 10
-45.0942
 20
116.997
 11
-44.9058
 21
116.997
  0
LINE
  8
0
 10
-44.9058
 20
116.997
 11
-44.7189
 21
116.973
  0
LINE
  8
0
 10
-44.7189
 20
116.973
 11
-44.5365
 21
116.927
  0
LINE
  8
0
 10
-44.5365
 20
116.927
 11
-44.3613
 21
116.857
  0
LINE
  8
0
 10
-44.3613
 20
116.857
 11
-44.1963
 21
116.766
  0
LINE
  8
0
 10
-44.1963
 20
116.766
 11
-44.0439
 21
116.656
  0
LINE
  8
0
 10
-44.0439
 20
116.656
 11
-43.9065
 21
116.527
  0
LINE
  8
0
 10
-43.9065
 20
116.527
 11
-43.7865
 21
116.382
  0
LINE
  8
0
 10
-43.7865
 20
116.382
 11
-43.6855
 21
116.223
  0
LINE
  8
0
 10
-43.6855
 20
116.223
 11
-43.6053
 21
116.052
  0
LINE
  8
0
 10
-43.6053
 20
116.052
 11
-43.5471
 21
115.873
  0
LINE
  8
0
 10
-43.5471
 20
115.873
 11
-43.5118
 21
115.688
  0
LINE
  8
0
 10
-43.5118
 20
115.688
 11
-43.5
 21
115.5
  0
LINE
  8
0
 10
-43.5
 20
115.5
 11
-43.5118
 21
115.312
  0
LINE
  8
0
 10
-43.5118
 20
115.312
 11
-43.5471
 21
115.127
  0
LINE
  8
0
 10
-43.5471
 20
115.127
 11
-43.6053
 21
114.948
  0
LINE
  8
0
 10
-43.6053
 20
114.948
 11
-43.6855
 21
114.777
  0
LINE
  8
0
 10
-43.6855
 20
114.777
 11
-43.7865
 21
114.618
  0
LINE
  8
0
 10
-43.7865
 20
114.618
 11
-43.9065
 21
114.473
  0
LINE
  8
0
 10
-43.9065
 20
114.473
 11
-44.0439
 21
114.344
  0
LINE
  8
0
 10
-44.0439
 20
114.344
 11
-44.1963
 21
114.234
  0
LINE
  8
0
 10
-44.1963
 20
114.234
 11
-44.3613
 21
114.143
  0
LINE
  8
0
 10
-44.3613
 20
114.143
 11
-44.5365
 21
114.073
  0
LINE
  8
0
 10
-44.5365
 20
114.073
 11
-44.7189
 21
114.027
  0
LINE
  8
0
 10
-44.7189
 20
114.027
 11
-44.9058
 21
114.003
  0
LINE
  8
0
 10
-44.9058
 20
114.003
 11
-45.0942
 21
114.003
  0
LINE
  8
0
 10
-30.0942
 20
114.003
 11
-30.2811
 21
114.027
  0
LINE
  8
0
 10
-30.2811
 20
114.027
 11
-30.4635
 21
114.073
  0
LINE
  8
0
 10
-30.4635
 20
114.073
 11
-30.6387
 21
114.143
  0
LINE
  8
0
 10
-30.6387
 20
114.143
 11
-30.8037
 21
114.234
  0
LINE
  8
0
 10
-30.8037
 20
114.234
 11
-30.9561
 21
114.344
  0
LINE
  8
0
 10
-30.9561
 20
114.344
 11
-31.0934
 21
114.473
  0
LINE
  8
0
 10
-31.0934
 20
114.473
 11
-31.2135
 21
114.618
  0
LINE
  8
0
 10
-31.2135
 20
114.618
 11
-31.3145
 21
114.777
  0
LINE
  8
0
 10
-31.3145
 20
114.777
 11
-31.3947
 21
114.948
  0
LINE
  8
0
 10
-31.3947
 20
114.948
 11
-31.4529
 21
115.127
  0
LINE
  8
0
 10
-31.4529
 20
115.127
 11
-31.4882
 21
115.312
  0
LINE
  8
0
 10
-31.4882
 20
115.312
 11
-31.5
 21
115.5
  0
LINE
  8
0
 10
-31.5
 20
115.5
 11
-31.4882
 21
115.688
  0
LINE
  8
0
 10
-31.4882
 20
115.688
 11
-31.4529
 21
115.873
  0
LINE
  8
0
 10
-31.4529
 20
115.873
 11
-31.3947
 21
116.052
  0
LINE
  8
0
 10
-31.3947
 20
116.052
 11
-31.3145
 21
116.223
  0
LINE
  8
0
 10
-31.3145
 20
116.223
 11
-31.2135
 21
116.382
  0
LINE
  8
0
 10
-31.2135
 20
116.382
 11
-31.0934
 21
116.527
  0
LINE
  8
0
 10
-31.0934
 20
116.527
 11
-30.9561
 21
116.656
  0
LINE
  8
0
 10
-30.9561
 20
116.656
 11
-30.8037
 21
116.766
  0
LINE
  8
0
 10
-30.8037
 20
116.766
 11
-30.6387
 21
116.857
  0
LINE
  8
0
 10
-30.6387
 20
116.857
 11
-30.4635
 21
116.927
  0
LINE
  8
0
 10
-30.4635
 20
116.927
 11
-30.2811
 21
116.973
  0
LINE
  8
0
 10
-30.2811
 20
116.973
 11
-30.0942
 21
116.997
  0
LINE
  8
0
 10
-30.0942
 20
116.997
 11
-29.9058
 21
116.997
  0
LINE
  8
0
 10
-29.9058
 20
116.997
 11
-29.7189
 21
116.973
  0
LINE
  8
0
 10
-29.7189
 20
116.973
 11
-29.5365
 21
116.927
  0
LINE
  8
0
 10
-29.5365
 20
116.927
 11
-29.3613
 21
116.857
  0
LINE
  8
0
 10
-29.3613
 20
116.857
 11
-29.1963
 21
116.766
  0
LINE
  8
0
 10
-29.1963
 20
116.766
 11
-29.0439
 21
116.656
  0
LINE
  8
0
 10
-29.0439
 20
116.656
 11
-28.9065
 21
116.527
  0
LINE
  8
0
 10
-28.9065
 20
116.527
 11
-28.7865
 21
116.382
  0
LINE
  8
0
 10
-28.7865
 20
116.382
 11
-28.6855
 21
116.223
  0
LINE
  8
0
 10
-28.6855
 20
116.223
 11
-28.6053
 21
116.052
  0
LINE
  8
0
 10
-28.6053
 20
116.052
 11
-28.5471
 21
115.873
  0
LINE
  8
0
 10
-28.5471
 20
115.873
 11
-28.5118
 21
115.688
  0
LINE
  8
0
 10
-28.5118
 20
115.688
 11
-28.5
 21
115.5
  0
LINE
  8
0
 10
-28.5
 20
115.5
 11
-28.5118
 21
115.312
  0
LINE
  8
0
 10
-28.5118
 20
115.312
 11
-28.5471
 21
115.127
  0
LINE
  8
0
 10
-28.5471
 20
115.127
 11
-28.6053
 21
114.948
  0
LINE
  8
0
 10
-28.6053
 20
114.948
 11
-28.6855
 21
114.777
  0
LINE
  8
0
 10
-28.6855
 20
114.777
 11
-28.7865
 21
114.618
  0
LINE
  8
0
 10
-28.7865
 20
114.618
 11
-28.9065
 21
114.473
  0
LINE
  8
0
 10
-28.9065
 20
114.473
 11
-29.0439
 21
114.344
  0
LINE
  8
0
 10
-29.0439
 20
114.344
 11
-29.1963
 21
114.234
  0
LINE
  8
0
 10
-29.1963
 20
114.234
 11
-29.3613
 21
114.143
  0
LINE
  8
0
 10
-29.3613
 20
114.143
 11
-29.5365
 21
114.073
  0
LINE
  8
0
 10
-29.5365
 20
114.073
 11
-29.7189
 21
114.027
  0
LINE
  8
0
 10
-29.7189
 20
114.027
 11
-29.9058
 21
114.003
  0
LINE
  8
0
 10
-29.9058
 20
114.003
 11
-30.0942
 21
114.003
  0
LINE
  8
0
 10
-30.1884
 20
105.006
 11
-30.5621
 21
105.053
  0
LINE
  8
0
 10
-30.5621
 20
105.053
 11
-30.927
 21
105.147
  0
LINE
  8
0
 10
-30.927
 20
105.147
 11
-31.2773
 21
105.286
  0
LINE
  8
0
 10
-31.2773
 20
105.286
 11
-31.6075
 21
105.467
  0
LINE
  8
0
 10
-31.6075
 20
105.467
 11
-31.9123
 21
105.688
  0
LINE
  8
0
 10
-31.9123
 20
105.688
 11
-32.1869
 21
105.946
  0
LINE
  8
0
 10
-32.1869
 20
105.946
 11
-32.427
 21
106.237
  0
LINE
  8
0
 10
-32.427
 20
106.237
 11
-32.6289
 21
106.555
  0
LINE
  8
0
 10
-32.6289
 20
106.555
 11
-32.7893
 21
106.896
  0
LINE
  8
0
 10
-32.7893
 20
106.896
 11
-32.9057
 21
107.254
  0
LINE
  8
0
 10
-32.9057
 20
107.254
 11
-32.9763
 21
107.624
  0
LINE
  8
0
 10
-32.9763
 20
107.624
 11
-33
 21
108
  0
LINE
  8
0
 10
-33
 20
108
 11
-32.9763
 21
108.376
  0
LINE
  8
0
 10
-32.9763
 20
108.376
 11
-32.9057
 21
108.746
  0
LINE
  8
0
 10
-32.9057
 20
108.746
 11
-32.7893
 21
109.104
  0
LINE
  8
0
 10
-32.7893
 20
109.104
 11
-32.6289
 21
109.445
  0
LINE
  8
0
 10
-32.6289
 20
109.445
 11
-32.427
 21
109.763
  0
LINE
  8
0
 10
-32.427
 20
109.763
 11
-32.1869
 21
110.054
  0
LINE
  8
0
 10
-32.1869
 20
110.054
 11
-31.9123
 21
110.312
  0
LINE
  8
0
 10
-31.9123
 20
110.312
 11
-31.6075
 21
110.533
  0
LINE
  8
0
 10
-31.6075
 20
110.533
 11
-31.2773
 21
110.714
  0
LINE
  8
0
 10
-31.2773
 20
110.714
 11
-30.927
 21
110.853
  0
LINE
  8
0
 10
-30.927
 20
110.853
 11
-30.5621
 21
110.947
  0
LINE
  8
0
 10
-30.5621
 20
110.947
 11
-30.1884
 21
110.994
  0
LINE
  8
0
 10
-30.1884
 20
110.994
 11
-29.8116
 21
110.994
  0
LINE
  8
0
 10
-29.8116
 20
110.994
 11
-29.4379
 21
110.947
  0
LINE
  8
0
 10
-29.4379
 20
110.947
 11
-29.0729
 21
110.853
  0
LINE
  8
0
 10
-29.0729
 20
110.853
 11
-28.7227
 21
110.714
  0
LINE
  8
0
 10
-28.7227
 20
110.714
 11
-28.3925
 21
110.533
  0
LINE
  8
0
 10
-28.3925
 20
110.533
 11
-28.0877
 21
110.312
  0
LINE
  8
0
 10
-28.0877
 20
110.312
 11
-27.8131
 21
110.054
  0
LINE
  8
0
 10
-27.8131
 20
110.054
 11
-27.5729
 21
109.763
  0
LINE
  8
0
 10
-27.5729
 20
109.763
 11
-27.3711
 21
109.445
  0
LINE
  8
0
 10
-27.3711
 20
109.445
 11
-27.2107
 21
109.104
  0
LINE
  8
0
 10
-27.2107
 20
109.104
 11
-27.0942
 21
108.746
  0
LINE
  8
0
 10
-27.0942
 20
108.746
 11
-27.0237
 21
108.376
  0
LINE
  8
0
 10
-27.0237
 20
108.376
 11
-27
 21
108
  0
LINE
  8
0
 10
-27
 20
108
 11
-27.0237
 21
107.624
  0
LINE
  8
0
 10
-27.0237
 20
107.624
 11
-27.0942
 21
107.254
  0
LINE
  8
0
 10
-27.0942
 20
107.254
 11
-27.2107
 21
106.896
  0
LINE
  8
0
 10
-27.2107
 20
106.896
 11
-27.3711
 21
106.555
  0
LINE
  8
0
 10
-27.3711
 20
106.555
 11
-27.5729
 21
106.237
  0
LINE
  8
0
 10
-27.5729
 20
106.237
 11
-27.8131
 21
105.946
  0
LINE
  8
0
 10
-27.8131
 20
105.946
 11
-28.0877
 21
105.688
  0
LINE
  8
0
 10
-28.0877
 20
105.688
 11
-28.3925
 21
105.467
  0
LINE
  8
0
 10
-28.3925
 20
105.467
 11
-28.7227
 21
105.286
  0
LINE
  8
0
 10
-28.7227
 20
105.286
 11
-29.0729
 21
105.147
  0
LINE
  8
0
 10
-29.0729
 20
105.147
 11
-29.4379
 21
105.053
  0
LINE
  8
0
 10
-29.4379
 20
105.053
 11
-29.8116
 21
105.006
  0
LINE
  8
0
 10
-29.8116
 20
105.006
 11
-30.1884
 21
105.006
  0
LINE
  8
0
 10
-45.1884
 20
105.006
 11
-45.5621
 21
105.053
  0
LINE
  8
0
 10
-45.5621
 20
105.053
 11
-45.927
 21
105.147
  0
LINE
  8
0
 10
-45.927
 20
105.147
 11
-46.2773
 21
105.286
  0
LINE
  8
0
 10
-46.2773
 20
105.286
 11
-46.6075
 21
105.467
  0
LINE
  8
0
 10
-46.6075
 20
105.467
 11
-46.9123
 21
105.688
  0
LINE
  8
0
 10
-46.9123
 20
105.688
 11
-47.1869
 21
105.946
  0
LINE
  8
0
 10
-47.1869
 20
105.946
 11
-47.427
 21
106.237
  0
LINE
  8
0
 10
-47.427
 20
106.237
 11
-47.6289
 21
106.555
  0
LINE
  8
0
 10
-47.6289
 20
106.555
 11
-47.7893
 21
106.896
  0
LINE
  8
0
 10
-47.7893
 20
106.896
 11
-47.9057
 21
107.254
  0
LINE
  8
0
 10
-47.9057
 20
107.254
 11
-47.9763
 21
107.624
  0
LINE
  8
0
 10
-47.9763
 20
107.624
 11
-48
 21
108
  0
LINE
  8
0
 10
-48
 20
108
 11
-47.9763
 21
108.376
  0
LINE
  8
0
 10
-47.9763
 20
108.376
 11
-47.9057
 21
108.746
  0
LINE
  8
0
 10
-47.9057
 20
108.746
 11
-47.7893
 21
109.104
  0
LINE
  8
0
 10
-47.7893
 20
109.104
 11
-47.6289
 21
109.445
  0
LINE
  8
0
 10
-47.6289
 20
109.445
 11
-47.427
 21
109.763
  0
LINE
  8
0
 10
-47.427
 20
109.763
 11
-47.1869
 21
110.054
  0
LINE
  8
0
 10
-47.1869
 20
110.054
 11
-46.9123
 21
110.312
  0
LINE
  8
0
 10
-46.9123
 20
110.312
 11
-46.6075
 21
110.533
  0
LINE
  8
0
 10
-46.6075
 20
110.533
 11
-46.2773
 21
110.714
  0
LINE
  8
0
 10
-46.2773
 20
110.714
 11
-45.927
 21
110.853
  0
LINE
  8
0
 10
-45.927
 20
110.853
 11
-45.5621
 21
110.947
  0
LINE
  8
0
 10
-45.5621
 20
110.947
 11
-45.1884
 21
110.994
  0
LINE
  8
0
 10
-45.1884
 20
110.994
 11
-44.8116
 21
110.994
  0
LINE
  8
0
 10
-44.8116
 20
110.994
 11
-44.4379
 21
110.947
  0
LINE
  8
0
 10
-44.4379
 20
110.947
 11
-44.0729
 21
110.853
  0
LINE
  8
0
 10
-44.0729
 20
110.853
 11
-43.7227
 21
110.714
  0
LINE
  8
0
 10
-43.7227
 20
110.714
 11
-43.3925
 21
110.533
  0
LINE
  8
0
 10
-43.3925
 20
110.533
 11
-43.0877
 21
110.312
  0
LINE
  8
0
 10
-43.0877
 20
110.312
 11
-42.8131
 21
110.054
  0
LINE
  8
0
 10
-42.8131
 20
110.054
 11
-42.5729
 21
109.763
  0
LINE
  8
0
 10
-42.5729
 20
109.763
 11
-42.3711
 21
109.445
  0
LINE
  8
0
 10
-42.3711
 20
109.445
 11
-42.2107
 21
109.104
  0
LINE
  8
0
 10
-42.2107
 20
109.104
 11
-42.0942
 21
108.746
  0
LINE
  8
0
 10
-42.0942
 20
108.746
 11
-42.0237
 21
108.376
  0
LINE
  8
0
 10
-42.0237
 20
108.376
 11
-42
 21
108
  0
LINE
  8
0
 10
-42
 20
108
 11
-42.0237
 21
107.624
  0
LINE
  8
0
 10
-42.0237
 20
107.624
 11
-42.0942
 21
107.254
  0
LINE
  8
0
 10
-42.0942
 20
107.254
 11
-42.2107
 21
106.896
  0
LINE
  8
0
 10
-42.2107
 20
106.896
 11
-42.3711
 21
106.555
  0
LINE
  8
0
 10
-42.3711
 20
106.555
 11
-42.5729
 21
106.237
  0
LINE
  8
0
 10
-42.5729
 20
106.237
 11
-42.8131
 21
105.946
  0
LINE
  8
0
 10
-42.8131
 20
105.946
 11
-43.0877
 21
105.688
  0
LINE
  8
0
 10
-43.0877
 20
105.688
 11
-43.3925
 21
105.467
  0
LINE
  8
0
 10
-43.3925
 20
105.467
 11
-43.7227
 21
105.286
  0
LINE
  8
0
 10
-43.7227
 20
105.286
 11
-44.0729
 21
105.147
  0
LINE
  8
0
 10
-44.0729
 20
105.147
 11
-44.4379
 21
105.053
  0
LINE
  8
0
 10
-44.4379
 20
105.053
 11
-44.8116
 21
105.006
  0
LINE
  8
0
 10
-44.8116
 20
105.006
 11
-45.1884
 21
105.006
  0
LINE
  8
0
 10
-37.5942
 20
106.503
 11
-37.7811
 21
106.527
  0
LINE
  8
0
 10
-37.7811
 20
106.527
 11
-37.9635
 21
106.573
  0
LINE
  8
0
 10
-37.9635
 20
106.573
 11
-38.1387
 21
106.643
  0
LINE
  8
0
 10
-38.1387
 20
106.643
 11
-38.3037
 21
106.734
  0
LINE
  8
0
 10
-38.3037
 20
106.734
 11
-38.4561
 21
106.844
  0
LINE
  8
0
 10
-38.4561
 20
106.844
 11
-38.5934
 21
106.973
  0
LINE
  8
0
 10
-38.5934
 20
106.973
 11
-38.7135
 21
107.118
  0
LINE
  8
0
 10
-38.7135
 20
107.118
 11
-38.8145
 21
107.277
  0
LINE
  8
0
 10
-38.8145
 20
107.277
 11
-38.8947
 21
107.448
  0
LINE
  8
0
 10
-38.8947
 20
107.448
 11
-38.9529
 21
107.627
  0
LINE
  8
0
 10
-38.9529
 20
107.627
 11
-38.9882
 21
107.812
  0
LINE
  8
0
 10
-38.9882
 20
107.812
 11
-39
 21
108
  0
LINE
  8
0
 10
-39
 20
108
 11
-38.9882
 21
108.188
  0
LINE
  8
0
 10
-38.9882
 20
108.188
 11
-38.9529
 21
108.373
  0
LINE
  8
0
 10
-38.9529
 20
108.373
 11
-38.8947
 21
108.552
  0
LINE
  8
0
 10
-38.8947
 20
108.552
 11
-38.8145
 21
108.723
  0
LINE
  8
0
 10
-38.8145
 20
108.723
 11
-38.7135
 21
108.882
  0
LINE
  8
0
 10
-38.7135
 20
108.882
 11
-38.5934
 21
109.027
  0
LINE
  8
0
 10
-38.5934
 20
109.027
 11
-38.4561
 21
109.156
  0
LINE
  8
0
 10
-38.4561
 20
109.156
 11
-38.3037
 21
109.266
  0
LINE
  8
0
 10
-38.3037
 20
109.266
 11
-38.1387
 21
109.357
  0
LINE
  8
0
 10
-38.1387
 20
109.357
 11
-37.9635
 21
109.427
  0
LINE
  8
0
 10
-37.9635
 20
109.427
 11
-37.7811
 21
109.473
  0
LINE
  8
0
 10
-37.7811
 20
109.473
 11
-37.5942
 21
109.497
  0
LINE
  8
0
 10
-37.5942
 20
109.497
 11
-37.4058
 21
109.497
  0
LINE
  8
0
 10
-37.4058
 20
109.497
 11
-37.2189
 21
109.473
  0
LINE
  8
0
 10
-37.2189
 20
109.473
 11
-37.0365
 21
109.427
  0
LINE
  8
0
 10
-37.0365
 20
109.427
 11
-36.8613
 21
109.357
  0
LINE
  8
0
 10
-36.8613
 20
109.357
 11
-36.6963
 21
109.266
  0
LINE
  8
0
 10
-36.6963
 20
109.266
 11
-36.5439
 21
109.156
  0
LINE
  8
0
 10
-36.5439
 20
109.156
 11
-36.4065
 21
109.027
  0
LINE
  8
0
 10
-36.4065
 20
109.027
 11
-36.2865
 21
108.882
  0
LINE
  8
0
 10
-36.2865
 20
108.882
 11
-36.1855
 21
108.723
  0
LINE
  8
0
 10
-36.1855
 20
108.723
 11
-36.1053
 21
108.552
  0
LINE
  8
0
 10
-36.1053
 20
108.552
 11
-36.0471
 21
108.373
  0
LINE
  8
0
 10
-36.0471
 20
108.373
 11
-36.0118
 21
108.188
  0
LINE
  8
0
 10
-36.0118
 20
108.188
 11
-36
 21
108
  0
LINE
  8
0
 10
-36
 20
108
 11
-36.0118
 21
107.812
  0
LINE
  8
0
 10
-36.0118
 20
107.812
 11
-36.0471
 21
107.627
  0
LINE
  8
0
 10
-36.0471
 20
107.627
 11
-36.1053
 21
107.448
  0
LINE
  8
0
 10
-36.1053
 20
107.448
 11
-36.1855
 21
107.277
  0
LINE
  8
0
 10
-36.1855
 20
107.277
 11
-36.2865
 21
107.118
  0
LINE
  8
0
 10
-36.2865
 20
107.118
 11
-36.4065
 21
106.973
  0
LINE
  8
0
 10
-36.4065
 20
106.973
 11
-36.5439
 21
106.844
  0
LINE
  8
0
 10
-36.5439
 20
106.844
 11
-36.6963
 21
106.734
  0
LINE
  8
0
 10
-36.6963
 20
106.734
 11
-36.8613
 21
106.643
  0
LINE
  8
0
 10
-36.8613
 20
106.643
 11
-37.0365
 21
106.573
  0
LINE
  8
0
 10
-37.0365
 20
106.573
 11
-37.2189
 21
106.527
  0
LINE
  8
0
 10
-37.2189
 20
106.527
 11
-37.4058
 21
106.503
  0
LINE
  8
0
 10
-37.4058
 20
106.503
 11
-37.5942
 21
106.503
  0
LINE
  8
0
 10
-45.0942
 20
99.003
 11
-45.2811
 21
99.0266
  0
LINE
  8
0
 10
-45.2811
 20
99.0266
 11
-45.4635
 21
99.0734
  0
LINE
  8
0
 10
-45.4635
 20
99.0734
 11
-45.6387
 21
99.1428
  0
LINE
  8
0
 10
-45.6387
 20
99.1428
 11
-45.8037
 21
99.2335
  0
LINE
  8
0
 10
-45.8037
 20
99.2335
 11
-45.9561
 21
99.3442
  0
LINE
  8
0
 10
-45.9561
 20
99.3442
 11
-46.0934
 21
99.4732
  0
LINE
  8
0
 10
-46.0934
 20
99.4732
 11
-46.2135
 21
99.6183
  0
LINE
  8
0
 10
-46.2135
 20
99.6183
 11
-46.3145
 21
99.7774
  0
LINE
  8
0
 10
-46.3145
 20
99.7774
 11
-46.3947
 21
99.9478
  0
LINE
  8
0
 10
-46.3947
 20
99.9478
 11
-46.4529
 21
100.127
  0
LINE
  8
0
 10
-46.4529
 20
100.127
 11
-46.4882
 21
100.312
  0
LINE
  8
0
 10
-46.4882
 20
100.312
 11
-46.5
 21
100.5
  0
LINE
  8
0
 10
-46.5
 20
100.5
 11
-46.4882
 21
100.688
  0
LINE
  8
0
 10
-46.4882
 20
100.688
 11
-46.4529
 21
100.873
  0
LINE
  8
0
 10
-46.4529
 20
100.873
 11
-46.3947
 21
101.052
  0
LINE
  8
0
 10
-46.3947
 20
101.052
 11
-46.3145
 21
101.223
  0
LINE
  8
0
 10
-46.3145
 20
101.223
 11
-46.2135
 21
101.382
  0
LINE
  8
0
 10
-46.2135
 20
101.382
 11
-46.0934
 21
101.527
  0
LINE
  8
0
 10
-46.0934
 20
101.527
 11
-45.9561
 21
101.656
  0
LINE
  8
0
 10
-45.9561
 20
101.656
 11
-45.8037
 21
101.766
  0
LINE
  8
0
 10
-45.8037
 20
101.766
 11
-45.6387
 21
101.857
  0
LINE
  8
0
 10
-45.6387
 20
101.857
 11
-45.4635
 21
101.927
  0
LINE
  8
0
 10
-45.4635
 20
101.927
 11
-45.2811
 21
101.973
  0
LINE
  8
0
 10
-45.2811
 20
101.973
 11
-45.0942
 21
101.997
  0
LINE
  8
0
 10
-45.0942
 20
101.997
 11
-44.9058
 21
101.997
  0
LINE
  8
0
 10
-44.9058
 20
101.997
 11
-44.7189
 21
101.973
  0
LINE
  8
0
 10
-44.7189
 20
101.973
 11
-44.5365
 21
101.927
  0
LINE
  8
0
 10
-44.5365
 20
101.927
 11
-44.3613
 21
101.857
  0
LINE
  8
0
 10
-44.3613
 20
101.857
 11
-44.1963
 21
101.766
  0
LINE
  8
0
 10
-44.1963
 20
101.766
 11
-44.0439
 21
101.656
  0
LINE
  8
0
 10
-44.0439
 20
101.656
 11
-43.9065
 21
101.527
  0
LINE
  8
0
 10
-43.9065
 20
101.527
 11
-43.7865
 21
101.382
  0
LINE
  8
0
 10
-43.7865
 20
101.382
 11
-43.6855
 21
101.223
  0
LINE
  8
0
 10
-43.6855
 20
101.223
 11
-43.6053
 21
101.052
  0
LINE
  8
0
 10
-43.6053
 20
101.052
 11
-43.5471
 21
100.873
  0
LINE
  8
0
 10
-43.5471
 20
100.873
 11
-43.5118
 21
100.688
  0
LINE
  8
0
 10
-43.5118
 20
100.688
 11
-43.5
 21
100.5
  0
LINE
  8
0
 10
-43.5
 20
100.5
 11
-43.5118
 21
100.312
  0
LINE
  8
0
 10
-43.5118
 20
100.312
 11
-43.5471
 21
100.127
  0
LINE
  8
0
 10
-43.5471
 20
100.127
 11
-43.6053
 21
99.9478
  0
LINE
  8
0
 10
-43.6053
 20
99.9478
 11
-43.6855
 21
99.7774
  0
LINE
  8
0
 10
-43.6855
 20
99.7774
 11
-43.7865
 21
99.6183
  0
LINE
  8
0
 10
-43.7865
 20
99.6183
 11
-43.9065
 21
99.4732
  0
LINE
  8
0
 10
-43.9065
 20
99.4732
 11
-44.0439
 21
99.3442
  0
LINE
  8
0
 10
-44.0439
 20
99.3442
 11
-44.1963
 21
99.2335
  0
LINE
  8
0
 10
-44.1963
 20
99.2335
 11
-44.3613
 21
99.1428
  0
LINE
  8
0
 10
-44.3613
 20
99.1428
 11
-44.5365
 21
99.0734
  0
LINE
  8
0
 10
-44.5365
 20
99.0734
 11
-44.7189
 21
99.0266
  0
LINE
  8
0
 10
-44.7189
 20
99.0266
 11
-44.9058
 21
99.003
  0
LINE
  8
0
 10
-44.9058
 20
99.003
 11
-45.0942
 21
99.003
  0
LINE
  8
0
 10
-30.0942
 20
99.003
 11
-30.2811
 21
99.0266
  0
LINE
  8
0
 10
-30.2811
 20
99.0266
 11
-30.4635
 21
99.0734
  0
LINE
  8
0
 10
-30.4635
 20
99.0734
 11
-30.6387
 21
99.1428
  0
LINE
  8
0
 10
-30.6387
 20
99.1428
 11
-30.8037
 21
99.2335
  0
LINE
  8
0
 10
-30.8037
 20
99.2335
 11
-30.9561
 21
99.3442
  0
LINE
  8
0
 10
-30.9561
 20
99.3442
 11
-31.0934
 21
99.4732
  0
LINE
  8
0
 10
-31.0934
 20
99.4732
 11
-31.2135
 21
99.6183
  0
LINE
  8
0
 10
-31.2135
 20
99.6183
 11
-31.3145
 21
99.7774
  0
LINE
  8
0
 10
-31.3145
 20
99.7774
 11
-31.3947
 21
99.9478
  0
LINE
  8
0
 10
-31.3947
 20
99.9478
 11
-31.4529
 21
100.127
  0
LINE
  8
0
 10
-31.4529
 20
100.127
 11
-31.4882
 21
100.312
  0
LINE
  8
0
 10
-31.4882
 20
100.312
 11
-31.5
 21
100.5
  0
LINE
  8
0
 10
-31.5
 20
100.5
 11
-31.4882
 21
100.688
  0
LINE
  8
0
 10
-31.4882
 20
100.688
 11
-31.4529
 21
100.873
  0
LINE
  8
0
 10
-31.4529
 20
100.873
 11
-31.3947
 21
101.052
  0
LINE
  8
0
 10
-31.3947
 20
101.052
 11
-31.3145
 21
101.223
  0
LINE
  8
0
 10
-31.3145
 20
101.223
 11
-31.2135
 21
101.382
  0
LINE
  8
0
 10
-31.2135
 20
101.382
 11
-31.0934
 21
101.527
  0
LINE
  8
0
 10
-31.0934
 20
101.527
 11
-30.9561
 21
101.656
  0
LINE
  8
0
 10
-30.9561
 20
101.656
 11
-30.8037
 21
101.766
  0
LINE
  8
0
 10
-30.8037
 20
101.766
 11
-30.6387
 21
101.857
  0
LINE
  8
0
 10
-30.6387
 20
101.857
 11
-30.4635
 21
101.927
  0
LINE
  8
0
 10
-30.4635
 20
101.927
 11
-30.2811
 21
101.973
  0
LINE
  8
0
 10
-30.2811
 20
101.973
 11
-30.0942
 21
101.997
  0
LINE
  8
0
 10
-30.0942
 20
101.997
 11
-29.9058
 21
101.997
  0
LINE
  8
0
 10
-29.9058
 20
101.997
 11
-29.7189
 21
101.973
  0
LINE
  8
0
 10
-29.7189
 20
101.973
 11
-29.5365
 21
101.927
  0
LINE
  8
0
 10
-29.5365
 20
101.927
 11
-29.3613
 21
101.857
  0
LINE
  8
0
 10
-29.3613
 20
101.857
 11
-29.1963
 21
101.766
  0
LINE
  8
0
 10
-29.1963
 20
101.766
 11
-29.0439
 21
101.656
  0
LINE
  8
0
 10
-29.0439
 20
101.656
 11
-28.9065
 21
101.527
  0
LINE
  8
0
 10
-28.9065
 20
101.527
 11
-28.7865
 21
101.382
  0
LINE
  8
0
 10
-28.7865
 20
101.382
 11
-28.6855
 21
101.223
  0
LINE
  8
0
 10
-28.6855
 20
101.223
 11
-28.6053
 21
101.052
  0
LINE
  8
0
 10
-28.6053
 20
101.052
 11
-28.5471
 21
100.873
  0
LINE
  8
0
 10
-28.5471
 20
100.873
 11
-28.5118
 21
100.688
  0
LINE
  8
0
 10
-28.5118
 20
100.688
 11
-28.5
 21
100.5
  0
LINE
  8
0
 10
-28.5
 20
100.5
 11
-28.5118
 21
100.312
  0
LINE
  8
0
 10
-28.5118
 20
100.312
 11
-28.5471
 21
100.127
  0
LINE
  8
0
 10
-28.5471
 20
100.127
 11
-28.6053
 21
99.9478
  0
LINE
  8
0
 10
-28.6053
 20
99.9478
 11
-28.6855
 21
99.7774
  0
LINE
  8
0
 10
-28.6855
 20
99.7774
 11
-28.7865
 21
99.6183
  0
LINE
  8
0
 10
-28.7865
 20
99.6183
 11
-28.9065
 21
99.4732
  0
LINE
  8
0
 10
-28.9065
 20
99.4732
 11
-29.0439
 21
99.3442
  0
LINE
  8
0
 10
-29.0439
 20
99.3442
 11
-29.1963
 21
99.2335
  0
LINE
  8
0
 10
-29.1963
 20
99.2335
 11
-29.3613
 21
99.1428
  0
LINE
  8
0
 10
-29.3613
 20
99.1428
 11
-29.5365
 21
99.0734
  0
LINE
  8
0
 10
-29.5365
 20
99.0734
 11
-29.7189
 21
99.0266
  0
LINE
  8
0
 10
-29.7189
 20
99.0266
 11
-29.9058
 21
99.003
  0
LINE
  8
0
 10
-29.9058
 20
99.003
 11
-30.0942
 21
99.003
  0
LINE
  8
0
 10
-45.1884
 20
90.0059
 11
-45.5621
 21
90.0531
  0
LINE
  8
0
 10
-45.5621
 20
90.0531
 11
-45.927
 21
90.1468
  0
LINE
  8
0
 10
-45.927
 20
90.1468
 11
-46.2773
 21
90.2855
  0
LINE
  8
0
 10
-46.2773
 20
90.2855
 11
-46.6075
 21
90.467
  0
LINE
  8
0
 10
-46.6075
 20
90.467
 11
-46.9123
 21
90.6885
  0
LINE
  8
0
 10
-46.9123
 20
90.6885
 11
-47.1869
 21
90.9464
  0
LINE
  8
0
 10
-47.1869
 20
90.9464
 11
-47.427
 21
91.2366
  0
LINE
  8
0
 10
-47.427
 20
91.2366
 11
-47.6289
 21
91.5547
  0
LINE
  8
0
 10
-47.6289
 20
91.5547
 11
-47.7893
 21
91.8956
  0
LINE
  8
0
 10
-47.7893
 20
91.8956
 11
-47.9057
 21
92.2539
  0
LINE
  8
0
 10
-47.9057
 20
92.2539
 11
-47.9763
 21
92.624
  0
LINE
  8
0
 10
-47.9763
 20
92.624
 11
-48
 21
93
  0
LINE
  8
0
 10
-48
 20
93
 11
-47.9763
 21
93.376
  0
LINE
  8
0
 10
-47.9763
 20
93.376
 11
-47.9057
 21
93.7461
  0
LINE
  8
0
 10
-47.9057
 20
93.7461
 11
-47.7893
 21
94.1044
  0
LINE
  8
0
 10
-47.7893
 20
94.1044
 11
-47.6289
 21
94.4453
  0
LINE
  8
0
 10
-47.6289
 20
94.4453
 11
-47.427
 21
94.7634
  0
LINE
  8
0
 10
-47.427
 20
94.7634
 11
-47.1869
 21
95.0536
  0
LINE
  8
0
 10
-47.1869
 20
95.0536
 11
-46.9123
 21
95.3116
  0
LINE
  8
0
 10
-46.9123
 20
95.3116
 11
-46.6075
 21
95.533
  0
LINE
  8
0
 10
-46.6075
 20
95.533
 11
-46.2773
 21
95.7145
  0
LINE
  8
0
 10
-46.2773
 20
95.7145
 11
-45.927
 21
95.8532
  0
LINE
  8
0
 10
-45.927
 20
95.8532
 11
-45.5621
 21
95.9469
  0
LINE
  8
0
 10
-45.5621
 20
95.9469
 11
-45.1884
 21
95.9941
  0
LINE
  8
0
 10
-45.1884
 20
95.9941
 11
-44.8116
 21
95.9941
  0
LINE
  8
0
 10
-44.8116
 20
95.9941
 11
-44.4379
 21
95.9469
  0
LINE
  8
0
 10
-44.4379
 20
95.9469
 11
-44.0729
 21
95.8532
  0
LINE
  8
0
 10
-44.0729
 20
95.8532
 11
-43.7227
 21
95.7145
  0
LINE
  8
0
 10
-43.7227
 20
95.7145
 11
-43.3925
 21
95.533
  0
LINE
  8
0
 10
-43.3925
 20
95.533
 11
-43.0877
 21
95.3116
  0
LINE
  8
0
 10
-43.0877
 20
95.3116
 11
-42.8131
 21
95.0536
  0
LINE
  8
0
 10
-42.8131
 20
95.0536
 11
-42.5729
 21
94.7634
  0
LINE
  8
0
 10
-42.5729
 20
94.7634
 11
-42.3711
 21
94.4453
  0
LINE
  8
0
 10
-42.3711
 20
94.4453
 11
-42.2107
 21
94.1044
  0
LINE
  8
0
 10
-42.2107
 20
94.1044
 11
-42.0942
 21
93.7461
  0
LINE
  8
0
 10
-42.0942
 20
93.7461
 11
-42.0237
 21
93.376
  0
LINE
  8
0
 10
-42.0237
 20
93.376
 11
-42
 21
93
  0
LINE
  8
0
 10
-42
 20
93
 11
-42.0237
 21
92.624
  0
LINE
  8
0
 10
-42.0237
 20
92.624
 11
-42.0942
 21
92.2539
  0
LINE
  8
0
 10
-42.0942
 20
92.2539
 11
-42.2107
 21
91.8956
  0
LINE
  8
0
 10
-42.2107
 20
91.8956
 11
-42.3711
 21
91.5547
  0
LINE
  8
0
 10
-42.3711
 20
91.5547
 11
-42.5729
 21
91.2366
  0
LINE
  8
0
 10
-42.5729
 20
91.2366
 11
-42.8131
 21
90.9464
  0
LINE
  8
0
 10
-42.8131
 20
90.9464
 11
-43.0877
 21
90.6885
  0
LINE
  8
0
 10
-43.0877
 20
90.6885
 11
-43.3925
 21
90.467
  0
LINE
  8
0
 10
-43.3925
 20
90.467
 11
-43.7227
 21
90.2855
  0
LINE
  8
0
 10
-43.7227
 20
90.2855
 11
-44.0729
 21
90.1468
  0
LINE
  8
0
 10
-44.0729
 20
90.1468
 11
-44.4379
 21
90.0531
  0
LINE
  8
0
 10
-44.4379
 20
90.0531
 11
-44.8116
 21
90.0059
  0
LINE
  8
0
 10
-44.8116
 20
90.0059
 11
-45.1884
 21
90.0059
  0
LINE
  8
0
 10
-30.1884
 20
90.0059
 11
-30.5621
 21
90.0531
  0
LINE
  8
0
 10
-30.5621
 20
90.0531
 11
-30.927
 21
90.1468
  0
LINE
  8
0
 10
-30.927
 20
90.1468
 11
-31.2773
 21
90.2855
  0
LINE
  8
0
 10
-31.2773
 20
90.2855
 11
-31.6075
 21
90.467
  0
LINE
  8
0
 10
-31.6075
 20
90.467
 11
-31.9123
 21
90.6885
  0
LINE
  8
0
 10
-31.9123
 20
90.6885
 11
-32.1869
 21
90.9464
  0
LINE
  8
0
 10
-32.1869
 20
90.9464
 11
-32.427
 21
91.2366
  0
LINE
  8
0
 10
-32.427
 20
91.2366
 11
-32.6289
 21
91.5547
  0
LINE
  8
0
 10
-32.6289
 20
91.5547
 11
-32.7893
 21
91.8956
  0
LINE
  8
0
 10
-32.7893
 20
91.8956
 11
-32.9057
 21
92.2539
  0
LINE
  8
0
 10
-32.9057
 20
92.2539
 11
-32.9763
 21
92.624
  0
LINE
  8
0
 10
-32.9763
 20
92.624
 11
-33
 21
93
  0
LINE
  8
0
 10
-33
 20
93
 11
-32.9763
 21
93.376
  0
LINE
  8
0
 10
-32.9763
 20
93.376
 11
-32.9057
 21
93.7461
  0
LINE
  8
0
 10
-32.9057
 20
93.7461
 11
-32.7893
 21
94.1044
  0
LINE
  8
0
 10
-32.7893
 20
94.1044
 11
-32.6289
 21
94.4453
  0
LINE
  8
0
 10
-32.6289
 20
94.4453
 11
-32.427
 21
94.7634
  0
LINE
  8
0
 10
-32.427
 20
94.7634
 11
-32.1869
 21
95.0536
  0
LINE
  8
0
 10
-32.1869
 20
95.0536
 11
-31.9123
 21
95.3116
  0
LINE
  8
0
 10
-31.9123
 20
95.3116
 11
-31.6075
 21
95.533
  0
LINE
  8
0
 10
-31.6075
 20
95.533
 11
-31.2773
 21
95.7145
  0
LINE
  8
0
 10
-31.2773
 20
95.7145
 11
-30.927
 21
95.8532
  0
LINE
  8
0
 10
-30.927
 20
95.8532
 11
-30.5621
 21
95.9469
  0
LINE
  8
0
 10
-30.5621
 20
95.9469
 11
-30.1884
 21
95.9941
  0
LINE
  8
0
 10
-30.1884
 20
95.9941
 11
-29.8116
 21
95.9941
  0
LINE
  8
0
 10
-29.8116
 20
95.9941
 11
-29.4379
 21
95.9469
  0
LINE
  8
0
 10
-29.4379
 20
95.9469
 11
-29.0729
 21
95.8532
  0
LINE
  8
0
 10
-29.0729
 20
95.8532
 11
-28.7227
 21
95.7145
  0
LINE
  8
0
 10
-28.7227
 20
95.7145
 11
-28.3925
 21
95.533
  0
LINE
  8
0
 10
-28.3925
 20
95.533
 11
-28.0877
 21
95.3116
  0
LINE
  8
0
 10
-28.0877
 20
95.3116
 11
-27.8131
 21
95.0536
  0
LINE
  8
0
 10
-27.8131
 20
95.0536
 11
-27.5729
 21
94.7634
  0
LINE
  8
0
 10
-27.5729
 20
94.7634
 11
-27.3711
 21
94.4453
  0
LINE
  8
0
 10
-27.3711
 20
94.4453
 11
-27.2107
 21
94.1044
  0
LINE
  8
0
 10
-27.2107
 20
94.1044
 11
-27.0942
 21
93.7461
  0
LINE
  8
0
 10
-27.0942
 20
93.7461
 11
-27.0237
 21
93.376
  0
LINE
  8
0
 10
-27.0237
 20
93.376
 11
-27
 21
93
  0
LINE
  8
0
 10
-27
 20
93
 11
-27.0237
 21
92.624
  0
LINE
  8
0
 10
-27.0237
 20
92.624
 11
-27.0942
 21
92.2539
  0
LINE
  8
0
 10
-27.0942
 20
92.2539
 11
-27.2107
 21
91.8956
  0
LINE
  8
0
 10
-27.2107
 20
91.8956
 11
-27.3711
 21
91.5547
  0
LINE
  8
0
 10
-27.3711
 20
91.5547
 11
-27.5729
 21
91.2366
  0
LINE
  8
0
 10
-27.5729
 20
91.2366
 11
-27.8131
 21
90.9464
  0
LINE
  8
0
 10
-27.8131
 20
90.9464
 11
-28.0877
 21
90.6885
  0
LINE
  8
0
 10
-28.0877
 20
90.6885
 11
-28.3925
 21
90.467
  0
LINE
  8
0
 10
-28.3925
 20
90.467
 11
-28.7227
 21
90.2855
  0
LINE
  8
0
 10
-28.7227
 20
90.2855
 11
-29.0729
 21
90.1468
  0
LINE
  8
0
 10
-29.0729
 20
90.1468
 11
-29.4379
 21
90.0531
  0
LINE
  8
0
 10
-29.4379
 20
90.0531
 11
-29.8116
 21
90.0059
  0
LINE
  8
0
 10
-29.8116
 20
90.0059
 11
-30.1884
 21
90.0059
  0
LINE
  8
0
 10
-22.5942
 20
91.503
 11
-22.7811
 21
91.5266
  0
LINE
  8
0
 10
-22.7811
 20
91.5266
 11
-22.9635
 21
91.5734
  0
LINE
  8
0
 10
-22.9635
 20
91.5734
 11
-23.1387
 21
91.6428
  0
LINE
  8
0
 10
-23.1387
 20
91.6428
 11
-23.3037
 21
91.7335
  0
LINE
  8
0
 10
-23.3037
 20
91.7335
 11
-23.4561
 21
91.8442
  0
LINE
  8
0
 10
-23.4561
 20
91.8442
 11
-23.5934
 21
91.9732
  0
LINE
  8
0
 10
-23.5934
 20
91.9732
 11
-23.7135
 21
92.1183
  0
LINE
  8
0
 10
-23.7135
 20
92.1183
 11
-23.8145
 21
92.2774
  0
LINE
  8
0
 10
-23.8145
 20
92.2774
 11
-23.8947
 21
92.4478
  0
LINE
  8
0
 10
-23.8947
 20
92.4478
 11
-23.9529
 21
92.627
  0
LINE
  8
0
 10
-23.9529
 20
92.627
 11
-23.9882
 21
92.812
  0
LINE
  8
0
 10
-23.9882
 20
92.812
 11
-24
 21
93
  0
LINE
  8
0
 10
-24
 20
93
 11
-23.9882
 21
93.188
  0
LINE
  8
0
 10
-23.9882
 20
93.188
 11
-23.9529
 21
93.373
  0
LINE
  8
0
 10
-23.9529
 20
93.373
 11
-23.8947
 21
93.5522
  0
LINE
  8
0
 10
-23.8947
 20
93.5522
 11
-23.8145
 21
93.7226
  0
LINE
  8
0
 10
-23.8145
 20
93.7226
 11
-23.7135
 21
93.8817
  0
LINE
  8
0
 10
-23.7135
 20
93.8817
 11
-23.5934
 21
94.0268
  0
LINE
  8
0
 10
-23.5934
 20
94.0268
 11
-23.4561
 21
94.1558
  0
LINE
  8
0
 10
-23.4561
 20
94.1558
 11
-23.3037
 21
94.2665
  0
LINE
  8
0
 10
-23.3037
 20
94.2665
 11
-23.1387
 21
94.3573
  0
LINE
  8
0
 10
-23.1387
 20
94.3573
 11
-22.9635
 21
94.4266
  0
LINE
  8
0
 10
-22.9635
 20
94.4266
 11
-22.7811
 21
94.4734
  0
LINE
  8
0
 10
-22.7811
 20
94.4734
 11
-22.5942
 21
94.4971
  0
LINE
  8
0
 10
-22.5942
 20
94.4971
 11
-22.4058
 21
94.4971
  0
LINE
  8
0
 10
-22.4058
 20
94.4971
 11
-22.2189
 21
94.4734
  0
LINE
  8
0
 10
-22.2189
 20
94.4734
 11
-22.0365
 21
94.4266
  0
LINE
  8
0
 10
-22.0365
 20
94.4266
 11
-21.8613
 21
94.3573
  0
LINE
  8
0
 10
-21.8613
 20
94.3573
 11
-21.6963
 21
94.2665
  0
LINE
  8
0
 10
-21.6963
 20
94.2665
 11
-21.5439
 21
94.1558
  0
LINE
  8
0
 10
-21.5439
 20
94.1558
 11
-21.4065
 21
94.0268
  0
LINE
  8
0
 10
-21.4065
 20
94.0268
 11
-21.2865
 21
93.8817
  0
LINE
  8
0
 10
-21.2865
 20
93.8817
 11
-21.1855
 21
93.7226
  0
LINE
  8
0
 10
-21.1855
 20
93.7226
 11
-21.1053
 21
93.5522
  0
LINE
  8
0
 10
-21.1053
 20
93.5522
 11
-21.0471
 21
93.373
  0
LINE
  8
0
 10
-21.0471
 20
93.373
 11
-21.0118
 21
93.188
  0
LINE
  8
0
 10
-21.0118
 20
93.188
 11
-21
 21
93
  0
LINE
  8
0
 10
-21
 20
93
 11
-21.0118
 21
92.812
  0
LINE
  8
0
 10
-21.0118
 20
92.812
 11
-21.0471
 21
92.627
  0
LINE
  8
0
 10
-21.0471
 20
92.627
 11
-21.1053
 21
92.4478
  0
LINE
  8
0
 10
-21.1053
 20
92.4478
 11
-21.1855
 21
92.2774
  0
LINE
  8
0
 10
-21.1855
 20
92.2774
 11
-21.2865
 21
92.1183
  0
LINE
  8
0
 10
-21.2865
 20
92.1183
 11
-21.4065
 21
91.9732
  0
LINE
  8
0
 10
-21.4065
 20
91.9732
 11
-21.5439
 21
91.8442
  0
LINE
  8
0
 10
-21.5439
 20
91.8442
 11
-21.6963
 21
91.7335
  0
LINE
  8
0
 10
-21.6963
 20
91.7335
 11
-21.8613
 21
91.6428
  0
LINE
  8
0
 10
-21.8613
 20
91.6428
 11
-22.0365
 21
91.5734
  0
LINE
  8
0
 10
-22.0365
 20
91.5734
 11
-22.2189
 21
91.5266
  0
LINE
  8
0
 10
-22.2189
 20
91.5266
 11
-22.4058
 21
91.503
  0
LINE
  8
0
 10
-22.4058
 20
91.503
 11
-22.5942
 21
91.503
  0
LINE
  8
0
 10
-37.5942
 20
91.503
 11
-37.7811
 21
91.5266
  0
LINE
  8
0
 10
-37.7811
 20
91.5266
 11
-37.9635
 21
91.5734
  0
LINE
  8
0
 10
-37.9635
 20
91.5734
 11
-38.1387
 21
91.6428
  0
LINE
  8
0
 10
-38.1387
 20
91.6428
 11
-38.3037
 21
91.7335
  0
LINE
  8
0
 10
-38.3037
 20
91.7335
 11
-38.4561
 21
91.8442
  0
LINE
  8
0
 10
-38.4561
 20
91.8442
 11
-38.5934
 21
91.9732
  0
LINE
  8
0
 10
-38.5934
 20
91.9732
 11
-38.7135
 21
92.1183
  0
LINE
  8
0
 10
-38.7135
 20
92.1183
 11
-38.8145
 21
92.2774
  0
LINE
  8
0
 10
-38.8145
 20
92.2774
 11
-38.8947
 21
92.4478
  0
LINE
  8
0
 10
-38.8947
 20
92.4478
 11
-38.9529
 21
92.627
  0
LINE
  8
0
 10
-38.9529
 20
92.627
 11
-38.9882
 21
92.812
  0
LINE
  8
0
 10
-38.9882
 20
92.812
 11
-39
 21
93
  0
LINE
  8
0
 10
-39
 20
93
 11
-38.9882
 21
93.188
  0
LINE
  8
0
 10
-38.9882
 20
93.188
 11
-38.9529
 21
93.373
  0
LINE
  8
0
 10
-38.9529
 20
93.373
 11
-38.8947
 21
93.5522
  0
LINE
  8
0
 10
-38.8947
 20
93.5522
 11
-38.8145
 21
93.7226
  0
LINE
  8
0
 10
-38.8145
 20
93.7226
 11
-38.7135
 21
93.8817
  0
LINE
  8
0
 10
-38.7135
 20
93.8817
 11
-38.5934
 21
94.0268
  0
LINE
  8
0
 10
-38.5934
 20
94.0268
 11
-38.4561
 21
94.1558
  0
LINE
  8
0
 10
-38.4561
 20
94.1558
 11
-38.3037
 21
94.2665
  0
LINE
  8
0
 10
-38.3037
 20
94.2665
 11
-38.1387
 21
94.3573
  0
LINE
  8
0
 10
-38.1387
 20
94.3573
 11
-37.9635
 21
94.4266
  0
LINE
  8
0
 10
-37.9635
 20
94.4266
 11
-37.7811
 21
94.4734
  0
LINE
  8
0
 10
-37.7811
 20
94.4734
 11
-37.5942
 21
94.4971
  0
LINE
  8
0
 10
-37.5942
 20
94.4971
 11
-37.4058
 21
94.4971
  0
LINE
  8
0
 10
-37.4058
 20
94.4971
 11
-37.2189
 21
94.4734
  0
LINE
  8
0
 10
-37.2189
 20
94.4734
 11
-37.0365
 21
94.4266
  0
LINE
  8
0
 10
-37.0365
 20
94.4266
 11
-36.8613
 21
94.3573
  0
LINE
  8
0
 10
-36.8613
 20
94.3573
 11
-36.6963
 21
94.2665
  0
LINE
  8
0
 10
-36.6963
 20
94.2665
 11
-36.5439
 21
94.1558
  0
LINE
  8
0
 10
-36.5439
 20
94.1558
 11
-36.4065
 21
94.0268
  0
LINE
  8
0
 10
-36.4065
 20
94.0268
 11
-36.2865
 21
93.8817
  0
LINE
  8
0
 10
-36.2865
 20
93.8817
 11
-36.1855
 21
93.7226
  0
LINE
  8
0
 10
-36.1855
 20
93.7226
 11
-36.1053
 21
93.5522
  0
LINE
  8
0
 10
-36.1053
 20
93.5522
 11
-36.0471
 21
93.373
  0
LINE
  8
0
 10
-36.0471
 20
93.373
 11
-36.0118
 21
93.188
  0
LINE
  8
0
 10
-36.0118
 20
93.188
 11
-36
 21
93
  0
LINE
  8
0
 10
-36
 20
93
 11
-36.0118
 21
92.812
  0
LINE
  8
0
 10
-36.0118
 20
92.812
 11
-36.0471
 21
92.627
  0
LINE
  8
0
 10
-36.0471
 20
92.627
 11
-36.1053
 21
92.4478
  0
LINE
  8
0
 10
-36.1053
 20
92.4478
 11
-36.1855
 21
92.2774
  0
LINE
  8
0
 10
-36.1855
 20
92.2774
 11
-36.2865
 21
92.1183
  0
LINE
  8
0
 10
-36.2865
 20
92.1183
 11
-36.4065
 21
91.9732
  0
LINE
  8
0
 10
-36.4065
 20
91.9732
 11
-36.5439
 21
91.8442
  0
LINE
  8
0
 10
-36.5439
 20
91.8442
 11
-36.6963
 21
91.7335
  0
LINE
  8
0
 10
-36.6963
 20
91.7335
 11
-36.8613
 21
91.6428
  0
LINE
  8
0
 10
-36.8613
 20
91.6428
 11
-37.0365
 21
91.5734
  0
LINE
  8
0
 10
-37.0365
 20
91.5734
 11
-37.2189
 21
91.5266
  0
LINE
  8
0
 10
-37.2189
 20
91.5266
 11
-37.4058
 21
91.503
  0
LINE
  8
0
 10
-37.4058
 20
91.503
 11
-37.5942
 21
91.503
  0
LINE
  8
0
 10
-15.613
 20
90.7036
 11
-15.8373
 21
90.7319
  0
LINE
  8
0
 10
-15.8373
 20
90.7319
 11
-16.0562
 21
90.7881
  0
LINE
  8
0
 10
-16.0562
 20
90.7881
 11
-16.2664
 21
90.8713
  0
LINE
  8
0
 10
-16.2664
 20
90.8713
 11
-16.4645
 21
90.9802
  0
LINE
  8
0
 10
-16.4645
 20
90.9802
 11
-16.6474
 21
91.1131
  0
LINE
  8
0
 10
-16.6474
 20
91.1131
 11
-16.8121
 21
91.2678
  0
LINE
  8
0
 10
-16.8121
 20
91.2678
 11
-16.9562
 21
91.442
  0
LINE
  8
0
 10
-16.9562
 20
91.442
 11
-17.0773
 21
91.6328
  0
LINE
  8
0
 10
-17.0773
 20
91.6328
 11
-17.1736
 21
91.8374
  0
LINE
  8
0
 10
-17.1736
 20
91.8374
 11
-17.2434
 21
92.0524
  0
LINE
  8
0
 10
-17.2434
 20
92.0524
 11
-17.2858
 21
92.2744
  0
LINE
  8
0
 10
-17.2858
 20
92.2744
 11
-17.3
 21
92.5
  0
LINE
  8
0
 10
-17.3
 20
92.5
 11
-17.2858
 21
92.7256
  0
LINE
  8
0
 10
-17.2858
 20
92.7256
 11
-17.2434
 21
92.9476
  0
LINE
  8
0
 10
-17.2434
 20
92.9476
 11
-17.1736
 21
93.1626
  0
LINE
  8
0
 10
-17.1736
 20
93.1626
 11
-17.0773
 21
93.3672
  0
LINE
  8
0
 10
-17.0773
 20
93.3672
 11
-16.9562
 21
93.558
  0
LINE
  8
0
 10
-16.9562
 20
93.558
 11
-16.8121
 21
93.7322
  0
LINE
  8
0
 10
-16.8121
 20
93.7322
 11
-16.6474
 21
93.8869
  0
LINE
  8
0
 10
-16.6474
 20
93.8869
 11
-16.4645
 21
94.0198
  0
LINE
  8
0
 10
-16.4645
 20
94.0198
 11
-16.2664
 21
94.1287
  0
LINE
  8
0
 10
-16.2664
 20
94.1287
 11
-16.0562
 21
94.2119
  0
LINE
  8
0
 10
-16.0562
 20
94.2119
 11
-15.8373
 21
94.2681
  0
LINE
  8
0
 10
-15.8373
 20
94.2681
 11
-15.613
 21
94.2964
  0
LINE
  8
0
 10
-15.613
 20
94.2964
 11
-15.387
 21
94.2964
  0
LINE
  8
0
 10
-15.387
 20
94.2964
 11
-15.1627
 21
94.2681
  0
LINE
  8
0
 10
-15.1627
 20
94.2681
 11
-14.9438
 21
94.2119
  0
LINE
  8
0
 10
-14.9438
 20
94.2119
 11
-14.7336
 21
94.1287
  0
LINE
  8
0
 10
-14.7336
 20
94.1287
 11
-14.5355
 21
94.0198
  0
LINE
  8
0
 10
-14.5355
 20
94.0198
 11
-14.3526
 21
93.8869
  0
LINE
  8
0
 10
-14.3526
 20
93.8869
 11
-14.1879
 21
93.7322
  0
LINE
  8
0
 10
-14.1879
 20
93.7322
 11
-14.0438
 21
93.558
  0
LINE
  8
0
 10
-14.0438
 20
93.558
 11
-13.9226
 21
93.3672
  0
LINE
  8
0
 10
-13.9226
 20
93.3672
 11
-13.8264
 21
93.1626
  0
LINE
  8
0
 10
-13.8264
 20
93.1626
 11
-13.7565
 21
92.9476
  0
LINE
  8
0
 10
-13.7565
 20
92.9476
 11
-13.7142
 21
92.7256
  0
LINE
  8
0
 10
-13.7142
 20
92.7256
 11
-13.7
 21
92.5
  0
LINE
  8
0
 10
-13.7
 20
92.5
 11
-13.7142
 21
92.2744
  0
LINE
  8
0
 10
-13.7142
 20
92.2744
 11
-13.7565
 21
92.0524
  0
LINE
  8
0
 10
-13.7565
 20
92.0524
 11
-13.8264
 21
91.8374
  0
LINE
  8
0
 10
-13.8264
 20
91.8374
 11
-13.9226
 21
91.6328
  0
LINE
  8
0
 10
-13.9226
 20
91.6328
 11
-14.0438
 21
91.442
  0
LINE
  8
0
 10
-14.0438
 20
91.442
 11
-14.1879
 21
91.2678
  0
LINE
  8
0
 10
-14.1879
 20
91.2678
 11
-14.3526
 21
91.1131
  0
LINE
  8
0
 10
-14.3526
 20
91.1131
 11
-14.5355
 21
90.9802
  0
LINE
  8
0
 10
-14.5355
 20
90.9802
 11
-14.7336
 21
90.8713
  0
LINE
  8
0
 10
-14.7336
 20
90.8713
 11
-14.9438
 21
90.7881
  0
LINE
  8
0
 10
-14.9438
 20
90.7881
 11
-15.1627
 21
90.7319
  0
LINE
  8
0
 10
-15.1627
 20
90.7319
 11
-15.387
 21
90.7036
  0
LINE
  8
0
 10
-15.387
 20
90.7036
 11
-15.613
 21
90.7036
  0
LINE
  8
0
 10
15.387
 20
90.7036
 11
15.1627
 21
90.7319
  0
LINE
  8
0
 10
15.1627
 20
90.7319
 11
14.9438
 21
90.7881
  0
LINE
  8
0
 10
14.9438
 20
90.7881
 11
14.7336
 21
90.8713
  0
LINE
  8
0
 10
14.7336
 20
90.8713
 11
14.5355
 21
90.9802
  0
LINE
  8
0
 10
14.5355
 20
90.9802
 11
14.3526
 21
91.1131
  0
LINE
  8
0
 10
14.3526
 20
91.1131
 11
14.1879
 21
91.2678
  0
LINE
  8
0
 10
14.1879
 20
91.2678
 11
14.0438
 21
91.442
  0
LINE
  8
0
 10
14.0438
 20
91.442
 11
13.9226
 21
91.6328
  0
LINE
  8
0
 10
13.9226
 20
91.6328
 11
13.8264
 21
91.8374
  0
LINE
  8
0
 10
13.8264
 20
91.8374
 11
13.7565
 21
92.0524
  0
LINE
  8
0
 10
13.7565
 20
92.0524
 11
13.7142
 21
92.2744
  0
LINE
  8
0
 10
13.7142
 20
92.2744
 11
13.7
 21
92.5
  0
LINE
  8
0
 10
13.7
 20
92.5
 11
13.7142
 21
92.7256
  0
LINE
  8
0
 10
13.7142
 20
92.7256
 11
13.7565
 21
92.9476
  0
LINE
  8
0
 10
13.7565
 20
92.9476
 11
13.8264
 21
93.1626
  0
LINE
  8
0
 10
13.8264
 20
93.1626
 11
13.9226
 21
93.3672
  0
LINE
  8
0
 10
13.9226
 20
93.3672
 11
14.0438
 21
93.558
  0
LINE
  8
0
 10
14.0438
 20
93.558
 11
14.1879
 21
93.7322
  0
LINE
  8
0
 10
14.1879
 20
93.7322
 11
14.3526
 21
93.8869
  0
LINE
  8
0
 10
14.3526
 20
93.8869
 11
14.5355
 21
94.0198
  0
LINE
  8
0
 10
14.5355
 20
94.0198
 11
14.7336
 21
94.1287
  0
LINE
  8
0
 10
14.7336
 20
94.1287
 11
14.9438
 21
94.2119
  0
LINE
  8
0
 10
14.9438
 20
94.2119
 11
15.1627
 21
94.2681
  0
LINE
  8
0
 10
15.1627
 20
94.2681
 11
15.387
 21
94.2964
  0
LINE
  8
0
 10
15.387
 20
94.2964
 11
15.613
 21
94.2964
  0
LINE
  8
0
 10
15.613
 20
94.2964
 11
15.8373
 21
94.2681
  0
LINE
  8
0
 10
15.8373
 20
94.2681
 11
16.0562
 21
94.2119
  0
LINE
  8
0
 10
16.0562
 20
94.2119
 11
16.2664
 21
94.1287
  0
LINE
  8
0
 10
16.2664
 20
94.1287
 11
16.4645
 21
94.0198
  0
LINE
  8
0
 10
16.4645
 20
94.0198
 11
16.6474
 21
93.8869
  0
LINE
  8
0
 10
16.6474
 20
93.8869
 11
16.8121
 21
93.7322
  0
LINE
  8
0
 10
16.8121
 20
93.7322
 11
16.9562
 21
93.558
  0
LINE
  8
0
 10
16.9562
 20
93.558
 11
17.0773
 21
93.3672
  0
LINE
  8
0
 10
17.0773
 20
93.3672
 11
17.1736
 21
93.1626
  0
LINE
  8
0
 10
17.1736
 20
93.1626
 11
17.2434
 21
92.9476
  0
LINE
  8
0
 10
17.2434
 20
92.9476
 11
17.2858
 21
92.7256
  0
LINE
  8
0
 10
17.2858
 20
92.7256
 11
17.3
 21
92.5
  0
LINE
  8
0
 10
17.3
 20
92.5
 11
17.2858
 21
92.2744
  0
LINE
  8
0
 10
17.2858
 20
92.2744
 11
17.2434
 21
92.0524
  0
LINE
  8
0
 10
17.2434
 20
92.0524
 11
17.1736
 21
91.8374
  0
LINE
  8
0
 10
17.1736
 20
91.8374
 11
17.0773
 21
91.6328
  0
LINE
  8
0
 10
17.0773
 20
91.6328
 11
16.9562
 21
91.442
  0
LINE
  8
0
 10
16.9562
 20
91.442
 11
16.8121
 21
91.2678
  0
LINE
  8
0
 10
16.8121
 20
91.2678
 11
16.6474
 21
91.1131
  0
LINE
  8
0
 10
16.6474
 20
91.1131
 11
16.4645
 21
90.9802
  0
LINE
  8
0
 10
16.4645
 20
90.9802
 11
16.2664
 21
90.8713
  0
LINE
  8
0
 10
16.2664
 20
90.8713
 11
16.0562
 21
90.7881
  0
LINE
  8
0
 10
16.0562
 20
90.7881
 11
15.8373
 21
90.7319
  0
LINE
  8
0
 10
15.8373
 20
90.7319
 11
15.613
 21
90.7036
  0
LINE
  8
0
 10
15.613
 20
90.7036
 11
15.387
 21
90.7036
  0
LINE
  8
0
 10
18.4369
 20
31.5886
 11
19.0451
 21
31.7447
  0
LINE
  8
0
 10
19.0451
 20
31.7447
 11
19.6289
 21
31.9759
  0
LINE
  8
0
 10
19.6289
 20
31.9759
 11
20.1791
 21
32.2784
  0
LINE
  8
0
 10
20.1791
 20
32.2784
 11
20.6871
 21
32.6474
  0
LINE
  8
0
 10
20.6871
 20
32.6474
 11
21.1448
 21
33.0773
  0
LINE
  8
0
 10
21.1448
 20
33.0773
 11
21.5451
 21
33.5611
  0
LINE
  8
0
 10
21.5451
 20
33.5611
 11
21.8815
 21
34.0912
  0
LINE
  8
0
 10
21.8815
 20
34.0912
 11
22.1489
 21
34.6594
  0
LINE
  8
0
 10
22.1489
 20
34.6594
 11
22.3429
 21
35.2566
  0
LINE
  8
0
 10
22.3429
 20
35.2566
 11
22.4606
 21
35.8733
  0
LINE
  8
0
 10
22.4606
 20
35.8733
 11
22.5
 21
36.5
  0
LINE
  8
0
 10
22.5
 20
36.5
 11
22.5
 21
71.5
  0
LINE
  8
0
 10
22.5
 20
71.5
 11
22.4606
 21
72.1267
  0
LINE
  8
0
 10
22.4606
 20
72.1267
 11
22.3429
 21
72.7434
  0
LINE
  8
0
 10
22.3429
 20
72.7434
 11
22.1489
 21
73.3406
  0
LINE
  8
0
 10
22.1489
 20
73.3406
 11
21.8815
 21
73.9088
  0
LINE
  8
0
 10
21.8815
 20
73.9088
 11
21.5451
 21
74.4389
  0
LINE
  8
0
 10
21.5451
 20
74.4389
 11
21.1448
 21
74.9227
  0
LINE
  8
0
 10
21.1448
 20
74.9227
 11
20.6871
 21
75.3526
  0
LINE
  8
0
 10
20.6871
 20
75.3526
 11
20.1791
 21
75.7216
  0
LINE
  8
0
 10
20.1791
 20
75.7216
 11
19.6289
 21
76.0241
  0
LINE
  8
0
 10
19.6289
 20
76.0241
 11
19.0451
 21
76.2553
  0
LINE
  8
0
 10
19.0451
 20
76.2553
 11
18.4369
 21
76.4114
  0
LINE
  8
0
 10
18.4369
 20
76.4114
 11
17.8139
 21
76.4901
  0
LINE
  8
0
 10
17.8139
 20
76.4901
 11
-47.8139
 21
76.4901
  0
LINE
  8
0
 10
-47.8139
 20
76.4901
 11
-48.4369
 21
76.4114
  0
LINE
  8
0
 10
-48.4369
 20
76.4114
 11
-49.0451
 21
76.2553
  0
LINE
  8
0
 10
-49.0451
 20
76.2553
 11
-49.6289
 21
76.0241
  0
LINE
  8
0
 10
-49.6289
 20
76.0241
 11
-50.1791
 21
75.7216
  0
LINE
  8
0
 10
-50.1791
 20
75.7216
 11
-50.6871
 21
75.3526
  0
LINE
  8
0
 10
-50.6871
 20
75.3526
 11
-51.1448
 21
74.9227
  0
LINE
  8
0
 10
-51.1448
 20
74.9227
 11
-51.5451
 21
74.4389
  0
LINE
  8
0
 10
-51.5451
 20
74.4389
 11
-51.8815
 21
73.9088
  0
LINE
  8
0
 10
-51.8815
 20
73.9088
 11
-52.1489
 21
73.3406
  0
LINE
  8
0
 10
-52.1489
 20
73.3406
 11
-52.3429
 21
72.7434
  0
LINE
  8
0
 10
-52.3429
 20
72.7434
 11
-52.4606
 21
72.1267
  0
LINE
  8
0
 10
-52.4606
 20
72.1267
 11
-52.5
 21
71.5
  0
LINE
  8
0
 10
-52.5
 20
71.5
 11
-52.5
 21
36.5
  0
LINE
  8
0
 10
-52.5
 20
36.5
 11
-52.4606
 21
35.8733
  0
LINE
  8
0
 10
-52.4606
 20
35.8733
 11
-52.3429
 21
35.2566
  0
LINE
  8
0
 10
-52.3429
 20
35.2566
 11
-52.1489
 21
34.6594
  0
LINE
  8
0
 10
-52.1489
 20
34.6594
 11
-51.8815
 21
34.0912
  0
LINE
  8
0
 10
-51.8815
 20
34.0912
 11
-51.5451
 21
33.5611
  0
LINE
  8
0
 10
-51.5451
 20
33.5611
 11
-51.1448
 21
33.0773
  0
LINE
  8
0
 10
-51.1448
 20
33.0773
 11
-50.6871
 21
32.6474
  0
LINE
  8
0
 10
-50.6871
 20
32.6474
 11
-50.1791
 21
32.2784
  0
LINE
  8
0
 10
-50.1791
 20
32.2784
 11
-49.6289
 21
31.9759
  0
LINE
  8
0
 10
-49.6289
 20
31.9759
 11
-49.0451
 21
31.7447
  0
LINE
  8
0
 10
-49.0451
 20
31.7447
 11
-48.4369
 21
31.5886
  0
LINE
  8
0
 10
-48.4369
 20
31.5886
 11
-47.8139
 21
31.5099
  0
LINE
  8
0
 10
-47.8139
 20
31.5099
 11
17.8139
 21
31.5099
  0
LINE
  8
0
 10
17.8139
 20
31.5099
 11
18.4369
 21
31.5886
  0
LINE
  8
0
 10
-30.1884
 20
66.0059
 11
-30.5621
 21
66.0531
  0
LINE
  8
0
 10
-30.5621
 20
66.0531
 11
-30.927
 21
66.1468
  0
LINE
  8
0
 10
-30.927
 20
66.1468
 11
-31.2773
 21
66.2855
  0
LINE
  8
0
 10
-31.2773
 20
66.2855
 11
-31.6075
 21
66.467
  0
LINE
  8
0
 10
-31.6075
 20
66.467
 11
-31.9123
 21
66.6884
  0
LINE
  8
0
 10
-31.9123
 20
66.6884
 11
-32.1869
 21
66.9464
  0
LINE
  8
0
 10
-32.1869
 20
66.9464
 11
-32.427
 21
67.2366
  0
LINE
  8
0
 10
-32.427
 20
67.2366
 11
-32.6289
 21
67.5547
  0
LINE
  8
0
 10
-32.6289
 20
67.5547
 11
-32.7893
 21
67.8956
  0
LINE
  8
0
 10
-32.7893
 20
67.8956
 11
-32.9057
 21
68.2539
  0
LINE
  8
0
 10
-32.9057
 20
68.2539
 11
-32.9763
 21
68.624
  0
LINE
  8
0
 10
-32.9763
 20
68.624
 11
-33
 21
69
  0
LINE
  8
0
 10
-33
 20
69
 11
-32.9763
 21
69.376
  0
LINE
  8
0
 10
-32.9763
 20
69.376
 11
-32.9057
 21
69.7461
  0
LINE
  8
0
 10
-32.9057
 20
69.7461
 11
-32.7893
 21
70.1044
  0
LINE
  8
0
 10
-32.7893
 20
70.1044
 11
-32.6289
 21
70.4453
  0
LINE
  8
0
 10
-32.6289
 20
70.4453
 11
-32.427
 21
70.7634
  0
LINE
  8
0
 10
-32.427
 20
70.7634
 11
-32.1869
 21
71.0536
  0
LINE
  8
0
 10
-32.1869
 20
71.0536
 11
-31.9123
 21
71.3115
  0
LINE
  8
0
 10
-31.9123
 20
71.3115
 11
-31.6075
 21
71.533
  0
LINE
  8
0
 10
-31.6075
 20
71.533
 11
-31.2773
 21
71.7145
  0
LINE
  8
0
 10
-31.2773
 20
71.7145
 11
-30.927
 21
71.8532
  0
LINE
  8
0
 10
-30.927
 20
71.8532
 11
-30.5621
 21
71.9469
  0
LINE
  8
0
 10
-30.5621
 20
71.9469
 11
-30.1884
 21
71.9941
  0
LINE
  8
0
 10
-30.1884
 20
71.9941
 11
-29.8116
 21
71.9941
  0
LINE
  8
0
 10
-29.8116
 20
71.9941
 11
-29.4379
 21
71.9469
  0
LINE
  8
0
 10
-29.4379
 20
71.9469
 11
-29.0729
 21
71.8532
  0
LINE
  8
0
 10
-29.0729
 20
71.8532
 11
-28.7227
 21
71.7145
  0
LINE
  8
0
 10
-28.7227
 20
71.7145
 11
-28.3925
 21
71.533
  0
LINE
  8
0
 10
-28.3925
 20
71.533
 11
-28.0877
 21
71.3115
  0
LINE
  8
0
 10
-28.0877
 20
71.3115
 11
-27.8131
 21
71.0536
  0
LINE
  8
0
 10
-27.8131
 20
71.0536
 11
-27.5729
 21
70.7634
  0
LINE
  8
0
 10
-27.5729
 20
70.7634
 11
-27.3711
 21
70.4453
  0
LINE
  8
0
 10
-27.3711
 20
70.4453
 11
-27.2107
 21
70.1044
  0
LINE
  8
0
 10
-27.2107
 20
70.1044
 11
-27.0942
 21
69.7461
  0
LINE
  8
0
 10
-27.0942
 20
69.7461
 11
-27.0237
 21
69.376
  0
LINE
  8
0
 10
-27.0237
 20
69.376
 11
-27
 21
69
  0
LINE
  8
0
 10
-27
 20
69
 11
-27.0237
 21
68.624
  0
LINE
  8
0
 10
-27.0237
 20
68.624
 11
-27.0942
 21
68.2539
  0
LINE
  8
0
 10
-27.0942
 20
68.2539
 11
-27.2107
 21
67.8956
  0
LINE
  8
0
 10
-27.2107
 20
67.8956
 11
-27.3711
 21
67.5547
  0
LINE
  8
0
 10
-27.3711
 20
67.5547
 11
-27.5729
 21
67.2366
  0
LINE
  8
0
 10
-27.5729
 20
67.2366
 11
-27.8131
 21
66.9464
  0
LINE
  8
0
 10
-27.8131
 20
66.9464
 11
-28.0877
 21
66.6884
  0
LINE
  8
0
 10
-28.0877
 20
66.6884
 11
-28.3925
 21
66.467
  0
LINE
  8
0
 10
-28.3925
 20
66.467
 11
-28.7227
 21
66.2855
  0
LINE
  8
0
 10
-28.7227
 20
66.2855
 11
-29.0729
 21
66.1468
  0
LINE
  8
0
 10
-29.0729
 20
66.1468
 11
-29.4379
 21
66.0531
  0
LINE
  8
0
 10
-29.4379
 20
66.0531
 11
-29.8116
 21
66.0059
  0
LINE
  8
0
 10
-29.8116
 20
66.0059
 11
-30.1884
 21
66.0059
  0
LINE
  8
0
 10
-45.1884
 20
66.0059
 11
-45.5621
 21
66.0531
  0
LINE
  8
0
 10
-45.5621
 20
66.0531
 11
-45.927
 21
66.1468
  0
LINE
  8
0
 10
-45.927
 20
66.1468
 11
-46.2773
 21
66.2855
  0
LINE
  8
0
 10
-46.2773
 20
66.2855
 11
-46.6075
 21
66.467
  0
LINE
  8
0
 10
-46.6075
 20
66.467
 11
-46.9123
 21
66.6884
  0
LINE
  8
0
 10
-46.9123
 20
66.6884
 11
-47.1869
 21
66.9464
  0
LINE
  8
0
 10
-47.1869
 20
66.9464
 11
-47.427
 21
67.2366
  0
LINE
  8
0
 10
-47.427
 20
67.2366
 11
-47.6289
 21
67.5547
  0
LINE
  8
0
 10
-47.6289
 20
67.5547
 11
-47.7893
 21
67.8956
  0
LINE
  8
0
 10
-47.7893
 20
67.8956
 11
-47.9057
 21
68.2539
  0
LINE
  8
0
 10
-47.9057
 20
68.2539
 11
-47.9763
 21
68.624
  0
LINE
  8
0
 10
-47.9763
 20
68.624
 11
-48
 21
69
  0
LINE
  8
0
 10
-48
 20
69
 11
-47.9763
 21
69.376
  0
LINE
  8
0
 10
-47.9763
 20
69.376
 11
-47.9057
 21
69.7461
  0
LINE
  8
0
 10
-47.9057
 20
69.7461
 11
-47.7893
 21
70.1044
  0
LINE
  8
0
 10
-47.7893
 20
70.1044
 11
-47.6289
 21
70.4453
  0
LINE
  8
0
 10
-47.6289
 20
70.4453
 11
-47.427
 21
70.7634
  0
LINE
  8
0
 10
-47.427
 20
70.7634
 11
-47.1869
 21
71.0536
  0
LINE
  8
0
 10
-47.1869
 20
71.0536
 11
-46.9123
 21
71.3115
  0
LINE
  8
0
 10
-46.9123
 20
71.3115
 11
-46.6075
 21
71.533
  0
LINE
  8
0
 10
-46.6075
 20
71.533
 11
-46.2773
 21
71.7145
  0
LINE
  8
0
 10
-46.2773
 20
71.7145
 11
-45.927
 21
71.8532
  0
LINE
  8
0
 10
-45.927
 20
71.8532
 11
-45.5621
 21
71.9469
  0
LINE
  8
0
 10
-45.5621
 20
71.9469
 11
-45.1884
 21
71.9941
  0
LINE
  8
0
 10
-45.1884
 20
71.9941
 11
-44.8116
 21
71.9941
  0
LINE
  8
0
 10
-44.8116
 20
71.9941
 11
-44.4379
 21
71.9469
  0
LINE
  8
0
 10
-44.4379
 20
71.9469
 11
-44.0729
 21
71.8532
  0
LINE
  8
0
 10
-44.0729
 20
71.8532
 11
-43.7227
 21
71.7145
  0
LINE
  8
0
 10
-43.7227
 20
71.7145
 11
-43.3925
 21
71.533
  0
LINE
  8
0
 10
-43.3925
 20
71.533
 11
-43.0877
 21
71.3115
  0
LINE
  8
0
 10
-43.0877
 20
71.3115
 11
-42.8131
 21
71.0536
  0
LINE
  8
0
 10
-42.8131
 20
71.0536
 11
-42.5729
 21
70.7634
  0
LINE
  8
0
 10
-42.5729
 20
70.7634
 11
-42.3711
 21
70.4453
  0
LINE
  8
0
 10
-42.3711
 20
70.4453
 11
-42.2107
 21
70.1044
  0
LINE
  8
0
 10
-42.2107
 20
70.1044
 11
-42.0942
 21
69.7461
  0
LINE
  8
0
 10
-42.0942
 20
69.7461
 11
-42.0237
 21
69.376
  0
LINE
  8
0
 10
-42.0237
 20
69.376
 11
-42
 21
69
  0
LINE
  8
0
 10
-42
 20
69
 11
-42.0237
 21
68.624
  0
LINE
  8
0
 10
-42.0237
 20
68.624
 11
-42.0942
 21
68.2539
  0
LINE
  8
0
 10
-42.0942
 20
68.2539
 11
-42.2107
 21
67.8956
  0
LINE
  8
0
 10
-42.2107
 20
67.8956
 11
-42.3711
 21
67.5547
  0
LINE
  8
0
 10
-42.3711
 20
67.5547
 11
-42.5729
 21
67.2366
  0
LINE
  8
0
 10
-42.5729
 20
67.2366
 11
-42.8131
 21
66.9464
  0
LINE
  8
0
 10
-42.8131
 20
66.9464
 11
-43.0877
 21
66.6884
  0
LINE
  8
0
 10
-43.0877
 20
66.6884
 11
-43.3925
 21
66.467
  0
LINE
  8
0
 10
-43.3925
 20
66.467
 11
-43.7227
 21
66.2855
  0
LINE
  8
0
 10
-43.7227
 20
66.2855
 11
-44.0729
 21
66.1468
  0
LINE
  8
0
 10
-44.0729
 20
66.1468
 11
-44.4379
 21
66.0531
  0
LINE
  8
0
 10
-44.4379
 20
66.0531
 11
-44.8116
 21
66.0059
  0
LINE
  8
0
 10
-44.8116
 20
66.0059
 11
-45.1884
 21
66.0059
  0
LINE
  8
0
 10
15.387
 20
67.7036
 11
15.1627
 21
67.7319
  0
LINE
  8
0
 10
15.1627
 20
67.7319
 11
14.9438
 21
67.7881
  0
LINE
  8
0
 10
14.9438
 20
67.7881
 11
14.7336
 21
67.8713
  0
LINE
  8
0
 10
14.7336
 20
67.8713
 11
14.5355
 21
67.9802
  0
LINE
  8
0
 10
14.5355
 20
67.9802
 11
14.3526
 21
68.1131
  0
LINE
  8
0
 10
14.3526
 20
68.1131
 11
14.1879
 21
68.2678
  0
LINE
  8
0
 10
14.1879
 20
68.2678
 11
14.0438
 21
68.442
  0
LINE
  8
0
 10
14.0438
 20
68.442
 11
13.9226
 21
68.6328
  0
LINE
  8
0
 10
13.9226
 20
68.6328
 11
13.8264
 21
68.8374
  0
LINE
  8
0
 10
13.8264
 20
68.8374
 11
13.7565
 21
69.0524
  0
LINE
  8
0
 10
13.7565
 20
69.0524
 11
13.7142
 21
69.2744
  0
LINE
  8
0
 10
13.7142
 20
69.2744
 11
13.7
 21
69.5
  0
LINE
  8
0
 10
13.7
 20
69.5
 11
13.7142
 21
69.7256
  0
LINE
  8
0
 10
13.7142
 20
69.7256
 11
13.7565
 21
69.9476
  0
LINE
  8
0
 10
13.7565
 20
69.9476
 11
13.8264
 21
70.1626
  0
LINE
  8
0
 10
13.8264
 20
70.1626
 11
13.9226
 21
70.3672
  0
LINE
  8
0
 10
13.9226
 20
70.3672
 11
14.0438
 21
70.558
  0
LINE
  8
0
 10
14.0438
 20
70.558
 11
14.1879
 21
70.7322
  0
LINE
  8
0
 10
14.1879
 20
70.7322
 11
14.3526
 21
70.8869
  0
LINE
  8
0
 10
14.3526
 20
70.8869
 11
14.5355
 21
71.0198
  0
LINE
  8
0
 10
14.5355
 20
71.0198
 11
14.7336
 21
71.1287
  0
LINE
  8
0
 10
14.7336
 20
71.1287
 11
14.9438
 21
71.2119
  0
LINE
  8
0
 10
14.9438
 20
71.2119
 11
15.1627
 21
71.2681
  0
LINE
  8
0
 10
15.1627
 20
71.2681
 11
15.387
 21
71.2964
  0
LINE
  8
0
 10
15.387
 20
71.2964
 11
15.613
 21
71.2964
  0
LINE
  8
0
 10
15.613
 20
71.2964
 11
15.8373
 21
71.2681
  0
LINE
  8
0
 10
15.8373
 20
71.2681
 11
16.0562
 21
71.2119
  0
LINE
  8
0
 10
16.0562
 20
71.2119
 11
16.2664
 21
71.1287
  0
LINE
  8
0
 10
16.2664
 20
71.1287
 11
16.4645
 21
71.0198
  0
LINE
  8
0
 10
16.4645
 20
71.0198
 11
16.6474
 21
70.8869
  0
LINE
  8
0
 10
16.6474
 20
70.8869
 11
16.8121
 21
70.7322
  0
LINE
  8
0
 10
16.8121
 20
70.7322
 11
16.9562
 21
70.558
  0
LINE
  8
0
 10
16.9562
 20
70.558
 11
17.0773
 21
70.3672
  0
LINE
  8
0
 10
17.0773
 20
70.3672
 11
17.1736
 21
70.1626
  0
LINE
  8
0
 10
17.1736
 20
70.1626
 11
17.2434
 21
69.9476
  0
LINE
  8
0
 10
17.2434
 20
69.9476
 11
17.2858
 21
69.7256
  0
LINE
  8
0
 10
17.2858
 20
69.7256
 11
17.3
 21
69.5
  0
LINE
  8
0
 10
17.3
 20
69.5
 11
17.2858
 21
69.2744
  0
LINE
  8
0
 10
17.2858
 20
69.2744
 11
17.2434
 21
69.0524
  0
LINE
  8
0
 10
17.2434
 20
69.0524
 11
17.1736
 21
68.8374
  0
LINE
  8
0
 10
17.1736
 20
68.8374
 11
17.0773
 21
68.6328
  0
LINE
  8
0
 10
17.0773
 20
68.6328
 11
16.9562
 21
68.442
  0
LINE
  8
0
 10
16.9562
 20
68.442
 11
16.8121
 21
68.2678
  0
LINE
  8
0
 10
16.8121
 20
68.2678
 11
16.6474
 21
68.1131
  0
LINE
  8
0
 10
16.6474
 20
68.1131
 11
16.4645
 21
67.9802
  0
LINE
  8
0
 10
16.4645
 20
67.9802
 11
16.2664
 21
67.8713
  0
LINE
  8
0
 10
16.2664
 20
67.8713
 11
16.0562
 21
67.7881
  0
LINE
  8
0
 10
16.0562
 20
67.7881
 11
15.8373
 21
67.7319
  0
LINE
  8
0
 10
15.8373
 20
67.7319
 11
15.613
 21
67.7036
  0
LINE
  8
0
 10
15.613
 20
67.7036
 11
15.387
 21
67.7036
  0
LINE
  8
0
 10
-15.613
 20
67.7036
 11
-15.8373
 21
67.7319
  0
LINE
  8
0
 10
-15.8373
 20
67.7319
 11
-16.0562
 21
67.7881
  0
LINE
  8
0
 10
-16.0562
 20
67.7881
 11
-16.2664
 21
67.8713
  0
LINE
  8
0
 10
-16.2664
 20
67.8713
 11
-16.4645
 21
67.9802
  0
LINE
  8
0
 10
-16.4645
 20
67.9802
 11
-16.6474
 21
68.1131
  0
LINE
  8
0
 10
-16.6474
 20
68.1131
 11
-16.8121
 21
68.2678
  0
LINE
  8
0
 10
-16.8121
 20
68.2678
 11
-16.9562
 21
68.442
  0
LINE
  8
0
 10
-16.9562
 20
68.442
 11
-17.0773
 21
68.6328
  0
LINE
  8
0
 10
-17.0773
 20
68.6328
 11
-17.1736
 21
68.8374
  0
LINE
  8
0
 10
-17.1736
 20
68.8374
 11
-17.2434
 21
69.0524
  0
LINE
  8
0
 10
-17.2434
 20
69.0524
 11
-17.2858
 21
69.2744
  0
LINE
  8
0
 10
-17.2858
 20
69.2744
 11
-17.3
 21
69.5
  0
LINE
  8
0
 10
-17.3
 20
69.5
 11
-17.2858
 21
69.7256
  0
LINE
  8
0
 10
-17.2858
 20
69.7256
 11
-17.2434
 21
69.9476
  0
LINE
  8
0
 10
-17.2434
 20
69.9476
 11
-17.1736
 21
70.1626
  0
LINE
  8
0
 10
-17.1736
 20
70.1626
 11
-17.0773
 21
70.3672
  0
LINE
  8
0
 10
-17.0773
 20
70.3672
 11
-16.9562
 21
70.558
  0
LINE
  8
0
 10
-16.9562
 20
70.558
 11
-16.8121
 21
70.7322
  0
LINE
  8
0
 10
-16.8121
 20
70.7322
 11
-16.6474
 21
70.8869
  0
LINE
  8
0
 10
-16.6474
 20
70.8869
 11
-16.4645
 21
71.0198
  0
LINE
  8
0
 10
-16.4645
 20
71.0198
 11
-16.2664
 21
71.1287
  0
LINE
  8
0
 10
-16.2664
 20
71.1287
 11
-16.0562
 21
71.2119
  0
LINE
  8
0
 10
-16.0562
 20
71.2119
 11
-15.8373
 21
71.2681
  0
LINE
  8
0
 10
-15.8373
 20
71.2681
 11
-15.613
 21
71.2964
  0
LINE
  8
0
 10
-15.613
 20
71.2964
 11
-15.387
 21
71.2964
  0
LINE
  8
0
 10
-15.387
 20
71.2964
 11
-15.1627
 21
71.2681
  0
LINE
  8
0
 10
-15.1627
 20
71.2681
 11
-14.9438
 21
71.2119
  0
LINE
  8
0
 10
-14.9438
 20
71.2119
 11
-14.7336
 21
71.1287
  0
LINE
  8
0
 10
-14.7336
 20
71.1287
 11
-14.5355
 21
71.0198
  0
LINE
  8
0
 10
-14.5355
 20
71.0198
 11
-14.3526
 21
70.8869
  0
LINE
  8
0
 10
-14.3526
 20
70.8869
 11
-14.1879
 21
70.7322
  0
LINE
  8
0
 10
-14.1879
 20
70.7322
 11
-14.0438
 21
70.558
  0
LINE
  8
0
 10
-14.0438
 20
70.558
 11
-13.9226
 21
70.3672
  0
LINE
  8
0
 10
-13.9226
 20
70.3672
 11
-13.8264
 21
70.1626
  0
LINE
  8
0
 10
-13.8264
 20
70.1626
 11
-13.7565
 21
69.9476
  0
LINE
  8
0
 10
-13.7565
 20
69.9476
 11
-13.7142
 21
69.7256
  0
LINE
  8
0
 10
-13.7142
 20
69.7256
 11
-13.7
 21
69.5
  0
LINE
  8
0
 10
-13.7
 20
69.5
 11
-13.7142
 21
69.2744
  0
LINE
  8
0
 10
-13.7142
 20
69.2744
 11
-13.7565
 21
69.0524
  0
LINE
  8
0
 10
-13.7565
 20
69.0524
 11
-13.8264
 21
68.8374
  0
LINE
  8
0
 10
-13.8264
 20
68.8374
 11
-13.9226
 21
68.6328
  0
LINE
  8
0
 10
-13.9226
 20
68.6328
 11
-14.0438
 21
68.442
  0
LINE
  8
0
 10
-14.0438
 20
68.442
 11
-14.1879
 21
68.2678
  0
LINE
  8
0
 10
-14.1879
 20
68.2678
 11
-14.3526
 21
68.1131
  0
LINE
  8
0
 10
-14.3526
 20
68.1131
 11
-14.5355
 21
67.9802
  0
LINE
  8
0
 10
-14.5355
 20
67.9802
 11
-14.7336
 21
67.8713
  0
LINE
  8
0
 10
-14.7336
 20
67.8713
 11
-14.9438
 21
67.7881
  0
LINE
  8
0
 10
-14.9438
 20
67.7881
 11
-15.1627
 21
67.7319
  0
LINE
  8
0
 10
-15.1627
 20
67.7319
 11
-15.387
 21
67.7036
  0
LINE
  8
0
 10
-15.387
 20
67.7036
 11
-15.613
 21
67.7036
  0
LINE
  8
0
 10
-22.5942
 20
67.5029
 11
-22.7811
 21
67.5266
  0
LINE
  8
0
 10
-22.7811
 20
67.5266
 11
-22.9635
 21
67.5734
  0
LINE
  8
0
 10
-22.9635
 20
67.5734
 11
-23.1387
 21
67.6427
  0
LINE
  8
0
 10
-23.1387
 20
67.6427
 11
-23.3037
 21
67.7335
  0
LINE
  8
0
 10
-23.3037
 20
67.7335
 11
-23.4561
 21
67.8442
  0
LINE
  8
0
 10
-23.4561
 20
67.8442
 11
-23.5934
 21
67.9732
  0
LINE
  8
0
 10
-23.5934
 20
67.9732
 11
-23.7135
 21
68.1183
  0
LINE
  8
0
 10
-23.7135
 20
68.1183
 11
-23.8145
 21
68.2774
  0
LINE
  8
0
 10
-23.8145
 20
68.2774
 11
-23.8947
 21
68.4478
  0
LINE
  8
0
 10
-23.8947
 20
68.4478
 11
-23.9529
 21
68.627
  0
LINE
  8
0
 10
-23.9529
 20
68.627
 11
-23.9882
 21
68.812
  0
LINE
  8
0
 10
-23.9882
 20
68.812
 11
-24
 21
69
  0
LINE
  8
0
 10
-24
 20
69
 11
-23.9882
 21
69.188
  0
LINE
  8
0
 10
-23.9882
 20
69.188
 11
-23.9529
 21
69.373
  0
LINE
  8
0
 10
-23.9529
 20
69.373
 11
-23.8947
 21
69.5522
  0
LINE
  8
0
 10
-23.8947
 20
69.5522
 11
-23.8145
 21
69.7226
  0
LINE
  8
0
 10
-23.8145
 20
69.7226
 11
-23.7135
 21
69.8817
  0
LINE
  8
0
 10
-23.7135
 20
69.8817
 11
-23.5934
 21
70.0268
  0
LINE
  8
0
 10
-23.5934
 20
70.0268
 11
-23.4561
 21
70.1558
  0
LINE
  8
0
 10
-23.4561
 20
70.1558
 11
-23.3037
 21
70.2665
  0
LINE
  8
0
 10
-23.3037
 20
70.2665
 11
-23.1387
 21
70.3572
  0
LINE
  8
0
 10
-23.1387
 20
70.3572
 11
-22.9635
 21
70.4266
  0
LINE
  8
0
 10
-22.9635
 20
70.4266
 11
-22.7811
 21
70.4734
  0
LINE
  8
0
 10
-22.7811
 20
70.4734
 11
-22.5942
 21
70.497
  0
LINE
  8
0
 10
-22.5942
 20
70.497
 11
-22.4058
 21
70.497
  0
LINE
  8
0
 10
-22.4058
 20
70.497
 11
-22.2189
 21
70.4734
  0
LINE
  8
0
 10
-22.2189
 20
70.4734
 11
-22.0365
 21
70.4266
  0
LINE
  8
0
 10
-22.0365
 20
70.4266
 11
-21.8613
 21
70.3572
  0
LINE
  8
0
 10
-21.8613
 20
70.3572
 11
-21.6963
 21
70.2665
  0
LINE
  8
0
 10
-21.6963
 20
70.2665
 11
-21.5439
 21
70.1558
  0
LINE
  8
0
 10
-21.5439
 20
70.1558
 11
-21.4065
 21
70.0268
  0
LINE
  8
0
 10
-21.4065
 20
70.0268
 11
-21.2865
 21
69.8817
  0
LINE
  8
0
 10
-21.2865
 20
69.8817
 11
-21.1855
 21
69.7226
  0
LINE
  8
0
 10
-21.1855
 20
69.7226
 11
-21.1053
 21
69.5522
  0
LINE
  8
0
 10
-21.1053
 20
69.5522
 11
-21.0471
 21
69.373
  0
LINE
  8
0
 10
-21.0471
 20
69.373
 11
-21.0118
 21
69.188
  0
LINE
  8
0
 10
-21.0118
 20
69.188
 11
-21
 21
69
  0
LINE
  8
0
 10
-21
 20
69
 11
-21.0118
 21
68.812
  0
LINE
  8
0
 10
-21.0118
 20
68.812
 11
-21.0471
 21
68.627
  0
LINE
  8
0
 10
-21.0471
 20
68.627
 11
-21.1053
 21
68.4478
  0
LINE
  8
0
 10
-21.1053
 20
68.4478
 11
-21.1855
 21
68.2774
  0
LINE
  8
0
 10
-21.1855
 20
68.2774
 11
-21.2865
 21
68.1183
  0
LINE
  8
0
 10
-21.2865
 20
68.1183
 11
-21.4065
 21
67.9732
  0
LINE
  8
0
 10
-21.4065
 20
67.9732
 11
-21.5439
 21
67.8442
  0
LINE
  8
0
 10
-21.5439
 20
67.8442
 11
-21.6963
 21
67.7335
  0
LINE
  8
0
 10
-21.6963
 20
67.7335
 11
-21.8613
 21
67.6427
  0
LINE
  8
0
 10
-21.8613
 20
67.6427
 11
-22.0365
 21
67.5734
  0
LINE
  8
0
 10
-22.0365
 20
67.5734
 11
-22.2189
 21
67.5266
  0
LINE
  8
0
 10
-22.2189
 20
67.5266
 11
-22.4058
 21
67.5029
  0
LINE
  8
0
 10
-22.4058
 20
67.5029
 11
-22.5942
 21
67.5029
  0
LINE
  8
0
 10
-37.5942
 20
67.5029
 11
-37.7811
 21
67.5266
  0
LINE
  8
0
 10
-37.7811
 20
67.5266
 11
-37.9635
 21
67.5734
  0
LINE
  8
0
 10
-37.9635
 20
67.5734
 11
-38.1387
 21
67.6427
  0
LINE
  8
0
 10
-38.1387
 20
67.6427
 11
-38.3037
 21
67.7335
  0
LINE
  8
0
 10
-38.3037
 20
67.7335
 11
-38.4561
 21
67.8442
  0
LINE
  8
0
 10
-38.4561
 20
67.8442
 11
-38.5934
 21
67.9732
  0
LINE
  8
0
 10
-38.5934
 20
67.9732
 11
-38.7135
 21
68.1183
  0
LINE
  8
0
 10
-38.7135
 20
68.1183
 11
-38.8145
 21
68.2774
  0
LINE
  8
0
 10
-38.8145
 20
68.2774
 11
-38.8947
 21
68.4478
  0
LINE
  8
0
 10
-38.8947
 20
68.4478
 11
-38.9529
 21
68.627
  0
LINE
  8
0
 10
-38.9529
 20
68.627
 11
-38.9882
 21
68.812
  0
LINE
  8
0
 10
-38.9882
 20
68.812
 11
-39
 21
69
  0
LINE
  8
0
 10
-39
 20
69
 11
-38.9882
 21
69.188
  0
LINE
  8
0
 10
-38.9882
 20
69.188
 11
-38.9529
 21
69.373
  0
LINE
  8
0
 10
-38.9529
 20
69.373
 11
-38.8947
 21
69.5522
  0
LINE
  8
0
 10
-38.8947
 20
69.5522
 11
-38.8145
 21
69.7226
  0
LINE
  8
0
 10
-38.8145
 20
69.7226
 11
-38.7135
 21
69.8817
  0
LINE
  8
0
 10
-38.7135
 20
69.8817
 11
-38.5934
 21
70.0268
  0
LINE
  8
0
 10
-38.5934
 20
70.0268
 11
-38.4561
 21
70.1558
  0
LINE
  8
0
 10
-38.4561
 20
70.1558
 11
-38.3037
 21
70.2665
  0
LINE
  8
0
 10
-38.3037
 20
70.2665
 11
-38.1387
 21
70.3572
  0
LINE
  8
0
 10
-38.1387
 20
70.3572
 11
-37.9635
 21
70.4266
  0
LINE
  8
0
 10
-37.9635
 20
70.4266
 11
-37.7811
 21
70.4734
  0
LINE
  8
0
 10
-37.7811
 20
70.4734
 11
-37.5942
 21
70.497
  0
LINE
  8
0
 10
-37.5942
 20
70.497
 11
-37.4058
 21
70.497
  0
LINE
  8
0
 10
-37.4058
 20
70.497
 11
-37.2189
 21
70.4734
  0
LINE
  8
0
 10
-37.2189
 20
70.4734
 11
-37.0365
 21
70.4266
  0
LINE
  8
0
 10
-37.0365
 20
70.4266
 11
-36.8613
 21
70.3572
  0
LINE
  8
0
 10
-36.8613
 20
70.3572
 11
-36.6963
 21
70.2665
  0
LINE
  8
0
 10
-36.6963
 20
70.2665
 11
-36.5439
 21
70.1558
  0
LINE
  8
0
 10
-36.5439
 20
70.1558
 11
-36.4065
 21
70.0268
  0
LINE
  8
0
 10
-36.4065
 20
70.0268
 11
-36.2865
 21
69.8817
  0
LINE
  8
0
 10
-36.2865
 20
69.8817
 11
-36.1855
 21
69.7226
  0
LINE
  8
0
 10
-36.1855
 20
69.7226
 11
-36.1053
 21
69.5522
  0
LINE
  8
0
 10
-36.1053
 20
69.5522
 11
-36.0471
 21
69.373
  0
LINE
  8
0
 10
-36.0471
 20
69.373
 11
-36.0118
 21
69.188
  0
LINE
  8
0
 10
-36.0118
 20
69.188
 11
-36
 21
69
  0
LINE
  8
0
 10
-36
 20
69
 11
-36.0118
 21
68.812
  0
LINE
  8
0
 10
-36.0118
 20
68.812
 11
-36.0471
 21
68.627
  0
LINE
  8
0
 10
-36.0471
 20
68.627
 11
-36.1053
 21
68.4478
  0
LINE
  8
0
 10
-36.1053
 20
68.4478
 11
-36.1855
 21
68.2774
  0
LINE
  8
0
 10
-36.1855
 20
68.2774
 11
-36.2865
 21
68.1183
  0
LINE
  8
0
 10
-36.2865
 20
68.1183
 11
-36.4065
 21
67.9732
  0
LINE
  8
0
 10
-36.4065
 20
67.9732
 11
-36.5439
 21
67.8442
  0
LINE
  8
0
 10
-36.5439
 20
67.8442
 11
-36.6963
 21
67.7335
  0
LINE
  8
0
 10
-36.6963
 20
67.7335
 11
-36.8613
 21
67.6427
  0
LINE
  8
0
 10
-36.8613
 20
67.6427
 11
-37.0365
 21
67.5734
  0
LINE
  8
0
 10
-37.0365
 20
67.5734
 11
-37.2189
 21
67.5266
  0
LINE
  8
0
 10
-37.2189
 20
67.5266
 11
-37.4058
 21
67.5029
  0
LINE
  8
0
 10
-37.4058
 20
67.5029
 11
-37.5942
 21
67.5029
  0
LINE
  8
0
 10
-0.910461
 20
39.5286
 11
-2.71703
 21
39.7568
  0
LINE
  8
0
 10
-2.71703
 20
39.7568
 11
-4.48074
 21
40.2097
  0
LINE
  8
0
 10
-4.48074
 20
40.2097
 11
-6.1738
 21
40.88
  0
LINE
  8
0
 10
-6.1738
 20
40.88
 11
-7.76949
 21
41.7572
  0
LINE
  8
0
 10
-7.76949
 20
41.7572
 11
-9.24265
 21
42.8276
  0
LINE
  8
0
 10
-9.24265
 20
42.8276
 11
-10.57
 21
44.0741
  0
LINE
  8
0
 10
-10.57
 20
44.0741
 11
-11.7307
 21
45.4771
  0
LINE
  8
0
 10
-11.7307
 20
45.4771
 11
-12.7064
 21
47.0146
  0
LINE
  8
0
 10
-12.7064
 20
47.0146
 11
-13.4818
 21
48.6622
  0
LINE
  8
0
 10
-13.4818
 20
48.6622
 11
-14.0444
 21
50.394
  0
LINE
  8
0
 10
-14.0444
 20
50.394
 11
-14.3857
 21
52.1827
  0
LINE
  8
0
 10
-14.3857
 20
52.1827
 11
-14.5
 21
54
  0
LINE
  8
0
 10
-14.5
 20
54
 11
-14.3857
 21
55.8173
  0
LINE
  8
0
 10
-14.3857
 20
55.8173
 11
-14.0444
 21
57.606
  0
LINE
  8
0
 10
-14.0444
 20
57.606
 11
-13.4818
 21
59.3378
  0
LINE
  8
0
 10
-13.4818
 20
59.3378
 11
-12.7064
 21
60.9854
  0
LINE
  8
0
 10
-12.7064
 20
60.9854
 11
-11.7307
 21
62.5229
  0
LINE
  8
0
 10
-11.7307
 20
62.5229
 11
-10.57
 21
63.9259
  0
LINE
  8
0
 10
-10.57
 20
63.9259
 11
-9.24265
 21
65.1724
  0
LINE
  8
0
 10
-9.24265
 20
65.1724
 11
-7.76949
 21
66.2428
  0
LINE
  8
0
 10
-7.76949
 20
66.2428
 11
-6.1738
 21
67.12
  0
LINE
  8
0
 10
-6.1738
 20
67.12
 11
-4.48074
 21
67.7903
  0
LINE
  8
0
 10
-4.48074
 20
67.7903
 11
-2.71703
 21
68.2432
  0
LINE
  8
0
 10
-2.71703
 20
68.2432
 11
-0.910461
 21
68.4714
  0
LINE
  8
0
 10
-0.910461
 20
68.4714
 11
0.910461
 21
68.4714
  0
LINE
  8
0
 10
0.910461
 20
68.4714
 11
2.71703
 21
68.2432
  0
LINE
  8
0
 10
2.71703
 20
68.2432
 11
4.48074
 21
67.7903
  0
LINE
  8
0
 10
4.48074
 20
67.7903
 11
6.1738
 21
67.12
  0
LINE
  8
0
 10
6.1738
 20
67.12
 11
7.76949
 21
66.2428
  0
LINE
  8
0
 10
7.76949
 20
66.2428
 11
9.24265
 21
65.1724
  0
LINE
  8
0
 10
9.24265
 20
65.1724
 11
10.57
 21
63.9259
  0
LINE
  8
0
 10
10.57
 20
63.9259
 11
11.7307
 21
62.5229
  0
LINE
  8
0
 10
11.7307
 20
62.5229
 11
12.7064
 21
60.9854
  0
LINE
  8
0
 10
12.7064
 20
60.9854
 11
13.4818
 21
59.3378
  0
LINE
  8
0
 10
13.4818
 20
59.3378
 11
14.0444
 21
57.606
  0
LINE
  8
0
 10
14.0444
 20
57.606
 11
14.3857
 21
55.8173
  0
LINE
  8
0
 10
14.3857
 20
55.8173
 11
14.5
 21
54
  0
LINE
  8
0
 10
14.5
 20
54
 11
14.3857
 21
52.1827
  0
LINE
  8
0
 10
14.3857
 20
52.1827
 11
14.0444
 21
50.394
  0
LINE
  8
0
 10
14.0444
 20
50.394
 11
13.4818
 21
48.6622
  0
LINE
  8
0
 10
13.4818
 20
48.6622
 11
12.7064
 21
47.0146
  0
LINE
  8
0
 10
12.7064
 20
47.0146
 11
11.7307
 21
45.4771
  0
LINE
  8
0
 10
11.7307
 20
45.4771
 11
10.57
 21
44.0741
  0
LINE
  8
0
 10
10.57
 20
44.0741
 11
9.24265
 21
42.8276
  0
LINE
  8
0
 10
9.24265
 20
42.8276
 11
7.76949
 21
41.7572
  0
LINE
  8
0
 10
7.76949
 20
41.7572
 11
6.1738
 21
40.88
  0
LINE
  8
0
 10
6.1738
 20
40.88
 11
4.48074
 21
40.2097
  0
LINE
  8
0
 10
4.48074
 20
40.2097
 11
2.71703
 21
39.7568
  0
LINE
  8
0
 10
2.71703
 20
39.7568
 11
0.910461
 21
39.5286
  0
LINE
  8
0
 10
0.910461
 20
39.5286
 11
-0.910461
 21
39.5286
  0
LINE
  8
0
 10
-30.0942
 20
60.0029
 11
-30.2811
 21
60.0266
  0
LINE
  8
0
 10
-30.2811
 20
60.0266
 11
-30.4635
 21
60.0734
  0
LINE
  8
0
 10
-30.4635
 20
60.0734
 11
-30.6387
 21
60.1427
  0
LINE
  8
0
 10
-30.6387
 20
60.1427
 11
-30.8037
 21
60.2335
  0
LINE
  8
0
 10
-30.8037
 20
60.2335
 11
-30.9561
 21
60.3442
  0
LINE
  8
0
 10
-30.9561
 20
60.3442
 11
-31.0934
 21
60.4732
  0
LINE
  8
0
 10
-31.0934
 20
60.4732
 11
-31.2135
 21
60.6183
  0
LINE
  8
0
 10
-31.2135
 20
60.6183
 11
-31.3145
 21
60.7774
  0
LINE
  8
0
 10
-31.3145
 20
60.7774
 11
-31.3947
 21
60.9478
  0
LINE
  8
0
 10
-31.3947
 20
60.9478
 11
-31.4529
 21
61.127
  0
LINE
  8
0
 10
-31.4529
 20
61.127
 11
-31.4882
 21
61.312
  0
LINE
  8
0
 10
-31.4882
 20
61.312
 11
-31.5
 21
61.5
  0
LINE
  8
0
 10
-31.5
 20
61.5
 11
-31.4882
 21
61.688
  0
LINE
  8
0
 10
-31.4882
 20
61.688
 11
-31.4529
 21
61.873
  0
LINE
  8
0
 10
-31.4529
 20
61.873
 11
-31.3947
 21
62.0522
  0
LINE
  8
0
 10
-31.3947
 20
62.0522
 11
-31.3145
 21
62.2226
  0
LINE
  8
0
 10
-31.3145
 20
62.2226
 11
-31.2135
 21
62.3817
  0
LINE
  8
0
 10
-31.2135
 20
62.3817
 11
-31.0934
 21
62.5268
  0
LINE
  8
0
 10
-31.0934
 20
62.5268
 11
-30.9561
 21
62.6558
  0
LINE
  8
0
 10
-30.9561
 20
62.6558
 11
-30.8037
 21
62.7665
  0
LINE
  8
0
 10
-30.8037
 20
62.7665
 11
-30.6387
 21
62.8572
  0
LINE
  8
0
 10
-30.6387
 20
62.8572
 11
-30.4635
 21
62.9266
  0
LINE
  8
0
 10
-30.4635
 20
62.9266
 11
-30.2811
 21
62.9734
  0
LINE
  8
0
 10
-30.2811
 20
62.9734
 11
-30.0942
 21
62.997
  0
LINE
  8
0
 10
-30.0942
 20
62.997
 11
-29.9058
 21
62.997
  0
LINE
  8
0
 10
-29.9058
 20
62.997
 11
-29.7189
 21
62.9734
  0
LINE
  8
0
 10
-29.7189
 20
62.9734
 11
-29.5365
 21
62.9266
  0
LINE
  8
0
 10
-29.5365
 20
62.9266
 11
-29.3613
 21
62.8572
  0
LINE
  8
0
 10
-29.3613
 20
62.8572
 11
-29.1963
 21
62.7665
  0
LINE
  8
0
 10
-29.1963
 20
62.7665
 11
-29.0439
 21
62.6558
  0
LINE
  8
0
 10
-29.0439
 20
62.6558
 11
-28.9065
 21
62.5268
  0
LINE
  8
0
 10
-28.9065
 20
62.5268
 11
-28.7865
 21
62.3817
  0
LINE
  8
0
 10
-28.7865
 20
62.3817
 11
-28.6855
 21
62.2226
  0
LINE
  8
0
 10
-28.6855
 20
62.2226
 11
-28.6053
 21
62.0522
  0
LINE
  8
0
 10
-28.6053
 20
62.0522
 11
-28.5471
 21
61.873
  0
LINE
  8
0
 10
-28.5471
 20
61.873
 11
-28.5118
 21
61.688
  0
LINE
  8
0
 10
-28.5118
 20
61.688
 11
-28.5
 21
61.5
  0
LINE
  8
0
 10
-28.5
 20
61.5
 11
-28.5118
 21
61.312
  0
LINE
  8
0
 10
-28.5118
 20
61.312
 11
-28.5471
 21
61.127
  0
LINE
  8
0
 10
-28.5471
 20
61.127
 11
-28.6053
 21
60.9478
  0
LINE
  8
0
 10
-28.6053
 20
60.9478
 11
-28.6855
 21
60.7774
  0
LINE
  8
0
 10
-28.6855
 20
60.7774
 11
-28.7865
 21
60.6183
  0
LINE
  8
0
 10
-28.7865
 20
60.6183
 11
-28.9065
 21
60.4732
  0
LINE
  8
0
 10
-28.9065
 20
60.4732
 11
-29.0439
 21
60.3442
  0
LINE
  8
0
 10
-29.0439
 20
60.3442
 11
-29.1963
 21
60.2335
  0
LINE
  8
0
 10
-29.1963
 20
60.2335
 11
-29.3613
 21
60.1427
  0
LINE
  8
0
 10
-29.3613
 20
60.1427
 11
-29.5365
 21
60.0734
  0
LINE
  8
0
 10
-29.5365
 20
60.0734
 11
-29.7189
 21
60.0266
  0
LINE
  8
0
 10
-29.7189
 20
60.0266
 11
-29.9058
 21
60.0029
  0
LINE
  8
0
 10
-29.9058
 20
60.0029
 11
-30.0942
 21
60.0029
  0
LINE
  8
0
 10
-45.0942
 20
60.0029
 11
-45.2811
 21
60.0266
  0
LINE
  8
0
 10
-45.2811
 20
60.0266
 11
-45.4635
 21
60.0734
  0
LINE
  8
0
 10
-45.4635
 20
60.0734
 11
-45.6387
 21
60.1427
  0
LINE
  8
0
 10
-45.6387
 20
60.1427
 11
-45.8037
 21
60.2335
  0
LINE
  8
0
 10
-45.8037
 20
60.2335
 11
-45.9561
 21
60.3442
  0
LINE
  8
0
 10
-45.9561
 20
60.3442
 11
-46.0934
 21
60.4732
  0
LINE
  8
0
 10
-46.0934
 20
60.4732
 11
-46.2135
 21
60.6183
  0
LINE
  8
0
 10
-46.2135
 20
60.6183
 11
-46.3145
 21
60.7774
  0
LINE
  8
0
 10
-46.3145
 20
60.7774
 11
-46.3947
 21
60.9478
  0
LINE
  8
0
 10
-46.3947
 20
60.9478
 11
-46.4529
 21
61.127
  0
LINE
  8
0
 10
-46.4529
 20
61.127
 11
-46.4882
 21
61.312
  0
LINE
  8
0
 10
-46.4882
 20
61.312
 11
-46.5
 21
61.5
  0
LINE
  8
0
 10
-46.5
 20
61.5
 11
-46.4882
 21
61.688
  0
LINE
  8
0
 10
-46.4882
 20
61.688
 11
-46.4529
 21
61.873
  0
LINE
  8
0
 10
-46.4529
 20
61.873
 11
-46.3947
 21
62.0522
  0
LINE
  8
0
 10
-46.3947
 20
62.0522
 11
-46.3145
 21
62.2226
  0
LINE
  8
0
 10
-46.3145
 20
62.2226
 11
-46.2135
 21
62.3817
  0
LINE
  8
0
 10
-46.2135
 20
62.3817
 11
-46.0934
 21
62.5268
  0
LINE
  8
0
 10
-46.0934
 20
62.5268
 11
-45.9561
 21
62.6558
  0
LINE
  8
0
 10
-45.9561
 20
62.6558
 11
-45.8037
 21
62.7665
  0
LINE
  8
0
 10
-45.8037
 20
62.7665
 11
-45.6387
 21
62.8572
  0
LINE
  8
0
 10
-45.6387
 20
62.8572
 11
-45.4635
 21
62.9266
  0
LINE
  8
0
 10
-45.4635
 20
62.9266
 11
-45.2811
 21
62.9734
  0
LINE
  8
0
 10
-45.2811
 20
62.9734
 11
-45.0942
 21
62.997
  0
LINE
  8
0
 10
-45.0942
 20
62.997
 11
-44.9058
 21
62.997
  0
LINE
  8
0
 10
-44.9058
 20
62.997
 11
-44.7189
 21
62.9734
  0
LINE
  8
0
 10
-44.7189
 20
62.9734
 11
-44.5365
 21
62.9266
  0
LINE
  8
0
 10
-44.5365
 20
62.9266
 11
-44.3613
 21
62.8572
  0
LINE
  8
0
 10
-44.3613
 20
62.8572
 11
-44.1963
 21
62.7665
  0
LINE
  8
0
 10
-44.1963
 20
62.7665
 11
-44.0439
 21
62.6558
  0
LINE
  8
0
 10
-44.0439
 20
62.6558
 11
-43.9065
 21
62.5268
  0
LINE
  8
0
 10
-43.9065
 20
62.5268
 11
-43.7865
 21
62.3817
  0
LINE
  8
0
 10
-43.7865
 20
62.3817
 11
-43.6855
 21
62.2226
  0
LINE
  8
0
 10
-43.6855
 20
62.2226
 11
-43.6053
 21
62.0522
  0
LINE
  8
0
 10
-43.6053
 20
62.0522
 11
-43.5471
 21
61.873
  0
LINE
  8
0
 10
-43.5471
 20
61.873
 11
-43.5118
 21
61.688
  0
LINE
  8
0
 10
-43.5118
 20
61.688
 11
-43.5
 21
61.5
  0
LINE
  8
0
 10
-43.5
 20
61.5
 11
-43.5118
 21
61.312
  0
LINE
  8
0
 10
-43.5118
 20
61.312
 11
-43.5471
 21
61.127
  0
LINE
  8
0
 10
-43.5471
 20
61.127
 11
-43.6053
 21
60.9478
  0
LINE
  8
0
 10
-43.6053
 20
60.9478
 11
-43.6855
 21
60.7774
  0
LINE
  8
0
 10
-43.6855
 20
60.7774
 11
-43.7865
 21
60.6183
  0
LINE
  8
0
 10
-43.7865
 20
60.6183
 11
-43.9065
 21
60.4732
  0
LINE
  8
0
 10
-43.9065
 20
60.4732
 11
-44.0439
 21
60.3442
  0
LINE
  8
0
 10
-44.0439
 20
60.3442
 11
-44.1963
 21
60.2335
  0
LINE
  8
0
 10
-44.1963
 20
60.2335
 11
-44.3613
 21
60.1427
  0
LINE
  8
0
 10
-44.3613
 20
60.1427
 11
-44.5365
 21
60.0734
  0
LINE
  8
0
 10
-44.5365
 20
60.0734
 11
-44.7189
 21
60.0266
  0
LINE
  8
0
 10
-44.7189
 20
60.0266
 11
-44.9058
 21
60.0029
  0
LINE
  8
0
 10
-44.9058
 20
60.0029
 11
-45.0942
 21
60.0029
  0
LINE
  8
0
 10
-30.1884
 20
51.0059
 11
-30.5621
 21
51.0531
  0
LINE
  8
0
 10
-30.5621
 20
51.0531
 11
-30.927
 21
51.1468
  0
LINE
  8
0
 10
-30.927
 20
51.1468
 11
-31.2773
 21
51.2855
  0
LINE
  8
0
 10
-31.2773
 20
51.2855
 11
-31.6075
 21
51.467
  0
LINE
  8
0
 10
-31.6075
 20
51.467
 11
-31.9123
 21
51.6885
  0
LINE
  8
0
 10
-31.9123
 20
51.6885
 11
-32.1869
 21
51.9464
  0
LINE
  8
0
 10
-32.1869
 20
51.9464
 11
-32.427
 21
52.2366
  0
LINE
  8
0
 10
-32.427
 20
52.2366
 11
-32.6289
 21
52.5547
  0
LINE
  8
0
 10
-32.6289
 20
52.5547
 11
-32.7893
 21
52.8956
  0
LINE
  8
0
 10
-32.7893
 20
52.8956
 11
-32.9057
 21
53.2539
  0
LINE
  8
0
 10
-32.9057
 20
53.2539
 11
-32.9763
 21
53.624
  0
LINE
  8
0
 10
-32.9763
 20
53.624
 11
-33
 21
54
  0
LINE
  8
0
 10
-33
 20
54
 11
-32.9763
 21
54.376
  0
LINE
  8
0
 10
-32.9763
 20
54.376
 11
-32.9057
 21
54.7461
  0
LINE
  8
0
 10
-32.9057
 20
54.7461
 11
-32.7893
 21
55.1044
  0
LINE
  8
0
 10
-32.7893
 20
55.1044
 11
-32.6289
 21
55.4453
  0
LINE
  8
0
 10
-32.6289
 20
55.4453
 11
-32.427
 21
55.7634
  0
LINE
  8
0
 10
-32.427
 20
55.7634
 11
-32.1869
 21
56.0536
  0
LINE
  8
0
 10
-32.1869
 20
56.0536
 11
-31.9123
 21
56.3115
  0
LINE
  8
0
 10
-31.9123
 20
56.3115
 11
-31.6075
 21
56.533
  0
LINE
  8
0
 10
-31.6075
 20
56.533
 11
-31.2773
 21
56.7145
  0
LINE
  8
0
 10
-31.2773
 20
56.7145
 11
-30.927
 21
56.8532
  0
LINE
  8
0
 10
-30.927
 20
56.8532
 11
-30.5621
 21
56.9469
  0
LINE
  8
0
 10
-30.5621
 20
56.9469
 11
-30.1884
 21
56.9941
  0
LINE
  8
0
 10
-30.1884
 20
56.9941
 11
-29.8116
 21
56.9941
  0
LINE
  8
0
 10
-29.8116
 20
56.9941
 11
-29.4379
 21
56.9469
  0
LINE
  8
0
 10
-29.4379
 20
56.9469
 11
-29.0729
 21
56.8532
  0
LINE
  8
0
 10
-29.0729
 20
56.8532
 11
-28.7227
 21
56.7145
  0
LINE
  8
0
 10
-28.7227
 20
56.7145
 11
-28.3925
 21
56.533
  0
LINE
  8
0
 10
-28.3925
 20
56.533
 11
-28.0877
 21
56.3115
  0
LINE
  8
0
 10
-28.0877
 20
56.3115
 11
-27.8131
 21
56.0536
  0
LINE
  8
0
 10
-27.8131
 20
56.0536
 11
-27.5729
 21
55.7634
  0
LINE
  8
0
 10
-27.5729
 20
55.7634
 11
-27.3711
 21
55.4453
  0
LINE
  8
0
 10
-27.3711
 20
55.4453
 11
-27.2107
 21
55.1044
  0
LINE
  8
0
 10
-27.2107
 20
55.1044
 11
-27.0942
 21
54.7461
  0
LINE
  8
0
 10
-27.0942
 20
54.7461
 11
-27.0237
 21
54.376
  0
LINE
  8
0
 10
-27.0237
 20
54.376
 11
-27
 21
54
  0
LINE
  8
0
 10
-27
 20
54
 11
-27.0237
 21
53.624
  0
LINE
  8
0
 10
-27.0237
 20
53.624
 11
-27.0942
 21
53.2539
  0
LINE
  8
0
 10
-27.0942
 20
53.2539
 11
-27.2107
 21
52.8956
  0
LINE
  8
0
 10
-27.2107
 20
52.8956
 11
-27.3711
 21
52.5547
  0
LINE
  8
0
 10
-27.3711
 20
52.5547
 11
-27.5729
 21
52.2366
  0
LINE
  8
0
 10
-27.5729
 20
52.2366
 11
-27.8131
 21
51.9464
  0
LINE
  8
0
 10
-27.8131
 20
51.9464
 11
-28.0877
 21
51.6885
  0
LINE
  8
0
 10
-28.0877
 20
51.6885
 11
-28.3925
 21
51.467
  0
LINE
  8
0
 10
-28.3925
 20
51.467
 11
-28.7227
 21
51.2855
  0
LINE
  8
0
 10
-28.7227
 20
51.2855
 11
-29.0729
 21
51.1468
  0
LINE
  8
0
 10
-29.0729
 20
51.1468
 11
-29.4379
 21
51.0531
  0
LINE
  8
0
 10
-29.4379
 20
51.0531
 11
-29.8116
 21
51.0059
  0
LINE
  8
0
 10
-29.8116
 20
51.0059
 11
-30.1884
 21
51.0059
  0
LINE
  8
0
 10
-45.1884
 20
51.0059
 11
-45.5621
 21
51.0531
  0
LINE
  8
0
 10
-45.5621
 20
51.0531
 11
-45.927
 21
51.1468
  0
LINE
  8
0
 10
-45.927
 20
51.1468
 11
-46.2773
 21
51.2855
  0
LINE
  8
0
 10
-46.2773
 20
51.2855
 11
-46.6075
 21
51.467
  0
LINE
  8
0
 10
-46.6075
 20
51.467
 11
-46.9123
 21
51.6885
  0
LINE
  8
0
 10
-46.9123
 20
51.6885
 11
-47.1869
 21
51.9464
  0
LINE
  8
0
 10
-47.1869
 20
51.9464
 11
-47.427
 21
52.2366
  0
LINE
  8
0
 10
-47.427
 20
52.2366
 11
-47.6289
 21
52.5547
  0
LINE
  8
0
 10
-47.6289
 20
52.5547
 11
-47.7893
 21
52.8956
  0
LINE
  8
0
 10
-47.7893
 20
52.8956
 11
-47.9057
 21
53.2539
  0
LINE
  8
0
 10
-47.9057
 20
53.2539
 11
-47.9763
 21
53.624
  0
LINE
  8
0
 10
-47.9763
 20
53.624
 11
-48
 21
54
  0
LINE
  8
0
 10
-48
 20
54
 11
-47.9763
 21
54.376
  0
LINE
  8
0
 10
-47.9763
 20
54.376
 11
-47.9057
 21
54.7461
  0
LINE
  8
0
 10
-47.9057
 20
54.7461
 11
-47.7893
 21
55.1044
  0
LINE
  8
0
 10
-47.7893
 20
55.1044
 11
-47.6289
 21
55.4453
  0
LINE
  8
0
 10
-47.6289
 20
55.4453
 11
-47.427
 21
55.7634
  0
LINE
  8
0
 10
-47.427
 20
55.7634
 11
-47.1869
 21
56.0536
  0
LINE
  8
0
 10
-47.1869
 20
56.0536
 11
-46.9123
 21
56.3115
  0
LINE
  8
0
 10
-46.9123
 20
56.3115
 11
-46.6075
 21
56.533
  0
LINE
  8
0
 10
-46.6075
 20
56.533
 11
-46.2773
 21
56.7145
  0
LINE
  8
0
 10
-46.2773
 20
56.7145
 11
-45.927
 21
56.8532
  0
LINE
  8
0
 10
-45.927
 20
56.8532
 11
-45.5621
 21
56.9469
  0
LINE
  8
0
 10
-45.5621
 20
56.9469
 11
-45.1884
 21
56.9941
  0
LINE
  8
0
 10
-45.1884
 20
56.9941
 11
-44.8116
 21
56.9941
  0
LINE
  8
0
 10
-44.8116
 20
56.9941
 11
-44.4379
 21
56.9469
  0
LINE
  8
0
 10
-44.4379
 20
56.9469
 11
-44.0729
 21
56.8532
  0
LINE
  8
0
 10
-44.0729
 20
56.8532
 11
-43.7227
 21
56.7145
  0
LINE
  8
0
 10
-43.7227
 20
56.7145
 11
-43.3925
 21
56.533
  0
LINE
  8
0
 10
-43.3925
 20
56.533
 11
-43.0877
 21
56.3115
  0
LINE
  8
0
 10
-43.0877
 20
56.3115
 11
-42.8131
 21
56.0536
  0
LINE
  8
0
 10
-42.8131
 20
56.0536
 11
-42.5729
 21
55.7634
  0
LINE
  8
0
 10
-42.5729
 20
55.7634
 11
-42.3711
 21
55.4453
  0
LINE
  8
0
 10
-42.3711
 20
55.4453
 11
-42.2107
 21
55.1044
  0
LINE
  8
0
 10
-42.2107
 20
55.1044
 11
-42.0942
 21
54.7461
  0
LINE
  8
0
 10
-42.0942
 20
54.7461
 11
-42.0237
 21
54.376
  0
LINE
  8
0
 10
-42.0237
 20
54.376
 11
-42
 21
54
  0
LINE
  8
0
 10
-42
 20
54
 11
-42.0237
 21
53.624
  0
LINE
  8
0
 10
-42.0237
 20
53.624
 11
-42.0942
 21
53.2539
  0
LINE
  8
0
 10
-42.0942
 20
53.2539
 11
-42.2107
 21
52.8956
  0
LINE
  8
0
 10
-42.2107
 20
52.8956
 11
-42.3711
 21
52.5547
  0
LINE
  8
0
 10
-42.3711
 20
52.5547
 11
-42.5729
 21
52.2366
  0
LINE
  8
0
 10
-42.5729
 20
52.2366
 11
-42.8131
 21
51.9464
  0
LINE
  8
0
 10
-42.8131
 20
51.9464
 11
-43.0877
 21
51.6885
  0
LINE
  8
0
 10
-43.0877
 20
51.6885
 11
-43.3925
 21
51.467
  0
LINE
  8
0
 10
-43.3925
 20
51.467
 11
-43.7227
 21
51.2855
  0
LINE
  8
0
 10
-43.7227
 20
51.2855
 11
-44.0729
 21
51.1468
  0
LINE
  8
0
 10
-44.0729
 20
51.1468
 11
-44.4379
 21
51.0531
  0
LINE
  8
0
 10
-44.4379
 20
51.0531
 11
-44.8116
 21
51.0059
  0
LINE
  8
0
 10
-44.8116
 20
51.0059
 11
-45.1884
 21
51.0059
  0
LINE
  8
0
 10
-37.5942
 20
52.503
 11
-37.7811
 21
52.5266
  0
LINE
  8
0
 10
-37.7811
 20
52.5266
 11
-37.9635
 21
52.5734
  0
LINE
  8
0
 10
-37.9635
 20
52.5734
 11
-38.1387
 21
52.6428
  0
LINE
  8
0
 10
-38.1387
 20
52.6428
 11
-38.3037
 21
52.7335
  0
LINE
  8
0
 10
-38.3037
 20
52.7335
 11
-38.4561
 21
52.8442
  0
LINE
  8
0
 10
-38.4561
 20
52.8442
 11
-38.5934
 21
52.9732
  0
LINE
  8
0
 10
-38.5934
 20
52.9732
 11
-38.7135
 21
53.1183
  0
LINE
  8
0
 10
-38.7135
 20
53.1183
 11
-38.8145
 21
53.2774
  0
LINE
  8
0
 10
-38.8145
 20
53.2774
 11
-38.8947
 21
53.4478
  0
LINE
  8
0
 10
-38.8947
 20
53.4478
 11
-38.9529
 21
53.627
  0
LINE
  8
0
 10
-38.9529
 20
53.627
 11
-38.9882
 21
53.812
  0
LINE
  8
0
 10
-38.9882
 20
53.812
 11
-39
 21
54
  0
LINE
  8
0
 10
-39
 20
54
 11
-38.9882
 21
54.188
  0
LINE
  8
0
 10
-38.9882
 20
54.188
 11
-38.9529
 21
54.373
  0
LINE
  8
0
 10
-38.9529
 20
54.373
 11
-38.8947
 21
54.5522
  0
LINE
  8
0
 10
-38.8947
 20
54.5522
 11
-38.8145
 21
54.7226
  0
LINE
  8
0
 10
-38.8145
 20
54.7226
 11
-38.7135
 21
54.8817
  0
LINE
  8
0
 10
-38.7135
 20
54.8817
 11
-38.5934
 21
55.0268
  0
LINE
  8
0
 10
-38.5934
 20
55.0268
 11
-38.4561
 21
55.1558
  0
LINE
  8
0
 10
-38.4561
 20
55.1558
 11
-38.3037
 21
55.2665
  0
LINE
  8
0
 10
-38.3037
 20
55.2665
 11
-38.1387
 21
55.3572
  0
LINE
  8
0
 10
-38.1387
 20
55.3572
 11
-37.9635
 21
55.4266
  0
LINE
  8
0
 10
-37.9635
 20
55.4266
 11
-37.7811
 21
55.4734
  0
LINE
  8
0
 10
-37.7811
 20
55.4734
 11
-37.5942
 21
55.497
  0
LINE
  8
0
 10
-37.5942
 20
55.497
 11
-37.4058
 21
55.497
  0
LINE
  8
0
 10
-37.4058
 20
55.497
 11
-37.2189
 21
55.4734
  0
LINE
  8
0
 10
-37.2189
 20
55.4734
 11
-37.0365
 21
55.4266
  0
LINE
  8
0
 10
-37.0365
 20
55.4266
 11
-36.8613
 21
55.3572
  0
LINE
  8
0
 10
-36.8613
 20
55.3572
 11
-36.6963
 21
55.2665
  0
LINE
  8
0
 10
-36.6963
 20
55.2665
 11
-36.5439
 21
55.1558
  0
LINE
  8
0
 10
-36.5439
 20
55.1558
 11
-36.4065
 21
55.0268
  0
LINE
  8
0
 10
-36.4065
 20
55.0268
 11
-36.2865
 21
54.8817
  0
LINE
  8
0
 10
-36.2865
 20
54.8817
 11
-36.1855
 21
54.7226
  0
LINE
  8
0
 10
-36.1855
 20
54.7226
 11
-36.1053
 21
54.5522
  0
LINE
  8
0
 10
-36.1053
 20
54.5522
 11
-36.0471
 21
54.373
  0
LINE
  8
0
 10
-36.0471
 20
54.373
 11
-36.0118
 21
54.188
  0
LINE
  8
0
 10
-36.0118
 20
54.188
 11
-36
 21
54
  0
LINE
  8
0
 10
-36
 20
54
 11
-36.0118
 21
53.812
  0
LINE
  8
0
 10
-36.0118
 20
53.812
 11
-36.0471
 21
53.627
  0
LINE
  8
0
 10
-36.0471
 20
53.627
 11
-36.1053
 21
53.4478
  0
LINE
  8
0
 10
-36.1053
 20
53.4478
 11
-36.1855
 21
53.2774
  0
LINE
  8
0
 10
-36.1855
 20
53.2774
 11
-36.2865
 21
53.1183
  0
LINE
  8
0
 10
-36.2865
 20
53.1183
 11
-36.4065
 21
52.9732
  0
LINE
  8
0
 10
-36.4065
 20
52.9732
 11
-36.5439
 21
52.8442
  0
LINE
  8
0
 10
-36.5439
 20
52.8442
 11
-36.6963
 21
52.7335
  0
LINE
  8
0
 10
-36.6963
 20
52.7335
 11
-36.8613
 21
52.6428
  0
LINE
  8
0
 10
-36.8613
 20
52.6428
 11
-37.0365
 21
52.5734
  0
LINE
  8
0
 10
-37.0365
 20
52.5734
 11
-37.2189
 21
52.5266
  0
LINE
  8
0
 10
-37.2189
 20
52.5266
 11
-37.4058
 21
52.503
  0
LINE
  8
0
 10
-37.4058
 20
52.503
 11
-37.5942
 21
52.503
  0
LINE
  8
0
 10
-45.0942
 20
45.003
 11
-45.2811
 21
45.0266
  0
LINE
  8
0
 10
-45.2811
 20
45.0266
 11
-45.4635
 21
45.0734
  0
LINE
  8
0
 10
-45.4635
 20
45.0734
 11
-45.6387
 21
45.1428
  0
LINE
  8
0
 10
-45.6387
 20
45.1428
 11
-45.8037
 21
45.2335
  0
LINE
  8
0
 10
-45.8037
 20
45.2335
 11
-45.9561
 21
45.3442
  0
LINE
  8
0
 10
-45.9561
 20
45.3442
 11
-46.0934
 21
45.4732
  0
LINE
  8
0
 10
-46.0934
 20
45.4732
 11
-46.2135
 21
45.6183
  0
LINE
  8
0
 10
-46.2135
 20
45.6183
 11
-46.3145
 21
45.7774
  0
LINE
  8
0
 10
-46.3145
 20
45.7774
 11
-46.3947
 21
45.9478
  0
LINE
  8
0
 10
-46.3947
 20
45.9478
 11
-46.4529
 21
46.127
  0
LINE
  8
0
 10
-46.4529
 20
46.127
 11
-46.4882
 21
46.312
  0
LINE
  8
0
 10
-46.4882
 20
46.312
 11
-46.5
 21
46.5
  0
LINE
  8
0
 10
-46.5
 20
46.5
 11
-46.4882
 21
46.688
  0
LINE
  8
0
 10
-46.4882
 20
46.688
 11
-46.4529
 21
46.873
  0
LINE
  8
0
 10
-46.4529
 20
46.873
 11
-46.3947
 21
47.0522
  0
LINE
  8
0
 10
-46.3947
 20
47.0522
 11
-46.3145
 21
47.2226
  0
LINE
  8
0
 10
-46.3145
 20
47.2226
 11
-46.2135
 21
47.3817
  0
LINE
  8
0
 10
-46.2135
 20
47.3817
 11
-46.0934
 21
47.5268
  0
LINE
  8
0
 10
-46.0934
 20
47.5268
 11
-45.9561
 21
47.6558
  0
LINE
  8
0
 10
-45.9561
 20
47.6558
 11
-45.8037
 21
47.7665
  0
LINE
  8
0
 10
-45.8037
 20
47.7665
 11
-45.6387
 21
47.8573
  0
LINE
  8
0
 10
-45.6387
 20
47.8573
 11
-45.4635
 21
47.9266
  0
LINE
  8
0
 10
-45.4635
 20
47.9266
 11
-45.2811
 21
47.9734
  0
LINE
  8
0
 10
-45.2811
 20
47.9734
 11
-45.0942
 21
47.9971
  0
LINE
  8
0
 10
-45.0942
 20
47.9971
 11
-44.9058
 21
47.9971
  0
LINE
  8
0
 10
-44.9058
 20
47.9971
 11
-44.7189
 21
47.9734
  0
LINE
  8
0
 10
-44.7189
 20
47.9734
 11
-44.5365
 21
47.9266
  0
LINE
  8
0
 10
-44.5365
 20
47.9266
 11
-44.3613
 21
47.8573
  0
LINE
  8
0
 10
-44.3613
 20
47.8573
 11
-44.1963
 21
47.7665
  0
LINE
  8
0
 10
-44.1963
 20
47.7665
 11
-44.0439
 21
47.6558
  0
LINE
  8
0
 10
-44.0439
 20
47.6558
 11
-43.9065
 21
47.5268
  0
LINE
  8
0
 10
-43.9065
 20
47.5268
 11
-43.7865
 21
47.3817
  0
LINE
  8
0
 10
-43.7865
 20
47.3817
 11
-43.6855
 21
47.2226
  0
LINE
  8
0
 10
-43.6855
 20
47.2226
 11
-43.6053
 21
47.0522
  0
LINE
  8
0
 10
-43.6053
 20
47.0522
 11
-43.5471
 21
46.873
  0
LINE
  8
0
 10
-43.5471
 20
46.873
 11
-43.5118
 21
46.688
  0
LINE
  8
0
 10
-43.5118
 20
46.688
 11
-43.5
 21
46.5
  0
LINE
  8
0
 10
-43.5
 20
46.5
 11
-43.5118
 21
46.312
  0
LINE
  8
0
 10
-43.5118
 20
46.312
 11
-43.5471
 21
46.127
  0
LINE
  8
0
 10
-43.5471
 20
46.127
 11
-43.6053
 21
45.9478
  0
LINE
  8
0
 10
-43.6053
 20
45.9478
 11
-43.6855
 21
45.7774
  0
LINE
  8
0
 10
-43.6855
 20
45.7774
 11
-43.7865
 21
45.6183
  0
LINE
  8
0
 10
-43.7865
 20
45.6183
 11
-43.9065
 21
45.4732
  0
LINE
  8
0
 10
-43.9065
 20
45.4732
 11
-44.0439
 21
45.3442
  0
LINE
  8
0
 10
-44.0439
 20
45.3442
 11
-44.1963
 21
45.2335
  0
LINE
  8
0
 10
-44.1963
 20
45.2335
 11
-44.3613
 21
45.1428
  0
LINE
  8
0
 10
-44.3613
 20
45.1428
 11
-44.5365
 21
45.0734
  0
LINE
  8
0
 10
-44.5365
 20
45.0734
 11
-44.7189
 21
45.0266
  0
LINE
  8
0
 10
-44.7189
 20
45.0266
 11
-44.9058
 21
45.003
  0
LINE
  8
0
 10
-44.9058
 20
45.003
 11
-45.0942
 21
45.003
  0
LINE
  8
0
 10
-30.0942
 20
45.003
 11
-30.2811
 21
45.0266
  0
LINE
  8
0
 10
-30.2811
 20
45.0266
 11
-30.4635
 21
45.0734
  0
LINE
  8
0
 10
-30.4635
 20
45.0734
 11
-30.6387
 21
45.1428
  0
LINE
  8
0
 10
-30.6387
 20
45.1428
 11
-30.8037
 21
45.2335
  0
LINE
  8
0
 10
-30.8037
 20
45.2335
 11
-30.9561
 21
45.3442
  0
LINE
  8
0
 10
-30.9561
 20
45.3442
 11
-31.0934
 21
45.4732
  0
LINE
  8
0
 10
-31.0934
 20
45.4732
 11
-31.2135
 21
45.6183
  0
LINE
  8
0
 10
-31.2135
 20
45.6183
 11
-31.3145
 21
45.7774
  0
LINE
  8
0
 10
-31.3145
 20
45.7774
 11
-31.3947
 21
45.9478
  0
LINE
  8
0
 10
-31.3947
 20
45.9478
 11
-31.4529
 21
46.127
  0
LINE
  8
0
 10
-31.4529
 20
46.127
 11
-31.4882
 21
46.312
  0
LINE
  8
0
 10
-31.4882
 20
46.312
 11
-31.5
 21
46.5
  0
LINE
  8
0
 10
-31.5
 20
46.5
 11
-31.4882
 21
46.688
  0
LINE
  8
0
 10
-31.4882
 20
46.688
 11
-31.4529
 21
46.873
  0
LINE
  8
0
 10
-31.4529
 20
46.873
 11
-31.3947
 21
47.0522
  0
LINE
  8
0
 10
-31.3947
 20
47.0522
 11
-31.3145
 21
47.2226
  0
LINE
  8
0
 10
-31.3145
 20
47.2226
 11
-31.2135
 21
47.3817
  0
LINE
  8
0
 10
-31.2135
 20
47.3817
 11
-31.0934
 21
47.5268
  0
LINE
  8
0
 10
-31.0934
 20
47.5268
 11
-30.9561
 21
47.6558
  0
LINE
  8
0
 10
-30.9561
 20
47.6558
 11
-30.8037
 21
47.7665
  0
LINE
  8
0
 10
-30.8037
 20
47.7665
 11
-30.6387
 21
47.8573
  0
LINE
  8
0
 10
-30.6387
 20
47.8573
 11
-30.4635
 21
47.9266
  0
LINE
  8
0
 10
-30.4635
 20
47.9266
 11
-30.2811
 21
47.9734
  0
LINE
  8
0
 10
-30.2811
 20
47.9734
 11
-30.0942
 21
47.9971
  0
LINE
  8
0
 10
-30.0942
 20
47.9971
 11
-29.9058
 21
47.9971
  0
LINE
  8
0
 10
-29.9058
 20
47.9971
 11
-29.7189
 21
47.9734
  0
LINE
  8
0
 10
-29.7189
 20
47.9734
 11
-29.5365
 21
47.9266
  0
LINE
  8
0
 10
-29.5365
 20
47.9266
 11
-29.3613
 21
47.8573
  0
LINE
  8
0
 10
-29.3613
 20
47.8573
 11
-29.1963
 21
47.7665
  0
LINE
  8
0
 10
-29.1963
 20
47.7665
 11
-29.0439
 21
47.6558
  0
LINE
  8
0
 10
-29.0439
 20
47.6558
 11
-28.9065
 21
47.5268
  0
LINE
  8
0
 10
-28.9065
 20
47.5268
 11
-28.7865
 21
47.3817
  0
LINE
  8
0
 10
-28.7865
 20
47.3817
 11
-28.6855
 21
47.2226
  0
LINE
  8
0
 10
-28.6855
 20
47.2226
 11
-28.6053
 21
47.0522
  0
LINE
  8
0
 10
-28.6053
 20
47.0522
 11
-28.5471
 21
46.873
  0
LINE
  8
0
 10
-28.5471
 20
46.873
 11
-28.5118
 21
46.688
  0
LINE
  8
0
 10
-28.5118
 20
46.688
 11
-28.5
 21
46.5
  0
LINE
  8
0
 10
-28.5
 20
46.5
 11
-28.5118
 21
46.312
  0
LINE
  8
0
 10
-28.5118
 20
46.312
 11
-28.5471
 21
46.127
  0
LINE
  8
0
 10
-28.5471
 20
46.127
 11
-28.6053
 21
45.9478
  0
LINE
  8
0
 10
-28.6053
 20
45.9478
 11
-28.6855
 21
45.7774
  0
LINE
  8
0
 10
-28.6855
 20
45.7774
 11
-28.7865
 21
45.6183
  0
LINE
  8
0
 10
-28.7865
 20
45.6183
 11
-28.9065
 21
45.4732
  0
LINE
  8
0
 10
-28.9065
 20
45.4732
 11
-29.0439
 21
45.3442
  0
LINE
  8
0
 10
-29.0439
 20
45.3442
 11
-29.1963
 21
45.2335
  0
LINE
  8
0
 10
-29.1963
 20
45.2335
 11
-29.3613
 21
45.1428
  0
LINE
  8
0
 10
-29.3613
 20
45.1428
 11
-29.5365
 21
45.0734
  0
LINE
  8
0
 10
-29.5365
 20
45.0734
 11
-29.7189
 21
45.0266
  0
LINE
  8
0
 10
-29.7189
 20
45.0266
 11
-29.9058
 21
45.003
  0
LINE
  8
0
 10
-29.9058
 20
45.003
 11
-30.0942
 21
45.003
  0
LINE
  8
0
 10
-30.1884
 20
36.0059
 11
-30.5621
 21
36.0531
  0
LINE
  8
0
 10
-30.5621
 20
36.0531
 11
-30.927
 21
36.1468
  0
LINE
  8
0
 10
-30.927
 20
36.1468
 11
-31.2773
 21
36.2855
  0
LINE
  8
0
 10
-31.2773
 20
36.2855
 11
-31.6075
 21
36.467
  0
LINE
  8
0
 10
-31.6075
 20
36.467
 11
-31.9123
 21
36.6885
  0
LINE
  8
0
 10
-31.9123
 20
36.6885
 11
-32.1869
 21
36.9464
  0
LINE
  8
0
 10
-32.1869
 20
36.9464
 11
-32.427
 21
37.2366
  0
LINE
  8
0
 10
-32.427
 20
37.2366
 11
-32.6289
 21
37.5547
  0
LINE
  8
0
 10
-32.6289
 20
37.5547
 11
-32.7893
 21
37.8956
  0
LINE
  8
0
 10
-32.7893
 20
37.8956
 11
-32.9057
 21
38.2539
  0
LINE
  8
0
 10
-32.9057
 20
38.2539
 11
-32.9763
 21
38.624
  0
LINE
  8
0
 10
-32.9763
 20
38.624
 11
-33
 21
39
  0
LINE
  8
0
 10
-33
 20
39
 11
-32.9763
 21
39.376
  0
LINE
  8
0
 10
-32.9763
 20
39.376
 11
-32.9057
 21
39.7461
  0
LINE
  8
0
 10
-32.9057
 20
39.7461
 11
-32.7893
 21
40.1044
  0
LINE
  8
0
 10
-32.7893
 20
40.1044
 11
-32.6289
 21
40.4453
  0
LINE
  8
0
 10
-32.6289
 20
40.4453
 11
-32.427
 21
40.7634
  0
LINE
  8
0
 10
-32.427
 20
40.7634
 11
-32.1869
 21
41.0536
  0
LINE
  8
0
 10
-32.1869
 20
41.0536
 11
-31.9123
 21
41.3116
  0
LINE
  8
0
 10
-31.9123
 20
41.3116
 11
-31.6075
 21
41.533
  0
LINE
  8
0
 10
-31.6075
 20
41.533
 11
-31.2773
 21
41.7145
  0
LINE
  8
0
 10
-31.2773
 20
41.7145
 11
-30.927
 21
41.8532
  0
LINE
  8
0
 10
-30.927
 20
41.8532
 11
-30.5621
 21
41.9469
  0
LINE
  8
0
 10
-30.5621
 20
41.9469
 11
-30.1884
 21
41.9941
  0
LINE
  8
0
 10
-30.1884
 20
41.9941
 11
-29.8116
 21
41.9941
  0
LINE
  8
0
 10
-29.8116
 20
41.9941
 11
-29.4379
 21
41.9469
  0
LINE
  8
0
 10
-29.4379
 20
41.9469
 11
-29.0729
 21
41.8532
  0
LINE
  8
0
 10
-29.0729
 20
41.8532
 11
-28.7227
 21
41.7145
  0
LINE
  8
0
 10
-28.7227
 20
41.7145
 11
-28.3925
 21
41.533
  0
LINE
  8
0
 10
-28.3925
 20
41.533
 11
-28.0877
 21
41.3116
  0
LINE
  8
0
 10
-28.0877
 20
41.3116
 11
-27.8131
 21
41.0536
  0
LINE
  8
0
 10
-27.8131
 20
41.0536
 11
-27.5729
 21
40.7634
  0
LINE
  8
0
 10
-27.5729
 20
40.7634
 11
-27.3711
 21
40.4453
  0
LINE
  8
0
 10
-27.3711
 20
40.4453
 11
-27.2107
 21
40.1044
  0
LINE
  8
0
 10
-27.2107
 20
40.1044
 11
-27.0942
 21
39.7461
  0
LINE
  8
0
 10
-27.0942
 20
39.7461
 11
-27.0237
 21
39.376
  0
LINE
  8
0
 10
-27.0237
 20
39.376
 11
-27
 21
39
  0
LINE
  8
0
 10
-27
 20
39
 11
-27.0237
 21
38.624
  0
LINE
  8
0
 10
-27.0237
 20
38.624
 11
-27.0942
 21
38.2539
  0
LINE
  8
0
 10
-27.0942
 20
38.2539
 11
-27.2107
 21
37.8956
  0
LINE
  8
0
 10
-27.2107
 20
37.8956
 11
-27.3711
 21
37.5547
  0
LINE
  8
0
 10
-27.3711
 20
37.5547
 11
-27.5729
 21
37.2366
  0
LINE
  8
0
 10
-27.5729
 20
37.2366
 11
-27.8131
 21
36.9464
  0
LINE
  8
0
 10
-27.8131
 20
36.9464
 11
-28.0877
 21
36.6885
  0
LINE
  8
0
 10
-28.0877
 20
36.6885
 11
-28.3925
 21
36.467
  0
LINE
  8
0
 10
-28.3925
 20
36.467
 11
-28.7227
 21
36.2855
  0
LINE
  8
0
 10
-28.7227
 20
36.2855
 11
-29.0729
 21
36.1468
  0
LINE
  8
0
 10
-29.0729
 20
36.1468
 11
-29.4379
 21
36.0531
  0
LINE
  8
0
 10
-29.4379
 20
36.0531
 11
-29.8116
 21
36.0059
  0
LINE
  8
0
 10
-29.8116
 20
36.0059
 11
-30.1884
 21
36.0059
  0
LINE
  8
0
 10
-45.1884
 20
36.0059
 11
-45.5621
 21
36.0531
  0
LINE
  8
0
 10
-45.5621
 20
36.0531
 11
-45.927
 21
36.1468
  0
LINE
  8
0
 10
-45.927
 20
36.1468
 11
-46.2773
 21
36.2855
  0
LINE
  8
0
 10
-46.2773
 20
36.2855
 11
-46.6075
 21
36.467
  0
LINE
  8
0
 10
-46.6075
 20
36.467
 11
-46.9123
 21
36.6885
  0
LINE
  8
0
 10
-46.9123
 20
36.6885
 11
-47.1869
 21
36.9464
  0
LINE
  8
0
 10
-47.1869
 20
36.9464
 11
-47.427
 21
37.2366
  0
LINE
  8
0
 10
-47.427
 20
37.2366
 11
-47.6289
 21
37.5547
  0
LINE
  8
0
 10
-47.6289
 20
37.5547
 11
-47.7893
 21
37.8956
  0
LINE
  8
0
 10
-47.7893
 20
37.8956
 11
-47.9057
 21
38.2539
  0
LINE
  8
0
 10
-47.9057
 20
38.2539
 11
-47.9763
 21
38.624
  0
LINE
  8
0
 10
-47.9763
 20
38.624
 11
-48
 21
39
  0
LINE
  8
0
 10
-48
 20
39
 11
-47.9763
 21
39.376
  0
LINE
  8
0
 10
-47.9763
 20
39.376
 11
-47.9057
 21
39.7461
  0
LINE
  8
0
 10
-47.9057
 20
39.7461
 11
-47.7893
 21
40.1044
  0
LINE
  8
0
 10
-47.7893
 20
40.1044
 11
-47.6289
 21
40.4453
  0
LINE
  8
0
 10
-47.6289
 20
40.4453
 11
-47.427
 21
40.7634
  0
LINE
  8
0
 10
-47.427
 20
40.7634
 11
-47.1869
 21
41.0536
  0
LINE
  8
0
 10
-47.1869
 20
41.0536
 11
-46.9123
 21
41.3116
  0
LINE
  8
0
 10
-46.9123
 20
41.3116
 11
-46.6075
 21
41.533
  0
LINE
  8
0
 10
-46.6075
 20
41.533
 11
-46.2773
 21
41.7145
  0
LINE
  8
0
 10
-46.2773
 20
41.7145
 11
-45.927
 21
41.8532
  0
LINE
  8
0
 10
-45.927
 20
41.8532
 11
-45.5621
 21
41.9469
  0
LINE
  8
0
 10
-45.5621
 20
41.9469
 11
-45.1884
 21
41.9941
  0
LINE
  8
0
 10
-45.1884
 20
41.9941
 11
-44.8116
 21
41.9941
  0
LINE
  8
0
 10
-44.8116
 20
41.9941
 11
-44.4379
 21
41.9469
  0
LINE
  8
0
 10
-44.4379
 20
41.9469
 11
-44.0729
 21
41.8532
  0
LINE
  8
0
 10
-44.0729
 20
41.8532
 11
-43.7227
 21
41.7145
  0
LINE
  8
0
 10
-43.7227
 20
41.7145
 11
-43.3925
 21
41.533
  0
LINE
  8
0
 10
-43.3925
 20
41.533
 11
-43.0877
 21
41.3116
  0
LINE
  8
0
 10
-43.0877
 20
41.3116
 11
-42.8131
 21
41.0536
  0
LINE
  8
0
 10
-42.8131
 20
41.0536
 11
-42.5729
 21
40.7634
  0
LINE
  8
0
 10
-42.5729
 20
40.7634
 11
-42.3711
 21
40.4453
  0
LINE
  8
0
 10
-42.3711
 20
40.4453
 11
-42.2107
 21
40.1044
  0
LINE
  8
0
 10
-42.2107
 20
40.1044
 11
-42.0942
 21
39.7461
  0
LINE
  8
0
 10
-42.0942
 20
39.7461
 11
-42.0237
 21
39.376
  0
LINE
  8
0
 10
-42.0237
 20
39.376
 11
-42
 21
39
  0
LINE
  8
0
 10
-42
 20
39
 11
-42.0237
 21
38.624
  0
LINE
  8
0
 10
-42.0237
 20
38.624
 11
-42.0942
 21
38.2539
  0
LINE
  8
0
 10
-42.0942
 20
38.2539
 11
-42.2107
 21
37.8956
  0
LINE
  8
0
 10
-42.2107
 20
37.8956
 11
-42.3711
 21
37.5547
  0
LINE
  8
0
 10
-42.3711
 20
37.5547
 11
-42.5729
 21
37.2366
  0
LINE
  8
0
 10
-42.5729
 20
37.2366
 11
-42.8131
 21
36.9464
  0
LINE
  8
0
 10
-42.8131
 20
36.9464
 11
-43.0877
 21
36.6885
  0
LINE
  8
0
 10
-43.0877
 20
36.6885
 11
-43.3925
 21
36.467
  0
LINE
  8
0
 10
-43.3925
 20
36.467
 11
-43.7227
 21
36.2855
  0
LINE
  8
0
 10
-43.7227
 20
36.2855
 11
-44.0729
 21
36.1468
  0
LINE
  8
0
 10
-44.0729
 20
36.1468
 11
-44.4379
 21
36.0531
  0
LINE
  8
0
 10
-44.4379
 20
36.0531
 11
-44.8116
 21
36.0059
  0
LINE
  8
0
 10
-44.8116
 20
36.0059
 11
-45.1884
 21
36.0059
  0
LINE
  8
0
 10
-37.5942
 20
37.503
 11
-37.7811
 21
37.5266
  0
LINE
  8
0
 10
-37.7811
 20
37.5266
 11
-37.9635
 21
37.5734
  0
LINE
  8
0
 10
-37.9635
 20
37.5734
 11
-38.1387
 21
37.6428
  0
LINE
  8
0
 10
-38.1387
 20
37.6428
 11
-38.3037
 21
37.7335
  0
LINE
  8
0
 10
-38.3037
 20
37.7335
 11
-38.4561
 21
37.8442
  0
LINE
  8
0
 10
-38.4561
 20
37.8442
 11
-38.5934
 21
37.9732
  0
LINE
  8
0
 10
-38.5934
 20
37.9732
 11
-38.7135
 21
38.1183
  0
LINE
  8
0
 10
-38.7135
 20
38.1183
 11
-38.8145
 21
38.2774
  0
LINE
  8
0
 10
-38.8145
 20
38.2774
 11
-38.8947
 21
38.4478
  0
LINE
  8
0
 10
-38.8947
 20
38.4478
 11
-38.9529
 21
38.627
  0
LINE
  8
0
 10
-38.9529
 20
38.627
 11
-38.9882
 21
38.812
  0
LINE
  8
0
 10
-38.9882
 20
38.812
 11
-39
 21
39
  0
LINE
  8
0
 10
-39
 20
39
 11
-38.9882
 21
39.188
  0
LINE
  8
0
 10
-38.9882
 20
39.188
 11
-38.9529
 21
39.373
  0
LINE
  8
0
 10
-38.9529
 20
39.373
 11
-38.8947
 21
39.5522
  0
LINE
  8
0
 10
-38.8947
 20
39.5522
 11
-38.8145
 21
39.7226
  0
LINE
  8
0
 10
-38.8145
 20
39.7226
 11
-38.7135
 21
39.8817
  0
LINE
  8
0
 10
-38.7135
 20
39.8817
 11
-38.5934
 21
40.0268
  0
LINE
  8
0
 10
-38.5934
 20
40.0268
 11
-38.4561
 21
40.1558
  0
LINE
  8
0
 10
-38.4561
 20
40.1558
 11
-38.3037
 21
40.2665
  0
LINE
  8
0
 10
-38.3037
 20
40.2665
 11
-38.1387
 21
40.3573
  0
LINE
  8
0
 10
-38.1387
 20
40.3573
 11
-37.9635
 21
40.4266
  0
LINE
  8
0
 10
-37.9635
 20
40.4266
 11
-37.7811
 21
40.4734
  0
LINE
  8
0
 10
-37.7811
 20
40.4734
 11
-37.5942
 21
40.4971
  0
LINE
  8
0
 10
-37.5942
 20
40.4971
 11
-37.4058
 21
40.4971
  0
LINE
  8
0
 10
-37.4058
 20
40.4971
 11
-37.2189
 21
40.4734
  0
LINE
  8
0
 10
-37.2189
 20
40.4734
 11
-37.0365
 21
40.4266
  0
LINE
  8
0
 10
-37.0365
 20
40.4266
 11
-36.8613
 21
40.3573
  0
LINE
  8
0
 10
-36.8613
 20
40.3573
 11
-36.6963
 21
40.2665
  0
LINE
  8
0
 10
-36.6963
 20
40.2665
 11
-36.5439
 21
40.1558
  0
LINE
  8
0
 10
-36.5439
 20
40.1558
 11
-36.4065
 21
40.0268
  0
LINE
  8
0
 10
-36.4065
 20
40.0268
 11
-36.2865
 21
39.8817
  0
LINE
  8
0
 10
-36.2865
 20
39.8817
 11
-36.1855
 21
39.7226
  0
LINE
  8
0
 10
-36.1855
 20
39.7226
 11
-36.1053
 21
39.5522
  0
LINE
  8
0
 10
-36.1053
 20
39.5522
 11
-36.0471
 21
39.373
  0
LINE
  8
0
 10
-36.0471
 20
39.373
 11
-36.0118
 21
39.188
  0
LINE
  8
0
 10
-36.0118
 20
39.188
 11
-36
 21
39
  0
LINE
  8
0
 10
-36
 20
39
 11
-36.0118
 21
38.812
  0
LINE
  8
0
 10
-36.0118
 20
38.812
 11
-36.0471
 21
38.627
  0
LINE
  8
0
 10
-36.0471
 20
38.627
 11
-36.1053
 21
38.4478
  0
LINE
  8
0
 10
-36.1053
 20
38.4478
 11
-36.1855
 21
38.2774
  0
LINE
  8
0
 10
-36.1855
 20
38.2774
 11
-36.2865
 21
38.1183
  0
LINE
  8
0
 10
-36.2865
 20
38.1183
 11
-36.4065
 21
37.9732
  0
LINE
  8
0
 10
-36.4065
 20
37.9732
 11
-36.5439
 21
37.8442
  0
LINE
  8
0
 10
-36.5439
 20
37.8442
 11
-36.6963
 21
37.7335
  0
LINE
  8
0
 10
-36.6963
 20
37.7335
 11
-36.8613
 21
37.6428
  0
LINE
  8
0
 10
-36.8613
 20
37.6428
 11
-37.0365
 21
37.5734
  0
LINE
  8
0
 10
-37.0365
 20
37.5734
 11
-37.2189
 21
37.5266
  0
LINE
  8
0
 10
-37.2189
 20
37.5266
 11
-37.4058
 21
37.503
  0
LINE
  8
0
 10
-37.4058
 20
37.503
 11
-37.5942
 21
37.503
  0
LINE
  8
0
 10
-22.5942
 20
37.503
 11
-22.7811
 21
37.5266
  0
LINE
  8
0
 10
-22.7811
 20
37.5266
 11
-22.9635
 21
37.5734
  0
LINE
  8
0
 10
-22.9635
 20
37.5734
 11
-23.1387
 21
37.6428
  0
LINE
  8
0
 10
-23.1387
 20
37.6428
 11
-23.3037
 21
37.7335
  0
LINE
  8
0
 10
-23.3037
 20
37.7335
 11
-23.4561
 21
37.8442
  0
LINE
  8
0
 10
-23.4561
 20
37.8442
 11
-23.5934
 21
37.9732
  0
LINE
  8
0
 10
-23.5934
 20
37.9732
 11
-23.7135
 21
38.1183
  0
LINE
  8
0
 10
-23.7135
 20
38.1183
 11
-23.8145
 21
38.2774
  0
LINE
  8
0
 10
-23.8145
 20
38.2774
 11
-23.8947
 21
38.4478
  0
LINE
  8
0
 10
-23.8947
 20
38.4478
 11
-23.9529
 21
38.627
  0
LINE
  8
0
 10
-23.9529
 20
38.627
 11
-23.9882
 21
38.812
  0
LINE
  8
0
 10
-23.9882
 20
38.812
 11
-24
 21
39
  0
LINE
  8
0
 10
-24
 20
39
 11
-23.9882
 21
39.188
  0
LINE
  8
0
 10
-23.9882
 20
39.188
 11
-23.9529
 21
39.373
  0
LINE
  8
0
 10
-23.9529
 20
39.373
 11
-23.8947
 21
39.5522
  0
LINE
  8
0
 10
-23.8947
 20
39.5522
 11
-23.8145
 21
39.7226
  0
LINE
  8
0
 10
-23.8145
 20
39.7226
 11
-23.7135
 21
39.8817
  0
LINE
  8
0
 10
-23.7135
 20
39.8817
 11
-23.5934
 21
40.0268
  0
LINE
  8
0
 10
-23.5934
 20
40.0268
 11
-23.4561
 21
40.1558
  0
LINE
  8
0
 10
-23.4561
 20
40.1558
 11
-23.3037
 21
40.2665
  0
LINE
  8
0
 10
-23.3037
 20
40.2665
 11
-23.1387
 21
40.3573
  0
LINE
  8
0
 10
-23.1387
 20
40.3573
 11
-22.9635
 21
40.4266
  0
LINE
  8
0
 10
-22.9635
 20
40.4266
 11
-22.7811
 21
40.4734
  0
LINE
  8
0
 10
-22.7811
 20
40.4734
 11
-22.5942
 21
40.4971
  0
LINE
  8
0
 10
-22.5942
 20
40.4971
 11
-22.4058
 21
40.4971
  0
LINE
  8
0
 10
-22.4058
 20
40.4971
 11
-22.2189
 21
40.4734
  0
LINE
  8
0
 10
-22.2189
 20
40.4734
 11
-22.0365
 21
40.4266
  0
LINE
  8
0
 10
-22.0365
 20
40.4266
 11
-21.8613
 21
40.3573
  0
LINE
  8
0
 10
-21.8613
 20
40.3573
 11
-21.6963
 21
40.2665
  0
LINE
  8
0
 10
-21.6963
 20
40.2665
 11
-21.5439
 21
40.1558
  0
LINE
  8
0
 10
-21.5439
 20
40.1558
 11
-21.4065
 21
40.0268
  0
LINE
  8
0
 10
-21.4065
 20
40.0268
 11
-21.2865
 21
39.8817
  0
LINE
  8
0
 10
-21.2865
 20
39.8817
 11
-21.1855
 21
39.7226
  0
LINE
  8
0
 10
-21.1855
 20
39.7226
 11
-21.1053
 21
39.5522
  0
LINE
  8
0
 10
-21.1053
 20
39.5522
 11
-21.0471
 21
39.373
  0
LINE
  8
0
 10
-21.0471
 20
39.373
 11
-21.0118
 21
39.188
  0
LINE
  8
0
 10
-21.0118
 20
39.188
 11
-21
 21
39
  0
LINE
  8
0
 10
-21
 20
39
 11
-21.0118
 21
38.812
  0
LINE
  8
0
 10
-21.0118
 20
38.812
 11
-21.0471
 21
38.627
  0
LINE
  8
0
 10
-21.0471
 20
38.627
 11
-21.1053
 21
38.4478
  0
LINE
  8
0
 10
-21.1053
 20
38.4478
 11
-21.1855
 21
38.2774
  0
LINE
  8
0
 10
-21.1855
 20
38.2774
 11
-21.2865
 21
38.1183
  0
LINE
  8
0
 10
-21.2865
 20
38.1183
 11
-21.4065
 21
37.9732
  0
LINE
  8
0
 10
-21.4065
 20
37.9732
 11
-21.5439
 21
37.8442
  0
LINE
  8
0
 10
-21.5439
 20
37.8442
 11
-21.6963
 21
37.7335
  0
LINE
  8
0
 10
-21.6963
 20
37.7335
 11
-21.8613
 21
37.6428
  0
LINE
  8
0
 10
-21.8613
 20
37.6428
 11
-22.0365
 21
37.5734
  0
LINE
  8
0
 10
-22.0365
 20
37.5734
 11
-22.2189
 21
37.5266
  0
LINE
  8
0
 10
-22.2189
 20
37.5266
 11
-22.4058
 21
37.503
  0
LINE
  8
0
 10
-22.4058
 20
37.503
 11
-22.5942
 21
37.503
  0
LINE
  8
0
 10
15.387
 20
36.7036
 11
15.1627
 21
36.7319
  0
LINE
  8
0
 10
15.1627
 20
36.7319
 11
14.9438
 21
36.7881
  0
LINE
  8
0
 10
14.9438
 20
36.7881
 11
14.7336
 21
36.8713
  0
LINE
  8
0
 10
14.7336
 20
36.8713
 11
14.5355
 21
36.9802
  0
LINE
  8
0
 10
14.5355
 20
36.9802
 11
14.3526
 21
37.1131
  0
LINE
  8
0
 10
14.3526
 20
37.1131
 11
14.1879
 21
37.2678
  0
LINE
  8
0
 10
14.1879
 20
37.2678
 11
14.0438
 21
37.442
  0
LINE
  8
0
 10
14.0438
 20
37.442
 11
13.9226
 21
37.6328
  0
LINE
  8
0
 10
13.9226
 20
37.6328
 11
13.8264
 21
37.8374
  0
LINE
  8
0
 10
13.8264
 20
37.8374
 11
13.7565
 21
38.0524
  0
LINE
  8
0
 10
13.7565
 20
38.0524
 11
13.7142
 21
38.2744
  0
LINE
  8
0
 10
13.7142
 20
38.2744
 11
13.7
 21
38.5
  0
LINE
  8
0
 10
13.7
 20
38.5
 11
13.7142
 21
38.7256
  0
LINE
  8
0
 10
13.7142
 20
38.7256
 11
13.7565
 21
38.9476
  0
LINE
  8
0
 10
13.7565
 20
38.9476
 11
13.8264
 21
39.1626
  0
LINE
  8
0
 10
13.8264
 20
39.1626
 11
13.9226
 21
39.3672
  0
LINE
  8
0
 10
13.9226
 20
39.3672
 11
14.0438
 21
39.558
  0
LINE
  8
0
 10
14.0438
 20
39.558
 11
14.1879
 21
39.7322
  0
LINE
  8
0
 10
14.1879
 20
39.7322
 11
14.3526
 21
39.8869
  0
LINE
  8
0
 10
14.3526
 20
39.8869
 11
14.5355
 21
40.0198
  0
LINE
  8
0
 10
14.5355
 20
40.0198
 11
14.7336
 21
40.1287
  0
LINE
  8
0
 10
14.7336
 20
40.1287
 11
14.9438
 21
40.2119
  0
LINE
  8
0
 10
14.9438
 20
40.2119
 11
15.1627
 21
40.2681
  0
LINE
  8
0
 10
15.1627
 20
40.2681
 11
15.387
 21
40.2964
  0
LINE
  8
0
 10
15.387
 20
40.2964
 11
15.613
 21
40.2964
  0
LINE
  8
0
 10
15.613
 20
40.2964
 11
15.8373
 21
40.2681
  0
LINE
  8
0
 10
15.8373
 20
40.2681
 11
16.0562
 21
40.2119
  0
LINE
  8
0
 10
16.0562
 20
40.2119
 11
16.2664
 21
40.1287
  0
LINE
  8
0
 10
16.2664
 20
40.1287
 11
16.4645
 21
40.0198
  0
LINE
  8
0
 10
16.4645
 20
40.0198
 11
16.6474
 21
39.8869
  0
LINE
  8
0
 10
16.6474
 20
39.8869
 11
16.8121
 21
39.7322
  0
LINE
  8
0
 10
16.8121
 20
39.7322
 11
16.9562
 21
39.558
  0
LINE
  8
0
 10
16.9562
 20
39.558
 11
17.0773
 21
39.3672
  0
LINE
  8
0
 10
17.0773
 20
39.3672
 11
17.1736
 21
39.1626
  0
LINE
  8
0
 10
17.1736
 20
39.1626
 11
17.2434
 21
38.9476
  0
LINE
  8
0
 10
17.2434
 20
38.9476
 11
17.2858
 21
38.7256
  0
LINE
  8
0
 10
17.2858
 20
38.7256
 11
17.3
 21
38.5
  0
LINE
  8
0
 10
17.3
 20
38.5
 11
17.2858
 21
38.2744
  0
LINE
  8
0
 10
17.2858
 20
38.2744
 11
17.2434
 21
38.0524
  0
LINE
  8
0
 10
17.2434
 20
38.0524
 11
17.1736
 21
37.8374
  0
LINE
  8
0
 10
17.1736
 20
37.8374
 11
17.0773
 21
37.6328
  0
LINE
  8
0
 10
17.0773
 20
37.6328
 11
16.9562
 21
37.442
  0
LINE
  8
0
 10
16.9562
 20
37.442
 11
16.8121
 21
37.2678
  0
LINE
  8
0
 10
16.8121
 20
37.2678
 11
16.6474
 21
37.1131
  0
LINE
  8
0
 10
16.6474
 20
37.1131
 11
16.4645
 21
36.9802
  0
LINE
  8
0
 10
16.4645
 20
36.9802
 11
16.2664
 21
36.8713
  0
LINE
  8
0
 10
16.2664
 20
36.8713
 11
16.0562
 21
36.7881
  0
LINE
  8
0
 10
16.0562
 20
36.7881
 11
15.8373
 21
36.7319
  0
LINE
  8
0
 10
15.8373
 20
36.7319
 11
15.613
 21
36.7036
  0
LINE
  8
0
 10
15.613
 20
36.7036
 11
15.387
 21
36.7036
  0
LINE
  8
0
 10
-15.613
 20
36.7036
 11
-15.8373
 21
36.7319
  0
LINE
  8
0
 10
-15.8373
 20
36.7319
 11
-16.0562
 21
36.7881
  0
LINE
  8
0
 10
-16.0562
 20
36.7881
 11
-16.2664
 21
36.8713
  0
LINE
  8
0
 10
-16.2664
 20
36.8713
 11
-16.4645
 21
36.9802
  0
LINE
  8
0
 10
-16.4645
 20
36.9802
 11
-16.6474
 21
37.1131
  0
LINE
  8
0
 10
-16.6474
 20
37.1131
 11
-16.8121
 21
37.2678
  0
LINE
  8
0
 10
-16.8121
 20
37.2678
 11
-16.9562
 21
37.442
  0
LINE
  8
0
 10
-16.9562
 20
37.442
 11
-17.0773
 21
37.6328
  0
LINE
  8
0
 10
-17.0773
 20
37.6328
 11
-17.1736
 21
37.8374
  0
LINE
  8
0
 10
-17.1736
 20
37.8374
 11
-17.2434
 21
38.0524
  0
LINE
  8
0
 10
-17.2434
 20
38.0524
 11
-17.2858
 21
38.2744
  0
LINE
  8
0
 10
-17.2858
 20
38.2744
 11
-17.3
 21
38.5
  0
LINE
  8
0
 10
-17.3
 20
38.5
 11
-17.2858
 21
38.7256
  0
LINE
  8
0
 10
-17.2858
 20
38.7256
 11
-17.2434
 21
38.9476
  0
LINE
  8
0
 10
-17.2434
 20
38.9476
 11
-17.1736
 21
39.1626
  0
LINE
  8
0
 10
-17.1736
 20
39.1626
 11
-17.0773
 21
39.3672
  0
LINE
  8
0
 10
-17.0773
 20
39.3672
 11
-16.9562
 21
39.558
  0
LINE
  8
0
 10
-16.9562
 20
39.558
 11
-16.8121
 21
39.7322
  0
LINE
  8
0
 10
-16.8121
 20
39.7322
 11
-16.6474
 21
39.8869
  0
LINE
  8
0
 10
-16.6474
 20
39.8869
 11
-16.4645
 21
40.0198
  0
LINE
  8
0
 10
-16.4645
 20
40.0198
 11
-16.2664
 21
40.1287
  0
LINE
  8
0
 10
-16.2664
 20
40.1287
 11
-16.0562
 21
40.2119
  0
LINE
  8
0
 10
-16.0562
 20
40.2119
 11
-15.8373
 21
40.2681
  0
LINE
  8
0
 10
-15.8373
 20
40.2681
 11
-15.613
 21
40.2964
  0
LINE
  8
0
 10
-15.613
 20
40.2964
 11
-15.387
 21
40.2964
  0
LINE
  8
0
 10
-15.387
 20
40.2964
 11
-15.1627
 21
40.2681
  0
LINE
  8
0
 10
-15.1627
 20
40.2681
 11
-14.9438
 21
40.2119
  0
LINE
  8
0
 10
-14.9438
 20
40.2119
 11
-14.7336
 21
40.1287
  0
LINE
  8
0
 10
-14.7336
 20
40.1287
 11
-14.5355
 21
40.0198
  0
LINE
  8
0
 10
-14.5355
 20
40.0198
 11
-14.3526
 21
39.8869
  0
LINE
  8
0
 10
-14.3526
 20
39.8869
 11
-14.1879
 21
39.7322
  0
LINE
  8
0
 10
-14.1879
 20
39.7322
 11
-14.0438
 21
39.558
  0
LINE
  8
0
 10
-14.0438
 20
39.558
 11
-13.9226
 21
39.3672
  0
LINE
  8
0
 10
-13.9226
 20
39.3672
 11
-13.8264
 21
39.1626
  0
LINE
  8
0
 10
-13.8264
 20
39.1626
 11
-13.7565
 21
38.9476
  0
LINE
  8
0
 10
-13.7565
 20
38.9476
 11
-13.7142
 21
38.7256
  0
LINE
  8
0
 10
-13.7142
 20
38.7256
 11
-13.7
 21
38.5
  0
LINE
  8
0
 10
-13.7
 20
38.5
 11
-13.7142
 21
38.2744
  0
LINE
  8
0
 10
-13.7142
 20
38.2744
 11
-13.7565
 21
38.0524
  0
LINE
  8
0
 10
-13.7565
 20
38.0524
 11
-13.8264
 21
37.8374
  0
LINE
  8
0
 10
-13.8264
 20
37.8374
 11
-13.9226
 21
37.6328
  0
LINE
  8
0
 10
-13.9226
 20
37.6328
 11
-14.0438
 21
37.442
  0
LINE
  8
0
 10
-14.0438
 20
37.442
 11
-14.1879
 21
37.2678
  0
LINE
  8
0
 10
-14.1879
 20
37.2678
 11
-14.3526
 21
37.1131
  0
LINE
  8
0
 10
-14.3526
 20
37.1131
 11
-14.5355
 21
36.9802
  0
LINE
  8
0
 10
-14.5355
 20
36.9802
 11
-14.7336
 21
36.8713
  0
LINE
  8
0
 10
-14.7336
 20
36.8713
 11
-14.9438
 21
36.7881
  0
LINE
  8
0
 10
-14.9438
 20
36.7881
 11
-15.1627
 21
36.7319
  0
LINE
  8
0
 10
-15.1627
 20
36.7319
 11
-15.387
 21
36.7036
  0
LINE
  8
0
 10
-15.387
 20
36.7036
 11
-15.613
 21
36.7036
  0
LINE
  8
0
 10
16.3432
 20
11.0797
 11
16.8906
 21
11.2202
  0
LINE
  8
0
 10
16.8906
 20
11.2202
 11
17.416
 21
11.4283
  0
LINE
  8
0
 10
17.416
 20
11.4283
 11
17.9112
 21
11.7005
  0
LINE
  8
0
 10
17.9112
 20
11.7005
 11
18.3684
 21
12.0327
  0
LINE
  8
0
 10
18.3684
 20
12.0327
 11
18.7803
 21
12.4195
  0
LINE
  8
0
 10
18.7803
 20
12.4195
 11
19.1406
 21
12.855
  0
LINE
  8
0
 10
19.1406
 20
12.855
 11
19.4434
 21
13.3321
  0
LINE
  8
0
 10
19.4434
 20
13.3321
 11
19.684
 21
13.8434
  0
LINE
  8
0
 10
19.684
 20
13.8434
 11
19.8586
 21
14.3809
  0
LINE
  8
0
 10
19.8586
 20
14.3809
 11
19.9645
 21
14.936
  0
LINE
  8
0
 10
19.9645
 20
14.936
 11
20
 21
15.5
  0
LINE
  8
0
 10
20
 20
15.5
 11
19.9645
 21
16.064
  0
LINE
  8
0
 10
19.9645
 20
16.064
 11
19.8586
 21
16.6191
  0
LINE
  8
0
 10
19.8586
 20
16.6191
 11
19.684
 21
17.1566
  0
LINE
  8
0
 10
19.684
 20
17.1566
 11
19.4434
 21
17.6679
  0
LINE
  8
0
 10
19.4434
 20
17.6679
 11
19.1406
 21
18.145
  0
LINE
  8
0
 10
19.1406
 20
18.145
 11
18.7803
 21
18.5805
  0
LINE
  8
0
 10
18.7803
 20
18.5805
 11
18.3684
 21
18.9673
  0
LINE
  8
0
 10
18.3684
 20
18.9673
 11
17.9112
 21
19.2995
  0
LINE
  8
0
 10
17.9112
 20
19.2995
 11
17.416
 21
19.5717
  0
LINE
  8
0
 10
17.416
 20
19.5717
 11
16.8906
 21
19.7798
  0
LINE
  8
0
 10
16.8906
 20
19.7798
 11
16.3432
 21
19.9203
  0
LINE
  8
0
 10
16.3432
 20
19.9203
 11
15.7825
 21
19.9911
  0
LINE
  8
0
 10
15.7825
 20
19.9911
 11
15.2174
 21
19.9911
  0
LINE
  8
0
 10
15.2174
 20
19.9911
 11
14.6568
 21
19.9203
  0
LINE
  8
0
 10
14.6568
 20
19.9203
 11
14.1094
 21
19.7798
  0
LINE
  8
0
 10
14.1094
 20
19.7798
 11
13.584
 21
19.5717
  0
LINE
  8
0
 10
13.584
 20
19.5717
 11
13.0888
 21
19.2995
  0
LINE
  8
0
 10
13.0888
 20
19.2995
 11
12.6316
 21
18.9673
  0
LINE
  8
0
 10
12.6316
 20
18.9673
 11
12.2196
 21
18.5805
  0
LINE
  8
0
 10
12.2196
 20
18.5805
 11
11.8594
 21
18.145
  0
LINE
  8
0
 10
11.8594
 20
18.145
 11
11.5566
 21
17.6679
  0
LINE
  8
0
 10
11.5566
 20
17.6679
 11
11.316
 21
17.1566
  0
LINE
  8
0
 10
11.316
 20
17.1566
 11
11.1414
 21
16.6191
  0
LINE
  8
0
 10
11.1414
 20
16.6191
 11
11.0355
 21
16.064
  0
LINE
  8
0
 10
11.0355
 20
16.064
 11
11
 21
15.5
  0
LINE
  8
0
 10
11
 20
15.5
 11
11.0355
 21
14.936
  0
LINE
  8
0
 10
11.0355
 20
14.936
 11
11.1414
 21
14.3809
  0
LINE
  8
0
 10
11.1414
 20
14.3809
 11
11.316
 21
13.8434
  0
LINE
  8
0
 10
11.316
 20
13.8434
 11
11.5566
 21
13.3321
  0
LINE
  8
0
 10
11.5566
 20
13.3321
 11
11.8594
 21
12.855
  0
LINE
  8
0
 10
11.8594
 20
12.855
 11
12.2196
 21
12.4195
  0
LINE
  8
0
 10
12.2196
 20
12.4195
 11
12.6316
 21
12.0327
  0
LINE
  8
0
 10
12.6316
 20
12.0327
 11
13.0888
 21
11.7005
  0
LINE
  8
0
 10
13.0888
 20
11.7005
 11
13.584
 21
11.4283
  0
LINE
  8
0
 10
13.584
 20
11.4283
 11
14.1094
 21
11.2202
  0
LINE
  8
0
 10
14.1094
 20
11.2202
 11
14.6568
 21
11.0797
  0
LINE
  8
0
 10
14.6568
 20
11.0797
 11
15.2174
 21
11.0089
  0
LINE
  8
0
 10
15.2174
 20
11.0089
 11
15.7825
 21
11.0089
  0
LINE
  8
0
 10
15.7825
 20
11.0089
 11
16.3432
 21
11.0797
  0
LINE
  8
0
 10
15.387
 20
13.7036
 11
15.1627
 21
13.7319
  0
LINE
  8
0
 10
15.1627
 20
13.7319
 11
14.9438
 21
13.7881
  0
LINE
  8
0
 10
14.9438
 20
13.7881
 11
14.7336
 21
13.8713
  0
LINE
  8
0
 10
14.7336
 20
13.8713
 11
14.5355
 21
13.9802
  0
LINE
  8
0
 10
14.5355
 20
13.9802
 11
14.3526
 21
14.1131
  0
LINE
  8
0
 10
14.3526
 20
14.1131
 11
14.1879
 21
14.2678
  0
LINE
  8
0
 10
14.1879
 20
14.2678
 11
14.0438
 21
14.442
  0
LINE
  8
0
 10
14.0438
 20
14.442
 11
13.9226
 21
14.6328
  0
LINE
  8
0
 10
13.9226
 20
14.6328
 11
13.8264
 21
14.8374
  0
LINE
  8
0
 10
13.8264
 20
14.8374
 11
13.7565
 21
15.0524
  0
LINE
  8
0
 10
13.7565
 20
15.0524
 11
13.7142
 21
15.2744
  0
LINE
  8
0
 10
13.7142
 20
15.2744
 11
13.7
 21
15.5
  0
LINE
  8
0
 10
13.7
 20
15.5
 11
13.7142
 21
15.7256
  0
LINE
  8
0
 10
13.7142
 20
15.7256
 11
13.7565
 21
15.9476
  0
LINE
  8
0
 10
13.7565
 20
15.9476
 11
13.8264
 21
16.1626
  0
LINE
  8
0
 10
13.8264
 20
16.1626
 11
13.9226
 21
16.3672
  0
LINE
  8
0
 10
13.9226
 20
16.3672
 11
14.0438
 21
16.558
  0
LINE
  8
0
 10
14.0438
 20
16.558
 11
14.1879
 21
16.7322
  0
LINE
  8
0
 10
14.1879
 20
16.7322
 11
14.3526
 21
16.8869
  0
LINE
  8
0
 10
14.3526
 20
16.8869
 11
14.5355
 21
17.0198
  0
LINE
  8
0
 10
14.5355
 20
17.0198
 11
14.7336
 21
17.1287
  0
LINE
  8
0
 10
14.7336
 20
17.1287
 11
14.9438
 21
17.2119
  0
LINE
  8
0
 10
14.9438
 20
17.2119
 11
15.1627
 21
17.2681
  0
LINE
  8
0
 10
15.1627
 20
17.2681
 11
15.387
 21
17.2964
  0
LINE
  8
0
 10
15.387
 20
17.2964
 11
15.613
 21
17.2964
  0
LINE
  8
0
 10
15.613
 20
17.2964
 11
15.8373
 21
17.2681
  0
LINE
  8
0
 10
15.8373
 20
17.2681
 11
16.0562
 21
17.2119
  0
LINE
  8
0
 10
16.0562
 20
17.2119
 11
16.2664
 21
17.1287
  0
LINE
  8
0
 10
16.2664
 20
17.1287
 11
16.4645
 21
17.0198
  0
LINE
  8
0
 10
16.4645
 20
17.0198
 11
16.6474
 21
16.8869
  0
LINE
  8
0
 10
16.6474
 20
16.8869
 11
16.8121
 21
16.7322
  0
LINE
  8
0
 10
16.8121
 20
16.7322
 11
16.9562
 21
16.558
  0
LINE
  8
0
 10
16.9562
 20
16.558
 11
17.0773
 21
16.3672
  0
LINE
  8
0
 10
17.0773
 20
16.3672
 11
17.1736
 21
16.1626
  0
LINE
  8
0
 10
17.1736
 20
16.1626
 11
17.2434
 21
15.9476
  0
LINE
  8
0
 10
17.2434
 20
15.9476
 11
17.2858
 21
15.7256
  0
LINE
  8
0
 10
17.2858
 20
15.7256
 11
17.3
 21
15.5
  0
LINE
  8
0
 10
17.3
 20
15.5
 11
17.2858
 21
15.2744
  0
LINE
  8
0
 10
17.2858
 20
15.2744
 11
17.2434
 21
15.0524
  0
LINE
  8
0
 10
17.2434
 20
15.0524
 11
17.1736
 21
14.8374
  0
LINE
  8
0
 10
17.1736
 20
14.8374
 11
17.0773
 21
14.6328
  0
LINE
  8
0
 10
17.0773
 20
14.6328
 11
16.9562
 21
14.442
  0
LINE
  8
0
 10
16.9562
 20
14.442
 11
16.8121
 21
14.2678
  0
LINE
  8
0
 10
16.8121
 20
14.2678
 11
16.6474
 21
14.1131
  0
LINE
  8
0
 10
16.6474
 20
14.1131
 11
16.4645
 21
13.9802
  0
LINE
  8
0
 10
16.4645
 20
13.9802
 11
16.2664
 21
13.8713
  0
LINE
  8
0
 10
16.2664
 20
13.8713
 11
16.0562
 21
13.7881
  0
LINE
  8
0
 10
16.0562
 20
13.7881
 11
15.8373
 21
13.7319
  0
LINE
  8
0
 10
15.8373
 20
13.7319
 11
15.613
 21
13.7036
  0
LINE
  8
0
 10
15.613
 20
13.7036
 11
15.387
 21
13.7036
  0
LINE
  8
0
 10
-14.6568
 20
11.0797
 11
-14.1094
 21
11.2202
  0
LINE
  8
0
 10
-14.1094
 20
11.2202
 11
-13.584
 21
11.4283
  0
LINE
  8
0
 10
-13.584
 20
11.4283
 11
-13.0888
 21
11.7005
  0
LINE
  8
0
 10
-13.0888
 20
11.7005
 11
-12.6316
 21
12.0327
  0
LINE
  8
0
 10
-12.6316
 20
12.0327
 11
-12.2196
 21
12.4195
  0
LINE
  8
0
 10
-12.2196
 20
12.4195
 11
-11.8594
 21
12.855
  0
LINE
  8
0
 10
-11.8594
 20
12.855
 11
-11.5566
 21
13.3321
  0
LINE
  8
0
 10
-11.5566
 20
13.3321
 11
-11.316
 21
13.8434
  0
LINE
  8
0
 10
-11.316
 20
13.8434
 11
-11.1414
 21
14.3809
  0
LINE
  8
0
 10
-11.1414
 20
14.3809
 11
-11.0355
 21
14.936
  0
LINE
  8
0
 10
-11.0355
 20
14.936
 11
-11
 21
15.5
  0
LINE
  8
0
 10
-11
 20
15.5
 11
-11.0355
 21
16.064
  0
LINE
  8
0
 10
-11.0355
 20
16.064
 11
-11.1414
 21
16.6191
  0
LINE
  8
0
 10
-11.1414
 20
16.6191
 11
-11.316
 21
17.1566
  0
LINE
  8
0
 10
-11.316
 20
17.1566
 11
-11.5566
 21
17.6679
  0
LINE
  8
0
 10
-11.5566
 20
17.6679
 11
-11.8594
 21
18.145
  0
LINE
  8
0
 10
-11.8594
 20
18.145
 11
-12.2196
 21
18.5805
  0
LINE
  8
0
 10
-12.2196
 20
18.5805
 11
-12.6316
 21
18.9673
  0
LINE
  8
0
 10
-12.6316
 20
18.9673
 11
-13.0888
 21
19.2995
  0
LINE
  8
0
 10
-13.0888
 20
19.2995
 11
-13.584
 21
19.5717
  0
LINE
  8
0
 10
-13.584
 20
19.5717
 11
-14.1094
 21
19.7798
  0
LINE
  8
0
 10
-14.1094
 20
19.7798
 11
-14.6568
 21
19.9203
  0
LINE
  8
0
 10
-14.6568
 20
19.9203
 11
-15.2174
 21
19.9911
  0
LINE
  8
0
 10
-15.2174
 20
19.9911
 11
-15.7825
 21
19.9911
  0
LINE
  8
0
 10
-15.7825
 20
19.9911
 11
-16.3432
 21
19.9203
  0
LINE
  8
0
 10
-16.3432
 20
19.9203
 11
-16.8906
 21
19.7798
  0
LINE
  8
0
 10
-16.8906
 20
19.7798
 11
-17.416
 21
19.5717
  0
LINE
  8
0
 10
-17.416
 20
19.5717
 11
-17.9112
 21
19.2995
  0
LINE
  8
0
 10
-17.9112
 20
19.2995
 11
-18.3684
 21
18.9673
  0
LINE
  8
0
 10
-18.3684
 20
18.9673
 11
-18.7803
 21
18.5805
  0
LINE
  8
0
 10
-18.7803
 20
18.5805
 11
-19.1406
 21
18.145
  0
LINE
  8
0
 10
-19.1406
 20
18.145
 11
-19.4434
 21
17.6679
  0
LINE
  8
0
 10
-19.4434
 20
17.6679
 11
-19.684
 21
17.1566
  0
LINE
  8
0
 10
-19.684
 20
17.1566
 11
-19.8586
 21
16.6191
  0
LINE
  8
0
 10
-19.8586
 20
16.6191
 11
-19.9645
 21
16.064
  0
LINE
  8
0
 10
-19.9645
 20
16.064
 11
-20
 21
15.5
  0
LINE
  8
0
 10
-20
 20
15.5
 11
-19.9645
 21
14.936
  0
LINE
  8
0
 10
-19.9645
 20
14.936
 11
-19.8586
 21
14.3809
  0
LINE
  8
0
 10
-19.8586
 20
14.3809
 11
-19.684
 21
13.8434
  0
LINE
  8
0
 10
-19.684
 20
13.8434
 11
-19.4434
 21
13.3321
  0
LINE
  8
0
 10
-19.4434
 20
13.3321
 11
-19.1406
 21
12.855
  0
LINE
  8
0
 10
-19.1406
 20
12.855
 11
-18.7803
 21
12.4195
  0
LINE
  8
0
 10
-18.7803
 20
12.4195
 11
-18.3684
 21
12.0327
  0
LINE
  8
0
 10
-18.3684
 20
12.0327
 11
-17.9112
 21
11.7005
  0
LINE
  8
0
 10
-17.9112
 20
11.7005
 11
-17.416
 21
11.4283
  0
LINE
  8
0
 10
-17.416
 20
11.4283
 11
-16.8906
 21
11.2202
  0
LINE
  8
0
 10
-16.8906
 20
11.2202
 11
-16.3432
 21
11.0797
  0
LINE
  8
0
 10
-16.3432
 20
11.0797
 11
-15.7825
 21
11.0089
  0
LINE
  8
0
 10
-15.7825
 20
11.0089
 11
-15.2174
 21
11.0089
  0
LINE
  8
0
 10
-15.2174
 20
11.0089
 11
-14.6568
 21
11.0797
  0
LINE
  8
0
 10
-15.613
 20
13.7036
 11
-15.8373
 21
13.7319
  0
LINE
  8
0
 10
-15.8373
 20
13.7319
 11
-16.0562
 21
13.7881
  0
LINE
  8
0
 10
-16.0562
 20
13.7881
 11
-16.2664
 21
13.8713
  0
LINE
  8
0
 10
-16.2664
 20
13.8713
 11
-16.4645
 21
13.9802
  0
LINE
  8
0
 10
-16.4645
 20
13.9802
 11
-16.6474
 21
14.1131
  0
LINE
  8
0
 10
-16.6474
 20
14.1131
 11
-16.8121
 21
14.2678
  0
LINE
  8
0
 10
-16.8121
 20
14.2678
 11
-16.9562
 21
14.442
  0
LINE
  8
0
 10
-16.9562
 20
14.442
 11
-17.0773
 21
14.6328
  0
LINE
  8
0
 10
-17.0773
 20
14.6328
 11
-17.1736
 21
14.8374
  0
LINE
  8
0
 10
-17.1736
 20
14.8374
 11
-17.2434
 21
15.0524
  0
LINE
  8
0
 10
-17.2434
 20
15.0524
 11
-17.2858
 21
15.2744
  0
LINE
  8
0
 10
-17.2858
 20
15.2744
 11
-17.3
 21
15.5
  0
LINE
  8
0
 10
-17.3
 20
15.5
 11
-17.2858
 21
15.7256
  0
LINE
  8
0
 10
-17.2858
 20
15.7256
 11
-17.2434
 21
15.9476
  0
LINE
  8
0
 10
-17.2434
 20
15.9476
 11
-17.1736
 21
16.1626
  0
LINE
  8
0
 10
-17.1736
 20
16.1626
 11
-17.0773
 21
16.3672
  0
LINE
  8
0
 10
-17.0773
 20
16.3672
 11
-16.9562
 21
16.558
  0
LINE
  8
0
 10
-16.9562
 20
16.558
 11
-16.8121
 21
16.7322
  0
LINE
  8
0
 10
-16.8121
 20
16.7322
 11
-16.6474
 21
16.8869
  0
LINE
  8
0
 10
-16.6474
 20
16.8869
 11
-16.4645
 21
17.0198
  0
LINE
  8
0
 10
-16.4645
 20
17.0198
 11
-16.2664
 21
17.1287
  0
LINE
  8
0
 10
-16.2664
 20
17.1287
 11
-16.0562
 21
17.2119
  0
LINE
  8
0
 10
-16.0562
 20
17.2119
 11
-15.8373
 21
17.2681
  0
LINE
  8
0
 10
-15.8373
 20
17.2681
 11
-15.613
 21
17.2964
  0
LINE
  8
0
 10
-15.613
 20
17.2964
 11
-15.387
 21
17.2964
  0
LINE
  8
0
 10
-15.387
 20
17.2964
 11
-15.1627
 21
17.2681
  0
LINE
  8
0
 10
-15.1627
 20
17.2681
 11
-14.9438
 21
17.2119
  0
LINE
  8
0
 10
-14.9438
 20
17.2119
 11
-14.7336
 21
17.1287
  0
LINE
  8
0
 10
-14.7336
 20
17.1287
 11
-14.5355
 21
17.0198
  0
LINE
  8
0
 10
-14.5355
 20
17.0198
 11
-14.3526
 21
16.8869
  0
LINE
  8
0
 10
-14.3526
 20
16.8869
 11
-14.1879
 21
16.7322
  0
LINE
  8
0
 10
-14.1879
 20
16.7322
 11
-14.0438
 21
16.558
  0
LINE
  8
0
 10
-14.0438
 20
16.558
 11
-13.9226
 21
16.3672
  0
LINE
  8
0
 10
-13.9226
 20
16.3672
 11
-13.8264
 21
16.1626
  0
LINE
  8
0
 10
-13.8264
 20
16.1626
 11
-13.7565
 21
15.9476
  0
LINE
  8
0
 10
-13.7565
 20
15.9476
 11
-13.7142
 21
15.7256
  0
LINE
  8
0
 10
-13.7142
 20
15.7256
 11
-13.7
 21
15.5
  0
LINE
  8
0
 10
-13.7
 20
15.5
 11
-13.7142
 21
15.2744
  0
LINE
  8
0
 10
-13.7142
 20
15.2744
 11
-13.7565
 21
15.0524
  0
LINE
  8
0
 10
-13.7565
 20
15.0524
 11
-13.8264
 21
14.8374
  0
LINE
  8
0
 10
-13.8264
 20
14.8374
 11
-13.9226
 21
14.6328
  0
LINE
  8
0
 10
-13.9226
 20
14.6328
 11
-14.0438
 21
14.442
  0
LINE
  8
0
 10
-14.0438
 20
14.442
 11
-14.1879
 21
14.2678
  0
LINE
  8
0
 10
-14.1879
 20
14.2678
 11
-14.3526
 21
14.1131
  0
LINE
  8
0
 10
-14.3526
 20
14.1131
 11
-14.5355
 21
13.9802
  0
LINE
  8
0
 10
-14.5355
 20
13.9802
 11
-14.7336
 21
13.8713
  0
LINE
  8
0
 10
-14.7336
 20
13.8713
 11
-14.9438
 21
13.7881
  0
LINE
  8
0
 10
-14.9438
 20
13.7881
 11
-15.1627
 21
13.7319
  0
LINE
  8
0
 10
-15.1627
 20
13.7319
 11
-15.387
 21
13.7036
  0
LINE
  8
0
 10
-15.387
 20
13.7036
 11
-15.613
 21
13.7036
  0
LINE
  8
0
 10
-14.6568
 20
-19.9203
 11
-14.1094
 21
-19.7798
  0
LINE
  8
0
 10
-14.1094
 20
-19.7798
 11
-13.584
 21
-19.5717
  0
LINE
  8
0
 10
-13.584
 20
-19.5717
 11
-13.0888
 21
-19.2995
  0
LINE
  8
0
 10
-13.0888
 20
-19.2995
 11
-12.6316
 21
-18.9673
  0
LINE
  8
0
 10
-12.6316
 20
-18.9673
 11
-12.2196
 21
-18.5805
  0
LINE
  8
0
 10
-12.2196
 20
-18.5805
 11
-11.8594
 21
-18.145
  0
LINE
  8
0
 10
-11.8594
 20
-18.145
 11
-11.5566
 21
-17.6679
  0
LINE
  8
0
 10
-11.5566
 20
-17.6679
 11
-11.316
 21
-17.1566
  0
LINE
  8
0
 10
-11.316
 20
-17.1566
 11
-11.1414
 21
-16.6191
  0
LINE
  8
0
 10
-11.1414
 20
-16.6191
 11
-11.0355
 21
-16.064
  0
LINE
  8
0
 10
-11.0355
 20
-16.064
 11
-11
 21
-15.5
  0
LINE
  8
0
 10
-11
 20
-15.5
 11
-11.0355
 21
-14.936
  0
LINE
  8
0
 10
-11.0355
 20
-14.936
 11
-11.1414
 21
-14.3809
  0
LINE
  8
0
 10
-11.1414
 20
-14.3809
 11
-11.316
 21
-13.8434
  0
LINE
  8
0
 10
-11.316
 20
-13.8434
 11
-11.5566
 21
-13.3321
  0
LINE
  8
0
 10
-11.5566
 20
-13.3321
 11
-11.8594
 21
-12.855
  0
LINE
  8
0
 10
-11.8594
 20
-12.855
 11
-12.2196
 21
-12.4195
  0
LINE
  8
0
 10
-12.2196
 20
-12.4195
 11
-12.6316
 21
-12.0327
  0
LINE
  8
0
 10
-12.6316
 20
-12.0327
 11
-13.0888
 21
-11.7005
  0
LINE
  8
0
 10
-13.0888
 20
-11.7005
 11
-13.584
 21
-11.4283
  0
LINE
  8
0
 10
-13.584
 20
-11.4283
 11
-14.1094
 21
-11.2202
  0
LINE
  8
0
 10
-14.1094
 20
-11.2202
 11
-14.6568
 21
-11.0797
  0
LINE
  8
0
 10
-14.6568
 20
-11.0797
 11
-15.2174
 21
-11.0089
  0
LINE
  8
0
 10
-15.2174
 20
-11.0089
 11
-15.7825
 21
-11.0089
  0
LINE
  8
0
 10
-15.7825
 20
-11.0089
 11
-16.3432
 21
-11.0797
  0
LINE
  8
0
 10
-16.3432
 20
-11.0797
 11
-16.8906
 21
-11.2202
  0
LINE
  8
0
 10
-16.8906
 20
-11.2202
 11
-17.416
 21
-11.4283
  0
LINE
  8
0
 10
-17.416
 20
-11.4283
 11
-17.9112
 21
-11.7005
  0
LINE
  8
0
 10
-17.9112
 20
-11.7005
 11
-18.3684
 21
-12.0327
  0
LINE
  8
0
 10
-18.3684
 20
-12.0327
 11
-18.7803
 21
-12.4195
  0
LINE
  8
0
 10
-18.7803
 20
-12.4195
 11
-19.1406
 21
-12.855
  0
LINE
  8
0
 10
-19.1406
 20
-12.855
 11
-19.4434
 21
-13.3321
  0
LINE
  8
0
 10
-19.4434
 20
-13.3321
 11
-19.684
 21
-13.8434
  0
LINE
  8
0
 10
-19.684
 20
-13.8434
 11
-19.8586
 21
-14.3809
  0
LINE
  8
0
 10
-19.8586
 20
-14.3809
 11
-19.9645
 21
-14.936
  0
LINE
  8
0
 10
-19.9645
 20
-14.936
 11
-20
 21
-15.5
  0
LINE
  8
0
 10
-20
 20
-15.5
 11
-19.9645
 21
-16.064
  0
LINE
  8
0
 10
-19.9645
 20
-16.064
 11
-19.8586
 21
-16.6191
  0
LINE
  8
0
 10
-19.8586
 20
-16.6191
 11
-19.684
 21
-17.1566
  0
LINE
  8
0
 10
-19.684
 20
-17.1566
 11
-19.4434
 21
-17.6679
  0
LINE
  8
0
 10
-19.4434
 20
-17.6679
 11
-19.1406
 21
-18.145
  0
LINE
  8
0
 10
-19.1406
 20
-18.145
 11
-18.7803
 21
-18.5805
  0
LINE
  8
0
 10
-18.7803
 20
-18.5805
 11
-18.3684
 21
-18.9673
  0
LINE
  8
0
 10
-18.3684
 20
-18.9673
 11
-17.9112
 21
-19.2995
  0
LINE
  8
0
 10
-17.9112
 20
-19.2995
 11
-17.416
 21
-19.5717
  0
LINE
  8
0
 10
-17.416
 20
-19.5717
 11
-16.8906
 21
-19.7798
  0
LINE
  8
0
 10
-16.8906
 20
-19.7798
 11
-16.3432
 21
-19.9203
  0
LINE
  8
0
 10
-16.3432
 20
-19.9203
 11
-15.7825
 21
-19.9911
  0
LINE
  8
0
 10
-15.7825
 20
-19.9911
 11
-15.2174
 21
-19.9911
  0
LINE
  8
0
 10
-15.2174
 20
-19.9911
 11
-14.6568
 21
-19.9203
  0
LINE
  8
0
 10
-15.613
 20
-17.2964
 11
-15.8373
 21
-17.2681
  0
LINE
  8
0
 10
-15.8373
 20
-17.2681
 11
-16.0562
 21
-17.2119
  0
LINE
  8
0
 10
-16.0562
 20
-17.2119
 11
-16.2664
 21
-17.1287
  0
LINE
  8
0
 10
-16.2664
 20
-17.1287
 11
-16.4645
 21
-17.0198
  0
LINE
  8
0
 10
-16.4645
 20
-17.0198
 11
-16.6474
 21
-16.8869
  0
LINE
  8
0
 10
-16.6474
 20
-16.8869
 11
-16.8121
 21
-16.7322
  0
LINE
  8
0
 10
-16.8121
 20
-16.7322
 11
-16.9562
 21
-16.558
  0
LINE
  8
0
 10
-16.9562
 20
-16.558
 11
-17.0773
 21
-16.3672
  0
LINE
  8
0
 10
-17.0773
 20
-16.3672
 11
-17.1736
 21
-16.1626
  0
LINE
  8
0
 10
-17.1736
 20
-16.1626
 11
-17.2434
 21
-15.9476
  0
LINE
  8
0
 10
-17.2434
 20
-15.9476
 11
-17.2858
 21
-15.7256
  0
LINE
  8
0
 10
-17.2858
 20
-15.7256
 11
-17.3
 21
-15.5
  0
LINE
  8
0
 10
-17.3
 20
-15.5
 11
-17.2858
 21
-15.2744
  0
LINE
  8
0
 10
-17.2858
 20
-15.2744
 11
-17.2434
 21
-15.0524
  0
LINE
  8
0
 10
-17.2434
 20
-15.0524
 11
-17.1736
 21
-14.8374
  0
LINE
  8
0
 10
-17.1736
 20
-14.8374
 11
-17.0773
 21
-14.6328
  0
LINE
  8
0
 10
-17.0773
 20
-14.6328
 11
-16.9562
 21
-14.442
  0
LINE
  8
0
 10
-16.9562
 20
-14.442
 11
-16.8121
 21
-14.2678
  0
LINE
  8
0
 10
-16.8121
 20
-14.2678
 11
-16.6474
 21
-14.1131
  0
LINE
  8
0
 10
-16.6474
 20
-14.1131
 11
-16.4645
 21
-13.9802
  0
LINE
  8
0
 10
-16.4645
 20
-13.9802
 11
-16.2664
 21
-13.8713
  0
LINE
  8
0
 10
-16.2664
 20
-13.8713
 11
-16.0562
 21
-13.7881
  0
LINE
  8
0
 10
-16.0562
 20
-13.7881
 11
-15.8373
 21
-13.7319
  0
LINE
  8
0
 10
-15.8373
 20
-13.7319
 11
-15.613
 21
-13.7036
  0
LINE
  8
0
 10
-15.613
 20
-13.7036
 11
-15.387
 21
-13.7036
  0
LINE
  8
0
 10
-15.387
 20
-13.7036
 11
-15.1627
 21
-13.7319
  0
LINE
  8
0
 10
-15.1627
 20
-13.7319
 11
-14.9438
 21
-13.7881
  0
LINE
  8
0
 10
-14.9438
 20
-13.7881
 11
-14.7336
 21
-13.8713
  0
LINE
  8
0
 10
-14.7336
 20
-13.8713
 11
-14.5355
 21
-13.9802
  0
LINE
  8
0
 10
-14.5355
 20
-13.9802
 11
-14.3526
 21
-14.1131
  0
LINE
  8
0
 10
-14.3526
 20
-14.1131
 11
-14.1879
 21
-14.2678
  0
LINE
  8
0
 10
-14.1879
 20
-14.2678
 11
-14.0438
 21
-14.442
  0
LINE
  8
0
 10
-14.0438
 20
-14.442
 11
-13.9226
 21
-14.6328
  0
LINE
  8
0
 10
-13.9226
 20
-14.6328
 11
-13.8264
 21
-14.8374
  0
LINE
  8
0
 10
-13.8264
 20
-14.8374
 11
-13.7565
 21
-15.0524
  0
LINE
  8
0
 10
-13.7565
 20
-15.0524
 11
-13.7142
 21
-15.2744
  0
LINE
  8
0
 10
-13.7142
 20
-15.2744
 11
-13.7
 21
-15.5
  0
LINE
  8
0
 10
-13.7
 20
-15.5
 11
-13.7142
 21
-15.7256
  0
LINE
  8
0
 10
-13.7142
 20
-15.7256
 11
-13.7565
 21
-15.9476
  0
LINE
  8
0
 10
-13.7565
 20
-15.9476
 11
-13.8264
 21
-16.1626
  0
LINE
  8
0
 10
-13.8264
 20
-16.1626
 11
-13.9226
 21
-16.3672
  0
LINE
  8
0
 10
-13.9226
 20
-16.3672
 11
-14.0438
 21
-16.558
  0
LINE
  8
0
 10
-14.0438
 20
-16.558
 11
-14.1879
 21
-16.7322
  0
LINE
  8
0
 10
-14.1879
 20
-16.7322
 11
-14.3526
 21
-16.8869
  0
LINE
  8
0
 10
-14.3526
 20
-16.8869
 11
-14.5355
 21
-17.0198
  0
LINE
  8
0
 10
-14.5355
 20
-17.0198
 11
-14.7336
 21
-17.1287
  0
LINE
  8
0
 10
-14.7336
 20
-17.1287
 11
-14.9438
 21
-17.2119
  0
LINE
  8
0
 10
-14.9438
 20
-17.2119
 11
-15.1627
 21
-17.2681
  0
LINE
  8
0
 10
-15.1627
 20
-17.2681
 11
-15.387
 21
-17.2964
  0
LINE
  8
0
 10
-15.387
 20
-17.2964
 11
-15.613
 21
-17.2964
  0
LINE
  8
0
 10
16.3432
 20
-19.9203
 11
16.8906
 21
-19.7798
  0
LINE
  8
0
 10
16.8906
 20
-19.7798
 11
17.416
 21
-19.5717
  0
LINE
  8
0
 10
17.416
 20
-19.5717
 11
17.9112
 21
-19.2995
  0
LINE
  8
0
 10
17.9112
 20
-19.2995
 11
18.3684
 21
-18.9673
  0
LINE
  8
0
 10
18.3684
 20
-18.9673
 11
18.7803
 21
-18.5805
  0
LINE
  8
0
 10
18.7803
 20
-18.5805
 11
19.1406
 21
-18.145
  0
LINE
  8
0
 10
19.1406
 20
-18.145
 11
19.4434
 21
-17.6679
  0
LINE
  8
0
 10
19.4434
 20
-17.6679
 11
19.684
 21
-17.1566
  0
LINE
  8
0
 10
19.684
 20
-17.1566
 11
19.8586
 21
-16.6191
  0
LINE
  8
0
 10
19.8586
 20
-16.6191
 11
19.9645
 21
-16.064
  0
LINE
  8
0
 10
19.9645
 20
-16.064
 11
20
 21
-15.5
  0
LINE
  8
0
 10
20
 20
-15.5
 11
19.9645
 21
-14.936
  0
LINE
  8
0
 10
19.9645
 20
-14.936
 11
19.8586
 21
-14.3809
  0
LINE
  8
0
 10
19.8586
 20
-14.3809
 11
19.684
 21
-13.8434
  0
LINE
  8
0
 10
19.684
 20
-13.8434
 11
19.4434
 21
-13.3321
  0
LINE
  8
0
 10
19.4434
 20
-13.3321
 11
19.1406
 21
-12.855
  0
LINE
  8
0
 10
19.1406
 20
-12.855
 11
18.7803
 21
-12.4195
  0
LINE
  8
0
 10
18.7803
 20
-12.4195
 11
18.3684
 21
-12.0327
  0
LINE
  8
0
 10
18.3684
 20
-12.0327
 11
17.9112
 21
-11.7005
  0
LINE
  8
0
 10
17.9112
 20
-11.7005
 11
17.416
 21
-11.4283
  0
LINE
  8
0
 10
17.416
 20
-11.4283
 11
16.8906
 21
-11.2202
  0
LINE
  8
0
 10
16.8906
 20
-11.2202
 11
16.3432
 21
-11.0797
  0
LINE
  8
0
 10
16.3432
 20
-11.0797
 11
15.7825
 21
-11.0089
  0
LINE
  8
0
 10
15.7825
 20
-11.0089
 11
15.2174
 21
-11.0089
  0
LINE
  8
0
 10
15.2174
 20
-11.0089
 11
14.6568
 21
-11.0797
  0
LINE
  8
0
 10
14.6568
 20
-11.0797
 11
14.1094
 21
-11.2202
  0
LINE
  8
0
 10
14.1094
 20
-11.2202
 11
13.584
 21
-11.4283
  0
LINE
  8
0
 10
13.584
 20
-11.4283
 11
13.0888
 21
-11.7005
  0
LINE
  8
0
 10
13.0888
 20
-11.7005
 11
12.6316
 21
-12.0327
  0
LINE
  8
0
 10
12.6316
 20
-12.0327
 11
12.2196
 21
-12.4195
  0
LINE
  8
0
 10
12.2196
 20
-12.4195
 11
11.8594
 21
-12.855
  0
LINE
  8
0
 10
11.8594
 20
-12.855
 11
11.5566
 21
-13.3321
  0
LINE
  8
0
 10
11.5566
 20
-13.3321
 11
11.316
 21
-13.8434
  0
LINE
  8
0
 10
11.316
 20
-13.8434
 11
11.1414
 21
-14.3809
  0
LINE
  8
0
 10
11.1414
 20
-14.3809
 11
11.0355
 21
-14.936
  0
LINE
  8
0
 10
11.0355
 20
-14.936
 11
11
 21
-15.5
  0
LINE
  8
0
 10
11
 20
-15.5
 11
11.0355
 21
-16.064
  0
LINE
  8
0
 10
11.0355
 20
-16.064
 11
11.1414
 21
-16.6191
  0
LINE
  8
0
 10
11.1414
 20
-16.6191
 11
11.316
 21
-17.1566
  0
LINE
  8
0
 10
11.316
 20
-17.1566
 11
11.5566
 21
-17.6679
  0
LINE
  8
0
 10
11.5566
 20
-17.6679
 11
11.8594
 21
-18.145
  0
LINE
  8
0
 10
11.8594
 20
-18.145
 11
12.2196
 21
-18.5805
  0
LINE
  8
0
 10
12.2196
 20
-18.5805
 11
12.6316
 21
-18.9673
  0
LINE
  8
0
 10
12.6316
 20
-18.9673
 11
13.0888
 21
-19.2995
  0
LINE
  8
0
 10
13.0888
 20
-19.2995
 11
13.584
 21
-19.5717
  0
LINE
  8
0
 10
13.584
 20
-19.5717
 11
14.1094
 21
-19.7798
  0
LINE
  8
0
 10
14.1094
 20
-19.7798
 11
14.6568
 21
-19.9203
  0
LINE
  8
0
 10
14.6568
 20
-19.9203
 11
15.2174
 21
-19.9911
  0
LINE
  8
0
 10
15.2174
 20
-19.9911
 11
15.7825
 21
-19.9911
  0
LINE
  8
0
 10
15.7825
 20
-19.9911
 11
16.3432
 21
-19.9203
  0
LINE
  8
0
 10
15.387
 20
-17.2964
 11
15.1627
 21
-17.2681
  0
LINE
  8
0
 10
15.1627
 20
-17.2681
 11
14.9438
 21
-17.2119
  0
LINE
  8
0
 10
14.9438
 20
-17.2119
 11
14.7336
 21
-17.1287
  0
LINE
  8
0
 10
14.7336
 20
-17.1287
 11
14.5355
 21
-17.0198
  0
LINE
  8
0
 10
14.5355
 20
-17.0198
 11
14.3526
 21
-16.8869
  0
LINE
  8
0
 10
14.3526
 20
-16.8869
 11
14.1879
 21
-16.7322
  0
LINE
  8
0
 10
14.1879
 20
-16.7322
 11
14.0438
 21
-16.558
  0
LINE
  8
0
 10
14.0438
 20
-16.558
 11
13.9226
 21
-16.3672
  0
LINE
  8
0
 10
13.9226
 20
-16.3672
 11
13.8264
 21
-16.1626
  0
LINE
  8
0
 10
13.8264
 20
-16.1626
 11
13.7565
 21
-15.9476
  0
LINE
  8
0
 10
13.7565
 20
-15.9476
 11
13.7142
 21
-15.7256
  0
LINE
  8
0
 10
13.7142
 20
-15.7256
 11
13.7
 21
-15.5
  0
LINE
  8
0
 10
13.7
 20
-15.5
 11
13.7142
 21
-15.2744
  0
LINE
  8
0
 10
13.7142
 20
-15.2744
 11
13.7565
 21
-15.0524
  0
LINE
  8
0
 10
13.7565
 20
-15.0524
 11
13.8264
 21
-14.8374
  0
LINE
  8
0
 10
13.8264
 20
-14.8374
 11
13.9226
 21
-14.6328
  0
LINE
  8
0
 10
13.9226
 20
-14.6328
 11
14.0438
 21
-14.442
  0
LINE
  8
0
 10
14.0438
 20
-14.442
 11
14.1879
 21
-14.2678
  0
LINE
  8
0
 10
14.1879
 20
-14.2678
 11
14.3526
 21
-14.1131
  0
LINE
  8
0
 10
14.3526
 20
-14.1131
 11
14.5355
 21
-13.9802
  0
LINE
  8
0
 10
14.5355
 20
-13.9802
 11
14.7336
 21
-13.8713
  0
LINE
  8
0
 10
14.7336
 20
-13.8713
 11
14.9438
 21
-13.7881
  0
LINE
  8
0
 10
14.9438
 20
-13.7881
 11
15.1627
 21
-13.7319
  0
LINE
  8
0
 10
15.1627
 20
-13.7319
 11
15.387
 21
-13.7036
  0
LINE
  8
0
 10
15.387
 20
-13.7036
 11
15.613
 21
-13.7036
  0
LINE
  8
0
 10
15.613
 20
-13.7036
 11
15.8373
 21
-13.7319
  0
LINE
  8
0
 10
15.8373
 20
-13.7319
 11
16.0562
 21
-13.7881
  0
LINE
  8
0
 10
16.0562
 20
-13.7881
 11
16.2664
 21
-13.8713
  0
LINE
  8
0
 10
16.2664
 20
-13.8713
 11
16.4645
 21
-13.9802
  0
LINE
  8
0
 10
16.4645
 20
-13.9802
 11
16.6474
 21
-14.1131
  0
LINE
  8
0
 10
16.6474
 20
-14.1131
 11
16.8121
 21
-14.2678
  0
LINE
  8
0
 10
16.8121
 20
-14.2678
 11
16.9562
 21
-14.442
  0
LINE
  8
0
 10
16.9562
 20
-14.442
 11
17.0773
 21
-14.6328
  0
LINE
  8
0
 10
17.0773
 20
-14.6328
 11
17.1736
 21
-14.8374
  0
LINE
  8
0
 10
17.1736
 20
-14.8374
 11
17.2434
 21
-15.0524
  0
LINE
  8
0
 10
17.2434
 20
-15.0524
 11
17.2858
 21
-15.2744
  0
LINE
  8
0
 10
17.2858
 20
-15.2744
 11
17.3
 21
-15.5
  0
LINE
  8
0
 10
17.3
 20
-15.5
 11
17.2858
 21
-15.7256
  0
LINE
  8
0
 10
17.2858
 20
-15.7256
 11
17.2434
 21
-15.9476
  0
LINE
  8
0
 10
17.2434
 20
-15.9476
 11
17.1736
 21
-16.1626
  0
LINE
  8
0
 10
17.1736
 20
-16.1626
 11
17.0773
 21
-16.3672
  0
LINE
  8
0
 10
17.0773
 20
-16.3672
 11
16.9562
 21
-16.558
  0
LINE
  8
0
 10
16.9562
 20
-16.558
 11
16.8121
 21
-16.7322
  0
LINE
  8
0
 10
16.8121
 20
-16.7322
 11
16.6474
 21
-16.8869
  0
LINE
  8
0
 10
16.6474
 20
-16.8869
 11
16.4645
 21
-17.0198
  0
LINE
  8
0
 10
16.4645
 20
-17.0198
 11
16.2664
 21
-17.1287
  0
LINE
  8
0
 10
16.2664
 20
-17.1287
 11
16.0562
 21
-17.2119
  0
LINE
  8
0
 10
16.0562
 20
-17.2119
 11
15.8373
 21
-17.2681
  0
LINE
  8
0
 10
15.8373
 20
-17.2681
 11
15.613
 21
-17.2964
  0
LINE
  8
0
 10
15.613
 20
-17.2964
 11
15.387
 21
-17.2964
  0
ENDSEC
  0
SECTION
  2
OBJECTS
  0
DICTIONARY
  0
ENDSEC
  0
EOF
