<?xml version="1.0" standalone="no"?>
<!DOCTYPE svg PUBLIC "-//W3C//DTD SVG 1.1//EN" "http://www.w3.org/Graphics/SVG/1.1/DTD/svg11.dtd">
<svg width="136mm" height="1227mm" viewBox="-68 -2313 136 1227" xmlns="http://www.w3.org/2000/svg" version="1.1">
<title>OpenSCAD Model</title>
<path d="
M 63.4369,-2013.09 L 64.0451,-2013.24 L 64.6289,-2013.48 L 65.1791,-2013.78 L 65.6871,-2014.15 L 66.1448,-2014.58
 L 66.5451,-2015.06 L 66.8815,-2015.59 L 67.1489,-2016.16 L 67.3429,-2016.76 L 67.4606,-2017.37 L 67.5,-2018
 L 67.5,-2308 L 67.4606,-2308.63 L 67.3429,-2309.24 L 67.1489,-2309.84 L 66.8815,-2310.41 L 66.5451,-2310.94
 L 66.1448,-2311.42 L 65.6871,-2311.85 L 65.1791,-2312.22 L 64.6289,-2312.52 L 64.0451,-2312.76 L 63.4369,-2312.91
 L 62.8139,-2312.99 L -62.8139,-2312.99 L -63.4369,-2312.91 L -64.0451,-2312.76 L -64.6289,-2312.52 L -65.1791,-2312.22
 L -65.6871,-2311.85 L -66.1448,-2311.42 L -66.5451,-2310.94 L -66.8815,-2310.41 L -67.1489,-2309.84 L -67.3429,-2309.24
 L -67.4606,-2308.63 L -67.5,-2308 L -67.5,-2018 L -67.4606,-2017.37 L -67.3429,-2016.76 L -67.1489,-2016.16
 L -66.8815,-2015.59 L -66.5451,-2015.06 L -66.1448,-2014.58 L -65.6871,-2014.15 L -65.1791,-2013.78 L -64.6289,-2013.48
 L -64.0451,-2013.24 L -63.4369,-2013.09 L -62.8139,-2013.01 L 62.8139,-2013.01 z
M -62.2512,-2014.51 L -62.7495,-2014.57 L -63.2361,-2014.7 L -63.7031,-2014.88 L -64.1433,-2015.12 L -64.5497,-2015.42
 L -64.9159,-2015.76 L -65.2361,-2016.15 L -65.5052,-2016.57 L -65.7191,-2017.03 L -65.8743,-2017.51 L -65.9685,-2018
 L -66,-2018.5 L -66,-2307.5 L -65.9685,-2308 L -65.8743,-2308.49 L -65.7191,-2308.97 L -65.5052,-2309.43
 L -65.2361,-2309.85 L -64.9159,-2310.24 L -64.5497,-2310.58 L -64.1433,-2310.88 L -63.7031,-2311.12 L -63.2361,-2311.3
 L -62.7495,-2311.43 L -62.2512,-2311.49 L 62.2512,-2311.49 L 62.7495,-2311.43 L 63.2361,-2311.3 L 63.7031,-2311.12
 L 64.1433,-2310.88 L 64.5497,-2310.58 L 64.9159,-2310.24 L 65.2361,-2309.85 L 65.5052,-2309.43 L 65.7191,-2308.97
 L 65.8743,-2308.49 L 65.9685,-2308 L 66,-2307.5 L 66,-2018.5 L 65.9685,-2018 L 65.8743,-2017.51
 L 65.7191,-2017.03 L 65.5052,-2016.57 L 65.2361,-2016.15 L 64.9159,-2015.76 L 64.5497,-2015.42 L 64.1433,-2015.12
 L 63.7031,-2014.88 L 63.2361,-2014.7 L 62.7495,-2014.57 L 62.2512,-2014.51 z
M 63.4369,-1704.09 L 64.0451,-1704.24 L 64.6289,-1704.48 L 65.1791,-1704.78 L 65.6871,-1705.15 L 66.1448,-1705.58
 L 66.5451,-1706.06 L 66.8815,-1706.59 L 67.1489,-1707.16 L 67.3429,-1707.76 L 67.4606,-1708.37 L 67.5,-1709
 L 67.5,-1999 L 67.4606,-1999.63 L 67.3429,-2000.24 L 67.1489,-2000.84 L 66.8815,-2001.41 L 66.5451,-2001.94
 L 66.1448,-2002.42 L 65.6871,-2002.85 L 65.1791,-2003.22 L 64.6289,-2003.52 L 64.0451,-2003.76 L 63.4369,-2003.91
 L 62.8139,-2003.99 L -62.8139,-2003.99 L -63.4369,-2003.91 L -64.0451,-2003.76 L -64.6289,-2003.52 L -65.1791,-2003.22
 L -65.6871,-2002.85 L -66.1448,-2002.42 L -66.5451,-2001.94 L -66.8815,-2001.41 L -67.1489,-2000.84 L -67.3429,-2000.24
 L -67.4606,-1999.63 L -67.5,-1999 L -67.5,-1709 L -67.4606,-1708.37 L -67.3429,-1707.76 L -67.1489,-1707.16
 L -66.8815,-1706.59 L -66.5451,-1706.06 L -66.1448,-1705.58 L -65.6871,-1705.15 L -65.1791,-1704.78 L -64.6289,-1704.48
 L -64.0451,-1704.24 L -63.4369,-1704.09 L -62.8139,-1704.01 L 62.8139,-1704.01 z
M -62.2512,-1705.51 L -62.7495,-1705.57 L -63.2361,-1705.7 L -63.7031,-1705.88 L -64.1433,-1706.12 L -64.5497,-1706.42
 L -64.9159,-1706.76 L -65.2361,-1707.15 L -65.5052,-1707.57 L -65.7191,-1708.03 L -65.8743,-1708.51 L -65.9685,-1709
 L -66,-1709.5 L -66,-1998.5 L -65.9685,-1999 L -65.8743,-1999.49 L -65.7191,-1999.97 L -65.5052,-2000.43
 L -65.2361,-2000.85 L -64.9159,-2001.24 L -64.5497,-2001.58 L -64.1433,-2001.88 L -63.7031,-2002.12 L -63.2361,-2002.3
 L -62.7495,-2002.43 L -62.2512,-2002.49 L 62.2512,-2002.49 L 62.7495,-2002.43 L 63.2361,-2002.3 L 63.7031,-2002.12
 L 64.1433,-2001.88 L 64.5497,-2001.58 L 64.9159,-2001.24 L 65.2361,-2000.85 L 65.5052,-2000.43 L 65.7191,-1999.97
 L 65.8743,-1999.49 L 65.9685,-1999 L 66,-1998.5 L 66,-1709.5 L 65.9685,-1709 L 65.8743,-1708.51
 L 65.7191,-1708.03 L 65.5052,-1707.57 L 65.2361,-1707.15 L 64.9159,-1706.76 L 64.5497,-1706.42 L 64.1433,-1706.12
 L 63.7031,-1705.88 L 63.2361,-1705.7 L 62.7495,-1705.57 L 62.2512,-1705.51 z
M 63.4369,-1395.09 L 64.0451,-1395.24 L 64.6289,-1395.48 L 65.1791,-1395.78 L 65.6871,-1396.15 L 66.1448,-1396.58
 L 66.5451,-1397.06 L 66.8815,-1397.59 L 67.1489,-1398.16 L 67.3429,-1398.76 L 67.4606,-1399.37 L 67.5,-1400
 L 67.5,-1690 L 67.4606,-1690.63 L 67.3429,-1691.24 L 67.1489,-1691.84 L 66.8815,-1692.41 L 66.5451,-1692.94
 L 66.1448,-1693.42 L 65.6871,-1693.85 L 65.1791,-1694.22 L 64.6289,-1694.52 L 64.0451,-1694.76 L 63.4369,-1694.91
 L 62.8139,-1694.99 L -62.8139,-1694.99 L -63.4369,-1694.91 L -64.0451,-1694.76 L -64.6289,-1694.52 L -65.1791,-1694.22
 L -65.6871,-1693.85 L -66.1448,-1693.42 L -66.5451,-1692.94 L -66.8815,-1692.41 L -67.1489,-1691.84 L -67.3429,-1691.24
 L -67.4606,-1690.63 L -67.5,-1690 L -67.5,-1400 L -67.4606,-1399.37 L -67.3429,-1398.76 L -67.1489,-1398.16
 L -66.8815,-1397.59 L -66.5451,-1397.06 L -66.1448,-1396.58 L -65.6871,-1396.15 L -65.1791,-1395.78 L -64.6289,-1395.48
 L -64.0451,-1395.24 L -63.4369,-1395.09 L -62.8139,-1395.01 L 62.8139,-1395.01 z
M -62.1954,-1397.39 L -62.5833,-1397.44 L -62.9619,-1397.54 L -63.3254,-1397.68 L -63.668,-1397.87 L -63.9842,-1398.1
 L -64.2692,-1398.37 L -64.5184,-1398.67 L -64.7279,-1399 L -64.8943,-1399.35 L -65.0151,-1399.73 L -65.0884,-1400.11
 L -65.1129,-1400.5 L -65.1129,-1689.5 L -65.0884,-1689.89 L -65.0151,-1690.27 L -64.8943,-1690.65 L -64.7279,-1691
 L -64.5184,-1691.33 L -64.2692,-1691.63 L -63.9842,-1691.9 L -63.668,-1692.13 L -63.3254,-1692.32 L -62.9619,-1692.46
 L -62.5833,-1692.56 L -62.1954,-1692.61 L 62.1954,-1692.61 L 62.5833,-1692.56 L 62.9619,-1692.46 L 63.3254,-1692.32
 L 63.668,-1692.13 L 63.9842,-1691.9 L 64.2692,-1691.63 L 64.5184,-1691.33 L 64.7279,-1691 L 64.8943,-1690.65
 L 65.0151,-1690.27 L 65.0884,-1689.89 L 65.1129,-1689.5 L 65.1129,-1400.5 L 65.0884,-1400.11 L 65.0151,-1399.73
 L 64.8943,-1399.35 L 64.7279,-1399 L 64.5184,-1398.67 L 64.2692,-1398.37 L 63.9842,-1398.1 L 63.668,-1397.87
 L 63.3254,-1397.68 L 62.9619,-1397.54 L 62.5833,-1397.44 L 62.1954,-1397.39 z
M 63.4369,-1086.09 L 64.0451,-1086.24 L 64.6289,-1086.48 L 65.1791,-1086.78 L 65.6871,-1087.15 L 66.1448,-1087.58
 L 66.5451,-1088.06 L 66.8815,-1088.59 L 67.1489,-1089.16 L 67.3429,-1089.76 L 67.4606,-1090.37 L 67.5,-1091
 L 67.5,-1381 L 67.4606,-1381.63 L 67.3429,-1382.24 L 67.1489,-1382.84 L 66.8815,-1383.41 L 66.5451,-1383.94
 L 66.1448,-1384.42 L 65.6871,-1384.85 L 65.1791,-1385.22 L 64.6289,-1385.52 L 64.0451,-1385.76 L 63.4369,-1385.91
 L 62.8139,-1385.99 L -62.8139,-1385.99 L -63.4369,-1385.91 L -64.0451,-1385.76 L -64.6289,-1385.52 L -65.1791,-1385.22
 L -65.6871,-1384.85 L -66.1448,-1384.42 L -66.5451,-1383.94 L -66.8815,-1383.41 L -67.1489,-1382.84 L -67.3429,-1382.24
 L -67.4606,-1381.63 L -67.5,-1381 L -67.5,-1091 L -67.4606,-1090.37 L -67.3429,-1089.76 L -67.1489,-1089.16
 L -66.8815,-1088.59 L -66.5451,-1088.06 L -66.1448,-1087.58 L -65.6871,-1087.15 L -65.1791,-1086.78 L -64.6289,-1086.48
 L -64.0451,-1086.24 L -63.4369,-1086.09 L -62.8139,-1086.01 L 62.8139,-1086.01 z
M 59.8659,-1376.37 L 59.5999,-1376.4 L 59.3401,-1376.47 L 59.0908,-1376.57 L 58.8559,-1376.7 L 58.6389,-1376.85
 L 58.4434,-1377.04 L 58.2725,-1377.24 L 58.1288,-1377.47 L 58.0146,-1377.71 L 57.9318,-1377.97 L 57.8815,-1378.23
 L 57.8647,-1378.5 L 57.8815,-1378.77 L 57.9318,-1379.03 L 58.0146,-1379.29 L 58.1288,-1379.53 L 58.2725,-1379.76
 L 58.4434,-1379.96 L 58.6389,-1380.15 L 58.8559,-1380.3 L 59.0908,-1380.43 L 59.3401,-1380.53 L 59.5999,-1380.6
 L 59.8659,-1380.63 L 60.1341,-1380.63 L 60.4001,-1380.6 L 60.6598,-1380.53 L 60.9092,-1380.43 L 61.1441,-1380.3
 L 61.3611,-1380.15 L 61.5565,-1379.96 L 61.7275,-1379.76 L 61.8712,-1379.53 L 61.9853,-1379.29 L 62.0682,-1379.03
 L 62.1185,-1378.77 L 62.1353,-1378.5 L 62.1185,-1378.23 L 62.0682,-1377.97 L 61.9853,-1377.71 L 61.8712,-1377.47
 L 61.7275,-1377.24 L 61.5565,-1377.04 L 61.3611,-1376.85 L 61.1441,-1376.7 L 60.9092,-1376.57 L 60.6598,-1376.47
 L 60.4001,-1376.4 L 60.1341,-1376.37 z
M -60.1341,-1376.37 L -60.4001,-1376.4 L -60.6598,-1376.47 L -60.9092,-1376.57 L -61.1441,-1376.7 L -61.3611,-1376.85
 L -61.5565,-1377.04 L -61.7275,-1377.24 L -61.8712,-1377.47 L -61.9853,-1377.71 L -62.0682,-1377.97 L -62.1185,-1378.23
 L -62.1353,-1378.5 L -62.1185,-1378.77 L -62.0682,-1379.03 L -61.9853,-1379.29 L -61.8712,-1379.53 L -61.7275,-1379.76
 L -61.5565,-1379.96 L -61.3611,-1380.15 L -61.1441,-1380.3 L -60.9092,-1380.43 L -60.6598,-1380.53 L -60.4001,-1380.6
 L -60.1341,-1380.63 L -59.8659,-1380.63 L -59.5999,-1380.6 L -59.3401,-1380.53 L -59.0908,-1380.43 L -58.8559,-1380.3
 L -58.6389,-1380.15 L -58.4434,-1379.96 L -58.2725,-1379.76 L -58.1288,-1379.53 L -58.0146,-1379.29 L -57.9318,-1379.03
 L -57.8815,-1378.77 L -57.8647,-1378.5 L -57.8815,-1378.23 L -57.9318,-1377.97 L -58.0146,-1377.71 L -58.1288,-1377.47
 L -58.2725,-1377.24 L -58.4434,-1377.04 L -58.6389,-1376.85 L -58.8559,-1376.7 L -59.0908,-1376.57 L -59.3401,-1376.47
 L -59.5999,-1376.4 L -59.8659,-1376.37 z
M 59.8659,-1091.37 L 59.5999,-1091.4 L 59.3401,-1091.47 L 59.0908,-1091.57 L 58.8559,-1091.7 L 58.6389,-1091.85
 L 58.4434,-1092.04 L 58.2725,-1092.24 L 58.1288,-1092.47 L 58.0146,-1092.71 L 57.9318,-1092.97 L 57.8815,-1093.23
 L 57.8647,-1093.5 L 57.8815,-1093.77 L 57.9318,-1094.03 L 58.0146,-1094.29 L 58.1288,-1094.53 L 58.2725,-1094.76
 L 58.4434,-1094.96 L 58.6389,-1095.15 L 58.8559,-1095.3 L 59.0908,-1095.43 L 59.3401,-1095.53 L 59.5999,-1095.6
 L 59.8659,-1095.63 L 60.1341,-1095.63 L 60.4001,-1095.6 L 60.6598,-1095.53 L 60.9092,-1095.43 L 61.1441,-1095.3
 L 61.3611,-1095.15 L 61.5565,-1094.96 L 61.7275,-1094.76 L 61.8712,-1094.53 L 61.9853,-1094.29 L 62.0682,-1094.03
 L 62.1185,-1093.77 L 62.1353,-1093.5 L 62.1185,-1093.23 L 62.0682,-1092.97 L 61.9853,-1092.71 L 61.8712,-1092.47
 L 61.7275,-1092.24 L 61.5565,-1092.04 L 61.3611,-1091.85 L 61.1441,-1091.7 L 60.9092,-1091.57 L 60.6598,-1091.47
 L 60.4001,-1091.4 L 60.1341,-1091.37 z
M -60.1341,-1091.37 L -60.4001,-1091.4 L -60.6598,-1091.47 L -60.9092,-1091.57 L -61.1441,-1091.7 L -61.3611,-1091.85
 L -61.5565,-1092.04 L -61.7275,-1092.24 L -61.8712,-1092.47 L -61.9853,-1092.71 L -62.0682,-1092.97 L -62.1185,-1093.23
 L -62.1353,-1093.5 L -62.1185,-1093.77 L -62.0682,-1094.03 L -61.9853,-1094.29 L -61.8712,-1094.53 L -61.7275,-1094.76
 L -61.5565,-1094.96 L -61.3611,-1095.15 L -61.1441,-1095.3 L -60.9092,-1095.43 L -60.6598,-1095.53 L -60.4001,-1095.6
 L -60.1341,-1095.63 L -59.8659,-1095.63 L -59.5999,-1095.6 L -59.3401,-1095.53 L -59.0908,-1095.43 L -58.8559,-1095.3
 L -58.6389,-1095.15 L -58.4434,-1094.96 L -58.2725,-1094.76 L -58.1288,-1094.53 L -58.0146,-1094.29 L -57.9318,-1094.03
 L -57.8815,-1093.77 L -57.8647,-1093.5 L -57.8815,-1093.23 L -57.9318,-1092.97 L -58.0146,-1092.71 L -58.1288,-1092.47
 L -58.2725,-1092.24 L -58.4434,-1092.04 L -58.6389,-1091.85 L -58.8559,-1091.7 L -59.0908,-1091.57 L -59.3401,-1091.47
 L -59.5999,-1091.4 L -59.8659,-1091.37 z
" stroke="black" fill="lightgray" stroke-width="0.5"/>
</svg>
