<?xml version="1.0" standalone="no"?>
<!DOCTYPE svg PUBLIC "-//W3C//DTD SVG 1.1//EN" "http://www.w3.org/Graphics/SVG/1.1/DTD/svg11.dtd">
<svg width="60mm" height="378mm" viewBox="-30 -318 60 378" xmlns="http://www.w3.org/2000/svg" version="1.1">
<title>OpenSCAD Model</title>
<path d="
M -27,-198.425 L -26.5451,-198.245 L -25.9369,-198.089 L -25.3139,-198.01 L 25.3139,-198.01 L 25.9369,-198.089
 L 26.5451,-198.245 L 27.1289,-198.476 L 27.6791,-198.778 L 28.1871,-199.147 L 28.6448,-199.577 L 29.0451,-200.061
 L 29.3815,-200.591 L 29.6489,-201.159 L 29.8429,-201.757 L 29.9606,-202.373 L 30,-203 L 30,-313
 L 29.9606,-313.627 L 29.8429,-314.243 L 29.6489,-314.841 L 29.3815,-315.409 L 29.0451,-315.939 L 28.6448,-316.423
 L 28.1871,-316.853 L 27.6791,-317.222 L 27.1289,-317.524 L 26.5451,-317.755 L 25.9369,-317.911 L 25.3139,-317.99
 L -25.3139,-317.99 L -25.9369,-317.911 L -26.5451,-317.755 L -27,-317.575 L -27,-317.99 L -30,-317.99
 L -30,-198.01 L -27,-198.01 z
M -22.6507,-308.105 L -22.9497,-308.143 L -23.2416,-308.217 L -23.5219,-308.328 L -23.786,-308.474 L -24.0298,-308.651
 L -24.2495,-308.857 L -24.4416,-309.089 L -24.6031,-309.344 L -24.7315,-309.617 L -24.8246,-309.903 L -24.8811,-310.199
 L -24.9,-310.5 L -24.8811,-310.801 L -24.8246,-311.097 L -24.7315,-311.383 L -24.6031,-311.656 L -24.4416,-311.911
 L -24.2495,-312.143 L -24.0298,-312.349 L -23.786,-312.526 L -23.5219,-312.672 L -23.2416,-312.783 L -22.9497,-312.857
 L -22.6507,-312.895 L -22.3493,-312.895 L -22.0503,-312.857 L -21.7583,-312.783 L -21.4781,-312.672 L -21.214,-312.526
 L -20.9702,-312.349 L -20.7505,-312.143 L -20.5583,-311.911 L -20.3969,-311.656 L -20.2685,-311.383 L -20.1754,-311.097
 L -20.1189,-310.801 L -20.1,-310.5 L -20.1189,-310.199 L -20.1754,-309.903 L -20.2685,-309.617 L -20.3969,-309.344
 L -20.5583,-309.089 L -20.7505,-308.857 L -20.9702,-308.651 L -21.214,-308.474 L -21.4781,-308.328 L -21.7583,-308.217
 L -22.0503,-308.143 L -22.3493,-308.105 z
M 22.3493,-308.105 L 22.0503,-308.143 L 21.7583,-308.217 L 21.4781,-308.328 L 21.214,-308.474 L 20.9702,-308.651
 L 20.7505,-308.857 L 20.5583,-309.089 L 20.3969,-309.344 L 20.2685,-309.617 L 20.1754,-309.903 L 20.1189,-310.199
 L 20.1,-310.5 L 20.1189,-310.801 L 20.1754,-311.097 L 20.2685,-311.383 L 20.3969,-311.656 L 20.5583,-311.911
 L 20.7505,-312.143 L 20.9702,-312.349 L 21.214,-312.526 L 21.4781,-312.672 L 21.7583,-312.783 L 22.0503,-312.857
 L 22.3493,-312.895 L 22.6507,-312.895 L 22.9497,-312.857 L 23.2416,-312.783 L 23.5219,-312.672 L 23.786,-312.526
 L 24.0298,-312.349 L 24.2495,-312.143 L 24.4416,-311.911 L 24.6031,-311.656 L 24.7315,-311.383 L 24.8246,-311.097
 L 24.8811,-310.801 L 24.9,-310.5 L 24.8811,-310.199 L 24.8246,-309.903 L 24.7315,-309.617 L 24.6031,-309.344
 L 24.4416,-309.089 L 24.2495,-308.857 L 24.0298,-308.651 L 23.786,-308.474 L 23.5219,-308.328 L 23.2416,-308.217
 L 22.9497,-308.143 L 22.6507,-308.105 z
M 22.3493,-203.105 L 22.0503,-203.143 L 21.7583,-203.217 L 21.4781,-203.328 L 21.214,-203.474 L 20.9702,-203.651
 L 20.7505,-203.857 L 20.5583,-204.089 L 20.3969,-204.344 L 20.2685,-204.617 L 20.1754,-204.903 L 20.1189,-205.199
 L 20.1,-205.5 L 20.1189,-205.801 L 20.1754,-206.097 L 20.2685,-206.383 L 20.3969,-206.656 L 20.5583,-206.911
 L 20.7505,-207.143 L 20.9702,-207.349 L 21.214,-207.526 L 21.4781,-207.672 L 21.7583,-207.783 L 22.0503,-207.857
 L 22.3493,-207.895 L 22.6507,-207.895 L 22.9497,-207.857 L 23.2416,-207.783 L 23.5219,-207.672 L 23.786,-207.526
 L 24.0298,-207.349 L 24.2495,-207.143 L 24.4416,-206.911 L 24.6031,-206.656 L 24.7315,-206.383 L 24.8246,-206.097
 L 24.8811,-205.801 L 24.9,-205.5 L 24.8811,-205.199 L 24.8246,-204.903 L 24.7315,-204.617 L 24.6031,-204.344
 L 24.4416,-204.089 L 24.2495,-203.857 L 24.0298,-203.651 L 23.786,-203.474 L 23.5219,-203.328 L 23.2416,-203.217
 L 22.9497,-203.143 L 22.6507,-203.105 z
M -22.6507,-203.105 L -22.9497,-203.143 L -23.2416,-203.217 L -23.5219,-203.328 L -23.786,-203.474 L -24.0298,-203.651
 L -24.2495,-203.857 L -24.4416,-204.089 L -24.6031,-204.344 L -24.7315,-204.617 L -24.8246,-204.903 L -24.8811,-205.199
 L -24.9,-205.5 L -24.8811,-205.801 L -24.8246,-206.097 L -24.7315,-206.383 L -24.6031,-206.656 L -24.4416,-206.911
 L -24.2495,-207.143 L -24.0298,-207.349 L -23.786,-207.526 L -23.5219,-207.672 L -23.2416,-207.783 L -22.9497,-207.857
 L -22.6507,-207.895 L -22.3493,-207.895 L -22.0503,-207.857 L -21.7583,-207.783 L -21.4781,-207.672 L -21.214,-207.526
 L -20.9702,-207.349 L -20.7505,-207.143 L -20.5583,-206.911 L -20.3969,-206.656 L -20.2685,-206.383 L -20.1754,-206.097
 L -20.1189,-205.801 L -20.1,-205.5 L -20.1189,-205.199 L -20.1754,-204.903 L -20.2685,-204.617 L -20.3969,-204.344
 L -20.5583,-204.089 L -20.7505,-203.857 L -20.9702,-203.651 L -21.214,-203.474 L -21.4781,-203.328 L -21.7583,-203.217
 L -22.0503,-203.143 L -22.3493,-203.105 z
M -27,-69.4248 L -26.5451,-69.2447 L -25.9369,-69.0886 L -25.3139,-69.0099 L 25.3139,-69.0099 L 25.9369,-69.0886
 L 26.5451,-69.2447 L 27.1289,-69.4759 L 27.6791,-69.7784 L 28.1871,-70.1474 L 28.6448,-70.5773 L 29.0451,-71.0611
 L 29.3815,-71.5912 L 29.6489,-72.1594 L 29.8429,-72.7566 L 29.9606,-73.3733 L 30,-74 L 30,-184
 L 29.9606,-184.627 L 29.8429,-185.243 L 29.6489,-185.841 L 29.3815,-186.409 L 29.0451,-186.939 L 28.6448,-187.423
 L 28.1871,-187.853 L 27.6791,-188.222 L 27.1289,-188.524 L 26.5451,-188.755 L 25.9369,-188.911 L 25.3139,-188.99
 L -25.3139,-188.99 L -25.9369,-188.911 L -26.5451,-188.755 L -27,-188.575 L -27,-188.99 L -30,-188.99
 L -30,-69.0099 L -27,-69.0099 z
M 22.387,-179.704 L 22.1627,-179.732 L 21.9438,-179.788 L 21.7336,-179.871 L 21.5355,-179.98 L 21.3526,-180.113
 L 21.1879,-180.268 L 21.0438,-180.442 L 20.9226,-180.633 L 20.8264,-180.837 L 20.7565,-181.052 L 20.7142,-181.274
 L 20.7,-181.5 L 20.7142,-181.726 L 20.7565,-181.948 L 20.8264,-182.163 L 20.9226,-182.367 L 21.0438,-182.558
 L 21.1879,-182.732 L 21.3526,-182.887 L 21.5355,-183.02 L 21.7336,-183.129 L 21.9438,-183.212 L 22.1627,-183.268
 L 22.387,-183.296 L 22.613,-183.296 L 22.8373,-183.268 L 23.0562,-183.212 L 23.2664,-183.129 L 23.4645,-183.02
 L 23.6474,-182.887 L 23.8121,-182.732 L 23.9562,-182.558 L 24.0773,-182.367 L 24.1736,-182.163 L 24.2434,-181.948
 L 24.2858,-181.726 L 24.3,-181.5 L 24.2858,-181.274 L 24.2434,-181.052 L 24.1736,-180.837 L 24.0773,-180.633
 L 23.9562,-180.442 L 23.8121,-180.268 L 23.6474,-180.113 L 23.4645,-179.98 L 23.2664,-179.871 L 23.0562,-179.788
 L 22.8373,-179.732 L 22.613,-179.704 z
M -22.613,-179.704 L -22.8373,-179.732 L -23.0562,-179.788 L -23.2664,-179.871 L -23.4645,-179.98 L -23.6474,-180.113
 L -23.8121,-180.268 L -23.9562,-180.442 L -24.0773,-180.633 L -24.1736,-180.837 L -24.2434,-181.052 L -24.2858,-181.274
 L -24.3,-181.5 L -24.2858,-181.726 L -24.2434,-181.948 L -24.1736,-182.163 L -24.0773,-182.367 L -23.9562,-182.558
 L -23.8121,-182.732 L -23.6474,-182.887 L -23.4645,-183.02 L -23.2664,-183.129 L -23.0562,-183.212 L -22.8373,-183.268
 L -22.613,-183.296 L -22.387,-183.296 L -22.1627,-183.268 L -21.9438,-183.212 L -21.7336,-183.129 L -21.5355,-183.02
 L -21.3526,-182.887 L -21.1879,-182.732 L -21.0438,-182.558 L -20.9226,-182.367 L -20.8264,-182.163 L -20.7565,-181.948
 L -20.7142,-181.726 L -20.7,-181.5 L -20.7142,-181.274 L -20.7565,-181.052 L -20.8264,-180.837 L -20.9226,-180.633
 L -21.0438,-180.442 L -21.1879,-180.268 L -21.3526,-180.113 L -21.5355,-179.98 L -21.7336,-179.871 L -21.9438,-179.788
 L -22.1627,-179.732 L -22.387,-179.704 z
M -22.613,-74.7036 L -22.8373,-74.7319 L -23.0562,-74.7881 L -23.2664,-74.8713 L -23.4645,-74.9802 L -23.6474,-75.1131
 L -23.8121,-75.2678 L -23.9562,-75.442 L -24.0773,-75.6328 L -24.1736,-75.8374 L -24.2434,-76.0524 L -24.2858,-76.2744
 L -24.3,-76.5 L -24.2858,-76.7256 L -24.2434,-76.9476 L -24.1736,-77.1626 L -24.0773,-77.3672 L -23.9562,-77.558
 L -23.8121,-77.7322 L -23.6474,-77.8869 L -23.4645,-78.0198 L -23.2664,-78.1287 L -23.0562,-78.2119 L -22.8373,-78.2681
 L -22.613,-78.2964 L -22.387,-78.2964 L -22.1627,-78.2681 L -21.9438,-78.2119 L -21.7336,-78.1287 L -21.5355,-78.0198
 L -21.3526,-77.8869 L -21.1879,-77.7322 L -21.0438,-77.558 L -20.9226,-77.3672 L -20.8264,-77.1626 L -20.7565,-76.9476
 L -20.7142,-76.7256 L -20.7,-76.5 L -20.7142,-76.2744 L -20.7565,-76.0524 L -20.8264,-75.8374 L -20.9226,-75.6328
 L -21.0438,-75.442 L -21.1879,-75.2678 L -21.3526,-75.1131 L -21.5355,-74.9802 L -21.7336,-74.8713 L -21.9438,-74.7881
 L -22.1627,-74.7319 L -22.387,-74.7036 z
M 22.387,-74.7036 L 22.1627,-74.7319 L 21.9438,-74.7881 L 21.7336,-74.8713 L 21.5355,-74.9802 L 21.3526,-75.1131
 L 21.1879,-75.2678 L 21.0438,-75.442 L 20.9226,-75.6328 L 20.8264,-75.8374 L 20.7565,-76.0524 L 20.7142,-76.2744
 L 20.7,-76.5 L 20.7142,-76.7256 L 20.7565,-76.9476 L 20.8264,-77.1626 L 20.9226,-77.3672 L 21.0438,-77.558
 L 21.1879,-77.7322 L 21.3526,-77.8869 L 21.5355,-78.0198 L 21.7336,-78.1287 L 21.9438,-78.2119 L 22.1627,-78.2681
 L 22.387,-78.2964 L 22.613,-78.2964 L 22.8373,-78.2681 L 23.0562,-78.2119 L 23.2664,-78.1287 L 23.4645,-78.0198
 L 23.6474,-77.8869 L 23.8121,-77.7322 L 23.9562,-77.558 L 24.0773,-77.3672 L 24.1736,-77.1626 L 24.2434,-76.9476
 L 24.2858,-76.7256 L 24.3,-76.5 L 24.2858,-76.2744 L 24.2434,-76.0524 L 24.1736,-75.8374 L 24.0773,-75.6328
 L 23.9562,-75.442 L 23.8121,-75.2678 L 23.6474,-75.1131 L 23.4645,-74.9802 L 23.2664,-74.8713 L 23.0562,-74.7881
 L 22.8373,-74.7319 L 22.613,-74.7036 z
M -27,-59.6148 L -30,-59.6148 L -30,59.6148 L -27,59.6148 z
" stroke="black" fill="lightgray" stroke-width="0.5"/>
</svg>
