solid OpenSCAD_Model
  facet normal 0.998025 0.0628189 0
    outer loop
      vertex 13.5 0 4
      vertex 13.3935 1.692 0
      vertex 13.3935 1.692 4
    endloop
  endfacet
  facet normal 0.998025 0.0628189 0
    outer loop
      vertex 13.3935 1.692 0
      vertex 13.5 0 4
      vertex 13.5 0 0
    endloop
  endfacet
  facet normal -0.998025 0.0628189 0
    outer loop
      vertex -13.5 0 0
      vertex -13.3935 1.692 4
      vertex -13.3935 1.692 0
    endloop
  endfacet
  facet normal -0.998025 0.0628189 0
    outer loop
      vertex -13.3935 1.692 4
      vertex -13.5 0 0
      vertex -13.5 0 4
    endloop
  endfacet
  facet normal 0 1 -0
    outer loop
      vertex 0.847672 13.4734 0
      vertex -0.847672 13.4734 4
      vertex 0.847672 13.4734 4
    endloop
  endfacet
  facet normal 0 1 0
    outer loop
      vertex -0.847672 13.4734 4
      vertex 0.847672 13.4734 0
      vertex -0.847672 13.4734 0
    endloop
  endfacet
  facet normal 0 -1 0
    outer loop
      vertex -0.847672 -13.4734 0
      vertex 0.847672 -13.4734 4
      vertex -0.847672 -13.4734 4
    endloop
  endfacet
  facet normal 0 -1 -0
    outer loop
      vertex 0.847672 -13.4734 4
      vertex -0.847672 -13.4734 0
      vertex 0.847672 -13.4734 0
    endloop
  endfacet
  facet normal 0.684535 0.72898 -0
    outer loop
      vertex 9.84108 9.24139 0
      vertex 8.60522 10.4019 4
      vertex 9.84108 9.24139 4
    endloop
  endfacet
  facet normal 0.684535 0.72898 0
    outer loop
      vertex 8.60522 10.4019 4
      vertex 9.84108 9.24139 0
      vertex 8.60522 10.4019 0
    endloop
  endfacet
  facet normal -0.684535 0.72898 0
    outer loop
      vertex -8.60522 10.4019 0
      vertex -9.84108 9.24139 4
      vertex -8.60522 10.4019 4
    endloop
  endfacet
  facet normal -0.684535 0.72898 0
    outer loop
      vertex -9.84108 9.24139 4
      vertex -8.60522 10.4019 0
      vertex -9.84108 9.24139 0
    endloop
  endfacet
  facet normal -0.368126 0.929776 0
    outer loop
      vertex -4.17173 12.8393 0
      vertex -5.74802 12.2152 4
      vertex -4.17173 12.8393 4
    endloop
  endfacet
  facet normal -0.368126 0.929776 0
    outer loop
      vertex -5.74802 12.2152 4
      vertex -4.17173 12.8393 0
      vertex -5.74802 12.2152 0
    endloop
  endfacet
  facet normal 0.951055 -0.309022 0
    outer loop
      vertex 12.552 -4.96968 4
      vertex 13.0759 -3.35731 0
      vertex 13.0759 -3.35731 4
    endloop
  endfacet
  facet normal 0.951055 -0.309022 0
    outer loop
      vertex 13.0759 -3.35731 0
      vertex 12.552 -4.96968 4
      vertex 12.552 -4.96968 0
    endloop
  endfacet
  facet normal 0.904814 0.425808 0
    outer loop
      vertex 12.552 4.96968 4
      vertex 11.8301 6.50367 0
      vertex 11.8301 6.50367 4
    endloop
  endfacet
  facet normal 0.904814 0.425808 0
    outer loop
      vertex 11.8301 6.50367 0
      vertex 12.552 4.96968 4
      vertex 12.552 4.96968 0
    endloop
  endfacet
  facet normal 0.982295 0.187339 0
    outer loop
      vertex 13.3935 1.692 4
      vertex 13.0759 3.35731 0
      vertex 13.0759 3.35731 4
    endloop
  endfacet
  facet normal 0.982295 0.187339 0
    outer loop
      vertex 13.0759 3.35731 0
      vertex 13.3935 1.692 4
      vertex 13.3935 1.692 0
    endloop
  endfacet
  facet normal 0.844331 0.535821 0
    outer loop
      vertex 11.8301 6.50367 4
      vertex 10.9217 7.9351 0
      vertex 10.9217 7.9351 4
    endloop
  endfacet
  facet normal 0.844331 0.535821 0
    outer loop
      vertex 10.9217 7.9351 0
      vertex 11.8301 6.50367 4
      vertex 11.8301 6.50367 0
    endloop
  endfacet
  facet normal 0.368126 0.929776 -0
    outer loop
      vertex 5.74802 12.2152 0
      vertex 4.17173 12.8393 4
      vertex 5.74802 12.2152 4
    endloop
  endfacet
  facet normal 0.368126 0.929776 0
    outer loop
      vertex 4.17173 12.8393 4
      vertex 5.74802 12.2152 0
      vertex 4.17173 12.8393 0
    endloop
  endfacet
  facet normal 0.248682 0.968585 -0
    outer loop
      vertex 4.17173 12.8393 0
      vertex 2.52965 13.2609 4
      vertex 4.17173 12.8393 4
    endloop
  endfacet
  facet normal 0.248682 0.968585 0
    outer loop
      vertex 2.52965 13.2609 4
      vertex 4.17173 12.8393 0
      vertex 2.52965 13.2609 0
    endloop
  endfacet
  facet normal 0.481782 0.876291 -0
    outer loop
      vertex 7.23366 11.3984 0
      vertex 5.74802 12.2152 4
      vertex 7.23366 11.3984 4
    endloop
  endfacet
  facet normal 0.481782 0.876291 0
    outer loop
      vertex 5.74802 12.2152 4
      vertex 7.23366 11.3984 0
      vertex 5.74802 12.2152 0
    endloop
  endfacet
  facet normal -0.904814 0.425808 0
    outer loop
      vertex -12.552 4.96968 0
      vertex -11.8301 6.50367 4
      vertex -11.8301 6.50367 0
    endloop
  endfacet
  facet normal -0.904814 0.425808 0
    outer loop
      vertex -11.8301 6.50367 4
      vertex -12.552 4.96968 0
      vertex -12.552 4.96968 4
    endloop
  endfacet
  facet normal -0.951055 0.309022 0
    outer loop
      vertex -13.0759 3.35731 0
      vertex -12.552 4.96968 4
      vertex -12.552 4.96968 0
    endloop
  endfacet
  facet normal -0.951055 0.309022 0
    outer loop
      vertex -12.552 4.96968 4
      vertex -13.0759 3.35731 0
      vertex -13.0759 3.35731 4
    endloop
  endfacet
  facet normal -0.248682 0.968585 0
    outer loop
      vertex -2.52965 13.2609 0
      vertex -4.17173 12.8393 4
      vertex -2.52965 13.2609 4
    endloop
  endfacet
  facet normal -0.248682 0.968585 0
    outer loop
      vertex -4.17173 12.8393 4
      vertex -2.52965 13.2609 0
      vertex -4.17173 12.8393 0
    endloop
  endfacet
  facet normal 0.125343 -0.992113 0
    outer loop
      vertex 0.847672 -13.4734 0
      vertex 2.52965 -13.2609 4
      vertex 0.847672 -13.4734 4
    endloop
  endfacet
  facet normal 0.125343 -0.992113 0
    outer loop
      vertex 2.52965 -13.2609 4
      vertex 0.847672 -13.4734 0
      vertex 2.52965 -13.2609 0
    endloop
  endfacet
  facet normal 0.951055 0.309022 0
    outer loop
      vertex 13.0759 3.35731 4
      vertex 12.552 4.96968 0
      vertex 12.552 4.96968 4
    endloop
  endfacet
  facet normal 0.951055 0.309022 0
    outer loop
      vertex 12.552 4.96968 0
      vertex 13.0759 3.35731 4
      vertex 13.0759 3.35731 0
    endloop
  endfacet
  facet normal 0.770524 0.637411 0
    outer loop
      vertex 10.9217 7.9351 4
      vertex 9.84108 9.24139 0
      vertex 9.84108 9.24139 4
    endloop
  endfacet
  facet normal 0.770524 0.637411 0
    outer loop
      vertex 9.84108 9.24139 0
      vertex 10.9217 7.9351 4
      vertex 10.9217 7.9351 0
    endloop
  endfacet
  facet normal 0.125343 0.992113 -0
    outer loop
      vertex 2.52965 13.2609 0
      vertex 0.847672 13.4734 4
      vertex 2.52965 13.2609 4
    endloop
  endfacet
  facet normal 0.125343 0.992113 0
    outer loop
      vertex 0.847672 13.4734 4
      vertex 2.52965 13.2609 0
      vertex 0.847672 13.4734 0
    endloop
  endfacet
  facet normal 0.587787 0.809016 -0
    outer loop
      vertex 8.60522 10.4019 0
      vertex 7.23366 11.3984 4
      vertex 8.60522 10.4019 4
    endloop
  endfacet
  facet normal 0.587787 0.809016 0
    outer loop
      vertex 7.23366 11.3984 4
      vertex 8.60522 10.4019 0
      vertex 7.23366 11.3984 0
    endloop
  endfacet
  facet normal -0.844331 0.535821 0
    outer loop
      vertex -11.8301 6.50367 0
      vertex -10.9217 7.9351 4
      vertex -10.9217 7.9351 0
    endloop
  endfacet
  facet normal -0.844331 0.535821 0
    outer loop
      vertex -10.9217 7.9351 4
      vertex -11.8301 6.50367 0
      vertex -11.8301 6.50367 4
    endloop
  endfacet
  facet normal -0.770524 0.637411 0
    outer loop
      vertex -10.9217 7.9351 0
      vertex -9.84108 9.24139 4
      vertex -9.84108 9.24139 0
    endloop
  endfacet
  facet normal -0.770524 0.637411 0
    outer loop
      vertex -9.84108 9.24139 4
      vertex -10.9217 7.9351 0
      vertex -10.9217 7.9351 4
    endloop
  endfacet
  facet normal -0.982295 0.187339 0
    outer loop
      vertex -13.3935 1.692 0
      vertex -13.0759 3.35731 4
      vertex -13.0759 3.35731 0
    endloop
  endfacet
  facet normal -0.982295 0.187339 0
    outer loop
      vertex -13.0759 3.35731 4
      vertex -13.3935 1.692 0
      vertex -13.3935 1.692 4
    endloop
  endfacet
  facet normal 0 0 1
    outer loop
      vertex 10 0 4
      vertex 13.5 0 4
      vertex 13.3935 1.692 4
    endloop
  endfacet
  facet normal 0 0 1
    outer loop
      vertex 9.92115 1.25333 4
      vertex 13.3935 1.692 4
      vertex 13.0759 3.35731 4
    endloop
  endfacet
  facet normal 0 0 1
    outer loop
      vertex 13.5 0 4
      vertex 10 0 4
      vertex 13.3935 -1.692 4
    endloop
  endfacet
  facet normal 0 0 1
    outer loop
      vertex 9.68583 2.4869 4
      vertex 13.0759 3.35731 4
      vertex 12.552 4.96968 4
    endloop
  endfacet
  facet normal -0 0 1
    outer loop
      vertex 9.92115 -1.25333 4
      vertex 13.3935 -1.692 4
      vertex 10 0 4
    endloop
  endfacet
  facet normal 0 0 1
    outer loop
      vertex 9.29776 3.68124 4
      vertex 12.552 4.96968 4
      vertex 11.8301 6.50367 4
    endloop
  endfacet
  facet normal 0 0 1
    outer loop
      vertex 13.3935 -1.692 4
      vertex 9.92115 -1.25333 4
      vertex 13.0759 -3.35731 4
    endloop
  endfacet
  facet normal 0 0 1
    outer loop
      vertex 8.76307 4.81754 4
      vertex 11.8301 6.50367 4
      vertex 10.9217 7.9351 4
    endloop
  endfacet
  facet normal -0 0 1
    outer loop
      vertex 9.68583 -2.4869 4
      vertex 13.0759 -3.35731 4
      vertex 9.92115 -1.25333 4
    endloop
  endfacet
  facet normal 0 0 1
    outer loop
      vertex 13.0759 -3.35731 4
      vertex 9.68583 -2.4869 4
      vertex 12.552 -4.96968 4
    endloop
  endfacet
  facet normal 0 0 1
    outer loop
      vertex 13.3935 1.692 4
      vertex 9.92115 1.25333 4
      vertex 10 0 4
    endloop
  endfacet
  facet normal 0 0 1
    outer loop
      vertex 8.09017 5.87785 4
      vertex 10.9217 7.9351 4
      vertex 9.84108 9.24139 4
    endloop
  endfacet
  facet normal 0 0 1
    outer loop
      vertex 13.0759 3.35731 4
      vertex 9.68583 2.4869 4
      vertex 9.92115 1.25333 4
    endloop
  endfacet
  facet normal 0 0 1
    outer loop
      vertex 12.552 4.96968 4
      vertex 9.29776 3.68124 4
      vertex 9.68583 2.4869 4
    endloop
  endfacet
  facet normal 0 0 1
    outer loop
      vertex 11.8301 6.50367 4
      vertex 8.76307 4.81754 4
      vertex 9.29776 3.68124 4
    endloop
  endfacet
  facet normal 0 0 1
    outer loop
      vertex 7.28969 6.84547 4
      vertex 9.84108 9.24139 4
      vertex 8.60522 10.4019 4
    endloop
  endfacet
  facet normal 0 0 1
    outer loop
      vertex 10.9217 7.9351 4
      vertex 8.09017 5.87785 4
      vertex 8.76307 4.81754 4
    endloop
  endfacet
  facet normal 0 0 1
    outer loop
      vertex 9.84108 9.24139 4
      vertex 7.28969 6.84547 4
      vertex 8.09017 5.87785 4
    endloop
  endfacet
  facet normal 0 0 1
    outer loop
      vertex 6.37424 7.70513 4
      vertex 8.60522 10.4019 4
      vertex 7.23366 11.3984 4
    endloop
  endfacet
  facet normal 0 0 1
    outer loop
      vertex 8.60522 10.4019 4
      vertex 6.37424 7.70513 4
      vertex 7.28969 6.84547 4
    endloop
  endfacet
  facet normal 0 0 1
    outer loop
      vertex 5.35827 8.44328 4
      vertex 7.23366 11.3984 4
      vertex 5.74802 12.2152 4
    endloop
  endfacet
  facet normal 0 0 1
    outer loop
      vertex 7.23366 11.3984 4
      vertex 5.35827 8.44328 4
      vertex 6.37424 7.70513 4
    endloop
  endfacet
  facet normal 0 0 1
    outer loop
      vertex 5.74802 12.2152 4
      vertex 4.25779 9.04827 4
      vertex 5.35827 8.44328 4
    endloop
  endfacet
  facet normal 0 0 1
    outer loop
      vertex 4.17173 12.8393 4
      vertex 4.25779 9.04827 4
      vertex 5.74802 12.2152 4
    endloop
  endfacet
  facet normal 0 0 1
    outer loop
      vertex 4.17173 12.8393 4
      vertex 3.09017 9.51056 4
      vertex 4.25779 9.04827 4
    endloop
  endfacet
  facet normal 0 0 1
    outer loop
      vertex 2.52965 13.2609 4
      vertex 3.09017 9.51056 4
      vertex 4.17173 12.8393 4
    endloop
  endfacet
  facet normal 0 0 1
    outer loop
      vertex 2.52965 13.2609 4
      vertex 1.87381 9.82287 4
      vertex 3.09017 9.51056 4
    endloop
  endfacet
  facet normal 0 0 1
    outer loop
      vertex 0.847672 13.4734 4
      vertex 1.87381 9.82287 4
      vertex 2.52965 13.2609 4
    endloop
  endfacet
  facet normal 0 0 1
    outer loop
      vertex 0.847672 13.4734 4
      vertex 0.627905 9.98027 4
      vertex 1.87381 9.82287 4
    endloop
  endfacet
  facet normal 0 0 1
    outer loop
      vertex 0.847672 13.4734 4
      vertex -0.627905 9.98027 4
      vertex 0.627905 9.98027 4
    endloop
  endfacet
  facet normal -0 0 1
    outer loop
      vertex -0.847672 13.4734 4
      vertex -0.627905 9.98027 4
      vertex 0.847672 13.4734 4
    endloop
  endfacet
  facet normal 0 0 1
    outer loop
      vertex -0.847672 13.4734 4
      vertex -1.87381 9.82287 4
      vertex -0.627905 9.98027 4
    endloop
  endfacet
  facet normal -0 0 1
    outer loop
      vertex -2.52965 13.2609 4
      vertex -1.87381 9.82287 4
      vertex -0.847672 13.4734 4
    endloop
  endfacet
  facet normal 0 0 1
    outer loop
      vertex -2.52965 13.2609 4
      vertex -3.09017 9.51056 4
      vertex -1.87381 9.82287 4
    endloop
  endfacet
  facet normal -0 0 1
    outer loop
      vertex -4.17173 12.8393 4
      vertex -3.09017 9.51056 4
      vertex -2.52965 13.2609 4
    endloop
  endfacet
  facet normal 0 0 1
    outer loop
      vertex -4.17173 12.8393 4
      vertex -4.25779 9.04827 4
      vertex -3.09017 9.51056 4
    endloop
  endfacet
  facet normal -0 0 1
    outer loop
      vertex -5.74802 12.2152 4
      vertex -4.25779 9.04827 4
      vertex -4.17173 12.8393 4
    endloop
  endfacet
  facet normal 0 0 1
    outer loop
      vertex -4.25779 9.04827 4
      vertex -5.74802 12.2152 4
      vertex -5.35827 8.44328 4
    endloop
  endfacet
  facet normal -0 0 1
    outer loop
      vertex -7.23366 11.3984 4
      vertex -5.35827 8.44328 4
      vertex -5.74802 12.2152 4
    endloop
  endfacet
  facet normal 0 0 1
    outer loop
      vertex -5.35827 8.44328 4
      vertex -7.23366 11.3984 4
      vertex -6.37424 7.70513 4
    endloop
  endfacet
  facet normal -0 0 1
    outer loop
      vertex -8.60522 10.4019 4
      vertex -6.37424 7.70513 4
      vertex -7.23366 11.3984 4
    endloop
  endfacet
  facet normal 0 0 1
    outer loop
      vertex -6.37424 7.70513 4
      vertex -8.60522 10.4019 4
      vertex -7.28969 6.84547 4
    endloop
  endfacet
  facet normal -0 0 1
    outer loop
      vertex -9.84108 9.24139 4
      vertex -7.28969 6.84547 4
      vertex -8.60522 10.4019 4
    endloop
  endfacet
  facet normal 0 0 1
    outer loop
      vertex -7.28969 6.84547 4
      vertex -9.84108 9.24139 4
      vertex -8.09017 5.87785 4
    endloop
  endfacet
  facet normal -0 0 1
    outer loop
      vertex -10.9217 7.9351 4
      vertex -8.09017 5.87785 4
      vertex -9.84108 9.24139 4
    endloop
  endfacet
  facet normal 0 0 1
    outer loop
      vertex -8.09017 5.87785 4
      vertex -10.9217 7.9351 4
      vertex -8.76307 4.81754 4
    endloop
  endfacet
  facet normal -0 0 1
    outer loop
      vertex -11.8301 6.50367 4
      vertex -8.76307 4.81754 4
      vertex -10.9217 7.9351 4
    endloop
  endfacet
  facet normal 0 0 1
    outer loop
      vertex -8.76307 4.81754 4
      vertex -11.8301 6.50367 4
      vertex -9.29776 3.68124 4
    endloop
  endfacet
  facet normal -0 0 1
    outer loop
      vertex -12.552 4.96968 4
      vertex -9.29776 3.68124 4
      vertex -11.8301 6.50367 4
    endloop
  endfacet
  facet normal 0 0 1
    outer loop
      vertex -9.29776 3.68124 4
      vertex -12.552 4.96968 4
      vertex -9.68583 2.4869 4
    endloop
  endfacet
  facet normal -0 0 1
    outer loop
      vertex 9.29776 -3.68124 4
      vertex 12.552 -4.96968 4
      vertex 9.68583 -2.4869 4
    endloop
  endfacet
  facet normal 0 0 1
    outer loop
      vertex 12.552 -4.96968 4
      vertex 9.29776 -3.68124 4
      vertex 11.8301 -6.50367 4
    endloop
  endfacet
  facet normal -0 0 1
    outer loop
      vertex 8.76307 -4.81754 4
      vertex 11.8301 -6.50367 4
      vertex 9.29776 -3.68124 4
    endloop
  endfacet
  facet normal 0 0 1
    outer loop
      vertex 11.8301 -6.50367 4
      vertex 8.76307 -4.81754 4
      vertex 10.9217 -7.9351 4
    endloop
  endfacet
  facet normal -0 0 1
    outer loop
      vertex 8.09017 -5.87785 4
      vertex 10.9217 -7.9351 4
      vertex 8.76307 -4.81754 4
    endloop
  endfacet
  facet normal 0 0 1
    outer loop
      vertex 10.9217 -7.9351 4
      vertex 8.09017 -5.87785 4
      vertex 9.84108 -9.24139 4
    endloop
  endfacet
  facet normal -0 0 1
    outer loop
      vertex 7.28969 -6.84547 4
      vertex 9.84108 -9.24139 4
      vertex 8.09017 -5.87785 4
    endloop
  endfacet
  facet normal 0 0 1
    outer loop
      vertex 9.84108 -9.24139 4
      vertex 7.28969 -6.84547 4
      vertex 8.60522 -10.4019 4
    endloop
  endfacet
  facet normal -0 0 1
    outer loop
      vertex 6.37424 -7.70513 4
      vertex 8.60522 -10.4019 4
      vertex 7.28969 -6.84547 4
    endloop
  endfacet
  facet normal 0 0 1
    outer loop
      vertex 8.60522 -10.4019 4
      vertex 6.37424 -7.70513 4
      vertex 7.23366 -11.3984 4
    endloop
  endfacet
  facet normal -0 0 1
    outer loop
      vertex 5.35827 -8.44328 4
      vertex 7.23366 -11.3984 4
      vertex 6.37424 -7.70513 4
    endloop
  endfacet
  facet normal 0 0 1
    outer loop
      vertex 7.23366 -11.3984 4
      vertex 5.35827 -8.44328 4
      vertex 5.74802 -12.2152 4
    endloop
  endfacet
  facet normal -0 0 1
    outer loop
      vertex 4.25779 -9.04827 4
      vertex 5.74802 -12.2152 4
      vertex 5.35827 -8.44328 4
    endloop
  endfacet
  facet normal 0 0 1
    outer loop
      vertex 4.25779 -9.04827 4
      vertex 4.17173 -12.8393 4
      vertex 5.74802 -12.2152 4
    endloop
  endfacet
  facet normal -0 0 1
    outer loop
      vertex 3.09017 -9.51056 4
      vertex 4.17173 -12.8393 4
      vertex 4.25779 -9.04827 4
    endloop
  endfacet
  facet normal 0 0 1
    outer loop
      vertex 3.09017 -9.51056 4
      vertex 2.52965 -13.2609 4
      vertex 4.17173 -12.8393 4
    endloop
  endfacet
  facet normal -0 0 1
    outer loop
      vertex 1.87381 -9.82287 4
      vertex 2.52965 -13.2609 4
      vertex 3.09017 -9.51056 4
    endloop
  endfacet
  facet normal 0 0 1
    outer loop
      vertex 1.87381 -9.82287 4
      vertex 0.847672 -13.4734 4
      vertex 2.52965 -13.2609 4
    endloop
  endfacet
  facet normal -0 0 1
    outer loop
      vertex 0.627905 -9.98027 4
      vertex 0.847672 -13.4734 4
      vertex 1.87381 -9.82287 4
    endloop
  endfacet
  facet normal -0 0 1
    outer loop
      vertex -0.627905 -9.98027 4
      vertex 0.847672 -13.4734 4
      vertex 0.627905 -9.98027 4
    endloop
  endfacet
  facet normal 0 0 1
    outer loop
      vertex -0.627905 -9.98027 4
      vertex -0.847672 -13.4734 4
      vertex 0.847672 -13.4734 4
    endloop
  endfacet
  facet normal 0 0 1
    outer loop
      vertex -1.87381 -9.82287 4
      vertex -0.847672 -13.4734 4
      vertex -0.627905 -9.98027 4
    endloop
  endfacet
  facet normal 0 0 1
    outer loop
      vertex -1.87381 -9.82287 4
      vertex -2.52965 -13.2609 4
      vertex -0.847672 -13.4734 4
    endloop
  endfacet
  facet normal 0 0 1
    outer loop
      vertex -3.09017 -9.51056 4
      vertex -2.52965 -13.2609 4
      vertex -1.87381 -9.82287 4
    endloop
  endfacet
  facet normal 0 0 1
    outer loop
      vertex -3.09017 -9.51056 4
      vertex -4.17173 -12.8393 4
      vertex -2.52965 -13.2609 4
    endloop
  endfacet
  facet normal 0 0 1
    outer loop
      vertex -4.25779 -9.04827 4
      vertex -4.17173 -12.8393 4
      vertex -3.09017 -9.51056 4
    endloop
  endfacet
  facet normal 0 0 1
    outer loop
      vertex -5.74802 -12.2152 4
      vertex -4.25779 -9.04827 4
      vertex -5.35827 -8.44328 4
    endloop
  endfacet
  facet normal 0 0 1
    outer loop
      vertex -4.25779 -9.04827 4
      vertex -5.74802 -12.2152 4
      vertex -4.17173 -12.8393 4
    endloop
  endfacet
  facet normal 0 0 1
    outer loop
      vertex -7.23366 -11.3984 4
      vertex -5.35827 -8.44328 4
      vertex -6.37424 -7.70513 4
    endloop
  endfacet
  facet normal 0 0 1
    outer loop
      vertex -5.35827 -8.44328 4
      vertex -7.23366 -11.3984 4
      vertex -5.74802 -12.2152 4
    endloop
  endfacet
  facet normal 0 0 1
    outer loop
      vertex -8.60522 -10.4019 4
      vertex -6.37424 -7.70513 4
      vertex -7.28969 -6.84547 4
    endloop
  endfacet
  facet normal 0 0 1
    outer loop
      vertex -9.84108 -9.24139 4
      vertex -7.28969 -6.84547 4
      vertex -8.09017 -5.87785 4
    endloop
  endfacet
  facet normal 0 0 1
    outer loop
      vertex -6.37424 -7.70513 4
      vertex -8.60522 -10.4019 4
      vertex -7.23366 -11.3984 4
    endloop
  endfacet
  facet normal 0 0 1
    outer loop
      vertex -10.9217 -7.9351 4
      vertex -8.09017 -5.87785 4
      vertex -8.76307 -4.81754 4
    endloop
  endfacet
  facet normal 0 0 1
    outer loop
      vertex -11.8301 -6.50367 4
      vertex -8.76307 -4.81754 4
      vertex -9.29776 -3.68124 4
    endloop
  endfacet
  facet normal 0 0 1
    outer loop
      vertex -12.552 -4.96968 4
      vertex -9.29776 -3.68124 4
      vertex -9.68583 -2.4869 4
    endloop
  endfacet
  facet normal 0 0 1
    outer loop
      vertex -7.28969 -6.84547 4
      vertex -9.84108 -9.24139 4
      vertex -8.60522 -10.4019 4
    endloop
  endfacet
  facet normal 0 0 1
    outer loop
      vertex -13.0759 -3.35731 4
      vertex -9.68583 -2.4869 4
      vertex -9.92115 -1.25333 4
    endloop
  endfacet
  facet normal 0 0 1
    outer loop
      vertex -13.3935 -1.692 4
      vertex -9.92115 -1.25333 4
      vertex -10 0 4
    endloop
  endfacet
  facet normal -0 0 1
    outer loop
      vertex -13.0759 3.35731 4
      vertex -9.68583 2.4869 4
      vertex -12.552 4.96968 4
    endloop
  endfacet
  facet normal 0 0 1
    outer loop
      vertex -8.09017 -5.87785 4
      vertex -10.9217 -7.9351 4
      vertex -9.84108 -9.24139 4
    endloop
  endfacet
  facet normal 0 0 1
    outer loop
      vertex -9.68583 2.4869 4
      vertex -13.0759 3.35731 4
      vertex -9.92115 1.25333 4
    endloop
  endfacet
  facet normal 0 0 1
    outer loop
      vertex -8.76307 -4.81754 4
      vertex -11.8301 -6.50367 4
      vertex -10.9217 -7.9351 4
    endloop
  endfacet
  facet normal -0 0 1
    outer loop
      vertex -13.3935 1.692 4
      vertex -9.92115 1.25333 4
      vertex -13.0759 3.35731 4
    endloop
  endfacet
  facet normal 0 0 1
    outer loop
      vertex -9.29776 -3.68124 4
      vertex -12.552 -4.96968 4
      vertex -11.8301 -6.50367 4
    endloop
  endfacet
  facet normal 0 0 1
    outer loop
      vertex -9.92115 1.25333 4
      vertex -13.3935 1.692 4
      vertex -10 0 4
    endloop
  endfacet
  facet normal 0 0 1
    outer loop
      vertex -9.68583 -2.4869 4
      vertex -13.0759 -3.35731 4
      vertex -12.552 -4.96968 4
    endloop
  endfacet
  facet normal 0 0 1
    outer loop
      vertex -13.5 0 4
      vertex -10 0 4
      vertex -13.3935 1.692 4
    endloop
  endfacet
  facet normal 0 0 1
    outer loop
      vertex -9.92115 -1.25333 4
      vertex -13.3935 -1.692 4
      vertex -13.0759 -3.35731 4
    endloop
  endfacet
  facet normal 0 0 1
    outer loop
      vertex -10 0 4
      vertex -13.5 0 4
      vertex -13.3935 -1.692 4
    endloop
  endfacet
  facet normal -0.481782 0.876291 0
    outer loop
      vertex -5.74802 12.2152 0
      vertex -7.23366 11.3984 4
      vertex -5.74802 12.2152 4
    endloop
  endfacet
  facet normal -0.481782 0.876291 0
    outer loop
      vertex -7.23366 11.3984 4
      vertex -5.74802 12.2152 0
      vertex -7.23366 11.3984 0
    endloop
  endfacet
  facet normal -0.587787 0.809016 0
    outer loop
      vertex -7.23366 11.3984 0
      vertex -8.60522 10.4019 4
      vertex -7.23366 11.3984 4
    endloop
  endfacet
  facet normal -0.587787 0.809016 0
    outer loop
      vertex -8.60522 10.4019 4
      vertex -7.23366 11.3984 0
      vertex -8.60522 10.4019 0
    endloop
  endfacet
  facet normal -0.125343 0.992113 0
    outer loop
      vertex -0.847672 13.4734 0
      vertex -2.52965 13.2609 4
      vertex -0.847672 13.4734 4
    endloop
  endfacet
  facet normal -0.125343 0.992113 0
    outer loop
      vertex -2.52965 13.2609 4
      vertex -0.847672 13.4734 0
      vertex -2.52965 13.2609 0
    endloop
  endfacet
  facet normal 0.998025 -0.0628189 0
    outer loop
      vertex 13.3935 -1.692 4
      vertex 13.5 0 0
      vertex 13.5 0 4
    endloop
  endfacet
  facet normal 0.998025 -0.0628189 0
    outer loop
      vertex 13.5 0 0
      vertex 13.3935 -1.692 4
      vertex 13.3935 -1.692 0
    endloop
  endfacet
  facet normal 0.770524 -0.637411 0
    outer loop
      vertex 9.84108 -9.24139 4
      vertex 10.9217 -7.9351 0
      vertex 10.9217 -7.9351 4
    endloop
  endfacet
  facet normal 0.770524 -0.637411 0
    outer loop
      vertex 10.9217 -7.9351 0
      vertex 9.84108 -9.24139 4
      vertex 9.84108 -9.24139 0
    endloop
  endfacet
  facet normal 0.904814 -0.425808 0
    outer loop
      vertex 11.8301 -6.50367 4
      vertex 12.552 -4.96968 0
      vertex 12.552 -4.96968 4
    endloop
  endfacet
  facet normal 0.904814 -0.425808 0
    outer loop
      vertex 12.552 -4.96968 0
      vertex 11.8301 -6.50367 4
      vertex 11.8301 -6.50367 0
    endloop
  endfacet
  facet normal 0.982295 -0.187339 0
    outer loop
      vertex 13.0759 -3.35731 4
      vertex 13.3935 -1.692 0
      vertex 13.3935 -1.692 4
    endloop
  endfacet
  facet normal 0.982295 -0.187339 0
    outer loop
      vertex 13.3935 -1.692 0
      vertex 13.0759 -3.35731 4
      vertex 13.0759 -3.35731 0
    endloop
  endfacet
  facet normal 0 0 -1
    outer loop
      vertex 10 0 0
      vertex 13.5 0 0
      vertex 13.3935 -1.692 0
    endloop
  endfacet
  facet normal 0 0 -1
    outer loop
      vertex 9.92115 -1.25333 0
      vertex 13.3935 -1.692 0
      vertex 13.0759 -3.35731 0
    endloop
  endfacet
  facet normal 0 0 -1
    outer loop
      vertex 13.5 0 0
      vertex 10 0 0
      vertex 13.3935 1.692 0
    endloop
  endfacet
  facet normal 0 0 -1
    outer loop
      vertex 9.68583 -2.4869 0
      vertex 13.0759 -3.35731 0
      vertex 12.552 -4.96968 0
    endloop
  endfacet
  facet normal 0 0 -1
    outer loop
      vertex 9.92115 1.25333 0
      vertex 13.3935 1.692 0
      vertex 10 0 0
    endloop
  endfacet
  facet normal 0 0 -1
    outer loop
      vertex 9.29776 -3.68124 0
      vertex 12.552 -4.96968 0
      vertex 11.8301 -6.50367 0
    endloop
  endfacet
  facet normal -0 0 -1
    outer loop
      vertex 13.3935 1.692 0
      vertex 9.92115 1.25333 0
      vertex 13.0759 3.35731 0
    endloop
  endfacet
  facet normal 0 0 -1
    outer loop
      vertex 8.76307 -4.81754 0
      vertex 11.8301 -6.50367 0
      vertex 10.9217 -7.9351 0
    endloop
  endfacet
  facet normal 0 0 -1
    outer loop
      vertex 9.68583 2.4869 0
      vertex 13.0759 3.35731 0
      vertex 9.92115 1.25333 0
    endloop
  endfacet
  facet normal -0 0 -1
    outer loop
      vertex 13.0759 3.35731 0
      vertex 9.68583 2.4869 0
      vertex 12.552 4.96968 0
    endloop
  endfacet
  facet normal 0 0 -1
    outer loop
      vertex 13.3935 -1.692 0
      vertex 9.92115 -1.25333 0
      vertex 10 0 0
    endloop
  endfacet
  facet normal 0 0 -1
    outer loop
      vertex 8.09017 -5.87785 0
      vertex 10.9217 -7.9351 0
      vertex 9.84108 -9.24139 0
    endloop
  endfacet
  facet normal 0 0 -1
    outer loop
      vertex 13.0759 -3.35731 0
      vertex 9.68583 -2.4869 0
      vertex 9.92115 -1.25333 0
    endloop
  endfacet
  facet normal 0 0 -1
    outer loop
      vertex 12.552 -4.96968 0
      vertex 9.29776 -3.68124 0
      vertex 9.68583 -2.4869 0
    endloop
  endfacet
  facet normal 0 0 -1
    outer loop
      vertex 11.8301 -6.50367 0
      vertex 8.76307 -4.81754 0
      vertex 9.29776 -3.68124 0
    endloop
  endfacet
  facet normal 0 0 -1
    outer loop
      vertex 7.28969 -6.84547 0
      vertex 9.84108 -9.24139 0
      vertex 8.60522 -10.4019 0
    endloop
  endfacet
  facet normal 0 0 -1
    outer loop
      vertex 10.9217 -7.9351 0
      vertex 8.09017 -5.87785 0
      vertex 8.76307 -4.81754 0
    endloop
  endfacet
  facet normal 0 0 -1
    outer loop
      vertex 9.84108 -9.24139 0
      vertex 7.28969 -6.84547 0
      vertex 8.09017 -5.87785 0
    endloop
  endfacet
  facet normal 0 0 -1
    outer loop
      vertex 6.37424 -7.70513 0
      vertex 8.60522 -10.4019 0
      vertex 7.23366 -11.3984 0
    endloop
  endfacet
  facet normal 0 0 -1
    outer loop
      vertex 8.60522 -10.4019 0
      vertex 6.37424 -7.70513 0
      vertex 7.28969 -6.84547 0
    endloop
  endfacet
  facet normal 0 0 -1
    outer loop
      vertex 5.35827 -8.44328 0
      vertex 7.23366 -11.3984 0
      vertex 5.74802 -12.2152 0
    endloop
  endfacet
  facet normal 0 0 -1
    outer loop
      vertex 7.23366 -11.3984 0
      vertex 5.35827 -8.44328 0
      vertex 6.37424 -7.70513 0
    endloop
  endfacet
  facet normal 0 0 -1
    outer loop
      vertex 5.74802 -12.2152 0
      vertex 4.25779 -9.04827 0
      vertex 5.35827 -8.44328 0
    endloop
  endfacet
  facet normal 0 0 -1
    outer loop
      vertex 4.17173 -12.8393 0
      vertex 4.25779 -9.04827 0
      vertex 5.74802 -12.2152 0
    endloop
  endfacet
  facet normal 0 0 -1
    outer loop
      vertex 4.17173 -12.8393 0
      vertex 3.09017 -9.51056 0
      vertex 4.25779 -9.04827 0
    endloop
  endfacet
  facet normal 0 0 -1
    outer loop
      vertex 2.52965 -13.2609 0
      vertex 3.09017 -9.51056 0
      vertex 4.17173 -12.8393 0
    endloop
  endfacet
  facet normal 0 0 -1
    outer loop
      vertex 2.52965 -13.2609 0
      vertex 1.87381 -9.82287 0
      vertex 3.09017 -9.51056 0
    endloop
  endfacet
  facet normal 0 0 -1
    outer loop
      vertex 0.847672 -13.4734 0
      vertex 1.87381 -9.82287 0
      vertex 2.52965 -13.2609 0
    endloop
  endfacet
  facet normal 0 0 -1
    outer loop
      vertex 0.847672 -13.4734 0
      vertex 0.627905 -9.98027 0
      vertex 1.87381 -9.82287 0
    endloop
  endfacet
  facet normal 0 0 -1
    outer loop
      vertex 0.847672 -13.4734 0
      vertex -0.627905 -9.98027 0
      vertex 0.627905 -9.98027 0
    endloop
  endfacet
  facet normal 0 0 -1
    outer loop
      vertex -0.847672 -13.4734 0
      vertex -0.627905 -9.98027 0
      vertex 0.847672 -13.4734 0
    endloop
  endfacet
  facet normal 0 0 -1
    outer loop
      vertex -0.847672 -13.4734 0
      vertex -1.87381 -9.82287 0
      vertex -0.627905 -9.98027 0
    endloop
  endfacet
  facet normal 0 0 -1
    outer loop
      vertex -2.52965 -13.2609 0
      vertex -1.87381 -9.82287 0
      vertex -0.847672 -13.4734 0
    endloop
  endfacet
  facet normal 0 0 -1
    outer loop
      vertex -2.52965 -13.2609 0
      vertex -3.09017 -9.51056 0
      vertex -1.87381 -9.82287 0
    endloop
  endfacet
  facet normal 0 0 -1
    outer loop
      vertex -4.17173 -12.8393 0
      vertex -3.09017 -9.51056 0
      vertex -2.52965 -13.2609 0
    endloop
  endfacet
  facet normal 0 0 -1
    outer loop
      vertex -4.17173 -12.8393 0
      vertex -4.25779 -9.04827 0
      vertex -3.09017 -9.51056 0
    endloop
  endfacet
  facet normal 0 0 -1
    outer loop
      vertex -5.74802 -12.2152 0
      vertex -4.25779 -9.04827 0
      vertex -4.17173 -12.8393 0
    endloop
  endfacet
  facet normal -0 0 -1
    outer loop
      vertex -4.25779 -9.04827 0
      vertex -5.74802 -12.2152 0
      vertex -5.35827 -8.44328 0
    endloop
  endfacet
  facet normal 0 0 -1
    outer loop
      vertex -7.23366 -11.3984 0
      vertex -5.35827 -8.44328 0
      vertex -5.74802 -12.2152 0
    endloop
  endfacet
  facet normal -0 0 -1
    outer loop
      vertex -5.35827 -8.44328 0
      vertex -7.23366 -11.3984 0
      vertex -6.37424 -7.70513 0
    endloop
  endfacet
  facet normal 0 0 -1
    outer loop
      vertex -8.60522 -10.4019 0
      vertex -6.37424 -7.70513 0
      vertex -7.23366 -11.3984 0
    endloop
  endfacet
  facet normal -0 0 -1
    outer loop
      vertex -6.37424 -7.70513 0
      vertex -8.60522 -10.4019 0
      vertex -7.28969 -6.84547 0
    endloop
  endfacet
  facet normal 0 0 -1
    outer loop
      vertex -9.84108 -9.24139 0
      vertex -7.28969 -6.84547 0
      vertex -8.60522 -10.4019 0
    endloop
  endfacet
  facet normal -0 0 -1
    outer loop
      vertex -7.28969 -6.84547 0
      vertex -9.84108 -9.24139 0
      vertex -8.09017 -5.87785 0
    endloop
  endfacet
  facet normal 0 0 -1
    outer loop
      vertex -10.9217 -7.9351 0
      vertex -8.09017 -5.87785 0
      vertex -9.84108 -9.24139 0
    endloop
  endfacet
  facet normal -0 0 -1
    outer loop
      vertex -8.09017 -5.87785 0
      vertex -10.9217 -7.9351 0
      vertex -8.76307 -4.81754 0
    endloop
  endfacet
  facet normal 0 0 -1
    outer loop
      vertex -11.8301 -6.50367 0
      vertex -8.76307 -4.81754 0
      vertex -10.9217 -7.9351 0
    endloop
  endfacet
  facet normal -0 0 -1
    outer loop
      vertex -8.76307 -4.81754 0
      vertex -11.8301 -6.50367 0
      vertex -9.29776 -3.68124 0
    endloop
  endfacet
  facet normal 0 0 -1
    outer loop
      vertex -12.552 -4.96968 0
      vertex -9.29776 -3.68124 0
      vertex -11.8301 -6.50367 0
    endloop
  endfacet
  facet normal -0 0 -1
    outer loop
      vertex -9.29776 -3.68124 0
      vertex -12.552 -4.96968 0
      vertex -9.68583 -2.4869 0
    endloop
  endfacet
  facet normal 0 0 -1
    outer loop
      vertex 9.29776 3.68124 0
      vertex 12.552 4.96968 0
      vertex 9.68583 2.4869 0
    endloop
  endfacet
  facet normal -0 0 -1
    outer loop
      vertex 12.552 4.96968 0
      vertex 9.29776 3.68124 0
      vertex 11.8301 6.50367 0
    endloop
  endfacet
  facet normal 0 0 -1
    outer loop
      vertex 8.76307 4.81754 0
      vertex 11.8301 6.50367 0
      vertex 9.29776 3.68124 0
    endloop
  endfacet
  facet normal -0 0 -1
    outer loop
      vertex 11.8301 6.50367 0
      vertex 8.76307 4.81754 0
      vertex 10.9217 7.9351 0
    endloop
  endfacet
  facet normal 0 0 -1
    outer loop
      vertex 8.09017 5.87785 0
      vertex 10.9217 7.9351 0
      vertex 8.76307 4.81754 0
    endloop
  endfacet
  facet normal -0 0 -1
    outer loop
      vertex 10.9217 7.9351 0
      vertex 8.09017 5.87785 0
      vertex 9.84108 9.24139 0
    endloop
  endfacet
  facet normal 0 0 -1
    outer loop
      vertex 7.28969 6.84547 0
      vertex 9.84108 9.24139 0
      vertex 8.09017 5.87785 0
    endloop
  endfacet
  facet normal -0 0 -1
    outer loop
      vertex 9.84108 9.24139 0
      vertex 7.28969 6.84547 0
      vertex 8.60522 10.4019 0
    endloop
  endfacet
  facet normal 0 0 -1
    outer loop
      vertex 6.37424 7.70513 0
      vertex 8.60522 10.4019 0
      vertex 7.28969 6.84547 0
    endloop
  endfacet
  facet normal -0 0 -1
    outer loop
      vertex 8.60522 10.4019 0
      vertex 6.37424 7.70513 0
      vertex 7.23366 11.3984 0
    endloop
  endfacet
  facet normal 0 0 -1
    outer loop
      vertex 5.35827 8.44328 0
      vertex 7.23366 11.3984 0
      vertex 6.37424 7.70513 0
    endloop
  endfacet
  facet normal -0 0 -1
    outer loop
      vertex 7.23366 11.3984 0
      vertex 5.35827 8.44328 0
      vertex 5.74802 12.2152 0
    endloop
  endfacet
  facet normal 0 0 -1
    outer loop
      vertex 4.25779 9.04827 0
      vertex 5.74802 12.2152 0
      vertex 5.35827 8.44328 0
    endloop
  endfacet
  facet normal 0 0 -1
    outer loop
      vertex 4.25779 9.04827 0
      vertex 4.17173 12.8393 0
      vertex 5.74802 12.2152 0
    endloop
  endfacet
  facet normal 0 0 -1
    outer loop
      vertex 3.09017 9.51056 0
      vertex 4.17173 12.8393 0
      vertex 4.25779 9.04827 0
    endloop
  endfacet
  facet normal 0 0 -1
    outer loop
      vertex 3.09017 9.51056 0
      vertex 2.52965 13.2609 0
      vertex 4.17173 12.8393 0
    endloop
  endfacet
  facet normal 0 0 -1
    outer loop
      vertex 1.87381 9.82287 0
      vertex 2.52965 13.2609 0
      vertex 3.09017 9.51056 0
    endloop
  endfacet
  facet normal 0 0 -1
    outer loop
      vertex 1.87381 9.82287 0
      vertex 0.847672 13.4734 0
      vertex 2.52965 13.2609 0
    endloop
  endfacet
  facet normal 0 0 -1
    outer loop
      vertex 0.627905 9.98027 0
      vertex 0.847672 13.4734 0
      vertex 1.87381 9.82287 0
    endloop
  endfacet
  facet normal 0 0 -1
    outer loop
      vertex -0.627905 9.98027 0
      vertex 0.847672 13.4734 0
      vertex 0.627905 9.98027 0
    endloop
  endfacet
  facet normal 0 0 -1
    outer loop
      vertex -0.627905 9.98027 0
      vertex -0.847672 13.4734 0
      vertex 0.847672 13.4734 0
    endloop
  endfacet
  facet normal 0 0 -1
    outer loop
      vertex -1.87381 9.82287 0
      vertex -0.847672 13.4734 0
      vertex -0.627905 9.98027 0
    endloop
  endfacet
  facet normal 0 0 -1
    outer loop
      vertex -1.87381 9.82287 0
      vertex -2.52965 13.2609 0
      vertex -0.847672 13.4734 0
    endloop
  endfacet
  facet normal 0 0 -1
    outer loop
      vertex -3.09017 9.51056 0
      vertex -2.52965 13.2609 0
      vertex -1.87381 9.82287 0
    endloop
  endfacet
  facet normal 0 0 -1
    outer loop
      vertex -3.09017 9.51056 0
      vertex -4.17173 12.8393 0
      vertex -2.52965 13.2609 0
    endloop
  endfacet
  facet normal 0 0 -1
    outer loop
      vertex -4.25779 9.04827 0
      vertex -4.17173 12.8393 0
      vertex -3.09017 9.51056 0
    endloop
  endfacet
  facet normal 0 0 -1
    outer loop
      vertex -5.74802 12.2152 0
      vertex -4.25779 9.04827 0
      vertex -5.35827 8.44328 0
    endloop
  endfacet
  facet normal 0 0 -1
    outer loop
      vertex -4.25779 9.04827 0
      vertex -5.74802 12.2152 0
      vertex -4.17173 12.8393 0
    endloop
  endfacet
  facet normal 0 0 -1
    outer loop
      vertex -7.23366 11.3984 0
      vertex -5.35827 8.44328 0
      vertex -6.37424 7.70513 0
    endloop
  endfacet
  facet normal 0 0 -1
    outer loop
      vertex -5.35827 8.44328 0
      vertex -7.23366 11.3984 0
      vertex -5.74802 12.2152 0
    endloop
  endfacet
  facet normal 0 0 -1
    outer loop
      vertex -8.60522 10.4019 0
      vertex -6.37424 7.70513 0
      vertex -7.28969 6.84547 0
    endloop
  endfacet
  facet normal 0 0 -1
    outer loop
      vertex -9.84108 9.24139 0
      vertex -7.28969 6.84547 0
      vertex -8.09017 5.87785 0
    endloop
  endfacet
  facet normal 0 0 -1
    outer loop
      vertex -6.37424 7.70513 0
      vertex -8.60522 10.4019 0
      vertex -7.23366 11.3984 0
    endloop
  endfacet
  facet normal 0 0 -1
    outer loop
      vertex -10.9217 7.9351 0
      vertex -8.09017 5.87785 0
      vertex -8.76307 4.81754 0
    endloop
  endfacet
  facet normal 0 0 -1
    outer loop
      vertex -11.8301 6.50367 0
      vertex -8.76307 4.81754 0
      vertex -9.29776 3.68124 0
    endloop
  endfacet
  facet normal 0 0 -1
    outer loop
      vertex -12.552 4.96968 0
      vertex -9.29776 3.68124 0
      vertex -9.68583 2.4869 0
    endloop
  endfacet
  facet normal 0 0 -1
    outer loop
      vertex -7.28969 6.84547 0
      vertex -9.84108 9.24139 0
      vertex -8.60522 10.4019 0
    endloop
  endfacet
  facet normal 0 0 -1
    outer loop
      vertex -13.0759 3.35731 0
      vertex -9.68583 2.4869 0
      vertex -9.92115 1.25333 0
    endloop
  endfacet
  facet normal 0 0 -1
    outer loop
      vertex -13.3935 1.692 0
      vertex -9.92115 1.25333 0
      vertex -10 0 0
    endloop
  endfacet
  facet normal 0 0 -1
    outer loop
      vertex -13.0759 -3.35731 0
      vertex -9.68583 -2.4869 0
      vertex -12.552 -4.96968 0
    endloop
  endfacet
  facet normal 0 0 -1
    outer loop
      vertex -8.09017 5.87785 0
      vertex -10.9217 7.9351 0
      vertex -9.84108 9.24139 0
    endloop
  endfacet
  facet normal -0 0 -1
    outer loop
      vertex -9.68583 -2.4869 0
      vertex -13.0759 -3.35731 0
      vertex -9.92115 -1.25333 0
    endloop
  endfacet
  facet normal 0 0 -1
    outer loop
      vertex -8.76307 4.81754 0
      vertex -11.8301 6.50367 0
      vertex -10.9217 7.9351 0
    endloop
  endfacet
  facet normal 0 0 -1
    outer loop
      vertex -13.3935 -1.692 0
      vertex -9.92115 -1.25333 0
      vertex -13.0759 -3.35731 0
    endloop
  endfacet
  facet normal 0 0 -1
    outer loop
      vertex -9.29776 3.68124 0
      vertex -12.552 4.96968 0
      vertex -11.8301 6.50367 0
    endloop
  endfacet
  facet normal -0 0 -1
    outer loop
      vertex -9.92115 -1.25333 0
      vertex -13.3935 -1.692 0
      vertex -10 0 0
    endloop
  endfacet
  facet normal 0 0 -1
    outer loop
      vertex -9.68583 2.4869 0
      vertex -13.0759 3.35731 0
      vertex -12.552 4.96968 0
    endloop
  endfacet
  facet normal 0 0 -1
    outer loop
      vertex -13.5 0 0
      vertex -10 0 0
      vertex -13.3935 -1.692 0
    endloop
  endfacet
  facet normal 0 0 -1
    outer loop
      vertex -9.92115 1.25333 0
      vertex -13.3935 1.692 0
      vertex -13.0759 3.35731 0
    endloop
  endfacet
  facet normal 0 0 -1
    outer loop
      vertex -10 0 0
      vertex -13.5 0 0
      vertex -13.3935 1.692 0
    endloop
  endfacet
  facet normal 0.481782 -0.876291 0
    outer loop
      vertex 5.74802 -12.2152 0
      vertex 7.23366 -11.3984 4
      vertex 5.74802 -12.2152 4
    endloop
  endfacet
  facet normal 0.481782 -0.876291 0
    outer loop
      vertex 7.23366 -11.3984 4
      vertex 5.74802 -12.2152 0
      vertex 7.23366 -11.3984 0
    endloop
  endfacet
  facet normal 0.684535 -0.72898 0
    outer loop
      vertex 8.60522 -10.4019 0
      vertex 9.84108 -9.24139 4
      vertex 8.60522 -10.4019 4
    endloop
  endfacet
  facet normal 0.684535 -0.72898 0
    outer loop
      vertex 9.84108 -9.24139 4
      vertex 8.60522 -10.4019 0
      vertex 9.84108 -9.24139 0
    endloop
  endfacet
  facet normal 0.844331 -0.535821 0
    outer loop
      vertex 10.9217 -7.9351 4
      vertex 11.8301 -6.50367 0
      vertex 11.8301 -6.50367 4
    endloop
  endfacet
  facet normal 0.844331 -0.535821 0
    outer loop
      vertex 11.8301 -6.50367 0
      vertex 10.9217 -7.9351 4
      vertex 10.9217 -7.9351 0
    endloop
  endfacet
  facet normal -0.248682 -0.968585 0
    outer loop
      vertex -4.17173 -12.8393 0
      vertex -2.52965 -13.2609 4
      vertex -4.17173 -12.8393 4
    endloop
  endfacet
  facet normal -0.248682 -0.968585 -0
    outer loop
      vertex -2.52965 -13.2609 4
      vertex -4.17173 -12.8393 0
      vertex -2.52965 -13.2609 0
    endloop
  endfacet
  facet normal -0.770524 -0.637411 0
    outer loop
      vertex -9.84108 -9.24139 0
      vertex -10.9217 -7.9351 4
      vertex -10.9217 -7.9351 0
    endloop
  endfacet
  facet normal -0.770524 -0.637411 0
    outer loop
      vertex -10.9217 -7.9351 4
      vertex -9.84108 -9.24139 0
      vertex -9.84108 -9.24139 4
    endloop
  endfacet
  facet normal -0.844331 -0.535821 0
    outer loop
      vertex -10.9217 -7.9351 0
      vertex -11.8301 -6.50367 4
      vertex -11.8301 -6.50367 0
    endloop
  endfacet
  facet normal -0.844331 -0.535821 0
    outer loop
      vertex -11.8301 -6.50367 4
      vertex -10.9217 -7.9351 0
      vertex -10.9217 -7.9351 4
    endloop
  endfacet
  facet normal -0.951055 -0.309022 0
    outer loop
      vertex -12.552 -4.96968 0
      vertex -13.0759 -3.35731 4
      vertex -13.0759 -3.35731 0
    endloop
  endfacet
  facet normal -0.951055 -0.309022 0
    outer loop
      vertex -13.0759 -3.35731 4
      vertex -12.552 -4.96968 0
      vertex -12.552 -4.96968 4
    endloop
  endfacet
  facet normal 0.368126 -0.929776 0
    outer loop
      vertex 4.17173 -12.8393 0
      vertex 5.74802 -12.2152 4
      vertex 4.17173 -12.8393 4
    endloop
  endfacet
  facet normal 0.368126 -0.929776 0
    outer loop
      vertex 5.74802 -12.2152 4
      vertex 4.17173 -12.8393 0
      vertex 5.74802 -12.2152 0
    endloop
  endfacet
  facet normal 0.248682 -0.968585 0
    outer loop
      vertex 2.52965 -13.2609 0
      vertex 4.17173 -12.8393 4
      vertex 2.52965 -13.2609 4
    endloop
  endfacet
  facet normal 0.248682 -0.968585 0
    outer loop
      vertex 4.17173 -12.8393 4
      vertex 2.52965 -13.2609 0
      vertex 4.17173 -12.8393 0
    endloop
  endfacet
  facet normal -0.125343 -0.992113 0
    outer loop
      vertex -2.52965 -13.2609 0
      vertex -0.847672 -13.4734 4
      vertex -2.52965 -13.2609 4
    endloop
  endfacet
  facet normal -0.125343 -0.992113 -0
    outer loop
      vertex -0.847672 -13.4734 4
      vertex -2.52965 -13.2609 0
      vertex -0.847672 -13.4734 0
    endloop
  endfacet
  facet normal -0.368126 -0.929776 0
    outer loop
      vertex -5.74802 -12.2152 0
      vertex -4.17173 -12.8393 4
      vertex -5.74802 -12.2152 4
    endloop
  endfacet
  facet normal -0.368126 -0.929776 -0
    outer loop
      vertex -4.17173 -12.8393 4
      vertex -5.74802 -12.2152 0
      vertex -4.17173 -12.8393 0
    endloop
  endfacet
  facet normal -0.684535 -0.72898 0
    outer loop
      vertex -9.84108 -9.24139 0
      vertex -8.60522 -10.4019 4
      vertex -9.84108 -9.24139 4
    endloop
  endfacet
  facet normal -0.684535 -0.72898 -0
    outer loop
      vertex -8.60522 -10.4019 4
      vertex -9.84108 -9.24139 0
      vertex -8.60522 -10.4019 0
    endloop
  endfacet
  facet normal -0.904814 -0.425808 0
    outer loop
      vertex -11.8301 -6.50367 0
      vertex -12.552 -4.96968 4
      vertex -12.552 -4.96968 0
    endloop
  endfacet
  facet normal -0.904814 -0.425808 0
    outer loop
      vertex -12.552 -4.96968 4
      vertex -11.8301 -6.50367 0
      vertex -11.8301 -6.50367 4
    endloop
  endfacet
  facet normal -0.982295 -0.187339 0
    outer loop
      vertex -13.0759 -3.35731 0
      vertex -13.3935 -1.692 4
      vertex -13.3935 -1.692 0
    endloop
  endfacet
  facet normal -0.982295 -0.187339 0
    outer loop
      vertex -13.3935 -1.692 4
      vertex -13.0759 -3.35731 0
      vertex -13.0759 -3.35731 4
    endloop
  endfacet
  facet normal -0.998025 -0.0628189 0
    outer loop
      vertex -13.3935 -1.692 0
      vertex -13.5 0 4
      vertex -13.5 0 0
    endloop
  endfacet
  facet normal -0.998025 -0.0628189 0
    outer loop
      vertex -13.5 0 4
      vertex -13.3935 -1.692 0
      vertex -13.3935 -1.692 4
    endloop
  endfacet
  facet normal 0.587787 -0.809016 0
    outer loop
      vertex 7.23366 -11.3984 0
      vertex 8.60522 -10.4019 4
      vertex 7.23366 -11.3984 4
    endloop
  endfacet
  facet normal 0.587787 -0.809016 0
    outer loop
      vertex 8.60522 -10.4019 4
      vertex 7.23366 -11.3984 0
      vertex 8.60522 -10.4019 0
    endloop
  endfacet
  facet normal -0.481782 -0.876291 0
    outer loop
      vertex -7.23366 -11.3984 0
      vertex -5.74802 -12.2152 4
      vertex -7.23366 -11.3984 4
    endloop
  endfacet
  facet normal -0.481782 -0.876291 -0
    outer loop
      vertex -5.74802 -12.2152 4
      vertex -7.23366 -11.3984 0
      vertex -5.74802 -12.2152 0
    endloop
  endfacet
  facet normal -0.587787 -0.809016 0
    outer loop
      vertex -8.60522 -10.4019 0
      vertex -7.23366 -11.3984 4
      vertex -8.60522 -10.4019 4
    endloop
  endfacet
  facet normal -0.587787 -0.809016 -0
    outer loop
      vertex -7.23366 -11.3984 4
      vertex -8.60522 -10.4019 0
      vertex -7.23366 -11.3984 0
    endloop
  endfacet
  facet normal -0.998027 -0.0627883 0
    outer loop
      vertex 10 0 0
      vertex 9.92115 1.25333 4
      vertex 9.92115 1.25333 0
    endloop
  endfacet
  facet normal -0.998027 -0.0627883 0
    outer loop
      vertex 9.92115 1.25333 4
      vertex 10 0 0
      vertex 10 0 4
    endloop
  endfacet
  facet normal 0.998027 -0.0627883 0
    outer loop
      vertex -10 0 4
      vertex -9.92115 1.25333 0
      vertex -9.92115 1.25333 4
    endloop
  endfacet
  facet normal 0.998027 -0.0627883 0
    outer loop
      vertex -9.92115 1.25333 0
      vertex -10 0 4
      vertex -10 0 0
    endloop
  endfacet
  facet normal 0 -1 0
    outer loop
      vertex -0.627905 9.98027 0
      vertex 0.627905 9.98027 4
      vertex -0.627905 9.98027 4
    endloop
  endfacet
  facet normal 0 -1 -0
    outer loop
      vertex 0.627905 9.98027 4
      vertex -0.627905 9.98027 0
      vertex 0.627905 9.98027 0
    endloop
  endfacet
  facet normal 0 1 -0
    outer loop
      vertex 0.627905 -9.98027 0
      vertex -0.627905 -9.98027 4
      vertex 0.627905 -9.98027 4
    endloop
  endfacet
  facet normal 0 1 0
    outer loop
      vertex -0.627905 -9.98027 4
      vertex 0.627905 -9.98027 0
      vertex -0.627905 -9.98027 0
    endloop
  endfacet
  facet normal -0.684545 -0.728971 0
    outer loop
      vertex 6.37424 7.70513 0
      vertex 7.28969 6.84547 4
      vertex 6.37424 7.70513 4
    endloop
  endfacet
  facet normal -0.684545 -0.728971 -0
    outer loop
      vertex 7.28969 6.84547 4
      vertex 6.37424 7.70513 0
      vertex 7.28969 6.84547 0
    endloop
  endfacet
  facet normal 0.684545 -0.728971 0
    outer loop
      vertex -7.28969 6.84547 0
      vertex -6.37424 7.70513 4
      vertex -7.28969 6.84547 4
    endloop
  endfacet
  facet normal 0.684545 -0.728971 0
    outer loop
      vertex -6.37424 7.70513 4
      vertex -7.28969 6.84547 0
      vertex -6.37424 7.70513 0
    endloop
  endfacet
  facet normal 0.368122 -0.929777 0
    outer loop
      vertex -4.25779 9.04827 0
      vertex -3.09017 9.51056 4
      vertex -4.25779 9.04827 4
    endloop
  endfacet
  facet normal 0.368122 -0.929777 0
    outer loop
      vertex -3.09017 9.51056 4
      vertex -4.25779 9.04827 0
      vertex -3.09017 9.51056 0
    endloop
  endfacet
  facet normal -0.904831 -0.425771 0
    outer loop
      vertex 9.29776 3.68124 0
      vertex 8.76307 4.81754 4
      vertex 8.76307 4.81754 0
    endloop
  endfacet
  facet normal -0.904831 -0.425771 0
    outer loop
      vertex 8.76307 4.81754 4
      vertex 9.29776 3.68124 0
      vertex 9.29776 3.68124 4
    endloop
  endfacet
  facet normal -0.844325 -0.535831 0
    outer loop
      vertex 8.76307 4.81754 0
      vertex 8.09017 5.87785 4
      vertex 8.09017 5.87785 0
    endloop
  endfacet
  facet normal -0.844325 -0.535831 0
    outer loop
      vertex 8.09017 5.87785 4
      vertex 8.76307 4.81754 0
      vertex 8.76307 4.81754 4
    endloop
  endfacet
  facet normal -0.368122 -0.929777 0
    outer loop
      vertex 3.09017 9.51056 0
      vertex 4.25779 9.04827 4
      vertex 3.09017 9.51056 4
    endloop
  endfacet
  facet normal -0.368122 -0.929777 -0
    outer loop
      vertex 4.25779 9.04827 4
      vertex 3.09017 9.51056 0
      vertex 4.25779 9.04827 0
    endloop
  endfacet
  facet normal -0.248691 -0.968583 0
    outer loop
      vertex 1.87381 9.82287 0
      vertex 3.09017 9.51056 4
      vertex 1.87381 9.82287 4
    endloop
  endfacet
  facet normal -0.248691 -0.968583 -0
    outer loop
      vertex 3.09017 9.51056 4
      vertex 1.87381 9.82287 0
      vertex 3.09017 9.51056 0
    endloop
  endfacet
  facet normal -0.481751 -0.876308 0
    outer loop
      vertex 4.25779 9.04827 0
      vertex 5.35827 8.44328 4
      vertex 4.25779 9.04827 4
    endloop
  endfacet
  facet normal -0.481751 -0.876308 -0
    outer loop
      vertex 5.35827 8.44328 4
      vertex 4.25779 9.04827 0
      vertex 5.35827 8.44328 0
    endloop
  endfacet
  facet normal 0.844325 -0.535831 0
    outer loop
      vertex -8.76307 4.81754 4
      vertex -8.09017 5.87785 0
      vertex -8.09017 5.87785 4
    endloop
  endfacet
  facet normal 0.844325 -0.535831 0
    outer loop
      vertex -8.09017 5.87785 0
      vertex -8.76307 4.81754 4
      vertex -8.76307 4.81754 0
    endloop
  endfacet
  facet normal 0.770515 -0.637422 0
    outer loop
      vertex -8.09017 5.87785 4
      vertex -7.28969 6.84547 0
      vertex -7.28969 6.84547 4
    endloop
  endfacet
  facet normal 0.770515 -0.637422 0
    outer loop
      vertex -7.28969 6.84547 0
      vertex -8.09017 5.87785 4
      vertex -8.09017 5.87785 0
    endloop
  endfacet
  facet normal 0.951055 -0.309021 0
    outer loop
      vertex -9.68583 2.4869 4
      vertex -9.29776 3.68124 0
      vertex -9.29776 3.68124 4
    endloop
  endfacet
  facet normal 0.951055 -0.309021 0
    outer loop
      vertex -9.29776 3.68124 0
      vertex -9.68583 2.4869 4
      vertex -9.68583 2.4869 0
    endloop
  endfacet
  facet normal 0.481751 -0.876308 0
    outer loop
      vertex -5.35827 8.44328 0
      vertex -4.25779 9.04827 4
      vertex -5.35827 8.44328 4
    endloop
  endfacet
  facet normal 0.481751 -0.876308 0
    outer loop
      vertex -4.25779 9.04827 4
      vertex -5.35827 8.44328 0
      vertex -4.25779 9.04827 0
    endloop
  endfacet
  facet normal 0.125338 -0.992114 0
    outer loop
      vertex -1.87381 9.82287 0
      vertex -0.627905 9.98027 4
      vertex -1.87381 9.82287 4
    endloop
  endfacet
  facet normal 0.125338 -0.992114 0
    outer loop
      vertex -0.627905 9.98027 4
      vertex -1.87381 9.82287 0
      vertex -0.627905 9.98027 0
    endloop
  endfacet
  facet normal -0.125338 0.992114 0
    outer loop
      vertex 1.87381 -9.82287 0
      vertex 0.627905 -9.98027 4
      vertex 1.87381 -9.82287 4
    endloop
  endfacet
  facet normal -0.125338 0.992114 0
    outer loop
      vertex 0.627905 -9.98027 4
      vertex 1.87381 -9.82287 0
      vertex 0.627905 -9.98027 0
    endloop
  endfacet
  facet normal -0.951055 -0.309021 0
    outer loop
      vertex 9.68583 2.4869 0
      vertex 9.29776 3.68124 4
      vertex 9.29776 3.68124 0
    endloop
  endfacet
  facet normal -0.951055 -0.309021 0
    outer loop
      vertex 9.29776 3.68124 4
      vertex 9.68583 2.4869 0
      vertex 9.68583 2.4869 4
    endloop
  endfacet
  facet normal -0.982287 -0.187384 0
    outer loop
      vertex 9.92115 1.25333 0
      vertex 9.68583 2.4869 4
      vertex 9.68583 2.4869 0
    endloop
  endfacet
  facet normal -0.982287 -0.187384 0
    outer loop
      vertex 9.68583 2.4869 4
      vertex 9.92115 1.25333 0
      vertex 9.92115 1.25333 4
    endloop
  endfacet
  facet normal -0.770515 -0.637422 0
    outer loop
      vertex 8.09017 5.87785 0
      vertex 7.28969 6.84547 4
      vertex 7.28969 6.84547 0
    endloop
  endfacet
  facet normal -0.770515 -0.637422 0
    outer loop
      vertex 7.28969 6.84547 4
      vertex 8.09017 5.87785 0
      vertex 8.09017 5.87785 4
    endloop
  endfacet
  facet normal -0.125338 -0.992114 0
    outer loop
      vertex 0.627905 9.98027 0
      vertex 1.87381 9.82287 4
      vertex 0.627905 9.98027 4
    endloop
  endfacet
  facet normal -0.125338 -0.992114 -0
    outer loop
      vertex 1.87381 9.82287 4
      vertex 0.627905 9.98027 0
      vertex 1.87381 9.82287 0
    endloop
  endfacet
  facet normal -0.587788 -0.809015 0
    outer loop
      vertex 5.35827 8.44328 0
      vertex 6.37424 7.70513 4
      vertex 5.35827 8.44328 4
    endloop
  endfacet
  facet normal -0.587788 -0.809015 -0
    outer loop
      vertex 6.37424 7.70513 4
      vertex 5.35827 8.44328 0
      vertex 6.37424 7.70513 0
    endloop
  endfacet
  facet normal 0.904831 -0.425771 0
    outer loop
      vertex -9.29776 3.68124 4
      vertex -8.76307 4.81754 0
      vertex -8.76307 4.81754 4
    endloop
  endfacet
  facet normal 0.904831 -0.425771 0
    outer loop
      vertex -8.76307 4.81754 0
      vertex -9.29776 3.68124 4
      vertex -9.29776 3.68124 0
    endloop
  endfacet
  facet normal 0.982287 -0.187384 0
    outer loop
      vertex -9.92115 1.25333 4
      vertex -9.68583 2.4869 0
      vertex -9.68583 2.4869 4
    endloop
  endfacet
  facet normal 0.982287 -0.187384 0
    outer loop
      vertex -9.68583 2.4869 0
      vertex -9.92115 1.25333 4
      vertex -9.92115 1.25333 0
    endloop
  endfacet
  facet normal 0.587788 -0.809015 0
    outer loop
      vertex -6.37424 7.70513 0
      vertex -5.35827 8.44328 4
      vertex -6.37424 7.70513 4
    endloop
  endfacet
  facet normal 0.587788 -0.809015 0
    outer loop
      vertex -5.35827 8.44328 4
      vertex -6.37424 7.70513 0
      vertex -5.35827 8.44328 0
    endloop
  endfacet
  facet normal 0.248691 -0.968583 0
    outer loop
      vertex -3.09017 9.51056 0
      vertex -1.87381 9.82287 4
      vertex -3.09017 9.51056 4
    endloop
  endfacet
  facet normal 0.248691 -0.968583 0
    outer loop
      vertex -1.87381 9.82287 4
      vertex -3.09017 9.51056 0
      vertex -1.87381 9.82287 0
    endloop
  endfacet
  facet normal -0.770515 0.637422 0
    outer loop
      vertex 7.28969 -6.84547 0
      vertex 8.09017 -5.87785 4
      vertex 8.09017 -5.87785 0
    endloop
  endfacet
  facet normal -0.770515 0.637422 0
    outer loop
      vertex 8.09017 -5.87785 4
      vertex 7.28969 -6.84547 0
      vertex 7.28969 -6.84547 4
    endloop
  endfacet
  facet normal -0.951055 0.309021 0
    outer loop
      vertex 9.29776 -3.68124 0
      vertex 9.68583 -2.4869 4
      vertex 9.68583 -2.4869 0
    endloop
  endfacet
  facet normal -0.951055 0.309021 0
    outer loop
      vertex 9.68583 -2.4869 4
      vertex 9.29776 -3.68124 0
      vertex 9.29776 -3.68124 4
    endloop
  endfacet
  facet normal -0.982287 0.187384 0
    outer loop
      vertex 9.68583 -2.4869 0
      vertex 9.92115 -1.25333 4
      vertex 9.92115 -1.25333 0
    endloop
  endfacet
  facet normal -0.982287 0.187384 0
    outer loop
      vertex 9.92115 -1.25333 4
      vertex 9.68583 -2.4869 0
      vertex 9.68583 -2.4869 4
    endloop
  endfacet
  facet normal 0.368122 0.929777 -0
    outer loop
      vertex -3.09017 -9.51056 0
      vertex -4.25779 -9.04827 4
      vertex -3.09017 -9.51056 4
    endloop
  endfacet
  facet normal 0.368122 0.929777 0
    outer loop
      vertex -4.25779 -9.04827 4
      vertex -3.09017 -9.51056 0
      vertex -4.25779 -9.04827 0
    endloop
  endfacet
  facet normal -0.368122 0.929777 0
    outer loop
      vertex 4.25779 -9.04827 0
      vertex 3.09017 -9.51056 4
      vertex 4.25779 -9.04827 4
    endloop
  endfacet
  facet normal -0.368122 0.929777 0
    outer loop
      vertex 3.09017 -9.51056 4
      vertex 4.25779 -9.04827 0
      vertex 3.09017 -9.51056 0
    endloop
  endfacet
  facet normal -0.481751 0.876308 0
    outer loop
      vertex 5.35827 -8.44328 0
      vertex 4.25779 -9.04827 4
      vertex 5.35827 -8.44328 4
    endloop
  endfacet
  facet normal -0.481751 0.876308 0
    outer loop
      vertex 4.25779 -9.04827 4
      vertex 5.35827 -8.44328 0
      vertex 4.25779 -9.04827 0
    endloop
  endfacet
  facet normal -0.844325 0.535831 0
    outer loop
      vertex 8.09017 -5.87785 0
      vertex 8.76307 -4.81754 4
      vertex 8.76307 -4.81754 0
    endloop
  endfacet
  facet normal -0.844325 0.535831 0
    outer loop
      vertex 8.76307 -4.81754 4
      vertex 8.09017 -5.87785 0
      vertex 8.09017 -5.87785 4
    endloop
  endfacet
  facet normal -0.998027 0.0627883 0
    outer loop
      vertex 9.92115 -1.25333 0
      vertex 10 0 4
      vertex 10 0 0
    endloop
  endfacet
  facet normal -0.998027 0.0627883 0
    outer loop
      vertex 10 0 4
      vertex 9.92115 -1.25333 0
      vertex 9.92115 -1.25333 4
    endloop
  endfacet
  facet normal 0.770515 0.637422 0
    outer loop
      vertex -7.28969 -6.84547 4
      vertex -8.09017 -5.87785 0
      vertex -8.09017 -5.87785 4
    endloop
  endfacet
  facet normal 0.770515 0.637422 0
    outer loop
      vertex -8.09017 -5.87785 0
      vertex -7.28969 -6.84547 4
      vertex -7.28969 -6.84547 0
    endloop
  endfacet
  facet normal 0.904831 0.425771 0
    outer loop
      vertex -8.76307 -4.81754 4
      vertex -9.29776 -3.68124 0
      vertex -9.29776 -3.68124 4
    endloop
  endfacet
  facet normal 0.904831 0.425771 0
    outer loop
      vertex -9.29776 -3.68124 0
      vertex -8.76307 -4.81754 4
      vertex -8.76307 -4.81754 0
    endloop
  endfacet
  facet normal 0.951055 0.309021 0
    outer loop
      vertex -9.29776 -3.68124 4
      vertex -9.68583 -2.4869 0
      vertex -9.68583 -2.4869 4
    endloop
  endfacet
  facet normal 0.951055 0.309021 0
    outer loop
      vertex -9.68583 -2.4869 0
      vertex -9.29776 -3.68124 4
      vertex -9.29776 -3.68124 0
    endloop
  endfacet
  facet normal 0.998027 0.0627883 0
    outer loop
      vertex -9.92115 -1.25333 4
      vertex -10 0 0
      vertex -10 0 4
    endloop
  endfacet
  facet normal 0.998027 0.0627883 0
    outer loop
      vertex -10 0 0
      vertex -9.92115 -1.25333 4
      vertex -9.92115 -1.25333 0
    endloop
  endfacet
  facet normal -0.248691 0.968583 0
    outer loop
      vertex 3.09017 -9.51056 0
      vertex 1.87381 -9.82287 4
      vertex 3.09017 -9.51056 4
    endloop
  endfacet
  facet normal -0.248691 0.968583 0
    outer loop
      vertex 1.87381 -9.82287 4
      vertex 3.09017 -9.51056 0
      vertex 1.87381 -9.82287 0
    endloop
  endfacet
  facet normal -0.684545 0.728971 0
    outer loop
      vertex 7.28969 -6.84547 0
      vertex 6.37424 -7.70513 4
      vertex 7.28969 -6.84547 4
    endloop
  endfacet
  facet normal -0.684545 0.728971 0
    outer loop
      vertex 6.37424 -7.70513 4
      vertex 7.28969 -6.84547 0
      vertex 6.37424 -7.70513 0
    endloop
  endfacet
  facet normal -0.587788 0.809015 0
    outer loop
      vertex 6.37424 -7.70513 0
      vertex 5.35827 -8.44328 4
      vertex 6.37424 -7.70513 4
    endloop
  endfacet
  facet normal -0.587788 0.809015 0
    outer loop
      vertex 5.35827 -8.44328 4
      vertex 6.37424 -7.70513 0
      vertex 5.35827 -8.44328 0
    endloop
  endfacet
  facet normal -0.904831 0.425771 0
    outer loop
      vertex 8.76307 -4.81754 0
      vertex 9.29776 -3.68124 4
      vertex 9.29776 -3.68124 0
    endloop
  endfacet
  facet normal -0.904831 0.425771 0
    outer loop
      vertex 9.29776 -3.68124 4
      vertex 8.76307 -4.81754 0
      vertex 8.76307 -4.81754 4
    endloop
  endfacet
  facet normal 0.481751 0.876308 -0
    outer loop
      vertex -4.25779 -9.04827 0
      vertex -5.35827 -8.44328 4
      vertex -4.25779 -9.04827 4
    endloop
  endfacet
  facet normal 0.481751 0.876308 0
    outer loop
      vertex -5.35827 -8.44328 4
      vertex -4.25779 -9.04827 0
      vertex -5.35827 -8.44328 0
    endloop
  endfacet
  facet normal 0.248691 0.968583 -0
    outer loop
      vertex -1.87381 -9.82287 0
      vertex -3.09017 -9.51056 4
      vertex -1.87381 -9.82287 4
    endloop
  endfacet
  facet normal 0.248691 0.968583 0
    outer loop
      vertex -3.09017 -9.51056 4
      vertex -1.87381 -9.82287 0
      vertex -3.09017 -9.51056 0
    endloop
  endfacet
  facet normal 0.844325 0.535831 0
    outer loop
      vertex -8.09017 -5.87785 4
      vertex -8.76307 -4.81754 0
      vertex -8.76307 -4.81754 4
    endloop
  endfacet
  facet normal 0.844325 0.535831 0
    outer loop
      vertex -8.76307 -4.81754 0
      vertex -8.09017 -5.87785 4
      vertex -8.09017 -5.87785 0
    endloop
  endfacet
  facet normal 0.982287 0.187384 0
    outer loop
      vertex -9.68583 -2.4869 4
      vertex -9.92115 -1.25333 0
      vertex -9.92115 -1.25333 4
    endloop
  endfacet
  facet normal 0.982287 0.187384 0
    outer loop
      vertex -9.92115 -1.25333 0
      vertex -9.68583 -2.4869 4
      vertex -9.68583 -2.4869 0
    endloop
  endfacet
  facet normal 0.684545 0.728971 -0
    outer loop
      vertex -6.37424 -7.70513 0
      vertex -7.28969 -6.84547 4
      vertex -6.37424 -7.70513 4
    endloop
  endfacet
  facet normal 0.684545 0.728971 0
    outer loop
      vertex -7.28969 -6.84547 4
      vertex -6.37424 -7.70513 0
      vertex -7.28969 -6.84547 0
    endloop
  endfacet
  facet normal 0.587788 0.809015 -0
    outer loop
      vertex -5.35827 -8.44328 0
      vertex -6.37424 -7.70513 4
      vertex -5.35827 -8.44328 4
    endloop
  endfacet
  facet normal 0.587788 0.809015 0
    outer loop
      vertex -6.37424 -7.70513 4
      vertex -5.35827 -8.44328 0
      vertex -6.37424 -7.70513 0
    endloop
  endfacet
  facet normal 0.125338 0.992114 -0
    outer loop
      vertex -0.627905 -9.98027 0
      vertex -1.87381 -9.82287 4
      vertex -0.627905 -9.98027 4
    endloop
  endfacet
  facet normal 0.125338 0.992114 0
    outer loop
      vertex -1.87381 -9.82287 4
      vertex -0.627905 -9.98027 0
      vertex -1.87381 -9.82287 0
    endloop
  endfacet
endsolid OpenSCAD_Model
