<?xml version="1.0" standalone="no"?>
<!DOCTYPE svg PUBLIC "-//W3C//DTD SVG 1.1//EN" "http://www.w3.org/Graphics/SVG/1.1/DTD/svg11.dtd">
<svg width="46mm" height="387mm" viewBox="-23 -639 46 387" xmlns="http://www.w3.org/2000/svg" version="1.1">
<title>OpenSCAD Model</title>
<path d="
M 18.4369,-549.089 L 19.0451,-549.245 L 19.6289,-549.476 L 20.1791,-549.778 L 20.6871,-550.147 L 21.1448,-550.577
 L 21.5451,-551.061 L 21.8815,-551.591 L 22.1489,-552.159 L 22.3429,-552.757 L 22.4606,-553.373 L 22.5,-554
 L 22.5,-634 L 22.4606,-634.627 L 22.3429,-635.243 L 22.1489,-635.841 L 21.8815,-636.409 L 21.5451,-636.939
 L 21.1448,-637.423 L 20.6871,-637.853 L 20.1791,-638.222 L 19.6289,-638.524 L 19.0451,-638.755 L 18.4369,-638.911
 L 17.8139,-638.99 L -17.8139,-638.99 L -18.4369,-638.911 L -19.0451,-638.755 L -19.6289,-638.524 L -20.1791,-638.222
 L -20.6871,-637.853 L -21.1448,-637.423 L -21.5451,-636.939 L -21.8815,-636.409 L -22.1489,-635.841 L -22.3429,-635.243
 L -22.4606,-634.627 L -22.5,-634 L -22.5,-554 L -22.4606,-553.373 L -22.3429,-552.757 L -22.1489,-552.159
 L -21.8815,-551.591 L -21.5451,-551.061 L -21.1448,-550.577 L -20.6871,-550.147 L -20.1791,-549.778 L -19.6289,-549.476
 L -19.0451,-549.245 L -18.4369,-549.089 L -17.8139,-549.01 L 17.8139,-549.01 z
M -17.2512,-550.508 L -17.7495,-550.571 L -18.2361,-550.696 L -18.7031,-550.881 L -19.1433,-551.123 L -19.5497,-551.418
 L -19.9159,-551.762 L -20.2361,-552.149 L -20.5052,-552.573 L -20.7191,-553.028 L -20.8743,-553.505 L -20.9684,-553.999
 L -21,-554.5 L -21,-633.5 L -20.9684,-634.001 L -20.8743,-634.495 L -20.7191,-634.972 L -20.5052,-635.427
 L -20.2361,-635.851 L -19.9159,-636.238 L -19.5497,-636.582 L -19.1433,-636.877 L -18.7031,-637.119 L -18.2361,-637.304
 L -17.7495,-637.429 L -17.2512,-637.492 L 17.2512,-637.492 L 17.7495,-637.429 L 18.2361,-637.304 L 18.7031,-637.119
 L 19.1433,-636.877 L 19.5497,-636.582 L 19.9159,-636.238 L 20.2361,-635.851 L 20.5052,-635.427 L 20.7191,-634.972
 L 20.8743,-634.495 L 20.9684,-634.001 L 21,-633.5 L 21,-554.5 L 20.9684,-553.999 L 20.8743,-553.505
 L 20.7191,-553.028 L 20.5052,-552.573 L 20.2361,-552.149 L 19.9159,-551.762 L 19.5497,-551.418 L 19.1433,-551.123
 L 18.7031,-550.881 L 18.2361,-550.696 L 17.7495,-550.571 L 17.2512,-550.508 z
M 18.4369,-450.089 L 19.0451,-450.245 L 19.6289,-450.476 L 20.1791,-450.778 L 20.6871,-451.147 L 21.1448,-451.577
 L 21.5451,-452.061 L 21.8815,-452.591 L 22.1489,-453.159 L 22.3429,-453.757 L 22.4606,-454.373 L 22.5,-455
 L 22.5,-535 L 22.4606,-535.627 L 22.3429,-536.243 L 22.1489,-536.841 L 21.8815,-537.409 L 21.5451,-537.939
 L 21.1448,-538.423 L 20.6871,-538.853 L 20.1791,-539.222 L 19.6289,-539.524 L 19.0451,-539.755 L 18.4369,-539.911
 L 17.8139,-539.99 L -17.8139,-539.99 L -18.4369,-539.911 L -19.0451,-539.755 L -19.6289,-539.524 L -20.1791,-539.222
 L -20.6871,-538.853 L -21.1448,-538.423 L -21.5451,-537.939 L -21.8815,-537.409 L -22.1489,-536.841 L -22.3429,-536.243
 L -22.4606,-535.627 L -22.5,-535 L -22.5,-455 L -22.4606,-454.373 L -22.3429,-453.757 L -22.1489,-453.159
 L -21.8815,-452.591 L -21.5451,-452.061 L -21.1448,-451.577 L -20.6871,-451.147 L -20.1791,-450.778 L -19.6289,-450.476
 L -19.0451,-450.245 L -18.4369,-450.089 L -17.8139,-450.01 L 17.8139,-450.01 z
M -17.2432,-451.635 L -17.7256,-451.696 L -18.1967,-451.817 L -18.6489,-451.996 L -19.0751,-452.23 L -19.4685,-452.516
 L -19.823,-452.849 L -20.133,-453.224 L -20.3936,-453.634 L -20.6007,-454.074 L -20.751,-454.537 L -20.8421,-455.015
 L -20.8726,-455.5 L -20.8726,-534.5 L -20.8421,-534.985 L -20.751,-535.463 L -20.6007,-535.926 L -20.3936,-536.366
 L -20.133,-536.776 L -19.823,-537.151 L -19.4685,-537.484 L -19.0751,-537.77 L -18.6489,-538.004 L -18.1967,-538.183
 L -17.7256,-538.304 L -17.2432,-538.365 L 17.2432,-538.365 L 17.7256,-538.304 L 18.1967,-538.183 L 18.6489,-538.004
 L 19.0751,-537.77 L 19.4685,-537.484 L 19.823,-537.151 L 20.133,-536.776 L 20.3936,-536.366 L 20.6007,-535.926
 L 20.751,-535.463 L 20.8421,-534.985 L 20.8726,-534.5 L 20.8726,-455.5 L 20.8421,-455.015 L 20.751,-454.537
 L 20.6007,-454.074 L 20.3936,-453.634 L 20.133,-453.224 L 19.823,-452.849 L 19.4685,-452.516 L 19.0751,-452.23
 L 18.6489,-451.996 L 18.1967,-451.817 L 17.7256,-451.696 L 17.2432,-451.635 z
M 18.4369,-351.089 L 19.0451,-351.245 L 19.6289,-351.476 L 20.1791,-351.778 L 20.6871,-352.147 L 21.1448,-352.577
 L 21.5451,-353.061 L 21.8815,-353.591 L 22.1489,-354.159 L 22.3429,-354.757 L 22.4606,-355.373 L 22.5,-356
 L 22.5,-436 L 22.4606,-436.627 L 22.3429,-437.243 L 22.1489,-437.841 L 21.8815,-438.409 L 21.5451,-438.939
 L 21.1448,-439.423 L 20.6871,-439.853 L 20.1791,-440.222 L 19.6289,-440.524 L 19.0451,-440.755 L 18.4369,-440.911
 L 17.8139,-440.99 L -17.8139,-440.99 L -18.4369,-440.911 L -19.0451,-440.755 L -19.6289,-440.524 L -20.1791,-440.222
 L -20.6871,-439.853 L -21.1448,-439.423 L -21.5451,-438.939 L -21.8815,-438.409 L -22.1489,-437.841 L -22.3429,-437.243
 L -22.4606,-436.627 L -22.5,-436 L -22.5,-356 L -22.4606,-355.373 L -22.3429,-354.757 L -22.1489,-354.159
 L -21.8815,-353.591 L -21.5451,-353.061 L -21.1448,-352.577 L -20.6871,-352.147 L -20.1791,-351.778 L -19.6289,-351.476
 L -19.0451,-351.245 L -18.4369,-351.089 L -17.8139,-351.01 L 17.8139,-351.01 z
M -15.1507,-431.105 L -15.4497,-431.143 L -15.7416,-431.217 L -16.0219,-431.328 L -16.286,-431.474 L -16.5298,-431.651
 L -16.7495,-431.857 L -16.9416,-432.089 L -17.1031,-432.344 L -17.2315,-432.617 L -17.3246,-432.903 L -17.3811,-433.199
 L -17.4,-433.5 L -17.3811,-433.801 L -17.3246,-434.097 L -17.2315,-434.383 L -17.1031,-434.656 L -16.9416,-434.911
 L -16.7495,-435.143 L -16.5298,-435.349 L -16.286,-435.526 L -16.0219,-435.672 L -15.7416,-435.783 L -15.4497,-435.857
 L -15.1507,-435.895 L -14.8493,-435.895 L -14.5503,-435.857 L -14.2583,-435.783 L -13.9781,-435.672 L -13.714,-435.526
 L -13.4702,-435.349 L -13.2505,-435.143 L -13.0583,-434.911 L -12.8969,-434.656 L -12.7685,-434.383 L -12.6754,-434.097
 L -12.6189,-433.801 L -12.6,-433.5 L -12.6189,-433.199 L -12.6754,-432.903 L -12.7685,-432.617 L -12.8969,-432.344
 L -13.0583,-432.089 L -13.2505,-431.857 L -13.4702,-431.651 L -13.714,-431.474 L -13.9781,-431.328 L -14.2583,-431.217
 L -14.5503,-431.143 L -14.8493,-431.105 z
M 14.8493,-431.105 L 14.5503,-431.143 L 14.2583,-431.217 L 13.9781,-431.328 L 13.714,-431.474 L 13.4702,-431.651
 L 13.2505,-431.857 L 13.0583,-432.089 L 12.8969,-432.344 L 12.7685,-432.617 L 12.6754,-432.903 L 12.6189,-433.199
 L 12.6,-433.5 L 12.6189,-433.801 L 12.6754,-434.097 L 12.7685,-434.383 L 12.8969,-434.656 L 13.0583,-434.911
 L 13.2505,-435.143 L 13.4702,-435.349 L 13.714,-435.526 L 13.9781,-435.672 L 14.2583,-435.783 L 14.5503,-435.857
 L 14.8493,-435.895 L 15.1507,-435.895 L 15.4497,-435.857 L 15.7416,-435.783 L 16.0219,-435.672 L 16.286,-435.526
 L 16.5298,-435.349 L 16.7495,-435.143 L 16.9416,-434.911 L 17.1031,-434.656 L 17.2315,-434.383 L 17.3246,-434.097
 L 17.3811,-433.801 L 17.4,-433.5 L 17.3811,-433.199 L 17.3246,-432.903 L 17.2315,-432.617 L 17.1031,-432.344
 L 16.9416,-432.089 L 16.7495,-431.857 L 16.5298,-431.651 L 16.286,-431.474 L 16.0219,-431.328 L 15.7416,-431.217
 L 15.4497,-431.143 L 15.1507,-431.105 z
M 14.8493,-356.105 L 14.5503,-356.143 L 14.2583,-356.217 L 13.9781,-356.328 L 13.714,-356.474 L 13.4702,-356.651
 L 13.2505,-356.857 L 13.0583,-357.089 L 12.8969,-357.344 L 12.7685,-357.617 L 12.6754,-357.903 L 12.6189,-358.199
 L 12.6,-358.5 L 12.6189,-358.801 L 12.6754,-359.097 L 12.7685,-359.383 L 12.8969,-359.656 L 13.0583,-359.911
 L 13.2505,-360.143 L 13.4702,-360.349 L 13.714,-360.526 L 13.9781,-360.672 L 14.2583,-360.783 L 14.5503,-360.857
 L 14.8493,-360.895 L 15.1507,-360.895 L 15.4497,-360.857 L 15.7416,-360.783 L 16.0219,-360.672 L 16.286,-360.526
 L 16.5298,-360.349 L 16.7495,-360.143 L 16.9416,-359.911 L 17.1031,-359.656 L 17.2315,-359.383 L 17.3246,-359.097
 L 17.3811,-358.801 L 17.4,-358.5 L 17.3811,-358.199 L 17.3246,-357.903 L 17.2315,-357.617 L 17.1031,-357.344
 L 16.9416,-357.089 L 16.7495,-356.857 L 16.5298,-356.651 L 16.286,-356.474 L 16.0219,-356.328 L 15.7416,-356.217
 L 15.4497,-356.143 L 15.1507,-356.105 z
M -15.1507,-356.105 L -15.4497,-356.143 L -15.7416,-356.217 L -16.0219,-356.328 L -16.286,-356.474 L -16.5298,-356.651
 L -16.7495,-356.857 L -16.9416,-357.089 L -17.1031,-357.344 L -17.2315,-357.617 L -17.3246,-357.903 L -17.3811,-358.199
 L -17.4,-358.5 L -17.3811,-358.801 L -17.3246,-359.097 L -17.2315,-359.383 L -17.1031,-359.656 L -16.9416,-359.911
 L -16.7495,-360.143 L -16.5298,-360.349 L -16.286,-360.526 L -16.0219,-360.672 L -15.7416,-360.783 L -15.4497,-360.857
 L -15.1507,-360.895 L -14.8493,-360.895 L -14.5503,-360.857 L -14.2583,-360.783 L -13.9781,-360.672 L -13.714,-360.526
 L -13.4702,-360.349 L -13.2505,-360.143 L -13.0583,-359.911 L -12.8969,-359.656 L -12.7685,-359.383 L -12.6754,-359.097
 L -12.6189,-358.801 L -12.6,-358.5 L -12.6189,-358.199 L -12.6754,-357.903 L -12.7685,-357.617 L -12.8969,-357.344
 L -13.0583,-357.089 L -13.2505,-356.857 L -13.4702,-356.651 L -13.714,-356.474 L -13.9781,-356.328 L -14.2583,-356.217
 L -14.5503,-356.143 L -14.8493,-356.105 z
M 18.4369,-252.089 L 19.0451,-252.245 L 19.6289,-252.476 L 20.1791,-252.778 L 20.6871,-253.147 L 21.1448,-253.577
 L 21.5451,-254.061 L 21.8815,-254.591 L 22.1489,-255.159 L 22.3429,-255.757 L 22.4606,-256.373 L 22.5,-257
 L 22.5,-337 L 22.4606,-337.627 L 22.3429,-338.243 L 22.1489,-338.841 L 21.8815,-339.409 L 21.5451,-339.939
 L 21.1448,-340.423 L 20.6871,-340.853 L 20.1791,-341.222 L 19.6289,-341.524 L 19.0451,-341.755 L 18.4369,-341.911
 L 17.8139,-341.99 L -17.8139,-341.99 L -18.4369,-341.911 L -19.0451,-341.755 L -19.6289,-341.524 L -20.1791,-341.222
 L -20.6871,-340.853 L -21.1448,-340.423 L -21.5451,-339.939 L -21.8815,-339.409 L -22.1489,-338.841 L -22.3429,-338.243
 L -22.4606,-337.627 L -22.5,-337 L -22.5,-257 L -22.4606,-256.373 L -22.3429,-255.757 L -22.1489,-255.159
 L -21.8815,-254.591 L -21.5451,-254.061 L -21.1448,-253.577 L -20.6871,-253.147 L -20.1791,-252.778 L -19.6289,-252.476
 L -19.0451,-252.245 L -18.4369,-252.089 L -17.8139,-252.01 L 17.8139,-252.01 z
M 14.887,-332.704 L 14.6627,-332.732 L 14.4438,-332.788 L 14.2336,-332.871 L 14.0355,-332.98 L 13.8526,-333.113
 L 13.6879,-333.268 L 13.5438,-333.442 L 13.4226,-333.633 L 13.3264,-333.837 L 13.2565,-334.052 L 13.2142,-334.274
 L 13.2,-334.5 L 13.2142,-334.726 L 13.2565,-334.948 L 13.3264,-335.163 L 13.4226,-335.367 L 13.5438,-335.558
 L 13.6879,-335.732 L 13.8526,-335.887 L 14.0355,-336.02 L 14.2336,-336.129 L 14.4438,-336.212 L 14.6627,-336.268
 L 14.887,-336.296 L 15.113,-336.296 L 15.3373,-336.268 L 15.5562,-336.212 L 15.7664,-336.129 L 15.9645,-336.02
 L 16.1474,-335.887 L 16.3121,-335.732 L 16.4562,-335.558 L 16.5773,-335.367 L 16.6736,-335.163 L 16.7434,-334.948
 L 16.7858,-334.726 L 16.8,-334.5 L 16.7858,-334.274 L 16.7434,-334.052 L 16.6736,-333.837 L 16.5773,-333.633
 L 16.4562,-333.442 L 16.3121,-333.268 L 16.1474,-333.113 L 15.9645,-332.98 L 15.7664,-332.871 L 15.5562,-332.788
 L 15.3373,-332.732 L 15.113,-332.704 z
M -15.113,-332.704 L -15.3373,-332.732 L -15.5562,-332.788 L -15.7664,-332.871 L -15.9645,-332.98 L -16.1474,-333.113
 L -16.3121,-333.268 L -16.4562,-333.442 L -16.5773,-333.633 L -16.6736,-333.837 L -16.7434,-334.052 L -16.7858,-334.274
 L -16.8,-334.5 L -16.7858,-334.726 L -16.7434,-334.948 L -16.6736,-335.163 L -16.5773,-335.367 L -16.4562,-335.558
 L -16.3121,-335.732 L -16.1474,-335.887 L -15.9645,-336.02 L -15.7664,-336.129 L -15.5562,-336.212 L -15.3373,-336.268
 L -15.113,-336.296 L -14.887,-336.296 L -14.6627,-336.268 L -14.4438,-336.212 L -14.2336,-336.129 L -14.0355,-336.02
 L -13.8526,-335.887 L -13.6879,-335.732 L -13.5438,-335.558 L -13.4226,-335.367 L -13.3264,-335.163 L -13.2565,-334.948
 L -13.2142,-334.726 L -13.2,-334.5 L -13.2142,-334.274 L -13.2565,-334.052 L -13.3264,-333.837 L -13.4226,-333.633
 L -13.5438,-333.442 L -13.6879,-333.268 L -13.8526,-333.113 L -14.0355,-332.98 L -14.2336,-332.871 L -14.4438,-332.788
 L -14.6627,-332.732 L -14.887,-332.704 z
M 14.887,-257.704 L 14.6627,-257.732 L 14.4438,-257.788 L 14.2336,-257.871 L 14.0355,-257.98 L 13.8526,-258.113
 L 13.6879,-258.268 L 13.5438,-258.442 L 13.4226,-258.633 L 13.3264,-258.837 L 13.2565,-259.052 L 13.2142,-259.274
 L 13.2,-259.5 L 13.2142,-259.726 L 13.2565,-259.948 L 13.3264,-260.163 L 13.4226,-260.367 L 13.5438,-260.558
 L 13.6879,-260.732 L 13.8526,-260.887 L 14.0355,-261.02 L 14.2336,-261.129 L 14.4438,-261.212 L 14.6627,-261.268
 L 14.887,-261.296 L 15.113,-261.296 L 15.3373,-261.268 L 15.5562,-261.212 L 15.7664,-261.129 L 15.9645,-261.02
 L 16.1474,-260.887 L 16.3121,-260.732 L 16.4562,-260.558 L 16.5773,-260.367 L 16.6736,-260.163 L 16.7434,-259.948
 L 16.7858,-259.726 L 16.8,-259.5 L 16.7858,-259.274 L 16.7434,-259.052 L 16.6736,-258.837 L 16.5773,-258.633
 L 16.4562,-258.442 L 16.3121,-258.268 L 16.1474,-258.113 L 15.9645,-257.98 L 15.7664,-257.871 L 15.5562,-257.788
 L 15.3373,-257.732 L 15.113,-257.704 z
M -15.113,-257.704 L -15.3373,-257.732 L -15.5562,-257.788 L -15.7664,-257.871 L -15.9645,-257.98 L -16.1474,-258.113
 L -16.3121,-258.268 L -16.4562,-258.442 L -16.5773,-258.633 L -16.6736,-258.837 L -16.7434,-259.052 L -16.7858,-259.274
 L -16.8,-259.5 L -16.7858,-259.726 L -16.7434,-259.948 L -16.6736,-260.163 L -16.5773,-260.367 L -16.4562,-260.558
 L -16.3121,-260.732 L -16.1474,-260.887 L -15.9645,-261.02 L -15.7664,-261.129 L -15.5562,-261.212 L -15.3373,-261.268
 L -15.113,-261.296 L -14.887,-261.296 L -14.6627,-261.268 L -14.4438,-261.212 L -14.2336,-261.129 L -14.0355,-261.02
 L -13.8526,-260.887 L -13.6879,-260.732 L -13.5438,-260.558 L -13.4226,-260.367 L -13.3264,-260.163 L -13.2565,-259.948
 L -13.2142,-259.726 L -13.2,-259.5 L -13.2142,-259.274 L -13.2565,-259.052 L -13.3264,-258.837 L -13.4226,-258.633
 L -13.5438,-258.442 L -13.6879,-258.268 L -13.8526,-258.113 L -14.0355,-257.98 L -14.2336,-257.871 L -14.4438,-257.788
 L -14.6627,-257.732 L -14.887,-257.704 z
" stroke="black" fill="lightgray" stroke-width="0.5"/>
</svg>
