<?xml version="1.0" standalone="no"?>
<!DOCTYPE svg PUBLIC "-//W3C//DTD SVG 1.1//EN" "http://www.w3.org/Graphics/SVG/1.1/DTD/svg11.dtd">
<svg width="150mm" height="160mm" viewBox="-75 -290 150 160" xmlns="http://www.w3.org/2000/svg" version="1.1">
<title>OpenSCAD Model</title>
<path d="
M 70.9369,-214.589 L 71.5451,-214.745 L 72.1289,-214.976 L 72.6791,-215.278 L 73.1871,-215.647 L 73.6448,-216.077
 L 74.0451,-216.561 L 74.3815,-217.091 L 74.6489,-217.659 L 74.8429,-218.257 L 74.9606,-218.873 L 75,-219.5
 L 75,-284.5 L 74.9606,-285.127 L 74.8429,-285.743 L 74.6489,-286.341 L 74.3815,-286.909 L 74.0451,-287.439
 L 73.6448,-287.923 L 73.1871,-288.353 L 72.6791,-288.722 L 72.1289,-289.024 L 71.5451,-289.255 L 70.9369,-289.411
 L 70.3139,-289.49 L -70.3139,-289.49 L -70.9369,-289.411 L -71.5451,-289.255 L -72.1289,-289.024 L -72.6791,-288.722
 L -73.1871,-288.353 L -73.6448,-287.923 L -74.0451,-287.439 L -74.3815,-286.909 L -74.6489,-286.341 L -74.8429,-285.743
 L -74.9606,-285.127 L -75,-284.5 L -75,-219.5 L -74.9606,-218.873 L -74.8429,-218.257 L -74.6489,-217.659
 L -74.3815,-217.091 L -74.0451,-216.561 L -73.6448,-216.077 L -73.1871,-215.647 L -72.6791,-215.278 L -72.1289,-214.976
 L -71.5451,-214.745 L -70.9369,-214.589 L -70.3139,-214.51 L 70.3139,-214.51 z
M -70.0375,-215.181 L -70.6079,-215.253 L -71.1648,-215.396 L -71.6994,-215.607 L -72.2032,-215.884 L -72.6684,-216.222
 L -73.0875,-216.616 L -73.454,-217.059 L -73.7621,-217.544 L -74.0069,-218.065 L -74.1846,-218.611 L -74.2923,-219.176
 L -74.3284,-219.75 L -74.3284,-284.25 L -74.2923,-284.824 L -74.1846,-285.389 L -74.0069,-285.935 L -73.7621,-286.456
 L -73.454,-286.941 L -73.0875,-287.384 L -72.6684,-287.778 L -72.2032,-288.116 L -71.6994,-288.393 L -71.1648,-288.604
 L -70.6079,-288.747 L -70.0375,-288.819 L 70.0375,-288.819 L 70.6079,-288.747 L 71.1648,-288.604 L 71.6994,-288.393
 L 72.2032,-288.116 L 72.6684,-287.778 L 73.0875,-287.384 L 73.454,-286.941 L 73.7621,-286.456 L 74.0069,-285.935
 L 74.1846,-285.389 L 74.2923,-284.824 L 74.3284,-284.25 L 74.3284,-219.75 L 74.2923,-219.176 L 74.1846,-218.611
 L 74.0069,-218.065 L 73.7621,-217.544 L 73.454,-217.059 L 73.0875,-216.616 L 72.6684,-216.222 L 72.2032,-215.884
 L 71.6994,-215.607 L 71.1648,-215.396 L 70.6079,-215.253 L 70.0375,-215.181 z
M 70.9369,-130.589 L 71.5451,-130.745 L 72.1289,-130.976 L 72.6791,-131.278 L 73.1871,-131.647 L 73.6448,-132.077
 L 74.0451,-132.561 L 74.3815,-133.091 L 74.6489,-133.659 L 74.8429,-134.257 L 74.9606,-134.873 L 75,-135.5
 L 75,-200.5 L 74.9606,-201.127 L 74.8429,-201.743 L 74.6489,-202.341 L 74.3815,-202.909 L 74.0451,-203.439
 L 73.6448,-203.923 L 73.1871,-204.353 L 72.6791,-204.722 L 72.1289,-205.024 L 71.5451,-205.255 L 70.9369,-205.411
 L 70.3139,-205.49 L -70.3139,-205.49 L -70.9369,-205.411 L -71.5451,-205.255 L -72.1289,-205.024 L -72.6791,-204.722
 L -73.1871,-204.353 L -73.6448,-203.923 L -74.0451,-203.439 L -74.3815,-202.909 L -74.6489,-202.341 L -74.8429,-201.743
 L -74.9606,-201.127 L -75,-200.5 L -75,-135.5 L -74.9606,-134.873 L -74.8429,-134.257 L -74.6489,-133.659
 L -74.3815,-133.091 L -74.0451,-132.561 L -73.6448,-132.077 L -73.1871,-131.647 L -72.6791,-131.278 L -72.1289,-130.976
 L -71.5451,-130.745 L -70.9369,-130.589 L -70.3139,-130.51 L 70.3139,-130.51 z
M -69.8825,-133.645 L -70.1453,-133.678 L -70.4019,-133.744 L -70.6482,-133.841 L -70.8804,-133.969 L -71.0947,-134.125
 L -71.2879,-134.306 L -71.4567,-134.51 L -71.5987,-134.734 L -71.7115,-134.973 L -71.7934,-135.225 L -71.843,-135.486
 L -71.8596,-135.75 L -71.8596,-200.25 L -71.843,-200.514 L -71.7934,-200.775 L -71.7115,-201.027 L -71.5987,-201.266
 L -71.4567,-201.49 L -71.2879,-201.694 L -71.0947,-201.875 L -70.8804,-202.031 L -70.6482,-202.159 L -70.4019,-202.256
 L -70.1453,-202.322 L -69.8825,-202.355 L 69.8825,-202.355 L 70.1453,-202.322 L 70.4019,-202.256 L 70.6482,-202.159
 L 70.8804,-202.031 L 71.0947,-201.875 L 71.2879,-201.694 L 71.4567,-201.49 L 71.5987,-201.266 L 71.7115,-201.027
 L 71.7934,-200.775 L 71.843,-200.514 L 71.8596,-200.25 L 71.8596,-135.75 L 71.843,-135.486 L 71.7934,-135.225
 L 71.7115,-134.973 L 71.5987,-134.734 L 71.4567,-134.51 L 71.2879,-134.306 L 71.0947,-134.125 L 70.8804,-133.969
 L 70.6482,-133.841 L 70.4019,-133.744 L 70.1453,-133.678 L 69.8825,-133.645 z
" stroke="black" fill="lightgray" stroke-width="0.5"/>
</svg>
