solid OpenSCAD_Model
  facet normal 0.998027 0.0627851 0
    outer loop
      vertex 39 0 10
      vertex 38.6925 4.888 0
      vertex 38.6925 4.888 10
    endloop
  endfacet
  facet normal 0.998027 0.0627851 0
    outer loop
      vertex 38.6925 4.888 0
      vertex 39 0 10
      vertex 39 0 0
    endloop
  endfacet
  facet normal -0.998027 0.0627851 0
    outer loop
      vertex -39 0 0
      vertex -38.6925 4.888 10
      vertex -38.6925 4.888 0
    endloop
  endfacet
  facet normal -0.998027 0.0627851 0
    outer loop
      vertex -38.6925 4.888 10
      vertex -39 0 0
      vertex -39 0 10
    endloop
  endfacet
  facet normal 0 1 -0
    outer loop
      vertex 2.44883 38.923 0
      vertex -2.44883 38.923 10
      vertex 2.44883 38.923 10
    endloop
  endfacet
  facet normal 0 1 0
    outer loop
      vertex -2.44883 38.923 10
      vertex 2.44883 38.923 0
      vertex -2.44883 38.923 0
    endloop
  endfacet
  facet normal 0 -1 0
    outer loop
      vertex -2.44883 -38.923 0
      vertex 2.44883 -38.923 10
      vertex -2.44883 -38.923 10
    endloop
  endfacet
  facet normal 0 -1 -0
    outer loop
      vertex 2.44883 -38.923 10
      vertex -2.44883 -38.923 0
      vertex 2.44883 -38.923 0
    endloop
  endfacet
  facet normal 0.684543 0.728972 -0
    outer loop
      vertex 28.4298 26.6973 0
      vertex 24.8595 30.05 10
      vertex 28.4298 26.6973 10
    endloop
  endfacet
  facet normal 0.684543 0.728972 0
    outer loop
      vertex 24.8595 30.05 10
      vertex 28.4298 26.6973 0
      vertex 24.8595 30.05 0
    endloop
  endfacet
  facet normal -0.684543 0.728972 0
    outer loop
      vertex -24.8595 30.05 0
      vertex -28.4298 26.6973 10
      vertex -24.8595 30.05 10
    endloop
  endfacet
  facet normal -0.684543 0.728972 0
    outer loop
      vertex -28.4298 26.6973 10
      vertex -24.8595 30.05 0
      vertex -28.4298 26.6973 0
    endloop
  endfacet
  facet normal -0.368118 0.929779 0
    outer loop
      vertex -12.0517 37.0912 0
      vertex -16.6054 35.2883 10
      vertex -12.0517 37.0912 10
    endloop
  endfacet
  facet normal -0.368118 0.929779 0
    outer loop
      vertex -16.6054 35.2883 10
      vertex -12.0517 37.0912 0
      vertex -16.6054 35.2883 0
    endloop
  endfacet
  facet normal 0.904827 0.425778 0
    outer loop
      vertex 36.2613 14.3569 10
      vertex 34.176 18.7884 0
      vertex 34.176 18.7884 10
    endloop
  endfacet
  facet normal 0.904827 0.425778 0
    outer loop
      vertex 34.176 18.7884 0
      vertex 36.2613 14.3569 10
      vertex 36.2613 14.3569 0
    endloop
  endfacet
  facet normal 0.844326 0.53583 0
    outer loop
      vertex 34.176 18.7884 10
      vertex 31.5517 22.9236 0
      vertex 31.5517 22.9236 10
    endloop
  endfacet
  facet normal 0.844326 0.53583 0
    outer loop
      vertex 31.5517 22.9236 0
      vertex 34.176 18.7884 10
      vertex 34.176 18.7884 0
    endloop
  endfacet
  facet normal 0.368118 0.929779 -0
    outer loop
      vertex 16.6054 35.2883 0
      vertex 12.0517 37.0912 10
      vertex 16.6054 35.2883 10
    endloop
  endfacet
  facet normal 0.368118 0.929779 0
    outer loop
      vertex 12.0517 37.0912 10
      vertex 16.6054 35.2883 0
      vertex 12.0517 37.0912 0
    endloop
  endfacet
  facet normal 0.481764 0.876301 -0
    outer loop
      vertex 20.8972 32.9288 0
      vertex 16.6054 35.2883 10
      vertex 20.8972 32.9288 10
    endloop
  endfacet
  facet normal 0.481764 0.876301 0
    outer loop
      vertex 16.6054 35.2883 10
      vertex 20.8972 32.9288 0
      vertex 16.6054 35.2883 0
    endloop
  endfacet
  facet normal -0.904827 0.425778 0
    outer loop
      vertex -36.2613 14.3569 0
      vertex -34.176 18.7884 10
      vertex -34.176 18.7884 0
    endloop
  endfacet
  facet normal -0.904827 0.425778 0
    outer loop
      vertex -34.176 18.7884 10
      vertex -36.2613 14.3569 0
      vertex -36.2613 14.3569 10
    endloop
  endfacet
  facet normal -0.770511 0.637427 0
    outer loop
      vertex -31.5517 22.9236 0
      vertex -28.4298 26.6973 10
      vertex -28.4298 26.6973 0
    endloop
  endfacet
  facet normal -0.770511 0.637427 0
    outer loop
      vertex -28.4298 26.6973 10
      vertex -31.5517 22.9236 0
      vertex -31.5517 22.9236 10
    endloop
  endfacet
  facet normal -0.951061 0.309003 0
    outer loop
      vertex -37.7747 9.6989 0
      vertex -36.2613 14.3569 10
      vertex -36.2613 14.3569 0
    endloop
  endfacet
  facet normal -0.951061 0.309003 0
    outer loop
      vertex -36.2613 14.3569 10
      vertex -37.7747 9.6989 0
      vertex -37.7747 9.6989 10
    endloop
  endfacet
  facet normal -0.248688 0.968584 0
    outer loop
      vertex -7.30787 38.3092 0
      vertex -12.0517 37.0912 10
      vertex -7.30787 38.3092 10
    endloop
  endfacet
  facet normal -0.248688 0.968584 0
    outer loop
      vertex -12.0517 37.0912 10
      vertex -7.30787 38.3092 0
      vertex -12.0517 37.0912 0
    endloop
  endfacet
  facet normal 0.951061 0.309003 0
    outer loop
      vertex 37.7747 9.6989 10
      vertex 36.2613 14.3569 0
      vertex 36.2613 14.3569 10
    endloop
  endfacet
  facet normal 0.951061 0.309003 0
    outer loop
      vertex 36.2613 14.3569 0
      vertex 37.7747 9.6989 10
      vertex 37.7747 9.6989 0
    endloop
  endfacet
  facet normal 0.982285 0.187395 0
    outer loop
      vertex 38.6925 4.888 10
      vertex 37.7747 9.6989 0
      vertex 37.7747 9.6989 10
    endloop
  endfacet
  facet normal 0.982285 0.187395 0
    outer loop
      vertex 37.7747 9.6989 0
      vertex 38.6925 4.888 10
      vertex 38.6925 4.888 0
    endloop
  endfacet
  facet normal 0.770511 0.637427 0
    outer loop
      vertex 31.5517 22.9236 10
      vertex 28.4298 26.6973 0
      vertex 28.4298 26.6973 10
    endloop
  endfacet
  facet normal 0.770511 0.637427 0
    outer loop
      vertex 28.4298 26.6973 0
      vertex 31.5517 22.9236 10
      vertex 31.5517 22.9236 0
    endloop
  endfacet
  facet normal 0.248688 0.968584 -0
    outer loop
      vertex 12.0517 37.0912 0
      vertex 7.30787 38.3092 10
      vertex 12.0517 37.0912 10
    endloop
  endfacet
  facet normal 0.248688 0.968584 0
    outer loop
      vertex 7.30787 38.3092 10
      vertex 12.0517 37.0912 0
      vertex 7.30787 38.3092 0
    endloop
  endfacet
  facet normal 0.125325 0.992116 -0
    outer loop
      vertex 7.30787 38.3092 0
      vertex 2.44883 38.923 10
      vertex 7.30787 38.3092 10
    endloop
  endfacet
  facet normal 0.125325 0.992116 0
    outer loop
      vertex 2.44883 38.923 10
      vertex 7.30787 38.3092 0
      vertex 2.44883 38.923 0
    endloop
  endfacet
  facet normal 0.587788 0.809015 -0
    outer loop
      vertex 24.8595 30.05 0
      vertex 20.8972 32.9288 10
      vertex 24.8595 30.05 10
    endloop
  endfacet
  facet normal 0.587788 0.809015 0
    outer loop
      vertex 20.8972 32.9288 10
      vertex 24.8595 30.05 0
      vertex 20.8972 32.9288 0
    endloop
  endfacet
  facet normal -0.844326 0.53583 0
    outer loop
      vertex -34.176 18.7884 0
      vertex -31.5517 22.9236 10
      vertex -31.5517 22.9236 0
    endloop
  endfacet
  facet normal -0.844326 0.53583 0
    outer loop
      vertex -31.5517 22.9236 10
      vertex -34.176 18.7884 0
      vertex -34.176 18.7884 10
    endloop
  endfacet
  facet normal -0.982285 0.187395 0
    outer loop
      vertex -38.6925 4.888 0
      vertex -37.7747 9.6989 10
      vertex -37.7747 9.6989 0
    endloop
  endfacet
  facet normal -0.982285 0.187395 0
    outer loop
      vertex -37.7747 9.6989 10
      vertex -38.6925 4.888 0
      vertex -38.6925 4.888 10
    endloop
  endfacet
  facet normal 0 0 1
    outer loop
      vertex 30 0 10
      vertex 39 0 10
      vertex 38.6925 4.888 10
    endloop
  endfacet
  facet normal 0 0 1
    outer loop
      vertex 29.7634 3.76 10
      vertex 38.6925 4.888 10
      vertex 37.7747 9.6989 10
    endloop
  endfacet
  facet normal 0 0 1
    outer loop
      vertex 39 0 10
      vertex 30 0 10
      vertex 38.6925 -4.888 10
    endloop
  endfacet
  facet normal 0 0 1
    outer loop
      vertex 29.0575 7.4607 10
      vertex 37.7747 9.6989 10
      vertex 36.2613 14.3569 10
    endloop
  endfacet
  facet normal -0 0 1
    outer loop
      vertex 29.7634 -3.76 10
      vertex 38.6925 -4.888 10
      vertex 30 0 10
    endloop
  endfacet
  facet normal 0 0 1
    outer loop
      vertex 27.8933 11.0437 10
      vertex 36.2613 14.3569 10
      vertex 34.176 18.7884 10
    endloop
  endfacet
  facet normal 0 0 1
    outer loop
      vertex 38.6925 -4.888 10
      vertex 29.7634 -3.76 10
      vertex 37.7747 -9.6989 10
    endloop
  endfacet
  facet normal 0 0 1
    outer loop
      vertex 26.2892 14.4526 10
      vertex 34.176 18.7884 10
      vertex 31.5517 22.9236 10
    endloop
  endfacet
  facet normal -0 0 1
    outer loop
      vertex 29.0575 -7.4607 10
      vertex 37.7747 -9.6989 10
      vertex 29.7634 -3.76 10
    endloop
  endfacet
  facet normal 0 0 1
    outer loop
      vertex 37.7747 -9.6989 10
      vertex 29.0575 -7.4607 10
      vertex 36.2613 -14.3569 10
    endloop
  endfacet
  facet normal 0 0 1
    outer loop
      vertex 38.6925 4.888 10
      vertex 29.7634 3.76 10
      vertex 30 0 10
    endloop
  endfacet
  facet normal 0 0 1
    outer loop
      vertex 37.7747 9.6989 10
      vertex 29.0575 7.4607 10
      vertex 29.7634 3.76 10
    endloop
  endfacet
  facet normal 0 0 1
    outer loop
      vertex 24.2705 17.6336 10
      vertex 31.5517 22.9236 10
      vertex 28.4298 26.6973 10
    endloop
  endfacet
  facet normal 0 0 1
    outer loop
      vertex 36.2613 14.3569 10
      vertex 27.8933 11.0437 10
      vertex 29.0575 7.4607 10
    endloop
  endfacet
  facet normal 0 0 1
    outer loop
      vertex 34.176 18.7884 10
      vertex 26.2892 14.4526 10
      vertex 27.8933 11.0437 10
    endloop
  endfacet
  facet normal 0 0 1
    outer loop
      vertex 21.8691 20.5364 10
      vertex 28.4298 26.6973 10
      vertex 24.8595 30.05 10
    endloop
  endfacet
  facet normal 0 0 1
    outer loop
      vertex 31.5517 22.9236 10
      vertex 24.2705 17.6336 10
      vertex 26.2892 14.4526 10
    endloop
  endfacet
  facet normal 0 0 1
    outer loop
      vertex 28.4298 26.6973 10
      vertex 21.8691 20.5364 10
      vertex 24.2705 17.6336 10
    endloop
  endfacet
  facet normal 0 0 1
    outer loop
      vertex 19.1227 23.1154 10
      vertex 24.8595 30.05 10
      vertex 20.8972 32.9288 10
    endloop
  endfacet
  facet normal 0 0 1
    outer loop
      vertex 24.8595 30.05 10
      vertex 19.1227 23.1154 10
      vertex 21.8691 20.5364 10
    endloop
  endfacet
  facet normal 0 0 1
    outer loop
      vertex 16.0748 25.3298 10
      vertex 20.8972 32.9288 10
      vertex 16.6054 35.2883 10
    endloop
  endfacet
  facet normal 0 0 1
    outer loop
      vertex 20.8972 32.9288 10
      vertex 16.0748 25.3298 10
      vertex 19.1227 23.1154 10
    endloop
  endfacet
  facet normal 0 0 1
    outer loop
      vertex 16.6054 35.2883 10
      vertex 12.7734 27.1448 10
      vertex 16.0748 25.3298 10
    endloop
  endfacet
  facet normal 0 0 1
    outer loop
      vertex 12.0517 37.0912 10
      vertex 12.7734 27.1448 10
      vertex 16.6054 35.2883 10
    endloop
  endfacet
  facet normal 0 0 1
    outer loop
      vertex 12.0517 37.0912 10
      vertex 9.27051 28.5317 10
      vertex 12.7734 27.1448 10
    endloop
  endfacet
  facet normal 0 0 1
    outer loop
      vertex 7.30787 38.3092 10
      vertex 9.27051 28.5317 10
      vertex 12.0517 37.0912 10
    endloop
  endfacet
  facet normal 0 0 1
    outer loop
      vertex 7.30787 38.3092 10
      vertex 5.62144 29.4686 10
      vertex 9.27051 28.5317 10
    endloop
  endfacet
  facet normal 0 0 1
    outer loop
      vertex 2.44883 38.923 10
      vertex 5.62144 29.4686 10
      vertex 7.30787 38.3092 10
    endloop
  endfacet
  facet normal 0 0 1
    outer loop
      vertex 2.44883 38.923 10
      vertex 1.88371 29.9408 10
      vertex 5.62144 29.4686 10
    endloop
  endfacet
  facet normal 0 0 1
    outer loop
      vertex 2.44883 38.923 10
      vertex -1.88371 29.9408 10
      vertex 1.88371 29.9408 10
    endloop
  endfacet
  facet normal -0 0 1
    outer loop
      vertex -2.44883 38.923 10
      vertex -1.88371 29.9408 10
      vertex 2.44883 38.923 10
    endloop
  endfacet
  facet normal 0 0 1
    outer loop
      vertex -2.44883 38.923 10
      vertex -5.62144 29.4686 10
      vertex -1.88371 29.9408 10
    endloop
  endfacet
  facet normal -0 0 1
    outer loop
      vertex -7.30787 38.3092 10
      vertex -5.62144 29.4686 10
      vertex -2.44883 38.923 10
    endloop
  endfacet
  facet normal 0 0 1
    outer loop
      vertex -7.30787 38.3092 10
      vertex -9.27051 28.5317 10
      vertex -5.62144 29.4686 10
    endloop
  endfacet
  facet normal -0 0 1
    outer loop
      vertex -12.0517 37.0912 10
      vertex -9.27051 28.5317 10
      vertex -7.30787 38.3092 10
    endloop
  endfacet
  facet normal 0 0 1
    outer loop
      vertex -12.0517 37.0912 10
      vertex -12.7734 27.1448 10
      vertex -9.27051 28.5317 10
    endloop
  endfacet
  facet normal -0 0 1
    outer loop
      vertex -16.6054 35.2883 10
      vertex -12.7734 27.1448 10
      vertex -12.0517 37.0912 10
    endloop
  endfacet
  facet normal 0 0 1
    outer loop
      vertex -12.7734 27.1448 10
      vertex -16.6054 35.2883 10
      vertex -16.0748 25.3298 10
    endloop
  endfacet
  facet normal -0 0 1
    outer loop
      vertex -20.8972 32.9288 10
      vertex -16.0748 25.3298 10
      vertex -16.6054 35.2883 10
    endloop
  endfacet
  facet normal 0 0 1
    outer loop
      vertex -16.0748 25.3298 10
      vertex -20.8972 32.9288 10
      vertex -19.1227 23.1154 10
    endloop
  endfacet
  facet normal -0 0 1
    outer loop
      vertex -24.8595 30.05 10
      vertex -19.1227 23.1154 10
      vertex -20.8972 32.9288 10
    endloop
  endfacet
  facet normal 0 0 1
    outer loop
      vertex -19.1227 23.1154 10
      vertex -24.8595 30.05 10
      vertex -21.8691 20.5364 10
    endloop
  endfacet
  facet normal -0 0 1
    outer loop
      vertex -28.4298 26.6973 10
      vertex -21.8691 20.5364 10
      vertex -24.8595 30.05 10
    endloop
  endfacet
  facet normal 0 0 1
    outer loop
      vertex -21.8691 20.5364 10
      vertex -28.4298 26.6973 10
      vertex -24.2705 17.6336 10
    endloop
  endfacet
  facet normal -0 0 1
    outer loop
      vertex -31.5517 22.9236 10
      vertex -24.2705 17.6336 10
      vertex -28.4298 26.6973 10
    endloop
  endfacet
  facet normal 0 0 1
    outer loop
      vertex -24.2705 17.6336 10
      vertex -31.5517 22.9236 10
      vertex -26.2892 14.4526 10
    endloop
  endfacet
  facet normal -0 0 1
    outer loop
      vertex -34.176 18.7884 10
      vertex -26.2892 14.4526 10
      vertex -31.5517 22.9236 10
    endloop
  endfacet
  facet normal 0 0 1
    outer loop
      vertex -26.2892 14.4526 10
      vertex -34.176 18.7884 10
      vertex -27.8933 11.0437 10
    endloop
  endfacet
  facet normal -0 0 1
    outer loop
      vertex -36.2613 14.3569 10
      vertex -27.8933 11.0437 10
      vertex -34.176 18.7884 10
    endloop
  endfacet
  facet normal 0 0 1
    outer loop
      vertex -27.8933 11.0437 10
      vertex -36.2613 14.3569 10
      vertex -29.0575 7.4607 10
    endloop
  endfacet
  facet normal -0 0 1
    outer loop
      vertex 27.8933 -11.0437 10
      vertex 36.2613 -14.3569 10
      vertex 29.0575 -7.4607 10
    endloop
  endfacet
  facet normal 0 0 1
    outer loop
      vertex 36.2613 -14.3569 10
      vertex 27.8933 -11.0437 10
      vertex 34.176 -18.7884 10
    endloop
  endfacet
  facet normal -0 0 1
    outer loop
      vertex 26.2892 -14.4526 10
      vertex 34.176 -18.7884 10
      vertex 27.8933 -11.0437 10
    endloop
  endfacet
  facet normal 0 0 1
    outer loop
      vertex 34.176 -18.7884 10
      vertex 26.2892 -14.4526 10
      vertex 31.5517 -22.9236 10
    endloop
  endfacet
  facet normal -0 0 1
    outer loop
      vertex 24.2705 -17.6336 10
      vertex 31.5517 -22.9236 10
      vertex 26.2892 -14.4526 10
    endloop
  endfacet
  facet normal 0 0 1
    outer loop
      vertex 31.5517 -22.9236 10
      vertex 24.2705 -17.6336 10
      vertex 28.4298 -26.6973 10
    endloop
  endfacet
  facet normal -0 0 1
    outer loop
      vertex 21.8691 -20.5364 10
      vertex 28.4298 -26.6973 10
      vertex 24.2705 -17.6336 10
    endloop
  endfacet
  facet normal 0 0 1
    outer loop
      vertex 28.4298 -26.6973 10
      vertex 21.8691 -20.5364 10
      vertex 24.8595 -30.05 10
    endloop
  endfacet
  facet normal -0 0 1
    outer loop
      vertex 19.1227 -23.1154 10
      vertex 24.8595 -30.05 10
      vertex 21.8691 -20.5364 10
    endloop
  endfacet
  facet normal 0 0 1
    outer loop
      vertex 24.8595 -30.05 10
      vertex 19.1227 -23.1154 10
      vertex 20.8972 -32.9288 10
    endloop
  endfacet
  facet normal -0 0 1
    outer loop
      vertex 16.0748 -25.3298 10
      vertex 20.8972 -32.9288 10
      vertex 19.1227 -23.1154 10
    endloop
  endfacet
  facet normal 0 0 1
    outer loop
      vertex 20.8972 -32.9288 10
      vertex 16.0748 -25.3298 10
      vertex 16.6054 -35.2883 10
    endloop
  endfacet
  facet normal -0 0 1
    outer loop
      vertex 12.7734 -27.1448 10
      vertex 16.6054 -35.2883 10
      vertex 16.0748 -25.3298 10
    endloop
  endfacet
  facet normal 0 0 1
    outer loop
      vertex 12.7734 -27.1448 10
      vertex 12.0517 -37.0912 10
      vertex 16.6054 -35.2883 10
    endloop
  endfacet
  facet normal -0 0 1
    outer loop
      vertex 9.27051 -28.5317 10
      vertex 12.0517 -37.0912 10
      vertex 12.7734 -27.1448 10
    endloop
  endfacet
  facet normal 0 0 1
    outer loop
      vertex 9.27051 -28.5317 10
      vertex 7.30787 -38.3092 10
      vertex 12.0517 -37.0912 10
    endloop
  endfacet
  facet normal -0 0 1
    outer loop
      vertex 5.62144 -29.4686 10
      vertex 7.30787 -38.3092 10
      vertex 9.27051 -28.5317 10
    endloop
  endfacet
  facet normal 0 0 1
    outer loop
      vertex 5.62144 -29.4686 10
      vertex 2.44883 -38.923 10
      vertex 7.30787 -38.3092 10
    endloop
  endfacet
  facet normal -0 0 1
    outer loop
      vertex 1.88371 -29.9408 10
      vertex 2.44883 -38.923 10
      vertex 5.62144 -29.4686 10
    endloop
  endfacet
  facet normal -0 0 1
    outer loop
      vertex -1.88371 -29.9408 10
      vertex 2.44883 -38.923 10
      vertex 1.88371 -29.9408 10
    endloop
  endfacet
  facet normal 0 0 1
    outer loop
      vertex -1.88371 -29.9408 10
      vertex -2.44883 -38.923 10
      vertex 2.44883 -38.923 10
    endloop
  endfacet
  facet normal 0 0 1
    outer loop
      vertex -5.62144 -29.4686 10
      vertex -2.44883 -38.923 10
      vertex -1.88371 -29.9408 10
    endloop
  endfacet
  facet normal 0 0 1
    outer loop
      vertex -5.62144 -29.4686 10
      vertex -7.30787 -38.3092 10
      vertex -2.44883 -38.923 10
    endloop
  endfacet
  facet normal 0 0 1
    outer loop
      vertex -9.27051 -28.5317 10
      vertex -7.30787 -38.3092 10
      vertex -5.62144 -29.4686 10
    endloop
  endfacet
  facet normal 0 0 1
    outer loop
      vertex -9.27051 -28.5317 10
      vertex -12.0517 -37.0912 10
      vertex -7.30787 -38.3092 10
    endloop
  endfacet
  facet normal 0 0 1
    outer loop
      vertex -12.7734 -27.1448 10
      vertex -12.0517 -37.0912 10
      vertex -9.27051 -28.5317 10
    endloop
  endfacet
  facet normal 0 0 1
    outer loop
      vertex -16.6054 -35.2883 10
      vertex -12.7734 -27.1448 10
      vertex -16.0748 -25.3298 10
    endloop
  endfacet
  facet normal 0 0 1
    outer loop
      vertex -12.7734 -27.1448 10
      vertex -16.6054 -35.2883 10
      vertex -12.0517 -37.0912 10
    endloop
  endfacet
  facet normal 0 0 1
    outer loop
      vertex -20.8972 -32.9288 10
      vertex -16.0748 -25.3298 10
      vertex -19.1227 -23.1154 10
    endloop
  endfacet
  facet normal 0 0 1
    outer loop
      vertex -16.0748 -25.3298 10
      vertex -20.8972 -32.9288 10
      vertex -16.6054 -35.2883 10
    endloop
  endfacet
  facet normal 0 0 1
    outer loop
      vertex -24.8595 -30.05 10
      vertex -19.1227 -23.1154 10
      vertex -21.8691 -20.5364 10
    endloop
  endfacet
  facet normal 0 0 1
    outer loop
      vertex -28.4298 -26.6973 10
      vertex -21.8691 -20.5364 10
      vertex -24.2705 -17.6336 10
    endloop
  endfacet
  facet normal 0 0 1
    outer loop
      vertex -19.1227 -23.1154 10
      vertex -24.8595 -30.05 10
      vertex -20.8972 -32.9288 10
    endloop
  endfacet
  facet normal 0 0 1
    outer loop
      vertex -31.5517 -22.9236 10
      vertex -24.2705 -17.6336 10
      vertex -26.2892 -14.4526 10
    endloop
  endfacet
  facet normal 0 0 1
    outer loop
      vertex -34.176 -18.7884 10
      vertex -26.2892 -14.4526 10
      vertex -27.8933 -11.0437 10
    endloop
  endfacet
  facet normal 0 0 1
    outer loop
      vertex -21.8691 -20.5364 10
      vertex -28.4298 -26.6973 10
      vertex -24.8595 -30.05 10
    endloop
  endfacet
  facet normal 0 0 1
    outer loop
      vertex -36.2613 -14.3569 10
      vertex -27.8933 -11.0437 10
      vertex -29.0575 -7.4607 10
    endloop
  endfacet
  facet normal 0 0 1
    outer loop
      vertex -37.7747 -9.6989 10
      vertex -29.0575 -7.4607 10
      vertex -29.7634 -3.76 10
    endloop
  endfacet
  facet normal 0 0 1
    outer loop
      vertex -38.6925 -4.888 10
      vertex -29.7634 -3.76 10
      vertex -30 0 10
    endloop
  endfacet
  facet normal -0 0 1
    outer loop
      vertex -37.7747 9.6989 10
      vertex -29.0575 7.4607 10
      vertex -36.2613 14.3569 10
    endloop
  endfacet
  facet normal 0 0 1
    outer loop
      vertex -24.2705 -17.6336 10
      vertex -31.5517 -22.9236 10
      vertex -28.4298 -26.6973 10
    endloop
  endfacet
  facet normal 0 0 1
    outer loop
      vertex -29.0575 7.4607 10
      vertex -37.7747 9.6989 10
      vertex -29.7634 3.76 10
    endloop
  endfacet
  facet normal 0 0 1
    outer loop
      vertex -26.2892 -14.4526 10
      vertex -34.176 -18.7884 10
      vertex -31.5517 -22.9236 10
    endloop
  endfacet
  facet normal -0 0 1
    outer loop
      vertex -38.6925 4.888 10
      vertex -29.7634 3.76 10
      vertex -37.7747 9.6989 10
    endloop
  endfacet
  facet normal 0 0 1
    outer loop
      vertex -27.8933 -11.0437 10
      vertex -36.2613 -14.3569 10
      vertex -34.176 -18.7884 10
    endloop
  endfacet
  facet normal 0 0 1
    outer loop
      vertex -29.7634 3.76 10
      vertex -38.6925 4.888 10
      vertex -30 0 10
    endloop
  endfacet
  facet normal 0 0 1
    outer loop
      vertex -29.0575 -7.4607 10
      vertex -37.7747 -9.6989 10
      vertex -36.2613 -14.3569 10
    endloop
  endfacet
  facet normal 0 0 1
    outer loop
      vertex -39 0 10
      vertex -30 0 10
      vertex -38.6925 4.888 10
    endloop
  endfacet
  facet normal 0 0 1
    outer loop
      vertex -29.7634 -3.76 10
      vertex -38.6925 -4.888 10
      vertex -37.7747 -9.6989 10
    endloop
  endfacet
  facet normal 0 0 1
    outer loop
      vertex -30 0 10
      vertex -39 0 10
      vertex -38.6925 -4.888 10
    endloop
  endfacet
  facet normal -0.481764 0.876301 0
    outer loop
      vertex -16.6054 35.2883 0
      vertex -20.8972 32.9288 10
      vertex -16.6054 35.2883 10
    endloop
  endfacet
  facet normal -0.481764 0.876301 0
    outer loop
      vertex -20.8972 32.9288 10
      vertex -16.6054 35.2883 0
      vertex -20.8972 32.9288 0
    endloop
  endfacet
  facet normal -0.587788 0.809015 0
    outer loop
      vertex -20.8972 32.9288 0
      vertex -24.8595 30.05 10
      vertex -20.8972 32.9288 10
    endloop
  endfacet
  facet normal -0.587788 0.809015 0
    outer loop
      vertex -24.8595 30.05 10
      vertex -20.8972 32.9288 0
      vertex -24.8595 30.05 0
    endloop
  endfacet
  facet normal -0.125325 0.992116 0
    outer loop
      vertex -2.44883 38.923 0
      vertex -7.30787 38.3092 10
      vertex -2.44883 38.923 10
    endloop
  endfacet
  facet normal -0.125325 0.992116 0
    outer loop
      vertex -7.30787 38.3092 10
      vertex -2.44883 38.923 0
      vertex -7.30787 38.3092 0
    endloop
  endfacet
  facet normal 0.998027 -0.0627851 0
    outer loop
      vertex 38.6925 -4.888 10
      vertex 39 0 0
      vertex 39 0 10
    endloop
  endfacet
  facet normal 0.998027 -0.0627851 0
    outer loop
      vertex 39 0 0
      vertex 38.6925 -4.888 10
      vertex 38.6925 -4.888 0
    endloop
  endfacet
  facet normal 0.770511 -0.637427 0
    outer loop
      vertex 28.4298 -26.6973 10
      vertex 31.5517 -22.9236 0
      vertex 31.5517 -22.9236 10
    endloop
  endfacet
  facet normal 0.770511 -0.637427 0
    outer loop
      vertex 31.5517 -22.9236 0
      vertex 28.4298 -26.6973 10
      vertex 28.4298 -26.6973 0
    endloop
  endfacet
  facet normal 0.951061 -0.309003 0
    outer loop
      vertex 36.2613 -14.3569 10
      vertex 37.7747 -9.6989 0
      vertex 37.7747 -9.6989 10
    endloop
  endfacet
  facet normal 0.951061 -0.309003 0
    outer loop
      vertex 37.7747 -9.6989 0
      vertex 36.2613 -14.3569 10
      vertex 36.2613 -14.3569 0
    endloop
  endfacet
  facet normal 0.982285 -0.187395 0
    outer loop
      vertex 37.7747 -9.6989 10
      vertex 38.6925 -4.888 0
      vertex 38.6925 -4.888 10
    endloop
  endfacet
  facet normal 0.982285 -0.187395 0
    outer loop
      vertex 38.6925 -4.888 0
      vertex 37.7747 -9.6989 10
      vertex 37.7747 -9.6989 0
    endloop
  endfacet
  facet normal -0.904827 -0.425778 0
    outer loop
      vertex -34.176 -18.7884 0
      vertex -36.2613 -14.3569 10
      vertex -36.2613 -14.3569 0
    endloop
  endfacet
  facet normal -0.904827 -0.425778 0
    outer loop
      vertex -36.2613 -14.3569 10
      vertex -34.176 -18.7884 0
      vertex -34.176 -18.7884 10
    endloop
  endfacet
  facet normal 0 0 -1
    outer loop
      vertex 30 0 0
      vertex 39 0 0
      vertex 38.6925 -4.888 0
    endloop
  endfacet
  facet normal 0 0 -1
    outer loop
      vertex 29.7634 -3.76 0
      vertex 38.6925 -4.888 0
      vertex 37.7747 -9.6989 0
    endloop
  endfacet
  facet normal 0 0 -1
    outer loop
      vertex 39 0 0
      vertex 30 0 0
      vertex 38.6925 4.888 0
    endloop
  endfacet
  facet normal 0 0 -1
    outer loop
      vertex 29.0575 -7.4607 0
      vertex 37.7747 -9.6989 0
      vertex 36.2613 -14.3569 0
    endloop
  endfacet
  facet normal 0 0 -1
    outer loop
      vertex 29.7634 3.76 0
      vertex 38.6925 4.888 0
      vertex 30 0 0
    endloop
  endfacet
  facet normal 0 0 -1
    outer loop
      vertex 27.8933 -11.0437 0
      vertex 36.2613 -14.3569 0
      vertex 34.176 -18.7884 0
    endloop
  endfacet
  facet normal -0 0 -1
    outer loop
      vertex 38.6925 4.888 0
      vertex 29.7634 3.76 0
      vertex 37.7747 9.6989 0
    endloop
  endfacet
  facet normal 0 0 -1
    outer loop
      vertex 26.2892 -14.4526 0
      vertex 34.176 -18.7884 0
      vertex 31.5517 -22.9236 0
    endloop
  endfacet
  facet normal 0 0 -1
    outer loop
      vertex 29.0575 7.4607 0
      vertex 37.7747 9.6989 0
      vertex 29.7634 3.76 0
    endloop
  endfacet
  facet normal -0 0 -1
    outer loop
      vertex 37.7747 9.6989 0
      vertex 29.0575 7.4607 0
      vertex 36.2613 14.3569 0
    endloop
  endfacet
  facet normal 0 0 -1
    outer loop
      vertex 38.6925 -4.888 0
      vertex 29.7634 -3.76 0
      vertex 30 0 0
    endloop
  endfacet
  facet normal 0 0 -1
    outer loop
      vertex 37.7747 -9.6989 0
      vertex 29.0575 -7.4607 0
      vertex 29.7634 -3.76 0
    endloop
  endfacet
  facet normal 0 0 -1
    outer loop
      vertex 24.2705 -17.6336 0
      vertex 31.5517 -22.9236 0
      vertex 28.4298 -26.6973 0
    endloop
  endfacet
  facet normal 0 0 -1
    outer loop
      vertex 36.2613 -14.3569 0
      vertex 27.8933 -11.0437 0
      vertex 29.0575 -7.4607 0
    endloop
  endfacet
  facet normal 0 0 -1
    outer loop
      vertex 34.176 -18.7884 0
      vertex 26.2892 -14.4526 0
      vertex 27.8933 -11.0437 0
    endloop
  endfacet
  facet normal 0 0 -1
    outer loop
      vertex 21.8691 -20.5364 0
      vertex 28.4298 -26.6973 0
      vertex 24.8595 -30.05 0
    endloop
  endfacet
  facet normal 0 0 -1
    outer loop
      vertex 31.5517 -22.9236 0
      vertex 24.2705 -17.6336 0
      vertex 26.2892 -14.4526 0
    endloop
  endfacet
  facet normal 0 0 -1
    outer loop
      vertex 28.4298 -26.6973 0
      vertex 21.8691 -20.5364 0
      vertex 24.2705 -17.6336 0
    endloop
  endfacet
  facet normal 0 0 -1
    outer loop
      vertex 19.1227 -23.1154 0
      vertex 24.8595 -30.05 0
      vertex 20.8972 -32.9288 0
    endloop
  endfacet
  facet normal 0 0 -1
    outer loop
      vertex 24.8595 -30.05 0
      vertex 19.1227 -23.1154 0
      vertex 21.8691 -20.5364 0
    endloop
  endfacet
  facet normal 0 0 -1
    outer loop
      vertex 16.0748 -25.3298 0
      vertex 20.8972 -32.9288 0
      vertex 16.6054 -35.2883 0
    endloop
  endfacet
  facet normal 0 0 -1
    outer loop
      vertex 20.8972 -32.9288 0
      vertex 16.0748 -25.3298 0
      vertex 19.1227 -23.1154 0
    endloop
  endfacet
  facet normal 0 0 -1
    outer loop
      vertex 16.6054 -35.2883 0
      vertex 12.7734 -27.1448 0
      vertex 16.0748 -25.3298 0
    endloop
  endfacet
  facet normal 0 0 -1
    outer loop
      vertex 12.0517 -37.0912 0
      vertex 12.7734 -27.1448 0
      vertex 16.6054 -35.2883 0
    endloop
  endfacet
  facet normal 0 0 -1
    outer loop
      vertex 12.0517 -37.0912 0
      vertex 9.27051 -28.5317 0
      vertex 12.7734 -27.1448 0
    endloop
  endfacet
  facet normal 0 0 -1
    outer loop
      vertex 7.30787 -38.3092 0
      vertex 9.27051 -28.5317 0
      vertex 12.0517 -37.0912 0
    endloop
  endfacet
  facet normal 0 0 -1
    outer loop
      vertex 7.30787 -38.3092 0
      vertex 5.62144 -29.4686 0
      vertex 9.27051 -28.5317 0
    endloop
  endfacet
  facet normal 0 0 -1
    outer loop
      vertex 2.44883 -38.923 0
      vertex 5.62144 -29.4686 0
      vertex 7.30787 -38.3092 0
    endloop
  endfacet
  facet normal 0 0 -1
    outer loop
      vertex 2.44883 -38.923 0
      vertex 1.88371 -29.9408 0
      vertex 5.62144 -29.4686 0
    endloop
  endfacet
  facet normal 0 0 -1
    outer loop
      vertex 2.44883 -38.923 0
      vertex -1.88371 -29.9408 0
      vertex 1.88371 -29.9408 0
    endloop
  endfacet
  facet normal 0 0 -1
    outer loop
      vertex -2.44883 -38.923 0
      vertex -1.88371 -29.9408 0
      vertex 2.44883 -38.923 0
    endloop
  endfacet
  facet normal 0 0 -1
    outer loop
      vertex -2.44883 -38.923 0
      vertex -5.62144 -29.4686 0
      vertex -1.88371 -29.9408 0
    endloop
  endfacet
  facet normal 0 0 -1
    outer loop
      vertex -7.30787 -38.3092 0
      vertex -5.62144 -29.4686 0
      vertex -2.44883 -38.923 0
    endloop
  endfacet
  facet normal 0 0 -1
    outer loop
      vertex -7.30787 -38.3092 0
      vertex -9.27051 -28.5317 0
      vertex -5.62144 -29.4686 0
    endloop
  endfacet
  facet normal 0 0 -1
    outer loop
      vertex -12.0517 -37.0912 0
      vertex -9.27051 -28.5317 0
      vertex -7.30787 -38.3092 0
    endloop
  endfacet
  facet normal 0 0 -1
    outer loop
      vertex -12.0517 -37.0912 0
      vertex -12.7734 -27.1448 0
      vertex -9.27051 -28.5317 0
    endloop
  endfacet
  facet normal 0 0 -1
    outer loop
      vertex -16.6054 -35.2883 0
      vertex -12.7734 -27.1448 0
      vertex -12.0517 -37.0912 0
    endloop
  endfacet
  facet normal -0 0 -1
    outer loop
      vertex -12.7734 -27.1448 0
      vertex -16.6054 -35.2883 0
      vertex -16.0748 -25.3298 0
    endloop
  endfacet
  facet normal 0 0 -1
    outer loop
      vertex -20.8972 -32.9288 0
      vertex -16.0748 -25.3298 0
      vertex -16.6054 -35.2883 0
    endloop
  endfacet
  facet normal -0 0 -1
    outer loop
      vertex -16.0748 -25.3298 0
      vertex -20.8972 -32.9288 0
      vertex -19.1227 -23.1154 0
    endloop
  endfacet
  facet normal 0 0 -1
    outer loop
      vertex -24.8595 -30.05 0
      vertex -19.1227 -23.1154 0
      vertex -20.8972 -32.9288 0
    endloop
  endfacet
  facet normal -0 0 -1
    outer loop
      vertex -19.1227 -23.1154 0
      vertex -24.8595 -30.05 0
      vertex -21.8691 -20.5364 0
    endloop
  endfacet
  facet normal 0 0 -1
    outer loop
      vertex -28.4298 -26.6973 0
      vertex -21.8691 -20.5364 0
      vertex -24.8595 -30.05 0
    endloop
  endfacet
  facet normal -0 0 -1
    outer loop
      vertex -21.8691 -20.5364 0
      vertex -28.4298 -26.6973 0
      vertex -24.2705 -17.6336 0
    endloop
  endfacet
  facet normal 0 0 -1
    outer loop
      vertex -31.5517 -22.9236 0
      vertex -24.2705 -17.6336 0
      vertex -28.4298 -26.6973 0
    endloop
  endfacet
  facet normal -0 0 -1
    outer loop
      vertex -24.2705 -17.6336 0
      vertex -31.5517 -22.9236 0
      vertex -26.2892 -14.4526 0
    endloop
  endfacet
  facet normal 0 0 -1
    outer loop
      vertex -34.176 -18.7884 0
      vertex -26.2892 -14.4526 0
      vertex -31.5517 -22.9236 0
    endloop
  endfacet
  facet normal -0 0 -1
    outer loop
      vertex -26.2892 -14.4526 0
      vertex -34.176 -18.7884 0
      vertex -27.8933 -11.0437 0
    endloop
  endfacet
  facet normal 0 0 -1
    outer loop
      vertex -36.2613 -14.3569 0
      vertex -27.8933 -11.0437 0
      vertex -34.176 -18.7884 0
    endloop
  endfacet
  facet normal -0 0 -1
    outer loop
      vertex -27.8933 -11.0437 0
      vertex -36.2613 -14.3569 0
      vertex -29.0575 -7.4607 0
    endloop
  endfacet
  facet normal 0 0 -1
    outer loop
      vertex 27.8933 11.0437 0
      vertex 36.2613 14.3569 0
      vertex 29.0575 7.4607 0
    endloop
  endfacet
  facet normal -0 0 -1
    outer loop
      vertex 36.2613 14.3569 0
      vertex 27.8933 11.0437 0
      vertex 34.176 18.7884 0
    endloop
  endfacet
  facet normal 0 0 -1
    outer loop
      vertex 26.2892 14.4526 0
      vertex 34.176 18.7884 0
      vertex 27.8933 11.0437 0
    endloop
  endfacet
  facet normal -0 0 -1
    outer loop
      vertex 34.176 18.7884 0
      vertex 26.2892 14.4526 0
      vertex 31.5517 22.9236 0
    endloop
  endfacet
  facet normal 0 0 -1
    outer loop
      vertex 24.2705 17.6336 0
      vertex 31.5517 22.9236 0
      vertex 26.2892 14.4526 0
    endloop
  endfacet
  facet normal -0 0 -1
    outer loop
      vertex 31.5517 22.9236 0
      vertex 24.2705 17.6336 0
      vertex 28.4298 26.6973 0
    endloop
  endfacet
  facet normal 0 0 -1
    outer loop
      vertex 21.8691 20.5364 0
      vertex 28.4298 26.6973 0
      vertex 24.2705 17.6336 0
    endloop
  endfacet
  facet normal -0 0 -1
    outer loop
      vertex 28.4298 26.6973 0
      vertex 21.8691 20.5364 0
      vertex 24.8595 30.05 0
    endloop
  endfacet
  facet normal 0 0 -1
    outer loop
      vertex 19.1227 23.1154 0
      vertex 24.8595 30.05 0
      vertex 21.8691 20.5364 0
    endloop
  endfacet
  facet normal -0 0 -1
    outer loop
      vertex 24.8595 30.05 0
      vertex 19.1227 23.1154 0
      vertex 20.8972 32.9288 0
    endloop
  endfacet
  facet normal 0 0 -1
    outer loop
      vertex 16.0748 25.3298 0
      vertex 20.8972 32.9288 0
      vertex 19.1227 23.1154 0
    endloop
  endfacet
  facet normal -0 0 -1
    outer loop
      vertex 20.8972 32.9288 0
      vertex 16.0748 25.3298 0
      vertex 16.6054 35.2883 0
    endloop
  endfacet
  facet normal 0 0 -1
    outer loop
      vertex 12.7734 27.1448 0
      vertex 16.6054 35.2883 0
      vertex 16.0748 25.3298 0
    endloop
  endfacet
  facet normal 0 0 -1
    outer loop
      vertex 12.7734 27.1448 0
      vertex 12.0517 37.0912 0
      vertex 16.6054 35.2883 0
    endloop
  endfacet
  facet normal 0 0 -1
    outer loop
      vertex 9.27051 28.5317 0
      vertex 12.0517 37.0912 0
      vertex 12.7734 27.1448 0
    endloop
  endfacet
  facet normal 0 0 -1
    outer loop
      vertex 9.27051 28.5317 0
      vertex 7.30787 38.3092 0
      vertex 12.0517 37.0912 0
    endloop
  endfacet
  facet normal 0 0 -1
    outer loop
      vertex 5.62144 29.4686 0
      vertex 7.30787 38.3092 0
      vertex 9.27051 28.5317 0
    endloop
  endfacet
  facet normal 0 0 -1
    outer loop
      vertex 5.62144 29.4686 0
      vertex 2.44883 38.923 0
      vertex 7.30787 38.3092 0
    endloop
  endfacet
  facet normal 0 0 -1
    outer loop
      vertex 1.88371 29.9408 0
      vertex 2.44883 38.923 0
      vertex 5.62144 29.4686 0
    endloop
  endfacet
  facet normal 0 0 -1
    outer loop
      vertex -1.88371 29.9408 0
      vertex 2.44883 38.923 0
      vertex 1.88371 29.9408 0
    endloop
  endfacet
  facet normal 0 0 -1
    outer loop
      vertex -1.88371 29.9408 0
      vertex -2.44883 38.923 0
      vertex 2.44883 38.923 0
    endloop
  endfacet
  facet normal 0 0 -1
    outer loop
      vertex -5.62144 29.4686 0
      vertex -2.44883 38.923 0
      vertex -1.88371 29.9408 0
    endloop
  endfacet
  facet normal 0 0 -1
    outer loop
      vertex -5.62144 29.4686 0
      vertex -7.30787 38.3092 0
      vertex -2.44883 38.923 0
    endloop
  endfacet
  facet normal 0 0 -1
    outer loop
      vertex -9.27051 28.5317 0
      vertex -7.30787 38.3092 0
      vertex -5.62144 29.4686 0
    endloop
  endfacet
  facet normal 0 0 -1
    outer loop
      vertex -9.27051 28.5317 0
      vertex -12.0517 37.0912 0
      vertex -7.30787 38.3092 0
    endloop
  endfacet
  facet normal 0 0 -1
    outer loop
      vertex -12.7734 27.1448 0
      vertex -12.0517 37.0912 0
      vertex -9.27051 28.5317 0
    endloop
  endfacet
  facet normal 0 0 -1
    outer loop
      vertex -16.6054 35.2883 0
      vertex -12.7734 27.1448 0
      vertex -16.0748 25.3298 0
    endloop
  endfacet
  facet normal 0 0 -1
    outer loop
      vertex -12.7734 27.1448 0
      vertex -16.6054 35.2883 0
      vertex -12.0517 37.0912 0
    endloop
  endfacet
  facet normal 0 0 -1
    outer loop
      vertex -20.8972 32.9288 0
      vertex -16.0748 25.3298 0
      vertex -19.1227 23.1154 0
    endloop
  endfacet
  facet normal 0 0 -1
    outer loop
      vertex -16.0748 25.3298 0
      vertex -20.8972 32.9288 0
      vertex -16.6054 35.2883 0
    endloop
  endfacet
  facet normal 0 0 -1
    outer loop
      vertex -24.8595 30.05 0
      vertex -19.1227 23.1154 0
      vertex -21.8691 20.5364 0
    endloop
  endfacet
  facet normal 0 0 -1
    outer loop
      vertex -28.4298 26.6973 0
      vertex -21.8691 20.5364 0
      vertex -24.2705 17.6336 0
    endloop
  endfacet
  facet normal 0 0 -1
    outer loop
      vertex -19.1227 23.1154 0
      vertex -24.8595 30.05 0
      vertex -20.8972 32.9288 0
    endloop
  endfacet
  facet normal 0 0 -1
    outer loop
      vertex -31.5517 22.9236 0
      vertex -24.2705 17.6336 0
      vertex -26.2892 14.4526 0
    endloop
  endfacet
  facet normal 0 0 -1
    outer loop
      vertex -34.176 18.7884 0
      vertex -26.2892 14.4526 0
      vertex -27.8933 11.0437 0
    endloop
  endfacet
  facet normal 0 0 -1
    outer loop
      vertex -21.8691 20.5364 0
      vertex -28.4298 26.6973 0
      vertex -24.8595 30.05 0
    endloop
  endfacet
  facet normal 0 0 -1
    outer loop
      vertex -36.2613 14.3569 0
      vertex -27.8933 11.0437 0
      vertex -29.0575 7.4607 0
    endloop
  endfacet
  facet normal 0 0 -1
    outer loop
      vertex -37.7747 9.6989 0
      vertex -29.0575 7.4607 0
      vertex -29.7634 3.76 0
    endloop
  endfacet
  facet normal 0 0 -1
    outer loop
      vertex -38.6925 4.888 0
      vertex -29.7634 3.76 0
      vertex -30 0 0
    endloop
  endfacet
  facet normal 0 0 -1
    outer loop
      vertex -37.7747 -9.6989 0
      vertex -29.0575 -7.4607 0
      vertex -36.2613 -14.3569 0
    endloop
  endfacet
  facet normal 0 0 -1
    outer loop
      vertex -24.2705 17.6336 0
      vertex -31.5517 22.9236 0
      vertex -28.4298 26.6973 0
    endloop
  endfacet
  facet normal -0 0 -1
    outer loop
      vertex -29.0575 -7.4607 0
      vertex -37.7747 -9.6989 0
      vertex -29.7634 -3.76 0
    endloop
  endfacet
  facet normal 0 0 -1
    outer loop
      vertex -26.2892 14.4526 0
      vertex -34.176 18.7884 0
      vertex -31.5517 22.9236 0
    endloop
  endfacet
  facet normal 0 0 -1
    outer loop
      vertex -38.6925 -4.888 0
      vertex -29.7634 -3.76 0
      vertex -37.7747 -9.6989 0
    endloop
  endfacet
  facet normal 0 0 -1
    outer loop
      vertex -27.8933 11.0437 0
      vertex -36.2613 14.3569 0
      vertex -34.176 18.7884 0
    endloop
  endfacet
  facet normal -0 0 -1
    outer loop
      vertex -29.7634 -3.76 0
      vertex -38.6925 -4.888 0
      vertex -30 0 0
    endloop
  endfacet
  facet normal 0 0 -1
    outer loop
      vertex -29.0575 7.4607 0
      vertex -37.7747 9.6989 0
      vertex -36.2613 14.3569 0
    endloop
  endfacet
  facet normal 0 0 -1
    outer loop
      vertex -39 0 0
      vertex -30 0 0
      vertex -38.6925 -4.888 0
    endloop
  endfacet
  facet normal 0 0 -1
    outer loop
      vertex -29.7634 3.76 0
      vertex -38.6925 4.888 0
      vertex -37.7747 9.6989 0
    endloop
  endfacet
  facet normal 0 0 -1
    outer loop
      vertex -30 0 0
      vertex -39 0 0
      vertex -38.6925 4.888 0
    endloop
  endfacet
  facet normal 0.481764 -0.876301 0
    outer loop
      vertex 16.6054 -35.2883 0
      vertex 20.8972 -32.9288 10
      vertex 16.6054 -35.2883 10
    endloop
  endfacet
  facet normal 0.481764 -0.876301 0
    outer loop
      vertex 20.8972 -32.9288 10
      vertex 16.6054 -35.2883 0
      vertex 20.8972 -32.9288 0
    endloop
  endfacet
  facet normal 0.684543 -0.728972 0
    outer loop
      vertex 24.8595 -30.05 0
      vertex 28.4298 -26.6973 10
      vertex 24.8595 -30.05 10
    endloop
  endfacet
  facet normal 0.684543 -0.728972 0
    outer loop
      vertex 28.4298 -26.6973 10
      vertex 24.8595 -30.05 0
      vertex 28.4298 -26.6973 0
    endloop
  endfacet
  facet normal 0.844326 -0.53583 0
    outer loop
      vertex 31.5517 -22.9236 10
      vertex 34.176 -18.7884 0
      vertex 34.176 -18.7884 10
    endloop
  endfacet
  facet normal 0.844326 -0.53583 0
    outer loop
      vertex 34.176 -18.7884 0
      vertex 31.5517 -22.9236 10
      vertex 31.5517 -22.9236 0
    endloop
  endfacet
  facet normal -0.951061 -0.309003 0
    outer loop
      vertex -36.2613 -14.3569 0
      vertex -37.7747 -9.6989 10
      vertex -37.7747 -9.6989 0
    endloop
  endfacet
  facet normal -0.951061 -0.309003 0
    outer loop
      vertex -37.7747 -9.6989 10
      vertex -36.2613 -14.3569 0
      vertex -36.2613 -14.3569 10
    endloop
  endfacet
  facet normal 0.368118 -0.929779 0
    outer loop
      vertex 12.0517 -37.0912 0
      vertex 16.6054 -35.2883 10
      vertex 12.0517 -37.0912 10
    endloop
  endfacet
  facet normal 0.368118 -0.929779 0
    outer loop
      vertex 16.6054 -35.2883 10
      vertex 12.0517 -37.0912 0
      vertex 16.6054 -35.2883 0
    endloop
  endfacet
  facet normal 0.248688 -0.968584 0
    outer loop
      vertex 7.30787 -38.3092 0
      vertex 12.0517 -37.0912 10
      vertex 7.30787 -38.3092 10
    endloop
  endfacet
  facet normal 0.248688 -0.968584 0
    outer loop
      vertex 12.0517 -37.0912 10
      vertex 7.30787 -38.3092 0
      vertex 12.0517 -37.0912 0
    endloop
  endfacet
  facet normal 0.125325 -0.992116 0
    outer loop
      vertex 2.44883 -38.923 0
      vertex 7.30787 -38.3092 10
      vertex 2.44883 -38.923 10
    endloop
  endfacet
  facet normal 0.125325 -0.992116 0
    outer loop
      vertex 7.30787 -38.3092 10
      vertex 2.44883 -38.923 0
      vertex 7.30787 -38.3092 0
    endloop
  endfacet
  facet normal 0.904827 -0.425778 0
    outer loop
      vertex 34.176 -18.7884 10
      vertex 36.2613 -14.3569 0
      vertex 36.2613 -14.3569 10
    endloop
  endfacet
  facet normal 0.904827 -0.425778 0
    outer loop
      vertex 36.2613 -14.3569 0
      vertex 34.176 -18.7884 10
      vertex 34.176 -18.7884 0
    endloop
  endfacet
  facet normal -0.125325 -0.992116 0
    outer loop
      vertex -7.30787 -38.3092 0
      vertex -2.44883 -38.923 10
      vertex -7.30787 -38.3092 10
    endloop
  endfacet
  facet normal -0.125325 -0.992116 -0
    outer loop
      vertex -2.44883 -38.923 10
      vertex -7.30787 -38.3092 0
      vertex -2.44883 -38.923 0
    endloop
  endfacet
  facet normal -0.368118 -0.929779 0
    outer loop
      vertex -16.6054 -35.2883 0
      vertex -12.0517 -37.0912 10
      vertex -16.6054 -35.2883 10
    endloop
  endfacet
  facet normal -0.368118 -0.929779 -0
    outer loop
      vertex -12.0517 -37.0912 10
      vertex -16.6054 -35.2883 0
      vertex -12.0517 -37.0912 0
    endloop
  endfacet
  facet normal -0.248688 -0.968584 0
    outer loop
      vertex -12.0517 -37.0912 0
      vertex -7.30787 -38.3092 10
      vertex -12.0517 -37.0912 10
    endloop
  endfacet
  facet normal -0.248688 -0.968584 -0
    outer loop
      vertex -7.30787 -38.3092 10
      vertex -12.0517 -37.0912 0
      vertex -7.30787 -38.3092 0
    endloop
  endfacet
  facet normal -0.770511 -0.637427 0
    outer loop
      vertex -28.4298 -26.6973 0
      vertex -31.5517 -22.9236 10
      vertex -31.5517 -22.9236 0
    endloop
  endfacet
  facet normal -0.770511 -0.637427 0
    outer loop
      vertex -31.5517 -22.9236 10
      vertex -28.4298 -26.6973 0
      vertex -28.4298 -26.6973 10
    endloop
  endfacet
  facet normal -0.684543 -0.728972 0
    outer loop
      vertex -28.4298 -26.6973 0
      vertex -24.8595 -30.05 10
      vertex -28.4298 -26.6973 10
    endloop
  endfacet
  facet normal -0.684543 -0.728972 -0
    outer loop
      vertex -24.8595 -30.05 10
      vertex -28.4298 -26.6973 0
      vertex -24.8595 -30.05 0
    endloop
  endfacet
  facet normal -0.982285 -0.187395 0
    outer loop
      vertex -37.7747 -9.6989 0
      vertex -38.6925 -4.888 10
      vertex -38.6925 -4.888 0
    endloop
  endfacet
  facet normal -0.982285 -0.187395 0
    outer loop
      vertex -38.6925 -4.888 10
      vertex -37.7747 -9.6989 0
      vertex -37.7747 -9.6989 10
    endloop
  endfacet
  facet normal -0.998027 -0.0627851 0
    outer loop
      vertex -38.6925 -4.888 0
      vertex -39 0 10
      vertex -39 0 0
    endloop
  endfacet
  facet normal -0.998027 -0.0627851 0
    outer loop
      vertex -39 0 10
      vertex -38.6925 -4.888 0
      vertex -38.6925 -4.888 10
    endloop
  endfacet
  facet normal 0.587788 -0.809015 0
    outer loop
      vertex 20.8972 -32.9288 0
      vertex 24.8595 -30.05 10
      vertex 20.8972 -32.9288 10
    endloop
  endfacet
  facet normal 0.587788 -0.809015 0
    outer loop
      vertex 24.8595 -30.05 10
      vertex 20.8972 -32.9288 0
      vertex 24.8595 -30.05 0
    endloop
  endfacet
  facet normal -0.844326 -0.53583 0
    outer loop
      vertex -31.5517 -22.9236 0
      vertex -34.176 -18.7884 10
      vertex -34.176 -18.7884 0
    endloop
  endfacet
  facet normal -0.844326 -0.53583 0
    outer loop
      vertex -34.176 -18.7884 10
      vertex -31.5517 -22.9236 0
      vertex -31.5517 -22.9236 10
    endloop
  endfacet
  facet normal -0.481764 -0.876301 0
    outer loop
      vertex -20.8972 -32.9288 0
      vertex -16.6054 -35.2883 10
      vertex -20.8972 -32.9288 10
    endloop
  endfacet
  facet normal -0.481764 -0.876301 -0
    outer loop
      vertex -16.6054 -35.2883 10
      vertex -20.8972 -32.9288 0
      vertex -16.6054 -35.2883 0
    endloop
  endfacet
  facet normal -0.587788 -0.809015 0
    outer loop
      vertex -24.8595 -30.05 0
      vertex -20.8972 -32.9288 10
      vertex -24.8595 -30.05 10
    endloop
  endfacet
  facet normal -0.587788 -0.809015 -0
    outer loop
      vertex -20.8972 -32.9288 10
      vertex -24.8595 -30.05 0
      vertex -20.8972 -32.9288 0
    endloop
  endfacet
  facet normal -0.998026 -0.0628013 0
    outer loop
      vertex 30 0 0
      vertex 29.7634 3.76 10
      vertex 29.7634 3.76 0
    endloop
  endfacet
  facet normal -0.998026 -0.0628013 0
    outer loop
      vertex 29.7634 3.76 10
      vertex 30 0 0
      vertex 30 0 10
    endloop
  endfacet
  facet normal 0.998026 -0.0628013 0
    outer loop
      vertex -30 0 10
      vertex -29.7634 3.76 0
      vertex -29.7634 3.76 10
    endloop
  endfacet
  facet normal 0.998026 -0.0628013 0
    outer loop
      vertex -29.7634 3.76 0
      vertex -30 0 10
      vertex -30 0 0
    endloop
  endfacet
  facet normal 0 -1 0
    outer loop
      vertex -1.88371 29.9408 0
      vertex 1.88371 29.9408 10
      vertex -1.88371 29.9408 10
    endloop
  endfacet
  facet normal 0 -1 -0
    outer loop
      vertex 1.88371 29.9408 10
      vertex -1.88371 29.9408 0
      vertex 1.88371 29.9408 0
    endloop
  endfacet
  facet normal 0 1 -0
    outer loop
      vertex 1.88371 -29.9408 0
      vertex -1.88371 -29.9408 10
      vertex 1.88371 -29.9408 10
    endloop
  endfacet
  facet normal 0 1 0
    outer loop
      vertex -1.88371 -29.9408 10
      vertex 1.88371 -29.9408 0
      vertex -1.88371 -29.9408 0
    endloop
  endfacet
  facet normal -0.684541 -0.728974 0
    outer loop
      vertex 19.1227 23.1154 0
      vertex 21.8691 20.5364 10
      vertex 19.1227 23.1154 10
    endloop
  endfacet
  facet normal -0.684541 -0.728974 -0
    outer loop
      vertex 21.8691 20.5364 10
      vertex 19.1227 23.1154 0
      vertex 21.8691 20.5364 0
    endloop
  endfacet
  facet normal 0.684541 -0.728974 0
    outer loop
      vertex -21.8691 20.5364 0
      vertex -19.1227 23.1154 10
      vertex -21.8691 20.5364 10
    endloop
  endfacet
  facet normal 0.684541 -0.728974 0
    outer loop
      vertex -19.1227 23.1154 10
      vertex -21.8691 20.5364 0
      vertex -19.1227 23.1154 0
    endloop
  endfacet
  facet normal 0.368126 -0.929776 0
    outer loop
      vertex -12.7734 27.1448 0
      vertex -9.27051 28.5317 10
      vertex -12.7734 27.1448 10
    endloop
  endfacet
  facet normal 0.368126 -0.929776 0
    outer loop
      vertex -9.27051 28.5317 10
      vertex -12.7734 27.1448 0
      vertex -9.27051 28.5317 0
    endloop
  endfacet
  facet normal -0.904828 -0.425778 0
    outer loop
      vertex 27.8933 11.0437 0
      vertex 26.2892 14.4526 10
      vertex 26.2892 14.4526 0
    endloop
  endfacet
  facet normal -0.904828 -0.425778 0
    outer loop
      vertex 26.2892 14.4526 10
      vertex 27.8933 11.0437 0
      vertex 27.8933 11.0437 10
    endloop
  endfacet
  facet normal -0.844331 -0.535822 0
    outer loop
      vertex 26.2892 14.4526 0
      vertex 24.2705 17.6336 10
      vertex 24.2705 17.6336 0
    endloop
  endfacet
  facet normal -0.844331 -0.535822 0
    outer loop
      vertex 24.2705 17.6336 10
      vertex 26.2892 14.4526 0
      vertex 26.2892 14.4526 10
    endloop
  endfacet
  facet normal -0.368126 -0.929776 0
    outer loop
      vertex 9.27051 28.5317 0
      vertex 12.7734 27.1448 10
      vertex 9.27051 28.5317 10
    endloop
  endfacet
  facet normal -0.368126 -0.929776 -0
    outer loop
      vertex 12.7734 27.1448 10
      vertex 9.27051 28.5317 0
      vertex 12.7734 27.1448 0
    endloop
  endfacet
  facet normal -0.248684 -0.968585 0
    outer loop
      vertex 5.62144 29.4686 0
      vertex 9.27051 28.5317 10
      vertex 5.62144 29.4686 10
    endloop
  endfacet
  facet normal -0.248684 -0.968585 -0
    outer loop
      vertex 9.27051 28.5317 10
      vertex 5.62144 29.4686 0
      vertex 9.27051 28.5317 0
    endloop
  endfacet
  facet normal -0.58778 -0.809021 0
    outer loop
      vertex 16.0748 25.3298 0
      vertex 19.1227 23.1154 10
      vertex 16.0748 25.3298 10
    endloop
  endfacet
  facet normal -0.58778 -0.809021 -0
    outer loop
      vertex 19.1227 23.1154 10
      vertex 16.0748 25.3298 0
      vertex 19.1227 23.1154 0
    endloop
  endfacet
  facet normal 0.904828 -0.425778 0
    outer loop
      vertex -27.8933 11.0437 10
      vertex -26.2892 14.4526 0
      vertex -26.2892 14.4526 10
    endloop
  endfacet
  facet normal 0.904828 -0.425778 0
    outer loop
      vertex -26.2892 14.4526 0
      vertex -27.8933 11.0437 10
      vertex -27.8933 11.0437 0
    endloop
  endfacet
  facet normal 0.770514 -0.637423 0
    outer loop
      vertex -24.2705 17.6336 10
      vertex -21.8691 20.5364 0
      vertex -21.8691 20.5364 10
    endloop
  endfacet
  facet normal 0.770514 -0.637423 0
    outer loop
      vertex -21.8691 20.5364 0
      vertex -24.2705 17.6336 10
      vertex -24.2705 17.6336 0
    endloop
  endfacet
  facet normal 0.951056 -0.30902 0
    outer loop
      vertex -29.0575 7.4607 10
      vertex -27.8933 11.0437 0
      vertex -27.8933 11.0437 10
    endloop
  endfacet
  facet normal 0.951056 -0.30902 0
    outer loop
      vertex -27.8933 11.0437 0
      vertex -29.0575 7.4607 10
      vertex -29.0575 7.4607 0
    endloop
  endfacet
  facet normal 0.481762 -0.876302 0
    outer loop
      vertex -16.0748 25.3298 0
      vertex -12.7734 27.1448 10
      vertex -16.0748 25.3298 10
    endloop
  endfacet
  facet normal 0.481762 -0.876302 0
    outer loop
      vertex -12.7734 27.1448 10
      vertex -16.0748 25.3298 0
      vertex -12.7734 27.1448 0
    endloop
  endfacet
  facet normal 0.248684 -0.968585 0
    outer loop
      vertex -9.27051 28.5317 0
      vertex -5.62144 29.4686 10
      vertex -9.27051 28.5317 10
    endloop
  endfacet
  facet normal 0.248684 -0.968585 0
    outer loop
      vertex -5.62144 29.4686 10
      vertex -9.27051 28.5317 0
      vertex -5.62144 29.4686 0
    endloop
  endfacet
  facet normal -0.125337 0.992114 0
    outer loop
      vertex 5.62144 -29.4686 0
      vertex 1.88371 -29.9408 10
      vertex 5.62144 -29.4686 10
    endloop
  endfacet
  facet normal -0.125337 0.992114 0
    outer loop
      vertex 1.88371 -29.9408 10
      vertex 5.62144 -29.4686 0
      vertex 1.88371 -29.9408 0
    endloop
  endfacet
  facet normal -0.368126 0.929776 0
    outer loop
      vertex 12.7734 -27.1448 0
      vertex 9.27051 -28.5317 10
      vertex 12.7734 -27.1448 10
    endloop
  endfacet
  facet normal -0.368126 0.929776 0
    outer loop
      vertex 9.27051 -28.5317 10
      vertex 12.7734 -27.1448 0
      vertex 9.27051 -28.5317 0
    endloop
  endfacet
  facet normal -0.951056 -0.30902 0
    outer loop
      vertex 29.0575 7.4607 0
      vertex 27.8933 11.0437 10
      vertex 27.8933 11.0437 0
    endloop
  endfacet
  facet normal -0.951056 -0.30902 0
    outer loop
      vertex 27.8933 11.0437 10
      vertex 29.0575 7.4607 0
      vertex 29.0575 7.4607 10
    endloop
  endfacet
  facet normal -0.98229 -0.187369 0
    outer loop
      vertex 29.7634 3.76 0
      vertex 29.0575 7.4607 10
      vertex 29.0575 7.4607 0
    endloop
  endfacet
  facet normal -0.98229 -0.187369 0
    outer loop
      vertex 29.0575 7.4607 10
      vertex 29.7634 3.76 0
      vertex 29.7634 3.76 10
    endloop
  endfacet
  facet normal -0.770514 -0.637423 0
    outer loop
      vertex 24.2705 17.6336 0
      vertex 21.8691 20.5364 10
      vertex 21.8691 20.5364 0
    endloop
  endfacet
  facet normal -0.770514 -0.637423 0
    outer loop
      vertex 21.8691 20.5364 10
      vertex 24.2705 17.6336 0
      vertex 24.2705 17.6336 10
    endloop
  endfacet
  facet normal -0.125337 -0.992114 0
    outer loop
      vertex 1.88371 29.9408 0
      vertex 5.62144 29.4686 10
      vertex 1.88371 29.9408 10
    endloop
  endfacet
  facet normal -0.125337 -0.992114 -0
    outer loop
      vertex 5.62144 29.4686 10
      vertex 1.88371 29.9408 0
      vertex 5.62144 29.4686 0
    endloop
  endfacet
  facet normal -0.481762 -0.876302 0
    outer loop
      vertex 12.7734 27.1448 0
      vertex 16.0748 25.3298 10
      vertex 12.7734 27.1448 10
    endloop
  endfacet
  facet normal -0.481762 -0.876302 -0
    outer loop
      vertex 16.0748 25.3298 10
      vertex 12.7734 27.1448 0
      vertex 16.0748 25.3298 0
    endloop
  endfacet
  facet normal 0.844331 -0.535822 0
    outer loop
      vertex -26.2892 14.4526 10
      vertex -24.2705 17.6336 0
      vertex -24.2705 17.6336 10
    endloop
  endfacet
  facet normal 0.844331 -0.535822 0
    outer loop
      vertex -24.2705 17.6336 0
      vertex -26.2892 14.4526 10
      vertex -26.2892 14.4526 0
    endloop
  endfacet
  facet normal 0.98229 -0.187369 0
    outer loop
      vertex -29.7634 3.76 10
      vertex -29.0575 7.4607 0
      vertex -29.0575 7.4607 10
    endloop
  endfacet
  facet normal 0.98229 -0.187369 0
    outer loop
      vertex -29.0575 7.4607 0
      vertex -29.7634 3.76 10
      vertex -29.7634 3.76 0
    endloop
  endfacet
  facet normal 0.58778 -0.809021 0
    outer loop
      vertex -19.1227 23.1154 0
      vertex -16.0748 25.3298 10
      vertex -19.1227 23.1154 10
    endloop
  endfacet
  facet normal 0.58778 -0.809021 0
    outer loop
      vertex -16.0748 25.3298 10
      vertex -19.1227 23.1154 0
      vertex -16.0748 25.3298 0
    endloop
  endfacet
  facet normal 0.125337 -0.992114 0
    outer loop
      vertex -5.62144 29.4686 0
      vertex -1.88371 29.9408 10
      vertex -5.62144 29.4686 10
    endloop
  endfacet
  facet normal 0.125337 -0.992114 0
    outer loop
      vertex -1.88371 29.9408 10
      vertex -5.62144 29.4686 0
      vertex -1.88371 29.9408 0
    endloop
  endfacet
  facet normal -0.770514 0.637423 0
    outer loop
      vertex 21.8691 -20.5364 0
      vertex 24.2705 -17.6336 10
      vertex 24.2705 -17.6336 0
    endloop
  endfacet
  facet normal -0.770514 0.637423 0
    outer loop
      vertex 24.2705 -17.6336 10
      vertex 21.8691 -20.5364 0
      vertex 21.8691 -20.5364 10
    endloop
  endfacet
  facet normal -0.951056 0.30902 0
    outer loop
      vertex 27.8933 -11.0437 0
      vertex 29.0575 -7.4607 10
      vertex 29.0575 -7.4607 0
    endloop
  endfacet
  facet normal -0.951056 0.30902 0
    outer loop
      vertex 29.0575 -7.4607 10
      vertex 27.8933 -11.0437 0
      vertex 27.8933 -11.0437 10
    endloop
  endfacet
  facet normal -0.98229 0.187369 0
    outer loop
      vertex 29.0575 -7.4607 0
      vertex 29.7634 -3.76 10
      vertex 29.7634 -3.76 0
    endloop
  endfacet
  facet normal -0.98229 0.187369 0
    outer loop
      vertex 29.7634 -3.76 10
      vertex 29.0575 -7.4607 0
      vertex 29.0575 -7.4607 10
    endloop
  endfacet
  facet normal 0.684541 0.728974 -0
    outer loop
      vertex -19.1227 -23.1154 0
      vertex -21.8691 -20.5364 10
      vertex -19.1227 -23.1154 10
    endloop
  endfacet
  facet normal 0.684541 0.728974 0
    outer loop
      vertex -21.8691 -20.5364 10
      vertex -19.1227 -23.1154 0
      vertex -21.8691 -20.5364 0
    endloop
  endfacet
  facet normal 0.770514 0.637423 0
    outer loop
      vertex -21.8691 -20.5364 10
      vertex -24.2705 -17.6336 0
      vertex -24.2705 -17.6336 10
    endloop
  endfacet
  facet normal 0.770514 0.637423 0
    outer loop
      vertex -24.2705 -17.6336 0
      vertex -21.8691 -20.5364 10
      vertex -21.8691 -20.5364 0
    endloop
  endfacet
  facet normal -0.844331 0.535822 0
    outer loop
      vertex 24.2705 -17.6336 0
      vertex 26.2892 -14.4526 10
      vertex 26.2892 -14.4526 0
    endloop
  endfacet
  facet normal -0.844331 0.535822 0
    outer loop
      vertex 26.2892 -14.4526 10
      vertex 24.2705 -17.6336 0
      vertex 24.2705 -17.6336 10
    endloop
  endfacet
  facet normal -0.998026 0.0628013 0
    outer loop
      vertex 29.7634 -3.76 0
      vertex 30 0 10
      vertex 30 0 0
    endloop
  endfacet
  facet normal -0.998026 0.0628013 0
    outer loop
      vertex 30 0 10
      vertex 29.7634 -3.76 0
      vertex 29.7634 -3.76 10
    endloop
  endfacet
  facet normal 0.248684 0.968585 -0
    outer loop
      vertex -5.62144 -29.4686 0
      vertex -9.27051 -28.5317 10
      vertex -5.62144 -29.4686 10
    endloop
  endfacet
  facet normal 0.248684 0.968585 0
    outer loop
      vertex -9.27051 -28.5317 10
      vertex -5.62144 -29.4686 0
      vertex -9.27051 -28.5317 0
    endloop
  endfacet
  facet normal 0.951056 0.30902 0
    outer loop
      vertex -27.8933 -11.0437 10
      vertex -29.0575 -7.4607 0
      vertex -29.0575 -7.4607 10
    endloop
  endfacet
  facet normal 0.951056 0.30902 0
    outer loop
      vertex -29.0575 -7.4607 0
      vertex -27.8933 -11.0437 10
      vertex -27.8933 -11.0437 0
    endloop
  endfacet
  facet normal -0.248684 0.968585 0
    outer loop
      vertex 9.27051 -28.5317 0
      vertex 5.62144 -29.4686 10
      vertex 9.27051 -28.5317 10
    endloop
  endfacet
  facet normal -0.248684 0.968585 0
    outer loop
      vertex 5.62144 -29.4686 10
      vertex 9.27051 -28.5317 0
      vertex 5.62144 -29.4686 0
    endloop
  endfacet
  facet normal -0.904828 0.425778 0
    outer loop
      vertex 26.2892 -14.4526 0
      vertex 27.8933 -11.0437 10
      vertex 27.8933 -11.0437 0
    endloop
  endfacet
  facet normal -0.904828 0.425778 0
    outer loop
      vertex 27.8933 -11.0437 10
      vertex 26.2892 -14.4526 0
      vertex 26.2892 -14.4526 10
    endloop
  endfacet
  facet normal 0.125337 0.992114 -0
    outer loop
      vertex -1.88371 -29.9408 0
      vertex -5.62144 -29.4686 10
      vertex -1.88371 -29.9408 10
    endloop
  endfacet
  facet normal 0.125337 0.992114 0
    outer loop
      vertex -5.62144 -29.4686 10
      vertex -1.88371 -29.9408 0
      vertex -5.62144 -29.4686 0
    endloop
  endfacet
  facet normal 0.844331 0.535822 0
    outer loop
      vertex -24.2705 -17.6336 10
      vertex -26.2892 -14.4526 0
      vertex -26.2892 -14.4526 10
    endloop
  endfacet
  facet normal 0.844331 0.535822 0
    outer loop
      vertex -26.2892 -14.4526 0
      vertex -24.2705 -17.6336 10
      vertex -24.2705 -17.6336 0
    endloop
  endfacet
  facet normal 0.904828 0.425778 0
    outer loop
      vertex -26.2892 -14.4526 10
      vertex -27.8933 -11.0437 0
      vertex -27.8933 -11.0437 10
    endloop
  endfacet
  facet normal 0.904828 0.425778 0
    outer loop
      vertex -27.8933 -11.0437 0
      vertex -26.2892 -14.4526 10
      vertex -26.2892 -14.4526 0
    endloop
  endfacet
  facet normal 0.98229 0.187369 0
    outer loop
      vertex -29.0575 -7.4607 10
      vertex -29.7634 -3.76 0
      vertex -29.7634 -3.76 10
    endloop
  endfacet
  facet normal 0.98229 0.187369 0
    outer loop
      vertex -29.7634 -3.76 0
      vertex -29.0575 -7.4607 10
      vertex -29.0575 -7.4607 0
    endloop
  endfacet
  facet normal 0.998026 0.0628013 0
    outer loop
      vertex -29.7634 -3.76 10
      vertex -30 0 0
      vertex -30 0 10
    endloop
  endfacet
  facet normal 0.998026 0.0628013 0
    outer loop
      vertex -30 0 0
      vertex -29.7634 -3.76 10
      vertex -29.7634 -3.76 0
    endloop
  endfacet
  facet normal -0.684541 0.728974 0
    outer loop
      vertex 21.8691 -20.5364 0
      vertex 19.1227 -23.1154 10
      vertex 21.8691 -20.5364 10
    endloop
  endfacet
  facet normal -0.684541 0.728974 0
    outer loop
      vertex 19.1227 -23.1154 10
      vertex 21.8691 -20.5364 0
      vertex 19.1227 -23.1154 0
    endloop
  endfacet
  facet normal -0.58778 0.809021 0
    outer loop
      vertex 19.1227 -23.1154 0
      vertex 16.0748 -25.3298 10
      vertex 19.1227 -23.1154 10
    endloop
  endfacet
  facet normal -0.58778 0.809021 0
    outer loop
      vertex 16.0748 -25.3298 10
      vertex 19.1227 -23.1154 0
      vertex 16.0748 -25.3298 0
    endloop
  endfacet
  facet normal -0.481762 0.876302 0
    outer loop
      vertex 16.0748 -25.3298 0
      vertex 12.7734 -27.1448 10
      vertex 16.0748 -25.3298 10
    endloop
  endfacet
  facet normal -0.481762 0.876302 0
    outer loop
      vertex 12.7734 -27.1448 10
      vertex 16.0748 -25.3298 0
      vertex 12.7734 -27.1448 0
    endloop
  endfacet
  facet normal 0.58778 0.809021 -0
    outer loop
      vertex -16.0748 -25.3298 0
      vertex -19.1227 -23.1154 10
      vertex -16.0748 -25.3298 10
    endloop
  endfacet
  facet normal 0.58778 0.809021 0
    outer loop
      vertex -19.1227 -23.1154 10
      vertex -16.0748 -25.3298 0
      vertex -19.1227 -23.1154 0
    endloop
  endfacet
  facet normal 0.368126 0.929776 -0
    outer loop
      vertex -9.27051 -28.5317 0
      vertex -12.7734 -27.1448 10
      vertex -9.27051 -28.5317 10
    endloop
  endfacet
  facet normal 0.368126 0.929776 0
    outer loop
      vertex -12.7734 -27.1448 10
      vertex -9.27051 -28.5317 0
      vertex -12.7734 -27.1448 0
    endloop
  endfacet
  facet normal 0.481762 0.876302 -0
    outer loop
      vertex -12.7734 -27.1448 0
      vertex -16.0748 -25.3298 10
      vertex -12.7734 -27.1448 10
    endloop
  endfacet
  facet normal 0.481762 0.876302 0
    outer loop
      vertex -16.0748 -25.3298 10
      vertex -12.7734 -27.1448 0
      vertex -16.0748 -25.3298 0
    endloop
  endfacet
endsolid OpenSCAD_Model
