  0
SECTION
  2
BLOCKS
  0
ENDSEC
  0
SECTION
  2
ENTITIES
  0
LINE
  8
0
 10
18.4369
 20
1915.59
 11
19.0451
 21
1915.74
  0
LINE
  8
0
 10
19.0451
 20
1915.74
 11
19.6289
 21
1915.98
  0
LINE
  8
0
 10
19.6289
 20
1915.98
 11
20.1791
 21
1916.28
  0
LINE
  8
0
 10
20.1791
 20
1916.28
 11
20.6871
 21
1916.65
  0
LINE
  8
0
 10
20.6871
 20
1916.65
 11
21.1448
 21
1917.08
  0
LINE
  8
0
 10
21.1448
 20
1917.08
 11
21.5451
 21
1917.56
  0
LINE
  8
0
 10
21.5451
 20
1917.56
 11
21.8815
 21
1918.09
  0
LINE
  8
0
 10
21.8815
 20
1918.09
 11
22.1489
 21
1918.66
  0
LINE
  8
0
 10
22.1489
 20
1918.66
 11
22.3429
 21
1919.26
  0
LINE
  8
0
 10
22.3429
 20
1919.26
 11
22.4606
 21
1919.87
  0
LINE
  8
0
 10
22.4606
 20
1919.87
 11
22.5
 21
1920.5
  0
LINE
  8
0
 10
22.5
 20
1920.5
 11
22.5
 21
2195.5
  0
LINE
  8
0
 10
22.5
 20
2195.5
 11
22.4606
 21
2196.13
  0
LINE
  8
0
 10
22.4606
 20
2196.13
 11
22.3429
 21
2196.74
  0
LINE
  8
0
 10
22.3429
 20
2196.74
 11
22.1489
 21
2197.34
  0
LINE
  8
0
 10
22.1489
 20
2197.34
 11
21.8815
 21
2197.91
  0
LINE
  8
0
 10
21.8815
 20
2197.91
 11
21.5451
 21
2198.44
  0
LINE
  8
0
 10
21.5451
 20
2198.44
 11
21.1448
 21
2198.92
  0
LINE
  8
0
 10
21.1448
 20
2198.92
 11
20.6871
 21
2199.35
  0
LINE
  8
0
 10
20.6871
 20
2199.35
 11
20.1791
 21
2199.72
  0
LINE
  8
0
 10
20.1791
 20
2199.72
 11
19.6289
 21
2200.02
  0
LINE
  8
0
 10
19.6289
 20
2200.02
 11
19.0451
 21
2200.26
  0
LINE
  8
0
 10
19.0451
 20
2200.26
 11
18.4369
 21
2200.41
  0
LINE
  8
0
 10
18.4369
 20
2200.41
 11
17.8139
 21
2200.49
  0
LINE
  8
0
 10
17.8139
 20
2200.49
 11
-17.8139
 21
2200.49
  0
LINE
  8
0
 10
-17.8139
 20
2200.49
 11
-18.4369
 21
2200.41
  0
LINE
  8
0
 10
-18.4369
 20
2200.41
 11
-19.0451
 21
2200.26
  0
LINE
  8
0
 10
-19.0451
 20
2200.26
 11
-19.6289
 21
2200.02
  0
LINE
  8
0
 10
-19.6289
 20
2200.02
 11
-20.1791
 21
2199.72
  0
LINE
  8
0
 10
-20.1791
 20
2199.72
 11
-20.6871
 21
2199.35
  0
LINE
  8
0
 10
-20.6871
 20
2199.35
 11
-21.1448
 21
2198.92
  0
LINE
  8
0
 10
-21.1448
 20
2198.92
 11
-21.5451
 21
2198.44
  0
LINE
  8
0
 10
-21.5451
 20
2198.44
 11
-21.8815
 21
2197.91
  0
LINE
  8
0
 10
-21.8815
 20
2197.91
 11
-22.1489
 21
2197.34
  0
LINE
  8
0
 10
-22.1489
 20
2197.34
 11
-22.3429
 21
2196.74
  0
LINE
  8
0
 10
-22.3429
 20
2196.74
 11
-22.4606
 21
2196.13
  0
LINE
  8
0
 10
-22.4606
 20
2196.13
 11
-22.5
 21
2195.5
  0
LINE
  8
0
 10
-22.5
 20
2195.5
 11
-22.5
 21
1920.5
  0
LINE
  8
0
 10
-22.5
 20
1920.5
 11
-22.4606
 21
1919.87
  0
LINE
  8
0
 10
-22.4606
 20
1919.87
 11
-22.3429
 21
1919.26
  0
LINE
  8
0
 10
-22.3429
 20
1919.26
 11
-22.1489
 21
1918.66
  0
LINE
  8
0
 10
-22.1489
 20
1918.66
 11
-21.8815
 21
1918.09
  0
LINE
  8
0
 10
-21.8815
 20
1918.09
 11
-21.5451
 21
1917.56
  0
LINE
  8
0
 10
-21.5451
 20
1917.56
 11
-21.1448
 21
1917.08
  0
LINE
  8
0
 10
-21.1448
 20
1917.08
 11
-20.6871
 21
1916.65
  0
LINE
  8
0
 10
-20.6871
 20
1916.65
 11
-20.1791
 21
1916.28
  0
LINE
  8
0
 10
-20.1791
 20
1916.28
 11
-19.6289
 21
1915.98
  0
LINE
  8
0
 10
-19.6289
 20
1915.98
 11
-19.0451
 21
1915.74
  0
LINE
  8
0
 10
-19.0451
 20
1915.74
 11
-18.4369
 21
1915.59
  0
LINE
  8
0
 10
-18.4369
 20
1915.59
 11
-17.8139
 21
1915.51
  0
LINE
  8
0
 10
-17.8139
 20
1915.51
 11
17.8139
 21
1915.51
  0
LINE
  8
0
 10
17.8139
 20
1915.51
 11
18.4369
 21
1915.59
  0
LINE
  8
0
 10
-17.2512
 20
1917.01
 11
-17.7495
 21
1917.07
  0
LINE
  8
0
 10
-17.7495
 20
1917.07
 11
-18.2361
 21
1917.2
  0
LINE
  8
0
 10
-18.2361
 20
1917.2
 11
-18.7031
 21
1917.38
  0
LINE
  8
0
 10
-18.7031
 20
1917.38
 11
-19.1433
 21
1917.62
  0
LINE
  8
0
 10
-19.1433
 20
1917.62
 11
-19.5497
 21
1917.92
  0
LINE
  8
0
 10
-19.5497
 20
1917.92
 11
-19.9159
 21
1918.26
  0
LINE
  8
0
 10
-19.9159
 20
1918.26
 11
-20.2361
 21
1918.65
  0
LINE
  8
0
 10
-20.2361
 20
1918.65
 11
-20.5052
 21
1919.07
  0
LINE
  8
0
 10
-20.5052
 20
1919.07
 11
-20.7191
 21
1919.53
  0
LINE
  8
0
 10
-20.7191
 20
1919.53
 11
-20.8743
 21
1920.01
  0
LINE
  8
0
 10
-20.8743
 20
1920.01
 11
-20.9684
 21
1920.5
  0
LINE
  8
0
 10
-20.9684
 20
1920.5
 11
-21
 21
1921
  0
LINE
  8
0
 10
-21
 20
1921
 11
-21
 21
2195
  0
LINE
  8
0
 10
-21
 20
2195
 11
-20.9684
 21
2195.5
  0
LINE
  8
0
 10
-20.9684
 20
2195.5
 11
-20.8743
 21
2195.99
  0
LINE
  8
0
 10
-20.8743
 20
2195.99
 11
-20.7191
 21
2196.47
  0
LINE
  8
0
 10
-20.7191
 20
2196.47
 11
-20.5052
 21
2196.93
  0
LINE
  8
0
 10
-20.5052
 20
2196.93
 11
-20.2361
 21
2197.35
  0
LINE
  8
0
 10
-20.2361
 20
2197.35
 11
-19.9159
 21
2197.74
  0
LINE
  8
0
 10
-19.9159
 20
2197.74
 11
-19.5497
 21
2198.08
  0
LINE
  8
0
 10
-19.5497
 20
2198.08
 11
-19.1433
 21
2198.38
  0
LINE
  8
0
 10
-19.1433
 20
2198.38
 11
-18.7031
 21
2198.62
  0
LINE
  8
0
 10
-18.7031
 20
2198.62
 11
-18.2361
 21
2198.8
  0
LINE
  8
0
 10
-18.2361
 20
2198.8
 11
-17.7495
 21
2198.93
  0
LINE
  8
0
 10
-17.7495
 20
2198.93
 11
-17.2512
 21
2198.99
  0
LINE
  8
0
 10
-17.2512
 20
2198.99
 11
17.2512
 21
2198.99
  0
LINE
  8
0
 10
17.2512
 20
2198.99
 11
17.7495
 21
2198.93
  0
LINE
  8
0
 10
17.7495
 20
2198.93
 11
18.2361
 21
2198.8
  0
LINE
  8
0
 10
18.2361
 20
2198.8
 11
18.7031
 21
2198.62
  0
LINE
  8
0
 10
18.7031
 20
2198.62
 11
19.1433
 21
2198.38
  0
LINE
  8
0
 10
19.1433
 20
2198.38
 11
19.5497
 21
2198.08
  0
LINE
  8
0
 10
19.5497
 20
2198.08
 11
19.9159
 21
2197.74
  0
LINE
  8
0
 10
19.9159
 20
2197.74
 11
20.2361
 21
2197.35
  0
LINE
  8
0
 10
20.2361
 20
2197.35
 11
20.5052
 21
2196.93
  0
LINE
  8
0
 10
20.5052
 20
2196.93
 11
20.7191
 21
2196.47
  0
LINE
  8
0
 10
20.7191
 20
2196.47
 11
20.8743
 21
2195.99
  0
LINE
  8
0
 10
20.8743
 20
2195.99
 11
20.9684
 21
2195.5
  0
LINE
  8
0
 10
20.9684
 20
2195.5
 11
21
 21
2195
  0
LINE
  8
0
 10
21
 20
2195
 11
21
 21
1921
  0
LINE
  8
0
 10
21
 20
1921
 11
20.9684
 21
1920.5
  0
LINE
  8
0
 10
20.9684
 20
1920.5
 11
20.8743
 21
1920.01
  0
LINE
  8
0
 10
20.8743
 20
1920.01
 11
20.7191
 21
1919.53
  0
LINE
  8
0
 10
20.7191
 20
1919.53
 11
20.5052
 21
1919.07
  0
LINE
  8
0
 10
20.5052
 20
1919.07
 11
20.2361
 21
1918.65
  0
LINE
  8
0
 10
20.2361
 20
1918.65
 11
19.9159
 21
1918.26
  0
LINE
  8
0
 10
19.9159
 20
1918.26
 11
19.5497
 21
1917.92
  0
LINE
  8
0
 10
19.5497
 20
1917.92
 11
19.1433
 21
1917.62
  0
LINE
  8
0
 10
19.1433
 20
1917.62
 11
18.7031
 21
1917.38
  0
LINE
  8
0
 10
18.7031
 20
1917.38
 11
18.2361
 21
1917.2
  0
LINE
  8
0
 10
18.2361
 20
1917.2
 11
17.7495
 21
1917.07
  0
LINE
  8
0
 10
17.7495
 20
1917.07
 11
17.2512
 21
1917.01
  0
LINE
  8
0
 10
17.2512
 20
1917.01
 11
-17.2512
 21
1917.01
  0
LINE
  8
0
 10
18.4369
 20
1621.59
 11
19.0451
 21
1621.74
  0
LINE
  8
0
 10
19.0451
 20
1621.74
 11
19.6289
 21
1621.98
  0
LINE
  8
0
 10
19.6289
 20
1621.98
 11
20.1791
 21
1622.28
  0
LINE
  8
0
 10
20.1791
 20
1622.28
 11
20.6871
 21
1622.65
  0
LINE
  8
0
 10
20.6871
 20
1622.65
 11
21.1448
 21
1623.08
  0
LINE
  8
0
 10
21.1448
 20
1623.08
 11
21.5451
 21
1623.56
  0
LINE
  8
0
 10
21.5451
 20
1623.56
 11
21.8815
 21
1624.09
  0
LINE
  8
0
 10
21.8815
 20
1624.09
 11
22.1489
 21
1624.66
  0
LINE
  8
0
 10
22.1489
 20
1624.66
 11
22.3429
 21
1625.26
  0
LINE
  8
0
 10
22.3429
 20
1625.26
 11
22.4606
 21
1625.87
  0
LINE
  8
0
 10
22.4606
 20
1625.87
 11
22.5
 21
1626.5
  0
LINE
  8
0
 10
22.5
 20
1626.5
 11
22.5
 21
1901.5
  0
LINE
  8
0
 10
22.5
 20
1901.5
 11
22.4606
 21
1902.13
  0
LINE
  8
0
 10
22.4606
 20
1902.13
 11
22.3429
 21
1902.74
  0
LINE
  8
0
 10
22.3429
 20
1902.74
 11
22.1489
 21
1903.34
  0
LINE
  8
0
 10
22.1489
 20
1903.34
 11
21.8815
 21
1903.91
  0
LINE
  8
0
 10
21.8815
 20
1903.91
 11
21.5451
 21
1904.44
  0
LINE
  8
0
 10
21.5451
 20
1904.44
 11
21.1448
 21
1904.92
  0
LINE
  8
0
 10
21.1448
 20
1904.92
 11
20.6871
 21
1905.35
  0
LINE
  8
0
 10
20.6871
 20
1905.35
 11
20.1791
 21
1905.72
  0
LINE
  8
0
 10
20.1791
 20
1905.72
 11
19.6289
 21
1906.02
  0
LINE
  8
0
 10
19.6289
 20
1906.02
 11
19.0451
 21
1906.26
  0
LINE
  8
0
 10
19.0451
 20
1906.26
 11
18.4369
 21
1906.41
  0
LINE
  8
0
 10
18.4369
 20
1906.41
 11
17.8139
 21
1906.49
  0
LINE
  8
0
 10
17.8139
 20
1906.49
 11
-17.8139
 21
1906.49
  0
LINE
  8
0
 10
-17.8139
 20
1906.49
 11
-18.4369
 21
1906.41
  0
LINE
  8
0
 10
-18.4369
 20
1906.41
 11
-19.0451
 21
1906.26
  0
LINE
  8
0
 10
-19.0451
 20
1906.26
 11
-19.6289
 21
1906.02
  0
LINE
  8
0
 10
-19.6289
 20
1906.02
 11
-20.1791
 21
1905.72
  0
LINE
  8
0
 10
-20.1791
 20
1905.72
 11
-20.6871
 21
1905.35
  0
LINE
  8
0
 10
-20.6871
 20
1905.35
 11
-21.1448
 21
1904.92
  0
LINE
  8
0
 10
-21.1448
 20
1904.92
 11
-21.5451
 21
1904.44
  0
LINE
  8
0
 10
-21.5451
 20
1904.44
 11
-21.8815
 21
1903.91
  0
LINE
  8
0
 10
-21.8815
 20
1903.91
 11
-22.1489
 21
1903.34
  0
LINE
  8
0
 10
-22.1489
 20
1903.34
 11
-22.3429
 21
1902.74
  0
LINE
  8
0
 10
-22.3429
 20
1902.74
 11
-22.4606
 21
1902.13
  0
LINE
  8
0
 10
-22.4606
 20
1902.13
 11
-22.5
 21
1901.5
  0
LINE
  8
0
 10
-22.5
 20
1901.5
 11
-22.5
 21
1626.5
  0
LINE
  8
0
 10
-22.5
 20
1626.5
 11
-22.4606
 21
1625.87
  0
LINE
  8
0
 10
-22.4606
 20
1625.87
 11
-22.3429
 21
1625.26
  0
LINE
  8
0
 10
-22.3429
 20
1625.26
 11
-22.1489
 21
1624.66
  0
LINE
  8
0
 10
-22.1489
 20
1624.66
 11
-21.8815
 21
1624.09
  0
LINE
  8
0
 10
-21.8815
 20
1624.09
 11
-21.5451
 21
1623.56
  0
LINE
  8
0
 10
-21.5451
 20
1623.56
 11
-21.1448
 21
1623.08
  0
LINE
  8
0
 10
-21.1448
 20
1623.08
 11
-20.6871
 21
1622.65
  0
LINE
  8
0
 10
-20.6871
 20
1622.65
 11
-20.1791
 21
1622.28
  0
LINE
  8
0
 10
-20.1791
 20
1622.28
 11
-19.6289
 21
1621.98
  0
LINE
  8
0
 10
-19.6289
 20
1621.98
 11
-19.0451
 21
1621.74
  0
LINE
  8
0
 10
-19.0451
 20
1621.74
 11
-18.4369
 21
1621.59
  0
LINE
  8
0
 10
-18.4369
 20
1621.59
 11
-17.8139
 21
1621.51
  0
LINE
  8
0
 10
-17.8139
 20
1621.51
 11
17.8139
 21
1621.51
  0
LINE
  8
0
 10
17.8139
 20
1621.51
 11
18.4369
 21
1621.59
  0
LINE
  8
0
 10
-17.2512
 20
1623.01
 11
-17.7495
 21
1623.07
  0
LINE
  8
0
 10
-17.7495
 20
1623.07
 11
-18.2361
 21
1623.2
  0
LINE
  8
0
 10
-18.2361
 20
1623.2
 11
-18.7031
 21
1623.38
  0
LINE
  8
0
 10
-18.7031
 20
1623.38
 11
-19.1433
 21
1623.62
  0
LINE
  8
0
 10
-19.1433
 20
1623.62
 11
-19.5497
 21
1623.92
  0
LINE
  8
0
 10
-19.5497
 20
1623.92
 11
-19.9159
 21
1624.26
  0
LINE
  8
0
 10
-19.9159
 20
1624.26
 11
-20.2361
 21
1624.65
  0
LINE
  8
0
 10
-20.2361
 20
1624.65
 11
-20.5052
 21
1625.07
  0
LINE
  8
0
 10
-20.5052
 20
1625.07
 11
-20.7191
 21
1625.53
  0
LINE
  8
0
 10
-20.7191
 20
1625.53
 11
-20.8743
 21
1626.01
  0
LINE
  8
0
 10
-20.8743
 20
1626.01
 11
-20.9684
 21
1626.5
  0
LINE
  8
0
 10
-20.9684
 20
1626.5
 11
-21
 21
1627
  0
LINE
  8
0
 10
-21
 20
1627
 11
-21
 21
1901
  0
LINE
  8
0
 10
-21
 20
1901
 11
-20.9684
 21
1901.5
  0
LINE
  8
0
 10
-20.9684
 20
1901.5
 11
-20.8743
 21
1901.99
  0
LINE
  8
0
 10
-20.8743
 20
1901.99
 11
-20.7191
 21
1902.47
  0
LINE
  8
0
 10
-20.7191
 20
1902.47
 11
-20.5052
 21
1902.93
  0
LINE
  8
0
 10
-20.5052
 20
1902.93
 11
-20.2361
 21
1903.35
  0
LINE
  8
0
 10
-20.2361
 20
1903.35
 11
-19.9159
 21
1903.74
  0
LINE
  8
0
 10
-19.9159
 20
1903.74
 11
-19.5497
 21
1904.08
  0
LINE
  8
0
 10
-19.5497
 20
1904.08
 11
-19.1433
 21
1904.38
  0
LINE
  8
0
 10
-19.1433
 20
1904.38
 11
-18.7031
 21
1904.62
  0
LINE
  8
0
 10
-18.7031
 20
1904.62
 11
-18.2361
 21
1904.8
  0
LINE
  8
0
 10
-18.2361
 20
1904.8
 11
-17.7495
 21
1904.93
  0
LINE
  8
0
 10
-17.7495
 20
1904.93
 11
-17.2512
 21
1904.99
  0
LINE
  8
0
 10
-17.2512
 20
1904.99
 11
17.2512
 21
1904.99
  0
LINE
  8
0
 10
17.2512
 20
1904.99
 11
17.7495
 21
1904.93
  0
LINE
  8
0
 10
17.7495
 20
1904.93
 11
18.2361
 21
1904.8
  0
LINE
  8
0
 10
18.2361
 20
1904.8
 11
18.7031
 21
1904.62
  0
LINE
  8
0
 10
18.7031
 20
1904.62
 11
19.1433
 21
1904.38
  0
LINE
  8
0
 10
19.1433
 20
1904.38
 11
19.5497
 21
1904.08
  0
LINE
  8
0
 10
19.5497
 20
1904.08
 11
19.9159
 21
1903.74
  0
LINE
  8
0
 10
19.9159
 20
1903.74
 11
20.2361
 21
1903.35
  0
LINE
  8
0
 10
20.2361
 20
1903.35
 11
20.5052
 21
1902.93
  0
LINE
  8
0
 10
20.5052
 20
1902.93
 11
20.7191
 21
1902.47
  0
LINE
  8
0
 10
20.7191
 20
1902.47
 11
20.8743
 21
1901.99
  0
LINE
  8
0
 10
20.8743
 20
1901.99
 11
20.9684
 21
1901.5
  0
LINE
  8
0
 10
20.9684
 20
1901.5
 11
21
 21
1901
  0
LINE
  8
0
 10
21
 20
1901
 11
21
 21
1627
  0
LINE
  8
0
 10
21
 20
1627
 11
20.9684
 21
1626.5
  0
LINE
  8
0
 10
20.9684
 20
1626.5
 11
20.8743
 21
1626.01
  0
LINE
  8
0
 10
20.8743
 20
1626.01
 11
20.7191
 21
1625.53
  0
LINE
  8
0
 10
20.7191
 20
1625.53
 11
20.5052
 21
1625.07
  0
LINE
  8
0
 10
20.5052
 20
1625.07
 11
20.2361
 21
1624.65
  0
LINE
  8
0
 10
20.2361
 20
1624.65
 11
19.9159
 21
1624.26
  0
LINE
  8
0
 10
19.9159
 20
1624.26
 11
19.5497
 21
1623.92
  0
LINE
  8
0
 10
19.5497
 20
1623.92
 11
19.1433
 21
1623.62
  0
LINE
  8
0
 10
19.1433
 20
1623.62
 11
18.7031
 21
1623.38
  0
LINE
  8
0
 10
18.7031
 20
1623.38
 11
18.2361
 21
1623.2
  0
LINE
  8
0
 10
18.2361
 20
1623.2
 11
17.7495
 21
1623.07
  0
LINE
  8
0
 10
17.7495
 20
1623.07
 11
17.2512
 21
1623.01
  0
LINE
  8
0
 10
17.2512
 20
1623.01
 11
-17.2512
 21
1623.01
  0
LINE
  8
0
 10
18.4369
 20
1327.59
 11
19.0451
 21
1327.74
  0
LINE
  8
0
 10
19.0451
 20
1327.74
 11
19.6289
 21
1327.98
  0
LINE
  8
0
 10
19.6289
 20
1327.98
 11
20.1791
 21
1328.28
  0
LINE
  8
0
 10
20.1791
 20
1328.28
 11
20.6871
 21
1328.65
  0
LINE
  8
0
 10
20.6871
 20
1328.65
 11
21.1448
 21
1329.08
  0
LINE
  8
0
 10
21.1448
 20
1329.08
 11
21.5451
 21
1329.56
  0
LINE
  8
0
 10
21.5451
 20
1329.56
 11
21.8815
 21
1330.09
  0
LINE
  8
0
 10
21.8815
 20
1330.09
 11
22.1489
 21
1330.66
  0
LINE
  8
0
 10
22.1489
 20
1330.66
 11
22.3429
 21
1331.26
  0
LINE
  8
0
 10
22.3429
 20
1331.26
 11
22.4606
 21
1331.87
  0
LINE
  8
0
 10
22.4606
 20
1331.87
 11
22.5
 21
1332.5
  0
LINE
  8
0
 10
22.5
 20
1332.5
 11
22.5
 21
1607.5
  0
LINE
  8
0
 10
22.5
 20
1607.5
 11
22.4606
 21
1608.13
  0
LINE
  8
0
 10
22.4606
 20
1608.13
 11
22.3429
 21
1608.74
  0
LINE
  8
0
 10
22.3429
 20
1608.74
 11
22.1489
 21
1609.34
  0
LINE
  8
0
 10
22.1489
 20
1609.34
 11
21.8815
 21
1609.91
  0
LINE
  8
0
 10
21.8815
 20
1609.91
 11
21.5451
 21
1610.44
  0
LINE
  8
0
 10
21.5451
 20
1610.44
 11
21.1448
 21
1610.92
  0
LINE
  8
0
 10
21.1448
 20
1610.92
 11
20.6871
 21
1611.35
  0
LINE
  8
0
 10
20.6871
 20
1611.35
 11
20.1791
 21
1611.72
  0
LINE
  8
0
 10
20.1791
 20
1611.72
 11
19.6289
 21
1612.02
  0
LINE
  8
0
 10
19.6289
 20
1612.02
 11
19.0451
 21
1612.26
  0
LINE
  8
0
 10
19.0451
 20
1612.26
 11
18.4369
 21
1612.41
  0
LINE
  8
0
 10
18.4369
 20
1612.41
 11
17.8139
 21
1612.49
  0
LINE
  8
0
 10
17.8139
 20
1612.49
 11
-17.8139
 21
1612.49
  0
LINE
  8
0
 10
-17.8139
 20
1612.49
 11
-18.4369
 21
1612.41
  0
LINE
  8
0
 10
-18.4369
 20
1612.41
 11
-19.0451
 21
1612.26
  0
LINE
  8
0
 10
-19.0451
 20
1612.26
 11
-19.6289
 21
1612.02
  0
LINE
  8
0
 10
-19.6289
 20
1612.02
 11
-20.1791
 21
1611.72
  0
LINE
  8
0
 10
-20.1791
 20
1611.72
 11
-20.6871
 21
1611.35
  0
LINE
  8
0
 10
-20.6871
 20
1611.35
 11
-21.1448
 21
1610.92
  0
LINE
  8
0
 10
-21.1448
 20
1610.92
 11
-21.5451
 21
1610.44
  0
LINE
  8
0
 10
-21.5451
 20
1610.44
 11
-21.8815
 21
1609.91
  0
LINE
  8
0
 10
-21.8815
 20
1609.91
 11
-22.1489
 21
1609.34
  0
LINE
  8
0
 10
-22.1489
 20
1609.34
 11
-22.3429
 21
1608.74
  0
LINE
  8
0
 10
-22.3429
 20
1608.74
 11
-22.4606
 21
1608.13
  0
LINE
  8
0
 10
-22.4606
 20
1608.13
 11
-22.5
 21
1607.5
  0
LINE
  8
0
 10
-22.5
 20
1607.5
 11
-22.5
 21
1332.5
  0
LINE
  8
0
 10
-22.5
 20
1332.5
 11
-22.4606
 21
1331.87
  0
LINE
  8
0
 10
-22.4606
 20
1331.87
 11
-22.3429
 21
1331.26
  0
LINE
  8
0
 10
-22.3429
 20
1331.26
 11
-22.1489
 21
1330.66
  0
LINE
  8
0
 10
-22.1489
 20
1330.66
 11
-21.8815
 21
1330.09
  0
LINE
  8
0
 10
-21.8815
 20
1330.09
 11
-21.5451
 21
1329.56
  0
LINE
  8
0
 10
-21.5451
 20
1329.56
 11
-21.1448
 21
1329.08
  0
LINE
  8
0
 10
-21.1448
 20
1329.08
 11
-20.6871
 21
1328.65
  0
LINE
  8
0
 10
-20.6871
 20
1328.65
 11
-20.1791
 21
1328.28
  0
LINE
  8
0
 10
-20.1791
 20
1328.28
 11
-19.6289
 21
1327.98
  0
LINE
  8
0
 10
-19.6289
 20
1327.98
 11
-19.0451
 21
1327.74
  0
LINE
  8
0
 10
-19.0451
 20
1327.74
 11
-18.4369
 21
1327.59
  0
LINE
  8
0
 10
-18.4369
 20
1327.59
 11
-17.8139
 21
1327.51
  0
LINE
  8
0
 10
-17.8139
 20
1327.51
 11
17.8139
 21
1327.51
  0
LINE
  8
0
 10
17.8139
 20
1327.51
 11
18.4369
 21
1327.59
  0
LINE
  8
0
 10
-17.1954
 20
1329.89
 11
-17.5833
 21
1329.94
  0
LINE
  8
0
 10
-17.5833
 20
1329.94
 11
-17.9619
 21
1330.04
  0
LINE
  8
0
 10
-17.9619
 20
1330.04
 11
-18.3254
 21
1330.18
  0
LINE
  8
0
 10
-18.3254
 20
1330.18
 11
-18.668
 21
1330.37
  0
LINE
  8
0
 10
-18.668
 20
1330.37
 11
-18.9842
 21
1330.6
  0
LINE
  8
0
 10
-18.9842
 20
1330.6
 11
-19.2692
 21
1330.87
  0
LINE
  8
0
 10
-19.2692
 20
1330.87
 11
-19.5184
 21
1331.17
  0
LINE
  8
0
 10
-19.5184
 20
1331.17
 11
-19.7279
 21
1331.5
  0
LINE
  8
0
 10
-19.7279
 20
1331.5
 11
-19.8943
 21
1331.85
  0
LINE
  8
0
 10
-19.8943
 20
1331.85
 11
-20.0151
 21
1332.23
  0
LINE
  8
0
 10
-20.0151
 20
1332.23
 11
-20.0884
 21
1332.61
  0
LINE
  8
0
 10
-20.0884
 20
1332.61
 11
-20.1129
 21
1333
  0
LINE
  8
0
 10
-20.1129
 20
1333
 11
-20.1129
 21
1607
  0
LINE
  8
0
 10
-20.1129
 20
1607
 11
-20.0884
 21
1607.39
  0
LINE
  8
0
 10
-20.0884
 20
1607.39
 11
-20.0151
 21
1607.77
  0
LINE
  8
0
 10
-20.0151
 20
1607.77
 11
-19.8943
 21
1608.15
  0
LINE
  8
0
 10
-19.8943
 20
1608.15
 11
-19.7279
 21
1608.5
  0
LINE
  8
0
 10
-19.7279
 20
1608.5
 11
-19.5184
 21
1608.83
  0
LINE
  8
0
 10
-19.5184
 20
1608.83
 11
-19.2692
 21
1609.13
  0
LINE
  8
0
 10
-19.2692
 20
1609.13
 11
-18.9842
 21
1609.4
  0
LINE
  8
0
 10
-18.9842
 20
1609.4
 11
-18.668
 21
1609.63
  0
LINE
  8
0
 10
-18.668
 20
1609.63
 11
-18.3254
 21
1609.82
  0
LINE
  8
0
 10
-18.3254
 20
1609.82
 11
-17.9619
 21
1609.96
  0
LINE
  8
0
 10
-17.9619
 20
1609.96
 11
-17.5833
 21
1610.06
  0
LINE
  8
0
 10
-17.5833
 20
1610.06
 11
-17.1954
 21
1610.11
  0
LINE
  8
0
 10
-17.1954
 20
1610.11
 11
17.1954
 21
1610.11
  0
LINE
  8
0
 10
17.1954
 20
1610.11
 11
17.5833
 21
1610.06
  0
LINE
  8
0
 10
17.5833
 20
1610.06
 11
17.9619
 21
1609.96
  0
LINE
  8
0
 10
17.9619
 20
1609.96
 11
18.3254
 21
1609.82
  0
LINE
  8
0
 10
18.3254
 20
1609.82
 11
18.668
 21
1609.63
  0
LINE
  8
0
 10
18.668
 20
1609.63
 11
18.9842
 21
1609.4
  0
LINE
  8
0
 10
18.9842
 20
1609.4
 11
19.2692
 21
1609.13
  0
LINE
  8
0
 10
19.2692
 20
1609.13
 11
19.5184
 21
1608.83
  0
LINE
  8
0
 10
19.5184
 20
1608.83
 11
19.7279
 21
1608.5
  0
LINE
  8
0
 10
19.7279
 20
1608.5
 11
19.8943
 21
1608.15
  0
LINE
  8
0
 10
19.8943
 20
1608.15
 11
20.0151
 21
1607.77
  0
LINE
  8
0
 10
20.0151
 20
1607.77
 11
20.0884
 21
1607.39
  0
LINE
  8
0
 10
20.0884
 20
1607.39
 11
20.1129
 21
1607
  0
LINE
  8
0
 10
20.1129
 20
1607
 11
20.1129
 21
1333
  0
LINE
  8
0
 10
20.1129
 20
1333
 11
20.0884
 21
1332.61
  0
LINE
  8
0
 10
20.0884
 20
1332.61
 11
20.0151
 21
1332.23
  0
LINE
  8
0
 10
20.0151
 20
1332.23
 11
19.8943
 21
1331.85
  0
LINE
  8
0
 10
19.8943
 20
1331.85
 11
19.7279
 21
1331.5
  0
LINE
  8
0
 10
19.7279
 20
1331.5
 11
19.5184
 21
1331.17
  0
LINE
  8
0
 10
19.5184
 20
1331.17
 11
19.2692
 21
1330.87
  0
LINE
  8
0
 10
19.2692
 20
1330.87
 11
18.9842
 21
1330.6
  0
LINE
  8
0
 10
18.9842
 20
1330.6
 11
18.668
 21
1330.37
  0
LINE
  8
0
 10
18.668
 20
1330.37
 11
18.3254
 21
1330.18
  0
LINE
  8
0
 10
18.3254
 20
1330.18
 11
17.9619
 21
1330.04
  0
LINE
  8
0
 10
17.9619
 20
1330.04
 11
17.5833
 21
1329.94
  0
LINE
  8
0
 10
17.5833
 20
1329.94
 11
17.1954
 21
1329.89
  0
LINE
  8
0
 10
17.1954
 20
1329.89
 11
-17.1954
 21
1329.89
  0
LINE
  8
0
 10
18.4369
 20
1033.59
 11
19.0451
 21
1033.74
  0
LINE
  8
0
 10
19.0451
 20
1033.74
 11
19.6289
 21
1033.98
  0
LINE
  8
0
 10
19.6289
 20
1033.98
 11
20.1791
 21
1034.28
  0
LINE
  8
0
 10
20.1791
 20
1034.28
 11
20.6871
 21
1034.65
  0
LINE
  8
0
 10
20.6871
 20
1034.65
 11
21.1448
 21
1035.08
  0
LINE
  8
0
 10
21.1448
 20
1035.08
 11
21.5451
 21
1035.56
  0
LINE
  8
0
 10
21.5451
 20
1035.56
 11
21.8815
 21
1036.09
  0
LINE
  8
0
 10
21.8815
 20
1036.09
 11
22.1489
 21
1036.66
  0
LINE
  8
0
 10
22.1489
 20
1036.66
 11
22.3429
 21
1037.26
  0
LINE
  8
0
 10
22.3429
 20
1037.26
 11
22.4606
 21
1037.87
  0
LINE
  8
0
 10
22.4606
 20
1037.87
 11
22.5
 21
1038.5
  0
LINE
  8
0
 10
22.5
 20
1038.5
 11
22.5
 21
1313.5
  0
LINE
  8
0
 10
22.5
 20
1313.5
 11
22.4606
 21
1314.13
  0
LINE
  8
0
 10
22.4606
 20
1314.13
 11
22.3429
 21
1314.74
  0
LINE
  8
0
 10
22.3429
 20
1314.74
 11
22.1489
 21
1315.34
  0
LINE
  8
0
 10
22.1489
 20
1315.34
 11
21.8815
 21
1315.91
  0
LINE
  8
0
 10
21.8815
 20
1315.91
 11
21.5451
 21
1316.44
  0
LINE
  8
0
 10
21.5451
 20
1316.44
 11
21.1448
 21
1316.92
  0
LINE
  8
0
 10
21.1448
 20
1316.92
 11
20.6871
 21
1317.35
  0
LINE
  8
0
 10
20.6871
 20
1317.35
 11
20.1791
 21
1317.72
  0
LINE
  8
0
 10
20.1791
 20
1317.72
 11
19.6289
 21
1318.02
  0
LINE
  8
0
 10
19.6289
 20
1318.02
 11
19.0451
 21
1318.26
  0
LINE
  8
0
 10
19.0451
 20
1318.26
 11
18.4369
 21
1318.41
  0
LINE
  8
0
 10
18.4369
 20
1318.41
 11
17.8139
 21
1318.49
  0
LINE
  8
0
 10
17.8139
 20
1318.49
 11
-17.8139
 21
1318.49
  0
LINE
  8
0
 10
-17.8139
 20
1318.49
 11
-18.4369
 21
1318.41
  0
LINE
  8
0
 10
-18.4369
 20
1318.41
 11
-19.0451
 21
1318.26
  0
LINE
  8
0
 10
-19.0451
 20
1318.26
 11
-19.6289
 21
1318.02
  0
LINE
  8
0
 10
-19.6289
 20
1318.02
 11
-20.1791
 21
1317.72
  0
LINE
  8
0
 10
-20.1791
 20
1317.72
 11
-20.6871
 21
1317.35
  0
LINE
  8
0
 10
-20.6871
 20
1317.35
 11
-21.1448
 21
1316.92
  0
LINE
  8
0
 10
-21.1448
 20
1316.92
 11
-21.5451
 21
1316.44
  0
LINE
  8
0
 10
-21.5451
 20
1316.44
 11
-21.8815
 21
1315.91
  0
LINE
  8
0
 10
-21.8815
 20
1315.91
 11
-22.1489
 21
1315.34
  0
LINE
  8
0
 10
-22.1489
 20
1315.34
 11
-22.3429
 21
1314.74
  0
LINE
  8
0
 10
-22.3429
 20
1314.74
 11
-22.4606
 21
1314.13
  0
LINE
  8
0
 10
-22.4606
 20
1314.13
 11
-22.5
 21
1313.5
  0
LINE
  8
0
 10
-22.5
 20
1313.5
 11
-22.5
 21
1038.5
  0
LINE
  8
0
 10
-22.5
 20
1038.5
 11
-22.4606
 21
1037.87
  0
LINE
  8
0
 10
-22.4606
 20
1037.87
 11
-22.3429
 21
1037.26
  0
LINE
  8
0
 10
-22.3429
 20
1037.26
 11
-22.1489
 21
1036.66
  0
LINE
  8
0
 10
-22.1489
 20
1036.66
 11
-21.8815
 21
1036.09
  0
LINE
  8
0
 10
-21.8815
 20
1036.09
 11
-21.5451
 21
1035.56
  0
LINE
  8
0
 10
-21.5451
 20
1035.56
 11
-21.1448
 21
1035.08
  0
LINE
  8
0
 10
-21.1448
 20
1035.08
 11
-20.6871
 21
1034.65
  0
LINE
  8
0
 10
-20.6871
 20
1034.65
 11
-20.1791
 21
1034.28
  0
LINE
  8
0
 10
-20.1791
 20
1034.28
 11
-19.6289
 21
1033.98
  0
LINE
  8
0
 10
-19.6289
 20
1033.98
 11
-19.0451
 21
1033.74
  0
LINE
  8
0
 10
-19.0451
 20
1033.74
 11
-18.4369
 21
1033.59
  0
LINE
  8
0
 10
-18.4369
 20
1033.59
 11
-17.8139
 21
1033.51
  0
LINE
  8
0
 10
-17.8139
 20
1033.51
 11
17.8139
 21
1033.51
  0
LINE
  8
0
 10
17.8139
 20
1033.51
 11
18.4369
 21
1033.59
  0
LINE
  8
0
 10
14.8659
 20
1308.87
 11
14.5999
 21
1308.9
  0
LINE
  8
0
 10
14.5999
 20
1308.9
 11
14.3401
 21
1308.97
  0
LINE
  8
0
 10
14.3401
 20
1308.97
 11
14.0908
 21
1309.07
  0
LINE
  8
0
 10
14.0908
 20
1309.07
 11
13.8559
 21
1309.2
  0
LINE
  8
0
 10
13.8559
 20
1309.2
 11
13.6389
 21
1309.35
  0
LINE
  8
0
 10
13.6389
 20
1309.35
 11
13.4434
 21
1309.54
  0
LINE
  8
0
 10
13.4434
 20
1309.54
 11
13.2725
 21
1309.74
  0
LINE
  8
0
 10
13.2725
 20
1309.74
 11
13.1288
 21
1309.97
  0
LINE
  8
0
 10
13.1288
 20
1309.97
 11
13.0146
 21
1310.21
  0
LINE
  8
0
 10
13.0146
 20
1310.21
 11
12.9318
 21
1310.47
  0
LINE
  8
0
 10
12.9318
 20
1310.47
 11
12.8815
 21
1310.73
  0
LINE
  8
0
 10
12.8815
 20
1310.73
 11
12.8647
 21
1311
  0
LINE
  8
0
 10
12.8647
 20
1311
 11
12.8815
 21
1311.27
  0
LINE
  8
0
 10
12.8815
 20
1311.27
 11
12.9318
 21
1311.53
  0
LINE
  8
0
 10
12.9318
 20
1311.53
 11
13.0146
 21
1311.79
  0
LINE
  8
0
 10
13.0146
 20
1311.79
 11
13.1288
 21
1312.03
  0
LINE
  8
0
 10
13.1288
 20
1312.03
 11
13.2725
 21
1312.26
  0
LINE
  8
0
 10
13.2725
 20
1312.26
 11
13.4434
 21
1312.46
  0
LINE
  8
0
 10
13.4434
 20
1312.46
 11
13.6389
 21
1312.65
  0
LINE
  8
0
 10
13.6389
 20
1312.65
 11
13.8559
 21
1312.8
  0
LINE
  8
0
 10
13.8559
 20
1312.8
 11
14.0908
 21
1312.93
  0
LINE
  8
0
 10
14.0908
 20
1312.93
 11
14.3401
 21
1313.03
  0
LINE
  8
0
 10
14.3401
 20
1313.03
 11
14.5999
 21
1313.1
  0
LINE
  8
0
 10
14.5999
 20
1313.1
 11
14.8659
 21
1313.13
  0
LINE
  8
0
 10
14.8659
 20
1313.13
 11
15.1341
 21
1313.13
  0
LINE
  8
0
 10
15.1341
 20
1313.13
 11
15.4001
 21
1313.1
  0
LINE
  8
0
 10
15.4001
 20
1313.1
 11
15.6598
 21
1313.03
  0
LINE
  8
0
 10
15.6598
 20
1313.03
 11
15.9091
 21
1312.93
  0
LINE
  8
0
 10
15.9091
 20
1312.93
 11
16.1441
 21
1312.8
  0
LINE
  8
0
 10
16.1441
 20
1312.8
 11
16.3611
 21
1312.65
  0
LINE
  8
0
 10
16.3611
 20
1312.65
 11
16.5565
 21
1312.46
  0
LINE
  8
0
 10
16.5565
 20
1312.46
 11
16.7275
 21
1312.26
  0
LINE
  8
0
 10
16.7275
 20
1312.26
 11
16.8712
 21
1312.03
  0
LINE
  8
0
 10
16.8712
 20
1312.03
 11
16.9853
 21
1311.79
  0
LINE
  8
0
 10
16.9853
 20
1311.79
 11
17.0682
 21
1311.53
  0
LINE
  8
0
 10
17.0682
 20
1311.53
 11
17.1185
 21
1311.27
  0
LINE
  8
0
 10
17.1185
 20
1311.27
 11
17.1353
 21
1311
  0
LINE
  8
0
 10
17.1353
 20
1311
 11
17.1185
 21
1310.73
  0
LINE
  8
0
 10
17.1185
 20
1310.73
 11
17.0682
 21
1310.47
  0
LINE
  8
0
 10
17.0682
 20
1310.47
 11
16.9853
 21
1310.21
  0
LINE
  8
0
 10
16.9853
 20
1310.21
 11
16.8712
 21
1309.97
  0
LINE
  8
0
 10
16.8712
 20
1309.97
 11
16.7275
 21
1309.74
  0
LINE
  8
0
 10
16.7275
 20
1309.74
 11
16.5565
 21
1309.54
  0
LINE
  8
0
 10
16.5565
 20
1309.54
 11
16.3611
 21
1309.35
  0
LINE
  8
0
 10
16.3611
 20
1309.35
 11
16.1441
 21
1309.2
  0
LINE
  8
0
 10
16.1441
 20
1309.2
 11
15.9091
 21
1309.07
  0
LINE
  8
0
 10
15.9091
 20
1309.07
 11
15.6598
 21
1308.97
  0
LINE
  8
0
 10
15.6598
 20
1308.97
 11
15.4001
 21
1308.9
  0
LINE
  8
0
 10
15.4001
 20
1308.9
 11
15.1341
 21
1308.87
  0
LINE
  8
0
 10
15.1341
 20
1308.87
 11
14.8659
 21
1308.87
  0
LINE
  8
0
 10
-15.1341
 20
1308.87
 11
-15.4001
 21
1308.9
  0
LINE
  8
0
 10
-15.4001
 20
1308.9
 11
-15.6598
 21
1308.97
  0
LINE
  8
0
 10
-15.6598
 20
1308.97
 11
-15.9091
 21
1309.07
  0
LINE
  8
0
 10
-15.9091
 20
1309.07
 11
-16.1441
 21
1309.2
  0
LINE
  8
0
 10
-16.1441
 20
1309.2
 11
-16.3611
 21
1309.35
  0
LINE
  8
0
 10
-16.3611
 20
1309.35
 11
-16.5565
 21
1309.54
  0
LINE
  8
0
 10
-16.5565
 20
1309.54
 11
-16.7275
 21
1309.74
  0
LINE
  8
0
 10
-16.7275
 20
1309.74
 11
-16.8712
 21
1309.97
  0
LINE
  8
0
 10
-16.8712
 20
1309.97
 11
-16.9853
 21
1310.21
  0
LINE
  8
0
 10
-16.9853
 20
1310.21
 11
-17.0682
 21
1310.47
  0
LINE
  8
0
 10
-17.0682
 20
1310.47
 11
-17.1185
 21
1310.73
  0
LINE
  8
0
 10
-17.1185
 20
1310.73
 11
-17.1353
 21
1311
  0
LINE
  8
0
 10
-17.1353
 20
1311
 11
-17.1185
 21
1311.27
  0
LINE
  8
0
 10
-17.1185
 20
1311.27
 11
-17.0682
 21
1311.53
  0
LINE
  8
0
 10
-17.0682
 20
1311.53
 11
-16.9853
 21
1311.79
  0
LINE
  8
0
 10
-16.9853
 20
1311.79
 11
-16.8712
 21
1312.03
  0
LINE
  8
0
 10
-16.8712
 20
1312.03
 11
-16.7275
 21
1312.26
  0
LINE
  8
0
 10
-16.7275
 20
1312.26
 11
-16.5565
 21
1312.46
  0
LINE
  8
0
 10
-16.5565
 20
1312.46
 11
-16.3611
 21
1312.65
  0
LINE
  8
0
 10
-16.3611
 20
1312.65
 11
-16.1441
 21
1312.8
  0
LINE
  8
0
 10
-16.1441
 20
1312.8
 11
-15.9091
 21
1312.93
  0
LINE
  8
0
 10
-15.9091
 20
1312.93
 11
-15.6598
 21
1313.03
  0
LINE
  8
0
 10
-15.6598
 20
1313.03
 11
-15.4001
 21
1313.1
  0
LINE
  8
0
 10
-15.4001
 20
1313.1
 11
-15.1341
 21
1313.13
  0
LINE
  8
0
 10
-15.1341
 20
1313.13
 11
-14.8659
 21
1313.13
  0
LINE
  8
0
 10
-14.8659
 20
1313.13
 11
-14.5999
 21
1313.1
  0
LINE
  8
0
 10
-14.5999
 20
1313.1
 11
-14.3401
 21
1313.03
  0
LINE
  8
0
 10
-14.3401
 20
1313.03
 11
-14.0908
 21
1312.93
  0
LINE
  8
0
 10
-14.0908
 20
1312.93
 11
-13.8559
 21
1312.8
  0
LINE
  8
0
 10
-13.8559
 20
1312.8
 11
-13.6389
 21
1312.65
  0
LINE
  8
0
 10
-13.6389
 20
1312.65
 11
-13.4434
 21
1312.46
  0
LINE
  8
0
 10
-13.4434
 20
1312.46
 11
-13.2725
 21
1312.26
  0
LINE
  8
0
 10
-13.2725
 20
1312.26
 11
-13.1288
 21
1312.03
  0
LINE
  8
0
 10
-13.1288
 20
1312.03
 11
-13.0146
 21
1311.79
  0
LINE
  8
0
 10
-13.0146
 20
1311.79
 11
-12.9318
 21
1311.53
  0
LINE
  8
0
 10
-12.9318
 20
1311.53
 11
-12.8815
 21
1311.27
  0
LINE
  8
0
 10
-12.8815
 20
1311.27
 11
-12.8647
 21
1311
  0
LINE
  8
0
 10
-12.8647
 20
1311
 11
-12.8815
 21
1310.73
  0
LINE
  8
0
 10
-12.8815
 20
1310.73
 11
-12.9318
 21
1310.47
  0
LINE
  8
0
 10
-12.9318
 20
1310.47
 11
-13.0146
 21
1310.21
  0
LINE
  8
0
 10
-13.0146
 20
1310.21
 11
-13.1288
 21
1309.97
  0
LINE
  8
0
 10
-13.1288
 20
1309.97
 11
-13.2725
 21
1309.74
  0
LINE
  8
0
 10
-13.2725
 20
1309.74
 11
-13.4434
 21
1309.54
  0
LINE
  8
0
 10
-13.4434
 20
1309.54
 11
-13.6389
 21
1309.35
  0
LINE
  8
0
 10
-13.6389
 20
1309.35
 11
-13.8559
 21
1309.2
  0
LINE
  8
0
 10
-13.8559
 20
1309.2
 11
-14.0908
 21
1309.07
  0
LINE
  8
0
 10
-14.0908
 20
1309.07
 11
-14.3401
 21
1308.97
  0
LINE
  8
0
 10
-14.3401
 20
1308.97
 11
-14.5999
 21
1308.9
  0
LINE
  8
0
 10
-14.5999
 20
1308.9
 11
-14.8659
 21
1308.87
  0
LINE
  8
0
 10
-14.8659
 20
1308.87
 11
-15.1341
 21
1308.87
  0
LINE
  8
0
 10
14.8659
 20
1038.87
 11
14.5999
 21
1038.9
  0
LINE
  8
0
 10
14.5999
 20
1038.9
 11
14.3401
 21
1038.97
  0
LINE
  8
0
 10
14.3401
 20
1038.97
 11
14.0908
 21
1039.07
  0
LINE
  8
0
 10
14.0908
 20
1039.07
 11
13.8559
 21
1039.2
  0
LINE
  8
0
 10
13.8559
 20
1039.2
 11
13.6389
 21
1039.35
  0
LINE
  8
0
 10
13.6389
 20
1039.35
 11
13.4434
 21
1039.54
  0
LINE
  8
0
 10
13.4434
 20
1039.54
 11
13.2725
 21
1039.74
  0
LINE
  8
0
 10
13.2725
 20
1039.74
 11
13.1288
 21
1039.97
  0
LINE
  8
0
 10
13.1288
 20
1039.97
 11
13.0146
 21
1040.21
  0
LINE
  8
0
 10
13.0146
 20
1040.21
 11
12.9318
 21
1040.47
  0
LINE
  8
0
 10
12.9318
 20
1040.47
 11
12.8815
 21
1040.73
  0
LINE
  8
0
 10
12.8815
 20
1040.73
 11
12.8647
 21
1041
  0
LINE
  8
0
 10
12.8647
 20
1041
 11
12.8815
 21
1041.27
  0
LINE
  8
0
 10
12.8815
 20
1041.27
 11
12.9318
 21
1041.53
  0
LINE
  8
0
 10
12.9318
 20
1041.53
 11
13.0146
 21
1041.79
  0
LINE
  8
0
 10
13.0146
 20
1041.79
 11
13.1288
 21
1042.03
  0
LINE
  8
0
 10
13.1288
 20
1042.03
 11
13.2725
 21
1042.26
  0
LINE
  8
0
 10
13.2725
 20
1042.26
 11
13.4434
 21
1042.46
  0
LINE
  8
0
 10
13.4434
 20
1042.46
 11
13.6389
 21
1042.65
  0
LINE
  8
0
 10
13.6389
 20
1042.65
 11
13.8559
 21
1042.8
  0
LINE
  8
0
 10
13.8559
 20
1042.8
 11
14.0908
 21
1042.93
  0
LINE
  8
0
 10
14.0908
 20
1042.93
 11
14.3401
 21
1043.03
  0
LINE
  8
0
 10
14.3401
 20
1043.03
 11
14.5999
 21
1043.1
  0
LINE
  8
0
 10
14.5999
 20
1043.1
 11
14.8659
 21
1043.13
  0
LINE
  8
0
 10
14.8659
 20
1043.13
 11
15.1341
 21
1043.13
  0
LINE
  8
0
 10
15.1341
 20
1043.13
 11
15.4001
 21
1043.1
  0
LINE
  8
0
 10
15.4001
 20
1043.1
 11
15.6598
 21
1043.03
  0
LINE
  8
0
 10
15.6598
 20
1043.03
 11
15.9091
 21
1042.93
  0
LINE
  8
0
 10
15.9091
 20
1042.93
 11
16.1441
 21
1042.8
  0
LINE
  8
0
 10
16.1441
 20
1042.8
 11
16.3611
 21
1042.65
  0
LINE
  8
0
 10
16.3611
 20
1042.65
 11
16.5565
 21
1042.46
  0
LINE
  8
0
 10
16.5565
 20
1042.46
 11
16.7275
 21
1042.26
  0
LINE
  8
0
 10
16.7275
 20
1042.26
 11
16.8712
 21
1042.03
  0
LINE
  8
0
 10
16.8712
 20
1042.03
 11
16.9853
 21
1041.79
  0
LINE
  8
0
 10
16.9853
 20
1041.79
 11
17.0682
 21
1041.53
  0
LINE
  8
0
 10
17.0682
 20
1041.53
 11
17.1185
 21
1041.27
  0
LINE
  8
0
 10
17.1185
 20
1041.27
 11
17.1353
 21
1041
  0
LINE
  8
0
 10
17.1353
 20
1041
 11
17.1185
 21
1040.73
  0
LINE
  8
0
 10
17.1185
 20
1040.73
 11
17.0682
 21
1040.47
  0
LINE
  8
0
 10
17.0682
 20
1040.47
 11
16.9853
 21
1040.21
  0
LINE
  8
0
 10
16.9853
 20
1040.21
 11
16.8712
 21
1039.97
  0
LINE
  8
0
 10
16.8712
 20
1039.97
 11
16.7275
 21
1039.74
  0
LINE
  8
0
 10
16.7275
 20
1039.74
 11
16.5565
 21
1039.54
  0
LINE
  8
0
 10
16.5565
 20
1039.54
 11
16.3611
 21
1039.35
  0
LINE
  8
0
 10
16.3611
 20
1039.35
 11
16.1441
 21
1039.2
  0
LINE
  8
0
 10
16.1441
 20
1039.2
 11
15.9091
 21
1039.07
  0
LINE
  8
0
 10
15.9091
 20
1039.07
 11
15.6598
 21
1038.97
  0
LINE
  8
0
 10
15.6598
 20
1038.97
 11
15.4001
 21
1038.9
  0
LINE
  8
0
 10
15.4001
 20
1038.9
 11
15.1341
 21
1038.87
  0
LINE
  8
0
 10
15.1341
 20
1038.87
 11
14.8659
 21
1038.87
  0
LINE
  8
0
 10
-15.1341
 20
1038.87
 11
-15.4001
 21
1038.9
  0
LINE
  8
0
 10
-15.4001
 20
1038.9
 11
-15.6598
 21
1038.97
  0
LINE
  8
0
 10
-15.6598
 20
1038.97
 11
-15.9091
 21
1039.07
  0
LINE
  8
0
 10
-15.9091
 20
1039.07
 11
-16.1441
 21
1039.2
  0
LINE
  8
0
 10
-16.1441
 20
1039.2
 11
-16.3611
 21
1039.35
  0
LINE
  8
0
 10
-16.3611
 20
1039.35
 11
-16.5565
 21
1039.54
  0
LINE
  8
0
 10
-16.5565
 20
1039.54
 11
-16.7275
 21
1039.74
  0
LINE
  8
0
 10
-16.7275
 20
1039.74
 11
-16.8712
 21
1039.97
  0
LINE
  8
0
 10
-16.8712
 20
1039.97
 11
-16.9853
 21
1040.21
  0
LINE
  8
0
 10
-16.9853
 20
1040.21
 11
-17.0682
 21
1040.47
  0
LINE
  8
0
 10
-17.0682
 20
1040.47
 11
-17.1185
 21
1040.73
  0
LINE
  8
0
 10
-17.1185
 20
1040.73
 11
-17.1353
 21
1041
  0
LINE
  8
0
 10
-17.1353
 20
1041
 11
-17.1185
 21
1041.27
  0
LINE
  8
0
 10
-17.1185
 20
1041.27
 11
-17.0682
 21
1041.53
  0
LINE
  8
0
 10
-17.0682
 20
1041.53
 11
-16.9853
 21
1041.79
  0
LINE
  8
0
 10
-16.9853
 20
1041.79
 11
-16.8712
 21
1042.03
  0
LINE
  8
0
 10
-16.8712
 20
1042.03
 11
-16.7275
 21
1042.26
  0
LINE
  8
0
 10
-16.7275
 20
1042.26
 11
-16.5565
 21
1042.46
  0
LINE
  8
0
 10
-16.5565
 20
1042.46
 11
-16.3611
 21
1042.65
  0
LINE
  8
0
 10
-16.3611
 20
1042.65
 11
-16.1441
 21
1042.8
  0
LINE
  8
0
 10
-16.1441
 20
1042.8
 11
-15.9091
 21
1042.93
  0
LINE
  8
0
 10
-15.9091
 20
1042.93
 11
-15.6598
 21
1043.03
  0
LINE
  8
0
 10
-15.6598
 20
1043.03
 11
-15.4001
 21
1043.1
  0
LINE
  8
0
 10
-15.4001
 20
1043.1
 11
-15.1341
 21
1043.13
  0
LINE
  8
0
 10
-15.1341
 20
1043.13
 11
-14.8659
 21
1043.13
  0
LINE
  8
0
 10
-14.8659
 20
1043.13
 11
-14.5999
 21
1043.1
  0
LINE
  8
0
 10
-14.5999
 20
1043.1
 11
-14.3401
 21
1043.03
  0
LINE
  8
0
 10
-14.3401
 20
1043.03
 11
-14.0908
 21
1042.93
  0
LINE
  8
0
 10
-14.0908
 20
1042.93
 11
-13.8559
 21
1042.8
  0
LINE
  8
0
 10
-13.8559
 20
1042.8
 11
-13.6389
 21
1042.65
  0
LINE
  8
0
 10
-13.6389
 20
1042.65
 11
-13.4434
 21
1042.46
  0
LINE
  8
0
 10
-13.4434
 20
1042.46
 11
-13.2725
 21
1042.26
  0
LINE
  8
0
 10
-13.2725
 20
1042.26
 11
-13.1288
 21
1042.03
  0
LINE
  8
0
 10
-13.1288
 20
1042.03
 11
-13.0146
 21
1041.79
  0
LINE
  8
0
 10
-13.0146
 20
1041.79
 11
-12.9318
 21
1041.53
  0
LINE
  8
0
 10
-12.9318
 20
1041.53
 11
-12.8815
 21
1041.27
  0
LINE
  8
0
 10
-12.8815
 20
1041.27
 11
-12.8647
 21
1041
  0
LINE
  8
0
 10
-12.8647
 20
1041
 11
-12.8815
 21
1040.73
  0
LINE
  8
0
 10
-12.8815
 20
1040.73
 11
-12.9318
 21
1040.47
  0
LINE
  8
0
 10
-12.9318
 20
1040.47
 11
-13.0146
 21
1040.21
  0
LINE
  8
0
 10
-13.0146
 20
1040.21
 11
-13.1288
 21
1039.97
  0
LINE
  8
0
 10
-13.1288
 20
1039.97
 11
-13.2725
 21
1039.74
  0
LINE
  8
0
 10
-13.2725
 20
1039.74
 11
-13.4434
 21
1039.54
  0
LINE
  8
0
 10
-13.4434
 20
1039.54
 11
-13.6389
 21
1039.35
  0
LINE
  8
0
 10
-13.6389
 20
1039.35
 11
-13.8559
 21
1039.2
  0
LINE
  8
0
 10
-13.8559
 20
1039.2
 11
-14.0908
 21
1039.07
  0
LINE
  8
0
 10
-14.0908
 20
1039.07
 11
-14.3401
 21
1038.97
  0
LINE
  8
0
 10
-14.3401
 20
1038.97
 11
-14.5999
 21
1038.9
  0
LINE
  8
0
 10
-14.5999
 20
1038.9
 11
-14.8659
 21
1038.87
  0
LINE
  8
0
 10
-14.8659
 20
1038.87
 11
-15.1341
 21
1038.87
  0
ENDSEC
  0
SECTION
  2
OBJECTS
  0
DICTIONARY
  0
ENDSEC
  0
EOF
