<?xml version="1.0" standalone="no"?>
<!DOCTYPE svg PUBLIC "-//W3C//DTD SVG 1.1//EN" "http://www.w3.org/Graphics/SVG/1.1/DTD/svg11.dtd">
<svg width="150mm" height="867mm" viewBox="-75 -1419 150 867" xmlns="http://www.w3.org/2000/svg" version="1.1">
<title>OpenSCAD Model</title>
<path d="
M 70.9369,-1209.09 L 71.5451,-1209.24 L 72.1289,-1209.48 L 72.6791,-1209.78 L 73.1871,-1210.15 L 73.6448,-1210.58
 L 74.0451,-1211.06 L 74.3815,-1211.59 L 74.6489,-1212.16 L 74.8429,-1212.76 L 74.9606,-1213.37 L 75,-1214
 L 75,-1414 L 74.9606,-1414.63 L 74.8429,-1415.24 L 74.6489,-1415.84 L 74.3815,-1416.41 L 74.0451,-1416.94
 L 73.6448,-1417.42 L 73.1871,-1417.85 L 72.6791,-1418.22 L 72.1289,-1418.52 L 71.5451,-1418.76 L 70.9369,-1418.91
 L 70.3139,-1418.99 L -70.3139,-1418.99 L -70.9369,-1418.91 L -71.5451,-1418.76 L -72.1289,-1418.52 L -72.6791,-1418.22
 L -73.1871,-1417.85 L -73.6448,-1417.42 L -74.0451,-1416.94 L -74.3815,-1416.41 L -74.6489,-1415.84 L -74.8429,-1415.24
 L -74.9606,-1414.63 L -75,-1414 L -75,-1214 L -74.9606,-1213.37 L -74.8429,-1212.76 L -74.6489,-1212.16
 L -74.3815,-1211.59 L -74.0451,-1211.06 L -73.6448,-1210.58 L -73.1871,-1210.15 L -72.6791,-1209.78 L -72.1289,-1209.48
 L -71.5451,-1209.24 L -70.9369,-1209.09 L -70.3139,-1209.01 L 70.3139,-1209.01 z
M -69.7512,-1210.51 L -70.2495,-1210.57 L -70.7361,-1210.7 L -71.2031,-1210.88 L -71.6433,-1211.12 L -72.0497,-1211.42
 L -72.4159,-1211.76 L -72.7361,-1212.15 L -73.0052,-1212.57 L -73.2191,-1213.03 L -73.3743,-1213.51 L -73.4685,-1214
 L -73.5,-1214.5 L -73.5,-1413.5 L -73.4685,-1414 L -73.3743,-1414.49 L -73.2191,-1414.97 L -73.0052,-1415.43
 L -72.7361,-1415.85 L -72.4159,-1416.24 L -72.0497,-1416.58 L -71.6433,-1416.88 L -71.2031,-1417.12 L -70.7361,-1417.3
 L -70.2495,-1417.43 L -69.7512,-1417.49 L 69.7512,-1417.49 L 70.2495,-1417.43 L 70.7361,-1417.3 L 71.2031,-1417.12
 L 71.6433,-1416.88 L 72.0497,-1416.58 L 72.4159,-1416.24 L 72.7361,-1415.85 L 73.0052,-1415.43 L 73.2191,-1414.97
 L 73.3743,-1414.49 L 73.4685,-1414 L 73.5,-1413.5 L 73.5,-1214.5 L 73.4685,-1214 L 73.3743,-1213.51
 L 73.2191,-1213.03 L 73.0052,-1212.57 L 72.7361,-1212.15 L 72.4159,-1211.76 L 72.0497,-1211.42 L 71.6433,-1211.12
 L 71.2031,-1210.88 L 70.7361,-1210.7 L 70.2495,-1210.57 L 69.7512,-1210.51 z
M 70.9369,-990.089 L 71.5451,-990.245 L 72.1289,-990.476 L 72.6791,-990.778 L 73.1871,-991.147 L 73.6448,-991.577
 L 74.0451,-992.061 L 74.3815,-992.591 L 74.6489,-993.159 L 74.8429,-993.757 L 74.9606,-994.373 L 75,-995
 L 75,-1195 L 74.9606,-1195.63 L 74.8429,-1196.24 L 74.6489,-1196.84 L 74.3815,-1197.41 L 74.0451,-1197.94
 L 73.6448,-1198.42 L 73.1871,-1198.85 L 72.6791,-1199.22 L 72.1289,-1199.52 L 71.5451,-1199.76 L 70.9369,-1199.91
 L 70.3139,-1199.99 L -70.3139,-1199.99 L -70.9369,-1199.91 L -71.5451,-1199.76 L -72.1289,-1199.52 L -72.6791,-1199.22
 L -73.1871,-1198.85 L -73.6448,-1198.42 L -74.0451,-1197.94 L -74.3815,-1197.41 L -74.6489,-1196.84 L -74.8429,-1196.24
 L -74.9606,-1195.63 L -75,-1195 L -75,-995 L -74.9606,-994.373 L -74.8429,-993.757 L -74.6489,-993.159
 L -74.3815,-992.591 L -74.0451,-992.061 L -73.6448,-991.577 L -73.1871,-991.147 L -72.6791,-990.778 L -72.1289,-990.476
 L -71.5451,-990.245 L -70.9369,-990.089 L -70.3139,-990.01 L 70.3139,-990.01 z
M -69.7432,-991.635 L -70.2256,-991.696 L -70.6967,-991.817 L -71.1489,-991.996 L -71.5751,-992.23 L -71.9685,-992.516
 L -72.323,-992.849 L -72.633,-993.224 L -72.8936,-993.634 L -73.1007,-994.074 L -73.251,-994.537 L -73.3421,-995.015
 L -73.3726,-995.5 L -73.3726,-1194.5 L -73.3421,-1194.99 L -73.251,-1195.46 L -73.1007,-1195.93 L -72.8936,-1196.37
 L -72.633,-1196.78 L -72.323,-1197.15 L -71.9685,-1197.48 L -71.5751,-1197.77 L -71.1489,-1198 L -70.6967,-1198.18
 L -70.2256,-1198.3 L -69.7432,-1198.36 L 69.7432,-1198.36 L 70.2256,-1198.3 L 70.6967,-1198.18 L 71.1489,-1198
 L 71.5751,-1197.77 L 71.9685,-1197.48 L 72.323,-1197.15 L 72.633,-1196.78 L 72.8936,-1196.37 L 73.1007,-1195.93
 L 73.251,-1195.46 L 73.3421,-1194.99 L 73.3726,-1194.5 L 73.3726,-995.5 L 73.3421,-995.015 L 73.251,-994.537
 L 73.1007,-994.074 L 72.8936,-993.634 L 72.633,-993.224 L 72.323,-992.849 L 71.9685,-992.516 L 71.5751,-992.23
 L 71.1489,-991.996 L 70.6967,-991.817 L 70.2256,-991.696 L 69.7432,-991.635 z
M 70.9369,-771.089 L 71.5451,-771.245 L 72.1289,-771.476 L 72.6791,-771.778 L 73.1871,-772.147 L 73.6448,-772.577
 L 74.0451,-773.061 L 74.3815,-773.591 L 74.6489,-774.159 L 74.8429,-774.757 L 74.9606,-775.373 L 75,-776
 L 75,-976 L 74.9606,-976.627 L 74.8429,-977.243 L 74.6489,-977.841 L 74.3815,-978.409 L 74.0451,-978.939
 L 73.6448,-979.423 L 73.1871,-979.853 L 72.6791,-980.222 L 72.1289,-980.524 L 71.5451,-980.755 L 70.9369,-980.911
 L 70.3139,-980.99 L -70.3139,-980.99 L -70.9369,-980.911 L -71.5451,-980.755 L -72.1289,-980.524 L -72.6791,-980.222
 L -73.1871,-979.853 L -73.6448,-979.423 L -74.0451,-978.939 L -74.3815,-978.409 L -74.6489,-977.841 L -74.8429,-977.243
 L -74.9606,-976.627 L -75,-976 L -75,-776 L -74.9606,-775.373 L -74.8429,-774.757 L -74.6489,-774.159
 L -74.3815,-773.591 L -74.0451,-773.061 L -73.6448,-772.577 L -73.1871,-772.147 L -72.6791,-771.778 L -72.1289,-771.476
 L -71.5451,-771.245 L -70.9369,-771.089 L -70.3139,-771.01 L 70.3139,-771.01 z
M 67.3493,-971.105 L 67.0503,-971.143 L 66.7584,-971.217 L 66.4781,-971.328 L 66.214,-971.474 L 65.9702,-971.651
 L 65.7505,-971.857 L 65.5583,-972.089 L 65.3969,-972.344 L 65.2685,-972.617 L 65.1754,-972.903 L 65.1189,-973.199
 L 65.1,-973.5 L 65.1189,-973.801 L 65.1754,-974.097 L 65.2685,-974.383 L 65.3969,-974.656 L 65.5583,-974.911
 L 65.7505,-975.143 L 65.9702,-975.349 L 66.214,-975.526 L 66.4781,-975.672 L 66.7584,-975.783 L 67.0503,-975.857
 L 67.3493,-975.895 L 67.6507,-975.895 L 67.9497,-975.857 L 68.2416,-975.783 L 68.5219,-975.672 L 68.786,-975.526
 L 69.0298,-975.349 L 69.2495,-975.143 L 69.4416,-974.911 L 69.6031,-974.656 L 69.7315,-974.383 L 69.8246,-974.097
 L 69.8811,-973.801 L 69.9,-973.5 L 69.8811,-973.199 L 69.8246,-972.903 L 69.7315,-972.617 L 69.6031,-972.344
 L 69.4416,-972.089 L 69.2495,-971.857 L 69.0298,-971.651 L 68.786,-971.474 L 68.5219,-971.328 L 68.2416,-971.217
 L 67.9497,-971.143 L 67.6507,-971.105 z
M -67.6507,-971.105 L -67.9497,-971.143 L -68.2416,-971.217 L -68.5219,-971.328 L -68.786,-971.474 L -69.0298,-971.651
 L -69.2495,-971.857 L -69.4416,-972.089 L -69.6031,-972.344 L -69.7315,-972.617 L -69.8246,-972.903 L -69.8811,-973.199
 L -69.9,-973.5 L -69.8811,-973.801 L -69.8246,-974.097 L -69.7315,-974.383 L -69.6031,-974.656 L -69.4416,-974.911
 L -69.2495,-975.143 L -69.0298,-975.349 L -68.786,-975.526 L -68.5219,-975.672 L -68.2416,-975.783 L -67.9497,-975.857
 L -67.6507,-975.895 L -67.3493,-975.895 L -67.0503,-975.857 L -66.7584,-975.783 L -66.4781,-975.672 L -66.214,-975.526
 L -65.9702,-975.349 L -65.7505,-975.143 L -65.5583,-974.911 L -65.3969,-974.656 L -65.2685,-974.383 L -65.1754,-974.097
 L -65.1189,-973.801 L -65.1,-973.5 L -65.1189,-973.199 L -65.1754,-972.903 L -65.2685,-972.617 L -65.3969,-972.344
 L -65.5583,-972.089 L -65.7505,-971.857 L -65.9702,-971.651 L -66.214,-971.474 L -66.4781,-971.328 L -66.7584,-971.217
 L -67.0503,-971.143 L -67.3493,-971.105 z
M 67.3493,-776.105 L 67.0503,-776.143 L 66.7584,-776.217 L 66.4781,-776.328 L 66.214,-776.474 L 65.9702,-776.651
 L 65.7505,-776.857 L 65.5583,-777.089 L 65.3969,-777.344 L 65.2685,-777.617 L 65.1754,-777.903 L 65.1189,-778.199
 L 65.1,-778.5 L 65.1189,-778.801 L 65.1754,-779.097 L 65.2685,-779.383 L 65.3969,-779.656 L 65.5583,-779.911
 L 65.7505,-780.143 L 65.9702,-780.349 L 66.214,-780.526 L 66.4781,-780.672 L 66.7584,-780.783 L 67.0503,-780.857
 L 67.3493,-780.895 L 67.6507,-780.895 L 67.9497,-780.857 L 68.2416,-780.783 L 68.5219,-780.672 L 68.786,-780.526
 L 69.0298,-780.349 L 69.2495,-780.143 L 69.4416,-779.911 L 69.6031,-779.656 L 69.7315,-779.383 L 69.8246,-779.097
 L 69.8811,-778.801 L 69.9,-778.5 L 69.8811,-778.199 L 69.8246,-777.903 L 69.7315,-777.617 L 69.6031,-777.344
 L 69.4416,-777.089 L 69.2495,-776.857 L 69.0298,-776.651 L 68.786,-776.474 L 68.5219,-776.328 L 68.2416,-776.217
 L 67.9497,-776.143 L 67.6507,-776.105 z
M -67.6507,-776.105 L -67.9497,-776.143 L -68.2416,-776.217 L -68.5219,-776.328 L -68.786,-776.474 L -69.0298,-776.651
 L -69.2495,-776.857 L -69.4416,-777.089 L -69.6031,-777.344 L -69.7315,-777.617 L -69.8246,-777.903 L -69.8811,-778.199
 L -69.9,-778.5 L -69.8811,-778.801 L -69.8246,-779.097 L -69.7315,-779.383 L -69.6031,-779.656 L -69.4416,-779.911
 L -69.2495,-780.143 L -69.0298,-780.349 L -68.786,-780.526 L -68.5219,-780.672 L -68.2416,-780.783 L -67.9497,-780.857
 L -67.6507,-780.895 L -67.3493,-780.895 L -67.0503,-780.857 L -66.7584,-780.783 L -66.4781,-780.672 L -66.214,-780.526
 L -65.9702,-780.349 L -65.7505,-780.143 L -65.5583,-779.911 L -65.3969,-779.656 L -65.2685,-779.383 L -65.1754,-779.097
 L -65.1189,-778.801 L -65.1,-778.5 L -65.1189,-778.199 L -65.1754,-777.903 L -65.2685,-777.617 L -65.3969,-777.344
 L -65.5583,-777.089 L -65.7505,-776.857 L -65.9702,-776.651 L -66.214,-776.474 L -66.4781,-776.328 L -66.7584,-776.217
 L -67.0503,-776.143 L -67.3493,-776.105 z
M 70.9369,-552.089 L 71.5451,-552.245 L 72.1289,-552.476 L 72.6791,-552.778 L 73.1871,-553.147 L 73.6448,-553.577
 L 74.0451,-554.061 L 74.3815,-554.591 L 74.6489,-555.159 L 74.8429,-555.757 L 74.9606,-556.373 L 75,-557
 L 75,-757 L 74.9606,-757.627 L 74.8429,-758.243 L 74.6489,-758.841 L 74.3815,-759.409 L 74.0451,-759.939
 L 73.6448,-760.423 L 73.1871,-760.853 L 72.6791,-761.222 L 72.1289,-761.524 L 71.5451,-761.755 L 70.9369,-761.911
 L 70.3139,-761.99 L -70.3139,-761.99 L -70.9369,-761.911 L -71.5451,-761.755 L -72.1289,-761.524 L -72.6791,-761.222
 L -73.1871,-760.853 L -73.6448,-760.423 L -74.0451,-759.939 L -74.3815,-759.409 L -74.6489,-758.841 L -74.8429,-758.243
 L -74.9606,-757.627 L -75,-757 L -75,-557 L -74.9606,-556.373 L -74.8429,-555.757 L -74.6489,-555.159
 L -74.3815,-554.591 L -74.0451,-554.061 L -73.6448,-553.577 L -73.1871,-553.147 L -72.6791,-552.778 L -72.1289,-552.476
 L -71.5451,-552.245 L -70.9369,-552.089 L -70.3139,-552.01 L 70.3139,-552.01 z
M 67.387,-752.704 L 67.1627,-752.732 L 66.9438,-752.788 L 66.7336,-752.871 L 66.5355,-752.98 L 66.3526,-753.113
 L 66.1879,-753.268 L 66.0438,-753.442 L 65.9226,-753.633 L 65.8264,-753.837 L 65.7565,-754.052 L 65.7142,-754.274
 L 65.7,-754.5 L 65.7142,-754.726 L 65.7565,-754.948 L 65.8264,-755.163 L 65.9226,-755.367 L 66.0438,-755.558
 L 66.1879,-755.732 L 66.3526,-755.887 L 66.5355,-756.02 L 66.7336,-756.129 L 66.9438,-756.212 L 67.1627,-756.268
 L 67.387,-756.296 L 67.613,-756.296 L 67.8373,-756.268 L 68.0562,-756.212 L 68.2664,-756.129 L 68.4645,-756.02
 L 68.6474,-755.887 L 68.8121,-755.732 L 68.9562,-755.558 L 69.0773,-755.367 L 69.1736,-755.163 L 69.2434,-754.948
 L 69.2858,-754.726 L 69.3,-754.5 L 69.2858,-754.274 L 69.2434,-754.052 L 69.1736,-753.837 L 69.0773,-753.633
 L 68.9562,-753.442 L 68.8121,-753.268 L 68.6474,-753.113 L 68.4645,-752.98 L 68.2664,-752.871 L 68.0562,-752.788
 L 67.8373,-752.732 L 67.613,-752.704 z
M -67.613,-752.704 L -67.8373,-752.732 L -68.0562,-752.788 L -68.2664,-752.871 L -68.4645,-752.98 L -68.6474,-753.113
 L -68.8121,-753.268 L -68.9562,-753.442 L -69.0773,-753.633 L -69.1736,-753.837 L -69.2434,-754.052 L -69.2858,-754.274
 L -69.3,-754.5 L -69.2858,-754.726 L -69.2434,-754.948 L -69.1736,-755.163 L -69.0773,-755.367 L -68.9562,-755.558
 L -68.8121,-755.732 L -68.6474,-755.887 L -68.4645,-756.02 L -68.2664,-756.129 L -68.0562,-756.212 L -67.8373,-756.268
 L -67.613,-756.296 L -67.387,-756.296 L -67.1627,-756.268 L -66.9438,-756.212 L -66.7336,-756.129 L -66.5355,-756.02
 L -66.3526,-755.887 L -66.1879,-755.732 L -66.0438,-755.558 L -65.9226,-755.367 L -65.8264,-755.163 L -65.7565,-754.948
 L -65.7142,-754.726 L -65.7,-754.5 L -65.7142,-754.274 L -65.7565,-754.052 L -65.8264,-753.837 L -65.9226,-753.633
 L -66.0438,-753.442 L -66.1879,-753.268 L -66.3526,-753.113 L -66.5355,-752.98 L -66.7336,-752.871 L -66.9438,-752.788
 L -67.1627,-752.732 L -67.387,-752.704 z
M -67.613,-557.704 L -67.8373,-557.732 L -68.0562,-557.788 L -68.2664,-557.871 L -68.4645,-557.98 L -68.6474,-558.113
 L -68.8121,-558.268 L -68.9562,-558.442 L -69.0773,-558.633 L -69.1736,-558.837 L -69.2434,-559.052 L -69.2858,-559.274
 L -69.3,-559.5 L -69.2858,-559.726 L -69.2434,-559.948 L -69.1736,-560.163 L -69.0773,-560.367 L -68.9562,-560.558
 L -68.8121,-560.732 L -68.6474,-560.887 L -68.4645,-561.02 L -68.2664,-561.129 L -68.0562,-561.212 L -67.8373,-561.268
 L -67.613,-561.296 L -67.387,-561.296 L -67.1627,-561.268 L -66.9438,-561.212 L -66.7336,-561.129 L -66.5355,-561.02
 L -66.3526,-560.887 L -66.1879,-560.732 L -66.0438,-560.558 L -65.9226,-560.367 L -65.8264,-560.163 L -65.7565,-559.948
 L -65.7142,-559.726 L -65.7,-559.5 L -65.7142,-559.274 L -65.7565,-559.052 L -65.8264,-558.837 L -65.9226,-558.633
 L -66.0438,-558.442 L -66.1879,-558.268 L -66.3526,-558.113 L -66.5355,-557.98 L -66.7336,-557.871 L -66.9438,-557.788
 L -67.1627,-557.732 L -67.387,-557.704 z
M 67.387,-557.704 L 67.1627,-557.732 L 66.9438,-557.788 L 66.7336,-557.871 L 66.5355,-557.98 L 66.3526,-558.113
 L 66.1879,-558.268 L 66.0438,-558.442 L 65.9226,-558.633 L 65.8264,-558.837 L 65.7565,-559.052 L 65.7142,-559.274
 L 65.7,-559.5 L 65.7142,-559.726 L 65.7565,-559.948 L 65.8264,-560.163 L 65.9226,-560.367 L 66.0438,-560.558
 L 66.1879,-560.732 L 66.3526,-560.887 L 66.5355,-561.02 L 66.7336,-561.129 L 66.9438,-561.212 L 67.1627,-561.268
 L 67.387,-561.296 L 67.613,-561.296 L 67.8373,-561.268 L 68.0562,-561.212 L 68.2664,-561.129 L 68.4645,-561.02
 L 68.6474,-560.887 L 68.8121,-560.732 L 68.9562,-560.558 L 69.0773,-560.367 L 69.1736,-560.163 L 69.2434,-559.948
 L 69.2858,-559.726 L 69.3,-559.5 L 69.2858,-559.274 L 69.2434,-559.052 L 69.1736,-558.837 L 69.0773,-558.633
 L 68.9562,-558.442 L 68.8121,-558.268 L 68.6474,-558.113 L 68.4645,-557.98 L 68.2664,-557.871 L 68.0562,-557.788
 L 67.8373,-557.732 L 67.613,-557.704 z
" stroke="black" fill="lightgray" stroke-width="0.5"/>
</svg>
