<?xml version="1.0" standalone="no"?>
<!DOCTYPE svg PUBLIC "-//W3C//DTD SVG 1.1//EN" "http://www.w3.org/Graphics/SVG/1.1/DTD/svg11.dtd">
<svg width="150mm" height="64mm" viewBox="-75 -56 150 64" xmlns="http://www.w3.org/2000/svg" version="1.1">
<title>OpenSCAD Model</title>
<path d="
M -72,-40.9248 L -71.5451,-40.7447 L -70.9369,-40.5886 L -70.3139,-40.5099 L 70.3139,-40.5099 L 70.9369,-40.5886
 L 71.5451,-40.7447 L 72.1289,-40.9759 L 72.6791,-41.2784 L 73.1871,-41.6474 L 73.6448,-42.0773 L 74.0451,-42.5611
 L 74.3815,-43.0912 L 74.6489,-43.6594 L 74.8429,-44.2566 L 74.9606,-44.8733 L 75,-45.5 L 75,-50.5
 L 74.9606,-51.1267 L 74.8429,-51.7434 L 74.6489,-52.3406 L 74.3815,-52.9088 L 74.0451,-53.4389 L 73.6448,-53.9227
 L 73.1871,-54.3526 L 72.6791,-54.7216 L 72.1289,-55.0241 L 71.5451,-55.2553 L 70.9369,-55.4114 L 70.3139,-55.4901
 L -70.3139,-55.4901 L -70.9369,-55.4114 L -71.5451,-55.2553 L -72,-55.0752 L -72,-55.4901 L -75,-55.4901
 L -75,-40.5099 L -72,-40.5099 z
M 67.3493,-45.6047 L 67.0503,-45.6425 L 66.7584,-45.7175 L 66.4781,-45.8284 L 66.214,-45.9736 L 65.9702,-46.1508
 L 65.7505,-46.3571 L 65.5583,-46.5893 L 65.3969,-46.8438 L 65.2685,-47.1165 L 65.1754,-47.4032 L 65.1189,-47.6992
 L 65.1,-48 L 65.1189,-48.3008 L 65.1754,-48.5968 L 65.2685,-48.8835 L 65.3969,-49.1562 L 65.5583,-49.4107
 L 65.7505,-49.6429 L 65.9702,-49.8492 L 66.214,-50.0264 L 66.4781,-50.1716 L 66.7584,-50.2825 L 67.0503,-50.3575
 L 67.3493,-50.3953 L 67.6507,-50.3953 L 67.9497,-50.3575 L 68.2416,-50.2825 L 68.5219,-50.1716 L 68.786,-50.0264
 L 69.0298,-49.8492 L 69.2495,-49.6429 L 69.4416,-49.4107 L 69.6031,-49.1562 L 69.7315,-48.8835 L 69.8246,-48.5968
 L 69.8811,-48.3008 L 69.9,-48 L 69.8811,-47.6992 L 69.8246,-47.4032 L 69.7315,-47.1165 L 69.6031,-46.8438
 L 69.4416,-46.5893 L 69.2495,-46.3571 L 69.0298,-46.1508 L 68.786,-45.9736 L 68.5219,-45.8284 L 68.2416,-45.7175
 L 67.9497,-45.6425 L 67.6507,-45.6047 z
M -67.6507,-45.6047 L -67.9497,-45.6425 L -68.2416,-45.7175 L -68.5219,-45.8284 L -68.786,-45.9736 L -69.0298,-46.1508
 L -69.2495,-46.3571 L -69.4416,-46.5893 L -69.6031,-46.8438 L -69.7315,-47.1165 L -69.8246,-47.4032 L -69.8811,-47.6992
 L -69.9,-48 L -69.8811,-48.3008 L -69.8246,-48.5968 L -69.7315,-48.8835 L -69.6031,-49.1562 L -69.4416,-49.4107
 L -69.2495,-49.6429 L -69.0298,-49.8492 L -68.786,-50.0264 L -68.5219,-50.1716 L -68.2416,-50.2825 L -67.9497,-50.3575
 L -67.6507,-50.3953 L -67.3493,-50.3953 L -67.0503,-50.3575 L -66.7584,-50.2825 L -66.4781,-50.1716 L -66.214,-50.0264
 L -65.9702,-49.8492 L -65.7505,-49.6429 L -65.5583,-49.4107 L -65.3969,-49.1562 L -65.2685,-48.8835 L -65.1754,-48.5968
 L -65.1189,-48.3008 L -65.1,-48 L -65.1189,-47.6992 L -65.1754,-47.4032 L -65.2685,-47.1165 L -65.3969,-46.8438
 L -65.5583,-46.5893 L -65.7505,-46.3571 L -65.9702,-46.1508 L -66.214,-45.9736 L -66.4781,-45.8284 L -66.7584,-45.7175
 L -67.0503,-45.6425 L -67.3493,-45.6047 z
M -72,-16.9248 L -71.5451,-16.7447 L -70.9369,-16.5886 L -70.3139,-16.5099 L 70.3139,-16.5099 L 70.9369,-16.5886
 L 71.5451,-16.7447 L 72.1289,-16.9759 L 72.6791,-17.2784 L 73.1871,-17.6474 L 73.6448,-18.0773 L 74.0451,-18.5611
 L 74.3815,-19.0912 L 74.6489,-19.6594 L 74.8429,-20.2566 L 74.9606,-20.8733 L 75,-21.5 L 75,-26.5
 L 74.9606,-27.1267 L 74.8429,-27.7434 L 74.6489,-28.3406 L 74.3815,-28.9088 L 74.0451,-29.4389 L 73.6448,-29.9227
 L 73.1871,-30.3526 L 72.6791,-30.7216 L 72.1289,-31.0241 L 71.5451,-31.2553 L 70.9369,-31.4114 L 70.3139,-31.4901
 L -70.3139,-31.4901 L -70.9369,-31.4114 L -71.5451,-31.2553 L -72,-31.0752 L -72,-31.4901 L -75,-31.4901
 L -75,-16.5099 L -72,-16.5099 z
M -67.613,-22.2036 L -67.8373,-22.2319 L -68.0562,-22.2881 L -68.2664,-22.3713 L -68.4645,-22.4802 L -68.6474,-22.6131
 L -68.8121,-22.7678 L -68.9562,-22.942 L -69.0773,-23.1329 L -69.1736,-23.3374 L -69.2434,-23.5524 L -69.2858,-23.7744
 L -69.3,-24 L -69.2858,-24.2256 L -69.2434,-24.4476 L -69.1736,-24.6626 L -69.0773,-24.8671 L -68.9562,-25.058
 L -68.8121,-25.2322 L -68.6474,-25.3869 L -68.4645,-25.5198 L -68.2664,-25.6287 L -68.0562,-25.7119 L -67.8373,-25.7681
 L -67.613,-25.7964 L -67.387,-25.7964 L -67.1627,-25.7681 L -66.9438,-25.7119 L -66.7336,-25.6287 L -66.5355,-25.5198
 L -66.3526,-25.3869 L -66.1879,-25.2322 L -66.0438,-25.058 L -65.9226,-24.8671 L -65.8264,-24.6626 L -65.7565,-24.4476
 L -65.7142,-24.2256 L -65.7,-24 L -65.7142,-23.7744 L -65.7565,-23.5524 L -65.8264,-23.3374 L -65.9226,-23.1329
 L -66.0438,-22.942 L -66.1879,-22.7678 L -66.3526,-22.6131 L -66.5355,-22.4802 L -66.7336,-22.3713 L -66.9438,-22.2881
 L -67.1627,-22.2319 L -67.387,-22.2036 z
M 67.387,-22.2036 L 67.1627,-22.2319 L 66.9438,-22.2881 L 66.7336,-22.3713 L 66.5355,-22.4802 L 66.3526,-22.6131
 L 66.1879,-22.7678 L 66.0438,-22.942 L 65.9226,-23.1329 L 65.8264,-23.3374 L 65.7565,-23.5524 L 65.7142,-23.7744
 L 65.7,-24 L 65.7142,-24.2256 L 65.7565,-24.4476 L 65.8264,-24.6626 L 65.9226,-24.8671 L 66.0438,-25.058
 L 66.1879,-25.2322 L 66.3526,-25.3869 L 66.5355,-25.5198 L 66.7336,-25.6287 L 66.9438,-25.7119 L 67.1627,-25.7681
 L 67.387,-25.7964 L 67.613,-25.7964 L 67.8373,-25.7681 L 68.0562,-25.7119 L 68.2664,-25.6287 L 68.4645,-25.5198
 L 68.6474,-25.3869 L 68.8121,-25.2322 L 68.9562,-25.058 L 69.0773,-24.8671 L 69.1736,-24.6626 L 69.2434,-24.4476
 L 69.2858,-24.2256 L 69.3,-24 L 69.2858,-23.7744 L 69.2434,-23.5524 L 69.1736,-23.3374 L 69.0773,-23.1329
 L 68.9562,-22.942 L 68.8121,-22.7678 L 68.6474,-22.6131 L 68.4645,-22.4802 L 68.2664,-22.3713 L 68.0562,-22.2881
 L 67.8373,-22.2319 L 67.613,-22.2036 z
M -72,-7.11476 L -75,-7.11476 L -75,7.11476 L -72,7.11476 z
" stroke="black" fill="lightgray" stroke-width="0.5"/>
</svg>
