<?xml version="1.0" standalone="no"?>
<!DOCTYPE svg PUBLIC "-//W3C//DTD SVG 1.1//EN" "http://www.w3.org/Graphics/SVG/1.1/DTD/svg11.dtd">
<svg width="90mm" height="460mm" viewBox="-45 -581 90 460" xmlns="http://www.w3.org/2000/svg" version="1.1">
<title>OpenSCAD Model</title>
<path d="
M 40.9369,-355.589 L 41.5451,-355.745 L 42.1289,-355.976 L 42.6791,-356.278 L 43.1871,-356.647 L 43.6448,-357.077
 L 44.0451,-357.561 L 44.3815,-358.091 L 44.6489,-358.659 L 44.8429,-359.257 L 44.9606,-359.873 L 45,-360.5
 L 45,-575.5 L 44.9606,-576.127 L 44.8429,-576.743 L 44.6489,-577.341 L 44.3815,-577.909 L 44.0451,-578.439
 L 43.6448,-578.923 L 43.1871,-579.353 L 42.6791,-579.722 L 42.1289,-580.024 L 41.5451,-580.255 L 40.9369,-580.411
 L 40.3139,-580.49 L -40.3139,-580.49 L -40.9369,-580.411 L -41.5451,-580.255 L -42.1289,-580.024 L -42.6791,-579.722
 L -43.1871,-579.353 L -43.6448,-578.923 L -44.0451,-578.439 L -44.3815,-577.909 L -44.6489,-577.341 L -44.8429,-576.743
 L -44.9606,-576.127 L -45,-575.5 L -45,-360.5 L -44.9606,-359.873 L -44.8429,-359.257 L -44.6489,-358.659
 L -44.3815,-358.091 L -44.0451,-357.561 L -43.6448,-357.077 L -43.1871,-356.647 L -42.6791,-356.278 L -42.1289,-355.976
 L -41.5451,-355.745 L -40.9369,-355.589 L -40.3139,-355.51 L 40.3139,-355.51 z
M 37.3493,-570.605 L 37.0503,-570.643 L 36.7584,-570.717 L 36.4781,-570.828 L 36.214,-570.974 L 35.9702,-571.151
 L 35.7505,-571.357 L 35.5583,-571.589 L 35.3969,-571.844 L 35.2685,-572.117 L 35.1754,-572.403 L 35.1189,-572.699
 L 35.1,-573 L 35.1189,-573.301 L 35.1754,-573.597 L 35.2685,-573.883 L 35.3969,-574.156 L 35.5583,-574.411
 L 35.7505,-574.643 L 35.9702,-574.849 L 36.214,-575.026 L 36.4781,-575.172 L 36.7584,-575.283 L 37.0503,-575.357
 L 37.3493,-575.395 L 37.6507,-575.395 L 37.9497,-575.357 L 38.2416,-575.283 L 38.5219,-575.172 L 38.786,-575.026
 L 39.0298,-574.849 L 39.2495,-574.643 L 39.4416,-574.411 L 39.6031,-574.156 L 39.7315,-573.883 L 39.8246,-573.597
 L 39.8811,-573.301 L 39.9,-573 L 39.8811,-572.699 L 39.8246,-572.403 L 39.7315,-572.117 L 39.6031,-571.844
 L 39.4416,-571.589 L 39.2495,-571.357 L 39.0298,-571.151 L 38.786,-570.974 L 38.5219,-570.828 L 38.2416,-570.717
 L 37.9497,-570.643 L 37.6507,-570.605 z
M -37.6507,-570.605 L -37.9497,-570.643 L -38.2416,-570.717 L -38.5219,-570.828 L -38.786,-570.974 L -39.0298,-571.151
 L -39.2495,-571.357 L -39.4416,-571.589 L -39.6031,-571.844 L -39.7315,-572.117 L -39.8246,-572.403 L -39.8811,-572.699
 L -39.9,-573 L -39.8811,-573.301 L -39.8246,-573.597 L -39.7315,-573.883 L -39.6031,-574.156 L -39.4416,-574.411
 L -39.2495,-574.643 L -39.0298,-574.849 L -38.786,-575.026 L -38.5219,-575.172 L -38.2416,-575.283 L -37.9497,-575.357
 L -37.6507,-575.395 L -37.3493,-575.395 L -37.0503,-575.357 L -36.7584,-575.283 L -36.4781,-575.172 L -36.214,-575.026
 L -35.9702,-574.849 L -35.7505,-574.643 L -35.5583,-574.411 L -35.3969,-574.156 L -35.2685,-573.883 L -35.1754,-573.597
 L -35.1189,-573.301 L -35.1,-573 L -35.1189,-572.699 L -35.1754,-572.403 L -35.2685,-572.117 L -35.3969,-571.844
 L -35.5583,-571.589 L -35.7505,-571.357 L -35.9702,-571.151 L -36.214,-570.974 L -36.4781,-570.828 L -36.7584,-570.717
 L -37.0503,-570.643 L -37.3493,-570.605 z
M 37.3493,-360.605 L 37.0503,-360.643 L 36.7584,-360.717 L 36.4781,-360.828 L 36.214,-360.974 L 35.9702,-361.151
 L 35.7505,-361.357 L 35.5583,-361.589 L 35.3969,-361.844 L 35.2685,-362.117 L 35.1754,-362.403 L 35.1189,-362.699
 L 35.1,-363 L 35.1189,-363.301 L 35.1754,-363.597 L 35.2685,-363.883 L 35.3969,-364.156 L 35.5583,-364.411
 L 35.7505,-364.643 L 35.9702,-364.849 L 36.214,-365.026 L 36.4781,-365.172 L 36.7584,-365.283 L 37.0503,-365.357
 L 37.3493,-365.395 L 37.6507,-365.395 L 37.9497,-365.357 L 38.2416,-365.283 L 38.5219,-365.172 L 38.786,-365.026
 L 39.0298,-364.849 L 39.2495,-364.643 L 39.4416,-364.411 L 39.6031,-364.156 L 39.7315,-363.883 L 39.8246,-363.597
 L 39.8811,-363.301 L 39.9,-363 L 39.8811,-362.699 L 39.8246,-362.403 L 39.7315,-362.117 L 39.6031,-361.844
 L 39.4416,-361.589 L 39.2495,-361.357 L 39.0298,-361.151 L 38.786,-360.974 L 38.5219,-360.828 L 38.2416,-360.717
 L 37.9497,-360.643 L 37.6507,-360.605 z
M -37.6507,-360.605 L -37.9497,-360.643 L -38.2416,-360.717 L -38.5219,-360.828 L -38.786,-360.974 L -39.0298,-361.151
 L -39.2495,-361.357 L -39.4416,-361.589 L -39.6031,-361.844 L -39.7315,-362.117 L -39.8246,-362.403 L -39.8811,-362.699
 L -39.9,-363 L -39.8811,-363.301 L -39.8246,-363.597 L -39.7315,-363.883 L -39.6031,-364.156 L -39.4416,-364.411
 L -39.2495,-364.643 L -39.0298,-364.849 L -38.786,-365.026 L -38.5219,-365.172 L -38.2416,-365.283 L -37.9497,-365.357
 L -37.6507,-365.395 L -37.3493,-365.395 L -37.0503,-365.357 L -36.7584,-365.283 L -36.4781,-365.172 L -36.214,-365.026
 L -35.9702,-364.849 L -35.7505,-364.643 L -35.5583,-364.411 L -35.3969,-364.156 L -35.2685,-363.883 L -35.1754,-363.597
 L -35.1189,-363.301 L -35.1,-363 L -35.1189,-362.699 L -35.1754,-362.403 L -35.2685,-362.117 L -35.3969,-361.844
 L -35.5583,-361.589 L -35.7505,-361.357 L -35.9702,-361.151 L -36.214,-360.974 L -36.4781,-360.828 L -36.7584,-360.717
 L -37.0503,-360.643 L -37.3493,-360.605 z
M 40.9369,-121.589 L 41.5451,-121.745 L 42.1289,-121.976 L 42.6791,-122.278 L 43.1871,-122.647 L 43.6448,-123.077
 L 44.0451,-123.561 L 44.3815,-124.091 L 44.6489,-124.659 L 44.8429,-125.257 L 44.9606,-125.873 L 45,-126.5
 L 45,-341.5 L 44.9606,-342.127 L 44.8429,-342.743 L 44.6489,-343.341 L 44.3815,-343.909 L 44.0451,-344.439
 L 43.6448,-344.923 L 43.1871,-345.353 L 42.6791,-345.722 L 42.1289,-346.024 L 41.5451,-346.255 L 40.9369,-346.411
 L 40.3139,-346.49 L -40.3139,-346.49 L -40.9369,-346.411 L -41.5451,-346.255 L -42.1289,-346.024 L -42.6791,-345.722
 L -43.1871,-345.353 L -43.6448,-344.923 L -44.0451,-344.439 L -44.3815,-343.909 L -44.6489,-343.341 L -44.8429,-342.743
 L -44.9606,-342.127 L -45,-341.5 L -45,-126.5 L -44.9606,-125.873 L -44.8429,-125.257 L -44.6489,-124.659
 L -44.3815,-124.091 L -44.0451,-123.561 L -43.6448,-123.077 L -43.1871,-122.647 L -42.6791,-122.278 L -42.1289,-121.976
 L -41.5451,-121.745 L -40.9369,-121.589 L -40.3139,-121.51 L 40.3139,-121.51 z
M 37.387,-337.204 L 37.1627,-337.232 L 36.9438,-337.288 L 36.7336,-337.371 L 36.5355,-337.48 L 36.3526,-337.613
 L 36.1879,-337.768 L 36.0438,-337.942 L 35.9226,-338.133 L 35.8264,-338.337 L 35.7565,-338.552 L 35.7142,-338.774
 L 35.7,-339 L 35.7142,-339.226 L 35.7565,-339.448 L 35.8264,-339.663 L 35.9226,-339.867 L 36.0438,-340.058
 L 36.1879,-340.232 L 36.3526,-340.387 L 36.5355,-340.52 L 36.7336,-340.629 L 36.9438,-340.712 L 37.1627,-340.768
 L 37.387,-340.796 L 37.613,-340.796 L 37.8373,-340.768 L 38.0562,-340.712 L 38.2664,-340.629 L 38.4645,-340.52
 L 38.6474,-340.387 L 38.8121,-340.232 L 38.9562,-340.058 L 39.0773,-339.867 L 39.1736,-339.663 L 39.2434,-339.448
 L 39.2858,-339.226 L 39.3,-339 L 39.2858,-338.774 L 39.2434,-338.552 L 39.1736,-338.337 L 39.0773,-338.133
 L 38.9562,-337.942 L 38.8121,-337.768 L 38.6474,-337.613 L 38.4645,-337.48 L 38.2664,-337.371 L 38.0562,-337.288
 L 37.8373,-337.232 L 37.613,-337.204 z
M -37.613,-337.204 L -37.8373,-337.232 L -38.0562,-337.288 L -38.2664,-337.371 L -38.4645,-337.48 L -38.6474,-337.613
 L -38.8121,-337.768 L -38.9562,-337.942 L -39.0773,-338.133 L -39.1736,-338.337 L -39.2434,-338.552 L -39.2858,-338.774
 L -39.3,-339 L -39.2858,-339.226 L -39.2434,-339.448 L -39.1736,-339.663 L -39.0773,-339.867 L -38.9562,-340.058
 L -38.8121,-340.232 L -38.6474,-340.387 L -38.4645,-340.52 L -38.2664,-340.629 L -38.0562,-340.712 L -37.8373,-340.768
 L -37.613,-340.796 L -37.387,-340.796 L -37.1627,-340.768 L -36.9438,-340.712 L -36.7336,-340.629 L -36.5355,-340.52
 L -36.3526,-340.387 L -36.1879,-340.232 L -36.0438,-340.058 L -35.9226,-339.867 L -35.8264,-339.663 L -35.7565,-339.448
 L -35.7142,-339.226 L -35.7,-339 L -35.7142,-338.774 L -35.7565,-338.552 L -35.8264,-338.337 L -35.9226,-338.133
 L -36.0438,-337.942 L -36.1879,-337.768 L -36.3526,-337.613 L -36.5355,-337.48 L -36.7336,-337.371 L -36.9438,-337.288
 L -37.1627,-337.232 L -37.387,-337.204 z
M 37.387,-127.204 L 37.1627,-127.232 L 36.9438,-127.288 L 36.7336,-127.371 L 36.5355,-127.48 L 36.3526,-127.613
 L 36.1879,-127.768 L 36.0438,-127.942 L 35.9226,-128.133 L 35.8264,-128.337 L 35.7565,-128.552 L 35.7142,-128.774
 L 35.7,-129 L 35.7142,-129.226 L 35.7565,-129.448 L 35.8264,-129.663 L 35.9226,-129.867 L 36.0438,-130.058
 L 36.1879,-130.232 L 36.3526,-130.387 L 36.5355,-130.52 L 36.7336,-130.629 L 36.9438,-130.712 L 37.1627,-130.768
 L 37.387,-130.796 L 37.613,-130.796 L 37.8373,-130.768 L 38.0562,-130.712 L 38.2664,-130.629 L 38.4645,-130.52
 L 38.6474,-130.387 L 38.8121,-130.232 L 38.9562,-130.058 L 39.0773,-129.867 L 39.1736,-129.663 L 39.2434,-129.448
 L 39.2858,-129.226 L 39.3,-129 L 39.2858,-128.774 L 39.2434,-128.552 L 39.1736,-128.337 L 39.0773,-128.133
 L 38.9562,-127.942 L 38.8121,-127.768 L 38.6474,-127.613 L 38.4645,-127.48 L 38.2664,-127.371 L 38.0562,-127.288
 L 37.8373,-127.232 L 37.613,-127.204 z
M -37.613,-127.204 L -37.8373,-127.232 L -38.0562,-127.288 L -38.2664,-127.371 L -38.4645,-127.48 L -38.6474,-127.613
 L -38.8121,-127.768 L -38.9562,-127.942 L -39.0773,-128.133 L -39.1736,-128.337 L -39.2434,-128.552 L -39.2858,-128.774
 L -39.3,-129 L -39.2858,-129.226 L -39.2434,-129.448 L -39.1736,-129.663 L -39.0773,-129.867 L -38.9562,-130.058
 L -38.8121,-130.232 L -38.6474,-130.387 L -38.4645,-130.52 L -38.2664,-130.629 L -38.0562,-130.712 L -37.8373,-130.768
 L -37.613,-130.796 L -37.387,-130.796 L -37.1627,-130.768 L -36.9438,-130.712 L -36.7336,-130.629 L -36.5355,-130.52
 L -36.3526,-130.387 L -36.1879,-130.232 L -36.0438,-130.058 L -35.9226,-129.867 L -35.8264,-129.663 L -35.7565,-129.448
 L -35.7142,-129.226 L -35.7,-129 L -35.7142,-128.774 L -35.7565,-128.552 L -35.8264,-128.337 L -35.9226,-128.133
 L -36.0438,-127.942 L -36.1879,-127.768 L -36.3526,-127.613 L -36.5355,-127.48 L -36.7336,-127.371 L -36.9438,-127.288
 L -37.1627,-127.232 L -37.387,-127.204 z
" stroke="black" fill="lightgray" stroke-width="0.5"/>
</svg>
