  0
SECTION
  2
BLOCKS
  0
ENDSEC
  0
SECTION
  2
ENTITIES
  0
LINE
  8
0
 10
7.1869
 20
1084.59
 11
7.79507
 21
1084.74
  0
LINE
  8
0
 10
7.79507
 20
1084.74
 11
8.37889
 21
1084.98
  0
LINE
  8
0
 10
8.37889
 20
1084.98
 11
8.92912
 21
1085.28
  0
LINE
  8
0
 10
8.92912
 20
1085.28
 11
9.43712
 21
1085.65
  0
LINE
  8
0
 10
9.43712
 20
1085.65
 11
9.89484
 21
1086.08
  0
LINE
  8
0
 10
9.89484
 20
1086.08
 11
10.2951
 21
1086.56
  0
LINE
  8
0
 10
10.2951
 20
1086.56
 11
10.6315
 21
1087.09
  0
LINE
  8
0
 10
10.6315
 20
1087.09
 11
10.8989
 21
1087.66
  0
LINE
  8
0
 10
10.8989
 20
1087.66
 11
11.0929
 21
1088.26
  0
LINE
  8
0
 10
11.0929
 20
1088.26
 11
11.2106
 21
1088.87
  0
LINE
  8
0
 10
11.2106
 20
1088.87
 11
11.25
 21
1089.5
  0
LINE
  8
0
 10
11.25
 20
1089.5
 11
11.25
 21
1214.5
  0
LINE
  8
0
 10
11.25
 20
1214.5
 11
11.2106
 21
1215.13
  0
LINE
  8
0
 10
11.2106
 20
1215.13
 11
11.0929
 21
1215.74
  0
LINE
  8
0
 10
11.0929
 20
1215.74
 11
10.8989
 21
1216.34
  0
LINE
  8
0
 10
10.8989
 20
1216.34
 11
10.6315
 21
1216.91
  0
LINE
  8
0
 10
10.6315
 20
1216.91
 11
10.2951
 21
1217.44
  0
LINE
  8
0
 10
10.2951
 20
1217.44
 11
9.89484
 21
1217.92
  0
LINE
  8
0
 10
9.89484
 20
1217.92
 11
9.43712
 21
1218.35
  0
LINE
  8
0
 10
9.43712
 20
1218.35
 11
8.92912
 21
1218.72
  0
LINE
  8
0
 10
8.92912
 20
1218.72
 11
8.37889
 21
1219.02
  0
LINE
  8
0
 10
8.37889
 20
1219.02
 11
7.79507
 21
1219.26
  0
LINE
  8
0
 10
7.79507
 20
1219.26
 11
7.1869
 21
1219.41
  0
LINE
  8
0
 10
7.1869
 20
1219.41
 11
6.56395
 21
1219.49
  0
LINE
  8
0
 10
6.56395
 20
1219.49
 11
-6.56395
 21
1219.49
  0
LINE
  8
0
 10
-6.56395
 20
1219.49
 11
-7.1869
 21
1219.41
  0
LINE
  8
0
 10
-7.1869
 20
1219.41
 11
-7.79507
 21
1219.26
  0
LINE
  8
0
 10
-7.79507
 20
1219.26
 11
-8.37889
 21
1219.02
  0
LINE
  8
0
 10
-8.37889
 20
1219.02
 11
-8.92912
 21
1218.72
  0
LINE
  8
0
 10
-8.92912
 20
1218.72
 11
-9.43712
 21
1218.35
  0
LINE
  8
0
 10
-9.43712
 20
1218.35
 11
-9.89484
 21
1217.92
  0
LINE
  8
0
 10
-9.89484
 20
1217.92
 11
-10.2951
 21
1217.44
  0
LINE
  8
0
 10
-10.2951
 20
1217.44
 11
-10.6315
 21
1216.91
  0
LINE
  8
0
 10
-10.6315
 20
1216.91
 11
-10.8989
 21
1216.34
  0
LINE
  8
0
 10
-10.8989
 20
1216.34
 11
-11.0929
 21
1215.74
  0
LINE
  8
0
 10
-11.0929
 20
1215.74
 11
-11.2106
 21
1215.13
  0
LINE
  8
0
 10
-11.2106
 20
1215.13
 11
-11.25
 21
1214.5
  0
LINE
  8
0
 10
-11.25
 20
1214.5
 11
-11.25
 21
1089.5
  0
LINE
  8
0
 10
-11.25
 20
1089.5
 11
-11.2106
 21
1088.87
  0
LINE
  8
0
 10
-11.2106
 20
1088.87
 11
-11.0929
 21
1088.26
  0
LINE
  8
0
 10
-11.0929
 20
1088.26
 11
-10.8989
 21
1087.66
  0
LINE
  8
0
 10
-10.8989
 20
1087.66
 11
-10.6315
 21
1087.09
  0
LINE
  8
0
 10
-10.6315
 20
1087.09
 11
-10.2951
 21
1086.56
  0
LINE
  8
0
 10
-10.2951
 20
1086.56
 11
-9.89484
 21
1086.08
  0
LINE
  8
0
 10
-9.89484
 20
1086.08
 11
-9.43712
 21
1085.65
  0
LINE
  8
0
 10
-9.43712
 20
1085.65
 11
-8.92912
 21
1085.28
  0
LINE
  8
0
 10
-8.92912
 20
1085.28
 11
-8.37889
 21
1084.98
  0
LINE
  8
0
 10
-8.37889
 20
1084.98
 11
-7.79507
 21
1084.74
  0
LINE
  8
0
 10
-7.79507
 20
1084.74
 11
-7.1869
 21
1084.59
  0
LINE
  8
0
 10
-7.1869
 20
1084.59
 11
-6.56395
 21
1084.51
  0
LINE
  8
0
 10
-6.56395
 20
1084.51
 11
6.56395
 21
1084.51
  0
LINE
  8
0
 10
6.56395
 20
1084.51
 11
7.1869
 21
1084.59
  0
LINE
  8
0
 10
-6.00116
 20
1086.01
 11
-6.49951
 21
1086.07
  0
LINE
  8
0
 10
-6.49951
 20
1086.07
 11
-6.98605
 21
1086.2
  0
LINE
  8
0
 10
-6.98605
 20
1086.2
 11
-7.45311
 21
1086.38
  0
LINE
  8
0
 10
-7.45311
 20
1086.38
 11
-7.8933
 21
1086.62
  0
LINE
  8
0
 10
-7.8933
 20
1086.62
 11
-8.29968
 21
1086.92
  0
LINE
  8
0
 10
-8.29968
 20
1086.92
 11
-8.66586
 21
1087.26
  0
LINE
  8
0
 10
-8.66586
 20
1087.26
 11
-8.98605
 21
1087.65
  0
LINE
  8
0
 10
-8.98605
 20
1087.65
 11
-9.25522
 21
1088.07
  0
LINE
  8
0
 10
-9.25522
 20
1088.07
 11
-9.4691
 21
1088.53
  0
LINE
  8
0
 10
-9.4691
 20
1088.53
 11
-9.62433
 21
1089.01
  0
LINE
  8
0
 10
-9.62433
 20
1089.01
 11
-9.71844
 21
1089.5
  0
LINE
  8
0
 10
-9.71844
 20
1089.5
 11
-9.75
 21
1090
  0
LINE
  8
0
 10
-9.75
 20
1090
 11
-9.75
 21
1214
  0
LINE
  8
0
 10
-9.75
 20
1214
 11
-9.71844
 21
1214.5
  0
LINE
  8
0
 10
-9.71844
 20
1214.5
 11
-9.62433
 21
1214.99
  0
LINE
  8
0
 10
-9.62433
 20
1214.99
 11
-9.4691
 21
1215.47
  0
LINE
  8
0
 10
-9.4691
 20
1215.47
 11
-9.25522
 21
1215.93
  0
LINE
  8
0
 10
-9.25522
 20
1215.93
 11
-8.98605
 21
1216.35
  0
LINE
  8
0
 10
-8.98605
 20
1216.35
 11
-8.66586
 21
1216.74
  0
LINE
  8
0
 10
-8.66586
 20
1216.74
 11
-8.29968
 21
1217.08
  0
LINE
  8
0
 10
-8.29968
 20
1217.08
 11
-7.8933
 21
1217.38
  0
LINE
  8
0
 10
-7.8933
 20
1217.38
 11
-7.45311
 21
1217.62
  0
LINE
  8
0
 10
-7.45311
 20
1217.62
 11
-6.98605
 21
1217.8
  0
LINE
  8
0
 10
-6.98605
 20
1217.8
 11
-6.49951
 21
1217.93
  0
LINE
  8
0
 10
-6.49951
 20
1217.93
 11
-6.00116
 21
1217.99
  0
LINE
  8
0
 10
-6.00116
 20
1217.99
 11
6.00116
 21
1217.99
  0
LINE
  8
0
 10
6.00116
 20
1217.99
 11
6.49951
 21
1217.93
  0
LINE
  8
0
 10
6.49951
 20
1217.93
 11
6.98605
 21
1217.8
  0
LINE
  8
0
 10
6.98605
 20
1217.8
 11
7.45311
 21
1217.62
  0
LINE
  8
0
 10
7.45311
 20
1217.62
 11
7.8933
 21
1217.38
  0
LINE
  8
0
 10
7.8933
 20
1217.38
 11
8.29968
 21
1217.08
  0
LINE
  8
0
 10
8.29968
 20
1217.08
 11
8.66586
 21
1216.74
  0
LINE
  8
0
 10
8.66586
 20
1216.74
 11
8.98605
 21
1216.35
  0
LINE
  8
0
 10
8.98605
 20
1216.35
 11
9.25522
 21
1215.93
  0
LINE
  8
0
 10
9.25522
 20
1215.93
 11
9.4691
 21
1215.47
  0
LINE
  8
0
 10
9.4691
 20
1215.47
 11
9.62433
 21
1214.99
  0
LINE
  8
0
 10
9.62433
 20
1214.99
 11
9.71844
 21
1214.5
  0
LINE
  8
0
 10
9.71844
 20
1214.5
 11
9.75
 21
1214
  0
LINE
  8
0
 10
9.75
 20
1214
 11
9.75
 21
1090
  0
LINE
  8
0
 10
9.75
 20
1090
 11
9.71844
 21
1089.5
  0
LINE
  8
0
 10
9.71844
 20
1089.5
 11
9.62433
 21
1089.01
  0
LINE
  8
0
 10
9.62433
 20
1089.01
 11
9.4691
 21
1088.53
  0
LINE
  8
0
 10
9.4691
 20
1088.53
 11
9.25522
 21
1088.07
  0
LINE
  8
0
 10
9.25522
 20
1088.07
 11
8.98605
 21
1087.65
  0
LINE
  8
0
 10
8.98605
 20
1087.65
 11
8.66586
 21
1087.26
  0
LINE
  8
0
 10
8.66586
 20
1087.26
 11
8.29968
 21
1086.92
  0
LINE
  8
0
 10
8.29968
 20
1086.92
 11
7.8933
 21
1086.62
  0
LINE
  8
0
 10
7.8933
 20
1086.62
 11
7.45311
 21
1086.38
  0
LINE
  8
0
 10
7.45311
 20
1086.38
 11
6.98605
 21
1086.2
  0
LINE
  8
0
 10
6.98605
 20
1086.2
 11
6.49951
 21
1086.07
  0
LINE
  8
0
 10
6.49951
 20
1086.07
 11
6.00116
 21
1086.01
  0
LINE
  8
0
 10
6.00116
 20
1086.01
 11
-6.00116
 21
1086.01
  0
LINE
  8
0
 10
7.1869
 20
940.589
 11
7.79507
 21
940.745
  0
LINE
  8
0
 10
7.79507
 20
940.745
 11
8.37889
 21
940.976
  0
LINE
  8
0
 10
8.37889
 20
940.976
 11
8.92912
 21
941.278
  0
LINE
  8
0
 10
8.92912
 20
941.278
 11
9.43712
 21
941.647
  0
LINE
  8
0
 10
9.43712
 20
941.647
 11
9.89484
 21
942.077
  0
LINE
  8
0
 10
9.89484
 20
942.077
 11
10.2951
 21
942.561
  0
LINE
  8
0
 10
10.2951
 20
942.561
 11
10.6315
 21
943.091
  0
LINE
  8
0
 10
10.6315
 20
943.091
 11
10.8989
 21
943.659
  0
LINE
  8
0
 10
10.8989
 20
943.659
 11
11.0929
 21
944.257
  0
LINE
  8
0
 10
11.0929
 20
944.257
 11
11.2106
 21
944.873
  0
LINE
  8
0
 10
11.2106
 20
944.873
 11
11.25
 21
945.5
  0
LINE
  8
0
 10
11.25
 20
945.5
 11
11.25
 21
1070.5
  0
LINE
  8
0
 10
11.25
 20
1070.5
 11
11.2106
 21
1071.13
  0
LINE
  8
0
 10
11.2106
 20
1071.13
 11
11.0929
 21
1071.74
  0
LINE
  8
0
 10
11.0929
 20
1071.74
 11
10.8989
 21
1072.34
  0
LINE
  8
0
 10
10.8989
 20
1072.34
 11
10.6315
 21
1072.91
  0
LINE
  8
0
 10
10.6315
 20
1072.91
 11
10.2951
 21
1073.44
  0
LINE
  8
0
 10
10.2951
 20
1073.44
 11
9.89484
 21
1073.92
  0
LINE
  8
0
 10
9.89484
 20
1073.92
 11
9.43712
 21
1074.35
  0
LINE
  8
0
 10
9.43712
 20
1074.35
 11
8.92912
 21
1074.72
  0
LINE
  8
0
 10
8.92912
 20
1074.72
 11
8.37889
 21
1075.02
  0
LINE
  8
0
 10
8.37889
 20
1075.02
 11
7.79507
 21
1075.26
  0
LINE
  8
0
 10
7.79507
 20
1075.26
 11
7.1869
 21
1075.41
  0
LINE
  8
0
 10
7.1869
 20
1075.41
 11
6.56395
 21
1075.49
  0
LINE
  8
0
 10
6.56395
 20
1075.49
 11
-6.56395
 21
1075.49
  0
LINE
  8
0
 10
-6.56395
 20
1075.49
 11
-7.1869
 21
1075.41
  0
LINE
  8
0
 10
-7.1869
 20
1075.41
 11
-7.79507
 21
1075.26
  0
LINE
  8
0
 10
-7.79507
 20
1075.26
 11
-8.37889
 21
1075.02
  0
LINE
  8
0
 10
-8.37889
 20
1075.02
 11
-8.92912
 21
1074.72
  0
LINE
  8
0
 10
-8.92912
 20
1074.72
 11
-9.43712
 21
1074.35
  0
LINE
  8
0
 10
-9.43712
 20
1074.35
 11
-9.89484
 21
1073.92
  0
LINE
  8
0
 10
-9.89484
 20
1073.92
 11
-10.2951
 21
1073.44
  0
LINE
  8
0
 10
-10.2951
 20
1073.44
 11
-10.6315
 21
1072.91
  0
LINE
  8
0
 10
-10.6315
 20
1072.91
 11
-10.8989
 21
1072.34
  0
LINE
  8
0
 10
-10.8989
 20
1072.34
 11
-11.0929
 21
1071.74
  0
LINE
  8
0
 10
-11.0929
 20
1071.74
 11
-11.2106
 21
1071.13
  0
LINE
  8
0
 10
-11.2106
 20
1071.13
 11
-11.25
 21
1070.5
  0
LINE
  8
0
 10
-11.25
 20
1070.5
 11
-11.25
 21
945.5
  0
LINE
  8
0
 10
-11.25
 20
945.5
 11
-11.2106
 21
944.873
  0
LINE
  8
0
 10
-11.2106
 20
944.873
 11
-11.0929
 21
944.257
  0
LINE
  8
0
 10
-11.0929
 20
944.257
 11
-10.8989
 21
943.659
  0
LINE
  8
0
 10
-10.8989
 20
943.659
 11
-10.6315
 21
943.091
  0
LINE
  8
0
 10
-10.6315
 20
943.091
 11
-10.2951
 21
942.561
  0
LINE
  8
0
 10
-10.2951
 20
942.561
 11
-9.89484
 21
942.077
  0
LINE
  8
0
 10
-9.89484
 20
942.077
 11
-9.43712
 21
941.647
  0
LINE
  8
0
 10
-9.43712
 20
941.647
 11
-8.92912
 21
941.278
  0
LINE
  8
0
 10
-8.92912
 20
941.278
 11
-8.37889
 21
940.976
  0
LINE
  8
0
 10
-8.37889
 20
940.976
 11
-7.79507
 21
940.745
  0
LINE
  8
0
 10
-7.79507
 20
940.745
 11
-7.1869
 21
940.589
  0
LINE
  8
0
 10
-7.1869
 20
940.589
 11
-6.56395
 21
940.51
  0
LINE
  8
0
 10
-6.56395
 20
940.51
 11
6.56395
 21
940.51
  0
LINE
  8
0
 10
6.56395
 20
940.51
 11
7.1869
 21
940.589
  0
LINE
  8
0
 10
-6.00116
 20
942.008
 11
-6.49951
 21
942.071
  0
LINE
  8
0
 10
-6.49951
 20
942.071
 11
-6.98605
 21
942.196
  0
LINE
  8
0
 10
-6.98605
 20
942.196
 11
-7.45311
 21
942.381
  0
LINE
  8
0
 10
-7.45311
 20
942.381
 11
-7.8933
 21
942.623
  0
LINE
  8
0
 10
-7.8933
 20
942.623
 11
-8.29968
 21
942.918
  0
LINE
  8
0
 10
-8.29968
 20
942.918
 11
-8.66586
 21
943.262
  0
LINE
  8
0
 10
-8.66586
 20
943.262
 11
-8.98605
 21
943.649
  0
LINE
  8
0
 10
-8.98605
 20
943.649
 11
-9.25522
 21
944.073
  0
LINE
  8
0
 10
-9.25522
 20
944.073
 11
-9.4691
 21
944.528
  0
LINE
  8
0
 10
-9.4691
 20
944.528
 11
-9.62433
 21
945.005
  0
LINE
  8
0
 10
-9.62433
 20
945.005
 11
-9.71844
 21
945.499
  0
LINE
  8
0
 10
-9.71844
 20
945.499
 11
-9.75
 21
946
  0
LINE
  8
0
 10
-9.75
 20
946
 11
-9.75
 21
1070
  0
LINE
  8
0
 10
-9.75
 20
1070
 11
-9.71844
 21
1070.5
  0
LINE
  8
0
 10
-9.71844
 20
1070.5
 11
-9.62433
 21
1070.99
  0
LINE
  8
0
 10
-9.62433
 20
1070.99
 11
-9.4691
 21
1071.47
  0
LINE
  8
0
 10
-9.4691
 20
1071.47
 11
-9.25522
 21
1071.93
  0
LINE
  8
0
 10
-9.25522
 20
1071.93
 11
-8.98605
 21
1072.35
  0
LINE
  8
0
 10
-8.98605
 20
1072.35
 11
-8.66586
 21
1072.74
  0
LINE
  8
0
 10
-8.66586
 20
1072.74
 11
-8.29968
 21
1073.08
  0
LINE
  8
0
 10
-8.29968
 20
1073.08
 11
-7.8933
 21
1073.38
  0
LINE
  8
0
 10
-7.8933
 20
1073.38
 11
-7.45311
 21
1073.62
  0
LINE
  8
0
 10
-7.45311
 20
1073.62
 11
-6.98605
 21
1073.8
  0
LINE
  8
0
 10
-6.98605
 20
1073.8
 11
-6.49951
 21
1073.93
  0
LINE
  8
0
 10
-6.49951
 20
1073.93
 11
-6.00116
 21
1073.99
  0
LINE
  8
0
 10
-6.00116
 20
1073.99
 11
6.00116
 21
1073.99
  0
LINE
  8
0
 10
6.00116
 20
1073.99
 11
6.49951
 21
1073.93
  0
LINE
  8
0
 10
6.49951
 20
1073.93
 11
6.98605
 21
1073.8
  0
LINE
  8
0
 10
6.98605
 20
1073.8
 11
7.45311
 21
1073.62
  0
LINE
  8
0
 10
7.45311
 20
1073.62
 11
7.8933
 21
1073.38
  0
LINE
  8
0
 10
7.8933
 20
1073.38
 11
8.29968
 21
1073.08
  0
LINE
  8
0
 10
8.29968
 20
1073.08
 11
8.66586
 21
1072.74
  0
LINE
  8
0
 10
8.66586
 20
1072.74
 11
8.98605
 21
1072.35
  0
LINE
  8
0
 10
8.98605
 20
1072.35
 11
9.25522
 21
1071.93
  0
LINE
  8
0
 10
9.25522
 20
1071.93
 11
9.4691
 21
1071.47
  0
LINE
  8
0
 10
9.4691
 20
1071.47
 11
9.62433
 21
1070.99
  0
LINE
  8
0
 10
9.62433
 20
1070.99
 11
9.71844
 21
1070.5
  0
LINE
  8
0
 10
9.71844
 20
1070.5
 11
9.75
 21
1070
  0
LINE
  8
0
 10
9.75
 20
1070
 11
9.75
 21
946
  0
LINE
  8
0
 10
9.75
 20
946
 11
9.71844
 21
945.499
  0
LINE
  8
0
 10
9.71844
 20
945.499
 11
9.62433
 21
945.005
  0
LINE
  8
0
 10
9.62433
 20
945.005
 11
9.4691
 21
944.528
  0
LINE
  8
0
 10
9.4691
 20
944.528
 11
9.25522
 21
944.073
  0
LINE
  8
0
 10
9.25522
 20
944.073
 11
8.98605
 21
943.649
  0
LINE
  8
0
 10
8.98605
 20
943.649
 11
8.66586
 21
943.262
  0
LINE
  8
0
 10
8.66586
 20
943.262
 11
8.29968
 21
942.918
  0
LINE
  8
0
 10
8.29968
 20
942.918
 11
7.8933
 21
942.623
  0
LINE
  8
0
 10
7.8933
 20
942.623
 11
7.45311
 21
942.381
  0
LINE
  8
0
 10
7.45311
 20
942.381
 11
6.98605
 21
942.196
  0
LINE
  8
0
 10
6.98605
 20
942.196
 11
6.49951
 21
942.071
  0
LINE
  8
0
 10
6.49951
 20
942.071
 11
6.00116
 21
942.008
  0
LINE
  8
0
 10
6.00116
 20
942.008
 11
-6.00116
 21
942.008
  0
LINE
  8
0
 10
7.1869
 20
796.589
 11
7.79507
 21
796.745
  0
LINE
  8
0
 10
7.79507
 20
796.745
 11
8.37889
 21
796.976
  0
LINE
  8
0
 10
8.37889
 20
796.976
 11
8.92912
 21
797.278
  0
LINE
  8
0
 10
8.92912
 20
797.278
 11
9.43712
 21
797.647
  0
LINE
  8
0
 10
9.43712
 20
797.647
 11
9.89484
 21
798.077
  0
LINE
  8
0
 10
9.89484
 20
798.077
 11
10.2951
 21
798.561
  0
LINE
  8
0
 10
10.2951
 20
798.561
 11
10.6315
 21
799.091
  0
LINE
  8
0
 10
10.6315
 20
799.091
 11
10.8989
 21
799.659
  0
LINE
  8
0
 10
10.8989
 20
799.659
 11
11.0929
 21
800.257
  0
LINE
  8
0
 10
11.0929
 20
800.257
 11
11.2106
 21
800.873
  0
LINE
  8
0
 10
11.2106
 20
800.873
 11
11.25
 21
801.5
  0
LINE
  8
0
 10
11.25
 20
801.5
 11
11.25
 21
926.5
  0
LINE
  8
0
 10
11.25
 20
926.5
 11
11.2106
 21
927.127
  0
LINE
  8
0
 10
11.2106
 20
927.127
 11
11.0929
 21
927.743
  0
LINE
  8
0
 10
11.0929
 20
927.743
 11
10.8989
 21
928.341
  0
LINE
  8
0
 10
10.8989
 20
928.341
 11
10.6315
 21
928.909
  0
LINE
  8
0
 10
10.6315
 20
928.909
 11
10.2951
 21
929.439
  0
LINE
  8
0
 10
10.2951
 20
929.439
 11
9.89484
 21
929.923
  0
LINE
  8
0
 10
9.89484
 20
929.923
 11
9.43712
 21
930.353
  0
LINE
  8
0
 10
9.43712
 20
930.353
 11
8.92912
 21
930.722
  0
LINE
  8
0
 10
8.92912
 20
930.722
 11
8.37889
 21
931.024
  0
LINE
  8
0
 10
8.37889
 20
931.024
 11
7.79507
 21
931.255
  0
LINE
  8
0
 10
7.79507
 20
931.255
 11
7.1869
 21
931.411
  0
LINE
  8
0
 10
7.1869
 20
931.411
 11
6.56395
 21
931.49
  0
LINE
  8
0
 10
6.56395
 20
931.49
 11
-6.56395
 21
931.49
  0
LINE
  8
0
 10
-6.56395
 20
931.49
 11
-7.1869
 21
931.411
  0
LINE
  8
0
 10
-7.1869
 20
931.411
 11
-7.79507
 21
931.255
  0
LINE
  8
0
 10
-7.79507
 20
931.255
 11
-8.37889
 21
931.024
  0
LINE
  8
0
 10
-8.37889
 20
931.024
 11
-8.92912
 21
930.722
  0
LINE
  8
0
 10
-8.92912
 20
930.722
 11
-9.43712
 21
930.353
  0
LINE
  8
0
 10
-9.43712
 20
930.353
 11
-9.89484
 21
929.923
  0
LINE
  8
0
 10
-9.89484
 20
929.923
 11
-10.2951
 21
929.439
  0
LINE
  8
0
 10
-10.2951
 20
929.439
 11
-10.6315
 21
928.909
  0
LINE
  8
0
 10
-10.6315
 20
928.909
 11
-10.8989
 21
928.341
  0
LINE
  8
0
 10
-10.8989
 20
928.341
 11
-11.0929
 21
927.743
  0
LINE
  8
0
 10
-11.0929
 20
927.743
 11
-11.2106
 21
927.127
  0
LINE
  8
0
 10
-11.2106
 20
927.127
 11
-11.25
 21
926.5
  0
LINE
  8
0
 10
-11.25
 20
926.5
 11
-11.25
 21
801.5
  0
LINE
  8
0
 10
-11.25
 20
801.5
 11
-11.2106
 21
800.873
  0
LINE
  8
0
 10
-11.2106
 20
800.873
 11
-11.0929
 21
800.257
  0
LINE
  8
0
 10
-11.0929
 20
800.257
 11
-10.8989
 21
799.659
  0
LINE
  8
0
 10
-10.8989
 20
799.659
 11
-10.6315
 21
799.091
  0
LINE
  8
0
 10
-10.6315
 20
799.091
 11
-10.2951
 21
798.561
  0
LINE
  8
0
 10
-10.2951
 20
798.561
 11
-9.89484
 21
798.077
  0
LINE
  8
0
 10
-9.89484
 20
798.077
 11
-9.43712
 21
797.647
  0
LINE
  8
0
 10
-9.43712
 20
797.647
 11
-8.92912
 21
797.278
  0
LINE
  8
0
 10
-8.92912
 20
797.278
 11
-8.37889
 21
796.976
  0
LINE
  8
0
 10
-8.37889
 20
796.976
 11
-7.79507
 21
796.745
  0
LINE
  8
0
 10
-7.79507
 20
796.745
 11
-7.1869
 21
796.589
  0
LINE
  8
0
 10
-7.1869
 20
796.589
 11
-6.56395
 21
796.51
  0
LINE
  8
0
 10
-6.56395
 20
796.51
 11
6.56395
 21
796.51
  0
LINE
  8
0
 10
6.56395
 20
796.51
 11
7.1869
 21
796.589
  0
LINE
  8
0
 10
-5.99316
 20
798.135
 11
-6.47565
 21
798.196
  0
LINE
  8
0
 10
-6.47565
 20
798.196
 11
-6.9467
 21
798.317
  0
LINE
  8
0
 10
-6.9467
 20
798.317
 11
-7.39888
 21
798.496
  0
LINE
  8
0
 10
-7.39888
 20
798.496
 11
-7.82506
 21
798.73
  0
LINE
  8
0
 10
-7.82506
 20
798.73
 11
-8.21851
 21
799.016
  0
LINE
  8
0
 10
-8.21851
 20
799.016
 11
-8.57301
 21
799.349
  0
LINE
  8
0
 10
-8.57301
 20
799.349
 11
-8.88301
 21
799.724
  0
LINE
  8
0
 10
-8.88301
 20
799.724
 11
-9.1436
 21
800.134
  0
LINE
  8
0
 10
-9.1436
 20
800.134
 11
-9.35068
 21
800.574
  0
LINE
  8
0
 10
-9.35068
 20
800.574
 11
-9.50096
 21
801.037
  0
LINE
  8
0
 10
-9.50096
 20
801.037
 11
-9.59209
 21
801.515
  0
LINE
  8
0
 10
-9.59209
 20
801.515
 11
-9.62262
 21
802
  0
LINE
  8
0
 10
-9.62262
 20
802
 11
-9.62262
 21
926
  0
LINE
  8
0
 10
-9.62262
 20
926
 11
-9.59209
 21
926.485
  0
LINE
  8
0
 10
-9.59209
 20
926.485
 11
-9.50096
 21
926.963
  0
LINE
  8
0
 10
-9.50096
 20
926.963
 11
-9.35068
 21
927.426
  0
LINE
  8
0
 10
-9.35068
 20
927.426
 11
-9.1436
 21
927.866
  0
LINE
  8
0
 10
-9.1436
 20
927.866
 11
-8.88301
 21
928.276
  0
LINE
  8
0
 10
-8.88301
 20
928.276
 11
-8.57301
 21
928.651
  0
LINE
  8
0
 10
-8.57301
 20
928.651
 11
-8.21851
 21
928.984
  0
LINE
  8
0
 10
-8.21851
 20
928.984
 11
-7.82506
 21
929.27
  0
LINE
  8
0
 10
-7.82506
 20
929.27
 11
-7.39888
 21
929.504
  0
LINE
  8
0
 10
-7.39888
 20
929.504
 11
-6.9467
 21
929.683
  0
LINE
  8
0
 10
-6.9467
 20
929.683
 11
-6.47565
 21
929.804
  0
LINE
  8
0
 10
-6.47565
 20
929.804
 11
-5.99316
 21
929.865
  0
LINE
  8
0
 10
-5.99316
 20
929.865
 11
5.99316
 21
929.865
  0
LINE
  8
0
 10
5.99316
 20
929.865
 11
6.47565
 21
929.804
  0
LINE
  8
0
 10
6.47565
 20
929.804
 11
6.9467
 21
929.683
  0
LINE
  8
0
 10
6.9467
 20
929.683
 11
7.39888
 21
929.504
  0
LINE
  8
0
 10
7.39888
 20
929.504
 11
7.82506
 21
929.27
  0
LINE
  8
0
 10
7.82506
 20
929.27
 11
8.21851
 21
928.984
  0
LINE
  8
0
 10
8.21851
 20
928.984
 11
8.57301
 21
928.651
  0
LINE
  8
0
 10
8.57301
 20
928.651
 11
8.88301
 21
928.276
  0
LINE
  8
0
 10
8.88301
 20
928.276
 11
9.1436
 21
927.866
  0
LINE
  8
0
 10
9.1436
 20
927.866
 11
9.35068
 21
927.426
  0
LINE
  8
0
 10
9.35068
 20
927.426
 11
9.50096
 21
926.963
  0
LINE
  8
0
 10
9.50096
 20
926.963
 11
9.59209
 21
926.485
  0
LINE
  8
0
 10
9.59209
 20
926.485
 11
9.62262
 21
926
  0
LINE
  8
0
 10
9.62262
 20
926
 11
9.62262
 21
802
  0
LINE
  8
0
 10
9.62262
 20
802
 11
9.59209
 21
801.515
  0
LINE
  8
0
 10
9.59209
 20
801.515
 11
9.50096
 21
801.037
  0
LINE
  8
0
 10
9.50096
 20
801.037
 11
9.35068
 21
800.574
  0
LINE
  8
0
 10
9.35068
 20
800.574
 11
9.1436
 21
800.134
  0
LINE
  8
0
 10
9.1436
 20
800.134
 11
8.88301
 21
799.724
  0
LINE
  8
0
 10
8.88301
 20
799.724
 11
8.57301
 21
799.349
  0
LINE
  8
0
 10
8.57301
 20
799.349
 11
8.21851
 21
799.016
  0
LINE
  8
0
 10
8.21851
 20
799.016
 11
7.82506
 21
798.73
  0
LINE
  8
0
 10
7.82506
 20
798.73
 11
7.39888
 21
798.496
  0
LINE
  8
0
 10
7.39888
 20
798.496
 11
6.9467
 21
798.317
  0
LINE
  8
0
 10
6.9467
 20
798.317
 11
6.47565
 21
798.196
  0
LINE
  8
0
 10
6.47565
 20
798.196
 11
5.99316
 21
798.135
  0
LINE
  8
0
 10
5.99316
 20
798.135
 11
-5.99316
 21
798.135
  0
LINE
  8
0
 10
7.1869
 20
652.589
 11
7.79507
 21
652.745
  0
LINE
  8
0
 10
7.79507
 20
652.745
 11
8.37889
 21
652.976
  0
LINE
  8
0
 10
8.37889
 20
652.976
 11
8.92912
 21
653.278
  0
LINE
  8
0
 10
8.92912
 20
653.278
 11
9.43712
 21
653.647
  0
LINE
  8
0
 10
9.43712
 20
653.647
 11
9.89484
 21
654.077
  0
LINE
  8
0
 10
9.89484
 20
654.077
 11
10.2951
 21
654.561
  0
LINE
  8
0
 10
10.2951
 20
654.561
 11
10.6315
 21
655.091
  0
LINE
  8
0
 10
10.6315
 20
655.091
 11
10.8989
 21
655.659
  0
LINE
  8
0
 10
10.8989
 20
655.659
 11
11.0929
 21
656.257
  0
LINE
  8
0
 10
11.0929
 20
656.257
 11
11.2106
 21
656.873
  0
LINE
  8
0
 10
11.2106
 20
656.873
 11
11.25
 21
657.5
  0
LINE
  8
0
 10
11.25
 20
657.5
 11
11.25
 21
782.5
  0
LINE
  8
0
 10
11.25
 20
782.5
 11
11.2106
 21
783.127
  0
LINE
  8
0
 10
11.2106
 20
783.127
 11
11.0929
 21
783.743
  0
LINE
  8
0
 10
11.0929
 20
783.743
 11
10.8989
 21
784.341
  0
LINE
  8
0
 10
10.8989
 20
784.341
 11
10.6315
 21
784.909
  0
LINE
  8
0
 10
10.6315
 20
784.909
 11
10.2951
 21
785.439
  0
LINE
  8
0
 10
10.2951
 20
785.439
 11
9.89484
 21
785.923
  0
LINE
  8
0
 10
9.89484
 20
785.923
 11
9.43712
 21
786.353
  0
LINE
  8
0
 10
9.43712
 20
786.353
 11
8.92912
 21
786.722
  0
LINE
  8
0
 10
8.92912
 20
786.722
 11
8.37889
 21
787.024
  0
LINE
  8
0
 10
8.37889
 20
787.024
 11
7.79507
 21
787.255
  0
LINE
  8
0
 10
7.79507
 20
787.255
 11
7.1869
 21
787.411
  0
LINE
  8
0
 10
7.1869
 20
787.411
 11
6.56395
 21
787.49
  0
LINE
  8
0
 10
6.56395
 20
787.49
 11
-6.56395
 21
787.49
  0
LINE
  8
0
 10
-6.56395
 20
787.49
 11
-7.1869
 21
787.411
  0
LINE
  8
0
 10
-7.1869
 20
787.411
 11
-7.79507
 21
787.255
  0
LINE
  8
0
 10
-7.79507
 20
787.255
 11
-8.37889
 21
787.024
  0
LINE
  8
0
 10
-8.37889
 20
787.024
 11
-8.92912
 21
786.722
  0
LINE
  8
0
 10
-8.92912
 20
786.722
 11
-9.43712
 21
786.353
  0
LINE
  8
0
 10
-9.43712
 20
786.353
 11
-9.89484
 21
785.923
  0
LINE
  8
0
 10
-9.89484
 20
785.923
 11
-10.2951
 21
785.439
  0
LINE
  8
0
 10
-10.2951
 20
785.439
 11
-10.6315
 21
784.909
  0
LINE
  8
0
 10
-10.6315
 20
784.909
 11
-10.8989
 21
784.341
  0
LINE
  8
0
 10
-10.8989
 20
784.341
 11
-11.0929
 21
783.743
  0
LINE
  8
0
 10
-11.0929
 20
783.743
 11
-11.2106
 21
783.127
  0
LINE
  8
0
 10
-11.2106
 20
783.127
 11
-11.25
 21
782.5
  0
LINE
  8
0
 10
-11.25
 20
782.5
 11
-11.25
 21
657.5
  0
LINE
  8
0
 10
-11.25
 20
657.5
 11
-11.2106
 21
656.873
  0
LINE
  8
0
 10
-11.2106
 20
656.873
 11
-11.0929
 21
656.257
  0
LINE
  8
0
 10
-11.0929
 20
656.257
 11
-10.8989
 21
655.659
  0
LINE
  8
0
 10
-10.8989
 20
655.659
 11
-10.6315
 21
655.091
  0
LINE
  8
0
 10
-10.6315
 20
655.091
 11
-10.2951
 21
654.561
  0
LINE
  8
0
 10
-10.2951
 20
654.561
 11
-9.89484
 21
654.077
  0
LINE
  8
0
 10
-9.89484
 20
654.077
 11
-9.43712
 21
653.647
  0
LINE
  8
0
 10
-9.43712
 20
653.647
 11
-8.92912
 21
653.278
  0
LINE
  8
0
 10
-8.92912
 20
653.278
 11
-8.37889
 21
652.976
  0
LINE
  8
0
 10
-8.37889
 20
652.976
 11
-7.79507
 21
652.745
  0
LINE
  8
0
 10
-7.79507
 20
652.745
 11
-7.1869
 21
652.589
  0
LINE
  8
0
 10
-7.1869
 20
652.589
 11
-6.56395
 21
652.51
  0
LINE
  8
0
 10
-6.56395
 20
652.51
 11
6.56395
 21
652.51
  0
LINE
  8
0
 10
6.56395
 20
652.51
 11
7.1869
 21
652.589
  0
LINE
  8
0
 10
3.59929
 20
777.605
 11
3.30028
 21
777.643
  0
LINE
  8
0
 10
3.30028
 20
777.643
 11
3.00835
 21
777.717
  0
LINE
  8
0
 10
3.00835
 20
777.717
 11
2.72812
 21
777.828
  0
LINE
  8
0
 10
2.72812
 20
777.828
 11
2.464
 21
777.974
  0
LINE
  8
0
 10
2.464
 20
777.974
 11
2.22017
 21
778.151
  0
LINE
  8
0
 10
2.22017
 20
778.151
 11
2.00047
 21
778.357
  0
LINE
  8
0
 10
2.00047
 20
778.357
 11
1.80835
 21
778.589
  0
LINE
  8
0
 10
1.80835
 20
778.589
 11
1.64685
 21
778.844
  0
LINE
  8
0
 10
1.64685
 20
778.844
 11
1.51852
 21
779.117
  0
LINE
  8
0
 10
1.51852
 20
779.117
 11
1.4254
 21
779.403
  0
LINE
  8
0
 10
1.4254
 20
779.403
 11
1.36891
 21
779.699
  0
LINE
  8
0
 10
1.36891
 20
779.699
 11
1.34999
 21
780
  0
LINE
  8
0
 10
1.34999
 20
780
 11
1.36891
 21
780.301
  0
LINE
  8
0
 10
1.36891
 20
780.301
 11
1.4254
 21
780.597
  0
LINE
  8
0
 10
1.4254
 20
780.597
 11
1.51852
 21
780.883
  0
LINE
  8
0
 10
1.51852
 20
780.883
 11
1.64685
 21
781.156
  0
LINE
  8
0
 10
1.64685
 20
781.156
 11
1.80835
 21
781.411
  0
LINE
  8
0
 10
1.80835
 20
781.411
 11
2.00047
 21
781.643
  0
LINE
  8
0
 10
2.00047
 20
781.643
 11
2.22017
 21
781.849
  0
LINE
  8
0
 10
2.22017
 20
781.849
 11
2.464
 21
782.026
  0
LINE
  8
0
 10
2.464
 20
782.026
 11
2.72812
 21
782.172
  0
LINE
  8
0
 10
2.72812
 20
782.172
 11
3.00835
 21
782.283
  0
LINE
  8
0
 10
3.00835
 20
782.283
 11
3.30028
 21
782.357
  0
LINE
  8
0
 10
3.30028
 20
782.357
 11
3.59929
 21
782.395
  0
LINE
  8
0
 10
3.59929
 20
782.395
 11
3.9007
 21
782.395
  0
LINE
  8
0
 10
3.9007
 20
782.395
 11
4.19971
 21
782.357
  0
LINE
  8
0
 10
4.19971
 20
782.357
 11
4.49164
 21
782.283
  0
LINE
  8
0
 10
4.49164
 20
782.283
 11
4.77187
 21
782.172
  0
LINE
  8
0
 10
4.77187
 20
782.172
 11
5.03598
 21
782.026
  0
LINE
  8
0
 10
5.03598
 20
782.026
 11
5.27982
 21
781.849
  0
LINE
  8
0
 10
5.27982
 20
781.849
 11
5.49951
 21
781.643
  0
LINE
  8
0
 10
5.49951
 20
781.643
 11
5.69164
 21
781.411
  0
LINE
  8
0
 10
5.69164
 20
781.411
 11
5.85313
 21
781.156
  0
LINE
  8
0
 10
5.85313
 20
781.156
 11
5.98146
 21
780.883
  0
LINE
  8
0
 10
5.98146
 20
780.883
 11
6.07458
 21
780.597
  0
LINE
  8
0
 10
6.07458
 20
780.597
 11
6.13107
 21
780.301
  0
LINE
  8
0
 10
6.13107
 20
780.301
 11
6.14999
 21
780
  0
LINE
  8
0
 10
6.14999
 20
780
 11
6.13107
 21
779.699
  0
LINE
  8
0
 10
6.13107
 20
779.699
 11
6.07458
 21
779.403
  0
LINE
  8
0
 10
6.07458
 20
779.403
 11
5.98146
 21
779.117
  0
LINE
  8
0
 10
5.98146
 20
779.117
 11
5.85313
 21
778.844
  0
LINE
  8
0
 10
5.85313
 20
778.844
 11
5.69164
 21
778.589
  0
LINE
  8
0
 10
5.69164
 20
778.589
 11
5.49951
 21
778.357
  0
LINE
  8
0
 10
5.49951
 20
778.357
 11
5.27982
 21
778.151
  0
LINE
  8
0
 10
5.27982
 20
778.151
 11
5.03598
 21
777.974
  0
LINE
  8
0
 10
5.03598
 20
777.974
 11
4.77187
 21
777.828
  0
LINE
  8
0
 10
4.77187
 20
777.828
 11
4.49164
 21
777.717
  0
LINE
  8
0
 10
4.49164
 20
777.717
 11
4.19971
 21
777.643
  0
LINE
  8
0
 10
4.19971
 20
777.643
 11
3.9007
 21
777.605
  0
LINE
  8
0
 10
3.9007
 20
777.605
 11
3.59929
 21
777.605
  0
LINE
  8
0
 10
-3.9007
 20
777.605
 11
-4.19971
 21
777.643
  0
LINE
  8
0
 10
-4.19971
 20
777.643
 11
-4.49164
 21
777.717
  0
LINE
  8
0
 10
-4.49164
 20
777.717
 11
-4.77187
 21
777.828
  0
LINE
  8
0
 10
-4.77187
 20
777.828
 11
-5.03598
 21
777.974
  0
LINE
  8
0
 10
-5.03598
 20
777.974
 11
-5.27982
 21
778.151
  0
LINE
  8
0
 10
-5.27982
 20
778.151
 11
-5.49951
 21
778.357
  0
LINE
  8
0
 10
-5.49951
 20
778.357
 11
-5.69164
 21
778.589
  0
LINE
  8
0
 10
-5.69164
 20
778.589
 11
-5.85313
 21
778.844
  0
LINE
  8
0
 10
-5.85313
 20
778.844
 11
-5.98146
 21
779.117
  0
LINE
  8
0
 10
-5.98146
 20
779.117
 11
-6.07458
 21
779.403
  0
LINE
  8
0
 10
-6.07458
 20
779.403
 11
-6.13107
 21
779.699
  0
LINE
  8
0
 10
-6.13107
 20
779.699
 11
-6.14999
 21
780
  0
LINE
  8
0
 10
-6.14999
 20
780
 11
-6.13107
 21
780.301
  0
LINE
  8
0
 10
-6.13107
 20
780.301
 11
-6.07458
 21
780.597
  0
LINE
  8
0
 10
-6.07458
 20
780.597
 11
-5.98146
 21
780.883
  0
LINE
  8
0
 10
-5.98146
 20
780.883
 11
-5.85313
 21
781.156
  0
LINE
  8
0
 10
-5.85313
 20
781.156
 11
-5.69164
 21
781.411
  0
LINE
  8
0
 10
-5.69164
 20
781.411
 11
-5.49951
 21
781.643
  0
LINE
  8
0
 10
-5.49951
 20
781.643
 11
-5.27982
 21
781.849
  0
LINE
  8
0
 10
-5.27982
 20
781.849
 11
-5.03598
 21
782.026
  0
LINE
  8
0
 10
-5.03598
 20
782.026
 11
-4.77187
 21
782.172
  0
LINE
  8
0
 10
-4.77187
 20
782.172
 11
-4.49164
 21
782.283
  0
LINE
  8
0
 10
-4.49164
 20
782.283
 11
-4.19971
 21
782.357
  0
LINE
  8
0
 10
-4.19971
 20
782.357
 11
-3.9007
 21
782.395
  0
LINE
  8
0
 10
-3.9007
 20
782.395
 11
-3.59929
 21
782.395
  0
LINE
  8
0
 10
-3.59929
 20
782.395
 11
-3.30028
 21
782.357
  0
LINE
  8
0
 10
-3.30028
 20
782.357
 11
-3.00835
 21
782.283
  0
LINE
  8
0
 10
-3.00835
 20
782.283
 11
-2.72812
 21
782.172
  0
LINE
  8
0
 10
-2.72812
 20
782.172
 11
-2.464
 21
782.026
  0
LINE
  8
0
 10
-2.464
 20
782.026
 11
-2.22017
 21
781.849
  0
LINE
  8
0
 10
-2.22017
 20
781.849
 11
-2.00047
 21
781.643
  0
LINE
  8
0
 10
-2.00047
 20
781.643
 11
-1.80835
 21
781.411
  0
LINE
  8
0
 10
-1.80835
 20
781.411
 11
-1.64685
 21
781.156
  0
LINE
  8
0
 10
-1.64685
 20
781.156
 11
-1.51852
 21
780.883
  0
LINE
  8
0
 10
-1.51852
 20
780.883
 11
-1.4254
 21
780.597
  0
LINE
  8
0
 10
-1.4254
 20
780.597
 11
-1.36891
 21
780.301
  0
LINE
  8
0
 10
-1.36891
 20
780.301
 11
-1.34999
 21
780
  0
LINE
  8
0
 10
-1.34999
 20
780
 11
-1.36891
 21
779.699
  0
LINE
  8
0
 10
-1.36891
 20
779.699
 11
-1.4254
 21
779.403
  0
LINE
  8
0
 10
-1.4254
 20
779.403
 11
-1.51852
 21
779.117
  0
LINE
  8
0
 10
-1.51852
 20
779.117
 11
-1.64685
 21
778.844
  0
LINE
  8
0
 10
-1.64685
 20
778.844
 11
-1.80835
 21
778.589
  0
LINE
  8
0
 10
-1.80835
 20
778.589
 11
-2.00047
 21
778.357
  0
LINE
  8
0
 10
-2.00047
 20
778.357
 11
-2.22017
 21
778.151
  0
LINE
  8
0
 10
-2.22017
 20
778.151
 11
-2.464
 21
777.974
  0
LINE
  8
0
 10
-2.464
 20
777.974
 11
-2.72812
 21
777.828
  0
LINE
  8
0
 10
-2.72812
 20
777.828
 11
-3.00835
 21
777.717
  0
LINE
  8
0
 10
-3.00835
 20
777.717
 11
-3.30028
 21
777.643
  0
LINE
  8
0
 10
-3.30028
 20
777.643
 11
-3.59929
 21
777.605
  0
LINE
  8
0
 10
-3.59929
 20
777.605
 11
-3.9007
 21
777.605
  0
LINE
  8
0
 10
3.59929
 20
657.605
 11
3.30028
 21
657.643
  0
LINE
  8
0
 10
3.30028
 20
657.643
 11
3.00835
 21
657.717
  0
LINE
  8
0
 10
3.00835
 20
657.717
 11
2.72812
 21
657.828
  0
LINE
  8
0
 10
2.72812
 20
657.828
 11
2.464
 21
657.974
  0
LINE
  8
0
 10
2.464
 20
657.974
 11
2.22017
 21
658.151
  0
LINE
  8
0
 10
2.22017
 20
658.151
 11
2.00047
 21
658.357
  0
LINE
  8
0
 10
2.00047
 20
658.357
 11
1.80835
 21
658.589
  0
LINE
  8
0
 10
1.80835
 20
658.589
 11
1.64685
 21
658.844
  0
LINE
  8
0
 10
1.64685
 20
658.844
 11
1.51852
 21
659.117
  0
LINE
  8
0
 10
1.51852
 20
659.117
 11
1.4254
 21
659.403
  0
LINE
  8
0
 10
1.4254
 20
659.403
 11
1.36891
 21
659.699
  0
LINE
  8
0
 10
1.36891
 20
659.699
 11
1.34999
 21
660
  0
LINE
  8
0
 10
1.34999
 20
660
 11
1.36891
 21
660.301
  0
LINE
  8
0
 10
1.36891
 20
660.301
 11
1.4254
 21
660.597
  0
LINE
  8
0
 10
1.4254
 20
660.597
 11
1.51852
 21
660.883
  0
LINE
  8
0
 10
1.51852
 20
660.883
 11
1.64685
 21
661.156
  0
LINE
  8
0
 10
1.64685
 20
661.156
 11
1.80835
 21
661.411
  0
LINE
  8
0
 10
1.80835
 20
661.411
 11
2.00047
 21
661.643
  0
LINE
  8
0
 10
2.00047
 20
661.643
 11
2.22017
 21
661.849
  0
LINE
  8
0
 10
2.22017
 20
661.849
 11
2.464
 21
662.026
  0
LINE
  8
0
 10
2.464
 20
662.026
 11
2.72812
 21
662.172
  0
LINE
  8
0
 10
2.72812
 20
662.172
 11
3.00835
 21
662.283
  0
LINE
  8
0
 10
3.00835
 20
662.283
 11
3.30028
 21
662.357
  0
LINE
  8
0
 10
3.30028
 20
662.357
 11
3.59929
 21
662.395
  0
LINE
  8
0
 10
3.59929
 20
662.395
 11
3.9007
 21
662.395
  0
LINE
  8
0
 10
3.9007
 20
662.395
 11
4.19971
 21
662.357
  0
LINE
  8
0
 10
4.19971
 20
662.357
 11
4.49164
 21
662.283
  0
LINE
  8
0
 10
4.49164
 20
662.283
 11
4.77187
 21
662.172
  0
LINE
  8
0
 10
4.77187
 20
662.172
 11
5.03598
 21
662.026
  0
LINE
  8
0
 10
5.03598
 20
662.026
 11
5.27982
 21
661.849
  0
LINE
  8
0
 10
5.27982
 20
661.849
 11
5.49951
 21
661.643
  0
LINE
  8
0
 10
5.49951
 20
661.643
 11
5.69164
 21
661.411
  0
LINE
  8
0
 10
5.69164
 20
661.411
 11
5.85313
 21
661.156
  0
LINE
  8
0
 10
5.85313
 20
661.156
 11
5.98146
 21
660.883
  0
LINE
  8
0
 10
5.98146
 20
660.883
 11
6.07458
 21
660.597
  0
LINE
  8
0
 10
6.07458
 20
660.597
 11
6.13107
 21
660.301
  0
LINE
  8
0
 10
6.13107
 20
660.301
 11
6.14999
 21
660
  0
LINE
  8
0
 10
6.14999
 20
660
 11
6.13107
 21
659.699
  0
LINE
  8
0
 10
6.13107
 20
659.699
 11
6.07458
 21
659.403
  0
LINE
  8
0
 10
6.07458
 20
659.403
 11
5.98146
 21
659.117
  0
LINE
  8
0
 10
5.98146
 20
659.117
 11
5.85313
 21
658.844
  0
LINE
  8
0
 10
5.85313
 20
658.844
 11
5.69164
 21
658.589
  0
LINE
  8
0
 10
5.69164
 20
658.589
 11
5.49951
 21
658.357
  0
LINE
  8
0
 10
5.49951
 20
658.357
 11
5.27982
 21
658.151
  0
LINE
  8
0
 10
5.27982
 20
658.151
 11
5.03598
 21
657.974
  0
LINE
  8
0
 10
5.03598
 20
657.974
 11
4.77187
 21
657.828
  0
LINE
  8
0
 10
4.77187
 20
657.828
 11
4.49164
 21
657.717
  0
LINE
  8
0
 10
4.49164
 20
657.717
 11
4.19971
 21
657.643
  0
LINE
  8
0
 10
4.19971
 20
657.643
 11
3.9007
 21
657.605
  0
LINE
  8
0
 10
3.9007
 20
657.605
 11
3.59929
 21
657.605
  0
LINE
  8
0
 10
-3.9007
 20
657.605
 11
-4.19971
 21
657.643
  0
LINE
  8
0
 10
-4.19971
 20
657.643
 11
-4.49164
 21
657.717
  0
LINE
  8
0
 10
-4.49164
 20
657.717
 11
-4.77187
 21
657.828
  0
LINE
  8
0
 10
-4.77187
 20
657.828
 11
-5.03598
 21
657.974
  0
LINE
  8
0
 10
-5.03598
 20
657.974
 11
-5.27982
 21
658.151
  0
LINE
  8
0
 10
-5.27982
 20
658.151
 11
-5.49951
 21
658.357
  0
LINE
  8
0
 10
-5.49951
 20
658.357
 11
-5.69164
 21
658.589
  0
LINE
  8
0
 10
-5.69164
 20
658.589
 11
-5.85313
 21
658.844
  0
LINE
  8
0
 10
-5.85313
 20
658.844
 11
-5.98146
 21
659.117
  0
LINE
  8
0
 10
-5.98146
 20
659.117
 11
-6.07458
 21
659.403
  0
LINE
  8
0
 10
-6.07458
 20
659.403
 11
-6.13107
 21
659.699
  0
LINE
  8
0
 10
-6.13107
 20
659.699
 11
-6.14999
 21
660
  0
LINE
  8
0
 10
-6.14999
 20
660
 11
-6.13107
 21
660.301
  0
LINE
  8
0
 10
-6.13107
 20
660.301
 11
-6.07458
 21
660.597
  0
LINE
  8
0
 10
-6.07458
 20
660.597
 11
-5.98146
 21
660.883
  0
LINE
  8
0
 10
-5.98146
 20
660.883
 11
-5.85313
 21
661.156
  0
LINE
  8
0
 10
-5.85313
 20
661.156
 11
-5.69164
 21
661.411
  0
LINE
  8
0
 10
-5.69164
 20
661.411
 11
-5.49951
 21
661.643
  0
LINE
  8
0
 10
-5.49951
 20
661.643
 11
-5.27982
 21
661.849
  0
LINE
  8
0
 10
-5.27982
 20
661.849
 11
-5.03598
 21
662.026
  0
LINE
  8
0
 10
-5.03598
 20
662.026
 11
-4.77187
 21
662.172
  0
LINE
  8
0
 10
-4.77187
 20
662.172
 11
-4.49164
 21
662.283
  0
LINE
  8
0
 10
-4.49164
 20
662.283
 11
-4.19971
 21
662.357
  0
LINE
  8
0
 10
-4.19971
 20
662.357
 11
-3.9007
 21
662.395
  0
LINE
  8
0
 10
-3.9007
 20
662.395
 11
-3.59929
 21
662.395
  0
LINE
  8
0
 10
-3.59929
 20
662.395
 11
-3.30028
 21
662.357
  0
LINE
  8
0
 10
-3.30028
 20
662.357
 11
-3.00835
 21
662.283
  0
LINE
  8
0
 10
-3.00835
 20
662.283
 11
-2.72812
 21
662.172
  0
LINE
  8
0
 10
-2.72812
 20
662.172
 11
-2.464
 21
662.026
  0
LINE
  8
0
 10
-2.464
 20
662.026
 11
-2.22017
 21
661.849
  0
LINE
  8
0
 10
-2.22017
 20
661.849
 11
-2.00047
 21
661.643
  0
LINE
  8
0
 10
-2.00047
 20
661.643
 11
-1.80835
 21
661.411
  0
LINE
  8
0
 10
-1.80835
 20
661.411
 11
-1.64685
 21
661.156
  0
LINE
  8
0
 10
-1.64685
 20
661.156
 11
-1.51852
 21
660.883
  0
LINE
  8
0
 10
-1.51852
 20
660.883
 11
-1.4254
 21
660.597
  0
LINE
  8
0
 10
-1.4254
 20
660.597
 11
-1.36891
 21
660.301
  0
LINE
  8
0
 10
-1.36891
 20
660.301
 11
-1.34999
 21
660
  0
LINE
  8
0
 10
-1.34999
 20
660
 11
-1.36891
 21
659.699
  0
LINE
  8
0
 10
-1.36891
 20
659.699
 11
-1.4254
 21
659.403
  0
LINE
  8
0
 10
-1.4254
 20
659.403
 11
-1.51852
 21
659.117
  0
LINE
  8
0
 10
-1.51852
 20
659.117
 11
-1.64685
 21
658.844
  0
LINE
  8
0
 10
-1.64685
 20
658.844
 11
-1.80835
 21
658.589
  0
LINE
  8
0
 10
-1.80835
 20
658.589
 11
-2.00047
 21
658.357
  0
LINE
  8
0
 10
-2.00047
 20
658.357
 11
-2.22017
 21
658.151
  0
LINE
  8
0
 10
-2.22017
 20
658.151
 11
-2.464
 21
657.974
  0
LINE
  8
0
 10
-2.464
 20
657.974
 11
-2.72812
 21
657.828
  0
LINE
  8
0
 10
-2.72812
 20
657.828
 11
-3.00835
 21
657.717
  0
LINE
  8
0
 10
-3.00835
 20
657.717
 11
-3.30028
 21
657.643
  0
LINE
  8
0
 10
-3.30028
 20
657.643
 11
-3.59929
 21
657.605
  0
LINE
  8
0
 10
-3.59929
 20
657.605
 11
-3.9007
 21
657.605
  0
LINE
  8
0
 10
7.1869
 20
508.589
 11
7.79507
 21
508.745
  0
LINE
  8
0
 10
7.79507
 20
508.745
 11
8.37889
 21
508.976
  0
LINE
  8
0
 10
8.37889
 20
508.976
 11
8.92912
 21
509.278
  0
LINE
  8
0
 10
8.92912
 20
509.278
 11
9.43712
 21
509.647
  0
LINE
  8
0
 10
9.43712
 20
509.647
 11
9.89484
 21
510.077
  0
LINE
  8
0
 10
9.89484
 20
510.077
 11
10.2951
 21
510.561
  0
LINE
  8
0
 10
10.2951
 20
510.561
 11
10.6315
 21
511.091
  0
LINE
  8
0
 10
10.6315
 20
511.091
 11
10.8989
 21
511.659
  0
LINE
  8
0
 10
10.8989
 20
511.659
 11
11.0929
 21
512.257
  0
LINE
  8
0
 10
11.0929
 20
512.257
 11
11.2106
 21
512.873
  0
LINE
  8
0
 10
11.2106
 20
512.873
 11
11.25
 21
513.5
  0
LINE
  8
0
 10
11.25
 20
513.5
 11
11.25
 21
638.5
  0
LINE
  8
0
 10
11.25
 20
638.5
 11
11.2106
 21
639.127
  0
LINE
  8
0
 10
11.2106
 20
639.127
 11
11.0929
 21
639.743
  0
LINE
  8
0
 10
11.0929
 20
639.743
 11
10.8989
 21
640.341
  0
LINE
  8
0
 10
10.8989
 20
640.341
 11
10.6315
 21
640.909
  0
LINE
  8
0
 10
10.6315
 20
640.909
 11
10.2951
 21
641.439
  0
LINE
  8
0
 10
10.2951
 20
641.439
 11
9.89484
 21
641.923
  0
LINE
  8
0
 10
9.89484
 20
641.923
 11
9.43712
 21
642.353
  0
LINE
  8
0
 10
9.43712
 20
642.353
 11
8.92912
 21
642.722
  0
LINE
  8
0
 10
8.92912
 20
642.722
 11
8.37889
 21
643.024
  0
LINE
  8
0
 10
8.37889
 20
643.024
 11
7.79507
 21
643.255
  0
LINE
  8
0
 10
7.79507
 20
643.255
 11
7.1869
 21
643.411
  0
LINE
  8
0
 10
7.1869
 20
643.411
 11
6.56395
 21
643.49
  0
LINE
  8
0
 10
6.56395
 20
643.49
 11
-6.56395
 21
643.49
  0
LINE
  8
0
 10
-6.56395
 20
643.49
 11
-7.1869
 21
643.411
  0
LINE
  8
0
 10
-7.1869
 20
643.411
 11
-7.79507
 21
643.255
  0
LINE
  8
0
 10
-7.79507
 20
643.255
 11
-8.37889
 21
643.024
  0
LINE
  8
0
 10
-8.37889
 20
643.024
 11
-8.92912
 21
642.722
  0
LINE
  8
0
 10
-8.92912
 20
642.722
 11
-9.43712
 21
642.353
  0
LINE
  8
0
 10
-9.43712
 20
642.353
 11
-9.89484
 21
641.923
  0
LINE
  8
0
 10
-9.89484
 20
641.923
 11
-10.2951
 21
641.439
  0
LINE
  8
0
 10
-10.2951
 20
641.439
 11
-10.6315
 21
640.909
  0
LINE
  8
0
 10
-10.6315
 20
640.909
 11
-10.8989
 21
640.341
  0
LINE
  8
0
 10
-10.8989
 20
640.341
 11
-11.0929
 21
639.743
  0
LINE
  8
0
 10
-11.0929
 20
639.743
 11
-11.2106
 21
639.127
  0
LINE
  8
0
 10
-11.2106
 20
639.127
 11
-11.25
 21
638.5
  0
LINE
  8
0
 10
-11.25
 20
638.5
 11
-11.25
 21
513.5
  0
LINE
  8
0
 10
-11.25
 20
513.5
 11
-11.2106
 21
512.873
  0
LINE
  8
0
 10
-11.2106
 20
512.873
 11
-11.0929
 21
512.257
  0
LINE
  8
0
 10
-11.0929
 20
512.257
 11
-10.8989
 21
511.659
  0
LINE
  8
0
 10
-10.8989
 20
511.659
 11
-10.6315
 21
511.091
  0
LINE
  8
0
 10
-10.6315
 20
511.091
 11
-10.2951
 21
510.561
  0
LINE
  8
0
 10
-10.2951
 20
510.561
 11
-9.89484
 21
510.077
  0
LINE
  8
0
 10
-9.89484
 20
510.077
 11
-9.43712
 21
509.647
  0
LINE
  8
0
 10
-9.43712
 20
509.647
 11
-8.92912
 21
509.278
  0
LINE
  8
0
 10
-8.92912
 20
509.278
 11
-8.37889
 21
508.976
  0
LINE
  8
0
 10
-8.37889
 20
508.976
 11
-7.79507
 21
508.745
  0
LINE
  8
0
 10
-7.79507
 20
508.745
 11
-7.1869
 21
508.589
  0
LINE
  8
0
 10
-7.1869
 20
508.589
 11
-6.56395
 21
508.51
  0
LINE
  8
0
 10
-6.56395
 20
508.51
 11
6.56395
 21
508.51
  0
LINE
  8
0
 10
6.56395
 20
508.51
 11
7.1869
 21
508.589
  0
LINE
  8
0
 10
3.63696
 20
634.204
 11
3.4127
 21
634.232
  0
LINE
  8
0
 10
3.4127
 20
634.232
 11
3.19376
 21
634.288
  0
LINE
  8
0
 10
3.19376
 20
634.288
 11
2.9836
 21
634.371
  0
LINE
  8
0
 10
2.9836
 20
634.371
 11
2.78551
 21
634.48
  0
LINE
  8
0
 10
2.78551
 20
634.48
 11
2.60263
 21
634.613
  0
LINE
  8
0
 10
2.60263
 20
634.613
 11
2.43785
 21
634.768
  0
LINE
  8
0
 10
2.43785
 20
634.768
 11
2.29376
 21
634.942
  0
LINE
  8
0
 10
2.29376
 20
634.942
 11
2.17264
 21
635.133
  0
LINE
  8
0
 10
2.17264
 20
635.133
 11
2.0764
 21
635.337
  0
LINE
  8
0
 10
2.0764
 20
635.337
 11
2.00655
 21
635.552
  0
LINE
  8
0
 10
2.00655
 20
635.552
 11
1.96419
 21
635.774
  0
LINE
  8
0
 10
1.96419
 20
635.774
 11
1.95
 21
636
  0
LINE
  8
0
 10
1.95
 20
636
 11
1.96419
 21
636.226
  0
LINE
  8
0
 10
1.96419
 20
636.226
 11
2.00655
 21
636.448
  0
LINE
  8
0
 10
2.00655
 20
636.448
 11
2.0764
 21
636.663
  0
LINE
  8
0
 10
2.0764
 20
636.663
 11
2.17264
 21
636.867
  0
LINE
  8
0
 10
2.17264
 20
636.867
 11
2.29376
 21
637.058
  0
LINE
  8
0
 10
2.29376
 20
637.058
 11
2.43785
 21
637.232
  0
LINE
  8
0
 10
2.43785
 20
637.232
 11
2.60263
 21
637.387
  0
LINE
  8
0
 10
2.60263
 20
637.387
 11
2.78551
 21
637.52
  0
LINE
  8
0
 10
2.78551
 20
637.52
 11
2.9836
 21
637.629
  0
LINE
  8
0
 10
2.9836
 20
637.629
 11
3.19376
 21
637.712
  0
LINE
  8
0
 10
3.19376
 20
637.712
 11
3.4127
 21
637.768
  0
LINE
  8
0
 10
3.4127
 20
637.768
 11
3.63696
 21
637.796
  0
LINE
  8
0
 10
3.63696
 20
637.796
 11
3.86302
 21
637.796
  0
LINE
  8
0
 10
3.86302
 20
637.796
 11
4.08728
 21
637.768
  0
LINE
  8
0
 10
4.08728
 20
637.768
 11
4.30623
 21
637.712
  0
LINE
  8
0
 10
4.30623
 20
637.712
 11
4.51639
 21
637.629
  0
LINE
  8
0
 10
4.51639
 20
637.629
 11
4.71448
 21
637.52
  0
LINE
  8
0
 10
4.71448
 20
637.52
 11
4.89735
 21
637.387
  0
LINE
  8
0
 10
4.89735
 20
637.387
 11
5.06213
 21
637.232
  0
LINE
  8
0
 10
5.06213
 20
637.232
 11
5.20622
 21
637.058
  0
LINE
  8
0
 10
5.20622
 20
637.058
 11
5.32735
 21
636.867
  0
LINE
  8
0
 10
5.32735
 20
636.867
 11
5.42358
 21
636.663
  0
LINE
  8
0
 10
5.42358
 20
636.663
 11
5.49344
 21
636.448
  0
LINE
  8
0
 10
5.49344
 20
636.448
 11
5.5358
 21
636.226
  0
LINE
  8
0
 10
5.5358
 20
636.226
 11
5.54999
 21
636
  0
LINE
  8
0
 10
5.54999
 20
636
 11
5.5358
 21
635.774
  0
LINE
  8
0
 10
5.5358
 20
635.774
 11
5.49344
 21
635.552
  0
LINE
  8
0
 10
5.49344
 20
635.552
 11
5.42358
 21
635.337
  0
LINE
  8
0
 10
5.42358
 20
635.337
 11
5.32735
 21
635.133
  0
LINE
  8
0
 10
5.32735
 20
635.133
 11
5.20622
 21
634.942
  0
LINE
  8
0
 10
5.20622
 20
634.942
 11
5.06213
 21
634.768
  0
LINE
  8
0
 10
5.06213
 20
634.768
 11
4.89735
 21
634.613
  0
LINE
  8
0
 10
4.89735
 20
634.613
 11
4.71448
 21
634.48
  0
LINE
  8
0
 10
4.71448
 20
634.48
 11
4.51639
 21
634.371
  0
LINE
  8
0
 10
4.51639
 20
634.371
 11
4.30623
 21
634.288
  0
LINE
  8
0
 10
4.30623
 20
634.288
 11
4.08728
 21
634.232
  0
LINE
  8
0
 10
4.08728
 20
634.232
 11
3.86302
 21
634.204
  0
LINE
  8
0
 10
3.86302
 20
634.204
 11
3.63696
 21
634.204
  0
LINE
  8
0
 10
-3.86302
 20
634.204
 11
-4.08728
 21
634.232
  0
LINE
  8
0
 10
-4.08728
 20
634.232
 11
-4.30623
 21
634.288
  0
LINE
  8
0
 10
-4.30623
 20
634.288
 11
-4.51639
 21
634.371
  0
LINE
  8
0
 10
-4.51639
 20
634.371
 11
-4.71448
 21
634.48
  0
LINE
  8
0
 10
-4.71448
 20
634.48
 11
-4.89735
 21
634.613
  0
LINE
  8
0
 10
-4.89735
 20
634.613
 11
-5.06213
 21
634.768
  0
LINE
  8
0
 10
-5.06213
 20
634.768
 11
-5.20622
 21
634.942
  0
LINE
  8
0
 10
-5.20622
 20
634.942
 11
-5.32735
 21
635.133
  0
LINE
  8
0
 10
-5.32735
 20
635.133
 11
-5.42358
 21
635.337
  0
LINE
  8
0
 10
-5.42358
 20
635.337
 11
-5.49344
 21
635.552
  0
LINE
  8
0
 10
-5.49344
 20
635.552
 11
-5.5358
 21
635.774
  0
LINE
  8
0
 10
-5.5358
 20
635.774
 11
-5.54999
 21
636
  0
LINE
  8
0
 10
-5.54999
 20
636
 11
-5.5358
 21
636.226
  0
LINE
  8
0
 10
-5.5358
 20
636.226
 11
-5.49344
 21
636.448
  0
LINE
  8
0
 10
-5.49344
 20
636.448
 11
-5.42358
 21
636.663
  0
LINE
  8
0
 10
-5.42358
 20
636.663
 11
-5.32735
 21
636.867
  0
LINE
  8
0
 10
-5.32735
 20
636.867
 11
-5.20622
 21
637.058
  0
LINE
  8
0
 10
-5.20622
 20
637.058
 11
-5.06213
 21
637.232
  0
LINE
  8
0
 10
-5.06213
 20
637.232
 11
-4.89735
 21
637.387
  0
LINE
  8
0
 10
-4.89735
 20
637.387
 11
-4.71448
 21
637.52
  0
LINE
  8
0
 10
-4.71448
 20
637.52
 11
-4.51639
 21
637.629
  0
LINE
  8
0
 10
-4.51639
 20
637.629
 11
-4.30623
 21
637.712
  0
LINE
  8
0
 10
-4.30623
 20
637.712
 11
-4.08728
 21
637.768
  0
LINE
  8
0
 10
-4.08728
 20
637.768
 11
-3.86302
 21
637.796
  0
LINE
  8
0
 10
-3.86302
 20
637.796
 11
-3.63696
 21
637.796
  0
LINE
  8
0
 10
-3.63696
 20
637.796
 11
-3.4127
 21
637.768
  0
LINE
  8
0
 10
-3.4127
 20
637.768
 11
-3.19376
 21
637.712
  0
LINE
  8
0
 10
-3.19376
 20
637.712
 11
-2.9836
 21
637.629
  0
LINE
  8
0
 10
-2.9836
 20
637.629
 11
-2.78551
 21
637.52
  0
LINE
  8
0
 10
-2.78551
 20
637.52
 11
-2.60263
 21
637.387
  0
LINE
  8
0
 10
-2.60263
 20
637.387
 11
-2.43785
 21
637.232
  0
LINE
  8
0
 10
-2.43785
 20
637.232
 11
-2.29376
 21
637.058
  0
LINE
  8
0
 10
-2.29376
 20
637.058
 11
-2.17264
 21
636.867
  0
LINE
  8
0
 10
-2.17264
 20
636.867
 11
-2.0764
 21
636.663
  0
LINE
  8
0
 10
-2.0764
 20
636.663
 11
-2.00655
 21
636.448
  0
LINE
  8
0
 10
-2.00655
 20
636.448
 11
-1.96419
 21
636.226
  0
LINE
  8
0
 10
-1.96419
 20
636.226
 11
-1.95
 21
636
  0
LINE
  8
0
 10
-1.95
 20
636
 11
-1.96419
 21
635.774
  0
LINE
  8
0
 10
-1.96419
 20
635.774
 11
-2.00655
 21
635.552
  0
LINE
  8
0
 10
-2.00655
 20
635.552
 11
-2.0764
 21
635.337
  0
LINE
  8
0
 10
-2.0764
 20
635.337
 11
-2.17264
 21
635.133
  0
LINE
  8
0
 10
-2.17264
 20
635.133
 11
-2.29376
 21
634.942
  0
LINE
  8
0
 10
-2.29376
 20
634.942
 11
-2.43785
 21
634.768
  0
LINE
  8
0
 10
-2.43785
 20
634.768
 11
-2.60263
 21
634.613
  0
LINE
  8
0
 10
-2.60263
 20
634.613
 11
-2.78551
 21
634.48
  0
LINE
  8
0
 10
-2.78551
 20
634.48
 11
-2.9836
 21
634.371
  0
LINE
  8
0
 10
-2.9836
 20
634.371
 11
-3.19376
 21
634.288
  0
LINE
  8
0
 10
-3.19376
 20
634.288
 11
-3.4127
 21
634.232
  0
LINE
  8
0
 10
-3.4127
 20
634.232
 11
-3.63696
 21
634.204
  0
LINE
  8
0
 10
-3.63696
 20
634.204
 11
-3.86302
 21
634.204
  0
LINE
  8
0
 10
-3.86302
 20
514.204
 11
-4.08728
 21
514.232
  0
LINE
  8
0
 10
-4.08728
 20
514.232
 11
-4.30623
 21
514.288
  0
LINE
  8
0
 10
-4.30623
 20
514.288
 11
-4.51639
 21
514.371
  0
LINE
  8
0
 10
-4.51639
 20
514.371
 11
-4.71448
 21
514.48
  0
LINE
  8
0
 10
-4.71448
 20
514.48
 11
-4.89735
 21
514.613
  0
LINE
  8
0
 10
-4.89735
 20
514.613
 11
-5.06213
 21
514.768
  0
LINE
  8
0
 10
-5.06213
 20
514.768
 11
-5.20622
 21
514.942
  0
LINE
  8
0
 10
-5.20622
 20
514.942
 11
-5.32735
 21
515.133
  0
LINE
  8
0
 10
-5.32735
 20
515.133
 11
-5.42358
 21
515.337
  0
LINE
  8
0
 10
-5.42358
 20
515.337
 11
-5.49344
 21
515.552
  0
LINE
  8
0
 10
-5.49344
 20
515.552
 11
-5.5358
 21
515.774
  0
LINE
  8
0
 10
-5.5358
 20
515.774
 11
-5.54999
 21
516
  0
LINE
  8
0
 10
-5.54999
 20
516
 11
-5.5358
 21
516.226
  0
LINE
  8
0
 10
-5.5358
 20
516.226
 11
-5.49344
 21
516.448
  0
LINE
  8
0
 10
-5.49344
 20
516.448
 11
-5.42358
 21
516.663
  0
LINE
  8
0
 10
-5.42358
 20
516.663
 11
-5.32735
 21
516.867
  0
LINE
  8
0
 10
-5.32735
 20
516.867
 11
-5.20622
 21
517.058
  0
LINE
  8
0
 10
-5.20622
 20
517.058
 11
-5.06213
 21
517.232
  0
LINE
  8
0
 10
-5.06213
 20
517.232
 11
-4.89735
 21
517.387
  0
LINE
  8
0
 10
-4.89735
 20
517.387
 11
-4.71448
 21
517.52
  0
LINE
  8
0
 10
-4.71448
 20
517.52
 11
-4.51639
 21
517.629
  0
LINE
  8
0
 10
-4.51639
 20
517.629
 11
-4.30623
 21
517.712
  0
LINE
  8
0
 10
-4.30623
 20
517.712
 11
-4.08728
 21
517.768
  0
LINE
  8
0
 10
-4.08728
 20
517.768
 11
-3.86302
 21
517.796
  0
LINE
  8
0
 10
-3.86302
 20
517.796
 11
-3.63696
 21
517.796
  0
LINE
  8
0
 10
-3.63696
 20
517.796
 11
-3.4127
 21
517.768
  0
LINE
  8
0
 10
-3.4127
 20
517.768
 11
-3.19376
 21
517.712
  0
LINE
  8
0
 10
-3.19376
 20
517.712
 11
-2.9836
 21
517.629
  0
LINE
  8
0
 10
-2.9836
 20
517.629
 11
-2.78551
 21
517.52
  0
LINE
  8
0
 10
-2.78551
 20
517.52
 11
-2.60263
 21
517.387
  0
LINE
  8
0
 10
-2.60263
 20
517.387
 11
-2.43785
 21
517.232
  0
LINE
  8
0
 10
-2.43785
 20
517.232
 11
-2.29376
 21
517.058
  0
LINE
  8
0
 10
-2.29376
 20
517.058
 11
-2.17264
 21
516.867
  0
LINE
  8
0
 10
-2.17264
 20
516.867
 11
-2.0764
 21
516.663
  0
LINE
  8
0
 10
-2.0764
 20
516.663
 11
-2.00655
 21
516.448
  0
LINE
  8
0
 10
-2.00655
 20
516.448
 11
-1.96419
 21
516.226
  0
LINE
  8
0
 10
-1.96419
 20
516.226
 11
-1.95
 21
516
  0
LINE
  8
0
 10
-1.95
 20
516
 11
-1.96419
 21
515.774
  0
LINE
  8
0
 10
-1.96419
 20
515.774
 11
-2.00655
 21
515.552
  0
LINE
  8
0
 10
-2.00655
 20
515.552
 11
-2.0764
 21
515.337
  0
LINE
  8
0
 10
-2.0764
 20
515.337
 11
-2.17264
 21
515.133
  0
LINE
  8
0
 10
-2.17264
 20
515.133
 11
-2.29376
 21
514.942
  0
LINE
  8
0
 10
-2.29376
 20
514.942
 11
-2.43785
 21
514.768
  0
LINE
  8
0
 10
-2.43785
 20
514.768
 11
-2.60263
 21
514.613
  0
LINE
  8
0
 10
-2.60263
 20
514.613
 11
-2.78551
 21
514.48
  0
LINE
  8
0
 10
-2.78551
 20
514.48
 11
-2.9836
 21
514.371
  0
LINE
  8
0
 10
-2.9836
 20
514.371
 11
-3.19376
 21
514.288
  0
LINE
  8
0
 10
-3.19376
 20
514.288
 11
-3.4127
 21
514.232
  0
LINE
  8
0
 10
-3.4127
 20
514.232
 11
-3.63696
 21
514.204
  0
LINE
  8
0
 10
-3.63696
 20
514.204
 11
-3.86302
 21
514.204
  0
LINE
  8
0
 10
3.63696
 20
514.204
 11
3.4127
 21
514.232
  0
LINE
  8
0
 10
3.4127
 20
514.232
 11
3.19376
 21
514.288
  0
LINE
  8
0
 10
3.19376
 20
514.288
 11
2.9836
 21
514.371
  0
LINE
  8
0
 10
2.9836
 20
514.371
 11
2.78551
 21
514.48
  0
LINE
  8
0
 10
2.78551
 20
514.48
 11
2.60263
 21
514.613
  0
LINE
  8
0
 10
2.60263
 20
514.613
 11
2.43785
 21
514.768
  0
LINE
  8
0
 10
2.43785
 20
514.768
 11
2.29376
 21
514.942
  0
LINE
  8
0
 10
2.29376
 20
514.942
 11
2.17264
 21
515.133
  0
LINE
  8
0
 10
2.17264
 20
515.133
 11
2.0764
 21
515.337
  0
LINE
  8
0
 10
2.0764
 20
515.337
 11
2.00655
 21
515.552
  0
LINE
  8
0
 10
2.00655
 20
515.552
 11
1.96419
 21
515.774
  0
LINE
  8
0
 10
1.96419
 20
515.774
 11
1.95
 21
516
  0
LINE
  8
0
 10
1.95
 20
516
 11
1.96419
 21
516.226
  0
LINE
  8
0
 10
1.96419
 20
516.226
 11
2.00655
 21
516.448
  0
LINE
  8
0
 10
2.00655
 20
516.448
 11
2.0764
 21
516.663
  0
LINE
  8
0
 10
2.0764
 20
516.663
 11
2.17264
 21
516.867
  0
LINE
  8
0
 10
2.17264
 20
516.867
 11
2.29376
 21
517.058
  0
LINE
  8
0
 10
2.29376
 20
517.058
 11
2.43785
 21
517.232
  0
LINE
  8
0
 10
2.43785
 20
517.232
 11
2.60263
 21
517.387
  0
LINE
  8
0
 10
2.60263
 20
517.387
 11
2.78551
 21
517.52
  0
LINE
  8
0
 10
2.78551
 20
517.52
 11
2.9836
 21
517.629
  0
LINE
  8
0
 10
2.9836
 20
517.629
 11
3.19376
 21
517.712
  0
LINE
  8
0
 10
3.19376
 20
517.712
 11
3.4127
 21
517.768
  0
LINE
  8
0
 10
3.4127
 20
517.768
 11
3.63696
 21
517.796
  0
LINE
  8
0
 10
3.63696
 20
517.796
 11
3.86302
 21
517.796
  0
LINE
  8
0
 10
3.86302
 20
517.796
 11
4.08728
 21
517.768
  0
LINE
  8
0
 10
4.08728
 20
517.768
 11
4.30623
 21
517.712
  0
LINE
  8
0
 10
4.30623
 20
517.712
 11
4.51639
 21
517.629
  0
LINE
  8
0
 10
4.51639
 20
517.629
 11
4.71448
 21
517.52
  0
LINE
  8
0
 10
4.71448
 20
517.52
 11
4.89735
 21
517.387
  0
LINE
  8
0
 10
4.89735
 20
517.387
 11
5.06213
 21
517.232
  0
LINE
  8
0
 10
5.06213
 20
517.232
 11
5.20622
 21
517.058
  0
LINE
  8
0
 10
5.20622
 20
517.058
 11
5.32735
 21
516.867
  0
LINE
  8
0
 10
5.32735
 20
516.867
 11
5.42358
 21
516.663
  0
LINE
  8
0
 10
5.42358
 20
516.663
 11
5.49344
 21
516.448
  0
LINE
  8
0
 10
5.49344
 20
516.448
 11
5.5358
 21
516.226
  0
LINE
  8
0
 10
5.5358
 20
516.226
 11
5.54999
 21
516
  0
LINE
  8
0
 10
5.54999
 20
516
 11
5.5358
 21
515.774
  0
LINE
  8
0
 10
5.5358
 20
515.774
 11
5.49344
 21
515.552
  0
LINE
  8
0
 10
5.49344
 20
515.552
 11
5.42358
 21
515.337
  0
LINE
  8
0
 10
5.42358
 20
515.337
 11
5.32735
 21
515.133
  0
LINE
  8
0
 10
5.32735
 20
515.133
 11
5.20622
 21
514.942
  0
LINE
  8
0
 10
5.20622
 20
514.942
 11
5.06213
 21
514.768
  0
LINE
  8
0
 10
5.06213
 20
514.768
 11
4.89735
 21
514.613
  0
LINE
  8
0
 10
4.89735
 20
514.613
 11
4.71448
 21
514.48
  0
LINE
  8
0
 10
4.71448
 20
514.48
 11
4.51639
 21
514.371
  0
LINE
  8
0
 10
4.51639
 20
514.371
 11
4.30623
 21
514.288
  0
LINE
  8
0
 10
4.30623
 20
514.288
 11
4.08728
 21
514.232
  0
LINE
  8
0
 10
4.08728
 20
514.232
 11
3.86302
 21
514.204
  0
LINE
  8
0
 10
3.86302
 20
514.204
 11
3.63696
 21
514.204
  0
ENDSEC
  0
SECTION
  2
OBJECTS
  0
DICTIONARY
  0
ENDSEC
  0
EOF
