  0
SECTION
  2
BLOCKS
  0
ENDSEC
  0
SECTION
  2
ENTITIES
  0
LINE
  8
0
 10
-10.6142
 20
339
 11
-4.38582
 21
339
  0
LINE
  8
0
 10
-4.38582
 20
339
 11
-4.38582
 21
330
  0
LINE
  8
0
 10
-4.38582
 20
330
 11
4.38582
 21
330
  0
LINE
  8
0
 10
4.38582
 20
330
 11
4.38582
 21
339
  0
LINE
  8
0
 10
4.38582
 20
339
 11
10.6142
 21
339
  0
LINE
  8
0
 10
10.6142
 20
339
 11
10.6142
 21
330
  0
LINE
  8
0
 10
10.6142
 20
330
 11
14.5
 21
330
  0
LINE
  8
0
 10
14.5
 20
330
 11
14.5
 21
345.5
  0
LINE
  8
0
 10
14.5
 20
345.5
 11
14.4606
 21
346.127
  0
LINE
  8
0
 10
14.4606
 20
346.127
 11
14.3429
 21
346.743
  0
LINE
  8
0
 10
14.3429
 20
346.743
 11
14.1489
 21
347.341
  0
LINE
  8
0
 10
14.1489
 20
347.341
 11
13.8815
 21
347.909
  0
LINE
  8
0
 10
13.8815
 20
347.909
 11
13.5451
 21
348.439
  0
LINE
  8
0
 10
13.5451
 20
348.439
 11
13.1448
 21
348.923
  0
LINE
  8
0
 10
13.1448
 20
348.923
 11
12.6871
 21
349.353
  0
LINE
  8
0
 10
12.6871
 20
349.353
 11
12.1791
 21
349.722
  0
LINE
  8
0
 10
12.1791
 20
349.722
 11
11.6289
 21
350.024
  0
LINE
  8
0
 10
11.6289
 20
350.024
 11
11.0451
 21
350.255
  0
LINE
  8
0
 10
11.0451
 20
350.255
 11
10.4369
 21
350.411
  0
LINE
  8
0
 10
10.4369
 20
350.411
 11
9.81395
 21
350.49
  0
LINE
  8
0
 10
9.81395
 20
350.49
 11
-9.81395
 21
350.49
  0
LINE
  8
0
 10
-9.81395
 20
350.49
 11
-10.4369
 21
350.411
  0
LINE
  8
0
 10
-10.4369
 20
350.411
 11
-11.0451
 21
350.255
  0
LINE
  8
0
 10
-11.0451
 20
350.255
 11
-11.6289
 21
350.024
  0
LINE
  8
0
 10
-11.6289
 20
350.024
 11
-12.1791
 21
349.722
  0
LINE
  8
0
 10
-12.1791
 20
349.722
 11
-12.6871
 21
349.353
  0
LINE
  8
0
 10
-12.6871
 20
349.353
 11
-13.1448
 21
348.923
  0
LINE
  8
0
 10
-13.1448
 20
348.923
 11
-13.5451
 21
348.439
  0
LINE
  8
0
 10
-13.5451
 20
348.439
 11
-13.8815
 21
347.909
  0
LINE
  8
0
 10
-13.8815
 20
347.909
 11
-14.1489
 21
347.341
  0
LINE
  8
0
 10
-14.1489
 20
347.341
 11
-14.3429
 21
346.743
  0
LINE
  8
0
 10
-14.3429
 20
346.743
 11
-14.4606
 21
346.127
  0
LINE
  8
0
 10
-14.4606
 20
346.127
 11
-14.5
 21
345.5
  0
LINE
  8
0
 10
-14.5
 20
345.5
 11
-14.5
 21
330
  0
LINE
  8
0
 10
-14.5
 20
330
 11
-10.6142
 21
330
  0
LINE
  8
0
 10
-10.6142
 20
330
 11
-10.6142
 21
339
  0
LINE
  8
0
 10
-9.5
 20
347.75
 11
-9.5
 21
349.25
  0
LINE
  8
0
 10
-9.5
 20
349.25
 11
-5.5
 21
349.25
  0
LINE
  8
0
 10
-5.5
 20
349.25
 11
-5.5
 21
347.75
  0
LINE
  8
0
 10
-5.5
 20
347.75
 11
-9.5
 21
347.75
  0
LINE
  8
0
 10
5.5
 20
347.75
 11
5.5
 21
349.25
  0
LINE
  8
0
 10
5.5
 20
349.25
 11
9.5
 21
349.25
  0
LINE
  8
0
 10
9.5
 20
349.25
 11
9.5
 21
347.75
  0
LINE
  8
0
 10
9.5
 20
347.75
 11
5.5
 21
347.75
  0
LINE
  8
0
 10
-9.5
 20
340.75
 11
-9.5
 21
342.25
  0
LINE
  8
0
 10
-9.5
 20
342.25
 11
-5.5
 21
342.25
  0
LINE
  8
0
 10
-5.5
 20
342.25
 11
-5.5
 21
340.75
  0
LINE
  8
0
 10
-5.5
 20
340.75
 11
-9.5
 21
340.75
  0
LINE
  8
0
 10
5.5
 20
340.75
 11
5.5
 21
342.25
  0
LINE
  8
0
 10
5.5
 20
342.25
 11
9.5
 21
342.25
  0
LINE
  8
0
 10
9.5
 20
342.25
 11
9.5
 21
340.75
  0
LINE
  8
0
 10
9.5
 20
340.75
 11
5.5
 21
340.75
  0
LINE
  8
0
 10
-12.3462
 20
229
 11
-2.65376
 21
229
  0
LINE
  8
0
 10
-2.65376
 20
229
 11
-2.65376
 21
220
  0
LINE
  8
0
 10
-2.65376
 20
220
 11
2.65376
 21
220
  0
LINE
  8
0
 10
2.65376
 20
220
 11
2.65376
 21
229
  0
LINE
  8
0
 10
2.65376
 20
229
 11
12.3462
 21
229
  0
LINE
  8
0
 10
12.3462
 20
229
 11
12.3462
 21
220
  0
LINE
  8
0
 10
12.3462
 20
220
 11
14.5
 21
220
  0
LINE
  8
0
 10
14.5
 20
220
 11
14.5
 21
235.5
  0
LINE
  8
0
 10
14.5
 20
235.5
 11
14.4606
 21
236.127
  0
LINE
  8
0
 10
14.4606
 20
236.127
 11
14.3429
 21
236.743
  0
LINE
  8
0
 10
14.3429
 20
236.743
 11
14.1489
 21
237.341
  0
LINE
  8
0
 10
14.1489
 20
237.341
 11
13.8815
 21
237.909
  0
LINE
  8
0
 10
13.8815
 20
237.909
 11
13.5451
 21
238.439
  0
LINE
  8
0
 10
13.5451
 20
238.439
 11
13.1448
 21
238.923
  0
LINE
  8
0
 10
13.1448
 20
238.923
 11
12.6871
 21
239.353
  0
LINE
  8
0
 10
12.6871
 20
239.353
 11
12.1791
 21
239.722
  0
LINE
  8
0
 10
12.1791
 20
239.722
 11
11.6289
 21
240.024
  0
LINE
  8
0
 10
11.6289
 20
240.024
 11
11.0451
 21
240.255
  0
LINE
  8
0
 10
11.0451
 20
240.255
 11
10.4369
 21
240.411
  0
LINE
  8
0
 10
10.4369
 20
240.411
 11
9.81395
 21
240.49
  0
LINE
  8
0
 10
9.81395
 20
240.49
 11
-9.81395
 21
240.49
  0
LINE
  8
0
 10
-9.81395
 20
240.49
 11
-10.4369
 21
240.411
  0
LINE
  8
0
 10
-10.4369
 20
240.411
 11
-11.0451
 21
240.255
  0
LINE
  8
0
 10
-11.0451
 20
240.255
 11
-11.6289
 21
240.024
  0
LINE
  8
0
 10
-11.6289
 20
240.024
 11
-12.1791
 21
239.722
  0
LINE
  8
0
 10
-12.1791
 20
239.722
 11
-12.6871
 21
239.353
  0
LINE
  8
0
 10
-12.6871
 20
239.353
 11
-13.1448
 21
238.923
  0
LINE
  8
0
 10
-13.1448
 20
238.923
 11
-13.5451
 21
238.439
  0
LINE
  8
0
 10
-13.5451
 20
238.439
 11
-13.8815
 21
237.909
  0
LINE
  8
0
 10
-13.8815
 20
237.909
 11
-14.1489
 21
237.341
  0
LINE
  8
0
 10
-14.1489
 20
237.341
 11
-14.3429
 21
236.743
  0
LINE
  8
0
 10
-14.3429
 20
236.743
 11
-14.4606
 21
236.127
  0
LINE
  8
0
 10
-14.4606
 20
236.127
 11
-14.5
 21
235.5
  0
LINE
  8
0
 10
-14.5
 20
235.5
 11
-14.5
 21
220
  0
LINE
  8
0
 10
-14.5
 20
220
 11
-12.3462
 21
220
  0
LINE
  8
0
 10
-12.3462
 20
220
 11
-12.3462
 21
229
  0
LINE
  8
0
 10
-9.5
 20
237.75
 11
-9.5
 21
239.25
  0
LINE
  8
0
 10
-9.5
 20
239.25
 11
-5.5
 21
239.25
  0
LINE
  8
0
 10
-5.5
 20
239.25
 11
-5.5
 21
237.75
  0
LINE
  8
0
 10
-5.5
 20
237.75
 11
-9.5
 21
237.75
  0
LINE
  8
0
 10
5.5
 20
237.75
 11
5.5
 21
239.25
  0
LINE
  8
0
 10
5.5
 20
239.25
 11
9.5
 21
239.25
  0
LINE
  8
0
 10
9.5
 20
239.25
 11
9.5
 21
237.75
  0
LINE
  8
0
 10
9.5
 20
237.75
 11
5.5
 21
237.75
  0
LINE
  8
0
 10
-9.5
 20
230.75
 11
-9.5
 21
232.25
  0
LINE
  8
0
 10
-9.5
 20
232.25
 11
-5.5
 21
232.25
  0
LINE
  8
0
 10
-5.5
 20
232.25
 11
-5.5
 21
230.75
  0
LINE
  8
0
 10
-5.5
 20
230.75
 11
-9.5
 21
230.75
  0
LINE
  8
0
 10
5.5
 20
230.75
 11
5.5
 21
232.25
  0
LINE
  8
0
 10
5.5
 20
232.25
 11
9.5
 21
232.25
  0
LINE
  8
0
 10
9.5
 20
232.25
 11
9.5
 21
230.75
  0
LINE
  8
0
 10
9.5
 20
230.75
 11
5.5
 21
230.75
  0
LINE
  8
0
 10
-12.404
 20
119
 11
-2.59602
 21
119
  0
LINE
  8
0
 10
-2.59602
 20
119
 11
-2.59602
 21
110
  0
LINE
  8
0
 10
-2.59602
 20
110
 11
2.59602
 21
110
  0
LINE
  8
0
 10
2.59602
 20
110
 11
2.59602
 21
119
  0
LINE
  8
0
 10
2.59602
 20
119
 11
12.404
 21
119
  0
LINE
  8
0
 10
12.404
 20
119
 11
12.404
 21
110
  0
LINE
  8
0
 10
12.404
 20
110
 11
14.5
 21
110
  0
LINE
  8
0
 10
14.5
 20
110
 11
14.5
 21
125.5
  0
LINE
  8
0
 10
14.5
 20
125.5
 11
14.4606
 21
126.127
  0
LINE
  8
0
 10
14.4606
 20
126.127
 11
14.3429
 21
126.743
  0
LINE
  8
0
 10
14.3429
 20
126.743
 11
14.1489
 21
127.341
  0
LINE
  8
0
 10
14.1489
 20
127.341
 11
13.8815
 21
127.909
  0
LINE
  8
0
 10
13.8815
 20
127.909
 11
13.5451
 21
128.439
  0
LINE
  8
0
 10
13.5451
 20
128.439
 11
13.1448
 21
128.923
  0
LINE
  8
0
 10
13.1448
 20
128.923
 11
12.6871
 21
129.353
  0
LINE
  8
0
 10
12.6871
 20
129.353
 11
12.1791
 21
129.722
  0
LINE
  8
0
 10
12.1791
 20
129.722
 11
11.6289
 21
130.024
  0
LINE
  8
0
 10
11.6289
 20
130.024
 11
11.0451
 21
130.255
  0
LINE
  8
0
 10
11.0451
 20
130.255
 11
10.4369
 21
130.411
  0
LINE
  8
0
 10
10.4369
 20
130.411
 11
9.81395
 21
130.49
  0
LINE
  8
0
 10
9.81395
 20
130.49
 11
-9.81395
 21
130.49
  0
LINE
  8
0
 10
-9.81395
 20
130.49
 11
-10.4369
 21
130.411
  0
LINE
  8
0
 10
-10.4369
 20
130.411
 11
-11.0451
 21
130.255
  0
LINE
  8
0
 10
-11.0451
 20
130.255
 11
-11.6289
 21
130.024
  0
LINE
  8
0
 10
-11.6289
 20
130.024
 11
-12.1791
 21
129.722
  0
LINE
  8
0
 10
-12.1791
 20
129.722
 11
-12.6871
 21
129.353
  0
LINE
  8
0
 10
-12.6871
 20
129.353
 11
-13.1448
 21
128.923
  0
LINE
  8
0
 10
-13.1448
 20
128.923
 11
-13.5451
 21
128.439
  0
LINE
  8
0
 10
-13.5451
 20
128.439
 11
-13.8815
 21
127.909
  0
LINE
  8
0
 10
-13.8815
 20
127.909
 11
-14.1489
 21
127.341
  0
LINE
  8
0
 10
-14.1489
 20
127.341
 11
-14.3429
 21
126.743
  0
LINE
  8
0
 10
-14.3429
 20
126.743
 11
-14.4606
 21
126.127
  0
LINE
  8
0
 10
-14.4606
 20
126.127
 11
-14.5
 21
125.5
  0
LINE
  8
0
 10
-14.5
 20
125.5
 11
-14.5
 21
110
  0
LINE
  8
0
 10
-14.5
 20
110
 11
-12.404
 21
110
  0
LINE
  8
0
 10
-12.404
 20
110
 11
-12.404
 21
119
  0
LINE
  8
0
 10
-9.5
 20
127.75
 11
-9.5
 21
129.25
  0
LINE
  8
0
 10
-9.5
 20
129.25
 11
-5.5
 21
129.25
  0
LINE
  8
0
 10
-5.5
 20
129.25
 11
-5.5
 21
127.75
  0
LINE
  8
0
 10
-5.5
 20
127.75
 11
-9.5
 21
127.75
  0
LINE
  8
0
 10
5.5
 20
127.75
 11
5.5
 21
129.25
  0
LINE
  8
0
 10
5.5
 20
129.25
 11
9.5
 21
129.25
  0
LINE
  8
0
 10
9.5
 20
129.25
 11
9.5
 21
127.75
  0
LINE
  8
0
 10
9.5
 20
127.75
 11
5.5
 21
127.75
  0
LINE
  8
0
 10
-9.5
 20
120.75
 11
-9.5
 21
122.25
  0
LINE
  8
0
 10
-9.5
 20
122.25
 11
-5.5
 21
122.25
  0
LINE
  8
0
 10
-5.5
 20
122.25
 11
-5.5
 21
120.75
  0
LINE
  8
0
 10
-5.5
 20
120.75
 11
-9.5
 21
120.75
  0
LINE
  8
0
 10
5.5
 20
120.75
 11
5.5
 21
122.25
  0
LINE
  8
0
 10
5.5
 20
122.25
 11
9.5
 21
122.25
  0
LINE
  8
0
 10
9.5
 20
122.25
 11
9.5
 21
120.75
  0
LINE
  8
0
 10
9.5
 20
120.75
 11
5.5
 21
120.75
  0
LINE
  8
0
 10
-10.6719
 20
9
 11
-4.32808
 21
9
  0
LINE
  8
0
 10
-4.32808
 20
9
 11
-4.32808
 21
0
  0
LINE
  8
0
 10
-4.32808
 20
0
 11
4.32808
 21
0
  0
LINE
  8
0
 10
4.32808
 20
0
 11
4.32808
 21
9
  0
LINE
  8
0
 10
4.32808
 20
9
 11
10.6719
 21
9
  0
LINE
  8
0
 10
10.6719
 20
9
 11
10.6719
 21
0
  0
LINE
  8
0
 10
10.6719
 20
0
 11
14.5
 21
0
  0
LINE
  8
0
 10
14.5
 20
0
 11
14.5
 21
15.5
  0
LINE
  8
0
 10
14.5
 20
15.5
 11
14.4606
 21
16.1267
  0
LINE
  8
0
 10
14.4606
 20
16.1267
 11
14.3429
 21
16.7434
  0
LINE
  8
0
 10
14.3429
 20
16.7434
 11
14.1489
 21
17.3406
  0
LINE
  8
0
 10
14.1489
 20
17.3406
 11
13.8815
 21
17.9088
  0
LINE
  8
0
 10
13.8815
 20
17.9088
 11
13.5451
 21
18.4389
  0
LINE
  8
0
 10
13.5451
 20
18.4389
 11
13.1448
 21
18.9227
  0
LINE
  8
0
 10
13.1448
 20
18.9227
 11
12.6871
 21
19.3526
  0
LINE
  8
0
 10
12.6871
 20
19.3526
 11
12.1791
 21
19.7216
  0
LINE
  8
0
 10
12.1791
 20
19.7216
 11
11.6289
 21
20.0241
  0
LINE
  8
0
 10
11.6289
 20
20.0241
 11
11.0451
 21
20.2553
  0
LINE
  8
0
 10
11.0451
 20
20.2553
 11
10.4369
 21
20.4114
  0
LINE
  8
0
 10
10.4369
 20
20.4114
 11
9.81395
 21
20.4901
  0
LINE
  8
0
 10
9.81395
 20
20.4901
 11
-9.81395
 21
20.4901
  0
LINE
  8
0
 10
-9.81395
 20
20.4901
 11
-10.4369
 21
20.4114
  0
LINE
  8
0
 10
-10.4369
 20
20.4114
 11
-11.0451
 21
20.2553
  0
LINE
  8
0
 10
-11.0451
 20
20.2553
 11
-11.6289
 21
20.0241
  0
LINE
  8
0
 10
-11.6289
 20
20.0241
 11
-12.1791
 21
19.7216
  0
LINE
  8
0
 10
-12.1791
 20
19.7216
 11
-12.6871
 21
19.3526
  0
LINE
  8
0
 10
-12.6871
 20
19.3526
 11
-13.1448
 21
18.9227
  0
LINE
  8
0
 10
-13.1448
 20
18.9227
 11
-13.5451
 21
18.4389
  0
LINE
  8
0
 10
-13.5451
 20
18.4389
 11
-13.8815
 21
17.9088
  0
LINE
  8
0
 10
-13.8815
 20
17.9088
 11
-14.1489
 21
17.3406
  0
LINE
  8
0
 10
-14.1489
 20
17.3406
 11
-14.3429
 21
16.7434
  0
LINE
  8
0
 10
-14.3429
 20
16.7434
 11
-14.4606
 21
16.1267
  0
LINE
  8
0
 10
-14.4606
 20
16.1267
 11
-14.5
 21
15.5
  0
LINE
  8
0
 10
-14.5
 20
15.5
 11
-14.5
 21
0
  0
LINE
  8
0
 10
-14.5
 20
0
 11
-10.6719
 21
0
  0
LINE
  8
0
 10
-10.6719
 20
0
 11
-10.6719
 21
9
  0
LINE
  8
0
 10
-9.5
 20
17.75
 11
-9.5
 21
19.25
  0
LINE
  8
0
 10
-9.5
 20
19.25
 11
-5.5
 21
19.25
  0
LINE
  8
0
 10
-5.5
 20
19.25
 11
-5.5
 21
17.75
  0
LINE
  8
0
 10
-5.5
 20
17.75
 11
-9.5
 21
17.75
  0
LINE
  8
0
 10
5.5
 20
17.75
 11
5.5
 21
19.25
  0
LINE
  8
0
 10
5.5
 20
19.25
 11
9.5
 21
19.25
  0
LINE
  8
0
 10
9.5
 20
19.25
 11
9.5
 21
17.75
  0
LINE
  8
0
 10
9.5
 20
17.75
 11
5.5
 21
17.75
  0
LINE
  8
0
 10
-9.5
 20
10.75
 11
-9.5
 21
12.25
  0
LINE
  8
0
 10
-9.5
 20
12.25
 11
-5.5
 21
12.25
  0
LINE
  8
0
 10
-5.5
 20
12.25
 11
-5.5
 21
10.75
  0
LINE
  8
0
 10
-5.5
 20
10.75
 11
-9.5
 21
10.75
  0
LINE
  8
0
 10
5.5
 20
10.75
 11
5.5
 21
12.25
  0
LINE
  8
0
 10
5.5
 20
12.25
 11
9.5
 21
12.25
  0
LINE
  8
0
 10
9.5
 20
12.25
 11
9.5
 21
10.75
  0
LINE
  8
0
 10
9.5
 20
10.75
 11
5.5
 21
10.75
  0
ENDSEC
  0
SECTION
  2
OBJECTS
  0
DICTIONARY
  0
ENDSEC
  0
EOF
