<?xml version="1.0" standalone="no"?>
<!DOCTYPE svg PUBLIC "-//W3C//DTD SVG 1.1//EN" "http://www.w3.org/Graphics/SVG/1.1/DTD/svg11.dtd">
<svg width="210mm" height="280mm" viewBox="-105 -356 210 280" xmlns="http://www.w3.org/2000/svg" version="1.1">
<title>OpenSCAD Model</title>
<path d="
M 100.937,-220.589 L 101.545,-220.745 L 102.129,-220.976 L 102.679,-221.278 L 103.187,-221.647 L 103.645,-222.077
 L 104.045,-222.561 L 104.382,-223.091 L 104.649,-223.659 L 104.843,-224.257 L 104.961,-224.873 L 105,-225.5
 L 105,-350.5 L 104.961,-351.127 L 104.843,-351.743 L 104.649,-352.341 L 104.382,-352.909 L 104.045,-353.439
 L 103.645,-353.923 L 103.187,-354.353 L 102.679,-354.722 L 102.129,-355.024 L 101.545,-355.255 L 100.937,-355.411
 L 100.314,-355.49 L -100.314,-355.49 L -100.937,-355.411 L -101.545,-355.255 L -102.129,-355.024 L -102.679,-354.722
 L -103.187,-354.353 L -103.645,-353.923 L -104.045,-353.439 L -104.382,-352.909 L -104.649,-352.341 L -104.843,-351.743
 L -104.961,-351.127 L -105,-350.5 L -105,-225.5 L -104.961,-224.873 L -104.843,-224.257 L -104.649,-223.659
 L -104.382,-223.091 L -104.045,-222.561 L -103.645,-222.077 L -103.187,-221.647 L -102.679,-221.278 L -102.129,-220.976
 L -101.545,-220.745 L -100.937,-220.589 L -100.314,-220.51 L 100.314,-220.51 z
M -99.993,-221.888 L -100.475,-221.949 L -100.946,-222.07 L -101.398,-222.249 L -101.823,-222.483 L -102.216,-222.769
 L -102.571,-223.101 L -102.88,-223.476 L -103.141,-223.886 L -103.348,-224.326 L -103.498,-224.788 L -103.589,-225.265
 L -103.619,-225.75 L -103.619,-350.25 L -103.589,-350.735 L -103.498,-351.212 L -103.348,-351.674 L -103.141,-352.114
 L -102.88,-352.524 L -102.571,-352.899 L -102.216,-353.231 L -101.823,-353.517 L -101.398,-353.751 L -100.946,-353.93
 L -100.475,-354.051 L -99.993,-354.112 L 99.993,-354.112 L 100.475,-354.051 L 100.946,-353.93 L 101.398,-353.751
 L 101.823,-353.517 L 102.216,-353.231 L 102.571,-352.899 L 102.88,-352.524 L 103.141,-352.114 L 103.348,-351.674
 L 103.498,-351.212 L 103.589,-350.735 L 103.619,-350.25 L 103.619,-225.75 L 103.589,-225.265 L 103.498,-224.788
 L 103.348,-224.326 L 103.141,-223.886 L 102.88,-223.476 L 102.571,-223.101 L 102.216,-222.769 L 101.823,-222.483
 L 101.398,-222.249 L 100.946,-222.07 L 100.475,-221.949 L 99.993,-221.888 z
M 100.937,-76.5886 L 101.545,-76.7447 L 102.129,-76.9759 L 102.679,-77.2784 L 103.187,-77.6474 L 103.645,-78.0773
 L 104.045,-78.5611 L 104.382,-79.0912 L 104.649,-79.6594 L 104.843,-80.2566 L 104.961,-80.8733 L 105,-81.5
 L 105,-206.5 L 104.961,-207.127 L 104.843,-207.743 L 104.649,-208.341 L 104.382,-208.909 L 104.045,-209.439
 L 103.645,-209.923 L 103.187,-210.353 L 102.679,-210.722 L 102.129,-211.024 L 101.545,-211.255 L 100.937,-211.411
 L 100.314,-211.49 L -100.314,-211.49 L -100.937,-211.411 L -101.545,-211.255 L -102.129,-211.024 L -102.679,-210.722
 L -103.187,-210.353 L -103.645,-209.923 L -104.045,-209.439 L -104.382,-208.909 L -104.649,-208.341 L -104.843,-207.743
 L -104.961,-207.127 L -105,-206.5 L -105,-81.5 L -104.961,-80.8733 L -104.843,-80.2566 L -104.649,-79.6594
 L -104.382,-79.0912 L -104.045,-78.5611 L -103.645,-78.0773 L -103.187,-77.6474 L -102.679,-77.2784 L -102.129,-76.9759
 L -101.545,-76.7447 L -100.937,-76.5886 L -100.314,-76.5099 L 100.314,-76.5099 z
M -97.613,-202.204 L -97.8373,-202.232 L -98.0562,-202.288 L -98.2664,-202.371 L -98.4645,-202.48 L -98.6474,-202.613
 L -98.8121,-202.768 L -98.9562,-202.942 L -99.0773,-203.133 L -99.1736,-203.337 L -99.2434,-203.552 L -99.2858,-203.774
 L -99.3,-204 L -99.2858,-204.226 L -99.2434,-204.448 L -99.1736,-204.663 L -99.0773,-204.867 L -98.9562,-205.058
 L -98.8121,-205.232 L -98.6474,-205.387 L -98.4645,-205.52 L -98.2664,-205.629 L -98.0562,-205.712 L -97.8373,-205.768
 L -97.613,-205.796 L -97.387,-205.796 L -97.1627,-205.768 L -96.9438,-205.712 L -96.7336,-205.629 L -96.5355,-205.52
 L -96.3526,-205.387 L -96.1879,-205.232 L -96.0438,-205.058 L -95.9226,-204.867 L -95.8264,-204.663 L -95.7565,-204.448
 L -95.7142,-204.226 L -95.7,-204 L -95.7142,-203.774 L -95.7565,-203.552 L -95.8264,-203.337 L -95.9226,-203.133
 L -96.0438,-202.942 L -96.1879,-202.768 L -96.3526,-202.613 L -96.5355,-202.48 L -96.7336,-202.371 L -96.9438,-202.288
 L -97.1627,-202.232 L -97.387,-202.204 z
M 97.387,-202.204 L 97.1627,-202.232 L 96.9438,-202.288 L 96.7336,-202.371 L 96.5355,-202.48 L 96.3526,-202.613
 L 96.1879,-202.768 L 96.0438,-202.942 L 95.9226,-203.133 L 95.8264,-203.337 L 95.7565,-203.552 L 95.7142,-203.774
 L 95.7,-204 L 95.7142,-204.226 L 95.7565,-204.448 L 95.8264,-204.663 L 95.9226,-204.867 L 96.0438,-205.058
 L 96.1879,-205.232 L 96.3526,-205.387 L 96.5355,-205.52 L 96.7336,-205.629 L 96.9438,-205.712 L 97.1627,-205.768
 L 97.387,-205.796 L 97.613,-205.796 L 97.8373,-205.768 L 98.0562,-205.712 L 98.2664,-205.629 L 98.4645,-205.52
 L 98.6474,-205.387 L 98.8121,-205.232 L 98.9562,-205.058 L 99.0773,-204.867 L 99.1736,-204.663 L 99.2434,-204.448
 L 99.2858,-204.226 L 99.3,-204 L 99.2858,-203.774 L 99.2434,-203.552 L 99.1736,-203.337 L 99.0773,-203.133
 L 98.9562,-202.942 L 98.8121,-202.768 L 98.6474,-202.613 L 98.4645,-202.48 L 98.2664,-202.371 L 98.0562,-202.288
 L 97.8373,-202.232 L 97.613,-202.204 z
M -97.613,-82.2036 L -97.8373,-82.2319 L -98.0562,-82.2881 L -98.2664,-82.3713 L -98.4645,-82.4802 L -98.6474,-82.6131
 L -98.8121,-82.7678 L -98.9562,-82.942 L -99.0773,-83.1328 L -99.1736,-83.3374 L -99.2434,-83.5524 L -99.2858,-83.7744
 L -99.3,-84 L -99.2858,-84.2256 L -99.2434,-84.4476 L -99.1736,-84.6626 L -99.0773,-84.8672 L -98.9562,-85.058
 L -98.8121,-85.2322 L -98.6474,-85.3869 L -98.4645,-85.5198 L -98.2664,-85.6287 L -98.0562,-85.7119 L -97.8373,-85.7681
 L -97.613,-85.7964 L -97.387,-85.7964 L -97.1627,-85.7681 L -96.9438,-85.7119 L -96.7336,-85.6287 L -96.5355,-85.5198
 L -96.3526,-85.3869 L -96.1879,-85.2322 L -96.0438,-85.058 L -95.9226,-84.8672 L -95.8264,-84.6626 L -95.7565,-84.4476
 L -95.7142,-84.2256 L -95.7,-84 L -95.7142,-83.7744 L -95.7565,-83.5524 L -95.8264,-83.3374 L -95.9226,-83.1328
 L -96.0438,-82.942 L -96.1879,-82.7678 L -96.3526,-82.6131 L -96.5355,-82.4802 L -96.7336,-82.3713 L -96.9438,-82.2881
 L -97.1627,-82.2319 L -97.387,-82.2036 z
M 97.387,-82.2036 L 97.1627,-82.2319 L 96.9438,-82.2881 L 96.7336,-82.3713 L 96.5355,-82.4802 L 96.3526,-82.6131
 L 96.1879,-82.7678 L 96.0438,-82.942 L 95.9226,-83.1328 L 95.8264,-83.3374 L 95.7565,-83.5524 L 95.7142,-83.7744
 L 95.7,-84 L 95.7142,-84.2256 L 95.7565,-84.4476 L 95.8264,-84.6626 L 95.9226,-84.8672 L 96.0438,-85.058
 L 96.1879,-85.2322 L 96.3526,-85.3869 L 96.5355,-85.5198 L 96.7336,-85.6287 L 96.9438,-85.7119 L 97.1627,-85.7681
 L 97.387,-85.7964 L 97.613,-85.7964 L 97.8373,-85.7681 L 98.0562,-85.7119 L 98.2664,-85.6287 L 98.4645,-85.5198
 L 98.6474,-85.3869 L 98.8121,-85.2322 L 98.9562,-85.058 L 99.0773,-84.8672 L 99.1736,-84.6626 L 99.2434,-84.4476
 L 99.2858,-84.2256 L 99.3,-84 L 99.2858,-83.7744 L 99.2434,-83.5524 L 99.1736,-83.3374 L 99.0773,-83.1328
 L 98.9562,-82.942 L 98.8121,-82.7678 L 98.6474,-82.6131 L 98.4645,-82.4802 L 98.2664,-82.3713 L 98.0562,-82.2881
 L 97.8373,-82.2319 L 97.613,-82.2036 z
" stroke="black" fill="lightgray" stroke-width="0.5"/>
</svg>
