<?xml version="1.0" standalone="no"?>
<!DOCTYPE svg PUBLIC "-//W3C//DTD SVG 1.1//EN" "http://www.w3.org/Graphics/SVG/1.1/DTD/svg11.dtd">
<svg width="16mm" height="267mm" viewBox="-8 -444 16 267" xmlns="http://www.w3.org/2000/svg" version="1.1">
<title>OpenSCAD Model</title>
<path d="
M 3.4369,-384.089 L 4.04507,-384.245 L 4.62889,-384.476 L 5.17912,-384.778 L 5.68712,-385.147 L 6.14484,-385.577
 L 6.54507,-386.061 L 6.88153,-386.591 L 7.14888,-387.159 L 7.34291,-387.757 L 7.46057,-388.373 L 7.5,-389
 L 7.5,-439 L 7.46057,-439.627 L 7.34291,-440.243 L 7.14888,-440.841 L 6.88153,-441.409 L 6.54507,-441.939
 L 6.14484,-442.423 L 5.68712,-442.853 L 5.17912,-443.222 L 4.62889,-443.524 L 4.04507,-443.755 L 3.4369,-443.911
 L 2.81395,-443.99 L -2.81395,-443.99 L -3.4369,-443.911 L -4.04507,-443.755 L -4.62889,-443.524 L -5.17912,-443.222
 L -5.68712,-442.853 L -6.14484,-442.423 L -6.54507,-441.939 L -6.88153,-441.409 L -7.14888,-440.841 L -7.34291,-440.243
 L -7.46057,-439.627 L -7.5,-439 L -7.5,-389 L -7.46057,-388.373 L -7.34291,-387.757 L -7.14888,-387.159
 L -6.88153,-386.591 L -6.54507,-386.061 L -6.14484,-385.577 L -5.68712,-385.147 L -5.17912,-384.778 L -4.62889,-384.476
 L -4.04507,-384.245 L -3.4369,-384.089 L -2.81395,-384.01 L 2.81395,-384.01 z
M -2.25116,-385.508 L -2.74951,-385.571 L -3.23605,-385.696 L -3.70311,-385.881 L -4.1433,-386.123 L -4.54968,-386.418
 L -4.91586,-386.762 L -5.23605,-387.149 L -5.50522,-387.573 L -5.7191,-388.028 L -5.87433,-388.505 L -5.96844,-388.999
 L -6,-389.5 L -6,-438.5 L -5.96844,-439.001 L -5.87433,-439.495 L -5.7191,-439.972 L -5.50522,-440.427
 L -5.23605,-440.851 L -4.91586,-441.238 L -4.54968,-441.582 L -4.1433,-441.877 L -3.70311,-442.119 L -3.23605,-442.304
 L -2.74951,-442.429 L -2.25116,-442.492 L 2.25116,-442.492 L 2.74951,-442.429 L 3.23605,-442.304 L 3.70311,-442.119
 L 4.1433,-441.877 L 4.54968,-441.582 L 4.91586,-441.238 L 5.23605,-440.851 L 5.50522,-440.427 L 5.7191,-439.972
 L 5.87433,-439.495 L 5.96844,-439.001 L 6,-438.5 L 6,-389.5 L 5.96844,-388.999 L 5.87433,-388.505
 L 5.7191,-388.028 L 5.50522,-387.573 L 5.23605,-387.149 L 4.91586,-386.762 L 4.54968,-386.418 L 4.1433,-386.123
 L 3.70311,-385.881 L 3.23605,-385.696 L 2.74951,-385.571 L 2.25116,-385.508 z
M 3.4369,-315.089 L 4.04507,-315.245 L 4.62889,-315.476 L 5.17912,-315.778 L 5.68712,-316.147 L 6.14484,-316.577
 L 6.54507,-317.061 L 6.88153,-317.591 L 7.14888,-318.159 L 7.34291,-318.757 L 7.46057,-319.373 L 7.5,-320
 L 7.5,-370 L 7.46057,-370.627 L 7.34291,-371.243 L 7.14888,-371.841 L 6.88153,-372.409 L 6.54507,-372.939
 L 6.14484,-373.423 L 5.68712,-373.853 L 5.17912,-374.222 L 4.62889,-374.524 L 4.04507,-374.755 L 3.4369,-374.911
 L 2.81395,-374.99 L -2.81395,-374.99 L -3.4369,-374.911 L -4.04507,-374.755 L -4.62889,-374.524 L -5.17912,-374.222
 L -5.68712,-373.853 L -6.14484,-373.423 L -6.54507,-372.939 L -6.88153,-372.409 L -7.14888,-371.841 L -7.34291,-371.243
 L -7.46057,-370.627 L -7.5,-370 L -7.5,-320 L -7.46057,-319.373 L -7.34291,-318.757 L -7.14888,-318.159
 L -6.88153,-317.591 L -6.54507,-317.061 L -6.14484,-316.577 L -5.68712,-316.147 L -5.17912,-315.778 L -4.62889,-315.476
 L -4.04507,-315.245 L -3.4369,-315.089 L -2.81395,-315.01 L 2.81395,-315.01 z
M -2.24316,-316.635 L -2.72565,-316.696 L -3.1967,-316.817 L -3.64888,-316.996 L -4.07506,-317.23 L -4.46851,-317.516
 L -4.82301,-317.849 L -5.13301,-318.224 L -5.3936,-318.634 L -5.60068,-319.074 L -5.75096,-319.537 L -5.84209,-320.015
 L -5.87262,-320.5 L -5.87262,-369.5 L -5.84209,-369.985 L -5.75096,-370.463 L -5.60068,-370.926 L -5.3936,-371.366
 L -5.13301,-371.776 L -4.82301,-372.151 L -4.46851,-372.484 L -4.07506,-372.77 L -3.64888,-373.004 L -3.1967,-373.183
 L -2.72565,-373.304 L -2.24316,-373.365 L 2.24316,-373.365 L 2.72565,-373.304 L 3.1967,-373.183 L 3.64888,-373.004
 L 4.07506,-372.77 L 4.46851,-372.484 L 4.82301,-372.151 L 5.13301,-371.776 L 5.3936,-371.366 L 5.60068,-370.926
 L 5.75096,-370.463 L 5.84209,-369.985 L 5.87262,-369.5 L 5.87262,-320.5 L 5.84209,-320.015 L 5.75096,-319.537
 L 5.60068,-319.074 L 5.3936,-318.634 L 5.13301,-318.224 L 4.82301,-317.849 L 4.46851,-317.516 L 4.07506,-317.23
 L 3.64888,-316.996 L 3.1967,-316.817 L 2.72565,-316.696 L 2.24316,-316.635 z
M 3.4369,-246.089 L 4.04507,-246.245 L 4.62889,-246.476 L 5.17912,-246.778 L 5.68712,-247.147 L 6.14484,-247.577
 L 6.54507,-248.061 L 6.88153,-248.591 L 7.14888,-249.159 L 7.34291,-249.757 L 7.46057,-250.373 L 7.5,-251
 L 7.5,-301 L 7.46057,-301.627 L 7.34291,-302.243 L 7.14888,-302.841 L 6.88153,-303.409 L 6.54507,-303.939
 L 6.14484,-304.423 L 5.68712,-304.853 L 5.17912,-305.222 L 4.62889,-305.524 L 4.04507,-305.755 L 3.4369,-305.911
 L 2.81395,-305.99 L -2.81395,-305.99 L -3.4369,-305.911 L -4.04507,-305.755 L -4.62889,-305.524 L -5.17912,-305.222
 L -5.68712,-304.853 L -6.14484,-304.423 L -6.54507,-303.939 L -6.88153,-303.409 L -7.14888,-302.841 L -7.34291,-302.243
 L -7.46057,-301.627 L -7.5,-301 L -7.5,-251 L -7.46057,-250.373 L -7.34291,-249.757 L -7.14888,-249.159
 L -6.88153,-248.591 L -6.54507,-248.061 L -6.14484,-247.577 L -5.68712,-247.147 L -5.17912,-246.778 L -4.62889,-246.476
 L -4.04507,-246.245 L -3.4369,-246.089 L -2.81395,-246.01 L 2.81395,-246.01 z
M -0.150696,-296.105 L -0.449707,-296.143 L -0.741638,-296.217 L -1.02187,-296.328 L -1.28598,-296.474 L -1.52982,-296.651
 L -1.74951,-296.857 L -1.94164,-297.089 L -2.10313,-297.344 L -2.23146,-297.617 L -2.32458,-297.903 L -2.38107,-298.199
 L -2.39999,-298.5 L -2.38107,-298.801 L -2.32458,-299.097 L -2.23146,-299.383 L -2.10313,-299.656 L -1.94164,-299.911
 L -1.74951,-300.143 L -1.52982,-300.349 L -1.28598,-300.526 L -1.02187,-300.672 L -0.741638,-300.783 L -0.449707,-300.857
 L -0.150696,-300.895 L 0.150696,-300.895 L 0.449707,-300.857 L 0.741638,-300.783 L 1.02187,-300.672 L 1.28598,-300.526
 L 1.52982,-300.349 L 1.74951,-300.143 L 1.94164,-299.911 L 2.10313,-299.656 L 2.23146,-299.383 L 2.32458,-299.097
 L 2.38107,-298.801 L 2.39999,-298.5 L 2.38107,-298.199 L 2.32458,-297.903 L 2.23146,-297.617 L 2.10313,-297.344
 L 1.94164,-297.089 L 1.74951,-296.857 L 1.52982,-296.651 L 1.28598,-296.474 L 1.02187,-296.328 L 0.741638,-296.217
 L 0.449707,-296.143 L 0.150696,-296.105 z
M -0.150696,-251.105 L -0.449707,-251.143 L -0.741638,-251.217 L -1.02187,-251.328 L -1.28598,-251.474 L -1.52982,-251.651
 L -1.74951,-251.857 L -1.94164,-252.089 L -2.10313,-252.344 L -2.23146,-252.617 L -2.32458,-252.903 L -2.38107,-253.199
 L -2.39999,-253.5 L -2.38107,-253.801 L -2.32458,-254.097 L -2.23146,-254.383 L -2.10313,-254.656 L -1.94164,-254.911
 L -1.74951,-255.143 L -1.52982,-255.349 L -1.28598,-255.526 L -1.02187,-255.672 L -0.741638,-255.783 L -0.449707,-255.857
 L -0.150696,-255.895 L 0.150696,-255.895 L 0.449707,-255.857 L 0.741638,-255.783 L 1.02187,-255.672 L 1.28598,-255.526
 L 1.52982,-255.349 L 1.74951,-255.143 L 1.94164,-254.911 L 2.10313,-254.656 L 2.23146,-254.383 L 2.32458,-254.097
 L 2.38107,-253.801 L 2.39999,-253.5 L 2.38107,-253.199 L 2.32458,-252.903 L 2.23146,-252.617 L 2.10313,-252.344
 L 1.94164,-252.089 L 1.74951,-251.857 L 1.52982,-251.651 L 1.28598,-251.474 L 1.02187,-251.328 L 0.741638,-251.217
 L 0.449707,-251.143 L 0.150696,-251.105 z
M 3.4369,-177.089 L 4.04507,-177.245 L 4.62889,-177.476 L 5.17912,-177.778 L 5.68712,-178.147 L 6.14484,-178.577
 L 6.54507,-179.061 L 6.88153,-179.591 L 7.14888,-180.159 L 7.34291,-180.757 L 7.46057,-181.373 L 7.5,-182
 L 7.5,-232 L 7.46057,-232.627 L 7.34291,-233.243 L 7.14888,-233.841 L 6.88153,-234.409 L 6.54507,-234.939
 L 6.14484,-235.423 L 5.68712,-235.853 L 5.17912,-236.222 L 4.62889,-236.524 L 4.04507,-236.755 L 3.4369,-236.911
 L 2.81395,-236.99 L -2.81395,-236.99 L -3.4369,-236.911 L -4.04507,-236.755 L -4.62889,-236.524 L -5.17912,-236.222
 L -5.68712,-235.853 L -6.14484,-235.423 L -6.54507,-234.939 L -6.88153,-234.409 L -7.14888,-233.841 L -7.34291,-233.243
 L -7.46057,-232.627 L -7.5,-232 L -7.5,-182 L -7.46057,-181.373 L -7.34291,-180.757 L -7.14888,-180.159
 L -6.88153,-179.591 L -6.54507,-179.061 L -6.14484,-178.577 L -5.68712,-178.147 L -5.17912,-177.778 L -4.62889,-177.476
 L -4.04507,-177.245 L -3.4369,-177.089 L -2.81395,-177.01 L 2.81395,-177.01 z
M -0.113022,-227.704 L -0.33728,-227.732 L -0.556229,-227.788 L -0.766388,-227.871 L -0.964478,-227.98 L -1.14735,-228.113
 L -1.31213,-228.268 L -1.45622,-228.442 L -1.57735,-228.633 L -1.67358,-228.837 L -1.74344,-229.052 L -1.7858,-229.274
 L -1.79999,-229.5 L -1.7858,-229.726 L -1.74344,-229.948 L -1.67358,-230.163 L -1.57735,-230.367 L -1.45622,-230.558
 L -1.31213,-230.732 L -1.14735,-230.887 L -0.964478,-231.02 L -0.766388,-231.129 L -0.556229,-231.212 L -0.33728,-231.268
 L -0.113022,-231.296 L 0.113022,-231.296 L 0.33728,-231.268 L 0.556229,-231.212 L 0.766388,-231.129 L 0.964478,-231.02
 L 1.14735,-230.887 L 1.31213,-230.732 L 1.45622,-230.558 L 1.57735,-230.367 L 1.67358,-230.163 L 1.74344,-229.948
 L 1.7858,-229.726 L 1.79999,-229.5 L 1.7858,-229.274 L 1.74344,-229.052 L 1.67358,-228.837 L 1.57735,-228.633
 L 1.45622,-228.442 L 1.31213,-228.268 L 1.14735,-228.113 L 0.964478,-227.98 L 0.766388,-227.871 L 0.556229,-227.788
 L 0.33728,-227.732 L 0.113022,-227.704 z
M -0.113022,-182.704 L -0.33728,-182.732 L -0.556229,-182.788 L -0.766388,-182.871 L -0.964478,-182.98 L -1.14735,-183.113
 L -1.31213,-183.268 L -1.45622,-183.442 L -1.57735,-183.633 L -1.67358,-183.837 L -1.74344,-184.052 L -1.7858,-184.274
 L -1.79999,-184.5 L -1.7858,-184.726 L -1.74344,-184.948 L -1.67358,-185.163 L -1.57735,-185.367 L -1.45622,-185.558
 L -1.31213,-185.732 L -1.14735,-185.887 L -0.964478,-186.02 L -0.766388,-186.129 L -0.556229,-186.212 L -0.33728,-186.268
 L -0.113022,-186.296 L 0.113022,-186.296 L 0.33728,-186.268 L 0.556229,-186.212 L 0.766388,-186.129 L 0.964478,-186.02
 L 1.14735,-185.887 L 1.31213,-185.732 L 1.45622,-185.558 L 1.57735,-185.367 L 1.67358,-185.163 L 1.74344,-184.948
 L 1.7858,-184.726 L 1.79999,-184.5 L 1.7858,-184.274 L 1.74344,-184.052 L 1.67358,-183.837 L 1.57735,-183.633
 L 1.45622,-183.442 L 1.31213,-183.268 L 1.14735,-183.113 L 0.964478,-182.98 L 0.766388,-182.871 L 0.556229,-182.788
 L 0.33728,-182.732 L 0.113022,-182.704 z
" stroke="black" fill="lightgray" stroke-width="0.5"/>
</svg>
