<?xml version="1.0" standalone="no"?>
<!DOCTYPE svg PUBLIC "-//W3C//DTD SVG 1.1//EN" "http://www.w3.org/Graphics/SVG/1.1/DTD/svg11.dtd">
<svg width="150mm" height="38mm" viewBox="-75 -55 150 38" xmlns="http://www.w3.org/2000/svg" version="1.1">
<title>OpenSCAD Model</title>
<path d="
M 70.4369,-41.0886 L 71.0451,-41.2447 L 71.6289,-41.4759 L 72.1791,-41.7784 L 72.6871,-42.1474 L 73.1448,-42.5773
 L 73.5451,-43.0611 L 73.8815,-43.5912 L 74.1489,-44.1594 L 74.3429,-44.7566 L 74.4606,-45.3733 L 74.5,-46
 L 74.5,-50 L 74.4606,-50.6267 L 74.3429,-51.2434 L 74.1489,-51.8406 L 73.8815,-52.4088 L 73.5451,-52.9389
 L 73.1448,-53.4227 L 72.6871,-53.8526 L 72.1791,-54.2216 L 71.6289,-54.5241 L 71.0451,-54.7553 L 70.4369,-54.9114
 L 69.8139,-54.9901 L -69.8139,-54.9901 L -70.4369,-54.9114 L -71.0451,-54.7553 L -71.6289,-54.5241 L -72.1791,-54.2216
 L -72.6871,-53.8526 L -73.1448,-53.4227 L -73.5451,-52.9389 L -73.8815,-52.4088 L -74.1489,-51.8406 L -74.3429,-51.2434
 L -74.4606,-50.6267 L -74.5,-50 L -74.5,-46 L -74.4606,-45.3733 L -74.3429,-44.7566 L -74.1489,-44.1594
 L -73.8815,-43.5912 L -73.5451,-43.0611 L -73.1448,-42.5773 L -72.6871,-42.1474 L -72.1791,-41.7784 L -71.6289,-41.4759
 L -71.0451,-41.2447 L -70.4369,-41.0886 L -69.8139,-41.0099 L 69.8139,-41.0099 z
M 37.3116,-45.0059 L 36.9379,-45.0531 L 36.5729,-45.1468 L 36.2227,-45.2855 L 35.8925,-45.467 L 35.5877,-45.6885
 L 35.3131,-45.9464 L 35.0729,-46.2366 L 34.8711,-46.5547 L 34.7107,-46.8956 L 34.5942,-47.2539 L 34.5237,-47.624
 L 34.5,-48 L 34.5237,-48.376 L 34.5942,-48.7461 L 34.7107,-49.1044 L 34.8711,-49.4453 L 35.0729,-49.7634
 L 35.3131,-50.0536 L 35.5877,-50.3115 L 35.8925,-50.533 L 36.2227,-50.7145 L 36.5729,-50.8532 L 36.9379,-50.9469
 L 37.3116,-50.9941 L 37.6884,-50.9941 L 38.0621,-50.9469 L 38.427,-50.8532 L 38.7773,-50.7145 L 39.1075,-50.533
 L 39.4123,-50.3115 L 39.6869,-50.0536 L 39.927,-49.7634 L 40.1289,-49.4453 L 40.2893,-49.1044 L 40.4057,-48.7461
 L 40.4763,-48.376 L 40.5,-48 L 40.4763,-47.624 L 40.4057,-47.2539 L 40.2893,-46.8956 L 40.1289,-46.5547
 L 39.927,-46.2366 L 39.6869,-45.9464 L 39.4123,-45.6885 L 39.1075,-45.467 L 38.7773,-45.2855 L 38.427,-45.1468
 L 38.0621,-45.0531 L 37.6884,-45.0059 z
M 52.3116,-45.0059 L 51.9379,-45.0531 L 51.5729,-45.1468 L 51.2227,-45.2855 L 50.8925,-45.467 L 50.5877,-45.6885
 L 50.3131,-45.9464 L 50.0729,-46.2366 L 49.8711,-46.5547 L 49.7107,-46.8956 L 49.5942,-47.2539 L 49.5237,-47.624
 L 49.5,-48 L 49.5237,-48.376 L 49.5942,-48.7461 L 49.7107,-49.1044 L 49.8711,-49.4453 L 50.0729,-49.7634
 L 50.3131,-50.0536 L 50.5877,-50.3115 L 50.8925,-50.533 L 51.2227,-50.7145 L 51.5729,-50.8532 L 51.9379,-50.9469
 L 52.3116,-50.9941 L 52.6884,-50.9941 L 53.0621,-50.9469 L 53.427,-50.8532 L 53.7773,-50.7145 L 54.1075,-50.533
 L 54.4123,-50.3115 L 54.6869,-50.0536 L 54.927,-49.7634 L 55.1289,-49.4453 L 55.2893,-49.1044 L 55.4057,-48.7461
 L 55.4763,-48.376 L 55.5,-48 L 55.4763,-47.624 L 55.4057,-47.2539 L 55.2893,-46.8956 L 55.1289,-46.5547
 L 54.927,-46.2366 L 54.6869,-45.9464 L 54.4123,-45.6885 L 54.1075,-45.467 L 53.7773,-45.2855 L 53.427,-45.1468
 L 53.0621,-45.0531 L 52.6884,-45.0059 z
M -7.68837,-45.0059 L -8.06213,-45.0531 L -8.42705,-45.1468 L -8.77733,-45.2855 L -9.10747,-45.467 L -9.41226,-45.6885
 L -9.6869,-45.9464 L -9.92705,-46.2366 L -10.1289,-46.5547 L -10.2893,-46.8956 L -10.4057,-47.2539 L -10.4763,-47.624
 L -10.5,-48 L -10.4763,-48.376 L -10.4057,-48.7461 L -10.2893,-49.1044 L -10.1289,-49.4453 L -9.92705,-49.7634
 L -9.6869,-50.0536 L -9.41226,-50.3115 L -9.10747,-50.533 L -8.77733,-50.7145 L -8.42705,-50.8532 L -8.06213,-50.9469
 L -7.68837,-50.9941 L -7.31161,-50.9941 L -6.93785,-50.9469 L -6.57294,-50.8532 L -6.22266,-50.7145 L -5.89252,-50.533
 L -5.58772,-50.3115 L -5.31308,-50.0536 L -5.07294,-49.7634 L -4.87108,-49.4453 L -4.71066,-49.1044 L -4.59424,-48.7461
 L -4.52365,-48.376 L -4.5,-48 L -4.52365,-47.624 L -4.59424,-47.2539 L -4.71066,-46.8956 L -4.87108,-46.5547
 L -5.07294,-46.2366 L -5.31308,-45.9464 L -5.58772,-45.6885 L -5.89252,-45.467 L -6.22266,-45.2855 L -6.57294,-45.1468
 L -6.93785,-45.0531 L -7.31161,-45.0059 z
M 22.3116,-45.0059 L 21.9379,-45.0531 L 21.5729,-45.1468 L 21.2227,-45.2855 L 20.8925,-45.467 L 20.5877,-45.6885
 L 20.3131,-45.9464 L 20.0729,-46.2366 L 19.8711,-46.5547 L 19.7107,-46.8956 L 19.5942,-47.2539 L 19.5237,-47.624
 L 19.5,-48 L 19.5237,-48.376 L 19.5942,-48.7461 L 19.7107,-49.1044 L 19.8711,-49.4453 L 20.0729,-49.7634
 L 20.3131,-50.0536 L 20.5877,-50.3115 L 20.8925,-50.533 L 21.2227,-50.7145 L 21.5729,-50.8532 L 21.9379,-50.9469
 L 22.3116,-50.9941 L 22.6884,-50.9941 L 23.0621,-50.9469 L 23.427,-50.8532 L 23.7773,-50.7145 L 24.1075,-50.533
 L 24.4123,-50.3115 L 24.6869,-50.0536 L 24.927,-49.7634 L 25.1289,-49.4453 L 25.2893,-49.1044 L 25.4057,-48.7461
 L 25.4763,-48.376 L 25.5,-48 L 25.4763,-47.624 L 25.4057,-47.2539 L 25.2893,-46.8956 L 25.1289,-46.5547
 L 24.927,-46.2366 L 24.6869,-45.9464 L 24.4123,-45.6885 L 24.1075,-45.467 L 23.7773,-45.2855 L 23.427,-45.1468
 L 23.0621,-45.0531 L 22.6884,-45.0059 z
M -52.6884,-45.0059 L -53.0621,-45.0531 L -53.427,-45.1468 L -53.7773,-45.2855 L -54.1075,-45.467 L -54.4123,-45.6885
 L -54.6869,-45.9464 L -54.927,-46.2366 L -55.1289,-46.5547 L -55.2893,-46.8956 L -55.4057,-47.2539 L -55.4763,-47.624
 L -55.5,-48 L -55.4763,-48.376 L -55.4057,-48.7461 L -55.2893,-49.1044 L -55.1289,-49.4453 L -54.927,-49.7634
 L -54.6869,-50.0536 L -54.4123,-50.3115 L -54.1075,-50.533 L -53.7773,-50.7145 L -53.427,-50.8532 L -53.0621,-50.9469
 L -52.6884,-50.9941 L -52.3116,-50.9941 L -51.9379,-50.9469 L -51.5729,-50.8532 L -51.2227,-50.7145 L -50.8925,-50.533
 L -50.5877,-50.3115 L -50.3131,-50.0536 L -50.0729,-49.7634 L -49.8711,-49.4453 L -49.7107,-49.1044 L -49.5942,-48.7461
 L -49.5237,-48.376 L -49.5,-48 L -49.5237,-47.624 L -49.5942,-47.2539 L -49.7107,-46.8956 L -49.8711,-46.5547
 L -50.0729,-46.2366 L -50.3131,-45.9464 L -50.5877,-45.6885 L -50.8925,-45.467 L -51.2227,-45.2855 L -51.5729,-45.1468
 L -51.9379,-45.0531 L -52.3116,-45.0059 z
M -22.6884,-45.0059 L -23.0621,-45.0531 L -23.427,-45.1468 L -23.7773,-45.2855 L -24.1075,-45.467 L -24.4123,-45.6885
 L -24.6869,-45.9464 L -24.927,-46.2366 L -25.1289,-46.5547 L -25.2893,-46.8956 L -25.4057,-47.2539 L -25.4763,-47.624
 L -25.5,-48 L -25.4763,-48.376 L -25.4057,-48.7461 L -25.2893,-49.1044 L -25.1289,-49.4453 L -24.927,-49.7634
 L -24.6869,-50.0536 L -24.4123,-50.3115 L -24.1075,-50.533 L -23.7773,-50.7145 L -23.427,-50.8532 L -23.0621,-50.9469
 L -22.6884,-50.9941 L -22.3116,-50.9941 L -21.9379,-50.9469 L -21.5729,-50.8532 L -21.2227,-50.7145 L -20.8925,-50.533
 L -20.5877,-50.3115 L -20.3131,-50.0536 L -20.0729,-49.7634 L -19.8711,-49.4453 L -19.7107,-49.1044 L -19.5942,-48.7461
 L -19.5237,-48.376 L -19.5,-48 L -19.5237,-47.624 L -19.5942,-47.2539 L -19.7107,-46.8956 L -19.8711,-46.5547
 L -20.0729,-46.2366 L -20.3131,-45.9464 L -20.5877,-45.6885 L -20.8925,-45.467 L -21.2227,-45.2855 L -21.5729,-45.1468
 L -21.9379,-45.0531 L -22.3116,-45.0059 z
M -37.6884,-45.0059 L -38.0621,-45.0531 L -38.427,-45.1468 L -38.7773,-45.2855 L -39.1075,-45.467 L -39.4123,-45.6885
 L -39.6869,-45.9464 L -39.927,-46.2366 L -40.1289,-46.5547 L -40.2893,-46.8956 L -40.4057,-47.2539 L -40.4763,-47.624
 L -40.5,-48 L -40.4763,-48.376 L -40.4057,-48.7461 L -40.2893,-49.1044 L -40.1289,-49.4453 L -39.927,-49.7634
 L -39.6869,-50.0536 L -39.4123,-50.3115 L -39.1075,-50.533 L -38.7773,-50.7145 L -38.427,-50.8532 L -38.0621,-50.9469
 L -37.6884,-50.9941 L -37.3116,-50.9941 L -36.9379,-50.9469 L -36.5729,-50.8532 L -36.2227,-50.7145 L -35.8925,-50.533
 L -35.5877,-50.3115 L -35.3131,-50.0536 L -35.0729,-49.7634 L -34.8711,-49.4453 L -34.7107,-49.1044 L -34.5942,-48.7461
 L -34.5237,-48.376 L -34.5,-48 L -34.5237,-47.624 L -34.5942,-47.2539 L -34.7107,-46.8956 L -34.8711,-46.5547
 L -35.0729,-46.2366 L -35.3131,-45.9464 L -35.5877,-45.6885 L -35.8925,-45.467 L -36.2227,-45.2855 L -36.5729,-45.1468
 L -36.9379,-45.0531 L -37.3116,-45.0059 z
M 7.31161,-45.0059 L 6.93785,-45.0531 L 6.57294,-45.1468 L 6.22266,-45.2855 L 5.89252,-45.467 L 5.58772,-45.6885
 L 5.31308,-45.9464 L 5.07294,-46.2366 L 4.87108,-46.5547 L 4.71066,-46.8956 L 4.59424,-47.2539 L 4.52365,-47.624
 L 4.5,-48 L 4.52365,-48.376 L 4.59424,-48.7461 L 4.71066,-49.1044 L 4.87108,-49.4453 L 5.07294,-49.7634
 L 5.31308,-50.0536 L 5.58772,-50.3115 L 5.89252,-50.533 L 6.22266,-50.7145 L 6.57294,-50.8532 L 6.93785,-50.9469
 L 7.31161,-50.9941 L 7.68837,-50.9941 L 8.06213,-50.9469 L 8.42705,-50.8532 L 8.77733,-50.7145 L 9.10747,-50.533
 L 9.41226,-50.3115 L 9.6869,-50.0536 L 9.92705,-49.7634 L 10.1289,-49.4453 L 10.2893,-49.1044 L 10.4057,-48.7461
 L 10.4763,-48.376 L 10.5,-48 L 10.4763,-47.624 L 10.4057,-47.2539 L 10.2893,-46.8956 L 10.1289,-46.5547
 L 9.92705,-46.2366 L 9.6869,-45.9464 L 9.41226,-45.6885 L 9.10747,-45.467 L 8.77733,-45.2855 L 8.42705,-45.1468
 L 8.06213,-45.0531 L 7.68837,-45.0059 z
M 67.3116,-45.0059 L 66.9379,-45.0531 L 66.573,-45.1468 L 66.2227,-45.2855 L 65.8925,-45.467 L 65.5877,-45.6885
 L 65.3131,-45.9464 L 65.073,-46.2366 L 64.8711,-46.5547 L 64.7107,-46.8956 L 64.5943,-47.2539 L 64.5237,-47.624
 L 64.5,-48 L 64.5237,-48.376 L 64.5943,-48.7461 L 64.7107,-49.1044 L 64.8711,-49.4453 L 65.073,-49.7634
 L 65.3131,-50.0536 L 65.5877,-50.3115 L 65.8925,-50.533 L 66.2227,-50.7145 L 66.573,-50.8532 L 66.9379,-50.9469
 L 67.3116,-50.9941 L 67.6884,-50.9941 L 68.0621,-50.9469 L 68.427,-50.8532 L 68.7773,-50.7145 L 69.1075,-50.533
 L 69.4123,-50.3115 L 69.6869,-50.0536 L 69.927,-49.7634 L 70.1289,-49.4453 L 70.2893,-49.1044 L 70.4057,-48.7461
 L 70.4763,-48.376 L 70.5,-48 L 70.4763,-47.624 L 70.4057,-47.2539 L 70.2893,-46.8956 L 70.1289,-46.5547
 L 69.927,-46.2366 L 69.6869,-45.9464 L 69.4123,-45.6885 L 69.1075,-45.467 L 68.7773,-45.2855 L 68.427,-45.1468
 L 68.0621,-45.0531 L 67.6884,-45.0059 z
M -67.6884,-45.0059 L -68.0621,-45.0531 L -68.427,-45.1468 L -68.7773,-45.2855 L -69.1075,-45.467 L -69.4123,-45.6885
 L -69.6869,-45.9464 L -69.927,-46.2366 L -70.1289,-46.5547 L -70.2893,-46.8956 L -70.4057,-47.2539 L -70.4763,-47.624
 L -70.5,-48 L -70.4763,-48.376 L -70.4057,-48.7461 L -70.2893,-49.1044 L -70.1289,-49.4453 L -69.927,-49.7634
 L -69.6869,-50.0536 L -69.4123,-50.3115 L -69.1075,-50.533 L -68.7773,-50.7145 L -68.427,-50.8532 L -68.0621,-50.9469
 L -67.6884,-50.9941 L -67.3116,-50.9941 L -66.9379,-50.9469 L -66.573,-50.8532 L -66.2227,-50.7145 L -65.8925,-50.533
 L -65.5877,-50.3115 L -65.3131,-50.0536 L -65.073,-49.7634 L -64.8711,-49.4453 L -64.7107,-49.1044 L -64.5943,-48.7461
 L -64.5237,-48.376 L -64.5,-48 L -64.5237,-47.624 L -64.5943,-47.2539 L -64.7107,-46.8956 L -64.8711,-46.5547
 L -65.073,-46.2366 L -65.3131,-45.9464 L -65.5877,-45.6885 L -65.8925,-45.467 L -66.2227,-45.2855 L -66.573,-45.1468
 L -66.9379,-45.0531 L -67.3116,-45.0059 z
M 44.9058,-46.503 L 44.7189,-46.5266 L 44.5365,-46.5734 L 44.3613,-46.6428 L 44.1963,-46.7335 L 44.0439,-46.8442
 L 43.9065,-46.9732 L 43.7865,-47.1183 L 43.6855,-47.2774 L 43.6053,-47.4478 L 43.5471,-47.627 L 43.5118,-47.812
 L 43.5,-48 L 43.5118,-48.188 L 43.5471,-48.373 L 43.6053,-48.5522 L 43.6855,-48.7226 L 43.7865,-48.8817
 L 43.9065,-49.0268 L 44.0439,-49.1558 L 44.1963,-49.2665 L 44.3613,-49.3572 L 44.5365,-49.4266 L 44.7189,-49.4734
 L 44.9058,-49.497 L 45.0942,-49.497 L 45.2811,-49.4734 L 45.4635,-49.4266 L 45.6387,-49.3572 L 45.8037,-49.2665
 L 45.9561,-49.1558 L 46.0934,-49.0268 L 46.2135,-48.8817 L 46.3145,-48.7226 L 46.3947,-48.5522 L 46.4529,-48.373
 L 46.4882,-48.188 L 46.5,-48 L 46.4882,-47.812 L 46.4529,-47.627 L 46.3947,-47.4478 L 46.3145,-47.2774
 L 46.2135,-47.1183 L 46.0934,-46.9732 L 45.9561,-46.8442 L 45.8037,-46.7335 L 45.6387,-46.6428 L 45.4635,-46.5734
 L 45.2811,-46.5266 L 45.0942,-46.503 z
M -0.0941772,-46.503 L -0.281067,-46.5266 L -0.463516,-46.5734 L -0.638657,-46.6428 L -0.803726,-46.7335 L -0.956131,-46.8442
 L -1.09344,-46.9732 L -1.21352,-47.1183 L -1.31445,-47.2774 L -1.39465,-47.4478 L -1.45287,-47.627 L -1.48816,-47.812
 L -1.5,-48 L -1.48816,-48.188 L -1.45287,-48.373 L -1.39465,-48.5522 L -1.31445,-48.7226 L -1.21352,-48.8817
 L -1.09344,-49.0268 L -0.956131,-49.1558 L -0.803726,-49.2665 L -0.638657,-49.3572 L -0.463516,-49.4266 L -0.281067,-49.4734
 L -0.0941772,-49.497 L 0.0941772,-49.497 L 0.281067,-49.4734 L 0.463516,-49.4266 L 0.638657,-49.3572 L 0.803726,-49.2665
 L 0.956131,-49.1558 L 1.09344,-49.0268 L 1.21352,-48.8817 L 1.31445,-48.7226 L 1.39465,-48.5522 L 1.45287,-48.373
 L 1.48816,-48.188 L 1.5,-48 L 1.48816,-47.812 L 1.45287,-47.627 L 1.39465,-47.4478 L 1.31445,-47.2774
 L 1.21352,-47.1183 L 1.09344,-46.9732 L 0.956131,-46.8442 L 0.803726,-46.7335 L 0.638657,-46.6428 L 0.463516,-46.5734
 L 0.281067,-46.5266 L 0.0941772,-46.503 z
M 29.9058,-46.503 L 29.7189,-46.5266 L 29.5365,-46.5734 L 29.3613,-46.6428 L 29.1963,-46.7335 L 29.0439,-46.8442
 L 28.9065,-46.9732 L 28.7865,-47.1183 L 28.6855,-47.2774 L 28.6053,-47.4478 L 28.5471,-47.627 L 28.5118,-47.812
 L 28.5,-48 L 28.5118,-48.188 L 28.5471,-48.373 L 28.6053,-48.5522 L 28.6855,-48.7226 L 28.7865,-48.8817
 L 28.9065,-49.0268 L 29.0439,-49.1558 L 29.1963,-49.2665 L 29.3613,-49.3572 L 29.5365,-49.4266 L 29.7189,-49.4734
 L 29.9058,-49.497 L 30.0942,-49.497 L 30.2811,-49.4734 L 30.4635,-49.4266 L 30.6387,-49.3572 L 30.8037,-49.2665
 L 30.9561,-49.1558 L 31.0934,-49.0268 L 31.2135,-48.8817 L 31.3145,-48.7226 L 31.3947,-48.5522 L 31.4529,-48.373
 L 31.4882,-48.188 L 31.5,-48 L 31.4882,-47.812 L 31.4529,-47.627 L 31.3947,-47.4478 L 31.3145,-47.2774
 L 31.2135,-47.1183 L 31.0934,-46.9732 L 30.9561,-46.8442 L 30.8037,-46.7335 L 30.6387,-46.6428 L 30.4635,-46.5734
 L 30.2811,-46.5266 L 30.0942,-46.503 z
M -30.0942,-46.503 L -30.2811,-46.5266 L -30.4635,-46.5734 L -30.6387,-46.6428 L -30.8037,-46.7335 L -30.9561,-46.8442
 L -31.0934,-46.9732 L -31.2135,-47.1183 L -31.3145,-47.2774 L -31.3947,-47.4478 L -31.4529,-47.627 L -31.4882,-47.812
 L -31.5,-48 L -31.4882,-48.188 L -31.4529,-48.373 L -31.3947,-48.5522 L -31.3145,-48.7226 L -31.2135,-48.8817
 L -31.0934,-49.0268 L -30.9561,-49.1558 L -30.8037,-49.2665 L -30.6387,-49.3572 L -30.4635,-49.4266 L -30.2811,-49.4734
 L -30.0942,-49.497 L -29.9058,-49.497 L -29.7189,-49.4734 L -29.5365,-49.4266 L -29.3613,-49.3572 L -29.1963,-49.2665
 L -29.0439,-49.1558 L -28.9065,-49.0268 L -28.7865,-48.8817 L -28.6855,-48.7226 L -28.6053,-48.5522 L -28.5471,-48.373
 L -28.5118,-48.188 L -28.5,-48 L -28.5118,-47.812 L -28.5471,-47.627 L -28.6053,-47.4478 L -28.6855,-47.2774
 L -28.7865,-47.1183 L -28.9065,-46.9732 L -29.0439,-46.8442 L -29.1963,-46.7335 L -29.3613,-46.6428 L -29.5365,-46.5734
 L -29.7189,-46.5266 L -29.9058,-46.503 z
M -60.0942,-46.503 L -60.2811,-46.5266 L -60.4635,-46.5734 L -60.6387,-46.6428 L -60.8037,-46.7335 L -60.9561,-46.8442
 L -61.0934,-46.9732 L -61.2135,-47.1183 L -61.3145,-47.2774 L -61.3947,-47.4478 L -61.4529,-47.627 L -61.4882,-47.812
 L -61.5,-48 L -61.4882,-48.188 L -61.4529,-48.373 L -61.3947,-48.5522 L -61.3145,-48.7226 L -61.2135,-48.8817
 L -61.0934,-49.0268 L -60.9561,-49.1558 L -60.8037,-49.2665 L -60.6387,-49.3572 L -60.4635,-49.4266 L -60.2811,-49.4734
 L -60.0942,-49.497 L -59.9058,-49.497 L -59.7189,-49.4734 L -59.5365,-49.4266 L -59.3613,-49.3572 L -59.1963,-49.2665
 L -59.0439,-49.1558 L -58.9065,-49.0268 L -58.7865,-48.8817 L -58.6855,-48.7226 L -58.6053,-48.5522 L -58.5471,-48.373
 L -58.5118,-48.188 L -58.5,-48 L -58.5118,-47.812 L -58.5471,-47.627 L -58.6053,-47.4478 L -58.6855,-47.2774
 L -58.7865,-47.1183 L -58.9065,-46.9732 L -59.0439,-46.8442 L -59.1963,-46.7335 L -59.3613,-46.6428 L -59.5365,-46.5734
 L -59.7189,-46.5266 L -59.9058,-46.503 z
M 14.9058,-46.503 L 14.7189,-46.5266 L 14.5365,-46.5734 L 14.3613,-46.6428 L 14.1963,-46.7335 L 14.0439,-46.8442
 L 13.9065,-46.9732 L 13.7865,-47.1183 L 13.6855,-47.2774 L 13.6053,-47.4478 L 13.5471,-47.627 L 13.5118,-47.812
 L 13.5,-48 L 13.5118,-48.188 L 13.5471,-48.373 L 13.6053,-48.5522 L 13.6855,-48.7226 L 13.7865,-48.8817
 L 13.9065,-49.0268 L 14.0439,-49.1558 L 14.1963,-49.2665 L 14.3613,-49.3572 L 14.5365,-49.4266 L 14.7189,-49.4734
 L 14.9058,-49.497 L 15.0942,-49.497 L 15.2811,-49.4734 L 15.4635,-49.4266 L 15.6387,-49.3572 L 15.8037,-49.2665
 L 15.9561,-49.1558 L 16.0934,-49.0268 L 16.2135,-48.8817 L 16.3145,-48.7226 L 16.3947,-48.5522 L 16.4529,-48.373
 L 16.4882,-48.188 L 16.5,-48 L 16.4882,-47.812 L 16.4529,-47.627 L 16.3947,-47.4478 L 16.3145,-47.2774
 L 16.2135,-47.1183 L 16.0934,-46.9732 L 15.9561,-46.8442 L 15.8037,-46.7335 L 15.6387,-46.6428 L 15.4635,-46.5734
 L 15.2811,-46.5266 L 15.0942,-46.503 z
M -45.0942,-46.503 L -45.2811,-46.5266 L -45.4635,-46.5734 L -45.6387,-46.6428 L -45.8037,-46.7335 L -45.9561,-46.8442
 L -46.0934,-46.9732 L -46.2135,-47.1183 L -46.3145,-47.2774 L -46.3947,-47.4478 L -46.4529,-47.627 L -46.4882,-47.812
 L -46.5,-48 L -46.4882,-48.188 L -46.4529,-48.373 L -46.3947,-48.5522 L -46.3145,-48.7226 L -46.2135,-48.8817
 L -46.0934,-49.0268 L -45.9561,-49.1558 L -45.8037,-49.2665 L -45.6387,-49.3572 L -45.4635,-49.4266 L -45.2811,-49.4734
 L -45.0942,-49.497 L -44.9058,-49.497 L -44.7189,-49.4734 L -44.5365,-49.4266 L -44.3613,-49.3572 L -44.1963,-49.2665
 L -44.0439,-49.1558 L -43.9065,-49.0268 L -43.7865,-48.8817 L -43.6855,-48.7226 L -43.6053,-48.5522 L -43.5471,-48.373
 L -43.5118,-48.188 L -43.5,-48 L -43.5118,-47.812 L -43.5471,-47.627 L -43.6053,-47.4478 L -43.6855,-47.2774
 L -43.7865,-47.1183 L -43.9065,-46.9732 L -44.0439,-46.8442 L -44.1963,-46.7335 L -44.3613,-46.6428 L -44.5365,-46.5734
 L -44.7189,-46.5266 L -44.9058,-46.503 z
M 59.9058,-46.503 L 59.7189,-46.5266 L 59.5365,-46.5734 L 59.3613,-46.6428 L 59.1963,-46.7335 L 59.0439,-46.8442
 L 58.9065,-46.9732 L 58.7865,-47.1183 L 58.6855,-47.2774 L 58.6053,-47.4478 L 58.5471,-47.627 L 58.5118,-47.812
 L 58.5,-48 L 58.5118,-48.188 L 58.5471,-48.373 L 58.6053,-48.5522 L 58.6855,-48.7226 L 58.7865,-48.8817
 L 58.9065,-49.0268 L 59.0439,-49.1558 L 59.1963,-49.2665 L 59.3613,-49.3572 L 59.5365,-49.4266 L 59.7189,-49.4734
 L 59.9058,-49.497 L 60.0942,-49.497 L 60.2811,-49.4734 L 60.4635,-49.4266 L 60.6387,-49.3572 L 60.8037,-49.2665
 L 60.9561,-49.1558 L 61.0934,-49.0268 L 61.2135,-48.8817 L 61.3145,-48.7226 L 61.3947,-48.5522 L 61.4529,-48.373
 L 61.4882,-48.188 L 61.5,-48 L 61.4882,-47.812 L 61.4529,-47.627 L 61.3947,-47.4478 L 61.3145,-47.2774
 L 61.2135,-47.1183 L 61.0934,-46.9732 L 60.9561,-46.8442 L 60.8037,-46.7335 L 60.6387,-46.6428 L 60.4635,-46.5734
 L 60.2811,-46.5266 L 60.0942,-46.503 z
M -15.0942,-46.503 L -15.2811,-46.5266 L -15.4635,-46.5734 L -15.6387,-46.6428 L -15.8037,-46.7335 L -15.9561,-46.8442
 L -16.0934,-46.9732 L -16.2135,-47.1183 L -16.3145,-47.2774 L -16.3947,-47.4478 L -16.4529,-47.627 L -16.4882,-47.812
 L -16.5,-48 L -16.4882,-48.188 L -16.4529,-48.373 L -16.3947,-48.5522 L -16.3145,-48.7226 L -16.2135,-48.8817
 L -16.0934,-49.0268 L -15.9561,-49.1558 L -15.8037,-49.2665 L -15.6387,-49.3572 L -15.4635,-49.4266 L -15.2811,-49.4734
 L -15.0942,-49.497 L -14.9058,-49.497 L -14.7189,-49.4734 L -14.5365,-49.4266 L -14.3613,-49.3572 L -14.1963,-49.2665
 L -14.0439,-49.1558 L -13.9065,-49.0268 L -13.7865,-48.8817 L -13.6855,-48.7226 L -13.6053,-48.5522 L -13.5471,-48.373
 L -13.5118,-48.188 L -13.5,-48 L -13.5118,-47.812 L -13.5471,-47.627 L -13.6053,-47.4478 L -13.6855,-47.2774
 L -13.7865,-47.1183 L -13.9065,-46.9732 L -14.0439,-46.8442 L -14.1963,-46.7335 L -14.3613,-46.6428 L -14.5365,-46.5734
 L -14.7189,-46.5266 L -14.9058,-46.503 z
M 70.4369,-17.0886 L 71.0451,-17.2447 L 71.6289,-17.4759 L 72.1791,-17.7784 L 72.6871,-18.1474 L 73.1448,-18.5773
 L 73.5451,-19.0611 L 73.8815,-19.5912 L 74.1489,-20.1594 L 74.3429,-20.7566 L 74.4606,-21.3733 L 74.5,-22
 L 74.5,-26 L 74.4606,-26.6267 L 74.3429,-27.2434 L 74.1489,-27.8406 L 73.8815,-28.4088 L 73.5451,-28.9389
 L 73.1448,-29.4227 L 72.6871,-29.8526 L 72.1791,-30.2216 L 71.6289,-30.5241 L 71.0451,-30.7553 L 70.4369,-30.9114
 L 69.8139,-30.9901 L -69.8139,-30.9901 L -70.4369,-30.9114 L -71.0451,-30.7553 L -71.6289,-30.5241 L -72.1791,-30.2216
 L -72.6871,-29.8526 L -73.1448,-29.4227 L -73.5451,-28.9389 L -73.8815,-28.4088 L -74.1489,-27.8406 L -74.3429,-27.2434
 L -74.4606,-26.6267 L -74.5,-26 L -74.5,-22 L -74.4606,-21.3733 L -74.3429,-20.7566 L -74.1489,-20.1594
 L -73.8815,-19.5912 L -73.5451,-19.0611 L -73.1448,-18.5773 L -72.6871,-18.1474 L -72.1791,-17.7784 L -71.6289,-17.4759
 L -71.0451,-17.2447 L -70.4369,-17.0886 L -69.8139,-17.0099 L 69.8139,-17.0099 z
M 7.31161,-21.0059 L 6.93785,-21.0531 L 6.57294,-21.1468 L 6.22266,-21.2855 L 5.89252,-21.467 L 5.58772,-21.6885
 L 5.31308,-21.9464 L 5.07294,-22.2366 L 4.87108,-22.5547 L 4.71066,-22.8956 L 4.59424,-23.2539 L 4.52365,-23.624
 L 4.5,-24 L 4.52365,-24.376 L 4.59424,-24.7461 L 4.71066,-25.1044 L 4.87108,-25.4453 L 5.07294,-25.7634
 L 5.31308,-26.0536 L 5.58772,-26.3115 L 5.89252,-26.533 L 6.22266,-26.7145 L 6.57294,-26.8532 L 6.93785,-26.9469
 L 7.31161,-26.9941 L 7.68837,-26.9941 L 8.06213,-26.9469 L 8.42705,-26.8532 L 8.77733,-26.7145 L 9.10747,-26.533
 L 9.41226,-26.3115 L 9.6869,-26.0536 L 9.92705,-25.7634 L 10.1289,-25.4453 L 10.2893,-25.1044 L 10.4057,-24.7461
 L 10.4763,-24.376 L 10.5,-24 L 10.4763,-23.624 L 10.4057,-23.2539 L 10.2893,-22.8956 L 10.1289,-22.5547
 L 9.92705,-22.2366 L 9.6869,-21.9464 L 9.41226,-21.6885 L 9.10747,-21.467 L 8.77733,-21.2855 L 8.42705,-21.1468
 L 8.06213,-21.0531 L 7.68837,-21.0059 z
M -52.6884,-21.0059 L -53.0621,-21.0531 L -53.427,-21.1468 L -53.7773,-21.2855 L -54.1075,-21.467 L -54.4123,-21.6885
 L -54.6869,-21.9464 L -54.927,-22.2366 L -55.1289,-22.5547 L -55.2893,-22.8956 L -55.4057,-23.2539 L -55.4763,-23.624
 L -55.5,-24 L -55.4763,-24.376 L -55.4057,-24.7461 L -55.2893,-25.1044 L -55.1289,-25.4453 L -54.927,-25.7634
 L -54.6869,-26.0536 L -54.4123,-26.3115 L -54.1075,-26.533 L -53.7773,-26.7145 L -53.427,-26.8532 L -53.0621,-26.9469
 L -52.6884,-26.9941 L -52.3116,-26.9941 L -51.9379,-26.9469 L -51.5729,-26.8532 L -51.2227,-26.7145 L -50.8925,-26.533
 L -50.5877,-26.3115 L -50.3131,-26.0536 L -50.0729,-25.7634 L -49.8711,-25.4453 L -49.7107,-25.1044 L -49.5942,-24.7461
 L -49.5237,-24.376 L -49.5,-24 L -49.5237,-23.624 L -49.5942,-23.2539 L -49.7107,-22.8956 L -49.8711,-22.5547
 L -50.0729,-22.2366 L -50.3131,-21.9464 L -50.5877,-21.6885 L -50.8925,-21.467 L -51.2227,-21.2855 L -51.5729,-21.1468
 L -51.9379,-21.0531 L -52.3116,-21.0059 z
M -37.6884,-21.0059 L -38.0621,-21.0531 L -38.427,-21.1468 L -38.7773,-21.2855 L -39.1075,-21.467 L -39.4123,-21.6885
 L -39.6869,-21.9464 L -39.927,-22.2366 L -40.1289,-22.5547 L -40.2893,-22.8956 L -40.4057,-23.2539 L -40.4763,-23.624
 L -40.5,-24 L -40.4763,-24.376 L -40.4057,-24.7461 L -40.2893,-25.1044 L -40.1289,-25.4453 L -39.927,-25.7634
 L -39.6869,-26.0536 L -39.4123,-26.3115 L -39.1075,-26.533 L -38.7773,-26.7145 L -38.427,-26.8532 L -38.0621,-26.9469
 L -37.6884,-26.9941 L -37.3116,-26.9941 L -36.9379,-26.9469 L -36.5729,-26.8532 L -36.2227,-26.7145 L -35.8925,-26.533
 L -35.5877,-26.3115 L -35.3131,-26.0536 L -35.0729,-25.7634 L -34.8711,-25.4453 L -34.7107,-25.1044 L -34.5942,-24.7461
 L -34.5237,-24.376 L -34.5,-24 L -34.5237,-23.624 L -34.5942,-23.2539 L -34.7107,-22.8956 L -34.8711,-22.5547
 L -35.0729,-22.2366 L -35.3131,-21.9464 L -35.5877,-21.6885 L -35.8925,-21.467 L -36.2227,-21.2855 L -36.5729,-21.1468
 L -36.9379,-21.0531 L -37.3116,-21.0059 z
M -7.68837,-21.0059 L -8.06213,-21.0531 L -8.42705,-21.1468 L -8.77733,-21.2855 L -9.10747,-21.467 L -9.41226,-21.6885
 L -9.6869,-21.9464 L -9.92705,-22.2366 L -10.1289,-22.5547 L -10.2893,-22.8956 L -10.4057,-23.2539 L -10.4763,-23.624
 L -10.5,-24 L -10.4763,-24.376 L -10.4057,-24.7461 L -10.2893,-25.1044 L -10.1289,-25.4453 L -9.92705,-25.7634
 L -9.6869,-26.0536 L -9.41226,-26.3115 L -9.10747,-26.533 L -8.77733,-26.7145 L -8.42705,-26.8532 L -8.06213,-26.9469
 L -7.68837,-26.9941 L -7.31161,-26.9941 L -6.93785,-26.9469 L -6.57294,-26.8532 L -6.22266,-26.7145 L -5.89252,-26.533
 L -5.58772,-26.3115 L -5.31308,-26.0536 L -5.07294,-25.7634 L -4.87108,-25.4453 L -4.71066,-25.1044 L -4.59424,-24.7461
 L -4.52365,-24.376 L -4.5,-24 L -4.52365,-23.624 L -4.59424,-23.2539 L -4.71066,-22.8956 L -4.87108,-22.5547
 L -5.07294,-22.2366 L -5.31308,-21.9464 L -5.58772,-21.6885 L -5.89252,-21.467 L -6.22266,-21.2855 L -6.57294,-21.1468
 L -6.93785,-21.0531 L -7.31161,-21.0059 z
M -67.6884,-21.0059 L -68.0621,-21.0531 L -68.427,-21.1468 L -68.7773,-21.2855 L -69.1075,-21.467 L -69.4123,-21.6885
 L -69.6869,-21.9464 L -69.927,-22.2366 L -70.1289,-22.5547 L -70.2893,-22.8956 L -70.4057,-23.2539 L -70.4763,-23.624
 L -70.5,-24 L -70.4763,-24.376 L -70.4057,-24.7461 L -70.2893,-25.1044 L -70.1289,-25.4453 L -69.927,-25.7634
 L -69.6869,-26.0536 L -69.4123,-26.3115 L -69.1075,-26.533 L -68.7773,-26.7145 L -68.427,-26.8532 L -68.0621,-26.9469
 L -67.6884,-26.9941 L -67.3116,-26.9941 L -66.9379,-26.9469 L -66.573,-26.8532 L -66.2227,-26.7145 L -65.8925,-26.533
 L -65.5877,-26.3115 L -65.3131,-26.0536 L -65.073,-25.7634 L -64.8711,-25.4453 L -64.7107,-25.1044 L -64.5943,-24.7461
 L -64.5237,-24.376 L -64.5,-24 L -64.5237,-23.624 L -64.5943,-23.2539 L -64.7107,-22.8956 L -64.8711,-22.5547
 L -65.073,-22.2366 L -65.3131,-21.9464 L -65.5877,-21.6885 L -65.8925,-21.467 L -66.2227,-21.2855 L -66.573,-21.1468
 L -66.9379,-21.0531 L -67.3116,-21.0059 z
M 37.3116,-21.0059 L 36.9379,-21.0531 L 36.5729,-21.1468 L 36.2227,-21.2855 L 35.8925,-21.467 L 35.5877,-21.6885
 L 35.3131,-21.9464 L 35.0729,-22.2366 L 34.8711,-22.5547 L 34.7107,-22.8956 L 34.5942,-23.2539 L 34.5237,-23.624
 L 34.5,-24 L 34.5237,-24.376 L 34.5942,-24.7461 L 34.7107,-25.1044 L 34.8711,-25.4453 L 35.0729,-25.7634
 L 35.3131,-26.0536 L 35.5877,-26.3115 L 35.8925,-26.533 L 36.2227,-26.7145 L 36.5729,-26.8532 L 36.9379,-26.9469
 L 37.3116,-26.9941 L 37.6884,-26.9941 L 38.0621,-26.9469 L 38.427,-26.8532 L 38.7773,-26.7145 L 39.1075,-26.533
 L 39.4123,-26.3115 L 39.6869,-26.0536 L 39.927,-25.7634 L 40.1289,-25.4453 L 40.2893,-25.1044 L 40.4057,-24.7461
 L 40.4763,-24.376 L 40.5,-24 L 40.4763,-23.624 L 40.4057,-23.2539 L 40.2893,-22.8956 L 40.1289,-22.5547
 L 39.927,-22.2366 L 39.6869,-21.9464 L 39.4123,-21.6885 L 39.1075,-21.467 L 38.7773,-21.2855 L 38.427,-21.1468
 L 38.0621,-21.0531 L 37.6884,-21.0059 z
M 67.3116,-21.0059 L 66.9379,-21.0531 L 66.573,-21.1468 L 66.2227,-21.2855 L 65.8925,-21.467 L 65.5877,-21.6885
 L 65.3131,-21.9464 L 65.073,-22.2366 L 64.8711,-22.5547 L 64.7107,-22.8956 L 64.5943,-23.2539 L 64.5237,-23.624
 L 64.5,-24 L 64.5237,-24.376 L 64.5943,-24.7461 L 64.7107,-25.1044 L 64.8711,-25.4453 L 65.073,-25.7634
 L 65.3131,-26.0536 L 65.5877,-26.3115 L 65.8925,-26.533 L 66.2227,-26.7145 L 66.573,-26.8532 L 66.9379,-26.9469
 L 67.3116,-26.9941 L 67.6884,-26.9941 L 68.0621,-26.9469 L 68.427,-26.8532 L 68.7773,-26.7145 L 69.1075,-26.533
 L 69.4123,-26.3115 L 69.6869,-26.0536 L 69.927,-25.7634 L 70.1289,-25.4453 L 70.2893,-25.1044 L 70.4057,-24.7461
 L 70.4763,-24.376 L 70.5,-24 L 70.4763,-23.624 L 70.4057,-23.2539 L 70.2893,-22.8956 L 70.1289,-22.5547
 L 69.927,-22.2366 L 69.6869,-21.9464 L 69.4123,-21.6885 L 69.1075,-21.467 L 68.7773,-21.2855 L 68.427,-21.1468
 L 68.0621,-21.0531 L 67.6884,-21.0059 z
M 22.3116,-21.0059 L 21.9379,-21.0531 L 21.5729,-21.1468 L 21.2227,-21.2855 L 20.8925,-21.467 L 20.5877,-21.6885
 L 20.3131,-21.9464 L 20.0729,-22.2366 L 19.8711,-22.5547 L 19.7107,-22.8956 L 19.5942,-23.2539 L 19.5237,-23.624
 L 19.5,-24 L 19.5237,-24.376 L 19.5942,-24.7461 L 19.7107,-25.1044 L 19.8711,-25.4453 L 20.0729,-25.7634
 L 20.3131,-26.0536 L 20.5877,-26.3115 L 20.8925,-26.533 L 21.2227,-26.7145 L 21.5729,-26.8532 L 21.9379,-26.9469
 L 22.3116,-26.9941 L 22.6884,-26.9941 L 23.0621,-26.9469 L 23.427,-26.8532 L 23.7773,-26.7145 L 24.1075,-26.533
 L 24.4123,-26.3115 L 24.6869,-26.0536 L 24.927,-25.7634 L 25.1289,-25.4453 L 25.2893,-25.1044 L 25.4057,-24.7461
 L 25.4763,-24.376 L 25.5,-24 L 25.4763,-23.624 L 25.4057,-23.2539 L 25.2893,-22.8956 L 25.1289,-22.5547
 L 24.927,-22.2366 L 24.6869,-21.9464 L 24.4123,-21.6885 L 24.1075,-21.467 L 23.7773,-21.2855 L 23.427,-21.1468
 L 23.0621,-21.0531 L 22.6884,-21.0059 z
M -22.6884,-21.0059 L -23.0621,-21.0531 L -23.427,-21.1468 L -23.7773,-21.2855 L -24.1075,-21.467 L -24.4123,-21.6885
 L -24.6869,-21.9464 L -24.927,-22.2366 L -25.1289,-22.5547 L -25.2893,-22.8956 L -25.4057,-23.2539 L -25.4763,-23.624
 L -25.5,-24 L -25.4763,-24.376 L -25.4057,-24.7461 L -25.2893,-25.1044 L -25.1289,-25.4453 L -24.927,-25.7634
 L -24.6869,-26.0536 L -24.4123,-26.3115 L -24.1075,-26.533 L -23.7773,-26.7145 L -23.427,-26.8532 L -23.0621,-26.9469
 L -22.6884,-26.9941 L -22.3116,-26.9941 L -21.9379,-26.9469 L -21.5729,-26.8532 L -21.2227,-26.7145 L -20.8925,-26.533
 L -20.5877,-26.3115 L -20.3131,-26.0536 L -20.0729,-25.7634 L -19.8711,-25.4453 L -19.7107,-25.1044 L -19.5942,-24.7461
 L -19.5237,-24.376 L -19.5,-24 L -19.5237,-23.624 L -19.5942,-23.2539 L -19.7107,-22.8956 L -19.8711,-22.5547
 L -20.0729,-22.2366 L -20.3131,-21.9464 L -20.5877,-21.6885 L -20.8925,-21.467 L -21.2227,-21.2855 L -21.5729,-21.1468
 L -21.9379,-21.0531 L -22.3116,-21.0059 z
M 52.3116,-21.0059 L 51.9379,-21.0531 L 51.5729,-21.1468 L 51.2227,-21.2855 L 50.8925,-21.467 L 50.5877,-21.6885
 L 50.3131,-21.9464 L 50.0729,-22.2366 L 49.8711,-22.5547 L 49.7107,-22.8956 L 49.5942,-23.2539 L 49.5237,-23.624
 L 49.5,-24 L 49.5237,-24.376 L 49.5942,-24.7461 L 49.7107,-25.1044 L 49.8711,-25.4453 L 50.0729,-25.7634
 L 50.3131,-26.0536 L 50.5877,-26.3115 L 50.8925,-26.533 L 51.2227,-26.7145 L 51.5729,-26.8532 L 51.9379,-26.9469
 L 52.3116,-26.9941 L 52.6884,-26.9941 L 53.0621,-26.9469 L 53.427,-26.8532 L 53.7773,-26.7145 L 54.1075,-26.533
 L 54.4123,-26.3115 L 54.6869,-26.0536 L 54.927,-25.7634 L 55.1289,-25.4453 L 55.2893,-25.1044 L 55.4057,-24.7461
 L 55.4763,-24.376 L 55.5,-24 L 55.4763,-23.624 L 55.4057,-23.2539 L 55.2893,-22.8956 L 55.1289,-22.5547
 L 54.927,-22.2366 L 54.6869,-21.9464 L 54.4123,-21.6885 L 54.1075,-21.467 L 53.7773,-21.2855 L 53.427,-21.1468
 L 53.0621,-21.0531 L 52.6884,-21.0059 z
M 59.9058,-22.503 L 59.7189,-22.5266 L 59.5365,-22.5734 L 59.3613,-22.6428 L 59.1963,-22.7335 L 59.0439,-22.8442
 L 58.9065,-22.9732 L 58.7865,-23.1183 L 58.6855,-23.2774 L 58.6053,-23.4478 L 58.5471,-23.627 L 58.5118,-23.812
 L 58.5,-24 L 58.5118,-24.188 L 58.5471,-24.373 L 58.6053,-24.5522 L 58.6855,-24.7226 L 58.7865,-24.8817
 L 58.9065,-25.0268 L 59.0439,-25.1558 L 59.1963,-25.2665 L 59.3613,-25.3572 L 59.5365,-25.4266 L 59.7189,-25.4734
 L 59.9058,-25.497 L 60.0942,-25.497 L 60.2811,-25.4734 L 60.4635,-25.4266 L 60.6387,-25.3572 L 60.8037,-25.2665
 L 60.9561,-25.1558 L 61.0934,-25.0268 L 61.2135,-24.8817 L 61.3145,-24.7226 L 61.3947,-24.5522 L 61.4529,-24.373
 L 61.4882,-24.188 L 61.5,-24 L 61.4882,-23.812 L 61.4529,-23.627 L 61.3947,-23.4478 L 61.3145,-23.2774
 L 61.2135,-23.1183 L 61.0934,-22.9732 L 60.9561,-22.8442 L 60.8037,-22.7335 L 60.6387,-22.6428 L 60.4635,-22.5734
 L 60.2811,-22.5266 L 60.0942,-22.503 z
M -30.0942,-22.503 L -30.2811,-22.5266 L -30.4635,-22.5734 L -30.6387,-22.6428 L -30.8037,-22.7335 L -30.9561,-22.8442
 L -31.0934,-22.9732 L -31.2135,-23.1183 L -31.3145,-23.2774 L -31.3947,-23.4478 L -31.4529,-23.627 L -31.4882,-23.812
 L -31.5,-24 L -31.4882,-24.188 L -31.4529,-24.373 L -31.3947,-24.5522 L -31.3145,-24.7226 L -31.2135,-24.8817
 L -31.0934,-25.0268 L -30.9561,-25.1558 L -30.8037,-25.2665 L -30.6387,-25.3572 L -30.4635,-25.4266 L -30.2811,-25.4734
 L -30.0942,-25.497 L -29.9058,-25.497 L -29.7189,-25.4734 L -29.5365,-25.4266 L -29.3613,-25.3572 L -29.1963,-25.2665
 L -29.0439,-25.1558 L -28.9065,-25.0268 L -28.7865,-24.8817 L -28.6855,-24.7226 L -28.6053,-24.5522 L -28.5471,-24.373
 L -28.5118,-24.188 L -28.5,-24 L -28.5118,-23.812 L -28.5471,-23.627 L -28.6053,-23.4478 L -28.6855,-23.2774
 L -28.7865,-23.1183 L -28.9065,-22.9732 L -29.0439,-22.8442 L -29.1963,-22.7335 L -29.3613,-22.6428 L -29.5365,-22.5734
 L -29.7189,-22.5266 L -29.9058,-22.503 z
M 29.9058,-22.503 L 29.7189,-22.5266 L 29.5365,-22.5734 L 29.3613,-22.6428 L 29.1963,-22.7335 L 29.0439,-22.8442
 L 28.9065,-22.9732 L 28.7865,-23.1183 L 28.6855,-23.2774 L 28.6053,-23.4478 L 28.5471,-23.627 L 28.5118,-23.812
 L 28.5,-24 L 28.5118,-24.188 L 28.5471,-24.373 L 28.6053,-24.5522 L 28.6855,-24.7226 L 28.7865,-24.8817
 L 28.9065,-25.0268 L 29.0439,-25.1558 L 29.1963,-25.2665 L 29.3613,-25.3572 L 29.5365,-25.4266 L 29.7189,-25.4734
 L 29.9058,-25.497 L 30.0942,-25.497 L 30.2811,-25.4734 L 30.4635,-25.4266 L 30.6387,-25.3572 L 30.8037,-25.2665
 L 30.9561,-25.1558 L 31.0934,-25.0268 L 31.2135,-24.8817 L 31.3145,-24.7226 L 31.3947,-24.5522 L 31.4529,-24.373
 L 31.4882,-24.188 L 31.5,-24 L 31.4882,-23.812 L 31.4529,-23.627 L 31.3947,-23.4478 L 31.3145,-23.2774
 L 31.2135,-23.1183 L 31.0934,-22.9732 L 30.9561,-22.8442 L 30.8037,-22.7335 L 30.6387,-22.6428 L 30.4635,-22.5734
 L 30.2811,-22.5266 L 30.0942,-22.503 z
M 44.9058,-22.503 L 44.7189,-22.5266 L 44.5365,-22.5734 L 44.3613,-22.6428 L 44.1963,-22.7335 L 44.0439,-22.8442
 L 43.9065,-22.9732 L 43.7865,-23.1183 L 43.6855,-23.2774 L 43.6053,-23.4478 L 43.5471,-23.627 L 43.5118,-23.812
 L 43.5,-24 L 43.5118,-24.188 L 43.5471,-24.373 L 43.6053,-24.5522 L 43.6855,-24.7226 L 43.7865,-24.8817
 L 43.9065,-25.0268 L 44.0439,-25.1558 L 44.1963,-25.2665 L 44.3613,-25.3572 L 44.5365,-25.4266 L 44.7189,-25.4734
 L 44.9058,-25.497 L 45.0942,-25.497 L 45.2811,-25.4734 L 45.4635,-25.4266 L 45.6387,-25.3572 L 45.8037,-25.2665
 L 45.9561,-25.1558 L 46.0934,-25.0268 L 46.2135,-24.8817 L 46.3145,-24.7226 L 46.3947,-24.5522 L 46.4529,-24.373
 L 46.4882,-24.188 L 46.5,-24 L 46.4882,-23.812 L 46.4529,-23.627 L 46.3947,-23.4478 L 46.3145,-23.2774
 L 46.2135,-23.1183 L 46.0934,-22.9732 L 45.9561,-22.8442 L 45.8037,-22.7335 L 45.6387,-22.6428 L 45.4635,-22.5734
 L 45.2811,-22.5266 L 45.0942,-22.503 z
M -45.0942,-22.503 L -45.2811,-22.5266 L -45.4635,-22.5734 L -45.6387,-22.6428 L -45.8037,-22.7335 L -45.9561,-22.8442
 L -46.0934,-22.9732 L -46.2135,-23.1183 L -46.3145,-23.2774 L -46.3947,-23.4478 L -46.4529,-23.627 L -46.4882,-23.812
 L -46.5,-24 L -46.4882,-24.188 L -46.4529,-24.373 L -46.3947,-24.5522 L -46.3145,-24.7226 L -46.2135,-24.8817
 L -46.0934,-25.0268 L -45.9561,-25.1558 L -45.8037,-25.2665 L -45.6387,-25.3572 L -45.4635,-25.4266 L -45.2811,-25.4734
 L -45.0942,-25.497 L -44.9058,-25.497 L -44.7189,-25.4734 L -44.5365,-25.4266 L -44.3613,-25.3572 L -44.1963,-25.2665
 L -44.0439,-25.1558 L -43.9065,-25.0268 L -43.7865,-24.8817 L -43.6855,-24.7226 L -43.6053,-24.5522 L -43.5471,-24.373
 L -43.5118,-24.188 L -43.5,-24 L -43.5118,-23.812 L -43.5471,-23.627 L -43.6053,-23.4478 L -43.6855,-23.2774
 L -43.7865,-23.1183 L -43.9065,-22.9732 L -44.0439,-22.8442 L -44.1963,-22.7335 L -44.3613,-22.6428 L -44.5365,-22.5734
 L -44.7189,-22.5266 L -44.9058,-22.503 z
M 14.9058,-22.503 L 14.7189,-22.5266 L 14.5365,-22.5734 L 14.3613,-22.6428 L 14.1963,-22.7335 L 14.0439,-22.8442
 L 13.9065,-22.9732 L 13.7865,-23.1183 L 13.6855,-23.2774 L 13.6053,-23.4478 L 13.5471,-23.627 L 13.5118,-23.812
 L 13.5,-24 L 13.5118,-24.188 L 13.5471,-24.373 L 13.6053,-24.5522 L 13.6855,-24.7226 L 13.7865,-24.8817
 L 13.9065,-25.0268 L 14.0439,-25.1558 L 14.1963,-25.2665 L 14.3613,-25.3572 L 14.5365,-25.4266 L 14.7189,-25.4734
 L 14.9058,-25.497 L 15.0942,-25.497 L 15.2811,-25.4734 L 15.4635,-25.4266 L 15.6387,-25.3572 L 15.8037,-25.2665
 L 15.9561,-25.1558 L 16.0934,-25.0268 L 16.2135,-24.8817 L 16.3145,-24.7226 L 16.3947,-24.5522 L 16.4529,-24.373
 L 16.4882,-24.188 L 16.5,-24 L 16.4882,-23.812 L 16.4529,-23.627 L 16.3947,-23.4478 L 16.3145,-23.2774
 L 16.2135,-23.1183 L 16.0934,-22.9732 L 15.9561,-22.8442 L 15.8037,-22.7335 L 15.6387,-22.6428 L 15.4635,-22.5734
 L 15.2811,-22.5266 L 15.0942,-22.503 z
M -0.0941772,-22.503 L -0.281067,-22.5266 L -0.463516,-22.5734 L -0.638657,-22.6428 L -0.803726,-22.7335 L -0.956131,-22.8442
 L -1.09344,-22.9732 L -1.21352,-23.1183 L -1.31445,-23.2774 L -1.39465,-23.4478 L -1.45287,-23.627 L -1.48816,-23.812
 L -1.5,-24 L -1.48816,-24.188 L -1.45287,-24.373 L -1.39465,-24.5522 L -1.31445,-24.7226 L -1.21352,-24.8817
 L -1.09344,-25.0268 L -0.956131,-25.1558 L -0.803726,-25.2665 L -0.638657,-25.3572 L -0.463516,-25.4266 L -0.281067,-25.4734
 L -0.0941772,-25.497 L 0.0941772,-25.497 L 0.281067,-25.4734 L 0.463516,-25.4266 L 0.638657,-25.3572 L 0.803726,-25.2665
 L 0.956131,-25.1558 L 1.09344,-25.0268 L 1.21352,-24.8817 L 1.31445,-24.7226 L 1.39465,-24.5522 L 1.45287,-24.373
 L 1.48816,-24.188 L 1.5,-24 L 1.48816,-23.812 L 1.45287,-23.627 L 1.39465,-23.4478 L 1.31445,-23.2774
 L 1.21352,-23.1183 L 1.09344,-22.9732 L 0.956131,-22.8442 L 0.803726,-22.7335 L 0.638657,-22.6428 L 0.463516,-22.5734
 L 0.281067,-22.5266 L 0.0941772,-22.503 z
M -15.0942,-22.503 L -15.2811,-22.5266 L -15.4635,-22.5734 L -15.6387,-22.6428 L -15.8037,-22.7335 L -15.9561,-22.8442
 L -16.0934,-22.9732 L -16.2135,-23.1183 L -16.3145,-23.2774 L -16.3947,-23.4478 L -16.4529,-23.627 L -16.4882,-23.812
 L -16.5,-24 L -16.4882,-24.188 L -16.4529,-24.373 L -16.3947,-24.5522 L -16.3145,-24.7226 L -16.2135,-24.8817
 L -16.0934,-25.0268 L -15.9561,-25.1558 L -15.8037,-25.2665 L -15.6387,-25.3572 L -15.4635,-25.4266 L -15.2811,-25.4734
 L -15.0942,-25.497 L -14.9058,-25.497 L -14.7189,-25.4734 L -14.5365,-25.4266 L -14.3613,-25.3572 L -14.1963,-25.2665
 L -14.0439,-25.1558 L -13.9065,-25.0268 L -13.7865,-24.8817 L -13.6855,-24.7226 L -13.6053,-24.5522 L -13.5471,-24.373
 L -13.5118,-24.188 L -13.5,-24 L -13.5118,-23.812 L -13.5471,-23.627 L -13.6053,-23.4478 L -13.6855,-23.2774
 L -13.7865,-23.1183 L -13.9065,-22.9732 L -14.0439,-22.8442 L -14.1963,-22.7335 L -14.3613,-22.6428 L -14.5365,-22.5734
 L -14.7189,-22.5266 L -14.9058,-22.503 z
M -60.0942,-22.503 L -60.2811,-22.5266 L -60.4635,-22.5734 L -60.6387,-22.6428 L -60.8037,-22.7335 L -60.9561,-22.8442
 L -61.0934,-22.9732 L -61.2135,-23.1183 L -61.3145,-23.2774 L -61.3947,-23.4478 L -61.4529,-23.627 L -61.4882,-23.812
 L -61.5,-24 L -61.4882,-24.188 L -61.4529,-24.373 L -61.3947,-24.5522 L -61.3145,-24.7226 L -61.2135,-24.8817
 L -61.0934,-25.0268 L -60.9561,-25.1558 L -60.8037,-25.2665 L -60.6387,-25.3572 L -60.4635,-25.4266 L -60.2811,-25.4734
 L -60.0942,-25.497 L -59.9058,-25.497 L -59.7189,-25.4734 L -59.5365,-25.4266 L -59.3613,-25.3572 L -59.1963,-25.2665
 L -59.0439,-25.1558 L -58.9065,-25.0268 L -58.7865,-24.8817 L -58.6855,-24.7226 L -58.6053,-24.5522 L -58.5471,-24.373
 L -58.5118,-24.188 L -58.5,-24 L -58.5118,-23.812 L -58.5471,-23.627 L -58.6053,-23.4478 L -58.6855,-23.2774
 L -58.7865,-23.1183 L -58.9065,-22.9732 L -59.0439,-22.8442 L -59.1963,-22.7335 L -59.3613,-22.6428 L -59.5365,-22.5734
 L -59.7189,-22.5266 L -59.9058,-22.503 z
" stroke="black" fill="lightgray" stroke-width="0.5"/>
</svg>
