<?xml version="1.0" standalone="no"?>
<!DOCTYPE svg PUBLIC "-//W3C//DTD SVG 1.1//EN" "http://www.w3.org/Graphics/SVG/1.1/DTD/svg11.dtd">
<svg width="226mm" height="198mm" viewBox="-113 -375 226 198" xmlns="http://www.w3.org/2000/svg" version="1.1">
<title>OpenSCAD Model</title>
<path d="
M 108.437,-315.089 L 109.045,-315.245 L 109.629,-315.476 L 110.179,-315.778 L 110.687,-316.147 L 111.145,-316.577
 L 111.545,-317.061 L 111.882,-317.591 L 112.149,-318.159 L 112.343,-318.757 L 112.461,-319.373 L 112.5,-320
 L 112.5,-370 L 112.461,-370.627 L 112.343,-371.243 L 112.149,-371.841 L 111.882,-372.409 L 111.545,-372.939
 L 111.145,-373.423 L 110.687,-373.853 L 110.179,-374.222 L 109.629,-374.524 L 109.045,-374.755 L 108.437,-374.911
 L 107.814,-374.99 L -107.814,-374.99 L -108.437,-374.911 L -109.045,-374.755 L -109.5,-374.575 L -109.5,-374.979
 L -112.5,-374.979 L -112.5,-315.021 L -109.5,-315.021 L -109.5,-315.425 L -109.045,-315.245 L -108.437,-315.089
 L -107.814,-315.01 L 107.814,-315.01 z
M -107.251,-316.508 L -107.75,-316.571 L -108.236,-316.696 L -108.703,-316.881 L -109.143,-317.123 L -109.55,-317.418
 L -109.916,-317.762 L -110.236,-318.149 L -110.505,-318.573 L -110.719,-319.028 L -110.874,-319.505 L -110.968,-319.999
 L -111,-320.5 L -111,-369.5 L -110.968,-370.001 L -110.874,-370.495 L -110.719,-370.972 L -110.505,-371.427
 L -110.236,-371.851 L -109.916,-372.238 L -109.55,-372.582 L -109.143,-372.877 L -108.703,-373.119 L -108.236,-373.304
 L -107.75,-373.429 L -107.251,-373.492 L 107.251,-373.492 L 107.75,-373.429 L 108.236,-373.304 L 108.703,-373.119
 L 109.143,-372.877 L 109.55,-372.582 L 109.916,-372.238 L 110.236,-371.851 L 110.505,-371.427 L 110.719,-370.972
 L 110.874,-370.495 L 110.968,-370.001 L 111,-369.5 L 111,-320.5 L 110.968,-319.999 L 110.874,-319.505
 L 110.719,-319.028 L 110.505,-318.573 L 110.236,-318.149 L 109.916,-317.762 L 109.55,-317.418 L 109.143,-317.123
 L 108.703,-316.881 L 108.236,-316.696 L 107.75,-316.571 L 107.251,-316.508 z
M 108.437,-246.089 L 109.045,-246.245 L 109.629,-246.476 L 110.179,-246.778 L 110.687,-247.147 L 111.145,-247.577
 L 111.545,-248.061 L 111.882,-248.591 L 112.149,-249.159 L 112.343,-249.757 L 112.461,-250.373 L 112.5,-251
 L 112.5,-301 L 112.461,-301.627 L 112.343,-302.243 L 112.149,-302.841 L 111.882,-303.409 L 111.545,-303.939
 L 111.145,-304.423 L 110.687,-304.853 L 110.179,-305.222 L 109.629,-305.524 L 109.045,-305.755 L 108.437,-305.911
 L 107.814,-305.99 L -107.814,-305.99 L -108.437,-305.911 L -109.045,-305.755 L -109.629,-305.524 L -110.179,-305.222
 L -110.687,-304.853 L -110.9,-304.653 L -112.5,-304.653 L -112.5,-247.347 L -110.9,-247.347 L -110.687,-247.147
 L -110.179,-246.778 L -109.629,-246.476 L -109.045,-246.245 L -108.437,-246.089 L -107.814,-246.01 L 107.814,-246.01
 z
M -107.195,-248.393 L -107.583,-248.442 L -107.962,-248.539 L -108.325,-248.683 L -108.668,-248.872 L -108.984,-249.101
 L -109.269,-249.369 L -109.518,-249.67 L -109.728,-250 L -109.894,-250.354 L -110.015,-250.726 L -110.088,-251.11
 L -110.113,-251.5 L -110.113,-300.5 L -110.088,-300.89 L -110.015,-301.274 L -109.894,-301.646 L -109.728,-302
 L -109.518,-302.33 L -109.269,-302.631 L -108.984,-302.899 L -108.668,-303.128 L -108.325,-303.317 L -107.962,-303.461
 L -107.583,-303.558 L -107.195,-303.607 L 107.195,-303.607 L 107.583,-303.558 L 107.962,-303.461 L 108.325,-303.317
 L 108.668,-303.128 L 108.984,-302.899 L 109.269,-302.631 L 109.518,-302.33 L 109.728,-302 L 109.894,-301.646
 L 110.015,-301.274 L 110.088,-300.89 L 110.113,-300.5 L 110.113,-251.5 L 110.088,-251.11 L 110.015,-250.726
 L 109.894,-250.354 L 109.728,-250 L 109.518,-249.67 L 109.269,-249.369 L 108.984,-249.101 L 108.668,-248.872
 L 108.325,-248.683 L 107.962,-248.539 L 107.583,-248.442 L 107.195,-248.393 z
M 108.437,-177.089 L 109.045,-177.245 L 109.629,-177.476 L 110.179,-177.778 L 110.687,-178.147 L 111.145,-178.577
 L 111.545,-179.061 L 111.882,-179.591 L 112.149,-180.159 L 112.343,-180.757 L 112.461,-181.373 L 112.5,-182
 L 112.5,-232 L 112.461,-232.627 L 112.343,-233.243 L 112.149,-233.841 L 111.882,-234.409 L 111.545,-234.939
 L 111.145,-235.423 L 110.687,-235.853 L 110.179,-236.222 L 109.629,-236.524 L 109.045,-236.755 L 108.437,-236.911
 L 107.814,-236.99 L -107.814,-236.99 L -108.437,-236.911 L -109.045,-236.755 L -109.629,-236.524 L -110.179,-236.222
 L -110.687,-235.853 L -111.145,-235.423 L -111.545,-234.939 L -111.882,-234.409 L -112.149,-233.841 L -112.343,-233.243
 L -112.461,-232.627 L -112.5,-232 L -112.5,-182 L -112.461,-181.373 L -112.343,-180.757 L -112.149,-180.159
 L -111.882,-179.591 L -111.545,-179.061 L -111.145,-178.577 L -110.687,-178.147 L -110.179,-177.778 L -109.629,-177.476
 L -109.045,-177.245 L -108.437,-177.089 L -107.814,-177.01 L 107.814,-177.01 z
M 104.866,-227.369 L 104.6,-227.403 L 104.34,-227.469 L 104.091,-227.568 L 103.856,-227.697 L 103.639,-227.855
 L 103.443,-228.038 L 103.273,-228.245 L 103.129,-228.471 L 103.015,-228.714 L 102.932,-228.969 L 102.882,-229.232
 L 102.865,-229.5 L 102.882,-229.768 L 102.932,-230.031 L 103.015,-230.286 L 103.129,-230.529 L 103.273,-230.755
 L 103.443,-230.962 L 103.639,-231.145 L 103.856,-231.303 L 104.091,-231.432 L 104.34,-231.531 L 104.6,-231.597
 L 104.866,-231.631 L 105.134,-231.631 L 105.4,-231.597 L 105.66,-231.531 L 105.909,-231.432 L 106.144,-231.303
 L 106.361,-231.145 L 106.557,-230.962 L 106.727,-230.755 L 106.871,-230.529 L 106.985,-230.286 L 107.068,-230.031
 L 107.118,-229.768 L 107.135,-229.5 L 107.118,-229.232 L 107.068,-228.969 L 106.985,-228.714 L 106.871,-228.471
 L 106.727,-228.245 L 106.557,-228.038 L 106.361,-227.855 L 106.144,-227.697 L 105.909,-227.568 L 105.66,-227.469
 L 105.4,-227.403 L 105.134,-227.369 z
M -105.134,-227.369 L -105.4,-227.403 L -105.66,-227.469 L -105.909,-227.568 L -106.144,-227.697 L -106.361,-227.855
 L -106.557,-228.038 L -106.727,-228.245 L -106.871,-228.471 L -106.985,-228.714 L -107.068,-228.969 L -107.118,-229.232
 L -107.135,-229.5 L -107.118,-229.768 L -107.068,-230.031 L -106.985,-230.286 L -106.871,-230.529 L -106.727,-230.755
 L -106.557,-230.962 L -106.361,-231.145 L -106.144,-231.303 L -105.909,-231.432 L -105.66,-231.531 L -105.4,-231.597
 L -105.134,-231.631 L -104.866,-231.631 L -104.6,-231.597 L -104.34,-231.531 L -104.091,-231.432 L -103.856,-231.303
 L -103.639,-231.145 L -103.443,-230.962 L -103.273,-230.755 L -103.129,-230.529 L -103.015,-230.286 L -102.932,-230.031
 L -102.882,-229.768 L -102.865,-229.5 L -102.882,-229.232 L -102.932,-228.969 L -103.015,-228.714 L -103.129,-228.471
 L -103.273,-228.245 L -103.443,-228.038 L -103.639,-227.855 L -103.856,-227.697 L -104.091,-227.568 L -104.34,-227.469
 L -104.6,-227.403 L -104.866,-227.369 z
M 104.866,-182.369 L 104.6,-182.403 L 104.34,-182.469 L 104.091,-182.568 L 103.856,-182.697 L 103.639,-182.855
 L 103.443,-183.038 L 103.273,-183.245 L 103.129,-183.471 L 103.015,-183.714 L 102.932,-183.969 L 102.882,-184.232
 L 102.865,-184.5 L 102.882,-184.768 L 102.932,-185.031 L 103.015,-185.286 L 103.129,-185.529 L 103.273,-185.755
 L 103.443,-185.962 L 103.639,-186.145 L 103.856,-186.303 L 104.091,-186.432 L 104.34,-186.531 L 104.6,-186.597
 L 104.866,-186.631 L 105.134,-186.631 L 105.4,-186.597 L 105.66,-186.531 L 105.909,-186.432 L 106.144,-186.303
 L 106.361,-186.145 L 106.557,-185.962 L 106.727,-185.755 L 106.871,-185.529 L 106.985,-185.286 L 107.068,-185.031
 L 107.118,-184.768 L 107.135,-184.5 L 107.118,-184.232 L 107.068,-183.969 L 106.985,-183.714 L 106.871,-183.471
 L 106.727,-183.245 L 106.557,-183.038 L 106.361,-182.855 L 106.144,-182.697 L 105.909,-182.568 L 105.66,-182.469
 L 105.4,-182.403 L 105.134,-182.369 z
M -105.134,-182.369 L -105.4,-182.403 L -105.66,-182.469 L -105.909,-182.568 L -106.144,-182.697 L -106.361,-182.855
 L -106.557,-183.038 L -106.727,-183.245 L -106.871,-183.471 L -106.985,-183.714 L -107.068,-183.969 L -107.118,-184.232
 L -107.135,-184.5 L -107.118,-184.768 L -107.068,-185.031 L -106.985,-185.286 L -106.871,-185.529 L -106.727,-185.755
 L -106.557,-185.962 L -106.361,-186.145 L -106.144,-186.303 L -105.909,-186.432 L -105.66,-186.531 L -105.4,-186.597
 L -105.134,-186.631 L -104.866,-186.631 L -104.6,-186.597 L -104.34,-186.531 L -104.091,-186.432 L -103.856,-186.303
 L -103.639,-186.145 L -103.443,-185.962 L -103.273,-185.755 L -103.129,-185.529 L -103.015,-185.286 L -102.932,-185.031
 L -102.882,-184.768 L -102.865,-184.5 L -102.882,-184.232 L -102.932,-183.969 L -103.015,-183.714 L -103.129,-183.471
 L -103.273,-183.245 L -103.443,-183.038 L -103.639,-182.855 L -103.856,-182.697 L -104.091,-182.568 L -104.34,-182.469
 L -104.6,-182.403 L -104.866,-182.369 z
" stroke="black" fill="lightgray" stroke-width="0.5"/>
</svg>
