<?xml version="1.0" standalone="no"?>
<!DOCTYPE svg PUBLIC "-//W3C//DTD SVG 1.1//EN" "http://www.w3.org/Graphics/SVG/1.1/DTD/svg11.dtd">
<svg width="24mm" height="24mm" viewBox="-12 -12 24 24" xmlns="http://www.w3.org/2000/svg" version="1.1">
<title>OpenSCAD Model</title>
<path d="
M 0.879135,11.1706 L 0.976593,11.1625 L 1.07396,11.1536 L 1.10609,11.1503 L 1.21014,11.0943 L 1.24944,10.9926
 L 1.25269,10.8825 L 1.26949,10.7733 L 1.29945,10.6657 L 1.34222,10.5607 L 1.42958,10.4466 L 1.53999,10.3557
 L 1.66783,10.2898 L 1.80743,10.2505 L 1.95204,10.2397 L 2.09474,10.2579 L 2.22958,10.3056 L 2.35068,10.3829
 L 2.42662,10.467 L 2.49158,10.5578 L 2.54482,10.6546 L 2.5856,10.757 L 2.65717,10.8391 L 2.77423,10.8562
 L 2.80554,10.8482 L 2.9001,10.8233 L 2.99445,10.7976 L 3.02553,10.7888 L 3.11826,10.7156 L 3.1393,10.6086
 L 3.12338,10.4996 L 3.12096,10.3891 L 3.13179,10.278 L 3.15569,10.1672 L 3.22191,10.0397 L 3.31485,9.93098
 L 3.42931,9.84383 L 3.55995,9.78091 L 3.70049,9.74512 L 3.84418,9.73831 L 3.98526,9.76184 L 4.11794,9.81696
 L 4.20734,9.88657 L 4.28706,9.96471 L 4.35631,10.0509 L 4.41426,10.1446 L 4.49899,10.213 L 4.61723,10.2095
 L 4.6467,10.1962 L 4.73549,10.1553 L 4.82393,10.1136 L 4.85303,10.0996 L 4.93163,10.0113 L 4.93378,9.90234
 L 4.89917,9.79773 L 4.87759,9.68935 L 4.86897,9.57806 L 4.87326,9.46474 L 4.91634,9.32768 L 4.98898,9.20448
 L 5.08656,9.09879 L 5.20432,9.01413 L 5.33649,8.95448 L 5.47682,8.92284 L 5.61984,8.92151 L 5.76007,8.95274
 L 5.8602,9.00578 L 5.95229,9.06888 L 6.03545,9.14171 L 6.10878,9.22395 L 6.20412,9.27664 L 6.31996,9.25264
 L 6.34666,9.23445 L 6.427,9.17873 L 6.50687,9.12228 L 6.53308,9.10341 L 6.59515,9.00285 L 6.57834,8.89516
 L 6.52611,8.79814 L 6.48604,8.69516 L 6.45822,8.58705 L 6.44276,8.47472 L 6.46138,8.33226 L 6.51154,8.19832
 L 6.58928,8.07727 L 6.69054,7.97346 L 6.81035,7.89177 L 6.94305,7.83624 L 7.08366,7.81009 L 7.22719,7.8165
 L 7.33501,7.85135 L 7.43666,7.89749 L 7.53119,7.95477 L 7.61771,8.02304 L 7.72073,8.05838 L 7.83064,8.01462
 L 7.85379,7.99208 L 7.92323,7.92323 L 7.99208,7.85379 L 8.01462,7.83064 L 8.05829,7.72084 L 8.02304,7.61771
 L 7.95474,7.53123 L 7.8974,7.43677 L 7.85123,7.33514 L 7.8165,7.22719 L 7.81009,7.08366 L 7.83624,6.94305
 L 7.89177,6.81035 L 7.97346,6.69054 L 8.07727,6.58928 L 8.19832,6.51154 L 8.33226,6.46138 L 8.47472,6.44276
 L 8.58694,6.45836 L 8.69507,6.48616 L 8.79811,6.52614 L 8.89516,6.57834 L 9.00276,6.59526 L 9.10341,6.53308
 L 9.12228,6.50687 L 9.17873,6.427 L 9.23445,6.34666 L 9.25264,6.31996 L 9.27658,6.20424 L 9.22395,6.10878
 L 9.14168,6.03549 L 9.0688,5.95242 L 9.00569,5.86035 L 8.95274,5.76007 L 8.92151,5.61984 L 8.92284,5.47682
 L 8.95448,5.33649 L 9.01413,5.20432 L 9.09879,5.08656 L 9.20448,4.98898 L 9.32768,4.91634 L 9.46474,4.87326
 L 9.57797,4.86913 L 9.68927,4.87773 L 9.7977,4.89922 L 9.90234,4.93378 L 10.0112,4.93175 L 10.0996,4.85303
 L 10.1136,4.82393 L 10.1553,4.73549 L 10.1962,4.6467 L 10.2095,4.61723 L 10.213,4.49911 L 10.1446,4.41426
 L 10.0508,4.35637 L 9.96466,4.28722 L 9.88652,4.20749 L 9.81696,4.11794 L 9.76184,3.98526 L 9.73831,3.84418
 L 9.74512,3.70049 L 9.78091,3.55995 L 9.84383,3.42931 L 9.93098,3.31485 L 10.0397,3.22191 L 10.1672,3.15569
 L 10.278,3.13196 L 10.3891,3.12109 L 10.4996,3.12343 L 10.6086,3.1393 L 10.7155,3.11839 L 10.7888,3.02553
 L 10.7976,2.99445 L 10.8233,2.9001 L 10.8482,2.80554 L 10.8562,2.77423 L 10.8391,2.6573 L 10.757,2.5856
 L 10.6546,2.54486 L 10.5577,2.49173 L 10.4669,2.42679 L 10.3829,2.35068 L 10.3056,2.22958 L 10.2579,2.09474
 L 10.2397,1.95204 L 10.2505,1.80743 L 10.2898,1.66783 L 10.3557,1.53999 L 10.4466,1.42958 L 10.5607,1.34222
 L 10.6657,1.29962 L 10.7732,1.26964 L 10.8825,1.25275 L 10.9926,1.24944 L 11.0943,1.21028 L 11.1503,1.10609
 L 11.1536,1.07396 L 11.1625,0.976593 L 11.1706,0.879135 L 11.173,0.846924 L 11.1359,0.734741 L 11.0426,0.678375
 L 10.9347,0.656052 L 10.83,0.620544 L 10.7293,0.572357 L 10.6333,0.511993 L 10.5362,0.406158 L 10.4658,0.281647
 L 10.4231,0.144287 L 10.4086,-0 L 10.4231,-0.144287 L 10.4658,-0.281647 L 10.5362,-0.406158 L 10.6333,-0.511993
 L 10.7293,-0.572189 L 10.83,-0.620392 L 10.9347,-0.655991 L 11.0426,-0.678375 L 11.1359,-0.734589 L 11.173,-0.846924
 L 11.1706,-0.879135 L 11.1625,-0.976593 L 11.1536,-1.07396 L 11.1503,-1.10609 L 11.0943,-1.21014 L 10.9926,-1.24944
 L 10.8825,-1.25269 L 10.7733,-1.26949 L 10.6657,-1.29945 L 10.5607,-1.34222 L 10.4466,-1.42958 L 10.3557,-1.53999
 L 10.2898,-1.66783 L 10.2505,-1.80743 L 10.2397,-1.95204 L 10.2579,-2.09474 L 10.3056,-2.22958 L 10.3829,-2.35068
 L 10.467,-2.42662 L 10.5578,-2.49158 L 10.6546,-2.54482 L 10.757,-2.5856 L 10.8391,-2.65717 L 10.8562,-2.77423
 L 10.8482,-2.80554 L 10.8233,-2.9001 L 10.7976,-2.99445 L 10.7888,-3.02553 L 10.7156,-3.11826 L 10.6086,-3.1393
 L 10.4996,-3.12338 L 10.3891,-3.12096 L 10.278,-3.13179 L 10.1672,-3.15569 L 10.0397,-3.22191 L 9.93098,-3.31485
 L 9.84383,-3.42931 L 9.78091,-3.55995 L 9.74512,-3.70049 L 9.73831,-3.84418 L 9.76184,-3.98526 L 9.81696,-4.11794
 L 9.88657,-4.20734 L 9.96471,-4.28706 L 10.0509,-4.35631 L 10.1446,-4.41426 L 10.213,-4.49899 L 10.2095,-4.61723
 L 10.1962,-4.6467 L 10.1553,-4.73549 L 10.1136,-4.82393 L 10.0996,-4.85303 L 10.0113,-4.93163 L 9.90234,-4.93378
 L 9.79773,-4.89917 L 9.68935,-4.87759 L 9.57806,-4.86897 L 9.46474,-4.87326 L 9.32768,-4.91634 L 9.20448,-4.98898
 L 9.09879,-5.08656 L 9.01413,-5.20432 L 8.95448,-5.33649 L 8.92284,-5.47682 L 8.92151,-5.61984 L 8.95274,-5.76007
 L 9.00578,-5.8602 L 9.06888,-5.95229 L 9.14171,-6.03545 L 9.22395,-6.10878 L 9.27664,-6.20412 L 9.25264,-6.31996
 L 9.23445,-6.34666 L 9.17873,-6.427 L 9.12228,-6.50687 L 9.10341,-6.53308 L 9.00285,-6.59515 L 8.89516,-6.57834
 L 8.79814,-6.52611 L 8.69516,-6.48604 L 8.58705,-6.45822 L 8.47472,-6.44276 L 8.33226,-6.46138 L 8.19832,-6.51154
 L 8.07727,-6.58928 L 7.97346,-6.69054 L 7.89177,-6.81035 L 7.83624,-6.94305 L 7.81009,-7.08366 L 7.8165,-7.22719
 L 7.85135,-7.33501 L 7.89749,-7.43666 L 7.95477,-7.53119 L 8.02304,-7.61771 L 8.05838,-7.72073 L 8.01462,-7.83064
 L 7.99208,-7.85379 L 7.92323,-7.92323 L 7.85379,-7.99208 L 7.83064,-8.01462 L 7.72084,-8.05829 L 7.61771,-8.02304
 L 7.53123,-7.95474 L 7.43677,-7.8974 L 7.33514,-7.85123 L 7.22719,-7.8165 L 7.08366,-7.81009 L 6.94305,-7.83624
 L 6.81035,-7.89177 L 6.69054,-7.97346 L 6.58928,-8.07727 L 6.51154,-8.19832 L 6.46138,-8.33226 L 6.44276,-8.47472
 L 6.45836,-8.58694 L 6.48616,-8.69507 L 6.52614,-8.79811 L 6.57834,-8.89516 L 6.59526,-9.00276 L 6.53308,-9.10341
 L 6.50687,-9.12228 L 6.427,-9.17873 L 6.34666,-9.23445 L 6.31996,-9.25264 L 6.20424,-9.27658 L 6.10878,-9.22395
 L 6.03549,-9.14168 L 5.95242,-9.0688 L 5.86035,-9.00569 L 5.76007,-8.95274 L 5.61984,-8.92151 L 5.47682,-8.92284
 L 5.33649,-8.95448 L 5.20432,-9.01413 L 5.08656,-9.09879 L 4.98898,-9.20448 L 4.91634,-9.32768 L 4.87326,-9.46474
 L 4.86913,-9.57797 L 4.87773,-9.68927 L 4.89922,-9.7977 L 4.93378,-9.90234 L 4.93175,-10.0112 L 4.85303,-10.0996
 L 4.82393,-10.1136 L 4.73549,-10.1553 L 4.6467,-10.1962 L 4.61723,-10.2095 L 4.49911,-10.213 L 4.41426,-10.1446
 L 4.35637,-10.0508 L 4.28722,-9.96466 L 4.20749,-9.88652 L 4.11794,-9.81696 L 3.98526,-9.76184 L 3.84418,-9.73831
 L 3.70049,-9.74512 L 3.55995,-9.78091 L 3.42931,-9.84383 L 3.31485,-9.93098 L 3.22191,-10.0397 L 3.15569,-10.1672
 L 3.13196,-10.278 L 3.12109,-10.3891 L 3.12343,-10.4996 L 3.1393,-10.6086 L 3.11839,-10.7155 L 3.02553,-10.7888
 L 2.99445,-10.7976 L 2.9001,-10.8233 L 2.80554,-10.8482 L 2.77423,-10.8562 L 2.6573,-10.8391 L 2.5856,-10.757
 L 2.54486,-10.6546 L 2.49173,-10.5577 L 2.42679,-10.4669 L 2.35068,-10.3829 L 2.22958,-10.3056 L 2.09474,-10.2579
 L 1.95204,-10.2397 L 1.80743,-10.2505 L 1.66783,-10.2898 L 1.53999,-10.3557 L 1.42958,-10.4466 L 1.34222,-10.5607
 L 1.29962,-10.6657 L 1.26964,-10.7732 L 1.25275,-10.8825 L 1.24944,-10.9926 L 1.21028,-11.0943 L 1.10609,-11.1503
 L 1.07396,-11.1536 L 0.976593,-11.1625 L 0.879135,-11.1706 L 0.846924,-11.173 L 0.734741,-11.1359 L 0.678375,-11.0426
 L 0.656052,-10.9347 L 0.620544,-10.83 L 0.572357,-10.7293 L 0.511993,-10.6333 L 0.406158,-10.5362 L 0.281647,-10.4658
 L 0.144287,-10.4231 L 0,-10.4086 L -0.144287,-10.4231 L -0.281647,-10.4658 L -0.406158,-10.5362 L -0.511993,-10.6333
 L -0.572189,-10.7293 L -0.620392,-10.83 L -0.655991,-10.9347 L -0.678375,-11.0426 L -0.734589,-11.1359 L -0.846924,-11.173
 L -0.879135,-11.1706 L -0.976593,-11.1625 L -1.07396,-11.1536 L -1.10609,-11.1503 L -1.21014,-11.0943 L -1.24944,-10.9926
 L -1.25269,-10.8825 L -1.26949,-10.7733 L -1.29945,-10.6657 L -1.34222,-10.5607 L -1.42958,-10.4466 L -1.53999,-10.3557
 L -1.66783,-10.2898 L -1.80743,-10.2505 L -1.95204,-10.2397 L -2.09474,-10.2579 L -2.22958,-10.3056 L -2.35068,-10.3829
 L -2.42662,-10.467 L -2.49158,-10.5578 L -2.54482,-10.6546 L -2.5856,-10.757 L -2.65717,-10.8391 L -2.77423,-10.8562
 L -2.80554,-10.8482 L -2.9001,-10.8233 L -2.99445,-10.7976 L -3.02553,-10.7888 L -3.11826,-10.7156 L -3.1393,-10.6086
 L -3.12338,-10.4996 L -3.12096,-10.3891 L -3.13179,-10.278 L -3.15569,-10.1672 L -3.22191,-10.0397 L -3.31485,-9.93098
 L -3.42931,-9.84383 L -3.55995,-9.78091 L -3.70049,-9.74512 L -3.84418,-9.73831 L -3.98526,-9.76184 L -4.11794,-9.81696
 L -4.20734,-9.88657 L -4.28706,-9.96471 L -4.35631,-10.0509 L -4.41426,-10.1446 L -4.49899,-10.213 L -4.61723,-10.2095
 L -4.6467,-10.1962 L -4.73549,-10.1553 L -4.82393,-10.1136 L -4.85303,-10.0996 L -4.93163,-10.0113 L -4.93378,-9.90234
 L -4.89917,-9.79773 L -4.87759,-9.68935 L -4.86897,-9.57806 L -4.87326,-9.46474 L -4.91634,-9.32768 L -4.98898,-9.20448
 L -5.08656,-9.09879 L -5.20432,-9.01413 L -5.33649,-8.95448 L -5.47682,-8.92284 L -5.61984,-8.92151 L -5.76007,-8.95274
 L -5.8602,-9.00578 L -5.95229,-9.06888 L -6.03545,-9.14171 L -6.10878,-9.22395 L -6.20412,-9.27664 L -6.31996,-9.25264
 L -6.34666,-9.23445 L -6.427,-9.17873 L -6.50687,-9.12228 L -6.53308,-9.10341 L -6.59515,-9.00285 L -6.57834,-8.89516
 L -6.52611,-8.79814 L -6.48604,-8.69516 L -6.45822,-8.58705 L -6.44276,-8.47472 L -6.46138,-8.33226 L -6.51154,-8.19832
 L -6.58928,-8.07727 L -6.69054,-7.97346 L -6.81035,-7.89177 L -6.94305,-7.83624 L -7.08366,-7.81009 L -7.22719,-7.8165
 L -7.33501,-7.85135 L -7.43666,-7.89749 L -7.53119,-7.95477 L -7.61771,-8.02304 L -7.72073,-8.05838 L -7.83064,-8.01462
 L -7.85379,-7.99208 L -7.92323,-7.92323 L -7.99208,-7.85379 L -8.01462,-7.83064 L -8.05829,-7.72084 L -8.02304,-7.61771
 L -7.95474,-7.53123 L -7.8974,-7.43677 L -7.85123,-7.33514 L -7.8165,-7.22719 L -7.81009,-7.08366 L -7.83624,-6.94305
 L -7.89177,-6.81035 L -7.97346,-6.69054 L -8.07727,-6.58928 L -8.19832,-6.51154 L -8.33226,-6.46138 L -8.47472,-6.44276
 L -8.58694,-6.45836 L -8.69507,-6.48616 L -8.79811,-6.52614 L -8.89516,-6.57834 L -9.00276,-6.59526 L -9.10341,-6.53308
 L -9.12228,-6.50687 L -9.17873,-6.427 L -9.23445,-6.34666 L -9.25264,-6.31996 L -9.27658,-6.20424 L -9.22395,-6.10878
 L -9.14168,-6.03549 L -9.0688,-5.95242 L -9.00569,-5.86035 L -8.95274,-5.76007 L -8.92151,-5.61984 L -8.92284,-5.47682
 L -8.95448,-5.33649 L -9.01413,-5.20432 L -9.09879,-5.08656 L -9.20448,-4.98898 L -9.32768,-4.91634 L -9.46474,-4.87326
 L -9.57797,-4.86913 L -9.68927,-4.87773 L -9.7977,-4.89922 L -9.90234,-4.93378 L -10.0112,-4.93175 L -10.0996,-4.85303
 L -10.1136,-4.82393 L -10.1553,-4.73549 L -10.1962,-4.6467 L -10.2095,-4.61723 L -10.213,-4.49911 L -10.1446,-4.41426
 L -10.0508,-4.35637 L -9.96466,-4.28722 L -9.88652,-4.20749 L -9.81696,-4.11794 L -9.76184,-3.98526 L -9.73831,-3.84418
 L -9.74512,-3.70049 L -9.78091,-3.55995 L -9.84383,-3.42931 L -9.93098,-3.31485 L -10.0397,-3.22191 L -10.1672,-3.15569
 L -10.278,-3.13196 L -10.3891,-3.12109 L -10.4996,-3.12343 L -10.6086,-3.1393 L -10.7155,-3.11839 L -10.7888,-3.02553
 L -10.7976,-2.99445 L -10.8233,-2.9001 L -10.8482,-2.80554 L -10.8562,-2.77423 L -10.8391,-2.6573 L -10.757,-2.5856
 L -10.6546,-2.54486 L -10.5577,-2.49173 L -10.4669,-2.42679 L -10.3829,-2.35068 L -10.3056,-2.22958 L -10.2579,-2.09474
 L -10.2397,-1.95204 L -10.2505,-1.80743 L -10.2898,-1.66783 L -10.3557,-1.53999 L -10.4466,-1.42958 L -10.5607,-1.34222
 L -10.6657,-1.29962 L -10.7732,-1.26964 L -10.8825,-1.25275 L -10.9926,-1.24944 L -11.0943,-1.21028 L -11.1503,-1.10609
 L -11.1536,-1.07396 L -11.1625,-0.976593 L -11.1706,-0.879135 L -11.173,-0.846924 L -11.1359,-0.734741 L -11.0426,-0.678375
 L -10.9347,-0.656052 L -10.83,-0.620544 L -10.7293,-0.572357 L -10.6333,-0.511993 L -10.5362,-0.406158 L -10.4658,-0.281647
 L -10.4231,-0.144287 L -10.4086,-0 L -10.4231,0.144287 L -10.4658,0.281647 L -10.5362,0.406158 L -10.6333,0.511993
 L -10.7293,0.572189 L -10.83,0.620392 L -10.9347,0.655991 L -11.0426,0.678375 L -11.1359,0.734589 L -11.173,0.846924
 L -11.1706,0.879135 L -11.1625,0.976593 L -11.1536,1.07396 L -11.1503,1.10609 L -11.0943,1.21014 L -10.9926,1.24944
 L -10.8825,1.25269 L -10.7733,1.26949 L -10.6657,1.29945 L -10.5607,1.34222 L -10.4466,1.42958 L -10.3557,1.53999
 L -10.2898,1.66783 L -10.2505,1.80743 L -10.2397,1.95204 L -10.2579,2.09474 L -10.3056,2.22958 L -10.3829,2.35068
 L -10.467,2.42662 L -10.5578,2.49158 L -10.6546,2.54482 L -10.757,2.5856 L -10.8391,2.65717 L -10.8562,2.77423
 L -10.8482,2.80554 L -10.8233,2.9001 L -10.7976,2.99445 L -10.7888,3.02553 L -10.7156,3.11826 L -10.6086,3.1393
 L -10.4996,3.12338 L -10.3891,3.12096 L -10.278,3.13179 L -10.1672,3.15569 L -10.0397,3.22191 L -9.93098,3.31485
 L -9.84383,3.42931 L -9.78091,3.55995 L -9.74512,3.70049 L -9.73831,3.84418 L -9.76184,3.98526 L -9.81696,4.11794
 L -9.88657,4.20734 L -9.96471,4.28706 L -10.0509,4.35631 L -10.1446,4.41426 L -10.213,4.49899 L -10.2095,4.61723
 L -10.1962,4.6467 L -10.1553,4.73549 L -10.1136,4.82393 L -10.0996,4.85303 L -10.0113,4.93163 L -9.90234,4.93378
 L -9.79773,4.89917 L -9.68935,4.87759 L -9.57806,4.86897 L -9.46474,4.87326 L -9.32768,4.91634 L -9.20448,4.98898
 L -9.09879,5.08656 L -9.01413,5.20432 L -8.95448,5.33649 L -8.92284,5.47682 L -8.92151,5.61984 L -8.95274,5.76007
 L -9.00578,5.8602 L -9.06888,5.95229 L -9.14171,6.03545 L -9.22395,6.10878 L -9.27664,6.20412 L -9.25264,6.31996
 L -9.23445,6.34666 L -9.17873,6.427 L -9.12228,6.50687 L -9.10341,6.53308 L -9.00285,6.59515 L -8.89516,6.57834
 L -8.79814,6.52611 L -8.69516,6.48604 L -8.58705,6.45822 L -8.47472,6.44276 L -8.33226,6.46138 L -8.19832,6.51154
 L -8.07727,6.58928 L -7.97346,6.69054 L -7.89177,6.81035 L -7.83624,6.94305 L -7.81009,7.08366 L -7.8165,7.22719
 L -7.85135,7.33501 L -7.89749,7.43666 L -7.95477,7.53119 L -8.02304,7.61771 L -8.05838,7.72073 L -8.01462,7.83064
 L -7.99208,7.85379 L -7.92323,7.92323 L -7.85379,7.99208 L -7.83064,8.01462 L -7.72084,8.05829 L -7.61771,8.02304
 L -7.53123,7.95474 L -7.43677,7.8974 L -7.33514,7.85123 L -7.22719,7.8165 L -7.08366,7.81009 L -6.94305,7.83624
 L -6.81035,7.89177 L -6.69054,7.97346 L -6.58928,8.07727 L -6.51154,8.19832 L -6.46138,8.33226 L -6.44276,8.47472
 L -6.45836,8.58694 L -6.48616,8.69507 L -6.52614,8.79811 L -6.57834,8.89516 L -6.59526,9.00276 L -6.53308,9.10341
 L -6.50687,9.12228 L -6.427,9.17873 L -6.34666,9.23445 L -6.31996,9.25264 L -6.20424,9.27658 L -6.10878,9.22395
 L -6.03549,9.14168 L -5.95242,9.0688 L -5.86035,9.00569 L -5.76007,8.95274 L -5.61984,8.92151 L -5.47682,8.92284
 L -5.33649,8.95448 L -5.20432,9.01413 L -5.08656,9.09879 L -4.98898,9.20448 L -4.91634,9.32768 L -4.87326,9.46474
 L -4.86913,9.57797 L -4.87773,9.68927 L -4.89922,9.7977 L -4.93378,9.90234 L -4.93175,10.0112 L -4.85303,10.0996
 L -4.82393,10.1136 L -4.73549,10.1553 L -4.6467,10.1962 L -4.61723,10.2095 L -4.49911,10.213 L -4.41426,10.1446
 L -4.35637,10.0508 L -4.28722,9.96466 L -4.20749,9.88652 L -4.11794,9.81696 L -3.98526,9.76184 L -3.84418,9.73831
 L -3.70049,9.74512 L -3.55995,9.78091 L -3.42931,9.84383 L -3.31485,9.93098 L -3.22191,10.0397 L -3.15569,10.1672
 L -3.13196,10.278 L -3.12109,10.3891 L -3.12343,10.4996 L -3.1393,10.6086 L -3.11839,10.7155 L -3.02553,10.7888
 L -2.99445,10.7976 L -2.9001,10.8233 L -2.80554,10.8482 L -2.77423,10.8562 L -2.6573,10.8391 L -2.5856,10.757
 L -2.54486,10.6546 L -2.49173,10.5577 L -2.42679,10.4669 L -2.35068,10.3829 L -2.22958,10.3056 L -2.09474,10.2579
 L -1.95204,10.2397 L -1.80743,10.2505 L -1.66783,10.2898 L -1.53999,10.3557 L -1.42958,10.4466 L -1.34222,10.5607
 L -1.29962,10.6657 L -1.26964,10.7732 L -1.25275,10.8825 L -1.24944,10.9926 L -1.21028,11.0943 L -1.10609,11.1503
 L -1.07396,11.1536 L -0.976593,11.1625 L -0.879135,11.1706 L -0.846924,11.173 L -0.734741,11.1359 L -0.678375,11.0426
 L -0.656052,10.9347 L -0.620544,10.83 L -0.572357,10.7293 L -0.511993,10.6333 L -0.406158,10.5362 L -0.281647,10.4658
 L -0.144287,10.4231 L 0,10.4086 L 0.144287,10.4231 L 0.281647,10.4658 L 0.406158,10.5362 L 0.511993,10.6333
 L 0.572189,10.7293 L 0.620392,10.83 L 0.655991,10.9347 L 0.678375,11.0426 L 0.734589,11.1359 L 0.846924,11.173
 z
M -0.18837,2.99408 L -0.562134,2.94685 L -0.927048,2.85316 L -1.27733,2.71448 L -1.60747,2.53297 L -1.91226,2.31154
 L -2.1869,2.05363 L -2.42705,1.76335 L -2.62891,1.44525 L -2.78932,1.10437 L -2.90575,0.746063 L -2.97633,0.375992
 L -3,-0 L -2.97633,-0.375992 L -2.90575,-0.746063 L -2.78932,-1.10437 L -2.62891,-1.44525 L -2.42705,-1.76335
 L -2.1869,-2.05363 L -1.91226,-2.31154 L -1.60747,-2.53297 L -1.27733,-2.71448 L -0.927048,-2.85316 L -0.562134,-2.94685
 L -0.18837,-2.99408 L 0.18837,-2.99408 L 0.562134,-2.94685 L 0.927048,-2.85316 L 1.27733,-2.71448 L 1.60747,-2.53297
 L 1.91226,-2.31154 L 2.1869,-2.05363 L 2.42705,-1.76335 L 2.62891,-1.44525 L 2.78932,-1.10437 L 2.90575,-0.746063
 L 2.97633,-0.375992 L 3,-0 L 2.97633,0.375992 L 2.90575,0.746063 L 2.78932,1.10437 L 2.62891,1.44525
 L 2.42705,1.76335 L 2.1869,2.05363 L 1.91226,2.31154 L 1.60747,2.53297 L 1.27733,2.71448 L 0.927048,2.85316
 L 0.562134,2.94685 L 0.18837,2.99408 z
" stroke="black" fill="lightgray" stroke-width="0.5"/>
</svg>
