<?xml version="1.0" standalone="no"?>
<!DOCTYPE svg PUBLIC "-//W3C//DTD SVG 1.1//EN" "http://www.w3.org/Graphics/SVG/1.1/DTD/svg11.dtd">
<svg width="76mm" height="369mm" viewBox="-38 -657 76 369" xmlns="http://www.w3.org/2000/svg" version="1.1">
<title>OpenSCAD Model</title>
<path d="
M 33.4369,-477.089 L 34.0451,-477.245 L 34.6289,-477.476 L 35.1791,-477.778 L 35.6871,-478.147 L 36.1448,-478.577
 L 36.5451,-479.061 L 36.8815,-479.591 L 37.1489,-480.159 L 37.3429,-480.757 L 37.4606,-481.373 L 37.5,-482
 L 37.5,-652 L 37.4606,-652.627 L 37.3429,-653.243 L 37.1489,-653.841 L 36.8815,-654.409 L 36.5451,-654.939
 L 36.1448,-655.423 L 35.6871,-655.853 L 35.1791,-656.222 L 34.6289,-656.524 L 34.0451,-656.755 L 33.4369,-656.911
 L 32.8139,-656.99 L -32.8139,-656.99 L -33.4369,-656.911 L -34.0451,-656.755 L -34.6289,-656.524 L -35.1791,-656.222
 L -35.6871,-655.853 L -36.1448,-655.423 L -36.5451,-654.939 L -36.8815,-654.409 L -37.1489,-653.841 L -37.3429,-653.243
 L -37.4606,-652.627 L -37.5,-652 L -37.5,-482 L -37.4606,-481.373 L -37.3429,-480.757 L -37.1489,-480.159
 L -36.8815,-479.591 L -36.5451,-479.061 L -36.1448,-478.577 L -35.6871,-478.147 L -35.1791,-477.778 L -34.6289,-477.476
 L -34.0451,-477.245 L -33.4369,-477.089 L -32.8139,-477.01 L 32.8139,-477.01 z
M -32.1954,-479.393 L -32.5833,-479.442 L -32.9619,-479.539 L -33.3254,-479.683 L -33.668,-479.872 L -33.9842,-480.101
 L -34.2692,-480.369 L -34.5184,-480.67 L -34.7279,-481 L -34.8943,-481.354 L -35.0151,-481.726 L -35.0884,-482.11
 L -35.1129,-482.5 L -35.1129,-651.5 L -35.0884,-651.89 L -35.0151,-652.274 L -34.8943,-652.646 L -34.7279,-653
 L -34.5184,-653.33 L -34.2692,-653.631 L -33.9842,-653.899 L -33.668,-654.128 L -33.3254,-654.317 L -32.9619,-654.461
 L -32.5833,-654.558 L -32.1954,-654.607 L 32.1954,-654.607 L 32.5833,-654.558 L 32.9619,-654.461 L 33.3254,-654.317
 L 33.668,-654.128 L 33.9842,-653.899 L 34.2692,-653.631 L 34.5184,-653.33 L 34.7279,-653 L 34.8943,-652.646
 L 35.0151,-652.274 L 35.0884,-651.89 L 35.1129,-651.5 L 35.1129,-482.5 L 35.0884,-482.11 L 35.0151,-481.726
 L 34.8943,-481.354 L 34.7279,-481 L 34.5184,-480.67 L 34.2692,-480.369 L 33.9842,-480.101 L 33.668,-479.872
 L 33.3254,-479.683 L 32.9619,-479.539 L 32.5833,-479.442 L 32.1954,-479.393 z
M 33.4369,-288.089 L 34.0451,-288.245 L 34.6289,-288.476 L 35.1791,-288.778 L 35.6871,-289.147 L 36.1448,-289.577
 L 36.5451,-290.061 L 36.8815,-290.591 L 37.1489,-291.159 L 37.3429,-291.757 L 37.4606,-292.373 L 37.5,-293
 L 37.5,-463 L 37.4606,-463.627 L 37.3429,-464.243 L 37.1489,-464.841 L 36.8815,-465.409 L 36.5451,-465.939
 L 36.1448,-466.423 L 35.6871,-466.853 L 35.1791,-467.222 L 34.6289,-467.524 L 34.0451,-467.755 L 33.4369,-467.911
 L 32.8139,-467.99 L -32.8139,-467.99 L -33.4369,-467.911 L -34.0451,-467.755 L -34.6289,-467.524 L -35.1791,-467.222
 L -35.6871,-466.853 L -36.1448,-466.423 L -36.5451,-465.939 L -36.8815,-465.409 L -37.1489,-464.841 L -37.3429,-464.243
 L -37.4606,-463.627 L -37.5,-463 L -37.5,-293 L -37.4606,-292.373 L -37.3429,-291.757 L -37.1489,-291.159
 L -36.8815,-290.591 L -36.5451,-290.061 L -36.1448,-289.577 L -35.6871,-289.147 L -35.1791,-288.778 L -34.6289,-288.476
 L -34.0451,-288.245 L -33.4369,-288.089 L -32.8139,-288.01 L 32.8139,-288.01 z
M 29.8659,-458.369 L 29.5999,-458.403 L 29.3401,-458.469 L 29.0908,-458.568 L 28.8559,-458.697 L 28.6389,-458.855
 L 28.4434,-459.038 L 28.2725,-459.245 L 28.1288,-459.471 L 28.0146,-459.714 L 27.9318,-459.969 L 27.8815,-460.232
 L 27.8647,-460.5 L 27.8815,-460.768 L 27.9318,-461.031 L 28.0146,-461.286 L 28.1288,-461.529 L 28.2725,-461.755
 L 28.4434,-461.962 L 28.6389,-462.145 L 28.8559,-462.303 L 29.0908,-462.432 L 29.3401,-462.531 L 29.5999,-462.597
 L 29.8659,-462.631 L 30.1341,-462.631 L 30.4001,-462.597 L 30.6598,-462.531 L 30.9091,-462.432 L 31.1441,-462.303
 L 31.3611,-462.145 L 31.5565,-461.962 L 31.7275,-461.755 L 31.8712,-461.529 L 31.9853,-461.286 L 32.0682,-461.031
 L 32.1185,-460.768 L 32.1353,-460.5 L 32.1185,-460.232 L 32.0682,-459.969 L 31.9853,-459.714 L 31.8712,-459.471
 L 31.7275,-459.245 L 31.5565,-459.038 L 31.3611,-458.855 L 31.1441,-458.697 L 30.9091,-458.568 L 30.6598,-458.469
 L 30.4001,-458.403 L 30.1341,-458.369 z
M -30.1341,-458.369 L -30.4001,-458.403 L -30.6598,-458.469 L -30.9091,-458.568 L -31.1441,-458.697 L -31.3611,-458.855
 L -31.5565,-459.038 L -31.7275,-459.245 L -31.8712,-459.471 L -31.9853,-459.714 L -32.0682,-459.969 L -32.1185,-460.232
 L -32.1353,-460.5 L -32.1185,-460.768 L -32.0682,-461.031 L -31.9853,-461.286 L -31.8712,-461.529 L -31.7275,-461.755
 L -31.5565,-461.962 L -31.3611,-462.145 L -31.1441,-462.303 L -30.9091,-462.432 L -30.6598,-462.531 L -30.4001,-462.597
 L -30.1341,-462.631 L -29.8659,-462.631 L -29.5999,-462.597 L -29.3401,-462.531 L -29.0908,-462.432 L -28.8559,-462.303
 L -28.6389,-462.145 L -28.4434,-461.962 L -28.2725,-461.755 L -28.1288,-461.529 L -28.0146,-461.286 L -27.9318,-461.031
 L -27.8815,-460.768 L -27.8647,-460.5 L -27.8815,-460.232 L -27.9318,-459.969 L -28.0146,-459.714 L -28.1288,-459.471
 L -28.2725,-459.245 L -28.4434,-459.038 L -28.6389,-458.855 L -28.8559,-458.697 L -29.0908,-458.568 L -29.3401,-458.469
 L -29.5999,-458.403 L -29.8659,-458.369 z
M 29.8659,-293.369 L 29.5999,-293.403 L 29.3401,-293.469 L 29.0908,-293.568 L 28.8559,-293.697 L 28.6389,-293.855
 L 28.4434,-294.038 L 28.2725,-294.245 L 28.1288,-294.471 L 28.0146,-294.714 L 27.9318,-294.969 L 27.8815,-295.232
 L 27.8647,-295.5 L 27.8815,-295.768 L 27.9318,-296.031 L 28.0146,-296.286 L 28.1288,-296.529 L 28.2725,-296.755
 L 28.4434,-296.962 L 28.6389,-297.145 L 28.8559,-297.303 L 29.0908,-297.432 L 29.3401,-297.531 L 29.5999,-297.597
 L 29.8659,-297.631 L 30.1341,-297.631 L 30.4001,-297.597 L 30.6598,-297.531 L 30.9091,-297.432 L 31.1441,-297.303
 L 31.3611,-297.145 L 31.5565,-296.962 L 31.7275,-296.755 L 31.8712,-296.529 L 31.9853,-296.286 L 32.0682,-296.031
 L 32.1185,-295.768 L 32.1353,-295.5 L 32.1185,-295.232 L 32.0682,-294.969 L 31.9853,-294.714 L 31.8712,-294.471
 L 31.7275,-294.245 L 31.5565,-294.038 L 31.3611,-293.855 L 31.1441,-293.697 L 30.9091,-293.568 L 30.6598,-293.469
 L 30.4001,-293.403 L 30.1341,-293.369 z
M -30.1341,-293.369 L -30.4001,-293.403 L -30.6598,-293.469 L -30.9091,-293.568 L -31.1441,-293.697 L -31.3611,-293.855
 L -31.5565,-294.038 L -31.7275,-294.245 L -31.8712,-294.471 L -31.9853,-294.714 L -32.0682,-294.969 L -32.1185,-295.232
 L -32.1353,-295.5 L -32.1185,-295.768 L -32.0682,-296.031 L -31.9853,-296.286 L -31.8712,-296.529 L -31.7275,-296.755
 L -31.5565,-296.962 L -31.3611,-297.145 L -31.1441,-297.303 L -30.9091,-297.432 L -30.6598,-297.531 L -30.4001,-297.597
 L -30.1341,-297.631 L -29.8659,-297.631 L -29.5999,-297.597 L -29.3401,-297.531 L -29.0908,-297.432 L -28.8559,-297.303
 L -28.6389,-297.145 L -28.4434,-296.962 L -28.2725,-296.755 L -28.1288,-296.529 L -28.0146,-296.286 L -27.9318,-296.031
 L -27.8815,-295.768 L -27.8647,-295.5 L -27.8815,-295.232 L -27.9318,-294.969 L -28.0146,-294.714 L -28.1288,-294.471
 L -28.2725,-294.245 L -28.4434,-294.038 L -28.6389,-293.855 L -28.8559,-293.697 L -29.0908,-293.568 L -29.3401,-293.469
 L -29.5999,-293.403 L -29.8659,-293.369 z
" stroke="black" fill="lightgray" stroke-width="0.5"/>
</svg>
