solid OpenSCAD_Model
  facet normal 0 -1 0
    outer loop
      vertex -3.75049 -6.49605 0
      vertex 3.75049 -6.49605 6.5
      vertex -3.75049 -6.49605 6.5
    endloop
  endfacet
  facet normal 0 -1 -0
    outer loop
      vertex 3.75049 -6.49605 6.5
      vertex -3.75049 -6.49605 0
      vertex 3.75049 -6.49605 0
    endloop
  endfacet
  facet normal 0.866025 -0.5 0
    outer loop
      vertex 3.75049 -6.49605 6.5
      vertex 7.50099 0 0
      vertex 7.50099 0 6.5
    endloop
  endfacet
  facet normal 0.866025 -0.5 0
    outer loop
      vertex 7.50099 0 0
      vertex 3.75049 -6.49605 6.5
      vertex 3.75049 -6.49605 0
    endloop
  endfacet
  facet normal -0 0 -1
    outer loop
      vertex 7.50099 0 0
      vertex 3.96846 -0.501332 0
      vertex 4 0 0
    endloop
  endfacet
  facet normal 0 0 -1
    outer loop
      vertex 7.50099 0 0
      vertex 3.87433 -0.994759 0
      vertex 3.96846 -0.501332 0
    endloop
  endfacet
  facet normal 0 0 -1
    outer loop
      vertex 3.50523 -1.92701 0
      vertex 7.50099 0 0
      vertex 3.75049 -6.49605 0
    endloop
  endfacet
  facet normal 0 0 -1
    outer loop
      vertex 7.50099 0 0
      vertex 3.71911 -1.4725 0
      vertex 3.87433 -0.994759 0
    endloop
  endfacet
  facet normal 0 0 -1
    outer loop
      vertex 7.50099 0 0
      vertex 3.50523 -1.92701 0
      vertex 3.71911 -1.4725 0
    endloop
  endfacet
  facet normal 0 0 -1
    outer loop
      vertex 3.75049 -6.49605 0
      vertex 3.23607 -2.35114 0
      vertex 3.50523 -1.92701 0
    endloop
  endfacet
  facet normal 0 0 -1
    outer loop
      vertex 3.75049 -6.49605 0
      vertex 2.91587 -2.73819 0
      vertex 3.23607 -2.35114 0
    endloop
  endfacet
  facet normal 0 0 -1
    outer loop
      vertex 3.75049 -6.49605 0
      vertex 2.5497 -3.08205 0
      vertex 2.91587 -2.73819 0
    endloop
  endfacet
  facet normal 0 0 -1
    outer loop
      vertex 3.75049 -6.49605 0
      vertex 2.14331 -3.37731 0
      vertex 2.5497 -3.08205 0
    endloop
  endfacet
  facet normal 0 0 -1
    outer loop
      vertex 3.75049 -6.49605 0
      vertex 1.70312 -3.61931 0
      vertex 2.14331 -3.37731 0
    endloop
  endfacet
  facet normal 0 0 -1
    outer loop
      vertex 3.75049 -6.49605 0
      vertex 1.23607 -3.80423 0
      vertex 1.70312 -3.61931 0
    endloop
  endfacet
  facet normal 0 0 -1
    outer loop
      vertex 3.75049 -6.49605 0
      vertex 0.749525 -3.92915 0
      vertex 1.23607 -3.80423 0
    endloop
  endfacet
  facet normal 0 0 -1
    outer loop
      vertex 3.75049 -6.49605 0
      vertex 0.251162 -3.99211 0
      vertex 0.749525 -3.92915 0
    endloop
  endfacet
  facet normal 0 0 -1
    outer loop
      vertex 3.75049 -6.49605 0
      vertex -0.251162 -3.99211 0
      vertex 0.251162 -3.99211 0
    endloop
  endfacet
  facet normal 0 0 -1
    outer loop
      vertex -3.75049 -6.49605 0
      vertex -0.251162 -3.99211 0
      vertex 3.75049 -6.49605 0
    endloop
  endfacet
  facet normal -0 0 -1
    outer loop
      vertex -0.251162 -3.99211 0
      vertex -3.75049 -6.49605 0
      vertex -0.749525 -3.92915 0
    endloop
  endfacet
  facet normal -0 0 -1
    outer loop
      vertex -0.749525 -3.92915 0
      vertex -3.75049 -6.49605 0
      vertex -1.23607 -3.80423 0
    endloop
  endfacet
  facet normal -0 0 -1
    outer loop
      vertex -1.23607 -3.80423 0
      vertex -3.75049 -6.49605 0
      vertex -1.70312 -3.61931 0
    endloop
  endfacet
  facet normal 0 0 -1
    outer loop
      vertex -3.75049 -6.49605 0
      vertex -2.14331 -3.37731 0
      vertex -1.70312 -3.61931 0
    endloop
  endfacet
  facet normal 0 0 -1
    outer loop
      vertex -3.75049 -6.49605 0
      vertex -2.5497 -3.08205 0
      vertex -2.14331 -3.37731 0
    endloop
  endfacet
  facet normal 0 0 -1
    outer loop
      vertex -3.75049 -6.49605 0
      vertex -2.91587 -2.73819 0
      vertex -2.5497 -3.08205 0
    endloop
  endfacet
  facet normal 0 0 -1
    outer loop
      vertex -3.75049 -6.49605 0
      vertex -3.23607 -2.35114 0
      vertex -2.91587 -2.73819 0
    endloop
  endfacet
  facet normal 0 0 -1
    outer loop
      vertex -3.75049 -6.49605 0
      vertex -3.50523 -1.92701 0
      vertex -3.23607 -2.35114 0
    endloop
  endfacet
  facet normal 0 0 -1
    outer loop
      vertex -7.50099 0 0
      vertex -3.50523 -1.92701 0
      vertex -3.75049 -6.49605 0
    endloop
  endfacet
  facet normal 0 0 -1
    outer loop
      vertex -3.50523 -1.92701 0
      vertex -7.50099 0 0
      vertex -3.71911 -1.4725 0
    endloop
  endfacet
  facet normal 0 0 -1
    outer loop
      vertex -3.71911 -1.4725 0
      vertex -7.50099 0 0
      vertex -3.87433 -0.994759 0
    endloop
  endfacet
  facet normal 0 0 -1
    outer loop
      vertex -3.87433 -0.994759 0
      vertex -7.50099 0 0
      vertex -3.96846 -0.501332 0
    endloop
  endfacet
  facet normal 0 0 -1
    outer loop
      vertex -3.96846 -0.501332 0
      vertex -7.50099 0 0
      vertex -4 0 0
    endloop
  endfacet
  facet normal 0 0 -1
    outer loop
      vertex 3.96846 0.501332 0
      vertex 7.50099 0 0
      vertex 4 0 0
    endloop
  endfacet
  facet normal 0 0 -1
    outer loop
      vertex 3.87433 0.994759 0
      vertex 7.50099 0 0
      vertex 3.96846 0.501332 0
    endloop
  endfacet
  facet normal 0 0 -1
    outer loop
      vertex 3.71911 1.4725 0
      vertex 7.50099 0 0
      vertex 3.87433 0.994759 0
    endloop
  endfacet
  facet normal 0 0 -1
    outer loop
      vertex 3.50523 1.92701 0
      vertex 7.50099 0 0
      vertex 3.71911 1.4725 0
    endloop
  endfacet
  facet normal 0 0 -1
    outer loop
      vertex 7.50099 0 0
      vertex 3.50523 1.92701 0
      vertex 3.75049 6.49605 0
    endloop
  endfacet
  facet normal 0 0 -1
    outer loop
      vertex 3.23607 2.35114 0
      vertex 3.75049 6.49605 0
      vertex 3.50523 1.92701 0
    endloop
  endfacet
  facet normal 0 0 -1
    outer loop
      vertex 2.91587 2.73819 0
      vertex 3.75049 6.49605 0
      vertex 3.23607 2.35114 0
    endloop
  endfacet
  facet normal 0 0 -1
    outer loop
      vertex 2.5497 3.08205 0
      vertex 3.75049 6.49605 0
      vertex 2.91587 2.73819 0
    endloop
  endfacet
  facet normal 0 0 -1
    outer loop
      vertex 2.14331 3.37731 0
      vertex 3.75049 6.49605 0
      vertex 2.5497 3.08205 0
    endloop
  endfacet
  facet normal 0 0 -1
    outer loop
      vertex 1.70312 3.61931 0
      vertex 3.75049 6.49605 0
      vertex 2.14331 3.37731 0
    endloop
  endfacet
  facet normal 0 0 -1
    outer loop
      vertex 1.23607 3.80423 0
      vertex 3.75049 6.49605 0
      vertex 1.70312 3.61931 0
    endloop
  endfacet
  facet normal 0 0 -1
    outer loop
      vertex 0.749525 3.92915 0
      vertex 3.75049 6.49605 0
      vertex 1.23607 3.80423 0
    endloop
  endfacet
  facet normal 0 0 -1
    outer loop
      vertex 0.251162 3.99211 0
      vertex 3.75049 6.49605 0
      vertex 0.749525 3.92915 0
    endloop
  endfacet
  facet normal 0 0 -1
    outer loop
      vertex -0.251162 3.99211 0
      vertex 3.75049 6.49605 0
      vertex 0.251162 3.99211 0
    endloop
  endfacet
  facet normal 0 0 -1
    outer loop
      vertex -3.75049 6.49605 0
      vertex -0.251162 3.99211 0
      vertex -0.749525 3.92915 0
    endloop
  endfacet
  facet normal 0 0 -1
    outer loop
      vertex -3.75049 6.49605 0
      vertex -0.749525 3.92915 0
      vertex -1.23607 3.80423 0
    endloop
  endfacet
  facet normal 0 0 -1
    outer loop
      vertex -3.75049 6.49605 0
      vertex -1.23607 3.80423 0
      vertex -1.70312 3.61931 0
    endloop
  endfacet
  facet normal 0 0 -1
    outer loop
      vertex -0.251162 3.99211 0
      vertex -3.75049 6.49605 0
      vertex 3.75049 6.49605 0
    endloop
  endfacet
  facet normal 0 0 -1
    outer loop
      vertex -2.14331 3.37731 0
      vertex -3.75049 6.49605 0
      vertex -1.70312 3.61931 0
    endloop
  endfacet
  facet normal 0 0 -1
    outer loop
      vertex -2.5497 3.08205 0
      vertex -3.75049 6.49605 0
      vertex -2.14331 3.37731 0
    endloop
  endfacet
  facet normal 0 0 -1
    outer loop
      vertex -2.91587 2.73819 0
      vertex -3.75049 6.49605 0
      vertex -2.5497 3.08205 0
    endloop
  endfacet
  facet normal 0 0 -1
    outer loop
      vertex -3.23607 2.35114 0
      vertex -3.75049 6.49605 0
      vertex -2.91587 2.73819 0
    endloop
  endfacet
  facet normal 0 0 -1
    outer loop
      vertex -3.50523 1.92701 0
      vertex -3.75049 6.49605 0
      vertex -3.23607 2.35114 0
    endloop
  endfacet
  facet normal 0 0 -1
    outer loop
      vertex -7.50099 0 0
      vertex -3.50523 1.92701 0
      vertex -3.71911 1.4725 0
    endloop
  endfacet
  facet normal 0 0 -1
    outer loop
      vertex -7.50099 0 0
      vertex -3.71911 1.4725 0
      vertex -3.87433 0.994759 0
    endloop
  endfacet
  facet normal 0 0 -1
    outer loop
      vertex -7.50099 0 0
      vertex -3.87433 0.994759 0
      vertex -3.96846 0.501332 0
    endloop
  endfacet
  facet normal 0 0 -1
    outer loop
      vertex -7.50099 0 0
      vertex -3.96846 0.501332 0
      vertex -4 0 0
    endloop
  endfacet
  facet normal -0 0 -1
    outer loop
      vertex -3.50523 1.92701 0
      vertex -7.50099 0 0
      vertex -3.75049 6.49605 0
    endloop
  endfacet
  facet normal 0.866025 0.5 0
    outer loop
      vertex 7.50099 0 6.5
      vertex 3.75049 6.49605 0
      vertex 3.75049 6.49605 6.5
    endloop
  endfacet
  facet normal 0.866025 0.5 0
    outer loop
      vertex 3.75049 6.49605 0
      vertex 7.50099 0 6.5
      vertex 7.50099 0 0
    endloop
  endfacet
  facet normal 0 0 1
    outer loop
      vertex 7.50099 0 6.5
      vertex 3.96846 0.501332 6.5
      vertex 4 0 6.5
    endloop
  endfacet
  facet normal 0 0 1
    outer loop
      vertex 7.50099 0 6.5
      vertex 3.87433 0.994759 6.5
      vertex 3.96846 0.501332 6.5
    endloop
  endfacet
  facet normal -0 0 1
    outer loop
      vertex 3.50523 1.92701 6.5
      vertex 7.50099 0 6.5
      vertex 3.75049 6.49605 6.5
    endloop
  endfacet
  facet normal 0 0 1
    outer loop
      vertex 7.50099 0 6.5
      vertex 3.71911 1.4725 6.5
      vertex 3.87433 0.994759 6.5
    endloop
  endfacet
  facet normal 0 0 1
    outer loop
      vertex 7.50099 0 6.5
      vertex 3.50523 1.92701 6.5
      vertex 3.71911 1.4725 6.5
    endloop
  endfacet
  facet normal 0 0 1
    outer loop
      vertex 3.75049 6.49605 6.5
      vertex 3.23607 2.35114 6.5
      vertex 3.50523 1.92701 6.5
    endloop
  endfacet
  facet normal 0 0 1
    outer loop
      vertex 3.75049 6.49605 6.5
      vertex 2.91587 2.73819 6.5
      vertex 3.23607 2.35114 6.5
    endloop
  endfacet
  facet normal 0 0 1
    outer loop
      vertex 3.75049 6.49605 6.5
      vertex 2.5497 3.08205 6.5
      vertex 2.91587 2.73819 6.5
    endloop
  endfacet
  facet normal 0 0 1
    outer loop
      vertex 3.75049 6.49605 6.5
      vertex 2.14331 3.37731 6.5
      vertex 2.5497 3.08205 6.5
    endloop
  endfacet
  facet normal 0 0 1
    outer loop
      vertex 3.75049 6.49605 6.5
      vertex 1.70312 3.61931 6.5
      vertex 2.14331 3.37731 6.5
    endloop
  endfacet
  facet normal 0 0 1
    outer loop
      vertex 3.75049 6.49605 6.5
      vertex 1.23607 3.80423 6.5
      vertex 1.70312 3.61931 6.5
    endloop
  endfacet
  facet normal 0 0 1
    outer loop
      vertex 3.75049 6.49605 6.5
      vertex 0.749525 3.92915 6.5
      vertex 1.23607 3.80423 6.5
    endloop
  endfacet
  facet normal 0 0 1
    outer loop
      vertex 3.75049 6.49605 6.5
      vertex 0.251162 3.99211 6.5
      vertex 0.749525 3.92915 6.5
    endloop
  endfacet
  facet normal 0 0 1
    outer loop
      vertex 3.75049 6.49605 6.5
      vertex -0.251162 3.99211 6.5
      vertex 0.251162 3.99211 6.5
    endloop
  endfacet
  facet normal -0 0 1
    outer loop
      vertex -3.75049 6.49605 6.5
      vertex -0.251162 3.99211 6.5
      vertex 3.75049 6.49605 6.5
    endloop
  endfacet
  facet normal 0 0 1
    outer loop
      vertex -0.251162 3.99211 6.5
      vertex -3.75049 6.49605 6.5
      vertex -0.749525 3.92915 6.5
    endloop
  endfacet
  facet normal 0 0 1
    outer loop
      vertex -0.749525 3.92915 6.5
      vertex -3.75049 6.49605 6.5
      vertex -1.23607 3.80423 6.5
    endloop
  endfacet
  facet normal 0 0 1
    outer loop
      vertex -1.23607 3.80423 6.5
      vertex -3.75049 6.49605 6.5
      vertex -1.70312 3.61931 6.5
    endloop
  endfacet
  facet normal 0 0 1
    outer loop
      vertex -3.75049 6.49605 6.5
      vertex -2.14331 3.37731 6.5
      vertex -1.70312 3.61931 6.5
    endloop
  endfacet
  facet normal 0 0 1
    outer loop
      vertex -3.75049 6.49605 6.5
      vertex -2.5497 3.08205 6.5
      vertex -2.14331 3.37731 6.5
    endloop
  endfacet
  facet normal 0 0 1
    outer loop
      vertex -3.75049 6.49605 6.5
      vertex -2.91587 2.73819 6.5
      vertex -2.5497 3.08205 6.5
    endloop
  endfacet
  facet normal 0 0 1
    outer loop
      vertex -3.75049 6.49605 6.5
      vertex -3.23607 2.35114 6.5
      vertex -2.91587 2.73819 6.5
    endloop
  endfacet
  facet normal 0 0 1
    outer loop
      vertex -3.75049 6.49605 6.5
      vertex -3.50523 1.92701 6.5
      vertex -3.23607 2.35114 6.5
    endloop
  endfacet
  facet normal 0 0 1
    outer loop
      vertex -7.50099 0 6.5
      vertex -3.50523 1.92701 6.5
      vertex -3.75049 6.49605 6.5
    endloop
  endfacet
  facet normal 0 0 1
    outer loop
      vertex -3.50523 1.92701 6.5
      vertex -7.50099 0 6.5
      vertex -3.71911 1.4725 6.5
    endloop
  endfacet
  facet normal 0 0 1
    outer loop
      vertex -3.71911 1.4725 6.5
      vertex -7.50099 0 6.5
      vertex -3.87433 0.994759 6.5
    endloop
  endfacet
  facet normal 0 0 1
    outer loop
      vertex -3.87433 0.994759 6.5
      vertex -7.50099 0 6.5
      vertex -3.96846 0.501332 6.5
    endloop
  endfacet
  facet normal 0 0 1
    outer loop
      vertex -3.96846 0.501332 6.5
      vertex -7.50099 0 6.5
      vertex -4 0 6.5
    endloop
  endfacet
  facet normal 0 0 1
    outer loop
      vertex 3.96846 -0.501332 6.5
      vertex 7.50099 0 6.5
      vertex 4 0 6.5
    endloop
  endfacet
  facet normal 0 0 1
    outer loop
      vertex 3.87433 -0.994759 6.5
      vertex 7.50099 0 6.5
      vertex 3.96846 -0.501332 6.5
    endloop
  endfacet
  facet normal 0 0 1
    outer loop
      vertex 3.71911 -1.4725 6.5
      vertex 7.50099 0 6.5
      vertex 3.87433 -0.994759 6.5
    endloop
  endfacet
  facet normal 0 0 1
    outer loop
      vertex 3.50523 -1.92701 6.5
      vertex 7.50099 0 6.5
      vertex 3.71911 -1.4725 6.5
    endloop
  endfacet
  facet normal 0 0 1
    outer loop
      vertex 7.50099 0 6.5
      vertex 3.50523 -1.92701 6.5
      vertex 3.75049 -6.49605 6.5
    endloop
  endfacet
  facet normal -0 0 1
    outer loop
      vertex 3.23607 -2.35114 6.5
      vertex 3.75049 -6.49605 6.5
      vertex 3.50523 -1.92701 6.5
    endloop
  endfacet
  facet normal -0 0 1
    outer loop
      vertex 2.91587 -2.73819 6.5
      vertex 3.75049 -6.49605 6.5
      vertex 3.23607 -2.35114 6.5
    endloop
  endfacet
  facet normal -0 0 1
    outer loop
      vertex 2.5497 -3.08205 6.5
      vertex 3.75049 -6.49605 6.5
      vertex 2.91587 -2.73819 6.5
    endloop
  endfacet
  facet normal -0 0 1
    outer loop
      vertex 2.14331 -3.37731 6.5
      vertex 3.75049 -6.49605 6.5
      vertex 2.5497 -3.08205 6.5
    endloop
  endfacet
  facet normal -0 0 1
    outer loop
      vertex 1.70312 -3.61931 6.5
      vertex 3.75049 -6.49605 6.5
      vertex 2.14331 -3.37731 6.5
    endloop
  endfacet
  facet normal -0 0 1
    outer loop
      vertex 1.23607 -3.80423 6.5
      vertex 3.75049 -6.49605 6.5
      vertex 1.70312 -3.61931 6.5
    endloop
  endfacet
  facet normal -0 0 1
    outer loop
      vertex 0.749525 -3.92915 6.5
      vertex 3.75049 -6.49605 6.5
      vertex 1.23607 -3.80423 6.5
    endloop
  endfacet
  facet normal -0 0 1
    outer loop
      vertex 0.251162 -3.99211 6.5
      vertex 3.75049 -6.49605 6.5
      vertex 0.749525 -3.92915 6.5
    endloop
  endfacet
  facet normal -0 0 1
    outer loop
      vertex -0.251162 -3.99211 6.5
      vertex 3.75049 -6.49605 6.5
      vertex 0.251162 -3.99211 6.5
    endloop
  endfacet
  facet normal 0 0 1
    outer loop
      vertex -3.75049 -6.49605 6.5
      vertex -0.251162 -3.99211 6.5
      vertex -0.749525 -3.92915 6.5
    endloop
  endfacet
  facet normal 0 0 1
    outer loop
      vertex -3.75049 -6.49605 6.5
      vertex -0.749525 -3.92915 6.5
      vertex -1.23607 -3.80423 6.5
    endloop
  endfacet
  facet normal 0 0 1
    outer loop
      vertex -3.75049 -6.49605 6.5
      vertex -1.23607 -3.80423 6.5
      vertex -1.70312 -3.61931 6.5
    endloop
  endfacet
  facet normal 0 0 1
    outer loop
      vertex -0.251162 -3.99211 6.5
      vertex -3.75049 -6.49605 6.5
      vertex 3.75049 -6.49605 6.5
    endloop
  endfacet
  facet normal 0 0 1
    outer loop
      vertex -2.14331 -3.37731 6.5
      vertex -3.75049 -6.49605 6.5
      vertex -1.70312 -3.61931 6.5
    endloop
  endfacet
  facet normal 0 0 1
    outer loop
      vertex -2.5497 -3.08205 6.5
      vertex -3.75049 -6.49605 6.5
      vertex -2.14331 -3.37731 6.5
    endloop
  endfacet
  facet normal 0 0 1
    outer loop
      vertex -2.91587 -2.73819 6.5
      vertex -3.75049 -6.49605 6.5
      vertex -2.5497 -3.08205 6.5
    endloop
  endfacet
  facet normal 0 0 1
    outer loop
      vertex -3.23607 -2.35114 6.5
      vertex -3.75049 -6.49605 6.5
      vertex -2.91587 -2.73819 6.5
    endloop
  endfacet
  facet normal 0 0 1
    outer loop
      vertex -3.50523 -1.92701 6.5
      vertex -3.75049 -6.49605 6.5
      vertex -3.23607 -2.35114 6.5
    endloop
  endfacet
  facet normal 0 0 1
    outer loop
      vertex -7.50099 0 6.5
      vertex -3.50523 -1.92701 6.5
      vertex -3.71911 -1.4725 6.5
    endloop
  endfacet
  facet normal 0 0 1
    outer loop
      vertex -7.50099 0 6.5
      vertex -3.71911 -1.4725 6.5
      vertex -3.87433 -0.994759 6.5
    endloop
  endfacet
  facet normal 0 0 1
    outer loop
      vertex -7.50099 0 6.5
      vertex -3.87433 -0.994759 6.5
      vertex -3.96846 -0.501332 6.5
    endloop
  endfacet
  facet normal -0 0 1
    outer loop
      vertex -7.50099 0 6.5
      vertex -3.96846 -0.501332 6.5
      vertex -4 0 6.5
    endloop
  endfacet
  facet normal 0 0 1
    outer loop
      vertex -3.50523 -1.92701 6.5
      vertex -7.50099 0 6.5
      vertex -3.75049 -6.49605 6.5
    endloop
  endfacet
  facet normal -0.866025 0.5 0
    outer loop
      vertex -7.50099 0 0
      vertex -3.75049 6.49605 6.5
      vertex -3.75049 6.49605 0
    endloop
  endfacet
  facet normal -0.866025 0.5 0
    outer loop
      vertex -3.75049 6.49605 6.5
      vertex -7.50099 0 0
      vertex -7.50099 0 6.5
    endloop
  endfacet
  facet normal -0.866025 -0.5 0
    outer loop
      vertex -3.75049 -6.49605 0
      vertex -7.50099 0 6.5
      vertex -7.50099 0 0
    endloop
  endfacet
  facet normal -0.866025 -0.5 0
    outer loop
      vertex -7.50099 0 6.5
      vertex -3.75049 -6.49605 0
      vertex -3.75049 -6.49605 6.5
    endloop
  endfacet
  facet normal 0 1 -0
    outer loop
      vertex 3.75049 6.49605 0
      vertex -3.75049 6.49605 6.5
      vertex 3.75049 6.49605 6.5
    endloop
  endfacet
  facet normal 0 1 0
    outer loop
      vertex -3.75049 6.49605 6.5
      vertex 3.75049 6.49605 0
      vertex -3.75049 6.49605 0
    endloop
  endfacet
  facet normal -0.904824 -0.425786 0
    outer loop
      vertex 3.71911 1.4725 0
      vertex 3.50523 1.92701 6.5
      vertex 3.50523 1.92701 0
    endloop
  endfacet
  facet normal -0.904824 -0.425786 0
    outer loop
      vertex 3.50523 1.92701 6.5
      vertex 3.71911 1.4725 0
      vertex 3.71911 1.4725 6.5
    endloop
  endfacet
  facet normal -0.844329 -0.535825 0
    outer loop
      vertex 3.50523 1.92701 0
      vertex 3.23607 2.35114 6.5
      vertex 3.23607 2.35114 0
    endloop
  endfacet
  facet normal -0.844329 -0.535825 0
    outer loop
      vertex 3.23607 2.35114 6.5
      vertex 3.50523 1.92701 0
      vertex 3.50523 1.92701 6.5
    endloop
  endfacet
  facet normal -0.368128 -0.929775 0
    outer loop
      vertex 1.23607 3.80423 0
      vertex 1.70312 3.61931 6.5
      vertex 1.23607 3.80423 6.5
    endloop
  endfacet
  facet normal -0.368128 -0.929775 -0
    outer loop
      vertex 1.70312 3.61931 6.5
      vertex 1.23607 3.80423 0
      vertex 1.70312 3.61931 0
    endloop
  endfacet
  facet normal 0.368128 -0.929775 0
    outer loop
      vertex -1.70312 3.61931 0
      vertex -1.23607 3.80423 6.5
      vertex -1.70312 3.61931 6.5
    endloop
  endfacet
  facet normal 0.368128 -0.929775 0
    outer loop
      vertex -1.23607 3.80423 6.5
      vertex -1.70312 3.61931 0
      vertex -1.23607 3.80423 0
    endloop
  endfacet
  facet normal 0.904824 -0.425786 0
    outer loop
      vertex -3.71911 1.4725 6.5
      vertex -3.50523 1.92701 0
      vertex -3.50523 1.92701 6.5
    endloop
  endfacet
  facet normal 0.904824 -0.425786 0
    outer loop
      vertex -3.50523 1.92701 0
      vertex -3.71911 1.4725 6.5
      vertex -3.71911 1.4725 0
    endloop
  endfacet
  facet normal -0.982286 0.187389 0
    outer loop
      vertex 3.87433 -0.994759 0
      vertex 3.96846 -0.501332 6.5
      vertex 3.96846 -0.501332 0
    endloop
  endfacet
  facet normal -0.982286 0.187389 0
    outer loop
      vertex 3.96846 -0.501332 6.5
      vertex 3.87433 -0.994759 0
      vertex 3.87433 -0.994759 6.5
    endloop
  endfacet
  facet normal -0.125337 -0.992114 0
    outer loop
      vertex 0.251162 3.99211 0
      vertex 0.749525 3.92915 6.5
      vertex 0.251162 3.99211 6.5
    endloop
  endfacet
  facet normal -0.125337 -0.992114 -0
    outer loop
      vertex 0.749525 3.92915 6.5
      vertex 0.251162 3.99211 0
      vertex 0.749525 3.92915 0
    endloop
  endfacet
  facet normal -0.587786 -0.809017 0
    outer loop
      vertex 2.14331 3.37731 0
      vertex 2.5497 3.08205 6.5
      vertex 2.14331 3.37731 6.5
    endloop
  endfacet
  facet normal -0.587786 -0.809017 -0
    outer loop
      vertex 2.5497 3.08205 6.5
      vertex 2.14331 3.37731 0
      vertex 2.5497 3.08205 0
    endloop
  endfacet
  facet normal 0.982286 -0.187389 0
    outer loop
      vertex -3.96846 0.501332 6.5
      vertex -3.87433 0.994759 0
      vertex -3.87433 0.994759 6.5
    endloop
  endfacet
  facet normal 0.982286 -0.187389 0
    outer loop
      vertex -3.87433 0.994759 0
      vertex -3.96846 0.501332 6.5
      vertex -3.96846 0.501332 0
    endloop
  endfacet
  facet normal 0.770509 -0.637429 0
    outer loop
      vertex -3.23607 2.35114 6.5
      vertex -2.91587 2.73819 0
      vertex -2.91587 2.73819 6.5
    endloop
  endfacet
  facet normal 0.770509 -0.637429 0
    outer loop
      vertex -2.91587 2.73819 0
      vertex -3.23607 2.35114 6.5
      vertex -3.23607 2.35114 0
    endloop
  endfacet
  facet normal 0.481759 -0.876304 0
    outer loop
      vertex -2.14331 3.37731 0
      vertex -1.70312 3.61931 6.5
      vertex -2.14331 3.37731 6.5
    endloop
  endfacet
  facet normal 0.481759 -0.876304 0
    outer loop
      vertex -1.70312 3.61931 6.5
      vertex -2.14331 3.37731 0
      vertex -1.70312 3.61931 0
    endloop
  endfacet
  facet normal 0.248683 -0.968585 0
    outer loop
      vertex -1.23607 3.80423 0
      vertex -0.749525 3.92915 6.5
      vertex -1.23607 3.80423 6.5
    endloop
  endfacet
  facet normal 0.248683 -0.968585 0
    outer loop
      vertex -0.749525 3.92915 6.5
      vertex -1.23607 3.80423 0
      vertex -0.749525 3.92915 0
    endloop
  endfacet
  facet normal -0.998027 -0.0627883 0
    outer loop
      vertex 4 0 0
      vertex 3.96846 0.501332 6.5
      vertex 3.96846 0.501332 0
    endloop
  endfacet
  facet normal -0.998027 -0.0627883 0
    outer loop
      vertex 3.96846 0.501332 6.5
      vertex 4 0 0
      vertex 4 0 6.5
    endloop
  endfacet
  facet normal -0.481759 0.876304 0
    outer loop
      vertex 2.14331 -3.37731 0
      vertex 1.70312 -3.61931 6.5
      vertex 2.14331 -3.37731 6.5
    endloop
  endfacet
  facet normal -0.481759 0.876304 0
    outer loop
      vertex 1.70312 -3.61931 6.5
      vertex 2.14331 -3.37731 0
      vertex 1.70312 -3.61931 0
    endloop
  endfacet
  facet normal -0.951061 0.309004 0
    outer loop
      vertex 3.71911 -1.4725 0
      vertex 3.87433 -0.994759 6.5
      vertex 3.87433 -0.994759 0
    endloop
  endfacet
  facet normal -0.951061 0.309004 0
    outer loop
      vertex 3.87433 -0.994759 6.5
      vertex 3.71911 -1.4725 0
      vertex 3.71911 -1.4725 6.5
    endloop
  endfacet
  facet normal 0.684551 0.728965 -0
    outer loop
      vertex -2.5497 -3.08205 0
      vertex -2.91587 -2.73819 6.5
      vertex -2.5497 -3.08205 6.5
    endloop
  endfacet
  facet normal 0.684551 0.728965 0
    outer loop
      vertex -2.91587 -2.73819 6.5
      vertex -2.5497 -3.08205 0
      vertex -2.91587 -2.73819 0
    endloop
  endfacet
  facet normal 0.904824 0.425786 0
    outer loop
      vertex -3.50523 -1.92701 6.5
      vertex -3.71911 -1.4725 0
      vertex -3.71911 -1.4725 6.5
    endloop
  endfacet
  facet normal 0.904824 0.425786 0
    outer loop
      vertex -3.71911 -1.4725 0
      vertex -3.50523 -1.92701 6.5
      vertex -3.50523 -1.92701 0
    endloop
  endfacet
  facet normal -0.982286 -0.187389 0
    outer loop
      vertex 3.96846 0.501332 0
      vertex 3.87433 0.994759 6.5
      vertex 3.87433 0.994759 0
    endloop
  endfacet
  facet normal -0.982286 -0.187389 0
    outer loop
      vertex 3.87433 0.994759 6.5
      vertex 3.96846 0.501332 0
      vertex 3.96846 0.501332 6.5
    endloop
  endfacet
  facet normal -0.951061 -0.309004 0
    outer loop
      vertex 3.87433 0.994759 0
      vertex 3.71911 1.4725 6.5
      vertex 3.71911 1.4725 0
    endloop
  endfacet
  facet normal -0.951061 -0.309004 0
    outer loop
      vertex 3.71911 1.4725 6.5
      vertex 3.87433 0.994759 0
      vertex 3.87433 0.994759 6.5
    endloop
  endfacet
  facet normal -0.684551 -0.728965 0
    outer loop
      vertex 2.5497 3.08205 0
      vertex 2.91587 2.73819 6.5
      vertex 2.5497 3.08205 6.5
    endloop
  endfacet
  facet normal -0.684551 -0.728965 -0
    outer loop
      vertex 2.91587 2.73819 6.5
      vertex 2.5497 3.08205 0
      vertex 2.91587 2.73819 0
    endloop
  endfacet
  facet normal 0 -1 0
    outer loop
      vertex -0.251162 3.99211 0
      vertex 0.251162 3.99211 6.5
      vertex -0.251162 3.99211 6.5
    endloop
  endfacet
  facet normal 0 -1 -0
    outer loop
      vertex 0.251162 3.99211 6.5
      vertex -0.251162 3.99211 0
      vertex 0.251162 3.99211 0
    endloop
  endfacet
  facet normal -0.248683 -0.968585 0
    outer loop
      vertex 0.749525 3.92915 0
      vertex 1.23607 3.80423 6.5
      vertex 0.749525 3.92915 6.5
    endloop
  endfacet
  facet normal -0.248683 -0.968585 -0
    outer loop
      vertex 1.23607 3.80423 6.5
      vertex 0.749525 3.92915 0
      vertex 1.23607 3.80423 0
    endloop
  endfacet
  facet normal -0.481759 -0.876304 0
    outer loop
      vertex 1.70312 3.61931 0
      vertex 2.14331 3.37731 6.5
      vertex 1.70312 3.61931 6.5
    endloop
  endfacet
  facet normal -0.481759 -0.876304 -0
    outer loop
      vertex 2.14331 3.37731 6.5
      vertex 1.70312 3.61931 0
      vertex 2.14331 3.37731 0
    endloop
  endfacet
  facet normal 0.998027 -0.0627883 0
    outer loop
      vertex -4 0 6.5
      vertex -3.96846 0.501332 0
      vertex -3.96846 0.501332 6.5
    endloop
  endfacet
  facet normal 0.998027 -0.0627883 0
    outer loop
      vertex -3.96846 0.501332 0
      vertex -4 0 6.5
      vertex -4 0 0
    endloop
  endfacet
  facet normal 0.951061 -0.309004 0
    outer loop
      vertex -3.87433 0.994759 6.5
      vertex -3.71911 1.4725 0
      vertex -3.71911 1.4725 6.5
    endloop
  endfacet
  facet normal 0.951061 -0.309004 0
    outer loop
      vertex -3.71911 1.4725 0
      vertex -3.87433 0.994759 6.5
      vertex -3.87433 0.994759 0
    endloop
  endfacet
  facet normal 0.844329 -0.535825 0
    outer loop
      vertex -3.50523 1.92701 6.5
      vertex -3.23607 2.35114 0
      vertex -3.23607 2.35114 6.5
    endloop
  endfacet
  facet normal 0.844329 -0.535825 0
    outer loop
      vertex -3.23607 2.35114 0
      vertex -3.50523 1.92701 6.5
      vertex -3.50523 1.92701 0
    endloop
  endfacet
  facet normal 0.125337 -0.992114 0
    outer loop
      vertex -0.749525 3.92915 0
      vertex -0.251162 3.99211 6.5
      vertex -0.749525 3.92915 6.5
    endloop
  endfacet
  facet normal 0.125337 -0.992114 0
    outer loop
      vertex -0.251162 3.99211 6.5
      vertex -0.749525 3.92915 0
      vertex -0.251162 3.99211 0
    endloop
  endfacet
  facet normal 0.587786 -0.809017 0
    outer loop
      vertex -2.5497 3.08205 0
      vertex -2.14331 3.37731 6.5
      vertex -2.5497 3.08205 6.5
    endloop
  endfacet
  facet normal 0.587786 -0.809017 0
    outer loop
      vertex -2.14331 3.37731 6.5
      vertex -2.5497 3.08205 0
      vertex -2.14331 3.37731 0
    endloop
  endfacet
  facet normal 0.684551 -0.728965 0
    outer loop
      vertex -2.91587 2.73819 0
      vertex -2.5497 3.08205 6.5
      vertex -2.91587 2.73819 6.5
    endloop
  endfacet
  facet normal 0.684551 -0.728965 0
    outer loop
      vertex -2.5497 3.08205 6.5
      vertex -2.91587 2.73819 0
      vertex -2.5497 3.08205 0
    endloop
  endfacet
  facet normal -0.998027 0.0627883 0
    outer loop
      vertex 3.96846 -0.501332 0
      vertex 4 0 6.5
      vertex 4 0 0
    endloop
  endfacet
  facet normal -0.998027 0.0627883 0
    outer loop
      vertex 4 0 6.5
      vertex 3.96846 -0.501332 0
      vertex 3.96846 -0.501332 6.5
    endloop
  endfacet
  facet normal 0.770509 0.637429 0
    outer loop
      vertex -2.91587 -2.73819 6.5
      vertex -3.23607 -2.35114 0
      vertex -3.23607 -2.35114 6.5
    endloop
  endfacet
  facet normal 0.770509 0.637429 0
    outer loop
      vertex -3.23607 -2.35114 0
      vertex -2.91587 -2.73819 6.5
      vertex -2.91587 -2.73819 0
    endloop
  endfacet
  facet normal -0.125337 0.992114 0
    outer loop
      vertex 0.749525 -3.92915 0
      vertex 0.251162 -3.99211 6.5
      vertex 0.749525 -3.92915 6.5
    endloop
  endfacet
  facet normal -0.125337 0.992114 0
    outer loop
      vertex 0.251162 -3.99211 6.5
      vertex 0.749525 -3.92915 0
      vertex 0.251162 -3.99211 0
    endloop
  endfacet
  facet normal -0.368128 0.929775 0
    outer loop
      vertex 1.70312 -3.61931 0
      vertex 1.23607 -3.80423 6.5
      vertex 1.70312 -3.61931 6.5
    endloop
  endfacet
  facet normal -0.368128 0.929775 0
    outer loop
      vertex 1.23607 -3.80423 6.5
      vertex 1.70312 -3.61931 0
      vertex 1.23607 -3.80423 0
    endloop
  endfacet
  facet normal -0.770509 -0.637429 0
    outer loop
      vertex 3.23607 2.35114 0
      vertex 2.91587 2.73819 6.5
      vertex 2.91587 2.73819 0
    endloop
  endfacet
  facet normal -0.770509 -0.637429 0
    outer loop
      vertex 2.91587 2.73819 6.5
      vertex 3.23607 2.35114 0
      vertex 3.23607 2.35114 6.5
    endloop
  endfacet
  facet normal -0.770509 0.637429 0
    outer loop
      vertex 2.91587 -2.73819 0
      vertex 3.23607 -2.35114 6.5
      vertex 3.23607 -2.35114 0
    endloop
  endfacet
  facet normal -0.770509 0.637429 0
    outer loop
      vertex 3.23607 -2.35114 6.5
      vertex 2.91587 -2.73819 0
      vertex 2.91587 -2.73819 6.5
    endloop
  endfacet
  facet normal -0.844329 0.535825 0
    outer loop
      vertex 3.23607 -2.35114 0
      vertex 3.50523 -1.92701 6.5
      vertex 3.50523 -1.92701 0
    endloop
  endfacet
  facet normal -0.844329 0.535825 0
    outer loop
      vertex 3.50523 -1.92701 6.5
      vertex 3.23607 -2.35114 0
      vertex 3.23607 -2.35114 6.5
    endloop
  endfacet
  facet normal -0.904824 0.425786 0
    outer loop
      vertex 3.50523 -1.92701 0
      vertex 3.71911 -1.4725 6.5
      vertex 3.71911 -1.4725 0
    endloop
  endfacet
  facet normal -0.904824 0.425786 0
    outer loop
      vertex 3.71911 -1.4725 6.5
      vertex 3.50523 -1.92701 0
      vertex 3.50523 -1.92701 6.5
    endloop
  endfacet
  facet normal 0.248683 0.968585 -0
    outer loop
      vertex -0.749525 -3.92915 0
      vertex -1.23607 -3.80423 6.5
      vertex -0.749525 -3.92915 6.5
    endloop
  endfacet
  facet normal 0.248683 0.968585 0
    outer loop
      vertex -1.23607 -3.80423 6.5
      vertex -0.749525 -3.92915 0
      vertex -1.23607 -3.80423 0
    endloop
  endfacet
  facet normal 0.125337 0.992114 -0
    outer loop
      vertex -0.251162 -3.99211 0
      vertex -0.749525 -3.92915 6.5
      vertex -0.251162 -3.99211 6.5
    endloop
  endfacet
  facet normal 0.125337 0.992114 0
    outer loop
      vertex -0.749525 -3.92915 6.5
      vertex -0.251162 -3.99211 0
      vertex -0.749525 -3.92915 0
    endloop
  endfacet
  facet normal 0.998027 0.0627883 0
    outer loop
      vertex -3.96846 -0.501332 6.5
      vertex -4 0 0
      vertex -4 0 6.5
    endloop
  endfacet
  facet normal 0.998027 0.0627883 0
    outer loop
      vertex -4 0 0
      vertex -3.96846 -0.501332 6.5
      vertex -3.96846 -0.501332 0
    endloop
  endfacet
  facet normal 0.951061 0.309004 0
    outer loop
      vertex -3.71911 -1.4725 6.5
      vertex -3.87433 -0.994759 0
      vertex -3.87433 -0.994759 6.5
    endloop
  endfacet
  facet normal 0.951061 0.309004 0
    outer loop
      vertex -3.87433 -0.994759 0
      vertex -3.71911 -1.4725 6.5
      vertex -3.71911 -1.4725 0
    endloop
  endfacet
  facet normal -0.248683 0.968585 0
    outer loop
      vertex 1.23607 -3.80423 0
      vertex 0.749525 -3.92915 6.5
      vertex 1.23607 -3.80423 6.5
    endloop
  endfacet
  facet normal -0.248683 0.968585 0
    outer loop
      vertex 0.749525 -3.92915 6.5
      vertex 1.23607 -3.80423 0
      vertex 0.749525 -3.92915 0
    endloop
  endfacet
  facet normal -0.684551 0.728965 0
    outer loop
      vertex 2.91587 -2.73819 0
      vertex 2.5497 -3.08205 6.5
      vertex 2.91587 -2.73819 6.5
    endloop
  endfacet
  facet normal -0.684551 0.728965 0
    outer loop
      vertex 2.5497 -3.08205 6.5
      vertex 2.91587 -2.73819 0
      vertex 2.5497 -3.08205 0
    endloop
  endfacet
  facet normal -0.587786 0.809017 0
    outer loop
      vertex 2.5497 -3.08205 0
      vertex 2.14331 -3.37731 6.5
      vertex 2.5497 -3.08205 6.5
    endloop
  endfacet
  facet normal -0.587786 0.809017 0
    outer loop
      vertex 2.14331 -3.37731 6.5
      vertex 2.5497 -3.08205 0
      vertex 2.14331 -3.37731 0
    endloop
  endfacet
  facet normal 0 1 -0
    outer loop
      vertex 0.251162 -3.99211 0
      vertex -0.251162 -3.99211 6.5
      vertex 0.251162 -3.99211 6.5
    endloop
  endfacet
  facet normal 0 1 0
    outer loop
      vertex -0.251162 -3.99211 6.5
      vertex 0.251162 -3.99211 0
      vertex -0.251162 -3.99211 0
    endloop
  endfacet
  facet normal 0.481759 0.876304 -0
    outer loop
      vertex -1.70312 -3.61931 0
      vertex -2.14331 -3.37731 6.5
      vertex -1.70312 -3.61931 6.5
    endloop
  endfacet
  facet normal 0.481759 0.876304 0
    outer loop
      vertex -2.14331 -3.37731 6.5
      vertex -1.70312 -3.61931 0
      vertex -2.14331 -3.37731 0
    endloop
  endfacet
  facet normal 0.982286 0.187389 0
    outer loop
      vertex -3.87433 -0.994759 6.5
      vertex -3.96846 -0.501332 0
      vertex -3.96846 -0.501332 6.5
    endloop
  endfacet
  facet normal 0.982286 0.187389 0
    outer loop
      vertex -3.96846 -0.501332 0
      vertex -3.87433 -0.994759 6.5
      vertex -3.87433 -0.994759 0
    endloop
  endfacet
  facet normal 0.844329 0.535825 0
    outer loop
      vertex -3.23607 -2.35114 6.5
      vertex -3.50523 -1.92701 0
      vertex -3.50523 -1.92701 6.5
    endloop
  endfacet
  facet normal 0.844329 0.535825 0
    outer loop
      vertex -3.50523 -1.92701 0
      vertex -3.23607 -2.35114 6.5
      vertex -3.23607 -2.35114 0
    endloop
  endfacet
  facet normal 0.587786 0.809017 -0
    outer loop
      vertex -2.14331 -3.37731 0
      vertex -2.5497 -3.08205 6.5
      vertex -2.14331 -3.37731 6.5
    endloop
  endfacet
  facet normal 0.587786 0.809017 0
    outer loop
      vertex -2.5497 -3.08205 6.5
      vertex -2.14331 -3.37731 0
      vertex -2.5497 -3.08205 0
    endloop
  endfacet
  facet normal 0.368128 0.929775 -0
    outer loop
      vertex -1.23607 -3.80423 0
      vertex -1.70312 -3.61931 6.5
      vertex -1.23607 -3.80423 6.5
    endloop
  endfacet
  facet normal 0.368128 0.929775 0
    outer loop
      vertex -1.70312 -3.61931 6.5
      vertex -1.23607 -3.80423 0
      vertex -1.70312 -3.61931 0
    endloop
  endfacet
endsolid OpenSCAD_Model
