<?xml version="1.0" standalone="no"?>
<!DOCTYPE svg PUBLIC "-//W3C//DTD SVG 1.1//EN" "http://www.w3.org/Graphics/SVG/1.1/DTD/svg11.dtd">
<svg width="90mm" height="867mm" viewBox="-45 -1419 90 867" xmlns="http://www.w3.org/2000/svg" version="1.1">
<title>OpenSCAD Model</title>
<path d="
M 40.9369,-1209.09 L 41.5451,-1209.24 L 42.1289,-1209.48 L 42.6791,-1209.78 L 43.1871,-1210.15 L 43.6448,-1210.58
 L 44.0451,-1211.06 L 44.3815,-1211.59 L 44.6489,-1212.16 L 44.8429,-1212.76 L 44.9606,-1213.37 L 45,-1214
 L 45,-1414 L 44.9606,-1414.63 L 44.8429,-1415.24 L 44.6489,-1415.84 L 44.3815,-1416.41 L 44.0451,-1416.94
 L 43.6448,-1417.42 L 43.1871,-1417.85 L 42.6791,-1418.22 L 42.1289,-1418.52 L 41.5451,-1418.76 L 40.9369,-1418.91
 L 40.3139,-1418.99 L -40.3139,-1418.99 L -40.9369,-1418.91 L -41.5451,-1418.76 L -42.1289,-1418.52 L -42.6791,-1418.22
 L -43.1871,-1417.85 L -43.6448,-1417.42 L -44.0451,-1416.94 L -44.3815,-1416.41 L -44.6489,-1415.84 L -44.8429,-1415.24
 L -44.9606,-1414.63 L -45,-1414 L -45,-1214 L -44.9606,-1213.37 L -44.8429,-1212.76 L -44.6489,-1212.16
 L -44.3815,-1211.59 L -44.0451,-1211.06 L -43.6448,-1210.58 L -43.1871,-1210.15 L -42.6791,-1209.78 L -42.1289,-1209.48
 L -41.5451,-1209.24 L -40.9369,-1209.09 L -40.3139,-1209.01 L 40.3139,-1209.01 z
M -39.7512,-1210.51 L -40.2495,-1210.57 L -40.7361,-1210.7 L -41.2031,-1210.88 L -41.6433,-1211.12 L -42.0497,-1211.42
 L -42.4159,-1211.76 L -42.7361,-1212.15 L -43.0052,-1212.57 L -43.2191,-1213.03 L -43.3743,-1213.51 L -43.4685,-1214
 L -43.5,-1214.5 L -43.5,-1413.5 L -43.4685,-1414 L -43.3743,-1414.49 L -43.2191,-1414.97 L -43.0052,-1415.43
 L -42.7361,-1415.85 L -42.4159,-1416.24 L -42.0497,-1416.58 L -41.6433,-1416.88 L -41.2031,-1417.12 L -40.7361,-1417.3
 L -40.2495,-1417.43 L -39.7512,-1417.49 L 39.7512,-1417.49 L 40.2495,-1417.43 L 40.7361,-1417.3 L 41.2031,-1417.12
 L 41.6433,-1416.88 L 42.0497,-1416.58 L 42.4159,-1416.24 L 42.7361,-1415.85 L 43.0052,-1415.43 L 43.2191,-1414.97
 L 43.3743,-1414.49 L 43.4685,-1414 L 43.5,-1413.5 L 43.5,-1214.5 L 43.4685,-1214 L 43.3743,-1213.51
 L 43.2191,-1213.03 L 43.0052,-1212.57 L 42.7361,-1212.15 L 42.4159,-1211.76 L 42.0497,-1211.42 L 41.6433,-1211.12
 L 41.2031,-1210.88 L 40.7361,-1210.7 L 40.2495,-1210.57 L 39.7512,-1210.51 z
M 40.9369,-990.089 L 41.5451,-990.245 L 42.1289,-990.476 L 42.6791,-990.778 L 43.1871,-991.147 L 43.6448,-991.577
 L 44.0451,-992.061 L 44.3815,-992.591 L 44.6489,-993.159 L 44.8429,-993.757 L 44.9606,-994.373 L 45,-995
 L 45,-1195 L 44.9606,-1195.63 L 44.8429,-1196.24 L 44.6489,-1196.84 L 44.3815,-1197.41 L 44.0451,-1197.94
 L 43.6448,-1198.42 L 43.1871,-1198.85 L 42.6791,-1199.22 L 42.1289,-1199.52 L 41.5451,-1199.76 L 40.9369,-1199.91
 L 40.3139,-1199.99 L -40.3139,-1199.99 L -40.9369,-1199.91 L -41.5451,-1199.76 L -42.1289,-1199.52 L -42.6791,-1199.22
 L -43.1871,-1198.85 L -43.6448,-1198.42 L -44.0451,-1197.94 L -44.3815,-1197.41 L -44.6489,-1196.84 L -44.8429,-1196.24
 L -44.9606,-1195.63 L -45,-1195 L -45,-995 L -44.9606,-994.373 L -44.8429,-993.757 L -44.6489,-993.159
 L -44.3815,-992.591 L -44.0451,-992.061 L -43.6448,-991.577 L -43.1871,-991.147 L -42.6791,-990.778 L -42.1289,-990.476
 L -41.5451,-990.245 L -40.9369,-990.089 L -40.3139,-990.01 L 40.3139,-990.01 z
M -39.7432,-991.635 L -40.2256,-991.696 L -40.6967,-991.817 L -41.1489,-991.996 L -41.5751,-992.23 L -41.9685,-992.516
 L -42.323,-992.849 L -42.633,-993.224 L -42.8936,-993.634 L -43.1007,-994.074 L -43.251,-994.537 L -43.3421,-995.015
 L -43.3726,-995.5 L -43.3726,-1194.5 L -43.3421,-1194.99 L -43.251,-1195.46 L -43.1007,-1195.93 L -42.8936,-1196.37
 L -42.633,-1196.78 L -42.323,-1197.15 L -41.9685,-1197.48 L -41.5751,-1197.77 L -41.1489,-1198 L -40.6967,-1198.18
 L -40.2256,-1198.3 L -39.7432,-1198.36 L 39.7432,-1198.36 L 40.2256,-1198.3 L 40.6967,-1198.18 L 41.1489,-1198
 L 41.5751,-1197.77 L 41.9685,-1197.48 L 42.323,-1197.15 L 42.633,-1196.78 L 42.8936,-1196.37 L 43.1007,-1195.93
 L 43.251,-1195.46 L 43.3421,-1194.99 L 43.3726,-1194.5 L 43.3726,-995.5 L 43.3421,-995.015 L 43.251,-994.537
 L 43.1007,-994.074 L 42.8936,-993.634 L 42.633,-993.224 L 42.323,-992.849 L 41.9685,-992.516 L 41.5751,-992.23
 L 41.1489,-991.996 L 40.6967,-991.817 L 40.2256,-991.696 L 39.7432,-991.635 z
M 40.9369,-771.089 L 41.5451,-771.245 L 42.1289,-771.476 L 42.6791,-771.778 L 43.1871,-772.147 L 43.6448,-772.577
 L 44.0451,-773.061 L 44.3815,-773.591 L 44.6489,-774.159 L 44.8429,-774.757 L 44.9606,-775.373 L 45,-776
 L 45,-976 L 44.9606,-976.627 L 44.8429,-977.243 L 44.6489,-977.841 L 44.3815,-978.409 L 44.0451,-978.939
 L 43.6448,-979.423 L 43.1871,-979.853 L 42.6791,-980.222 L 42.1289,-980.524 L 41.5451,-980.755 L 40.9369,-980.911
 L 40.3139,-980.99 L -40.3139,-980.99 L -40.9369,-980.911 L -41.5451,-980.755 L -42.1289,-980.524 L -42.6791,-980.222
 L -43.1871,-979.853 L -43.6448,-979.423 L -44.0451,-978.939 L -44.3815,-978.409 L -44.6489,-977.841 L -44.8429,-977.243
 L -44.9606,-976.627 L -45,-976 L -45,-776 L -44.9606,-775.373 L -44.8429,-774.757 L -44.6489,-774.159
 L -44.3815,-773.591 L -44.0451,-773.061 L -43.6448,-772.577 L -43.1871,-772.147 L -42.6791,-771.778 L -42.1289,-771.476
 L -41.5451,-771.245 L -40.9369,-771.089 L -40.3139,-771.01 L 40.3139,-771.01 z
M 37.3493,-971.105 L 37.0503,-971.143 L 36.7584,-971.217 L 36.4781,-971.328 L 36.214,-971.474 L 35.9702,-971.651
 L 35.7505,-971.857 L 35.5583,-972.089 L 35.3969,-972.344 L 35.2685,-972.617 L 35.1754,-972.903 L 35.1189,-973.199
 L 35.1,-973.5 L 35.1189,-973.801 L 35.1754,-974.097 L 35.2685,-974.383 L 35.3969,-974.656 L 35.5583,-974.911
 L 35.7505,-975.143 L 35.9702,-975.349 L 36.214,-975.526 L 36.4781,-975.672 L 36.7584,-975.783 L 37.0503,-975.857
 L 37.3493,-975.895 L 37.6507,-975.895 L 37.9497,-975.857 L 38.2416,-975.783 L 38.5219,-975.672 L 38.786,-975.526
 L 39.0298,-975.349 L 39.2495,-975.143 L 39.4416,-974.911 L 39.6031,-974.656 L 39.7315,-974.383 L 39.8246,-974.097
 L 39.8811,-973.801 L 39.9,-973.5 L 39.8811,-973.199 L 39.8246,-972.903 L 39.7315,-972.617 L 39.6031,-972.344
 L 39.4416,-972.089 L 39.2495,-971.857 L 39.0298,-971.651 L 38.786,-971.474 L 38.5219,-971.328 L 38.2416,-971.217
 L 37.9497,-971.143 L 37.6507,-971.105 z
M -37.6507,-971.105 L -37.9497,-971.143 L -38.2416,-971.217 L -38.5219,-971.328 L -38.786,-971.474 L -39.0298,-971.651
 L -39.2495,-971.857 L -39.4416,-972.089 L -39.6031,-972.344 L -39.7315,-972.617 L -39.8246,-972.903 L -39.8811,-973.199
 L -39.9,-973.5 L -39.8811,-973.801 L -39.8246,-974.097 L -39.7315,-974.383 L -39.6031,-974.656 L -39.4416,-974.911
 L -39.2495,-975.143 L -39.0298,-975.349 L -38.786,-975.526 L -38.5219,-975.672 L -38.2416,-975.783 L -37.9497,-975.857
 L -37.6507,-975.895 L -37.3493,-975.895 L -37.0503,-975.857 L -36.7584,-975.783 L -36.4781,-975.672 L -36.214,-975.526
 L -35.9702,-975.349 L -35.7505,-975.143 L -35.5583,-974.911 L -35.3969,-974.656 L -35.2685,-974.383 L -35.1754,-974.097
 L -35.1189,-973.801 L -35.1,-973.5 L -35.1189,-973.199 L -35.1754,-972.903 L -35.2685,-972.617 L -35.3969,-972.344
 L -35.5583,-972.089 L -35.7505,-971.857 L -35.9702,-971.651 L -36.214,-971.474 L -36.4781,-971.328 L -36.7584,-971.217
 L -37.0503,-971.143 L -37.3493,-971.105 z
M 37.3493,-776.105 L 37.0503,-776.143 L 36.7584,-776.217 L 36.4781,-776.328 L 36.214,-776.474 L 35.9702,-776.651
 L 35.7505,-776.857 L 35.5583,-777.089 L 35.3969,-777.344 L 35.2685,-777.617 L 35.1754,-777.903 L 35.1189,-778.199
 L 35.1,-778.5 L 35.1189,-778.801 L 35.1754,-779.097 L 35.2685,-779.383 L 35.3969,-779.656 L 35.5583,-779.911
 L 35.7505,-780.143 L 35.9702,-780.349 L 36.214,-780.526 L 36.4781,-780.672 L 36.7584,-780.783 L 37.0503,-780.857
 L 37.3493,-780.895 L 37.6507,-780.895 L 37.9497,-780.857 L 38.2416,-780.783 L 38.5219,-780.672 L 38.786,-780.526
 L 39.0298,-780.349 L 39.2495,-780.143 L 39.4416,-779.911 L 39.6031,-779.656 L 39.7315,-779.383 L 39.8246,-779.097
 L 39.8811,-778.801 L 39.9,-778.5 L 39.8811,-778.199 L 39.8246,-777.903 L 39.7315,-777.617 L 39.6031,-777.344
 L 39.4416,-777.089 L 39.2495,-776.857 L 39.0298,-776.651 L 38.786,-776.474 L 38.5219,-776.328 L 38.2416,-776.217
 L 37.9497,-776.143 L 37.6507,-776.105 z
M -37.6507,-776.105 L -37.9497,-776.143 L -38.2416,-776.217 L -38.5219,-776.328 L -38.786,-776.474 L -39.0298,-776.651
 L -39.2495,-776.857 L -39.4416,-777.089 L -39.6031,-777.344 L -39.7315,-777.617 L -39.8246,-777.903 L -39.8811,-778.199
 L -39.9,-778.5 L -39.8811,-778.801 L -39.8246,-779.097 L -39.7315,-779.383 L -39.6031,-779.656 L -39.4416,-779.911
 L -39.2495,-780.143 L -39.0298,-780.349 L -38.786,-780.526 L -38.5219,-780.672 L -38.2416,-780.783 L -37.9497,-780.857
 L -37.6507,-780.895 L -37.3493,-780.895 L -37.0503,-780.857 L -36.7584,-780.783 L -36.4781,-780.672 L -36.214,-780.526
 L -35.9702,-780.349 L -35.7505,-780.143 L -35.5583,-779.911 L -35.3969,-779.656 L -35.2685,-779.383 L -35.1754,-779.097
 L -35.1189,-778.801 L -35.1,-778.5 L -35.1189,-778.199 L -35.1754,-777.903 L -35.2685,-777.617 L -35.3969,-777.344
 L -35.5583,-777.089 L -35.7505,-776.857 L -35.9702,-776.651 L -36.214,-776.474 L -36.4781,-776.328 L -36.7584,-776.217
 L -37.0503,-776.143 L -37.3493,-776.105 z
M 40.9369,-552.089 L 41.5451,-552.245 L 42.1289,-552.476 L 42.6791,-552.778 L 43.1871,-553.147 L 43.6448,-553.577
 L 44.0451,-554.061 L 44.3815,-554.591 L 44.6489,-555.159 L 44.8429,-555.757 L 44.9606,-556.373 L 45,-557
 L 45,-757 L 44.9606,-757.627 L 44.8429,-758.243 L 44.6489,-758.841 L 44.3815,-759.409 L 44.0451,-759.939
 L 43.6448,-760.423 L 43.1871,-760.853 L 42.6791,-761.222 L 42.1289,-761.524 L 41.5451,-761.755 L 40.9369,-761.911
 L 40.3139,-761.99 L -40.3139,-761.99 L -40.9369,-761.911 L -41.5451,-761.755 L -42.1289,-761.524 L -42.6791,-761.222
 L -43.1871,-760.853 L -43.6448,-760.423 L -44.0451,-759.939 L -44.3815,-759.409 L -44.6489,-758.841 L -44.8429,-758.243
 L -44.9606,-757.627 L -45,-757 L -45,-557 L -44.9606,-556.373 L -44.8429,-555.757 L -44.6489,-555.159
 L -44.3815,-554.591 L -44.0451,-554.061 L -43.6448,-553.577 L -43.1871,-553.147 L -42.6791,-552.778 L -42.1289,-552.476
 L -41.5451,-552.245 L -40.9369,-552.089 L -40.3139,-552.01 L 40.3139,-552.01 z
M -37.613,-752.704 L -37.8373,-752.732 L -38.0562,-752.788 L -38.2664,-752.871 L -38.4645,-752.98 L -38.6474,-753.113
 L -38.8121,-753.268 L -38.9562,-753.442 L -39.0773,-753.633 L -39.1736,-753.837 L -39.2434,-754.052 L -39.2858,-754.274
 L -39.3,-754.5 L -39.2858,-754.726 L -39.2434,-754.948 L -39.1736,-755.163 L -39.0773,-755.367 L -38.9562,-755.558
 L -38.8121,-755.732 L -38.6474,-755.887 L -38.4645,-756.02 L -38.2664,-756.129 L -38.0562,-756.212 L -37.8373,-756.268
 L -37.613,-756.296 L -37.387,-756.296 L -37.1627,-756.268 L -36.9438,-756.212 L -36.7336,-756.129 L -36.5355,-756.02
 L -36.3526,-755.887 L -36.1879,-755.732 L -36.0438,-755.558 L -35.9226,-755.367 L -35.8264,-755.163 L -35.7565,-754.948
 L -35.7142,-754.726 L -35.7,-754.5 L -35.7142,-754.274 L -35.7565,-754.052 L -35.8264,-753.837 L -35.9226,-753.633
 L -36.0438,-753.442 L -36.1879,-753.268 L -36.3526,-753.113 L -36.5355,-752.98 L -36.7336,-752.871 L -36.9438,-752.788
 L -37.1627,-752.732 L -37.387,-752.704 z
M 37.387,-752.704 L 37.1627,-752.732 L 36.9438,-752.788 L 36.7336,-752.871 L 36.5355,-752.98 L 36.3526,-753.113
 L 36.1879,-753.268 L 36.0438,-753.442 L 35.9226,-753.633 L 35.8264,-753.837 L 35.7565,-754.052 L 35.7142,-754.274
 L 35.7,-754.5 L 35.7142,-754.726 L 35.7565,-754.948 L 35.8264,-755.163 L 35.9226,-755.367 L 36.0438,-755.558
 L 36.1879,-755.732 L 36.3526,-755.887 L 36.5355,-756.02 L 36.7336,-756.129 L 36.9438,-756.212 L 37.1627,-756.268
 L 37.387,-756.296 L 37.613,-756.296 L 37.8373,-756.268 L 38.0562,-756.212 L 38.2664,-756.129 L 38.4645,-756.02
 L 38.6474,-755.887 L 38.8121,-755.732 L 38.9562,-755.558 L 39.0773,-755.367 L 39.1736,-755.163 L 39.2434,-754.948
 L 39.2858,-754.726 L 39.3,-754.5 L 39.2858,-754.274 L 39.2434,-754.052 L 39.1736,-753.837 L 39.0773,-753.633
 L 38.9562,-753.442 L 38.8121,-753.268 L 38.6474,-753.113 L 38.4645,-752.98 L 38.2664,-752.871 L 38.0562,-752.788
 L 37.8373,-752.732 L 37.613,-752.704 z
M -37.613,-557.704 L -37.8373,-557.732 L -38.0562,-557.788 L -38.2664,-557.871 L -38.4645,-557.98 L -38.6474,-558.113
 L -38.8121,-558.268 L -38.9562,-558.442 L -39.0773,-558.633 L -39.1736,-558.837 L -39.2434,-559.052 L -39.2858,-559.274
 L -39.3,-559.5 L -39.2858,-559.726 L -39.2434,-559.948 L -39.1736,-560.163 L -39.0773,-560.367 L -38.9562,-560.558
 L -38.8121,-560.732 L -38.6474,-560.887 L -38.4645,-561.02 L -38.2664,-561.129 L -38.0562,-561.212 L -37.8373,-561.268
 L -37.613,-561.296 L -37.387,-561.296 L -37.1627,-561.268 L -36.9438,-561.212 L -36.7336,-561.129 L -36.5355,-561.02
 L -36.3526,-560.887 L -36.1879,-560.732 L -36.0438,-560.558 L -35.9226,-560.367 L -35.8264,-560.163 L -35.7565,-559.948
 L -35.7142,-559.726 L -35.7,-559.5 L -35.7142,-559.274 L -35.7565,-559.052 L -35.8264,-558.837 L -35.9226,-558.633
 L -36.0438,-558.442 L -36.1879,-558.268 L -36.3526,-558.113 L -36.5355,-557.98 L -36.7336,-557.871 L -36.9438,-557.788
 L -37.1627,-557.732 L -37.387,-557.704 z
M 37.387,-557.704 L 37.1627,-557.732 L 36.9438,-557.788 L 36.7336,-557.871 L 36.5355,-557.98 L 36.3526,-558.113
 L 36.1879,-558.268 L 36.0438,-558.442 L 35.9226,-558.633 L 35.8264,-558.837 L 35.7565,-559.052 L 35.7142,-559.274
 L 35.7,-559.5 L 35.7142,-559.726 L 35.7565,-559.948 L 35.8264,-560.163 L 35.9226,-560.367 L 36.0438,-560.558
 L 36.1879,-560.732 L 36.3526,-560.887 L 36.5355,-561.02 L 36.7336,-561.129 L 36.9438,-561.212 L 37.1627,-561.268
 L 37.387,-561.296 L 37.613,-561.296 L 37.8373,-561.268 L 38.0562,-561.212 L 38.2664,-561.129 L 38.4645,-561.02
 L 38.6474,-560.887 L 38.8121,-560.732 L 38.9562,-560.558 L 39.0773,-560.367 L 39.1736,-560.163 L 39.2434,-559.948
 L 39.2858,-559.726 L 39.3,-559.5 L 39.2858,-559.274 L 39.2434,-559.052 L 39.1736,-558.837 L 39.0773,-558.633
 L 38.9562,-558.442 L 38.8121,-558.268 L 38.6474,-558.113 L 38.4645,-557.98 L 38.2664,-557.871 L 38.0562,-557.788
 L 37.8373,-557.732 L 37.613,-557.704 z
" stroke="black" fill="lightgray" stroke-width="0.5"/>
</svg>
