<?xml version="1.0" standalone="no"?>
<!DOCTYPE svg PUBLIC "-//W3C//DTD SVG 1.1//EN" "http://www.w3.org/Graphics/SVG/1.1/DTD/svg11.dtd">
<svg width="166mm" height="118mm" viewBox="-83 -201 166 118" xmlns="http://www.w3.org/2000/svg" version="1.1">
<title>OpenSCAD Model</title>
<path d="
M 78.4369,-177.839 L 79.0451,-177.995 L 79.6289,-178.226 L 80.1791,-178.528 L 80.6871,-178.897 L 81.1448,-179.327
 L 81.5451,-179.811 L 81.8815,-180.341 L 82.1489,-180.909 L 82.3429,-181.507 L 82.4606,-182.123 L 82.5,-182.75
 L 82.5,-195.25 L 82.4606,-195.877 L 82.3429,-196.493 L 82.1489,-197.091 L 81.8815,-197.659 L 81.5451,-198.189
 L 81.1448,-198.673 L 80.6871,-199.103 L 80.1791,-199.472 L 79.6289,-199.774 L 79.0451,-200.005 L 78.4369,-200.161
 L 77.8139,-200.24 L -77.8139,-200.24 L -78.4369,-200.161 L -79.0451,-200.005 L -79.5,-199.825 L -79.5,-199.865
 L -82.5,-199.865 L -82.5,-178.135 L -79.5,-178.135 L -79.5,-178.175 L -79.0451,-177.995 L -78.4369,-177.839
 L -77.8139,-177.76 L 77.8139,-177.76 z
M -77.2512,-179.258 L -77.7495,-179.321 L -78.2361,-179.446 L -78.7031,-179.631 L -79.1433,-179.873 L -79.5497,-180.168
 L -79.9159,-180.512 L -80.2361,-180.899 L -80.5052,-181.323 L -80.7191,-181.778 L -80.8743,-182.255 L -80.9685,-182.749
 L -81,-183.25 L -81,-194.75 L -80.9685,-195.251 L -80.8743,-195.745 L -80.7191,-196.222 L -80.5052,-196.677
 L -80.2361,-197.101 L -79.9159,-197.488 L -79.5497,-197.832 L -79.1433,-198.127 L -78.7031,-198.369 L -78.2361,-198.554
 L -77.7495,-198.679 L -77.2512,-198.742 L 77.2512,-198.742 L 77.7495,-198.679 L 78.2361,-198.554 L 78.7031,-198.369
 L 79.1433,-198.127 L 79.5497,-197.832 L 79.9159,-197.488 L 80.2361,-197.101 L 80.5052,-196.677 L 80.7191,-196.222
 L 80.8743,-195.745 L 80.9685,-195.251 L 81,-194.75 L 81,-183.25 L 80.9685,-182.749 L 80.8743,-182.255
 L 80.7191,-181.778 L 80.5052,-181.323 L 80.2361,-180.899 L 79.9159,-180.512 L 79.5497,-180.168 L 79.1433,-179.873
 L 78.7031,-179.631 L 78.2361,-179.446 L 77.7495,-179.321 L 77.2512,-179.258 z
M 78.4369,-146.339 L 79.0451,-146.495 L 79.6289,-146.726 L 80.1791,-147.028 L 80.6871,-147.397 L 81.1448,-147.827
 L 81.5451,-148.311 L 81.8815,-148.841 L 82.1489,-149.409 L 82.3429,-150.007 L 82.4606,-150.623 L 82.5,-151.25
 L 82.5,-163.75 L 82.4606,-164.377 L 82.3429,-164.993 L 82.1489,-165.591 L 81.8815,-166.159 L 81.5451,-166.689
 L 81.1448,-167.173 L 80.6871,-167.603 L 80.1791,-167.972 L 79.6289,-168.274 L 79.0451,-168.505 L 78.4369,-168.661
 L 77.8139,-168.74 L -77.8139,-168.74 L -78.4369,-168.661 L -79.0451,-168.505 L -79.6289,-168.274 L -80.1791,-167.972
 L -80.6871,-167.603 L -81.1448,-167.173 L -81.5451,-166.689 L -81.8815,-166.159 L -82.1489,-165.591 L -82.3429,-164.993
 L -82.4,-164.694 L -82.5,-164.694 L -82.5,-150.306 L -82.4,-150.306 L -82.3429,-150.007 L -82.1489,-149.409
 L -81.8815,-148.841 L -81.5451,-148.311 L -81.1448,-147.827 L -80.6871,-147.397 L -80.1791,-147.028 L -79.6289,-146.726
 L -79.0451,-146.495 L -78.4369,-146.339 L -77.8139,-146.26 L 77.8139,-146.26 z
M -77.2432,-147.885 L -77.7256,-147.946 L -78.1967,-148.067 L -78.6489,-148.246 L -79.0751,-148.48 L -79.4685,-148.766
 L -79.823,-149.099 L -80.133,-149.474 L -80.3936,-149.884 L -80.6007,-150.324 L -80.751,-150.787 L -80.8421,-151.265
 L -80.8726,-151.75 L -80.8726,-163.25 L -80.8421,-163.735 L -80.751,-164.213 L -80.6007,-164.676 L -80.3936,-165.116
 L -80.133,-165.526 L -79.823,-165.901 L -79.4685,-166.234 L -79.0751,-166.52 L -78.6489,-166.754 L -78.1967,-166.933
 L -77.7256,-167.054 L -77.2432,-167.115 L 77.2432,-167.115 L 77.7256,-167.054 L 78.1967,-166.933 L 78.6489,-166.754
 L 79.0751,-166.52 L 79.4685,-166.234 L 79.823,-165.901 L 80.133,-165.526 L 80.3936,-165.116 L 80.6007,-164.676
 L 80.751,-164.213 L 80.8421,-163.735 L 80.8726,-163.25 L 80.8726,-151.75 L 80.8421,-151.265 L 80.751,-150.787
 L 80.6007,-150.324 L 80.3936,-149.884 L 80.133,-149.474 L 79.823,-149.099 L 79.4685,-148.766 L 79.0751,-148.48
 L 78.6489,-148.246 L 78.1967,-148.067 L 77.7256,-147.946 L 77.2432,-147.885 z
M 78.4369,-114.839 L 79.0451,-114.995 L 79.6289,-115.226 L 80.1791,-115.528 L 80.6871,-115.897 L 81.1448,-116.327
 L 81.5451,-116.811 L 81.8815,-117.341 L 82.1489,-117.909 L 82.3429,-118.507 L 82.4606,-119.123 L 82.5,-119.75
 L 82.5,-132.25 L 82.4606,-132.877 L 82.3429,-133.493 L 82.1489,-134.091 L 81.8815,-134.659 L 81.5451,-135.189
 L 81.1448,-135.673 L 80.6871,-136.103 L 80.1791,-136.472 L 79.6289,-136.774 L 79.0451,-137.005 L 78.4369,-137.161
 L 77.8139,-137.24 L -77.8139,-137.24 L -78.4369,-137.161 L -79.0451,-137.005 L -79.6289,-136.774 L -80.1791,-136.472
 L -80.6871,-136.103 L -81.1448,-135.673 L -81.5451,-135.189 L -81.8815,-134.659 L -82.1489,-134.091 L -82.3429,-133.493
 L -82.4606,-132.877 L -82.5,-132.25 L -82.5,-119.75 L -82.4606,-119.123 L -82.3429,-118.507 L -82.1489,-117.909
 L -81.8815,-117.341 L -81.5451,-116.811 L -81.1448,-116.327 L -80.6871,-115.897 L -80.1791,-115.528 L -79.6289,-115.226
 L -79.0451,-114.995 L -78.4369,-114.839 L -77.8139,-114.76 L 77.8139,-114.76 z
M 74.8493,-127.355 L 74.5503,-127.393 L 74.2584,-127.467 L 73.9781,-127.578 L 73.714,-127.724 L 73.4702,-127.901
 L 73.2505,-128.107 L 73.0583,-128.339 L 72.8969,-128.594 L 72.7685,-128.867 L 72.6754,-129.153 L 72.6189,-129.449
 L 72.6,-129.75 L 72.6189,-130.051 L 72.6754,-130.347 L 72.7685,-130.633 L 72.8969,-130.906 L 73.0583,-131.161
 L 73.2505,-131.393 L 73.4702,-131.599 L 73.714,-131.776 L 73.9781,-131.922 L 74.2584,-132.033 L 74.5503,-132.107
 L 74.8493,-132.145 L 75.1507,-132.145 L 75.4497,-132.107 L 75.7416,-132.033 L 76.0219,-131.922 L 76.286,-131.776
 L 76.5298,-131.599 L 76.7495,-131.393 L 76.9416,-131.161 L 77.1031,-130.906 L 77.2315,-130.633 L 77.3246,-130.347
 L 77.3811,-130.051 L 77.4,-129.75 L 77.3811,-129.449 L 77.3246,-129.153 L 77.2315,-128.867 L 77.1031,-128.594
 L 76.9416,-128.339 L 76.7495,-128.107 L 76.5298,-127.901 L 76.286,-127.724 L 76.0219,-127.578 L 75.7416,-127.467
 L 75.4497,-127.393 L 75.1507,-127.355 z
M -75.1507,-127.355 L -75.4497,-127.393 L -75.7416,-127.467 L -76.0219,-127.578 L -76.286,-127.724 L -76.5298,-127.901
 L -76.7495,-128.107 L -76.9416,-128.339 L -77.1031,-128.594 L -77.2315,-128.867 L -77.3246,-129.153 L -77.3811,-129.449
 L -77.4,-129.75 L -77.3811,-130.051 L -77.3246,-130.347 L -77.2315,-130.633 L -77.1031,-130.906 L -76.9416,-131.161
 L -76.7495,-131.393 L -76.5298,-131.599 L -76.286,-131.776 L -76.0219,-131.922 L -75.7416,-132.033 L -75.4497,-132.107
 L -75.1507,-132.145 L -74.8493,-132.145 L -74.5503,-132.107 L -74.2584,-132.033 L -73.9781,-131.922 L -73.714,-131.776
 L -73.4702,-131.599 L -73.2505,-131.393 L -73.0583,-131.161 L -72.8969,-130.906 L -72.7685,-130.633 L -72.6754,-130.347
 L -72.6189,-130.051 L -72.6,-129.75 L -72.6189,-129.449 L -72.6754,-129.153 L -72.7685,-128.867 L -72.8969,-128.594
 L -73.0583,-128.339 L -73.2505,-128.107 L -73.4702,-127.901 L -73.714,-127.724 L -73.9781,-127.578 L -74.2584,-127.467
 L -74.5503,-127.393 L -74.8493,-127.355 z
M 74.8493,-119.855 L 74.5503,-119.893 L 74.2584,-119.967 L 73.9781,-120.078 L 73.714,-120.224 L 73.4702,-120.401
 L 73.2505,-120.607 L 73.0583,-120.839 L 72.8969,-121.094 L 72.7685,-121.367 L 72.6754,-121.653 L 72.6189,-121.949
 L 72.6,-122.25 L 72.6189,-122.551 L 72.6754,-122.847 L 72.7685,-123.133 L 72.8969,-123.406 L 73.0583,-123.661
 L 73.2505,-123.893 L 73.4702,-124.099 L 73.714,-124.276 L 73.9781,-124.422 L 74.2584,-124.533 L 74.5503,-124.607
 L 74.8493,-124.645 L 75.1507,-124.645 L 75.4497,-124.607 L 75.7416,-124.533 L 76.0219,-124.422 L 76.286,-124.276
 L 76.5298,-124.099 L 76.7495,-123.893 L 76.9416,-123.661 L 77.1031,-123.406 L 77.2315,-123.133 L 77.3246,-122.847
 L 77.3811,-122.551 L 77.4,-122.25 L 77.3811,-121.949 L 77.3246,-121.653 L 77.2315,-121.367 L 77.1031,-121.094
 L 76.9416,-120.839 L 76.7495,-120.607 L 76.5298,-120.401 L 76.286,-120.224 L 76.0219,-120.078 L 75.7416,-119.967
 L 75.4497,-119.893 L 75.1507,-119.855 z
M -75.1507,-119.855 L -75.4497,-119.893 L -75.7416,-119.967 L -76.0219,-120.078 L -76.286,-120.224 L -76.5298,-120.401
 L -76.7495,-120.607 L -76.9416,-120.839 L -77.1031,-121.094 L -77.2315,-121.367 L -77.3246,-121.653 L -77.3811,-121.949
 L -77.4,-122.25 L -77.3811,-122.551 L -77.3246,-122.847 L -77.2315,-123.133 L -77.1031,-123.406 L -76.9416,-123.661
 L -76.7495,-123.893 L -76.5298,-124.099 L -76.286,-124.276 L -76.0219,-124.422 L -75.7416,-124.533 L -75.4497,-124.607
 L -75.1507,-124.645 L -74.8493,-124.645 L -74.5503,-124.607 L -74.2584,-124.533 L -73.9781,-124.422 L -73.714,-124.276
 L -73.4702,-124.099 L -73.2505,-123.893 L -73.0583,-123.661 L -72.8969,-123.406 L -72.7685,-123.133 L -72.6754,-122.847
 L -72.6189,-122.551 L -72.6,-122.25 L -72.6189,-121.949 L -72.6754,-121.653 L -72.7685,-121.367 L -72.8969,-121.094
 L -73.0583,-120.839 L -73.2505,-120.607 L -73.4702,-120.401 L -73.714,-120.224 L -73.9781,-120.078 L -74.2584,-119.967
 L -74.5503,-119.893 L -74.8493,-119.855 z
M 78.4369,-83.3386 L 79.0451,-83.4947 L 79.6289,-83.7259 L 80.1791,-84.0284 L 80.6871,-84.3974 L 81.1448,-84.8273
 L 81.5451,-85.3111 L 81.8815,-85.8412 L 82.1489,-86.4094 L 82.3429,-87.0066 L 82.4606,-87.6233 L 82.5,-88.25
 L 82.5,-100.75 L 82.4606,-101.377 L 82.3429,-101.993 L 82.1489,-102.591 L 81.8815,-103.159 L 81.5451,-103.689
 L 81.1448,-104.173 L 80.6871,-104.603 L 80.1791,-104.972 L 79.6289,-105.274 L 79.0451,-105.505 L 78.4369,-105.661
 L 77.8139,-105.74 L -77.8139,-105.74 L -78.4369,-105.661 L -79.0451,-105.505 L -79.6289,-105.274 L -80.1791,-104.972
 L -80.6871,-104.603 L -81.1448,-104.173 L -81.5451,-103.689 L -81.8815,-103.159 L -82.1489,-102.591 L -82.3429,-101.993
 L -82.4606,-101.377 L -82.5,-100.75 L -82.5,-88.25 L -82.4606,-87.6233 L -82.3429,-87.0066 L -82.1489,-86.4094
 L -81.8815,-85.8412 L -81.5451,-85.3111 L -81.1448,-84.8273 L -80.6871,-84.3974 L -80.1791,-84.0284 L -79.6289,-83.7259
 L -79.0451,-83.4947 L -78.4369,-83.3386 L -77.8139,-83.2599 L 77.8139,-83.2599 z
M -75.113,-96.4536 L -75.3373,-96.4819 L -75.5562,-96.5381 L -75.7664,-96.6213 L -75.9645,-96.7302 L -76.1474,-96.8631
 L -76.3121,-97.0178 L -76.4562,-97.192 L -76.5773,-97.3828 L -76.6736,-97.5874 L -76.7434,-97.8024 L -76.7858,-98.0244
 L -76.8,-98.25 L -76.7858,-98.4756 L -76.7434,-98.6976 L -76.6736,-98.9126 L -76.5773,-99.1171 L -76.4562,-99.308
 L -76.3121,-99.4822 L -76.1474,-99.6369 L -75.9645,-99.7698 L -75.7664,-99.8787 L -75.5562,-99.9619 L -75.3373,-100.018
 L -75.113,-100.046 L -74.887,-100.046 L -74.6627,-100.018 L -74.4438,-99.9619 L -74.2336,-99.8787 L -74.0355,-99.7698
 L -73.8526,-99.6369 L -73.6879,-99.4822 L -73.5438,-99.308 L -73.4226,-99.1171 L -73.3264,-98.9126 L -73.2565,-98.6976
 L -73.2142,-98.4756 L -73.2,-98.25 L -73.2142,-98.0244 L -73.2565,-97.8024 L -73.3264,-97.5874 L -73.4226,-97.3828
 L -73.5438,-97.192 L -73.6879,-97.0178 L -73.8526,-96.8631 L -74.0355,-96.7302 L -74.2336,-96.6213 L -74.4438,-96.5381
 L -74.6627,-96.4819 L -74.887,-96.4536 z
M 74.887,-96.4536 L 74.6627,-96.4819 L 74.4438,-96.5381 L 74.2336,-96.6213 L 74.0355,-96.7302 L 73.8526,-96.8631
 L 73.6879,-97.0178 L 73.5438,-97.192 L 73.4226,-97.3828 L 73.3264,-97.5874 L 73.2565,-97.8024 L 73.2142,-98.0244
 L 73.2,-98.25 L 73.2142,-98.4756 L 73.2565,-98.6976 L 73.3264,-98.9126 L 73.4226,-99.1171 L 73.5438,-99.308
 L 73.6879,-99.4822 L 73.8526,-99.6369 L 74.0355,-99.7698 L 74.2336,-99.8787 L 74.4438,-99.9619 L 74.6627,-100.018
 L 74.887,-100.046 L 75.113,-100.046 L 75.3373,-100.018 L 75.5562,-99.9619 L 75.7664,-99.8787 L 75.9645,-99.7698
 L 76.1474,-99.6369 L 76.3121,-99.4822 L 76.4562,-99.308 L 76.5773,-99.1171 L 76.6736,-98.9126 L 76.7434,-98.6976
 L 76.7858,-98.4756 L 76.8,-98.25 L 76.7858,-98.0244 L 76.7434,-97.8024 L 76.6736,-97.5874 L 76.5773,-97.3828
 L 76.4562,-97.192 L 76.3121,-97.0178 L 76.1474,-96.8631 L 75.9645,-96.7302 L 75.7664,-96.6213 L 75.5562,-96.5381
 L 75.3373,-96.4819 L 75.113,-96.4536 z
M 74.887,-88.9536 L 74.6627,-88.9819 L 74.4438,-89.0381 L 74.2336,-89.1213 L 74.0355,-89.2302 L 73.8526,-89.3631
 L 73.6879,-89.5178 L 73.5438,-89.692 L 73.4226,-89.8829 L 73.3264,-90.0874 L 73.2565,-90.3024 L 73.2142,-90.5244
 L 73.2,-90.75 L 73.2142,-90.9756 L 73.2565,-91.1976 L 73.3264,-91.4126 L 73.4226,-91.6172 L 73.5438,-91.808
 L 73.6879,-91.9822 L 73.8526,-92.1369 L 74.0355,-92.2698 L 74.2336,-92.3787 L 74.4438,-92.4619 L 74.6627,-92.5181
 L 74.887,-92.5464 L 75.113,-92.5464 L 75.3373,-92.5181 L 75.5562,-92.4619 L 75.7664,-92.3787 L 75.9645,-92.2698
 L 76.1474,-92.1369 L 76.3121,-91.9822 L 76.4562,-91.808 L 76.5773,-91.6172 L 76.6736,-91.4126 L 76.7434,-91.1976
 L 76.7858,-90.9756 L 76.8,-90.75 L 76.7858,-90.5244 L 76.7434,-90.3024 L 76.6736,-90.0874 L 76.5773,-89.8829
 L 76.4562,-89.692 L 76.3121,-89.5178 L 76.1474,-89.3631 L 75.9645,-89.2302 L 75.7664,-89.1213 L 75.5562,-89.0381
 L 75.3373,-88.9819 L 75.113,-88.9536 z
M -75.113,-88.9536 L -75.3373,-88.9819 L -75.5562,-89.0381 L -75.7664,-89.1213 L -75.9645,-89.2302 L -76.1474,-89.3631
 L -76.3121,-89.5178 L -76.4562,-89.692 L -76.5773,-89.8829 L -76.6736,-90.0874 L -76.7434,-90.3024 L -76.7858,-90.5244
 L -76.8,-90.75 L -76.7858,-90.9756 L -76.7434,-91.1976 L -76.6736,-91.4126 L -76.5773,-91.6172 L -76.4562,-91.808
 L -76.3121,-91.9822 L -76.1474,-92.1369 L -75.9645,-92.2698 L -75.7664,-92.3787 L -75.5562,-92.4619 L -75.3373,-92.5181
 L -75.113,-92.5464 L -74.887,-92.5464 L -74.6627,-92.5181 L -74.4438,-92.4619 L -74.2336,-92.3787 L -74.0355,-92.2698
 L -73.8526,-92.1369 L -73.6879,-91.9822 L -73.5438,-91.808 L -73.4226,-91.6172 L -73.3264,-91.4126 L -73.2565,-91.1976
 L -73.2142,-90.9756 L -73.2,-90.75 L -73.2142,-90.5244 L -73.2565,-90.3024 L -73.3264,-90.0874 L -73.4226,-89.8829
 L -73.5438,-89.692 L -73.6879,-89.5178 L -73.8526,-89.3631 L -74.0355,-89.2302 L -74.2336,-89.1213 L -74.4438,-89.0381
 L -74.6627,-88.9819 L -74.887,-88.9536 z
" stroke="black" fill="lightgray" stroke-width="0.5"/>
</svg>
