  0
SECTION
  2
BLOCKS
  0
ENDSEC
  0
SECTION
  2
ENTITIES
  0
LINE
  8
0
 10
63.4369
 20
448.589
 11
64.0451
 21
448.745
  0
LINE
  8
0
 10
64.0451
 20
448.745
 11
64.6289
 21
448.976
  0
LINE
  8
0
 10
64.6289
 20
448.976
 11
65.1791
 21
449.278
  0
LINE
  8
0
 10
65.1791
 20
449.278
 11
65.6871
 21
449.647
  0
LINE
  8
0
 10
65.6871
 20
449.647
 11
66.1448
 21
450.077
  0
LINE
  8
0
 10
66.1448
 20
450.077
 11
66.5451
 21
450.561
  0
LINE
  8
0
 10
66.5451
 20
450.561
 11
66.8815
 21
451.091
  0
LINE
  8
0
 10
66.8815
 20
451.091
 11
67.1489
 21
451.659
  0
LINE
  8
0
 10
67.1489
 20
451.659
 11
67.3429
 21
452.257
  0
LINE
  8
0
 10
67.3429
 20
452.257
 11
67.4606
 21
452.873
  0
LINE
  8
0
 10
67.4606
 20
452.873
 11
67.5
 21
453.5
  0
LINE
  8
0
 10
67.5
 20
453.5
 11
67.5
 21
458.5
  0
LINE
  8
0
 10
67.5
 20
458.5
 11
67.4606
 21
459.127
  0
LINE
  8
0
 10
67.4606
 20
459.127
 11
67.3429
 21
459.743
  0
LINE
  8
0
 10
67.3429
 20
459.743
 11
67.1489
 21
460.341
  0
LINE
  8
0
 10
67.1489
 20
460.341
 11
66.8815
 21
460.909
  0
LINE
  8
0
 10
66.8815
 20
460.909
 11
66.5451
 21
461.439
  0
LINE
  8
0
 10
66.5451
 20
461.439
 11
66.1448
 21
461.923
  0
LINE
  8
0
 10
66.1448
 20
461.923
 11
65.6871
 21
462.353
  0
LINE
  8
0
 10
65.6871
 20
462.353
 11
65.1791
 21
462.722
  0
LINE
  8
0
 10
65.1791
 20
462.722
 11
64.6289
 21
463.024
  0
LINE
  8
0
 10
64.6289
 20
463.024
 11
64.0451
 21
463.255
  0
LINE
  8
0
 10
64.0451
 20
463.255
 11
63.4369
 21
463.411
  0
LINE
  8
0
 10
63.4369
 20
463.411
 11
62.8139
 21
463.49
  0
LINE
  8
0
 10
62.8139
 20
463.49
 11
-62.8139
 21
463.49
  0
LINE
  8
0
 10
-62.8139
 20
463.49
 11
-63.4369
 21
463.411
  0
LINE
  8
0
 10
-63.4369
 20
463.411
 11
-64.0451
 21
463.255
  0
LINE
  8
0
 10
-64.0451
 20
463.255
 11
-64.6289
 21
463.024
  0
LINE
  8
0
 10
-64.6289
 20
463.024
 11
-65.1791
 21
462.722
  0
LINE
  8
0
 10
-65.1791
 20
462.722
 11
-65.6871
 21
462.353
  0
LINE
  8
0
 10
-65.6871
 20
462.353
 11
-66.1448
 21
461.923
  0
LINE
  8
0
 10
-66.1448
 20
461.923
 11
-66.5451
 21
461.439
  0
LINE
  8
0
 10
-66.5451
 20
461.439
 11
-66.8815
 21
460.909
  0
LINE
  8
0
 10
-66.8815
 20
460.909
 11
-67.1489
 21
460.341
  0
LINE
  8
0
 10
-67.1489
 20
460.341
 11
-67.3429
 21
459.743
  0
LINE
  8
0
 10
-67.3429
 20
459.743
 11
-67.4606
 21
459.127
  0
LINE
  8
0
 10
-67.4606
 20
459.127
 11
-67.5
 21
458.5
  0
LINE
  8
0
 10
-67.5
 20
458.5
 11
-67.5
 21
453.5
  0
LINE
  8
0
 10
-67.5
 20
453.5
 11
-67.4606
 21
452.873
  0
LINE
  8
0
 10
-67.4606
 20
452.873
 11
-67.3429
 21
452.257
  0
LINE
  8
0
 10
-67.3429
 20
452.257
 11
-67.1489
 21
451.659
  0
LINE
  8
0
 10
-67.1489
 20
451.659
 11
-66.8815
 21
451.091
  0
LINE
  8
0
 10
-66.8815
 20
451.091
 11
-66.5451
 21
450.561
  0
LINE
  8
0
 10
-66.5451
 20
450.561
 11
-66.1448
 21
450.077
  0
LINE
  8
0
 10
-66.1448
 20
450.077
 11
-65.6871
 21
449.647
  0
LINE
  8
0
 10
-65.6871
 20
449.647
 11
-65.1791
 21
449.278
  0
LINE
  8
0
 10
-65.1791
 20
449.278
 11
-64.6289
 21
448.976
  0
LINE
  8
0
 10
-64.6289
 20
448.976
 11
-64.0451
 21
448.745
  0
LINE
  8
0
 10
-64.0451
 20
448.745
 11
-63.4369
 21
448.589
  0
LINE
  8
0
 10
-63.4369
 20
448.589
 11
-62.8139
 21
448.51
  0
LINE
  8
0
 10
-62.8139
 20
448.51
 11
62.8139
 21
448.51
  0
LINE
  8
0
 10
62.8139
 20
448.51
 11
63.4369
 21
448.589
  0
LINE
  8
0
 10
-62.5482
 20
449.009
 11
-63.1401
 21
449.084
  0
LINE
  8
0
 10
-63.1401
 20
449.084
 11
-63.7178
 21
449.232
  0
LINE
  8
0
 10
-63.7178
 20
449.232
 11
-64.2724
 21
449.452
  0
LINE
  8
0
 10
-64.2724
 20
449.452
 11
-64.7952
 21
449.739
  0
LINE
  8
0
 10
-64.7952
 20
449.739
 11
-65.2778
 21
450.09
  0
LINE
  8
0
 10
-65.2778
 20
450.09
 11
-65.7126
 21
450.498
  0
LINE
  8
0
 10
-65.7126
 20
450.498
 11
-66.0928
 21
450.958
  0
LINE
  8
0
 10
-66.0928
 20
450.958
 11
-66.4125
 21
451.462
  0
LINE
  8
0
 10
-66.4125
 20
451.462
 11
-66.6664
 21
452.001
  0
LINE
  8
0
 10
-66.6664
 20
452.001
 11
-66.8508
 21
452.569
  0
LINE
  8
0
 10
-66.8508
 20
452.569
 11
-66.9625
 21
453.155
  0
LINE
  8
0
 10
-66.9625
 20
453.155
 11
-67
 21
453.75
  0
LINE
  8
0
 10
-67
 20
453.75
 11
-67
 21
458.25
  0
LINE
  8
0
 10
-67
 20
458.25
 11
-66.9625
 21
458.845
  0
LINE
  8
0
 10
-66.9625
 20
458.845
 11
-66.8508
 21
459.431
  0
LINE
  8
0
 10
-66.8508
 20
459.431
 11
-66.6664
 21
459.999
  0
LINE
  8
0
 10
-66.6664
 20
459.999
 11
-66.4125
 21
460.538
  0
LINE
  8
0
 10
-66.4125
 20
460.538
 11
-66.0928
 21
461.042
  0
LINE
  8
0
 10
-66.0928
 20
461.042
 11
-65.7126
 21
461.502
  0
LINE
  8
0
 10
-65.7126
 20
461.502
 11
-65.2778
 21
461.91
  0
LINE
  8
0
 10
-65.2778
 20
461.91
 11
-64.7952
 21
462.261
  0
LINE
  8
0
 10
-64.7952
 20
462.261
 11
-64.2724
 21
462.548
  0
LINE
  8
0
 10
-64.2724
 20
462.548
 11
-63.7178
 21
462.768
  0
LINE
  8
0
 10
-63.7178
 20
462.768
 11
-63.1401
 21
462.916
  0
LINE
  8
0
 10
-63.1401
 20
462.916
 11
-62.5482
 21
462.991
  0
LINE
  8
0
 10
-62.5482
 20
462.991
 11
62.5482
 21
462.991
  0
LINE
  8
0
 10
62.5482
 20
462.991
 11
63.1401
 21
462.916
  0
LINE
  8
0
 10
63.1401
 20
462.916
 11
63.7178
 21
462.768
  0
LINE
  8
0
 10
63.7178
 20
462.768
 11
64.2724
 21
462.548
  0
LINE
  8
0
 10
64.2724
 20
462.548
 11
64.7952
 21
462.261
  0
LINE
  8
0
 10
64.7952
 20
462.261
 11
65.2778
 21
461.91
  0
LINE
  8
0
 10
65.2778
 20
461.91
 11
65.7126
 21
461.502
  0
LINE
  8
0
 10
65.7126
 20
461.502
 11
66.0928
 21
461.042
  0
LINE
  8
0
 10
66.0928
 20
461.042
 11
66.4125
 21
460.538
  0
LINE
  8
0
 10
66.4125
 20
460.538
 11
66.6664
 21
459.999
  0
LINE
  8
0
 10
66.6664
 20
459.999
 11
66.8508
 21
459.431
  0
LINE
  8
0
 10
66.8508
 20
459.431
 11
66.9625
 21
458.845
  0
LINE
  8
0
 10
66.9625
 20
458.845
 11
67
 21
458.25
  0
LINE
  8
0
 10
67
 20
458.25
 11
67
 21
453.75
  0
LINE
  8
0
 10
67
 20
453.75
 11
66.9625
 21
453.155
  0
LINE
  8
0
 10
66.9625
 20
453.155
 11
66.8508
 21
452.569
  0
LINE
  8
0
 10
66.8508
 20
452.569
 11
66.6664
 21
452.001
  0
LINE
  8
0
 10
66.6664
 20
452.001
 11
66.4125
 21
451.462
  0
LINE
  8
0
 10
66.4125
 20
451.462
 11
66.0928
 21
450.958
  0
LINE
  8
0
 10
66.0928
 20
450.958
 11
65.7126
 21
450.498
  0
LINE
  8
0
 10
65.7126
 20
450.498
 11
65.2778
 21
450.09
  0
LINE
  8
0
 10
65.2778
 20
450.09
 11
64.7952
 21
449.739
  0
LINE
  8
0
 10
64.7952
 20
449.739
 11
64.2724
 21
449.452
  0
LINE
  8
0
 10
64.2724
 20
449.452
 11
63.7178
 21
449.232
  0
LINE
  8
0
 10
63.7178
 20
449.232
 11
63.1401
 21
449.084
  0
LINE
  8
0
 10
63.1401
 20
449.084
 11
62.5482
 21
449.009
  0
LINE
  8
0
 10
62.5482
 20
449.009
 11
-62.5482
 21
449.009
  0
LINE
  8
0
 10
63.4369
 20
424.589
 11
64.0451
 21
424.745
  0
LINE
  8
0
 10
64.0451
 20
424.745
 11
64.6289
 21
424.976
  0
LINE
  8
0
 10
64.6289
 20
424.976
 11
65.1791
 21
425.278
  0
LINE
  8
0
 10
65.1791
 20
425.278
 11
65.6871
 21
425.647
  0
LINE
  8
0
 10
65.6871
 20
425.647
 11
66.1448
 21
426.077
  0
LINE
  8
0
 10
66.1448
 20
426.077
 11
66.5451
 21
426.561
  0
LINE
  8
0
 10
66.5451
 20
426.561
 11
66.8815
 21
427.091
  0
LINE
  8
0
 10
66.8815
 20
427.091
 11
67.1489
 21
427.659
  0
LINE
  8
0
 10
67.1489
 20
427.659
 11
67.3429
 21
428.257
  0
LINE
  8
0
 10
67.3429
 20
428.257
 11
67.4606
 21
428.873
  0
LINE
  8
0
 10
67.4606
 20
428.873
 11
67.5
 21
429.5
  0
LINE
  8
0
 10
67.5
 20
429.5
 11
67.5
 21
434.5
  0
LINE
  8
0
 10
67.5
 20
434.5
 11
67.4606
 21
435.127
  0
LINE
  8
0
 10
67.4606
 20
435.127
 11
67.3429
 21
435.743
  0
LINE
  8
0
 10
67.3429
 20
435.743
 11
67.1489
 21
436.341
  0
LINE
  8
0
 10
67.1489
 20
436.341
 11
66.8815
 21
436.909
  0
LINE
  8
0
 10
66.8815
 20
436.909
 11
66.5451
 21
437.439
  0
LINE
  8
0
 10
66.5451
 20
437.439
 11
66.1448
 21
437.923
  0
LINE
  8
0
 10
66.1448
 20
437.923
 11
65.6871
 21
438.353
  0
LINE
  8
0
 10
65.6871
 20
438.353
 11
65.1791
 21
438.722
  0
LINE
  8
0
 10
65.1791
 20
438.722
 11
64.6289
 21
439.024
  0
LINE
  8
0
 10
64.6289
 20
439.024
 11
64.0451
 21
439.255
  0
LINE
  8
0
 10
64.0451
 20
439.255
 11
63.4369
 21
439.411
  0
LINE
  8
0
 10
63.4369
 20
439.411
 11
62.8139
 21
439.49
  0
LINE
  8
0
 10
62.8139
 20
439.49
 11
-62.8139
 21
439.49
  0
LINE
  8
0
 10
-62.8139
 20
439.49
 11
-63.4369
 21
439.411
  0
LINE
  8
0
 10
-63.4369
 20
439.411
 11
-64.0451
 21
439.255
  0
LINE
  8
0
 10
-64.0451
 20
439.255
 11
-64.6289
 21
439.024
  0
LINE
  8
0
 10
-64.6289
 20
439.024
 11
-65.1791
 21
438.722
  0
LINE
  8
0
 10
-65.1791
 20
438.722
 11
-65.6871
 21
438.353
  0
LINE
  8
0
 10
-65.6871
 20
438.353
 11
-66.1448
 21
437.923
  0
LINE
  8
0
 10
-66.1448
 20
437.923
 11
-66.5451
 21
437.439
  0
LINE
  8
0
 10
-66.5451
 20
437.439
 11
-66.8815
 21
436.909
  0
LINE
  8
0
 10
-66.8815
 20
436.909
 11
-67.1489
 21
436.341
  0
LINE
  8
0
 10
-67.1489
 20
436.341
 11
-67.3429
 21
435.743
  0
LINE
  8
0
 10
-67.3429
 20
435.743
 11
-67.4606
 21
435.127
  0
LINE
  8
0
 10
-67.4606
 20
435.127
 11
-67.5
 21
434.5
  0
LINE
  8
0
 10
-67.5
 20
434.5
 11
-67.5
 21
429.5
  0
LINE
  8
0
 10
-67.5
 20
429.5
 11
-67.4606
 21
428.873
  0
LINE
  8
0
 10
-67.4606
 20
428.873
 11
-67.3429
 21
428.257
  0
LINE
  8
0
 10
-67.3429
 20
428.257
 11
-67.1489
 21
427.659
  0
LINE
  8
0
 10
-67.1489
 20
427.659
 11
-66.8815
 21
427.091
  0
LINE
  8
0
 10
-66.8815
 20
427.091
 11
-66.5451
 21
426.561
  0
LINE
  8
0
 10
-66.5451
 20
426.561
 11
-66.1448
 21
426.077
  0
LINE
  8
0
 10
-66.1448
 20
426.077
 11
-65.6871
 21
425.647
  0
LINE
  8
0
 10
-65.6871
 20
425.647
 11
-65.1791
 21
425.278
  0
LINE
  8
0
 10
-65.1791
 20
425.278
 11
-64.6289
 21
424.976
  0
LINE
  8
0
 10
-64.6289
 20
424.976
 11
-64.0451
 21
424.745
  0
LINE
  8
0
 10
-64.0451
 20
424.745
 11
-63.4369
 21
424.589
  0
LINE
  8
0
 10
-63.4369
 20
424.589
 11
-62.8139
 21
424.51
  0
LINE
  8
0
 10
-62.8139
 20
424.51
 11
62.8139
 21
424.51
  0
LINE
  8
0
 10
62.8139
 20
424.51
 11
63.4369
 21
424.589
  0
LINE
  8
0
 10
-62.5482
 20
425.009
 11
-63.1401
 21
425.084
  0
LINE
  8
0
 10
-63.1401
 20
425.084
 11
-63.7178
 21
425.232
  0
LINE
  8
0
 10
-63.7178
 20
425.232
 11
-64.2724
 21
425.452
  0
LINE
  8
0
 10
-64.2724
 20
425.452
 11
-64.7952
 21
425.739
  0
LINE
  8
0
 10
-64.7952
 20
425.739
 11
-65.2778
 21
426.09
  0
LINE
  8
0
 10
-65.2778
 20
426.09
 11
-65.7126
 21
426.498
  0
LINE
  8
0
 10
-65.7126
 20
426.498
 11
-66.0928
 21
426.958
  0
LINE
  8
0
 10
-66.0928
 20
426.958
 11
-66.4125
 21
427.462
  0
LINE
  8
0
 10
-66.4125
 20
427.462
 11
-66.6664
 21
428.001
  0
LINE
  8
0
 10
-66.6664
 20
428.001
 11
-66.8508
 21
428.569
  0
LINE
  8
0
 10
-66.8508
 20
428.569
 11
-66.9625
 21
429.155
  0
LINE
  8
0
 10
-66.9625
 20
429.155
 11
-67
 21
429.75
  0
LINE
  8
0
 10
-67
 20
429.75
 11
-67
 21
434.25
  0
LINE
  8
0
 10
-67
 20
434.25
 11
-66.9625
 21
434.845
  0
LINE
  8
0
 10
-66.9625
 20
434.845
 11
-66.8508
 21
435.431
  0
LINE
  8
0
 10
-66.8508
 20
435.431
 11
-66.6664
 21
435.999
  0
LINE
  8
0
 10
-66.6664
 20
435.999
 11
-66.4125
 21
436.538
  0
LINE
  8
0
 10
-66.4125
 20
436.538
 11
-66.0928
 21
437.042
  0
LINE
  8
0
 10
-66.0928
 20
437.042
 11
-65.7126
 21
437.502
  0
LINE
  8
0
 10
-65.7126
 20
437.502
 11
-65.2778
 21
437.91
  0
LINE
  8
0
 10
-65.2778
 20
437.91
 11
-64.7952
 21
438.261
  0
LINE
  8
0
 10
-64.7952
 20
438.261
 11
-64.2724
 21
438.548
  0
LINE
  8
0
 10
-64.2724
 20
438.548
 11
-63.7178
 21
438.768
  0
LINE
  8
0
 10
-63.7178
 20
438.768
 11
-63.1401
 21
438.916
  0
LINE
  8
0
 10
-63.1401
 20
438.916
 11
-62.5482
 21
438.991
  0
LINE
  8
0
 10
-62.5482
 20
438.991
 11
62.5482
 21
438.991
  0
LINE
  8
0
 10
62.5482
 20
438.991
 11
63.1401
 21
438.916
  0
LINE
  8
0
 10
63.1401
 20
438.916
 11
63.7178
 21
438.768
  0
LINE
  8
0
 10
63.7178
 20
438.768
 11
64.2724
 21
438.548
  0
LINE
  8
0
 10
64.2724
 20
438.548
 11
64.7952
 21
438.261
  0
LINE
  8
0
 10
64.7952
 20
438.261
 11
65.2778
 21
437.91
  0
LINE
  8
0
 10
65.2778
 20
437.91
 11
65.7126
 21
437.502
  0
LINE
  8
0
 10
65.7126
 20
437.502
 11
66.0928
 21
437.042
  0
LINE
  8
0
 10
66.0928
 20
437.042
 11
66.4125
 21
436.538
  0
LINE
  8
0
 10
66.4125
 20
436.538
 11
66.6664
 21
435.999
  0
LINE
  8
0
 10
66.6664
 20
435.999
 11
66.8508
 21
435.431
  0
LINE
  8
0
 10
66.8508
 20
435.431
 11
66.9625
 21
434.845
  0
LINE
  8
0
 10
66.9625
 20
434.845
 11
67
 21
434.25
  0
LINE
  8
0
 10
67
 20
434.25
 11
67
 21
429.75
  0
LINE
  8
0
 10
67
 20
429.75
 11
66.9625
 21
429.155
  0
LINE
  8
0
 10
66.9625
 20
429.155
 11
66.8508
 21
428.569
  0
LINE
  8
0
 10
66.8508
 20
428.569
 11
66.6664
 21
428.001
  0
LINE
  8
0
 10
66.6664
 20
428.001
 11
66.4125
 21
427.462
  0
LINE
  8
0
 10
66.4125
 20
427.462
 11
66.0928
 21
426.958
  0
LINE
  8
0
 10
66.0928
 20
426.958
 11
65.7126
 21
426.498
  0
LINE
  8
0
 10
65.7126
 20
426.498
 11
65.2778
 21
426.09
  0
LINE
  8
0
 10
65.2778
 20
426.09
 11
64.7952
 21
425.739
  0
LINE
  8
0
 10
64.7952
 20
425.739
 11
64.2724
 21
425.452
  0
LINE
  8
0
 10
64.2724
 20
425.452
 11
63.7178
 21
425.232
  0
LINE
  8
0
 10
63.7178
 20
425.232
 11
63.1401
 21
425.084
  0
LINE
  8
0
 10
63.1401
 20
425.084
 11
62.5482
 21
425.009
  0
LINE
  8
0
 10
62.5482
 20
425.009
 11
-62.5482
 21
425.009
  0
LINE
  8
0
 10
63.4369
 20
400.589
 11
64.0451
 21
400.745
  0
LINE
  8
0
 10
64.0451
 20
400.745
 11
64.6289
 21
400.976
  0
LINE
  8
0
 10
64.6289
 20
400.976
 11
65.1791
 21
401.278
  0
LINE
  8
0
 10
65.1791
 20
401.278
 11
65.6871
 21
401.647
  0
LINE
  8
0
 10
65.6871
 20
401.647
 11
66.1448
 21
402.077
  0
LINE
  8
0
 10
66.1448
 20
402.077
 11
66.5451
 21
402.561
  0
LINE
  8
0
 10
66.5451
 20
402.561
 11
66.8815
 21
403.091
  0
LINE
  8
0
 10
66.8815
 20
403.091
 11
67.1489
 21
403.659
  0
LINE
  8
0
 10
67.1489
 20
403.659
 11
67.3429
 21
404.257
  0
LINE
  8
0
 10
67.3429
 20
404.257
 11
67.4606
 21
404.873
  0
LINE
  8
0
 10
67.4606
 20
404.873
 11
67.5
 21
405.5
  0
LINE
  8
0
 10
67.5
 20
405.5
 11
67.5
 21
410.5
  0
LINE
  8
0
 10
67.5
 20
410.5
 11
67.4606
 21
411.127
  0
LINE
  8
0
 10
67.4606
 20
411.127
 11
67.3429
 21
411.743
  0
LINE
  8
0
 10
67.3429
 20
411.743
 11
67.1489
 21
412.341
  0
LINE
  8
0
 10
67.1489
 20
412.341
 11
66.8815
 21
412.909
  0
LINE
  8
0
 10
66.8815
 20
412.909
 11
66.5451
 21
413.439
  0
LINE
  8
0
 10
66.5451
 20
413.439
 11
66.1448
 21
413.923
  0
LINE
  8
0
 10
66.1448
 20
413.923
 11
65.6871
 21
414.353
  0
LINE
  8
0
 10
65.6871
 20
414.353
 11
65.1791
 21
414.722
  0
LINE
  8
0
 10
65.1791
 20
414.722
 11
64.6289
 21
415.024
  0
LINE
  8
0
 10
64.6289
 20
415.024
 11
64.0451
 21
415.255
  0
LINE
  8
0
 10
64.0451
 20
415.255
 11
63.4369
 21
415.411
  0
LINE
  8
0
 10
63.4369
 20
415.411
 11
62.8139
 21
415.49
  0
LINE
  8
0
 10
62.8139
 20
415.49
 11
-62.8139
 21
415.49
  0
LINE
  8
0
 10
-62.8139
 20
415.49
 11
-63.4369
 21
415.411
  0
LINE
  8
0
 10
-63.4369
 20
415.411
 11
-64.0451
 21
415.255
  0
LINE
  8
0
 10
-64.0451
 20
415.255
 11
-64.6289
 21
415.024
  0
LINE
  8
0
 10
-64.6289
 20
415.024
 11
-65.1791
 21
414.722
  0
LINE
  8
0
 10
-65.1791
 20
414.722
 11
-65.6871
 21
414.353
  0
LINE
  8
0
 10
-65.6871
 20
414.353
 11
-66.1448
 21
413.923
  0
LINE
  8
0
 10
-66.1448
 20
413.923
 11
-66.5451
 21
413.439
  0
LINE
  8
0
 10
-66.5451
 20
413.439
 11
-66.8815
 21
412.909
  0
LINE
  8
0
 10
-66.8815
 20
412.909
 11
-67.1489
 21
412.341
  0
LINE
  8
0
 10
-67.1489
 20
412.341
 11
-67.3429
 21
411.743
  0
LINE
  8
0
 10
-67.3429
 20
411.743
 11
-67.4606
 21
411.127
  0
LINE
  8
0
 10
-67.4606
 20
411.127
 11
-67.5
 21
410.5
  0
LINE
  8
0
 10
-67.5
 20
410.5
 11
-67.5
 21
405.5
  0
LINE
  8
0
 10
-67.5
 20
405.5
 11
-67.4606
 21
404.873
  0
LINE
  8
0
 10
-67.4606
 20
404.873
 11
-67.3429
 21
404.257
  0
LINE
  8
0
 10
-67.3429
 20
404.257
 11
-67.1489
 21
403.659
  0
LINE
  8
0
 10
-67.1489
 20
403.659
 11
-66.8815
 21
403.091
  0
LINE
  8
0
 10
-66.8815
 20
403.091
 11
-66.5451
 21
402.561
  0
LINE
  8
0
 10
-66.5451
 20
402.561
 11
-66.1448
 21
402.077
  0
LINE
  8
0
 10
-66.1448
 20
402.077
 11
-65.6871
 21
401.647
  0
LINE
  8
0
 10
-65.6871
 20
401.647
 11
-65.1791
 21
401.278
  0
LINE
  8
0
 10
-65.1791
 20
401.278
 11
-64.6289
 21
400.976
  0
LINE
  8
0
 10
-64.6289
 20
400.976
 11
-64.0451
 21
400.745
  0
LINE
  8
0
 10
-64.0451
 20
400.745
 11
-63.4369
 21
400.589
  0
LINE
  8
0
 10
-63.4369
 20
400.589
 11
-62.8139
 21
400.51
  0
LINE
  8
0
 10
-62.8139
 20
400.51
 11
62.8139
 21
400.51
  0
LINE
  8
0
 10
62.8139
 20
400.51
 11
63.4369
 21
400.589
  0
LINE
  8
0
 10
-62.5482
 20
401.009
 11
-63.1401
 21
401.084
  0
LINE
  8
0
 10
-63.1401
 20
401.084
 11
-63.7178
 21
401.232
  0
LINE
  8
0
 10
-63.7178
 20
401.232
 11
-64.2724
 21
401.452
  0
LINE
  8
0
 10
-64.2724
 20
401.452
 11
-64.7952
 21
401.739
  0
LINE
  8
0
 10
-64.7952
 20
401.739
 11
-65.2778
 21
402.09
  0
LINE
  8
0
 10
-65.2778
 20
402.09
 11
-65.7126
 21
402.498
  0
LINE
  8
0
 10
-65.7126
 20
402.498
 11
-66.0928
 21
402.958
  0
LINE
  8
0
 10
-66.0928
 20
402.958
 11
-66.4125
 21
403.462
  0
LINE
  8
0
 10
-66.4125
 20
403.462
 11
-66.6664
 21
404.001
  0
LINE
  8
0
 10
-66.6664
 20
404.001
 11
-66.8508
 21
404.569
  0
LINE
  8
0
 10
-66.8508
 20
404.569
 11
-66.9625
 21
405.155
  0
LINE
  8
0
 10
-66.9625
 20
405.155
 11
-67
 21
405.75
  0
LINE
  8
0
 10
-67
 20
405.75
 11
-67
 21
410.25
  0
LINE
  8
0
 10
-67
 20
410.25
 11
-66.9625
 21
410.845
  0
LINE
  8
0
 10
-66.9625
 20
410.845
 11
-66.8508
 21
411.431
  0
LINE
  8
0
 10
-66.8508
 20
411.431
 11
-66.6664
 21
411.999
  0
LINE
  8
0
 10
-66.6664
 20
411.999
 11
-66.4125
 21
412.538
  0
LINE
  8
0
 10
-66.4125
 20
412.538
 11
-66.0928
 21
413.042
  0
LINE
  8
0
 10
-66.0928
 20
413.042
 11
-65.7126
 21
413.502
  0
LINE
  8
0
 10
-65.7126
 20
413.502
 11
-65.2778
 21
413.91
  0
LINE
  8
0
 10
-65.2778
 20
413.91
 11
-64.7952
 21
414.261
  0
LINE
  8
0
 10
-64.7952
 20
414.261
 11
-64.2724
 21
414.548
  0
LINE
  8
0
 10
-64.2724
 20
414.548
 11
-63.7178
 21
414.768
  0
LINE
  8
0
 10
-63.7178
 20
414.768
 11
-63.1401
 21
414.916
  0
LINE
  8
0
 10
-63.1401
 20
414.916
 11
-62.5482
 21
414.991
  0
LINE
  8
0
 10
-62.5482
 20
414.991
 11
62.5482
 21
414.991
  0
LINE
  8
0
 10
62.5482
 20
414.991
 11
63.1401
 21
414.916
  0
LINE
  8
0
 10
63.1401
 20
414.916
 11
63.7178
 21
414.768
  0
LINE
  8
0
 10
63.7178
 20
414.768
 11
64.2724
 21
414.548
  0
LINE
  8
0
 10
64.2724
 20
414.548
 11
64.7952
 21
414.261
  0
LINE
  8
0
 10
64.7952
 20
414.261
 11
65.2778
 21
413.91
  0
LINE
  8
0
 10
65.2778
 20
413.91
 11
65.7126
 21
413.502
  0
LINE
  8
0
 10
65.7126
 20
413.502
 11
66.0928
 21
413.042
  0
LINE
  8
0
 10
66.0928
 20
413.042
 11
66.4125
 21
412.538
  0
LINE
  8
0
 10
66.4125
 20
412.538
 11
66.6664
 21
411.999
  0
LINE
  8
0
 10
66.6664
 20
411.999
 11
66.8508
 21
411.431
  0
LINE
  8
0
 10
66.8508
 20
411.431
 11
66.9625
 21
410.845
  0
LINE
  8
0
 10
66.9625
 20
410.845
 11
67
 21
410.25
  0
LINE
  8
0
 10
67
 20
410.25
 11
67
 21
405.75
  0
LINE
  8
0
 10
67
 20
405.75
 11
66.9625
 21
405.155
  0
LINE
  8
0
 10
66.9625
 20
405.155
 11
66.8508
 21
404.569
  0
LINE
  8
0
 10
66.8508
 20
404.569
 11
66.6664
 21
404.001
  0
LINE
  8
0
 10
66.6664
 20
404.001
 11
66.4125
 21
403.462
  0
LINE
  8
0
 10
66.4125
 20
403.462
 11
66.0928
 21
402.958
  0
LINE
  8
0
 10
66.0928
 20
402.958
 11
65.7126
 21
402.498
  0
LINE
  8
0
 10
65.7126
 20
402.498
 11
65.2778
 21
402.09
  0
LINE
  8
0
 10
65.2778
 20
402.09
 11
64.7952
 21
401.739
  0
LINE
  8
0
 10
64.7952
 20
401.739
 11
64.2724
 21
401.452
  0
LINE
  8
0
 10
64.2724
 20
401.452
 11
63.7178
 21
401.232
  0
LINE
  8
0
 10
63.7178
 20
401.232
 11
63.1401
 21
401.084
  0
LINE
  8
0
 10
63.1401
 20
401.084
 11
62.5482
 21
401.009
  0
LINE
  8
0
 10
62.5482
 20
401.009
 11
-62.5482
 21
401.009
  0
LINE
  8
0
 10
63.4369
 20
376.589
 11
64.0451
 21
376.745
  0
LINE
  8
0
 10
64.0451
 20
376.745
 11
64.6289
 21
376.976
  0
LINE
  8
0
 10
64.6289
 20
376.976
 11
65.1791
 21
377.278
  0
LINE
  8
0
 10
65.1791
 20
377.278
 11
65.6871
 21
377.647
  0
LINE
  8
0
 10
65.6871
 20
377.647
 11
66.1448
 21
378.077
  0
LINE
  8
0
 10
66.1448
 20
378.077
 11
66.5451
 21
378.561
  0
LINE
  8
0
 10
66.5451
 20
378.561
 11
66.8815
 21
379.091
  0
LINE
  8
0
 10
66.8815
 20
379.091
 11
67.1489
 21
379.659
  0
LINE
  8
0
 10
67.1489
 20
379.659
 11
67.3429
 21
380.257
  0
LINE
  8
0
 10
67.3429
 20
380.257
 11
67.4606
 21
380.873
  0
LINE
  8
0
 10
67.4606
 20
380.873
 11
67.5
 21
381.5
  0
LINE
  8
0
 10
67.5
 20
381.5
 11
67.5
 21
386.5
  0
LINE
  8
0
 10
67.5
 20
386.5
 11
67.4606
 21
387.127
  0
LINE
  8
0
 10
67.4606
 20
387.127
 11
67.3429
 21
387.743
  0
LINE
  8
0
 10
67.3429
 20
387.743
 11
67.1489
 21
388.341
  0
LINE
  8
0
 10
67.1489
 20
388.341
 11
66.8815
 21
388.909
  0
LINE
  8
0
 10
66.8815
 20
388.909
 11
66.5451
 21
389.439
  0
LINE
  8
0
 10
66.5451
 20
389.439
 11
66.1448
 21
389.923
  0
LINE
  8
0
 10
66.1448
 20
389.923
 11
65.6871
 21
390.353
  0
LINE
  8
0
 10
65.6871
 20
390.353
 11
65.1791
 21
390.722
  0
LINE
  8
0
 10
65.1791
 20
390.722
 11
64.6289
 21
391.024
  0
LINE
  8
0
 10
64.6289
 20
391.024
 11
64.0451
 21
391.255
  0
LINE
  8
0
 10
64.0451
 20
391.255
 11
63.4369
 21
391.411
  0
LINE
  8
0
 10
63.4369
 20
391.411
 11
62.8139
 21
391.49
  0
LINE
  8
0
 10
62.8139
 20
391.49
 11
-62.8139
 21
391.49
  0
LINE
  8
0
 10
-62.8139
 20
391.49
 11
-63.4369
 21
391.411
  0
LINE
  8
0
 10
-63.4369
 20
391.411
 11
-64.0451
 21
391.255
  0
LINE
  8
0
 10
-64.0451
 20
391.255
 11
-64.6289
 21
391.024
  0
LINE
  8
0
 10
-64.6289
 20
391.024
 11
-65.1791
 21
390.722
  0
LINE
  8
0
 10
-65.1791
 20
390.722
 11
-65.6871
 21
390.353
  0
LINE
  8
0
 10
-65.6871
 20
390.353
 11
-66.1448
 21
389.923
  0
LINE
  8
0
 10
-66.1448
 20
389.923
 11
-66.5451
 21
389.439
  0
LINE
  8
0
 10
-66.5451
 20
389.439
 11
-66.8815
 21
388.909
  0
LINE
  8
0
 10
-66.8815
 20
388.909
 11
-67.1489
 21
388.341
  0
LINE
  8
0
 10
-67.1489
 20
388.341
 11
-67.3429
 21
387.743
  0
LINE
  8
0
 10
-67.3429
 20
387.743
 11
-67.4606
 21
387.127
  0
LINE
  8
0
 10
-67.4606
 20
387.127
 11
-67.5
 21
386.5
  0
LINE
  8
0
 10
-67.5
 20
386.5
 11
-67.5
 21
381.5
  0
LINE
  8
0
 10
-67.5
 20
381.5
 11
-67.4606
 21
380.873
  0
LINE
  8
0
 10
-67.4606
 20
380.873
 11
-67.3429
 21
380.257
  0
LINE
  8
0
 10
-67.3429
 20
380.257
 11
-67.1489
 21
379.659
  0
LINE
  8
0
 10
-67.1489
 20
379.659
 11
-66.8815
 21
379.091
  0
LINE
  8
0
 10
-66.8815
 20
379.091
 11
-66.5451
 21
378.561
  0
LINE
  8
0
 10
-66.5451
 20
378.561
 11
-66.1448
 21
378.077
  0
LINE
  8
0
 10
-66.1448
 20
378.077
 11
-65.6871
 21
377.647
  0
LINE
  8
0
 10
-65.6871
 20
377.647
 11
-65.1791
 21
377.278
  0
LINE
  8
0
 10
-65.1791
 20
377.278
 11
-64.6289
 21
376.976
  0
LINE
  8
0
 10
-64.6289
 20
376.976
 11
-64.0451
 21
376.745
  0
LINE
  8
0
 10
-64.0451
 20
376.745
 11
-63.4369
 21
376.589
  0
LINE
  8
0
 10
-63.4369
 20
376.589
 11
-62.8139
 21
376.51
  0
LINE
  8
0
 10
-62.8139
 20
376.51
 11
62.8139
 21
376.51
  0
LINE
  8
0
 10
62.8139
 20
376.51
 11
63.4369
 21
376.589
  0
LINE
  8
0
 10
-62.5482
 20
377.009
 11
-63.1401
 21
377.084
  0
LINE
  8
0
 10
-63.1401
 20
377.084
 11
-63.7178
 21
377.232
  0
LINE
  8
0
 10
-63.7178
 20
377.232
 11
-64.2724
 21
377.452
  0
LINE
  8
0
 10
-64.2724
 20
377.452
 11
-64.7952
 21
377.739
  0
LINE
  8
0
 10
-64.7952
 20
377.739
 11
-65.2778
 21
378.09
  0
LINE
  8
0
 10
-65.2778
 20
378.09
 11
-65.7126
 21
378.498
  0
LINE
  8
0
 10
-65.7126
 20
378.498
 11
-66.0928
 21
378.958
  0
LINE
  8
0
 10
-66.0928
 20
378.958
 11
-66.4125
 21
379.462
  0
LINE
  8
0
 10
-66.4125
 20
379.462
 11
-66.6664
 21
380.001
  0
LINE
  8
0
 10
-66.6664
 20
380.001
 11
-66.8508
 21
380.569
  0
LINE
  8
0
 10
-66.8508
 20
380.569
 11
-66.9625
 21
381.155
  0
LINE
  8
0
 10
-66.9625
 20
381.155
 11
-67
 21
381.75
  0
LINE
  8
0
 10
-67
 20
381.75
 11
-67
 21
386.25
  0
LINE
  8
0
 10
-67
 20
386.25
 11
-66.9625
 21
386.845
  0
LINE
  8
0
 10
-66.9625
 20
386.845
 11
-66.8508
 21
387.431
  0
LINE
  8
0
 10
-66.8508
 20
387.431
 11
-66.6664
 21
387.999
  0
LINE
  8
0
 10
-66.6664
 20
387.999
 11
-66.4125
 21
388.538
  0
LINE
  8
0
 10
-66.4125
 20
388.538
 11
-66.0928
 21
389.042
  0
LINE
  8
0
 10
-66.0928
 20
389.042
 11
-65.7126
 21
389.502
  0
LINE
  8
0
 10
-65.7126
 20
389.502
 11
-65.2778
 21
389.91
  0
LINE
  8
0
 10
-65.2778
 20
389.91
 11
-64.7952
 21
390.261
  0
LINE
  8
0
 10
-64.7952
 20
390.261
 11
-64.2724
 21
390.548
  0
LINE
  8
0
 10
-64.2724
 20
390.548
 11
-63.7178
 21
390.768
  0
LINE
  8
0
 10
-63.7178
 20
390.768
 11
-63.1401
 21
390.916
  0
LINE
  8
0
 10
-63.1401
 20
390.916
 11
-62.5482
 21
390.991
  0
LINE
  8
0
 10
-62.5482
 20
390.991
 11
62.5482
 21
390.991
  0
LINE
  8
0
 10
62.5482
 20
390.991
 11
63.1401
 21
390.916
  0
LINE
  8
0
 10
63.1401
 20
390.916
 11
63.7178
 21
390.768
  0
LINE
  8
0
 10
63.7178
 20
390.768
 11
64.2724
 21
390.548
  0
LINE
  8
0
 10
64.2724
 20
390.548
 11
64.7952
 21
390.261
  0
LINE
  8
0
 10
64.7952
 20
390.261
 11
65.2778
 21
389.91
  0
LINE
  8
0
 10
65.2778
 20
389.91
 11
65.7126
 21
389.502
  0
LINE
  8
0
 10
65.7126
 20
389.502
 11
66.0928
 21
389.042
  0
LINE
  8
0
 10
66.0928
 20
389.042
 11
66.4125
 21
388.538
  0
LINE
  8
0
 10
66.4125
 20
388.538
 11
66.6664
 21
387.999
  0
LINE
  8
0
 10
66.6664
 20
387.999
 11
66.8508
 21
387.431
  0
LINE
  8
0
 10
66.8508
 20
387.431
 11
66.9625
 21
386.845
  0
LINE
  8
0
 10
66.9625
 20
386.845
 11
67
 21
386.25
  0
LINE
  8
0
 10
67
 20
386.25
 11
67
 21
381.75
  0
LINE
  8
0
 10
67
 20
381.75
 11
66.9625
 21
381.155
  0
LINE
  8
0
 10
66.9625
 20
381.155
 11
66.8508
 21
380.569
  0
LINE
  8
0
 10
66.8508
 20
380.569
 11
66.6664
 21
380.001
  0
LINE
  8
0
 10
66.6664
 20
380.001
 11
66.4125
 21
379.462
  0
LINE
  8
0
 10
66.4125
 20
379.462
 11
66.0928
 21
378.958
  0
LINE
  8
0
 10
66.0928
 20
378.958
 11
65.7126
 21
378.498
  0
LINE
  8
0
 10
65.7126
 20
378.498
 11
65.2778
 21
378.09
  0
LINE
  8
0
 10
65.2778
 20
378.09
 11
64.7952
 21
377.739
  0
LINE
  8
0
 10
64.7952
 20
377.739
 11
64.2724
 21
377.452
  0
LINE
  8
0
 10
64.2724
 20
377.452
 11
63.7178
 21
377.232
  0
LINE
  8
0
 10
63.7178
 20
377.232
 11
63.1401
 21
377.084
  0
LINE
  8
0
 10
63.1401
 20
377.084
 11
62.5482
 21
377.009
  0
LINE
  8
0
 10
62.5482
 20
377.009
 11
-62.5482
 21
377.009
  0
LINE
  8
0
 10
63.4369
 20
352.589
 11
64.0451
 21
352.745
  0
LINE
  8
0
 10
64.0451
 20
352.745
 11
64.6289
 21
352.976
  0
LINE
  8
0
 10
64.6289
 20
352.976
 11
65.1791
 21
353.278
  0
LINE
  8
0
 10
65.1791
 20
353.278
 11
65.6871
 21
353.647
  0
LINE
  8
0
 10
65.6871
 20
353.647
 11
66.1448
 21
354.077
  0
LINE
  8
0
 10
66.1448
 20
354.077
 11
66.5451
 21
354.561
  0
LINE
  8
0
 10
66.5451
 20
354.561
 11
66.8815
 21
355.091
  0
LINE
  8
0
 10
66.8815
 20
355.091
 11
67.1489
 21
355.659
  0
LINE
  8
0
 10
67.1489
 20
355.659
 11
67.3429
 21
356.257
  0
LINE
  8
0
 10
67.3429
 20
356.257
 11
67.4606
 21
356.873
  0
LINE
  8
0
 10
67.4606
 20
356.873
 11
67.5
 21
357.5
  0
LINE
  8
0
 10
67.5
 20
357.5
 11
67.5
 21
362.5
  0
LINE
  8
0
 10
67.5
 20
362.5
 11
67.4606
 21
363.127
  0
LINE
  8
0
 10
67.4606
 20
363.127
 11
67.3429
 21
363.743
  0
LINE
  8
0
 10
67.3429
 20
363.743
 11
67.1489
 21
364.341
  0
LINE
  8
0
 10
67.1489
 20
364.341
 11
66.8815
 21
364.909
  0
LINE
  8
0
 10
66.8815
 20
364.909
 11
66.5451
 21
365.439
  0
LINE
  8
0
 10
66.5451
 20
365.439
 11
66.1448
 21
365.923
  0
LINE
  8
0
 10
66.1448
 20
365.923
 11
65.6871
 21
366.353
  0
LINE
  8
0
 10
65.6871
 20
366.353
 11
65.1791
 21
366.722
  0
LINE
  8
0
 10
65.1791
 20
366.722
 11
64.6289
 21
367.024
  0
LINE
  8
0
 10
64.6289
 20
367.024
 11
64.0451
 21
367.255
  0
LINE
  8
0
 10
64.0451
 20
367.255
 11
63.4369
 21
367.411
  0
LINE
  8
0
 10
63.4369
 20
367.411
 11
62.8139
 21
367.49
  0
LINE
  8
0
 10
62.8139
 20
367.49
 11
-62.8139
 21
367.49
  0
LINE
  8
0
 10
-62.8139
 20
367.49
 11
-63.4369
 21
367.411
  0
LINE
  8
0
 10
-63.4369
 20
367.411
 11
-64.0451
 21
367.255
  0
LINE
  8
0
 10
-64.0451
 20
367.255
 11
-64.6289
 21
367.024
  0
LINE
  8
0
 10
-64.6289
 20
367.024
 11
-65.1791
 21
366.722
  0
LINE
  8
0
 10
-65.1791
 20
366.722
 11
-65.6871
 21
366.353
  0
LINE
  8
0
 10
-65.6871
 20
366.353
 11
-66.1448
 21
365.923
  0
LINE
  8
0
 10
-66.1448
 20
365.923
 11
-66.5451
 21
365.439
  0
LINE
  8
0
 10
-66.5451
 20
365.439
 11
-66.8815
 21
364.909
  0
LINE
  8
0
 10
-66.8815
 20
364.909
 11
-67.1489
 21
364.341
  0
LINE
  8
0
 10
-67.1489
 20
364.341
 11
-67.3429
 21
363.743
  0
LINE
  8
0
 10
-67.3429
 20
363.743
 11
-67.4606
 21
363.127
  0
LINE
  8
0
 10
-67.4606
 20
363.127
 11
-67.5
 21
362.5
  0
LINE
  8
0
 10
-67.5
 20
362.5
 11
-67.5
 21
357.5
  0
LINE
  8
0
 10
-67.5
 20
357.5
 11
-67.4606
 21
356.873
  0
LINE
  8
0
 10
-67.4606
 20
356.873
 11
-67.3429
 21
356.257
  0
LINE
  8
0
 10
-67.3429
 20
356.257
 11
-67.1489
 21
355.659
  0
LINE
  8
0
 10
-67.1489
 20
355.659
 11
-66.8815
 21
355.091
  0
LINE
  8
0
 10
-66.8815
 20
355.091
 11
-66.5451
 21
354.561
  0
LINE
  8
0
 10
-66.5451
 20
354.561
 11
-66.1448
 21
354.077
  0
LINE
  8
0
 10
-66.1448
 20
354.077
 11
-65.6871
 21
353.647
  0
LINE
  8
0
 10
-65.6871
 20
353.647
 11
-65.1791
 21
353.278
  0
LINE
  8
0
 10
-65.1791
 20
353.278
 11
-64.6289
 21
352.976
  0
LINE
  8
0
 10
-64.6289
 20
352.976
 11
-64.0451
 21
352.745
  0
LINE
  8
0
 10
-64.0451
 20
352.745
 11
-63.4369
 21
352.589
  0
LINE
  8
0
 10
-63.4369
 20
352.589
 11
-62.8139
 21
352.51
  0
LINE
  8
0
 10
-62.8139
 20
352.51
 11
62.8139
 21
352.51
  0
LINE
  8
0
 10
62.8139
 20
352.51
 11
63.4369
 21
352.589
  0
LINE
  8
0
 10
-62.5482
 20
353.009
 11
-63.1401
 21
353.084
  0
LINE
  8
0
 10
-63.1401
 20
353.084
 11
-63.7178
 21
353.232
  0
LINE
  8
0
 10
-63.7178
 20
353.232
 11
-64.2724
 21
353.452
  0
LINE
  8
0
 10
-64.2724
 20
353.452
 11
-64.7952
 21
353.739
  0
LINE
  8
0
 10
-64.7952
 20
353.739
 11
-65.2778
 21
354.09
  0
LINE
  8
0
 10
-65.2778
 20
354.09
 11
-65.7126
 21
354.498
  0
LINE
  8
0
 10
-65.7126
 20
354.498
 11
-66.0928
 21
354.958
  0
LINE
  8
0
 10
-66.0928
 20
354.958
 11
-66.4125
 21
355.462
  0
LINE
  8
0
 10
-66.4125
 20
355.462
 11
-66.6664
 21
356.001
  0
LINE
  8
0
 10
-66.6664
 20
356.001
 11
-66.8508
 21
356.569
  0
LINE
  8
0
 10
-66.8508
 20
356.569
 11
-66.9625
 21
357.155
  0
LINE
  8
0
 10
-66.9625
 20
357.155
 11
-67
 21
357.75
  0
LINE
  8
0
 10
-67
 20
357.75
 11
-67
 21
362.25
  0
LINE
  8
0
 10
-67
 20
362.25
 11
-66.9625
 21
362.845
  0
LINE
  8
0
 10
-66.9625
 20
362.845
 11
-66.8508
 21
363.431
  0
LINE
  8
0
 10
-66.8508
 20
363.431
 11
-66.6664
 21
363.999
  0
LINE
  8
0
 10
-66.6664
 20
363.999
 11
-66.4125
 21
364.538
  0
LINE
  8
0
 10
-66.4125
 20
364.538
 11
-66.0928
 21
365.042
  0
LINE
  8
0
 10
-66.0928
 20
365.042
 11
-65.7126
 21
365.502
  0
LINE
  8
0
 10
-65.7126
 20
365.502
 11
-65.2778
 21
365.91
  0
LINE
  8
0
 10
-65.2778
 20
365.91
 11
-64.7952
 21
366.261
  0
LINE
  8
0
 10
-64.7952
 20
366.261
 11
-64.2724
 21
366.548
  0
LINE
  8
0
 10
-64.2724
 20
366.548
 11
-63.7178
 21
366.768
  0
LINE
  8
0
 10
-63.7178
 20
366.768
 11
-63.1401
 21
366.916
  0
LINE
  8
0
 10
-63.1401
 20
366.916
 11
-62.5482
 21
366.991
  0
LINE
  8
0
 10
-62.5482
 20
366.991
 11
62.5482
 21
366.991
  0
LINE
  8
0
 10
62.5482
 20
366.991
 11
63.1401
 21
366.916
  0
LINE
  8
0
 10
63.1401
 20
366.916
 11
63.7178
 21
366.768
  0
LINE
  8
0
 10
63.7178
 20
366.768
 11
64.2724
 21
366.548
  0
LINE
  8
0
 10
64.2724
 20
366.548
 11
64.7952
 21
366.261
  0
LINE
  8
0
 10
64.7952
 20
366.261
 11
65.2778
 21
365.91
  0
LINE
  8
0
 10
65.2778
 20
365.91
 11
65.7126
 21
365.502
  0
LINE
  8
0
 10
65.7126
 20
365.502
 11
66.0928
 21
365.042
  0
LINE
  8
0
 10
66.0928
 20
365.042
 11
66.4125
 21
364.538
  0
LINE
  8
0
 10
66.4125
 20
364.538
 11
66.6664
 21
363.999
  0
LINE
  8
0
 10
66.6664
 20
363.999
 11
66.8508
 21
363.431
  0
LINE
  8
0
 10
66.8508
 20
363.431
 11
66.9625
 21
362.845
  0
LINE
  8
0
 10
66.9625
 20
362.845
 11
67
 21
362.25
  0
LINE
  8
0
 10
67
 20
362.25
 11
67
 21
357.75
  0
LINE
  8
0
 10
67
 20
357.75
 11
66.9625
 21
357.155
  0
LINE
  8
0
 10
66.9625
 20
357.155
 11
66.8508
 21
356.569
  0
LINE
  8
0
 10
66.8508
 20
356.569
 11
66.6664
 21
356.001
  0
LINE
  8
0
 10
66.6664
 20
356.001
 11
66.4125
 21
355.462
  0
LINE
  8
0
 10
66.4125
 20
355.462
 11
66.0928
 21
354.958
  0
LINE
  8
0
 10
66.0928
 20
354.958
 11
65.7126
 21
354.498
  0
LINE
  8
0
 10
65.7126
 20
354.498
 11
65.2778
 21
354.09
  0
LINE
  8
0
 10
65.2778
 20
354.09
 11
64.7952
 21
353.739
  0
LINE
  8
0
 10
64.7952
 20
353.739
 11
64.2724
 21
353.452
  0
LINE
  8
0
 10
64.2724
 20
353.452
 11
63.7178
 21
353.232
  0
LINE
  8
0
 10
63.7178
 20
353.232
 11
63.1401
 21
353.084
  0
LINE
  8
0
 10
63.1401
 20
353.084
 11
62.5482
 21
353.009
  0
LINE
  8
0
 10
62.5482
 20
353.009
 11
-62.5482
 21
353.009
  0
LINE
  8
0
 10
63.4369
 20
328.589
 11
64.0451
 21
328.745
  0
LINE
  8
0
 10
64.0451
 20
328.745
 11
64.6289
 21
328.976
  0
LINE
  8
0
 10
64.6289
 20
328.976
 11
65.1791
 21
329.278
  0
LINE
  8
0
 10
65.1791
 20
329.278
 11
65.6871
 21
329.647
  0
LINE
  8
0
 10
65.6871
 20
329.647
 11
66.1448
 21
330.077
  0
LINE
  8
0
 10
66.1448
 20
330.077
 11
66.5451
 21
330.561
  0
LINE
  8
0
 10
66.5451
 20
330.561
 11
66.8815
 21
331.091
  0
LINE
  8
0
 10
66.8815
 20
331.091
 11
67.1489
 21
331.659
  0
LINE
  8
0
 10
67.1489
 20
331.659
 11
67.3429
 21
332.257
  0
LINE
  8
0
 10
67.3429
 20
332.257
 11
67.4606
 21
332.873
  0
LINE
  8
0
 10
67.4606
 20
332.873
 11
67.5
 21
333.5
  0
LINE
  8
0
 10
67.5
 20
333.5
 11
67.5
 21
338.5
  0
LINE
  8
0
 10
67.5
 20
338.5
 11
67.4606
 21
339.127
  0
LINE
  8
0
 10
67.4606
 20
339.127
 11
67.3429
 21
339.743
  0
LINE
  8
0
 10
67.3429
 20
339.743
 11
67.1489
 21
340.341
  0
LINE
  8
0
 10
67.1489
 20
340.341
 11
66.8815
 21
340.909
  0
LINE
  8
0
 10
66.8815
 20
340.909
 11
66.5451
 21
341.439
  0
LINE
  8
0
 10
66.5451
 20
341.439
 11
66.1448
 21
341.923
  0
LINE
  8
0
 10
66.1448
 20
341.923
 11
65.6871
 21
342.353
  0
LINE
  8
0
 10
65.6871
 20
342.353
 11
65.1791
 21
342.722
  0
LINE
  8
0
 10
65.1791
 20
342.722
 11
64.6289
 21
343.024
  0
LINE
  8
0
 10
64.6289
 20
343.024
 11
64.0451
 21
343.255
  0
LINE
  8
0
 10
64.0451
 20
343.255
 11
63.4369
 21
343.411
  0
LINE
  8
0
 10
63.4369
 20
343.411
 11
62.8139
 21
343.49
  0
LINE
  8
0
 10
62.8139
 20
343.49
 11
-62.8139
 21
343.49
  0
LINE
  8
0
 10
-62.8139
 20
343.49
 11
-63.4369
 21
343.411
  0
LINE
  8
0
 10
-63.4369
 20
343.411
 11
-64.0451
 21
343.255
  0
LINE
  8
0
 10
-64.0451
 20
343.255
 11
-64.6289
 21
343.024
  0
LINE
  8
0
 10
-64.6289
 20
343.024
 11
-65.1791
 21
342.722
  0
LINE
  8
0
 10
-65.1791
 20
342.722
 11
-65.6871
 21
342.353
  0
LINE
  8
0
 10
-65.6871
 20
342.353
 11
-66.1448
 21
341.923
  0
LINE
  8
0
 10
-66.1448
 20
341.923
 11
-66.5451
 21
341.439
  0
LINE
  8
0
 10
-66.5451
 20
341.439
 11
-66.8815
 21
340.909
  0
LINE
  8
0
 10
-66.8815
 20
340.909
 11
-67.1489
 21
340.341
  0
LINE
  8
0
 10
-67.1489
 20
340.341
 11
-67.3429
 21
339.743
  0
LINE
  8
0
 10
-67.3429
 20
339.743
 11
-67.4606
 21
339.127
  0
LINE
  8
0
 10
-67.4606
 20
339.127
 11
-67.5
 21
338.5
  0
LINE
  8
0
 10
-67.5
 20
338.5
 11
-67.5
 21
333.5
  0
LINE
  8
0
 10
-67.5
 20
333.5
 11
-67.4606
 21
332.873
  0
LINE
  8
0
 10
-67.4606
 20
332.873
 11
-67.3429
 21
332.257
  0
LINE
  8
0
 10
-67.3429
 20
332.257
 11
-67.1489
 21
331.659
  0
LINE
  8
0
 10
-67.1489
 20
331.659
 11
-66.8815
 21
331.091
  0
LINE
  8
0
 10
-66.8815
 20
331.091
 11
-66.5451
 21
330.561
  0
LINE
  8
0
 10
-66.5451
 20
330.561
 11
-66.1448
 21
330.077
  0
LINE
  8
0
 10
-66.1448
 20
330.077
 11
-65.6871
 21
329.647
  0
LINE
  8
0
 10
-65.6871
 20
329.647
 11
-65.1791
 21
329.278
  0
LINE
  8
0
 10
-65.1791
 20
329.278
 11
-64.6289
 21
328.976
  0
LINE
  8
0
 10
-64.6289
 20
328.976
 11
-64.0451
 21
328.745
  0
LINE
  8
0
 10
-64.0451
 20
328.745
 11
-63.4369
 21
328.589
  0
LINE
  8
0
 10
-63.4369
 20
328.589
 11
-62.8139
 21
328.51
  0
LINE
  8
0
 10
-62.8139
 20
328.51
 11
62.8139
 21
328.51
  0
LINE
  8
0
 10
62.8139
 20
328.51
 11
63.4369
 21
328.589
  0
LINE
  8
0
 10
-62.5482
 20
329.009
 11
-63.1401
 21
329.084
  0
LINE
  8
0
 10
-63.1401
 20
329.084
 11
-63.7178
 21
329.232
  0
LINE
  8
0
 10
-63.7178
 20
329.232
 11
-64.2724
 21
329.452
  0
LINE
  8
0
 10
-64.2724
 20
329.452
 11
-64.7952
 21
329.739
  0
LINE
  8
0
 10
-64.7952
 20
329.739
 11
-65.2778
 21
330.09
  0
LINE
  8
0
 10
-65.2778
 20
330.09
 11
-65.7126
 21
330.498
  0
LINE
  8
0
 10
-65.7126
 20
330.498
 11
-66.0928
 21
330.958
  0
LINE
  8
0
 10
-66.0928
 20
330.958
 11
-66.4125
 21
331.462
  0
LINE
  8
0
 10
-66.4125
 20
331.462
 11
-66.6664
 21
332.001
  0
LINE
  8
0
 10
-66.6664
 20
332.001
 11
-66.8508
 21
332.569
  0
LINE
  8
0
 10
-66.8508
 20
332.569
 11
-66.9625
 21
333.155
  0
LINE
  8
0
 10
-66.9625
 20
333.155
 11
-67
 21
333.75
  0
LINE
  8
0
 10
-67
 20
333.75
 11
-67
 21
338.25
  0
LINE
  8
0
 10
-67
 20
338.25
 11
-66.9625
 21
338.845
  0
LINE
  8
0
 10
-66.9625
 20
338.845
 11
-66.8508
 21
339.431
  0
LINE
  8
0
 10
-66.8508
 20
339.431
 11
-66.6664
 21
339.999
  0
LINE
  8
0
 10
-66.6664
 20
339.999
 11
-66.4125
 21
340.538
  0
LINE
  8
0
 10
-66.4125
 20
340.538
 11
-66.0928
 21
341.042
  0
LINE
  8
0
 10
-66.0928
 20
341.042
 11
-65.7126
 21
341.502
  0
LINE
  8
0
 10
-65.7126
 20
341.502
 11
-65.2778
 21
341.91
  0
LINE
  8
0
 10
-65.2778
 20
341.91
 11
-64.7952
 21
342.261
  0
LINE
  8
0
 10
-64.7952
 20
342.261
 11
-64.2724
 21
342.548
  0
LINE
  8
0
 10
-64.2724
 20
342.548
 11
-63.7178
 21
342.768
  0
LINE
  8
0
 10
-63.7178
 20
342.768
 11
-63.1401
 21
342.916
  0
LINE
  8
0
 10
-63.1401
 20
342.916
 11
-62.5482
 21
342.991
  0
LINE
  8
0
 10
-62.5482
 20
342.991
 11
62.5482
 21
342.991
  0
LINE
  8
0
 10
62.5482
 20
342.991
 11
63.1401
 21
342.916
  0
LINE
  8
0
 10
63.1401
 20
342.916
 11
63.7178
 21
342.768
  0
LINE
  8
0
 10
63.7178
 20
342.768
 11
64.2724
 21
342.548
  0
LINE
  8
0
 10
64.2724
 20
342.548
 11
64.7952
 21
342.261
  0
LINE
  8
0
 10
64.7952
 20
342.261
 11
65.2778
 21
341.91
  0
LINE
  8
0
 10
65.2778
 20
341.91
 11
65.7126
 21
341.502
  0
LINE
  8
0
 10
65.7126
 20
341.502
 11
66.0928
 21
341.042
  0
LINE
  8
0
 10
66.0928
 20
341.042
 11
66.4125
 21
340.538
  0
LINE
  8
0
 10
66.4125
 20
340.538
 11
66.6664
 21
339.999
  0
LINE
  8
0
 10
66.6664
 20
339.999
 11
66.8508
 21
339.431
  0
LINE
  8
0
 10
66.8508
 20
339.431
 11
66.9625
 21
338.845
  0
LINE
  8
0
 10
66.9625
 20
338.845
 11
67
 21
338.25
  0
LINE
  8
0
 10
67
 20
338.25
 11
67
 21
333.75
  0
LINE
  8
0
 10
67
 20
333.75
 11
66.9625
 21
333.155
  0
LINE
  8
0
 10
66.9625
 20
333.155
 11
66.8508
 21
332.569
  0
LINE
  8
0
 10
66.8508
 20
332.569
 11
66.6664
 21
332.001
  0
LINE
  8
0
 10
66.6664
 20
332.001
 11
66.4125
 21
331.462
  0
LINE
  8
0
 10
66.4125
 20
331.462
 11
66.0928
 21
330.958
  0
LINE
  8
0
 10
66.0928
 20
330.958
 11
65.7126
 21
330.498
  0
LINE
  8
0
 10
65.7126
 20
330.498
 11
65.2778
 21
330.09
  0
LINE
  8
0
 10
65.2778
 20
330.09
 11
64.7952
 21
329.739
  0
LINE
  8
0
 10
64.7952
 20
329.739
 11
64.2724
 21
329.452
  0
LINE
  8
0
 10
64.2724
 20
329.452
 11
63.7178
 21
329.232
  0
LINE
  8
0
 10
63.7178
 20
329.232
 11
63.1401
 21
329.084
  0
LINE
  8
0
 10
63.1401
 20
329.084
 11
62.5482
 21
329.009
  0
LINE
  8
0
 10
62.5482
 20
329.009
 11
-62.5482
 21
329.009
  0
LINE
  8
0
 10
63.4369
 20
304.589
 11
64.0451
 21
304.745
  0
LINE
  8
0
 10
64.0451
 20
304.745
 11
64.6289
 21
304.976
  0
LINE
  8
0
 10
64.6289
 20
304.976
 11
65.1791
 21
305.278
  0
LINE
  8
0
 10
65.1791
 20
305.278
 11
65.6871
 21
305.647
  0
LINE
  8
0
 10
65.6871
 20
305.647
 11
66.1448
 21
306.077
  0
LINE
  8
0
 10
66.1448
 20
306.077
 11
66.5451
 21
306.561
  0
LINE
  8
0
 10
66.5451
 20
306.561
 11
66.8815
 21
307.091
  0
LINE
  8
0
 10
66.8815
 20
307.091
 11
67.1489
 21
307.659
  0
LINE
  8
0
 10
67.1489
 20
307.659
 11
67.3429
 21
308.257
  0
LINE
  8
0
 10
67.3429
 20
308.257
 11
67.4606
 21
308.873
  0
LINE
  8
0
 10
67.4606
 20
308.873
 11
67.5
 21
309.5
  0
LINE
  8
0
 10
67.5
 20
309.5
 11
67.5
 21
314.5
  0
LINE
  8
0
 10
67.5
 20
314.5
 11
67.4606
 21
315.127
  0
LINE
  8
0
 10
67.4606
 20
315.127
 11
67.3429
 21
315.743
  0
LINE
  8
0
 10
67.3429
 20
315.743
 11
67.1489
 21
316.341
  0
LINE
  8
0
 10
67.1489
 20
316.341
 11
66.8815
 21
316.909
  0
LINE
  8
0
 10
66.8815
 20
316.909
 11
66.5451
 21
317.439
  0
LINE
  8
0
 10
66.5451
 20
317.439
 11
66.1448
 21
317.923
  0
LINE
  8
0
 10
66.1448
 20
317.923
 11
65.6871
 21
318.353
  0
LINE
  8
0
 10
65.6871
 20
318.353
 11
65.1791
 21
318.722
  0
LINE
  8
0
 10
65.1791
 20
318.722
 11
64.6289
 21
319.024
  0
LINE
  8
0
 10
64.6289
 20
319.024
 11
64.0451
 21
319.255
  0
LINE
  8
0
 10
64.0451
 20
319.255
 11
63.4369
 21
319.411
  0
LINE
  8
0
 10
63.4369
 20
319.411
 11
62.8139
 21
319.49
  0
LINE
  8
0
 10
62.8139
 20
319.49
 11
-62.8139
 21
319.49
  0
LINE
  8
0
 10
-62.8139
 20
319.49
 11
-63.4369
 21
319.411
  0
LINE
  8
0
 10
-63.4369
 20
319.411
 11
-64.0451
 21
319.255
  0
LINE
  8
0
 10
-64.0451
 20
319.255
 11
-64.6289
 21
319.024
  0
LINE
  8
0
 10
-64.6289
 20
319.024
 11
-65.1791
 21
318.722
  0
LINE
  8
0
 10
-65.1791
 20
318.722
 11
-65.6871
 21
318.353
  0
LINE
  8
0
 10
-65.6871
 20
318.353
 11
-66.1448
 21
317.923
  0
LINE
  8
0
 10
-66.1448
 20
317.923
 11
-66.5451
 21
317.439
  0
LINE
  8
0
 10
-66.5451
 20
317.439
 11
-66.8815
 21
316.909
  0
LINE
  8
0
 10
-66.8815
 20
316.909
 11
-67.1489
 21
316.341
  0
LINE
  8
0
 10
-67.1489
 20
316.341
 11
-67.3429
 21
315.743
  0
LINE
  8
0
 10
-67.3429
 20
315.743
 11
-67.4606
 21
315.127
  0
LINE
  8
0
 10
-67.4606
 20
315.127
 11
-67.5
 21
314.5
  0
LINE
  8
0
 10
-67.5
 20
314.5
 11
-67.5
 21
309.5
  0
LINE
  8
0
 10
-67.5
 20
309.5
 11
-67.4606
 21
308.873
  0
LINE
  8
0
 10
-67.4606
 20
308.873
 11
-67.3429
 21
308.257
  0
LINE
  8
0
 10
-67.3429
 20
308.257
 11
-67.1489
 21
307.659
  0
LINE
  8
0
 10
-67.1489
 20
307.659
 11
-66.8815
 21
307.091
  0
LINE
  8
0
 10
-66.8815
 20
307.091
 11
-66.5451
 21
306.561
  0
LINE
  8
0
 10
-66.5451
 20
306.561
 11
-66.1448
 21
306.077
  0
LINE
  8
0
 10
-66.1448
 20
306.077
 11
-65.6871
 21
305.647
  0
LINE
  8
0
 10
-65.6871
 20
305.647
 11
-65.1791
 21
305.278
  0
LINE
  8
0
 10
-65.1791
 20
305.278
 11
-64.6289
 21
304.976
  0
LINE
  8
0
 10
-64.6289
 20
304.976
 11
-64.0451
 21
304.745
  0
LINE
  8
0
 10
-64.0451
 20
304.745
 11
-63.4369
 21
304.589
  0
LINE
  8
0
 10
-63.4369
 20
304.589
 11
-62.8139
 21
304.51
  0
LINE
  8
0
 10
-62.8139
 20
304.51
 11
62.8139
 21
304.51
  0
LINE
  8
0
 10
62.8139
 20
304.51
 11
63.4369
 21
304.589
  0
LINE
  8
0
 10
-62.5482
 20
305.009
 11
-63.1401
 21
305.084
  0
LINE
  8
0
 10
-63.1401
 20
305.084
 11
-63.7178
 21
305.232
  0
LINE
  8
0
 10
-63.7178
 20
305.232
 11
-64.2724
 21
305.452
  0
LINE
  8
0
 10
-64.2724
 20
305.452
 11
-64.7952
 21
305.739
  0
LINE
  8
0
 10
-64.7952
 20
305.739
 11
-65.2778
 21
306.09
  0
LINE
  8
0
 10
-65.2778
 20
306.09
 11
-65.7126
 21
306.498
  0
LINE
  8
0
 10
-65.7126
 20
306.498
 11
-66.0928
 21
306.958
  0
LINE
  8
0
 10
-66.0928
 20
306.958
 11
-66.4125
 21
307.462
  0
LINE
  8
0
 10
-66.4125
 20
307.462
 11
-66.6664
 21
308.001
  0
LINE
  8
0
 10
-66.6664
 20
308.001
 11
-66.8508
 21
308.569
  0
LINE
  8
0
 10
-66.8508
 20
308.569
 11
-66.9625
 21
309.155
  0
LINE
  8
0
 10
-66.9625
 20
309.155
 11
-67
 21
309.75
  0
LINE
  8
0
 10
-67
 20
309.75
 11
-67
 21
314.25
  0
LINE
  8
0
 10
-67
 20
314.25
 11
-66.9625
 21
314.845
  0
LINE
  8
0
 10
-66.9625
 20
314.845
 11
-66.8508
 21
315.431
  0
LINE
  8
0
 10
-66.8508
 20
315.431
 11
-66.6664
 21
315.999
  0
LINE
  8
0
 10
-66.6664
 20
315.999
 11
-66.4125
 21
316.538
  0
LINE
  8
0
 10
-66.4125
 20
316.538
 11
-66.0928
 21
317.042
  0
LINE
  8
0
 10
-66.0928
 20
317.042
 11
-65.7126
 21
317.502
  0
LINE
  8
0
 10
-65.7126
 20
317.502
 11
-65.2778
 21
317.91
  0
LINE
  8
0
 10
-65.2778
 20
317.91
 11
-64.7952
 21
318.261
  0
LINE
  8
0
 10
-64.7952
 20
318.261
 11
-64.2724
 21
318.548
  0
LINE
  8
0
 10
-64.2724
 20
318.548
 11
-63.7178
 21
318.768
  0
LINE
  8
0
 10
-63.7178
 20
318.768
 11
-63.1401
 21
318.916
  0
LINE
  8
0
 10
-63.1401
 20
318.916
 11
-62.5482
 21
318.991
  0
LINE
  8
0
 10
-62.5482
 20
318.991
 11
62.5482
 21
318.991
  0
LINE
  8
0
 10
62.5482
 20
318.991
 11
63.1401
 21
318.916
  0
LINE
  8
0
 10
63.1401
 20
318.916
 11
63.7178
 21
318.768
  0
LINE
  8
0
 10
63.7178
 20
318.768
 11
64.2724
 21
318.548
  0
LINE
  8
0
 10
64.2724
 20
318.548
 11
64.7952
 21
318.261
  0
LINE
  8
0
 10
64.7952
 20
318.261
 11
65.2778
 21
317.91
  0
LINE
  8
0
 10
65.2778
 20
317.91
 11
65.7126
 21
317.502
  0
LINE
  8
0
 10
65.7126
 20
317.502
 11
66.0928
 21
317.042
  0
LINE
  8
0
 10
66.0928
 20
317.042
 11
66.4125
 21
316.538
  0
LINE
  8
0
 10
66.4125
 20
316.538
 11
66.6664
 21
315.999
  0
LINE
  8
0
 10
66.6664
 20
315.999
 11
66.8508
 21
315.431
  0
LINE
  8
0
 10
66.8508
 20
315.431
 11
66.9625
 21
314.845
  0
LINE
  8
0
 10
66.9625
 20
314.845
 11
67
 21
314.25
  0
LINE
  8
0
 10
67
 20
314.25
 11
67
 21
309.75
  0
LINE
  8
0
 10
67
 20
309.75
 11
66.9625
 21
309.155
  0
LINE
  8
0
 10
66.9625
 20
309.155
 11
66.8508
 21
308.569
  0
LINE
  8
0
 10
66.8508
 20
308.569
 11
66.6664
 21
308.001
  0
LINE
  8
0
 10
66.6664
 20
308.001
 11
66.4125
 21
307.462
  0
LINE
  8
0
 10
66.4125
 20
307.462
 11
66.0928
 21
306.958
  0
LINE
  8
0
 10
66.0928
 20
306.958
 11
65.7126
 21
306.498
  0
LINE
  8
0
 10
65.7126
 20
306.498
 11
65.2778
 21
306.09
  0
LINE
  8
0
 10
65.2778
 20
306.09
 11
64.7952
 21
305.739
  0
LINE
  8
0
 10
64.7952
 20
305.739
 11
64.2724
 21
305.452
  0
LINE
  8
0
 10
64.2724
 20
305.452
 11
63.7178
 21
305.232
  0
LINE
  8
0
 10
63.7178
 20
305.232
 11
63.1401
 21
305.084
  0
LINE
  8
0
 10
63.1401
 20
305.084
 11
62.5482
 21
305.009
  0
LINE
  8
0
 10
62.5482
 20
305.009
 11
-62.5482
 21
305.009
  0
LINE
  8
0
 10
63.4369
 20
280.589
 11
64.0451
 21
280.745
  0
LINE
  8
0
 10
64.0451
 20
280.745
 11
64.6289
 21
280.976
  0
LINE
  8
0
 10
64.6289
 20
280.976
 11
65.1791
 21
281.278
  0
LINE
  8
0
 10
65.1791
 20
281.278
 11
65.6871
 21
281.647
  0
LINE
  8
0
 10
65.6871
 20
281.647
 11
66.1448
 21
282.077
  0
LINE
  8
0
 10
66.1448
 20
282.077
 11
66.5451
 21
282.561
  0
LINE
  8
0
 10
66.5451
 20
282.561
 11
66.8815
 21
283.091
  0
LINE
  8
0
 10
66.8815
 20
283.091
 11
67.1489
 21
283.659
  0
LINE
  8
0
 10
67.1489
 20
283.659
 11
67.3429
 21
284.257
  0
LINE
  8
0
 10
67.3429
 20
284.257
 11
67.4606
 21
284.873
  0
LINE
  8
0
 10
67.4606
 20
284.873
 11
67.5
 21
285.5
  0
LINE
  8
0
 10
67.5
 20
285.5
 11
67.5
 21
290.5
  0
LINE
  8
0
 10
67.5
 20
290.5
 11
67.4606
 21
291.127
  0
LINE
  8
0
 10
67.4606
 20
291.127
 11
67.3429
 21
291.743
  0
LINE
  8
0
 10
67.3429
 20
291.743
 11
67.1489
 21
292.341
  0
LINE
  8
0
 10
67.1489
 20
292.341
 11
66.8815
 21
292.909
  0
LINE
  8
0
 10
66.8815
 20
292.909
 11
66.5451
 21
293.439
  0
LINE
  8
0
 10
66.5451
 20
293.439
 11
66.1448
 21
293.923
  0
LINE
  8
0
 10
66.1448
 20
293.923
 11
65.6871
 21
294.353
  0
LINE
  8
0
 10
65.6871
 20
294.353
 11
65.1791
 21
294.722
  0
LINE
  8
0
 10
65.1791
 20
294.722
 11
64.6289
 21
295.024
  0
LINE
  8
0
 10
64.6289
 20
295.024
 11
64.0451
 21
295.255
  0
LINE
  8
0
 10
64.0451
 20
295.255
 11
63.4369
 21
295.411
  0
LINE
  8
0
 10
63.4369
 20
295.411
 11
62.8139
 21
295.49
  0
LINE
  8
0
 10
62.8139
 20
295.49
 11
-62.8139
 21
295.49
  0
LINE
  8
0
 10
-62.8139
 20
295.49
 11
-63.4369
 21
295.411
  0
LINE
  8
0
 10
-63.4369
 20
295.411
 11
-64.0451
 21
295.255
  0
LINE
  8
0
 10
-64.0451
 20
295.255
 11
-64.6289
 21
295.024
  0
LINE
  8
0
 10
-64.6289
 20
295.024
 11
-65.1791
 21
294.722
  0
LINE
  8
0
 10
-65.1791
 20
294.722
 11
-65.6871
 21
294.353
  0
LINE
  8
0
 10
-65.6871
 20
294.353
 11
-66.1448
 21
293.923
  0
LINE
  8
0
 10
-66.1448
 20
293.923
 11
-66.5451
 21
293.439
  0
LINE
  8
0
 10
-66.5451
 20
293.439
 11
-66.8815
 21
292.909
  0
LINE
  8
0
 10
-66.8815
 20
292.909
 11
-67.1489
 21
292.341
  0
LINE
  8
0
 10
-67.1489
 20
292.341
 11
-67.3429
 21
291.743
  0
LINE
  8
0
 10
-67.3429
 20
291.743
 11
-67.4606
 21
291.127
  0
LINE
  8
0
 10
-67.4606
 20
291.127
 11
-67.5
 21
290.5
  0
LINE
  8
0
 10
-67.5
 20
290.5
 11
-67.5
 21
285.5
  0
LINE
  8
0
 10
-67.5
 20
285.5
 11
-67.4606
 21
284.873
  0
LINE
  8
0
 10
-67.4606
 20
284.873
 11
-67.3429
 21
284.257
  0
LINE
  8
0
 10
-67.3429
 20
284.257
 11
-67.1489
 21
283.659
  0
LINE
  8
0
 10
-67.1489
 20
283.659
 11
-66.8815
 21
283.091
  0
LINE
  8
0
 10
-66.8815
 20
283.091
 11
-66.5451
 21
282.561
  0
LINE
  8
0
 10
-66.5451
 20
282.561
 11
-66.1448
 21
282.077
  0
LINE
  8
0
 10
-66.1448
 20
282.077
 11
-65.6871
 21
281.647
  0
LINE
  8
0
 10
-65.6871
 20
281.647
 11
-65.1791
 21
281.278
  0
LINE
  8
0
 10
-65.1791
 20
281.278
 11
-64.6289
 21
280.976
  0
LINE
  8
0
 10
-64.6289
 20
280.976
 11
-64.0451
 21
280.745
  0
LINE
  8
0
 10
-64.0451
 20
280.745
 11
-63.4369
 21
280.589
  0
LINE
  8
0
 10
-63.4369
 20
280.589
 11
-62.8139
 21
280.51
  0
LINE
  8
0
 10
-62.8139
 20
280.51
 11
62.8139
 21
280.51
  0
LINE
  8
0
 10
62.8139
 20
280.51
 11
63.4369
 21
280.589
  0
LINE
  8
0
 10
-62.5482
 20
281.009
 11
-63.1401
 21
281.084
  0
LINE
  8
0
 10
-63.1401
 20
281.084
 11
-63.7178
 21
281.232
  0
LINE
  8
0
 10
-63.7178
 20
281.232
 11
-64.2724
 21
281.452
  0
LINE
  8
0
 10
-64.2724
 20
281.452
 11
-64.7952
 21
281.739
  0
LINE
  8
0
 10
-64.7952
 20
281.739
 11
-65.2778
 21
282.09
  0
LINE
  8
0
 10
-65.2778
 20
282.09
 11
-65.7126
 21
282.498
  0
LINE
  8
0
 10
-65.7126
 20
282.498
 11
-66.0928
 21
282.958
  0
LINE
  8
0
 10
-66.0928
 20
282.958
 11
-66.4125
 21
283.462
  0
LINE
  8
0
 10
-66.4125
 20
283.462
 11
-66.6664
 21
284.001
  0
LINE
  8
0
 10
-66.6664
 20
284.001
 11
-66.8508
 21
284.569
  0
LINE
  8
0
 10
-66.8508
 20
284.569
 11
-66.9625
 21
285.155
  0
LINE
  8
0
 10
-66.9625
 20
285.155
 11
-67
 21
285.75
  0
LINE
  8
0
 10
-67
 20
285.75
 11
-67
 21
290.25
  0
LINE
  8
0
 10
-67
 20
290.25
 11
-66.9625
 21
290.845
  0
LINE
  8
0
 10
-66.9625
 20
290.845
 11
-66.8508
 21
291.431
  0
LINE
  8
0
 10
-66.8508
 20
291.431
 11
-66.6664
 21
291.999
  0
LINE
  8
0
 10
-66.6664
 20
291.999
 11
-66.4125
 21
292.538
  0
LINE
  8
0
 10
-66.4125
 20
292.538
 11
-66.0928
 21
293.042
  0
LINE
  8
0
 10
-66.0928
 20
293.042
 11
-65.7126
 21
293.502
  0
LINE
  8
0
 10
-65.7126
 20
293.502
 11
-65.2778
 21
293.91
  0
LINE
  8
0
 10
-65.2778
 20
293.91
 11
-64.7952
 21
294.261
  0
LINE
  8
0
 10
-64.7952
 20
294.261
 11
-64.2724
 21
294.548
  0
LINE
  8
0
 10
-64.2724
 20
294.548
 11
-63.7178
 21
294.768
  0
LINE
  8
0
 10
-63.7178
 20
294.768
 11
-63.1401
 21
294.916
  0
LINE
  8
0
 10
-63.1401
 20
294.916
 11
-62.5482
 21
294.991
  0
LINE
  8
0
 10
-62.5482
 20
294.991
 11
62.5482
 21
294.991
  0
LINE
  8
0
 10
62.5482
 20
294.991
 11
63.1401
 21
294.916
  0
LINE
  8
0
 10
63.1401
 20
294.916
 11
63.7178
 21
294.768
  0
LINE
  8
0
 10
63.7178
 20
294.768
 11
64.2724
 21
294.548
  0
LINE
  8
0
 10
64.2724
 20
294.548
 11
64.7952
 21
294.261
  0
LINE
  8
0
 10
64.7952
 20
294.261
 11
65.2778
 21
293.91
  0
LINE
  8
0
 10
65.2778
 20
293.91
 11
65.7126
 21
293.502
  0
LINE
  8
0
 10
65.7126
 20
293.502
 11
66.0928
 21
293.042
  0
LINE
  8
0
 10
66.0928
 20
293.042
 11
66.4125
 21
292.538
  0
LINE
  8
0
 10
66.4125
 20
292.538
 11
66.6664
 21
291.999
  0
LINE
  8
0
 10
66.6664
 20
291.999
 11
66.8508
 21
291.431
  0
LINE
  8
0
 10
66.8508
 20
291.431
 11
66.9625
 21
290.845
  0
LINE
  8
0
 10
66.9625
 20
290.845
 11
67
 21
290.25
  0
LINE
  8
0
 10
67
 20
290.25
 11
67
 21
285.75
  0
LINE
  8
0
 10
67
 20
285.75
 11
66.9625
 21
285.155
  0
LINE
  8
0
 10
66.9625
 20
285.155
 11
66.8508
 21
284.569
  0
LINE
  8
0
 10
66.8508
 20
284.569
 11
66.6664
 21
284.001
  0
LINE
  8
0
 10
66.6664
 20
284.001
 11
66.4125
 21
283.462
  0
LINE
  8
0
 10
66.4125
 20
283.462
 11
66.0928
 21
282.958
  0
LINE
  8
0
 10
66.0928
 20
282.958
 11
65.7126
 21
282.498
  0
LINE
  8
0
 10
65.7126
 20
282.498
 11
65.2778
 21
282.09
  0
LINE
  8
0
 10
65.2778
 20
282.09
 11
64.7952
 21
281.739
  0
LINE
  8
0
 10
64.7952
 20
281.739
 11
64.2724
 21
281.452
  0
LINE
  8
0
 10
64.2724
 20
281.452
 11
63.7178
 21
281.232
  0
LINE
  8
0
 10
63.7178
 20
281.232
 11
63.1401
 21
281.084
  0
LINE
  8
0
 10
63.1401
 20
281.084
 11
62.5482
 21
281.009
  0
LINE
  8
0
 10
62.5482
 20
281.009
 11
-62.5482
 21
281.009
  0
LINE
  8
0
 10
63.4369
 20
256.589
 11
64.0451
 21
256.745
  0
LINE
  8
0
 10
64.0451
 20
256.745
 11
64.6289
 21
256.976
  0
LINE
  8
0
 10
64.6289
 20
256.976
 11
65.1791
 21
257.278
  0
LINE
  8
0
 10
65.1791
 20
257.278
 11
65.6871
 21
257.647
  0
LINE
  8
0
 10
65.6871
 20
257.647
 11
66.1448
 21
258.077
  0
LINE
  8
0
 10
66.1448
 20
258.077
 11
66.5451
 21
258.561
  0
LINE
  8
0
 10
66.5451
 20
258.561
 11
66.8815
 21
259.091
  0
LINE
  8
0
 10
66.8815
 20
259.091
 11
67.1489
 21
259.659
  0
LINE
  8
0
 10
67.1489
 20
259.659
 11
67.3429
 21
260.257
  0
LINE
  8
0
 10
67.3429
 20
260.257
 11
67.4606
 21
260.873
  0
LINE
  8
0
 10
67.4606
 20
260.873
 11
67.5
 21
261.5
  0
LINE
  8
0
 10
67.5
 20
261.5
 11
67.5
 21
266.5
  0
LINE
  8
0
 10
67.5
 20
266.5
 11
67.4606
 21
267.127
  0
LINE
  8
0
 10
67.4606
 20
267.127
 11
67.3429
 21
267.743
  0
LINE
  8
0
 10
67.3429
 20
267.743
 11
67.1489
 21
268.341
  0
LINE
  8
0
 10
67.1489
 20
268.341
 11
66.8815
 21
268.909
  0
LINE
  8
0
 10
66.8815
 20
268.909
 11
66.5451
 21
269.439
  0
LINE
  8
0
 10
66.5451
 20
269.439
 11
66.1448
 21
269.923
  0
LINE
  8
0
 10
66.1448
 20
269.923
 11
65.6871
 21
270.353
  0
LINE
  8
0
 10
65.6871
 20
270.353
 11
65.1791
 21
270.722
  0
LINE
  8
0
 10
65.1791
 20
270.722
 11
64.6289
 21
271.024
  0
LINE
  8
0
 10
64.6289
 20
271.024
 11
64.0451
 21
271.255
  0
LINE
  8
0
 10
64.0451
 20
271.255
 11
63.4369
 21
271.411
  0
LINE
  8
0
 10
63.4369
 20
271.411
 11
62.8139
 21
271.49
  0
LINE
  8
0
 10
62.8139
 20
271.49
 11
-62.8139
 21
271.49
  0
LINE
  8
0
 10
-62.8139
 20
271.49
 11
-63.4369
 21
271.411
  0
LINE
  8
0
 10
-63.4369
 20
271.411
 11
-64.0451
 21
271.255
  0
LINE
  8
0
 10
-64.0451
 20
271.255
 11
-64.6289
 21
271.024
  0
LINE
  8
0
 10
-64.6289
 20
271.024
 11
-65.1791
 21
270.722
  0
LINE
  8
0
 10
-65.1791
 20
270.722
 11
-65.6871
 21
270.353
  0
LINE
  8
0
 10
-65.6871
 20
270.353
 11
-66.1448
 21
269.923
  0
LINE
  8
0
 10
-66.1448
 20
269.923
 11
-66.5451
 21
269.439
  0
LINE
  8
0
 10
-66.5451
 20
269.439
 11
-66.8815
 21
268.909
  0
LINE
  8
0
 10
-66.8815
 20
268.909
 11
-67.1489
 21
268.341
  0
LINE
  8
0
 10
-67.1489
 20
268.341
 11
-67.3429
 21
267.743
  0
LINE
  8
0
 10
-67.3429
 20
267.743
 11
-67.4606
 21
267.127
  0
LINE
  8
0
 10
-67.4606
 20
267.127
 11
-67.5
 21
266.5
  0
LINE
  8
0
 10
-67.5
 20
266.5
 11
-67.5
 21
261.5
  0
LINE
  8
0
 10
-67.5
 20
261.5
 11
-67.4606
 21
260.873
  0
LINE
  8
0
 10
-67.4606
 20
260.873
 11
-67.3429
 21
260.257
  0
LINE
  8
0
 10
-67.3429
 20
260.257
 11
-67.1489
 21
259.659
  0
LINE
  8
0
 10
-67.1489
 20
259.659
 11
-66.8815
 21
259.091
  0
LINE
  8
0
 10
-66.8815
 20
259.091
 11
-66.5451
 21
258.561
  0
LINE
  8
0
 10
-66.5451
 20
258.561
 11
-66.1448
 21
258.077
  0
LINE
  8
0
 10
-66.1448
 20
258.077
 11
-65.6871
 21
257.647
  0
LINE
  8
0
 10
-65.6871
 20
257.647
 11
-65.1791
 21
257.278
  0
LINE
  8
0
 10
-65.1791
 20
257.278
 11
-64.6289
 21
256.976
  0
LINE
  8
0
 10
-64.6289
 20
256.976
 11
-64.0451
 21
256.745
  0
LINE
  8
0
 10
-64.0451
 20
256.745
 11
-63.4369
 21
256.589
  0
LINE
  8
0
 10
-63.4369
 20
256.589
 11
-62.8139
 21
256.51
  0
LINE
  8
0
 10
-62.8139
 20
256.51
 11
62.8139
 21
256.51
  0
LINE
  8
0
 10
62.8139
 20
256.51
 11
63.4369
 21
256.589
  0
LINE
  8
0
 10
-62.5375
 20
257.181
 11
-63.1079
 21
257.253
  0
LINE
  8
0
 10
-63.1079
 20
257.253
 11
-63.6648
 21
257.396
  0
LINE
  8
0
 10
-63.6648
 20
257.396
 11
-64.1994
 21
257.607
  0
LINE
  8
0
 10
-64.1994
 20
257.607
 11
-64.7032
 21
257.884
  0
LINE
  8
0
 10
-64.7032
 20
257.884
 11
-65.1684
 21
258.222
  0
LINE
  8
0
 10
-65.1684
 20
258.222
 11
-65.5875
 21
258.616
  0
LINE
  8
0
 10
-65.5875
 20
258.616
 11
-65.954
 21
259.059
  0
LINE
  8
0
 10
-65.954
 20
259.059
 11
-66.2621
 21
259.544
  0
LINE
  8
0
 10
-66.2621
 20
259.544
 11
-66.5069
 21
260.065
  0
LINE
  8
0
 10
-66.5069
 20
260.065
 11
-66.6846
 21
260.611
  0
LINE
  8
0
 10
-66.6846
 20
260.611
 11
-66.7923
 21
261.176
  0
LINE
  8
0
 10
-66.7923
 20
261.176
 11
-66.8284
 21
261.75
  0
LINE
  8
0
 10
-66.8284
 20
261.75
 11
-66.8284
 21
266.25
  0
LINE
  8
0
 10
-66.8284
 20
266.25
 11
-66.7923
 21
266.824
  0
LINE
  8
0
 10
-66.7923
 20
266.824
 11
-66.6846
 21
267.389
  0
LINE
  8
0
 10
-66.6846
 20
267.389
 11
-66.5069
 21
267.935
  0
LINE
  8
0
 10
-66.5069
 20
267.935
 11
-66.2621
 21
268.456
  0
LINE
  8
0
 10
-66.2621
 20
268.456
 11
-65.954
 21
268.941
  0
LINE
  8
0
 10
-65.954
 20
268.941
 11
-65.5875
 21
269.384
  0
LINE
  8
0
 10
-65.5875
 20
269.384
 11
-65.1684
 21
269.778
  0
LINE
  8
0
 10
-65.1684
 20
269.778
 11
-64.7032
 21
270.116
  0
LINE
  8
0
 10
-64.7032
 20
270.116
 11
-64.1994
 21
270.393
  0
LINE
  8
0
 10
-64.1994
 20
270.393
 11
-63.6648
 21
270.604
  0
LINE
  8
0
 10
-63.6648
 20
270.604
 11
-63.1079
 21
270.747
  0
LINE
  8
0
 10
-63.1079
 20
270.747
 11
-62.5375
 21
270.819
  0
LINE
  8
0
 10
-62.5375
 20
270.819
 11
62.5375
 21
270.819
  0
LINE
  8
0
 10
62.5375
 20
270.819
 11
63.1079
 21
270.747
  0
LINE
  8
0
 10
63.1079
 20
270.747
 11
63.6648
 21
270.604
  0
LINE
  8
0
 10
63.6648
 20
270.604
 11
64.1994
 21
270.393
  0
LINE
  8
0
 10
64.1994
 20
270.393
 11
64.7032
 21
270.116
  0
LINE
  8
0
 10
64.7032
 20
270.116
 11
65.1684
 21
269.778
  0
LINE
  8
0
 10
65.1684
 20
269.778
 11
65.5875
 21
269.384
  0
LINE
  8
0
 10
65.5875
 20
269.384
 11
65.954
 21
268.941
  0
LINE
  8
0
 10
65.954
 20
268.941
 11
66.2621
 21
268.456
  0
LINE
  8
0
 10
66.2621
 20
268.456
 11
66.5069
 21
267.935
  0
LINE
  8
0
 10
66.5069
 20
267.935
 11
66.6846
 21
267.389
  0
LINE
  8
0
 10
66.6846
 20
267.389
 11
66.7923
 21
266.824
  0
LINE
  8
0
 10
66.7923
 20
266.824
 11
66.8284
 21
266.25
  0
LINE
  8
0
 10
66.8284
 20
266.25
 11
66.8284
 21
261.75
  0
LINE
  8
0
 10
66.8284
 20
261.75
 11
66.7923
 21
261.176
  0
LINE
  8
0
 10
66.7923
 20
261.176
 11
66.6846
 21
260.611
  0
LINE
  8
0
 10
66.6846
 20
260.611
 11
66.5069
 21
260.065
  0
LINE
  8
0
 10
66.5069
 20
260.065
 11
66.2621
 21
259.544
  0
LINE
  8
0
 10
66.2621
 20
259.544
 11
65.954
 21
259.059
  0
LINE
  8
0
 10
65.954
 20
259.059
 11
65.5875
 21
258.616
  0
LINE
  8
0
 10
65.5875
 20
258.616
 11
65.1684
 21
258.222
  0
LINE
  8
0
 10
65.1684
 20
258.222
 11
64.7032
 21
257.884
  0
LINE
  8
0
 10
64.7032
 20
257.884
 11
64.1994
 21
257.607
  0
LINE
  8
0
 10
64.1994
 20
257.607
 11
63.6648
 21
257.396
  0
LINE
  8
0
 10
63.6648
 20
257.396
 11
63.1079
 21
257.253
  0
LINE
  8
0
 10
63.1079
 20
257.253
 11
62.5375
 21
257.181
  0
LINE
  8
0
 10
62.5375
 20
257.181
 11
-62.5375
 21
257.181
  0
LINE
  8
0
 10
63.4369
 20
232.589
 11
64.0451
 21
232.745
  0
LINE
  8
0
 10
64.0451
 20
232.745
 11
64.6289
 21
232.976
  0
LINE
  8
0
 10
64.6289
 20
232.976
 11
65.1791
 21
233.278
  0
LINE
  8
0
 10
65.1791
 20
233.278
 11
65.6871
 21
233.647
  0
LINE
  8
0
 10
65.6871
 20
233.647
 11
66.1448
 21
234.077
  0
LINE
  8
0
 10
66.1448
 20
234.077
 11
66.5451
 21
234.561
  0
LINE
  8
0
 10
66.5451
 20
234.561
 11
66.8815
 21
235.091
  0
LINE
  8
0
 10
66.8815
 20
235.091
 11
67.1489
 21
235.659
  0
LINE
  8
0
 10
67.1489
 20
235.659
 11
67.3429
 21
236.257
  0
LINE
  8
0
 10
67.3429
 20
236.257
 11
67.4606
 21
236.873
  0
LINE
  8
0
 10
67.4606
 20
236.873
 11
67.5
 21
237.5
  0
LINE
  8
0
 10
67.5
 20
237.5
 11
67.5
 21
242.5
  0
LINE
  8
0
 10
67.5
 20
242.5
 11
67.4606
 21
243.127
  0
LINE
  8
0
 10
67.4606
 20
243.127
 11
67.3429
 21
243.743
  0
LINE
  8
0
 10
67.3429
 20
243.743
 11
67.1489
 21
244.341
  0
LINE
  8
0
 10
67.1489
 20
244.341
 11
66.8815
 21
244.909
  0
LINE
  8
0
 10
66.8815
 20
244.909
 11
66.5451
 21
245.439
  0
LINE
  8
0
 10
66.5451
 20
245.439
 11
66.1448
 21
245.923
  0
LINE
  8
0
 10
66.1448
 20
245.923
 11
65.6871
 21
246.353
  0
LINE
  8
0
 10
65.6871
 20
246.353
 11
65.1791
 21
246.722
  0
LINE
  8
0
 10
65.1791
 20
246.722
 11
64.6289
 21
247.024
  0
LINE
  8
0
 10
64.6289
 20
247.024
 11
64.0451
 21
247.255
  0
LINE
  8
0
 10
64.0451
 20
247.255
 11
63.4369
 21
247.411
  0
LINE
  8
0
 10
63.4369
 20
247.411
 11
62.8139
 21
247.49
  0
LINE
  8
0
 10
62.8139
 20
247.49
 11
-62.8139
 21
247.49
  0
LINE
  8
0
 10
-62.8139
 20
247.49
 11
-63.4369
 21
247.411
  0
LINE
  8
0
 10
-63.4369
 20
247.411
 11
-64.0451
 21
247.255
  0
LINE
  8
0
 10
-64.0451
 20
247.255
 11
-64.6289
 21
247.024
  0
LINE
  8
0
 10
-64.6289
 20
247.024
 11
-65.1791
 21
246.722
  0
LINE
  8
0
 10
-65.1791
 20
246.722
 11
-65.6871
 21
246.353
  0
LINE
  8
0
 10
-65.6871
 20
246.353
 11
-66.1448
 21
245.923
  0
LINE
  8
0
 10
-66.1448
 20
245.923
 11
-66.5451
 21
245.439
  0
LINE
  8
0
 10
-66.5451
 20
245.439
 11
-66.8815
 21
244.909
  0
LINE
  8
0
 10
-66.8815
 20
244.909
 11
-67.1489
 21
244.341
  0
LINE
  8
0
 10
-67.1489
 20
244.341
 11
-67.3429
 21
243.743
  0
LINE
  8
0
 10
-67.3429
 20
243.743
 11
-67.4606
 21
243.127
  0
LINE
  8
0
 10
-67.4606
 20
243.127
 11
-67.5
 21
242.5
  0
LINE
  8
0
 10
-67.5
 20
242.5
 11
-67.5
 21
237.5
  0
LINE
  8
0
 10
-67.5
 20
237.5
 11
-67.4606
 21
236.873
  0
LINE
  8
0
 10
-67.4606
 20
236.873
 11
-67.3429
 21
236.257
  0
LINE
  8
0
 10
-67.3429
 20
236.257
 11
-67.1489
 21
235.659
  0
LINE
  8
0
 10
-67.1489
 20
235.659
 11
-66.8815
 21
235.091
  0
LINE
  8
0
 10
-66.8815
 20
235.091
 11
-66.5451
 21
234.561
  0
LINE
  8
0
 10
-66.5451
 20
234.561
 11
-66.1448
 21
234.077
  0
LINE
  8
0
 10
-66.1448
 20
234.077
 11
-65.6871
 21
233.647
  0
LINE
  8
0
 10
-65.6871
 20
233.647
 11
-65.1791
 21
233.278
  0
LINE
  8
0
 10
-65.1791
 20
233.278
 11
-64.6289
 21
232.976
  0
LINE
  8
0
 10
-64.6289
 20
232.976
 11
-64.0451
 21
232.745
  0
LINE
  8
0
 10
-64.0451
 20
232.745
 11
-63.4369
 21
232.589
  0
LINE
  8
0
 10
-63.4369
 20
232.589
 11
-62.8139
 21
232.51
  0
LINE
  8
0
 10
-62.8139
 20
232.51
 11
62.8139
 21
232.51
  0
LINE
  8
0
 10
62.8139
 20
232.51
 11
63.4369
 21
232.589
  0
LINE
  8
0
 10
-62.3825
 20
235.645
 11
-62.6453
 21
235.678
  0
LINE
  8
0
 10
-62.6453
 20
235.678
 11
-62.9019
 21
235.744
  0
LINE
  8
0
 10
-62.9019
 20
235.744
 11
-63.1482
 21
235.841
  0
LINE
  8
0
 10
-63.1482
 20
235.841
 11
-63.3804
 21
235.969
  0
LINE
  8
0
 10
-63.3804
 20
235.969
 11
-63.5947
 21
236.125
  0
LINE
  8
0
 10
-63.5947
 20
236.125
 11
-63.7879
 21
236.306
  0
LINE
  8
0
 10
-63.7879
 20
236.306
 11
-63.9567
 21
236.51
  0
LINE
  8
0
 10
-63.9567
 20
236.51
 11
-64.0987
 21
236.734
  0
LINE
  8
0
 10
-64.0987
 20
236.734
 11
-64.2115
 21
236.973
  0
LINE
  8
0
 10
-64.2115
 20
236.973
 11
-64.2934
 21
237.225
  0
LINE
  8
0
 10
-64.2934
 20
237.225
 11
-64.343
 21
237.486
  0
LINE
  8
0
 10
-64.343
 20
237.486
 11
-64.3596
 21
237.75
  0
LINE
  8
0
 10
-64.3596
 20
237.75
 11
-64.3596
 21
242.25
  0
LINE
  8
0
 10
-64.3596
 20
242.25
 11
-64.343
 21
242.514
  0
LINE
  8
0
 10
-64.343
 20
242.514
 11
-64.2934
 21
242.775
  0
LINE
  8
0
 10
-64.2934
 20
242.775
 11
-64.2115
 21
243.027
  0
LINE
  8
0
 10
-64.2115
 20
243.027
 11
-64.0987
 21
243.266
  0
LINE
  8
0
 10
-64.0987
 20
243.266
 11
-63.9567
 21
243.49
  0
LINE
  8
0
 10
-63.9567
 20
243.49
 11
-63.7879
 21
243.694
  0
LINE
  8
0
 10
-63.7879
 20
243.694
 11
-63.5947
 21
243.875
  0
LINE
  8
0
 10
-63.5947
 20
243.875
 11
-63.3804
 21
244.031
  0
LINE
  8
0
 10
-63.3804
 20
244.031
 11
-63.1482
 21
244.159
  0
LINE
  8
0
 10
-63.1482
 20
244.159
 11
-62.9019
 21
244.256
  0
LINE
  8
0
 10
-62.9019
 20
244.256
 11
-62.6453
 21
244.322
  0
LINE
  8
0
 10
-62.6453
 20
244.322
 11
-62.3825
 21
244.355
  0
LINE
  8
0
 10
-62.3825
 20
244.355
 11
62.3825
 21
244.355
  0
LINE
  8
0
 10
62.3825
 20
244.355
 11
62.6453
 21
244.322
  0
LINE
  8
0
 10
62.6453
 20
244.322
 11
62.9019
 21
244.256
  0
LINE
  8
0
 10
62.9019
 20
244.256
 11
63.1482
 21
244.159
  0
LINE
  8
0
 10
63.1482
 20
244.159
 11
63.3804
 21
244.031
  0
LINE
  8
0
 10
63.3804
 20
244.031
 11
63.5947
 21
243.875
  0
LINE
  8
0
 10
63.5947
 20
243.875
 11
63.7879
 21
243.694
  0
LINE
  8
0
 10
63.7879
 20
243.694
 11
63.9567
 21
243.49
  0
LINE
  8
0
 10
63.9567
 20
243.49
 11
64.0987
 21
243.266
  0
LINE
  8
0
 10
64.0987
 20
243.266
 11
64.2115
 21
243.027
  0
LINE
  8
0
 10
64.2115
 20
243.027
 11
64.2934
 21
242.775
  0
LINE
  8
0
 10
64.2934
 20
242.775
 11
64.343
 21
242.514
  0
LINE
  8
0
 10
64.343
 20
242.514
 11
64.3596
 21
242.25
  0
LINE
  8
0
 10
64.3596
 20
242.25
 11
64.3596
 21
237.75
  0
LINE
  8
0
 10
64.3596
 20
237.75
 11
64.343
 21
237.486
  0
LINE
  8
0
 10
64.343
 20
237.486
 11
64.2934
 21
237.225
  0
LINE
  8
0
 10
64.2934
 20
237.225
 11
64.2115
 21
236.973
  0
LINE
  8
0
 10
64.2115
 20
236.973
 11
64.0987
 21
236.734
  0
LINE
  8
0
 10
64.0987
 20
236.734
 11
63.9567
 21
236.51
  0
LINE
  8
0
 10
63.9567
 20
236.51
 11
63.7879
 21
236.306
  0
LINE
  8
0
 10
63.7879
 20
236.306
 11
63.5947
 21
236.125
  0
LINE
  8
0
 10
63.5947
 20
236.125
 11
63.3804
 21
235.969
  0
LINE
  8
0
 10
63.3804
 20
235.969
 11
63.1482
 21
235.841
  0
LINE
  8
0
 10
63.1482
 20
235.841
 11
62.9019
 21
235.744
  0
LINE
  8
0
 10
62.9019
 20
235.744
 11
62.6453
 21
235.678
  0
LINE
  8
0
 10
62.6453
 20
235.678
 11
62.3825
 21
235.645
  0
LINE
  8
0
 10
62.3825
 20
235.645
 11
-62.3825
 21
235.645
  0
ENDSEC
  0
SECTION
  2
OBJECTS
  0
DICTIONARY
  0
ENDSEC
  0
EOF
