<?xml version="1.0" standalone="no"?>
<!DOCTYPE svg PUBLIC "-//W3C//DTD SVG 1.1//EN" "http://www.w3.org/Graphics/SVG/1.1/DTD/svg11.dtd">
<svg width="90mm" height="55mm" viewBox="-45 -106 90 55" xmlns="http://www.w3.org/2000/svg" version="1.1">
<title>OpenSCAD Model</title>
<path d="
M 40.9369,-83.3386 L 41.5451,-83.4947 L 42.1289,-83.7259 L 42.6791,-84.0284 L 43.1871,-84.3974 L 43.6448,-84.8273
 L 44.0451,-85.3111 L 44.3815,-85.8412 L 44.6489,-86.4094 L 44.8429,-87.0066 L 44.9606,-87.6233 L 45,-88.25
 L 45,-100.75 L 44.9606,-101.377 L 44.8429,-101.993 L 44.6489,-102.591 L 44.3815,-103.159 L 44.0451,-103.689
 L 43.6448,-104.173 L 43.1871,-104.603 L 42.6791,-104.972 L 42.1289,-105.274 L 41.5451,-105.505 L 40.9369,-105.661
 L 40.3139,-105.74 L -40.3139,-105.74 L -40.9369,-105.661 L -41.5451,-105.505 L -42.1289,-105.274 L -42.6791,-104.972
 L -43.1871,-104.603 L -43.6448,-104.173 L -44.0451,-103.689 L -44.3815,-103.159 L -44.6489,-102.591 L -44.8429,-101.993
 L -44.9606,-101.377 L -45,-100.75 L -45,-88.25 L -44.9606,-87.6233 L -44.8429,-87.0066 L -44.6489,-86.4094
 L -44.3815,-85.8412 L -44.0451,-85.3111 L -43.6448,-84.8273 L -43.1871,-84.3974 L -42.6791,-84.0284 L -42.1289,-83.7259
 L -41.5451,-83.4947 L -40.9369,-83.3386 L -40.3139,-83.2599 L 40.3139,-83.2599 z
M -40.0375,-83.9306 L -40.6079,-84.0027 L -41.1648,-84.1456 L -41.6994,-84.3573 L -42.2032,-84.6343 L -42.6684,-84.9723
 L -43.0875,-85.3658 L -43.454,-85.8089 L -43.7621,-86.2943 L -44.0069,-86.8146 L -44.1846,-87.3614 L -44.2923,-87.9262
 L -44.3284,-88.5 L -44.3284,-100.5 L -44.2923,-101.074 L -44.1846,-101.639 L -44.0069,-102.185 L -43.7621,-102.706
 L -43.454,-103.191 L -43.0875,-103.634 L -42.6684,-104.028 L -42.2032,-104.366 L -41.6994,-104.643 L -41.1648,-104.854
 L -40.6079,-104.997 L -40.0375,-105.069 L 40.0375,-105.069 L 40.6079,-104.997 L 41.1648,-104.854 L 41.6994,-104.643
 L 42.2032,-104.366 L 42.6684,-104.028 L 43.0875,-103.634 L 43.454,-103.191 L 43.7621,-102.706 L 44.0069,-102.185
 L 44.1846,-101.639 L 44.2923,-101.074 L 44.3284,-100.5 L 44.3284,-88.5 L 44.2923,-87.9262 L 44.1846,-87.3614
 L 44.0069,-86.8146 L 43.7621,-86.2943 L 43.454,-85.8089 L 43.0875,-85.3658 L 42.6684,-84.9723 L 42.2032,-84.6343
 L 41.6994,-84.3573 L 41.1648,-84.1456 L 40.6079,-84.0027 L 40.0375,-83.9306 z
M 40.9369,-51.8386 L 41.5451,-51.9947 L 42.1289,-52.2259 L 42.6791,-52.5284 L 43.1871,-52.8974 L 43.6448,-53.3273
 L 44.0451,-53.8111 L 44.3815,-54.3412 L 44.6489,-54.9094 L 44.8429,-55.5066 L 44.9606,-56.1233 L 45,-56.75
 L 45,-69.25 L 44.9606,-69.8767 L 44.8429,-70.4934 L 44.6489,-71.0906 L 44.3815,-71.6588 L 44.0451,-72.1889
 L 43.6448,-72.6727 L 43.1871,-73.1026 L 42.6791,-73.4716 L 42.1289,-73.7741 L 41.5451,-74.0053 L 40.9369,-74.1614
 L 40.3139,-74.2401 L -40.3139,-74.2401 L -40.9369,-74.1614 L -41.5451,-74.0053 L -42.1289,-73.7741 L -42.6791,-73.4716
 L -43.1871,-73.1026 L -43.6448,-72.6727 L -44.0451,-72.1889 L -44.3815,-71.6588 L -44.6489,-71.0906 L -44.8429,-70.4934
 L -44.9606,-69.8767 L -45,-69.25 L -45,-56.75 L -44.9606,-56.1233 L -44.8429,-55.5066 L -44.6489,-54.9094
 L -44.3815,-54.3412 L -44.0451,-53.8111 L -43.6448,-53.3273 L -43.1871,-52.8974 L -42.6791,-52.5284 L -42.1289,-52.2259
 L -41.5451,-51.9947 L -40.9369,-51.8386 L -40.3139,-51.7599 L 40.3139,-51.7599 z
M -39.8825,-54.8945 L -40.1453,-54.9277 L -40.4019,-54.9936 L -40.6482,-55.0912 L -40.8804,-55.2188 L -41.0947,-55.3745
 L -41.2879,-55.5559 L -41.4567,-55.76 L -41.5987,-55.9837 L -41.7115,-56.2234 L -41.7934,-56.4754 L -41.843,-56.7356
 L -41.8596,-57 L -41.8596,-69 L -41.843,-69.2644 L -41.7934,-69.5246 L -41.7115,-69.7766 L -41.5987,-70.0163
 L -41.4567,-70.24 L -41.2879,-70.4441 L -41.0947,-70.6255 L -40.8804,-70.7812 L -40.6482,-70.9088 L -40.4019,-71.0064
 L -40.1453,-71.0723 L -39.8825,-71.1055 L 39.8825,-71.1055 L 40.1453,-71.0723 L 40.4019,-71.0064 L 40.6482,-70.9088
 L 40.8804,-70.7812 L 41.0947,-70.6255 L 41.2879,-70.4441 L 41.4567,-70.24 L 41.5987,-70.0163 L 41.7115,-69.7766
 L 41.7934,-69.5246 L 41.843,-69.2644 L 41.8596,-69 L 41.8596,-57 L 41.843,-56.7356 L 41.7934,-56.4754
 L 41.7115,-56.2234 L 41.5987,-55.9837 L 41.4567,-55.76 L 41.2879,-55.5559 L 41.0947,-55.3745 L 40.8804,-55.2188
 L 40.6482,-55.0912 L 40.4019,-54.9936 L 40.1453,-54.9277 L 39.8825,-54.8945 z
" stroke="black" fill="lightgray" stroke-width="0.5"/>
</svg>
