  0
SECTION
  2
BLOCKS
  0
ENDSEC
  0
SECTION
  2
ENTITIES
  0
LINE
  8
0
 10
-79.5
 20
589.925
 11
-79.0451
 21
589.745
  0
LINE
  8
0
 10
-79.0451
 20
589.745
 11
-78.4369
 21
589.589
  0
LINE
  8
0
 10
-78.4369
 20
589.589
 11
-77.8139
 21
589.51
  0
LINE
  8
0
 10
-77.8139
 20
589.51
 11
77.8139
 21
589.51
  0
LINE
  8
0
 10
77.8139
 20
589.51
 11
78.4369
 21
589.589
  0
LINE
  8
0
 10
78.4369
 20
589.589
 11
79.0451
 21
589.745
  0
LINE
  8
0
 10
79.0451
 20
589.745
 11
79.6289
 21
589.976
  0
LINE
  8
0
 10
79.6289
 20
589.976
 11
80.1791
 21
590.278
  0
LINE
  8
0
 10
80.1791
 20
590.278
 11
80.6871
 21
590.647
  0
LINE
  8
0
 10
80.6871
 20
590.647
 11
81.1448
 21
591.077
  0
LINE
  8
0
 10
81.1448
 20
591.077
 11
81.5451
 21
591.561
  0
LINE
  8
0
 10
81.5451
 20
591.561
 11
81.8815
 21
592.091
  0
LINE
  8
0
 10
81.8815
 20
592.091
 11
82.1489
 21
592.659
  0
LINE
  8
0
 10
82.1489
 20
592.659
 11
82.3429
 21
593.257
  0
LINE
  8
0
 10
82.3429
 20
593.257
 11
82.4606
 21
593.873
  0
LINE
  8
0
 10
82.4606
 20
593.873
 11
82.5
 21
594.5
  0
LINE
  8
0
 10
82.5
 20
594.5
 11
82.5
 21
809.5
  0
LINE
  8
0
 10
82.5
 20
809.5
 11
82.4606
 21
810.127
  0
LINE
  8
0
 10
82.4606
 20
810.127
 11
82.3429
 21
810.743
  0
LINE
  8
0
 10
82.3429
 20
810.743
 11
82.1489
 21
811.341
  0
LINE
  8
0
 10
82.1489
 20
811.341
 11
81.8815
 21
811.909
  0
LINE
  8
0
 10
81.8815
 20
811.909
 11
81.5451
 21
812.439
  0
LINE
  8
0
 10
81.5451
 20
812.439
 11
81.1448
 21
812.923
  0
LINE
  8
0
 10
81.1448
 20
812.923
 11
80.6871
 21
813.353
  0
LINE
  8
0
 10
80.6871
 20
813.353
 11
80.1791
 21
813.722
  0
LINE
  8
0
 10
80.1791
 20
813.722
 11
79.6289
 21
814.024
  0
LINE
  8
0
 10
79.6289
 20
814.024
 11
79.0451
 21
814.255
  0
LINE
  8
0
 10
79.0451
 20
814.255
 11
78.4369
 21
814.411
  0
LINE
  8
0
 10
78.4369
 20
814.411
 11
77.8139
 21
814.49
  0
LINE
  8
0
 10
77.8139
 20
814.49
 11
-77.8139
 21
814.49
  0
LINE
  8
0
 10
-77.8139
 20
814.49
 11
-78.4369
 21
814.411
  0
LINE
  8
0
 10
-78.4369
 20
814.411
 11
-79.0451
 21
814.255
  0
LINE
  8
0
 10
-79.0451
 20
814.255
 11
-79.5
 21
814.075
  0
LINE
  8
0
 10
-79.5
 20
814.075
 11
-79.5
 21
814.49
  0
LINE
  8
0
 10
-79.5
 20
814.49
 11
-82.5
 21
814.49
  0
LINE
  8
0
 10
-82.5
 20
814.49
 11
-82.5
 21
589.51
  0
LINE
  8
0
 10
-82.5
 20
589.51
 11
-79.5
 21
589.51
  0
LINE
  8
0
 10
-79.5
 20
589.51
 11
-79.5
 21
589.925
  0
LINE
  8
0
 10
-77.1955
 20
591.893
 11
-77.5833
 21
591.942
  0
LINE
  8
0
 10
-77.5833
 20
591.942
 11
-77.9619
 21
592.039
  0
LINE
  8
0
 10
-77.9619
 20
592.039
 11
-78.3254
 21
592.183
  0
LINE
  8
0
 10
-78.3254
 20
592.183
 11
-78.668
 21
592.372
  0
LINE
  8
0
 10
-78.668
 20
592.372
 11
-78.9843
 21
592.601
  0
LINE
  8
0
 10
-78.9843
 20
592.601
 11
-79.2692
 21
592.869
  0
LINE
  8
0
 10
-79.2692
 20
592.869
 11
-79.5184
 21
593.17
  0
LINE
  8
0
 10
-79.5184
 20
593.17
 11
-79.7279
 21
593.5
  0
LINE
  8
0
 10
-79.7279
 20
593.5
 11
-79.8943
 21
593.854
  0
LINE
  8
0
 10
-79.8943
 20
593.854
 11
-80.0151
 21
594.226
  0
LINE
  8
0
 10
-80.0151
 20
594.226
 11
-80.0884
 21
594.61
  0
LINE
  8
0
 10
-80.0884
 20
594.61
 11
-80.1129
 21
595
  0
LINE
  8
0
 10
-80.1129
 20
595
 11
-80.1129
 21
809
  0
LINE
  8
0
 10
-80.1129
 20
809
 11
-80.0884
 21
809.39
  0
LINE
  8
0
 10
-80.0884
 20
809.39
 11
-80.0151
 21
809.774
  0
LINE
  8
0
 10
-80.0151
 20
809.774
 11
-79.8943
 21
810.146
  0
LINE
  8
0
 10
-79.8943
 20
810.146
 11
-79.7279
 21
810.5
  0
LINE
  8
0
 10
-79.7279
 20
810.5
 11
-79.5184
 21
810.83
  0
LINE
  8
0
 10
-79.5184
 20
810.83
 11
-79.2692
 21
811.131
  0
LINE
  8
0
 10
-79.2692
 20
811.131
 11
-78.9843
 21
811.399
  0
LINE
  8
0
 10
-78.9843
 20
811.399
 11
-78.668
 21
811.628
  0
LINE
  8
0
 10
-78.668
 20
811.628
 11
-78.3254
 21
811.817
  0
LINE
  8
0
 10
-78.3254
 20
811.817
 11
-77.9619
 21
811.961
  0
LINE
  8
0
 10
-77.9619
 20
811.961
 11
-77.5833
 21
812.058
  0
LINE
  8
0
 10
-77.5833
 20
812.058
 11
-77.1955
 21
812.107
  0
LINE
  8
0
 10
-77.1955
 20
812.107
 11
77.1955
 21
812.107
  0
LINE
  8
0
 10
77.1955
 20
812.107
 11
77.5833
 21
812.058
  0
LINE
  8
0
 10
77.5833
 20
812.058
 11
77.9619
 21
811.961
  0
LINE
  8
0
 10
77.9619
 20
811.961
 11
78.3254
 21
811.817
  0
LINE
  8
0
 10
78.3254
 20
811.817
 11
78.668
 21
811.628
  0
LINE
  8
0
 10
78.668
 20
811.628
 11
78.9843
 21
811.399
  0
LINE
  8
0
 10
78.9843
 20
811.399
 11
79.2692
 21
811.131
  0
LINE
  8
0
 10
79.2692
 20
811.131
 11
79.5184
 21
810.83
  0
LINE
  8
0
 10
79.5184
 20
810.83
 11
79.7279
 21
810.5
  0
LINE
  8
0
 10
79.7279
 20
810.5
 11
79.8943
 21
810.146
  0
LINE
  8
0
 10
79.8943
 20
810.146
 11
80.0151
 21
809.774
  0
LINE
  8
0
 10
80.0151
 20
809.774
 11
80.0884
 21
809.39
  0
LINE
  8
0
 10
80.0884
 20
809.39
 11
80.1129
 21
809
  0
LINE
  8
0
 10
80.1129
 20
809
 11
80.1129
 21
595
  0
LINE
  8
0
 10
80.1129
 20
595
 11
80.0884
 21
594.61
  0
LINE
  8
0
 10
80.0884
 20
594.61
 11
80.0151
 21
594.226
  0
LINE
  8
0
 10
80.0151
 20
594.226
 11
79.8943
 21
593.854
  0
LINE
  8
0
 10
79.8943
 20
593.854
 11
79.7279
 21
593.5
  0
LINE
  8
0
 10
79.7279
 20
593.5
 11
79.5184
 21
593.17
  0
LINE
  8
0
 10
79.5184
 20
593.17
 11
79.2692
 21
592.869
  0
LINE
  8
0
 10
79.2692
 20
592.869
 11
78.9843
 21
592.601
  0
LINE
  8
0
 10
78.9843
 20
592.601
 11
78.668
 21
592.372
  0
LINE
  8
0
 10
78.668
 20
592.372
 11
78.3254
 21
592.183
  0
LINE
  8
0
 10
78.3254
 20
592.183
 11
77.9619
 21
592.039
  0
LINE
  8
0
 10
77.9619
 20
592.039
 11
77.5833
 21
591.942
  0
LINE
  8
0
 10
77.5833
 20
591.942
 11
77.1955
 21
591.893
  0
LINE
  8
0
 10
77.1955
 20
591.893
 11
-77.1955
 21
591.893
  0
LINE
  8
0
 10
78.4369
 20
355.589
 11
79.0451
 21
355.745
  0
LINE
  8
0
 10
79.0451
 20
355.745
 11
79.6289
 21
355.976
  0
LINE
  8
0
 10
79.6289
 20
355.976
 11
80.1791
 21
356.278
  0
LINE
  8
0
 10
80.1791
 20
356.278
 11
80.6871
 21
356.647
  0
LINE
  8
0
 10
80.6871
 20
356.647
 11
81.1448
 21
357.077
  0
LINE
  8
0
 10
81.1448
 20
357.077
 11
81.5451
 21
357.561
  0
LINE
  8
0
 10
81.5451
 20
357.561
 11
81.8815
 21
358.091
  0
LINE
  8
0
 10
81.8815
 20
358.091
 11
82.1489
 21
358.659
  0
LINE
  8
0
 10
82.1489
 20
358.659
 11
82.3429
 21
359.257
  0
LINE
  8
0
 10
82.3429
 20
359.257
 11
82.4606
 21
359.873
  0
LINE
  8
0
 10
82.4606
 20
359.873
 11
82.5
 21
360.5
  0
LINE
  8
0
 10
82.5
 20
360.5
 11
82.5
 21
575.5
  0
LINE
  8
0
 10
82.5
 20
575.5
 11
82.4606
 21
576.127
  0
LINE
  8
0
 10
82.4606
 20
576.127
 11
82.3429
 21
576.743
  0
LINE
  8
0
 10
82.3429
 20
576.743
 11
82.1489
 21
577.341
  0
LINE
  8
0
 10
82.1489
 20
577.341
 11
81.8815
 21
577.909
  0
LINE
  8
0
 10
81.8815
 20
577.909
 11
81.5451
 21
578.439
  0
LINE
  8
0
 10
81.5451
 20
578.439
 11
81.1448
 21
578.923
  0
LINE
  8
0
 10
81.1448
 20
578.923
 11
80.6871
 21
579.353
  0
LINE
  8
0
 10
80.6871
 20
579.353
 11
80.1791
 21
579.722
  0
LINE
  8
0
 10
80.1791
 20
579.722
 11
79.6289
 21
580.024
  0
LINE
  8
0
 10
79.6289
 20
580.024
 11
79.0451
 21
580.255
  0
LINE
  8
0
 10
79.0451
 20
580.255
 11
78.4369
 21
580.411
  0
LINE
  8
0
 10
78.4369
 20
580.411
 11
77.8139
 21
580.49
  0
LINE
  8
0
 10
77.8139
 20
580.49
 11
-77.8139
 21
580.49
  0
LINE
  8
0
 10
-77.8139
 20
580.49
 11
-78.4369
 21
580.411
  0
LINE
  8
0
 10
-78.4369
 20
580.411
 11
-79.0451
 21
580.255
  0
LINE
  8
0
 10
-79.0451
 20
580.255
 11
-79.5
 21
580.075
  0
LINE
  8
0
 10
-79.5
 20
580.075
 11
-79.5
 21
580.479
  0
LINE
  8
0
 10
-79.5
 20
580.479
 11
-82.5
 21
580.479
  0
LINE
  8
0
 10
-82.5
 20
580.479
 11
-82.5
 21
355.521
  0
LINE
  8
0
 10
-82.5
 20
355.521
 11
-79.5
 21
355.521
  0
LINE
  8
0
 10
-79.5
 20
355.521
 11
-79.5
 21
355.925
  0
LINE
  8
0
 10
-79.5
 20
355.925
 11
-79.0451
 21
355.745
  0
LINE
  8
0
 10
-79.0451
 20
355.745
 11
-78.4369
 21
355.589
  0
LINE
  8
0
 10
-78.4369
 20
355.589
 11
-77.8139
 21
355.51
  0
LINE
  8
0
 10
-77.8139
 20
355.51
 11
77.8139
 21
355.51
  0
LINE
  8
0
 10
77.8139
 20
355.51
 11
78.4369
 21
355.589
  0
LINE
  8
0
 10
74.8659
 20
570.869
 11
74.5999
 21
570.903
  0
LINE
  8
0
 10
74.5999
 20
570.903
 11
74.3401
 21
570.969
  0
LINE
  8
0
 10
74.3401
 20
570.969
 11
74.0908
 21
571.068
  0
LINE
  8
0
 10
74.0908
 20
571.068
 11
73.8559
 21
571.197
  0
LINE
  8
0
 10
73.8559
 20
571.197
 11
73.6389
 21
571.355
  0
LINE
  8
0
 10
73.6389
 20
571.355
 11
73.4434
 21
571.538
  0
LINE
  8
0
 10
73.4434
 20
571.538
 11
73.2725
 21
571.745
  0
LINE
  8
0
 10
73.2725
 20
571.745
 11
73.1288
 21
571.971
  0
LINE
  8
0
 10
73.1288
 20
571.971
 11
73.0146
 21
572.214
  0
LINE
  8
0
 10
73.0146
 20
572.214
 11
72.9318
 21
572.469
  0
LINE
  8
0
 10
72.9318
 20
572.469
 11
72.8815
 21
572.732
  0
LINE
  8
0
 10
72.8815
 20
572.732
 11
72.8647
 21
573
  0
LINE
  8
0
 10
72.8647
 20
573
 11
72.8815
 21
573.268
  0
LINE
  8
0
 10
72.8815
 20
573.268
 11
72.9318
 21
573.531
  0
LINE
  8
0
 10
72.9318
 20
573.531
 11
73.0146
 21
573.786
  0
LINE
  8
0
 10
73.0146
 20
573.786
 11
73.1288
 21
574.029
  0
LINE
  8
0
 10
73.1288
 20
574.029
 11
73.2725
 21
574.255
  0
LINE
  8
0
 10
73.2725
 20
574.255
 11
73.4434
 21
574.462
  0
LINE
  8
0
 10
73.4434
 20
574.462
 11
73.6389
 21
574.645
  0
LINE
  8
0
 10
73.6389
 20
574.645
 11
73.8559
 21
574.803
  0
LINE
  8
0
 10
73.8559
 20
574.803
 11
74.0908
 21
574.932
  0
LINE
  8
0
 10
74.0908
 20
574.932
 11
74.3401
 21
575.031
  0
LINE
  8
0
 10
74.3401
 20
575.031
 11
74.5999
 21
575.097
  0
LINE
  8
0
 10
74.5999
 20
575.097
 11
74.8659
 21
575.131
  0
LINE
  8
0
 10
74.8659
 20
575.131
 11
75.1341
 21
575.131
  0
LINE
  8
0
 10
75.1341
 20
575.131
 11
75.4001
 21
575.097
  0
LINE
  8
0
 10
75.4001
 20
575.097
 11
75.6598
 21
575.031
  0
LINE
  8
0
 10
75.6598
 20
575.031
 11
75.9092
 21
574.932
  0
LINE
  8
0
 10
75.9092
 20
574.932
 11
76.1441
 21
574.803
  0
LINE
  8
0
 10
76.1441
 20
574.803
 11
76.3611
 21
574.645
  0
LINE
  8
0
 10
76.3611
 20
574.645
 11
76.5566
 21
574.462
  0
LINE
  8
0
 10
76.5566
 20
574.462
 11
76.7275
 21
574.255
  0
LINE
  8
0
 10
76.7275
 20
574.255
 11
76.8712
 21
574.029
  0
LINE
  8
0
 10
76.8712
 20
574.029
 11
76.9853
 21
573.786
  0
LINE
  8
0
 10
76.9853
 20
573.786
 11
77.0682
 21
573.531
  0
LINE
  8
0
 10
77.0682
 20
573.531
 11
77.1185
 21
573.268
  0
LINE
  8
0
 10
77.1185
 20
573.268
 11
77.1353
 21
573
  0
LINE
  8
0
 10
77.1353
 20
573
 11
77.1185
 21
572.732
  0
LINE
  8
0
 10
77.1185
 20
572.732
 11
77.0682
 21
572.469
  0
LINE
  8
0
 10
77.0682
 20
572.469
 11
76.9853
 21
572.214
  0
LINE
  8
0
 10
76.9853
 20
572.214
 11
76.8712
 21
571.971
  0
LINE
  8
0
 10
76.8712
 20
571.971
 11
76.7275
 21
571.745
  0
LINE
  8
0
 10
76.7275
 20
571.745
 11
76.5566
 21
571.538
  0
LINE
  8
0
 10
76.5566
 20
571.538
 11
76.3611
 21
571.355
  0
LINE
  8
0
 10
76.3611
 20
571.355
 11
76.1441
 21
571.197
  0
LINE
  8
0
 10
76.1441
 20
571.197
 11
75.9092
 21
571.068
  0
LINE
  8
0
 10
75.9092
 20
571.068
 11
75.6598
 21
570.969
  0
LINE
  8
0
 10
75.6598
 20
570.969
 11
75.4001
 21
570.903
  0
LINE
  8
0
 10
75.4001
 20
570.903
 11
75.1341
 21
570.869
  0
LINE
  8
0
 10
75.1341
 20
570.869
 11
74.8659
 21
570.869
  0
LINE
  8
0
 10
-75.1341
 20
570.869
 11
-75.4001
 21
570.903
  0
LINE
  8
0
 10
-75.4001
 20
570.903
 11
-75.6598
 21
570.969
  0
LINE
  8
0
 10
-75.6598
 20
570.969
 11
-75.9092
 21
571.068
  0
LINE
  8
0
 10
-75.9092
 20
571.068
 11
-76.1441
 21
571.197
  0
LINE
  8
0
 10
-76.1441
 20
571.197
 11
-76.3611
 21
571.355
  0
LINE
  8
0
 10
-76.3611
 20
571.355
 11
-76.5566
 21
571.538
  0
LINE
  8
0
 10
-76.5566
 20
571.538
 11
-76.7275
 21
571.745
  0
LINE
  8
0
 10
-76.7275
 20
571.745
 11
-76.8712
 21
571.971
  0
LINE
  8
0
 10
-76.8712
 20
571.971
 11
-76.9853
 21
572.214
  0
LINE
  8
0
 10
-76.9853
 20
572.214
 11
-77.0682
 21
572.469
  0
LINE
  8
0
 10
-77.0682
 20
572.469
 11
-77.1185
 21
572.732
  0
LINE
  8
0
 10
-77.1185
 20
572.732
 11
-77.1353
 21
573
  0
LINE
  8
0
 10
-77.1353
 20
573
 11
-77.1185
 21
573.268
  0
LINE
  8
0
 10
-77.1185
 20
573.268
 11
-77.0682
 21
573.531
  0
LINE
  8
0
 10
-77.0682
 20
573.531
 11
-76.9853
 21
573.786
  0
LINE
  8
0
 10
-76.9853
 20
573.786
 11
-76.8712
 21
574.029
  0
LINE
  8
0
 10
-76.8712
 20
574.029
 11
-76.7275
 21
574.255
  0
LINE
  8
0
 10
-76.7275
 20
574.255
 11
-76.5566
 21
574.462
  0
LINE
  8
0
 10
-76.5566
 20
574.462
 11
-76.3611
 21
574.645
  0
LINE
  8
0
 10
-76.3611
 20
574.645
 11
-76.1441
 21
574.803
  0
LINE
  8
0
 10
-76.1441
 20
574.803
 11
-75.9092
 21
574.932
  0
LINE
  8
0
 10
-75.9092
 20
574.932
 11
-75.6598
 21
575.031
  0
LINE
  8
0
 10
-75.6598
 20
575.031
 11
-75.4001
 21
575.097
  0
LINE
  8
0
 10
-75.4001
 20
575.097
 11
-75.1341
 21
575.131
  0
LINE
  8
0
 10
-75.1341
 20
575.131
 11
-74.8659
 21
575.131
  0
LINE
  8
0
 10
-74.8659
 20
575.131
 11
-74.5999
 21
575.097
  0
LINE
  8
0
 10
-74.5999
 20
575.097
 11
-74.3401
 21
575.031
  0
LINE
  8
0
 10
-74.3401
 20
575.031
 11
-74.0908
 21
574.932
  0
LINE
  8
0
 10
-74.0908
 20
574.932
 11
-73.8559
 21
574.803
  0
LINE
  8
0
 10
-73.8559
 20
574.803
 11
-73.6389
 21
574.645
  0
LINE
  8
0
 10
-73.6389
 20
574.645
 11
-73.4434
 21
574.462
  0
LINE
  8
0
 10
-73.4434
 20
574.462
 11
-73.2725
 21
574.255
  0
LINE
  8
0
 10
-73.2725
 20
574.255
 11
-73.1288
 21
574.029
  0
LINE
  8
0
 10
-73.1288
 20
574.029
 11
-73.0146
 21
573.786
  0
LINE
  8
0
 10
-73.0146
 20
573.786
 11
-72.9318
 21
573.531
  0
LINE
  8
0
 10
-72.9318
 20
573.531
 11
-72.8815
 21
573.268
  0
LINE
  8
0
 10
-72.8815
 20
573.268
 11
-72.8647
 21
573
  0
LINE
  8
0
 10
-72.8647
 20
573
 11
-72.8815
 21
572.732
  0
LINE
  8
0
 10
-72.8815
 20
572.732
 11
-72.9318
 21
572.469
  0
LINE
  8
0
 10
-72.9318
 20
572.469
 11
-73.0146
 21
572.214
  0
LINE
  8
0
 10
-73.0146
 20
572.214
 11
-73.1288
 21
571.971
  0
LINE
  8
0
 10
-73.1288
 20
571.971
 11
-73.2725
 21
571.745
  0
LINE
  8
0
 10
-73.2725
 20
571.745
 11
-73.4434
 21
571.538
  0
LINE
  8
0
 10
-73.4434
 20
571.538
 11
-73.6389
 21
571.355
  0
LINE
  8
0
 10
-73.6389
 20
571.355
 11
-73.8559
 21
571.197
  0
LINE
  8
0
 10
-73.8559
 20
571.197
 11
-74.0908
 21
571.068
  0
LINE
  8
0
 10
-74.0908
 20
571.068
 11
-74.3401
 21
570.969
  0
LINE
  8
0
 10
-74.3401
 20
570.969
 11
-74.5999
 21
570.903
  0
LINE
  8
0
 10
-74.5999
 20
570.903
 11
-74.8659
 21
570.869
  0
LINE
  8
0
 10
-74.8659
 20
570.869
 11
-75.1341
 21
570.869
  0
LINE
  8
0
 10
74.8659
 20
360.869
 11
74.5999
 21
360.903
  0
LINE
  8
0
 10
74.5999
 20
360.903
 11
74.3401
 21
360.969
  0
LINE
  8
0
 10
74.3401
 20
360.969
 11
74.0908
 21
361.068
  0
LINE
  8
0
 10
74.0908
 20
361.068
 11
73.8559
 21
361.197
  0
LINE
  8
0
 10
73.8559
 20
361.197
 11
73.6389
 21
361.355
  0
LINE
  8
0
 10
73.6389
 20
361.355
 11
73.4434
 21
361.538
  0
LINE
  8
0
 10
73.4434
 20
361.538
 11
73.2725
 21
361.745
  0
LINE
  8
0
 10
73.2725
 20
361.745
 11
73.1288
 21
361.971
  0
LINE
  8
0
 10
73.1288
 20
361.971
 11
73.0146
 21
362.214
  0
LINE
  8
0
 10
73.0146
 20
362.214
 11
72.9318
 21
362.469
  0
LINE
  8
0
 10
72.9318
 20
362.469
 11
72.8815
 21
362.732
  0
LINE
  8
0
 10
72.8815
 20
362.732
 11
72.8647
 21
363
  0
LINE
  8
0
 10
72.8647
 20
363
 11
72.8815
 21
363.268
  0
LINE
  8
0
 10
72.8815
 20
363.268
 11
72.9318
 21
363.531
  0
LINE
  8
0
 10
72.9318
 20
363.531
 11
73.0146
 21
363.786
  0
LINE
  8
0
 10
73.0146
 20
363.786
 11
73.1288
 21
364.029
  0
LINE
  8
0
 10
73.1288
 20
364.029
 11
73.2725
 21
364.255
  0
LINE
  8
0
 10
73.2725
 20
364.255
 11
73.4434
 21
364.462
  0
LINE
  8
0
 10
73.4434
 20
364.462
 11
73.6389
 21
364.645
  0
LINE
  8
0
 10
73.6389
 20
364.645
 11
73.8559
 21
364.803
  0
LINE
  8
0
 10
73.8559
 20
364.803
 11
74.0908
 21
364.932
  0
LINE
  8
0
 10
74.0908
 20
364.932
 11
74.3401
 21
365.031
  0
LINE
  8
0
 10
74.3401
 20
365.031
 11
74.5999
 21
365.097
  0
LINE
  8
0
 10
74.5999
 20
365.097
 11
74.8659
 21
365.131
  0
LINE
  8
0
 10
74.8659
 20
365.131
 11
75.1341
 21
365.131
  0
LINE
  8
0
 10
75.1341
 20
365.131
 11
75.4001
 21
365.097
  0
LINE
  8
0
 10
75.4001
 20
365.097
 11
75.6598
 21
365.031
  0
LINE
  8
0
 10
75.6598
 20
365.031
 11
75.9092
 21
364.932
  0
LINE
  8
0
 10
75.9092
 20
364.932
 11
76.1441
 21
364.803
  0
LINE
  8
0
 10
76.1441
 20
364.803
 11
76.3611
 21
364.645
  0
LINE
  8
0
 10
76.3611
 20
364.645
 11
76.5566
 21
364.462
  0
LINE
  8
0
 10
76.5566
 20
364.462
 11
76.7275
 21
364.255
  0
LINE
  8
0
 10
76.7275
 20
364.255
 11
76.8712
 21
364.029
  0
LINE
  8
0
 10
76.8712
 20
364.029
 11
76.9853
 21
363.786
  0
LINE
  8
0
 10
76.9853
 20
363.786
 11
77.0682
 21
363.531
  0
LINE
  8
0
 10
77.0682
 20
363.531
 11
77.1185
 21
363.268
  0
LINE
  8
0
 10
77.1185
 20
363.268
 11
77.1353
 21
363
  0
LINE
  8
0
 10
77.1353
 20
363
 11
77.1185
 21
362.732
  0
LINE
  8
0
 10
77.1185
 20
362.732
 11
77.0682
 21
362.469
  0
LINE
  8
0
 10
77.0682
 20
362.469
 11
76.9853
 21
362.214
  0
LINE
  8
0
 10
76.9853
 20
362.214
 11
76.8712
 21
361.971
  0
LINE
  8
0
 10
76.8712
 20
361.971
 11
76.7275
 21
361.745
  0
LINE
  8
0
 10
76.7275
 20
361.745
 11
76.5566
 21
361.538
  0
LINE
  8
0
 10
76.5566
 20
361.538
 11
76.3611
 21
361.355
  0
LINE
  8
0
 10
76.3611
 20
361.355
 11
76.1441
 21
361.197
  0
LINE
  8
0
 10
76.1441
 20
361.197
 11
75.9092
 21
361.068
  0
LINE
  8
0
 10
75.9092
 20
361.068
 11
75.6598
 21
360.969
  0
LINE
  8
0
 10
75.6598
 20
360.969
 11
75.4001
 21
360.903
  0
LINE
  8
0
 10
75.4001
 20
360.903
 11
75.1341
 21
360.869
  0
LINE
  8
0
 10
75.1341
 20
360.869
 11
74.8659
 21
360.869
  0
LINE
  8
0
 10
-75.1341
 20
360.869
 11
-75.4001
 21
360.903
  0
LINE
  8
0
 10
-75.4001
 20
360.903
 11
-75.6598
 21
360.969
  0
LINE
  8
0
 10
-75.6598
 20
360.969
 11
-75.9092
 21
361.068
  0
LINE
  8
0
 10
-75.9092
 20
361.068
 11
-76.1441
 21
361.197
  0
LINE
  8
0
 10
-76.1441
 20
361.197
 11
-76.3611
 21
361.355
  0
LINE
  8
0
 10
-76.3611
 20
361.355
 11
-76.5566
 21
361.538
  0
LINE
  8
0
 10
-76.5566
 20
361.538
 11
-76.7275
 21
361.745
  0
LINE
  8
0
 10
-76.7275
 20
361.745
 11
-76.8712
 21
361.971
  0
LINE
  8
0
 10
-76.8712
 20
361.971
 11
-76.9853
 21
362.214
  0
LINE
  8
0
 10
-76.9853
 20
362.214
 11
-77.0682
 21
362.469
  0
LINE
  8
0
 10
-77.0682
 20
362.469
 11
-77.1185
 21
362.732
  0
LINE
  8
0
 10
-77.1185
 20
362.732
 11
-77.1353
 21
363
  0
LINE
  8
0
 10
-77.1353
 20
363
 11
-77.1185
 21
363.268
  0
LINE
  8
0
 10
-77.1185
 20
363.268
 11
-77.0682
 21
363.531
  0
LINE
  8
0
 10
-77.0682
 20
363.531
 11
-76.9853
 21
363.786
  0
LINE
  8
0
 10
-76.9853
 20
363.786
 11
-76.8712
 21
364.029
  0
LINE
  8
0
 10
-76.8712
 20
364.029
 11
-76.7275
 21
364.255
  0
LINE
  8
0
 10
-76.7275
 20
364.255
 11
-76.5566
 21
364.462
  0
LINE
  8
0
 10
-76.5566
 20
364.462
 11
-76.3611
 21
364.645
  0
LINE
  8
0
 10
-76.3611
 20
364.645
 11
-76.1441
 21
364.803
  0
LINE
  8
0
 10
-76.1441
 20
364.803
 11
-75.9092
 21
364.932
  0
LINE
  8
0
 10
-75.9092
 20
364.932
 11
-75.6598
 21
365.031
  0
LINE
  8
0
 10
-75.6598
 20
365.031
 11
-75.4001
 21
365.097
  0
LINE
  8
0
 10
-75.4001
 20
365.097
 11
-75.1341
 21
365.131
  0
LINE
  8
0
 10
-75.1341
 20
365.131
 11
-74.8659
 21
365.131
  0
LINE
  8
0
 10
-74.8659
 20
365.131
 11
-74.5999
 21
365.097
  0
LINE
  8
0
 10
-74.5999
 20
365.097
 11
-74.3401
 21
365.031
  0
LINE
  8
0
 10
-74.3401
 20
365.031
 11
-74.0908
 21
364.932
  0
LINE
  8
0
 10
-74.0908
 20
364.932
 11
-73.8559
 21
364.803
  0
LINE
  8
0
 10
-73.8559
 20
364.803
 11
-73.6389
 21
364.645
  0
LINE
  8
0
 10
-73.6389
 20
364.645
 11
-73.4434
 21
364.462
  0
LINE
  8
0
 10
-73.4434
 20
364.462
 11
-73.2725
 21
364.255
  0
LINE
  8
0
 10
-73.2725
 20
364.255
 11
-73.1288
 21
364.029
  0
LINE
  8
0
 10
-73.1288
 20
364.029
 11
-73.0146
 21
363.786
  0
LINE
  8
0
 10
-73.0146
 20
363.786
 11
-72.9318
 21
363.531
  0
LINE
  8
0
 10
-72.9318
 20
363.531
 11
-72.8815
 21
363.268
  0
LINE
  8
0
 10
-72.8815
 20
363.268
 11
-72.8647
 21
363
  0
LINE
  8
0
 10
-72.8647
 20
363
 11
-72.8815
 21
362.732
  0
LINE
  8
0
 10
-72.8815
 20
362.732
 11
-72.9318
 21
362.469
  0
LINE
  8
0
 10
-72.9318
 20
362.469
 11
-73.0146
 21
362.214
  0
LINE
  8
0
 10
-73.0146
 20
362.214
 11
-73.1288
 21
361.971
  0
LINE
  8
0
 10
-73.1288
 20
361.971
 11
-73.2725
 21
361.745
  0
LINE
  8
0
 10
-73.2725
 20
361.745
 11
-73.4434
 21
361.538
  0
LINE
  8
0
 10
-73.4434
 20
361.538
 11
-73.6389
 21
361.355
  0
LINE
  8
0
 10
-73.6389
 20
361.355
 11
-73.8559
 21
361.197
  0
LINE
  8
0
 10
-73.8559
 20
361.197
 11
-74.0908
 21
361.068
  0
LINE
  8
0
 10
-74.0908
 20
361.068
 11
-74.3401
 21
360.969
  0
LINE
  8
0
 10
-74.3401
 20
360.969
 11
-74.5999
 21
360.903
  0
LINE
  8
0
 10
-74.5999
 20
360.903
 11
-74.8659
 21
360.869
  0
LINE
  8
0
 10
-74.8659
 20
360.869
 11
-75.1341
 21
360.869
  0
LINE
  8
0
 10
-79.5
 20
345.153
 11
-82.5
 21
345.153
  0
LINE
  8
0
 10
-82.5
 20
345.153
 11
-82.5
 21
122.847
  0
LINE
  8
0
 10
-82.5
 20
122.847
 11
-79.5
 21
122.847
  0
LINE
  8
0
 10
-79.5
 20
122.847
 11
-79.5
 21
345.153
  0
ENDSEC
  0
SECTION
  2
OBJECTS
  0
DICTIONARY
  0
ENDSEC
  0
EOF
