<?xml version="1.0" standalone="no"?>
<!DOCTYPE svg PUBLIC "-//W3C//DTD SVG 1.1//EN" "http://www.w3.org/Graphics/SVG/1.1/DTD/svg11.dtd">
<svg width="166mm" height="1086mm" viewBox="-83 -2076 166 1086" xmlns="http://www.w3.org/2000/svg" version="1.1">
<title>OpenSCAD Model</title>
<path d="
M 78.4369,-1866.09 L 79.0451,-1866.24 L 79.6289,-1866.48 L 80.1791,-1866.78 L 80.6871,-1867.15 L 81.1448,-1867.58
 L 81.5451,-1868.06 L 81.8815,-1868.59 L 82.1489,-1869.16 L 82.3429,-1869.76 L 82.4606,-1870.37 L 82.5,-1871
 L 82.5,-2071 L 82.4606,-2071.63 L 82.3429,-2072.24 L 82.1489,-2072.84 L 81.8815,-2073.41 L 81.5451,-2073.94
 L 81.1448,-2074.42 L 80.6871,-2074.85 L 80.1791,-2075.22 L 79.6289,-2075.52 L 79.0451,-2075.76 L 78.4369,-2075.91
 L 77.8139,-2075.99 L -77.8139,-2075.99 L -78.4369,-2075.91 L -79.0451,-2075.76 L -79.6289,-2075.52 L -80.1791,-2075.22
 L -80.6871,-2074.85 L -81.1448,-2074.42 L -81.5451,-2073.94 L -81.8815,-2073.41 L -82.1489,-2072.84 L -82.3429,-2072.24
 L -82.4606,-2071.63 L -82.5,-2071 L -82.5,-1871 L -82.4606,-1870.37 L -82.3429,-1869.76 L -82.1489,-1869.16
 L -81.8815,-1868.59 L -81.5451,-1868.06 L -81.1448,-1867.58 L -80.6871,-1867.15 L -80.1791,-1866.78 L -79.6289,-1866.48
 L -79.0451,-1866.24 L -78.4369,-1866.09 L -77.8139,-1866.01 L 77.8139,-1866.01 z
M -77.2512,-1867.51 L -77.7495,-1867.57 L -78.2361,-1867.7 L -78.7031,-1867.88 L -79.1433,-1868.12 L -79.5497,-1868.42
 L -79.9159,-1868.76 L -80.2361,-1869.15 L -80.5052,-1869.57 L -80.7191,-1870.03 L -80.8743,-1870.51 L -80.9685,-1871
 L -81,-1871.5 L -81,-2070.5 L -80.9685,-2071 L -80.8743,-2071.49 L -80.7191,-2071.97 L -80.5052,-2072.43
 L -80.2361,-2072.85 L -79.9159,-2073.24 L -79.5497,-2073.58 L -79.1433,-2073.88 L -78.7031,-2074.12 L -78.2361,-2074.3
 L -77.7495,-2074.43 L -77.2512,-2074.49 L 77.2512,-2074.49 L 77.7495,-2074.43 L 78.2361,-2074.3 L 78.7031,-2074.12
 L 79.1433,-2073.88 L 79.5497,-2073.58 L 79.9159,-2073.24 L 80.2361,-2072.85 L 80.5052,-2072.43 L 80.7191,-2071.97
 L 80.8743,-2071.49 L 80.9685,-2071 L 81,-2070.5 L 81,-1871.5 L 80.9685,-1871 L 80.8743,-1870.51
 L 80.7191,-1870.03 L 80.5052,-1869.57 L 80.2361,-1869.15 L 79.9159,-1868.76 L 79.5497,-1868.42 L 79.1433,-1868.12
 L 78.7031,-1867.88 L 78.2361,-1867.7 L 77.7495,-1867.57 L 77.2512,-1867.51 z
M 78.4369,-1647.09 L 79.0451,-1647.24 L 79.6289,-1647.48 L 80.1791,-1647.78 L 80.6871,-1648.15 L 81.1448,-1648.58
 L 81.5451,-1649.06 L 81.8815,-1649.59 L 82.1489,-1650.16 L 82.3429,-1650.76 L 82.4606,-1651.37 L 82.5,-1652
 L 82.5,-1852 L 82.4606,-1852.63 L 82.3429,-1853.24 L 82.1489,-1853.84 L 81.8815,-1854.41 L 81.5451,-1854.94
 L 81.1448,-1855.42 L 80.6871,-1855.85 L 80.1791,-1856.22 L 79.6289,-1856.52 L 79.0451,-1856.76 L 78.4369,-1856.91
 L 77.8139,-1856.99 L -77.8139,-1856.99 L -78.4369,-1856.91 L -79.0451,-1856.76 L -79.6289,-1856.52 L -80.1791,-1856.22
 L -80.6871,-1855.85 L -81.1448,-1855.42 L -81.5451,-1854.94 L -81.8815,-1854.41 L -82.1489,-1853.84 L -82.3429,-1853.24
 L -82.4606,-1852.63 L -82.5,-1852 L -82.5,-1652 L -82.4606,-1651.37 L -82.3429,-1650.76 L -82.1489,-1650.16
 L -81.8815,-1649.59 L -81.5451,-1649.06 L -81.1448,-1648.58 L -80.6871,-1648.15 L -80.1791,-1647.78 L -79.6289,-1647.48
 L -79.0451,-1647.24 L -78.4369,-1647.09 L -77.8139,-1647.01 L 77.8139,-1647.01 z
M -77.2512,-1648.51 L -77.7495,-1648.57 L -78.2361,-1648.7 L -78.7031,-1648.88 L -79.1433,-1649.12 L -79.5497,-1649.42
 L -79.9159,-1649.76 L -80.2361,-1650.15 L -80.5052,-1650.57 L -80.7191,-1651.03 L -80.8743,-1651.51 L -80.9685,-1652
 L -81,-1652.5 L -81,-1851.5 L -80.9685,-1852 L -80.8743,-1852.49 L -80.7191,-1852.97 L -80.5052,-1853.43
 L -80.2361,-1853.85 L -79.9159,-1854.24 L -79.5497,-1854.58 L -79.1433,-1854.88 L -78.7031,-1855.12 L -78.2361,-1855.3
 L -77.7495,-1855.43 L -77.2512,-1855.49 L 77.2512,-1855.49 L 77.7495,-1855.43 L 78.2361,-1855.3 L 78.7031,-1855.12
 L 79.1433,-1854.88 L 79.5497,-1854.58 L 79.9159,-1854.24 L 80.2361,-1853.85 L 80.5052,-1853.43 L 80.7191,-1852.97
 L 80.8743,-1852.49 L 80.9685,-1852 L 81,-1851.5 L 81,-1652.5 L 80.9685,-1652 L 80.8743,-1651.51
 L 80.7191,-1651.03 L 80.5052,-1650.57 L 80.2361,-1650.15 L 79.9159,-1649.76 L 79.5497,-1649.42 L 79.1433,-1649.12
 L 78.7031,-1648.88 L 78.2361,-1648.7 L 77.7495,-1648.57 L 77.2512,-1648.51 z
M 78.4369,-1428.09 L 79.0451,-1428.24 L 79.6289,-1428.48 L 80.1791,-1428.78 L 80.6871,-1429.15 L 81.1448,-1429.58
 L 81.5451,-1430.06 L 81.8815,-1430.59 L 82.1489,-1431.16 L 82.3429,-1431.76 L 82.4606,-1432.37 L 82.5,-1433
 L 82.5,-1633 L 82.4606,-1633.63 L 82.3429,-1634.24 L 82.1489,-1634.84 L 81.8815,-1635.41 L 81.5451,-1635.94
 L 81.1448,-1636.42 L 80.6871,-1636.85 L 80.1791,-1637.22 L 79.6289,-1637.52 L 79.0451,-1637.76 L 78.4369,-1637.91
 L 77.8139,-1637.99 L -77.8139,-1637.99 L -78.4369,-1637.91 L -79.0451,-1637.76 L -79.6289,-1637.52 L -80.1791,-1637.22
 L -80.6871,-1636.85 L -81.1448,-1636.42 L -81.5451,-1635.94 L -81.8815,-1635.41 L -82.1489,-1634.84 L -82.3429,-1634.24
 L -82.4606,-1633.63 L -82.5,-1633 L -82.5,-1433 L -82.4606,-1432.37 L -82.3429,-1431.76 L -82.1489,-1431.16
 L -81.8815,-1430.59 L -81.5451,-1430.06 L -81.1448,-1429.58 L -80.6871,-1429.15 L -80.1791,-1428.78 L -79.6289,-1428.48
 L -79.0451,-1428.24 L -78.4369,-1428.09 L -77.8139,-1428.01 L 77.8139,-1428.01 z
M -77.2512,-1429.51 L -77.7495,-1429.57 L -78.2361,-1429.7 L -78.7031,-1429.88 L -79.1433,-1430.12 L -79.5497,-1430.42
 L -79.9159,-1430.76 L -80.2361,-1431.15 L -80.5052,-1431.57 L -80.7191,-1432.03 L -80.8743,-1432.51 L -80.9685,-1433
 L -81,-1433.5 L -81,-1632.5 L -80.9685,-1633 L -80.8743,-1633.49 L -80.7191,-1633.97 L -80.5052,-1634.43
 L -80.2361,-1634.85 L -79.9159,-1635.24 L -79.5497,-1635.58 L -79.1433,-1635.88 L -78.7031,-1636.12 L -78.2361,-1636.3
 L -77.7495,-1636.43 L -77.2512,-1636.49 L 77.2512,-1636.49 L 77.7495,-1636.43 L 78.2361,-1636.3 L 78.7031,-1636.12
 L 79.1433,-1635.88 L 79.5497,-1635.58 L 79.9159,-1635.24 L 80.2361,-1634.85 L 80.5052,-1634.43 L 80.7191,-1633.97
 L 80.8743,-1633.49 L 80.9685,-1633 L 81,-1632.5 L 81,-1433.5 L 80.9685,-1433 L 80.8743,-1432.51
 L 80.7191,-1432.03 L 80.5052,-1431.57 L 80.2361,-1431.15 L 79.9159,-1430.76 L 79.5497,-1430.42 L 79.1433,-1430.12
 L 78.7031,-1429.88 L 78.2361,-1429.7 L 77.7495,-1429.57 L 77.2512,-1429.51 z
M 78.4369,-1209.09 L 79.0451,-1209.24 L 79.6289,-1209.48 L 80.1791,-1209.78 L 80.6871,-1210.15 L 81.1448,-1210.58
 L 81.5451,-1211.06 L 81.8815,-1211.59 L 82.1489,-1212.16 L 82.3429,-1212.76 L 82.4606,-1213.37 L 82.5,-1214
 L 82.5,-1414 L 82.4606,-1414.63 L 82.3429,-1415.24 L 82.1489,-1415.84 L 81.8815,-1416.41 L 81.5451,-1416.94
 L 81.1448,-1417.42 L 80.6871,-1417.85 L 80.1791,-1418.22 L 79.6289,-1418.52 L 79.0451,-1418.76 L 78.4369,-1418.91
 L 77.8139,-1418.99 L -77.8139,-1418.99 L -78.4369,-1418.91 L -79.0451,-1418.76 L -79.6289,-1418.52 L -80.1791,-1418.22
 L -80.6871,-1417.85 L -81.1448,-1417.42 L -81.5451,-1416.94 L -81.8815,-1416.41 L -82.1489,-1415.84 L -82.3429,-1415.24
 L -82.4606,-1414.63 L -82.5,-1414 L -82.5,-1214 L -82.4606,-1213.37 L -82.3429,-1212.76 L -82.1489,-1212.16
 L -81.8815,-1211.59 L -81.5451,-1211.06 L -81.1448,-1210.58 L -80.6871,-1210.15 L -80.1791,-1209.78 L -79.6289,-1209.48
 L -79.0451,-1209.24 L -78.4369,-1209.09 L -77.8139,-1209.01 L 77.8139,-1209.01 z
M -77.1955,-1211.39 L -77.5833,-1211.44 L -77.9619,-1211.54 L -78.3254,-1211.68 L -78.668,-1211.87 L -78.9843,-1212.1
 L -79.2692,-1212.37 L -79.5184,-1212.67 L -79.7279,-1213 L -79.8943,-1213.35 L -80.0151,-1213.73 L -80.0884,-1214.11
 L -80.1129,-1214.5 L -80.1129,-1413.5 L -80.0884,-1413.89 L -80.0151,-1414.27 L -79.8943,-1414.65 L -79.7279,-1415
 L -79.5184,-1415.33 L -79.2692,-1415.63 L -78.9843,-1415.9 L -78.668,-1416.13 L -78.3254,-1416.32 L -77.9619,-1416.46
 L -77.5833,-1416.56 L -77.1955,-1416.61 L 77.1955,-1416.61 L 77.5833,-1416.56 L 77.9619,-1416.46 L 78.3254,-1416.32
 L 78.668,-1416.13 L 78.9843,-1415.9 L 79.2692,-1415.63 L 79.5184,-1415.33 L 79.7279,-1415 L 79.8943,-1414.65
 L 80.0151,-1414.27 L 80.0884,-1413.89 L 80.1129,-1413.5 L 80.1129,-1214.5 L 80.0884,-1214.11 L 80.0151,-1213.73
 L 79.8943,-1213.35 L 79.7279,-1213 L 79.5184,-1212.67 L 79.2692,-1212.37 L 78.9843,-1212.1 L 78.668,-1211.87
 L 78.3254,-1211.68 L 77.9619,-1211.54 L 77.5833,-1211.44 L 77.1955,-1211.39 z
M 78.4369,-990.089 L 79.0451,-990.245 L 79.6289,-990.476 L 80.1791,-990.778 L 80.6871,-991.147 L 81.1448,-991.577
 L 81.5451,-992.061 L 81.8815,-992.591 L 82.1489,-993.159 L 82.3429,-993.757 L 82.4606,-994.373 L 82.5,-995
 L 82.5,-1195 L 82.4606,-1195.63 L 82.3429,-1196.24 L 82.1489,-1196.84 L 81.8815,-1197.41 L 81.5451,-1197.94
 L 81.1448,-1198.42 L 80.6871,-1198.85 L 80.1791,-1199.22 L 79.6289,-1199.52 L 79.0451,-1199.76 L 78.4369,-1199.91
 L 77.8139,-1199.99 L -77.8139,-1199.99 L -78.4369,-1199.91 L -79.0451,-1199.76 L -79.6289,-1199.52 L -80.1791,-1199.22
 L -80.6871,-1198.85 L -81.1448,-1198.42 L -81.5451,-1197.94 L -81.8815,-1197.41 L -82.1489,-1196.84 L -82.3429,-1196.24
 L -82.4606,-1195.63 L -82.5,-1195 L -82.5,-995 L -82.4606,-994.373 L -82.3429,-993.757 L -82.1489,-993.159
 L -81.8815,-992.591 L -81.5451,-992.061 L -81.1448,-991.577 L -80.6871,-991.147 L -80.1791,-990.778 L -79.6289,-990.476
 L -79.0451,-990.245 L -78.4369,-990.089 L -77.8139,-990.01 L 77.8139,-990.01 z
M 74.8659,-1190.37 L 74.5999,-1190.4 L 74.3401,-1190.47 L 74.0908,-1190.57 L 73.8559,-1190.7 L 73.6389,-1190.85
 L 73.4434,-1191.04 L 73.2725,-1191.24 L 73.1288,-1191.47 L 73.0146,-1191.71 L 72.9318,-1191.97 L 72.8815,-1192.23
 L 72.8647,-1192.5 L 72.8815,-1192.77 L 72.9318,-1193.03 L 73.0146,-1193.29 L 73.1288,-1193.53 L 73.2725,-1193.76
 L 73.4434,-1193.96 L 73.6389,-1194.15 L 73.8559,-1194.3 L 74.0908,-1194.43 L 74.3401,-1194.53 L 74.5999,-1194.6
 L 74.8659,-1194.63 L 75.1341,-1194.63 L 75.4001,-1194.6 L 75.6598,-1194.53 L 75.9092,-1194.43 L 76.1441,-1194.3
 L 76.3611,-1194.15 L 76.5566,-1193.96 L 76.7275,-1193.76 L 76.8712,-1193.53 L 76.9853,-1193.29 L 77.0682,-1193.03
 L 77.1185,-1192.77 L 77.1353,-1192.5 L 77.1185,-1192.23 L 77.0682,-1191.97 L 76.9853,-1191.71 L 76.8712,-1191.47
 L 76.7275,-1191.24 L 76.5566,-1191.04 L 76.3611,-1190.85 L 76.1441,-1190.7 L 75.9092,-1190.57 L 75.6598,-1190.47
 L 75.4001,-1190.4 L 75.1341,-1190.37 z
M -75.1341,-1190.37 L -75.4001,-1190.4 L -75.6598,-1190.47 L -75.9092,-1190.57 L -76.1441,-1190.7 L -76.3611,-1190.85
 L -76.5566,-1191.04 L -76.7275,-1191.24 L -76.8712,-1191.47 L -76.9853,-1191.71 L -77.0682,-1191.97 L -77.1185,-1192.23
 L -77.1353,-1192.5 L -77.1185,-1192.77 L -77.0682,-1193.03 L -76.9853,-1193.29 L -76.8712,-1193.53 L -76.7275,-1193.76
 L -76.5566,-1193.96 L -76.3611,-1194.15 L -76.1441,-1194.3 L -75.9092,-1194.43 L -75.6598,-1194.53 L -75.4001,-1194.6
 L -75.1341,-1194.63 L -74.8659,-1194.63 L -74.5999,-1194.6 L -74.3401,-1194.53 L -74.0908,-1194.43 L -73.8559,-1194.3
 L -73.6389,-1194.15 L -73.4434,-1193.96 L -73.2725,-1193.76 L -73.1288,-1193.53 L -73.0146,-1193.29 L -72.9318,-1193.03
 L -72.8815,-1192.77 L -72.8647,-1192.5 L -72.8815,-1192.23 L -72.9318,-1191.97 L -73.0146,-1191.71 L -73.1288,-1191.47
 L -73.2725,-1191.24 L -73.4434,-1191.04 L -73.6389,-1190.85 L -73.8559,-1190.7 L -74.0908,-1190.57 L -74.3401,-1190.47
 L -74.5999,-1190.4 L -74.8659,-1190.37 z
M 74.8659,-995.369 L 74.5999,-995.403 L 74.3401,-995.469 L 74.0908,-995.568 L 73.8559,-995.697 L 73.6389,-995.855
 L 73.4434,-996.038 L 73.2725,-996.245 L 73.1288,-996.471 L 73.0146,-996.714 L 72.9318,-996.969 L 72.8815,-997.232
 L 72.8647,-997.5 L 72.8815,-997.768 L 72.9318,-998.031 L 73.0146,-998.286 L 73.1288,-998.529 L 73.2725,-998.755
 L 73.4434,-998.962 L 73.6389,-999.145 L 73.8559,-999.303 L 74.0908,-999.432 L 74.3401,-999.531 L 74.5999,-999.597
 L 74.8659,-999.631 L 75.1341,-999.631 L 75.4001,-999.597 L 75.6598,-999.531 L 75.9092,-999.432 L 76.1441,-999.303
 L 76.3611,-999.145 L 76.5566,-998.962 L 76.7275,-998.755 L 76.8712,-998.529 L 76.9853,-998.286 L 77.0682,-998.031
 L 77.1185,-997.768 L 77.1353,-997.5 L 77.1185,-997.232 L 77.0682,-996.969 L 76.9853,-996.714 L 76.8712,-996.471
 L 76.7275,-996.245 L 76.5566,-996.038 L 76.3611,-995.855 L 76.1441,-995.697 L 75.9092,-995.568 L 75.6598,-995.469
 L 75.4001,-995.403 L 75.1341,-995.369 z
M -75.1341,-995.369 L -75.4001,-995.403 L -75.6598,-995.469 L -75.9092,-995.568 L -76.1441,-995.697 L -76.3611,-995.855
 L -76.5566,-996.038 L -76.7275,-996.245 L -76.8712,-996.471 L -76.9853,-996.714 L -77.0682,-996.969 L -77.1185,-997.232
 L -77.1353,-997.5 L -77.1185,-997.768 L -77.0682,-998.031 L -76.9853,-998.286 L -76.8712,-998.529 L -76.7275,-998.755
 L -76.5566,-998.962 L -76.3611,-999.145 L -76.1441,-999.303 L -75.9092,-999.432 L -75.6598,-999.531 L -75.4001,-999.597
 L -75.1341,-999.631 L -74.8659,-999.631 L -74.5999,-999.597 L -74.3401,-999.531 L -74.0908,-999.432 L -73.8559,-999.303
 L -73.6389,-999.145 L -73.4434,-998.962 L -73.2725,-998.755 L -73.1288,-998.529 L -73.0146,-998.286 L -72.9318,-998.031
 L -72.8815,-997.768 L -72.8647,-997.5 L -72.8815,-997.232 L -72.9318,-996.969 L -73.0146,-996.714 L -73.1288,-996.471
 L -73.2725,-996.245 L -73.4434,-996.038 L -73.6389,-995.855 L -73.8559,-995.697 L -74.0908,-995.568 L -74.3401,-995.469
 L -74.5999,-995.403 L -74.8659,-995.369 z
" stroke="black" fill="lightgray" stroke-width="0.5"/>
</svg>
