  0
SECTION
  2
BLOCKS
  0
ENDSEC
  0
SECTION
  2
ENTITIES
  0
LINE
  8
0
 10
108.437
 20
310.589
 11
109.045
 21
310.745
  0
LINE
  8
0
 10
109.045
 20
310.745
 11
109.629
 21
310.976
  0
LINE
  8
0
 10
109.629
 20
310.976
 11
110.179
 21
311.278
  0
LINE
  8
0
 10
110.179
 20
311.278
 11
110.687
 21
311.647
  0
LINE
  8
0
 10
110.687
 20
311.647
 11
111.145
 21
312.077
  0
LINE
  8
0
 10
111.145
 20
312.077
 11
111.545
 21
312.561
  0
LINE
  8
0
 10
111.545
 20
312.561
 11
111.882
 21
313.091
  0
LINE
  8
0
 10
111.882
 20
313.091
 11
112.149
 21
313.659
  0
LINE
  8
0
 10
112.149
 20
313.659
 11
112.343
 21
314.257
  0
LINE
  8
0
 10
112.343
 20
314.257
 11
112.461
 21
314.873
  0
LINE
  8
0
 10
112.461
 20
314.873
 11
112.5
 21
315.5
  0
LINE
  8
0
 10
112.5
 20
315.5
 11
112.5
 21
500.5
  0
LINE
  8
0
 10
112.5
 20
500.5
 11
112.461
 21
501.127
  0
LINE
  8
0
 10
112.461
 20
501.127
 11
112.343
 21
501.743
  0
LINE
  8
0
 10
112.343
 20
501.743
 11
112.149
 21
502.341
  0
LINE
  8
0
 10
112.149
 20
502.341
 11
111.882
 21
502.909
  0
LINE
  8
0
 10
111.882
 20
502.909
 11
111.545
 21
503.439
  0
LINE
  8
0
 10
111.545
 20
503.439
 11
111.145
 21
503.923
  0
LINE
  8
0
 10
111.145
 20
503.923
 11
110.687
 21
504.353
  0
LINE
  8
0
 10
110.687
 20
504.353
 11
110.179
 21
504.722
  0
LINE
  8
0
 10
110.179
 20
504.722
 11
109.629
 21
505.024
  0
LINE
  8
0
 10
109.629
 20
505.024
 11
109.045
 21
505.255
  0
LINE
  8
0
 10
109.045
 20
505.255
 11
108.437
 21
505.411
  0
LINE
  8
0
 10
108.437
 20
505.411
 11
107.814
 21
505.49
  0
LINE
  8
0
 10
107.814
 20
505.49
 11
-107.814
 21
505.49
  0
LINE
  8
0
 10
-107.814
 20
505.49
 11
-108.437
 21
505.411
  0
LINE
  8
0
 10
-108.437
 20
505.411
 11
-109.045
 21
505.255
  0
LINE
  8
0
 10
-109.045
 20
505.255
 11
-109.629
 21
505.024
  0
LINE
  8
0
 10
-109.629
 20
505.024
 11
-110.179
 21
504.722
  0
LINE
  8
0
 10
-110.179
 20
504.722
 11
-110.687
 21
504.353
  0
LINE
  8
0
 10
-110.687
 20
504.353
 11
-111.145
 21
503.923
  0
LINE
  8
0
 10
-111.145
 20
503.923
 11
-111.545
 21
503.439
  0
LINE
  8
0
 10
-111.545
 20
503.439
 11
-111.882
 21
502.909
  0
LINE
  8
0
 10
-111.882
 20
502.909
 11
-112.149
 21
502.341
  0
LINE
  8
0
 10
-112.149
 20
502.341
 11
-112.343
 21
501.743
  0
LINE
  8
0
 10
-112.343
 20
501.743
 11
-112.461
 21
501.127
  0
LINE
  8
0
 10
-112.461
 20
501.127
 11
-112.5
 21
500.5
  0
LINE
  8
0
 10
-112.5
 20
500.5
 11
-112.5
 21
315.5
  0
LINE
  8
0
 10
-112.5
 20
315.5
 11
-112.461
 21
314.873
  0
LINE
  8
0
 10
-112.461
 20
314.873
 11
-112.343
 21
314.257
  0
LINE
  8
0
 10
-112.343
 20
314.257
 11
-112.149
 21
313.659
  0
LINE
  8
0
 10
-112.149
 20
313.659
 11
-111.882
 21
313.091
  0
LINE
  8
0
 10
-111.882
 20
313.091
 11
-111.545
 21
312.561
  0
LINE
  8
0
 10
-111.545
 20
312.561
 11
-111.145
 21
312.077
  0
LINE
  8
0
 10
-111.145
 20
312.077
 11
-110.687
 21
311.647
  0
LINE
  8
0
 10
-110.687
 20
311.647
 11
-110.179
 21
311.278
  0
LINE
  8
0
 10
-110.179
 20
311.278
 11
-109.629
 21
310.976
  0
LINE
  8
0
 10
-109.629
 20
310.976
 11
-109.045
 21
310.745
  0
LINE
  8
0
 10
-109.045
 20
310.745
 11
-108.437
 21
310.589
  0
LINE
  8
0
 10
-108.437
 20
310.589
 11
-107.814
 21
310.51
  0
LINE
  8
0
 10
-107.814
 20
310.51
 11
107.814
 21
310.51
  0
LINE
  8
0
 10
107.814
 20
310.51
 11
108.437
 21
310.589
  0
LINE
  8
0
 10
-107.493
 20
311.888
 11
-107.975
 21
311.949
  0
LINE
  8
0
 10
-107.975
 20
311.949
 11
-108.446
 21
312.07
  0
LINE
  8
0
 10
-108.446
 20
312.07
 11
-108.898
 21
312.249
  0
LINE
  8
0
 10
-108.898
 20
312.249
 11
-109.323
 21
312.483
  0
LINE
  8
0
 10
-109.323
 20
312.483
 11
-109.716
 21
312.769
  0
LINE
  8
0
 10
-109.716
 20
312.769
 11
-110.071
 21
313.101
  0
LINE
  8
0
 10
-110.071
 20
313.101
 11
-110.38
 21
313.476
  0
LINE
  8
0
 10
-110.38
 20
313.476
 11
-110.641
 21
313.886
  0
LINE
  8
0
 10
-110.641
 20
313.886
 11
-110.848
 21
314.326
  0
LINE
  8
0
 10
-110.848
 20
314.326
 11
-110.998
 21
314.788
  0
LINE
  8
0
 10
-110.998
 20
314.788
 11
-111.089
 21
315.265
  0
LINE
  8
0
 10
-111.089
 20
315.265
 11
-111.119
 21
315.75
  0
LINE
  8
0
 10
-111.119
 20
315.75
 11
-111.119
 21
500.25
  0
LINE
  8
0
 10
-111.119
 20
500.25
 11
-111.089
 21
500.735
  0
LINE
  8
0
 10
-111.089
 20
500.735
 11
-110.998
 21
501.212
  0
LINE
  8
0
 10
-110.998
 20
501.212
 11
-110.848
 21
501.674
  0
LINE
  8
0
 10
-110.848
 20
501.674
 11
-110.641
 21
502.114
  0
LINE
  8
0
 10
-110.641
 20
502.114
 11
-110.38
 21
502.524
  0
LINE
  8
0
 10
-110.38
 20
502.524
 11
-110.071
 21
502.899
  0
LINE
  8
0
 10
-110.071
 20
502.899
 11
-109.716
 21
503.231
  0
LINE
  8
0
 10
-109.716
 20
503.231
 11
-109.323
 21
503.517
  0
LINE
  8
0
 10
-109.323
 20
503.517
 11
-108.898
 21
503.751
  0
LINE
  8
0
 10
-108.898
 20
503.751
 11
-108.446
 21
503.93
  0
LINE
  8
0
 10
-108.446
 20
503.93
 11
-107.975
 21
504.051
  0
LINE
  8
0
 10
-107.975
 20
504.051
 11
-107.493
 21
504.112
  0
LINE
  8
0
 10
-107.493
 20
504.112
 11
107.493
 21
504.112
  0
LINE
  8
0
 10
107.493
 20
504.112
 11
107.975
 21
504.051
  0
LINE
  8
0
 10
107.975
 20
504.051
 11
108.446
 21
503.93
  0
LINE
  8
0
 10
108.446
 20
503.93
 11
108.898
 21
503.751
  0
LINE
  8
0
 10
108.898
 20
503.751
 11
109.323
 21
503.517
  0
LINE
  8
0
 10
109.323
 20
503.517
 11
109.716
 21
503.231
  0
LINE
  8
0
 10
109.716
 20
503.231
 11
110.071
 21
502.899
  0
LINE
  8
0
 10
110.071
 20
502.899
 11
110.38
 21
502.524
  0
LINE
  8
0
 10
110.38
 20
502.524
 11
110.641
 21
502.114
  0
LINE
  8
0
 10
110.641
 20
502.114
 11
110.848
 21
501.674
  0
LINE
  8
0
 10
110.848
 20
501.674
 11
110.998
 21
501.212
  0
LINE
  8
0
 10
110.998
 20
501.212
 11
111.089
 21
500.735
  0
LINE
  8
0
 10
111.089
 20
500.735
 11
111.119
 21
500.25
  0
LINE
  8
0
 10
111.119
 20
500.25
 11
111.119
 21
315.75
  0
LINE
  8
0
 10
111.119
 20
315.75
 11
111.089
 21
315.265
  0
LINE
  8
0
 10
111.089
 20
315.265
 11
110.998
 21
314.788
  0
LINE
  8
0
 10
110.998
 20
314.788
 11
110.848
 21
314.326
  0
LINE
  8
0
 10
110.848
 20
314.326
 11
110.641
 21
313.886
  0
LINE
  8
0
 10
110.641
 20
313.886
 11
110.38
 21
313.476
  0
LINE
  8
0
 10
110.38
 20
313.476
 11
110.071
 21
313.101
  0
LINE
  8
0
 10
110.071
 20
313.101
 11
109.716
 21
312.769
  0
LINE
  8
0
 10
109.716
 20
312.769
 11
109.323
 21
312.483
  0
LINE
  8
0
 10
109.323
 20
312.483
 11
108.898
 21
312.249
  0
LINE
  8
0
 10
108.898
 20
312.249
 11
108.446
 21
312.07
  0
LINE
  8
0
 10
108.446
 20
312.07
 11
107.975
 21
311.949
  0
LINE
  8
0
 10
107.975
 20
311.949
 11
107.493
 21
311.888
  0
LINE
  8
0
 10
107.493
 20
311.888
 11
-107.493
 21
311.888
  0
LINE
  8
0
 10
108.437
 20
106.589
 11
109.045
 21
106.745
  0
LINE
  8
0
 10
109.045
 20
106.745
 11
109.629
 21
106.976
  0
LINE
  8
0
 10
109.629
 20
106.976
 11
110.179
 21
107.278
  0
LINE
  8
0
 10
110.179
 20
107.278
 11
110.687
 21
107.647
  0
LINE
  8
0
 10
110.687
 20
107.647
 11
111.145
 21
108.077
  0
LINE
  8
0
 10
111.145
 20
108.077
 11
111.545
 21
108.561
  0
LINE
  8
0
 10
111.545
 20
108.561
 11
111.882
 21
109.091
  0
LINE
  8
0
 10
111.882
 20
109.091
 11
112.149
 21
109.659
  0
LINE
  8
0
 10
112.149
 20
109.659
 11
112.343
 21
110.257
  0
LINE
  8
0
 10
112.343
 20
110.257
 11
112.461
 21
110.873
  0
LINE
  8
0
 10
112.461
 20
110.873
 11
112.5
 21
111.5
  0
LINE
  8
0
 10
112.5
 20
111.5
 11
112.5
 21
296.5
  0
LINE
  8
0
 10
112.5
 20
296.5
 11
112.461
 21
297.127
  0
LINE
  8
0
 10
112.461
 20
297.127
 11
112.343
 21
297.743
  0
LINE
  8
0
 10
112.343
 20
297.743
 11
112.149
 21
298.341
  0
LINE
  8
0
 10
112.149
 20
298.341
 11
111.882
 21
298.909
  0
LINE
  8
0
 10
111.882
 20
298.909
 11
111.545
 21
299.439
  0
LINE
  8
0
 10
111.545
 20
299.439
 11
111.145
 21
299.923
  0
LINE
  8
0
 10
111.145
 20
299.923
 11
110.687
 21
300.353
  0
LINE
  8
0
 10
110.687
 20
300.353
 11
110.179
 21
300.722
  0
LINE
  8
0
 10
110.179
 20
300.722
 11
109.629
 21
301.024
  0
LINE
  8
0
 10
109.629
 20
301.024
 11
109.045
 21
301.255
  0
LINE
  8
0
 10
109.045
 20
301.255
 11
108.437
 21
301.411
  0
LINE
  8
0
 10
108.437
 20
301.411
 11
107.814
 21
301.49
  0
LINE
  8
0
 10
107.814
 20
301.49
 11
-107.814
 21
301.49
  0
LINE
  8
0
 10
-107.814
 20
301.49
 11
-108.437
 21
301.411
  0
LINE
  8
0
 10
-108.437
 20
301.411
 11
-109.045
 21
301.255
  0
LINE
  8
0
 10
-109.045
 20
301.255
 11
-109.629
 21
301.024
  0
LINE
  8
0
 10
-109.629
 20
301.024
 11
-110.179
 21
300.722
  0
LINE
  8
0
 10
-110.179
 20
300.722
 11
-110.687
 21
300.353
  0
LINE
  8
0
 10
-110.687
 20
300.353
 11
-111.145
 21
299.923
  0
LINE
  8
0
 10
-111.145
 20
299.923
 11
-111.545
 21
299.439
  0
LINE
  8
0
 10
-111.545
 20
299.439
 11
-111.882
 21
298.909
  0
LINE
  8
0
 10
-111.882
 20
298.909
 11
-112.149
 21
298.341
  0
LINE
  8
0
 10
-112.149
 20
298.341
 11
-112.343
 21
297.743
  0
LINE
  8
0
 10
-112.343
 20
297.743
 11
-112.461
 21
297.127
  0
LINE
  8
0
 10
-112.461
 20
297.127
 11
-112.5
 21
296.5
  0
LINE
  8
0
 10
-112.5
 20
296.5
 11
-112.5
 21
111.5
  0
LINE
  8
0
 10
-112.5
 20
111.5
 11
-112.461
 21
110.873
  0
LINE
  8
0
 10
-112.461
 20
110.873
 11
-112.343
 21
110.257
  0
LINE
  8
0
 10
-112.343
 20
110.257
 11
-112.149
 21
109.659
  0
LINE
  8
0
 10
-112.149
 20
109.659
 11
-111.882
 21
109.091
  0
LINE
  8
0
 10
-111.882
 20
109.091
 11
-111.545
 21
108.561
  0
LINE
  8
0
 10
-111.545
 20
108.561
 11
-111.145
 21
108.077
  0
LINE
  8
0
 10
-111.145
 20
108.077
 11
-110.687
 21
107.647
  0
LINE
  8
0
 10
-110.687
 20
107.647
 11
-110.179
 21
107.278
  0
LINE
  8
0
 10
-110.179
 20
107.278
 11
-109.629
 21
106.976
  0
LINE
  8
0
 10
-109.629
 20
106.976
 11
-109.045
 21
106.745
  0
LINE
  8
0
 10
-109.045
 20
106.745
 11
-108.437
 21
106.589
  0
LINE
  8
0
 10
-108.437
 20
106.589
 11
-107.814
 21
106.51
  0
LINE
  8
0
 10
-107.814
 20
106.51
 11
107.814
 21
106.51
  0
LINE
  8
0
 10
107.814
 20
106.51
 11
108.437
 21
106.589
  0
LINE
  8
0
 10
104.887
 20
292.204
 11
104.663
 21
292.232
  0
LINE
  8
0
 10
104.663
 20
292.232
 11
104.444
 21
292.288
  0
LINE
  8
0
 10
104.444
 20
292.288
 11
104.234
 21
292.371
  0
LINE
  8
0
 10
104.234
 20
292.371
 11
104.036
 21
292.48
  0
LINE
  8
0
 10
104.036
 20
292.48
 11
103.853
 21
292.613
  0
LINE
  8
0
 10
103.853
 20
292.613
 11
103.688
 21
292.768
  0
LINE
  8
0
 10
103.688
 20
292.768
 11
103.544
 21
292.942
  0
LINE
  8
0
 10
103.544
 20
292.942
 11
103.423
 21
293.133
  0
LINE
  8
0
 10
103.423
 20
293.133
 11
103.326
 21
293.337
  0
LINE
  8
0
 10
103.326
 20
293.337
 11
103.257
 21
293.552
  0
LINE
  8
0
 10
103.257
 20
293.552
 11
103.214
 21
293.774
  0
LINE
  8
0
 10
103.214
 20
293.774
 11
103.2
 21
294
  0
LINE
  8
0
 10
103.2
 20
294
 11
103.214
 21
294.226
  0
LINE
  8
0
 10
103.214
 20
294.226
 11
103.257
 21
294.448
  0
LINE
  8
0
 10
103.257
 20
294.448
 11
103.326
 21
294.663
  0
LINE
  8
0
 10
103.326
 20
294.663
 11
103.423
 21
294.867
  0
LINE
  8
0
 10
103.423
 20
294.867
 11
103.544
 21
295.058
  0
LINE
  8
0
 10
103.544
 20
295.058
 11
103.688
 21
295.232
  0
LINE
  8
0
 10
103.688
 20
295.232
 11
103.853
 21
295.387
  0
LINE
  8
0
 10
103.853
 20
295.387
 11
104.036
 21
295.52
  0
LINE
  8
0
 10
104.036
 20
295.52
 11
104.234
 21
295.629
  0
LINE
  8
0
 10
104.234
 20
295.629
 11
104.444
 21
295.712
  0
LINE
  8
0
 10
104.444
 20
295.712
 11
104.663
 21
295.768
  0
LINE
  8
0
 10
104.663
 20
295.768
 11
104.887
 21
295.796
  0
LINE
  8
0
 10
104.887
 20
295.796
 11
105.113
 21
295.796
  0
LINE
  8
0
 10
105.113
 20
295.796
 11
105.337
 21
295.768
  0
LINE
  8
0
 10
105.337
 20
295.768
 11
105.556
 21
295.712
  0
LINE
  8
0
 10
105.556
 20
295.712
 11
105.766
 21
295.629
  0
LINE
  8
0
 10
105.766
 20
295.629
 11
105.964
 21
295.52
  0
LINE
  8
0
 10
105.964
 20
295.52
 11
106.147
 21
295.387
  0
LINE
  8
0
 10
106.147
 20
295.387
 11
106.312
 21
295.232
  0
LINE
  8
0
 10
106.312
 20
295.232
 11
106.456
 21
295.058
  0
LINE
  8
0
 10
106.456
 20
295.058
 11
106.577
 21
294.867
  0
LINE
  8
0
 10
106.577
 20
294.867
 11
106.674
 21
294.663
  0
LINE
  8
0
 10
106.674
 20
294.663
 11
106.743
 21
294.448
  0
LINE
  8
0
 10
106.743
 20
294.448
 11
106.786
 21
294.226
  0
LINE
  8
0
 10
106.786
 20
294.226
 11
106.8
 21
294
  0
LINE
  8
0
 10
106.8
 20
294
 11
106.786
 21
293.774
  0
LINE
  8
0
 10
106.786
 20
293.774
 11
106.743
 21
293.552
  0
LINE
  8
0
 10
106.743
 20
293.552
 11
106.674
 21
293.337
  0
LINE
  8
0
 10
106.674
 20
293.337
 11
106.577
 21
293.133
  0
LINE
  8
0
 10
106.577
 20
293.133
 11
106.456
 21
292.942
  0
LINE
  8
0
 10
106.456
 20
292.942
 11
106.312
 21
292.768
  0
LINE
  8
0
 10
106.312
 20
292.768
 11
106.147
 21
292.613
  0
LINE
  8
0
 10
106.147
 20
292.613
 11
105.964
 21
292.48
  0
LINE
  8
0
 10
105.964
 20
292.48
 11
105.766
 21
292.371
  0
LINE
  8
0
 10
105.766
 20
292.371
 11
105.556
 21
292.288
  0
LINE
  8
0
 10
105.556
 20
292.288
 11
105.337
 21
292.232
  0
LINE
  8
0
 10
105.337
 20
292.232
 11
105.113
 21
292.204
  0
LINE
  8
0
 10
105.113
 20
292.204
 11
104.887
 21
292.204
  0
LINE
  8
0
 10
-105.113
 20
292.204
 11
-105.337
 21
292.232
  0
LINE
  8
0
 10
-105.337
 20
292.232
 11
-105.556
 21
292.288
  0
LINE
  8
0
 10
-105.556
 20
292.288
 11
-105.766
 21
292.371
  0
LINE
  8
0
 10
-105.766
 20
292.371
 11
-105.964
 21
292.48
  0
LINE
  8
0
 10
-105.964
 20
292.48
 11
-106.147
 21
292.613
  0
LINE
  8
0
 10
-106.147
 20
292.613
 11
-106.312
 21
292.768
  0
LINE
  8
0
 10
-106.312
 20
292.768
 11
-106.456
 21
292.942
  0
LINE
  8
0
 10
-106.456
 20
292.942
 11
-106.577
 21
293.133
  0
LINE
  8
0
 10
-106.577
 20
293.133
 11
-106.674
 21
293.337
  0
LINE
  8
0
 10
-106.674
 20
293.337
 11
-106.743
 21
293.552
  0
LINE
  8
0
 10
-106.743
 20
293.552
 11
-106.786
 21
293.774
  0
LINE
  8
0
 10
-106.786
 20
293.774
 11
-106.8
 21
294
  0
LINE
  8
0
 10
-106.8
 20
294
 11
-106.786
 21
294.226
  0
LINE
  8
0
 10
-106.786
 20
294.226
 11
-106.743
 21
294.448
  0
LINE
  8
0
 10
-106.743
 20
294.448
 11
-106.674
 21
294.663
  0
LINE
  8
0
 10
-106.674
 20
294.663
 11
-106.577
 21
294.867
  0
LINE
  8
0
 10
-106.577
 20
294.867
 11
-106.456
 21
295.058
  0
LINE
  8
0
 10
-106.456
 20
295.058
 11
-106.312
 21
295.232
  0
LINE
  8
0
 10
-106.312
 20
295.232
 11
-106.147
 21
295.387
  0
LINE
  8
0
 10
-106.147
 20
295.387
 11
-105.964
 21
295.52
  0
LINE
  8
0
 10
-105.964
 20
295.52
 11
-105.766
 21
295.629
  0
LINE
  8
0
 10
-105.766
 20
295.629
 11
-105.556
 21
295.712
  0
LINE
  8
0
 10
-105.556
 20
295.712
 11
-105.337
 21
295.768
  0
LINE
  8
0
 10
-105.337
 20
295.768
 11
-105.113
 21
295.796
  0
LINE
  8
0
 10
-105.113
 20
295.796
 11
-104.887
 21
295.796
  0
LINE
  8
0
 10
-104.887
 20
295.796
 11
-104.663
 21
295.768
  0
LINE
  8
0
 10
-104.663
 20
295.768
 11
-104.444
 21
295.712
  0
LINE
  8
0
 10
-104.444
 20
295.712
 11
-104.234
 21
295.629
  0
LINE
  8
0
 10
-104.234
 20
295.629
 11
-104.036
 21
295.52
  0
LINE
  8
0
 10
-104.036
 20
295.52
 11
-103.853
 21
295.387
  0
LINE
  8
0
 10
-103.853
 20
295.387
 11
-103.688
 21
295.232
  0
LINE
  8
0
 10
-103.688
 20
295.232
 11
-103.544
 21
295.058
  0
LINE
  8
0
 10
-103.544
 20
295.058
 11
-103.423
 21
294.867
  0
LINE
  8
0
 10
-103.423
 20
294.867
 11
-103.326
 21
294.663
  0
LINE
  8
0
 10
-103.326
 20
294.663
 11
-103.257
 21
294.448
  0
LINE
  8
0
 10
-103.257
 20
294.448
 11
-103.214
 21
294.226
  0
LINE
  8
0
 10
-103.214
 20
294.226
 11
-103.2
 21
294
  0
LINE
  8
0
 10
-103.2
 20
294
 11
-103.214
 21
293.774
  0
LINE
  8
0
 10
-103.214
 20
293.774
 11
-103.257
 21
293.552
  0
LINE
  8
0
 10
-103.257
 20
293.552
 11
-103.326
 21
293.337
  0
LINE
  8
0
 10
-103.326
 20
293.337
 11
-103.423
 21
293.133
  0
LINE
  8
0
 10
-103.423
 20
293.133
 11
-103.544
 21
292.942
  0
LINE
  8
0
 10
-103.544
 20
292.942
 11
-103.688
 21
292.768
  0
LINE
  8
0
 10
-103.688
 20
292.768
 11
-103.853
 21
292.613
  0
LINE
  8
0
 10
-103.853
 20
292.613
 11
-104.036
 21
292.48
  0
LINE
  8
0
 10
-104.036
 20
292.48
 11
-104.234
 21
292.371
  0
LINE
  8
0
 10
-104.234
 20
292.371
 11
-104.444
 21
292.288
  0
LINE
  8
0
 10
-104.444
 20
292.288
 11
-104.663
 21
292.232
  0
LINE
  8
0
 10
-104.663
 20
292.232
 11
-104.887
 21
292.204
  0
LINE
  8
0
 10
-104.887
 20
292.204
 11
-105.113
 21
292.204
  0
LINE
  8
0
 10
-105.113
 20
112.204
 11
-105.337
 21
112.232
  0
LINE
  8
0
 10
-105.337
 20
112.232
 11
-105.556
 21
112.288
  0
LINE
  8
0
 10
-105.556
 20
112.288
 11
-105.766
 21
112.371
  0
LINE
  8
0
 10
-105.766
 20
112.371
 11
-105.964
 21
112.48
  0
LINE
  8
0
 10
-105.964
 20
112.48
 11
-106.147
 21
112.613
  0
LINE
  8
0
 10
-106.147
 20
112.613
 11
-106.312
 21
112.768
  0
LINE
  8
0
 10
-106.312
 20
112.768
 11
-106.456
 21
112.942
  0
LINE
  8
0
 10
-106.456
 20
112.942
 11
-106.577
 21
113.133
  0
LINE
  8
0
 10
-106.577
 20
113.133
 11
-106.674
 21
113.337
  0
LINE
  8
0
 10
-106.674
 20
113.337
 11
-106.743
 21
113.552
  0
LINE
  8
0
 10
-106.743
 20
113.552
 11
-106.786
 21
113.774
  0
LINE
  8
0
 10
-106.786
 20
113.774
 11
-106.8
 21
114
  0
LINE
  8
0
 10
-106.8
 20
114
 11
-106.786
 21
114.226
  0
LINE
  8
0
 10
-106.786
 20
114.226
 11
-106.743
 21
114.448
  0
LINE
  8
0
 10
-106.743
 20
114.448
 11
-106.674
 21
114.663
  0
LINE
  8
0
 10
-106.674
 20
114.663
 11
-106.577
 21
114.867
  0
LINE
  8
0
 10
-106.577
 20
114.867
 11
-106.456
 21
115.058
  0
LINE
  8
0
 10
-106.456
 20
115.058
 11
-106.312
 21
115.232
  0
LINE
  8
0
 10
-106.312
 20
115.232
 11
-106.147
 21
115.387
  0
LINE
  8
0
 10
-106.147
 20
115.387
 11
-105.964
 21
115.52
  0
LINE
  8
0
 10
-105.964
 20
115.52
 11
-105.766
 21
115.629
  0
LINE
  8
0
 10
-105.766
 20
115.629
 11
-105.556
 21
115.712
  0
LINE
  8
0
 10
-105.556
 20
115.712
 11
-105.337
 21
115.768
  0
LINE
  8
0
 10
-105.337
 20
115.768
 11
-105.113
 21
115.796
  0
LINE
  8
0
 10
-105.113
 20
115.796
 11
-104.887
 21
115.796
  0
LINE
  8
0
 10
-104.887
 20
115.796
 11
-104.663
 21
115.768
  0
LINE
  8
0
 10
-104.663
 20
115.768
 11
-104.444
 21
115.712
  0
LINE
  8
0
 10
-104.444
 20
115.712
 11
-104.234
 21
115.629
  0
LINE
  8
0
 10
-104.234
 20
115.629
 11
-104.036
 21
115.52
  0
LINE
  8
0
 10
-104.036
 20
115.52
 11
-103.853
 21
115.387
  0
LINE
  8
0
 10
-103.853
 20
115.387
 11
-103.688
 21
115.232
  0
LINE
  8
0
 10
-103.688
 20
115.232
 11
-103.544
 21
115.058
  0
LINE
  8
0
 10
-103.544
 20
115.058
 11
-103.423
 21
114.867
  0
LINE
  8
0
 10
-103.423
 20
114.867
 11
-103.326
 21
114.663
  0
LINE
  8
0
 10
-103.326
 20
114.663
 11
-103.257
 21
114.448
  0
LINE
  8
0
 10
-103.257
 20
114.448
 11
-103.214
 21
114.226
  0
LINE
  8
0
 10
-103.214
 20
114.226
 11
-103.2
 21
114
  0
LINE
  8
0
 10
-103.2
 20
114
 11
-103.214
 21
113.774
  0
LINE
  8
0
 10
-103.214
 20
113.774
 11
-103.257
 21
113.552
  0
LINE
  8
0
 10
-103.257
 20
113.552
 11
-103.326
 21
113.337
  0
LINE
  8
0
 10
-103.326
 20
113.337
 11
-103.423
 21
113.133
  0
LINE
  8
0
 10
-103.423
 20
113.133
 11
-103.544
 21
112.942
  0
LINE
  8
0
 10
-103.544
 20
112.942
 11
-103.688
 21
112.768
  0
LINE
  8
0
 10
-103.688
 20
112.768
 11
-103.853
 21
112.613
  0
LINE
  8
0
 10
-103.853
 20
112.613
 11
-104.036
 21
112.48
  0
LINE
  8
0
 10
-104.036
 20
112.48
 11
-104.234
 21
112.371
  0
LINE
  8
0
 10
-104.234
 20
112.371
 11
-104.444
 21
112.288
  0
LINE
  8
0
 10
-104.444
 20
112.288
 11
-104.663
 21
112.232
  0
LINE
  8
0
 10
-104.663
 20
112.232
 11
-104.887
 21
112.204
  0
LINE
  8
0
 10
-104.887
 20
112.204
 11
-105.113
 21
112.204
  0
LINE
  8
0
 10
104.887
 20
112.204
 11
104.663
 21
112.232
  0
LINE
  8
0
 10
104.663
 20
112.232
 11
104.444
 21
112.288
  0
LINE
  8
0
 10
104.444
 20
112.288
 11
104.234
 21
112.371
  0
LINE
  8
0
 10
104.234
 20
112.371
 11
104.036
 21
112.48
  0
LINE
  8
0
 10
104.036
 20
112.48
 11
103.853
 21
112.613
  0
LINE
  8
0
 10
103.853
 20
112.613
 11
103.688
 21
112.768
  0
LINE
  8
0
 10
103.688
 20
112.768
 11
103.544
 21
112.942
  0
LINE
  8
0
 10
103.544
 20
112.942
 11
103.423
 21
113.133
  0
LINE
  8
0
 10
103.423
 20
113.133
 11
103.326
 21
113.337
  0
LINE
  8
0
 10
103.326
 20
113.337
 11
103.257
 21
113.552
  0
LINE
  8
0
 10
103.257
 20
113.552
 11
103.214
 21
113.774
  0
LINE
  8
0
 10
103.214
 20
113.774
 11
103.2
 21
114
  0
LINE
  8
0
 10
103.2
 20
114
 11
103.214
 21
114.226
  0
LINE
  8
0
 10
103.214
 20
114.226
 11
103.257
 21
114.448
  0
LINE
  8
0
 10
103.257
 20
114.448
 11
103.326
 21
114.663
  0
LINE
  8
0
 10
103.326
 20
114.663
 11
103.423
 21
114.867
  0
LINE
  8
0
 10
103.423
 20
114.867
 11
103.544
 21
115.058
  0
LINE
  8
0
 10
103.544
 20
115.058
 11
103.688
 21
115.232
  0
LINE
  8
0
 10
103.688
 20
115.232
 11
103.853
 21
115.387
  0
LINE
  8
0
 10
103.853
 20
115.387
 11
104.036
 21
115.52
  0
LINE
  8
0
 10
104.036
 20
115.52
 11
104.234
 21
115.629
  0
LINE
  8
0
 10
104.234
 20
115.629
 11
104.444
 21
115.712
  0
LINE
  8
0
 10
104.444
 20
115.712
 11
104.663
 21
115.768
  0
LINE
  8
0
 10
104.663
 20
115.768
 11
104.887
 21
115.796
  0
LINE
  8
0
 10
104.887
 20
115.796
 11
105.113
 21
115.796
  0
LINE
  8
0
 10
105.113
 20
115.796
 11
105.337
 21
115.768
  0
LINE
  8
0
 10
105.337
 20
115.768
 11
105.556
 21
115.712
  0
LINE
  8
0
 10
105.556
 20
115.712
 11
105.766
 21
115.629
  0
LINE
  8
0
 10
105.766
 20
115.629
 11
105.964
 21
115.52
  0
LINE
  8
0
 10
105.964
 20
115.52
 11
106.147
 21
115.387
  0
LINE
  8
0
 10
106.147
 20
115.387
 11
106.312
 21
115.232
  0
LINE
  8
0
 10
106.312
 20
115.232
 11
106.456
 21
115.058
  0
LINE
  8
0
 10
106.456
 20
115.058
 11
106.577
 21
114.867
  0
LINE
  8
0
 10
106.577
 20
114.867
 11
106.674
 21
114.663
  0
LINE
  8
0
 10
106.674
 20
114.663
 11
106.743
 21
114.448
  0
LINE
  8
0
 10
106.743
 20
114.448
 11
106.786
 21
114.226
  0
LINE
  8
0
 10
106.786
 20
114.226
 11
106.8
 21
114
  0
LINE
  8
0
 10
106.8
 20
114
 11
106.786
 21
113.774
  0
LINE
  8
0
 10
106.786
 20
113.774
 11
106.743
 21
113.552
  0
LINE
  8
0
 10
106.743
 20
113.552
 11
106.674
 21
113.337
  0
LINE
  8
0
 10
106.674
 20
113.337
 11
106.577
 21
113.133
  0
LINE
  8
0
 10
106.577
 20
113.133
 11
106.456
 21
112.942
  0
LINE
  8
0
 10
106.456
 20
112.942
 11
106.312
 21
112.768
  0
LINE
  8
0
 10
106.312
 20
112.768
 11
106.147
 21
112.613
  0
LINE
  8
0
 10
106.147
 20
112.613
 11
105.964
 21
112.48
  0
LINE
  8
0
 10
105.964
 20
112.48
 11
105.766
 21
112.371
  0
LINE
  8
0
 10
105.766
 20
112.371
 11
105.556
 21
112.288
  0
LINE
  8
0
 10
105.556
 20
112.288
 11
105.337
 21
112.232
  0
LINE
  8
0
 10
105.337
 20
112.232
 11
105.113
 21
112.204
  0
LINE
  8
0
 10
105.113
 20
112.204
 11
104.887
 21
112.204
  0
ENDSEC
  0
SECTION
  2
OBJECTS
  0
DICTIONARY
  0
ENDSEC
  0
EOF
