<?xml version="1.0" standalone="no"?>
<!DOCTYPE svg PUBLIC "-//W3C//DTD SVG 1.1//EN" "http://www.w3.org/Graphics/SVG/1.1/DTD/svg11.dtd">
<svg width="76mm" height="46mm" viewBox="-53 -23 76 46" xmlns="http://www.w3.org/2000/svg" version="1.1">
<title>OpenSCAD Model</title>
<path d="
M 18.4369,22.4114 L 19.0451,22.2553 L 19.6289,22.0241 L 20.1791,21.7216 L 20.6871,21.3526 L 21.1448,20.9227
 L 21.5451,20.4389 L 21.8815,19.9088 L 22.1489,19.3406 L 22.3429,18.7434 L 22.4606,18.1267 L 22.5,17.5
 L 22.5,-17.5 L 22.4606,-18.1267 L 22.3429,-18.7434 L 22.1489,-19.3406 L 21.8815,-19.9088 L 21.5451,-20.4389
 L 21.1448,-20.9227 L 20.6871,-21.3526 L 20.1791,-21.7216 L 19.6289,-22.0241 L 19.0451,-22.2553 L 18.4369,-22.4114
 L 17.8139,-22.4901 L -47.8139,-22.4901 L -48.4369,-22.4114 L -49.0451,-22.2553 L -49.6289,-22.0241 L -50.1791,-21.7216
 L -50.6871,-21.3526 L -51.1448,-20.9227 L -51.5451,-20.4389 L -51.8815,-19.9088 L -52.1489,-19.3406 L -52.3429,-18.7434
 L -52.4606,-18.1267 L -52.5,-17.5 L -52.5,17.5 L -52.4606,18.1267 L -52.3429,18.7434 L -52.1489,19.3406
 L -51.8815,19.9088 L -51.5451,20.4389 L -51.1448,20.9227 L -50.6871,21.3526 L -50.1791,21.7216 L -49.6289,22.0241
 L -49.0451,22.2553 L -48.4369,22.4114 L -47.8139,22.4901 L 17.8139,22.4901 z
M 14.8116,-12.0059 L 14.4379,-12.0531 L 14.0729,-12.1468 L 13.7227,-12.2855 L 13.3925,-12.467 L 13.0877,-12.6884
 L 12.8131,-12.9464 L 12.5729,-13.2366 L 12.3711,-13.5547 L 12.2107,-13.8956 L 12.0942,-14.2539 L 12.0237,-14.624
 L 12,-15 L 12.0237,-15.376 L 12.0942,-15.7461 L 12.2107,-16.1044 L 12.3711,-16.4453 L 12.5729,-16.7634
 L 12.8131,-17.0536 L 13.0877,-17.3115 L 13.3925,-17.533 L 13.7227,-17.7145 L 14.0729,-17.8532 L 14.4379,-17.9469
 L 14.8116,-17.9941 L 15.1884,-17.9941 L 15.5621,-17.9469 L 15.927,-17.8532 L 16.2773,-17.7145 L 16.6075,-17.533
 L 16.9123,-17.3115 L 17.1869,-17.0536 L 17.427,-16.7634 L 17.6289,-16.4453 L 17.7893,-16.1044 L 17.9057,-15.7461
 L 17.9763,-15.376 L 18,-15 L 17.9763,-14.624 L 17.9057,-14.2539 L 17.7893,-13.8956 L 17.6289,-13.5547
 L 17.427,-13.2366 L 17.1869,-12.9464 L 16.9123,-12.6884 L 16.6075,-12.467 L 16.2773,-12.2855 L 15.927,-12.1468
 L 15.5621,-12.0531 L 15.1884,-12.0059 z
M -30.1884,-12.0059 L -30.5621,-12.0531 L -30.927,-12.1468 L -31.2773,-12.2855 L -31.6075,-12.467 L -31.9123,-12.6884
 L -32.1869,-12.9464 L -32.427,-13.2366 L -32.6289,-13.5547 L -32.7893,-13.8956 L -32.9057,-14.2539 L -32.9763,-14.624
 L -33,-15 L -32.9763,-15.376 L -32.9057,-15.7461 L -32.7893,-16.1044 L -32.6289,-16.4453 L -32.427,-16.7634
 L -32.1869,-17.0536 L -31.9123,-17.3115 L -31.6075,-17.533 L -31.2773,-17.7145 L -30.927,-17.8532 L -30.5621,-17.9469
 L -30.1884,-17.9941 L -29.8116,-17.9941 L -29.4379,-17.9469 L -29.0729,-17.8532 L -28.7227,-17.7145 L -28.3925,-17.533
 L -28.0877,-17.3115 L -27.8131,-17.0536 L -27.5729,-16.7634 L -27.3711,-16.4453 L -27.2107,-16.1044 L -27.0942,-15.7461
 L -27.0237,-15.376 L -27,-15 L -27.0237,-14.624 L -27.0942,-14.2539 L -27.2107,-13.8956 L -27.3711,-13.5547
 L -27.5729,-13.2366 L -27.8131,-12.9464 L -28.0877,-12.6884 L -28.3925,-12.467 L -28.7227,-12.2855 L -29.0729,-12.1468
 L -29.4379,-12.0531 L -29.8116,-12.0059 z
M -15.1884,-12.0059 L -15.5621,-12.0531 L -15.927,-12.1468 L -16.2773,-12.2855 L -16.6075,-12.467 L -16.9123,-12.6884
 L -17.1869,-12.9464 L -17.427,-13.2366 L -17.6289,-13.5547 L -17.7893,-13.8956 L -17.9057,-14.2539 L -17.9763,-14.624
 L -18,-15 L -17.9763,-15.376 L -17.9057,-15.7461 L -17.7893,-16.1044 L -17.6289,-16.4453 L -17.427,-16.7634
 L -17.1869,-17.0536 L -16.9123,-17.3115 L -16.6075,-17.533 L -16.2773,-17.7145 L -15.927,-17.8532 L -15.5621,-17.9469
 L -15.1884,-17.9941 L -14.8116,-17.9941 L -14.4379,-17.9469 L -14.0729,-17.8532 L -13.7227,-17.7145 L -13.3925,-17.533
 L -13.0877,-17.3115 L -12.8131,-17.0536 L -12.5729,-16.7634 L -12.3711,-16.4453 L -12.2107,-16.1044 L -12.0942,-15.7461
 L -12.0237,-15.376 L -12,-15 L -12.0237,-14.624 L -12.0942,-14.2539 L -12.2107,-13.8956 L -12.3711,-13.5547
 L -12.5729,-13.2366 L -12.8131,-12.9464 L -13.0877,-12.6884 L -13.3925,-12.467 L -13.7227,-12.2855 L -14.0729,-12.1468
 L -14.4379,-12.0531 L -14.8116,-12.0059 z
M -45.1884,-12.0059 L -45.5621,-12.0531 L -45.927,-12.1468 L -46.2773,-12.2855 L -46.6075,-12.467 L -46.9123,-12.6884
 L -47.1869,-12.9464 L -47.427,-13.2366 L -47.6289,-13.5547 L -47.7893,-13.8956 L -47.9057,-14.2539 L -47.9763,-14.624
 L -48,-15 L -47.9763,-15.376 L -47.9057,-15.7461 L -47.7893,-16.1044 L -47.6289,-16.4453 L -47.427,-16.7634
 L -47.1869,-17.0536 L -46.9123,-17.3115 L -46.6075,-17.533 L -46.2773,-17.7145 L -45.927,-17.8532 L -45.5621,-17.9469
 L -45.1884,-17.9941 L -44.8116,-17.9941 L -44.4379,-17.9469 L -44.0729,-17.8532 L -43.7227,-17.7145 L -43.3925,-17.533
 L -43.0877,-17.3115 L -42.8131,-17.0536 L -42.5729,-16.7634 L -42.3711,-16.4453 L -42.2107,-16.1044 L -42.0942,-15.7461
 L -42.0237,-15.376 L -42,-15 L -42.0237,-14.624 L -42.0942,-14.2539 L -42.2107,-13.8956 L -42.3711,-13.5547
 L -42.5729,-13.2366 L -42.8131,-12.9464 L -43.0877,-12.6884 L -43.3925,-12.467 L -43.7227,-12.2855 L -44.0729,-12.1468
 L -44.4379,-12.0531 L -44.8116,-12.0059 z
M -37.5942,-13.5029 L -37.7811,-13.5266 L -37.9635,-13.5734 L -38.1387,-13.6427 L -38.3037,-13.7335 L -38.4561,-13.8442
 L -38.5934,-13.9732 L -38.7135,-14.1183 L -38.8145,-14.2774 L -38.8947,-14.4478 L -38.9529,-14.627 L -38.9882,-14.812
 L -39,-15 L -38.9882,-15.188 L -38.9529,-15.373 L -38.8947,-15.5522 L -38.8145,-15.7226 L -38.7135,-15.8817
 L -38.5934,-16.0268 L -38.4561,-16.1558 L -38.3037,-16.2665 L -38.1387,-16.3572 L -37.9635,-16.4266 L -37.7811,-16.4734
 L -37.5942,-16.497 L -37.4058,-16.497 L -37.2189,-16.4734 L -37.0365,-16.4266 L -36.8613,-16.3572 L -36.6963,-16.2665
 L -36.5439,-16.1558 L -36.4065,-16.0268 L -36.2865,-15.8817 L -36.1855,-15.7226 L -36.1053,-15.5522 L -36.0471,-15.373
 L -36.0118,-15.188 L -36,-15 L -36.0118,-14.812 L -36.0471,-14.627 L -36.1053,-14.4478 L -36.1855,-14.2774
 L -36.2865,-14.1183 L -36.4065,-13.9732 L -36.5439,-13.8442 L -36.6963,-13.7335 L -36.8613,-13.6427 L -37.0365,-13.5734
 L -37.2189,-13.5266 L -37.4058,-13.5029 z
M -1.00464,15.9684 L -2.99809,15.7166 L -4.94426,15.2169 L -6.81245,14.4772 L -8.57323,13.5092 L -10.1988,12.3282
 L -11.6635,10.9527 L -12.9443,9.40456 L -14.0209,7.70805 L -14.8764,5.88998 L -15.4973,3.97903 L -15.8738,2.00533
 L -16,-0 L -15.8738,-2.00533 L -15.4973,-3.97903 L -14.8764,-5.88998 L -14.0209,-7.70805 L -12.9443,-9.40456
 L -11.6635,-10.9527 L -10.1988,-12.3282 L -8.57323,-13.5092 L -6.81245,-14.4772 L -4.94426,-15.2169 L -2.99809,-15.7166
 L -1.00464,-15.9684 L 1.00464,-15.9684 L 2.99809,-15.7166 L 4.94426,-15.2169 L 6.81245,-14.4772 L 8.57323,-13.5092
 L 10.1988,-12.3282 L 11.6635,-10.9527 L 12.9443,-9.40456 L 14.0209,-7.70805 L 14.8764,-5.88998 L 15.4973,-3.97903
 L 15.8738,-2.00533 L 16,-0 L 15.8738,2.00533 L 15.4973,3.97903 L 14.8764,5.88998 L 14.0209,7.70805
 L 12.9443,9.40456 L 11.6635,10.9527 L 10.1988,12.3282 L 8.57323,13.5092 L 6.81245,14.4772 L 4.94426,15.2169
 L 2.99809,15.7166 L 1.00464,15.9684 z
M -45.0942,-6.00294 L -45.2811,-6.02657 L -45.4635,-6.07341 L -45.6387,-6.14275 L -45.8037,-6.23351 L -45.9561,-6.34422
 L -46.0934,-6.47318 L -46.2135,-6.61832 L -46.3145,-6.77736 L -46.3947,-6.9478 L -46.4529,-7.12695 L -46.4882,-7.312
 L -46.5,-7.5 L -46.4882,-7.68799 L -46.4529,-7.87303 L -46.3947,-8.05219 L -46.3145,-8.22263 L -46.2135,-8.38167
 L -46.0934,-8.52681 L -45.9561,-8.65576 L -45.8037,-8.76648 L -45.6387,-8.85724 L -45.4635,-8.92657 L -45.2811,-8.97342
 L -45.0942,-8.99704 L -44.9058,-8.99704 L -44.7189,-8.97342 L -44.5365,-8.92657 L -44.3613,-8.85724 L -44.1963,-8.76648
 L -44.0439,-8.65576 L -43.9065,-8.52681 L -43.7865,-8.38167 L -43.6855,-8.22263 L -43.6053,-8.05219 L -43.5471,-7.87303
 L -43.5118,-7.68799 L -43.5,-7.5 L -43.5118,-7.312 L -43.5471,-7.12695 L -43.6053,-6.9478 L -43.6855,-6.77736
 L -43.7865,-6.61832 L -43.9065,-6.47318 L -44.0439,-6.34422 L -44.1963,-6.23351 L -44.3613,-6.14275 L -44.5365,-6.07341
 L -44.7189,-6.02657 L -44.9058,-6.00294 z
M -45.1884,2.99408 L -45.5621,2.94685 L -45.927,2.85316 L -46.2773,2.71448 L -46.6075,2.53297 L -46.9123,2.31154
 L -47.1869,2.05363 L -47.427,1.76335 L -47.6289,1.44525 L -47.7893,1.10437 L -47.9057,0.746063 L -47.9763,0.375992
 L -48,-0 L -47.9763,-0.375992 L -47.9057,-0.746063 L -47.7893,-1.10437 L -47.6289,-1.44525 L -47.427,-1.76335
 L -47.1869,-2.05363 L -46.9123,-2.31154 L -46.6075,-2.53297 L -46.2773,-2.71448 L -45.927,-2.85316 L -45.5621,-2.94685
 L -45.1884,-2.99408 L -44.8116,-2.99408 L -44.4379,-2.94685 L -44.0729,-2.85316 L -43.7227,-2.71448 L -43.3925,-2.53297
 L -43.0877,-2.31154 L -42.8131,-2.05363 L -42.5729,-1.76335 L -42.3711,-1.44525 L -42.2107,-1.10437 L -42.0942,-0.746063
 L -42.0237,-0.375992 L -42,-0 L -42.0237,0.375992 L -42.0942,0.746063 L -42.2107,1.10437 L -42.3711,1.44525
 L -42.5729,1.76335 L -42.8131,2.05363 L -43.0877,2.31154 L -43.3925,2.53297 L -43.7227,2.71448 L -44.0729,2.85316
 L -44.4379,2.94685 L -44.8116,2.99408 z
M -45.0942,8.99704 L -45.2811,8.97342 L -45.4635,8.92657 L -45.6387,8.85724 L -45.8037,8.76648 L -45.9561,8.65576
 L -46.0934,8.52681 L -46.2135,8.38167 L -46.3145,8.22263 L -46.3947,8.05219 L -46.4529,7.87303 L -46.4882,7.68799
 L -46.5,7.5 L -46.4882,7.312 L -46.4529,7.12695 L -46.3947,6.9478 L -46.3145,6.77736 L -46.2135,6.61832
 L -46.0934,6.47318 L -45.9561,6.34422 L -45.8037,6.23351 L -45.6387,6.14275 L -45.4635,6.07341 L -45.2811,6.02657
 L -45.0942,6.00294 L -44.9058,6.00294 L -44.7189,6.02657 L -44.5365,6.07341 L -44.3613,6.14275 L -44.1963,6.23351
 L -44.0439,6.34422 L -43.9065,6.47318 L -43.7865,6.61832 L -43.6855,6.77736 L -43.6053,6.9478 L -43.5471,7.12695
 L -43.5118,7.312 L -43.5,7.5 L -43.5118,7.68799 L -43.5471,7.87303 L -43.6053,8.05219 L -43.6855,8.22263
 L -43.7865,8.38167 L -43.9065,8.52681 L -44.0439,8.65576 L -44.1963,8.76648 L -44.3613,8.85724 L -44.5365,8.92657
 L -44.7189,8.97342 L -44.9058,8.99704 z
M 14.8116,17.9941 L 14.4379,17.9469 L 14.0729,17.8532 L 13.7227,17.7145 L 13.3925,17.533 L 13.0877,17.3115
 L 12.8131,17.0536 L 12.5729,16.7634 L 12.3711,16.4453 L 12.2107,16.1044 L 12.0942,15.7461 L 12.0237,15.376
 L 12,15 L 12.0237,14.624 L 12.0942,14.2539 L 12.2107,13.8956 L 12.3711,13.5547 L 12.5729,13.2366
 L 12.8131,12.9464 L 13.0877,12.6884 L 13.3925,12.467 L 13.7227,12.2855 L 14.0729,12.1468 L 14.4379,12.0531
 L 14.8116,12.0059 L 15.1884,12.0059 L 15.5621,12.0531 L 15.927,12.1468 L 16.2773,12.2855 L 16.6075,12.467
 L 16.9123,12.6884 L 17.1869,12.9464 L 17.427,13.2366 L 17.6289,13.5547 L 17.7893,13.8956 L 17.9057,14.2539
 L 17.9763,14.624 L 18,15 L 17.9763,15.376 L 17.9057,15.7461 L 17.7893,16.1044 L 17.6289,16.4453
 L 17.427,16.7634 L 17.1869,17.0536 L 16.9123,17.3115 L 16.6075,17.533 L 16.2773,17.7145 L 15.927,17.8532
 L 15.5621,17.9469 L 15.1884,17.9941 z
M -15.1884,17.9941 L -15.5621,17.9469 L -15.927,17.8532 L -16.2773,17.7145 L -16.6075,17.533 L -16.9123,17.3115
 L -17.1869,17.0536 L -17.427,16.7634 L -17.6289,16.4453 L -17.7893,16.1044 L -17.9057,15.7461 L -17.9763,15.376
 L -18,15 L -17.9763,14.624 L -17.9057,14.2539 L -17.7893,13.8956 L -17.6289,13.5547 L -17.427,13.2366
 L -17.1869,12.9464 L -16.9123,12.6884 L -16.6075,12.467 L -16.2773,12.2855 L -15.927,12.1468 L -15.5621,12.0531
 L -15.1884,12.0059 L -14.8116,12.0059 L -14.4379,12.0531 L -14.0729,12.1468 L -13.7227,12.2855 L -13.3925,12.467
 L -13.0877,12.6884 L -12.8131,12.9464 L -12.5729,13.2366 L -12.3711,13.5547 L -12.2107,13.8956 L -12.0942,14.2539
 L -12.0237,14.624 L -12,15 L -12.0237,15.376 L -12.0942,15.7461 L -12.2107,16.1044 L -12.3711,16.4453
 L -12.5729,16.7634 L -12.8131,17.0536 L -13.0877,17.3115 L -13.3925,17.533 L -13.7227,17.7145 L -14.0729,17.8532
 L -14.4379,17.9469 L -14.8116,17.9941 z
M -45.1884,17.9941 L -45.5621,17.9469 L -45.927,17.8532 L -46.2773,17.7145 L -46.6075,17.533 L -46.9123,17.3115
 L -47.1869,17.0536 L -47.427,16.7634 L -47.6289,16.4453 L -47.7893,16.1044 L -47.9057,15.7461 L -47.9763,15.376
 L -48,15 L -47.9763,14.624 L -47.9057,14.2539 L -47.7893,13.8956 L -47.6289,13.5547 L -47.427,13.2366
 L -47.1869,12.9464 L -46.9123,12.6884 L -46.6075,12.467 L -46.2773,12.2855 L -45.927,12.1468 L -45.5621,12.0531
 L -45.1884,12.0059 L -44.8116,12.0059 L -44.4379,12.0531 L -44.0729,12.1468 L -43.7227,12.2855 L -43.3925,12.467
 L -43.0877,12.6884 L -42.8131,12.9464 L -42.5729,13.2366 L -42.3711,13.5547 L -42.2107,13.8956 L -42.0942,14.2539
 L -42.0237,14.624 L -42,15 L -42.0237,15.376 L -42.0942,15.7461 L -42.2107,16.1044 L -42.3711,16.4453
 L -42.5729,16.7634 L -42.8131,17.0536 L -43.0877,17.3115 L -43.3925,17.533 L -43.7227,17.7145 L -44.0729,17.8532
 L -44.4379,17.9469 L -44.8116,17.9941 z
M -30.1884,17.9941 L -30.5621,17.9469 L -30.927,17.8532 L -31.2773,17.7145 L -31.6075,17.533 L -31.9123,17.3115
 L -32.1869,17.0536 L -32.427,16.7634 L -32.6289,16.4453 L -32.7893,16.1044 L -32.9057,15.7461 L -32.9763,15.376
 L -33,15 L -32.9763,14.624 L -32.9057,14.2539 L -32.7893,13.8956 L -32.6289,13.5547 L -32.427,13.2366
 L -32.1869,12.9464 L -31.9123,12.6884 L -31.6075,12.467 L -31.2773,12.2855 L -30.927,12.1468 L -30.5621,12.0531
 L -30.1884,12.0059 L -29.8116,12.0059 L -29.4379,12.0531 L -29.0729,12.1468 L -28.7227,12.2855 L -28.3925,12.467
 L -28.0877,12.6884 L -27.8131,12.9464 L -27.5729,13.2366 L -27.3711,13.5547 L -27.2107,13.8956 L -27.0942,14.2539
 L -27.0237,14.624 L -27,15 L -27.0237,15.376 L -27.0942,15.7461 L -27.2107,16.1044 L -27.3711,16.4453
 L -27.5729,16.7634 L -27.8131,17.0536 L -28.0877,17.3115 L -28.3925,17.533 L -28.7227,17.7145 L -29.0729,17.8532
 L -29.4379,17.9469 L -29.8116,17.9941 z
M -37.5942,16.497 L -37.7811,16.4734 L -37.9635,16.4266 L -38.1387,16.3572 L -38.3037,16.2665 L -38.4561,16.1558
 L -38.5934,16.0268 L -38.7135,15.8817 L -38.8145,15.7226 L -38.8947,15.5522 L -38.9529,15.373 L -38.9882,15.188
 L -39,15 L -38.9882,14.812 L -38.9529,14.627 L -38.8947,14.4478 L -38.8145,14.2774 L -38.7135,14.1183
 L -38.5934,13.9732 L -38.4561,13.8442 L -38.3037,13.7335 L -38.1387,13.6427 L -37.9635,13.5734 L -37.7811,13.5266
 L -37.5942,13.5029 L -37.4058,13.5029 L -37.2189,13.5266 L -37.0365,13.5734 L -36.8613,13.6427 L -36.6963,13.7335
 L -36.5439,13.8442 L -36.4065,13.9732 L -36.2865,14.1183 L -36.1855,14.2774 L -36.1053,14.4478 L -36.0471,14.627
 L -36.0118,14.812 L -36,15 L -36.0118,15.188 L -36.0471,15.373 L -36.1053,15.5522 L -36.1855,15.7226
 L -36.2865,15.8817 L -36.4065,16.0268 L -36.5439,16.1558 L -36.6963,16.2665 L -36.8613,16.3572 L -37.0365,16.4266
 L -37.2189,16.4734 L -37.4058,16.497 z
" stroke="black" fill="lightgray" stroke-width="0.5"/>
</svg>
